<?xml version="1.0" encoding="utf-8" standalone="no"?>
<!DOCTYPE svg PUBLIC "-//W3C//DTD SVG 1.1//EN"
  "http://www.w3.org/Graphics/SVG/1.1/DTD/svg11.dtd">
<svg xmlns:xlink="http://www.w3.org/1999/xlink" width="720pt" height="360pt" viewBox="0 0 720 360" xmlns="http://www.w3.org/2000/svg" version="1.1">
 <metadata>
  <rdf:RDF xmlns:dc="http://purl.org/dc/elements/1.1/" xmlns:cc="http://creativecommons.org/ns#" xmlns:rdf="http://www.w3.org/1999/02/22-rdf-syntax-ns#">
   <cc:Work>
    <dc:type rdf:resource="http://purl.org/dc/dcmitype/StillImage"/>
    <dc:date>2026-03-23T10:39:08.590802</dc:date>
    <dc:format>image/svg+xml</dc:format>
    <dc:creator>
     <cc:Agent>
      <dc:title>Matplotlib v3.10.6, https://matplotlib.org/</dc:title>
     </cc:Agent>
    </dc:creator>
   </cc:Work>
  </rdf:RDF>
 </metadata>
 <defs>
  <style type="text/css">*{stroke-linejoin: round; stroke-linecap: butt}</style>
 </defs>
 <g id="figure_1">
  <g id="patch_1">
   <path d="M 0 360 
L 720 360 
L 720 0 
L 0 0 
z
" style="fill: #ffffff"/>
  </g>
  <g id="axes_1">
   <g id="patch_2">
    <path d="M 55.56 310.98 
L 707.04 310.98 
L 707.04 28.08 
L 55.56 28.08 
z
" style="fill: #eaeaf2"/>
   </g>
   <g id="matplotlib.axis_1">
    <g id="xtick_1">
     <g id="text_1">
      <!-- 0.0 -->
      <g style="fill: #262626" transform="translate(76.426009 328.838281) scale(0.11 -0.11)">
       <defs>
        <path id="DejaVuSans-30" d="M 2034 4250 
Q 1547 4250 1301 3770 
Q 1056 3291 1056 2328 
Q 1056 1369 1301 889 
Q 1547 409 2034 409 
Q 2525 409 2770 889 
Q 3016 1369 3016 2328 
Q 3016 3291 2770 3770 
Q 2525 4250 2034 4250 
z
M 2034 4750 
Q 2819 4750 3233 4129 
Q 3647 3509 3647 2328 
Q 3647 1150 3233 529 
Q 2819 -91 2034 -91 
Q 1250 -91 836 529 
Q 422 1150 422 2328 
Q 422 3509 836 4129 
Q 1250 4750 2034 4750 
z
" transform="scale(0.015625)"/>
        <path id="DejaVuSans-2e" d="M 684 794 
L 1344 794 
L 1344 0 
L 684 0 
L 684 794 
z
" transform="scale(0.015625)"/>
       </defs>
       <use xlink:href="#DejaVuSans-30"/>
       <use xlink:href="#DejaVuSans-2e" transform="translate(63.623047 0)"/>
       <use xlink:href="#DejaVuSans-30" transform="translate(95.410156 0)"/>
      </g>
     </g>
    </g>
    <g id="xtick_2">
     <g id="text_2">
      <!-- 2.5 -->
      <g style="fill: #262626" transform="translate(150.767583 328.838281) scale(0.11 -0.11)">
       <defs>
        <path id="DejaVuSans-32" d="M 1228 531 
L 3431 531 
L 3431 0 
L 469 0 
L 469 531 
Q 828 903 1448 1529 
Q 2069 2156 2228 2338 
Q 2531 2678 2651 2914 
Q 2772 3150 2772 3378 
Q 2772 3750 2511 3984 
Q 2250 4219 1831 4219 
Q 1534 4219 1204 4116 
Q 875 4013 500 3803 
L 500 4441 
Q 881 4594 1212 4672 
Q 1544 4750 1819 4750 
Q 2544 4750 2975 4387 
Q 3406 4025 3406 3419 
Q 3406 3131 3298 2873 
Q 3191 2616 2906 2266 
Q 2828 2175 2409 1742 
Q 1991 1309 1228 531 
z
" transform="scale(0.015625)"/>
        <path id="DejaVuSans-35" d="M 691 4666 
L 3169 4666 
L 3169 4134 
L 1269 4134 
L 1269 2991 
Q 1406 3038 1543 3061 
Q 1681 3084 1819 3084 
Q 2600 3084 3056 2656 
Q 3513 2228 3513 1497 
Q 3513 744 3044 326 
Q 2575 -91 1722 -91 
Q 1428 -91 1123 -41 
Q 819 9 494 109 
L 494 744 
Q 775 591 1075 516 
Q 1375 441 1709 441 
Q 2250 441 2565 725 
Q 2881 1009 2881 1497 
Q 2881 1984 2565 2268 
Q 2250 2553 1709 2553 
Q 1456 2553 1204 2497 
Q 953 2441 691 2322 
L 691 4666 
z
" transform="scale(0.015625)"/>
       </defs>
       <use xlink:href="#DejaVuSans-32"/>
       <use xlink:href="#DejaVuSans-2e" transform="translate(63.623047 0)"/>
       <use xlink:href="#DejaVuSans-35" transform="translate(95.410156 0)"/>
      </g>
     </g>
    </g>
    <g id="xtick_3">
     <g id="text_3">
      <!-- 5.0 -->
      <g style="fill: #262626" transform="translate(225.109158 328.838281) scale(0.11 -0.11)">
       <use xlink:href="#DejaVuSans-35"/>
       <use xlink:href="#DejaVuSans-2e" transform="translate(63.623047 0)"/>
       <use xlink:href="#DejaVuSans-30" transform="translate(95.410156 0)"/>
      </g>
     </g>
    </g>
    <g id="xtick_4">
     <g id="text_4">
      <!-- 7.5 -->
      <g style="fill: #262626" transform="translate(299.450733 328.838281) scale(0.11 -0.11)">
       <defs>
        <path id="DejaVuSans-37" d="M 525 4666 
L 3525 4666 
L 3525 4397 
L 1831 0 
L 1172 0 
L 2766 4134 
L 525 4134 
L 525 4666 
z
" transform="scale(0.015625)"/>
       </defs>
       <use xlink:href="#DejaVuSans-37"/>
       <use xlink:href="#DejaVuSans-2e" transform="translate(63.623047 0)"/>
       <use xlink:href="#DejaVuSans-35" transform="translate(95.410156 0)"/>
      </g>
     </g>
    </g>
    <g id="xtick_5">
     <g id="text_5">
      <!-- 10.0 -->
      <g style="fill: #262626" transform="translate(370.292932 328.838281) scale(0.11 -0.11)">
       <defs>
        <path id="DejaVuSans-31" d="M 794 531 
L 1825 531 
L 1825 4091 
L 703 3866 
L 703 4441 
L 1819 4666 
L 2450 4666 
L 2450 531 
L 3481 531 
L 3481 0 
L 794 0 
L 794 531 
z
" transform="scale(0.015625)"/>
       </defs>
       <use xlink:href="#DejaVuSans-31"/>
       <use xlink:href="#DejaVuSans-30" transform="translate(63.623047 0)"/>
       <use xlink:href="#DejaVuSans-2e" transform="translate(127.246094 0)"/>
       <use xlink:href="#DejaVuSans-30" transform="translate(159.033203 0)"/>
      </g>
     </g>
    </g>
    <g id="xtick_6">
     <g id="text_6">
      <!-- 12.5 -->
      <g style="fill: #262626" transform="translate(444.634507 328.838281) scale(0.11 -0.11)">
       <use xlink:href="#DejaVuSans-31"/>
       <use xlink:href="#DejaVuSans-32" transform="translate(63.623047 0)"/>
       <use xlink:href="#DejaVuSans-2e" transform="translate(127.246094 0)"/>
       <use xlink:href="#DejaVuSans-35" transform="translate(159.033203 0)"/>
      </g>
     </g>
    </g>
    <g id="xtick_7">
     <g id="text_7">
      <!-- 15.0 -->
      <g style="fill: #262626" transform="translate(518.976082 328.838281) scale(0.11 -0.11)">
       <use xlink:href="#DejaVuSans-31"/>
       <use xlink:href="#DejaVuSans-35" transform="translate(63.623047 0)"/>
       <use xlink:href="#DejaVuSans-2e" transform="translate(127.246094 0)"/>
       <use xlink:href="#DejaVuSans-30" transform="translate(159.033203 0)"/>
      </g>
     </g>
    </g>
    <g id="xtick_8">
     <g id="text_8">
      <!-- 17.5 -->
      <g style="fill: #262626" transform="translate(593.317657 328.838281) scale(0.11 -0.11)">
       <use xlink:href="#DejaVuSans-31"/>
       <use xlink:href="#DejaVuSans-37" transform="translate(63.623047 0)"/>
       <use xlink:href="#DejaVuSans-2e" transform="translate(127.246094 0)"/>
       <use xlink:href="#DejaVuSans-35" transform="translate(159.033203 0)"/>
      </g>
     </g>
    </g>
    <g id="xtick_9">
     <g id="text_9">
      <!-- 20.0 -->
      <g style="fill: #262626" transform="translate(667.659231 328.838281) scale(0.11 -0.11)">
       <use xlink:href="#DejaVuSans-32"/>
       <use xlink:href="#DejaVuSans-30" transform="translate(63.623047 0)"/>
       <use xlink:href="#DejaVuSans-2e" transform="translate(127.246094 0)"/>
       <use xlink:href="#DejaVuSans-30" transform="translate(159.033203 0)"/>
      </g>
     </g>
    </g>
    <g id="text_10">
     <!-- Time [days] -->
     <g style="fill: #262626" transform="translate(345.868125 344.244062) scale(0.12 -0.12)">
      <defs>
       <path id="DejaVuSans-54" d="M -19 4666 
L 3928 4666 
L 3928 4134 
L 2272 4134 
L 2272 0 
L 1638 0 
L 1638 4134 
L -19 4134 
L -19 4666 
z
" transform="scale(0.015625)"/>
       <path id="DejaVuSans-69" d="M 603 3500 
L 1178 3500 
L 1178 0 
L 603 0 
L 603 3500 
z
M 603 4863 
L 1178 4863 
L 1178 4134 
L 603 4134 
L 603 4863 
z
" transform="scale(0.015625)"/>
       <path id="DejaVuSans-6d" d="M 3328 2828 
Q 3544 3216 3844 3400 
Q 4144 3584 4550 3584 
Q 5097 3584 5394 3201 
Q 5691 2819 5691 2113 
L 5691 0 
L 5113 0 
L 5113 2094 
Q 5113 2597 4934 2840 
Q 4756 3084 4391 3084 
Q 3944 3084 3684 2787 
Q 3425 2491 3425 1978 
L 3425 0 
L 2847 0 
L 2847 2094 
Q 2847 2600 2669 2842 
Q 2491 3084 2119 3084 
Q 1678 3084 1418 2786 
Q 1159 2488 1159 1978 
L 1159 0 
L 581 0 
L 581 3500 
L 1159 3500 
L 1159 2956 
Q 1356 3278 1631 3431 
Q 1906 3584 2284 3584 
Q 2666 3584 2933 3390 
Q 3200 3197 3328 2828 
z
" transform="scale(0.015625)"/>
       <path id="DejaVuSans-65" d="M 3597 1894 
L 3597 1613 
L 953 1613 
Q 991 1019 1311 708 
Q 1631 397 2203 397 
Q 2534 397 2845 478 
Q 3156 559 3463 722 
L 3463 178 
Q 3153 47 2828 -22 
Q 2503 -91 2169 -91 
Q 1331 -91 842 396 
Q 353 884 353 1716 
Q 353 2575 817 3079 
Q 1281 3584 2069 3584 
Q 2775 3584 3186 3129 
Q 3597 2675 3597 1894 
z
M 3022 2063 
Q 3016 2534 2758 2815 
Q 2500 3097 2075 3097 
Q 1594 3097 1305 2825 
Q 1016 2553 972 2059 
L 3022 2063 
z
" transform="scale(0.015625)"/>
       <path id="DejaVuSans-20" transform="scale(0.015625)"/>
       <path id="DejaVuSans-5b" d="M 550 4863 
L 1875 4863 
L 1875 4416 
L 1125 4416 
L 1125 -397 
L 1875 -397 
L 1875 -844 
L 550 -844 
L 550 4863 
z
" transform="scale(0.015625)"/>
       <path id="DejaVuSans-64" d="M 2906 2969 
L 2906 4863 
L 3481 4863 
L 3481 0 
L 2906 0 
L 2906 525 
Q 2725 213 2448 61 
Q 2172 -91 1784 -91 
Q 1150 -91 751 415 
Q 353 922 353 1747 
Q 353 2572 751 3078 
Q 1150 3584 1784 3584 
Q 2172 3584 2448 3432 
Q 2725 3281 2906 2969 
z
M 947 1747 
Q 947 1113 1208 752 
Q 1469 391 1925 391 
Q 2381 391 2643 752 
Q 2906 1113 2906 1747 
Q 2906 2381 2643 2742 
Q 2381 3103 1925 3103 
Q 1469 3103 1208 2742 
Q 947 2381 947 1747 
z
" transform="scale(0.015625)"/>
       <path id="DejaVuSans-61" d="M 2194 1759 
Q 1497 1759 1228 1600 
Q 959 1441 959 1056 
Q 959 750 1161 570 
Q 1363 391 1709 391 
Q 2188 391 2477 730 
Q 2766 1069 2766 1631 
L 2766 1759 
L 2194 1759 
z
M 3341 1997 
L 3341 0 
L 2766 0 
L 2766 531 
Q 2569 213 2275 61 
Q 1981 -91 1556 -91 
Q 1019 -91 701 211 
Q 384 513 384 1019 
Q 384 1609 779 1909 
Q 1175 2209 1959 2209 
L 2766 2209 
L 2766 2266 
Q 2766 2663 2505 2880 
Q 2244 3097 1772 3097 
Q 1472 3097 1187 3025 
Q 903 2953 641 2809 
L 641 3341 
Q 956 3463 1253 3523 
Q 1550 3584 1831 3584 
Q 2591 3584 2966 3190 
Q 3341 2797 3341 1997 
z
" transform="scale(0.015625)"/>
       <path id="DejaVuSans-79" d="M 2059 -325 
Q 1816 -950 1584 -1140 
Q 1353 -1331 966 -1331 
L 506 -1331 
L 506 -850 
L 844 -850 
Q 1081 -850 1212 -737 
Q 1344 -625 1503 -206 
L 1606 56 
L 191 3500 
L 800 3500 
L 1894 763 
L 2988 3500 
L 3597 3500 
L 2059 -325 
z
" transform="scale(0.015625)"/>
       <path id="DejaVuSans-73" d="M 2834 3397 
L 2834 2853 
Q 2591 2978 2328 3040 
Q 2066 3103 1784 3103 
Q 1356 3103 1142 2972 
Q 928 2841 928 2578 
Q 928 2378 1081 2264 
Q 1234 2150 1697 2047 
L 1894 2003 
Q 2506 1872 2764 1633 
Q 3022 1394 3022 966 
Q 3022 478 2636 193 
Q 2250 -91 1575 -91 
Q 1294 -91 989 -36 
Q 684 19 347 128 
L 347 722 
Q 666 556 975 473 
Q 1284 391 1588 391 
Q 1994 391 2212 530 
Q 2431 669 2431 922 
Q 2431 1156 2273 1281 
Q 2116 1406 1581 1522 
L 1381 1569 
Q 847 1681 609 1914 
Q 372 2147 372 2553 
Q 372 3047 722 3315 
Q 1072 3584 1716 3584 
Q 2034 3584 2315 3537 
Q 2597 3491 2834 3397 
z
" transform="scale(0.015625)"/>
       <path id="DejaVuSans-5d" d="M 1947 4863 
L 1947 -844 
L 622 -844 
L 622 -397 
L 1369 -397 
L 1369 4416 
L 622 4416 
L 622 4863 
L 1947 4863 
z
" transform="scale(0.015625)"/>
      </defs>
      <use xlink:href="#DejaVuSans-54"/>
      <use xlink:href="#DejaVuSans-69" transform="translate(57.958984 0)"/>
      <use xlink:href="#DejaVuSans-6d" transform="translate(85.742188 0)"/>
      <use xlink:href="#DejaVuSans-65" transform="translate(183.154297 0)"/>
      <use xlink:href="#DejaVuSans-20" transform="translate(244.677734 0)"/>
      <use xlink:href="#DejaVuSans-5b" transform="translate(276.464844 0)"/>
      <use xlink:href="#DejaVuSans-64" transform="translate(315.478516 0)"/>
      <use xlink:href="#DejaVuSans-61" transform="translate(378.955078 0)"/>
      <use xlink:href="#DejaVuSans-79" transform="translate(440.234375 0)"/>
      <use xlink:href="#DejaVuSans-73" transform="translate(499.414062 0)"/>
      <use xlink:href="#DejaVuSans-5d" transform="translate(551.513672 0)"/>
     </g>
    </g>
   </g>
   <g id="matplotlib.axis_2">
    <g id="ytick_1">
     <g id="text_11">
      <!-- 0.0 -->
      <g style="fill: #262626" transform="translate(28.566563 302.30005) scale(0.11 -0.11)">
       <use xlink:href="#DejaVuSans-30"/>
       <use xlink:href="#DejaVuSans-2e" transform="translate(63.623047 0)"/>
       <use xlink:href="#DejaVuSans-30" transform="translate(95.410156 0)"/>
      </g>
     </g>
    </g>
    <g id="ytick_2">
     <g id="text_12">
      <!-- 0.2 -->
      <g style="fill: #262626" transform="translate(28.566563 250.863686) scale(0.11 -0.11)">
       <use xlink:href="#DejaVuSans-30"/>
       <use xlink:href="#DejaVuSans-2e" transform="translate(63.623047 0)"/>
       <use xlink:href="#DejaVuSans-32" transform="translate(95.410156 0)"/>
      </g>
     </g>
    </g>
    <g id="ytick_3">
     <g id="text_13">
      <!-- 0.4 -->
      <g style="fill: #262626" transform="translate(28.566563 199.427322) scale(0.11 -0.11)">
       <defs>
        <path id="DejaVuSans-34" d="M 2419 4116 
L 825 1625 
L 2419 1625 
L 2419 4116 
z
M 2253 4666 
L 3047 4666 
L 3047 1625 
L 3713 1625 
L 3713 1100 
L 3047 1100 
L 3047 0 
L 2419 0 
L 2419 1100 
L 313 1100 
L 313 1709 
L 2253 4666 
z
" transform="scale(0.015625)"/>
       </defs>
       <use xlink:href="#DejaVuSans-30"/>
       <use xlink:href="#DejaVuSans-2e" transform="translate(63.623047 0)"/>
       <use xlink:href="#DejaVuSans-34" transform="translate(95.410156 0)"/>
      </g>
     </g>
    </g>
    <g id="ytick_4">
     <g id="text_14">
      <!-- 0.6 -->
      <g style="fill: #262626" transform="translate(28.566563 147.990959) scale(0.11 -0.11)">
       <defs>
        <path id="DejaVuSans-36" d="M 2113 2584 
Q 1688 2584 1439 2293 
Q 1191 2003 1191 1497 
Q 1191 994 1439 701 
Q 1688 409 2113 409 
Q 2538 409 2786 701 
Q 3034 994 3034 1497 
Q 3034 2003 2786 2293 
Q 2538 2584 2113 2584 
z
M 3366 4563 
L 3366 3988 
Q 3128 4100 2886 4159 
Q 2644 4219 2406 4219 
Q 1781 4219 1451 3797 
Q 1122 3375 1075 2522 
Q 1259 2794 1537 2939 
Q 1816 3084 2150 3084 
Q 2853 3084 3261 2657 
Q 3669 2231 3669 1497 
Q 3669 778 3244 343 
Q 2819 -91 2113 -91 
Q 1303 -91 875 529 
Q 447 1150 447 2328 
Q 447 3434 972 4092 
Q 1497 4750 2381 4750 
Q 2619 4750 2861 4703 
Q 3103 4656 3366 4563 
z
" transform="scale(0.015625)"/>
       </defs>
       <use xlink:href="#DejaVuSans-30"/>
       <use xlink:href="#DejaVuSans-2e" transform="translate(63.623047 0)"/>
       <use xlink:href="#DejaVuSans-36" transform="translate(95.410156 0)"/>
      </g>
     </g>
    </g>
    <g id="ytick_5">
     <g id="text_15">
      <!-- 0.8 -->
      <g style="fill: #262626" transform="translate(28.566563 96.554595) scale(0.11 -0.11)">
       <defs>
        <path id="DejaVuSans-38" d="M 2034 2216 
Q 1584 2216 1326 1975 
Q 1069 1734 1069 1313 
Q 1069 891 1326 650 
Q 1584 409 2034 409 
Q 2484 409 2743 651 
Q 3003 894 3003 1313 
Q 3003 1734 2745 1975 
Q 2488 2216 2034 2216 
z
M 1403 2484 
Q 997 2584 770 2862 
Q 544 3141 544 3541 
Q 544 4100 942 4425 
Q 1341 4750 2034 4750 
Q 2731 4750 3128 4425 
Q 3525 4100 3525 3541 
Q 3525 3141 3298 2862 
Q 3072 2584 2669 2484 
Q 3125 2378 3379 2068 
Q 3634 1759 3634 1313 
Q 3634 634 3220 271 
Q 2806 -91 2034 -91 
Q 1263 -91 848 271 
Q 434 634 434 1313 
Q 434 1759 690 2068 
Q 947 2378 1403 2484 
z
M 1172 3481 
Q 1172 3119 1398 2916 
Q 1625 2713 2034 2713 
Q 2441 2713 2670 2916 
Q 2900 3119 2900 3481 
Q 2900 3844 2670 4047 
Q 2441 4250 2034 4250 
Q 1625 4250 1398 4047 
Q 1172 3844 1172 3481 
z
" transform="scale(0.015625)"/>
       </defs>
       <use xlink:href="#DejaVuSans-30"/>
       <use xlink:href="#DejaVuSans-2e" transform="translate(63.623047 0)"/>
       <use xlink:href="#DejaVuSans-38" transform="translate(95.410156 0)"/>
      </g>
     </g>
    </g>
    <g id="ytick_6">
     <g id="text_16">
      <!-- 1.0 -->
      <g style="fill: #262626" transform="translate(28.566563 45.118232) scale(0.11 -0.11)">
       <use xlink:href="#DejaVuSans-31"/>
       <use xlink:href="#DejaVuSans-2e" transform="translate(63.623047 0)"/>
       <use xlink:href="#DejaVuSans-30" transform="translate(95.410156 0)"/>
      </g>
     </g>
    </g>
    <g id="text_17">
     <!-- Velocity RMSE -->
     <g style="fill: #262626" transform="translate(22.070938 211.921875) rotate(-90) scale(0.12 -0.12)">
      <defs>
       <path id="DejaVuSans-56" d="M 1831 0 
L 50 4666 
L 709 4666 
L 2188 738 
L 3669 4666 
L 4325 4666 
L 2547 0 
L 1831 0 
z
" transform="scale(0.015625)"/>
       <path id="DejaVuSans-6c" d="M 603 4863 
L 1178 4863 
L 1178 0 
L 603 0 
L 603 4863 
z
" transform="scale(0.015625)"/>
       <path id="DejaVuSans-6f" d="M 1959 3097 
Q 1497 3097 1228 2736 
Q 959 2375 959 1747 
Q 959 1119 1226 758 
Q 1494 397 1959 397 
Q 2419 397 2687 759 
Q 2956 1122 2956 1747 
Q 2956 2369 2687 2733 
Q 2419 3097 1959 3097 
z
M 1959 3584 
Q 2709 3584 3137 3096 
Q 3566 2609 3566 1747 
Q 3566 888 3137 398 
Q 2709 -91 1959 -91 
Q 1206 -91 779 398 
Q 353 888 353 1747 
Q 353 2609 779 3096 
Q 1206 3584 1959 3584 
z
" transform="scale(0.015625)"/>
       <path id="DejaVuSans-63" d="M 3122 3366 
L 3122 2828 
Q 2878 2963 2633 3030 
Q 2388 3097 2138 3097 
Q 1578 3097 1268 2742 
Q 959 2388 959 1747 
Q 959 1106 1268 751 
Q 1578 397 2138 397 
Q 2388 397 2633 464 
Q 2878 531 3122 666 
L 3122 134 
Q 2881 22 2623 -34 
Q 2366 -91 2075 -91 
Q 1284 -91 818 406 
Q 353 903 353 1747 
Q 353 2603 823 3093 
Q 1294 3584 2113 3584 
Q 2378 3584 2631 3529 
Q 2884 3475 3122 3366 
z
" transform="scale(0.015625)"/>
       <path id="DejaVuSans-74" d="M 1172 4494 
L 1172 3500 
L 2356 3500 
L 2356 3053 
L 1172 3053 
L 1172 1153 
Q 1172 725 1289 603 
Q 1406 481 1766 481 
L 2356 481 
L 2356 0 
L 1766 0 
Q 1100 0 847 248 
Q 594 497 594 1153 
L 594 3053 
L 172 3053 
L 172 3500 
L 594 3500 
L 594 4494 
L 1172 4494 
z
" transform="scale(0.015625)"/>
       <path id="DejaVuSans-52" d="M 2841 2188 
Q 3044 2119 3236 1894 
Q 3428 1669 3622 1275 
L 4263 0 
L 3584 0 
L 2988 1197 
Q 2756 1666 2539 1819 
Q 2322 1972 1947 1972 
L 1259 1972 
L 1259 0 
L 628 0 
L 628 4666 
L 2053 4666 
Q 2853 4666 3247 4331 
Q 3641 3997 3641 3322 
Q 3641 2881 3436 2590 
Q 3231 2300 2841 2188 
z
M 1259 4147 
L 1259 2491 
L 2053 2491 
Q 2509 2491 2742 2702 
Q 2975 2913 2975 3322 
Q 2975 3731 2742 3939 
Q 2509 4147 2053 4147 
L 1259 4147 
z
" transform="scale(0.015625)"/>
       <path id="DejaVuSans-4d" d="M 628 4666 
L 1569 4666 
L 2759 1491 
L 3956 4666 
L 4897 4666 
L 4897 0 
L 4281 0 
L 4281 4097 
L 3078 897 
L 2444 897 
L 1241 4097 
L 1241 0 
L 628 0 
L 628 4666 
z
" transform="scale(0.015625)"/>
       <path id="DejaVuSans-53" d="M 3425 4513 
L 3425 3897 
Q 3066 4069 2747 4153 
Q 2428 4238 2131 4238 
Q 1616 4238 1336 4038 
Q 1056 3838 1056 3469 
Q 1056 3159 1242 3001 
Q 1428 2844 1947 2747 
L 2328 2669 
Q 3034 2534 3370 2195 
Q 3706 1856 3706 1288 
Q 3706 609 3251 259 
Q 2797 -91 1919 -91 
Q 1588 -91 1214 -16 
Q 841 59 441 206 
L 441 856 
Q 825 641 1194 531 
Q 1563 422 1919 422 
Q 2459 422 2753 634 
Q 3047 847 3047 1241 
Q 3047 1584 2836 1778 
Q 2625 1972 2144 2069 
L 1759 2144 
Q 1053 2284 737 2584 
Q 422 2884 422 3419 
Q 422 4038 858 4394 
Q 1294 4750 2059 4750 
Q 2388 4750 2728 4690 
Q 3069 4631 3425 4513 
z
" transform="scale(0.015625)"/>
       <path id="DejaVuSans-45" d="M 628 4666 
L 3578 4666 
L 3578 4134 
L 1259 4134 
L 1259 2753 
L 3481 2753 
L 3481 2222 
L 1259 2222 
L 1259 531 
L 3634 531 
L 3634 0 
L 628 0 
L 628 4666 
z
" transform="scale(0.015625)"/>
      </defs>
      <use xlink:href="#DejaVuSans-56"/>
      <use xlink:href="#DejaVuSans-65" transform="translate(60.658203 0)"/>
      <use xlink:href="#DejaVuSans-6c" transform="translate(122.181641 0)"/>
      <use xlink:href="#DejaVuSans-6f" transform="translate(149.964844 0)"/>
      <use xlink:href="#DejaVuSans-63" transform="translate(211.146484 0)"/>
      <use xlink:href="#DejaVuSans-69" transform="translate(266.126953 0)"/>
      <use xlink:href="#DejaVuSans-74" transform="translate(293.910156 0)"/>
      <use xlink:href="#DejaVuSans-79" transform="translate(333.119141 0)"/>
      <use xlink:href="#DejaVuSans-20" transform="translate(392.298828 0)"/>
      <use xlink:href="#DejaVuSans-52" transform="translate(424.085938 0)"/>
      <use xlink:href="#DejaVuSans-4d" transform="translate(493.568359 0)"/>
      <use xlink:href="#DejaVuSans-53" transform="translate(579.847656 0)"/>
      <use xlink:href="#DejaVuSans-45" transform="translate(643.324219 0)"/>
     </g>
    </g>
   </g>
   <g id="FillBetweenPolyCollection_1">
    <defs>
     <path id="m80582f2d8c" d="M 85.172727 -138.619235 
L 85.172727 -136.056709 
L 87.65078 -136.458196 
L 90.128832 -137.103033 
L 92.606885 -137.352989 
L 95.084937 -136.880672 
L 97.56299 -136.394972 
L 100.041042 -136.676981 
L 102.519095 -137.623849 
L 104.997147 -138.839594 
L 107.4752 -140.315168 
L 109.953252 -142.033897 
L 112.431305 -143.261672 
L 114.909357 -143.868269 
L 117.38741 -144.816542 
L 119.865462 -146.323728 
L 122.343515 -148.2816 
L 124.821567 -151.054265 
L 127.29962 -153.661828 
L 129.777672 -155.263206 
L 132.255725 -156.066432 
L 134.733777 -156.231417 
L 137.21183 -157.063212 
L 139.689882 -158.416548 
L 142.167935 -160.702669 
L 144.645987 -161.797425 
L 147.12404 -162.271357 
L 149.602092 -162.773911 
L 152.080145 -163.676421 
L 154.558197 -164.968718 
L 157.03625 -166.483508 
L 159.514302 -167.850067 
L 161.992355 -169.19874 
L 164.470407 -170.794282 
L 166.948459 -172.704316 
L 169.426512 -174.821611 
L 171.904564 -176.484516 
L 174.382617 -177.299425 
L 176.860669 -178.427175 
L 179.338722 -179.538125 
L 181.816774 -180.699372 
L 184.294827 -181.637744 
L 186.772879 -182.610435 
L 189.250932 -183.79874 
L 191.728984 -185.020962 
L 194.207037 -186.253359 
L 196.685089 -187.619492 
L 199.163142 -188.805864 
L 201.641194 -190.020669 
L 204.119247 -191.087553 
L 206.597299 -192.025764 
L 209.075352 -192.70871 
L 211.553404 -193.110731 
L 214.031457 -193.737203 
L 216.509509 -194.759158 
L 218.987562 -195.593446 
L 221.465614 -196.234879 
L 223.943667 -197.227067 
L 226.421719 -198.974136 
L 228.899772 -201.133812 
L 231.377824 -203.153719 
L 233.855877 -204.622277 
L 236.333929 -205.585617 
L 238.811982 -206.261557 
L 241.290034 -206.755 
L 243.768087 -207.724114 
L 246.246139 -209.298553 
L 248.724192 -211.000138 
L 251.202244 -213.037733 
L 253.680297 -215.163831 
L 256.158349 -217.137472 
L 258.636402 -218.90292 
L 261.114454 -220.414619 
L 263.592507 -221.277193 
L 266.070559 -221.640707 
L 268.548612 -222.305797 
L 271.026664 -223.59579 
L 273.504717 -225.685055 
L 275.982769 -228.080551 
L 278.460822 -229.629311 
L 280.938874 -230.887536 
L 283.416927 -231.973688 
L 285.894979 -233.345692 
L 288.373032 -235.348399 
L 290.851084 -237.646526 
L 293.329137 -239.230749 
L 295.807189 -240.292539 
L 298.285242 -240.974537 
L 300.763294 -241.686292 
L 303.241347 -242.805528 
L 305.719399 -244.372866 
L 308.197452 -246.266828 
L 310.675504 -248.558626 
L 313.153556 -250.716608 
L 315.631609 -252.196308 
L 318.109661 -252.924135 
L 320.587714 -253.394168 
L 323.065766 -253.732666 
L 325.543819 -254.905701 
L 328.021871 -256.807859 
L 330.499924 -258.98952 
L 332.977976 -260.706955 
L 335.456029 -262.027827 
L 337.934081 -262.758758 
L 340.412134 -262.949102 
L 342.890186 -262.585866 
L 345.368239 -262.752825 
L 347.846291 -263.731618 
L 350.324344 -265.09884 
L 352.802396 -266.564824 
L 355.280449 -267.689513 
L 357.758501 -268.539447 
L 360.236554 -269.294007 
L 362.714606 -269.785947 
L 365.192659 -270.247908 
L 367.670711 -271.022343 
L 370.148764 -272.075885 
L 372.626816 -273.732321 
L 375.104869 -275.513253 
L 377.582921 -276.954039 
L 380.060974 -277.732506 
L 382.539026 -277.826785 
L 385.017079 -277.242926 
L 387.495131 -277.018666 
L 389.973184 -277.374387 
L 392.451236 -278.506292 
L 394.929289 -280.606631 
L 397.407341 -282.57122 
L 399.885394 -284.083375 
L 402.363446 -285.138598 
L 404.841499 -285.342975 
L 407.319551 -285.271304 
L 409.797604 -285.110536 
L 412.275656 -284.9154 
L 414.753709 -284.991904 
L 417.231761 -284.677572 
L 419.709814 -285.603531 
L 422.187866 -287.139539 
L 424.665919 -289.402873 
L 427.143971 -291.175607 
L 429.622024 -292.266567 
L 432.100076 -291.633943 
L 434.578129 -290.734529 
L 437.056181 -289.61708 
L 439.534234 -289.154238 
L 442.012286 -289.209526 
L 444.490339 -289.8875 
L 446.968391 -291.39083 
L 449.446444 -292.948324 
L 451.924496 -294.215274 
L 454.402548 -294.499366 
L 456.880601 -294.045154 
L 459.358653 -292.966243 
L 461.836706 -291.763164 
L 464.314758 -291.444248 
L 466.792811 -292.143786 
L 469.270863 -293.705395 
L 471.748916 -295.558838 
L 474.226968 -296.665828 
L 476.705021 -297.195404 
L 479.183073 -297.317463 
L 481.661126 -296.960759 
L 484.139178 -296.520467 
L 486.617231 -296.49975 
L 489.095283 -296.854716 
L 491.573336 -297.03549 
L 494.051388 -297.056431 
L 496.529441 -297.073625 
L 499.007493 -297.891074 
L 501.485546 -298.684778 
L 503.963598 -299.778275 
L 506.441651 -300.906464 
L 508.919703 -302.342309 
L 511.397756 -304.71525 
L 513.875808 -306.502229 
L 516.353861 -307.607709 
L 518.831913 -307.827653 
L 521.309966 -308.220815 
L 523.788018 -308.581487 
L 526.266071 -309.444241 
L 528.744123 -310.57087 
L 531.222176 -311.850143 
L 533.700228 -312.539155 
L 536.178281 -312.148286 
L 538.656333 -311.189868 
L 541.134386 -310.606594 
L 543.612438 -310.928144 
L 546.090491 -312.495569 
L 548.568543 -315.622815 
L 551.046596 -319.020451 
L 553.524648 -321.462136 
L 556.002701 -322.079181 
L 558.480753 -321.527993 
L 560.958806 -319.84865 
L 563.436858 -317.778593 
L 565.914911 -316.895179 
L 568.392963 -318.0843 
L 570.871016 -320.925185 
L 573.349068 -324.471385 
L 575.827121 -326.96593 
L 578.305173 -327.363934 
L 580.783226 -325.073846 
L 583.261278 -322.634075 
L 585.739331 -321.5199 
L 588.217383 -321.056559 
L 590.695436 -321.650078 
L 593.173488 -323.314471 
L 595.651541 -325.201422 
L 598.129593 -327.513248 
L 600.607645 -329.265621 
L 603.085698 -330.060912 
L 605.56375 -329.342908 
L 608.041803 -327.834685 
L 610.519855 -326.338892 
L 612.997908 -326.234943 
L 615.47596 -327.780416 
L 617.954013 -331.31693 
L 620.432065 -334.612479 
L 622.910118 -336.814048 
L 625.38817 -337.310534 
L 627.866223 -336.781098 
L 630.344275 -336.025332 
L 632.822328 -335.996379 
L 635.30038 -336.227195 
L 637.778433 -336.779136 
L 640.256485 -337.231672 
L 642.734538 -338.071848 
L 645.21259 -338.978358 
L 647.690643 -340.173769 
L 650.168695 -341.134157 
L 652.646748 -341.846509 
L 655.1248 -342.828576 
L 657.602853 -343.833788 
L 660.080905 -344.652737 
L 662.558958 -345.473453 
L 665.03701 -345.832604 
L 667.515063 -346.031496 
L 669.993115 -346.263624 
L 672.471168 -346.841282 
L 674.94922 -347.953224 
L 677.427273 -349.250129 
L 677.427273 -401.009836 
L 677.427273 -401.009836 
L 674.94922 -402.53983 
L 672.471168 -404.864873 
L 669.993115 -406.328722 
L 667.515063 -406.295826 
L 665.03701 -404.289359 
L 662.558958 -401.536297 
L 660.080905 -399.418606 
L 657.602853 -398.950297 
L 655.1248 -400.377314 
L 652.646748 -402.940298 
L 650.168695 -405.218367 
L 647.690643 -405.024904 
L 645.21259 -401.691144 
L 642.734538 -397.768151 
L 640.256485 -393.817169 
L 637.778433 -391.641625 
L 635.30038 -391.147778 
L 632.822328 -391.779664 
L 630.344275 -392.066608 
L 627.866223 -392.359873 
L 625.38817 -392.170641 
L 622.910118 -391.757324 
L 620.432065 -391.123047 
L 617.954013 -390.175683 
L 615.47596 -389.504562 
L 612.997908 -389.761336 
L 610.519855 -390.814921 
L 608.041803 -392.073031 
L 605.56375 -392.543712 
L 603.085698 -392.009448 
L 600.607645 -391.445637 
L 598.129593 -391.136739 
L 595.651541 -390.805781 
L 593.173488 -390.476207 
L 590.695436 -389.760929 
L 588.217383 -388.439492 
L 585.739331 -386.975651 
L 583.261278 -385.912564 
L 580.783226 -385.001955 
L 578.305173 -384.339194 
L 575.827121 -383.568764 
L 573.349068 -382.957657 
L 570.871016 -382.531305 
L 568.392963 -382.178124 
L 565.914911 -381.598274 
L 563.436858 -380.728978 
L 560.958806 -379.322258 
L 558.480753 -377.410344 
L 556.002701 -375.630428 
L 553.524648 -374.34246 
L 551.046596 -373.7908 
L 548.568543 -374.011925 
L 546.090491 -374.029049 
L 543.612438 -373.538979 
L 541.134386 -372.796124 
L 538.656333 -371.952587 
L 536.178281 -371.046555 
L 533.700228 -370.460966 
L 531.222176 -369.964939 
L 528.744123 -369.699176 
L 526.266071 -369.738815 
L 523.788018 -370.229943 
L 521.309966 -370.37346 
L 518.831913 -369.934853 
L 516.353861 -368.624935 
L 513.875808 -367.152399 
L 511.397756 -365.982229 
L 508.919703 -364.952658 
L 506.441651 -364.135641 
L 503.963598 -363.68015 
L 501.485546 -363.097595 
L 499.007493 -362.705541 
L 496.529441 -362.868667 
L 494.051388 -363.011746 
L 491.573336 -363.336725 
L 489.095283 -363.459812 
L 486.617231 -363.047771 
L 484.139178 -362.622802 
L 481.661126 -362.266732 
L 479.183073 -361.720975 
L 476.705021 -361.452897 
L 474.226968 -361.356297 
L 471.748916 -361.33164 
L 469.270863 -361.938849 
L 466.792811 -362.926464 
L 464.314758 -363.449518 
L 461.836706 -363.262341 
L 459.358653 -362.39882 
L 456.880601 -361.673592 
L 454.402548 -360.715468 
L 451.924496 -359.740582 
L 449.446444 -359.224787 
L 446.968391 -358.924444 
L 444.490339 -358.39255 
L 442.012286 -357.85616 
L 439.534234 -357.385815 
L 437.056181 -356.682027 
L 434.578129 -355.842131 
L 432.100076 -354.797877 
L 429.622024 -353.660843 
L 427.143971 -352.848888 
L 424.665919 -352.155552 
L 422.187866 -351.954543 
L 419.709814 -352.277611 
L 417.231761 -352.164154 
L 414.753709 -351.749452 
L 412.275656 -350.916244 
L 409.797604 -349.875271 
L 407.319551 -348.929398 
L 404.841499 -348.07634 
L 402.363446 -346.867454 
L 399.885394 -345.384143 
L 397.407341 -343.969091 
L 394.929289 -342.780586 
L 392.451236 -341.679068 
L 389.973184 -340.901897 
L 387.495131 -339.948267 
L 385.017079 -339.092714 
L 382.539026 -337.884389 
L 380.060974 -336.312262 
L 377.582921 -334.71054 
L 375.104869 -333.0117 
L 372.626816 -331.430117 
L 370.148764 -329.957394 
L 367.670711 -328.747129 
L 365.192659 -327.987196 
L 362.714606 -327.299418 
L 360.236554 -326.48665 
L 357.758501 -325.108184 
L 355.280449 -323.183797 
L 352.802396 -321.026741 
L 350.324344 -318.863721 
L 347.846291 -316.584122 
L 345.368239 -314.691084 
L 342.890186 -312.877726 
L 340.412134 -311.049911 
L 337.934081 -309.402614 
L 335.456029 -307.36828 
L 332.977976 -305.222224 
L 330.499924 -303.055549 
L 328.021871 -301.060057 
L 325.543819 -299.195728 
L 323.065766 -297.128111 
L 320.587714 -294.71168 
L 318.109661 -292.019743 
L 315.631609 -289.533678 
L 313.153556 -287.10615 
L 310.675504 -285.334039 
L 308.197452 -283.966015 
L 305.719399 -282.652068 
L 303.241347 -281.231558 
L 300.763294 -279.611069 
L 298.285242 -277.554723 
L 295.807189 -274.880608 
L 293.329137 -272.510989 
L 290.851084 -270.483544 
L 288.373032 -268.330586 
L 285.894979 -266.047028 
L 283.416927 -263.320327 
L 280.938874 -260.450549 
L 278.460822 -258.16336 
L 275.982769 -255.781725 
L 273.504717 -253.10793 
L 271.026664 -250.036842 
L 268.548612 -246.733488 
L 266.070559 -243.681189 
L 263.592507 -241.285058 
L 261.114454 -239.589927 
L 258.636402 -238.13666 
L 256.158349 -236.397049 
L 253.680297 -234.236647 
L 251.202244 -231.805584 
L 248.724192 -229.368146 
L 246.246139 -226.684299 
L 243.768087 -224.048975 
L 241.290034 -221.487988 
L 238.811982 -219.326977 
L 236.333929 -217.724849 
L 233.855877 -216.615908 
L 231.377824 -215.444856 
L 228.899772 -214.204272 
L 226.421719 -212.462425 
L 223.943667 -209.876466 
L 221.465614 -206.779093 
L 218.987562 -204.255063 
L 216.509509 -202.790475 
L 214.031457 -202.118176 
L 211.553404 -201.946183 
L 209.075352 -201.53888 
L 206.597299 -200.520392 
L 204.119247 -198.855231 
L 201.641194 -196.418024 
L 199.163142 -193.731883 
L 196.685089 -191.498253 
L 194.207037 -189.76815 
L 191.728984 -188.829484 
L 189.250932 -188.587422 
L 186.772879 -188.567087 
L 184.294827 -188.276125 
L 181.816774 -187.188936 
L 179.338722 -185.045733 
L 176.860669 -182.494817 
L 174.382617 -180.427447 
L 171.904564 -178.432671 
L 169.426512 -177.290782 
L 166.948459 -177.031847 
L 164.470407 -175.952245 
L 161.992355 -174.194142 
L 159.514302 -172.926044 
L 157.03625 -171.867675 
L 154.558197 -170.886813 
L 152.080145 -169.673151 
L 149.602092 -167.930782 
L 147.12404 -165.830152 
L 144.645987 -164.087277 
L 142.167935 -163.205666 
L 139.689882 -163.08748 
L 137.21183 -161.777546 
L 134.733777 -159.571247 
L 132.255725 -157.207608 
L 129.777672 -156.088165 
L 127.29962 -155.029751 
L 124.821567 -154.644027 
L 122.343515 -154.444606 
L 119.865462 -153.556458 
L 117.38741 -152.688802 
L 114.909357 -151.695114 
L 112.431305 -151.05391 
L 109.953252 -150.099861 
L 107.4752 -148.869422 
L 104.997147 -146.286795 
L 102.519095 -143.587424 
L 100.041042 -141.811258 
L 97.56299 -140.691773 
L 95.084937 -139.829446 
L 92.606885 -138.947629 
L 90.128832 -137.834701 
L 87.65078 -137.900541 
L 85.172727 -138.619235 
z
" style="stroke: #000000; stroke-opacity: 0.2"/>
    </defs>
    <g clip-path="url(#pfc375310c3)">
     <use xlink:href="#m80582f2d8c" x="0" y="360" style="fill-opacity: 0.2; stroke: #000000; stroke-opacity: 0.2"/>
    </g>
   </g>
   <g id="FillBetweenPolyCollection_2">
    <defs>
     <path id="m50c6031335" d="M 85.172727 -138.619235 
L 85.172727 -136.056709 
L 87.65078 -136.349161 
L 90.128832 -136.983435 
L 92.606885 -137.236116 
L 95.084937 -136.512439 
L 97.56299 -135.631898 
L 100.041042 -135.513762 
L 102.519095 -136.084864 
L 104.997147 -136.971671 
L 107.4752 -138.237253 
L 109.953252 -139.888118 
L 112.431305 -141.201674 
L 114.909357 -141.823938 
L 117.38741 -142.387385 
L 119.865462 -143.275328 
L 122.343515 -144.506903 
L 124.821567 -146.795887 
L 127.29962 -149.365778 
L 129.777672 -151.107313 
L 132.255725 -151.522414 
L 134.733777 -151.441293 
L 137.21183 -152.013832 
L 139.689882 -153.099809 
L 142.167935 -154.988454 
L 144.645987 -155.694414 
L 147.12404 -154.785991 
L 149.602092 -154.010297 
L 152.080145 -154.161639 
L 154.558197 -155.341847 
L 157.03625 -157.036571 
L 159.514302 -158.371347 
L 161.992355 -159.339448 
L 164.470407 -159.935308 
L 166.948459 -160.737001 
L 169.426512 -161.779492 
L 171.904564 -163.21349 
L 174.382617 -164.077771 
L 176.860669 -164.441703 
L 179.338722 -164.920292 
L 181.816774 -165.403318 
L 184.294827 -165.553971 
L 186.772879 -165.807678 
L 189.250932 -166.229128 
L 191.728984 -166.634087 
L 194.207037 -167.323738 
L 196.685089 -168.133835 
L 199.163142 -168.437607 
L 201.641194 -168.509888 
L 204.119247 -168.359996 
L 206.597299 -168.409934 
L 209.075352 -168.474837 
L 211.553404 -168.584049 
L 214.031457 -168.671121 
L 216.509509 -168.984905 
L 218.987562 -169.225403 
L 221.465614 -169.642554 
L 223.943667 -170.023197 
L 226.421719 -170.125076 
L 228.899772 -169.562466 
L 231.377824 -169.052698 
L 233.855877 -168.916715 
L 236.333929 -168.92917 
L 238.811982 -169.827114 
L 241.290034 -170.912856 
L 243.768087 -171.731653 
L 246.246139 -172.347352 
L 248.724192 -172.190313 
L 251.202244 -171.363011 
L 253.680297 -170.830176 
L 256.158349 -170.228862 
L 258.636402 -169.896753 
L 261.114454 -169.636762 
L 263.592507 -169.189684 
L 266.070559 -168.629755 
L 268.548612 -168.547981 
L 271.026664 -168.604547 
L 273.504717 -168.582106 
L 275.982769 -168.669178 
L 278.460822 -168.834588 
L 280.938874 -168.830566 
L 283.416927 -169.33472 
L 285.894979 -169.856092 
L 288.373032 -170.262104 
L 290.851084 -170.052785 
L 293.329137 -169.440367 
L 295.807189 -168.481943 
L 298.285242 -167.94616 
L 300.763294 -167.818376 
L 303.241347 -168.329761 
L 305.719399 -169.206848 
L 308.197452 -169.695576 
L 310.675504 -170.063519 
L 313.153556 -170.279551 
L 315.631609 -170.030557 
L 318.109661 -169.58128 
L 320.587714 -169.43929 
L 323.065766 -169.879234 
L 325.543819 -171.140124 
L 328.021871 -172.142948 
L 330.499924 -172.956256 
L 332.977976 -172.925058 
L 335.456029 -172.567352 
L 337.934081 -172.003552 
L 340.412134 -171.57467 
L 342.890186 -171.591117 
L 345.368239 -172.243634 
L 347.846291 -173.267824 
L 350.324344 -173.907586 
L 352.802396 -174.240475 
L 355.280449 -174.432472 
L 357.758501 -174.809302 
L 360.236554 -175.295347 
L 362.714606 -175.213129 
L 365.192659 -174.940482 
L 367.670711 -174.93941 
L 370.148764 -174.954276 
L 372.626816 -175.579547 
L 375.104869 -176.225615 
L 377.582921 -176.359424 
L 380.060974 -175.770659 
L 382.539026 -175.214179 
L 385.017079 -174.914875 
L 387.495131 -175.28463 
L 389.973184 -175.737536 
L 392.451236 -175.933868 
L 394.929289 -175.967813 
L 397.407341 -175.933326 
L 399.885394 -175.584818 
L 402.363446 -175.683874 
L 404.841499 -175.667995 
L 407.319551 -175.261557 
L 409.797604 -174.718851 
L 412.275656 -174.16244 
L 414.753709 -173.674746 
L 417.231761 -173.845428 
L 419.709814 -173.916353 
L 422.187866 -173.464152 
L 424.665919 -172.540929 
L 427.143971 -171.725603 
L 429.622024 -171.093493 
L 432.100076 -170.822875 
L 434.578129 -170.556667 
L 437.056181 -170.020959 
L 439.534234 -169.103629 
L 442.012286 -168.141512 
L 444.490339 -167.51675 
L 446.968391 -167.381638 
L 449.446444 -167.018759 
L 451.924496 -166.245343 
L 454.402548 -165.162708 
L 456.880601 -164.737437 
L 459.358653 -164.852413 
L 461.836706 -165.894277 
L 464.314758 -166.057553 
L 466.792811 -165.213064 
L 469.270863 -163.617741 
L 471.748916 -162.571741 
L 474.226968 -161.720735 
L 476.705021 -161.800135 
L 479.183073 -162.307164 
L 481.661126 -162.329984 
L 484.139178 -161.982578 
L 486.617231 -162.655998 
L 489.095283 -163.464685 
L 491.573336 -164.981441 
L 494.051388 -166.659495 
L 496.529441 -168.070285 
L 499.007493 -171.77595 
L 501.485546 -174.315938 
L 503.963598 -177.132359 
L 506.441651 -179.943017 
L 508.919703 -180.652085 
L 511.397756 -180.562987 
L 513.875808 -179.596148 
L 516.353861 -178.043748 
L 518.831913 -177.11427 
L 521.309966 -177.827715 
L 523.788018 -178.371706 
L 526.266071 -179.173929 
L 528.744123 -179.038189 
L 531.222176 -178.289738 
L 533.700228 -177.333204 
L 536.178281 -176.753309 
L 538.656333 -176.540141 
L 541.134386 -176.342927 
L 543.612438 -177.017087 
L 546.090491 -178.013555 
L 548.568543 -179.954396 
L 551.046596 -182.364183 
L 553.524648 -183.43778 
L 556.002701 -182.702776 
L 558.480753 -181.502862 
L 560.958806 -180.107059 
L 563.436858 -179.011598 
L 565.914911 -179.621711 
L 568.392963 -181.687239 
L 570.871016 -184.267465 
L 573.349068 -186.048824 
L 575.827121 -186.863055 
L 578.305173 -186.757979 
L 580.783226 -186.938244 
L 583.261278 -187.994593 
L 585.739331 -189.984918 
L 588.217383 -192.157997 
L 590.695436 -193.767697 
L 593.173488 -193.6305 
L 595.651541 -192.869437 
L 598.129593 -191.72603 
L 600.607645 -191.18597 
L 603.085698 -192.219842 
L 605.56375 -193.775278 
L 608.041803 -195.507691 
L 610.519855 -197.829178 
L 612.997908 -199.744467 
L 615.47596 -201.07262 
L 617.954013 -201.694107 
L 620.432065 -200.832238 
L 622.910118 -198.98649 
L 625.38817 -198.562808 
L 627.866223 -199.527348 
L 630.344275 -201.513228 
L 632.822328 -204.184533 
L 635.30038 -205.273249 
L 637.778433 -205.39013 
L 640.256485 -204.894239 
L 642.734538 -204.982494 
L 645.21259 -205.88982 
L 647.690643 -208.02286 
L 650.168695 -210.062783 
L 652.646748 -211.915263 
L 655.1248 -214.316101 
L 657.602853 -216.183539 
L 660.080905 -216.949958 
L 662.558958 -217.748577 
L 665.03701 -219.020446 
L 667.515063 -220.587613 
L 669.993115 -222.394754 
L 672.471168 -224.077056 
L 674.94922 -225.065848 
L 677.427273 -226.238875 
L 677.427273 -296.901201 
L 677.427273 -296.901201 
L 674.94922 -296.224466 
L 672.471168 -295.917666 
L 669.993115 -295.300445 
L 667.515063 -294.569309 
L 665.03701 -293.07072 
L 662.558958 -290.99335 
L 660.080905 -288.982334 
L 657.602853 -287.767575 
L 655.1248 -287.89474 
L 652.646748 -289.251644 
L 650.168695 -290.344984 
L 647.690643 -289.755915 
L 645.21259 -287.368738 
L 642.734538 -285.350978 
L 640.256485 -283.197501 
L 637.778433 -281.271696 
L 635.30038 -279.610753 
L 632.822328 -278.651606 
L 630.344275 -278.120794 
L 627.866223 -278.272621 
L 625.38817 -277.822033 
L 622.910118 -276.856185 
L 620.432065 -274.775285 
L 617.954013 -272.210873 
L 615.47596 -270.314286 
L 612.997908 -269.933796 
L 610.519855 -270.62877 
L 608.041803 -272.086575 
L 605.56375 -272.827963 
L 603.085698 -272.169243 
L 600.607645 -270.357441 
L 598.129593 -267.856468 
L 595.651541 -265.28718 
L 593.173488 -263.520219 
L 590.695436 -262.58249 
L 588.217383 -262.171966 
L 585.739331 -261.955514 
L 583.261278 -261.424828 
L 580.783226 -260.786508 
L 578.305173 -260.203626 
L 575.827121 -258.903179 
L 573.349068 -257.162295 
L 570.871016 -254.898772 
L 568.392963 -252.916698 
L 565.914911 -251.301969 
L 563.436858 -249.940819 
L 560.958806 -248.526456 
L 558.480753 -246.63616 
L 556.002701 -244.435517 
L 553.524648 -242.909599 
L 551.046596 -241.850956 
L 548.568543 -240.911986 
L 546.090491 -239.572306 
L 543.612438 -237.57274 
L 541.134386 -235.259065 
L 538.656333 -232.790052 
L 536.178281 -230.646432 
L 533.700228 -228.880828 
L 531.222176 -227.721023 
L 528.744123 -226.530951 
L 526.266071 -225.437409 
L 523.788018 -225.065512 
L 521.309966 -224.538741 
L 518.831913 -223.34746 
L 516.353861 -221.468466 
L 513.875808 -219.442999 
L 511.397756 -217.613474 
L 508.919703 -215.985672 
L 506.441651 -214.653776 
L 503.963598 -213.851634 
L 501.485546 -213.389285 
L 499.007493 -213.037909 
L 496.529441 -213.123008 
L 494.051388 -212.845995 
L 491.573336 -212.423819 
L 489.095283 -211.754695 
L 486.617231 -210.983208 
L 484.139178 -210.208303 
L 481.661126 -209.357901 
L 479.183073 -208.28644 
L 476.705021 -207.158548 
L 474.226968 -206.246975 
L 471.748916 -205.774395 
L 469.270863 -206.128414 
L 466.792811 -206.976335 
L 464.314758 -207.070274 
L 461.836706 -206.292207 
L 459.358653 -204.990724 
L 456.880601 -203.979495 
L 454.402548 -203.087274 
L 451.924496 -202.384016 
L 449.446444 -202.215969 
L 446.968391 -202.355286 
L 444.490339 -202.208846 
L 442.012286 -202.4727 
L 439.534234 -202.763795 
L 437.056181 -202.673041 
L 434.578129 -202.185196 
L 432.100076 -201.346588 
L 429.622024 -200.598394 
L 427.143971 -200.365729 
L 424.665919 -200.094625 
L 422.187866 -199.662224 
L 419.709814 -199.644488 
L 417.231761 -199.494214 
L 414.753709 -199.421623 
L 412.275656 -199.504601 
L 409.797604 -199.85848 
L 407.319551 -200.03011 
L 404.841499 -200.417387 
L 402.363446 -200.395937 
L 399.885394 -200.136514 
L 397.407341 -199.861367 
L 394.929289 -199.451947 
L 392.451236 -198.830652 
L 389.973184 -198.542167 
L 387.495131 -198.546602 
L 385.017079 -199.061171 
L 382.539026 -199.805243 
L 380.060974 -200.476658 
L 377.582921 -200.552528 
L 375.104869 -200.126151 
L 372.626816 -199.32543 
L 370.148764 -198.815685 
L 367.670711 -198.931636 
L 365.192659 -199.421204 
L 362.714606 -200.049939 
L 360.236554 -200.596757 
L 357.758501 -200.997811 
L 355.280449 -201.126268 
L 352.802396 -201.158994 
L 350.324344 -201.20632 
L 347.846291 -200.883314 
L 345.368239 -200.708383 
L 342.890186 -200.675529 
L 340.412134 -200.833686 
L 337.934081 -201.467917 
L 335.456029 -201.590114 
L 332.977976 -201.419605 
L 330.499924 -201.023241 
L 328.021871 -200.384127 
L 325.543819 -199.799603 
L 323.065766 -199.713672 
L 320.587714 -199.750541 
L 318.109661 -199.157322 
L 315.631609 -198.697355 
L 313.153556 -198.360883 
L 310.675504 -198.31404 
L 308.197452 -198.578795 
L 305.719399 -198.550562 
L 303.241347 -198.043191 
L 300.763294 -197.210096 
L 298.285242 -196.299132 
L 295.807189 -195.376983 
L 293.329137 -195.346304 
L 290.851084 -195.763979 
L 288.373032 -196.319983 
L 285.894979 -196.582083 
L 283.416927 -196.297467 
L 280.938874 -195.420863 
L 278.460822 -194.794146 
L 275.982769 -193.548129 
L 273.504717 -191.922207 
L 271.026664 -190.661039 
L 268.548612 -190.330433 
L 266.070559 -190.846128 
L 263.592507 -191.907822 
L 261.114454 -192.49706 
L 258.636402 -192.300929 
L 256.158349 -191.354839 
L 253.680297 -190.251181 
L 251.202244 -189.537747 
L 248.724192 -189.279163 
L 246.246139 -189.355568 
L 243.768087 -189.481886 
L 241.290034 -189.76799 
L 238.811982 -190.561484 
L 236.333929 -191.340907 
L 233.855877 -191.874398 
L 231.377824 -191.40994 
L 228.899772 -190.143738 
L 226.421719 -189.087892 
L 223.943667 -188.471026 
L 221.465614 -188.733749 
L 218.987562 -188.936292 
L 216.509509 -188.641886 
L 214.031457 -187.795114 
L 211.553404 -187.454463 
L 209.075352 -187.706801 
L 206.597299 -188.327116 
L 204.119247 -188.951446 
L 201.641194 -188.265253 
L 199.163142 -186.816758 
L 196.685089 -185.271447 
L 194.207037 -184.082842 
L 191.728984 -183.488449 
L 189.250932 -183.302164 
L 186.772879 -183.421764 
L 184.294827 -183.571972 
L 181.816774 -183.118437 
L 179.338722 -181.739295 
L 176.860669 -180.027225 
L 174.382617 -178.535709 
L 171.904564 -177.477653 
L 169.426512 -177.024264 
L 166.948459 -176.622548 
L 164.470407 -175.490923 
L 161.992355 -173.879166 
L 159.514302 -173.024643 
L 157.03625 -172.446938 
L 154.558197 -171.972586 
L 152.080145 -170.986036 
L 149.602092 -169.180987 
L 147.12404 -166.936958 
L 144.645987 -165.150395 
L 142.167935 -164.757126 
L 139.689882 -164.890757 
L 137.21183 -163.708817 
L 134.733777 -161.590391 
L 132.255725 -159.248174 
L 129.777672 -157.870636 
L 127.29962 -157.08911 
L 124.821567 -156.95004 
L 122.343515 -156.637036 
L 119.865462 -155.356831 
L 117.38741 -154.06291 
L 114.909357 -152.883097 
L 112.431305 -152.103328 
L 109.953252 -151.11626 
L 107.4752 -149.855594 
L 104.997147 -147.116368 
L 102.519095 -144.24191 
L 100.041042 -142.34403 
L 97.56299 -141.12579 
L 95.084937 -140.195917 
L 92.606885 -139.214703 
L 90.128832 -137.980007 
L 87.65078 -137.946425 
L 85.172727 -138.619235 
z
" style="stroke: #a52a2a; stroke-opacity: 0.2"/>
    </defs>
    <g clip-path="url(#pfc375310c3)">
     <use xlink:href="#m50c6031335" x="0" y="360" style="fill: #a52a2a; fill-opacity: 0.2; stroke: #a52a2a; stroke-opacity: 0.2"/>
    </g>
   </g>
   <g id="FillBetweenPolyCollection_3">
    <defs>
     <path id="m4aff54d70a" d="M 85.172727 -138.619235 
L 85.172727 -136.056709 
L 87.65078 -136.478174 
L 90.128832 -137.244559 
L 92.606885 -137.280445 
L 95.084937 -136.756024 
L 97.56299 -135.980754 
L 100.041042 -135.856617 
L 102.519095 -136.451285 
L 104.997147 -137.339916 
L 107.4752 -138.686785 
L 109.953252 -140.19867 
L 112.431305 -141.342843 
L 114.909357 -141.718242 
L 117.38741 -142.252702 
L 119.865462 -142.983114 
L 122.343515 -143.924621 
L 124.821567 -145.59651 
L 127.29962 -147.556549 
L 129.777672 -148.810648 
L 132.255725 -149.032638 
L 134.733777 -148.971277 
L 137.21183 -149.500022 
L 139.689882 -150.547239 
L 142.167935 -152.535566 
L 144.645987 -153.177018 
L 147.12404 -152.62275 
L 149.602092 -151.590646 
L 152.080145 -151.108643 
L 154.558197 -151.496315 
L 157.03625 -152.7913 
L 159.514302 -154.239406 
L 161.992355 -155.746413 
L 164.470407 -156.977681 
L 166.948459 -157.624373 
L 169.426512 -157.703636 
L 171.904564 -157.991602 
L 174.382617 -157.950933 
L 176.860669 -158.425448 
L 179.338722 -159.396819 
L 181.816774 -160.25165 
L 184.294827 -160.312716 
L 186.772879 -159.702058 
L 189.250932 -159.285734 
L 191.728984 -158.957028 
L 194.207037 -158.751304 
L 196.685089 -158.88324 
L 199.163142 -158.708738 
L 201.641194 -158.400153 
L 204.119247 -157.972348 
L 206.597299 -157.344401 
L 209.075352 -156.435569 
L 211.553404 -155.205598 
L 214.031457 -153.924725 
L 216.509509 -152.967287 
L 218.987562 -153.121273 
L 221.465614 -154.181096 
L 223.943667 -155.429818 
L 226.421719 -155.430044 
L 228.899772 -154.276457 
L 231.377824 -152.609499 
L 233.855877 -151.462437 
L 236.333929 -151.144647 
L 238.811982 -151.960644 
L 241.290034 -153.207577 
L 243.768087 -153.985398 
L 246.246139 -154.57067 
L 248.724192 -154.687167 
L 251.202244 -153.666171 
L 253.680297 -152.722965 
L 256.158349 -152.068622 
L 258.636402 -151.886091 
L 261.114454 -152.091321 
L 263.592507 -151.950855 
L 266.070559 -152.072873 
L 268.548612 -152.578859 
L 271.026664 -152.772633 
L 273.504717 -152.282984 
L 275.982769 -151.750454 
L 278.460822 -151.691335 
L 280.938874 -152.006967 
L 283.416927 -153.3108 
L 285.894979 -154.918976 
L 288.373032 -155.889468 
L 290.851084 -156.214501 
L 293.329137 -155.857569 
L 295.807189 -155.164524 
L 298.285242 -154.285297 
L 300.763294 -153.353903 
L 303.241347 -152.93963 
L 305.719399 -153.098512 
L 308.197452 -153.41653 
L 310.675504 -154.206977 
L 313.153556 -155.877043 
L 315.631609 -157.520588 
L 318.109661 -158.0209 
L 320.587714 -157.948069 
L 323.065766 -157.808765 
L 325.543819 -157.327113 
L 328.021871 -156.635655 
L 330.499924 -156.486115 
L 332.977976 -156.908485 
L 335.456029 -157.66966 
L 337.934081 -158.259406 
L 340.412134 -159.000142 
L 342.890186 -159.529627 
L 345.368239 -160.260416 
L 347.846291 -160.95494 
L 350.324344 -160.95345 
L 352.802396 -160.210711 
L 355.280449 -159.278752 
L 357.758501 -158.825939 
L 360.236554 -158.81174 
L 362.714606 -159.12785 
L 365.192659 -159.64494 
L 367.670711 -159.788529 
L 370.148764 -159.435887 
L 372.626816 -159.004814 
L 375.104869 -158.761675 
L 377.582921 -158.707978 
L 380.060974 -158.373981 
L 382.539026 -158.030527 
L 385.017079 -157.531507 
L 387.495131 -157.186614 
L 389.973184 -156.862895 
L 392.451236 -156.480584 
L 394.929289 -156.198296 
L 397.407341 -155.620391 
L 399.885394 -154.829498 
L 402.363446 -154.672297 
L 404.841499 -154.935551 
L 407.319551 -155.42822 
L 409.797604 -155.441366 
L 412.275656 -154.547131 
L 414.753709 -153.183383 
L 417.231761 -152.386921 
L 419.709814 -152.036879 
L 422.187866 -151.649481 
L 424.665919 -151.546351 
L 427.143971 -151.695385 
L 429.622024 -151.663371 
L 432.100076 -151.862936 
L 434.578129 -151.956766 
L 437.056181 -151.477637 
L 439.534234 -150.791101 
L 442.012286 -149.900584 
L 444.490339 -149.296685 
L 446.968391 -149.160313 
L 449.446444 -149.038702 
L 451.924496 -148.810071 
L 454.402548 -148.376308 
L 456.880601 -147.957975 
L 459.358653 -147.81061 
L 461.836706 -148.713057 
L 464.314758 -149.441665 
L 466.792811 -149.583834 
L 469.270863 -148.728877 
L 471.748916 -147.844343 
L 474.226968 -146.512777 
L 476.705021 -145.811795 
L 479.183073 -145.826761 
L 481.661126 -146.138688 
L 484.139178 -146.766087 
L 486.617231 -148.515025 
L 489.095283 -150.363145 
L 491.573336 -152.798924 
L 494.051388 -155.170207 
L 496.529441 -156.691605 
L 499.007493 -159.620499 
L 501.485546 -160.965632 
L 503.963598 -162.454199 
L 506.441651 -164.567432 
L 508.919703 -166.343881 
L 511.397756 -167.682112 
L 513.875808 -168.248322 
L 516.353861 -166.491947 
L 518.831913 -164.954104 
L 521.309966 -164.773642 
L 523.788018 -164.481351 
L 526.266071 -164.035311 
L 528.744123 -162.751135 
L 531.222176 -160.906596 
L 533.700228 -159.816718 
L 536.178281 -159.975408 
L 538.656333 -160.954643 
L 541.134386 -161.488258 
L 543.612438 -162.140865 
L 546.090491 -161.953842 
L 548.568543 -162.523275 
L 551.046596 -163.567605 
L 553.524648 -163.709668 
L 556.002701 -162.406738 
L 558.480753 -161.264001 
L 560.958806 -159.998691 
L 563.436858 -158.941116 
L 565.914911 -159.442721 
L 568.392963 -161.069292 
L 570.871016 -163.210304 
L 573.349068 -164.740121 
L 575.827121 -165.488742 
L 578.305173 -165.515226 
L 580.783226 -165.582552 
L 583.261278 -166.563522 
L 585.739331 -168.006555 
L 588.217383 -168.988121 
L 590.695436 -169.797013 
L 593.173488 -169.547903 
L 595.651541 -169.38644 
L 598.129593 -168.985922 
L 600.607645 -168.83407 
L 603.085698 -169.651057 
L 605.56375 -169.919608 
L 608.041803 -169.651634 
L 610.519855 -170.32708 
L 612.997908 -171.441969 
L 615.47596 -172.993876 
L 617.954013 -174.297959 
L 620.432065 -174.063365 
L 622.910118 -172.382684 
L 625.38817 -171.322481 
L 627.866223 -170.508682 
L 630.344275 -170.450642 
L 632.822328 -171.117967 
L 635.30038 -170.941731 
L 637.778433 -170.447935 
L 640.256485 -170.184282 
L 642.734538 -170.551905 
L 645.21259 -171.317932 
L 647.690643 -172.516885 
L 650.168695 -173.532328 
L 652.646748 -174.307427 
L 655.1248 -175.542991 
L 657.602853 -176.437258 
L 660.080905 -176.619527 
L 662.558958 -176.846376 
L 665.03701 -177.450784 
L 667.515063 -178.452113 
L 669.993115 -180.121062 
L 672.471168 -181.883289 
L 674.94922 -183.316793 
L 677.427273 -184.731578 
L 677.427273 -277.740215 
L 677.427273 -277.740215 
L 674.94922 -277.437464 
L 672.471168 -277.810814 
L 669.993115 -277.797606 
L 667.515063 -277.311272 
L 665.03701 -275.883672 
L 662.558958 -273.613135 
L 660.080905 -270.878954 
L 657.602853 -268.633062 
L 655.1248 -267.376149 
L 652.646748 -267.231578 
L 650.168695 -267.743392 
L 647.690643 -267.49009 
L 645.21259 -265.421577 
L 642.734538 -263.559136 
L 640.256485 -261.04804 
L 637.778433 -257.751467 
L 635.30038 -254.905612 
L 632.822328 -252.494739 
L 630.344275 -250.379844 
L 627.866223 -248.67871 
L 625.38817 -247.343975 
L 622.910118 -246.466562 
L 620.432065 -245.267744 
L 617.954013 -243.50382 
L 615.47596 -241.938705 
L 612.997908 -240.651145 
L 610.519855 -239.52782 
L 608.041803 -238.736766 
L 605.56375 -237.823706 
L 603.085698 -236.623831 
L 600.607645 -235.172519 
L 598.129593 -233.647374 
L 595.651541 -232.079099 
L 593.173488 -230.661706 
L 590.695436 -229.322662 
L 588.217383 -228.006429 
L 585.739331 -226.279181 
L 583.261278 -224.424656 
L 580.783226 -222.591662 
L 578.305173 -221.037704 
L 575.827121 -220.02155 
L 573.349068 -218.884053 
L 570.871016 -217.061437 
L 568.392963 -214.860486 
L 565.914911 -212.245666 
L 563.436858 -209.469487 
L 560.958806 -206.525546 
L 558.480753 -203.955566 
L 556.002701 -201.833947 
L 553.524648 -200.569226 
L 551.046596 -200.246977 
L 548.568543 -199.917195 
L 546.090491 -198.832656 
L 543.612438 -196.355992 
L 541.134386 -193.274015 
L 538.656333 -190.180903 
L 536.178281 -187.74472 
L 533.700228 -185.977446 
L 531.222176 -185.167519 
L 528.744123 -184.540456 
L 526.266071 -183.786233 
L 523.788018 -183.460426 
L 521.309966 -182.717885 
L 518.831913 -180.624358 
L 516.353861 -178.314426 
L 513.875808 -175.774439 
L 511.397756 -174.362245 
L 508.919703 -174.177823 
L 506.441651 -174.026183 
L 503.963598 -172.863505 
L 501.485546 -171.756199 
L 499.007493 -170.924734 
L 496.529441 -170.166842 
L 494.051388 -169.778893 
L 491.573336 -169.598298 
L 489.095283 -169.395401 
L 486.617231 -169.389774 
L 484.139178 -169.1584 
L 481.661126 -168.531835 
L 479.183073 -167.633185 
L 476.705021 -166.747089 
L 474.226968 -166.268934 
L 471.748916 -166.374025 
L 469.270863 -167.150994 
L 466.792811 -168.242793 
L 464.314758 -168.627346 
L 461.836706 -168.325355 
L 459.358653 -167.27919 
L 456.880601 -166.483347 
L 454.402548 -165.859557 
L 451.924496 -165.554993 
L 449.446444 -165.926413 
L 446.968391 -166.498739 
L 444.490339 -166.857099 
L 442.012286 -167.680418 
L 439.534234 -168.332245 
L 437.056181 -168.402742 
L 434.578129 -168.014296 
L 432.100076 -167.535395 
L 429.622024 -167.250602 
L 427.143971 -167.357024 
L 424.665919 -167.740991 
L 422.187866 -167.830368 
L 419.709814 -167.995307 
L 417.231761 -168.349861 
L 414.753709 -167.998595 
L 412.275656 -167.760251 
L 409.797604 -168.035834 
L 407.319551 -168.649118 
L 404.841499 -169.948996 
L 402.363446 -170.66182 
L 399.885394 -170.764527 
L 397.407341 -170.722128 
L 394.929289 -170.051138 
L 392.451236 -169.031424 
L 389.973184 -167.988458 
L 387.495131 -167.31199 
L 385.017079 -167.322449 
L 382.539026 -168.374917 
L 380.060974 -169.694407 
L 377.582921 -170.089026 
L 375.104869 -169.693172 
L 372.626816 -168.133505 
L 370.148764 -166.687495 
L 367.670711 -166.576508 
L 365.192659 -166.820678 
L 362.714606 -167.561588 
L 360.236554 -167.86895 
L 357.758501 -167.641831 
L 355.280449 -167.103376 
L 352.802396 -166.435581 
L 350.324344 -166.14468 
L 347.846291 -165.629186 
L 345.368239 -165.111056 
L 342.890186 -165.043795 
L 340.412134 -165.498422 
L 337.934081 -166.780564 
L 335.456029 -167.533974 
L 332.977976 -168.118935 
L 330.499924 -168.275363 
L 328.021871 -167.18474 
L 325.543819 -165.818508 
L 323.065766 -165.195039 
L 320.587714 -165.376711 
L 318.109661 -165.031243 
L 315.631609 -165.721416 
L 313.153556 -167.14544 
L 310.675504 -168.607345 
L 308.197452 -169.337027 
L 305.719399 -169.244311 
L 303.241347 -168.027258 
L 300.763294 -166.322778 
L 298.285242 -164.834002 
L 295.807189 -164.402716 
L 293.329137 -165.459664 
L 290.851084 -166.835343 
L 288.373032 -168.247717 
L 285.894979 -169.310251 
L 283.416927 -169.903168 
L 280.938874 -169.645801 
L 278.460822 -169.178768 
L 275.982769 -167.875668 
L 273.504717 -166.099274 
L 271.026664 -165.073529 
L 268.548612 -165.335252 
L 266.070559 -166.69621 
L 263.592507 -168.620759 
L 261.114454 -169.698711 
L 258.636402 -169.885225 
L 256.158349 -169.262669 
L 253.680297 -168.800372 
L 251.202244 -168.835291 
L 248.724192 -169.733675 
L 246.246139 -171.167823 
L 243.768087 -172.151014 
L 241.290034 -172.914425 
L 238.811982 -174.192083 
L 236.333929 -175.747418 
L 233.855877 -177.342393 
L 231.377824 -178.184001 
L 228.899772 -178.165272 
L 226.421719 -178.071457 
L 223.943667 -178.098381 
L 221.465614 -179.056213 
L 218.987562 -180.073131 
L 216.509509 -180.264303 
L 214.031457 -179.500961 
L 211.553404 -179.554403 
L 209.075352 -180.494453 
L 206.597299 -181.764188 
L 204.119247 -182.674966 
L 201.641194 -182.310864 
L 199.163142 -180.99283 
L 196.685089 -179.41245 
L 194.207037 -178.095944 
L 191.728984 -177.317548 
L 189.250932 -177.313447 
L 186.772879 -177.373716 
L 184.294827 -177.481241 
L 181.816774 -177.313776 
L 179.338722 -176.603681 
L 176.860669 -175.682609 
L 174.382617 -174.766547 
L 171.904564 -173.994288 
L 169.426512 -173.70549 
L 166.948459 -173.288615 
L 164.470407 -172.519017 
L 161.992355 -171.416064 
L 159.514302 -170.834704 
L 157.03625 -170.398518 
L 154.558197 -169.908307 
L 152.080145 -168.850682 
L 149.602092 -167.185614 
L 147.12404 -165.179503 
L 144.645987 -163.424265 
L 142.167935 -162.441156 
L 139.689882 -162.325933 
L 137.21183 -161.332576 
L 134.733777 -159.641708 
L 132.255725 -157.663662 
L 129.777672 -156.503333 
L 127.29962 -155.637462 
L 124.821567 -155.000304 
L 122.343515 -154.249454 
L 119.865462 -153.08162 
L 117.38741 -152.068163 
L 114.909357 -151.264836 
L 112.431305 -150.682275 
L 109.953252 -149.930237 
L 107.4752 -148.860139 
L 104.997147 -146.3771 
L 102.519095 -143.739878 
L 100.041042 -141.917514 
L 97.56299 -140.653467 
L 95.084937 -139.758825 
L 92.606885 -138.911747 
L 90.128832 -137.613596 
L 87.65078 -137.800579 
L 85.172727 -138.619235 
z
" style="stroke: #000080; stroke-opacity: 0.2"/>
    </defs>
    <g clip-path="url(#pfc375310c3)">
     <use xlink:href="#m4aff54d70a" x="0" y="360" style="fill: #000080; fill-opacity: 0.2; stroke: #000080; stroke-opacity: 0.2"/>
    </g>
   </g>
   <g id="line2d_1">
    <path d="M 85.172727 222.662028 
L 87.65078 222.820631 
L 90.128832 222.531133 
L 92.606885 221.849691 
L 97.56299 221.456628 
L 100.041042 220.75588 
L 102.519095 219.394364 
L 107.4752 215.407705 
L 109.953252 213.933121 
L 112.431305 212.842209 
L 114.909357 212.218309 
L 117.38741 211.247328 
L 119.865462 210.059907 
L 124.821567 207.150854 
L 127.29962 205.654211 
L 129.777672 204.324315 
L 132.255725 203.36298 
L 134.733777 202.098668 
L 137.21183 200.579621 
L 139.689882 199.247986 
L 142.167935 198.045833 
L 144.645987 197.057649 
L 147.12404 195.949245 
L 157.03625 190.824408 
L 161.992355 188.303559 
L 164.470407 186.626737 
L 166.948459 185.131918 
L 169.426512 183.943804 
L 174.382617 181.136564 
L 176.860669 179.539004 
L 179.338722 177.708071 
L 181.816774 176.055846 
L 184.294827 175.043065 
L 191.728984 173.074777 
L 194.207037 171.989245 
L 196.685089 170.441127 
L 199.163142 168.731127 
L 201.641194 166.780654 
L 204.119247 165.028608 
L 206.597299 163.726922 
L 209.075352 162.876205 
L 214.031457 162.07231 
L 216.509509 161.225184 
L 218.987562 160.075745 
L 221.465614 158.493014 
L 228.899772 152.330958 
L 231.377824 150.700712 
L 233.855877 149.380907 
L 238.811982 147.205733 
L 241.290034 145.878506 
L 243.768087 144.113455 
L 248.724192 139.815858 
L 256.158349 133.23274 
L 258.636402 131.48021 
L 261.114454 129.997727 
L 266.070559 127.339052 
L 268.548612 125.480358 
L 271.026664 123.183684 
L 275.982769 118.068862 
L 278.460822 116.103664 
L 280.938874 114.330957 
L 285.894979 110.30364 
L 290.851084 105.934965 
L 295.807189 102.413426 
L 298.285242 100.73537 
L 305.719399 96.487533 
L 308.197452 94.883578 
L 313.153556 91.088621 
L 315.631609 89.135007 
L 320.587714 85.947076 
L 323.065766 84.569612 
L 325.543819 82.949286 
L 328.021871 81.066042 
L 330.499924 78.977466 
L 332.977976 77.035411 
L 335.456029 75.301946 
L 337.934081 73.919314 
L 340.412134 73.000494 
L 342.890186 72.268204 
L 345.368239 71.278046 
L 347.846291 69.84213 
L 352.802396 66.204217 
L 355.280449 64.563345 
L 357.758501 63.176185 
L 360.236554 62.109671 
L 367.670711 60.115264 
L 370.148764 58.983361 
L 377.582921 54.16771 
L 380.060974 52.977616 
L 382.539026 52.144413 
L 387.495131 51.516533 
L 389.973184 50.861858 
L 392.451236 49.90732 
L 397.407341 46.729845 
L 399.885394 45.266241 
L 402.363446 43.996974 
L 404.841499 43.290342 
L 414.753709 41.629322 
L 417.231761 41.579137 
L 422.187866 40.452959 
L 427.143971 37.987753 
L 429.622024 37.036295 
L 432.100076 36.78409 
L 434.578129 36.71167 
L 437.056181 36.850447 
L 439.534234 36.729973 
L 442.012286 36.467157 
L 444.490339 35.859975 
L 449.446444 33.913445 
L 451.924496 33.022072 
L 454.402548 32.392583 
L 456.880601 32.140627 
L 461.836706 32.487248 
L 464.314758 32.553117 
L 466.792811 32.464875 
L 469.270863 32.177878 
L 474.226968 30.988937 
L 476.705021 30.67585 
L 481.661126 30.386254 
L 484.139178 30.428366 
L 486.617231 30.22624 
L 489.095283 29.842736 
L 491.573336 29.813893 
L 496.529441 30.028854 
L 499.007493 29.701692 
L 501.485546 29.108814 
L 506.441651 27.478948 
L 508.919703 26.352517 
L 511.397756 24.65126 
L 513.875808 23.172686 
L 516.353861 21.883678 
L 518.831913 21.118747 
L 521.309966 20.702863 
L 526.266071 20.408472 
L 528.744123 19.864977 
L 531.222176 19.092459 
L 533.700228 18.49994 
L 536.178281 18.402579 
L 538.656333 18.428773 
L 541.134386 18.298641 
L 543.612438 17.766438 
L 546.090491 16.737691 
L 553.524648 12.097702 
L 556.002701 11.145196 
L 558.480753 10.530832 
L 560.958806 10.414546 
L 563.436858 10.746215 
L 565.914911 10.753274 
L 568.392963 9.868788 
L 570.871016 8.271755 
L 573.349068 6.285479 
L 575.827121 4.732653 
L 578.305173 4.148436 
L 583.261278 5.72668 
L 585.739331 5.752224 
L 588.217383 5.251974 
L 590.695436 4.294497 
L 600.607645 -0.355629 
L 602.957411 -1 
M 604.034624 -1 
L 605.56375 -0.94331 
L 608.041803 0.046142 
L 610.519855 1.423093 
L 612.997908 2.00186 
L 615.47596 1.357511 
L 618.250349 -1 
L 618.250349 -1 
" clip-path="url(#pfc375310c3)" style="fill: none; stroke: #000000; stroke-width: 1.5; stroke-linecap: round"/>
   </g>
   <g id="line2d_2">
    <path d="M 85.172727 222.662028 
L 87.65078 222.852207 
L 90.128832 222.518279 
L 92.606885 221.774591 
L 97.56299 221.621156 
L 100.041042 221.071104 
L 102.519095 219.836613 
L 107.4752 215.953576 
L 109.953252 214.497811 
L 112.431305 213.347499 
L 114.909357 212.646482 
L 117.38741 211.774852 
L 119.865462 210.683921 
L 124.821567 208.127037 
L 129.777672 205.511026 
L 132.255725 204.614706 
L 134.733777 203.484158 
L 137.21183 202.138675 
L 139.689882 201.004717 
L 142.167935 200.12721 
L 149.602092 198.404358 
L 154.558197 196.342784 
L 157.03625 195.258245 
L 166.948459 191.320225 
L 169.426512 190.598122 
L 176.860669 187.765536 
L 179.338722 186.670207 
L 181.816774 185.739122 
L 184.294827 185.437029 
L 189.250932 185.234354 
L 191.728984 184.938732 
L 194.207037 184.29671 
L 199.163142 182.372818 
L 201.641194 181.612429 
L 204.119247 181.344279 
L 209.075352 181.909181 
L 211.553404 181.980744 
L 214.031457 181.766882 
L 216.509509 181.186605 
L 218.987562 180.919153 
L 223.943667 180.752889 
L 226.421719 180.393516 
L 228.899772 180.146898 
L 231.377824 179.768681 
L 233.855877 179.604443 
L 236.333929 179.864961 
L 241.290034 179.659577 
L 246.246139 179.14854 
L 248.724192 179.265262 
L 251.202244 179.549621 
L 253.680297 179.459322 
L 258.636402 178.901159 
L 261.114454 178.933089 
L 263.592507 179.451247 
L 266.070559 180.262058 
L 268.548612 180.560793 
L 271.026664 180.367207 
L 273.504717 179.747843 
L 275.982769 178.891346 
L 278.460822 178.185633 
L 280.938874 177.874285 
L 283.416927 177.183906 
L 285.894979 176.780913 
L 288.373032 176.708957 
L 290.851084 177.091618 
L 295.807189 178.070537 
L 298.285242 177.877354 
L 300.763294 177.485764 
L 305.719399 176.121295 
L 308.197452 175.862814 
L 318.109661 175.630699 
L 323.065766 175.203547 
L 325.543819 174.530137 
L 330.499924 173.010251 
L 332.977976 172.827669 
L 335.456029 172.921267 
L 337.934081 173.264265 
L 340.412134 173.795822 
L 342.890186 173.866677 
L 345.368239 173.523991 
L 347.846291 172.924431 
L 350.324344 172.443047 
L 357.758501 172.096443 
L 360.236554 172.053948 
L 362.714606 172.368466 
L 365.192659 172.819157 
L 367.670711 173.064477 
L 370.148764 173.11502 
L 372.626816 172.547511 
L 375.104869 171.824117 
L 377.582921 171.544024 
L 380.060974 171.876341 
L 385.017079 173.011977 
L 387.495131 173.084384 
L 392.451236 172.61774 
L 394.929289 172.29012 
L 397.407341 172.102653 
L 399.885394 172.139334 
L 402.363446 171.960094 
L 404.841499 171.957309 
L 414.753709 173.451816 
L 419.709814 173.21958 
L 429.622024 174.154056 
L 434.578129 173.629068 
L 437.056181 173.653 
L 439.534234 174.066288 
L 442.012286 174.692894 
L 444.490339 175.137202 
L 446.968391 175.131538 
L 454.402548 175.875009 
L 456.880601 175.641534 
L 459.358653 175.078431 
L 461.836706 173.906758 
L 464.314758 173.436087 
L 466.792811 173.905301 
L 469.270863 175.126923 
L 471.748916 175.826932 
L 474.226968 176.016145 
L 476.705021 175.520658 
L 479.183073 174.703198 
L 481.661126 174.156058 
L 484.139178 173.904559 
L 489.095283 172.39031 
L 494.051388 170.247255 
L 496.529441 169.403354 
L 499.007493 167.59307 
L 501.485546 166.147389 
L 503.963598 164.508003 
L 506.441651 162.701604 
L 508.919703 161.681122 
L 511.397756 160.91177 
L 513.875808 160.480427 
L 516.353861 160.243893 
L 518.831913 159.769135 
L 521.309966 158.816772 
L 528.744123 157.21543 
L 531.222176 156.99462 
L 533.700228 156.892984 
L 536.178281 156.30013 
L 538.656333 155.334903 
L 541.134386 154.199004 
L 546.090491 151.207069 
L 551.046596 147.892431 
L 553.524648 146.826311 
L 560.958806 145.683243 
L 563.436858 145.523792 
L 565.914911 144.53816 
L 568.392963 142.698032 
L 570.871016 140.416881 
L 573.349068 138.39444 
L 575.827121 137.116883 
L 578.305173 136.519197 
L 580.783226 136.137624 
L 583.261278 135.29029 
L 588.217383 132.835018 
L 590.695436 131.824907 
L 595.651541 130.921691 
L 598.129593 130.208751 
L 600.607645 129.228294 
L 603.085698 127.805458 
L 605.56375 126.69838 
L 612.997908 125.160869 
L 615.47596 124.306547 
L 617.954013 123.04751 
L 620.432065 122.196238 
L 622.910118 122.078662 
L 625.38817 121.807579 
L 627.866223 121.100016 
L 630.344275 120.182989 
L 632.822328 118.581931 
L 635.30038 117.557999 
L 637.778433 116.669087 
L 640.256485 115.95413 
L 642.734538 114.833264 
L 645.21259 113.370721 
L 647.690643 111.110612 
L 650.168695 109.796116 
L 652.646748 109.416547 
L 655.1248 108.89458 
L 657.602853 108.024443 
L 660.080905 107.033854 
L 662.558958 105.629037 
L 665.03701 103.954417 
L 667.515063 102.421539 
L 672.471168 100.002639 
L 674.94922 99.354843 
L 677.427273 98.429962 
L 677.427273 98.429962 
" clip-path="url(#pfc375310c3)" style="fill: none; stroke: #a52a2a; stroke-width: 1.5; stroke-linecap: round"/>
   </g>
   <g id="line2d_3">
    <path d="M 85.172727 222.662028 
L 87.65078 222.860623 
L 90.128832 222.570923 
L 92.606885 221.903904 
L 97.56299 221.68289 
L 100.041042 221.112935 
L 102.519095 219.904419 
L 104.997147 218.141492 
L 107.4752 216.226538 
L 109.953252 214.935546 
L 112.431305 213.987441 
L 114.909357 213.508461 
L 117.38741 212.839567 
L 119.865462 211.967633 
L 122.343515 210.912963 
L 129.777672 207.343009 
L 132.255725 206.65185 
L 134.733777 205.693507 
L 139.689882 203.563414 
L 142.167935 202.511639 
L 144.645987 201.699358 
L 149.602092 200.61187 
L 152.080145 200.020337 
L 154.558197 199.297689 
L 159.514302 197.462945 
L 161.992355 196.418761 
L 164.470407 195.251651 
L 166.948459 194.543506 
L 171.904564 194.007055 
L 174.382617 193.64126 
L 176.860669 192.945971 
L 179.338722 191.99975 
L 181.816774 191.217287 
L 184.294827 191.103022 
L 186.772879 191.462113 
L 191.728984 191.862712 
L 194.207037 191.576376 
L 199.163142 190.149216 
L 201.641194 189.644491 
L 204.119247 189.676343 
L 206.597299 190.445705 
L 211.553404 192.619999 
L 214.031457 193.287157 
L 218.987562 193.402798 
L 221.465614 193.381345 
L 223.943667 193.2359 
L 226.421719 193.249249 
L 228.899772 193.779136 
L 231.377824 194.60325 
L 236.333929 196.553967 
L 238.811982 196.923636 
L 243.768087 196.931794 
L 246.246139 197.130753 
L 248.724192 197.789579 
L 251.202244 198.749269 
L 253.680297 199.238332 
L 256.158349 199.334355 
L 258.636402 199.114342 
L 261.114454 199.104984 
L 263.592507 199.714193 
L 266.070559 200.615458 
L 268.548612 201.042944 
L 271.026664 201.076919 
L 273.504717 200.808871 
L 278.460822 199.564948 
L 280.938874 199.173616 
L 283.416927 198.393016 
L 285.894979 197.885386 
L 288.373032 197.931407 
L 290.851084 198.475078 
L 295.807189 200.21638 
L 298.285242 200.440351 
L 300.763294 200.161659 
L 305.719399 198.828588 
L 308.197452 198.623222 
L 313.153556 198.488759 
L 315.631609 198.378998 
L 318.109661 198.473928 
L 320.587714 198.33761 
L 323.065766 198.498098 
L 325.543819 198.42719 
L 328.021871 198.089802 
L 330.499924 197.619261 
L 335.456029 197.398183 
L 337.934081 197.480015 
L 340.412134 197.750718 
L 342.890186 197.713289 
L 345.368239 197.314264 
L 347.846291 196.707937 
L 350.324344 196.450935 
L 355.280449 196.808936 
L 362.714606 196.655281 
L 370.148764 196.938309 
L 372.626816 196.43084 
L 375.104869 195.772576 
L 377.582921 195.601498 
L 380.060974 195.965806 
L 385.017079 197.573022 
L 387.495131 197.750698 
L 389.973184 197.574323 
L 394.929289 196.875283 
L 397.407341 196.82874 
L 399.885394 197.202987 
L 404.841499 197.557726 
L 412.275656 198.846309 
L 414.753709 199.409011 
L 417.231761 199.631609 
L 422.187866 200.260075 
L 429.622024 200.543014 
L 434.578129 200.014469 
L 437.056181 200.05981 
L 439.534234 200.438327 
L 444.490339 201.923108 
L 449.446444 202.517443 
L 451.924496 202.817468 
L 454.402548 202.882068 
L 456.880601 202.779339 
L 459.358653 202.4551 
L 461.836706 201.480794 
L 464.314758 200.965494 
L 466.792811 201.086687 
L 469.270863 202.060064 
L 474.226968 203.609144 
L 476.705021 203.720558 
L 479.183073 203.270027 
L 484.139178 202.037756 
L 489.095283 200.120727 
L 494.051388 197.52545 
L 496.529441 196.570777 
L 499.007493 194.727383 
L 501.485546 193.639084 
L 503.963598 192.341148 
L 506.441651 190.703192 
L 508.919703 189.739148 
L 511.397756 188.977822 
L 513.875808 187.98862 
L 518.831913 187.210769 
L 521.309966 186.254237 
L 523.788018 186.029112 
L 526.266071 186.089228 
L 528.744123 186.354205 
L 531.222176 186.962942 
L 533.700228 187.102918 
L 536.178281 186.139936 
L 541.134386 182.618864 
L 543.612438 180.751572 
L 546.090491 179.606751 
L 548.568543 178.779765 
L 551.046596 178.092709 
L 553.524648 177.860553 
L 556.002701 177.879658 
L 558.480753 177.390216 
L 560.958806 176.737882 
L 563.436858 175.794699 
L 565.914911 174.155807 
L 570.871016 169.86413 
L 573.349068 168.187913 
L 575.827121 167.244854 
L 578.305173 166.723535 
L 580.783226 165.912893 
L 583.261278 164.505911 
L 585.739331 162.857132 
L 588.217383 161.502725 
L 590.695436 160.440163 
L 595.651541 159.267231 
L 600.607645 157.996706 
L 603.085698 156.862556 
L 605.56375 156.128343 
L 608.041803 155.8058 
L 610.519855 155.07255 
L 612.997908 153.953443 
L 617.954013 151.099111 
L 620.432065 150.334446 
L 622.910118 150.575377 
L 625.38817 150.666772 
L 627.866223 150.406304 
L 630.344275 149.584757 
L 632.822328 148.193647 
L 637.778433 145.900299 
L 642.734538 142.944479 
L 645.21259 141.630246 
L 647.690643 139.996512 
L 650.168695 139.36214 
L 652.646748 139.230497 
L 655.1248 138.54043 
L 657.602853 137.46484 
L 660.080905 136.250759 
L 665.03701 133.332772 
L 667.515063 132.118308 
L 669.993115 131.040666 
L 672.471168 130.152949 
L 674.94922 129.622871 
L 677.427273 128.764103 
L 677.427273 128.764103 
" clip-path="url(#pfc375310c3)" style="fill: none; stroke: #000080; stroke-width: 1.5; stroke-linecap: round"/>
   </g>
   <g id="patch_3">
    <path d="M 55.56 310.98 
L 55.56 28.08 
" style="fill: none; stroke: #ffffff; stroke-width: 1.25; stroke-linejoin: miter; stroke-linecap: square"/>
   </g>
   <g id="patch_4">
    <path d="M 707.04 310.98 
L 707.04 28.08 
" style="fill: none; stroke: #ffffff; stroke-width: 1.25; stroke-linejoin: miter; stroke-linecap: square"/>
   </g>
   <g id="patch_5">
    <path d="M 55.56 310.98 
L 707.04 310.98 
" style="fill: none; stroke: #ffffff; stroke-width: 1.25; stroke-linejoin: miter; stroke-linecap: square"/>
   </g>
   <g id="patch_6">
    <path d="M 55.56 28.08 
L 707.04 28.08 
" style="fill: none; stroke: #ffffff; stroke-width: 1.25; stroke-linejoin: miter; stroke-linecap: square"/>
   </g>
   <g id="text_18">
    <!-- eNATL60 -->
    <g style="fill: #262626" transform="translate(354.837187 22.08) scale(0.12 -0.12)">
     <defs>
      <path id="DejaVuSans-4e" d="M 628 4666 
L 1478 4666 
L 3547 763 
L 3547 4666 
L 4159 4666 
L 4159 0 
L 3309 0 
L 1241 3903 
L 1241 0 
L 628 0 
L 628 4666 
z
" transform="scale(0.015625)"/>
      <path id="DejaVuSans-41" d="M 2188 4044 
L 1331 1722 
L 3047 1722 
L 2188 4044 
z
M 1831 4666 
L 2547 4666 
L 4325 0 
L 3669 0 
L 3244 1197 
L 1141 1197 
L 716 0 
L 50 0 
L 1831 4666 
z
" transform="scale(0.015625)"/>
      <path id="DejaVuSans-4c" d="M 628 4666 
L 1259 4666 
L 1259 531 
L 3531 531 
L 3531 0 
L 628 0 
L 628 4666 
z
" transform="scale(0.015625)"/>
     </defs>
     <use xlink:href="#DejaVuSans-65"/>
     <use xlink:href="#DejaVuSans-4e" transform="translate(61.523438 0)"/>
     <use xlink:href="#DejaVuSans-41" transform="translate(136.328125 0)"/>
     <use xlink:href="#DejaVuSans-54" transform="translate(196.986328 0)"/>
     <use xlink:href="#DejaVuSans-4c" transform="translate(258.070312 0)"/>
     <use xlink:href="#DejaVuSans-36" transform="translate(313.783203 0)"/>
     <use xlink:href="#DejaVuSans-30" transform="translate(377.40625 0)"/>
    </g>
   </g>
   <g id="legend_1">
    <g id="patch_7">
     <path d="M 63.26 85.317813 
L 189.802969 85.317813 
Q 192.002969 85.317813 192.002969 83.117813 
L 192.002969 35.78 
Q 192.002969 33.58 189.802969 33.58 
L 63.26 33.58 
Q 61.06 33.58 61.06 35.78 
L 61.06 83.117813 
Q 61.06 85.317813 63.26 85.317813 
z
" style="fill: #eaeaf2; opacity: 0.8; stroke: #cccccc; stroke-linejoin: miter"/>
    </g>
    <g id="line2d_4">
     <path d="M 65.46 42.488281 
L 76.46 42.488281 
L 87.46 42.488281 
" style="fill: none; stroke: #000000; stroke-width: 1.5; stroke-linecap: round"/>
    </g>
    <g id="text_19">
     <!-- Reduced Gravity -->
     <g style="fill: #262626" transform="translate(96.26 46.338281) scale(0.11 -0.11)">
      <defs>
       <path id="DejaVuSans-75" d="M 544 1381 
L 544 3500 
L 1119 3500 
L 1119 1403 
Q 1119 906 1312 657 
Q 1506 409 1894 409 
Q 2359 409 2629 706 
Q 2900 1003 2900 1516 
L 2900 3500 
L 3475 3500 
L 3475 0 
L 2900 0 
L 2900 538 
Q 2691 219 2414 64 
Q 2138 -91 1772 -91 
Q 1169 -91 856 284 
Q 544 659 544 1381 
z
M 1991 3584 
L 1991 3584 
z
" transform="scale(0.015625)"/>
       <path id="DejaVuSans-47" d="M 3809 666 
L 3809 1919 
L 2778 1919 
L 2778 2438 
L 4434 2438 
L 4434 434 
Q 4069 175 3628 42 
Q 3188 -91 2688 -91 
Q 1594 -91 976 548 
Q 359 1188 359 2328 
Q 359 3472 976 4111 
Q 1594 4750 2688 4750 
Q 3144 4750 3555 4637 
Q 3966 4525 4313 4306 
L 4313 3634 
Q 3963 3931 3569 4081 
Q 3175 4231 2741 4231 
Q 1884 4231 1454 3753 
Q 1025 3275 1025 2328 
Q 1025 1384 1454 906 
Q 1884 428 2741 428 
Q 3075 428 3337 486 
Q 3600 544 3809 666 
z
" transform="scale(0.015625)"/>
       <path id="DejaVuSans-72" d="M 2631 2963 
Q 2534 3019 2420 3045 
Q 2306 3072 2169 3072 
Q 1681 3072 1420 2755 
Q 1159 2438 1159 1844 
L 1159 0 
L 581 0 
L 581 3500 
L 1159 3500 
L 1159 2956 
Q 1341 3275 1631 3429 
Q 1922 3584 2338 3584 
Q 2397 3584 2469 3576 
Q 2541 3569 2628 3553 
L 2631 2963 
z
" transform="scale(0.015625)"/>
       <path id="DejaVuSans-76" d="M 191 3500 
L 800 3500 
L 1894 563 
L 2988 3500 
L 3597 3500 
L 2284 0 
L 1503 0 
L 191 3500 
z
" transform="scale(0.015625)"/>
      </defs>
      <use xlink:href="#DejaVuSans-52"/>
      <use xlink:href="#DejaVuSans-65" transform="translate(64.982422 0)"/>
      <use xlink:href="#DejaVuSans-64" transform="translate(126.505859 0)"/>
      <use xlink:href="#DejaVuSans-75" transform="translate(189.982422 0)"/>
      <use xlink:href="#DejaVuSans-63" transform="translate(253.361328 0)"/>
      <use xlink:href="#DejaVuSans-65" transform="translate(308.341797 0)"/>
      <use xlink:href="#DejaVuSans-64" transform="translate(369.865234 0)"/>
      <use xlink:href="#DejaVuSans-20" transform="translate(433.341797 0)"/>
      <use xlink:href="#DejaVuSans-47" transform="translate(465.128906 0)"/>
      <use xlink:href="#DejaVuSans-72" transform="translate(542.619141 0)"/>
      <use xlink:href="#DejaVuSans-61" transform="translate(583.732422 0)"/>
      <use xlink:href="#DejaVuSans-76" transform="translate(645.011719 0)"/>
      <use xlink:href="#DejaVuSans-69" transform="translate(704.191406 0)"/>
      <use xlink:href="#DejaVuSans-74" transform="translate(731.974609 0)"/>
      <use xlink:href="#DejaVuSans-79" transform="translate(771.183594 0)"/>
     </g>
    </g>
    <g id="line2d_5">
     <path d="M 65.46 58.634219 
L 76.46 58.634219 
L 87.46 58.634219 
" style="fill: none; stroke: #a52a2a; stroke-width: 1.5; stroke-linecap: round"/>
    </g>
    <g id="text_20">
     <!-- VarDyn -->
     <g style="fill: #262626" transform="translate(96.26 62.484219) scale(0.11 -0.11)">
      <defs>
       <path id="DejaVuSans-44" d="M 1259 4147 
L 1259 519 
L 2022 519 
Q 2988 519 3436 956 
Q 3884 1394 3884 2338 
Q 3884 3275 3436 3711 
Q 2988 4147 2022 4147 
L 1259 4147 
z
M 628 4666 
L 1925 4666 
Q 3281 4666 3915 4102 
Q 4550 3538 4550 2338 
Q 4550 1131 3912 565 
Q 3275 0 1925 0 
L 628 0 
L 628 4666 
z
" transform="scale(0.015625)"/>
       <path id="DejaVuSans-6e" d="M 3513 2113 
L 3513 0 
L 2938 0 
L 2938 2094 
Q 2938 2591 2744 2837 
Q 2550 3084 2163 3084 
Q 1697 3084 1428 2787 
Q 1159 2491 1159 1978 
L 1159 0 
L 581 0 
L 581 3500 
L 1159 3500 
L 1159 2956 
Q 1366 3272 1645 3428 
Q 1925 3584 2291 3584 
Q 2894 3584 3203 3211 
Q 3513 2838 3513 2113 
z
" transform="scale(0.015625)"/>
      </defs>
      <use xlink:href="#DejaVuSans-56"/>
      <use xlink:href="#DejaVuSans-61" transform="translate(60.658203 0)"/>
      <use xlink:href="#DejaVuSans-72" transform="translate(121.9375 0)"/>
      <use xlink:href="#DejaVuSans-44" transform="translate(163.050781 0)"/>
      <use xlink:href="#DejaVuSans-79" transform="translate(240.052734 0)"/>
      <use xlink:href="#DejaVuSans-6e" transform="translate(299.232422 0)"/>
     </g>
    </g>
    <g id="line2d_6">
     <path d="M 65.46 74.780156 
L 76.46 74.780156 
L 87.46 74.780156 
" style="fill: none; stroke: #000080; stroke-width: 1.5; stroke-linecap: round"/>
    </g>
    <g id="text_21">
     <!-- SurfML -->
     <g style="fill: #262626" transform="translate(96.26 78.630156) scale(0.11 -0.11)">
      <defs>
       <path id="DejaVuSans-66" d="M 2375 4863 
L 2375 4384 
L 1825 4384 
Q 1516 4384 1395 4259 
Q 1275 4134 1275 3809 
L 1275 3500 
L 2222 3500 
L 2222 3053 
L 1275 3053 
L 1275 0 
L 697 0 
L 697 3053 
L 147 3053 
L 147 3500 
L 697 3500 
L 697 3744 
Q 697 4328 969 4595 
Q 1241 4863 1831 4863 
L 2375 4863 
z
" transform="scale(0.015625)"/>
      </defs>
      <use xlink:href="#DejaVuSans-53"/>
      <use xlink:href="#DejaVuSans-75" transform="translate(63.476562 0)"/>
      <use xlink:href="#DejaVuSans-72" transform="translate(126.855469 0)"/>
      <use xlink:href="#DejaVuSans-66" transform="translate(167.96875 0)"/>
      <use xlink:href="#DejaVuSans-4d" transform="translate(203.173828 0)"/>
      <use xlink:href="#DejaVuSans-4c" transform="translate(289.453125 0)"/>
     </g>
    </g>
   </g>
  </g>
 </g>
 <defs>
  <clipPath id="pfc375310c3">
   <rect x="55.56" y="28.08" width="651.48" height="282.9"/>
  </clipPath>
 </defs>
</svg>
