<?xml version="1.0" encoding="utf-8" standalone="no"?>
<!DOCTYPE svg PUBLIC "-//W3C//DTD SVG 1.1//EN"
  "http://www.w3.org/Graphics/SVG/1.1/DTD/svg11.dtd">
<svg xmlns:xlink="http://www.w3.org/1999/xlink" width="720pt" height="360pt" viewBox="0 0 720 360" xmlns="http://www.w3.org/2000/svg" version="1.1">
 <metadata>
  <rdf:RDF xmlns:dc="http://purl.org/dc/elements/1.1/" xmlns:cc="http://creativecommons.org/ns#" xmlns:rdf="http://www.w3.org/1999/02/22-rdf-syntax-ns#">
   <cc:Work>
    <dc:type rdf:resource="http://purl.org/dc/dcmitype/StillImage"/>
    <dc:date>2026-03-23T10:39:08.442264</dc:date>
    <dc:format>image/svg+xml</dc:format>
    <dc:creator>
     <cc:Agent>
      <dc:title>Matplotlib v3.10.6, https://matplotlib.org/</dc:title>
     </cc:Agent>
    </dc:creator>
   </cc:Work>
  </rdf:RDF>
 </metadata>
 <defs>
  <style type="text/css">*{stroke-linejoin: round; stroke-linecap: butt}</style>
 </defs>
 <g id="figure_1">
  <g id="patch_1">
   <path d="M 0 360 
L 720 360 
L 720 0 
L 0 0 
z
" style="fill: #ffffff"/>
  </g>
  <g id="axes_1">
   <g id="patch_2">
    <path d="M 55.56 310.98 
L 707.04 310.98 
L 707.04 28.08 
L 55.56 28.08 
z
" style="fill: #eaeaf2"/>
   </g>
   <g id="matplotlib.axis_1">
    <g id="xtick_1">
     <g id="text_1">
      <!-- 0.0 -->
      <g style="fill: #262626" transform="translate(76.426009 328.838281) scale(0.11 -0.11)">
       <defs>
        <path id="DejaVuSans-30" d="M 2034 4250 
Q 1547 4250 1301 3770 
Q 1056 3291 1056 2328 
Q 1056 1369 1301 889 
Q 1547 409 2034 409 
Q 2525 409 2770 889 
Q 3016 1369 3016 2328 
Q 3016 3291 2770 3770 
Q 2525 4250 2034 4250 
z
M 2034 4750 
Q 2819 4750 3233 4129 
Q 3647 3509 3647 2328 
Q 3647 1150 3233 529 
Q 2819 -91 2034 -91 
Q 1250 -91 836 529 
Q 422 1150 422 2328 
Q 422 3509 836 4129 
Q 1250 4750 2034 4750 
z
" transform="scale(0.015625)"/>
        <path id="DejaVuSans-2e" d="M 684 794 
L 1344 794 
L 1344 0 
L 684 0 
L 684 794 
z
" transform="scale(0.015625)"/>
       </defs>
       <use xlink:href="#DejaVuSans-30"/>
       <use xlink:href="#DejaVuSans-2e" transform="translate(63.623047 0)"/>
       <use xlink:href="#DejaVuSans-30" transform="translate(95.410156 0)"/>
      </g>
     </g>
    </g>
    <g id="xtick_2">
     <g id="text_2">
      <!-- 2.5 -->
      <g style="fill: #262626" transform="translate(150.767583 328.838281) scale(0.11 -0.11)">
       <defs>
        <path id="DejaVuSans-32" d="M 1228 531 
L 3431 531 
L 3431 0 
L 469 0 
L 469 531 
Q 828 903 1448 1529 
Q 2069 2156 2228 2338 
Q 2531 2678 2651 2914 
Q 2772 3150 2772 3378 
Q 2772 3750 2511 3984 
Q 2250 4219 1831 4219 
Q 1534 4219 1204 4116 
Q 875 4013 500 3803 
L 500 4441 
Q 881 4594 1212 4672 
Q 1544 4750 1819 4750 
Q 2544 4750 2975 4387 
Q 3406 4025 3406 3419 
Q 3406 3131 3298 2873 
Q 3191 2616 2906 2266 
Q 2828 2175 2409 1742 
Q 1991 1309 1228 531 
z
" transform="scale(0.015625)"/>
        <path id="DejaVuSans-35" d="M 691 4666 
L 3169 4666 
L 3169 4134 
L 1269 4134 
L 1269 2991 
Q 1406 3038 1543 3061 
Q 1681 3084 1819 3084 
Q 2600 3084 3056 2656 
Q 3513 2228 3513 1497 
Q 3513 744 3044 326 
Q 2575 -91 1722 -91 
Q 1428 -91 1123 -41 
Q 819 9 494 109 
L 494 744 
Q 775 591 1075 516 
Q 1375 441 1709 441 
Q 2250 441 2565 725 
Q 2881 1009 2881 1497 
Q 2881 1984 2565 2268 
Q 2250 2553 1709 2553 
Q 1456 2553 1204 2497 
Q 953 2441 691 2322 
L 691 4666 
z
" transform="scale(0.015625)"/>
       </defs>
       <use xlink:href="#DejaVuSans-32"/>
       <use xlink:href="#DejaVuSans-2e" transform="translate(63.623047 0)"/>
       <use xlink:href="#DejaVuSans-35" transform="translate(95.410156 0)"/>
      </g>
     </g>
    </g>
    <g id="xtick_3">
     <g id="text_3">
      <!-- 5.0 -->
      <g style="fill: #262626" transform="translate(225.109158 328.838281) scale(0.11 -0.11)">
       <use xlink:href="#DejaVuSans-35"/>
       <use xlink:href="#DejaVuSans-2e" transform="translate(63.623047 0)"/>
       <use xlink:href="#DejaVuSans-30" transform="translate(95.410156 0)"/>
      </g>
     </g>
    </g>
    <g id="xtick_4">
     <g id="text_4">
      <!-- 7.5 -->
      <g style="fill: #262626" transform="translate(299.450733 328.838281) scale(0.11 -0.11)">
       <defs>
        <path id="DejaVuSans-37" d="M 525 4666 
L 3525 4666 
L 3525 4397 
L 1831 0 
L 1172 0 
L 2766 4134 
L 525 4134 
L 525 4666 
z
" transform="scale(0.015625)"/>
       </defs>
       <use xlink:href="#DejaVuSans-37"/>
       <use xlink:href="#DejaVuSans-2e" transform="translate(63.623047 0)"/>
       <use xlink:href="#DejaVuSans-35" transform="translate(95.410156 0)"/>
      </g>
     </g>
    </g>
    <g id="xtick_5">
     <g id="text_5">
      <!-- 10.0 -->
      <g style="fill: #262626" transform="translate(370.292932 328.838281) scale(0.11 -0.11)">
       <defs>
        <path id="DejaVuSans-31" d="M 794 531 
L 1825 531 
L 1825 4091 
L 703 3866 
L 703 4441 
L 1819 4666 
L 2450 4666 
L 2450 531 
L 3481 531 
L 3481 0 
L 794 0 
L 794 531 
z
" transform="scale(0.015625)"/>
       </defs>
       <use xlink:href="#DejaVuSans-31"/>
       <use xlink:href="#DejaVuSans-30" transform="translate(63.623047 0)"/>
       <use xlink:href="#DejaVuSans-2e" transform="translate(127.246094 0)"/>
       <use xlink:href="#DejaVuSans-30" transform="translate(159.033203 0)"/>
      </g>
     </g>
    </g>
    <g id="xtick_6">
     <g id="text_6">
      <!-- 12.5 -->
      <g style="fill: #262626" transform="translate(444.634507 328.838281) scale(0.11 -0.11)">
       <use xlink:href="#DejaVuSans-31"/>
       <use xlink:href="#DejaVuSans-32" transform="translate(63.623047 0)"/>
       <use xlink:href="#DejaVuSans-2e" transform="translate(127.246094 0)"/>
       <use xlink:href="#DejaVuSans-35" transform="translate(159.033203 0)"/>
      </g>
     </g>
    </g>
    <g id="xtick_7">
     <g id="text_7">
      <!-- 15.0 -->
      <g style="fill: #262626" transform="translate(518.976082 328.838281) scale(0.11 -0.11)">
       <use xlink:href="#DejaVuSans-31"/>
       <use xlink:href="#DejaVuSans-35" transform="translate(63.623047 0)"/>
       <use xlink:href="#DejaVuSans-2e" transform="translate(127.246094 0)"/>
       <use xlink:href="#DejaVuSans-30" transform="translate(159.033203 0)"/>
      </g>
     </g>
    </g>
    <g id="xtick_8">
     <g id="text_8">
      <!-- 17.5 -->
      <g style="fill: #262626" transform="translate(593.317657 328.838281) scale(0.11 -0.11)">
       <use xlink:href="#DejaVuSans-31"/>
       <use xlink:href="#DejaVuSans-37" transform="translate(63.623047 0)"/>
       <use xlink:href="#DejaVuSans-2e" transform="translate(127.246094 0)"/>
       <use xlink:href="#DejaVuSans-35" transform="translate(159.033203 0)"/>
      </g>
     </g>
    </g>
    <g id="xtick_9">
     <g id="text_9">
      <!-- 20.0 -->
      <g style="fill: #262626" transform="translate(667.659231 328.838281) scale(0.11 -0.11)">
       <use xlink:href="#DejaVuSans-32"/>
       <use xlink:href="#DejaVuSans-30" transform="translate(63.623047 0)"/>
       <use xlink:href="#DejaVuSans-2e" transform="translate(127.246094 0)"/>
       <use xlink:href="#DejaVuSans-30" transform="translate(159.033203 0)"/>
      </g>
     </g>
    </g>
    <g id="text_10">
     <!-- Time [days] -->
     <g style="fill: #262626" transform="translate(345.868125 344.244062) scale(0.12 -0.12)">
      <defs>
       <path id="DejaVuSans-54" d="M -19 4666 
L 3928 4666 
L 3928 4134 
L 2272 4134 
L 2272 0 
L 1638 0 
L 1638 4134 
L -19 4134 
L -19 4666 
z
" transform="scale(0.015625)"/>
       <path id="DejaVuSans-69" d="M 603 3500 
L 1178 3500 
L 1178 0 
L 603 0 
L 603 3500 
z
M 603 4863 
L 1178 4863 
L 1178 4134 
L 603 4134 
L 603 4863 
z
" transform="scale(0.015625)"/>
       <path id="DejaVuSans-6d" d="M 3328 2828 
Q 3544 3216 3844 3400 
Q 4144 3584 4550 3584 
Q 5097 3584 5394 3201 
Q 5691 2819 5691 2113 
L 5691 0 
L 5113 0 
L 5113 2094 
Q 5113 2597 4934 2840 
Q 4756 3084 4391 3084 
Q 3944 3084 3684 2787 
Q 3425 2491 3425 1978 
L 3425 0 
L 2847 0 
L 2847 2094 
Q 2847 2600 2669 2842 
Q 2491 3084 2119 3084 
Q 1678 3084 1418 2786 
Q 1159 2488 1159 1978 
L 1159 0 
L 581 0 
L 581 3500 
L 1159 3500 
L 1159 2956 
Q 1356 3278 1631 3431 
Q 1906 3584 2284 3584 
Q 2666 3584 2933 3390 
Q 3200 3197 3328 2828 
z
" transform="scale(0.015625)"/>
       <path id="DejaVuSans-65" d="M 3597 1894 
L 3597 1613 
L 953 1613 
Q 991 1019 1311 708 
Q 1631 397 2203 397 
Q 2534 397 2845 478 
Q 3156 559 3463 722 
L 3463 178 
Q 3153 47 2828 -22 
Q 2503 -91 2169 -91 
Q 1331 -91 842 396 
Q 353 884 353 1716 
Q 353 2575 817 3079 
Q 1281 3584 2069 3584 
Q 2775 3584 3186 3129 
Q 3597 2675 3597 1894 
z
M 3022 2063 
Q 3016 2534 2758 2815 
Q 2500 3097 2075 3097 
Q 1594 3097 1305 2825 
Q 1016 2553 972 2059 
L 3022 2063 
z
" transform="scale(0.015625)"/>
       <path id="DejaVuSans-20" transform="scale(0.015625)"/>
       <path id="DejaVuSans-5b" d="M 550 4863 
L 1875 4863 
L 1875 4416 
L 1125 4416 
L 1125 -397 
L 1875 -397 
L 1875 -844 
L 550 -844 
L 550 4863 
z
" transform="scale(0.015625)"/>
       <path id="DejaVuSans-64" d="M 2906 2969 
L 2906 4863 
L 3481 4863 
L 3481 0 
L 2906 0 
L 2906 525 
Q 2725 213 2448 61 
Q 2172 -91 1784 -91 
Q 1150 -91 751 415 
Q 353 922 353 1747 
Q 353 2572 751 3078 
Q 1150 3584 1784 3584 
Q 2172 3584 2448 3432 
Q 2725 3281 2906 2969 
z
M 947 1747 
Q 947 1113 1208 752 
Q 1469 391 1925 391 
Q 2381 391 2643 752 
Q 2906 1113 2906 1747 
Q 2906 2381 2643 2742 
Q 2381 3103 1925 3103 
Q 1469 3103 1208 2742 
Q 947 2381 947 1747 
z
" transform="scale(0.015625)"/>
       <path id="DejaVuSans-61" d="M 2194 1759 
Q 1497 1759 1228 1600 
Q 959 1441 959 1056 
Q 959 750 1161 570 
Q 1363 391 1709 391 
Q 2188 391 2477 730 
Q 2766 1069 2766 1631 
L 2766 1759 
L 2194 1759 
z
M 3341 1997 
L 3341 0 
L 2766 0 
L 2766 531 
Q 2569 213 2275 61 
Q 1981 -91 1556 -91 
Q 1019 -91 701 211 
Q 384 513 384 1019 
Q 384 1609 779 1909 
Q 1175 2209 1959 2209 
L 2766 2209 
L 2766 2266 
Q 2766 2663 2505 2880 
Q 2244 3097 1772 3097 
Q 1472 3097 1187 3025 
Q 903 2953 641 2809 
L 641 3341 
Q 956 3463 1253 3523 
Q 1550 3584 1831 3584 
Q 2591 3584 2966 3190 
Q 3341 2797 3341 1997 
z
" transform="scale(0.015625)"/>
       <path id="DejaVuSans-79" d="M 2059 -325 
Q 1816 -950 1584 -1140 
Q 1353 -1331 966 -1331 
L 506 -1331 
L 506 -850 
L 844 -850 
Q 1081 -850 1212 -737 
Q 1344 -625 1503 -206 
L 1606 56 
L 191 3500 
L 800 3500 
L 1894 763 
L 2988 3500 
L 3597 3500 
L 2059 -325 
z
" transform="scale(0.015625)"/>
       <path id="DejaVuSans-73" d="M 2834 3397 
L 2834 2853 
Q 2591 2978 2328 3040 
Q 2066 3103 1784 3103 
Q 1356 3103 1142 2972 
Q 928 2841 928 2578 
Q 928 2378 1081 2264 
Q 1234 2150 1697 2047 
L 1894 2003 
Q 2506 1872 2764 1633 
Q 3022 1394 3022 966 
Q 3022 478 2636 193 
Q 2250 -91 1575 -91 
Q 1294 -91 989 -36 
Q 684 19 347 128 
L 347 722 
Q 666 556 975 473 
Q 1284 391 1588 391 
Q 1994 391 2212 530 
Q 2431 669 2431 922 
Q 2431 1156 2273 1281 
Q 2116 1406 1581 1522 
L 1381 1569 
Q 847 1681 609 1914 
Q 372 2147 372 2553 
Q 372 3047 722 3315 
Q 1072 3584 1716 3584 
Q 2034 3584 2315 3537 
Q 2597 3491 2834 3397 
z
" transform="scale(0.015625)"/>
       <path id="DejaVuSans-5d" d="M 1947 4863 
L 1947 -844 
L 622 -844 
L 622 -397 
L 1369 -397 
L 1369 4416 
L 622 4416 
L 622 4863 
L 1947 4863 
z
" transform="scale(0.015625)"/>
      </defs>
      <use xlink:href="#DejaVuSans-54"/>
      <use xlink:href="#DejaVuSans-69" transform="translate(57.958984 0)"/>
      <use xlink:href="#DejaVuSans-6d" transform="translate(85.742188 0)"/>
      <use xlink:href="#DejaVuSans-65" transform="translate(183.154297 0)"/>
      <use xlink:href="#DejaVuSans-20" transform="translate(244.677734 0)"/>
      <use xlink:href="#DejaVuSans-5b" transform="translate(276.464844 0)"/>
      <use xlink:href="#DejaVuSans-64" transform="translate(315.478516 0)"/>
      <use xlink:href="#DejaVuSans-61" transform="translate(378.955078 0)"/>
      <use xlink:href="#DejaVuSans-79" transform="translate(440.234375 0)"/>
      <use xlink:href="#DejaVuSans-73" transform="translate(499.414062 0)"/>
      <use xlink:href="#DejaVuSans-5d" transform="translate(551.513672 0)"/>
     </g>
    </g>
   </g>
   <g id="matplotlib.axis_2">
    <g id="ytick_1">
     <g id="text_11">
      <!-- 0.0 -->
      <g style="fill: #262626" transform="translate(28.566562 302.30005) scale(0.11 -0.11)">
       <use xlink:href="#DejaVuSans-30"/>
       <use xlink:href="#DejaVuSans-2e" transform="translate(63.623047 0)"/>
       <use xlink:href="#DejaVuSans-30" transform="translate(95.410156 0)"/>
      </g>
     </g>
    </g>
    <g id="ytick_2">
     <g id="text_12">
      <!-- 0.2 -->
      <g style="fill: #262626" transform="translate(28.566562 250.863686) scale(0.11 -0.11)">
       <use xlink:href="#DejaVuSans-30"/>
       <use xlink:href="#DejaVuSans-2e" transform="translate(63.623047 0)"/>
       <use xlink:href="#DejaVuSans-32" transform="translate(95.410156 0)"/>
      </g>
     </g>
    </g>
    <g id="ytick_3">
     <g id="text_13">
      <!-- 0.4 -->
      <g style="fill: #262626" transform="translate(28.566562 199.427322) scale(0.11 -0.11)">
       <defs>
        <path id="DejaVuSans-34" d="M 2419 4116 
L 825 1625 
L 2419 1625 
L 2419 4116 
z
M 2253 4666 
L 3047 4666 
L 3047 1625 
L 3713 1625 
L 3713 1100 
L 3047 1100 
L 3047 0 
L 2419 0 
L 2419 1100 
L 313 1100 
L 313 1709 
L 2253 4666 
z
" transform="scale(0.015625)"/>
       </defs>
       <use xlink:href="#DejaVuSans-30"/>
       <use xlink:href="#DejaVuSans-2e" transform="translate(63.623047 0)"/>
       <use xlink:href="#DejaVuSans-34" transform="translate(95.410156 0)"/>
      </g>
     </g>
    </g>
    <g id="ytick_4">
     <g id="text_14">
      <!-- 0.6 -->
      <g style="fill: #262626" transform="translate(28.566562 147.990959) scale(0.11 -0.11)">
       <defs>
        <path id="DejaVuSans-36" d="M 2113 2584 
Q 1688 2584 1439 2293 
Q 1191 2003 1191 1497 
Q 1191 994 1439 701 
Q 1688 409 2113 409 
Q 2538 409 2786 701 
Q 3034 994 3034 1497 
Q 3034 2003 2786 2293 
Q 2538 2584 2113 2584 
z
M 3366 4563 
L 3366 3988 
Q 3128 4100 2886 4159 
Q 2644 4219 2406 4219 
Q 1781 4219 1451 3797 
Q 1122 3375 1075 2522 
Q 1259 2794 1537 2939 
Q 1816 3084 2150 3084 
Q 2853 3084 3261 2657 
Q 3669 2231 3669 1497 
Q 3669 778 3244 343 
Q 2819 -91 2113 -91 
Q 1303 -91 875 529 
Q 447 1150 447 2328 
Q 447 3434 972 4092 
Q 1497 4750 2381 4750 
Q 2619 4750 2861 4703 
Q 3103 4656 3366 4563 
z
" transform="scale(0.015625)"/>
       </defs>
       <use xlink:href="#DejaVuSans-30"/>
       <use xlink:href="#DejaVuSans-2e" transform="translate(63.623047 0)"/>
       <use xlink:href="#DejaVuSans-36" transform="translate(95.410156 0)"/>
      </g>
     </g>
    </g>
    <g id="ytick_5">
     <g id="text_15">
      <!-- 0.8 -->
      <g style="fill: #262626" transform="translate(28.566562 96.554595) scale(0.11 -0.11)">
       <defs>
        <path id="DejaVuSans-38" d="M 2034 2216 
Q 1584 2216 1326 1975 
Q 1069 1734 1069 1313 
Q 1069 891 1326 650 
Q 1584 409 2034 409 
Q 2484 409 2743 651 
Q 3003 894 3003 1313 
Q 3003 1734 2745 1975 
Q 2488 2216 2034 2216 
z
M 1403 2484 
Q 997 2584 770 2862 
Q 544 3141 544 3541 
Q 544 4100 942 4425 
Q 1341 4750 2034 4750 
Q 2731 4750 3128 4425 
Q 3525 4100 3525 3541 
Q 3525 3141 3298 2862 
Q 3072 2584 2669 2484 
Q 3125 2378 3379 2068 
Q 3634 1759 3634 1313 
Q 3634 634 3220 271 
Q 2806 -91 2034 -91 
Q 1263 -91 848 271 
Q 434 634 434 1313 
Q 434 1759 690 2068 
Q 947 2378 1403 2484 
z
M 1172 3481 
Q 1172 3119 1398 2916 
Q 1625 2713 2034 2713 
Q 2441 2713 2670 2916 
Q 2900 3119 2900 3481 
Q 2900 3844 2670 4047 
Q 2441 4250 2034 4250 
Q 1625 4250 1398 4047 
Q 1172 3844 1172 3481 
z
" transform="scale(0.015625)"/>
       </defs>
       <use xlink:href="#DejaVuSans-30"/>
       <use xlink:href="#DejaVuSans-2e" transform="translate(63.623047 0)"/>
       <use xlink:href="#DejaVuSans-38" transform="translate(95.410156 0)"/>
      </g>
     </g>
    </g>
    <g id="ytick_6">
     <g id="text_16">
      <!-- 1.0 -->
      <g style="fill: #262626" transform="translate(28.566562 45.118232) scale(0.11 -0.11)">
       <use xlink:href="#DejaVuSans-31"/>
       <use xlink:href="#DejaVuSans-2e" transform="translate(63.623047 0)"/>
       <use xlink:href="#DejaVuSans-30" transform="translate(95.410156 0)"/>
      </g>
     </g>
    </g>
    <g id="text_17">
     <!-- nRMSE -->
     <g style="fill: #262626" transform="translate(22.070937 190.27875) rotate(-90) scale(0.12 -0.12)">
      <defs>
       <path id="DejaVuSans-6e" d="M 3513 2113 
L 3513 0 
L 2938 0 
L 2938 2094 
Q 2938 2591 2744 2837 
Q 2550 3084 2163 3084 
Q 1697 3084 1428 2787 
Q 1159 2491 1159 1978 
L 1159 0 
L 581 0 
L 581 3500 
L 1159 3500 
L 1159 2956 
Q 1366 3272 1645 3428 
Q 1925 3584 2291 3584 
Q 2894 3584 3203 3211 
Q 3513 2838 3513 2113 
z
" transform="scale(0.015625)"/>
       <path id="DejaVuSans-52" d="M 2841 2188 
Q 3044 2119 3236 1894 
Q 3428 1669 3622 1275 
L 4263 0 
L 3584 0 
L 2988 1197 
Q 2756 1666 2539 1819 
Q 2322 1972 1947 1972 
L 1259 1972 
L 1259 0 
L 628 0 
L 628 4666 
L 2053 4666 
Q 2853 4666 3247 4331 
Q 3641 3997 3641 3322 
Q 3641 2881 3436 2590 
Q 3231 2300 2841 2188 
z
M 1259 4147 
L 1259 2491 
L 2053 2491 
Q 2509 2491 2742 2702 
Q 2975 2913 2975 3322 
Q 2975 3731 2742 3939 
Q 2509 4147 2053 4147 
L 1259 4147 
z
" transform="scale(0.015625)"/>
       <path id="DejaVuSans-4d" d="M 628 4666 
L 1569 4666 
L 2759 1491 
L 3956 4666 
L 4897 4666 
L 4897 0 
L 4281 0 
L 4281 4097 
L 3078 897 
L 2444 897 
L 1241 4097 
L 1241 0 
L 628 0 
L 628 4666 
z
" transform="scale(0.015625)"/>
       <path id="DejaVuSans-53" d="M 3425 4513 
L 3425 3897 
Q 3066 4069 2747 4153 
Q 2428 4238 2131 4238 
Q 1616 4238 1336 4038 
Q 1056 3838 1056 3469 
Q 1056 3159 1242 3001 
Q 1428 2844 1947 2747 
L 2328 2669 
Q 3034 2534 3370 2195 
Q 3706 1856 3706 1288 
Q 3706 609 3251 259 
Q 2797 -91 1919 -91 
Q 1588 -91 1214 -16 
Q 841 59 441 206 
L 441 856 
Q 825 641 1194 531 
Q 1563 422 1919 422 
Q 2459 422 2753 634 
Q 3047 847 3047 1241 
Q 3047 1584 2836 1778 
Q 2625 1972 2144 2069 
L 1759 2144 
Q 1053 2284 737 2584 
Q 422 2884 422 3419 
Q 422 4038 858 4394 
Q 1294 4750 2059 4750 
Q 2388 4750 2728 4690 
Q 3069 4631 3425 4513 
z
" transform="scale(0.015625)"/>
       <path id="DejaVuSans-45" d="M 628 4666 
L 3578 4666 
L 3578 4134 
L 1259 4134 
L 1259 2753 
L 3481 2753 
L 3481 2222 
L 1259 2222 
L 1259 531 
L 3634 531 
L 3634 0 
L 628 0 
L 628 4666 
z
" transform="scale(0.015625)"/>
      </defs>
      <use xlink:href="#DejaVuSans-6e"/>
      <use xlink:href="#DejaVuSans-52" transform="translate(63.378906 0)"/>
      <use xlink:href="#DejaVuSans-4d" transform="translate(132.861328 0)"/>
      <use xlink:href="#DejaVuSans-53" transform="translate(219.140625 0)"/>
      <use xlink:href="#DejaVuSans-45" transform="translate(282.617188 0)"/>
     </g>
    </g>
   </g>
   <g id="FillBetweenPolyCollection_1">
    <defs>
     <path id="m563f014e65" d="M 85.172727 -83.240928 
L 85.172727 -76.16223 
L 87.65078 -76.165707 
L 90.128832 -77.737677 
L 92.606885 -80.518424 
L 95.084937 -79.328232 
L 97.56299 -77.360411 
L 100.041042 -77.039814 
L 102.519095 -77.681048 
L 104.997147 -79.085314 
L 107.4752 -79.689851 
L 109.953252 -78.712136 
L 112.431305 -80.056107 
L 114.909357 -82.186179 
L 117.38741 -82.662754 
L 119.865462 -82.465135 
L 122.343515 -82.898013 
L 124.821567 -85.574563 
L 127.29962 -88.59245 
L 129.777672 -90.887591 
L 132.255725 -91.729209 
L 134.733777 -90.006703 
L 137.21183 -90.345306 
L 139.689882 -92.397263 
L 142.167935 -95.540766 
L 144.645987 -97.122216 
L 147.12404 -95.498271 
L 149.602092 -92.651074 
L 152.080145 -91.750834 
L 154.558197 -94.124655 
L 157.03625 -97.625815 
L 159.514302 -98.882949 
L 161.992355 -97.912358 
L 164.470407 -96.080008 
L 166.948459 -96.031363 
L 169.426512 -97.61065 
L 171.904564 -100.097627 
L 174.382617 -101.628773 
L 176.860669 -101.051378 
L 179.338722 -101.070608 
L 181.816774 -102.071199 
L 184.294827 -103.186548 
L 186.772879 -103.570363 
L 189.250932 -103.667426 
L 191.728984 -104.868574 
L 194.207037 -107.470332 
L 196.685089 -109.631586 
L 199.163142 -110.108789 
L 201.641194 -109.636877 
L 204.119247 -109.841171 
L 206.597299 -111.107887 
L 209.075352 -113.014045 
L 211.553404 -114.650095 
L 214.031457 -114.862368 
L 216.509509 -114.81271 
L 218.987562 -115.208612 
L 221.465614 -115.970482 
L 223.943667 -117.177401 
L 226.421719 -118.444145 
L 228.899772 -118.767585 
L 231.377824 -119.496539 
L 233.855877 -120.423912 
L 236.333929 -120.930453 
L 238.811982 -121.947537 
L 241.290034 -123.366081 
L 243.768087 -124.448585 
L 246.246139 -125.317251 
L 248.724192 -126.150048 
L 251.202244 -127.362206 
L 253.680297 -129.473138 
L 256.158349 -131.342773 
L 258.636402 -132.327301 
L 261.114454 -132.769712 
L 263.592507 -133.823609 
L 266.070559 -135.067721 
L 268.548612 -136.803007 
L 271.026664 -138.482034 
L 273.504717 -139.442802 
L 275.982769 -140.059074 
L 278.460822 -140.83497 
L 280.938874 -141.94603 
L 283.416927 -143.625337 
L 285.894979 -145.207671 
L 288.373032 -145.994711 
L 290.851084 -146.494916 
L 293.329137 -147.621228 
L 295.807189 -148.52975 
L 298.285242 -150.275868 
L 300.763294 -151.636421 
L 303.241347 -152.775995 
L 305.719399 -153.60412 
L 308.197452 -154.710856 
L 310.675504 -156.046193 
L 313.153556 -157.803309 
L 315.631609 -159.543678 
L 318.109661 -160.871027 
L 320.587714 -160.920569 
L 323.065766 -161.743819 
L 325.543819 -162.880619 
L 328.021871 -165.031487 
L 330.499924 -167.319083 
L 332.977976 -168.107074 
L 335.456029 -168.797128 
L 337.934081 -169.198161 
L 340.412134 -170.081098 
L 342.890186 -171.69702 
L 345.368239 -172.70244 
L 347.846291 -173.760439 
L 350.324344 -173.942814 
L 352.802396 -174.306113 
L 355.280449 -175.209346 
L 357.758501 -176.568823 
L 360.236554 -178.113697 
L 362.714606 -178.673268 
L 365.192659 -178.849058 
L 367.670711 -179.283719 
L 370.148764 -179.824474 
L 372.626816 -181.143202 
L 375.104869 -182.312986 
L 377.582921 -183.224146 
L 380.060974 -183.497993 
L 382.539026 -184.073582 
L 385.017079 -184.671801 
L 387.495131 -185.744376 
L 389.973184 -187.008258 
L 392.451236 -187.647248 
L 394.929289 -187.860186 
L 397.407341 -188.515984 
L 399.885394 -188.581106 
L 402.363446 -189.656289 
L 404.841499 -190.466262 
L 407.319551 -191.456043 
L 409.797604 -191.487065 
L 412.275656 -191.748468 
L 414.753709 -192.336464 
L 417.231761 -193.845053 
L 419.709814 -195.356537 
L 422.187866 -195.596552 
L 424.665919 -195.469099 
L 427.143971 -195.348976 
L 429.622024 -195.867584 
L 432.100076 -197.226296 
L 434.578129 -198.336896 
L 437.056181 -198.48346 
L 439.534234 -198.181061 
L 442.012286 -198.06073 
L 444.490339 -198.600545 
L 446.968391 -199.959184 
L 449.446444 -201.347874 
L 451.924496 -201.724188 
L 454.402548 -201.094729 
L 456.880601 -200.95642 
L 459.358653 -201.255895 
L 461.836706 -202.555848 
L 464.314758 -203.347273 
L 466.792811 -203.366703 
L 469.270863 -202.785917 
L 471.748916 -202.223863 
L 474.226968 -202.420806 
L 476.705021 -203.889026 
L 479.183073 -204.951187 
L 481.661126 -205.128168 
L 484.139178 -204.222699 
L 486.617231 -204.354888 
L 489.095283 -204.375562 
L 491.573336 -204.823103 
L 494.051388 -205.84743 
L 496.529441 -205.049038 
L 499.007493 -204.607192 
L 501.485546 -203.780905 
L 503.963598 -203.122021 
L 506.441651 -202.724168 
L 508.919703 -203.989156 
L 511.397756 -204.733428 
L 513.875808 -205.659258 
L 516.353861 -205.26898 
L 518.831913 -206.544693 
L 521.309966 -207.253544 
L 523.788018 -209.2708 
L 526.266071 -209.176187 
L 528.744123 -209.110202 
L 531.222176 -208.410071 
L 533.700228 -208.397004 
L 536.178281 -208.891117 
L 538.656333 -209.059553 
L 541.134386 -209.348749 
L 543.612438 -209.068827 
L 546.090491 -207.853584 
L 548.568543 -208.677247 
L 551.046596 -209.30389 
L 553.524648 -210.696538 
L 556.002701 -211.019147 
L 558.480753 -211.462859 
L 560.958806 -212.015993 
L 563.436858 -211.675326 
L 565.914911 -211.90674 
L 568.392963 -212.660002 
L 570.871016 -212.405437 
L 573.349068 -212.492744 
L 575.827121 -212.410128 
L 578.305173 -213.185704 
L 580.783226 -213.645835 
L 583.261278 -214.704856 
L 585.739331 -215.778501 
L 588.217383 -216.079035 
L 590.695436 -216.079221 
L 593.173488 -215.535783 
L 595.651541 -215.21804 
L 598.129593 -215.830944 
L 600.607645 -216.281906 
L 603.085698 -217.633091 
L 605.56375 -218.101446 
L 608.041803 -217.811201 
L 610.519855 -217.855912 
L 612.997908 -218.284684 
L 615.47596 -218.975736 
L 617.954013 -219.587867 
L 620.432065 -219.478554 
L 622.910118 -218.778421 
L 625.38817 -218.645058 
L 627.866223 -219.939954 
L 630.344275 -221.18071 
L 632.822328 -221.82367 
L 635.30038 -222.485711 
L 637.778433 -222.611242 
L 640.256485 -223.032805 
L 642.734538 -223.888884 
L 645.21259 -224.625623 
L 647.690643 -225.607023 
L 650.168695 -226.121816 
L 652.646748 -226.88353 
L 655.1248 -228.090478 
L 657.602853 -229.699672 
L 660.080905 -230.827138 
L 662.558958 -231.517089 
L 665.03701 -232.579812 
L 667.515063 -232.931441 
L 669.993115 -233.858825 
L 672.471168 -234.941975 
L 674.94922 -235.76459 
L 677.427273 -236.308568 
L 677.427273 -262.684378 
L 677.427273 -262.684378 
L 674.94922 -262.977823 
L 672.471168 -263.164879 
L 669.993115 -262.157496 
L 667.515063 -261.829 
L 665.03701 -262.409422 
L 662.558958 -262.860909 
L 660.080905 -262.340246 
L 657.602853 -262.141898 
L 655.1248 -261.50725 
L 652.646748 -262.166924 
L 650.168695 -262.724412 
L 647.690643 -263.001739 
L 645.21259 -262.729734 
L 642.734538 -262.101326 
L 640.256485 -262.306638 
L 637.778433 -262.223518 
L 635.30038 -263.223244 
L 632.822328 -264.738314 
L 630.344275 -264.500712 
L 627.866223 -264.233633 
L 625.38817 -263.457367 
L 622.910118 -263.59251 
L 620.432065 -264.013826 
L 617.954013 -263.634268 
L 615.47596 -263.381686 
L 612.997908 -262.577286 
L 610.519855 -261.950872 
L 608.041803 -262.159851 
L 605.56375 -262.621982 
L 603.085698 -262.397193 
L 600.607645 -261.846445 
L 598.129593 -261.242391 
L 595.651541 -260.38221 
L 593.173488 -259.944541 
L 590.695436 -260.128093 
L 588.217383 -259.824581 
L 585.739331 -259.679109 
L 583.261278 -259.571736 
L 580.783226 -258.423904 
L 578.305173 -257.971921 
L 575.827121 -258.084665 
L 573.349068 -258.073209 
L 570.871016 -257.114467 
L 568.392963 -255.996216 
L 565.914911 -255.25934 
L 563.436858 -255.093304 
L 560.958806 -254.93701 
L 558.480753 -254.744152 
L 556.002701 -254.243767 
L 553.524648 -253.421446 
L 551.046596 -252.958747 
L 548.568543 -252.68764 
L 546.090491 -253.233166 
L 543.612438 -252.300335 
L 541.134386 -251.301896 
L 538.656333 -250.158551 
L 536.178281 -248.918152 
L 533.700228 -248.764314 
L 531.222176 -248.899875 
L 528.744123 -248.353873 
L 526.266071 -247.036802 
L 523.788018 -245.849595 
L 521.309966 -245.18459 
L 518.831913 -244.599087 
L 516.353861 -245.231376 
L 513.875808 -244.694942 
L 511.397756 -243.817161 
L 508.919703 -243.429 
L 506.441651 -243.432047 
L 503.963598 -243.240058 
L 501.485546 -243.364087 
L 499.007493 -242.891005 
L 496.529441 -242.355507 
L 494.051388 -241.7182 
L 491.573336 -240.941355 
L 489.095283 -240.707566 
L 486.617231 -240.662935 
L 484.139178 -240.466869 
L 481.661126 -239.486298 
L 479.183073 -238.521492 
L 476.705021 -238.104499 
L 474.226968 -238.34553 
L 471.748916 -238.542043 
L 469.270863 -238.010415 
L 466.792811 -237.43229 
L 464.314758 -236.496203 
L 461.836706 -236.301133 
L 459.358653 -236.070847 
L 456.880601 -236.425274 
L 454.402548 -236.459595 
L 451.924496 -235.912474 
L 449.446444 -235.561523 
L 446.968391 -235.075122 
L 444.490339 -235.28005 
L 442.012286 -235.266774 
L 439.534234 -235.297905 
L 437.056181 -235.141756 
L 434.578129 -234.353736 
L 432.100076 -233.594316 
L 429.622024 -232.92353 
L 427.143971 -233.174366 
L 424.665919 -233.199257 
L 422.187866 -232.770891 
L 419.709814 -231.932271 
L 417.231761 -231.9213 
L 414.753709 -231.465124 
L 412.275656 -231.33995 
L 409.797604 -231.15457 
L 407.319551 -230.963325 
L 404.841499 -230.159458 
L 402.363446 -228.741929 
L 399.885394 -228.206316 
L 397.407341 -228.554655 
L 394.929289 -228.671175 
L 392.451236 -228.431204 
L 389.973184 -227.855557 
L 387.495131 -227.189943 
L 385.017079 -226.383013 
L 382.539026 -225.703683 
L 380.060974 -225.353902 
L 377.582921 -225.409357 
L 375.104869 -224.797961 
L 372.626816 -223.203147 
L 370.148764 -222.540158 
L 367.670711 -222.482346 
L 365.192659 -221.712077 
L 362.714606 -220.603699 
L 360.236554 -218.400046 
L 357.758501 -216.519958 
L 355.280449 -214.947231 
L 352.802396 -213.7978 
L 350.324344 -212.028571 
L 347.846291 -210.736636 
L 345.368239 -208.897522 
L 342.890186 -207.012689 
L 340.412134 -205.542167 
L 337.934081 -205.00063 
L 335.456029 -203.43807 
L 332.977976 -201.151483 
L 330.499924 -199.309736 
L 328.021871 -198.004688 
L 325.543819 -197.378278 
L 323.065766 -196.469747 
L 320.587714 -195.070548 
L 318.109661 -193.166835 
L 315.631609 -191.188373 
L 313.153556 -189.286021 
L 310.675504 -187.685603 
L 308.197452 -186.316822 
L 305.719399 -184.942061 
L 303.241347 -182.486676 
L 300.763294 -180.292826 
L 298.285242 -178.646164 
L 295.807189 -177.870119 
L 293.329137 -176.93907 
L 290.851084 -174.984547 
L 288.373032 -172.623652 
L 285.894979 -170.565961 
L 283.416927 -169.527324 
L 280.938874 -169.035026 
L 278.460822 -168.525435 
L 275.982769 -166.91764 
L 273.504717 -164.415826 
L 271.026664 -162.732539 
L 268.548612 -162.0005 
L 266.070559 -161.408465 
L 263.592507 -161.499138 
L 261.114454 -159.763336 
L 258.636402 -156.896701 
L 256.158349 -154.910979 
L 253.680297 -154.239314 
L 251.202244 -154.882752 
L 248.724192 -154.574752 
L 246.246139 -152.615796 
L 243.768087 -149.562374 
L 241.290034 -147.478384 
L 238.811982 -146.666201 
L 236.333929 -146.53625 
L 233.855877 -145.718882 
L 231.377824 -143.051472 
L 228.899772 -140.058253 
L 226.421719 -137.994418 
L 223.943667 -136.882801 
L 221.465614 -136.950643 
L 218.987562 -136.936605 
L 216.509509 -135.395937 
L 214.031457 -132.654304 
L 211.553404 -130.461353 
L 209.075352 -130.05512 
L 206.597299 -131.267387 
L 204.119247 -131.78089 
L 201.641194 -129.574987 
L 199.163142 -127.224529 
L 196.685089 -126.113308 
L 194.207037 -126.674948 
L 191.728984 -127.642875 
L 189.250932 -126.989999 
L 186.772879 -125.655038 
L 184.294827 -124.719928 
L 181.816774 -124.338041 
L 179.338722 -122.835379 
L 176.860669 -121.953242 
L 174.382617 -120.327878 
L 171.904564 -119.414081 
L 169.426512 -120.733926 
L 166.948459 -121.183984 
L 164.470407 -119.021821 
L 161.992355 -115.938754 
L 159.514302 -114.076561 
L 157.03625 -113.472378 
L 154.558197 -114.965604 
L 152.080145 -115.684376 
L 149.602092 -113.270658 
L 147.12404 -109.165412 
L 144.645987 -107.106548 
L 142.167935 -108.969348 
L 139.689882 -112.207174 
L 137.21183 -113.323693 
L 134.733777 -111.200558 
L 132.255725 -108.399217 
L 129.777672 -107.022116 
L 127.29962 -106.458553 
L 124.821567 -108.789665 
L 122.343515 -110.080013 
L 119.865462 -106.957573 
L 117.38741 -101.160238 
L 114.909357 -98.845469 
L 112.431305 -99.369838 
L 109.953252 -102.895384 
L 107.4752 -103.689071 
L 104.997147 -99.053065 
L 102.519095 -93.586005 
L 100.041042 -90.664828 
L 97.56299 -90.348145 
L 95.084937 -91.576113 
L 92.606885 -91.432132 
L 90.128832 -88.149231 
L 87.65078 -84.541379 
L 85.172727 -83.240928 
z
" style="stroke: #000000; stroke-opacity: 0.2"/>
    </defs>
    <g clip-path="url(#p8d84ad0e78)">
     <use xlink:href="#m563f014e65" x="0" y="360" style="fill-opacity: 0.2; stroke: #000000; stroke-opacity: 0.2"/>
    </g>
   </g>
   <g id="FillBetweenPolyCollection_2">
    <defs>
     <path id="me127a1b2fe" d="M 85.172727 -83.240928 
L 85.172727 -76.16223 
L 87.65078 -76.204308 
L 90.128832 -77.922882 
L 92.606885 -80.886733 
L 95.084937 -79.75284 
L 97.56299 -77.692468 
L 100.041042 -77.347771 
L 102.519095 -78.059618 
L 104.997147 -79.46869 
L 107.4752 -80.146234 
L 109.953252 -79.081913 
L 112.431305 -80.478538 
L 114.909357 -82.860838 
L 117.38741 -83.272958 
L 119.865462 -83.039791 
L 122.343515 -83.406529 
L 124.821567 -86.35247 
L 127.29962 -89.667662 
L 129.777672 -91.981347 
L 132.255725 -92.663984 
L 134.733777 -90.500682 
L 137.21183 -90.484316 
L 139.689882 -92.58875 
L 142.167935 -95.255449 
L 144.645987 -96.142437 
L 147.12404 -93.972653 
L 149.602092 -90.462971 
L 152.080145 -88.722606 
L 154.558197 -90.324041 
L 157.03625 -93.314355 
L 159.514302 -94.094988 
L 161.992355 -92.3101 
L 164.470407 -89.450151 
L 166.948459 -88.849898 
L 169.426512 -90.01222 
L 171.904564 -92.376235 
L 174.382617 -93.836711 
L 176.860669 -91.994063 
L 179.338722 -90.875095 
L 181.816774 -91.256866 
L 184.294827 -91.790821 
L 186.772879 -91.785796 
L 189.250932 -91.610211 
L 191.728984 -92.174015 
L 194.207037 -94.430866 
L 196.685089 -96.357683 
L 199.163142 -96.237393 
L 201.641194 -94.932387 
L 204.119247 -94.256753 
L 206.597299 -94.888586 
L 209.075352 -96.306696 
L 211.553404 -97.221608 
L 214.031457 -96.213043 
L 216.509509 -94.763784 
L 218.987562 -94.205063 
L 221.465614 -94.173919 
L 223.943667 -94.698385 
L 226.421719 -95.314266 
L 228.899772 -94.513252 
L 231.377824 -94.467057 
L 233.855877 -94.772845 
L 236.333929 -93.844889 
L 238.811982 -93.47858 
L 241.290034 -93.794752 
L 243.768087 -93.903823 
L 246.246139 -94.188757 
L 248.724192 -94.172402 
L 251.202244 -94.18562 
L 253.680297 -95.299778 
L 256.158349 -96.005092 
L 258.636402 -95.558984 
L 261.114454 -94.741344 
L 263.592507 -94.686286 
L 266.070559 -94.878232 
L 268.548612 -95.740158 
L 271.026664 -96.395897 
L 273.504717 -95.812067 
L 275.982769 -95.071212 
L 278.460822 -94.530022 
L 280.938874 -94.507593 
L 283.416927 -95.114823 
L 285.894979 -95.124417 
L 288.373032 -94.747743 
L 290.851084 -94.547076 
L 293.329137 -94.748602 
L 295.807189 -94.288698 
L 298.285242 -94.231373 
L 300.763294 -93.942257 
L 303.241347 -93.848428 
L 305.719399 -93.961682 
L 308.197452 -93.744213 
L 310.675504 -93.409862 
L 313.153556 -94.161387 
L 315.631609 -95.368438 
L 318.109661 -95.135787 
L 320.587714 -93.300854 
L 323.065766 -93.095044 
L 325.543819 -93.473075 
L 328.021871 -95.382616 
L 330.499924 -97.840854 
L 332.977976 -96.712683 
L 335.456029 -95.053482 
L 337.934081 -94.454145 
L 340.412134 -94.872726 
L 342.890186 -96.842665 
L 345.368239 -97.7486 
L 347.846291 -97.236418 
L 350.324344 -95.893446 
L 352.802396 -95.513085 
L 355.280449 -95.904581 
L 357.758501 -96.295966 
L 360.236554 -96.427473 
L 362.714606 -95.352902 
L 365.192659 -95.124221 
L 367.670711 -95.038175 
L 370.148764 -94.404793 
L 372.626816 -93.939217 
L 375.104869 -93.632542 
L 377.582921 -93.777747 
L 380.060974 -94.604698 
L 382.539026 -94.890739 
L 385.017079 -93.820739 
L 387.495131 -93.391662 
L 389.973184 -93.767381 
L 392.451236 -93.473173 
L 394.929289 -94.073697 
L 397.407341 -94.822825 
L 399.885394 -94.176308 
L 402.363446 -93.679429 
L 404.841499 -93.690901 
L 407.319551 -93.880588 
L 409.797604 -94.690099 
L 412.275656 -94.695812 
L 414.753709 -94.181923 
L 417.231761 -95.149483 
L 419.709814 -96.738466 
L 422.187866 -95.628266 
L 424.665919 -94.452101 
L 427.143971 -94.248085 
L 429.622024 -94.289209 
L 432.100076 -95.032349 
L 434.578129 -95.323409 
L 437.056181 -94.316905 
L 439.534234 -93.96333 
L 442.012286 -93.820952 
L 444.490339 -93.944591 
L 446.968391 -95.252711 
L 449.446444 -96.525205 
L 451.924496 -96.193204 
L 454.402548 -94.246522 
L 456.880601 -93.876387 
L 459.358653 -94.404932 
L 461.836706 -96.602423 
L 464.314758 -97.214037 
L 466.792811 -95.47714 
L 469.270863 -93.909081 
L 471.748916 -93.839953 
L 474.226968 -93.813189 
L 476.705021 -94.954787 
L 479.183073 -96.232392 
L 481.661126 -95.39466 
L 484.139178 -94.383729 
L 486.617231 -95.023979 
L 489.095283 -95.206364 
L 491.573336 -95.318652 
L 494.051388 -95.330352 
L 496.529441 -97.585581 
L 499.007493 -102.392637 
L 501.485546 -105.041167 
L 503.963598 -103.026979 
L 506.441651 -99.776946 
L 508.919703 -99.103051 
L 511.397756 -99.060121 
L 513.875808 -100.380084 
L 516.353861 -100.363157 
L 518.831913 -99.571206 
L 521.309966 -100.126069 
L 523.788018 -101.218823 
L 526.266071 -101.739838 
L 528.744123 -101.23988 
L 531.222176 -102.834669 
L 533.700228 -104.340716 
L 536.178281 -105.22905 
L 538.656333 -106.927148 
L 541.134386 -108.461588 
L 543.612438 -110.132607 
L 546.090491 -109.765593 
L 548.568543 -107.402694 
L 551.046596 -107.181017 
L 553.524648 -107.746125 
L 556.002701 -108.448551 
L 558.480753 -110.43386 
L 560.958806 -112.424309 
L 563.436858 -112.457779 
L 565.914911 -113.023013 
L 568.392963 -112.983187 
L 570.871016 -114.549384 
L 573.349068 -116.44082 
L 575.827121 -117.908708 
L 578.305173 -118.41299 
L 580.783226 -118.362503 
L 583.261278 -120.293685 
L 585.739331 -123.617411 
L 588.217383 -127.365682 
L 590.695436 -129.864319 
L 593.173488 -130.765053 
L 595.651541 -130.9964 
L 598.129593 -132.334687 
L 600.607645 -134.278205 
L 603.085698 -137.665558 
L 605.56375 -138.439671 
L 608.041803 -137.301509 
L 610.519855 -136.45651 
L 612.997908 -136.213926 
L 615.47596 -137.485288 
L 617.954013 -139.478198 
L 620.432065 -139.144323 
L 622.910118 -137.033135 
L 625.38817 -134.999749 
L 627.866223 -134.502678 
L 630.344275 -134.992633 
L 632.822328 -135.836707 
L 635.30038 -135.007211 
L 637.778433 -134.384524 
L 640.256485 -134.050445 
L 642.734538 -134.833648 
L 645.21259 -136.197332 
L 647.690643 -137.041426 
L 650.168695 -137.421398 
L 652.646748 -137.542787 
L 655.1248 -138.465461 
L 657.602853 -140.072224 
L 660.080905 -141.001085 
L 662.558958 -141.826883 
L 665.03701 -143.228195 
L 667.515063 -144.519695 
L 669.993115 -146.362341 
L 672.471168 -148.501245 
L 674.94922 -149.270416 
L 677.427273 -149.358192 
L 677.427273 -181.139869 
L 677.427273 -181.139869 
L 674.94922 -179.819368 
L 672.471168 -178.587591 
L 669.993115 -176.960622 
L 667.515063 -175.939381 
L 665.03701 -175.536059 
L 662.558958 -174.401217 
L 660.080905 -173.041163 
L 657.602853 -171.800206 
L 655.1248 -170.226449 
L 652.646748 -169.916684 
L 650.168695 -169.546655 
L 647.690643 -168.092695 
L 645.21259 -166.545424 
L 642.734538 -165.212106 
L 640.256485 -164.257312 
L 637.778433 -164.09499 
L 635.30038 -163.696078 
L 632.822328 -162.504315 
L 630.344275 -160.989058 
L 627.866223 -159.76877 
L 625.38817 -158.873867 
L 622.910118 -158.89298 
L 620.432065 -159.411325 
L 617.954013 -158.265695 
L 615.47596 -156.725049 
L 612.997908 -155.571573 
L 610.519855 -154.859306 
L 608.041803 -154.797364 
L 605.56375 -154.501199 
L 603.085698 -153.608572 
L 600.607645 -152.772681 
L 598.129593 -152.369002 
L 595.651541 -151.61579 
L 593.173488 -151.23798 
L 590.695436 -151.448785 
L 588.217383 -150.982739 
L 585.739331 -151.16629 
L 583.261278 -151.239505 
L 580.783226 -150.351765 
L 578.305173 -149.570036 
L 575.827121 -148.963517 
L 573.349068 -148.534762 
L 570.871016 -147.88639 
L 568.392963 -146.731005 
L 565.914911 -145.414834 
L 563.436858 -145.326783 
L 560.958806 -146.254157 
L 558.480753 -145.157005 
L 556.002701 -144.323312 
L 553.524648 -143.756075 
L 551.046596 -142.653847 
L 548.568543 -141.767903 
L 546.090491 -140.438527 
L 543.612438 -138.773479 
L 541.134386 -137.855849 
L 538.656333 -136.41697 
L 536.178281 -135.391851 
L 533.700228 -134.74644 
L 531.222176 -134.684974 
L 528.744123 -133.523925 
L 526.266071 -132.292188 
L 523.788018 -131.391735 
L 521.309966 -131.730498 
L 518.831913 -133.227747 
L 516.353861 -132.623426 
L 513.875808 -131.153149 
L 511.397756 -129.829273 
L 508.919703 -127.440443 
L 506.441651 -124.842816 
L 503.963598 -122.352399 
L 501.485546 -120.178473 
L 499.007493 -119.217144 
L 496.529441 -119.74739 
L 494.051388 -119.637488 
L 491.573336 -118.579336 
L 489.095283 -117.110317 
L 486.617231 -115.935395 
L 484.139178 -115.664085 
L 481.661126 -115.882951 
L 479.183073 -115.397566 
L 476.705021 -114.201384 
L 474.226968 -113.01648 
L 471.748916 -112.639898 
L 469.270863 -112.118394 
L 466.792811 -111.628099 
L 464.314758 -111.334127 
L 461.836706 -110.47144 
L 459.358653 -109.719752 
L 456.880601 -109.39893 
L 454.402548 -109.623203 
L 451.924496 -110.746579 
L 449.446444 -112.310981 
L 446.968391 -112.596766 
L 444.490339 -111.507153 
L 442.012286 -110.542998 
L 439.534234 -111.458647 
L 437.056181 -114.492868 
L 434.578129 -114.858639 
L 432.100076 -113.464865 
L 429.622024 -110.382709 
L 427.143971 -110.199703 
L 424.665919 -110.690865 
L 422.187866 -111.712541 
L 419.709814 -112.329057 
L 417.231761 -112.517829 
L 414.753709 -111.042586 
L 412.275656 -111.268527 
L 409.797604 -113.704419 
L 407.319551 -117.33853 
L 404.841499 -119.561178 
L 402.363446 -118.373684 
L 399.885394 -116.896048 
L 397.407341 -118.001904 
L 394.929289 -120.08843 
L 392.451236 -123.688903 
L 389.973184 -125.422844 
L 387.495131 -124.747576 
L 385.017079 -122.044227 
L 382.539026 -120.252108 
L 380.060974 -122.101369 
L 377.582921 -126.104396 
L 375.104869 -127.801246 
L 372.626816 -125.691233 
L 370.148764 -124.058403 
L 367.670711 -124.502187 
L 365.192659 -124.87403 
L 362.714606 -126.488004 
L 360.236554 -124.951205 
L 357.758501 -121.91066 
L 355.280449 -119.451842 
L 352.802396 -118.339701 
L 350.324344 -118.117766 
L 347.846291 -117.852192 
L 345.368239 -116.938765 
L 342.890186 -116.104539 
L 340.412134 -116.229539 
L 337.934081 -117.455474 
L 335.456029 -117.214463 
L 332.977976 -115.239397 
L 330.499924 -114.36876 
L 328.021871 -114.975104 
L 325.543819 -116.416151 
L 323.065766 -117.07642 
L 320.587714 -115.956424 
L 318.109661 -114.411471 
L 315.631609 -113.784932 
L 313.153556 -113.7525 
L 310.675504 -114.155388 
L 308.197452 -114.615835 
L 305.719399 -114.844751 
L 303.241347 -113.930138 
L 300.763294 -113.626016 
L 298.285242 -114.265841 
L 295.807189 -115.404521 
L 293.329137 -116.450562 
L 290.851084 -116.255305 
L 288.373032 -115.157766 
L 285.894979 -114.727456 
L 283.416927 -115.028971 
L 280.938874 -116.07226 
L 278.460822 -117.519599 
L 275.982769 -117.222174 
L 273.504717 -114.662725 
L 271.026664 -113.814321 
L 268.548612 -114.764337 
L 266.070559 -116.347061 
L 263.592507 -118.225471 
L 261.114454 -117.143006 
L 258.636402 -115.018724 
L 256.158349 -114.380269 
L 253.680297 -115.846117 
L 251.202244 -118.901959 
L 248.724192 -120.332905 
L 246.246139 -120.060591 
L 243.768087 -117.692228 
L 241.290034 -116.301955 
L 238.811982 -117.268773 
L 236.333929 -119.527274 
L 233.855877 -120.803942 
L 231.377824 -119.374266 
L 228.899772 -116.244676 
L 226.421719 -115.016733 
L 223.943667 -115.329139 
L 221.465614 -117.100006 
L 218.987562 -118.479293 
L 216.509509 -117.636663 
L 214.031457 -115.073612 
L 211.553404 -113.529547 
L 209.075352 -114.337524 
L 206.597299 -117.007325 
L 204.119247 -118.251702 
L 201.641194 -116.042039 
L 199.163142 -113.669402 
L 196.685089 -113.001009 
L 194.207037 -114.138863 
L 191.728984 -115.761723 
L 189.250932 -115.962491 
L 186.772879 -115.387345 
L 184.294827 -115.159174 
L 181.816774 -115.378776 
L 179.338722 -114.437039 
L 176.860669 -113.751542 
L 174.382617 -112.453648 
L 171.904564 -112.432484 
L 169.426512 -114.503298 
L 166.948459 -115.4376 
L 164.470407 -113.604741 
L 161.992355 -110.671226 
L 159.514302 -109.196066 
L 157.03625 -109.320177 
L 154.558197 -111.299996 
L 152.080145 -112.434225 
L 149.602092 -110.239819 
L 147.12404 -106.325506 
L 144.645987 -104.750847 
L 142.167935 -106.546244 
L 139.689882 -110.084062 
L 137.21183 -111.799644 
L 134.733777 -109.618601 
L 132.255725 -106.653014 
L 129.777672 -105.374241 
L 127.29962 -105.223691 
L 124.821567 -108.091144 
L 122.343515 -109.689296 
L 119.865462 -106.536123 
L 117.38741 -100.74841 
L 114.909357 -98.363289 
L 112.431305 -99.362948 
L 109.953252 -103.127887 
L 107.4752 -103.990913 
L 104.997147 -99.420937 
L 102.519095 -93.785351 
L 100.041042 -90.812357 
L 97.56299 -90.517234 
L 95.084937 -91.744196 
L 92.606885 -91.644041 
L 90.128832 -88.291549 
L 87.65078 -84.60058 
L 85.172727 -83.240928 
z
" style="stroke: #a52a2a; stroke-opacity: 0.2"/>
    </defs>
    <g clip-path="url(#p8d84ad0e78)">
     <use xlink:href="#me127a1b2fe" x="0" y="360" style="fill: #a52a2a; fill-opacity: 0.2; stroke: #a52a2a; stroke-opacity: 0.2"/>
    </g>
   </g>
   <g id="FillBetweenPolyCollection_3">
    <defs>
     <path id="m908417bf01" d="M 85.172727 -83.240928 
L 85.172727 -76.16223 
L 87.65078 -76.144857 
L 90.128832 -77.893983 
L 92.606885 -80.944149 
L 95.084937 -79.858504 
L 97.56299 -77.595197 
L 100.041042 -77.101727 
L 102.519095 -77.993272 
L 104.997147 -79.726601 
L 107.4752 -80.723325 
L 109.953252 -78.516043 
L 112.431305 -78.430757 
L 114.909357 -79.619146 
L 117.38741 -80.183336 
L 119.865462 -80.223616 
L 122.343515 -80.594081 
L 124.821567 -82.221535 
L 127.29962 -84.388684 
L 129.777672 -86.216006 
L 132.255725 -86.663188 
L 134.733777 -85.283365 
L 137.21183 -85.610435 
L 139.689882 -86.544359 
L 142.167935 -87.922711 
L 144.645987 -88.493729 
L 147.12404 -87.235742 
L 149.602092 -85.674839 
L 152.080145 -85.326872 
L 154.558197 -86.289104 
L 157.03625 -88.237307 
L 159.514302 -89.36688 
L 161.992355 -89.143448 
L 164.470407 -88.7987 
L 166.948459 -88.852092 
L 169.426512 -88.943177 
L 171.904564 -89.70703 
L 174.382617 -90.232963 
L 176.860669 -90.501645 
L 179.338722 -91.388574 
L 181.816774 -93.002539 
L 184.294827 -93.832287 
L 186.772879 -93.363613 
L 189.250932 -93.796441 
L 191.728984 -95.613834 
L 194.207037 -97.273006 
L 196.685089 -97.201043 
L 199.163142 -96.466922 
L 201.641194 -94.411143 
L 204.119247 -92.67193 
L 206.597299 -92.236185 
L 209.075352 -92.7973 
L 211.553404 -93.079889 
L 214.031457 -91.609859 
L 216.509509 -88.645526 
L 218.987562 -86.96697 
L 221.465614 -86.67659 
L 223.943667 -88.032716 
L 226.421719 -88.669156 
L 228.899772 -86.733201 
L 231.377824 -84.132681 
L 233.855877 -84.779791 
L 236.333929 -85.285398 
L 238.811982 -85.816613 
L 241.290034 -86.359339 
L 243.768087 -85.090185 
L 246.246139 -84.598104 
L 248.724192 -85.114323 
L 251.202244 -85.216167 
L 253.680297 -86.416509 
L 256.158349 -87.352953 
L 258.636402 -86.29445 
L 261.114454 -84.980458 
L 263.592507 -83.900355 
L 266.070559 -84.101887 
L 268.548612 -85.42758 
L 271.026664 -86.072439 
L 273.504717 -84.549641 
L 275.982769 -82.582518 
L 278.460822 -82.103227 
L 280.938874 -82.459159 
L 283.416927 -83.922519 
L 285.894979 -84.876441 
L 288.373032 -83.858125 
L 290.851084 -82.959839 
L 293.329137 -82.995774 
L 295.807189 -82.974673 
L 298.285242 -83.815583 
L 300.763294 -84.164831 
L 303.241347 -83.805879 
L 305.719399 -84.266565 
L 308.197452 -84.567267 
L 310.675504 -84.178092 
L 313.153556 -84.52871 
L 315.631609 -85.245161 
L 318.109661 -85.313512 
L 320.587714 -85.595264 
L 323.065766 -86.259427 
L 325.543819 -86.1586 
L 328.021871 -86.39234 
L 330.499924 -87.33034 
L 332.977976 -87.077313 
L 335.456029 -87.391746 
L 337.934081 -87.357178 
L 340.412134 -86.702744 
L 342.890186 -86.116977 
L 345.368239 -85.502915 
L 347.846291 -85.443694 
L 350.324344 -86.283154 
L 352.802396 -86.72734 
L 355.280449 -84.896856 
L 357.758501 -82.807111 
L 360.236554 -81.569294 
L 362.714606 -81.442692 
L 365.192659 -83.251192 
L 367.670711 -83.851372 
L 370.148764 -82.526913 
L 372.626816 -80.489426 
L 375.104869 -79.644754 
L 377.582921 -80.301213 
L 380.060974 -83.191006 
L 382.539026 -84.210288 
L 385.017079 -81.82561 
L 387.495131 -79.814434 
L 389.973184 -79.569066 
L 392.451236 -79.942591 
L 394.929289 -82.460011 
L 397.407341 -84.131149 
L 399.885394 -82.807737 
L 402.363446 -80.744305 
L 404.841499 -80.058292 
L 407.319551 -81.023629 
L 409.797604 -83.859285 
L 412.275656 -84.534121 
L 414.753709 -82.392724 
L 417.231761 -81.374086 
L 419.709814 -82.211618 
L 422.187866 -81.633054 
L 424.665919 -82.10904 
L 427.143971 -82.652699 
L 429.622024 -81.869105 
L 432.100076 -80.956077 
L 434.578129 -80.910246 
L 437.056181 -80.687955 
L 439.534234 -82.005651 
L 442.012286 -82.578714 
L 444.490339 -81.810059 
L 446.968391 -81.675746 
L 449.446444 -82.764192 
L 451.924496 -82.86461 
L 454.402548 -82.530676 
L 456.880601 -82.640077 
L 459.358653 -82.498405 
L 461.836706 -83.88499 
L 464.314758 -84.651793 
L 466.792811 -83.393925 
L 469.270863 -83.516837 
L 471.748916 -84.226723 
L 474.226968 -83.411198 
L 476.705021 -83.218811 
L 479.183073 -84.215931 
L 481.661126 -83.792033 
L 484.139178 -84.559452 
L 486.617231 -86.588921 
L 489.095283 -86.130812 
L 491.573336 -85.335765 
L 494.051388 -85.651667 
L 496.529441 -89.761307 
L 499.007493 -92.89907 
L 501.485546 -93.692399 
L 503.963598 -93.74177 
L 506.441651 -88.402616 
L 508.919703 -86.633387 
L 511.397756 -86.046077 
L 513.875808 -88.619484 
L 516.353861 -88.099245 
L 518.831913 -86.163826 
L 521.309966 -85.936873 
L 523.788018 -86.977122 
L 526.266071 -87.233418 
L 528.744123 -86.982157 
L 531.222176 -88.764369 
L 533.700228 -90.301714 
L 536.178281 -90.741772 
L 538.656333 -92.501542 
L 541.134386 -94.189698 
L 543.612438 -96.182729 
L 546.090491 -95.408461 
L 548.568543 -91.582656 
L 551.046596 -90.647621 
L 553.524648 -91.017656 
L 556.002701 -91.484154 
L 558.480753 -94.023381 
L 560.958806 -96.324888 
L 563.436858 -95.644181 
L 565.914911 -95.379419 
L 568.392963 -94.596651 
L 570.871016 -96.208019 
L 573.349068 -98.507709 
L 575.827121 -99.934579 
L 578.305173 -99.658993 
L 580.783226 -98.824351 
L 583.261278 -100.539791 
L 585.739331 -104.322709 
L 588.217383 -109.302636 
L 590.695436 -112.361647 
L 593.173488 -112.963017 
L 595.651541 -112.139142 
L 598.129593 -112.854782 
L 600.607645 -115.457366 
L 603.085698 -120.277245 
L 605.56375 -120.606498 
L 608.041803 -118.810213 
L 610.519855 -117.519453 
L 612.997908 -116.043667 
L 615.47596 -116.910253 
L 617.954013 -118.751944 
L 620.432065 -118.268476 
L 622.910118 -115.442186 
L 625.38817 -112.84504 
L 627.866223 -110.955399 
L 630.344275 -110.530109 
L 632.822328 -110.360637 
L 635.30038 -109.408748 
L 637.778433 -107.803979 
L 640.256485 -106.988534 
L 642.734538 -106.657233 
L 645.21259 -106.997184 
L 647.690643 -106.930638 
L 650.168695 -106.266765 
L 652.646748 -106.184163 
L 655.1248 -107.904781 
L 657.602853 -109.690791 
L 660.080905 -109.930353 
L 662.558958 -109.396461 
L 665.03701 -110.136648 
L 667.515063 -112.666703 
L 669.993115 -116.251262 
L 672.471168 -118.384215 
L 674.94922 -118.139448 
L 677.427273 -116.958392 
L 677.427273 -160.263207 
L 677.427273 -160.263207 
L 674.94922 -159.499967 
L 672.471168 -158.579919 
L 669.993115 -156.963361 
L 667.515063 -156.399529 
L 665.03701 -156.698159 
L 662.558958 -156.2402 
L 660.080905 -154.599572 
L 657.602853 -153.578307 
L 655.1248 -152.732398 
L 652.646748 -152.668862 
L 650.168695 -152.660838 
L 647.690643 -151.404198 
L 645.21259 -149.538602 
L 642.734538 -148.34155 
L 640.256485 -148.100976 
L 637.778433 -147.403518 
L 635.30038 -147.141347 
L 632.822328 -147.873083 
L 630.344275 -146.127232 
L 627.866223 -144.635853 
L 625.38817 -142.788035 
L 622.910118 -142.53808 
L 620.432065 -142.705694 
L 617.954013 -140.600991 
L 615.47596 -137.947391 
L 612.997908 -136.156832 
L 610.519855 -134.527381 
L 608.041803 -134.062455 
L 605.56375 -133.130321 
L 603.085698 -131.426777 
L 600.607645 -130.760092 
L 598.129593 -130.412357 
L 595.651541 -129.007175 
L 593.173488 -127.676094 
L 590.695436 -127.346607 
L 588.217383 -127.241403 
L 585.739331 -127.604005 
L 583.261278 -127.921364 
L 580.783226 -126.594957 
L 578.305173 -125.0603 
L 575.827121 -124.266586 
L 573.349068 -123.732303 
L 570.871016 -122.651029 
L 568.392963 -121.500001 
L 565.914911 -119.716618 
L 563.436858 -119.16901 
L 560.958806 -119.155769 
L 558.480753 -118.099374 
L 556.002701 -116.922982 
L 553.524648 -115.698939 
L 551.046596 -114.554036 
L 548.568543 -113.752968 
L 546.090491 -112.25713 
L 543.612438 -110.271152 
L 541.134386 -109.055387 
L 538.656333 -107.684951 
L 536.178281 -107.008367 
L 533.700228 -106.925583 
L 531.222176 -107.566085 
L 528.744123 -106.435603 
L 526.266071 -104.323672 
L 523.788018 -103.143568 
L 521.309966 -103.568135 
L 518.831913 -105.94123 
L 516.353861 -106.110275 
L 513.875808 -104.521565 
L 511.397756 -103.042619 
L 508.919703 -100.768252 
L 506.441651 -98.860214 
L 503.963598 -97.504671 
L 501.485546 -99.021854 
L 499.007493 -96.374225 
L 496.529441 -94.331781 
L 494.051388 -95.618168 
L 491.573336 -94.996953 
L 489.095283 -93.61899 
L 486.617231 -93.045796 
L 484.139178 -93.520472 
L 481.661126 -94.680165 
L 479.183073 -94.911231 
L 476.705021 -94.364462 
L 474.226968 -93.750135 
L 471.748916 -94.295181 
L 469.270863 -94.270945 
L 466.792811 -94.351003 
L 464.314758 -94.762232 
L 461.836706 -94.66502 
L 459.358653 -94.477971 
L 456.880601 -94.494497 
L 454.402548 -95.35344 
L 451.924496 -97.825798 
L 449.446444 -100.32164 
L 446.968391 -100.967011 
L 444.490339 -99.672216 
L 442.012286 -98.607041 
L 439.534234 -99.980126 
L 437.056181 -104.086244 
L 434.578129 -104.90342 
L 432.100076 -103.52104 
L 429.622024 -99.857758 
L 427.143971 -99.757272 
L 424.665919 -100.953447 
L 422.187866 -102.81159 
L 419.709814 -104.020091 
L 417.231761 -104.051227 
L 414.753709 -101.880817 
L 412.275656 -101.578825 
L 409.797604 -104.913494 
L 407.319551 -109.299779 
L 404.841499 -112.058204 
L 402.363446 -110.822526 
L 399.885394 -108.930239 
L 397.407341 -109.958577 
L 394.929289 -112.293015 
L 392.451236 -116.663561 
L 389.973184 -118.774598 
L 387.495131 -117.943473 
L 385.017079 -114.524352 
L 382.539026 -112.220393 
L 380.060974 -114.746256 
L 377.582921 -119.720534 
L 375.104869 -121.89328 
L 372.626816 -119.565288 
L 370.148764 -117.215814 
L 367.670711 -117.400712 
L 365.192659 -118.0786 
L 362.714606 -120.831897 
L 360.236554 -119.66235 
L 357.758501 -115.475142 
L 355.280449 -110.920471 
L 352.802396 -107.758866 
L 350.324344 -107.891341 
L 347.846291 -108.960262 
L 345.368239 -107.924858 
L 342.890186 -105.103434 
L 340.412134 -102.525103 
L 337.934081 -102.686106 
L 335.456029 -102.589606 
L 332.977976 -101.652398 
L 330.499924 -101.628006 
L 328.021871 -100.321583 
L 325.543819 -99.997408 
L 323.065766 -100.280974 
L 320.587714 -99.837218 
L 318.109661 -100.263192 
L 315.631609 -99.727235 
L 313.153556 -98.207814 
L 310.675504 -97.63021 
L 308.197452 -97.853192 
L 305.719399 -98.365703 
L 303.241347 -97.69775 
L 300.763294 -97.511716 
L 298.285242 -97.998859 
L 295.807189 -99.658585 
L 293.329137 -101.113013 
L 290.851084 -100.592736 
L 288.373032 -99.296933 
L 285.894979 -98.887676 
L 283.416927 -99.861686 
L 280.938874 -101.735908 
L 278.460822 -103.700788 
L 275.982769 -103.453484 
L 273.504717 -100.331942 
L 271.026664 -99.409686 
L 268.548612 -100.470626 
L 266.070559 -102.813558 
L 263.592507 -105.239163 
L 261.114454 -103.930042 
L 258.636402 -101.772399 
L 256.158349 -101.434166 
L 253.680297 -103.923309 
L 251.202244 -108.069589 
L 248.724192 -110.439311 
L 246.246139 -111.1166 
L 243.768087 -108.816353 
L 241.290034 -107.346471 
L 238.811982 -109.390782 
L 236.333929 -113.750927 
L 233.855877 -116.904708 
L 231.377824 -116.184914 
L 228.899772 -111.738546 
L 226.421719 -110.608155 
L 223.943667 -112.438088 
L 221.465614 -116.268956 
L 218.987562 -118.888248 
L 216.509509 -118.651302 
L 214.031457 -115.944669 
L 211.553404 -114.824521 
L 209.075352 -116.566278 
L 206.597299 -119.92053 
L 204.119247 -120.651268 
L 201.641194 -117.455322 
L 199.163142 -113.450642 
L 196.685089 -111.444607 
L 194.207037 -109.938446 
L 191.728984 -110.693856 
L 189.250932 -111.588739 
L 186.772879 -109.704161 
L 184.294827 -107.353737 
L 181.816774 -106.619984 
L 179.338722 -106.412735 
L 176.860669 -106.819497 
L 174.382617 -107.899594 
L 171.904564 -107.065786 
L 169.426512 -105.896682 
L 166.948459 -105.681356 
L 164.470407 -104.857419 
L 161.992355 -104.395808 
L 159.514302 -103.894616 
L 157.03625 -103.00322 
L 154.558197 -102.937559 
L 152.080145 -102.986917 
L 149.602092 -101.696037 
L 147.12404 -99.921537 
L 144.645987 -99.579182 
L 142.167935 -99.616531 
L 139.689882 -101.242106 
L 137.21183 -102.420209 
L 134.733777 -100.942685 
L 132.255725 -99.015477 
L 129.777672 -98.086199 
L 127.29962 -98.070247 
L 124.821567 -100.504961 
L 122.343515 -102.000882 
L 119.865462 -99.605199 
L 117.38741 -95.083152 
L 114.909357 -93.513272 
L 112.431305 -94.448606 
L 109.953252 -97.880503 
L 107.4752 -98.951838 
L 104.997147 -95.24124 
L 102.519095 -90.696171 
L 100.041042 -88.466358 
L 97.56299 -88.440541 
L 95.084937 -89.913805 
L 92.606885 -90.211244 
L 90.128832 -87.472879 
L 87.65078 -84.339983 
L 85.172727 -83.240928 
z
" style="stroke: #000080; stroke-opacity: 0.2"/>
    </defs>
    <g clip-path="url(#p8d84ad0e78)">
     <use xlink:href="#m908417bf01" x="0" y="360" style="fill: #000080; fill-opacity: 0.2; stroke: #000080; stroke-opacity: 0.2"/>
    </g>
   </g>
   <g id="line2d_1">
    <path d="M 85.172727 280.298421 
L 87.65078 279.646457 
L 90.128832 277.056546 
L 92.606885 274.024722 
L 95.084937 274.547827 
L 97.56299 276.145722 
L 100.041042 276.147679 
L 102.519095 274.366474 
L 104.997147 270.93081 
L 107.4752 268.310539 
L 109.953252 269.19624 
L 112.431305 270.287027 
L 114.909357 269.484176 
L 117.38741 268.088504 
L 119.865462 265.288646 
L 122.343515 263.510987 
L 124.821567 262.817886 
L 127.29962 262.474499 
L 129.777672 261.045147 
L 132.255725 259.935787 
L 134.733777 259.39637 
L 137.21183 258.165501 
L 139.689882 257.697781 
L 144.645987 257.885618 
L 147.12404 257.668159 
L 149.602092 257.039134 
L 154.558197 255.45487 
L 159.514302 253.520245 
L 161.992355 253.074444 
L 164.470407 252.449085 
L 166.948459 251.392326 
L 171.904564 250.244146 
L 174.382617 249.021674 
L 179.338722 248.047006 
L 181.816774 246.79538 
L 186.772879 245.387299 
L 189.250932 244.671287 
L 194.207037 242.92736 
L 199.163142 241.333341 
L 201.641194 240.394068 
L 204.119247 239.18897 
L 209.075352 238.465417 
L 211.553404 237.444276 
L 214.031457 236.241664 
L 216.509509 234.895677 
L 218.987562 233.927392 
L 221.465614 233.539438 
L 223.943667 232.969899 
L 228.899772 230.587081 
L 233.855877 226.928603 
L 238.811982 225.693131 
L 241.290034 224.577767 
L 243.768087 222.99452 
L 246.246139 221.033477 
L 248.724192 219.6376 
L 253.680297 218.143774 
L 256.158349 216.873124 
L 258.636402 215.387999 
L 261.114454 213.733476 
L 263.592507 212.338626 
L 266.070559 211.761907 
L 271.026664 209.392713 
L 273.504717 208.070686 
L 275.982769 206.511643 
L 278.460822 205.319797 
L 280.938874 204.509472 
L 283.416927 203.42367 
L 288.373032 200.690818 
L 293.329137 197.719851 
L 295.807189 196.800065 
L 298.285242 195.538984 
L 300.763294 194.035377 
L 305.719399 190.72691 
L 310.675504 188.134102 
L 313.153556 186.455335 
L 315.631609 184.633974 
L 318.109661 182.981069 
L 320.587714 182.004441 
L 325.543819 179.870552 
L 328.021871 178.481912 
L 330.499924 176.68559 
L 332.977976 175.370722 
L 335.456029 173.882401 
L 337.934081 172.900604 
L 340.412134 172.188368 
L 345.368239 169.200019 
L 347.846291 167.751462 
L 350.324344 167.014307 
L 355.280449 164.921712 
L 357.758501 163.455609 
L 360.236554 161.743129 
L 362.714606 160.361516 
L 367.670711 159.116968 
L 370.148764 158.817684 
L 372.626816 157.826825 
L 375.104869 156.444526 
L 377.582921 155.683248 
L 380.060974 155.574052 
L 382.539026 155.111367 
L 385.017079 154.472593 
L 389.973184 152.568092 
L 392.451236 151.960774 
L 397.407341 151.46468 
L 399.885394 151.606289 
L 402.363446 150.800891 
L 404.841499 149.68714 
L 407.319551 148.790316 
L 409.797604 148.679183 
L 412.275656 148.455791 
L 414.753709 148.099206 
L 417.231761 147.116824 
L 419.709814 146.355596 
L 422.187866 145.816279 
L 424.665919 145.665822 
L 427.143971 145.738329 
L 429.622024 145.604443 
L 434.578129 143.654684 
L 437.056181 143.187392 
L 442.012286 143.336248 
L 444.490339 143.059702 
L 446.968391 142.482847 
L 449.446444 141.545302 
L 451.924496 141.181669 
L 459.358653 141.336629 
L 461.836706 140.571509 
L 466.792811 139.600504 
L 474.226968 139.616832 
L 476.705021 139.003237 
L 479.183073 138.26366 
L 481.661126 137.692767 
L 484.139178 137.655216 
L 486.617231 137.491088 
L 489.095283 137.458436 
L 491.573336 137.117771 
L 494.051388 136.217185 
L 496.529441 136.297728 
L 499.007493 136.250902 
L 501.485546 136.427504 
L 503.963598 136.818961 
L 506.441651 136.921892 
L 511.397756 135.724706 
L 513.875808 134.8229 
L 516.353861 134.749822 
L 518.831913 134.42811 
L 521.309966 133.780933 
L 523.788018 132.439803 
L 528.744123 131.267962 
L 533.700228 131.419341 
L 536.178281 131.095366 
L 541.134386 129.674678 
L 543.612438 129.315419 
L 546.090491 129.456625 
L 548.568543 129.317556 
L 551.046596 128.868681 
L 553.524648 127.941008 
L 558.480753 126.896495 
L 560.958806 126.523499 
L 563.436858 126.615685 
L 565.914911 126.41696 
L 568.392963 125.671891 
L 573.349068 124.717024 
L 575.827121 124.752603 
L 578.305173 124.421187 
L 580.783226 123.96513 
L 583.261278 122.861704 
L 585.739331 122.271195 
L 590.695436 121.896343 
L 593.173488 122.259838 
L 595.651541 122.199875 
L 598.129593 121.463333 
L 600.607645 120.935825 
L 603.085698 119.984858 
L 605.56375 119.638286 
L 608.041803 120.014474 
L 610.519855 120.096608 
L 612.997908 119.569015 
L 615.47596 118.821289 
L 617.954013 118.388932 
L 620.432065 118.25381 
L 622.910118 118.814535 
L 625.38817 118.948787 
L 627.866223 117.913206 
L 630.344275 117.159289 
L 632.822328 116.719008 
L 637.778433 117.58262 
L 642.734538 117.004895 
L 647.690643 115.695619 
L 652.646748 115.474773 
L 655.1248 115.201136 
L 657.602853 114.079215 
L 662.558958 112.811001 
L 665.03701 112.505383 
L 667.515063 112.619779 
L 669.993115 111.99184 
L 672.471168 110.946573 
L 674.94922 110.628793 
L 677.427273 110.503527 
L 677.427273 110.503527 
" clip-path="url(#p8d84ad0e78)" style="fill: none; stroke: #000000; stroke-width: 1.5; stroke-linecap: round"/>
   </g>
   <g id="line2d_2">
    <path d="M 85.172727 280.298421 
L 87.65078 279.597556 
L 90.128832 276.892784 
L 92.606885 273.734613 
L 95.084937 274.251482 
L 97.56299 275.895149 
L 100.041042 275.919936 
L 102.519095 274.077516 
L 104.997147 270.555187 
L 107.4752 267.931426 
L 109.953252 268.8951 
L 112.431305 270.079257 
L 114.909357 269.387936 
L 117.38741 267.989316 
L 119.865462 265.212043 
L 122.343515 263.452087 
L 124.821567 262.778193 
L 127.29962 262.554324 
L 129.777672 261.322206 
L 132.255725 260.341501 
L 134.733777 259.940359 
L 137.21183 258.85802 
L 139.689882 258.663594 
L 144.645987 259.553358 
L 147.12404 259.850921 
L 154.558197 259.187981 
L 157.03625 258.682734 
L 159.514302 258.354473 
L 161.992355 258.509337 
L 164.470407 258.472554 
L 166.948459 257.856251 
L 171.904564 257.595641 
L 174.382617 256.854821 
L 179.338722 257.343933 
L 181.816774 256.682179 
L 191.728984 256.032131 
L 199.163142 255.046602 
L 201.641194 254.512787 
L 204.119247 253.745773 
L 206.597299 254.052045 
L 209.075352 254.67789 
L 211.553404 254.624423 
L 214.031457 254.356672 
L 216.509509 253.799776 
L 218.987562 253.657822 
L 223.943667 254.986238 
L 228.899772 254.621036 
L 231.377824 253.079339 
L 233.855877 252.211606 
L 236.333929 253.313919 
L 238.811982 254.626324 
L 241.290034 254.951647 
L 243.768087 254.201974 
L 246.246139 252.875326 
L 248.724192 252.747347 
L 251.202244 253.45621 
L 253.680297 254.427053 
L 256.158349 254.80732 
L 258.636402 254.711146 
L 261.114454 254.057825 
L 263.592507 253.544122 
L 266.070559 254.387354 
L 268.548612 254.747753 
L 271.026664 254.894891 
L 273.504717 254.762604 
L 275.982769 253.853307 
L 278.460822 253.975189 
L 280.938874 254.710074 
L 285.894979 255.074063 
L 288.373032 255.047245 
L 290.851084 254.59881 
L 293.329137 254.400418 
L 295.807189 255.153391 
L 298.285242 255.751393 
L 300.763294 256.215864 
L 303.241347 256.110717 
L 305.719399 255.596784 
L 308.197452 255.819976 
L 310.675504 256.217375 
L 313.153556 256.043056 
L 315.631609 255.423315 
L 318.109661 255.226371 
L 320.587714 255.371361 
L 323.065766 254.914268 
L 325.543819 255.055387 
L 328.021871 254.82114 
L 330.499924 253.895193 
L 332.977976 254.02396 
L 335.456029 253.866027 
L 337.934081 254.04519 
L 340.412134 254.448867 
L 345.368239 252.656318 
L 347.846291 252.455695 
L 350.324344 252.994394 
L 352.802396 253.073607 
L 355.280449 252.321788 
L 357.758501 250.896687 
L 360.236554 249.310661 
L 362.714606 249.079547 
L 365.192659 250.000875 
L 367.670711 250.229819 
L 370.148764 250.768402 
L 372.626816 250.184775 
L 375.104869 249.283106 
L 377.582921 250.058929 
L 380.060974 251.646966 
L 382.539026 252.428576 
L 385.017079 252.067517 
L 387.495131 250.930381 
L 389.973184 250.404887 
L 392.451236 251.418962 
L 394.929289 252.918936 
L 397.407341 253.587635 
L 399.885394 254.463822 
L 404.841499 253.373961 
L 407.319551 254.390441 
L 409.797604 255.802741 
L 412.275656 257.01783 
L 414.753709 257.387746 
L 417.231761 256.166344 
L 419.709814 255.466239 
L 422.187866 256.329597 
L 424.665919 257.428517 
L 427.143971 257.776106 
L 429.622024 257.664041 
L 432.100076 255.751393 
L 434.578129 254.908976 
L 437.056181 255.595114 
L 439.534234 257.289012 
L 442.012286 257.818025 
L 444.490339 257.274128 
L 446.968391 256.075261 
L 449.446444 255.581907 
L 451.924496 256.530109 
L 454.402548 258.065137 
L 456.880601 258.362342 
L 459.358653 257.937658 
L 461.836706 256.463068 
L 464.314758 255.725918 
L 466.792811 256.447381 
L 469.270863 256.986262 
L 474.226968 256.585166 
L 479.183073 254.185021 
L 481.661126 254.361195 
L 484.139178 254.976093 
L 486.617231 254.520313 
L 494.051388 252.51608 
L 496.529441 251.333515 
L 499.007493 249.19511 
L 501.485546 247.39018 
L 503.963598 247.310311 
L 506.441651 247.690119 
L 508.919703 246.728253 
L 511.397756 245.555303 
L 513.875808 244.233383 
L 516.353861 243.506709 
L 518.831913 243.600524 
L 521.309966 244.071716 
L 523.788018 243.694721 
L 526.266071 242.983987 
L 528.744123 242.618098 
L 531.222176 241.240178 
L 536.178281 239.689549 
L 543.612438 235.546957 
L 546.090491 234.89794 
L 548.568543 235.414701 
L 551.046596 235.082568 
L 553.524648 234.2489 
L 556.002701 233.614068 
L 558.480753 232.204567 
L 560.958806 230.660767 
L 563.436858 231.107719 
L 565.914911 230.781077 
L 568.392963 230.142904 
L 573.349068 227.512209 
L 575.827121 226.563887 
L 578.305173 226.008487 
L 580.783226 225.642866 
L 583.261278 224.233405 
L 585.739331 222.608149 
L 588.217383 220.825789 
L 590.695436 219.343448 
L 595.651541 218.693905 
L 598.129593 217.648155 
L 600.607645 216.474557 
L 603.085698 214.362935 
L 605.56375 213.529565 
L 610.519855 214.342092 
L 612.997908 214.10725 
L 615.47596 212.894832 
L 617.954013 211.128053 
L 620.432065 210.722176 
L 622.910118 212.036943 
L 625.38817 213.063192 
L 627.866223 212.864276 
L 630.344275 212.009154 
L 632.822328 210.829489 
L 635.30038 210.648355 
L 640.256485 210.846122 
L 642.734538 209.977123 
L 645.21259 208.628622 
L 647.690643 207.43294 
L 650.168695 206.515974 
L 652.646748 206.270264 
L 655.1248 205.654045 
L 657.602853 204.063785 
L 662.558958 201.88595 
L 665.03701 200.617873 
L 667.515063 199.770462 
L 669.993115 198.338519 
L 672.471168 196.455582 
L 674.94922 195.455108 
L 677.427273 194.75097 
L 677.427273 194.75097 
" clip-path="url(#p8d84ad0e78)" style="fill: none; stroke: #a52a2a; stroke-width: 1.5; stroke-linecap: round"/>
   </g>
   <g id="line2d_3">
    <path d="M 85.172727 280.298421 
L 87.65078 279.75758 
L 90.128832 277.316569 
L 92.606885 274.422304 
L 95.084937 275.113845 
L 97.56299 276.982131 
L 100.041042 277.215957 
L 102.519095 275.655278 
L 104.997147 272.516079 
L 107.4752 270.162418 
L 112.431305 273.560319 
L 114.909357 273.433791 
L 117.38741 272.366756 
L 119.865462 270.085592 
L 122.343515 268.702519 
L 124.821567 268.636752 
L 127.29962 268.770535 
L 129.777672 267.848897 
L 132.255725 267.160667 
L 134.733777 266.886975 
L 137.21183 265.984678 
L 142.167935 266.230379 
L 144.645987 265.963545 
L 147.12404 266.42136 
L 149.602092 266.314562 
L 154.558197 265.386668 
L 159.514302 263.369252 
L 164.470407 263.17194 
L 166.948459 262.733276 
L 169.426512 262.58007 
L 171.904564 261.613592 
L 174.382617 260.933722 
L 176.860669 261.339429 
L 179.338722 261.099345 
L 181.816774 260.188738 
L 184.294827 259.406988 
L 186.772879 258.466113 
L 189.250932 257.30741 
L 194.207037 256.394274 
L 199.163142 255.041218 
L 201.641194 254.066768 
L 204.119247 253.338401 
L 206.597299 253.921642 
L 209.075352 255.318211 
L 211.553404 256.047795 
L 216.509509 256.351586 
L 218.987562 257.072391 
L 221.465614 258.527227 
L 223.943667 259.764598 
L 226.421719 260.361344 
L 228.899772 260.764127 
L 231.377824 259.841203 
L 233.855877 259.15775 
L 236.333929 260.481838 
L 238.811982 262.396302 
L 241.290034 263.147095 
L 243.768087 263.046731 
L 246.246139 262.142648 
L 248.724192 262.223183 
L 251.202244 263.357122 
L 253.680297 264.830091 
L 256.158349 265.606441 
L 258.636402 265.966575 
L 261.114454 265.54475 
L 263.592507 265.430241 
L 266.070559 266.542278 
L 268.548612 267.050897 
L 273.504717 267.559208 
L 275.982769 266.981999 
L 278.460822 267.097993 
L 280.938874 267.902467 
L 283.416927 268.107897 
L 285.894979 268.117942 
L 288.373032 268.422471 
L 293.329137 267.945606 
L 295.807189 268.683371 
L 298.285242 269.092779 
L 303.241347 269.248185 
L 305.719399 268.683866 
L 308.197452 268.789771 
L 310.675504 269.095849 
L 313.153556 268.631738 
L 315.631609 267.513802 
L 318.109661 267.211648 
L 320.587714 267.283759 
L 323.065766 266.729799 
L 325.543819 266.921996 
L 328.021871 266.643039 
L 330.499924 265.520827 
L 332.977976 265.635144 
L 335.456029 265.009324 
L 337.934081 264.978358 
L 340.412134 265.386077 
L 345.368239 263.286114 
L 347.846291 262.798022 
L 350.324344 262.912752 
L 352.802396 262.756897 
L 355.280449 262.091337 
L 357.758501 260.858874 
L 360.236554 259.384178 
L 362.714606 258.862705 
L 365.192659 259.335104 
L 367.670711 259.373958 
L 370.148764 260.128637 
L 372.626816 259.972643 
L 375.104869 259.230983 
L 377.582921 259.989126 
L 380.060974 261.031369 
L 382.539026 261.784659 
L 385.017079 261.825019 
L 387.495131 261.121046 
L 389.973184 260.828168 
L 394.929289 262.623487 
L 397.407341 262.955137 
L 399.885394 264.131012 
L 402.363446 264.216584 
L 404.841499 263.941752 
L 407.319551 264.838296 
L 409.797604 265.61361 
L 412.275656 266.943527 
L 414.753709 267.86323 
L 417.231761 267.287343 
L 419.709814 266.884146 
L 422.187866 267.777678 
L 424.665919 268.468756 
L 429.622024 269.136568 
L 432.100076 267.761442 
L 434.578129 267.093167 
L 437.056181 267.6129 
L 439.534234 269.007111 
L 442.012286 269.407122 
L 444.490339 269.258862 
L 446.968391 268.678621 
L 449.446444 268.457084 
L 451.924496 269.654796 
L 454.402548 271.057942 
L 456.880601 271.432713 
L 459.358653 271.511812 
L 461.836706 270.724995 
L 464.314758 270.292987 
L 466.792811 271.127536 
L 469.270863 271.106109 
L 471.748916 270.739048 
L 474.226968 271.419333 
L 476.705021 271.208364 
L 479.183073 270.436419 
L 481.661126 270.763901 
L 484.139178 270.960038 
L 486.617231 270.182642 
L 489.095283 270.125099 
L 491.573336 269.833641 
L 494.051388 269.365083 
L 496.529441 267.953456 
L 499.007493 265.363353 
L 501.485546 263.642874 
L 503.963598 264.376779 
L 506.441651 266.368585 
L 508.919703 266.299181 
L 511.397756 265.455652 
L 513.875808 263.429476 
L 516.353861 262.89524 
L 518.831913 263.947472 
L 521.309966 265.247496 
L 523.788018 264.939655 
L 526.266071 264.221455 
L 528.744123 263.29112 
L 531.222176 261.834773 
L 533.700228 261.386352 
L 536.178281 261.12493 
L 538.656333 259.906753 
L 543.612438 256.773059 
L 546.090491 256.167205 
L 548.568543 257.332188 
L 551.046596 257.399171 
L 556.002701 255.796432 
L 558.480753 253.938623 
L 560.958806 252.259672 
L 563.436858 252.593405 
L 565.914911 252.451981 
L 568.392963 251.951674 
L 570.871016 250.570476 
L 573.349068 248.879994 
L 575.827121 247.899417 
L 580.783226 247.290346 
L 583.261278 245.769423 
L 585.739331 244.036643 
L 588.217383 241.727981 
L 590.695436 240.145873 
L 593.173488 239.680445 
L 595.651541 239.426842 
L 598.129593 238.36643 
L 600.607645 236.891271 
L 603.085698 234.147989 
L 605.56375 233.131591 
L 610.519855 233.976583 
L 612.997908 233.89975 
L 615.47596 232.571178 
L 617.954013 230.323533 
L 620.432065 229.512915 
L 622.910118 231.009867 
L 625.38817 232.183462 
L 627.866223 232.204374 
L 630.344275 231.67133 
L 632.822328 230.88314 
L 635.30038 231.724953 
L 637.778433 232.396252 
L 642.734538 232.500609 
L 645.21259 231.732107 
L 647.690643 230.832582 
L 650.168695 230.536199 
L 652.646748 230.573488 
L 655.1248 229.681411 
L 657.602853 228.365451 
L 665.03701 226.582597 
L 667.515063 225.466884 
L 669.993115 223.392688 
L 672.471168 221.517933 
L 674.94922 221.180293 
L 677.427273 221.389201 
L 677.427273 221.389201 
" clip-path="url(#p8d84ad0e78)" style="fill: none; stroke: #000080; stroke-width: 1.5; stroke-linecap: round"/>
   </g>
   <g id="patch_3">
    <path d="M 55.56 310.98 
L 55.56 28.08 
" style="fill: none; stroke: #ffffff; stroke-width: 1.25; stroke-linejoin: miter; stroke-linecap: square"/>
   </g>
   <g id="patch_4">
    <path d="M 707.04 310.98 
L 707.04 28.08 
" style="fill: none; stroke: #ffffff; stroke-width: 1.25; stroke-linejoin: miter; stroke-linecap: square"/>
   </g>
   <g id="patch_5">
    <path d="M 55.56 310.98 
L 707.04 310.98 
" style="fill: none; stroke: #ffffff; stroke-width: 1.25; stroke-linejoin: miter; stroke-linecap: square"/>
   </g>
   <g id="patch_6">
    <path d="M 55.56 28.08 
L 707.04 28.08 
" style="fill: none; stroke: #ffffff; stroke-width: 1.25; stroke-linejoin: miter; stroke-linecap: square"/>
   </g>
   <g id="text_18">
    <!-- eNATL60 -->
    <g style="fill: #262626" transform="translate(354.837188 22.08) scale(0.12 -0.12)">
     <defs>
      <path id="DejaVuSans-4e" d="M 628 4666 
L 1478 4666 
L 3547 763 
L 3547 4666 
L 4159 4666 
L 4159 0 
L 3309 0 
L 1241 3903 
L 1241 0 
L 628 0 
L 628 4666 
z
" transform="scale(0.015625)"/>
      <path id="DejaVuSans-41" d="M 2188 4044 
L 1331 1722 
L 3047 1722 
L 2188 4044 
z
M 1831 4666 
L 2547 4666 
L 4325 0 
L 3669 0 
L 3244 1197 
L 1141 1197 
L 716 0 
L 50 0 
L 1831 4666 
z
" transform="scale(0.015625)"/>
      <path id="DejaVuSans-4c" d="M 628 4666 
L 1259 4666 
L 1259 531 
L 3531 531 
L 3531 0 
L 628 0 
L 628 4666 
z
" transform="scale(0.015625)"/>
     </defs>
     <use xlink:href="#DejaVuSans-65"/>
     <use xlink:href="#DejaVuSans-4e" transform="translate(61.523438 0)"/>
     <use xlink:href="#DejaVuSans-41" transform="translate(136.328125 0)"/>
     <use xlink:href="#DejaVuSans-54" transform="translate(196.986328 0)"/>
     <use xlink:href="#DejaVuSans-4c" transform="translate(258.070312 0)"/>
     <use xlink:href="#DejaVuSans-36" transform="translate(313.783203 0)"/>
     <use xlink:href="#DejaVuSans-30" transform="translate(377.40625 0)"/>
    </g>
   </g>
   <g id="legend_1">
    <g id="patch_7">
     <path d="M 572.797031 85.317813 
L 699.34 85.317813 
Q 701.54 85.317813 701.54 83.117813 
L 701.54 35.78 
Q 701.54 33.58 699.34 33.58 
L 572.797031 33.58 
Q 570.597031 33.58 570.597031 35.78 
L 570.597031 83.117813 
Q 570.597031 85.317813 572.797031 85.317813 
z
" style="fill: #eaeaf2; opacity: 0.8; stroke: #cccccc; stroke-linejoin: miter"/>
    </g>
    <g id="line2d_4">
     <path d="M 574.997031 42.488281 
L 585.997031 42.488281 
L 596.997031 42.488281 
" style="fill: none; stroke: #000000; stroke-width: 1.5; stroke-linecap: round"/>
    </g>
    <g id="text_19">
     <!-- Reduced Gravity -->
     <g style="fill: #262626" transform="translate(605.797031 46.338281) scale(0.11 -0.11)">
      <defs>
       <path id="DejaVuSans-75" d="M 544 1381 
L 544 3500 
L 1119 3500 
L 1119 1403 
Q 1119 906 1312 657 
Q 1506 409 1894 409 
Q 2359 409 2629 706 
Q 2900 1003 2900 1516 
L 2900 3500 
L 3475 3500 
L 3475 0 
L 2900 0 
L 2900 538 
Q 2691 219 2414 64 
Q 2138 -91 1772 -91 
Q 1169 -91 856 284 
Q 544 659 544 1381 
z
M 1991 3584 
L 1991 3584 
z
" transform="scale(0.015625)"/>
       <path id="DejaVuSans-63" d="M 3122 3366 
L 3122 2828 
Q 2878 2963 2633 3030 
Q 2388 3097 2138 3097 
Q 1578 3097 1268 2742 
Q 959 2388 959 1747 
Q 959 1106 1268 751 
Q 1578 397 2138 397 
Q 2388 397 2633 464 
Q 2878 531 3122 666 
L 3122 134 
Q 2881 22 2623 -34 
Q 2366 -91 2075 -91 
Q 1284 -91 818 406 
Q 353 903 353 1747 
Q 353 2603 823 3093 
Q 1294 3584 2113 3584 
Q 2378 3584 2631 3529 
Q 2884 3475 3122 3366 
z
" transform="scale(0.015625)"/>
       <path id="DejaVuSans-47" d="M 3809 666 
L 3809 1919 
L 2778 1919 
L 2778 2438 
L 4434 2438 
L 4434 434 
Q 4069 175 3628 42 
Q 3188 -91 2688 -91 
Q 1594 -91 976 548 
Q 359 1188 359 2328 
Q 359 3472 976 4111 
Q 1594 4750 2688 4750 
Q 3144 4750 3555 4637 
Q 3966 4525 4313 4306 
L 4313 3634 
Q 3963 3931 3569 4081 
Q 3175 4231 2741 4231 
Q 1884 4231 1454 3753 
Q 1025 3275 1025 2328 
Q 1025 1384 1454 906 
Q 1884 428 2741 428 
Q 3075 428 3337 486 
Q 3600 544 3809 666 
z
" transform="scale(0.015625)"/>
       <path id="DejaVuSans-72" d="M 2631 2963 
Q 2534 3019 2420 3045 
Q 2306 3072 2169 3072 
Q 1681 3072 1420 2755 
Q 1159 2438 1159 1844 
L 1159 0 
L 581 0 
L 581 3500 
L 1159 3500 
L 1159 2956 
Q 1341 3275 1631 3429 
Q 1922 3584 2338 3584 
Q 2397 3584 2469 3576 
Q 2541 3569 2628 3553 
L 2631 2963 
z
" transform="scale(0.015625)"/>
       <path id="DejaVuSans-76" d="M 191 3500 
L 800 3500 
L 1894 563 
L 2988 3500 
L 3597 3500 
L 2284 0 
L 1503 0 
L 191 3500 
z
" transform="scale(0.015625)"/>
       <path id="DejaVuSans-74" d="M 1172 4494 
L 1172 3500 
L 2356 3500 
L 2356 3053 
L 1172 3053 
L 1172 1153 
Q 1172 725 1289 603 
Q 1406 481 1766 481 
L 2356 481 
L 2356 0 
L 1766 0 
Q 1100 0 847 248 
Q 594 497 594 1153 
L 594 3053 
L 172 3053 
L 172 3500 
L 594 3500 
L 594 4494 
L 1172 4494 
z
" transform="scale(0.015625)"/>
      </defs>
      <use xlink:href="#DejaVuSans-52"/>
      <use xlink:href="#DejaVuSans-65" transform="translate(64.982422 0)"/>
      <use xlink:href="#DejaVuSans-64" transform="translate(126.505859 0)"/>
      <use xlink:href="#DejaVuSans-75" transform="translate(189.982422 0)"/>
      <use xlink:href="#DejaVuSans-63" transform="translate(253.361328 0)"/>
      <use xlink:href="#DejaVuSans-65" transform="translate(308.341797 0)"/>
      <use xlink:href="#DejaVuSans-64" transform="translate(369.865234 0)"/>
      <use xlink:href="#DejaVuSans-20" transform="translate(433.341797 0)"/>
      <use xlink:href="#DejaVuSans-47" transform="translate(465.128906 0)"/>
      <use xlink:href="#DejaVuSans-72" transform="translate(542.619141 0)"/>
      <use xlink:href="#DejaVuSans-61" transform="translate(583.732422 0)"/>
      <use xlink:href="#DejaVuSans-76" transform="translate(645.011719 0)"/>
      <use xlink:href="#DejaVuSans-69" transform="translate(704.191406 0)"/>
      <use xlink:href="#DejaVuSans-74" transform="translate(731.974609 0)"/>
      <use xlink:href="#DejaVuSans-79" transform="translate(771.183594 0)"/>
     </g>
    </g>
    <g id="line2d_5">
     <path d="M 574.997031 58.634219 
L 585.997031 58.634219 
L 596.997031 58.634219 
" style="fill: none; stroke: #a52a2a; stroke-width: 1.5; stroke-linecap: round"/>
    </g>
    <g id="text_20">
     <!-- VarDyn -->
     <g style="fill: #262626" transform="translate(605.797031 62.484219) scale(0.11 -0.11)">
      <defs>
       <path id="DejaVuSans-56" d="M 1831 0 
L 50 4666 
L 709 4666 
L 2188 738 
L 3669 4666 
L 4325 4666 
L 2547 0 
L 1831 0 
z
" transform="scale(0.015625)"/>
       <path id="DejaVuSans-44" d="M 1259 4147 
L 1259 519 
L 2022 519 
Q 2988 519 3436 956 
Q 3884 1394 3884 2338 
Q 3884 3275 3436 3711 
Q 2988 4147 2022 4147 
L 1259 4147 
z
M 628 4666 
L 1925 4666 
Q 3281 4666 3915 4102 
Q 4550 3538 4550 2338 
Q 4550 1131 3912 565 
Q 3275 0 1925 0 
L 628 0 
L 628 4666 
z
" transform="scale(0.015625)"/>
      </defs>
      <use xlink:href="#DejaVuSans-56"/>
      <use xlink:href="#DejaVuSans-61" transform="translate(60.658203 0)"/>
      <use xlink:href="#DejaVuSans-72" transform="translate(121.9375 0)"/>
      <use xlink:href="#DejaVuSans-44" transform="translate(163.050781 0)"/>
      <use xlink:href="#DejaVuSans-79" transform="translate(240.052734 0)"/>
      <use xlink:href="#DejaVuSans-6e" transform="translate(299.232422 0)"/>
     </g>
    </g>
    <g id="line2d_6">
     <path d="M 574.997031 74.780156 
L 585.997031 74.780156 
L 596.997031 74.780156 
" style="fill: none; stroke: #000080; stroke-width: 1.5; stroke-linecap: round"/>
    </g>
    <g id="text_21">
     <!-- SurfML -->
     <g style="fill: #262626" transform="translate(605.797031 78.630156) scale(0.11 -0.11)">
      <defs>
       <path id="DejaVuSans-66" d="M 2375 4863 
L 2375 4384 
L 1825 4384 
Q 1516 4384 1395 4259 
Q 1275 4134 1275 3809 
L 1275 3500 
L 2222 3500 
L 2222 3053 
L 1275 3053 
L 1275 0 
L 697 0 
L 697 3053 
L 147 3053 
L 147 3500 
L 697 3500 
L 697 3744 
Q 697 4328 969 4595 
Q 1241 4863 1831 4863 
L 2375 4863 
z
" transform="scale(0.015625)"/>
      </defs>
      <use xlink:href="#DejaVuSans-53"/>
      <use xlink:href="#DejaVuSans-75" transform="translate(63.476562 0)"/>
      <use xlink:href="#DejaVuSans-72" transform="translate(126.855469 0)"/>
      <use xlink:href="#DejaVuSans-66" transform="translate(167.96875 0)"/>
      <use xlink:href="#DejaVuSans-4d" transform="translate(203.173828 0)"/>
      <use xlink:href="#DejaVuSans-4c" transform="translate(289.453125 0)"/>
     </g>
    </g>
   </g>
  </g>
 </g>
 <defs>
  <clipPath id="p8d84ad0e78">
   <rect x="55.56" y="28.08" width="651.48" height="282.9"/>
  </clipPath>
 </defs>
</svg>
