<?xml version="1.0" encoding="utf-8" standalone="no"?>
<!DOCTYPE svg PUBLIC "-//W3C//DTD SVG 1.1//EN"
  "http://www.w3.org/Graphics/SVG/1.1/DTD/svg11.dtd">
<svg xmlns:xlink="http://www.w3.org/1999/xlink" width="720pt" height="360pt" viewBox="0 0 720 360" xmlns="http://www.w3.org/2000/svg" version="1.1">
 <metadata>
  <rdf:RDF xmlns:dc="http://purl.org/dc/elements/1.1/" xmlns:cc="http://creativecommons.org/ns#" xmlns:rdf="http://www.w3.org/1999/02/22-rdf-syntax-ns#">
   <cc:Work>
    <dc:type rdf:resource="http://purl.org/dc/dcmitype/StillImage"/>
    <dc:date>2026-03-19T09:49:41.635387</dc:date>
    <dc:format>image/svg+xml</dc:format>
    <dc:creator>
     <cc:Agent>
      <dc:title>Matplotlib v3.10.6, https://matplotlib.org/</dc:title>
     </cc:Agent>
    </dc:creator>
   </cc:Work>
  </rdf:RDF>
 </metadata>
 <defs>
  <style type="text/css">*{stroke-linejoin: round; stroke-linecap: butt}</style>
 </defs>
 <g id="figure_1">
  <g id="patch_1">
   <path d="M 0 360 
L 720 360 
L 720 0 
L 0 0 
z
" style="fill: #ffffff"/>
  </g>
  <g id="axes_1">
   <g id="patch_2">
    <path d="M 55.56 310.98 
L 707.04 310.98 
L 707.04 28.08 
L 55.56 28.08 
z
" style="fill: #eaeaf2"/>
   </g>
   <g id="matplotlib.axis_1">
    <g id="xtick_1">
     <g id="text_1">
      <!-- 0.0 -->
      <g style="fill: #262626" transform="translate(76.426009 328.838281) scale(0.11 -0.11)">
       <defs>
        <path id="DejaVuSans-30" d="M 2034 4250 
Q 1547 4250 1301 3770 
Q 1056 3291 1056 2328 
Q 1056 1369 1301 889 
Q 1547 409 2034 409 
Q 2525 409 2770 889 
Q 3016 1369 3016 2328 
Q 3016 3291 2770 3770 
Q 2525 4250 2034 4250 
z
M 2034 4750 
Q 2819 4750 3233 4129 
Q 3647 3509 3647 2328 
Q 3647 1150 3233 529 
Q 2819 -91 2034 -91 
Q 1250 -91 836 529 
Q 422 1150 422 2328 
Q 422 3509 836 4129 
Q 1250 4750 2034 4750 
z
" transform="scale(0.015625)"/>
        <path id="DejaVuSans-2e" d="M 684 794 
L 1344 794 
L 1344 0 
L 684 0 
L 684 794 
z
" transform="scale(0.015625)"/>
       </defs>
       <use xlink:href="#DejaVuSans-30"/>
       <use xlink:href="#DejaVuSans-2e" transform="translate(63.623047 0)"/>
       <use xlink:href="#DejaVuSans-30" transform="translate(95.410156 0)"/>
      </g>
     </g>
    </g>
    <g id="xtick_2">
     <g id="text_2">
      <!-- 2.5 -->
      <g style="fill: #262626" transform="translate(150.767583 328.838281) scale(0.11 -0.11)">
       <defs>
        <path id="DejaVuSans-32" d="M 1228 531 
L 3431 531 
L 3431 0 
L 469 0 
L 469 531 
Q 828 903 1448 1529 
Q 2069 2156 2228 2338 
Q 2531 2678 2651 2914 
Q 2772 3150 2772 3378 
Q 2772 3750 2511 3984 
Q 2250 4219 1831 4219 
Q 1534 4219 1204 4116 
Q 875 4013 500 3803 
L 500 4441 
Q 881 4594 1212 4672 
Q 1544 4750 1819 4750 
Q 2544 4750 2975 4387 
Q 3406 4025 3406 3419 
Q 3406 3131 3298 2873 
Q 3191 2616 2906 2266 
Q 2828 2175 2409 1742 
Q 1991 1309 1228 531 
z
" transform="scale(0.015625)"/>
        <path id="DejaVuSans-35" d="M 691 4666 
L 3169 4666 
L 3169 4134 
L 1269 4134 
L 1269 2991 
Q 1406 3038 1543 3061 
Q 1681 3084 1819 3084 
Q 2600 3084 3056 2656 
Q 3513 2228 3513 1497 
Q 3513 744 3044 326 
Q 2575 -91 1722 -91 
Q 1428 -91 1123 -41 
Q 819 9 494 109 
L 494 744 
Q 775 591 1075 516 
Q 1375 441 1709 441 
Q 2250 441 2565 725 
Q 2881 1009 2881 1497 
Q 2881 1984 2565 2268 
Q 2250 2553 1709 2553 
Q 1456 2553 1204 2497 
Q 953 2441 691 2322 
L 691 4666 
z
" transform="scale(0.015625)"/>
       </defs>
       <use xlink:href="#DejaVuSans-32"/>
       <use xlink:href="#DejaVuSans-2e" transform="translate(63.623047 0)"/>
       <use xlink:href="#DejaVuSans-35" transform="translate(95.410156 0)"/>
      </g>
     </g>
    </g>
    <g id="xtick_3">
     <g id="text_3">
      <!-- 5.0 -->
      <g style="fill: #262626" transform="translate(225.109158 328.838281) scale(0.11 -0.11)">
       <use xlink:href="#DejaVuSans-35"/>
       <use xlink:href="#DejaVuSans-2e" transform="translate(63.623047 0)"/>
       <use xlink:href="#DejaVuSans-30" transform="translate(95.410156 0)"/>
      </g>
     </g>
    </g>
    <g id="xtick_4">
     <g id="text_4">
      <!-- 7.5 -->
      <g style="fill: #262626" transform="translate(299.450733 328.838281) scale(0.11 -0.11)">
       <defs>
        <path id="DejaVuSans-37" d="M 525 4666 
L 3525 4666 
L 3525 4397 
L 1831 0 
L 1172 0 
L 2766 4134 
L 525 4134 
L 525 4666 
z
" transform="scale(0.015625)"/>
       </defs>
       <use xlink:href="#DejaVuSans-37"/>
       <use xlink:href="#DejaVuSans-2e" transform="translate(63.623047 0)"/>
       <use xlink:href="#DejaVuSans-35" transform="translate(95.410156 0)"/>
      </g>
     </g>
    </g>
    <g id="xtick_5">
     <g id="text_5">
      <!-- 10.0 -->
      <g style="fill: #262626" transform="translate(370.292932 328.838281) scale(0.11 -0.11)">
       <defs>
        <path id="DejaVuSans-31" d="M 794 531 
L 1825 531 
L 1825 4091 
L 703 3866 
L 703 4441 
L 1819 4666 
L 2450 4666 
L 2450 531 
L 3481 531 
L 3481 0 
L 794 0 
L 794 531 
z
" transform="scale(0.015625)"/>
       </defs>
       <use xlink:href="#DejaVuSans-31"/>
       <use xlink:href="#DejaVuSans-30" transform="translate(63.623047 0)"/>
       <use xlink:href="#DejaVuSans-2e" transform="translate(127.246094 0)"/>
       <use xlink:href="#DejaVuSans-30" transform="translate(159.033203 0)"/>
      </g>
     </g>
    </g>
    <g id="xtick_6">
     <g id="text_6">
      <!-- 12.5 -->
      <g style="fill: #262626" transform="translate(444.634507 328.838281) scale(0.11 -0.11)">
       <use xlink:href="#DejaVuSans-31"/>
       <use xlink:href="#DejaVuSans-32" transform="translate(63.623047 0)"/>
       <use xlink:href="#DejaVuSans-2e" transform="translate(127.246094 0)"/>
       <use xlink:href="#DejaVuSans-35" transform="translate(159.033203 0)"/>
      </g>
     </g>
    </g>
    <g id="xtick_7">
     <g id="text_7">
      <!-- 15.0 -->
      <g style="fill: #262626" transform="translate(518.976082 328.838281) scale(0.11 -0.11)">
       <use xlink:href="#DejaVuSans-31"/>
       <use xlink:href="#DejaVuSans-35" transform="translate(63.623047 0)"/>
       <use xlink:href="#DejaVuSans-2e" transform="translate(127.246094 0)"/>
       <use xlink:href="#DejaVuSans-30" transform="translate(159.033203 0)"/>
      </g>
     </g>
    </g>
    <g id="xtick_8">
     <g id="text_8">
      <!-- 17.5 -->
      <g style="fill: #262626" transform="translate(593.317657 328.838281) scale(0.11 -0.11)">
       <use xlink:href="#DejaVuSans-31"/>
       <use xlink:href="#DejaVuSans-37" transform="translate(63.623047 0)"/>
       <use xlink:href="#DejaVuSans-2e" transform="translate(127.246094 0)"/>
       <use xlink:href="#DejaVuSans-35" transform="translate(159.033203 0)"/>
      </g>
     </g>
    </g>
    <g id="xtick_9">
     <g id="text_9">
      <!-- 20.0 -->
      <g style="fill: #262626" transform="translate(667.659231 328.838281) scale(0.11 -0.11)">
       <use xlink:href="#DejaVuSans-32"/>
       <use xlink:href="#DejaVuSans-30" transform="translate(63.623047 0)"/>
       <use xlink:href="#DejaVuSans-2e" transform="translate(127.246094 0)"/>
       <use xlink:href="#DejaVuSans-30" transform="translate(159.033203 0)"/>
      </g>
     </g>
    </g>
    <g id="text_10">
     <!-- Time [days] -->
     <g style="fill: #262626" transform="translate(345.868125 344.244062) scale(0.12 -0.12)">
      <defs>
       <path id="DejaVuSans-54" d="M -19 4666 
L 3928 4666 
L 3928 4134 
L 2272 4134 
L 2272 0 
L 1638 0 
L 1638 4134 
L -19 4134 
L -19 4666 
z
" transform="scale(0.015625)"/>
       <path id="DejaVuSans-69" d="M 603 3500 
L 1178 3500 
L 1178 0 
L 603 0 
L 603 3500 
z
M 603 4863 
L 1178 4863 
L 1178 4134 
L 603 4134 
L 603 4863 
z
" transform="scale(0.015625)"/>
       <path id="DejaVuSans-6d" d="M 3328 2828 
Q 3544 3216 3844 3400 
Q 4144 3584 4550 3584 
Q 5097 3584 5394 3201 
Q 5691 2819 5691 2113 
L 5691 0 
L 5113 0 
L 5113 2094 
Q 5113 2597 4934 2840 
Q 4756 3084 4391 3084 
Q 3944 3084 3684 2787 
Q 3425 2491 3425 1978 
L 3425 0 
L 2847 0 
L 2847 2094 
Q 2847 2600 2669 2842 
Q 2491 3084 2119 3084 
Q 1678 3084 1418 2786 
Q 1159 2488 1159 1978 
L 1159 0 
L 581 0 
L 581 3500 
L 1159 3500 
L 1159 2956 
Q 1356 3278 1631 3431 
Q 1906 3584 2284 3584 
Q 2666 3584 2933 3390 
Q 3200 3197 3328 2828 
z
" transform="scale(0.015625)"/>
       <path id="DejaVuSans-65" d="M 3597 1894 
L 3597 1613 
L 953 1613 
Q 991 1019 1311 708 
Q 1631 397 2203 397 
Q 2534 397 2845 478 
Q 3156 559 3463 722 
L 3463 178 
Q 3153 47 2828 -22 
Q 2503 -91 2169 -91 
Q 1331 -91 842 396 
Q 353 884 353 1716 
Q 353 2575 817 3079 
Q 1281 3584 2069 3584 
Q 2775 3584 3186 3129 
Q 3597 2675 3597 1894 
z
M 3022 2063 
Q 3016 2534 2758 2815 
Q 2500 3097 2075 3097 
Q 1594 3097 1305 2825 
Q 1016 2553 972 2059 
L 3022 2063 
z
" transform="scale(0.015625)"/>
       <path id="DejaVuSans-20" transform="scale(0.015625)"/>
       <path id="DejaVuSans-5b" d="M 550 4863 
L 1875 4863 
L 1875 4416 
L 1125 4416 
L 1125 -397 
L 1875 -397 
L 1875 -844 
L 550 -844 
L 550 4863 
z
" transform="scale(0.015625)"/>
       <path id="DejaVuSans-64" d="M 2906 2969 
L 2906 4863 
L 3481 4863 
L 3481 0 
L 2906 0 
L 2906 525 
Q 2725 213 2448 61 
Q 2172 -91 1784 -91 
Q 1150 -91 751 415 
Q 353 922 353 1747 
Q 353 2572 751 3078 
Q 1150 3584 1784 3584 
Q 2172 3584 2448 3432 
Q 2725 3281 2906 2969 
z
M 947 1747 
Q 947 1113 1208 752 
Q 1469 391 1925 391 
Q 2381 391 2643 752 
Q 2906 1113 2906 1747 
Q 2906 2381 2643 2742 
Q 2381 3103 1925 3103 
Q 1469 3103 1208 2742 
Q 947 2381 947 1747 
z
" transform="scale(0.015625)"/>
       <path id="DejaVuSans-61" d="M 2194 1759 
Q 1497 1759 1228 1600 
Q 959 1441 959 1056 
Q 959 750 1161 570 
Q 1363 391 1709 391 
Q 2188 391 2477 730 
Q 2766 1069 2766 1631 
L 2766 1759 
L 2194 1759 
z
M 3341 1997 
L 3341 0 
L 2766 0 
L 2766 531 
Q 2569 213 2275 61 
Q 1981 -91 1556 -91 
Q 1019 -91 701 211 
Q 384 513 384 1019 
Q 384 1609 779 1909 
Q 1175 2209 1959 2209 
L 2766 2209 
L 2766 2266 
Q 2766 2663 2505 2880 
Q 2244 3097 1772 3097 
Q 1472 3097 1187 3025 
Q 903 2953 641 2809 
L 641 3341 
Q 956 3463 1253 3523 
Q 1550 3584 1831 3584 
Q 2591 3584 2966 3190 
Q 3341 2797 3341 1997 
z
" transform="scale(0.015625)"/>
       <path id="DejaVuSans-79" d="M 2059 -325 
Q 1816 -950 1584 -1140 
Q 1353 -1331 966 -1331 
L 506 -1331 
L 506 -850 
L 844 -850 
Q 1081 -850 1212 -737 
Q 1344 -625 1503 -206 
L 1606 56 
L 191 3500 
L 800 3500 
L 1894 763 
L 2988 3500 
L 3597 3500 
L 2059 -325 
z
" transform="scale(0.015625)"/>
       <path id="DejaVuSans-73" d="M 2834 3397 
L 2834 2853 
Q 2591 2978 2328 3040 
Q 2066 3103 1784 3103 
Q 1356 3103 1142 2972 
Q 928 2841 928 2578 
Q 928 2378 1081 2264 
Q 1234 2150 1697 2047 
L 1894 2003 
Q 2506 1872 2764 1633 
Q 3022 1394 3022 966 
Q 3022 478 2636 193 
Q 2250 -91 1575 -91 
Q 1294 -91 989 -36 
Q 684 19 347 128 
L 347 722 
Q 666 556 975 473 
Q 1284 391 1588 391 
Q 1994 391 2212 530 
Q 2431 669 2431 922 
Q 2431 1156 2273 1281 
Q 2116 1406 1581 1522 
L 1381 1569 
Q 847 1681 609 1914 
Q 372 2147 372 2553 
Q 372 3047 722 3315 
Q 1072 3584 1716 3584 
Q 2034 3584 2315 3537 
Q 2597 3491 2834 3397 
z
" transform="scale(0.015625)"/>
       <path id="DejaVuSans-5d" d="M 1947 4863 
L 1947 -844 
L 622 -844 
L 622 -397 
L 1369 -397 
L 1369 4416 
L 622 4416 
L 622 4863 
L 1947 4863 
z
" transform="scale(0.015625)"/>
      </defs>
      <use xlink:href="#DejaVuSans-54"/>
      <use xlink:href="#DejaVuSans-69" transform="translate(57.958984 0)"/>
      <use xlink:href="#DejaVuSans-6d" transform="translate(85.742188 0)"/>
      <use xlink:href="#DejaVuSans-65" transform="translate(183.154297 0)"/>
      <use xlink:href="#DejaVuSans-20" transform="translate(244.677734 0)"/>
      <use xlink:href="#DejaVuSans-5b" transform="translate(276.464844 0)"/>
      <use xlink:href="#DejaVuSans-64" transform="translate(315.478516 0)"/>
      <use xlink:href="#DejaVuSans-61" transform="translate(378.955078 0)"/>
      <use xlink:href="#DejaVuSans-79" transform="translate(440.234375 0)"/>
      <use xlink:href="#DejaVuSans-73" transform="translate(499.414062 0)"/>
      <use xlink:href="#DejaVuSans-5d" transform="translate(551.513672 0)"/>
     </g>
    </g>
   </g>
   <g id="matplotlib.axis_2">
    <g id="ytick_1">
     <g id="text_11">
      <!-- 0.0 -->
      <g style="fill: #262626" transform="translate(28.566562 302.30005) scale(0.11 -0.11)">
       <use xlink:href="#DejaVuSans-30"/>
       <use xlink:href="#DejaVuSans-2e" transform="translate(63.623047 0)"/>
       <use xlink:href="#DejaVuSans-30" transform="translate(95.410156 0)"/>
      </g>
     </g>
    </g>
    <g id="ytick_2">
     <g id="text_12">
      <!-- 0.2 -->
      <g style="fill: #262626" transform="translate(28.566562 250.863686) scale(0.11 -0.11)">
       <use xlink:href="#DejaVuSans-30"/>
       <use xlink:href="#DejaVuSans-2e" transform="translate(63.623047 0)"/>
       <use xlink:href="#DejaVuSans-32" transform="translate(95.410156 0)"/>
      </g>
     </g>
    </g>
    <g id="ytick_3">
     <g id="text_13">
      <!-- 0.4 -->
      <g style="fill: #262626" transform="translate(28.566562 199.427322) scale(0.11 -0.11)">
       <defs>
        <path id="DejaVuSans-34" d="M 2419 4116 
L 825 1625 
L 2419 1625 
L 2419 4116 
z
M 2253 4666 
L 3047 4666 
L 3047 1625 
L 3713 1625 
L 3713 1100 
L 3047 1100 
L 3047 0 
L 2419 0 
L 2419 1100 
L 313 1100 
L 313 1709 
L 2253 4666 
z
" transform="scale(0.015625)"/>
       </defs>
       <use xlink:href="#DejaVuSans-30"/>
       <use xlink:href="#DejaVuSans-2e" transform="translate(63.623047 0)"/>
       <use xlink:href="#DejaVuSans-34" transform="translate(95.410156 0)"/>
      </g>
     </g>
    </g>
    <g id="ytick_4">
     <g id="text_14">
      <!-- 0.6 -->
      <g style="fill: #262626" transform="translate(28.566562 147.990959) scale(0.11 -0.11)">
       <defs>
        <path id="DejaVuSans-36" d="M 2113 2584 
Q 1688 2584 1439 2293 
Q 1191 2003 1191 1497 
Q 1191 994 1439 701 
Q 1688 409 2113 409 
Q 2538 409 2786 701 
Q 3034 994 3034 1497 
Q 3034 2003 2786 2293 
Q 2538 2584 2113 2584 
z
M 3366 4563 
L 3366 3988 
Q 3128 4100 2886 4159 
Q 2644 4219 2406 4219 
Q 1781 4219 1451 3797 
Q 1122 3375 1075 2522 
Q 1259 2794 1537 2939 
Q 1816 3084 2150 3084 
Q 2853 3084 3261 2657 
Q 3669 2231 3669 1497 
Q 3669 778 3244 343 
Q 2819 -91 2113 -91 
Q 1303 -91 875 529 
Q 447 1150 447 2328 
Q 447 3434 972 4092 
Q 1497 4750 2381 4750 
Q 2619 4750 2861 4703 
Q 3103 4656 3366 4563 
z
" transform="scale(0.015625)"/>
       </defs>
       <use xlink:href="#DejaVuSans-30"/>
       <use xlink:href="#DejaVuSans-2e" transform="translate(63.623047 0)"/>
       <use xlink:href="#DejaVuSans-36" transform="translate(95.410156 0)"/>
      </g>
     </g>
    </g>
    <g id="ytick_5">
     <g id="text_15">
      <!-- 0.8 -->
      <g style="fill: #262626" transform="translate(28.566562 96.554595) scale(0.11 -0.11)">
       <defs>
        <path id="DejaVuSans-38" d="M 2034 2216 
Q 1584 2216 1326 1975 
Q 1069 1734 1069 1313 
Q 1069 891 1326 650 
Q 1584 409 2034 409 
Q 2484 409 2743 651 
Q 3003 894 3003 1313 
Q 3003 1734 2745 1975 
Q 2488 2216 2034 2216 
z
M 1403 2484 
Q 997 2584 770 2862 
Q 544 3141 544 3541 
Q 544 4100 942 4425 
Q 1341 4750 2034 4750 
Q 2731 4750 3128 4425 
Q 3525 4100 3525 3541 
Q 3525 3141 3298 2862 
Q 3072 2584 2669 2484 
Q 3125 2378 3379 2068 
Q 3634 1759 3634 1313 
Q 3634 634 3220 271 
Q 2806 -91 2034 -91 
Q 1263 -91 848 271 
Q 434 634 434 1313 
Q 434 1759 690 2068 
Q 947 2378 1403 2484 
z
M 1172 3481 
Q 1172 3119 1398 2916 
Q 1625 2713 2034 2713 
Q 2441 2713 2670 2916 
Q 2900 3119 2900 3481 
Q 2900 3844 2670 4047 
Q 2441 4250 2034 4250 
Q 1625 4250 1398 4047 
Q 1172 3844 1172 3481 
z
" transform="scale(0.015625)"/>
       </defs>
       <use xlink:href="#DejaVuSans-30"/>
       <use xlink:href="#DejaVuSans-2e" transform="translate(63.623047 0)"/>
       <use xlink:href="#DejaVuSans-38" transform="translate(95.410156 0)"/>
      </g>
     </g>
    </g>
    <g id="ytick_6">
     <g id="text_16">
      <!-- 1.0 -->
      <g style="fill: #262626" transform="translate(28.566562 45.118232) scale(0.11 -0.11)">
       <use xlink:href="#DejaVuSans-31"/>
       <use xlink:href="#DejaVuSans-2e" transform="translate(63.623047 0)"/>
       <use xlink:href="#DejaVuSans-30" transform="translate(95.410156 0)"/>
      </g>
     </g>
    </g>
    <g id="text_17">
     <!-- nRMSE -->
     <g style="fill: #262626" transform="translate(22.070937 190.27875) rotate(-90) scale(0.12 -0.12)">
      <defs>
       <path id="DejaVuSans-6e" d="M 3513 2113 
L 3513 0 
L 2938 0 
L 2938 2094 
Q 2938 2591 2744 2837 
Q 2550 3084 2163 3084 
Q 1697 3084 1428 2787 
Q 1159 2491 1159 1978 
L 1159 0 
L 581 0 
L 581 3500 
L 1159 3500 
L 1159 2956 
Q 1366 3272 1645 3428 
Q 1925 3584 2291 3584 
Q 2894 3584 3203 3211 
Q 3513 2838 3513 2113 
z
" transform="scale(0.015625)"/>
       <path id="DejaVuSans-52" d="M 2841 2188 
Q 3044 2119 3236 1894 
Q 3428 1669 3622 1275 
L 4263 0 
L 3584 0 
L 2988 1197 
Q 2756 1666 2539 1819 
Q 2322 1972 1947 1972 
L 1259 1972 
L 1259 0 
L 628 0 
L 628 4666 
L 2053 4666 
Q 2853 4666 3247 4331 
Q 3641 3997 3641 3322 
Q 3641 2881 3436 2590 
Q 3231 2300 2841 2188 
z
M 1259 4147 
L 1259 2491 
L 2053 2491 
Q 2509 2491 2742 2702 
Q 2975 2913 2975 3322 
Q 2975 3731 2742 3939 
Q 2509 4147 2053 4147 
L 1259 4147 
z
" transform="scale(0.015625)"/>
       <path id="DejaVuSans-4d" d="M 628 4666 
L 1569 4666 
L 2759 1491 
L 3956 4666 
L 4897 4666 
L 4897 0 
L 4281 0 
L 4281 4097 
L 3078 897 
L 2444 897 
L 1241 4097 
L 1241 0 
L 628 0 
L 628 4666 
z
" transform="scale(0.015625)"/>
       <path id="DejaVuSans-53" d="M 3425 4513 
L 3425 3897 
Q 3066 4069 2747 4153 
Q 2428 4238 2131 4238 
Q 1616 4238 1336 4038 
Q 1056 3838 1056 3469 
Q 1056 3159 1242 3001 
Q 1428 2844 1947 2747 
L 2328 2669 
Q 3034 2534 3370 2195 
Q 3706 1856 3706 1288 
Q 3706 609 3251 259 
Q 2797 -91 1919 -91 
Q 1588 -91 1214 -16 
Q 841 59 441 206 
L 441 856 
Q 825 641 1194 531 
Q 1563 422 1919 422 
Q 2459 422 2753 634 
Q 3047 847 3047 1241 
Q 3047 1584 2836 1778 
Q 2625 1972 2144 2069 
L 1759 2144 
Q 1053 2284 737 2584 
Q 422 2884 422 3419 
Q 422 4038 858 4394 
Q 1294 4750 2059 4750 
Q 2388 4750 2728 4690 
Q 3069 4631 3425 4513 
z
" transform="scale(0.015625)"/>
       <path id="DejaVuSans-45" d="M 628 4666 
L 3578 4666 
L 3578 4134 
L 1259 4134 
L 1259 2753 
L 3481 2753 
L 3481 2222 
L 1259 2222 
L 1259 531 
L 3634 531 
L 3634 0 
L 628 0 
L 628 4666 
z
" transform="scale(0.015625)"/>
      </defs>
      <use xlink:href="#DejaVuSans-6e"/>
      <use xlink:href="#DejaVuSans-52" transform="translate(63.378906 0)"/>
      <use xlink:href="#DejaVuSans-4d" transform="translate(132.861328 0)"/>
      <use xlink:href="#DejaVuSans-53" transform="translate(219.140625 0)"/>
      <use xlink:href="#DejaVuSans-45" transform="translate(282.617188 0)"/>
     </g>
    </g>
   </g>
   <g id="FillBetweenPolyCollection_1">
    <defs>
     <path id="m530f21d7f2" d="M 85.172727 -83.240928 
L 85.172727 -76.16223 
L 87.65078 -76.165687 
L 90.128832 -77.737706 
L 92.606885 -80.518522 
L 95.084937 -79.328189 
L 97.56299 -77.360124 
L 100.041042 -77.039366 
L 102.519095 -77.680488 
L 104.997147 -79.084677 
L 107.4752 -79.689064 
L 109.953252 -78.711022 
L 112.431305 -80.0549 
L 114.909357 -82.184951 
L 117.38741 -82.661427 
L 119.865462 -82.463601 
L 122.343515 -82.896244 
L 124.821567 -85.572793 
L 127.29962 -88.590695 
L 129.777672 -90.885846 
L 132.255725 -91.727334 
L 134.733777 -90.004401 
L 137.21183 -90.342737 
L 139.689882 -92.394626 
L 142.167935 -95.538196 
L 144.645987 -97.119592 
L 147.12404 -95.495017 
L 149.602092 -92.647085 
L 152.080145 -91.746284 
L 154.558197 -94.120017 
L 157.03625 -97.621427 
L 159.514302 -98.878628 
L 161.992355 -97.907475 
L 164.470407 -96.074188 
L 166.948459 -96.025048 
L 169.426512 -97.604194 
L 171.904564 -100.091565 
L 174.382617 -101.622907 
L 176.860669 -101.044692 
L 179.338722 -101.063236 
L 181.816774 -102.063484 
L 184.294827 -103.17875 
L 186.772879 -103.562651 
L 189.250932 -103.659714 
L 191.728984 -104.860664 
L 194.207037 -107.462381 
L 196.685089 -109.623613 
L 199.163142 -110.100545 
L 201.641194 -109.628088 
L 204.119247 -109.831927 
L 206.597299 -111.098487 
L 209.075352 -113.004682 
L 211.553404 -114.640609 
L 214.031457 -114.852392 
L 216.509509 -114.802157 
L 218.987562 -115.197814 
L 221.465614 -115.959504 
L 223.943667 -117.166387 
L 226.421719 -118.433016 
L 228.899772 -118.756098 
L 231.377824 -119.484792 
L 233.855877 -120.412135 
L 236.333929 -120.918587 
L 238.811982 -121.935603 
L 241.290034 -123.354083 
L 243.768087 -124.436355 
L 246.246139 -125.304952 
L 248.724192 -126.137751 
L 251.202244 -127.34974 
L 253.680297 -129.460597 
L 256.158349 -131.330177 
L 258.636402 -132.314447 
L 261.114454 -132.756707 
L 263.592507 -133.810398 
L 266.070559 -135.054462 
L 268.548612 -136.789809 
L 271.026664 -138.468737 
L 273.504717 -139.429121 
L 275.982769 -140.045091 
L 278.460822 -140.820873 
L 280.938874 -141.931921 
L 283.416927 -143.611094 
L 285.894979 -145.193308 
L 288.373032 -145.980127 
L 290.851084 -146.480309 
L 293.329137 -147.606504 
L 295.807189 -148.514876 
L 298.285242 -150.260732 
L 300.763294 -151.621147 
L 303.241347 -152.760595 
L 305.719399 -153.588744 
L 308.197452 -154.695468 
L 310.675504 -156.030558 
L 313.153556 -157.787418 
L 315.631609 -159.527602 
L 318.109661 -160.854735 
L 320.587714 -160.904396 
L 323.065766 -161.727734 
L 325.543819 -162.864365 
L 328.021871 -165.014868 
L 330.499924 -167.30218 
L 332.977976 -168.08996 
L 335.456029 -168.780014 
L 337.934081 -169.180882 
L 340.412134 -170.063555 
L 342.890186 -171.679044 
L 345.368239 -172.684151 
L 347.846291 -173.741917 
L 350.324344 -173.924333 
L 352.802396 -174.28751 
L 355.280449 -175.190372 
L 357.758501 -176.549314 
L 360.236554 -178.093676 
L 362.714606 -178.653113 
L 365.192659 -178.829097 
L 367.670711 -179.263805 
L 370.148764 -179.80433 
L 372.626816 -181.122519 
L 375.104869 -182.291998 
L 377.582921 -183.203123 
L 380.060974 -183.477393 
L 382.539026 -184.053118 
L 385.017079 -184.651029 
L 387.495131 -185.723212 
L 389.973184 -186.986856 
L 392.451236 -187.625776 
L 394.929289 -187.839 
L 397.407341 -188.495055 
L 399.885394 -188.560154 
L 402.363446 -189.634936 
L 404.841499 -190.444644 
L 407.319551 -191.434412 
L 409.797604 -191.465759 
L 412.275656 -191.727205 
L 414.753709 -192.314892 
L 417.231761 -193.823154 
L 419.709814 -195.33449 
L 422.187866 -195.574498 
L 424.665919 -195.447095 
L 427.143971 -195.327126 
L 429.622024 -195.845639 
L 432.100076 -197.203896 
L 434.578129 -198.314162 
L 437.056181 -198.46057 
L 439.534234 -198.158266 
L 442.012286 -198.037877 
L 444.490339 -198.577449 
L 446.968391 -199.935726 
L 449.446444 -201.324202 
L 451.924496 -201.700345 
L 454.402548 -201.07082 
L 456.880601 -200.932328 
L 459.358653 -201.23165 
L 461.836706 -202.531374 
L 464.314758 -203.322627 
L 466.792811 -203.341698 
L 469.270863 -202.760756 
L 471.748916 -202.198619 
L 474.226968 -202.395343 
L 476.705021 -203.863125 
L 479.183073 -204.924966 
L 481.661126 -205.101547 
L 484.139178 -204.195901 
L 486.617231 -204.327913 
L 489.095283 -204.348268 
L 491.573336 -204.795342 
L 494.051388 -205.819224 
L 496.529441 -205.020877 
L 499.007493 -204.57937 
L 501.485546 -203.753318 
L 503.963598 -203.094053 
L 506.441651 -202.695675 
L 508.919703 -203.960051 
L 511.397756 -204.703947 
L 513.875808 -205.629485 
L 516.353861 -205.239084 
L 518.831913 -206.514203 
L 521.309966 -207.222782 
L 523.788018 -209.239418 
L 526.266071 -209.144569 
L 528.744123 -209.07805 
L 531.222176 -208.377885 
L 533.700228 -208.364646 
L 536.178281 -208.858408 
L 538.656333 -209.026795 
L 541.134386 -209.315867 
L 543.612438 -209.03604 
L 546.090491 -207.820924 
L 548.568543 -208.643837 
L 551.046596 -209.270137 
L 553.524648 -210.662253 
L 556.002701 -210.984567 
L 558.480753 -211.428098 
L 560.958806 -211.981077 
L 563.436858 -211.640325 
L 565.914911 -211.871543 
L 568.392963 -212.624492 
L 570.871016 -212.370015 
L 573.349068 -212.457338 
L 575.827121 -212.374761 
L 578.305173 -213.15012 
L 580.783226 -213.610008 
L 583.261278 -214.668902 
L 585.739331 -215.742629 
L 588.217383 -216.04374 
L 590.695436 -216.044482 
L 593.173488 -215.501265 
L 595.651541 -215.183451 
L 598.129593 -215.796255 
L 600.607645 -216.247605 
L 603.085698 -217.599561 
L 605.56375 -218.067926 
L 608.041803 -217.777252 
L 610.519855 -217.821562 
L 612.997908 -218.249802 
L 615.47596 -218.940975 
L 617.954013 -219.55363 
L 620.432065 -219.444507 
L 622.910118 -218.74361 
L 625.38817 -218.609545 
L 627.866223 -219.903567 
L 630.344275 -221.143999 
L 632.822328 -221.786832 
L 635.30038 -222.448753 
L 637.778433 -222.573904 
L 640.256485 -222.995191 
L 642.734538 -223.851019 
L 645.21259 -224.587572 
L 647.690643 -225.568567 
L 650.168695 -226.082985 
L 652.646748 -226.844531 
L 655.1248 -228.051601 
L 657.602853 -229.660779 
L 660.080905 -230.787925 
L 662.558958 -231.477313 
L 665.03701 -232.539928 
L 667.515063 -232.892134 
L 669.993115 -233.820137 
L 672.471168 -234.903333 
L 674.94922 -235.725757 
L 677.427273 -236.269213 
L 677.427273 -262.683414 
L 677.427273 -262.683414 
L 674.94922 -262.976514 
L 672.471168 -263.163307 
L 669.993115 -262.155665 
L 667.515063 -261.827316 
L 665.03701 -262.407851 
L 662.558958 -262.859252 
L 660.080905 -262.33814 
L 657.602853 -262.13962 
L 655.1248 -261.505033 
L 652.646748 -262.164545 
L 650.168695 -262.721745 
L 647.690643 -262.998782 
L 645.21259 -262.726512 
L 642.734538 -262.097984 
L 640.256485 -262.303211 
L 637.778433 -262.219787 
L 635.30038 -263.219184 
L 632.822328 -264.734412 
L 630.344275 -264.496718 
L 627.866223 -264.229646 
L 625.38817 -263.453006 
L 622.910118 -263.587808 
L 620.432065 -264.008675 
L 617.954013 -263.629024 
L 615.47596 -263.376394 
L 612.997908 -262.571957 
L 610.519855 -261.945214 
L 608.041803 -262.15394 
L 605.56375 -262.61575 
L 603.085698 -262.390801 
L 600.607645 -261.84027 
L 598.129593 -261.236328 
L 595.651541 -260.376156 
L 593.173488 -259.938326 
L 590.695436 -260.121754 
L 588.217383 -259.818488 
L 585.739331 -259.673243 
L 583.261278 -259.566027 
L 580.783226 -258.418316 
L 578.305173 -257.966325 
L 575.827121 -258.07908 
L 573.349068 -258.067766 
L 570.871016 -257.109211 
L 568.392963 -255.991314 
L 565.914911 -255.254621 
L 563.436858 -255.088631 
L 560.958806 -254.932286 
L 558.480753 -254.739571 
L 556.002701 -254.239356 
L 553.524648 -253.41714 
L 551.046596 -252.954529 
L 548.568543 -252.683511 
L 546.090491 -253.22898 
L 543.612438 -252.296446 
L 541.134386 -251.298234 
L 538.656333 -250.155212 
L 536.178281 -248.915057 
L 533.700228 -248.761228 
L 531.222176 -248.896794 
L 528.744123 -248.350991 
L 526.266071 -247.03399 
L 523.788018 -245.846927 
L 521.309966 -245.18161 
L 518.831913 -244.595837 
L 516.353861 -245.227991 
L 513.875808 -244.691527 
L 511.397756 -243.813831 
L 508.919703 -243.42591 
L 506.441651 -243.428985 
L 503.963598 -243.236959 
L 501.485546 -243.36108 
L 499.007493 -242.888347 
L 496.529441 -242.353461 
L 494.051388 -241.716582 
L 491.573336 -240.939725 
L 489.095283 -240.705673 
L 486.617231 -240.660837 
L 484.139178 -240.464813 
L 481.661126 -239.484493 
L 479.183073 -238.519736 
L 476.705021 -238.102576 
L 474.226968 -238.343186 
L 471.748916 -238.539463 
L 469.270863 -238.007871 
L 466.792811 -237.430097 
L 464.314758 -236.494136 
L 461.836706 -236.299062 
L 459.358653 -236.068631 
L 456.880601 -236.423179 
L 454.402548 -236.457752 
L 451.924496 -235.911047 
L 449.446444 -235.560406 
L 446.968391 -235.074091 
L 444.490339 -235.278759 
L 442.012286 -235.265256 
L 439.534234 -235.296493 
L 437.056181 -235.140853 
L 434.578129 -234.352951 
L 432.100076 -233.593282 
L 429.622024 -232.921926 
L 427.143971 -233.172633 
L 424.665919 -233.197574 
L 422.187866 -232.769407 
L 419.709814 -231.930919 
L 417.231761 -231.919922 
L 414.753709 -231.463497 
L 412.275656 -231.338302 
L 409.797604 -231.153197 
L 407.319551 -230.962459 
L 404.841499 -230.158848 
L 402.363446 -228.741142 
L 399.885394 -228.205179 
L 397.407341 -228.553506 
L 394.929289 -228.670311 
L 392.451236 -228.43075 
L 389.973184 -227.855239 
L 387.495131 -227.189462 
L 385.017079 -226.382133 
L 382.539026 -225.702467 
L 380.060974 -225.352748 
L 377.582921 -225.408631 
L 375.104869 -224.797328 
L 372.626816 -223.202219 
L 370.148764 -222.538805 
L 367.670711 -222.480789 
L 365.192659 -221.710537 
L 362.714606 -220.602309 
L 360.236554 -218.398449 
L 357.758501 -216.517785 
L 355.280449 -214.944453 
L 352.802396 -213.794514 
L 350.324344 -212.025122 
L 347.846291 -210.733126 
L 345.368239 -208.893753 
L 342.890186 -207.008431 
L 340.412134 -205.537371 
L 337.934081 -204.995556 
L 335.456029 -203.432724 
L 332.977976 -201.146074 
L 330.499924 -199.304136 
L 328.021871 -197.998752 
L 325.543819 -197.37194 
L 323.065766 -196.463204 
L 320.587714 -195.064123 
L 318.109661 -193.160529 
L 315.631609 -191.181907 
L 313.153556 -189.279343 
L 310.675504 -187.678659 
L 308.197452 -186.309704 
L 305.719399 -184.934789 
L 303.241347 -182.479462 
L 300.763294 -180.285633 
L 298.285242 -178.638979 
L 295.807189 -177.862886 
L 293.329137 -176.931845 
L 290.851084 -174.977333 
L 288.373032 -172.616558 
L 285.894979 -170.558924 
L 283.416927 -169.520386 
L 280.938874 -169.028127 
L 278.460822 -168.518656 
L 275.982769 -166.910935 
L 273.504717 -164.409039 
L 271.026664 -162.725734 
L 268.548612 -161.993875 
L 266.070559 -161.402085 
L 263.592507 -161.49292 
L 261.114454 -159.757084 
L 258.636402 -156.89046 
L 256.158349 -154.904807 
L 253.680297 -154.233368 
L 251.202244 -154.877091 
L 248.724192 -154.569252 
L 246.246139 -152.610361 
L 243.768087 -149.556899 
L 241.290034 -147.472945 
L 238.811982 -146.661007 
L 236.333929 -146.531362 
L 233.855877 -145.714216 
L 231.377824 -143.046875 
L 228.899772 -140.053583 
L 226.421719 -137.989836 
L 223.943667 -136.878452 
L 221.465614 -136.946684 
L 218.987562 -136.932935 
L 216.509509 -135.39233 
L 214.031457 -132.650595 
L 211.553404 -130.457689 
L 209.075352 -130.051748 
L 206.597299 -131.264432 
L 204.119247 -131.778214 
L 201.641194 -129.572281 
L 199.163142 -127.22193 
L 196.685089 -126.111031 
L 194.207037 -126.673019 
L 191.728984 -127.641234 
L 189.250932 -126.988475 
L 186.772879 -125.653908 
L 184.294827 -124.719392 
L 181.816774 -124.337896 
L 179.338722 -122.835315 
L 176.860669 -121.953083 
L 174.382617 -120.32741 
L 171.904564 -119.413979 
L 169.426512 -120.734494 
L 166.948459 -121.18482 
L 164.470407 -119.022562 
L 161.992355 -115.939162 
L 159.514302 -114.076875 
L 157.03625 -113.473019 
L 154.558197 -114.96663 
L 152.080145 -115.685589 
L 149.602092 -113.271787 
L 147.12404 -109.166311 
L 144.645987 -107.107243 
L 142.167935 -108.970288 
L 139.689882 -112.208425 
L 137.21183 -113.325089 
L 134.733777 -111.201855 
L 132.255725 -108.400317 
L 129.777672 -107.023131 
L 127.29962 -106.459614 
L 124.821567 -108.790887 
L 122.343515 -110.081344 
L 119.865462 -106.958721 
L 117.38741 -101.161094 
L 114.909357 -98.846205 
L 112.431305 -99.37066 
L 109.953252 -102.896437 
L 107.4752 -103.690183 
L 104.997147 -99.053985 
L 102.519095 -93.58663 
L 100.041042 -90.665285 
L 97.56299 -90.348625 
L 95.084937 -91.57667 
L 92.606885 -91.432682 
L 90.128832 -88.149577 
L 87.65078 -84.541491 
L 85.172727 -83.240928 
z
" style="stroke: #000000; stroke-opacity: 0.2"/>
    </defs>
    <g clip-path="url(#pc321de52e7)">
     <use xlink:href="#m530f21d7f2" x="0" y="360" style="fill-opacity: 0.2; stroke: #000000; stroke-opacity: 0.2"/>
    </g>
   </g>
   <g id="FillBetweenPolyCollection_2">
    <defs>
     <path id="md38817a8c9" d="M 85.172727 -83.240928 
L 85.172727 -76.16223 
L 87.65078 -76.204282 
L 90.128832 -77.922887 
L 92.606885 -80.886791 
L 95.084937 -79.752789 
L 97.56299 -77.692273 
L 100.041042 -77.347505 
L 102.519095 -78.059312 
L 104.997147 -79.468401 
L 107.4752 -80.14586 
L 109.953252 -79.081404 
L 112.431305 -80.477992 
L 114.909357 -82.860171 
L 117.38741 -83.272389 
L 119.865462 -83.0392 
L 122.343515 -83.405906 
L 124.821567 -86.351747 
L 127.29962 -89.666679 
L 129.777672 -91.980188 
L 132.255725 -92.662809 
L 134.733777 -90.499709 
L 137.21183 -90.483479 
L 139.689882 -92.587641 
L 142.167935 -95.254154 
L 144.645987 -96.141245 
L 147.12404 -93.971506 
L 149.602092 -90.461986 
L 152.080145 -88.721667 
L 154.558197 -90.323279 
L 157.03625 -93.314044 
L 159.514302 -94.095218 
L 161.992355 -92.310338 
L 164.470407 -89.45 
L 166.948459 -88.849572 
L 169.426512 -90.012091 
L 171.904564 -92.376893 
L 174.382617 -93.837792 
L 176.860669 -91.99477 
L 179.338722 -90.875528 
L 181.816774 -91.257223 
L 184.294827 -91.791565 
L 186.772879 -91.787185 
L 189.250932 -91.611972 
L 191.728984 -92.175871 
L 194.207037 -94.432635 
L 196.685089 -96.359398 
L 199.163142 -96.239055 
L 201.641194 -94.933795 
L 204.119247 -94.258019 
L 206.597299 -94.889788 
L 209.075352 -96.308002 
L 211.553404 -97.223055 
L 214.031457 -96.214388 
L 216.509509 -94.765084 
L 218.987562 -94.206511 
L 221.465614 -94.17536 
L 223.943667 -94.69992 
L 226.421719 -95.315882 
L 228.899772 -94.514592 
L 231.377824 -94.468173 
L 233.855877 -94.773841 
L 236.333929 -93.846026 
L 238.811982 -93.47985 
L 241.290034 -93.796125 
L 243.768087 -93.905119 
L 246.246139 -94.190076 
L 248.724192 -94.173807 
L 251.202244 -94.186898 
L 253.680297 -95.300926 
L 256.158349 -96.006234 
L 258.636402 -95.559917 
L 261.114454 -94.742022 
L 263.592507 -94.686905 
L 266.070559 -94.878786 
L 268.548612 -95.740669 
L 271.026664 -96.396302 
L 273.504717 -95.812172 
L 275.982769 -95.07132 
L 278.460822 -94.530155 
L 280.938874 -94.507474 
L 283.416927 -95.114463 
L 285.894979 -95.12397 
L 288.373032 -94.747167 
L 290.851084 -94.546684 
L 293.329137 -94.748393 
L 295.807189 -94.288088 
L 298.285242 -94.230038 
L 300.763294 -93.94059 
L 303.241347 -93.846732 
L 305.719399 -93.960173 
L 308.197452 -93.742776 
L 310.675504 -93.408125 
L 313.153556 -94.159504 
L 315.631609 -95.366607 
L 318.109661 -95.133997 
L 320.587714 -93.299034 
L 323.065766 -93.093163 
L 325.543819 -93.471467 
L 328.021871 -95.381398 
L 330.499924 -97.840049 
L 332.977976 -96.71235 
L 335.456029 -95.05337 
L 337.934081 -94.454618 
L 340.412134 -94.87403 
L 342.890186 -96.84508 
L 345.368239 -97.752235 
L 347.846291 -97.240646 
L 350.324344 -95.897902 
L 352.802396 -95.518306 
L 355.280449 -95.911102 
L 357.758501 -96.303823 
L 360.236554 -96.436237 
L 362.714606 -95.362197 
L 365.192659 -95.133789 
L 367.670711 -95.048223 
L 370.148764 -94.415551 
L 372.626816 -93.950438 
L 375.104869 -93.644011 
L 377.582921 -93.789549 
L 380.060974 -94.616732 
L 382.539026 -94.902949 
L 385.017079 -93.833586 
L 387.495131 -93.404513 
L 389.973184 -93.779946 
L 392.451236 -93.48601 
L 394.929289 -94.086674 
L 397.407341 -94.835744 
L 399.885394 -94.189389 
L 402.363446 -93.692434 
L 404.841499 -93.703502 
L 407.319551 -93.893165 
L 409.797604 -94.702223 
L 412.275656 -94.707337 
L 414.753709 -94.193404 
L 417.231761 -95.160544 
L 419.709814 -96.748645 
L 422.187866 -95.638361 
L 424.665919 -94.461915 
L 427.143971 -94.257585 
L 429.622024 -94.298272 
L 432.100076 -95.040817 
L 434.578129 -95.331122 
L 437.056181 -94.324283 
L 439.534234 -93.970044 
L 442.012286 -93.827129 
L 444.490339 -93.950309 
L 446.968391 -95.257286 
L 449.446444 -96.529005 
L 451.924496 -96.195831 
L 454.402548 -94.247984 
L 456.880601 -93.876754 
L 459.358653 -94.40427 
L 461.836706 -96.600871 
L 464.314758 -97.212128 
L 466.792811 -95.474646 
L 469.270863 -93.906168 
L 471.748916 -93.836834 
L 474.226968 -93.809323 
L 476.705021 -94.95005 
L 479.183073 -96.227074 
L 481.661126 -95.388451 
L 484.139178 -94.376787 
L 486.617231 -95.016957 
L 489.095283 -95.198627 
L 491.573336 -95.310098 
L 494.051388 -95.321149 
L 496.529441 -97.576616 
L 499.007493 -102.384842 
L 501.485546 -105.034151 
L 503.963598 -103.01915 
L 506.441651 -99.766947 
L 508.919703 -99.091759 
L 511.397756 -99.048384 
L 513.875808 -100.369251 
L 516.353861 -100.352238 
L 518.831913 -99.558512 
L 521.309966 -100.112063 
L 523.788018 -101.203629 
L 526.266071 -101.724359 
L 528.744123 -101.224077 
L 531.222176 -102.819519 
L 533.700228 -104.325634 
L 536.178281 -105.213272 
L 538.656333 -106.911912 
L 541.134386 -108.447198 
L 543.612438 -110.119451 
L 546.090491 -109.752742 
L 548.568543 -107.387549 
L 551.046596 -107.164355 
L 553.524648 -107.728162 
L 556.002701 -108.430511 
L 558.480753 -110.417307 
L 560.958806 -112.408572 
L 563.436858 -112.441498 
L 565.914911 -113.00609 
L 568.392963 -112.965499 
L 570.871016 -114.532727 
L 573.349068 -116.425221 
L 575.827121 -117.893484 
L 578.305173 -118.397037 
L 580.783226 -118.345343 
L 583.261278 -120.276741 
L 585.739331 -123.601774 
L 588.217383 -127.351795 
L 590.695436 -129.851257 
L 593.173488 -130.751968 
L 595.651541 -130.98298 
L 598.129593 -132.321117 
L 600.607645 -134.264675 
L 603.085698 -137.651339 
L 605.56375 -138.425213 
L 608.041803 -137.286891 
L 610.519855 -136.441293 
L 612.997908 -136.198288 
L 615.47596 -137.46968 
L 617.954013 -139.46251 
L 620.432065 -139.129054 
L 622.910118 -137.017215 
L 625.38817 -134.98262 
L 627.866223 -134.484683 
L 630.344275 -134.974438 
L 632.822328 -135.818879 
L 635.30038 -134.988455 
L 637.778433 -134.364862 
L 640.256485 -134.02933 
L 642.734538 -134.811576 
L 645.21259 -136.175208 
L 647.690643 -137.01948 
L 650.168695 -137.399602 
L 652.646748 -137.519876 
L 655.1248 -138.44105 
L 657.602853 -140.046881 
L 660.080905 -140.97481 
L 662.558958 -141.800182 
L 665.03701 -143.201066 
L 667.515063 -144.491819 
L 669.993115 -146.333676 
L 672.471168 -148.472274 
L 674.94922 -149.240748 
L 677.427273 -149.327776 
L 677.427273 -181.114507 
L 677.427273 -181.114507 
L 674.94922 -179.794574 
L 672.471168 -178.562829 
L 669.993115 -176.935899 
L 667.515063 -175.913862 
L 665.03701 -175.509758 
L 662.558958 -174.375136 
L 660.080905 -173.015424 
L 657.602853 -171.774513 
L 655.1248 -170.200802 
L 652.646748 -169.890153 
L 650.168695 -169.519983 
L 647.690643 -168.066636 
L 645.21259 -166.519933 
L 642.734538 -165.18716 
L 640.256485 -164.23248 
L 637.778433 -164.069702 
L 635.30038 -163.671051 
L 632.822328 -162.479504 
L 630.344275 -160.964861 
L 627.866223 -159.745039 
L 625.38817 -158.850407 
L 622.910118 -158.869548 
L 620.432065 -159.388346 
L 617.954013 -158.242664 
L 615.47596 -156.701125 
L 612.997908 -155.54759 
L 610.519855 -154.835452 
L 608.041803 -154.773435 
L 605.56375 -154.477494 
L 603.085698 -153.58437 
L 600.607645 -152.747115 
L 598.129593 -152.343344 
L 595.651541 -151.590218 
L 593.173488 -151.21214 
L 590.695436 -151.422577 
L 588.217383 -150.956837 
L 585.739331 -151.14116 
L 583.261278 -151.215353 
L 580.783226 -150.328164 
L 578.305173 -149.546437 
L 575.827121 -148.940185 
L 573.349068 -148.512059 
L 570.871016 -147.864652 
L 568.392963 -146.710411 
L 565.914911 -145.394779 
L 563.436858 -145.307073 
L 560.958806 -146.234666 
L 558.480753 -145.138394 
L 556.002701 -144.305846 
L 553.524648 -143.73937 
L 551.046596 -142.637749 
L 548.568543 -141.752324 
L 546.090491 -140.423181 
L 543.612438 -138.759074 
L 541.134386 -137.842572 
L 538.656333 -136.404937 
L 536.178281 -135.38093 
L 533.700228 -134.736097 
L 531.222176 -134.675466 
L 528.744123 -133.515422 
L 526.266071 -132.284236 
L 523.788018 -131.384418 
L 521.309966 -131.722869 
L 518.831913 -133.219641 
L 516.353861 -132.615121 
L 513.875808 -131.145009 
L 511.397756 -129.82185 
L 508.919703 -127.433768 
L 506.441651 -124.836539 
L 503.963598 -122.346072 
L 501.485546 -120.172887 
L 499.007493 -119.212718 
L 496.529441 -119.744259 
L 494.051388 -119.635286 
L 491.573336 -118.577462 
L 489.095283 -117.108401 
L 486.617231 -115.933486 
L 484.139178 -115.662602 
L 481.661126 -115.881756 
L 479.183073 -115.396502 
L 476.705021 -114.20043 
L 474.226968 -113.015162 
L 471.748916 -112.638406 
L 469.270863 -112.117323 
L 466.792811 -111.62789 
L 464.314758 -111.334375 
L 461.836706 -110.471932 
L 459.358653 -109.720298 
L 456.880601 -109.400105 
L 454.402548 -109.625182 
L 451.924496 -110.748992 
L 449.446444 -112.313829 
L 446.968391 -112.599966 
L 444.490339 -111.510555 
L 442.012286 -110.546693 
L 439.534234 -111.462573 
L 437.056181 -114.497207 
L 434.578129 -114.863015 
L 432.100076 -113.468961 
L 429.622024 -110.386627 
L 427.143971 -110.203754 
L 424.665919 -110.695012 
L 422.187866 -111.716672 
L 419.709814 -112.333135 
L 417.231761 -112.521865 
L 414.753709 -111.046815 
L 412.275656 -111.273516 
L 409.797604 -113.709567 
L 407.319551 -117.343968 
L 404.841499 -119.566793 
L 402.363446 -118.379371 
L 399.885394 -116.901886 
L 397.407341 -118.008088 
L 394.929289 -120.094748 
L 392.451236 -123.695433 
L 389.973184 -125.42955 
L 387.495131 -124.754322 
L 385.017079 -122.051103 
L 382.539026 -120.259254 
L 380.060974 -122.108412 
L 377.582921 -126.111484 
L 375.104869 -127.808408 
L 372.626816 -125.698354 
L 370.148764 -124.065904 
L 367.670711 -124.510082 
L 365.192659 -124.882121 
L 362.714606 -126.495956 
L 360.236554 -124.958943 
L 357.758501 -121.918815 
L 355.280449 -119.460754 
L 352.802396 -118.349198 
L 350.324344 -118.127405 
L 347.846291 -117.861536 
L 345.368239 -116.947999 
L 342.890186 -116.114155 
L 340.412134 -116.239461 
L 337.934081 -117.465573 
L 335.456029 -117.224613 
L 332.977976 -115.249276 
L 330.499924 -114.378597 
L 328.021871 -114.984687 
L 325.543819 -116.42545 
L 323.065766 -117.085591 
L 320.587714 -115.965638 
L 318.109661 -114.420718 
L 315.631609 -113.793987 
L 313.153556 -113.761303 
L 310.675504 -114.163825 
L 308.197452 -114.623897 
L 305.719399 -114.852405 
L 303.241347 -113.937756 
L 300.763294 -113.633488 
L 298.285242 -114.272993 
L 295.807189 -115.411425 
L 293.329137 -116.457319 
L 290.851084 -116.262136 
L 288.373032 -115.164812 
L 285.894979 -114.734553 
L 283.416927 -115.036249 
L 280.938874 -116.07961 
L 278.460822 -117.526745 
L 275.982769 -117.229486 
L 273.504717 -114.670349 
L 271.026664 -113.822023 
L 268.548612 -114.77211 
L 266.070559 -116.354787 
L 263.592507 -118.233161 
L 261.114454 -117.15074 
L 258.636402 -115.026262 
L 256.158349 -114.387593 
L 253.680297 -115.853359 
L 251.202244 -118.909011 
L 248.724192 -120.339763 
L 246.246139 -120.067164 
L 243.768087 -117.698722 
L 241.290034 -116.30842 
L 238.811982 -117.275116 
L 236.333929 -119.533371 
L 233.855877 -120.809752 
L 231.377824 -119.379866 
L 228.899772 -116.250307 
L 226.421719 -115.022206 
L 223.943667 -115.334563 
L 221.465614 -117.105392 
L 218.987562 -118.484596 
L 216.509509 -117.641942 
L 214.031457 -115.078848 
L 211.553404 -113.534675 
L 209.075352 -114.342639 
L 206.597299 -117.012334 
L 204.119247 -118.256647 
L 201.641194 -116.046941 
L 199.163142 -113.674317 
L 196.685089 -113.005955 
L 194.207037 -114.14378 
L 191.728984 -115.766531 
L 189.250932 -115.967131 
L 186.772879 -115.39214 
L 184.294827 -115.164356 
L 181.816774 -115.384112 
L 179.338722 -114.442234 
L 176.860669 -113.756473 
L 174.382617 -112.458084 
L 171.904564 -112.437017 
L 169.426512 -114.508238 
L 166.948459 -115.442537 
L 164.470407 -113.609431 
L 161.992355 -110.675535 
L 159.514302 -109.200207 
L 157.03625 -109.324495 
L 154.558197 -111.304354 
L 152.080145 -112.438449 
L 149.602092 -110.243963 
L 147.12404 -106.329756 
L 144.645987 -104.755026 
L 142.167935 -106.550304 
L 139.689882 -110.087726 
L 137.21183 -111.802895 
L 134.733777 -109.621852 
L 132.255725 -106.656349 
L 129.777672 -105.377374 
L 127.29962 -105.226463 
L 124.821567 -108.093551 
L 122.343515 -109.691519 
L 119.865462 -106.538173 
L 117.38741 -100.75022 
L 114.909357 -98.365006 
L 112.431305 -99.364416 
L 109.953252 -103.129335 
L 107.4752 -103.992307 
L 104.997147 -99.422084 
L 102.519095 -93.786241 
L 100.041042 -90.813045 
L 97.56299 -90.517857 
L 95.084937 -91.744824 
L 92.606885 -91.644601 
L 90.128832 -88.291896 
L 87.65078 -84.60069 
L 85.172727 -83.240928 
z
" style="stroke: #a52a2a; stroke-opacity: 0.2"/>
    </defs>
    <g clip-path="url(#pc321de52e7)">
     <use xlink:href="#md38817a8c9" x="0" y="360" style="fill: #a52a2a; fill-opacity: 0.2; stroke: #a52a2a; stroke-opacity: 0.2"/>
    </g>
   </g>
   <g id="FillBetweenPolyCollection_3">
    <defs>
     <path id="mb078037f5d" d="M 85.172727 -83.240928 
L 85.172727 -76.16223 
L 87.65078 -76.144849 
L 90.128832 -77.89412 
L 92.606885 -80.944474 
L 95.084937 -79.858728 
L 97.56299 -77.595142 
L 100.041042 -77.101526 
L 102.519095 -77.993133 
L 104.997147 -79.726639 
L 107.4752 -80.723414 
L 109.953252 -78.515615 
L 112.431305 -78.429786 
L 114.909357 -79.617759 
L 117.38741 -80.182117 
L 119.865462 -80.222524 
L 122.343515 -80.592974 
L 124.821567 -82.220043 
L 127.29962 -84.386787 
L 129.777672 -86.214057 
L 132.255725 -86.661232 
L 134.733777 -85.281474 
L 137.21183 -85.608638 
L 139.689882 -86.542206 
L 142.167935 -87.920361 
L 144.645987 -88.491361 
L 147.12404 -87.233212 
L 149.602092 -85.672628 
L 152.080145 -85.324853 
L 154.558197 -86.286768 
L 157.03625 -88.234738 
L 159.514302 -89.364612 
L 161.992355 -89.141511 
L 164.470407 -88.797135 
L 166.948459 -88.850753 
L 169.426512 -88.941565 
L 171.904564 -89.705092 
L 174.382617 -90.230993 
L 176.860669 -90.500005 
L 179.338722 -91.387191 
L 181.816774 -93.001405 
L 184.294827 -93.831133 
L 186.772879 -93.362367 
L 189.250932 -93.795412 
L 191.728984 -95.613052 
L 194.207037 -97.272508 
L 196.685089 -97.201361 
L 199.163142 -96.466914 
L 201.641194 -94.410436 
L 204.119247 -92.670953 
L 206.597299 -92.235621 
L 209.075352 -92.797505 
L 211.553404 -93.080379 
L 214.031457 -91.609657 
L 216.509509 -88.644497 
L 218.987562 -86.965715 
L 221.465614 -86.675471 
L 223.943667 -88.031982 
L 226.421719 -88.66832 
L 228.899772 -86.731494 
L 231.377824 -84.129892 
L 233.855877 -84.776318 
L 236.333929 -85.282266 
L 238.811982 -85.813733 
L 241.290034 -86.356599 
L 243.768087 -85.087043 
L 246.246139 -84.594599 
L 248.724192 -85.111028 
L 251.202244 -85.212911 
L 253.680297 -86.413469 
L 256.158349 -87.349772 
L 258.636402 -86.290635 
L 261.114454 -84.975955 
L 263.592507 -83.89576 
L 266.070559 -84.097493 
L 268.548612 -85.423215 
L 271.026664 -86.068066 
L 273.504717 -84.544717 
L 275.982769 -82.577162 
L 278.460822 -82.097748 
L 280.938874 -82.453554 
L 283.416927 -83.916893 
L 285.894979 -84.87063 
L 288.373032 -83.852161 
L 290.851084 -82.953887 
L 293.329137 -82.989896 
L 295.807189 -82.968483 
L 298.285242 -83.808835 
L 300.763294 -84.157811 
L 303.241347 -83.798406 
L 305.719399 -84.259162 
L 308.197452 -84.559878 
L 310.675504 -84.170147 
L 313.153556 -84.519978 
L 315.631609 -85.235767 
L 318.109661 -85.304028 
L 320.587714 -85.587062 
L 323.065766 -86.252466 
L 325.543819 -86.150587 
L 328.021871 -86.382464 
L 330.499924 -87.319421 
L 332.977976 -87.066788 
L 335.456029 -87.382712 
L 337.934081 -87.348823 
L 340.412134 -86.693546 
L 342.890186 -86.106203 
L 345.368239 -85.49161 
L 347.846291 -85.432536 
L 350.324344 -86.273408 
L 352.802396 -86.718807 
L 355.280449 -84.886743 
L 357.758501 -82.795495 
L 360.236554 -81.557006 
L 362.714606 -81.430842 
L 365.192659 -83.240882 
L 367.670711 -83.841851 
L 370.148764 -82.516996 
L 372.626816 -80.478339 
L 375.104869 -79.633152 
L 377.582921 -80.289895 
L 380.060974 -83.181426 
L 382.539026 -84.201387 
L 385.017079 -81.815911 
L 387.495131 -79.803292 
L 389.973184 -79.557073 
L 392.451236 -79.931046 
L 394.929289 -82.450323 
L 397.407341 -84.122284 
L 399.885394 -82.798676 
L 402.363446 -80.734038 
L 404.841499 -80.047541 
L 407.319551 -81.012872 
L 409.797604 -83.850036 
L 412.275656 -84.526031 
L 414.753709 -82.383553 
L 417.231761 -81.36259 
L 419.709814 -82.198701 
L 422.187866 -81.619867 
L 424.665919 -82.097588 
L 427.143971 -82.64224 
L 429.622024 -81.857251 
L 432.100076 -80.941314 
L 434.578129 -80.894096 
L 437.056181 -80.672012 
L 439.534234 -81.991243 
L 442.012286 -82.565316 
L 444.490339 -81.795211 
L 446.968391 -81.658184 
L 449.446444 -82.745209 
L 451.924496 -82.844551 
L 454.402548 -82.512083 
L 456.880601 -82.622129 
L 459.358653 -82.47863 
L 461.836706 -83.863349 
L 464.314758 -84.629632 
L 466.792811 -83.370945 
L 469.270863 -83.495898 
L 471.748916 -84.207395 
L 474.226968 -83.390846 
L 476.705021 -83.19518 
L 479.183073 -84.191048 
L 481.661126 -83.766865 
L 484.139178 -84.538413 
L 486.617231 -86.571488 
L 489.095283 -86.11303 
L 491.573336 -85.31562 
L 494.051388 -85.630662 
L 496.529441 -89.748341 
L 499.007493 -92.874501 
L 501.485546 -93.664325 
L 503.963598 -93.716651 
L 506.441651 -88.382782 
L 508.919703 -86.610287 
L 511.397756 -86.019887 
L 513.875808 -88.594434 
L 516.353861 -88.073861 
L 518.831913 -86.135047 
L 521.309966 -85.90661 
L 523.788018 -86.945597 
L 526.266071 -87.201707 
L 528.744123 -86.952138 
L 531.222176 -88.738172 
L 533.700228 -90.277731 
L 536.178281 -90.718121 
L 538.656333 -92.480499 
L 541.134386 -94.170374 
L 543.612438 -96.165999 
L 546.090491 -95.392808 
L 548.568543 -91.562264 
L 551.046596 -90.624149 
L 553.524648 -90.992262 
L 556.002701 -91.459553 
L 558.480753 -94.003222 
L 560.958806 -96.307365 
L 563.436858 -95.626537 
L 565.914911 -95.361631 
L 568.392963 -94.577564 
L 570.871016 -96.191979 
L 573.349068 -98.49465 
L 575.827121 -99.922725 
L 578.305173 -99.645895 
L 580.783226 -98.80935 
L 583.261278 -100.5259 
L 585.739331 -104.312019 
L 588.217383 -109.296195 
L 590.695436 -112.357808 
L 593.173488 -112.9602 
L 595.651541 -112.135929 
L 598.129593 -112.851498 
L 600.607645 -115.455881 
L 603.085698 -120.277924 
L 605.56375 -120.606867 
L 608.041803 -118.810416 
L 610.519855 -117.519315 
L 612.997908 -116.042903 
L 615.47596 -116.910091 
L 617.954013 -118.751931 
L 620.432065 -118.268227 
L 622.910118 -115.441853 
L 625.38817 -112.843242 
L 627.866223 -110.951075 
L 630.344275 -110.524898 
L 632.822328 -110.355385 
L 635.30038 -109.402476 
L 637.778433 -107.795975 
L 640.256485 -106.977974 
L 642.734538 -106.644333 
L 645.21259 -106.984008 
L 647.690643 -106.917592 
L 650.168695 -106.25297 
L 652.646748 -106.16724 
L 655.1248 -107.884564 
L 657.602853 -109.668351 
L 660.080905 -109.90667 
L 662.558958 -109.372462 
L 665.03701 -110.111731 
L 667.515063 -112.641364 
L 669.993115 -116.225443 
L 672.471168 -118.357884 
L 674.94922 -118.112102 
L 677.427273 -116.930527 
L 677.427273 -160.243951 
L 677.427273 -160.243951 
L 674.94922 -159.480768 
L 672.471168 -158.560408 
L 669.993115 -156.943601 
L 667.515063 -156.379351 
L 665.03701 -156.677604 
L 662.558958 -156.21947 
L 660.080905 -154.579002 
L 657.602853 -153.55774 
L 655.1248 -152.711498 
L 652.646748 -152.647082 
L 650.168695 -152.63841 
L 647.690643 -151.381531 
L 645.21259 -149.515968 
L 642.734538 -148.319158 
L 640.256485 -148.078214 
L 637.778433 -147.380341 
L 635.30038 -147.117899 
L 632.822328 -147.849637 
L 630.344275 -146.103495 
L 627.866223 -144.611874 
L 625.38817 -142.763605 
L 622.910118 -142.513918 
L 620.432065 -142.682545 
L 617.954013 -140.57694 
L 615.47596 -137.922015 
L 612.997908 -136.131472 
L 610.519855 -134.5019 
L 608.041803 -134.037188 
L 605.56375 -133.105278 
L 603.085698 -131.401154 
L 600.607645 -130.735712 
L 598.129593 -130.389527 
L 595.651541 -128.984594 
L 593.173488 -127.653088 
L 590.695436 -127.323801 
L 588.217383 -127.220071 
L 585.739331 -127.584603 
L 583.261278 -127.903511 
L 580.783226 -126.57751 
L 578.305173 -125.041963 
L 575.827121 -124.247726 
L 573.349068 -123.713608 
L 570.871016 -122.633304 
L 568.392963 -121.483202 
L 565.914911 -119.699237 
L 563.436858 -119.151254 
L 560.958806 -119.137881 
L 558.480753 -118.081853 
L 556.002701 -116.90658 
L 553.524648 -115.68251 
L 551.046596 -114.536928 
L 548.568543 -113.734936 
L 546.090491 -112.237856 
L 543.612438 -110.25148 
L 541.134386 -109.036047 
L 538.656333 -107.665787 
L 536.178281 -106.989783 
L 533.700228 -106.907096 
L 531.222176 -107.547948 
L 528.744123 -106.418164 
L 526.266071 -104.306803 
L 523.788018 -103.126717 
L 521.309966 -103.551251 
L 518.831913 -105.926083 
L 516.353861 -106.095153 
L 513.875808 -104.506273 
L 511.397756 -103.026744 
L 508.919703 -100.751175 
L 506.441651 -98.842241 
L 503.963598 -97.495853 
L 501.485546 -99.017015 
L 499.007493 -96.364296 
L 496.529441 -94.307816 
L 494.051388 -95.5986 
L 491.573336 -94.977587 
L 489.095283 -93.598044 
L 486.617231 -93.024354 
L 484.139178 -93.500926 
L 481.661126 -94.663974 
L 479.183073 -94.896185 
L 476.705021 -94.349161 
L 474.226968 -93.733808 
L 471.748916 -94.279605 
L 469.270863 -94.255833 
L 466.792811 -94.337301 
L 464.314758 -94.749726 
L 461.836706 -94.652767 
L 459.358653 -94.465016 
L 456.880601 -94.481389 
L 454.402548 -95.341145 
L 451.924496 -97.815765 
L 449.446444 -100.312852 
L 446.968391 -100.958349 
L 444.490339 -99.662353 
L 442.012286 -98.596406 
L 439.534234 -99.970598 
L 437.056181 -104.07864 
L 434.578129 -104.896707 
L 432.100076 -103.51412 
L 429.622024 -99.849541 
L 427.143971 -99.748954 
L 424.665919 -100.945375 
L 422.187866 -102.804462 
L 419.709814 -104.013568 
L 417.231761 -104.043911 
L 414.753709 -101.87271 
L 412.275656 -101.570811 
L 409.797604 -104.906686 
L 407.319551 -109.294019 
L 404.841499 -112.053251 
L 402.363446 -110.817547 
L 399.885394 -108.924789 
L 397.407341 -109.953221 
L 394.929289 -112.287976 
L 392.451236 -116.659241 
L 389.973184 -118.770793 
L 387.495131 -117.939306 
L 385.017079 -114.519599 
L 382.539026 -112.215418 
L 380.060974 -114.741605 
L 377.582921 -119.716596 
L 375.104869 -121.889609 
L 372.626816 -119.561341 
L 370.148764 -117.211244 
L 367.670711 -117.3959 
L 365.192659 -118.074151 
L 362.714606 -120.82812 
L 360.236554 -119.658887 
L 357.758501 -115.471238 
L 355.280449 -110.915665 
L 352.802396 -107.753127 
L 350.324344 -107.886377 
L 347.846291 -108.956015 
L 345.368239 -107.920709 
L 342.890186 -105.098767 
L 340.412134 -102.519542 
L 337.934081 -102.680152 
L 335.456029 -102.584278 
L 332.977976 -101.648412 
L 330.499924 -101.624736 
L 328.021871 -100.317635 
L 325.543819 -99.99239 
L 323.065766 -100.275641 
L 320.587714 -99.832819 
L 318.109661 -100.26015 
L 315.631609 -99.724714 
L 313.153556 -98.205296 
L 310.675504 -97.62772 
L 308.197452 -97.851128 
L 305.719399 -98.363524 
L 303.241347 -97.695909 
L 300.763294 -97.51025 
L 298.285242 -97.997553 
L 295.807189 -99.65731 
L 293.329137 -101.111969 
L 290.851084 -100.592094 
L 288.373032 -99.297018 
L 285.894979 -98.888351 
L 283.416927 -99.8623 
L 280.938874 -101.736512 
L 278.460822 -103.701428 
L 275.982769 -103.454547 
L 273.504717 -100.333313 
L 271.026664 -99.411342 
L 268.548612 -100.472602 
L 266.070559 -102.816007 
L 263.592507 -105.242109 
L 261.114454 -103.933484 
L 258.636402 -101.776182 
L 256.158349 -101.438126 
L 253.680297 -103.927761 
L 251.202244 -108.074503 
L 248.724192 -110.444701 
L 246.246139 -111.122457 
L 243.768087 -108.822679 
L 241.290034 -107.353229 
L 238.811982 -109.397933 
L 236.333929 -113.758467 
L 233.855877 -116.912628 
L 231.377824 -116.193173 
L 228.899772 -111.747134 
L 226.421719 -110.616841 
L 223.943667 -112.44693 
L 221.465614 -116.278057 
L 218.987562 -118.897599 
L 216.509509 -118.660828 
L 214.031457 -115.954156 
L 211.553404 -114.833863 
L 209.075352 -116.575988 
L 206.597299 -119.930662 
L 204.119247 -120.661621 
L 201.641194 -117.465757 
L 199.163142 -113.460849 
L 196.685089 -111.454482 
L 194.207037 -109.948725 
L 191.728984 -110.703883 
L 189.250932 -111.598533 
L 186.772879 -109.713804 
L 184.294827 -107.363 
L 181.816774 -106.628716 
L 179.338722 -106.421362 
L 176.860669 -106.827915 
L 174.382617 -107.908043 
L 171.904564 -107.074002 
L 169.426512 -105.904071 
L 166.948459 -105.688102 
L 164.470407 -104.864126 
L 161.992355 -104.402591 
L 159.514302 -103.901354 
L 157.03625 -103.009731 
L 154.558197 -102.943249 
L 152.080145 -102.991925 
L 149.602092 -101.700995 
L 147.12404 -99.926681 
L 144.645987 -99.584057 
L 142.167935 -99.620604 
L 139.689882 -101.245463 
L 137.21183 -102.423029 
L 134.733777 -100.945313 
L 132.255725 -99.017909 
L 129.777672 -98.088396 
L 127.29962 -98.072241 
L 124.821567 -100.506455 
L 122.343515 -102.002019 
L 119.865462 -99.606208 
L 117.38741 -95.084158 
L 114.909357 -93.514198 
L 112.431305 -94.449299 
L 109.953252 -97.881015 
L 107.4752 -98.952269 
L 104.997147 -95.241617 
L 102.519095 -90.696441 
L 100.041042 -88.466554 
L 97.56299 -88.440708 
L 95.084937 -89.914007 
L 92.606885 -90.21147 
L 90.128832 -87.473019 
L 87.65078 -84.340019 
L 85.172727 -83.240928 
z
" style="stroke: #000080; stroke-opacity: 0.2"/>
    </defs>
    <g clip-path="url(#pc321de52e7)">
     <use xlink:href="#mb078037f5d" x="0" y="360" style="fill: #000080; fill-opacity: 0.2; stroke: #000080; stroke-opacity: 0.2"/>
    </g>
   </g>
   <g id="line2d_1">
    <path d="M 85.172727 280.298421 
L 87.65078 279.646411 
L 90.128832 277.056359 
L 92.606885 274.024398 
L 95.084937 274.54757 
L 97.56299 276.145626 
L 100.041042 276.147674 
L 102.519095 274.366441 
L 104.997147 270.930669 
L 107.4752 268.310376 
L 109.953252 269.196271 
L 112.431305 270.28722 
L 114.909357 269.484422 
L 117.38741 268.088739 
L 119.865462 265.288839 
L 122.343515 263.511206 
L 124.821567 262.81816 
L 127.29962 262.474846 
L 129.777672 261.045512 
L 132.255725 259.936175 
L 134.733777 259.396872 
L 137.21183 258.166087 
L 139.689882 257.698475 
L 144.645987 257.886583 
L 147.12404 257.669336 
L 149.602092 257.040564 
L 154.558197 255.456677 
L 159.514302 253.522248 
L 161.992355 253.076681 
L 164.470407 252.451625 
L 166.948459 251.395066 
L 171.904564 250.247228 
L 174.382617 249.024842 
L 179.338722 248.050724 
L 181.816774 246.79931 
L 186.772879 245.391721 
L 189.250932 244.675905 
L 194.207037 242.9323 
L 199.163142 241.338763 
L 201.641194 240.399816 
L 204.119247 239.19493 
L 209.075352 238.471785 
L 211.553404 237.450851 
L 214.031457 236.248507 
L 216.509509 234.902756 
L 218.987562 233.934626 
L 221.465614 233.546906 
L 223.943667 232.977581 
L 228.899772 230.595159 
L 233.855877 226.936825 
L 238.811982 225.701695 
L 241.290034 224.586486 
L 243.768087 223.003373 
L 246.246139 221.042344 
L 248.724192 219.646499 
L 253.680297 218.153018 
L 256.158349 216.882508 
L 258.636402 215.397546 
L 261.114454 213.743105 
L 263.592507 212.348341 
L 266.070559 211.771727 
L 271.026664 209.402765 
L 273.504717 208.08092 
L 275.982769 206.521987 
L 278.460822 205.330236 
L 280.938874 204.519976 
L 283.416927 203.43426 
L 288.373032 200.701657 
L 293.329137 197.730826 
L 295.807189 196.811119 
L 298.285242 195.550145 
L 300.763294 194.04661 
L 305.719399 190.738234 
L 310.675504 188.145392 
L 313.153556 186.46662 
L 315.631609 184.645245 
L 318.109661 182.992368 
L 320.587714 182.01574 
L 325.543819 179.881848 
L 328.021871 178.49319 
L 330.499924 176.696842 
L 332.977976 175.381983 
L 335.456029 173.893631 
L 337.934081 172.911781 
L 340.412134 172.199537 
L 345.368239 169.211048 
L 347.846291 167.762478 
L 350.324344 167.025273 
L 355.280449 164.932587 
L 357.758501 163.46645 
L 360.236554 161.753938 
L 362.714606 160.372289 
L 367.670711 159.127703 
L 370.148764 158.828433 
L 372.626816 157.837631 
L 375.104869 156.455337 
L 377.582921 155.694123 
L 380.060974 155.58493 
L 382.539026 155.122208 
L 385.017079 154.483419 
L 389.973184 152.578952 
L 392.451236 151.971737 
L 397.407341 151.475719 
L 399.885394 151.617333 
L 402.363446 150.811961 
L 404.841499 149.698254 
L 407.319551 148.801565 
L 409.797604 148.690522 
L 412.275656 148.467247 
L 414.753709 148.110805 
L 417.231761 147.128462 
L 419.709814 146.367295 
L 422.187866 145.828047 
L 424.665919 145.677666 
L 427.143971 145.750121 
L 429.622024 145.616218 
L 434.578129 143.666444 
L 437.056181 143.199288 
L 442.012286 143.348433 
L 444.490339 143.071896 
L 446.968391 142.495092 
L 449.446444 141.557696 
L 451.924496 141.194304 
L 459.358653 141.349859 
L 461.836706 140.584782 
L 466.792811 139.614103 
L 474.226968 139.630736 
L 476.705021 139.01715 
L 479.183073 138.277649 
L 481.661126 137.70698 
L 484.139178 137.669643 
L 486.617231 137.505625 
L 489.095283 137.47303 
L 491.573336 137.132467 
L 494.051388 136.232097 
L 496.529441 136.312831 
L 499.007493 136.266141 
L 501.485546 136.442801 
L 503.963598 136.834494 
L 506.441651 136.93767 
L 511.397756 135.741111 
L 513.875808 134.839494 
L 516.353861 134.766463 
L 518.831913 134.44498 
L 521.309966 133.797804 
L 523.788018 132.456827 
L 528.744123 131.28548 
L 533.700228 131.437063 
L 536.178281 131.113267 
L 541.134386 129.69295 
L 543.612438 129.333757 
L 546.090491 129.475048 
L 548.568543 129.336326 
L 551.046596 128.887667 
L 553.524648 127.960303 
L 558.480753 126.916165 
L 560.958806 126.543319 
L 563.436858 126.635522 
L 565.914911 126.436918 
L 568.392963 125.692097 
L 573.349068 124.737448 
L 575.827121 124.773079 
L 578.305173 124.441778 
L 580.783226 123.985838 
L 583.261278 122.882535 
L 585.739331 122.292064 
L 590.695436 121.916882 
L 593.173488 122.280204 
L 595.651541 122.220197 
L 598.129593 121.483708 
L 600.607645 120.956063 
L 603.085698 120.004819 
L 605.56375 119.658162 
L 608.041803 120.034404 
L 610.519855 120.116612 
L 612.997908 119.589121 
L 615.47596 118.841315 
L 617.954013 118.408673 
L 620.432065 118.273409 
L 622.910118 118.834291 
L 625.38817 118.968724 
L 627.866223 117.933393 
L 630.344275 117.179642 
L 632.822328 116.739378 
L 637.778433 117.603154 
L 642.734538 117.025499 
L 647.690643 115.716325 
L 652.646748 115.495462 
L 655.1248 115.221683 
L 657.602853 114.0998 
L 662.558958 112.831718 
L 665.03701 112.526111 
L 667.515063 112.640275 
L 669.993115 112.012099 
L 672.471168 110.96668 
L 674.94922 110.648865 
L 677.427273 110.523686 
L 677.427273 110.523686 
" clip-path="url(#pc321de52e7)" style="fill: none; stroke: #000000; stroke-width: 1.5; stroke-linecap: round"/>
   </g>
   <g id="line2d_2">
    <path d="M 85.172727 280.298421 
L 87.65078 279.597514 
L 90.128832 276.892609 
L 92.606885 273.734304 
L 95.084937 274.251193 
L 97.56299 275.894935 
L 100.041042 275.919725 
L 102.519095 274.077224 
L 104.997147 270.554757 
L 107.4752 267.930917 
L 109.953252 268.894631 
L 112.431305 270.078796 
L 114.909357 269.387411 
L 117.38741 267.988695 
L 119.865462 265.211313 
L 122.343515 263.451288 
L 124.821567 262.777351 
L 127.29962 262.553429 
L 129.777672 261.321219 
L 132.255725 260.340421 
L 134.733777 259.939219 
L 137.21183 258.856813 
L 139.689882 258.662317 
L 144.645987 259.551865 
L 147.12404 259.849369 
L 154.558197 259.186183 
L 157.03625 258.68073 
L 159.514302 258.352288 
L 161.992355 258.507064 
L 164.470407 258.470285 
L 166.948459 257.853945 
L 171.904564 257.593045 
L 174.382617 256.852062 
L 179.338722 257.341119 
L 181.816774 256.679333 
L 191.728984 256.028799 
L 199.163142 255.043314 
L 201.641194 254.509632 
L 204.119247 253.742667 
L 206.597299 254.048939 
L 209.075352 254.674679 
L 211.553404 254.621135 
L 214.031457 254.353382 
L 216.509509 253.796487 
L 218.987562 253.654447 
L 223.943667 254.982758 
L 228.899772 254.61755 
L 231.377824 253.07598 
L 233.855877 252.208203 
L 236.333929 253.310301 
L 238.811982 254.622517 
L 241.290034 254.947728 
L 243.768087 254.198079 
L 246.246139 252.87138 
L 248.724192 252.743215 
L 251.202244 253.452046 
L 253.680297 254.422858 
L 256.158349 254.803087 
L 258.636402 254.706911 
L 261.114454 254.053619 
L 263.592507 253.539967 
L 266.070559 254.383213 
L 268.548612 254.743611 
L 271.026664 254.890838 
L 273.504717 254.758739 
L 275.982769 253.849597 
L 278.460822 253.97155 
L 280.938874 254.706458 
L 285.894979 255.070739 
L 288.373032 255.04401 
L 290.851084 254.59559 
L 293.329137 254.397144 
L 295.807189 255.150244 
L 298.285242 255.748484 
L 300.763294 256.212961 
L 303.241347 256.107756 
L 305.719399 255.593711 
L 308.197452 255.816664 
L 310.675504 256.214025 
L 313.153556 256.039596 
L 315.631609 255.419703 
L 318.109661 255.222643 
L 320.587714 255.367664 
L 323.065766 254.910623 
L 325.543819 255.051541 
L 328.021871 254.816958 
L 330.499924 253.890677 
L 332.977976 254.019187 
L 335.456029 253.861009 
L 337.934081 254.039904 
L 340.412134 254.443255 
L 345.368239 252.649883 
L 347.846291 252.448909 
L 350.324344 252.987347 
L 352.802396 253.066248 
L 355.280449 252.314072 
L 357.758501 250.888681 
L 360.236554 249.30241 
L 362.714606 249.070924 
L 365.192659 249.992045 
L 367.670711 250.220848 
L 370.148764 250.759273 
L 372.626816 250.175604 
L 375.104869 249.27379 
L 377.582921 250.049484 
L 380.060974 251.637428 
L 382.539026 252.418899 
L 385.017079 252.057655 
L 387.495131 250.920583 
L 389.973184 250.395252 
L 392.451236 251.409279 
L 394.929289 252.909289 
L 397.407341 253.578084 
L 399.885394 254.454362 
L 404.841499 253.364853 
L 407.319551 254.381434 
L 409.797604 255.794105 
L 412.275656 257.009573 
L 414.753709 257.379891 
L 417.231761 256.158796 
L 419.709814 255.45911 
L 422.187866 256.322484 
L 424.665919 257.421536 
L 427.143971 257.76933 
L 429.622024 257.657551 
L 432.100076 255.745111 
L 434.578129 254.902932 
L 437.056181 255.589255 
L 439.534234 257.283691 
L 442.012286 257.813089 
L 444.490339 257.269568 
L 446.968391 256.071374 
L 449.446444 255.578583 
L 451.924496 256.527589 
L 454.402548 258.063417 
L 456.880601 258.36157 
L 459.358653 257.937716 
L 461.836706 256.463598 
L 464.314758 255.726748 
L 466.792811 256.448732 
L 469.270863 256.988254 
L 474.226968 256.587757 
L 479.183073 254.188212 
L 481.661126 254.364897 
L 484.139178 254.980305 
L 486.617231 254.524778 
L 494.051388 252.521783 
L 496.529441 251.339563 
L 499.007493 249.20122 
L 501.485546 247.396481 
L 503.963598 247.317389 
L 506.441651 247.698257 
L 508.919703 246.737237 
L 511.397756 245.564883 
L 513.875808 244.24287 
L 516.353861 243.516321 
L 518.831913 243.610923 
L 521.309966 244.082534 
L 523.788018 243.705976 
L 526.266071 242.995702 
L 528.744123 242.630251 
L 531.222176 241.252507 
L 536.178281 239.702899 
L 543.612438 235.560737 
L 546.090491 234.912038 
L 548.568543 235.430063 
L 551.046596 235.098948 
L 553.524648 234.266234 
L 556.002701 233.631821 
L 558.480753 232.22215 
L 560.958806 230.678381 
L 563.436858 231.125715 
L 565.914911 230.799565 
L 568.392963 230.162045 
L 573.349068 227.53136 
L 575.827121 226.583166 
L 578.305173 226.028263 
L 580.783226 225.663247 
L 583.261278 224.253953 
L 585.739331 222.628533 
L 588.217383 220.845684 
L 590.695436 219.363083 
L 595.651541 218.713401 
L 598.129593 217.667769 
L 600.607645 216.494105 
L 603.085698 214.382146 
L 605.56375 213.548647 
L 610.519855 214.361628 
L 612.997908 214.127061 
L 615.47596 212.914598 
L 617.954013 211.147413 
L 620.432065 210.7413 
L 622.910118 212.056619 
L 625.38817 213.083487 
L 627.866223 212.885139 
L 630.344275 212.030351 
L 632.822328 210.850809 
L 635.30038 210.670247 
L 640.256485 210.869095 
L 642.734538 210.000632 
L 645.21259 208.65243 
L 647.690643 207.456942 
L 650.168695 206.540207 
L 652.646748 206.294986 
L 655.1248 205.679074 
L 657.602853 204.089303 
L 662.558958 201.912341 
L 665.03701 200.644588 
L 667.515063 199.79716 
L 669.993115 198.365212 
L 672.471168 196.482448 
L 674.94922 195.482339 
L 677.427273 194.778858 
L 677.427273 194.778858 
" clip-path="url(#pc321de52e7)" style="fill: none; stroke: #a52a2a; stroke-width: 1.5; stroke-linecap: round"/>
   </g>
   <g id="line2d_3">
    <path d="M 85.172727 280.298421 
L 87.65078 279.757566 
L 90.128832 277.31643 
L 92.606885 274.422028 
L 95.084937 275.113632 
L 97.56299 276.982075 
L 100.041042 277.21596 
L 102.519095 275.655213 
L 104.997147 272.515872 
L 107.4752 270.162158 
L 112.431305 273.560457 
L 114.909357 273.434021 
L 117.38741 272.366863 
L 119.865462 270.085634 
L 122.343515 268.702503 
L 124.821567 268.636751 
L 127.29962 268.770486 
L 129.777672 267.848773 
L 132.255725 267.16043 
L 134.733777 266.886607 
L 137.21183 265.984166 
L 142.167935 266.229517 
L 144.645987 265.962291 
L 147.12404 266.420054 
L 149.602092 266.313189 
L 154.558197 265.384992 
L 159.514302 263.367017 
L 164.470407 263.169369 
L 166.948459 262.730573 
L 169.426512 262.577182 
L 171.904564 261.610453 
L 174.382617 260.930482 
L 176.860669 261.33604 
L 179.338722 261.095724 
L 181.816774 260.18494 
L 184.294827 259.402933 
L 186.772879 258.461915 
L 189.250932 257.303027 
L 194.207037 256.389384 
L 199.163142 255.036119 
L 201.641194 254.061903 
L 204.119247 253.333713 
L 206.597299 253.916858 
L 209.075352 255.313253 
L 211.553404 256.042879 
L 216.509509 256.347338 
L 218.987562 257.068343 
L 221.465614 258.523236 
L 223.943667 259.760544 
L 226.421719 260.35742 
L 228.899772 260.760686 
L 231.377824 259.838468 
L 233.855877 259.155527 
L 236.333929 260.479633 
L 238.811982 262.394167 
L 241.290034 263.145086 
L 243.768087 263.045139 
L 246.246139 262.141472 
L 248.724192 262.222135 
L 251.202244 263.356293 
L 253.680297 264.829385 
L 256.158349 265.606051 
L 258.636402 265.966592 
L 261.114454 265.54528 
L 263.592507 265.431066 
L 266.070559 266.54325 
L 268.548612 267.052092 
L 273.504717 267.560985 
L 275.982769 266.984146 
L 278.460822 267.100412 
L 280.938874 267.904967 
L 283.416927 268.110404 
L 285.894979 268.120509 
L 288.373032 268.42541 
L 293.329137 267.949067 
L 295.807189 268.687104 
L 298.285242 269.096806 
L 303.241347 269.252843 
L 305.719399 268.688657 
L 308.197452 268.794497 
L 310.675504 269.101066 
L 313.153556 268.637363 
L 315.631609 267.519759 
L 318.109661 267.217911 
L 320.587714 267.290059 
L 323.065766 266.735946 
L 325.543819 266.928512 
L 328.021871 266.64995 
L 330.499924 265.527921 
L 332.977976 265.6424 
L 335.456029 265.016505 
L 337.934081 264.985513 
L 340.412134 265.393456 
L 345.368239 263.29384 
L 347.846291 262.805725 
L 350.324344 262.920108 
L 352.802396 262.764033 
L 355.280449 262.098796 
L 357.758501 260.866634 
L 360.236554 259.392054 
L 362.714606 258.870519 
L 365.192659 259.342484 
L 367.670711 259.381125 
L 370.148764 260.13588 
L 372.626816 259.98016 
L 375.104869 259.238619 
L 377.582921 259.996755 
L 380.060974 261.038484 
L 382.539026 261.791598 
L 385.017079 261.832245 
L 387.495131 261.128701 
L 389.973184 260.836067 
L 394.929289 262.630851 
L 397.407341 262.962248 
L 399.885394 264.138268 
L 402.363446 264.224207 
L 404.841499 263.949604 
L 407.319551 264.846555 
L 409.797604 265.621639 
L 412.275656 266.951579 
L 414.753709 267.871868 
L 417.231761 267.296749 
L 419.709814 266.893866 
L 422.187866 267.787836 
L 424.665919 268.478519 
L 429.622024 269.146604 
L 432.100076 267.772283 
L 434.578129 267.104598 
L 437.056181 267.624674 
L 439.534234 269.01908 
L 442.012286 269.419139 
L 444.490339 269.271218 
L 446.968391 268.691734 
L 449.446444 268.47097 
L 451.924496 269.669842 
L 454.402548 271.073386 
L 456.880601 271.448241 
L 459.358653 271.528177 
L 461.836706 270.741942 
L 464.314758 270.310321 
L 466.792811 271.145877 
L 469.270863 271.124134 
L 471.748916 270.7565 
L 474.226968 271.437673 
L 476.705021 271.227829 
L 479.183073 270.456383 
L 481.661126 270.78458 
L 484.139178 270.980331 
L 486.617231 270.202079 
L 489.095283 270.144463 
L 491.573336 269.853397 
L 494.051388 269.385369 
L 496.529441 267.971922 
L 499.007493 265.380601 
L 501.485546 263.65933 
L 503.963598 264.393748 
L 506.441651 266.387489 
L 508.919703 266.319269 
L 511.397756 265.476685 
L 513.875808 263.449646 
L 516.353861 262.915493 
L 518.831913 263.969435 
L 521.309966 265.27107 
L 523.788018 264.963843 
L 526.266071 264.245745 
L 528.744123 263.314849 
L 531.222176 261.85694 
L 533.700228 261.407587 
L 536.178281 261.146048 
L 538.656333 259.926857 
L 543.612438 256.791261 
L 546.090491 256.184668 
L 548.568543 257.3514 
L 551.046596 257.419461 
L 556.002701 255.816934 
L 558.480753 253.957462 
L 560.958806 252.277377 
L 563.436858 252.611105 
L 565.914911 252.469566 
L 568.392963 251.969617 
L 570.871016 250.587359 
L 573.349068 248.895871 
L 575.827121 247.914775 
L 580.783226 247.30657 
L 583.261278 245.785294 
L 585.739331 244.051689 
L 588.217383 241.741867 
L 590.695436 240.159195 
L 593.173488 239.693356 
L 595.651541 239.439738 
L 598.129593 238.379487 
L 600.607645 236.904203 
L 603.085698 234.160461 
L 605.56375 233.143928 
L 610.519855 233.989393 
L 612.997908 233.912812 
L 615.47596 232.583947 
L 617.954013 230.335564 
L 620.432065 229.524614 
L 622.910118 231.022114 
L 625.38817 232.196577 
L 627.866223 232.218526 
L 630.344275 231.685804 
L 632.822328 230.897489 
L 635.30038 231.739813 
L 637.778433 232.411842 
L 642.734538 232.518255 
L 645.21259 231.750012 
L 647.690643 230.850439 
L 650.168695 230.55431 
L 652.646748 230.592839 
L 655.1248 229.701969 
L 657.602853 228.386954 
L 665.03701 226.605332 
L 667.515063 225.489643 
L 669.993115 223.415478 
L 672.471168 221.540854 
L 674.94922 221.203565 
L 677.427273 221.412761 
L 677.427273 221.412761 
" clip-path="url(#pc321de52e7)" style="fill: none; stroke: #000080; stroke-width: 1.5; stroke-linecap: round"/>
   </g>
   <g id="patch_3">
    <path d="M 55.56 310.98 
L 55.56 28.08 
" style="fill: none; stroke: #ffffff; stroke-width: 1.25; stroke-linejoin: miter; stroke-linecap: square"/>
   </g>
   <g id="patch_4">
    <path d="M 707.04 310.98 
L 707.04 28.08 
" style="fill: none; stroke: #ffffff; stroke-width: 1.25; stroke-linejoin: miter; stroke-linecap: square"/>
   </g>
   <g id="patch_5">
    <path d="M 55.56 310.98 
L 707.04 310.98 
" style="fill: none; stroke: #ffffff; stroke-width: 1.25; stroke-linejoin: miter; stroke-linecap: square"/>
   </g>
   <g id="patch_6">
    <path d="M 55.56 28.08 
L 707.04 28.08 
" style="fill: none; stroke: #ffffff; stroke-width: 1.25; stroke-linejoin: miter; stroke-linecap: square"/>
   </g>
   <g id="text_18">
    <!-- eNATL60 -->
    <g style="fill: #262626" transform="translate(354.837188 22.08) scale(0.12 -0.12)">
     <defs>
      <path id="DejaVuSans-4e" d="M 628 4666 
L 1478 4666 
L 3547 763 
L 3547 4666 
L 4159 4666 
L 4159 0 
L 3309 0 
L 1241 3903 
L 1241 0 
L 628 0 
L 628 4666 
z
" transform="scale(0.015625)"/>
      <path id="DejaVuSans-41" d="M 2188 4044 
L 1331 1722 
L 3047 1722 
L 2188 4044 
z
M 1831 4666 
L 2547 4666 
L 4325 0 
L 3669 0 
L 3244 1197 
L 1141 1197 
L 716 0 
L 50 0 
L 1831 4666 
z
" transform="scale(0.015625)"/>
      <path id="DejaVuSans-4c" d="M 628 4666 
L 1259 4666 
L 1259 531 
L 3531 531 
L 3531 0 
L 628 0 
L 628 4666 
z
" transform="scale(0.015625)"/>
     </defs>
     <use xlink:href="#DejaVuSans-65"/>
     <use xlink:href="#DejaVuSans-4e" transform="translate(61.523438 0)"/>
     <use xlink:href="#DejaVuSans-41" transform="translate(136.328125 0)"/>
     <use xlink:href="#DejaVuSans-54" transform="translate(196.986328 0)"/>
     <use xlink:href="#DejaVuSans-4c" transform="translate(258.070312 0)"/>
     <use xlink:href="#DejaVuSans-36" transform="translate(313.783203 0)"/>
     <use xlink:href="#DejaVuSans-30" transform="translate(377.40625 0)"/>
    </g>
   </g>
   <g id="legend_1">
    <g id="patch_7">
     <path d="M 572.797031 85.317813 
L 699.34 85.317813 
Q 701.54 85.317813 701.54 83.117813 
L 701.54 35.78 
Q 701.54 33.58 699.34 33.58 
L 572.797031 33.58 
Q 570.597031 33.58 570.597031 35.78 
L 570.597031 83.117813 
Q 570.597031 85.317813 572.797031 85.317813 
z
" style="fill: #eaeaf2; opacity: 0.8; stroke: #cccccc; stroke-linejoin: miter"/>
    </g>
    <g id="line2d_4">
     <path d="M 574.997031 42.488281 
L 585.997031 42.488281 
L 596.997031 42.488281 
" style="fill: none; stroke: #000000; stroke-width: 1.5; stroke-linecap: round"/>
    </g>
    <g id="text_19">
     <!-- Reduced Gravity -->
     <g style="fill: #262626" transform="translate(605.797031 46.338281) scale(0.11 -0.11)">
      <defs>
       <path id="DejaVuSans-75" d="M 544 1381 
L 544 3500 
L 1119 3500 
L 1119 1403 
Q 1119 906 1312 657 
Q 1506 409 1894 409 
Q 2359 409 2629 706 
Q 2900 1003 2900 1516 
L 2900 3500 
L 3475 3500 
L 3475 0 
L 2900 0 
L 2900 538 
Q 2691 219 2414 64 
Q 2138 -91 1772 -91 
Q 1169 -91 856 284 
Q 544 659 544 1381 
z
M 1991 3584 
L 1991 3584 
z
" transform="scale(0.015625)"/>
       <path id="DejaVuSans-63" d="M 3122 3366 
L 3122 2828 
Q 2878 2963 2633 3030 
Q 2388 3097 2138 3097 
Q 1578 3097 1268 2742 
Q 959 2388 959 1747 
Q 959 1106 1268 751 
Q 1578 397 2138 397 
Q 2388 397 2633 464 
Q 2878 531 3122 666 
L 3122 134 
Q 2881 22 2623 -34 
Q 2366 -91 2075 -91 
Q 1284 -91 818 406 
Q 353 903 353 1747 
Q 353 2603 823 3093 
Q 1294 3584 2113 3584 
Q 2378 3584 2631 3529 
Q 2884 3475 3122 3366 
z
" transform="scale(0.015625)"/>
       <path id="DejaVuSans-47" d="M 3809 666 
L 3809 1919 
L 2778 1919 
L 2778 2438 
L 4434 2438 
L 4434 434 
Q 4069 175 3628 42 
Q 3188 -91 2688 -91 
Q 1594 -91 976 548 
Q 359 1188 359 2328 
Q 359 3472 976 4111 
Q 1594 4750 2688 4750 
Q 3144 4750 3555 4637 
Q 3966 4525 4313 4306 
L 4313 3634 
Q 3963 3931 3569 4081 
Q 3175 4231 2741 4231 
Q 1884 4231 1454 3753 
Q 1025 3275 1025 2328 
Q 1025 1384 1454 906 
Q 1884 428 2741 428 
Q 3075 428 3337 486 
Q 3600 544 3809 666 
z
" transform="scale(0.015625)"/>
       <path id="DejaVuSans-72" d="M 2631 2963 
Q 2534 3019 2420 3045 
Q 2306 3072 2169 3072 
Q 1681 3072 1420 2755 
Q 1159 2438 1159 1844 
L 1159 0 
L 581 0 
L 581 3500 
L 1159 3500 
L 1159 2956 
Q 1341 3275 1631 3429 
Q 1922 3584 2338 3584 
Q 2397 3584 2469 3576 
Q 2541 3569 2628 3553 
L 2631 2963 
z
" transform="scale(0.015625)"/>
       <path id="DejaVuSans-76" d="M 191 3500 
L 800 3500 
L 1894 563 
L 2988 3500 
L 3597 3500 
L 2284 0 
L 1503 0 
L 191 3500 
z
" transform="scale(0.015625)"/>
       <path id="DejaVuSans-74" d="M 1172 4494 
L 1172 3500 
L 2356 3500 
L 2356 3053 
L 1172 3053 
L 1172 1153 
Q 1172 725 1289 603 
Q 1406 481 1766 481 
L 2356 481 
L 2356 0 
L 1766 0 
Q 1100 0 847 248 
Q 594 497 594 1153 
L 594 3053 
L 172 3053 
L 172 3500 
L 594 3500 
L 594 4494 
L 1172 4494 
z
" transform="scale(0.015625)"/>
      </defs>
      <use xlink:href="#DejaVuSans-52"/>
      <use xlink:href="#DejaVuSans-65" transform="translate(64.982422 0)"/>
      <use xlink:href="#DejaVuSans-64" transform="translate(126.505859 0)"/>
      <use xlink:href="#DejaVuSans-75" transform="translate(189.982422 0)"/>
      <use xlink:href="#DejaVuSans-63" transform="translate(253.361328 0)"/>
      <use xlink:href="#DejaVuSans-65" transform="translate(308.341797 0)"/>
      <use xlink:href="#DejaVuSans-64" transform="translate(369.865234 0)"/>
      <use xlink:href="#DejaVuSans-20" transform="translate(433.341797 0)"/>
      <use xlink:href="#DejaVuSans-47" transform="translate(465.128906 0)"/>
      <use xlink:href="#DejaVuSans-72" transform="translate(542.619141 0)"/>
      <use xlink:href="#DejaVuSans-61" transform="translate(583.732422 0)"/>
      <use xlink:href="#DejaVuSans-76" transform="translate(645.011719 0)"/>
      <use xlink:href="#DejaVuSans-69" transform="translate(704.191406 0)"/>
      <use xlink:href="#DejaVuSans-74" transform="translate(731.974609 0)"/>
      <use xlink:href="#DejaVuSans-79" transform="translate(771.183594 0)"/>
     </g>
    </g>
    <g id="line2d_5">
     <path d="M 574.997031 58.634219 
L 585.997031 58.634219 
L 596.997031 58.634219 
" style="fill: none; stroke: #a52a2a; stroke-width: 1.5; stroke-linecap: round"/>
    </g>
    <g id="text_20">
     <!-- VarDyn -->
     <g style="fill: #262626" transform="translate(605.797031 62.484219) scale(0.11 -0.11)">
      <defs>
       <path id="DejaVuSans-56" d="M 1831 0 
L 50 4666 
L 709 4666 
L 2188 738 
L 3669 4666 
L 4325 4666 
L 2547 0 
L 1831 0 
z
" transform="scale(0.015625)"/>
       <path id="DejaVuSans-44" d="M 1259 4147 
L 1259 519 
L 2022 519 
Q 2988 519 3436 956 
Q 3884 1394 3884 2338 
Q 3884 3275 3436 3711 
Q 2988 4147 2022 4147 
L 1259 4147 
z
M 628 4666 
L 1925 4666 
Q 3281 4666 3915 4102 
Q 4550 3538 4550 2338 
Q 4550 1131 3912 565 
Q 3275 0 1925 0 
L 628 0 
L 628 4666 
z
" transform="scale(0.015625)"/>
      </defs>
      <use xlink:href="#DejaVuSans-56"/>
      <use xlink:href="#DejaVuSans-61" transform="translate(60.658203 0)"/>
      <use xlink:href="#DejaVuSans-72" transform="translate(121.9375 0)"/>
      <use xlink:href="#DejaVuSans-44" transform="translate(163.050781 0)"/>
      <use xlink:href="#DejaVuSans-79" transform="translate(240.052734 0)"/>
      <use xlink:href="#DejaVuSans-6e" transform="translate(299.232422 0)"/>
     </g>
    </g>
    <g id="line2d_6">
     <path d="M 574.997031 74.780156 
L 585.997031 74.780156 
L 596.997031 74.780156 
" style="fill: none; stroke: #000080; stroke-width: 1.5; stroke-linecap: round"/>
    </g>
    <g id="text_21">
     <!-- SurfML -->
     <g style="fill: #262626" transform="translate(605.797031 78.630156) scale(0.11 -0.11)">
      <defs>
       <path id="DejaVuSans-66" d="M 2375 4863 
L 2375 4384 
L 1825 4384 
Q 1516 4384 1395 4259 
Q 1275 4134 1275 3809 
L 1275 3500 
L 2222 3500 
L 2222 3053 
L 1275 3053 
L 1275 0 
L 697 0 
L 697 3053 
L 147 3053 
L 147 3500 
L 697 3500 
L 697 3744 
Q 697 4328 969 4595 
Q 1241 4863 1831 4863 
L 2375 4863 
z
" transform="scale(0.015625)"/>
      </defs>
      <use xlink:href="#DejaVuSans-53"/>
      <use xlink:href="#DejaVuSans-75" transform="translate(63.476562 0)"/>
      <use xlink:href="#DejaVuSans-72" transform="translate(126.855469 0)"/>
      <use xlink:href="#DejaVuSans-66" transform="translate(167.96875 0)"/>
      <use xlink:href="#DejaVuSans-4d" transform="translate(203.173828 0)"/>
      <use xlink:href="#DejaVuSans-4c" transform="translate(289.453125 0)"/>
     </g>
    </g>
   </g>
  </g>
 </g>
 <defs>
  <clipPath id="pc321de52e7">
   <rect x="55.56" y="28.08" width="651.48" height="282.9"/>
  </clipPath>
 </defs>
</svg>
