<?xml version="1.0" encoding="utf-8" standalone="no"?>
<!DOCTYPE svg PUBLIC "-//W3C//DTD SVG 1.1//EN"
  "http://www.w3.org/Graphics/SVG/1.1/DTD/svg11.dtd">
<svg xmlns:xlink="http://www.w3.org/1999/xlink" width="720pt" height="360pt" viewBox="0 0 720 360" xmlns="http://www.w3.org/2000/svg" version="1.1">
 <metadata>
  <rdf:RDF xmlns:dc="http://purl.org/dc/elements/1.1/" xmlns:cc="http://creativecommons.org/ns#" xmlns:rdf="http://www.w3.org/1999/02/22-rdf-syntax-ns#">
   <cc:Work>
    <dc:type rdf:resource="http://purl.org/dc/dcmitype/StillImage"/>
    <dc:date>2026-03-23T14:29:07.250483</dc:date>
    <dc:format>image/svg+xml</dc:format>
    <dc:creator>
     <cc:Agent>
      <dc:title>Matplotlib v3.10.6, https://matplotlib.org/</dc:title>
     </cc:Agent>
    </dc:creator>
   </cc:Work>
  </rdf:RDF>
 </metadata>
 <defs>
  <style type="text/css">*{stroke-linejoin: round; stroke-linecap: butt}</style>
 </defs>
 <g id="figure_1">
  <g id="patch_1">
   <path d="M 0 360 
L 720 360 
L 720 0 
L 0 0 
z
" style="fill: #ffffff"/>
  </g>
  <g id="axes_1">
   <g id="patch_2">
    <path d="M 55.56 310.98 
L 707.04 310.98 
L 707.04 28.08 
L 55.56 28.08 
z
" style="fill: #eaeaf2"/>
   </g>
   <g id="matplotlib.axis_1">
    <g id="xtick_1">
     <g id="text_1">
      <!-- 0 -->
      <g style="fill: #262626" transform="translate(80.479291 328.838281) scale(0.11 -0.11)">
       <defs>
        <path id="DejaVuSans-30" d="M 2034 4250 
Q 1547 4250 1301 3770 
Q 1056 3291 1056 2328 
Q 1056 1369 1301 889 
Q 1547 409 2034 409 
Q 2525 409 2770 889 
Q 3016 1369 3016 2328 
Q 3016 3291 2770 3770 
Q 2525 4250 2034 4250 
z
M 2034 4750 
Q 2819 4750 3233 4129 
Q 3647 3509 3647 2328 
Q 3647 1150 3233 529 
Q 2819 -91 2034 -91 
Q 1250 -91 836 529 
Q 422 1150 422 2328 
Q 422 3509 836 4129 
Q 1250 4750 2034 4750 
z
" transform="scale(0.015625)"/>
       </defs>
       <use xlink:href="#DejaVuSans-30"/>
      </g>
     </g>
    </g>
    <g id="xtick_2">
     <g id="text_2">
      <!-- 5 -->
      <g style="fill: #262626" transform="translate(223.766681 328.838281) scale(0.11 -0.11)">
       <defs>
        <path id="DejaVuSans-35" d="M 691 4666 
L 3169 4666 
L 3169 4134 
L 1269 4134 
L 1269 2991 
Q 1406 3038 1543 3061 
Q 1681 3084 1819 3084 
Q 2600 3084 3056 2656 
Q 3513 2228 3513 1497 
Q 3513 744 3044 326 
Q 2575 -91 1722 -91 
Q 1428 -91 1123 -41 
Q 819 9 494 109 
L 494 744 
Q 775 591 1075 516 
Q 1375 441 1709 441 
Q 2250 441 2565 725 
Q 2881 1009 2881 1497 
Q 2881 1984 2565 2268 
Q 2250 2553 1709 2553 
Q 1456 2553 1204 2497 
Q 953 2441 691 2322 
L 691 4666 
z
" transform="scale(0.015625)"/>
       </defs>
       <use xlink:href="#DejaVuSans-35"/>
      </g>
     </g>
    </g>
    <g id="xtick_3">
     <g id="text_3">
      <!-- 10 -->
      <g style="fill: #262626" transform="translate(363.554696 328.838281) scale(0.11 -0.11)">
       <defs>
        <path id="DejaVuSans-31" d="M 794 531 
L 1825 531 
L 1825 4091 
L 703 3866 
L 703 4441 
L 1819 4666 
L 2450 4666 
L 2450 531 
L 3481 531 
L 3481 0 
L 794 0 
L 794 531 
z
" transform="scale(0.015625)"/>
       </defs>
       <use xlink:href="#DejaVuSans-31"/>
       <use xlink:href="#DejaVuSans-30" transform="translate(63.623047 0)"/>
      </g>
     </g>
    </g>
    <g id="xtick_4">
     <g id="text_4">
      <!-- 15 -->
      <g style="fill: #262626" transform="translate(506.842086 328.838281) scale(0.11 -0.11)">
       <use xlink:href="#DejaVuSans-31"/>
       <use xlink:href="#DejaVuSans-35" transform="translate(63.623047 0)"/>
      </g>
     </g>
    </g>
    <g id="xtick_5">
     <g id="text_5">
      <!-- 20 -->
      <g style="fill: #262626" transform="translate(650.129476 328.838281) scale(0.11 -0.11)">
       <defs>
        <path id="DejaVuSans-32" d="M 1228 531 
L 3431 531 
L 3431 0 
L 469 0 
L 469 531 
Q 828 903 1448 1529 
Q 2069 2156 2228 2338 
Q 2531 2678 2651 2914 
Q 2772 3150 2772 3378 
Q 2772 3750 2511 3984 
Q 2250 4219 1831 4219 
Q 1534 4219 1204 4116 
Q 875 4013 500 3803 
L 500 4441 
Q 881 4594 1212 4672 
Q 1544 4750 1819 4750 
Q 2544 4750 2975 4387 
Q 3406 4025 3406 3419 
Q 3406 3131 3298 2873 
Q 3191 2616 2906 2266 
Q 2828 2175 2409 1742 
Q 1991 1309 1228 531 
z
" transform="scale(0.015625)"/>
       </defs>
       <use xlink:href="#DejaVuSans-32"/>
       <use xlink:href="#DejaVuSans-30" transform="translate(63.623047 0)"/>
      </g>
     </g>
    </g>
    <g id="text_6">
     <!-- Time [days] -->
     <g style="fill: #262626" transform="translate(345.868125 344.244062) scale(0.12 -0.12)">
      <defs>
       <path id="DejaVuSans-54" d="M -19 4666 
L 3928 4666 
L 3928 4134 
L 2272 4134 
L 2272 0 
L 1638 0 
L 1638 4134 
L -19 4134 
L -19 4666 
z
" transform="scale(0.015625)"/>
       <path id="DejaVuSans-69" d="M 603 3500 
L 1178 3500 
L 1178 0 
L 603 0 
L 603 3500 
z
M 603 4863 
L 1178 4863 
L 1178 4134 
L 603 4134 
L 603 4863 
z
" transform="scale(0.015625)"/>
       <path id="DejaVuSans-6d" d="M 3328 2828 
Q 3544 3216 3844 3400 
Q 4144 3584 4550 3584 
Q 5097 3584 5394 3201 
Q 5691 2819 5691 2113 
L 5691 0 
L 5113 0 
L 5113 2094 
Q 5113 2597 4934 2840 
Q 4756 3084 4391 3084 
Q 3944 3084 3684 2787 
Q 3425 2491 3425 1978 
L 3425 0 
L 2847 0 
L 2847 2094 
Q 2847 2600 2669 2842 
Q 2491 3084 2119 3084 
Q 1678 3084 1418 2786 
Q 1159 2488 1159 1978 
L 1159 0 
L 581 0 
L 581 3500 
L 1159 3500 
L 1159 2956 
Q 1356 3278 1631 3431 
Q 1906 3584 2284 3584 
Q 2666 3584 2933 3390 
Q 3200 3197 3328 2828 
z
" transform="scale(0.015625)"/>
       <path id="DejaVuSans-65" d="M 3597 1894 
L 3597 1613 
L 953 1613 
Q 991 1019 1311 708 
Q 1631 397 2203 397 
Q 2534 397 2845 478 
Q 3156 559 3463 722 
L 3463 178 
Q 3153 47 2828 -22 
Q 2503 -91 2169 -91 
Q 1331 -91 842 396 
Q 353 884 353 1716 
Q 353 2575 817 3079 
Q 1281 3584 2069 3584 
Q 2775 3584 3186 3129 
Q 3597 2675 3597 1894 
z
M 3022 2063 
Q 3016 2534 2758 2815 
Q 2500 3097 2075 3097 
Q 1594 3097 1305 2825 
Q 1016 2553 972 2059 
L 3022 2063 
z
" transform="scale(0.015625)"/>
       <path id="DejaVuSans-20" transform="scale(0.015625)"/>
       <path id="DejaVuSans-5b" d="M 550 4863 
L 1875 4863 
L 1875 4416 
L 1125 4416 
L 1125 -397 
L 1875 -397 
L 1875 -844 
L 550 -844 
L 550 4863 
z
" transform="scale(0.015625)"/>
       <path id="DejaVuSans-64" d="M 2906 2969 
L 2906 4863 
L 3481 4863 
L 3481 0 
L 2906 0 
L 2906 525 
Q 2725 213 2448 61 
Q 2172 -91 1784 -91 
Q 1150 -91 751 415 
Q 353 922 353 1747 
Q 353 2572 751 3078 
Q 1150 3584 1784 3584 
Q 2172 3584 2448 3432 
Q 2725 3281 2906 2969 
z
M 947 1747 
Q 947 1113 1208 752 
Q 1469 391 1925 391 
Q 2381 391 2643 752 
Q 2906 1113 2906 1747 
Q 2906 2381 2643 2742 
Q 2381 3103 1925 3103 
Q 1469 3103 1208 2742 
Q 947 2381 947 1747 
z
" transform="scale(0.015625)"/>
       <path id="DejaVuSans-61" d="M 2194 1759 
Q 1497 1759 1228 1600 
Q 959 1441 959 1056 
Q 959 750 1161 570 
Q 1363 391 1709 391 
Q 2188 391 2477 730 
Q 2766 1069 2766 1631 
L 2766 1759 
L 2194 1759 
z
M 3341 1997 
L 3341 0 
L 2766 0 
L 2766 531 
Q 2569 213 2275 61 
Q 1981 -91 1556 -91 
Q 1019 -91 701 211 
Q 384 513 384 1019 
Q 384 1609 779 1909 
Q 1175 2209 1959 2209 
L 2766 2209 
L 2766 2266 
Q 2766 2663 2505 2880 
Q 2244 3097 1772 3097 
Q 1472 3097 1187 3025 
Q 903 2953 641 2809 
L 641 3341 
Q 956 3463 1253 3523 
Q 1550 3584 1831 3584 
Q 2591 3584 2966 3190 
Q 3341 2797 3341 1997 
z
" transform="scale(0.015625)"/>
       <path id="DejaVuSans-79" d="M 2059 -325 
Q 1816 -950 1584 -1140 
Q 1353 -1331 966 -1331 
L 506 -1331 
L 506 -850 
L 844 -850 
Q 1081 -850 1212 -737 
Q 1344 -625 1503 -206 
L 1606 56 
L 191 3500 
L 800 3500 
L 1894 763 
L 2988 3500 
L 3597 3500 
L 2059 -325 
z
" transform="scale(0.015625)"/>
       <path id="DejaVuSans-73" d="M 2834 3397 
L 2834 2853 
Q 2591 2978 2328 3040 
Q 2066 3103 1784 3103 
Q 1356 3103 1142 2972 
Q 928 2841 928 2578 
Q 928 2378 1081 2264 
Q 1234 2150 1697 2047 
L 1894 2003 
Q 2506 1872 2764 1633 
Q 3022 1394 3022 966 
Q 3022 478 2636 193 
Q 2250 -91 1575 -91 
Q 1294 -91 989 -36 
Q 684 19 347 128 
L 347 722 
Q 666 556 975 473 
Q 1284 391 1588 391 
Q 1994 391 2212 530 
Q 2431 669 2431 922 
Q 2431 1156 2273 1281 
Q 2116 1406 1581 1522 
L 1381 1569 
Q 847 1681 609 1914 
Q 372 2147 372 2553 
Q 372 3047 722 3315 
Q 1072 3584 1716 3584 
Q 2034 3584 2315 3537 
Q 2597 3491 2834 3397 
z
" transform="scale(0.015625)"/>
       <path id="DejaVuSans-5d" d="M 1947 4863 
L 1947 -844 
L 622 -844 
L 622 -397 
L 1369 -397 
L 1369 4416 
L 622 4416 
L 622 4863 
L 1947 4863 
z
" transform="scale(0.015625)"/>
      </defs>
      <use xlink:href="#DejaVuSans-54"/>
      <use xlink:href="#DejaVuSans-69" transform="translate(57.958984 0)"/>
      <use xlink:href="#DejaVuSans-6d" transform="translate(85.742188 0)"/>
      <use xlink:href="#DejaVuSans-65" transform="translate(183.154297 0)"/>
      <use xlink:href="#DejaVuSans-20" transform="translate(244.677734 0)"/>
      <use xlink:href="#DejaVuSans-5b" transform="translate(276.464844 0)"/>
      <use xlink:href="#DejaVuSans-64" transform="translate(315.478516 0)"/>
      <use xlink:href="#DejaVuSans-61" transform="translate(378.955078 0)"/>
      <use xlink:href="#DejaVuSans-79" transform="translate(440.234375 0)"/>
      <use xlink:href="#DejaVuSans-73" transform="translate(499.414062 0)"/>
      <use xlink:href="#DejaVuSans-5d" transform="translate(551.513672 0)"/>
     </g>
    </g>
   </g>
   <g id="matplotlib.axis_2">
    <g id="ytick_1">
     <g id="text_7">
      <!-- 0.0 -->
      <g style="fill: #262626" transform="translate(28.566562 302.30005) scale(0.11 -0.11)">
       <defs>
        <path id="DejaVuSans-2e" d="M 684 794 
L 1344 794 
L 1344 0 
L 684 0 
L 684 794 
z
" transform="scale(0.015625)"/>
       </defs>
       <use xlink:href="#DejaVuSans-30"/>
       <use xlink:href="#DejaVuSans-2e" transform="translate(63.623047 0)"/>
       <use xlink:href="#DejaVuSans-30" transform="translate(95.410156 0)"/>
      </g>
     </g>
    </g>
    <g id="ytick_2">
     <g id="text_8">
      <!-- 0.2 -->
      <g style="fill: #262626" transform="translate(28.566562 250.863686) scale(0.11 -0.11)">
       <use xlink:href="#DejaVuSans-30"/>
       <use xlink:href="#DejaVuSans-2e" transform="translate(63.623047 0)"/>
       <use xlink:href="#DejaVuSans-32" transform="translate(95.410156 0)"/>
      </g>
     </g>
    </g>
    <g id="ytick_3">
     <g id="text_9">
      <!-- 0.4 -->
      <g style="fill: #262626" transform="translate(28.566562 199.427322) scale(0.11 -0.11)">
       <defs>
        <path id="DejaVuSans-34" d="M 2419 4116 
L 825 1625 
L 2419 1625 
L 2419 4116 
z
M 2253 4666 
L 3047 4666 
L 3047 1625 
L 3713 1625 
L 3713 1100 
L 3047 1100 
L 3047 0 
L 2419 0 
L 2419 1100 
L 313 1100 
L 313 1709 
L 2253 4666 
z
" transform="scale(0.015625)"/>
       </defs>
       <use xlink:href="#DejaVuSans-30"/>
       <use xlink:href="#DejaVuSans-2e" transform="translate(63.623047 0)"/>
       <use xlink:href="#DejaVuSans-34" transform="translate(95.410156 0)"/>
      </g>
     </g>
    </g>
    <g id="ytick_4">
     <g id="text_10">
      <!-- 0.6 -->
      <g style="fill: #262626" transform="translate(28.566562 147.990959) scale(0.11 -0.11)">
       <defs>
        <path id="DejaVuSans-36" d="M 2113 2584 
Q 1688 2584 1439 2293 
Q 1191 2003 1191 1497 
Q 1191 994 1439 701 
Q 1688 409 2113 409 
Q 2538 409 2786 701 
Q 3034 994 3034 1497 
Q 3034 2003 2786 2293 
Q 2538 2584 2113 2584 
z
M 3366 4563 
L 3366 3988 
Q 3128 4100 2886 4159 
Q 2644 4219 2406 4219 
Q 1781 4219 1451 3797 
Q 1122 3375 1075 2522 
Q 1259 2794 1537 2939 
Q 1816 3084 2150 3084 
Q 2853 3084 3261 2657 
Q 3669 2231 3669 1497 
Q 3669 778 3244 343 
Q 2819 -91 2113 -91 
Q 1303 -91 875 529 
Q 447 1150 447 2328 
Q 447 3434 972 4092 
Q 1497 4750 2381 4750 
Q 2619 4750 2861 4703 
Q 3103 4656 3366 4563 
z
" transform="scale(0.015625)"/>
       </defs>
       <use xlink:href="#DejaVuSans-30"/>
       <use xlink:href="#DejaVuSans-2e" transform="translate(63.623047 0)"/>
       <use xlink:href="#DejaVuSans-36" transform="translate(95.410156 0)"/>
      </g>
     </g>
    </g>
    <g id="ytick_5">
     <g id="text_11">
      <!-- 0.8 -->
      <g style="fill: #262626" transform="translate(28.566562 96.554595) scale(0.11 -0.11)">
       <defs>
        <path id="DejaVuSans-38" d="M 2034 2216 
Q 1584 2216 1326 1975 
Q 1069 1734 1069 1313 
Q 1069 891 1326 650 
Q 1584 409 2034 409 
Q 2484 409 2743 651 
Q 3003 894 3003 1313 
Q 3003 1734 2745 1975 
Q 2488 2216 2034 2216 
z
M 1403 2484 
Q 997 2584 770 2862 
Q 544 3141 544 3541 
Q 544 4100 942 4425 
Q 1341 4750 2034 4750 
Q 2731 4750 3128 4425 
Q 3525 4100 3525 3541 
Q 3525 3141 3298 2862 
Q 3072 2584 2669 2484 
Q 3125 2378 3379 2068 
Q 3634 1759 3634 1313 
Q 3634 634 3220 271 
Q 2806 -91 2034 -91 
Q 1263 -91 848 271 
Q 434 634 434 1313 
Q 434 1759 690 2068 
Q 947 2378 1403 2484 
z
M 1172 3481 
Q 1172 3119 1398 2916 
Q 1625 2713 2034 2713 
Q 2441 2713 2670 2916 
Q 2900 3119 2900 3481 
Q 2900 3844 2670 4047 
Q 2441 4250 2034 4250 
Q 1625 4250 1398 4047 
Q 1172 3844 1172 3481 
z
" transform="scale(0.015625)"/>
       </defs>
       <use xlink:href="#DejaVuSans-30"/>
       <use xlink:href="#DejaVuSans-2e" transform="translate(63.623047 0)"/>
       <use xlink:href="#DejaVuSans-38" transform="translate(95.410156 0)"/>
      </g>
     </g>
    </g>
    <g id="ytick_6">
     <g id="text_12">
      <!-- 1.0 -->
      <g style="fill: #262626" transform="translate(28.566562 45.118232) scale(0.11 -0.11)">
       <use xlink:href="#DejaVuSans-31"/>
       <use xlink:href="#DejaVuSans-2e" transform="translate(63.623047 0)"/>
       <use xlink:href="#DejaVuSans-30" transform="translate(95.410156 0)"/>
      </g>
     </g>
    </g>
    <g id="text_13">
     <!-- Dt ψ₂ nRMSE -->
     <g style="fill: #262626" transform="translate(22.070937 207.428437) rotate(-90) scale(0.12 -0.12)">
      <defs>
       <path id="DejaVuSans-44" d="M 1259 4147 
L 1259 519 
L 2022 519 
Q 2988 519 3436 956 
Q 3884 1394 3884 2338 
Q 3884 3275 3436 3711 
Q 2988 4147 2022 4147 
L 1259 4147 
z
M 628 4666 
L 1925 4666 
Q 3281 4666 3915 4102 
Q 4550 3538 4550 2338 
Q 4550 1131 3912 565 
Q 3275 0 1925 0 
L 628 0 
L 628 4666 
z
" transform="scale(0.015625)"/>
       <path id="DejaVuSans-74" d="M 1172 4494 
L 1172 3500 
L 2356 3500 
L 2356 3053 
L 1172 3053 
L 1172 1153 
Q 1172 725 1289 603 
Q 1406 481 1766 481 
L 2356 481 
L 2356 0 
L 1766 0 
Q 1100 0 847 248 
Q 594 497 594 1153 
L 594 3053 
L 172 3053 
L 172 3500 
L 594 3500 
L 594 4494 
L 1172 4494 
z
" transform="scale(0.015625)"/>
       <path id="DejaVuSans-3c8" d="M 1816 -78 
Q 1094 38 759 341 
Q 350 713 350 1472 
L 350 3500 
L 931 3500 
L 931 1494 
Q 931 922 1197 684 
Q 1428 478 1816 434 
L 1816 3500 
L 2388 3500 
L 2388 438 
Q 2797 481 3006 688 
Q 3272 950 3272 1497 
L 3272 3500 
L 3853 3500 
L 3853 1475 
Q 3853 688 3444 344 
Q 3075 34 2388 -75 
L 2388 -1331 
L 1816 -1331 
L 1816 -78 
z
" transform="scale(0.015625)"/>
       <path id="DejaVuSans-2082" d="M 838 356 
L 2163 356 
L 2163 0 
L 294 0 
L 294 343 
Q 400 440 597 615 
Q 1672 1568 1672 1862 
Q 1672 2068 1509 2194 
Q 1347 2321 1081 2321 
Q 919 2321 728 2266 
Q 538 2212 313 2103 
L 313 2487 
Q 553 2575 761 2618 
Q 969 2662 1147 2662 
Q 1600 2662 1872 2456 
Q 2144 2250 2144 1912 
Q 2144 1478 1109 590 
Q 934 440 838 356 
z
" transform="scale(0.015625)"/>
       <path id="DejaVuSans-6e" d="M 3513 2113 
L 3513 0 
L 2938 0 
L 2938 2094 
Q 2938 2591 2744 2837 
Q 2550 3084 2163 3084 
Q 1697 3084 1428 2787 
Q 1159 2491 1159 1978 
L 1159 0 
L 581 0 
L 581 3500 
L 1159 3500 
L 1159 2956 
Q 1366 3272 1645 3428 
Q 1925 3584 2291 3584 
Q 2894 3584 3203 3211 
Q 3513 2838 3513 2113 
z
" transform="scale(0.015625)"/>
       <path id="DejaVuSans-52" d="M 2841 2188 
Q 3044 2119 3236 1894 
Q 3428 1669 3622 1275 
L 4263 0 
L 3584 0 
L 2988 1197 
Q 2756 1666 2539 1819 
Q 2322 1972 1947 1972 
L 1259 1972 
L 1259 0 
L 628 0 
L 628 4666 
L 2053 4666 
Q 2853 4666 3247 4331 
Q 3641 3997 3641 3322 
Q 3641 2881 3436 2590 
Q 3231 2300 2841 2188 
z
M 1259 4147 
L 1259 2491 
L 2053 2491 
Q 2509 2491 2742 2702 
Q 2975 2913 2975 3322 
Q 2975 3731 2742 3939 
Q 2509 4147 2053 4147 
L 1259 4147 
z
" transform="scale(0.015625)"/>
       <path id="DejaVuSans-4d" d="M 628 4666 
L 1569 4666 
L 2759 1491 
L 3956 4666 
L 4897 4666 
L 4897 0 
L 4281 0 
L 4281 4097 
L 3078 897 
L 2444 897 
L 1241 4097 
L 1241 0 
L 628 0 
L 628 4666 
z
" transform="scale(0.015625)"/>
       <path id="DejaVuSans-53" d="M 3425 4513 
L 3425 3897 
Q 3066 4069 2747 4153 
Q 2428 4238 2131 4238 
Q 1616 4238 1336 4038 
Q 1056 3838 1056 3469 
Q 1056 3159 1242 3001 
Q 1428 2844 1947 2747 
L 2328 2669 
Q 3034 2534 3370 2195 
Q 3706 1856 3706 1288 
Q 3706 609 3251 259 
Q 2797 -91 1919 -91 
Q 1588 -91 1214 -16 
Q 841 59 441 206 
L 441 856 
Q 825 641 1194 531 
Q 1563 422 1919 422 
Q 2459 422 2753 634 
Q 3047 847 3047 1241 
Q 3047 1584 2836 1778 
Q 2625 1972 2144 2069 
L 1759 2144 
Q 1053 2284 737 2584 
Q 422 2884 422 3419 
Q 422 4038 858 4394 
Q 1294 4750 2059 4750 
Q 2388 4750 2728 4690 
Q 3069 4631 3425 4513 
z
" transform="scale(0.015625)"/>
       <path id="DejaVuSans-45" d="M 628 4666 
L 3578 4666 
L 3578 4134 
L 1259 4134 
L 1259 2753 
L 3481 2753 
L 3481 2222 
L 1259 2222 
L 1259 531 
L 3634 531 
L 3634 0 
L 628 0 
L 628 4666 
z
" transform="scale(0.015625)"/>
      </defs>
      <use xlink:href="#DejaVuSans-44"/>
      <use xlink:href="#DejaVuSans-74" transform="translate(77.001953 0)"/>
      <use xlink:href="#DejaVuSans-20" transform="translate(116.210938 0)"/>
      <use xlink:href="#DejaVuSans-3c8" transform="translate(147.998047 0)"/>
      <use xlink:href="#DejaVuSans-2082" transform="translate(213.964844 0)"/>
      <use xlink:href="#DejaVuSans-20" transform="translate(254.052734 0)"/>
      <use xlink:href="#DejaVuSans-6e" transform="translate(285.839844 0)"/>
      <use xlink:href="#DejaVuSans-52" transform="translate(349.21875 0)"/>
      <use xlink:href="#DejaVuSans-4d" transform="translate(418.701172 0)"/>
      <use xlink:href="#DejaVuSans-53" transform="translate(504.980469 0)"/>
      <use xlink:href="#DejaVuSans-45" transform="translate(568.457031 0)"/>
     </g>
    </g>
   </g>
   <g id="FillBetweenPolyCollection_1">
    <defs>
     <path id="mb059abc83c" d="M 85.172727 -182.964848 
L 85.172727 -157.386332 
L 87.56085 -156.653937 
L 89.948974 -156.051513 
L 92.337097 -155.587366 
L 94.72522 -155.261753 
L 97.113343 -155.06252 
L 99.501466 -154.95667 
L 101.889589 -154.871737 
L 104.277713 -154.662172 
L 106.665836 -154.104961 
L 109.053959 -153.081032 
L 111.442082 -151.7579 
L 113.830205 -150.374357 
L 116.218328 -149.068282 
L 118.606452 -147.892603 
L 120.994575 -146.854151 
L 123.382698 -145.937788 
L 125.770821 -145.117664 
L 128.158944 -144.363553 
L 130.547067 -143.644731 
L 132.935191 -142.933111 
L 135.323314 -142.204123 
L 137.711437 -141.43637 
L 140.09956 -140.610717 
L 142.487683 -139.711255 
L 144.875806 -138.727049 
L 147.26393 -137.652825 
L 149.652053 -136.489758 
L 152.040176 -135.245438 
L 154.428299 -133.932633 
L 156.816422 -132.568651 
L 159.204545 -131.175088 
L 161.592669 -129.778188 
L 163.980792 -128.409362 
L 166.368915 -127.104095 
L 168.757038 -125.899397 
L 171.145161 -124.831611 
L 173.533284 -123.93307 
L 175.921408 -123.231142 
L 178.309531 -122.748042 
L 180.697654 -122.500632 
L 183.085777 -122.500695 
L 185.4739 -122.754316 
L 187.862023 -123.261197 
L 190.250147 -124.014003 
L 192.63827 -124.997636 
L 195.026393 -126.189479 
L 197.414516 -127.560423 
L 199.802639 -129.07628 
L 202.190762 -130.699793 
L 204.578886 -132.39304 
L 206.967009 -134.119348 
L 209.355132 -135.844927 
L 211.743255 -137.540256 
L 214.131378 -139.180783 
L 216.519501 -140.747263 
L 218.907625 -142.225813 
L 221.295748 -143.60718 
L 223.683871 -144.886525 
L 226.071994 -146.062323 
L 228.460117 -147.135887 
L 230.84824 -148.110487 
L 233.236364 -148.990592 
L 235.624487 -149.781387 
L 238.01261 -150.488434 
L 240.400733 -151.117292 
L 242.788856 -151.674243 
L 245.176979 -152.166065 
L 247.565103 -152.599508 
L 249.953226 -152.980669 
L 252.341349 -153.314072 
L 254.729472 -153.60239 
L 257.117595 -153.846354 
L 259.505718 -154.044899 
L 261.893842 -154.196372 
L 264.281965 -154.300075 
L 266.670088 -154.357402 
L 269.058211 -154.373136 
L 271.446334 -154.355354 
L 273.834457 -154.31411 
L 276.222581 -154.259472 
L 278.610704 -154.19893 
L 280.998827 -154.135076 
L 283.38695 -154.065842 
L 285.775073 -153.985314 
L 288.163196 -153.885606 
L 290.55132 -153.759233 
L 292.939443 -153.600354 
L 295.327566 -153.404915 
L 297.715689 -153.169883 
L 300.103812 -152.892446 
L 302.491935 -152.56943 
L 304.880059 -152.195632 
L 307.268182 -151.764731 
L 309.656305 -151.269332 
L 312.044428 -150.702671 
L 314.432551 -150.060844 
L 316.820674 -149.341145 
L 319.208798 -148.544082 
L 321.596921 -147.673311 
L 323.985044 -146.733916 
L 326.373167 -145.734044 
L 328.76129 -144.682929 
L 331.149413 -143.588911 
L 333.537537 -142.45951 
L 335.92566 -141.304462 
L 338.313783 -140.134465 
L 340.701906 -138.962034 
L 343.090029 -137.802955 
L 345.478152 -136.674208 
L 347.866276 -135.592272 
L 350.254399 -134.573958 
L 352.642522 -133.634031 
L 355.030645 -132.783682 
L 357.418768 -132.031694 
L 359.806891 -131.384208 
L 362.195015 -130.844094 
L 364.583138 -130.410957 
L 366.971261 -130.082107 
L 369.359384 -129.852254 
L 371.747507 -129.714113 
L 374.13563 -129.659462 
L 376.523754 -129.679807 
L 378.911877 -129.76594 
L 381.3 -129.908416 
L 383.688123 -130.097355 
L 386.076246 -130.323359 
L 388.46437 -130.577963 
L 390.852493 -130.85299 
L 393.240616 -131.141714 
L 395.628739 -131.438805 
L 398.016862 -131.739723 
L 400.404985 -132.040511 
L 402.793109 -132.336987 
L 405.181232 -132.624432 
L 407.569355 -132.897769 
L 409.957478 -133.150778 
L 412.345601 -133.376749 
L 414.733724 -133.567975 
L 417.121848 -133.716051 
L 419.509971 -133.813402 
L 421.898094 -133.856407 
L 424.286217 -133.850735 
L 426.67434 -133.813307 
L 429.062463 -133.775102 
L 431.450587 -133.779528 
L 433.83871 -133.874004 
L 436.226833 -134.100788 
L 438.614956 -134.488349 
L 441.003079 -135.046499 
L 443.391202 -135.772191 
L 445.779326 -136.656677 
L 448.167449 -137.69005 
L 450.555572 -138.860114 
L 452.943695 -140.148868 
L 455.331818 -141.53004 
L 457.719941 -142.970434 
L 460.108065 -144.432201 
L 462.496188 -145.877452 
L 464.884311 -147.27298 
L 467.272434 -148.593526 
L 469.660557 -149.82096 
L 472.04868 -150.943553 
L 474.436804 -151.953879 
L 476.824927 -152.847446 
L 479.21305 -153.619859 
L 481.601173 -154.266016 
L 483.989296 -154.779963 
L 486.377419 -155.153838 
L 488.765543 -155.37932 
L 491.153666 -155.448705 
L 493.541789 -155.356378 
L 495.929912 -155.099928 
L 498.318035 -154.680727 
L 500.706158 -154.105048 
L 503.094282 -153.385357 
L 505.482405 -152.540907 
L 507.870528 -151.596441 
L 510.258651 -150.582076 
L 512.646774 -149.532898 
L 515.034897 -148.483999 
L 517.423021 -147.467032 
L 519.811144 -146.509534 
L 522.199267 -145.629587 
L 524.58739 -144.837537 
L 526.975513 -144.137376 
L 529.363636 -143.52887 
L 531.75176 -143.007918 
L 534.139883 -142.569015 
L 536.528006 -142.205894 
L 538.916129 -141.913941 
L 541.304252 -141.692656 
L 543.692375 -141.545697 
L 546.080499 -141.48178 
L 548.468622 -141.51358 
L 550.856745 -141.657063 
L 553.244868 -141.929252 
L 555.632991 -142.345912 
L 558.021114 -142.921803 
L 560.409238 -143.666864 
L 562.797361 -144.585347 
L 565.185484 -145.676853 
L 567.573607 -146.935661 
L 569.96173 -148.350352 
L 572.349853 -149.903846 
L 574.737977 -151.576406 
L 577.1261 -153.344549 
L 579.514223 -155.183587 
L 581.902346 -157.069774 
L 584.290469 -158.979314 
L 586.678592 -160.89221 
L 589.066716 -162.792851 
L 591.454839 -164.669682 
L 593.842962 -166.513933 
L 596.231085 -168.322074 
L 598.619208 -170.09677 
L 601.007331 -171.838147 
L 603.395455 -173.545562 
L 605.783578 -175.217352 
L 608.171701 -176.84718 
L 610.559824 -178.429963 
L 612.947947 -179.959357 
L 615.33607 -181.428055 
L 617.724194 -182.827187 
L 620.112317 -184.149319 
L 622.50044 -185.388591 
L 624.888563 -186.53989 
L 627.276686 -187.601016 
L 629.664809 -188.569192 
L 632.052933 -189.446431 
L 634.441056 -190.23657 
L 636.829179 -190.944004 
L 639.217302 -191.576587 
L 641.605425 -192.147073 
L 643.993548 -192.665565 
L 646.381672 -193.147832 
L 648.769795 -193.611843 
L 651.157918 -194.072036 
L 653.546041 -194.544729 
L 655.934164 -195.050535 
L 658.322287 -195.612163 
L 660.710411 -196.256091 
L 663.098534 -197.011213 
L 665.486657 -197.901375 
L 667.87478 -198.942796 
L 670.262903 -200.143913 
L 672.651026 -201.502069 
L 675.03915 -203.006875 
L 677.427273 -204.643018 
L 677.427273 -315.40104 
L 677.427273 -315.40104 
L 675.03915 -310.244437 
L 672.651026 -305.051175 
L 670.262903 -299.843002 
L 667.87478 -294.644741 
L 665.486657 -289.483536 
L 663.098534 -284.388261 
L 660.710411 -279.388419 
L 658.322287 -274.513687 
L 655.934164 -269.793476 
L 653.546041 -265.25543 
L 651.157918 -260.924268 
L 648.769795 -256.822578 
L 646.381672 -252.968993 
L 643.993548 -249.37793 
L 641.605425 -246.058232 
L 639.217302 -243.01503 
L 636.829179 -240.248008 
L 634.441056 -237.750445 
L 632.052933 -235.511458 
L 629.664809 -233.516134 
L 627.276686 -231.746555 
L 624.888563 -230.183109 
L 622.50044 -228.806831 
L 620.112317 -227.597199 
L 617.724194 -226.533954 
L 615.33607 -225.596903 
L 612.947947 -224.764657 
L 610.559824 -224.014095 
L 608.171701 -223.326707 
L 605.783578 -222.687819 
L 603.395455 -222.080425 
L 601.007331 -221.489602 
L 598.619208 -220.90765 
L 596.231085 -220.321887 
L 593.842962 -219.718409 
L 591.454839 -219.088959 
L 589.066716 -218.426894 
L 586.678592 -217.723692 
L 584.290469 -216.975825 
L 581.902346 -216.181149 
L 579.514223 -215.335365 
L 577.1261 -214.435386 
L 574.737977 -213.47912 
L 572.349853 -212.46696 
L 569.96173 -211.396853 
L 567.573607 -210.264882 
L 565.185484 -209.069027 
L 562.797361 -207.807694 
L 560.409238 -206.482062 
L 558.021114 -205.0938 
L 555.632991 -203.64725 
L 553.244868 -202.151461 
L 550.856745 -200.620805 
L 548.468622 -199.07457 
L 546.080499 -197.536568 
L 543.692375 -196.033787 
L 541.304252 -194.594815 
L 538.916129 -193.246187 
L 536.528006 -192.00924 
L 534.139883 -190.897842 
L 531.75176 -189.918071 
L 529.363636 -189.066885 
L 526.975513 -188.333665 
L 524.58739 -187.701574 
L 522.199267 -187.151029 
L 519.811144 -186.661469 
L 517.423021 -186.2124 
L 515.034897 -185.784212 
L 512.646774 -185.360052 
L 510.258651 -184.926969 
L 507.870528 -184.475212 
L 505.482405 -183.998363 
L 503.094282 -183.493088 
L 500.706158 -182.959137 
L 498.318035 -182.397732 
L 495.929912 -181.810925 
L 493.541789 -181.198452 
L 491.153666 -180.557742 
L 488.765543 -179.884368 
L 486.377419 -179.173365 
L 483.989296 -178.4234 
L 481.601173 -177.63786 
L 479.21305 -176.825036 
L 476.824927 -175.998348 
L 474.436804 -175.174737 
L 472.04868 -174.372519 
L 469.660557 -173.612146 
L 467.272434 -172.913907 
L 464.884311 -172.297646 
L 462.496188 -171.779885 
L 460.108065 -171.371852 
L 457.719941 -171.07642 
L 455.331818 -170.889812 
L 452.943695 -170.802801 
L 450.555572 -170.801887 
L 448.167449 -170.871965 
L 445.779326 -170.999202 
L 443.391202 -171.17164 
L 441.003079 -171.379471 
L 438.614956 -171.615143 
L 436.226833 -171.875721 
L 433.83871 -172.161132 
L 431.450587 -172.474525 
L 429.062463 -172.818395 
L 426.67434 -173.193089 
L 424.286217 -173.598383 
L 421.898094 -174.033027 
L 419.509971 -174.494722 
L 417.121848 -174.982736 
L 414.733724 -175.499131 
L 412.345601 -176.046336 
L 409.957478 -176.625608 
L 407.569355 -177.237928 
L 405.181232 -177.882565 
L 402.793109 -178.556734 
L 400.404985 -179.255046 
L 398.016862 -179.969245 
L 395.628739 -180.689 
L 393.240616 -181.402644 
L 390.852493 -182.097738 
L 388.46437 -182.761602 
L 386.076246 -183.381696 
L 383.688123 -183.947369 
L 381.3 -184.449711 
L 378.911877 -184.883133 
L 376.523754 -185.245881 
L 374.13563 -185.539307 
L 371.747507 -185.767088 
L 369.359384 -185.935122 
L 366.971261 -186.051052 
L 364.583138 -186.123295 
L 362.195015 -186.160521 
L 359.806891 -186.17074 
L 357.418768 -186.161085 
L 355.030645 -186.135954 
L 352.642522 -186.095223 
L 350.254399 -186.033569 
L 347.866276 -185.942372 
L 345.478152 -185.812217 
L 343.090029 -185.635536 
L 340.701906 -185.403875 
L 338.313783 -185.110749 
L 335.92566 -184.751898 
L 333.537537 -184.322674 
L 331.149413 -183.820366 
L 328.76129 -183.243031 
L 326.373167 -182.58906 
L 323.985044 -181.858773 
L 321.596921 -181.051469 
L 319.208798 -180.169469 
L 316.820674 -179.213578 
L 314.432551 -178.187038 
L 312.044428 -177.094742 
L 309.656305 -175.943725 
L 307.268182 -174.746584 
L 304.880059 -173.517541 
L 302.491935 -172.275665 
L 300.103812 -171.044748 
L 297.715689 -169.850373 
L 295.327566 -168.720282 
L 292.939443 -167.680985 
L 290.55132 -166.756489 
L 288.163196 -165.967378 
L 285.775073 -165.326326 
L 283.38695 -164.838727 
L 280.998827 -164.504281 
L 278.610704 -164.31825 
L 276.222581 -164.274933 
L 273.834457 -164.370612 
L 271.446334 -164.602106 
L 269.058211 -164.96737 
L 266.670088 -165.463425 
L 264.281965 -166.083695 
L 261.893842 -166.818371 
L 259.505718 -167.653561 
L 257.117595 -168.572053 
L 254.729472 -169.555734 
L 252.341349 -170.586005 
L 249.953226 -171.645563 
L 247.565103 -172.719467 
L 245.176979 -173.794714 
L 242.788856 -174.86225 
L 240.400733 -175.916906 
L 238.01261 -176.957019 
L 235.624487 -177.98433 
L 233.236364 -179.003549 
L 230.84824 -180.020981 
L 228.460117 -181.042976 
L 226.071994 -182.07517 
L 223.683871 -183.121295 
L 221.295748 -184.18089 
L 218.907625 -185.249177 
L 216.519501 -186.316272 
L 214.131378 -187.367116 
L 211.743255 -188.382325 
L 209.355132 -189.339031 
L 206.967009 -190.213091 
L 204.578886 -190.98175 
L 202.190762 -191.623689 
L 199.802639 -192.117746 
L 197.414516 -192.446515 
L 195.026393 -192.596653 
L 192.63827 -192.557784 
L 190.250147 -192.323675 
L 187.862023 -191.893588 
L 185.4739 -191.270966 
L 183.085777 -190.46289 
L 180.697654 -189.48199 
L 178.309531 -188.344532 
L 175.921408 -187.068831 
L 173.533284 -185.675112 
L 171.145161 -184.183404 
L 168.757038 -182.615142 
L 166.368915 -180.99262 
L 163.980792 -179.339873 
L 161.592669 -177.68292 
L 159.204545 -176.050357 
L 156.816422 -174.471176 
L 154.428299 -172.973854 
L 152.040176 -171.584686 
L 149.652053 -170.323118 
L 147.26393 -169.201164 
L 144.875806 -168.22247 
L 142.487683 -167.380467 
L 140.09956 -166.659528 
L 137.711437 -166.036783 
L 135.323314 -165.484367 
L 132.935191 -164.972492 
L 130.547067 -164.473189 
L 128.158944 -163.96312 
L 125.770821 -163.425378 
L 123.382698 -162.852015 
L 120.994575 -162.245885 
L 118.606452 -161.621873 
L 116.218328 -161.010065 
L 113.830205 -160.463386 
L 111.442082 -160.074069 
L 109.053959 -160.009073 
L 106.665836 -160.52531 
L 104.277713 -161.797027 
L 101.889589 -163.701932 
L 99.501466 -166.006774 
L 97.113343 -168.554252 
L 94.72522 -171.260279 
L 92.337097 -174.078803 
L 89.948974 -176.981686 
L 87.56085 -179.949345 
L 85.172727 -182.964848 
z
" style="stroke: #000080; stroke-opacity: 0.1"/>
    </defs>
    <g clip-path="url(#p79c4af8827)">
     <use xlink:href="#mb059abc83c" x="0" y="360" style="fill: #000080; fill-opacity: 0.1; stroke: #000080; stroke-opacity: 0.1"/>
    </g>
   </g>
   <g id="FillBetweenPolyCollection_2">
    <path d="M 85.172727 -35.518615 
L 85.172727 59.96109 
L 87.56085 62.704304 
L 89.948974 65.562136 
L 92.337097 68.497743 
L 94.72522 71.45253 
L 97.113343 74.3636 
L 99.501466 77.176927 
L 101.889589 79.847625 
L 104.277713 82.337234 
L 106.665836 84.613427 
L 109.053959 86.652256 
L 111.442082 88.440459 
L 113.830205 89.973875 
L 116.218328 91.255742 
L 118.606452 92.293985 
L 120.994575 93.100466 
L 123.382698 93.691265 
L 125.770821 94.08684 
L 128.158944 94.312694 
L 130.547067 94.397259 
L 132.935191 94.369449 
L 135.323314 94.258614 
L 137.711437 94.09361 
L 140.09956 93.90527 
L 142.487683 93.726103 
L 144.875806 93.587611 
L 147.26393 93.516699 
L 149.652053 93.530264 
L 152.040176 93.630731 
L 154.428299 93.804645 
L 156.816422 94.02447 
L 159.204545 94.253009 
L 161.592669 94.448343 
L 163.980792 94.568982 
L 166.368915 94.578883 
L 168.757038 94.450832 
L 171.145161 94.16799 
L 173.533284 93.724233 
L 175.921408 93.122116 
L 178.309531 92.370341 
L 180.697654 91.481497 
L 183.085777 90.470985 
L 185.4739 89.35719 
L 187.862023 88.162538 
L 190.250147 86.914184 
L 192.63827 85.644025 
L 195.026393 84.386429 
L 197.414516 83.176516 
L 199.802639 82.046611 
L 202.190762 81.022497 
L 204.578886 80.121428 
L 206.967009 79.35142 
L 209.355132 78.709998 
L 211.743255 78.186584 
L 214.131378 77.764992 
L 216.519501 77.425166 
L 218.907625 77.145392 
L 221.295748 76.904862 
L 223.683871 76.685839 
L 226.071994 76.474933 
L 228.460117 76.263618 
L 230.84824 76.047711 
L 233.236364 75.827759 
L 235.624487 75.607766 
L 238.01261 75.39348 
L 240.400733 75.191237 
L 242.788856 75.007815 
L 245.176979 74.847677 
L 247.565103 74.713341 
L 249.953226 74.605063 
L 252.341349 74.521465 
L 254.729472 74.457896 
L 257.117595 74.407797 
L 259.505718 74.361663 
L 261.893842 74.306809 
L 264.281965 74.23011 
L 266.670088 74.1162 
L 269.058211 73.94874 
L 271.446334 73.712254 
L 273.834457 73.390205 
L 276.222581 72.968313 
L 278.610704 72.435326 
L 280.998827 71.779605 
L 283.38695 70.99265 
L 285.775073 70.068342 
L 288.163196 68.999267 
L 290.55132 67.783142 
L 292.939443 66.424831 
L 295.327566 64.932405 
L 297.715689 63.323998 
L 300.103812 61.62708 
L 302.491935 59.87677 
L 304.880059 58.114804 
L 307.268182 56.384723 
L 309.656305 54.733454 
L 312.044428 53.205066 
L 314.432551 51.837019 
L 316.820674 50.659398 
L 319.208798 49.693829 
L 321.596921 48.950015 
L 323.985044 48.427406 
L 326.373167 48.117237 
L 328.76129 48.0051 
L 331.149413 48.076768 
L 333.537537 48.318939 
L 335.92566 48.72169 
L 338.313783 49.279112 
L 340.701906 49.988315 
L 343.090029 50.849427 
L 345.478152 51.862702 
L 347.866276 53.026658 
L 350.254399 54.336105 
L 352.642522 55.781751 
L 355.030645 57.351028 
L 357.418768 59.027312 
L 359.806891 60.791546 
L 362.195015 62.624337 
L 364.583138 64.505113 
L 366.971261 66.411647 
L 369.359384 68.320942 
L 371.747507 70.209113 
L 374.13563 72.0507 
L 376.523754 73.818486 
L 378.911877 75.486601 
L 381.3 77.03006 
L 383.688123 78.426805 
L 386.076246 79.658549 
L 388.46437 80.710633 
L 390.852493 81.576059 
L 393.240616 82.255072 
L 395.628739 82.756285 
L 398.016862 83.097463 
L 400.404985 83.303117 
L 402.793109 83.402904 
L 405.181232 83.427508 
L 407.569355 83.407217 
L 409.957478 83.366381 
L 412.345601 83.322348 
L 414.733724 83.287147 
L 417.121848 83.271026 
L 419.509971 83.282789 
L 421.898094 83.333678 
L 424.286217 83.444012 
L 426.67434 83.643326 
L 429.062463 83.967562 
L 431.450587 84.454615 
L 433.83871 85.13877 
L 436.226833 86.039409 
L 438.614956 87.157447 
L 441.003079 88.475434 
L 443.391202 89.959601 
L 445.779326 91.570849 
L 448.167449 93.26886 
L 450.555572 95.015286 
L 452.943695 96.771062 
L 455.331818 98.491239 
L 457.719941 100.121683 
L 460.108065 101.594635 
L 462.496188 102.827505 
L 464.884311 103.730123 
L 467.272434 104.213531 
L 469.660557 104.201214 
L 472.04868 103.639932 
L 474.436804 102.506021 
L 476.824927 100.805425 
L 479.21305 98.573401 
L 481.601173 95.871748 
L 483.989296 92.780967 
L 486.377419 89.398282 
L 488.765543 85.831036 
L 491.153666 82.189073 
L 493.541789 78.573515 
L 495.929912 75.069078 
L 498.318035 71.736291 
L 500.706158 68.60919 
L 503.094282 65.694699 
L 505.482405 62.978572 
L 507.870528 60.432168 
L 510.258651 58.020804 
L 512.646774 55.712075 
L 515.034897 53.484173 
L 517.423021 51.328267 
L 519.811144 49.248278 
L 522.199267 47.263235 
L 524.58739 45.399462 
L 526.975513 43.687069 
L 529.363636 42.157347 
L 531.75176 40.835802 
L 534.139883 39.740203 
L 536.528006 38.876194 
L 538.916129 38.233338 
L 541.304252 37.783554 
L 543.692375 37.486518 
L 546.080499 37.289361 
L 548.468622 37.1361 
L 550.856745 36.97372 
L 553.244868 36.759304 
L 555.632991 36.467176 
L 558.021114 36.085431 
L 560.409238 35.61765 
L 562.797361 35.075232 
L 565.185484 34.46601 
L 567.573607 33.789944 
L 569.96173 33.038432 
L 572.349853 32.198834 
L 574.737977 31.248202 
L 577.1261 30.151953 
L 579.514223 28.869608 
L 581.902346 27.35677 
L 584.290469 25.572774 
L 586.678592 23.486007 
L 589.066716 21.075555 
L 591.454839 18.342126 
L 593.842962 15.305995 
L 596.231085 12.001099 
L 598.619208 8.472039 
L 601.007331 4.775847 
L 603.395455 0.969447 
L 605.783578 -2.898014 
L 608.171701 -6.781533 
L 610.559824 -10.65105 
L 612.947947 -14.485408 
L 615.33607 -18.27038 
L 617.724194 -21.996088 
L 620.112317 -25.658527 
L 622.50044 -29.258951 
L 624.888563 -32.803497 
L 627.276686 -36.305606 
L 629.664809 -39.782814 
L 632.052933 -43.262707 
L 634.441056 -46.777097 
L 636.829179 -50.355554 
L 639.217302 -54.027054 
L 641.605425 -57.818061 
L 643.993548 -61.740735 
L 646.381672 -65.802679 
L 648.769795 -69.996753 
L 651.157918 -74.293839 
L 653.546041 -78.650778 
L 655.934164 -83.015176 
L 658.322287 -87.327495 
L 660.710411 -91.536819 
L 663.098534 -95.607932 
L 665.486657 -99.522331 
L 667.87478 -103.278838 
L 670.262903 -106.894823 
L 672.651026 -110.39541 
L 675.03915 -113.809905 
L 677.427273 -117.167423 
L 677.427273 -457.532722 
L 677.427273 -457.532722 
L 675.03915 -452.92474 
L 672.651026 -448.323254 
L 670.262903 -443.726365 
L 667.87478 -439.133504 
L 665.486657 -434.541897 
L 663.098534 -429.944185 
L 660.710411 -425.32677 
L 658.322287 -420.671213 
L 655.934164 -415.958899 
L 653.546041 -411.1745 
L 651.157918 -406.308289 
L 648.769795 -401.366798 
L 646.381672 -396.374181 
L 643.993548 -391.375742 
L 641.605425 -386.435865 
L 639.217302 -381.641466 
L 636.829179 -377.088978 
L 634.441056 -372.875508 
L 632.052933 -369.091281 
L 629.664809 -365.807898 
L 627.276686 -363.071699 
L 624.888563 -360.896478 
L 622.50044 -359.262756 
L 620.112317 -358.117962 
L 617.724194 -357.384868 
L 615.33607 -356.971806 
L 612.947947 -356.779626 
L 610.559824 -356.707426 
L 608.171701 -356.670313 
L 605.783578 -356.597835 
L 603.395455 -356.414763 
L 601.007331 -356.045703 
L 598.619208 -355.434423 
L 596.231085 -354.522219 
L 593.842962 -353.27177 
L 591.454839 -351.687425 
L 589.066716 -349.807398 
L 586.678592 -347.682238 
L 584.290469 -345.381126 
L 581.902346 -342.974153 
L 579.514223 -340.507503 
L 577.1261 -338.005623 
L 574.737977 -335.465785 
L 572.349853 -332.866623 
L 569.96173 -330.16719 
L 567.573607 -327.31562 
L 565.185484 -324.272395 
L 562.797361 -321.017877 
L 560.409238 -317.552823 
L 558.021114 -313.889465 
L 555.632991 -310.050697 
L 553.244868 -306.070865 
L 550.856745 -301.993537 
L 548.468622 -297.867551 
L 546.080499 -293.745027 
L 543.692375 -289.676085 
L 541.304252 -285.710918 
L 538.916129 -281.894454 
L 536.528006 -278.268541 
L 534.139883 -274.869134 
L 531.75176 -271.72752 
L 529.363636 -268.870679 
L 526.975513 -266.322186 
L 524.58739 -264.101238 
L 522.199267 -262.225998 
L 519.811144 -260.711885 
L 517.423021 -259.567135 
L 515.034897 -258.788553 
L 512.646774 -258.359129 
L 510.258651 -258.243356 
L 507.870528 -258.388211 
L 505.482405 -258.724876 
L 503.094282 -259.174264 
L 500.706158 -259.654564 
L 498.318035 -260.087868 
L 495.929912 -260.403706 
L 493.541789 -260.533454 
L 491.153666 -260.409988 
L 488.765543 -259.964235 
L 486.377419 -259.121952 
L 483.989296 -257.803555 
L 481.601173 -255.929811 
L 479.21305 -253.4282 
L 476.824927 -250.237759 
L 474.436804 -246.313307 
L 472.04868 -241.632152 
L 469.660557 -236.199454 
L 467.272434 -230.04536 
L 464.884311 -223.228287 
L 462.496188 -215.830622 
L 460.108065 -207.959998 
L 457.719941 -199.733597 
L 455.331818 -191.281497 
L 452.943695 -182.7358 
L 450.555572 -174.220734 
L 448.167449 -165.853007 
L 445.779326 -157.738389 
L 443.391202 -149.96382 
L 441.003079 -142.595261 
L 438.614956 -135.67739 
L 436.226833 -129.238226 
L 433.83871 -123.286362 
L 431.450587 -117.822471 
L 429.062463 -112.834336 
L 426.67434 -108.299056 
L 424.286217 -104.189474 
L 421.898094 -100.480224 
L 419.509971 -97.143729 
L 417.121848 -94.159882 
L 414.733724 -91.522376 
L 412.345601 -89.235046 
L 409.957478 -87.311881 
L 407.569355 -85.780547 
L 405.181232 -84.677148 
L 402.793109 -84.044104 
L 400.404985 -83.923051 
L 398.016862 -84.350326 
L 395.628739 -85.351237 
L 393.240616 -86.935274 
L 390.852493 -89.092242 
L 388.46437 -91.791287 
L 386.076246 -94.980979 
L 383.688123 -98.59282 
L 381.3 -102.545898 
L 378.911877 -106.751565 
L 376.523754 -111.12114 
L 374.13563 -115.571604 
L 371.747507 -120.027782 
L 369.359384 -124.428177 
L 366.971261 -128.725551 
L 364.583138 -132.88649 
L 362.195015 -136.889183 
L 359.806891 -140.72206 
L 357.418768 -144.382524 
L 355.030645 -147.873551 
L 352.642522 -151.20243 
L 350.254399 -154.381069 
L 347.866276 -157.423774 
L 345.478152 -160.346058 
L 343.090029 -163.164004 
L 340.701906 -165.895471 
L 338.313783 -168.554593 
L 335.92566 -171.150262 
L 333.537537 -173.689743 
L 331.149413 -176.173308 
L 328.76129 -178.592905 
L 326.373167 -180.934407 
L 323.985044 -183.178425 
L 321.596921 -185.304894 
L 319.208798 -187.288437 
L 316.820674 -189.107348 
L 314.432551 -190.740482 
L 312.044428 -192.171712 
L 309.656305 -193.389618 
L 307.268182 -194.385655 
L 304.880059 -195.150534 
L 302.491935 -195.674427 
L 300.103812 -195.953438 
L 297.715689 -195.979648 
L 295.327566 -195.747747 
L 292.939443 -195.254575 
L 290.55132 -194.500213 
L 288.163196 -193.49209 
L 285.775073 -192.239682 
L 283.38695 -190.756967 
L 280.998827 -189.058209 
L 278.610704 -187.159257 
L 276.222581 -185.076747 
L 273.834457 -182.825411 
L 271.446334 -180.420372 
L 269.058211 -177.874542 
L 266.670088 -175.197931 
L 264.281965 -172.397634 
L 261.893842 -169.475862 
L 259.505718 -166.426941 
L 257.117595 -163.240273 
L 254.729472 -159.902412 
L 252.341349 -156.400243 
L 249.953226 -152.726685 
L 247.565103 -148.883668 
L 245.176979 -144.883028 
L 242.788856 -140.748585 
L 240.400733 -136.51424 
L 238.01261 -132.220852 
L 235.624487 -127.911353 
L 233.236364 -123.627463 
L 230.84824 -119.407635 
L 228.460117 -115.283224 
L 226.071994 -111.278931 
L 223.683871 -107.412306 
L 221.295748 -103.693192 
L 218.907625 -100.124456 
L 216.519501 -96.705298 
L 214.131378 -93.431098 
L 211.743255 -90.296173 
L 209.355132 -87.293376 
L 206.967009 -84.414275 
L 204.578886 -81.650451 
L 202.190762 -78.990339 
L 199.802639 -76.415815 
L 197.414516 -73.903217 
L 195.026393 -71.42184 
L 192.63827 -68.932807 
L 190.250147 -66.390581 
L 187.862023 -63.747855 
L 185.4739 -60.957832 
L 183.085777 -57.976433 
L 180.697654 -54.768117 
L 178.309531 -51.306128 
L 175.921408 -47.575288 
L 173.533284 -43.575352 
L 171.145161 -39.321858 
L 168.757038 -34.850315 
L 166.368915 -30.217707 
L 163.980792 -25.500207 
L 161.592669 -20.796436 
L 159.204545 -16.220261 
L 156.816422 -11.892564 
L 154.428299 -7.935527 
L 152.040176 -4.460154 
L 149.652053 -1.555439 
L 147.26393 0.722628 
L 144.875806 2.357484 
L 142.487683 3.3728 
L 140.09956 3.824702 
L 137.711437 3.791215 
L 135.323314 3.359837 
L 132.935191 2.615203 
L 130.547067 1.631622 
L 128.158944 0.471137 
L 125.770821 -0.813969 
L 123.382698 -2.179828 
L 120.994575 -3.59069 
L 118.606452 -5.022201 
L 116.218328 -6.462144 
L 113.830205 -7.913301 
L 111.442082 -9.392244 
L 109.053959 -10.930597 
L 106.665836 -12.571955 
L 104.277713 -14.362687 
L 101.889589 -16.34831 
L 99.501466 -18.565126 
L 97.113343 -21.033527 
L 94.72522 -23.747248 
L 92.337097 -26.659434 
L 89.948974 -29.67759 
L 87.56085 -32.674227 
L 85.172727 -35.518615 
z
" clip-path="url(#p79c4af8827)" style="fill: #000080; fill-opacity: 0.1; stroke: #000080; stroke-opacity: 0.1"/>
   </g>
   <g id="line2d_1">
    <path d="M 85.172727 189.82441 
L 89.948974 193.483401 
L 94.72522 196.738984 
L 99.501466 199.518278 
L 101.889589 200.713165 
L 104.277713 201.770401 
L 106.665836 202.684865 
L 109.053959 203.454948 
L 111.442082 204.084016 
L 113.830205 204.581128 
L 118.606452 205.242762 
L 123.382698 205.605099 
L 140.09956 206.364877 
L 147.26393 206.573006 
L 154.428299 206.546757 
L 161.592669 206.269446 
L 168.757038 205.74273 
L 173.533284 205.195909 
L 178.309531 204.453713 
L 183.085777 203.518207 
L 190.250147 201.831161 
L 202.190762 198.838259 
L 206.967009 197.83378 
L 211.743255 197.038709 
L 216.519501 196.468233 
L 221.295748 196.105965 
L 226.071994 195.931254 
L 230.84824 195.934266 
L 235.624487 196.117142 
L 240.400733 196.482901 
L 247.565103 197.340513 
L 266.670088 200.089587 
L 271.446334 200.52127 
L 276.222581 200.732797 
L 280.998827 200.680322 
L 285.775073 200.34418 
L 290.55132 199.742139 
L 297.715689 198.489872 
L 307.268182 196.744342 
L 312.044428 196.101294 
L 316.820674 195.722639 
L 321.596921 195.63761 
L 326.373167 195.838448 
L 331.149413 196.295362 
L 335.92566 196.97182 
L 343.090029 198.280755 
L 352.642522 200.135373 
L 357.418768 200.903611 
L 362.195015 201.497692 
L 369.359384 202.106312 
L 393.240616 203.727821 
L 412.345601 205.288457 
L 424.286217 206.275441 
L 431.450587 206.872974 
L 436.226833 207.011745 
L 441.003079 206.787015 
L 445.779326 206.17206 
L 450.555572 205.168999 
L 455.331818 203.790074 
L 460.108065 202.097973 
L 469.660557 198.283447 
L 476.824927 195.577103 
L 481.601173 194.048062 
L 486.377419 192.836398 
L 491.153666 191.996776 
L 495.929912 191.544574 
L 500.706158 191.467907 
L 505.482405 191.730365 
L 510.258651 192.245477 
L 519.811144 193.414498 
L 524.58739 193.730445 
L 529.363636 193.702123 
L 534.139883 193.266571 
L 538.916129 192.419936 
L 543.692375 191.210258 
L 548.468622 189.705925 
L 553.244868 187.959644 
L 558.021114 185.992198 
L 562.797361 183.80348 
L 567.573607 181.399729 
L 574.737977 177.472237 
L 589.066716 169.390128 
L 596.231085 165.678019 
L 605.783578 161.047414 
L 620.112317 154.126741 
L 624.888563 151.638501 
L 629.664809 148.957337 
L 634.441056 146.006492 
L 639.217302 142.704192 
L 643.993548 138.978252 
L 648.769795 134.782789 
L 653.546041 130.099921 
L 658.322287 124.937075 
L 663.098534 119.300263 
L 667.87478 113.206231 
L 672.651026 106.723378 
L 677.427273 99.977971 
L 677.427273 99.977971 
" clip-path="url(#p79c4af8827)" style="fill: none; stroke: #000080; stroke-width: 1.5; stroke-linecap: round"/>
   </g>
   <g id="line2d_2">
    <path d="M 85.172727 12.221237 
L 89.948974 17.942273 
L 94.72522 23.852641 
L 99.501466 29.305901 
L 101.889589 31.749657 
L 104.277713 33.987273 
L 106.665836 36.020736 
L 109.053959 37.86083 
L 111.442082 39.524108 
L 113.830205 41.030287 
L 118.606452 43.635892 
L 123.382698 45.755719 
L 125.770821 46.636435 
L 128.158944 47.391916 
L 130.547067 48.01444 
L 132.935191 48.492326 
L 135.323314 48.809226 
L 137.711437 48.942413 
L 140.09956 48.864986 
L 142.487683 48.549452 
L 144.875806 47.972547 
L 147.26393 47.119663 
L 149.652053 45.987412 
L 152.040176 44.585288 
L 154.428299 42.934559 
L 156.816422 41.065953 
L 161.592669 36.825954 
L 168.757038 29.800259 
L 175.921408 22.773414 
L 180.697654 18.35669 
L 185.4739 14.199679 
L 192.63827 8.355609 
L 199.802639 2.815398 
L 204.897167 -1 
M 396.687401 -1 
L 398.016862 -0.626431 
L 400.404985 -0.309967 
L 402.793109 -0.3206 
L 405.181232 -0.62482 
L 406.775935 -1 
L 406.775935 -1 
" clip-path="url(#p79c4af8827)" style="fill: none; stroke-dasharray: 5.55,2.4; stroke-dashoffset: 0; stroke: #000080; stroke-width: 1.5"/>
   </g>
   <g id="patch_3">
    <path d="M 55.56 310.98 
L 55.56 28.08 
" style="fill: none; stroke: #ffffff; stroke-width: 1.25; stroke-linejoin: miter; stroke-linecap: square"/>
   </g>
   <g id="patch_4">
    <path d="M 707.04 310.98 
L 707.04 28.08 
" style="fill: none; stroke: #ffffff; stroke-width: 1.25; stroke-linejoin: miter; stroke-linecap: square"/>
   </g>
   <g id="patch_5">
    <path d="M 55.56 310.98 
L 707.04 310.98 
" style="fill: none; stroke: #ffffff; stroke-width: 1.25; stroke-linejoin: miter; stroke-linecap: square"/>
   </g>
   <g id="patch_6">
    <path d="M 55.56 28.08 
L 707.04 28.08 
" style="fill: none; stroke: #ffffff; stroke-width: 1.25; stroke-linejoin: miter; stroke-linecap: square"/>
   </g>
   <g id="text_14">
    <!-- QG3L - [32, 96] x [256, 384] -->
    <g style="fill: #262626" transform="translate(296.2575 22.08) scale(0.12 -0.12)">
     <defs>
      <path id="DejaVuSans-51" d="M 2522 4238 
Q 1834 4238 1429 3725 
Q 1025 3213 1025 2328 
Q 1025 1447 1429 934 
Q 1834 422 2522 422 
Q 3209 422 3611 934 
Q 4013 1447 4013 2328 
Q 4013 3213 3611 3725 
Q 3209 4238 2522 4238 
z
M 3406 84 
L 4238 -825 
L 3475 -825 
L 2784 -78 
Q 2681 -84 2626 -87 
Q 2572 -91 2522 -91 
Q 1538 -91 948 567 
Q 359 1225 359 2328 
Q 359 3434 948 4092 
Q 1538 4750 2522 4750 
Q 3503 4750 4090 4092 
Q 4678 3434 4678 2328 
Q 4678 1516 4351 937 
Q 4025 359 3406 84 
z
" transform="scale(0.015625)"/>
      <path id="DejaVuSans-47" d="M 3809 666 
L 3809 1919 
L 2778 1919 
L 2778 2438 
L 4434 2438 
L 4434 434 
Q 4069 175 3628 42 
Q 3188 -91 2688 -91 
Q 1594 -91 976 548 
Q 359 1188 359 2328 
Q 359 3472 976 4111 
Q 1594 4750 2688 4750 
Q 3144 4750 3555 4637 
Q 3966 4525 4313 4306 
L 4313 3634 
Q 3963 3931 3569 4081 
Q 3175 4231 2741 4231 
Q 1884 4231 1454 3753 
Q 1025 3275 1025 2328 
Q 1025 1384 1454 906 
Q 1884 428 2741 428 
Q 3075 428 3337 486 
Q 3600 544 3809 666 
z
" transform="scale(0.015625)"/>
      <path id="DejaVuSans-33" d="M 2597 2516 
Q 3050 2419 3304 2112 
Q 3559 1806 3559 1356 
Q 3559 666 3084 287 
Q 2609 -91 1734 -91 
Q 1441 -91 1130 -33 
Q 819 25 488 141 
L 488 750 
Q 750 597 1062 519 
Q 1375 441 1716 441 
Q 2309 441 2620 675 
Q 2931 909 2931 1356 
Q 2931 1769 2642 2001 
Q 2353 2234 1838 2234 
L 1294 2234 
L 1294 2753 
L 1863 2753 
Q 2328 2753 2575 2939 
Q 2822 3125 2822 3475 
Q 2822 3834 2567 4026 
Q 2313 4219 1838 4219 
Q 1578 4219 1281 4162 
Q 984 4106 628 3988 
L 628 4550 
Q 988 4650 1302 4700 
Q 1616 4750 1894 4750 
Q 2613 4750 3031 4423 
Q 3450 4097 3450 3541 
Q 3450 3153 3228 2886 
Q 3006 2619 2597 2516 
z
" transform="scale(0.015625)"/>
      <path id="DejaVuSans-4c" d="M 628 4666 
L 1259 4666 
L 1259 531 
L 3531 531 
L 3531 0 
L 628 0 
L 628 4666 
z
" transform="scale(0.015625)"/>
      <path id="DejaVuSans-2d" d="M 313 2009 
L 1997 2009 
L 1997 1497 
L 313 1497 
L 313 2009 
z
" transform="scale(0.015625)"/>
      <path id="DejaVuSans-2c" d="M 750 794 
L 1409 794 
L 1409 256 
L 897 -744 
L 494 -744 
L 750 256 
L 750 794 
z
" transform="scale(0.015625)"/>
      <path id="DejaVuSans-39" d="M 703 97 
L 703 672 
Q 941 559 1184 500 
Q 1428 441 1663 441 
Q 2288 441 2617 861 
Q 2947 1281 2994 2138 
Q 2813 1869 2534 1725 
Q 2256 1581 1919 1581 
Q 1219 1581 811 2004 
Q 403 2428 403 3163 
Q 403 3881 828 4315 
Q 1253 4750 1959 4750 
Q 2769 4750 3195 4129 
Q 3622 3509 3622 2328 
Q 3622 1225 3098 567 
Q 2575 -91 1691 -91 
Q 1453 -91 1209 -44 
Q 966 3 703 97 
z
M 1959 2075 
Q 2384 2075 2632 2365 
Q 2881 2656 2881 3163 
Q 2881 3666 2632 3958 
Q 2384 4250 1959 4250 
Q 1534 4250 1286 3958 
Q 1038 3666 1038 3163 
Q 1038 2656 1286 2365 
Q 1534 2075 1959 2075 
z
" transform="scale(0.015625)"/>
      <path id="DejaVuSans-78" d="M 3513 3500 
L 2247 1797 
L 3578 0 
L 2900 0 
L 1881 1375 
L 863 0 
L 184 0 
L 1544 1831 
L 300 3500 
L 978 3500 
L 1906 2253 
L 2834 3500 
L 3513 3500 
z
" transform="scale(0.015625)"/>
     </defs>
     <use xlink:href="#DejaVuSans-51"/>
     <use xlink:href="#DejaVuSans-47" transform="translate(78.710938 0)"/>
     <use xlink:href="#DejaVuSans-33" transform="translate(156.201172 0)"/>
     <use xlink:href="#DejaVuSans-4c" transform="translate(219.824219 0)"/>
     <use xlink:href="#DejaVuSans-20" transform="translate(275.537109 0)"/>
     <use xlink:href="#DejaVuSans-2d" transform="translate(307.324219 0)"/>
     <use xlink:href="#DejaVuSans-20" transform="translate(343.408203 0)"/>
     <use xlink:href="#DejaVuSans-5b" transform="translate(375.195312 0)"/>
     <use xlink:href="#DejaVuSans-33" transform="translate(414.208984 0)"/>
     <use xlink:href="#DejaVuSans-32" transform="translate(477.832031 0)"/>
     <use xlink:href="#DejaVuSans-2c" transform="translate(541.455078 0)"/>
     <use xlink:href="#DejaVuSans-20" transform="translate(573.242188 0)"/>
     <use xlink:href="#DejaVuSans-39" transform="translate(605.029297 0)"/>
     <use xlink:href="#DejaVuSans-36" transform="translate(668.652344 0)"/>
     <use xlink:href="#DejaVuSans-5d" transform="translate(732.275391 0)"/>
     <use xlink:href="#DejaVuSans-20" transform="translate(771.289062 0)"/>
     <use xlink:href="#DejaVuSans-78" transform="translate(803.076172 0)"/>
     <use xlink:href="#DejaVuSans-20" transform="translate(862.255859 0)"/>
     <use xlink:href="#DejaVuSans-5b" transform="translate(894.042969 0)"/>
     <use xlink:href="#DejaVuSans-32" transform="translate(933.056641 0)"/>
     <use xlink:href="#DejaVuSans-35" transform="translate(996.679688 0)"/>
     <use xlink:href="#DejaVuSans-36" transform="translate(1060.302734 0)"/>
     <use xlink:href="#DejaVuSans-2c" transform="translate(1123.925781 0)"/>
     <use xlink:href="#DejaVuSans-20" transform="translate(1155.712891 0)"/>
     <use xlink:href="#DejaVuSans-33" transform="translate(1187.5 0)"/>
     <use xlink:href="#DejaVuSans-38" transform="translate(1251.123047 0)"/>
     <use xlink:href="#DejaVuSans-34" transform="translate(1314.746094 0)"/>
     <use xlink:href="#DejaVuSans-5d" transform="translate(1378.369141 0)"/>
    </g>
   </g>
   <g id="legend_1">
    <g id="patch_7">
     <path d="M 63.26 305.48 
L 244.675781 305.48 
Q 246.875781 305.48 246.875781 303.28 
L 246.875781 272.088125 
Q 246.875781 269.888125 244.675781 269.888125 
L 63.26 269.888125 
Q 61.06 269.888125 61.06 272.088125 
L 61.06 303.28 
Q 61.06 305.48 63.26 305.48 
z
" style="fill: #eaeaf2; opacity: 0.8; stroke: #cccccc; stroke-linejoin: miter"/>
    </g>
    <g id="line2d_3">
     <path d="M 65.46 278.796406 
L 76.46 278.796406 
L 87.46 278.796406 
" style="fill: none; stroke: #000080; stroke-width: 1.5; stroke-linecap: round"/>
    </g>
    <g id="text_15">
     <!-- SurfML -->
     <g style="fill: #262626" transform="translate(96.26 282.646406) scale(0.11 -0.11)">
      <defs>
       <path id="DejaVuSans-75" d="M 544 1381 
L 544 3500 
L 1119 3500 
L 1119 1403 
Q 1119 906 1312 657 
Q 1506 409 1894 409 
Q 2359 409 2629 706 
Q 2900 1003 2900 1516 
L 2900 3500 
L 3475 3500 
L 3475 0 
L 2900 0 
L 2900 538 
Q 2691 219 2414 64 
Q 2138 -91 1772 -91 
Q 1169 -91 856 284 
Q 544 659 544 1381 
z
M 1991 3584 
L 1991 3584 
z
" transform="scale(0.015625)"/>
       <path id="DejaVuSans-72" d="M 2631 2963 
Q 2534 3019 2420 3045 
Q 2306 3072 2169 3072 
Q 1681 3072 1420 2755 
Q 1159 2438 1159 1844 
L 1159 0 
L 581 0 
L 581 3500 
L 1159 3500 
L 1159 2956 
Q 1341 3275 1631 3429 
Q 1922 3584 2338 3584 
Q 2397 3584 2469 3576 
Q 2541 3569 2628 3553 
L 2631 2963 
z
" transform="scale(0.015625)"/>
       <path id="DejaVuSans-66" d="M 2375 4863 
L 2375 4384 
L 1825 4384 
Q 1516 4384 1395 4259 
Q 1275 4134 1275 3809 
L 1275 3500 
L 2222 3500 
L 2222 3053 
L 1275 3053 
L 1275 0 
L 697 0 
L 697 3053 
L 147 3053 
L 147 3500 
L 697 3500 
L 697 3744 
Q 697 4328 969 4595 
Q 1241 4863 1831 4863 
L 2375 4863 
z
" transform="scale(0.015625)"/>
      </defs>
      <use xlink:href="#DejaVuSans-53"/>
      <use xlink:href="#DejaVuSans-75" transform="translate(63.476562 0)"/>
      <use xlink:href="#DejaVuSans-72" transform="translate(126.855469 0)"/>
      <use xlink:href="#DejaVuSans-66" transform="translate(167.96875 0)"/>
      <use xlink:href="#DejaVuSans-4d" transform="translate(203.173828 0)"/>
      <use xlink:href="#DejaVuSans-4c" transform="translate(289.453125 0)"/>
     </g>
    </g>
    <g id="line2d_4">
     <path d="M 65.46 294.942344 
L 76.46 294.942344 
L 87.46 294.942344 
" style="fill: none; stroke-dasharray: 5.55,2.4; stroke-dashoffset: 0; stroke: #000080; stroke-width: 1.5"/>
    </g>
    <g id="text_16">
     <!-- SurfML - No Regularization -->
     <g style="fill: #262626" transform="translate(96.26 298.792344) scale(0.11 -0.11)">
      <defs>
       <path id="DejaVuSans-4e" d="M 628 4666 
L 1478 4666 
L 3547 763 
L 3547 4666 
L 4159 4666 
L 4159 0 
L 3309 0 
L 1241 3903 
L 1241 0 
L 628 0 
L 628 4666 
z
" transform="scale(0.015625)"/>
       <path id="DejaVuSans-6f" d="M 1959 3097 
Q 1497 3097 1228 2736 
Q 959 2375 959 1747 
Q 959 1119 1226 758 
Q 1494 397 1959 397 
Q 2419 397 2687 759 
Q 2956 1122 2956 1747 
Q 2956 2369 2687 2733 
Q 2419 3097 1959 3097 
z
M 1959 3584 
Q 2709 3584 3137 3096 
Q 3566 2609 3566 1747 
Q 3566 888 3137 398 
Q 2709 -91 1959 -91 
Q 1206 -91 779 398 
Q 353 888 353 1747 
Q 353 2609 779 3096 
Q 1206 3584 1959 3584 
z
" transform="scale(0.015625)"/>
       <path id="DejaVuSans-67" d="M 2906 1791 
Q 2906 2416 2648 2759 
Q 2391 3103 1925 3103 
Q 1463 3103 1205 2759 
Q 947 2416 947 1791 
Q 947 1169 1205 825 
Q 1463 481 1925 481 
Q 2391 481 2648 825 
Q 2906 1169 2906 1791 
z
M 3481 434 
Q 3481 -459 3084 -895 
Q 2688 -1331 1869 -1331 
Q 1566 -1331 1297 -1286 
Q 1028 -1241 775 -1147 
L 775 -588 
Q 1028 -725 1275 -790 
Q 1522 -856 1778 -856 
Q 2344 -856 2625 -561 
Q 2906 -266 2906 331 
L 2906 616 
Q 2728 306 2450 153 
Q 2172 0 1784 0 
Q 1141 0 747 490 
Q 353 981 353 1791 
Q 353 2603 747 3093 
Q 1141 3584 1784 3584 
Q 2172 3584 2450 3431 
Q 2728 3278 2906 2969 
L 2906 3500 
L 3481 3500 
L 3481 434 
z
" transform="scale(0.015625)"/>
       <path id="DejaVuSans-6c" d="M 603 4863 
L 1178 4863 
L 1178 0 
L 603 0 
L 603 4863 
z
" transform="scale(0.015625)"/>
       <path id="DejaVuSans-7a" d="M 353 3500 
L 3084 3500 
L 3084 2975 
L 922 459 
L 3084 459 
L 3084 0 
L 275 0 
L 275 525 
L 2438 3041 
L 353 3041 
L 353 3500 
z
" transform="scale(0.015625)"/>
      </defs>
      <use xlink:href="#DejaVuSans-53"/>
      <use xlink:href="#DejaVuSans-75" transform="translate(63.476562 0)"/>
      <use xlink:href="#DejaVuSans-72" transform="translate(126.855469 0)"/>
      <use xlink:href="#DejaVuSans-66" transform="translate(167.96875 0)"/>
      <use xlink:href="#DejaVuSans-4d" transform="translate(203.173828 0)"/>
      <use xlink:href="#DejaVuSans-4c" transform="translate(289.453125 0)"/>
      <use xlink:href="#DejaVuSans-20" transform="translate(345.166016 0)"/>
      <use xlink:href="#DejaVuSans-2d" transform="translate(376.953125 0)"/>
      <use xlink:href="#DejaVuSans-20" transform="translate(413.037109 0)"/>
      <use xlink:href="#DejaVuSans-4e" transform="translate(444.824219 0)"/>
      <use xlink:href="#DejaVuSans-6f" transform="translate(519.628906 0)"/>
      <use xlink:href="#DejaVuSans-20" transform="translate(580.810547 0)"/>
      <use xlink:href="#DejaVuSans-52" transform="translate(612.597656 0)"/>
      <use xlink:href="#DejaVuSans-65" transform="translate(677.580078 0)"/>
      <use xlink:href="#DejaVuSans-67" transform="translate(739.103516 0)"/>
      <use xlink:href="#DejaVuSans-75" transform="translate(802.580078 0)"/>
      <use xlink:href="#DejaVuSans-6c" transform="translate(865.958984 0)"/>
      <use xlink:href="#DejaVuSans-61" transform="translate(893.742188 0)"/>
      <use xlink:href="#DejaVuSans-72" transform="translate(955.021484 0)"/>
      <use xlink:href="#DejaVuSans-69" transform="translate(996.134766 0)"/>
      <use xlink:href="#DejaVuSans-7a" transform="translate(1023.917969 0)"/>
      <use xlink:href="#DejaVuSans-61" transform="translate(1076.408203 0)"/>
      <use xlink:href="#DejaVuSans-74" transform="translate(1137.6875 0)"/>
      <use xlink:href="#DejaVuSans-69" transform="translate(1176.896484 0)"/>
      <use xlink:href="#DejaVuSans-6f" transform="translate(1204.679688 0)"/>
      <use xlink:href="#DejaVuSans-6e" transform="translate(1265.861328 0)"/>
     </g>
    </g>
   </g>
  </g>
 </g>
 <defs>
  <clipPath id="p79c4af8827">
   <rect x="55.56" y="28.08" width="651.48" height="282.9"/>
  </clipPath>
 </defs>
</svg>
