<?xml version="1.0" encoding="utf-8" standalone="no"?>
<!DOCTYPE svg PUBLIC "-//W3C//DTD SVG 1.1//EN"
  "http://www.w3.org/Graphics/SVG/1.1/DTD/svg11.dtd">
<svg xmlns:xlink="http://www.w3.org/1999/xlink" width="720pt" height="360pt" viewBox="0 0 720 360" xmlns="http://www.w3.org/2000/svg" version="1.1">
 <metadata>
  <rdf:RDF xmlns:dc="http://purl.org/dc/elements/1.1/" xmlns:cc="http://creativecommons.org/ns#" xmlns:rdf="http://www.w3.org/1999/02/22-rdf-syntax-ns#">
   <cc:Work>
    <dc:type rdf:resource="http://purl.org/dc/dcmitype/StillImage"/>
    <dc:date>2026-03-25T17:47:39.288532</dc:date>
    <dc:format>image/svg+xml</dc:format>
    <dc:creator>
     <cc:Agent>
      <dc:title>Matplotlib v3.10.6, https://matplotlib.org/</dc:title>
     </cc:Agent>
    </dc:creator>
   </cc:Work>
  </rdf:RDF>
 </metadata>
 <defs>
  <style type="text/css">*{stroke-linejoin: round; stroke-linecap: butt}</style>
 </defs>
 <g id="figure_1">
  <g id="patch_1">
   <path d="M 0 360 
L 720 360 
L 720 0 
L 0 0 
z
" style="fill: #ffffff"/>
  </g>
  <g id="axes_1">
   <g id="patch_2">
    <path d="M 55.56 310.98 
L 707.04 310.98 
L 707.04 28.08 
L 55.56 28.08 
z
" style="fill: #eaeaf2"/>
   </g>
   <g id="matplotlib.axis_1">
    <g id="xtick_1">
     <g id="text_1">
      <!-- 0 -->
      <g style="fill: #262626" transform="translate(81.673352 328.838281) scale(0.11 -0.11)">
       <defs>
        <path id="DejaVuSans-30" d="M 2034 4250 
Q 1547 4250 1301 3770 
Q 1056 3291 1056 2328 
Q 1056 1369 1301 889 
Q 1547 409 2034 409 
Q 2525 409 2770 889 
Q 3016 1369 3016 2328 
Q 3016 3291 2770 3770 
Q 2525 4250 2034 4250 
z
M 2034 4750 
Q 2819 4750 3233 4129 
Q 3647 3509 3647 2328 
Q 3647 1150 3233 529 
Q 2819 -91 2034 -91 
Q 1250 -91 836 529 
Q 422 1150 422 2328 
Q 422 3509 836 4129 
Q 1250 4750 2034 4750 
z
" transform="scale(0.015625)"/>
       </defs>
       <use xlink:href="#DejaVuSans-30"/>
      </g>
     </g>
    </g>
    <g id="xtick_2">
     <g id="text_2">
      <!-- 5 -->
      <g style="fill: #262626" transform="translate(224.385291 328.838281) scale(0.11 -0.11)">
       <defs>
        <path id="DejaVuSans-35" d="M 691 4666 
L 3169 4666 
L 3169 4134 
L 1269 4134 
L 1269 2991 
Q 1406 3038 1543 3061 
Q 1681 3084 1819 3084 
Q 2600 3084 3056 2656 
Q 3513 2228 3513 1497 
Q 3513 744 3044 326 
Q 2575 -91 1722 -91 
Q 1428 -91 1123 -41 
Q 819 9 494 109 
L 494 744 
Q 775 591 1075 516 
Q 1375 441 1709 441 
Q 2250 441 2565 725 
Q 2881 1009 2881 1497 
Q 2881 1984 2565 2268 
Q 2250 2553 1709 2553 
Q 1456 2553 1204 2497 
Q 953 2441 691 2322 
L 691 4666 
z
" transform="scale(0.015625)"/>
       </defs>
       <use xlink:href="#DejaVuSans-35"/>
      </g>
     </g>
    </g>
    <g id="xtick_3">
     <g id="text_3">
      <!-- 10 -->
      <g style="fill: #262626" transform="translate(363.597855 328.838281) scale(0.11 -0.11)">
       <defs>
        <path id="DejaVuSans-31" d="M 794 531 
L 1825 531 
L 1825 4091 
L 703 3866 
L 703 4441 
L 1819 4666 
L 2450 4666 
L 2450 531 
L 3481 531 
L 3481 0 
L 794 0 
L 794 531 
z
" transform="scale(0.015625)"/>
       </defs>
       <use xlink:href="#DejaVuSans-31"/>
       <use xlink:href="#DejaVuSans-30" transform="translate(63.623047 0)"/>
      </g>
     </g>
    </g>
    <g id="xtick_4">
     <g id="text_4">
      <!-- 15 -->
      <g style="fill: #262626" transform="translate(506.309793 328.838281) scale(0.11 -0.11)">
       <use xlink:href="#DejaVuSans-31"/>
       <use xlink:href="#DejaVuSans-35" transform="translate(63.623047 0)"/>
      </g>
     </g>
    </g>
    <g id="xtick_5">
     <g id="text_5">
      <!-- 20 -->
      <g style="fill: #262626" transform="translate(649.021732 328.838281) scale(0.11 -0.11)">
       <defs>
        <path id="DejaVuSans-32" d="M 1228 531 
L 3431 531 
L 3431 0 
L 469 0 
L 469 531 
Q 828 903 1448 1529 
Q 2069 2156 2228 2338 
Q 2531 2678 2651 2914 
Q 2772 3150 2772 3378 
Q 2772 3750 2511 3984 
Q 2250 4219 1831 4219 
Q 1534 4219 1204 4116 
Q 875 4013 500 3803 
L 500 4441 
Q 881 4594 1212 4672 
Q 1544 4750 1819 4750 
Q 2544 4750 2975 4387 
Q 3406 4025 3406 3419 
Q 3406 3131 3298 2873 
Q 3191 2616 2906 2266 
Q 2828 2175 2409 1742 
Q 1991 1309 1228 531 
z
" transform="scale(0.015625)"/>
       </defs>
       <use xlink:href="#DejaVuSans-32"/>
       <use xlink:href="#DejaVuSans-30" transform="translate(63.623047 0)"/>
      </g>
     </g>
    </g>
    <g id="text_6">
     <!-- Time [days] -->
     <g style="fill: #262626" transform="translate(345.868125 344.244062) scale(0.12 -0.12)">
      <defs>
       <path id="DejaVuSans-54" d="M -19 4666 
L 3928 4666 
L 3928 4134 
L 2272 4134 
L 2272 0 
L 1638 0 
L 1638 4134 
L -19 4134 
L -19 4666 
z
" transform="scale(0.015625)"/>
       <path id="DejaVuSans-69" d="M 603 3500 
L 1178 3500 
L 1178 0 
L 603 0 
L 603 3500 
z
M 603 4863 
L 1178 4863 
L 1178 4134 
L 603 4134 
L 603 4863 
z
" transform="scale(0.015625)"/>
       <path id="DejaVuSans-6d" d="M 3328 2828 
Q 3544 3216 3844 3400 
Q 4144 3584 4550 3584 
Q 5097 3584 5394 3201 
Q 5691 2819 5691 2113 
L 5691 0 
L 5113 0 
L 5113 2094 
Q 5113 2597 4934 2840 
Q 4756 3084 4391 3084 
Q 3944 3084 3684 2787 
Q 3425 2491 3425 1978 
L 3425 0 
L 2847 0 
L 2847 2094 
Q 2847 2600 2669 2842 
Q 2491 3084 2119 3084 
Q 1678 3084 1418 2786 
Q 1159 2488 1159 1978 
L 1159 0 
L 581 0 
L 581 3500 
L 1159 3500 
L 1159 2956 
Q 1356 3278 1631 3431 
Q 1906 3584 2284 3584 
Q 2666 3584 2933 3390 
Q 3200 3197 3328 2828 
z
" transform="scale(0.015625)"/>
       <path id="DejaVuSans-65" d="M 3597 1894 
L 3597 1613 
L 953 1613 
Q 991 1019 1311 708 
Q 1631 397 2203 397 
Q 2534 397 2845 478 
Q 3156 559 3463 722 
L 3463 178 
Q 3153 47 2828 -22 
Q 2503 -91 2169 -91 
Q 1331 -91 842 396 
Q 353 884 353 1716 
Q 353 2575 817 3079 
Q 1281 3584 2069 3584 
Q 2775 3584 3186 3129 
Q 3597 2675 3597 1894 
z
M 3022 2063 
Q 3016 2534 2758 2815 
Q 2500 3097 2075 3097 
Q 1594 3097 1305 2825 
Q 1016 2553 972 2059 
L 3022 2063 
z
" transform="scale(0.015625)"/>
       <path id="DejaVuSans-20" transform="scale(0.015625)"/>
       <path id="DejaVuSans-5b" d="M 550 4863 
L 1875 4863 
L 1875 4416 
L 1125 4416 
L 1125 -397 
L 1875 -397 
L 1875 -844 
L 550 -844 
L 550 4863 
z
" transform="scale(0.015625)"/>
       <path id="DejaVuSans-64" d="M 2906 2969 
L 2906 4863 
L 3481 4863 
L 3481 0 
L 2906 0 
L 2906 525 
Q 2725 213 2448 61 
Q 2172 -91 1784 -91 
Q 1150 -91 751 415 
Q 353 922 353 1747 
Q 353 2572 751 3078 
Q 1150 3584 1784 3584 
Q 2172 3584 2448 3432 
Q 2725 3281 2906 2969 
z
M 947 1747 
Q 947 1113 1208 752 
Q 1469 391 1925 391 
Q 2381 391 2643 752 
Q 2906 1113 2906 1747 
Q 2906 2381 2643 2742 
Q 2381 3103 1925 3103 
Q 1469 3103 1208 2742 
Q 947 2381 947 1747 
z
" transform="scale(0.015625)"/>
       <path id="DejaVuSans-61" d="M 2194 1759 
Q 1497 1759 1228 1600 
Q 959 1441 959 1056 
Q 959 750 1161 570 
Q 1363 391 1709 391 
Q 2188 391 2477 730 
Q 2766 1069 2766 1631 
L 2766 1759 
L 2194 1759 
z
M 3341 1997 
L 3341 0 
L 2766 0 
L 2766 531 
Q 2569 213 2275 61 
Q 1981 -91 1556 -91 
Q 1019 -91 701 211 
Q 384 513 384 1019 
Q 384 1609 779 1909 
Q 1175 2209 1959 2209 
L 2766 2209 
L 2766 2266 
Q 2766 2663 2505 2880 
Q 2244 3097 1772 3097 
Q 1472 3097 1187 3025 
Q 903 2953 641 2809 
L 641 3341 
Q 956 3463 1253 3523 
Q 1550 3584 1831 3584 
Q 2591 3584 2966 3190 
Q 3341 2797 3341 1997 
z
" transform="scale(0.015625)"/>
       <path id="DejaVuSans-79" d="M 2059 -325 
Q 1816 -950 1584 -1140 
Q 1353 -1331 966 -1331 
L 506 -1331 
L 506 -850 
L 844 -850 
Q 1081 -850 1212 -737 
Q 1344 -625 1503 -206 
L 1606 56 
L 191 3500 
L 800 3500 
L 1894 763 
L 2988 3500 
L 3597 3500 
L 2059 -325 
z
" transform="scale(0.015625)"/>
       <path id="DejaVuSans-73" d="M 2834 3397 
L 2834 2853 
Q 2591 2978 2328 3040 
Q 2066 3103 1784 3103 
Q 1356 3103 1142 2972 
Q 928 2841 928 2578 
Q 928 2378 1081 2264 
Q 1234 2150 1697 2047 
L 1894 2003 
Q 2506 1872 2764 1633 
Q 3022 1394 3022 966 
Q 3022 478 2636 193 
Q 2250 -91 1575 -91 
Q 1294 -91 989 -36 
Q 684 19 347 128 
L 347 722 
Q 666 556 975 473 
Q 1284 391 1588 391 
Q 1994 391 2212 530 
Q 2431 669 2431 922 
Q 2431 1156 2273 1281 
Q 2116 1406 1581 1522 
L 1381 1569 
Q 847 1681 609 1914 
Q 372 2147 372 2553 
Q 372 3047 722 3315 
Q 1072 3584 1716 3584 
Q 2034 3584 2315 3537 
Q 2597 3491 2834 3397 
z
" transform="scale(0.015625)"/>
       <path id="DejaVuSans-5d" d="M 1947 4863 
L 1947 -844 
L 622 -844 
L 622 -397 
L 1369 -397 
L 1369 4416 
L 622 4416 
L 622 4863 
L 1947 4863 
z
" transform="scale(0.015625)"/>
      </defs>
      <use xlink:href="#DejaVuSans-54"/>
      <use xlink:href="#DejaVuSans-69" transform="translate(57.958984 0)"/>
      <use xlink:href="#DejaVuSans-6d" transform="translate(85.742188 0)"/>
      <use xlink:href="#DejaVuSans-65" transform="translate(183.154297 0)"/>
      <use xlink:href="#DejaVuSans-20" transform="translate(244.677734 0)"/>
      <use xlink:href="#DejaVuSans-5b" transform="translate(276.464844 0)"/>
      <use xlink:href="#DejaVuSans-64" transform="translate(315.478516 0)"/>
      <use xlink:href="#DejaVuSans-61" transform="translate(378.955078 0)"/>
      <use xlink:href="#DejaVuSans-79" transform="translate(440.234375 0)"/>
      <use xlink:href="#DejaVuSans-73" transform="translate(499.414062 0)"/>
      <use xlink:href="#DejaVuSans-5d" transform="translate(551.513672 0)"/>
     </g>
    </g>
   </g>
   <g id="matplotlib.axis_2">
    <g id="ytick_1">
     <g id="text_7">
      <!-- 0.0 -->
      <g style="fill: #262626" transform="translate(28.566563 302.30005) scale(0.11 -0.11)">
       <defs>
        <path id="DejaVuSans-2e" d="M 684 794 
L 1344 794 
L 1344 0 
L 684 0 
L 684 794 
z
" transform="scale(0.015625)"/>
       </defs>
       <use xlink:href="#DejaVuSans-30"/>
       <use xlink:href="#DejaVuSans-2e" transform="translate(63.623047 0)"/>
       <use xlink:href="#DejaVuSans-30" transform="translate(95.410156 0)"/>
      </g>
     </g>
    </g>
    <g id="ytick_2">
     <g id="text_8">
      <!-- 0.2 -->
      <g style="fill: #262626" transform="translate(28.566563 250.863686) scale(0.11 -0.11)">
       <use xlink:href="#DejaVuSans-30"/>
       <use xlink:href="#DejaVuSans-2e" transform="translate(63.623047 0)"/>
       <use xlink:href="#DejaVuSans-32" transform="translate(95.410156 0)"/>
      </g>
     </g>
    </g>
    <g id="ytick_3">
     <g id="text_9">
      <!-- 0.4 -->
      <g style="fill: #262626" transform="translate(28.566563 199.427322) scale(0.11 -0.11)">
       <defs>
        <path id="DejaVuSans-34" d="M 2419 4116 
L 825 1625 
L 2419 1625 
L 2419 4116 
z
M 2253 4666 
L 3047 4666 
L 3047 1625 
L 3713 1625 
L 3713 1100 
L 3047 1100 
L 3047 0 
L 2419 0 
L 2419 1100 
L 313 1100 
L 313 1709 
L 2253 4666 
z
" transform="scale(0.015625)"/>
       </defs>
       <use xlink:href="#DejaVuSans-30"/>
       <use xlink:href="#DejaVuSans-2e" transform="translate(63.623047 0)"/>
       <use xlink:href="#DejaVuSans-34" transform="translate(95.410156 0)"/>
      </g>
     </g>
    </g>
    <g id="ytick_4">
     <g id="text_10">
      <!-- 0.6 -->
      <g style="fill: #262626" transform="translate(28.566563 147.990959) scale(0.11 -0.11)">
       <defs>
        <path id="DejaVuSans-36" d="M 2113 2584 
Q 1688 2584 1439 2293 
Q 1191 2003 1191 1497 
Q 1191 994 1439 701 
Q 1688 409 2113 409 
Q 2538 409 2786 701 
Q 3034 994 3034 1497 
Q 3034 2003 2786 2293 
Q 2538 2584 2113 2584 
z
M 3366 4563 
L 3366 3988 
Q 3128 4100 2886 4159 
Q 2644 4219 2406 4219 
Q 1781 4219 1451 3797 
Q 1122 3375 1075 2522 
Q 1259 2794 1537 2939 
Q 1816 3084 2150 3084 
Q 2853 3084 3261 2657 
Q 3669 2231 3669 1497 
Q 3669 778 3244 343 
Q 2819 -91 2113 -91 
Q 1303 -91 875 529 
Q 447 1150 447 2328 
Q 447 3434 972 4092 
Q 1497 4750 2381 4750 
Q 2619 4750 2861 4703 
Q 3103 4656 3366 4563 
z
" transform="scale(0.015625)"/>
       </defs>
       <use xlink:href="#DejaVuSans-30"/>
       <use xlink:href="#DejaVuSans-2e" transform="translate(63.623047 0)"/>
       <use xlink:href="#DejaVuSans-36" transform="translate(95.410156 0)"/>
      </g>
     </g>
    </g>
    <g id="ytick_5">
     <g id="text_11">
      <!-- 0.8 -->
      <g style="fill: #262626" transform="translate(28.566563 96.554595) scale(0.11 -0.11)">
       <defs>
        <path id="DejaVuSans-38" d="M 2034 2216 
Q 1584 2216 1326 1975 
Q 1069 1734 1069 1313 
Q 1069 891 1326 650 
Q 1584 409 2034 409 
Q 2484 409 2743 651 
Q 3003 894 3003 1313 
Q 3003 1734 2745 1975 
Q 2488 2216 2034 2216 
z
M 1403 2484 
Q 997 2584 770 2862 
Q 544 3141 544 3541 
Q 544 4100 942 4425 
Q 1341 4750 2034 4750 
Q 2731 4750 3128 4425 
Q 3525 4100 3525 3541 
Q 3525 3141 3298 2862 
Q 3072 2584 2669 2484 
Q 3125 2378 3379 2068 
Q 3634 1759 3634 1313 
Q 3634 634 3220 271 
Q 2806 -91 2034 -91 
Q 1263 -91 848 271 
Q 434 634 434 1313 
Q 434 1759 690 2068 
Q 947 2378 1403 2484 
z
M 1172 3481 
Q 1172 3119 1398 2916 
Q 1625 2713 2034 2713 
Q 2441 2713 2670 2916 
Q 2900 3119 2900 3481 
Q 2900 3844 2670 4047 
Q 2441 4250 2034 4250 
Q 1625 4250 1398 4047 
Q 1172 3844 1172 3481 
z
" transform="scale(0.015625)"/>
       </defs>
       <use xlink:href="#DejaVuSans-30"/>
       <use xlink:href="#DejaVuSans-2e" transform="translate(63.623047 0)"/>
       <use xlink:href="#DejaVuSans-38" transform="translate(95.410156 0)"/>
      </g>
     </g>
    </g>
    <g id="ytick_6">
     <g id="text_12">
      <!-- 1.0 -->
      <g style="fill: #262626" transform="translate(28.566563 45.118232) scale(0.11 -0.11)">
       <use xlink:href="#DejaVuSans-31"/>
       <use xlink:href="#DejaVuSans-2e" transform="translate(63.623047 0)"/>
       <use xlink:href="#DejaVuSans-30" transform="translate(95.410156 0)"/>
      </g>
     </g>
    </g>
    <g id="text_13">
     <!-- Gradient nRMSE -->
     <g style="fill: #262626" transform="translate(22.070938 218.300625) rotate(-90) scale(0.12 -0.12)">
      <defs>
       <path id="DejaVuSans-47" d="M 3809 666 
L 3809 1919 
L 2778 1919 
L 2778 2438 
L 4434 2438 
L 4434 434 
Q 4069 175 3628 42 
Q 3188 -91 2688 -91 
Q 1594 -91 976 548 
Q 359 1188 359 2328 
Q 359 3472 976 4111 
Q 1594 4750 2688 4750 
Q 3144 4750 3555 4637 
Q 3966 4525 4313 4306 
L 4313 3634 
Q 3963 3931 3569 4081 
Q 3175 4231 2741 4231 
Q 1884 4231 1454 3753 
Q 1025 3275 1025 2328 
Q 1025 1384 1454 906 
Q 1884 428 2741 428 
Q 3075 428 3337 486 
Q 3600 544 3809 666 
z
" transform="scale(0.015625)"/>
       <path id="DejaVuSans-72" d="M 2631 2963 
Q 2534 3019 2420 3045 
Q 2306 3072 2169 3072 
Q 1681 3072 1420 2755 
Q 1159 2438 1159 1844 
L 1159 0 
L 581 0 
L 581 3500 
L 1159 3500 
L 1159 2956 
Q 1341 3275 1631 3429 
Q 1922 3584 2338 3584 
Q 2397 3584 2469 3576 
Q 2541 3569 2628 3553 
L 2631 2963 
z
" transform="scale(0.015625)"/>
       <path id="DejaVuSans-6e" d="M 3513 2113 
L 3513 0 
L 2938 0 
L 2938 2094 
Q 2938 2591 2744 2837 
Q 2550 3084 2163 3084 
Q 1697 3084 1428 2787 
Q 1159 2491 1159 1978 
L 1159 0 
L 581 0 
L 581 3500 
L 1159 3500 
L 1159 2956 
Q 1366 3272 1645 3428 
Q 1925 3584 2291 3584 
Q 2894 3584 3203 3211 
Q 3513 2838 3513 2113 
z
" transform="scale(0.015625)"/>
       <path id="DejaVuSans-74" d="M 1172 4494 
L 1172 3500 
L 2356 3500 
L 2356 3053 
L 1172 3053 
L 1172 1153 
Q 1172 725 1289 603 
Q 1406 481 1766 481 
L 2356 481 
L 2356 0 
L 1766 0 
Q 1100 0 847 248 
Q 594 497 594 1153 
L 594 3053 
L 172 3053 
L 172 3500 
L 594 3500 
L 594 4494 
L 1172 4494 
z
" transform="scale(0.015625)"/>
       <path id="DejaVuSans-52" d="M 2841 2188 
Q 3044 2119 3236 1894 
Q 3428 1669 3622 1275 
L 4263 0 
L 3584 0 
L 2988 1197 
Q 2756 1666 2539 1819 
Q 2322 1972 1947 1972 
L 1259 1972 
L 1259 0 
L 628 0 
L 628 4666 
L 2053 4666 
Q 2853 4666 3247 4331 
Q 3641 3997 3641 3322 
Q 3641 2881 3436 2590 
Q 3231 2300 2841 2188 
z
M 1259 4147 
L 1259 2491 
L 2053 2491 
Q 2509 2491 2742 2702 
Q 2975 2913 2975 3322 
Q 2975 3731 2742 3939 
Q 2509 4147 2053 4147 
L 1259 4147 
z
" transform="scale(0.015625)"/>
       <path id="DejaVuSans-4d" d="M 628 4666 
L 1569 4666 
L 2759 1491 
L 3956 4666 
L 4897 4666 
L 4897 0 
L 4281 0 
L 4281 4097 
L 3078 897 
L 2444 897 
L 1241 4097 
L 1241 0 
L 628 0 
L 628 4666 
z
" transform="scale(0.015625)"/>
       <path id="DejaVuSans-53" d="M 3425 4513 
L 3425 3897 
Q 3066 4069 2747 4153 
Q 2428 4238 2131 4238 
Q 1616 4238 1336 4038 
Q 1056 3838 1056 3469 
Q 1056 3159 1242 3001 
Q 1428 2844 1947 2747 
L 2328 2669 
Q 3034 2534 3370 2195 
Q 3706 1856 3706 1288 
Q 3706 609 3251 259 
Q 2797 -91 1919 -91 
Q 1588 -91 1214 -16 
Q 841 59 441 206 
L 441 856 
Q 825 641 1194 531 
Q 1563 422 1919 422 
Q 2459 422 2753 634 
Q 3047 847 3047 1241 
Q 3047 1584 2836 1778 
Q 2625 1972 2144 2069 
L 1759 2144 
Q 1053 2284 737 2584 
Q 422 2884 422 3419 
Q 422 4038 858 4394 
Q 1294 4750 2059 4750 
Q 2388 4750 2728 4690 
Q 3069 4631 3425 4513 
z
" transform="scale(0.015625)"/>
       <path id="DejaVuSans-45" d="M 628 4666 
L 3578 4666 
L 3578 4134 
L 1259 4134 
L 1259 2753 
L 3481 2753 
L 3481 2222 
L 1259 2222 
L 1259 531 
L 3634 531 
L 3634 0 
L 628 0 
L 628 4666 
z
" transform="scale(0.015625)"/>
      </defs>
      <use xlink:href="#DejaVuSans-47"/>
      <use xlink:href="#DejaVuSans-72" transform="translate(77.490234 0)"/>
      <use xlink:href="#DejaVuSans-61" transform="translate(118.603516 0)"/>
      <use xlink:href="#DejaVuSans-64" transform="translate(179.882812 0)"/>
      <use xlink:href="#DejaVuSans-69" transform="translate(243.359375 0)"/>
      <use xlink:href="#DejaVuSans-65" transform="translate(271.142578 0)"/>
      <use xlink:href="#DejaVuSans-6e" transform="translate(332.666016 0)"/>
      <use xlink:href="#DejaVuSans-74" transform="translate(396.044922 0)"/>
      <use xlink:href="#DejaVuSans-20" transform="translate(435.253906 0)"/>
      <use xlink:href="#DejaVuSans-6e" transform="translate(467.041016 0)"/>
      <use xlink:href="#DejaVuSans-52" transform="translate(530.419922 0)"/>
      <use xlink:href="#DejaVuSans-4d" transform="translate(599.902344 0)"/>
      <use xlink:href="#DejaVuSans-53" transform="translate(686.181641 0)"/>
      <use xlink:href="#DejaVuSans-45" transform="translate(749.658203 0)"/>
     </g>
    </g>
   </g>
   <g id="FillBetweenPolyCollection_1">
    <defs>
     <path id="m9e3034dd00" d="M 85.172727 -61.879091 
L 85.172727 -61.879091 
L 87.55126 -64.274055 
L 89.929792 -66.648348 
L 92.308324 -69.003294 
L 94.686857 -71.339864 
L 97.065389 -73.658352 
L 99.443921 -75.958559 
L 101.822453 -78.24007 
L 104.200986 -80.502464 
L 106.579518 -82.74543 
L 108.95805 -84.968886 
L 111.336583 -87.173043 
L 113.715115 -89.358404 
L 116.093647 -91.525789 
L 118.47218 -93.676245 
L 120.850712 -95.810984 
L 123.229244 -97.931306 
L 125.607777 -100.038454 
L 127.986309 -102.13354 
L 130.364841 -104.217448 
L 132.743373 -106.290725 
L 135.121906 -108.353521 
L 137.500438 -110.40566 
L 139.87897 -112.446662 
L 142.257503 -114.475917 
L 144.636035 -116.49279 
L 147.014567 -118.496675 
L 149.3931 -120.487026 
L 151.771632 -122.463366 
L 154.150164 -124.425206 
L 156.528697 -126.372065 
L 158.907229 -128.303453 
L 161.285761 -130.21878 
L 163.664294 -132.117245 
L 166.042826 -133.997775 
L 168.421358 -135.858955 
L 170.79989 -137.699027 
L 173.178423 -139.516021 
L 175.556955 -141.30798 
L 177.935487 -143.073309 
L 180.31402 -144.811074 
L 182.692552 -146.5212 
L 185.071084 -148.204502 
L 187.449617 -149.862483 
L 189.828149 -151.49705 
L 192.206681 -153.110246 
L 194.585214 -154.704106 
L 196.963746 -156.280579 
L 199.342278 -157.841528 
L 201.720811 -159.388727 
L 204.099343 -160.923828 
L 206.477875 -162.448317 
L 208.856407 -163.963478 
L 211.23494 -165.470384 
L 213.613472 -166.969905 
L 215.992004 -168.462687 
L 218.370537 -169.949169 
L 220.749069 -171.429563 
L 223.127601 -172.903864 
L 225.506134 -174.371827 
L 227.884666 -175.833079 
L 230.263198 -177.287224 
L 232.641731 -178.733967 
L 235.020263 -180.173246 
L 237.398795 -181.605297 
L 239.777327 -183.03064 
L 242.15586 -184.450013 
L 244.534392 -185.864261 
L 246.912924 -187.27412 
L 249.291457 -188.679993 
L 251.669989 -190.081763 
L 254.048521 -191.478724 
L 256.427054 -192.869634 
L 258.805586 -194.252928 
L 261.184118 -195.627035 
L 263.562651 -196.990691 
L 265.941183 -198.343113 
L 268.319715 -199.683965 
L 270.698248 -201.013056 
L 273.07678 -202.330117 
L 275.455312 -203.634766 
L 277.833844 -204.926645 
L 280.212377 -206.205525 
L 282.590909 -207.471295 
L 284.969441 -208.723871 
L 287.347974 -209.963146 
L 289.726506 -211.189106 
L 292.105038 -212.401992 
L 294.483571 -213.602535 
L 296.862103 -214.792094 
L 299.240635 -215.972732 
L 301.619168 -217.147162 
L 303.9977 -218.318544 
L 306.376232 -219.490147 
L 308.754765 -220.664919 
L 311.133297 -221.845109 
L 313.511829 -223.032085 
L 315.890361 -224.226302 
L 318.268894 -225.42746 
L 320.647426 -226.634764 
L 323.025958 -227.847144 
L 325.404491 -229.063458 
L 327.783023 -230.282591 
L 330.161555 -231.503465 
L 332.540088 -232.725098 
L 334.91862 -233.946556 
L 337.297152 -235.166885 
L 339.675685 -236.385118 
L 342.054217 -237.600268 
L 344.432749 -238.811331 
L 346.811281 -240.017357 
L 349.189814 -241.217489 
L 351.568346 -242.411041 
L 353.946878 -243.597534 
L 356.325411 -244.776751 
L 358.703943 -245.948741 
L 361.082475 -247.113811 
L 363.461008 -248.272463 
L 365.83954 -249.425286 
L 368.218072 -250.572816 
L 370.596605 -251.715439 
L 372.975137 -252.853325 
L 375.353669 -253.986399 
L 377.732202 -255.114361 
L 380.110734 -256.236724 
L 382.489266 -257.352845 
L 384.867798 -258.461957 
L 387.246331 -259.563253 
L 389.624863 -260.65591 
L 392.003395 -261.739166 
L 394.381928 -262.812379 
L 396.76046 -263.875024 
L 399.138992 -264.926673 
L 401.517525 -265.966952 
L 403.896057 -266.995533 
L 406.274589 -268.012152 
L 408.653122 -269.016596 
L 411.031654 -270.008695 
L 413.410186 -270.988317 
L 415.788719 -271.955345 
L 418.167251 -272.909643 
L 420.545783 -273.851004 
L 422.924315 -274.779117 
L 425.302848 -275.693494 
L 427.68138 -276.593445 
L 430.059912 -277.478124 
L 432.438445 -278.346637 
L 434.816977 -279.198127 
L 437.195509 -280.031884 
L 439.574042 -280.847578 
L 441.952574 -281.645366 
L 444.331106 -282.426052 
L 446.709639 -283.191116 
L 449.088171 -283.942542 
L 451.466703 -284.682558 
L 453.845235 -285.413319 
L 456.223768 -286.136697 
L 458.6023 -286.854234 
L 460.980832 -287.567169 
L 463.359365 -288.276536 
L 465.737897 -288.983263 
L 468.116429 -289.688278 
L 470.494962 -290.392565 
L 472.873494 -291.097243 
L 475.252026 -291.803647 
L 477.630559 -292.513334 
L 480.009091 -293.228045 
L 482.387623 -293.949615 
L 484.766156 -294.679807 
L 487.144688 -295.420153 
L 489.52322 -296.171824 
L 491.901752 -296.935597 
L 494.280285 -297.71183 
L 496.658817 -298.500528 
L 499.037349 -299.30135 
L 501.415882 -300.113666 
L 503.794414 -300.936592 
L 506.172946 -301.769016 
L 508.551479 -302.609566 
L 510.930011 -303.456607 
L 513.308543 -304.308255 
L 515.687076 -305.162363 
L 518.065608 -306.016589 
L 520.44414 -306.868498 
L 522.822673 -307.715671 
L 525.201205 -308.555849 
L 527.579737 -309.387104 
L 529.958269 -310.207964 
L 532.336802 -311.017476 
L 534.715334 -311.815233 
L 537.093866 -312.601339 
L 539.472399 -313.376315 
L 541.850931 -314.14094 
L 544.229463 -314.896081 
L 546.607996 -315.642534 
L 548.986528 -316.380927 
L 551.36506 -317.111676 
L 553.743593 -317.834977 
L 556.122125 -318.550862 
L 558.500657 -319.25922 
L 560.879189 -319.959846 
L 563.257722 -320.652501 
L 565.636254 -321.336914 
L 568.014786 -322.012792 
L 570.393319 -322.679837 
L 572.771851 -323.337817 
L 575.150383 -323.986698 
L 577.528916 -324.626679 
L 579.907448 -325.258176 
L 582.28598 -325.881754 
L 584.664513 -326.497999 
L 587.043045 -327.107378 
L 589.421577 -327.710108 
L 591.80011 -328.305988 
L 594.178642 -328.894284 
L 596.557174 -329.473745 
L 598.935706 -330.042712 
L 601.314239 -330.599285 
L 603.692771 -331.141554 
L 606.071303 -331.667882 
L 608.449836 -332.177078 
L 610.828368 -332.668452 
L 613.2069 -333.141812 
L 615.585433 -333.597387 
L 617.963965 -334.035734 
L 620.342497 -334.457627 
L 622.72103 -334.863953 
L 625.099562 -335.255583 
L 627.478094 -335.633293 
L 629.856627 -335.997721 
L 632.235159 -336.349339 
L 634.613691 -336.688437 
L 636.992223 -337.015149 
L 639.370756 -337.32951 
L 641.749288 -337.631526 
L 644.12782 -337.921262 
L 646.506353 -338.198926 
L 648.884885 -338.464869 
L 651.263417 -338.719546 
L 653.64195 -338.963359 
L 656.020482 -339.19652 
L 658.399014 -339.418909 
L 660.777547 -339.630018 
L 663.156079 -339.828996 
L 665.534611 -340.01473 
L 667.913143 -340.185997 
L 670.291676 -340.341613 
L 672.670208 -340.480566 
L 675.04874 -340.602236 
L 677.427273 -340.706656 
L 677.427273 -404.885376 
L 677.427273 -404.885376 
L 675.04874 -404.645741 
L 672.670208 -404.397035 
L 670.291676 -404.139392 
L 667.913143 -403.873448 
L 665.534611 -403.600186 
L 663.156079 -403.320846 
L 660.777547 -403.036815 
L 658.399014 -402.749273 
L 656.020482 -402.459144 
L 653.64195 -402.167052 
L 651.263417 -401.873276 
L 648.884885 -401.577856 
L 646.506353 -401.280673 
L 644.12782 -400.981542 
L 641.749288 -400.680246 
L 639.370756 -400.376554 
L 636.992223 -400.070148 
L 634.613691 -399.760573 
L 632.235159 -399.447183 
L 629.856627 -399.129133 
L 627.478094 -398.8054 
L 625.099562 -398.474875 
L 622.72103 -398.13645 
L 620.342497 -397.789066 
L 617.963965 -397.431686 
L 615.585433 -397.063293 
L 613.2069 -396.6828 
L 610.828368 -396.28901 
L 608.449836 -395.880636 
L 606.071303 -395.456412 
L 603.692771 -395.015277 
L 601.314239 -394.556511 
L 598.935706 -394.079856 
L 596.557174 -393.585582 
L 594.178642 -393.074519 
L 591.80011 -392.548098 
L 589.421577 -392.008379 
L 587.043045 -391.458091 
L 584.664513 -390.900609 
L 582.28598 -390.339895 
L 579.907448 -389.780409 
L 577.528916 -389.226929 
L 575.150383 -388.684353 
L 572.771851 -388.157433 
L 570.393319 -387.650575 
L 568.014786 -387.167629 
L 565.636254 -386.711719 
L 563.257722 -386.285007 
L 560.879189 -385.888552 
L 558.500657 -385.522299 
L 556.122125 -385.185141 
L 553.743593 -384.875005 
L 551.36506 -384.589008 
L 548.986528 -384.323674 
L 546.607996 -384.075208 
L 544.229463 -383.839831 
L 541.850931 -383.61394 
L 539.472399 -383.394186 
L 537.093866 -383.177572 
L 534.715334 -382.961375 
L 532.336802 -382.743195 
L 529.958269 -382.520971 
L 527.579737 -382.292948 
L 525.201205 -382.057659 
L 522.822673 -381.813859 
L 520.44414 -381.560379 
L 518.065608 -381.296118 
L 515.687076 -381.020059 
L 513.308543 -380.731271 
L 510.930011 -380.428893 
L 508.551479 -380.112154 
L 506.172946 -379.780317 
L 503.794414 -379.432633 
L 501.415882 -379.068304 
L 499.037349 -378.68652 
L 496.658817 -378.286495 
L 494.280285 -377.867597 
L 491.901752 -377.429485 
L 489.52322 -376.972148 
L 487.144688 -376.495865 
L 484.766156 -376.00109 
L 482.387623 -375.488276 
L 480.009091 -374.957716 
L 477.630559 -374.409479 
L 475.252026 -373.843485 
L 472.873494 -373.259615 
L 470.494962 -372.657846 
L 468.116429 -372.038365 
L 465.737897 -371.401608 
L 463.359365 -370.748283 
L 460.980832 -370.079314 
L 458.6023 -369.395745 
L 456.223768 -368.698589 
L 453.845235 -367.988562 
L 451.466703 -367.265802 
L 449.088171 -366.529612 
L 446.709639 -365.778414 
L 444.331106 -365.0102 
L 441.952574 -364.223162 
L 439.574042 -363.416176 
L 437.195509 -362.588924 
L 434.816977 -361.741553 
L 432.438445 -360.874073 
L 430.059912 -359.985969 
L 427.68138 -359.076341 
L 425.302848 -358.144307 
L 422.924315 -357.189358 
L 420.545783 -356.211443 
L 418.167251 -355.210838 
L 415.788719 -354.187988 
L 413.410186 -353.143449 
L 411.031654 -352.077928 
L 408.653122 -350.992272 
L 406.274589 -349.88742 
L 403.896057 -348.764385 
L 401.517525 -347.6242 
L 399.138992 -346.467896 
L 396.76046 -345.296481 
L 394.381928 -344.110978 
L 392.003395 -342.912435 
L 389.624863 -341.701938 
L 387.246331 -340.48056 
L 384.867798 -339.249305 
L 382.489266 -338.009077 
L 380.110734 -336.760609 
L 377.732202 -335.504475 
L 375.353669 -334.241147 
L 372.975137 -332.971047 
L 370.596605 -331.694564 
L 368.218072 -330.412046 
L 365.83954 -329.123788 
L 363.461008 -327.830042 
L 361.082475 -326.531028 
L 358.703943 -325.226946 
L 356.325411 -323.917951 
L 353.946878 -322.604106 
L 351.568346 -321.285266 
L 349.189814 -319.96104 
L 346.811281 -318.630771 
L 344.432749 -317.293549 
L 342.054217 -315.948239 
L 339.675685 -314.59354 
L 337.297152 -313.228027 
L 334.91862 -311.850171 
L 332.540088 -310.458424 
L 330.161555 -309.051343 
L 327.783023 -307.627659 
L 325.404491 -306.186321 
L 323.025958 -304.726583 
L 320.647426 -303.248037 
L 318.268894 -301.750615 
L 315.890361 -300.23452 
L 313.511829 -298.700189 
L 311.133297 -297.148257 
L 308.754765 -295.579511 
L 306.376232 -293.994873 
L 303.9977 -292.395354 
L 301.619168 -290.78199 
L 299.240635 -289.155845 
L 296.862103 -287.517981 
L 294.483571 -285.86942 
L 292.105038 -284.211233 
L 289.726506 -282.544593 
L 287.347974 -280.87077 
L 284.969441 -279.191123 
L 282.590909 -277.507047 
L 280.212377 -275.819789 
L 277.833844 -274.130269 
L 275.455312 -272.438891 
L 273.07678 -270.745501 
L 270.698248 -269.049318 
L 268.319715 -267.348934 
L 265.941183 -265.642438 
L 263.562651 -263.927596 
L 261.184118 -262.20207 
L 258.805586 -260.463609 
L 256.427054 -258.710158 
L 254.048521 -256.939902 
L 251.669989 -255.151276 
L 249.291457 -253.342961 
L 246.912924 -251.513941 
L 244.534392 -249.663577 
L 242.15586 -247.791676 
L 239.777327 -245.898473 
L 237.398795 -243.984582 
L 235.020263 -242.050916 
L 232.641731 -240.098536 
L 230.263198 -238.128534 
L 227.884666 -236.141845 
L 225.506134 -234.139022 
L 223.127601 -232.120018 
L 220.749069 -230.084021 
L 218.370537 -228.029465 
L 215.992004 -225.954099 
L 213.613472 -223.855231 
L 211.23494 -221.730064 
L 208.856407 -219.576002 
L 206.477875 -217.390885 
L 204.099343 -215.173172 
L 201.720811 -212.922082 
L 199.342278 -210.637623 
L 196.963746 -208.320458 
L 194.585214 -205.971816 
L 192.206681 -203.593384 
L 189.828149 -201.186935 
L 187.449617 -198.753955 
L 185.071084 -196.295279 
L 182.692552 -193.810719 
L 180.31402 -191.29894 
L 177.935487 -188.757645 
L 175.556955 -186.184106 
L 173.178423 -183.575754 
L 170.79989 -180.930677 
L 168.421358 -178.247721 
L 166.042826 -175.526399 
L 163.664294 -172.766645 
L 161.285761 -169.968514 
L 158.907229 -167.132178 
L 156.528697 -164.258049 
L 154.150164 -161.346844 
L 151.771632 -158.399733 
L 149.3931 -155.418399 
L 147.014567 -152.404842 
L 144.636035 -149.36114 
L 142.257503 -146.289325 
L 139.87897 -143.191132 
L 137.500438 -140.067965 
L 135.121906 -136.921003 
L 132.743373 -133.751017 
L 130.364841 -130.558144 
L 127.986309 -127.341907 
L 125.607777 -124.101082 
L 123.229244 -120.833621 
L 120.850712 -117.536835 
L 118.47218 -114.207471 
L 116.093647 -110.841673 
L 113.715115 -107.434803 
L 111.336583 -103.981264 
L 108.95805 -100.474637 
L 106.579518 -96.908116 
L 104.200986 -93.275384 
L 101.822453 -89.571477 
L 99.443921 -85.793767 
L 97.065389 -81.94282 
L 94.686857 -78.022977 
L 92.308324 -74.042573 
L 89.929792 -70.01398 
L 87.55126 -65.953198 
L 85.172727 -61.879091 
z
" style="stroke: #000000; stroke-opacity: 0.1"/>
    </defs>
    <g clip-path="url(#pbcbabf5a63)">
     <use xlink:href="#m9e3034dd00" x="0" y="360" style="fill-opacity: 0.1; stroke: #000000; stroke-opacity: 0.1"/>
    </g>
   </g>
   <g id="FillBetweenPolyCollection_2">
    <defs>
     <path id="m3cbdf9b64d" d="M 85.172727 -61.879091 
L 85.172727 -61.879091 
L 87.55126 -64.236031 
L 89.929792 -66.564436 
L 92.308324 -68.865651 
L 94.686857 -71.140743 
L 97.065389 -73.390117 
L 99.443921 -75.613646 
L 101.822453 -77.810913 
L 104.200986 -79.9814 
L 106.579518 -82.124597 
L 108.95805 -84.240106 
L 111.336583 -86.327723 
L 113.715115 -88.387484 
L 116.093647 -90.419715 
L 118.47218 -92.42502 
L 120.850712 -94.404244 
L 123.229244 -96.358465 
L 125.607777 -98.288868 
L 127.986309 -100.196667 
L 130.364841 -102.083037 
L 132.743373 -103.948997 
L 135.121906 -105.795309 
L 137.500438 -107.622456 
L 139.87897 -109.430675 
L 142.257503 -111.220024 
L 144.636035 -112.990449 
L 147.014567 -114.741878 
L 149.3931 -116.474218 
L 151.771632 -118.187351 
L 154.150164 -119.881118 
L 156.528697 -121.555334 
L 158.907229 -123.20981 
L 161.285761 -124.844332 
L 163.664294 -126.45857 
L 166.042826 -128.052027 
L 168.421358 -129.62396 
L 170.79989 -131.173302 
L 173.178423 -132.69864 
L 175.556955 -134.19825 
L 177.935487 -135.670284 
L 180.31402 -137.112993 
L 182.692552 -138.524952 
L 185.071084 -139.905296 
L 187.449617 -141.253738 
L 189.828149 -142.570561 
L 192.206681 -143.856525 
L 194.585214 -145.112788 
L 196.963746 -146.340822 
L 199.342278 -147.542358 
L 201.720811 -148.719307 
L 204.099343 -149.873662 
L 206.477875 -151.007388 
L 208.856407 -152.122361 
L 211.23494 -153.22035 
L 213.613472 -154.302996 
L 215.992004 -155.371718 
L 218.370537 -156.427679 
L 220.749069 -157.471767 
L 223.127601 -158.504572 
L 225.506134 -159.526335 
L 227.884666 -160.537018 
L 230.263198 -161.536363 
L 232.641731 -162.524038 
L 235.020263 -163.499785 
L 237.398795 -164.463544 
L 239.777327 -165.415477 
L 242.15586 -166.355989 
L 244.534392 -167.285665 
L 246.912924 -168.205095 
L 249.291457 -169.114664 
L 251.669989 -170.014353 
L 254.048521 -170.903651 
L 256.427054 -171.781566 
L 258.805586 -172.646757 
L 261.184118 -173.497781 
L 263.562651 -174.333333 
L 265.941183 -175.152414 
L 268.319715 -175.954357 
L 270.698248 -176.73862 
L 273.07678 -177.504636 
L 275.455312 -178.251788 
L 277.833844 -178.979496 
L 280.212377 -179.687306 
L 282.590909 -180.374917 
L 284.969441 -181.042157 
L 287.347974 -181.689 
L 289.726506 -182.315662 
L 292.105038 -182.922701 
L 294.483571 -183.511181 
L 296.862103 -184.082748 
L 299.240635 -184.63962 
L 301.619168 -185.184526 
L 303.9977 -185.720518 
L 306.376232 -186.250676 
L 308.754765 -186.777749 
L 311.133297 -187.303904 
L 313.511829 -187.830589 
L 315.890361 -188.358502 
L 318.268894 -188.887766 
L 320.647426 -189.418131 
L 323.025958 -189.949149 
L 325.404491 -190.480352 
L 327.783023 -191.011336 
L 330.161555 -191.541731 
L 332.540088 -192.07118 
L 334.91862 -192.599276 
L 337.297152 -193.125457 
L 339.675685 -193.649058 
L 342.054217 -194.169264 
L 344.432749 -194.685166 
L 346.811281 -195.195837 
L 349.189814 -195.700385 
L 351.568346 -196.198064 
L 353.946878 -196.688298 
L 356.325411 -197.170719 
L 358.703943 -197.645197 
L 361.082475 -198.111795 
L 363.461008 -198.570694 
L 365.83954 -199.022109 
L 368.218072 -199.466152 
L 370.596605 -199.902744 
L 372.975137 -200.33158 
L 375.353669 -200.752111 
L 377.732202 -201.163552 
L 380.110734 -201.564942 
L 382.489266 -201.955176 
L 384.867798 -202.333106 
L 387.246331 -202.697677 
L 389.624863 -203.048048 
L 392.003395 -203.383684 
L 394.381928 -203.704418 
L 396.76046 -204.010421 
L 399.138992 -204.302155 
L 401.517525 -204.580257 
L 403.896057 -204.845473 
L 406.274589 -205.098599 
L 408.653122 -205.340426 
L 411.031654 -205.57167 
L 413.410186 -205.792906 
L 415.788719 -206.004493 
L 418.167251 -206.206569 
L 420.545783 -206.399109 
L 422.924315 -206.581951 
L 425.302848 -206.754784 
L 427.68138 -206.917113 
L 430.059912 -207.068252 
L 432.438445 -207.207417 
L 434.816977 -207.334014 
L 437.195509 -207.447993 
L 439.574042 -207.55011 
L 441.952574 -207.641894 
L 444.331106 -207.725433 
L 446.709639 -207.803149 
L 449.088171 -207.877531 
L 451.466703 -207.950989 
L 453.845235 -208.025722 
L 456.223768 -208.103655 
L 458.6023 -208.186383 
L 460.980832 -208.275131 
L 463.359365 -208.370798 
L 465.737897 -208.474073 
L 468.116429 -208.585552 
L 470.494962 -208.705844 
L 472.873494 -208.835685 
L 475.252026 -208.976007 
L 477.630559 -209.127964 
L 480.009091 -209.292927 
L 482.387623 -209.472399 
L 484.766156 -209.667888 
L 487.144688 -209.880774 
L 489.52322 -210.112155 
L 491.901752 -210.362754 
L 494.280285 -210.63286 
L 496.658817 -210.92232 
L 499.037349 -211.230616 
L 501.415882 -211.556972 
L 503.794414 -211.900415 
L 506.172946 -212.259809 
L 508.551479 -212.633836 
L 510.930011 -213.020917 
L 513.308543 -213.419155 
L 515.687076 -213.826333 
L 518.065608 -214.239966 
L 520.44414 -214.657395 
L 522.822673 -215.07595 
L 525.201205 -215.493164 
L 527.579737 -215.906991 
L 529.958269 -216.316032 
L 532.336802 -216.71968 
L 534.715334 -217.118139 
L 537.093866 -217.512234 
L 539.472399 -217.903097 
L 541.850931 -218.291845 
L 544.229463 -218.679367 
L 546.607996 -219.066273 
L 548.986528 -219.452972 
L 551.36506 -219.839768 
L 553.743593 -220.226925 
L 556.122125 -220.614721 
L 558.500657 -221.003408 
L 560.879189 -221.393178 
L 563.257722 -221.78416 
L 565.636254 -222.176456 
L 568.014786 -222.57013 
L 570.393319 -222.965281 
L 572.771851 -223.362083 
L 575.150383 -223.760751 
L 577.528916 -224.161505 
L 579.907448 -224.564517 
L 582.28598 -224.969828 
L 584.664513 -225.377332 
L 587.043045 -225.786783 
L 589.421577 -226.197774 
L 591.80011 -226.609776 
L 594.178642 -227.022239 
L 596.557174 -227.434598 
L 598.935706 -227.846248 
L 601.314239 -228.256587 
L 603.692771 -228.665027 
L 606.071303 -229.071026 
L 608.449836 -229.47409 
L 610.828368 -229.873685 
L 613.2069 -230.269105 
L 615.585433 -230.659429 
L 617.963965 -231.043534 
L 620.342497 -231.420147 
L 622.72103 -231.78797 
L 625.099562 -232.145835 
L 627.478094 -232.492775 
L 629.856627 -232.828134 
L 632.235159 -233.151599 
L 634.613691 -233.463165 
L 636.992223 -233.763103 
L 639.370756 -234.051968 
L 641.749288 -234.330591 
L 644.12782 -234.600075 
L 646.506353 -234.861764 
L 648.884885 -235.117195 
L 651.263417 -235.368023 
L 653.64195 -235.615927 
L 656.020482 -235.862453 
L 658.399014 -236.108924 
L 660.777547 -236.356319 
L 663.156079 -236.605265 
L 665.534611 -236.85607 
L 667.913143 -237.108667 
L 670.291676 -237.362662 
L 672.670208 -237.617378 
L 675.04874 -237.871925 
L 677.427273 -238.125395 
L 677.427273 -281.62044 
L 677.427273 -281.62044 
L 675.04874 -281.16824 
L 672.670208 -280.722858 
L 670.291676 -280.284016 
L 667.913143 -279.851366 
L 665.534611 -279.424419 
L 663.156079 -279.002548 
L 660.777547 -278.58499 
L 658.399014 -278.170799 
L 656.020482 -277.758949 
L 653.64195 -277.348469 
L 651.263417 -276.938553 
L 648.884885 -276.528737 
L 646.506353 -276.118986 
L 644.12782 -275.709746 
L 641.749288 -275.301985 
L 639.370756 -274.897143 
L 636.992223 -274.496945 
L 634.613691 -274.103235 
L 632.235159 -273.717797 
L 629.856627 -273.342198 
L 627.478094 -272.977717 
L 625.099562 -272.625348 
L 622.72103 -272.285839 
L 620.342497 -271.959734 
L 617.963965 -271.647376 
L 615.585433 -271.348947 
L 613.2069 -271.064507 
L 610.828368 -270.794051 
L 608.449836 -270.537561 
L 606.071303 -270.295026 
L 603.692771 -270.066406 
L 601.314239 -269.851565 
L 598.935706 -269.650285 
L 596.557174 -269.462303 
L 594.178642 -269.287376 
L 591.80011 -269.125417 
L 589.421577 -268.976608 
L 587.043045 -268.841484 
L 584.664513 -268.720922 
L 582.28598 -268.6161 
L 579.907448 -268.52849 
L 577.528916 -268.459769 
L 575.150383 -268.411701 
L 572.771851 -268.385943 
L 570.393319 -268.383838 
L 568.014786 -268.406169 
L 565.636254 -268.452991 
L 563.257722 -268.523495 
L 560.879189 -268.616122 
L 558.500657 -268.728738 
L 556.122125 -268.858914 
L 553.743593 -269.00421 
L 551.36506 -269.162332 
L 548.986528 -269.331289 
L 546.607996 -269.509527 
L 544.229463 -269.696009 
L 541.850931 -269.890261 
L 539.472399 -270.092321 
L 537.093866 -270.30264 
L 534.715334 -270.521847 
L 532.336802 -270.750555 
L 529.958269 -270.98919 
L 527.579737 -271.237719 
L 525.201205 -271.495482 
L 522.822673 -271.761173 
L 520.44414 -272.032849 
L 518.065608 -272.308093 
L 515.687076 -272.584207 
L 513.308543 -272.858462 
L 510.930011 -273.128315 
L 508.551479 -273.391587 
L 506.172946 -273.646608 
L 503.794414 -273.892221 
L 501.415882 -274.127665 
L 499.037349 -274.352501 
L 496.658817 -274.566596 
L 494.280285 -274.770134 
L 491.901752 -274.963563 
L 489.52322 -275.147613 
L 487.144688 -275.32316 
L 484.766156 -275.490984 
L 482.387623 -275.651575 
L 480.009091 -275.805056 
L 477.630559 -275.951195 
L 475.252026 -276.089575 
L 472.873494 -276.219768 
L 470.494962 -276.341612 
L 468.116429 -276.455318 
L 465.737897 -276.561473 
L 463.359365 -276.660955 
L 460.980832 -276.75476 
L 458.6023 -276.843972 
L 456.223768 -276.929539 
L 453.845235 -277.012004 
L 451.466703 -277.091095 
L 449.088171 -277.165381 
L 446.709639 -277.232127 
L 444.331106 -277.287803 
L 441.952574 -277.329042 
L 439.574042 -277.353294 
L 437.195509 -277.359107 
L 434.816977 -277.34579 
L 432.438445 -277.312647 
L 430.059912 -277.258589 
L 427.68138 -277.182234 
L 425.302848 -277.082431 
L 422.924315 -276.958659 
L 420.545783 -276.810964 
L 418.167251 -276.639639 
L 415.788719 -276.444945 
L 413.410186 -276.226968 
L 411.031654 -275.985601 
L 408.653122 -275.720636 
L 406.274589 -275.431816 
L 403.896057 -275.118853 
L 401.517525 -274.781411 
L 399.138992 -274.419131 
L 396.76046 -274.031652 
L 394.381928 -273.618722 
L 392.003395 -273.18026 
L 389.624863 -272.716423 
L 387.246331 -272.227717 
L 384.867798 -271.715004 
L 382.489266 -271.179439 
L 380.110734 -270.622394 
L 377.732202 -270.045356 
L 375.353669 -269.449858 
L 372.975137 -268.837446 
L 370.596605 -268.209643 
L 368.218072 -267.567924 
L 365.83954 -266.913647 
L 363.461008 -266.248076 
L 361.082475 -265.57243 
L 358.703943 -264.887904 
L 356.325411 -264.195673 
L 353.946878 -263.49683 
L 351.568346 -262.792357 
L 349.189814 -262.083051 
L 346.811281 -261.369488 
L 344.432749 -260.651988 
L 342.054217 -259.930644 
L 339.675685 -259.205357 
L 337.297152 -258.475908 
L 334.91862 -257.742003 
L 332.540088 -257.003354 
L 330.161555 -256.259741 
L 327.783023 -255.511009 
L 325.404491 -254.7571 
L 323.025958 -253.998085 
L 320.647426 -253.234158 
L 318.268894 -252.465661 
L 315.890361 -251.692993 
L 313.511829 -250.916528 
L 311.133297 -250.136562 
L 308.754765 -249.353256 
L 306.376232 -248.566608 
L 303.9977 -247.776492 
L 301.619168 -246.982678 
L 299.240635 -246.184906 
L 296.862103 -245.383017 
L 294.483571 -244.576978 
L 292.105038 -243.766903 
L 289.726506 -242.953035 
L 287.347974 -242.135694 
L 284.969441 -241.315245 
L 282.590909 -240.491959 
L 280.212377 -239.665828 
L 277.833844 -238.836505 
L 275.455312 -238.003218 
L 273.07678 -237.16473 
L 270.698248 -236.319347 
L 268.319715 -235.464919 
L 265.941183 -234.598893 
L 263.562651 -233.7184 
L 261.184118 -232.820411 
L 258.805586 -231.901969 
L 256.427054 -230.960336 
L 254.048521 -229.993036 
L 251.669989 -228.998013 
L 249.291457 -227.973676 
L 246.912924 -226.918959 
L 244.534392 -225.833332 
L 242.15586 -224.716803 
L 239.777327 -223.569821 
L 237.398795 -222.393148 
L 235.020263 -221.187729 
L 232.641731 -219.954485 
L 230.263198 -218.694181 
L 227.884666 -217.407249 
L 225.506134 -216.093605 
L 223.127601 -214.752457 
L 220.749069 -213.3823 
L 218.370537 -211.981032 
L 215.992004 -210.546056 
L 213.613472 -209.074577 
L 211.23494 -207.564006 
L 208.856407 -206.012274 
L 206.477875 -204.417991 
L 204.099343 -202.780504 
L 201.720811 -201.099921 
L 199.342278 -199.376944 
L 196.963746 -197.612758 
L 194.585214 -195.80893 
L 192.206681 -193.967201 
L 189.828149 -192.089088 
L 187.449617 -190.175528 
L 185.071084 -188.226496 
L 182.692552 -186.240646 
L 180.31402 -184.215291 
L 177.935487 -182.14674 
L 175.556955 -180.031172 
L 173.178423 -177.865264 
L 170.79989 -175.646689 
L 168.421358 -173.374118 
L 166.042826 -171.047031 
L 163.664294 -168.665451 
L 161.285761 -166.229556 
L 158.907229 -163.739654 
L 156.528697 -161.196318 
L 154.150164 -158.600521 
L 151.771632 -155.953785 
L 149.3931 -153.258139 
L 147.014567 -150.515824 
L 144.636035 -147.729129 
L 142.257503 -144.900112 
L 139.87897 -142.030346 
L 137.500438 -139.121056 
L 135.121906 -136.173085 
L 132.743373 -133.186734 
L 130.364841 -130.161803 
L 127.986309 -127.097438 
L 125.607777 -123.992045 
L 123.229244 -120.843313 
L 120.850712 -117.648457 
L 118.47218 -114.404208 
L 116.093647 -111.106817 
L 113.715115 -107.751888 
L 111.336583 -104.334272 
L 108.95805 -100.84822 
L 106.579518 -97.287831 
L 104.200986 -93.647903 
L 101.822453 -89.924756 
L 99.443921 -86.117164 
L 97.065389 -82.227143 
L 94.686857 -78.260522 
L 92.308324 -74.227091 
L 89.929792 -70.140546 
L 87.55126 -66.017986 
L 85.172727 -61.879091 
z
" style="stroke: #a52a2a; stroke-opacity: 0.1"/>
    </defs>
    <g clip-path="url(#pbcbabf5a63)">
     <use xlink:href="#m3cbdf9b64d" x="0" y="360" style="fill: #a52a2a; fill-opacity: 0.1; stroke: #a52a2a; stroke-opacity: 0.1"/>
    </g>
   </g>
   <g id="FillBetweenPolyCollection_3">
    <defs>
     <path id="me1da243f68" d="M 85.172727 -61.879091 
L 85.172727 -61.879091 
L 87.55126 -62.672926 
L 89.929792 -63.43951 
L 92.308324 -64.171852 
L 94.686857 -64.865155 
L 97.065389 -65.516661 
L 99.443921 -66.125201 
L 101.822453 -66.690634 
L 104.200986 -67.213356 
L 106.579518 -67.694038 
L 108.95805 -68.133611 
L 111.336583 -68.533408 
L 113.715115 -68.895223 
L 116.093647 -69.221536 
L 118.47218 -69.515584 
L 120.850712 -69.781351 
L 123.229244 -70.023306 
L 125.607777 -70.245961 
L 127.986309 -70.453397 
L 130.364841 -70.648985 
L 132.743373 -70.835183 
L 135.121906 -71.013582 
L 137.500438 -71.18509 
L 139.87897 -71.350252 
L 142.257503 -71.509577 
L 144.636035 -71.663696 
L 147.014567 -71.813379 
L 149.3931 -71.959445 
L 151.771632 -72.102662 
L 154.150164 -72.243658 
L 156.528697 -72.382911 
L 158.907229 -72.520825 
L 161.285761 -72.657791 
L 163.664294 -72.794175 
L 166.042826 -72.930299 
L 168.421358 -73.066359 
L 170.79989 -73.202297 
L 173.178423 -73.337724 
L 175.556955 -73.471986 
L 177.935487 -73.604422 
L 180.31402 -73.734528 
L 182.692552 -73.862025 
L 185.071084 -73.986815 
L 187.449617 -74.108831 
L 189.828149 -74.227818 
L 192.206681 -74.343334 
L 194.585214 -74.454881 
L 196.963746 -74.561974 
L 199.342278 -74.664201 
L 201.720811 -74.761282 
L 204.099343 -74.85292 
L 206.477875 -74.938708 
L 208.856407 -75.018162 
L 211.23494 -75.090806 
L 213.613472 -75.15628 
L 215.992004 -75.214467 
L 218.370537 -75.265597 
L 220.749069 -75.310157 
L 223.127601 -75.348807 
L 225.506134 -75.382183 
L 227.884666 -75.4108 
L 230.263198 -75.434934 
L 232.641731 -75.454658 
L 235.020263 -75.469962 
L 237.398795 -75.480901 
L 239.777327 -75.487707 
L 242.15586 -75.491035 
L 244.534392 -75.49205 
L 246.912924 -75.492421 
L 249.291457 -75.49403 
L 251.669989 -75.498658 
L 254.048521 -75.50761 
L 256.427054 -75.521678 
L 258.805586 -75.541406 
L 261.184118 -75.567292 
L 263.562651 -75.599821 
L 265.941183 -75.639444 
L 268.319715 -75.686606 
L 270.698248 -75.741797 
L 273.07678 -75.805467 
L 275.455312 -75.877928 
L 277.833844 -75.959289 
L 280.212377 -76.049299 
L 282.590909 -76.147293 
L 284.969441 -76.252311 
L 287.347974 -76.363319 
L 289.726506 -76.47946 
L 292.105038 -76.600198 
L 294.483571 -76.725282 
L 296.862103 -76.854537 
L 299.240635 -76.987605 
L 301.619168 -77.123748 
L 303.9977 -77.261741 
L 306.376232 -77.399965 
L 308.754765 -77.536465 
L 311.133297 -77.669106 
L 313.511829 -77.795737 
L 315.890361 -77.914419 
L 318.268894 -78.023606 
L 320.647426 -78.122281 
L 323.025958 -78.21004 
L 325.404491 -78.287054 
L 327.783023 -78.353957 
L 330.161555 -78.411653 
L 332.540088 -78.461154 
L 334.91862 -78.503419 
L 337.297152 -78.539254 
L 339.675685 -78.569392 
L 342.054217 -78.594676 
L 344.432749 -78.616185 
L 346.811281 -78.635326 
L 349.189814 -78.653816 
L 351.568346 -78.673429 
L 353.946878 -78.695634 
L 356.325411 -78.721316 
L 358.703943 -78.750613 
L 361.082475 -78.782909 
L 363.461008 -78.816971 
L 365.83954 -78.851158 
L 368.218072 -78.883695 
L 370.596605 -78.912927 
L 372.975137 -78.937521 
L 375.353669 -78.956614 
L 377.732202 -78.969814 
L 380.110734 -78.977073 
L 382.489266 -78.978562 
L 384.867798 -78.974525 
L 387.246331 -78.965081 
L 389.624863 -78.950071 
L 392.003395 -78.929119 
L 394.381928 -78.901883 
L 396.76046 -78.868338 
L 399.138992 -78.828995 
L 401.517525 -78.785037 
L 403.896057 -78.738376 
L 406.274589 -78.691642 
L 408.653122 -78.647987 
L 411.031654 -78.610677 
L 413.410186 -78.582552 
L 415.788719 -78.565561 
L 418.167251 -78.560565 
L 420.545783 -78.567369 
L 422.924315 -78.584936 
L 425.302848 -78.611673 
L 427.68138 -78.645727 
L 430.059912 -78.685141 
L 432.438445 -78.727886 
L 434.816977 -78.771804 
L 437.195509 -78.814721 
L 439.574042 -78.854556 
L 441.952574 -78.889701 
L 444.331106 -78.919463 
L 446.709639 -78.944249 
L 449.088171 -78.965492 
L 451.466703 -78.985176 
L 453.845235 -79.005214 
L 456.223768 -79.027188 
L 458.6023 -79.052212 
L 460.980832 -79.080845 
L 463.359365 -79.112999 
L 465.737897 -79.147946 
L 468.116429 -79.184494 
L 470.494962 -79.221312 
L 472.873494 -79.257426 
L 475.252026 -79.292521 
L 477.630559 -79.32718 
L 480.009091 -79.362864 
L 482.387623 -79.401628 
L 484.766156 -79.445837 
L 487.144688 -79.497789 
L 489.52322 -79.559403 
L 491.901752 -79.631996 
L 494.280285 -79.716089 
L 496.658817 -79.811447 
L 499.037349 -79.917272 
L 501.415882 -80.032429 
L 503.794414 -80.155714 
L 506.172946 -80.286104 
L 508.551479 -80.422899 
L 510.930011 -80.56578 
L 513.308543 -80.714825 
L 515.687076 -80.870349 
L 518.065608 -81.032711 
L 520.44414 -81.202042 
L 522.822673 -81.378107 
L 525.201205 -81.560249 
L 527.579737 -81.747479 
L 529.958269 -81.938564 
L 532.336802 -82.132038 
L 534.715334 -82.326229 
L 537.093866 -82.519406 
L 539.472399 -82.710007 
L 541.850931 -82.896855 
L 544.229463 -83.0792 
L 546.607996 -83.256697 
L 548.986528 -83.429391 
L 551.36506 -83.597667 
L 553.743593 -83.762276 
L 556.122125 -83.924243 
L 558.500657 -84.084797 
L 560.879189 -84.245246 
L 563.257722 -84.406809 
L 565.636254 -84.570562 
L 568.014786 -84.737393 
L 570.393319 -84.907955 
L 572.771851 -85.082726 
L 575.150383 -85.262158 
L 577.528916 -85.446775 
L 579.907448 -85.637207 
L 582.28598 -85.834095 
L 584.664513 -86.037897 
L 587.043045 -86.249153 
L 589.421577 -86.468574 
L 591.80011 -86.69694 
L 594.178642 -86.934987 
L 596.557174 -87.183249 
L 598.935706 -87.442094 
L 601.314239 -87.711801 
L 603.692771 -87.99259 
L 606.071303 -88.284721 
L 608.449836 -88.58847 
L 610.828368 -88.903994 
L 613.2069 -89.23125 
L 615.585433 -89.570084 
L 617.963965 -89.920275 
L 620.342497 -90.281555 
L 622.72103 -90.653509 
L 625.099562 -91.035478 
L 627.478094 -91.426523 
L 629.856627 -91.825467 
L 632.235159 -92.230831 
L 634.613691 -92.640856 
L 636.992223 -93.053645 
L 639.370756 -93.467316 
L 641.749288 -93.880187 
L 644.12782 -94.29108 
L 646.506353 -94.699398 
L 648.884885 -95.105228 
L 651.263417 -95.509381 
L 653.64195 -95.913318 
L 656.020482 -96.319029 
L 658.399014 -96.728907 
L 660.777547 -97.145498 
L 663.156079 -97.571139 
L 665.534611 -98.007753 
L 667.913143 -98.456679 
L 670.291676 -98.918552 
L 672.670208 -99.393334 
L 675.04874 -99.880417 
L 677.427273 -100.378795 
L 677.427273 -119.117104 
L 677.427273 -119.117104 
L 675.04874 -118.065335 
L 672.670208 -117.047527 
L 670.291676 -116.063805 
L 667.913143 -115.114483 
L 665.534611 -114.200246 
L 663.156079 -113.322296 
L 660.777547 -112.482459 
L 658.399014 -111.683075 
L 656.020482 -110.926943 
L 653.64195 -110.217076 
L 651.263417 -109.55626 
L 648.884885 -108.946667 
L 646.506353 -108.389397 
L 644.12782 -107.884032 
L 641.749288 -107.428509 
L 639.370756 -107.019268 
L 636.992223 -106.651467 
L 634.613691 -106.319357 
L 632.235159 -106.016736 
L 629.856627 -105.737327 
L 627.478094 -105.475066 
L 625.099562 -105.224453 
L 622.72103 -104.980883 
L 620.342497 -104.740904 
L 617.963965 -104.50239 
L 615.585433 -104.264517 
L 613.2069 -104.02751 
L 610.828368 -103.79212 
L 608.449836 -103.559252 
L 606.071303 -103.329556 
L 603.692771 -103.103233 
L 601.314239 -102.879944 
L 598.935706 -102.658908 
L 596.557174 -102.439058 
L 594.178642 -102.219154 
L 591.80011 -101.997956 
L 589.421577 -101.774361 
L 587.043045 -101.547484 
L 584.664513 -101.316445 
L 582.28598 -101.080475 
L 579.907448 -100.838758 
L 577.528916 -100.590284 
L 575.150383 -100.334355 
L 572.771851 -100.07054 
L 570.393319 -99.798942 
L 568.014786 -99.520211 
L 565.636254 -99.235662 
L 563.257722 -98.947283 
L 560.879189 -98.657687 
L 558.500657 -98.369769 
L 556.122125 -98.08634 
L 553.743593 -97.80988 
L 551.36506 -97.54218 
L 548.986528 -97.28428 
L 546.607996 -97.036683 
L 544.229463 -96.799529 
L 541.850931 -96.573062 
L 539.472399 -96.357921 
L 537.093866 -96.155139 
L 534.715334 -95.965761 
L 532.336802 -95.790539 
L 529.958269 -95.629752 
L 527.579737 -95.483148 
L 525.201205 -95.350175 
L 522.822673 -95.230292 
L 520.44414 -95.123104 
L 518.065608 -95.028536 
L 515.687076 -94.946906 
L 513.308543 -94.878906 
L 510.930011 -94.825572 
L 508.551479 -94.78828 
L 506.172946 -94.768854 
L 503.794414 -94.769373 
L 501.415882 -94.791929 
L 499.037349 -94.838424 
L 496.658817 -94.910429 
L 494.280285 -95.009109 
L 491.901752 -95.135304 
L 489.52322 -95.289459 
L 487.144688 -95.471432 
L 484.766156 -95.680121 
L 482.387623 -95.913078 
L 480.009091 -96.166588 
L 477.630559 -96.436092 
L 475.252026 -96.716752 
L 472.873494 -97.004237 
L 470.494962 -97.295237 
L 468.116429 -97.587547 
L 465.737897 -97.880074 
L 463.359365 -98.172471 
L 460.980832 -98.464732 
L 458.6023 -98.756898 
L 456.223768 -99.048902 
L 453.845235 -99.34044 
L 451.466703 -99.630943 
L 449.088171 -99.919576 
L 446.709639 -100.205343 
L 444.331106 -100.487383 
L 441.952574 -100.764956 
L 439.574042 -101.037762 
L 437.195509 -101.306031 
L 434.816977 -101.570486 
L 432.438445 -101.832214 
L 430.059912 -102.09251 
L 427.68138 -102.35245 
L 425.302848 -102.612753 
L 422.924315 -102.873677 
L 420.545783 -103.134955 
L 418.167251 -103.395844 
L 415.788719 -103.655211 
L 413.410186 -103.911531 
L 411.031654 -104.16297 
L 408.653122 -104.40751 
L 406.274589 -104.6431 
L 403.896057 -104.867849 
L 401.517525 -105.080142 
L 399.138992 -105.2787 
L 396.76046 -105.462601 
L 394.381928 -105.631144 
L 392.003395 -105.783796 
L 389.624863 -105.920134 
L 387.246331 -106.039782 
L 384.867798 -106.14234 
L 382.489266 -106.227458 
L 380.110734 -106.29488 
L 377.732202 -106.344484 
L 375.353669 -106.376249 
L 372.975137 -106.390169 
L 370.596605 -106.386115 
L 368.218072 -106.363705 
L 365.83954 -106.322393 
L 363.461008 -106.261617 
L 361.082475 -106.18099 
L 358.703943 -106.080501 
L 356.325411 -105.960676 
L 353.946878 -105.82267 
L 351.568346 -105.668245 
L 349.189814 -105.499649 
L 346.811281 -105.319446 
L 344.432749 -105.130283 
L 342.054217 -104.934694 
L 339.675685 -104.734917 
L 337.297152 -104.532724 
L 334.91862 -104.329329 
L 332.540088 -104.125379 
L 330.161555 -103.921105 
L 327.783023 -103.716502 
L 325.404491 -103.511538 
L 323.025958 -103.306246 
L 320.647426 -103.100779 
L 318.268894 -102.895405 
L 315.890361 -102.690522 
L 313.511829 -102.486663 
L 311.133297 -102.284517 
L 308.754765 -102.084949 
L 306.376232 -101.88898 
L 303.9977 -101.697649 
L 301.619168 -101.511786 
L 299.240635 -101.33183 
L 296.862103 -101.157652 
L 294.483571 -100.988597 
L 292.105038 -100.82362 
L 289.726506 -100.661587 
L 287.347974 -100.501578 
L 284.969441 -100.342989 
L 282.590909 -100.185333 
L 280.212377 -100.02804 
L 277.833844 -99.870271 
L 275.455312 -99.710847 
L 273.07678 -99.548313 
L 270.698248 -99.381147 
L 268.319715 -99.208156 
L 265.941183 -99.028748 
L 263.562651 -98.843143 
L 261.184118 -98.652444 
L 258.805586 -98.458318 
L 256.427054 -98.262679 
L 254.048521 -98.067558 
L 251.669989 -97.874949 
L 249.291457 -97.686602 
L 246.912924 -97.503834 
L 244.534392 -97.327595 
L 242.15586 -97.158563 
L 239.777327 -96.997301 
L 237.398795 -96.844422 
L 235.020263 -96.700703 
L 232.641731 -96.567199 
L 230.263198 -96.445247 
L 227.884666 -96.336108 
L 225.506134 -96.240551 
L 223.127601 -96.158483 
L 220.749069 -96.088614 
L 218.370537 -96.028423 
L 215.992004 -95.974476 
L 213.613472 -95.922919 
L 211.23494 -95.870054 
L 208.856407 -95.812812 
L 206.477875 -95.748904 
L 204.099343 -95.676859 
L 201.720811 -95.595873 
L 199.342278 -95.505499 
L 196.963746 -95.405478 
L 194.585214 -95.295494 
L 192.206681 -95.174953 
L 189.828149 -95.042838 
L 187.449617 -94.897738 
L 185.071084 -94.737759 
L 182.692552 -94.560759 
L 180.31402 -94.364723 
L 177.935487 -94.147929 
L 175.556955 -93.909142 
L 173.178423 -93.647599 
L 170.79989 -93.362819 
L 168.421358 -93.054186 
L 166.042826 -92.720804 
L 163.664294 -92.361321 
L 161.285761 -91.974003 
L 158.907229 -91.556954 
L 156.528697 -91.108499 
L 154.150164 -90.62743 
L 151.771632 -90.11313 
L 149.3931 -89.565652 
L 147.014567 -88.985591 
L 144.636035 -88.37396 
L 142.257503 -87.73202 
L 139.87897 -87.061143 
L 137.500438 -86.362811 
L 135.121906 -85.638558 
L 132.743373 -84.889836 
L 130.364841 -84.117898 
L 127.986309 -83.323637 
L 125.607777 -82.507374 
L 123.229244 -81.668686 
L 120.850712 -80.806411 
L 118.47218 -79.918612 
L 116.093647 -79.002509 
L 113.715115 -78.054171 
L 111.336583 -77.068251 
L 108.95805 -76.037879 
L 106.579518 -74.95501 
L 104.200986 -73.811085 
L 101.822453 -72.597738 
L 99.443921 -71.307687 
L 97.065389 -69.935568 
L 94.686857 -68.478597 
L 92.308324 -66.937161 
L 89.929792 -65.315868 
L 87.55126 -63.624588 
L 85.172727 -61.879091 
z
" style="stroke: #000080; stroke-opacity: 0.1"/>
    </defs>
    <g clip-path="url(#pbcbabf5a63)">
     <use xlink:href="#me1da243f68" x="0" y="360" style="fill: #000080; fill-opacity: 0.1; stroke: #000080; stroke-opacity: 0.1"/>
    </g>
   </g>
   <g id="FillBetweenPolyCollection_4">
    <defs>
     <path id="m4f69b23f5e" d="M 85.172727 -61.879091 
L 85.172727 -61.879091 
L 87.55126 -63.637015 
L 89.929792 -65.322036 
L 92.308324 -66.934752 
L 94.686857 -68.476762 
L 97.065389 -69.950022 
L 99.443921 -71.356588 
L 101.822453 -72.698476 
L 104.200986 -73.977536 
L 106.579518 -75.195317 
L 108.95805 -76.352957 
L 111.336583 -77.451125 
L 113.715115 -78.490058 
L 116.093647 -79.469827 
L 118.47218 -80.390672 
L 120.850712 -81.253456 
L 123.229244 -82.060049 
L 125.607777 -82.813407 
L 127.986309 -83.517428 
L 130.364841 -84.176607 
L 132.743373 -84.795652 
L 135.121906 -85.379061 
L 137.500438 -85.930945 
L 139.87897 -86.455062 
L 142.257503 -86.954899 
L 144.636035 -87.433718 
L 147.014567 -87.894565 
L 149.3931 -88.340205 
L 151.771632 -88.773066 
L 154.150164 -89.195208 
L 156.528697 -89.608275 
L 158.907229 -90.013512 
L 161.285761 -90.411777 
L 163.664294 -90.803522 
L 166.042826 -91.188839 
L 168.421358 -91.567509 
L 170.79989 -91.939095 
L 173.178423 -92.303074 
L 175.556955 -92.658921 
L 177.935487 -93.006167 
L 180.31402 -93.344313 
L 182.692552 -93.672611 
L 185.071084 -93.989886 
L 187.449617 -94.294475 
L 189.828149 -94.584358 
L 192.206681 -94.857486 
L 194.585214 -95.112118 
L 196.963746 -95.347085 
L 199.342278 -95.561941 
L 201.720811 -95.757064 
L 204.099343 -95.933552 
L 206.477875 -96.093125 
L 208.856407 -96.23798 
L 211.23494 -96.370549 
L 213.613472 -96.493276 
L 215.992004 -96.608465 
L 218.370537 -96.718094 
L 220.749069 -96.823671 
L 223.127601 -96.926266 
L 225.506134 -97.0266 
L 227.884666 -97.125175 
L 230.263198 -97.222442 
L 232.641731 -97.319092 
L 235.020263 -97.416247 
L 237.398795 -97.515645 
L 239.777327 -97.619582 
L 242.15586 -97.730834 
L 244.534392 -97.852447 
L 246.912924 -97.987447 
L 249.291457 -98.138392 
L 251.669989 -98.30692 
L 254.048521 -98.493553 
L 256.427054 -98.697766 
L 258.805586 -98.918371 
L 261.184118 -99.153892 
L 263.562651 -99.402971 
L 265.941183 -99.664716 
L 268.319715 -99.938772 
L 270.698248 -100.225158 
L 273.07678 -100.524041 
L 275.455312 -100.835588 
L 277.833844 -101.159903 
L 280.212377 -101.49685 
L 282.590909 -101.845751 
L 284.969441 -102.205121 
L 287.347974 -102.572717 
L 289.726506 -102.94575 
L 292.105038 -103.321253 
L 294.483571 -103.696411 
L 296.862103 -104.068775 
L 299.240635 -104.436405 
L 301.619168 -104.79791 
L 303.9977 -105.152414 
L 306.376232 -105.499389 
L 308.754765 -105.838532 
L 311.133297 -106.169655 
L 313.511829 -106.492606 
L 315.890361 -106.807221 
L 318.268894 -107.113546 
L 320.647426 -107.412048 
L 323.025958 -107.703669 
L 325.404491 -107.989876 
L 327.783023 -108.27253 
L 330.161555 -108.553649 
L 332.540088 -108.83512 
L 334.91862 -109.118539 
L 337.297152 -109.405085 
L 339.675685 -109.69542 
L 342.054217 -109.9897 
L 344.432749 -110.287555 
L 346.811281 -110.588158 
L 349.189814 -110.890307 
L 351.568346 -111.192487 
L 353.946878 -111.492892 
L 356.325411 -111.789495 
L 358.703943 -112.07996 
L 361.082475 -112.361659 
L 363.461008 -112.631656 
L 365.83954 -112.886724 
L 368.218072 -113.123281 
L 370.596605 -113.337326 
L 372.975137 -113.524475 
L 375.353669 -113.680109 
L 377.732202 -113.799608 
L 380.110734 -113.878548 
L 382.489266 -113.912989 
L 384.867798 -113.899849 
L 387.246331 -113.83727 
L 389.624863 -113.724892 
L 392.003395 -113.563989 
L 394.381928 -113.357394 
L 396.76046 -113.10936 
L 399.138992 -112.825299 
L 401.517525 -112.51143 
L 403.896057 -112.174357 
L 406.274589 -111.820798 
L 408.653122 -111.457259 
L 411.031654 -111.08977 
L 413.410186 -110.72368 
L 415.788719 -110.363464 
L 418.167251 -110.01252 
L 420.545783 -109.672959 
L 422.924315 -109.345549 
L 425.302848 -109.029775 
L 427.68138 -108.724189 
L 430.059912 -108.426906 
L 432.438445 -108.135965 
L 434.816977 -107.849592 
L 437.195509 -107.566292 
L 439.574042 -107.285107 
L 441.952574 -107.005503 
L 444.331106 -106.727427 
L 446.709639 -106.45114 
L 449.088171 -106.177057 
L 451.466703 -105.905745 
L 453.845235 -105.63797 
L 456.223768 -105.374737 
L 458.6023 -105.117668 
L 460.980832 -104.86892 
L 463.359365 -104.631349 
L 465.737897 -104.408312 
L 468.116429 -104.203342 
L 470.494962 -104.019665 
L 472.873494 -103.859846 
L 475.252026 -103.725728 
L 477.630559 -103.618483 
L 480.009091 -103.538721 
L 482.387623 -103.486603 
L 484.766156 -103.461999 
L 487.144688 -103.464502 
L 489.52322 -103.493351 
L 491.901752 -103.547433 
L 494.280285 -103.625413 
L 496.658817 -103.725879 
L 499.037349 -103.847518 
L 501.415882 -103.989324 
L 503.794414 -104.150718 
L 506.172946 -104.331597 
L 508.551479 -104.532298 
L 510.930011 -104.753467 
L 513.308543 -104.99594 
L 515.687076 -105.260651 
L 518.065608 -105.548604 
L 520.44414 -105.860895 
L 522.822673 -106.198637 
L 525.201205 -106.562908 
L 527.579737 -106.954447 
L 529.958269 -107.373321 
L 532.336802 -107.818672 
L 534.715334 -108.288564 
L 537.093866 -108.779911 
L 539.472399 -109.288473 
L 541.850931 -109.808917 
L 544.229463 -110.334987 
L 546.607996 -110.859781 
L 548.986528 -111.376108 
L 551.36506 -111.876942 
L 553.743593 -112.355757 
L 556.122125 -112.806831 
L 558.500657 -113.225475 
L 560.879189 -113.608223 
L 563.257722 -113.952952 
L 565.636254 -114.258734 
L 568.014786 -114.525781 
L 570.393319 -114.755428 
L 572.771851 -114.950217 
L 575.150383 -115.113986 
L 577.528916 -115.251734 
L 579.907448 -115.369417 
L 582.28598 -115.47366 
L 584.664513 -115.571445 
L 587.043045 -115.669726 
L 589.421577 -115.775172 
L 591.80011 -115.89398 
L 594.178642 -116.03173 
L 596.557174 -116.193348 
L 598.935706 -116.383064 
L 601.314239 -116.604286 
L 603.692771 -116.85958 
L 606.071303 -117.150775 
L 608.449836 -117.479034 
L 610.828368 -117.844788 
L 613.2069 -118.247716 
L 615.585433 -118.686797 
L 617.963965 -119.160428 
L 620.342497 -119.666706 
L 622.72103 -120.203742 
L 625.099562 -120.769814 
L 627.478094 -121.363557 
L 629.856627 -121.984076 
L 632.235159 -122.630891 
L 634.613691 -123.303916 
L 636.992223 -124.003566 
L 639.370756 -124.730716 
L 641.749288 -125.486445 
L 644.12782 -126.271956 
L 646.506353 -127.088484 
L 648.884885 -127.937201 
L 651.263417 -128.819135 
L 653.64195 -129.735197 
L 656.020482 -130.686227 
L 658.399014 -131.673182 
L 660.777547 -132.697515 
L 663.156079 -133.761343 
L 665.534611 -134.867198 
L 667.913143 -136.017824 
L 670.291676 -137.216625 
L 672.670208 -138.467802 
L 675.04874 -139.775326 
L 677.427273 -141.142155 
L 677.427273 -195.892989 
L 677.427273 -195.892989 
L 675.04874 -193.989929 
L 672.670208 -192.134951 
L 670.291676 -190.338835 
L 667.913143 -188.61148 
L 665.534611 -186.961326 
L 663.156079 -185.395309 
L 660.777547 -183.918206 
L 658.399014 -182.531896 
L 656.020482 -181.235559 
L 653.64195 -180.026384 
L 651.263417 -178.900116 
L 648.884885 -177.851492 
L 646.506353 -176.874664 
L 644.12782 -175.963672 
L 641.749288 -175.112598 
L 639.370756 -174.315632 
L 636.992223 -173.566918 
L 634.613691 -172.860432 
L 632.235159 -172.189854 
L 629.856627 -171.548629 
L 627.478094 -170.930086 
L 625.099562 -170.327591 
L 622.72103 -169.734803 
L 620.342497 -169.145991 
L 617.963965 -168.555954 
L 615.585433 -167.960065 
L 613.2069 -167.354235 
L 610.828368 -166.734816 
L 608.449836 -166.098413 
L 606.071303 -165.441803 
L 603.692771 -164.761913 
L 601.314239 -164.055851 
L 598.935706 -163.321224 
L 596.557174 -162.556398 
L 594.178642 -161.760595 
L 591.80011 -160.933974 
L 589.421577 -160.077609 
L 587.043045 -159.193333 
L 584.664513 -158.283714 
L 582.28598 -157.351989 
L 579.907448 -156.401804 
L 577.528916 -155.437053 
L 575.150383 -154.461804 
L 572.771851 -153.48027 
L 570.393319 -152.496694 
L 568.014786 -151.515105 
L 565.636254 -150.539232 
L 563.257722 -149.5724 
L 560.879189 -148.617513 
L 558.500657 -147.676983 
L 556.122125 -146.752524 
L 553.743593 -145.845026 
L 551.36506 -144.954479 
L 548.986528 -144.079979 
L 546.607996 -143.219939 
L 544.229463 -142.372466 
L 541.850931 -141.535638 
L 539.472399 -140.707691 
L 537.093866 -139.886998 
L 534.715334 -139.072128 
L 532.336802 -138.261866 
L 529.958269 -137.455343 
L 527.579737 -136.65226 
L 525.201205 -135.853158 
L 522.822673 -135.059461 
L 520.44414 -134.273484 
L 518.065608 -133.498397 
L 515.687076 -132.738148 
L 513.308543 -131.99744 
L 510.930011 -131.281714 
L 508.551479 -130.597192 
L 506.172946 -129.950861 
L 503.794414 -129.35033 
L 501.415882 -128.803522 
L 499.037349 -128.3182 
L 496.658817 -127.901528 
L 494.280285 -127.559637 
L 491.901752 -127.297273 
L 489.52322 -127.117633 
L 487.144688 -127.02234 
L 484.766156 -127.011464 
L 482.387623 -127.083364 
L 480.009091 -127.234734 
L 477.630559 -127.460761 
L 475.252026 -127.755423 
L 472.873494 -128.112141 
L 470.494962 -128.524561 
L 468.116429 -128.987051 
L 465.737897 -129.495135 
L 463.359365 -130.045358 
L 460.980832 -130.635081 
L 458.6023 -131.262293 
L 456.223768 -131.925283 
L 453.845235 -132.622058 
L 451.466703 -133.349692 
L 449.088171 -134.104238 
L 446.709639 -134.880336 
L 444.331106 -135.671663 
L 441.952574 -136.471793 
L 439.574042 -137.274847 
L 437.195509 -138.075882 
L 434.816977 -138.871173 
L 432.438445 -139.657729 
L 430.059912 -140.433069 
L 427.68138 -141.195068 
L 425.302848 -141.941858 
L 422.924315 -142.671689 
L 420.545783 -143.382828 
L 418.167251 -144.073582 
L 415.788719 -144.741958 
L 413.410186 -145.385686 
L 411.031654 -146.002337 
L 408.653122 -146.589211 
L 406.274589 -147.143401 
L 403.896057 -147.661852 
L 401.517525 -148.141477 
L 399.138992 -148.579195 
L 396.76046 -148.972017 
L 394.381928 -149.317193 
L 392.003395 -149.612425 
L 389.624863 -149.856114 
L 387.246331 -150.047554 
L 384.867798 -150.187028 
L 382.489266 -150.275857 
L 380.110734 -150.316228 
L 377.732202 -150.310948 
L 375.353669 -150.263103 
L 372.975137 -150.175818 
L 370.596605 -150.052021 
L 368.218072 -149.8944 
L 365.83954 -149.705139 
L 363.461008 -149.486045 
L 361.082475 -149.238624 
L 358.703943 -148.964239 
L 356.325411 -148.664284 
L 353.946878 -148.340265 
L 351.568346 -147.993889 
L 349.189814 -147.627064 
L 346.811281 -147.241934 
L 344.432749 -146.840878 
L 342.054217 -146.426466 
L 339.675685 -146.001317 
L 337.297152 -145.568046 
L 334.91862 -145.129163 
L 332.540088 -144.687092 
L 330.161555 -144.244211 
L 327.783023 -143.802921 
L 325.404491 -143.365764 
L 323.025958 -142.935344 
L 320.647426 -142.51429 
L 318.268894 -142.105164 
L 315.890361 -141.710307 
L 313.511829 -141.331585 
L 311.133297 -140.970111 
L 308.754765 -140.62598 
L 306.376232 -140.298118 
L 303.9977 -139.984339 
L 301.619168 -139.681429 
L 299.240635 -139.385553 
L 296.862103 -139.092656 
L 294.483571 -138.798903 
L 292.105038 -138.50108 
L 289.726506 -138.196771 
L 287.347974 -137.884471 
L 284.969441 -137.563609 
L 282.590909 -137.234442 
L 280.212377 -136.897835 
L 277.833844 -136.555164 
L 275.455312 -136.208199 
L 273.07678 -135.859029 
L 270.698248 -135.51001 
L 268.319715 -135.163705 
L 265.941183 -134.822802 
L 263.562651 -134.489988 
L 261.184118 -134.16783 
L 258.805586 -133.858729 
L 256.427054 -133.564856 
L 254.048521 -133.288198 
L 251.669989 -133.030602 
L 249.291457 -132.793755 
L 246.912924 -132.57896 
L 244.534392 -132.387081 
L 242.15586 -132.21856 
L 239.777327 -132.073223 
L 237.398795 -131.950258 
L 235.020263 -131.848339 
L 232.641731 -131.765773 
L 230.263198 -131.700692 
L 227.884666 -131.651146 
L 225.506134 -131.615092 
L 223.127601 -131.590318 
L 220.749069 -131.574278 
L 218.370537 -131.564105 
L 215.992004 -131.556719 
L 213.613472 -131.548915 
L 211.23494 -131.537411 
L 208.856407 -131.518919 
L 206.477875 -131.490111 
L 204.099343 -131.447428 
L 201.720811 -131.387016 
L 199.342278 -131.30459 
L 196.963746 -131.195536 
L 194.585214 -131.055012 
L 192.206681 -130.878154 
L 189.828149 -130.660296 
L 187.449617 -130.397277 
L 185.071084 -130.085467 
L 182.692552 -129.721785 
L 180.31402 -129.303853 
L 177.935487 -128.829999 
L 175.556955 -128.299589 
L 173.178423 -127.713205 
L 170.79989 -127.072568 
L 168.421358 -126.380289 
L 166.042826 -125.63943 
L 163.664294 -124.852928 
L 161.285761 -124.023304 
L 158.907229 -123.152634 
L 156.528697 -122.242621 
L 154.150164 -121.294786 
L 151.771632 -120.310615 
L 149.3931 -119.29151 
L 147.014567 -118.238755 
L 144.636035 -117.153271 
L 142.257503 -116.035262 
L 139.87897 -114.8841 
L 137.500438 -113.69822 
L 135.121906 -112.47489 
L 132.743373 -111.210133 
L 130.364841 -109.89848 
L 127.986309 -108.53287 
L 125.607777 -107.104482 
L 123.229244 -105.602445 
L 120.850712 -104.014166 
L 118.47218 -102.325456 
L 116.093647 -100.520779 
L 113.715115 -98.583804 
L 111.336583 -96.498049 
L 108.95805 -94.247801 
L 106.579518 -91.819253 
L 104.200986 -89.201906 
L 101.822453 -86.389583 
L 99.443921 -83.38135 
L 97.065389 -80.18204 
L 94.686857 -76.802412 
L 92.308324 -73.25885 
L 89.929792 -69.572856 
L 87.55126 -65.770111 
L 85.172727 -61.879091 
z
" style="stroke: #add8e6; stroke-opacity: 0.1"/>
    </defs>
    <g clip-path="url(#pbcbabf5a63)">
     <use xlink:href="#m4f69b23f5e" x="0" y="360" style="fill: #add8e6; fill-opacity: 0.1; stroke: #add8e6; stroke-opacity: 0.1"/>
    </g>
   </g>
   <g id="line2d_1">
    <path d="M 85.172727 298.120909 
L 94.686857 285.318579 
L 101.822453 276.094227 
L 108.95805 267.278239 
L 116.093647 258.816269 
L 125.607777 247.930232 
L 135.121906 237.362738 
L 144.636035 227.073035 
L 154.150164 217.113975 
L 161.285761 209.906353 
L 168.421358 202.946662 
L 175.556955 196.253957 
L 182.692552 189.83404 
L 189.828149 183.658007 
L 199.342278 175.760425 
L 208.856407 168.23026 
L 218.370537 161.010683 
L 230.263198 152.292121 
L 242.15586 143.879156 
L 254.048521 135.790687 
L 265.941183 128.007224 
L 280.212377 118.987343 
L 292.105038 111.693387 
L 303.9977 104.643051 
L 320.647426 95.0586 
L 334.91862 87.101637 
L 349.189814 79.410736 
L 363.461008 71.948748 
L 380.110734 63.501333 
L 392.003395 57.6742 
L 401.517525 53.204424 
L 411.031654 48.956688 
L 420.545783 44.968777 
L 430.059912 41.267954 
L 439.574042 37.868123 
L 449.088171 34.763923 
L 460.980832 31.176758 
L 472.873494 27.821571 
L 487.144688 24.041991 
L 506.172946 19.225333 
L 522.822673 15.235235 
L 534.715334 12.611696 
L 563.257722 6.531246 
L 575.150383 3.664475 
L 594.246686 -1 
L 594.246686 -1 
" clip-path="url(#pbcbabf5a63)" style="fill: none; stroke: #000000; stroke-width: 1.5; stroke-linecap: round"/>
   </g>
   <g id="line2d_2">
    <path d="M 85.172727 298.120909 
L 94.686857 285.299368 
L 101.822453 276.132165 
L 108.95805 267.455837 
L 116.093647 259.236734 
L 123.229244 251.399111 
L 130.364841 243.87758 
L 137.500438 236.628244 
L 144.636035 229.640211 
L 151.771632 222.929432 
L 158.907229 216.525268 
L 166.042826 210.450471 
L 173.178423 204.718048 
L 180.31402 199.335858 
L 187.449617 194.285367 
L 194.585214 189.539141 
L 201.720811 185.090386 
L 208.856407 180.932682 
L 215.992004 177.041113 
L 223.127601 173.371486 
L 232.641731 168.760738 
L 242.15586 164.463604 
L 249.291457 161.45583 
L 258.805586 157.725637 
L 268.319715 154.290362 
L 277.833844 151.092 
L 289.726506 147.365651 
L 301.619168 143.916398 
L 325.404491 137.381274 
L 344.432749 132.331423 
L 358.703943 128.73345 
L 370.596605 125.943806 
L 380.110734 123.906332 
L 389.624863 122.117764 
L 396.76046 120.978963 
L 403.896057 120.017837 
L 413.410186 118.990063 
L 422.924315 118.229695 
L 432.438445 117.739968 
L 441.952574 117.514532 
L 456.223768 117.483403 
L 487.144688 117.398033 
L 503.794414 117.103682 
L 527.579737 116.427645 
L 548.986528 115.607869 
L 563.257722 114.846172 
L 572.771851 114.125987 
L 582.28598 113.207036 
L 594.178642 111.845192 
L 608.449836 109.994174 
L 627.478094 107.264754 
L 653.64195 103.517802 
L 677.427273 100.127083 
L 677.427273 100.127083 
" clip-path="url(#pbcbabf5a63)" style="fill: none; stroke: #a52a2a; stroke-width: 1.5; stroke-linecap: round"/>
   </g>
   <g id="line2d_3">
    <path d="M 85.172727 298.120909 
L 89.929792 295.622311 
L 94.686857 293.328124 
L 99.443921 291.283556 
L 104.200986 289.487779 
L 108.95805 287.914255 
L 113.715115 286.525303 
L 120.850712 284.706119 
L 127.986309 283.111483 
L 137.500438 281.22605 
L 147.014567 279.600515 
L 156.528697 278.254295 
L 166.042826 277.174449 
L 175.556955 276.309436 
L 185.071084 275.637713 
L 196.963746 275.016274 
L 211.23494 274.51957 
L 244.534392 273.590177 
L 263.562651 272.778518 
L 289.726506 271.429477 
L 308.754765 270.189293 
L 327.783023 268.964771 
L 346.811281 268.022614 
L 361.082475 267.51805 
L 372.975137 267.336155 
L 382.489266 267.39699 
L 392.003395 267.643543 
L 403.896057 268.196887 
L 432.438445 269.71995 
L 451.466703 270.69194 
L 482.387623 272.342647 
L 491.901752 272.61635 
L 499.037349 272.622152 
L 508.551479 272.394411 
L 520.44414 271.837427 
L 532.336802 271.038712 
L 548.986528 269.643164 
L 579.907448 266.762017 
L 601.314239 264.704128 
L 615.585433 263.082699 
L 629.856627 261.218603 
L 639.370756 259.756708 
L 646.506353 258.455603 
L 653.64195 256.934803 
L 660.777547 255.186021 
L 667.913143 253.214419 
L 675.04874 251.027124 
L 677.427273 250.25205 
L 677.427273 250.25205 
" clip-path="url(#pbcbabf5a63)" style="fill: none; stroke: #000080; stroke-width: 1.5; stroke-linecap: round"/>
   </g>
   <g id="line2d_4">
    <path d="M 85.172727 298.120909 
L 89.929792 292.552554 
L 94.686857 287.360413 
L 99.443921 282.631031 
L 104.200986 278.410279 
L 108.95805 274.699621 
L 113.715115 271.463069 
L 118.47218 268.641936 
L 123.229244 266.168753 
L 127.986309 263.974851 
L 132.743373 261.997107 
L 139.87897 259.330419 
L 147.014567 256.93334 
L 154.150164 254.755003 
L 161.285761 252.78246 
L 168.421358 251.026101 
L 175.556955 249.520745 
L 182.692552 248.302802 
L 189.828149 247.377673 
L 196.963746 246.72869 
L 204.099343 246.30951 
L 213.613472 245.978905 
L 237.398795 245.267048 
L 246.912924 244.716796 
L 254.048521 244.109125 
L 263.562651 243.053521 
L 275.455312 241.478106 
L 325.404491 234.32218 
L 353.946878 230.083422 
L 363.461008 228.941149 
L 370.596605 228.305327 
L 377.732202 227.944722 
L 382.489266 227.905577 
L 387.246331 228.057588 
L 392.003395 228.411793 
L 396.76046 228.959311 
L 403.896057 230.081895 
L 411.031654 231.453946 
L 425.302848 234.514183 
L 458.6023 241.810019 
L 465.737897 243.048276 
L 472.873494 244.014006 
L 477.630559 244.460378 
L 482.387623 244.715016 
L 487.144688 244.756579 
L 491.901752 244.577647 
L 496.658817 244.186297 
L 501.415882 243.603577 
L 508.551479 242.435255 
L 515.687076 241.0006 
L 525.201205 238.791967 
L 534.715334 236.319654 
L 546.607996 232.96014 
L 563.257722 228.237324 
L 572.771851 225.784757 
L 582.28598 223.587175 
L 594.178642 221.103837 
L 613.2069 217.199024 
L 622.72103 215.030728 
L 629.856627 213.233647 
L 636.992223 211.214758 
L 641.749288 209.700479 
L 646.506353 208.018426 
L 651.263417 206.140374 
L 656.020482 204.039107 
L 660.777547 201.69214 
L 665.534611 199.085738 
L 670.291676 196.22227 
L 675.04874 193.117372 
L 677.427273 191.482428 
L 677.427273 191.482428 
" clip-path="url(#pbcbabf5a63)" style="fill: none; stroke: #add8e6; stroke-width: 1.5; stroke-linecap: round"/>
   </g>
   <g id="patch_3">
    <path d="M 55.56 310.98 
L 55.56 28.08 
" style="fill: none; stroke: #ffffff; stroke-width: 1.25; stroke-linejoin: miter; stroke-linecap: square"/>
   </g>
   <g id="patch_4">
    <path d="M 707.04 310.98 
L 707.04 28.08 
" style="fill: none; stroke: #ffffff; stroke-width: 1.25; stroke-linejoin: miter; stroke-linecap: square"/>
   </g>
   <g id="patch_5">
    <path d="M 55.56 310.98 
L 707.04 310.98 
" style="fill: none; stroke: #ffffff; stroke-width: 1.25; stroke-linejoin: miter; stroke-linecap: square"/>
   </g>
   <g id="patch_6">
    <path d="M 55.56 28.08 
L 707.04 28.08 
" style="fill: none; stroke: #ffffff; stroke-width: 1.25; stroke-linejoin: miter; stroke-linecap: square"/>
   </g>
   <g id="text_14">
    <!-- QG3L (Perturbed) - [32, 96] x [256, 384] -->
    <g style="fill: #262626" transform="translate(260.17875 22.08) scale(0.12 -0.12)">
     <defs>
      <path id="DejaVuSans-51" d="M 2522 4238 
Q 1834 4238 1429 3725 
Q 1025 3213 1025 2328 
Q 1025 1447 1429 934 
Q 1834 422 2522 422 
Q 3209 422 3611 934 
Q 4013 1447 4013 2328 
Q 4013 3213 3611 3725 
Q 3209 4238 2522 4238 
z
M 3406 84 
L 4238 -825 
L 3475 -825 
L 2784 -78 
Q 2681 -84 2626 -87 
Q 2572 -91 2522 -91 
Q 1538 -91 948 567 
Q 359 1225 359 2328 
Q 359 3434 948 4092 
Q 1538 4750 2522 4750 
Q 3503 4750 4090 4092 
Q 4678 3434 4678 2328 
Q 4678 1516 4351 937 
Q 4025 359 3406 84 
z
" transform="scale(0.015625)"/>
      <path id="DejaVuSans-33" d="M 2597 2516 
Q 3050 2419 3304 2112 
Q 3559 1806 3559 1356 
Q 3559 666 3084 287 
Q 2609 -91 1734 -91 
Q 1441 -91 1130 -33 
Q 819 25 488 141 
L 488 750 
Q 750 597 1062 519 
Q 1375 441 1716 441 
Q 2309 441 2620 675 
Q 2931 909 2931 1356 
Q 2931 1769 2642 2001 
Q 2353 2234 1838 2234 
L 1294 2234 
L 1294 2753 
L 1863 2753 
Q 2328 2753 2575 2939 
Q 2822 3125 2822 3475 
Q 2822 3834 2567 4026 
Q 2313 4219 1838 4219 
Q 1578 4219 1281 4162 
Q 984 4106 628 3988 
L 628 4550 
Q 988 4650 1302 4700 
Q 1616 4750 1894 4750 
Q 2613 4750 3031 4423 
Q 3450 4097 3450 3541 
Q 3450 3153 3228 2886 
Q 3006 2619 2597 2516 
z
" transform="scale(0.015625)"/>
      <path id="DejaVuSans-4c" d="M 628 4666 
L 1259 4666 
L 1259 531 
L 3531 531 
L 3531 0 
L 628 0 
L 628 4666 
z
" transform="scale(0.015625)"/>
      <path id="DejaVuSans-28" d="M 1984 4856 
Q 1566 4138 1362 3434 
Q 1159 2731 1159 2009 
Q 1159 1288 1364 580 
Q 1569 -128 1984 -844 
L 1484 -844 
Q 1016 -109 783 600 
Q 550 1309 550 2009 
Q 550 2706 781 3412 
Q 1013 4119 1484 4856 
L 1984 4856 
z
" transform="scale(0.015625)"/>
      <path id="DejaVuSans-50" d="M 1259 4147 
L 1259 2394 
L 2053 2394 
Q 2494 2394 2734 2622 
Q 2975 2850 2975 3272 
Q 2975 3691 2734 3919 
Q 2494 4147 2053 4147 
L 1259 4147 
z
M 628 4666 
L 2053 4666 
Q 2838 4666 3239 4311 
Q 3641 3956 3641 3272 
Q 3641 2581 3239 2228 
Q 2838 1875 2053 1875 
L 1259 1875 
L 1259 0 
L 628 0 
L 628 4666 
z
" transform="scale(0.015625)"/>
      <path id="DejaVuSans-75" d="M 544 1381 
L 544 3500 
L 1119 3500 
L 1119 1403 
Q 1119 906 1312 657 
Q 1506 409 1894 409 
Q 2359 409 2629 706 
Q 2900 1003 2900 1516 
L 2900 3500 
L 3475 3500 
L 3475 0 
L 2900 0 
L 2900 538 
Q 2691 219 2414 64 
Q 2138 -91 1772 -91 
Q 1169 -91 856 284 
Q 544 659 544 1381 
z
M 1991 3584 
L 1991 3584 
z
" transform="scale(0.015625)"/>
      <path id="DejaVuSans-62" d="M 3116 1747 
Q 3116 2381 2855 2742 
Q 2594 3103 2138 3103 
Q 1681 3103 1420 2742 
Q 1159 2381 1159 1747 
Q 1159 1113 1420 752 
Q 1681 391 2138 391 
Q 2594 391 2855 752 
Q 3116 1113 3116 1747 
z
M 1159 2969 
Q 1341 3281 1617 3432 
Q 1894 3584 2278 3584 
Q 2916 3584 3314 3078 
Q 3713 2572 3713 1747 
Q 3713 922 3314 415 
Q 2916 -91 2278 -91 
Q 1894 -91 1617 61 
Q 1341 213 1159 525 
L 1159 0 
L 581 0 
L 581 4863 
L 1159 4863 
L 1159 2969 
z
" transform="scale(0.015625)"/>
      <path id="DejaVuSans-29" d="M 513 4856 
L 1013 4856 
Q 1481 4119 1714 3412 
Q 1947 2706 1947 2009 
Q 1947 1309 1714 600 
Q 1481 -109 1013 -844 
L 513 -844 
Q 928 -128 1133 580 
Q 1338 1288 1338 2009 
Q 1338 2731 1133 3434 
Q 928 4138 513 4856 
z
" transform="scale(0.015625)"/>
      <path id="DejaVuSans-2d" d="M 313 2009 
L 1997 2009 
L 1997 1497 
L 313 1497 
L 313 2009 
z
" transform="scale(0.015625)"/>
      <path id="DejaVuSans-2c" d="M 750 794 
L 1409 794 
L 1409 256 
L 897 -744 
L 494 -744 
L 750 256 
L 750 794 
z
" transform="scale(0.015625)"/>
      <path id="DejaVuSans-39" d="M 703 97 
L 703 672 
Q 941 559 1184 500 
Q 1428 441 1663 441 
Q 2288 441 2617 861 
Q 2947 1281 2994 2138 
Q 2813 1869 2534 1725 
Q 2256 1581 1919 1581 
Q 1219 1581 811 2004 
Q 403 2428 403 3163 
Q 403 3881 828 4315 
Q 1253 4750 1959 4750 
Q 2769 4750 3195 4129 
Q 3622 3509 3622 2328 
Q 3622 1225 3098 567 
Q 2575 -91 1691 -91 
Q 1453 -91 1209 -44 
Q 966 3 703 97 
z
M 1959 2075 
Q 2384 2075 2632 2365 
Q 2881 2656 2881 3163 
Q 2881 3666 2632 3958 
Q 2384 4250 1959 4250 
Q 1534 4250 1286 3958 
Q 1038 3666 1038 3163 
Q 1038 2656 1286 2365 
Q 1534 2075 1959 2075 
z
" transform="scale(0.015625)"/>
      <path id="DejaVuSans-78" d="M 3513 3500 
L 2247 1797 
L 3578 0 
L 2900 0 
L 1881 1375 
L 863 0 
L 184 0 
L 1544 1831 
L 300 3500 
L 978 3500 
L 1906 2253 
L 2834 3500 
L 3513 3500 
z
" transform="scale(0.015625)"/>
     </defs>
     <use xlink:href="#DejaVuSans-51"/>
     <use xlink:href="#DejaVuSans-47" transform="translate(78.710938 0)"/>
     <use xlink:href="#DejaVuSans-33" transform="translate(156.201172 0)"/>
     <use xlink:href="#DejaVuSans-4c" transform="translate(219.824219 0)"/>
     <use xlink:href="#DejaVuSans-20" transform="translate(275.537109 0)"/>
     <use xlink:href="#DejaVuSans-28" transform="translate(307.324219 0)"/>
     <use xlink:href="#DejaVuSans-50" transform="translate(346.337891 0)"/>
     <use xlink:href="#DejaVuSans-65" transform="translate(403.015625 0)"/>
     <use xlink:href="#DejaVuSans-72" transform="translate(464.539062 0)"/>
     <use xlink:href="#DejaVuSans-74" transform="translate(505.652344 0)"/>
     <use xlink:href="#DejaVuSans-75" transform="translate(544.861328 0)"/>
     <use xlink:href="#DejaVuSans-72" transform="translate(608.240234 0)"/>
     <use xlink:href="#DejaVuSans-62" transform="translate(649.353516 0)"/>
     <use xlink:href="#DejaVuSans-65" transform="translate(712.830078 0)"/>
     <use xlink:href="#DejaVuSans-64" transform="translate(774.353516 0)"/>
     <use xlink:href="#DejaVuSans-29" transform="translate(837.830078 0)"/>
     <use xlink:href="#DejaVuSans-20" transform="translate(876.84375 0)"/>
     <use xlink:href="#DejaVuSans-2d" transform="translate(908.630859 0)"/>
     <use xlink:href="#DejaVuSans-20" transform="translate(944.714844 0)"/>
     <use xlink:href="#DejaVuSans-5b" transform="translate(976.501953 0)"/>
     <use xlink:href="#DejaVuSans-33" transform="translate(1015.515625 0)"/>
     <use xlink:href="#DejaVuSans-32" transform="translate(1079.138672 0)"/>
     <use xlink:href="#DejaVuSans-2c" transform="translate(1142.761719 0)"/>
     <use xlink:href="#DejaVuSans-20" transform="translate(1174.548828 0)"/>
     <use xlink:href="#DejaVuSans-39" transform="translate(1206.335938 0)"/>
     <use xlink:href="#DejaVuSans-36" transform="translate(1269.958984 0)"/>
     <use xlink:href="#DejaVuSans-5d" transform="translate(1333.582031 0)"/>
     <use xlink:href="#DejaVuSans-20" transform="translate(1372.595703 0)"/>
     <use xlink:href="#DejaVuSans-78" transform="translate(1404.382812 0)"/>
     <use xlink:href="#DejaVuSans-20" transform="translate(1463.5625 0)"/>
     <use xlink:href="#DejaVuSans-5b" transform="translate(1495.349609 0)"/>
     <use xlink:href="#DejaVuSans-32" transform="translate(1534.363281 0)"/>
     <use xlink:href="#DejaVuSans-35" transform="translate(1597.986328 0)"/>
     <use xlink:href="#DejaVuSans-36" transform="translate(1661.609375 0)"/>
     <use xlink:href="#DejaVuSans-2c" transform="translate(1725.232422 0)"/>
     <use xlink:href="#DejaVuSans-20" transform="translate(1757.019531 0)"/>
     <use xlink:href="#DejaVuSans-33" transform="translate(1788.806641 0)"/>
     <use xlink:href="#DejaVuSans-38" transform="translate(1852.429688 0)"/>
     <use xlink:href="#DejaVuSans-34" transform="translate(1916.052734 0)"/>
     <use xlink:href="#DejaVuSans-5d" transform="translate(1979.675781 0)"/>
    </g>
   </g>
   <g id="legend_1">
    <g id="patch_7">
     <path d="M 63.26 101.46375 
L 197.121406 101.46375 
Q 199.321406 101.46375 199.321406 99.26375 
L 199.321406 35.78 
Q 199.321406 33.58 197.121406 33.58 
L 63.26 33.58 
Q 61.06 33.58 61.06 35.78 
L 61.06 99.26375 
Q 61.06 101.46375 63.26 101.46375 
z
" style="fill: #eaeaf2; opacity: 0.8; stroke: #cccccc; stroke-linejoin: miter"/>
    </g>
    <g id="line2d_5">
     <path d="M 65.46 42.488281 
L 76.46 42.488281 
L 87.46 42.488281 
" style="fill: none; stroke: #000000; stroke-width: 1.5; stroke-linecap: round"/>
    </g>
    <g id="text_15">
     <!-- Reduced Gravity -->
     <g style="fill: #262626" transform="translate(96.26 46.338281) scale(0.11 -0.11)">
      <defs>
       <path id="DejaVuSans-63" d="M 3122 3366 
L 3122 2828 
Q 2878 2963 2633 3030 
Q 2388 3097 2138 3097 
Q 1578 3097 1268 2742 
Q 959 2388 959 1747 
Q 959 1106 1268 751 
Q 1578 397 2138 397 
Q 2388 397 2633 464 
Q 2878 531 3122 666 
L 3122 134 
Q 2881 22 2623 -34 
Q 2366 -91 2075 -91 
Q 1284 -91 818 406 
Q 353 903 353 1747 
Q 353 2603 823 3093 
Q 1294 3584 2113 3584 
Q 2378 3584 2631 3529 
Q 2884 3475 3122 3366 
z
" transform="scale(0.015625)"/>
       <path id="DejaVuSans-76" d="M 191 3500 
L 800 3500 
L 1894 563 
L 2988 3500 
L 3597 3500 
L 2284 0 
L 1503 0 
L 191 3500 
z
" transform="scale(0.015625)"/>
      </defs>
      <use xlink:href="#DejaVuSans-52"/>
      <use xlink:href="#DejaVuSans-65" transform="translate(64.982422 0)"/>
      <use xlink:href="#DejaVuSans-64" transform="translate(126.505859 0)"/>
      <use xlink:href="#DejaVuSans-75" transform="translate(189.982422 0)"/>
      <use xlink:href="#DejaVuSans-63" transform="translate(253.361328 0)"/>
      <use xlink:href="#DejaVuSans-65" transform="translate(308.341797 0)"/>
      <use xlink:href="#DejaVuSans-64" transform="translate(369.865234 0)"/>
      <use xlink:href="#DejaVuSans-20" transform="translate(433.341797 0)"/>
      <use xlink:href="#DejaVuSans-47" transform="translate(465.128906 0)"/>
      <use xlink:href="#DejaVuSans-72" transform="translate(542.619141 0)"/>
      <use xlink:href="#DejaVuSans-61" transform="translate(583.732422 0)"/>
      <use xlink:href="#DejaVuSans-76" transform="translate(645.011719 0)"/>
      <use xlink:href="#DejaVuSans-69" transform="translate(704.191406 0)"/>
      <use xlink:href="#DejaVuSans-74" transform="translate(731.974609 0)"/>
      <use xlink:href="#DejaVuSans-79" transform="translate(771.183594 0)"/>
     </g>
    </g>
    <g id="line2d_6">
     <path d="M 65.46 58.634219 
L 76.46 58.634219 
L 87.46 58.634219 
" style="fill: none; stroke: #a52a2a; stroke-width: 1.5; stroke-linecap: round"/>
    </g>
    <g id="text_16">
     <!-- VarDyn -->
     <g style="fill: #262626" transform="translate(96.26 62.484219) scale(0.11 -0.11)">
      <defs>
       <path id="DejaVuSans-56" d="M 1831 0 
L 50 4666 
L 709 4666 
L 2188 738 
L 3669 4666 
L 4325 4666 
L 2547 0 
L 1831 0 
z
" transform="scale(0.015625)"/>
       <path id="DejaVuSans-44" d="M 1259 4147 
L 1259 519 
L 2022 519 
Q 2988 519 3436 956 
Q 3884 1394 3884 2338 
Q 3884 3275 3436 3711 
Q 2988 4147 2022 4147 
L 1259 4147 
z
M 628 4666 
L 1925 4666 
Q 3281 4666 3915 4102 
Q 4550 3538 4550 2338 
Q 4550 1131 3912 565 
Q 3275 0 1925 0 
L 628 0 
L 628 4666 
z
" transform="scale(0.015625)"/>
      </defs>
      <use xlink:href="#DejaVuSans-56"/>
      <use xlink:href="#DejaVuSans-61" transform="translate(60.658203 0)"/>
      <use xlink:href="#DejaVuSans-72" transform="translate(121.9375 0)"/>
      <use xlink:href="#DejaVuSans-44" transform="translate(163.050781 0)"/>
      <use xlink:href="#DejaVuSans-79" transform="translate(240.052734 0)"/>
      <use xlink:href="#DejaVuSans-6e" transform="translate(299.232422 0)"/>
     </g>
    </g>
    <g id="line2d_7">
     <path d="M 65.46 74.780156 
L 76.46 74.780156 
L 87.46 74.780156 
" style="fill: none; stroke: #000080; stroke-width: 1.5; stroke-linecap: round"/>
    </g>
    <g id="text_17">
     <!-- SurfML -->
     <g style="fill: #262626" transform="translate(96.26 78.630156) scale(0.11 -0.11)">
      <defs>
       <path id="DejaVuSans-66" d="M 2375 4863 
L 2375 4384 
L 1825 4384 
Q 1516 4384 1395 4259 
Q 1275 4134 1275 3809 
L 1275 3500 
L 2222 3500 
L 2222 3053 
L 1275 3053 
L 1275 0 
L 697 0 
L 697 3053 
L 147 3053 
L 147 3500 
L 697 3500 
L 697 3744 
Q 697 4328 969 4595 
Q 1241 4863 1831 4863 
L 2375 4863 
z
" transform="scale(0.015625)"/>
      </defs>
      <use xlink:href="#DejaVuSans-53"/>
      <use xlink:href="#DejaVuSans-75" transform="translate(63.476562 0)"/>
      <use xlink:href="#DejaVuSans-72" transform="translate(126.855469 0)"/>
      <use xlink:href="#DejaVuSans-66" transform="translate(167.96875 0)"/>
      <use xlink:href="#DejaVuSans-4d" transform="translate(203.173828 0)"/>
      <use xlink:href="#DejaVuSans-4c" transform="translate(289.453125 0)"/>
     </g>
    </g>
    <g id="line2d_8">
     <path d="M 65.46 90.926094 
L 76.46 90.926094 
L 87.46 90.926094 
" style="fill: none; stroke: #add8e6; stroke-width: 1.5; stroke-linecap: round"/>
    </g>
    <g id="text_18">
     <!-- SurfML - No Alpha -->
     <g style="fill: #262626" transform="translate(96.26 94.776094) scale(0.11 -0.11)">
      <defs>
       <path id="DejaVuSans-4e" d="M 628 4666 
L 1478 4666 
L 3547 763 
L 3547 4666 
L 4159 4666 
L 4159 0 
L 3309 0 
L 1241 3903 
L 1241 0 
L 628 0 
L 628 4666 
z
" transform="scale(0.015625)"/>
       <path id="DejaVuSans-6f" d="M 1959 3097 
Q 1497 3097 1228 2736 
Q 959 2375 959 1747 
Q 959 1119 1226 758 
Q 1494 397 1959 397 
Q 2419 397 2687 759 
Q 2956 1122 2956 1747 
Q 2956 2369 2687 2733 
Q 2419 3097 1959 3097 
z
M 1959 3584 
Q 2709 3584 3137 3096 
Q 3566 2609 3566 1747 
Q 3566 888 3137 398 
Q 2709 -91 1959 -91 
Q 1206 -91 779 398 
Q 353 888 353 1747 
Q 353 2609 779 3096 
Q 1206 3584 1959 3584 
z
" transform="scale(0.015625)"/>
       <path id="DejaVuSans-41" d="M 2188 4044 
L 1331 1722 
L 3047 1722 
L 2188 4044 
z
M 1831 4666 
L 2547 4666 
L 4325 0 
L 3669 0 
L 3244 1197 
L 1141 1197 
L 716 0 
L 50 0 
L 1831 4666 
z
" transform="scale(0.015625)"/>
       <path id="DejaVuSans-6c" d="M 603 4863 
L 1178 4863 
L 1178 0 
L 603 0 
L 603 4863 
z
" transform="scale(0.015625)"/>
       <path id="DejaVuSans-70" d="M 1159 525 
L 1159 -1331 
L 581 -1331 
L 581 3500 
L 1159 3500 
L 1159 2969 
Q 1341 3281 1617 3432 
Q 1894 3584 2278 3584 
Q 2916 3584 3314 3078 
Q 3713 2572 3713 1747 
Q 3713 922 3314 415 
Q 2916 -91 2278 -91 
Q 1894 -91 1617 61 
Q 1341 213 1159 525 
z
M 3116 1747 
Q 3116 2381 2855 2742 
Q 2594 3103 2138 3103 
Q 1681 3103 1420 2742 
Q 1159 2381 1159 1747 
Q 1159 1113 1420 752 
Q 1681 391 2138 391 
Q 2594 391 2855 752 
Q 3116 1113 3116 1747 
z
" transform="scale(0.015625)"/>
       <path id="DejaVuSans-68" d="M 3513 2113 
L 3513 0 
L 2938 0 
L 2938 2094 
Q 2938 2591 2744 2837 
Q 2550 3084 2163 3084 
Q 1697 3084 1428 2787 
Q 1159 2491 1159 1978 
L 1159 0 
L 581 0 
L 581 4863 
L 1159 4863 
L 1159 2956 
Q 1366 3272 1645 3428 
Q 1925 3584 2291 3584 
Q 2894 3584 3203 3211 
Q 3513 2838 3513 2113 
z
" transform="scale(0.015625)"/>
      </defs>
      <use xlink:href="#DejaVuSans-53"/>
      <use xlink:href="#DejaVuSans-75" transform="translate(63.476562 0)"/>
      <use xlink:href="#DejaVuSans-72" transform="translate(126.855469 0)"/>
      <use xlink:href="#DejaVuSans-66" transform="translate(167.96875 0)"/>
      <use xlink:href="#DejaVuSans-4d" transform="translate(203.173828 0)"/>
      <use xlink:href="#DejaVuSans-4c" transform="translate(289.453125 0)"/>
      <use xlink:href="#DejaVuSans-20" transform="translate(345.166016 0)"/>
      <use xlink:href="#DejaVuSans-2d" transform="translate(376.953125 0)"/>
      <use xlink:href="#DejaVuSans-20" transform="translate(413.037109 0)"/>
      <use xlink:href="#DejaVuSans-4e" transform="translate(444.824219 0)"/>
      <use xlink:href="#DejaVuSans-6f" transform="translate(519.628906 0)"/>
      <use xlink:href="#DejaVuSans-20" transform="translate(580.810547 0)"/>
      <use xlink:href="#DejaVuSans-41" transform="translate(612.597656 0)"/>
      <use xlink:href="#DejaVuSans-6c" transform="translate(681.005859 0)"/>
      <use xlink:href="#DejaVuSans-70" transform="translate(708.789062 0)"/>
      <use xlink:href="#DejaVuSans-68" transform="translate(772.265625 0)"/>
      <use xlink:href="#DejaVuSans-61" transform="translate(835.644531 0)"/>
     </g>
    </g>
   </g>
  </g>
 </g>
 <defs>
  <clipPath id="pbcbabf5a63">
   <rect x="55.56" y="28.08" width="651.48" height="282.9"/>
  </clipPath>
 </defs>
</svg>
