<?xml version="1.0" encoding="utf-8" standalone="no"?>
<!DOCTYPE svg PUBLIC "-//W3C//DTD SVG 1.1//EN"
  "http://www.w3.org/Graphics/SVG/1.1/DTD/svg11.dtd">
<svg xmlns:xlink="http://www.w3.org/1999/xlink" width="720pt" height="360pt" viewBox="0 0 720 360" xmlns="http://www.w3.org/2000/svg" version="1.1">
 <metadata>
  <rdf:RDF xmlns:dc="http://purl.org/dc/elements/1.1/" xmlns:cc="http://creativecommons.org/ns#" xmlns:rdf="http://www.w3.org/1999/02/22-rdf-syntax-ns#">
   <cc:Work>
    <dc:type rdf:resource="http://purl.org/dc/dcmitype/StillImage"/>
    <dc:date>2026-03-25T17:51:06.424873</dc:date>
    <dc:format>image/svg+xml</dc:format>
    <dc:creator>
     <cc:Agent>
      <dc:title>Matplotlib v3.10.6, https://matplotlib.org/</dc:title>
     </cc:Agent>
    </dc:creator>
   </cc:Work>
  </rdf:RDF>
 </metadata>
 <defs>
  <style type="text/css">*{stroke-linejoin: round; stroke-linecap: butt}</style>
 </defs>
 <g id="figure_1">
  <g id="patch_1">
   <path d="M 0 360 
L 720 360 
L 720 0 
L 0 0 
z
" style="fill: #ffffff"/>
  </g>
  <g id="axes_1">
   <g id="patch_2">
    <path d="M 55.56 310.98 
L 707.04 310.98 
L 707.04 28.08 
L 55.56 28.08 
z
" style="fill: #eaeaf2"/>
   </g>
   <g id="matplotlib.axis_1">
    <g id="xtick_1">
     <g id="text_1">
      <!-- 0 -->
      <g style="fill: #262626" transform="translate(81.673352 328.838281) scale(0.11 -0.11)">
       <defs>
        <path id="DejaVuSans-30" d="M 2034 4250 
Q 1547 4250 1301 3770 
Q 1056 3291 1056 2328 
Q 1056 1369 1301 889 
Q 1547 409 2034 409 
Q 2525 409 2770 889 
Q 3016 1369 3016 2328 
Q 3016 3291 2770 3770 
Q 2525 4250 2034 4250 
z
M 2034 4750 
Q 2819 4750 3233 4129 
Q 3647 3509 3647 2328 
Q 3647 1150 3233 529 
Q 2819 -91 2034 -91 
Q 1250 -91 836 529 
Q 422 1150 422 2328 
Q 422 3509 836 4129 
Q 1250 4750 2034 4750 
z
" transform="scale(0.015625)"/>
       </defs>
       <use xlink:href="#DejaVuSans-30"/>
      </g>
     </g>
    </g>
    <g id="xtick_2">
     <g id="text_2">
      <!-- 5 -->
      <g style="fill: #262626" transform="translate(224.385291 328.838281) scale(0.11 -0.11)">
       <defs>
        <path id="DejaVuSans-35" d="M 691 4666 
L 3169 4666 
L 3169 4134 
L 1269 4134 
L 1269 2991 
Q 1406 3038 1543 3061 
Q 1681 3084 1819 3084 
Q 2600 3084 3056 2656 
Q 3513 2228 3513 1497 
Q 3513 744 3044 326 
Q 2575 -91 1722 -91 
Q 1428 -91 1123 -41 
Q 819 9 494 109 
L 494 744 
Q 775 591 1075 516 
Q 1375 441 1709 441 
Q 2250 441 2565 725 
Q 2881 1009 2881 1497 
Q 2881 1984 2565 2268 
Q 2250 2553 1709 2553 
Q 1456 2553 1204 2497 
Q 953 2441 691 2322 
L 691 4666 
z
" transform="scale(0.015625)"/>
       </defs>
       <use xlink:href="#DejaVuSans-35"/>
      </g>
     </g>
    </g>
    <g id="xtick_3">
     <g id="text_3">
      <!-- 10 -->
      <g style="fill: #262626" transform="translate(363.597855 328.838281) scale(0.11 -0.11)">
       <defs>
        <path id="DejaVuSans-31" d="M 794 531 
L 1825 531 
L 1825 4091 
L 703 3866 
L 703 4441 
L 1819 4666 
L 2450 4666 
L 2450 531 
L 3481 531 
L 3481 0 
L 794 0 
L 794 531 
z
" transform="scale(0.015625)"/>
       </defs>
       <use xlink:href="#DejaVuSans-31"/>
       <use xlink:href="#DejaVuSans-30" transform="translate(63.623047 0)"/>
      </g>
     </g>
    </g>
    <g id="xtick_4">
     <g id="text_4">
      <!-- 15 -->
      <g style="fill: #262626" transform="translate(506.309793 328.838281) scale(0.11 -0.11)">
       <use xlink:href="#DejaVuSans-31"/>
       <use xlink:href="#DejaVuSans-35" transform="translate(63.623047 0)"/>
      </g>
     </g>
    </g>
    <g id="xtick_5">
     <g id="text_5">
      <!-- 20 -->
      <g style="fill: #262626" transform="translate(649.021732 328.838281) scale(0.11 -0.11)">
       <defs>
        <path id="DejaVuSans-32" d="M 1228 531 
L 3431 531 
L 3431 0 
L 469 0 
L 469 531 
Q 828 903 1448 1529 
Q 2069 2156 2228 2338 
Q 2531 2678 2651 2914 
Q 2772 3150 2772 3378 
Q 2772 3750 2511 3984 
Q 2250 4219 1831 4219 
Q 1534 4219 1204 4116 
Q 875 4013 500 3803 
L 500 4441 
Q 881 4594 1212 4672 
Q 1544 4750 1819 4750 
Q 2544 4750 2975 4387 
Q 3406 4025 3406 3419 
Q 3406 3131 3298 2873 
Q 3191 2616 2906 2266 
Q 2828 2175 2409 1742 
Q 1991 1309 1228 531 
z
" transform="scale(0.015625)"/>
       </defs>
       <use xlink:href="#DejaVuSans-32"/>
       <use xlink:href="#DejaVuSans-30" transform="translate(63.623047 0)"/>
      </g>
     </g>
    </g>
    <g id="text_6">
     <!-- Time [days] -->
     <g style="fill: #262626" transform="translate(345.868125 344.244062) scale(0.12 -0.12)">
      <defs>
       <path id="DejaVuSans-54" d="M -19 4666 
L 3928 4666 
L 3928 4134 
L 2272 4134 
L 2272 0 
L 1638 0 
L 1638 4134 
L -19 4134 
L -19 4666 
z
" transform="scale(0.015625)"/>
       <path id="DejaVuSans-69" d="M 603 3500 
L 1178 3500 
L 1178 0 
L 603 0 
L 603 3500 
z
M 603 4863 
L 1178 4863 
L 1178 4134 
L 603 4134 
L 603 4863 
z
" transform="scale(0.015625)"/>
       <path id="DejaVuSans-6d" d="M 3328 2828 
Q 3544 3216 3844 3400 
Q 4144 3584 4550 3584 
Q 5097 3584 5394 3201 
Q 5691 2819 5691 2113 
L 5691 0 
L 5113 0 
L 5113 2094 
Q 5113 2597 4934 2840 
Q 4756 3084 4391 3084 
Q 3944 3084 3684 2787 
Q 3425 2491 3425 1978 
L 3425 0 
L 2847 0 
L 2847 2094 
Q 2847 2600 2669 2842 
Q 2491 3084 2119 3084 
Q 1678 3084 1418 2786 
Q 1159 2488 1159 1978 
L 1159 0 
L 581 0 
L 581 3500 
L 1159 3500 
L 1159 2956 
Q 1356 3278 1631 3431 
Q 1906 3584 2284 3584 
Q 2666 3584 2933 3390 
Q 3200 3197 3328 2828 
z
" transform="scale(0.015625)"/>
       <path id="DejaVuSans-65" d="M 3597 1894 
L 3597 1613 
L 953 1613 
Q 991 1019 1311 708 
Q 1631 397 2203 397 
Q 2534 397 2845 478 
Q 3156 559 3463 722 
L 3463 178 
Q 3153 47 2828 -22 
Q 2503 -91 2169 -91 
Q 1331 -91 842 396 
Q 353 884 353 1716 
Q 353 2575 817 3079 
Q 1281 3584 2069 3584 
Q 2775 3584 3186 3129 
Q 3597 2675 3597 1894 
z
M 3022 2063 
Q 3016 2534 2758 2815 
Q 2500 3097 2075 3097 
Q 1594 3097 1305 2825 
Q 1016 2553 972 2059 
L 3022 2063 
z
" transform="scale(0.015625)"/>
       <path id="DejaVuSans-20" transform="scale(0.015625)"/>
       <path id="DejaVuSans-5b" d="M 550 4863 
L 1875 4863 
L 1875 4416 
L 1125 4416 
L 1125 -397 
L 1875 -397 
L 1875 -844 
L 550 -844 
L 550 4863 
z
" transform="scale(0.015625)"/>
       <path id="DejaVuSans-64" d="M 2906 2969 
L 2906 4863 
L 3481 4863 
L 3481 0 
L 2906 0 
L 2906 525 
Q 2725 213 2448 61 
Q 2172 -91 1784 -91 
Q 1150 -91 751 415 
Q 353 922 353 1747 
Q 353 2572 751 3078 
Q 1150 3584 1784 3584 
Q 2172 3584 2448 3432 
Q 2725 3281 2906 2969 
z
M 947 1747 
Q 947 1113 1208 752 
Q 1469 391 1925 391 
Q 2381 391 2643 752 
Q 2906 1113 2906 1747 
Q 2906 2381 2643 2742 
Q 2381 3103 1925 3103 
Q 1469 3103 1208 2742 
Q 947 2381 947 1747 
z
" transform="scale(0.015625)"/>
       <path id="DejaVuSans-61" d="M 2194 1759 
Q 1497 1759 1228 1600 
Q 959 1441 959 1056 
Q 959 750 1161 570 
Q 1363 391 1709 391 
Q 2188 391 2477 730 
Q 2766 1069 2766 1631 
L 2766 1759 
L 2194 1759 
z
M 3341 1997 
L 3341 0 
L 2766 0 
L 2766 531 
Q 2569 213 2275 61 
Q 1981 -91 1556 -91 
Q 1019 -91 701 211 
Q 384 513 384 1019 
Q 384 1609 779 1909 
Q 1175 2209 1959 2209 
L 2766 2209 
L 2766 2266 
Q 2766 2663 2505 2880 
Q 2244 3097 1772 3097 
Q 1472 3097 1187 3025 
Q 903 2953 641 2809 
L 641 3341 
Q 956 3463 1253 3523 
Q 1550 3584 1831 3584 
Q 2591 3584 2966 3190 
Q 3341 2797 3341 1997 
z
" transform="scale(0.015625)"/>
       <path id="DejaVuSans-79" d="M 2059 -325 
Q 1816 -950 1584 -1140 
Q 1353 -1331 966 -1331 
L 506 -1331 
L 506 -850 
L 844 -850 
Q 1081 -850 1212 -737 
Q 1344 -625 1503 -206 
L 1606 56 
L 191 3500 
L 800 3500 
L 1894 763 
L 2988 3500 
L 3597 3500 
L 2059 -325 
z
" transform="scale(0.015625)"/>
       <path id="DejaVuSans-73" d="M 2834 3397 
L 2834 2853 
Q 2591 2978 2328 3040 
Q 2066 3103 1784 3103 
Q 1356 3103 1142 2972 
Q 928 2841 928 2578 
Q 928 2378 1081 2264 
Q 1234 2150 1697 2047 
L 1894 2003 
Q 2506 1872 2764 1633 
Q 3022 1394 3022 966 
Q 3022 478 2636 193 
Q 2250 -91 1575 -91 
Q 1294 -91 989 -36 
Q 684 19 347 128 
L 347 722 
Q 666 556 975 473 
Q 1284 391 1588 391 
Q 1994 391 2212 530 
Q 2431 669 2431 922 
Q 2431 1156 2273 1281 
Q 2116 1406 1581 1522 
L 1381 1569 
Q 847 1681 609 1914 
Q 372 2147 372 2553 
Q 372 3047 722 3315 
Q 1072 3584 1716 3584 
Q 2034 3584 2315 3537 
Q 2597 3491 2834 3397 
z
" transform="scale(0.015625)"/>
       <path id="DejaVuSans-5d" d="M 1947 4863 
L 1947 -844 
L 622 -844 
L 622 -397 
L 1369 -397 
L 1369 4416 
L 622 4416 
L 622 4863 
L 1947 4863 
z
" transform="scale(0.015625)"/>
      </defs>
      <use xlink:href="#DejaVuSans-54"/>
      <use xlink:href="#DejaVuSans-69" transform="translate(57.958984 0)"/>
      <use xlink:href="#DejaVuSans-6d" transform="translate(85.742188 0)"/>
      <use xlink:href="#DejaVuSans-65" transform="translate(183.154297 0)"/>
      <use xlink:href="#DejaVuSans-20" transform="translate(244.677734 0)"/>
      <use xlink:href="#DejaVuSans-5b" transform="translate(276.464844 0)"/>
      <use xlink:href="#DejaVuSans-64" transform="translate(315.478516 0)"/>
      <use xlink:href="#DejaVuSans-61" transform="translate(378.955078 0)"/>
      <use xlink:href="#DejaVuSans-79" transform="translate(440.234375 0)"/>
      <use xlink:href="#DejaVuSans-73" transform="translate(499.414062 0)"/>
      <use xlink:href="#DejaVuSans-5d" transform="translate(551.513672 0)"/>
     </g>
    </g>
   </g>
   <g id="matplotlib.axis_2">
    <g id="ytick_1">
     <g id="text_7">
      <!-- 0.0 -->
      <g style="fill: #262626" transform="translate(28.566562 302.30005) scale(0.11 -0.11)">
       <defs>
        <path id="DejaVuSans-2e" d="M 684 794 
L 1344 794 
L 1344 0 
L 684 0 
L 684 794 
z
" transform="scale(0.015625)"/>
       </defs>
       <use xlink:href="#DejaVuSans-30"/>
       <use xlink:href="#DejaVuSans-2e" transform="translate(63.623047 0)"/>
       <use xlink:href="#DejaVuSans-30" transform="translate(95.410156 0)"/>
      </g>
     </g>
    </g>
    <g id="ytick_2">
     <g id="text_8">
      <!-- 0.1 -->
      <g style="fill: #262626" transform="translate(28.566562 260.853414) scale(0.11 -0.11)">
       <use xlink:href="#DejaVuSans-30"/>
       <use xlink:href="#DejaVuSans-2e" transform="translate(63.623047 0)"/>
       <use xlink:href="#DejaVuSans-31" transform="translate(95.410156 0)"/>
      </g>
     </g>
    </g>
    <g id="ytick_3">
     <g id="text_9">
      <!-- 0.2 -->
      <g style="fill: #262626" transform="translate(28.566562 219.406778) scale(0.11 -0.11)">
       <use xlink:href="#DejaVuSans-30"/>
       <use xlink:href="#DejaVuSans-2e" transform="translate(63.623047 0)"/>
       <use xlink:href="#DejaVuSans-32" transform="translate(95.410156 0)"/>
      </g>
     </g>
    </g>
    <g id="ytick_4">
     <g id="text_10">
      <!-- 0.3 -->
      <g style="fill: #262626" transform="translate(28.566562 177.960141) scale(0.11 -0.11)">
       <defs>
        <path id="DejaVuSans-33" d="M 2597 2516 
Q 3050 2419 3304 2112 
Q 3559 1806 3559 1356 
Q 3559 666 3084 287 
Q 2609 -91 1734 -91 
Q 1441 -91 1130 -33 
Q 819 25 488 141 
L 488 750 
Q 750 597 1062 519 
Q 1375 441 1716 441 
Q 2309 441 2620 675 
Q 2931 909 2931 1356 
Q 2931 1769 2642 2001 
Q 2353 2234 1838 2234 
L 1294 2234 
L 1294 2753 
L 1863 2753 
Q 2328 2753 2575 2939 
Q 2822 3125 2822 3475 
Q 2822 3834 2567 4026 
Q 2313 4219 1838 4219 
Q 1578 4219 1281 4162 
Q 984 4106 628 3988 
L 628 4550 
Q 988 4650 1302 4700 
Q 1616 4750 1894 4750 
Q 2613 4750 3031 4423 
Q 3450 4097 3450 3541 
Q 3450 3153 3228 2886 
Q 3006 2619 2597 2516 
z
" transform="scale(0.015625)"/>
       </defs>
       <use xlink:href="#DejaVuSans-30"/>
       <use xlink:href="#DejaVuSans-2e" transform="translate(63.623047 0)"/>
       <use xlink:href="#DejaVuSans-33" transform="translate(95.410156 0)"/>
      </g>
     </g>
    </g>
    <g id="ytick_5">
     <g id="text_11">
      <!-- 0.4 -->
      <g style="fill: #262626" transform="translate(28.566562 136.513505) scale(0.11 -0.11)">
       <defs>
        <path id="DejaVuSans-34" d="M 2419 4116 
L 825 1625 
L 2419 1625 
L 2419 4116 
z
M 2253 4666 
L 3047 4666 
L 3047 1625 
L 3713 1625 
L 3713 1100 
L 3047 1100 
L 3047 0 
L 2419 0 
L 2419 1100 
L 313 1100 
L 313 1709 
L 2253 4666 
z
" transform="scale(0.015625)"/>
       </defs>
       <use xlink:href="#DejaVuSans-30"/>
       <use xlink:href="#DejaVuSans-2e" transform="translate(63.623047 0)"/>
       <use xlink:href="#DejaVuSans-34" transform="translate(95.410156 0)"/>
      </g>
     </g>
    </g>
    <g id="ytick_6">
     <g id="text_12">
      <!-- 0.5 -->
      <g style="fill: #262626" transform="translate(28.566562 95.066869) scale(0.11 -0.11)">
       <use xlink:href="#DejaVuSans-30"/>
       <use xlink:href="#DejaVuSans-2e" transform="translate(63.623047 0)"/>
       <use xlink:href="#DejaVuSans-35" transform="translate(95.410156 0)"/>
      </g>
     </g>
    </g>
    <g id="ytick_7">
     <g id="text_13">
      <!-- 0.6 -->
      <g style="fill: #262626" transform="translate(28.566562 53.620233) scale(0.11 -0.11)">
       <defs>
        <path id="DejaVuSans-36" d="M 2113 2584 
Q 1688 2584 1439 2293 
Q 1191 2003 1191 1497 
Q 1191 994 1439 701 
Q 1688 409 2113 409 
Q 2538 409 2786 701 
Q 3034 994 3034 1497 
Q 3034 2003 2786 2293 
Q 2538 2584 2113 2584 
z
M 3366 4563 
L 3366 3988 
Q 3128 4100 2886 4159 
Q 2644 4219 2406 4219 
Q 1781 4219 1451 3797 
Q 1122 3375 1075 2522 
Q 1259 2794 1537 2939 
Q 1816 3084 2150 3084 
Q 2853 3084 3261 2657 
Q 3669 2231 3669 1497 
Q 3669 778 3244 343 
Q 2819 -91 2113 -91 
Q 1303 -91 875 529 
Q 447 1150 447 2328 
Q 447 3434 972 4092 
Q 1497 4750 2381 4750 
Q 2619 4750 2861 4703 
Q 3103 4656 3366 4563 
z
" transform="scale(0.015625)"/>
       </defs>
       <use xlink:href="#DejaVuSans-30"/>
       <use xlink:href="#DejaVuSans-2e" transform="translate(63.623047 0)"/>
       <use xlink:href="#DejaVuSans-36" transform="translate(95.410156 0)"/>
      </g>
     </g>
    </g>
    <g id="text_14">
     <!-- nRMSE -->
     <g style="fill: #262626" transform="translate(22.070937 190.27875) rotate(-90) scale(0.12 -0.12)">
      <defs>
       <path id="DejaVuSans-6e" d="M 3513 2113 
L 3513 0 
L 2938 0 
L 2938 2094 
Q 2938 2591 2744 2837 
Q 2550 3084 2163 3084 
Q 1697 3084 1428 2787 
Q 1159 2491 1159 1978 
L 1159 0 
L 581 0 
L 581 3500 
L 1159 3500 
L 1159 2956 
Q 1366 3272 1645 3428 
Q 1925 3584 2291 3584 
Q 2894 3584 3203 3211 
Q 3513 2838 3513 2113 
z
" transform="scale(0.015625)"/>
       <path id="DejaVuSans-52" d="M 2841 2188 
Q 3044 2119 3236 1894 
Q 3428 1669 3622 1275 
L 4263 0 
L 3584 0 
L 2988 1197 
Q 2756 1666 2539 1819 
Q 2322 1972 1947 1972 
L 1259 1972 
L 1259 0 
L 628 0 
L 628 4666 
L 2053 4666 
Q 2853 4666 3247 4331 
Q 3641 3997 3641 3322 
Q 3641 2881 3436 2590 
Q 3231 2300 2841 2188 
z
M 1259 4147 
L 1259 2491 
L 2053 2491 
Q 2509 2491 2742 2702 
Q 2975 2913 2975 3322 
Q 2975 3731 2742 3939 
Q 2509 4147 2053 4147 
L 1259 4147 
z
" transform="scale(0.015625)"/>
       <path id="DejaVuSans-4d" d="M 628 4666 
L 1569 4666 
L 2759 1491 
L 3956 4666 
L 4897 4666 
L 4897 0 
L 4281 0 
L 4281 4097 
L 3078 897 
L 2444 897 
L 1241 4097 
L 1241 0 
L 628 0 
L 628 4666 
z
" transform="scale(0.015625)"/>
       <path id="DejaVuSans-53" d="M 3425 4513 
L 3425 3897 
Q 3066 4069 2747 4153 
Q 2428 4238 2131 4238 
Q 1616 4238 1336 4038 
Q 1056 3838 1056 3469 
Q 1056 3159 1242 3001 
Q 1428 2844 1947 2747 
L 2328 2669 
Q 3034 2534 3370 2195 
Q 3706 1856 3706 1288 
Q 3706 609 3251 259 
Q 2797 -91 1919 -91 
Q 1588 -91 1214 -16 
Q 841 59 441 206 
L 441 856 
Q 825 641 1194 531 
Q 1563 422 1919 422 
Q 2459 422 2753 634 
Q 3047 847 3047 1241 
Q 3047 1584 2836 1778 
Q 2625 1972 2144 2069 
L 1759 2144 
Q 1053 2284 737 2584 
Q 422 2884 422 3419 
Q 422 4038 858 4394 
Q 1294 4750 2059 4750 
Q 2388 4750 2728 4690 
Q 3069 4631 3425 4513 
z
" transform="scale(0.015625)"/>
       <path id="DejaVuSans-45" d="M 628 4666 
L 3578 4666 
L 3578 4134 
L 1259 4134 
L 1259 2753 
L 3481 2753 
L 3481 2222 
L 1259 2222 
L 1259 531 
L 3634 531 
L 3634 0 
L 628 0 
L 628 4666 
z
" transform="scale(0.015625)"/>
      </defs>
      <use xlink:href="#DejaVuSans-6e"/>
      <use xlink:href="#DejaVuSans-52" transform="translate(63.378906 0)"/>
      <use xlink:href="#DejaVuSans-4d" transform="translate(132.861328 0)"/>
      <use xlink:href="#DejaVuSans-53" transform="translate(219.140625 0)"/>
      <use xlink:href="#DejaVuSans-45" transform="translate(282.617188 0)"/>
     </g>
    </g>
   </g>
   <g id="FillBetweenPolyCollection_1">
    <defs>
     <path id="mf0d0e95fc5" d="M 85.172727 -61.879091 
L 85.172727 -61.879091 
L 87.55126 -63.106156 
L 89.929792 -64.333385 
L 92.308324 -65.560681 
L 94.686857 -66.78796 
L 97.065389 -68.015147 
L 99.443921 -69.242172 
L 101.822453 -70.468977 
L 104.200986 -71.695511 
L 106.579518 -72.921724 
L 108.95805 -74.147571 
L 111.336583 -75.373017 
L 113.715115 -76.598035 
L 116.093647 -77.822608 
L 118.47218 -79.046718 
L 120.850712 -80.270349 
L 123.229244 -81.493492 
L 125.607777 -82.716143 
L 127.986309 -83.9383 
L 130.364841 -85.159968 
L 132.743373 -86.381157 
L 135.121906 -87.601878 
L 137.500438 -88.822143 
L 139.87897 -90.041965 
L 142.257503 -91.261349 
L 144.636035 -92.480298 
L 147.014567 -93.698826 
L 149.3931 -94.916938 
L 151.771632 -96.134656 
L 154.150164 -97.351991 
L 156.528697 -98.568969 
L 158.907229 -99.7856 
L 161.285761 -101.001882 
L 163.664294 -102.217798 
L 166.042826 -103.433346 
L 168.421358 -104.64852 
L 170.79989 -105.863309 
L 173.178423 -107.077695 
L 175.556955 -108.291644 
L 177.935487 -109.505119 
L 180.31402 -110.718082 
L 182.692552 -111.930499 
L 185.071084 -113.142326 
L 187.449617 -114.353521 
L 189.828149 -115.564027 
L 192.206681 -116.773788 
L 194.585214 -117.982734 
L 196.963746 -119.190783 
L 199.342278 -120.397851 
L 201.720811 -121.603852 
L 204.099343 -122.808695 
L 206.477875 -124.012277 
L 208.856407 -125.214484 
L 211.23494 -126.415194 
L 213.613472 -127.614277 
L 215.992004 -128.811593 
L 218.370537 -130.006995 
L 220.749069 -131.200339 
L 223.127601 -132.391477 
L 225.506134 -133.580255 
L 227.884666 -134.766515 
L 230.263198 -135.950092 
L 232.641731 -137.130816 
L 235.020263 -138.308514 
L 237.398795 -139.483007 
L 239.777327 -140.654118 
L 242.15586 -141.821679 
L 244.534392 -142.98552 
L 246.912924 -144.145474 
L 249.291457 -145.301369 
L 251.669989 -146.453038 
L 254.048521 -147.600313 
L 256.427054 -148.743025 
L 258.805586 -149.881006 
L 261.184118 -151.014096 
L 263.562651 -152.142144 
L 265.941183 -153.265007 
L 268.319715 -154.382543 
L 270.698248 -155.494619 
L 273.07678 -156.601103 
L 275.455312 -157.701868 
L 277.833844 -158.796793 
L 280.212377 -159.885761 
L 282.590909 -160.968657 
L 284.969441 -162.045384 
L 287.347974 -163.11585 
L 289.726506 -164.179971 
L 292.105038 -165.23767 
L 294.483571 -166.288875 
L 296.862103 -167.333519 
L 299.240635 -168.371539 
L 301.619168 -169.402875 
L 303.9977 -170.427474 
L 306.376232 -171.445285 
L 308.754765 -172.456271 
L 311.133297 -173.460403 
L 313.511829 -174.457656 
L 315.890361 -175.448012 
L 318.268894 -176.431457 
L 320.647426 -177.407979 
L 323.025958 -178.377567 
L 325.404491 -179.34021 
L 327.783023 -180.295897 
L 330.161555 -181.244617 
L 332.540088 -182.186356 
L 334.91862 -183.121106 
L 337.297152 -184.048859 
L 339.675685 -184.969608 
L 342.054217 -185.883342 
L 344.432749 -186.790054 
L 346.811281 -187.689731 
L 349.189814 -188.582354 
L 351.568346 -189.467908 
L 353.946878 -190.346365 
L 356.325411 -191.217699 
L 358.703943 -192.081881 
L 361.082475 -192.938877 
L 363.461008 -193.788651 
L 365.83954 -194.63116 
L 368.218072 -195.466356 
L 370.596605 -196.294186 
L 372.975137 -197.114595 
L 375.353669 -197.927528 
L 377.732202 -198.732925 
L 380.110734 -199.530727 
L 382.489266 -200.320871 
L 384.867798 -201.103292 
L 387.246331 -201.877924 
L 389.624863 -202.644698 
L 392.003395 -203.403546 
L 394.381928 -204.1544 
L 396.76046 -204.897191 
L 399.138992 -205.631857 
L 401.517525 -206.358333 
L 403.896057 -207.076548 
L 406.274589 -207.786433 
L 408.653122 -208.48792 
L 411.031654 -209.18094 
L 413.410186 -209.865429 
L 415.788719 -210.541326 
L 418.167251 -211.208575 
L 420.545783 -211.867123 
L 422.924315 -212.516918 
L 425.302848 -213.157914 
L 427.68138 -213.790065 
L 430.059912 -214.413335 
L 432.438445 -215.02769 
L 434.816977 -215.633103 
L 437.195509 -216.229553 
L 439.574042 -216.817023 
L 441.952574 -217.395503 
L 444.331106 -217.964987 
L 446.709639 -218.525476 
L 449.088171 -219.076979 
L 451.466703 -219.61951 
L 453.845235 -220.153089 
L 456.223768 -220.677741 
L 458.6023 -221.193499 
L 460.980832 -221.7004 
L 463.359365 -222.198486 
L 465.737897 -222.687812 
L 468.116429 -223.168439 
L 470.494962 -223.640433 
L 472.873494 -224.103867 
L 475.252026 -224.558815 
L 477.630559 -225.005355 
L 480.009091 -225.443574 
L 482.387623 -225.873563 
L 484.766156 -226.295416 
L 487.144688 -226.709231 
L 489.52322 -227.115111 
L 491.901752 -227.513161 
L 494.280285 -227.903493 
L 496.658817 -228.286218 
L 499.037349 -228.661454 
L 501.415882 -229.029316 
L 503.794414 -229.389927 
L 506.172946 -229.743411 
L 508.551479 -230.089894 
L 510.930011 -230.429509 
L 513.308543 -230.76239 
L 515.687076 -231.088671 
L 518.065608 -231.408483 
L 520.44414 -231.721956 
L 522.822673 -232.029217 
L 525.201205 -232.330398 
L 527.579737 -232.625631 
L 529.958269 -232.915042 
L 532.336802 -233.198758 
L 534.715334 -233.476909 
L 537.093866 -233.749623 
L 539.472399 -234.01703 
L 541.850931 -234.279254 
L 544.229463 -234.536412 
L 546.607996 -234.788618 
L 548.986528 -235.035986 
L 551.36506 -235.278624 
L 553.743593 -235.516641 
L 556.122125 -235.750139 
L 558.500657 -235.979212 
L 560.879189 -236.203945 
L 563.257722 -236.424424 
L 565.636254 -236.64073 
L 568.014786 -236.852938 
L 570.393319 -237.061116 
L 572.771851 -237.265327 
L 575.150383 -237.465626 
L 577.528916 -237.662064 
L 579.907448 -237.854688 
L 582.28598 -238.043539 
L 584.664513 -238.228653 
L 587.043045 -238.410055 
L 589.421577 -238.587766 
L 591.80011 -238.761799 
L 594.178642 -238.932168 
L 596.557174 -239.098885 
L 598.935706 -239.261954 
L 601.314239 -239.42138 
L 603.692771 -239.577164 
L 606.071303 -239.729302 
L 608.449836 -239.877787 
L 610.828368 -240.022612 
L 613.2069 -240.16377 
L 615.585433 -240.301251 
L 617.963965 -240.435043 
L 620.342497 -240.565127 
L 622.72103 -240.691483 
L 625.099562 -240.814091 
L 627.478094 -240.932934 
L 629.856627 -241.047999 
L 632.235159 -241.15927 
L 634.613691 -241.266731 
L 636.992223 -241.370369 
L 639.370756 -241.470163 
L 641.749288 -241.566095 
L 644.12782 -241.658148 
L 646.506353 -241.746312 
L 648.884885 -241.830573 
L 651.263417 -241.910922 
L 653.64195 -241.987348 
L 656.020482 -242.059837 
L 658.399014 -242.12838 
L 660.777547 -242.192966 
L 663.156079 -242.253586 
L 665.534611 -242.310234 
L 667.913143 -242.362906 
L 670.291676 -242.411601 
L 672.670208 -242.45632 
L 675.04874 -242.497061 
L 677.427273 -242.533827 
L 677.427273 -395.587992 
L 677.427273 -395.587992 
L 675.04874 -395.49851 
L 672.670208 -395.402715 
L 670.291676 -395.300601 
L 667.913143 -395.192169 
L 665.534611 -395.077422 
L 663.156079 -394.956353 
L 660.777547 -394.828943 
L 658.399014 -394.695156 
L 656.020482 -394.554955 
L 653.64195 -394.408334 
L 651.263417 -394.255303 
L 648.884885 -394.095843 
L 646.506353 -393.929915 
L 644.12782 -393.757486 
L 641.749288 -393.578518 
L 639.370756 -393.392974 
L 636.992223 -393.200828 
L 634.613691 -393.002051 
L 632.235159 -392.796599 
L 629.856627 -392.584419 
L 627.478094 -392.365453 
L 625.099562 -392.139637 
L 622.72103 -391.906917 
L 620.342497 -391.667247 
L 617.963965 -391.420563 
L 615.585433 -391.166785 
L 613.2069 -390.905828 
L 610.828368 -390.637609 
L 608.449836 -390.362037 
L 606.071303 -390.079023 
L 603.692771 -389.788455 
L 601.314239 -389.49023 
L 598.935706 -389.184248 
L 596.557174 -388.870401 
L 594.178642 -388.548568 
L 591.80011 -388.218619 
L 589.421577 -387.880431 
L 587.043045 -387.533878 
L 584.664513 -387.178831 
L 582.28598 -386.815155 
L 579.907448 -386.442717 
L 577.528916 -386.061368 
L 575.150383 -385.670965 
L 572.771851 -385.271363 
L 570.393319 -384.862423 
L 568.014786 -384.444007 
L 565.636254 -384.015967 
L 563.257722 -383.578147 
L 560.879189 -383.130401 
L 558.500657 -382.672584 
L 556.122125 -382.204551 
L 553.743593 -381.726159 
L 551.36506 -381.237274 
L 548.986528 -380.737758 
L 546.607996 -380.227474 
L 544.229463 -379.706291 
L 541.850931 -379.17408 
L 539.472399 -378.630713 
L 537.093866 -378.07605 
L 534.715334 -377.509961 
L 532.336802 -376.932331 
L 529.958269 -376.343046 
L 527.579737 -375.741997 
L 525.201205 -375.129081 
L 522.822673 -374.504191 
L 520.44414 -373.867224 
L 518.065608 -373.218084 
L 515.687076 -372.556674 
L 513.308543 -371.882902 
L 510.930011 -371.196689 
L 508.551479 -370.497961 
L 506.172946 -369.786654 
L 503.794414 -369.06271 
L 501.415882 -368.326073 
L 499.037349 -367.576683 
L 496.658817 -366.81448 
L 494.280285 -366.039414 
L 491.901752 -365.251436 
L 489.52322 -364.450496 
L 487.144688 -363.636546 
L 484.766156 -362.809541 
L 482.387623 -361.969442 
L 480.009091 -361.11622 
L 477.630559 -360.249859 
L 475.252026 -359.370346 
L 472.873494 -358.477668 
L 470.494962 -357.571818 
L 468.116429 -356.652786 
L 465.737897 -355.72057 
L 463.359365 -354.775169 
L 460.980832 -353.816589 
L 458.6023 -352.844828 
L 456.223768 -351.859877 
L 453.845235 -350.861716 
L 451.466703 -349.850334 
L 449.088171 -348.825734 
L 446.709639 -347.787933 
L 444.331106 -346.73695 
L 441.952574 -345.672804 
L 439.574042 -344.595513 
L 437.195509 -343.50509 
L 434.816977 -342.40155 
L 432.438445 -341.284911 
L 430.059912 -340.155194 
L 427.68138 -339.012429 
L 425.302848 -337.856652 
L 422.924315 -336.687896 
L 420.545783 -335.506187 
L 418.167251 -334.311544 
L 415.788719 -333.103987 
L 413.410186 -331.883538 
L 411.031654 -330.650222 
L 408.653122 -329.404065 
L 406.274589 -328.145081 
L 403.896057 -326.873284 
L 401.517525 -325.588701 
L 399.138992 -324.291353 
L 396.76046 -322.981255 
L 394.381928 -321.658433 
L 392.003395 -320.322934 
L 389.624863 -318.974801 
L 387.246331 -317.614062 
L 384.867798 -316.240767 
L 382.489266 -314.85496 
L 380.110734 -313.456677 
L 377.732202 -312.045959 
L 375.353669 -310.622854 
L 372.975137 -309.187403 
L 370.596605 -307.739643 
L 368.218072 -306.279623 
L 365.83954 -304.807378 
L 363.461008 -303.322937 
L 361.082475 -301.826339 
L 358.703943 -300.317642 
L 356.325411 -298.796916 
L 353.946878 -297.264229 
L 351.568346 -295.71967 
L 349.189814 -294.163317 
L 346.811281 -292.595231 
L 344.432749 -291.015519 
L 342.054217 -289.424248 
L 339.675685 -287.821509 
L 337.297152 -286.207381 
L 334.91862 -284.581945 
L 332.540088 -282.945272 
L 330.161555 -281.297425 
L 327.783023 -279.638468 
L 325.404491 -277.968464 
L 323.025958 -276.287488 
L 320.647426 -274.595615 
L 318.268894 -272.892929 
L 315.890361 -271.179508 
L 313.511829 -269.455446 
L 311.133297 -267.720837 
L 308.754765 -265.975774 
L 306.376232 -264.220344 
L 303.9977 -262.454627 
L 301.619168 -260.678679 
L 299.240635 -258.892558 
L 296.862103 -257.09631 
L 294.483571 -255.289984 
L 292.105038 -253.473627 
L 289.726506 -251.647278 
L 287.347974 -249.810974 
L 284.969441 -247.964746 
L 282.590909 -246.108629 
L 280.212377 -244.242657 
L 277.833844 -242.366866 
L 275.455312 -240.481277 
L 273.07678 -238.585917 
L 270.698248 -236.680799 
L 268.319715 -234.765937 
L 265.941183 -232.841341 
L 263.562651 -230.907007 
L 261.184118 -228.96292 
L 258.805586 -227.009058 
L 256.427054 -225.045389 
L 254.048521 -223.07188 
L 251.669989 -221.088504 
L 249.291457 -219.095234 
L 246.912924 -217.092047 
L 244.534392 -215.078916 
L 242.15586 -213.055818 
L 239.777327 -211.022729 
L 237.398795 -208.979632 
L 235.020263 -206.926505 
L 232.641731 -204.863323 
L 230.263198 -202.790072 
L 227.884666 -200.706744 
L 225.506134 -198.613337 
L 223.127601 -196.509852 
L 220.749069 -194.396289 
L 218.370537 -192.272651 
L 215.992004 -190.138953 
L 213.613472 -187.995214 
L 211.23494 -185.84146 
L 208.856407 -183.677737 
L 206.477875 -181.504096 
L 204.099343 -179.320608 
L 201.720811 -177.127349 
L 199.342278 -174.924405 
L 196.963746 -172.711878 
L 194.585214 -170.489878 
L 192.206681 -168.258528 
L 189.828149 -166.017967 
L 187.449617 -163.768342 
L 185.071084 -161.509818 
L 182.692552 -159.242566 
L 180.31402 -156.966767 
L 177.935487 -154.682611 
L 175.556955 -152.390294 
L 173.178423 -150.090024 
L 170.79989 -147.782015 
L 168.421358 -145.466474 
L 166.042826 -143.143625 
L 163.664294 -140.813695 
L 161.285761 -138.476917 
L 158.907229 -136.133538 
L 156.528697 -133.783793 
L 154.150164 -131.427966 
L 151.771632 -129.066361 
L 149.3931 -126.699309 
L 147.014567 -124.327109 
L 144.636035 -121.950078 
L 142.257503 -119.568498 
L 139.87897 -117.182677 
L 137.500438 -114.792923 
L 135.121906 -112.399556 
L 132.743373 -110.002914 
L 130.364841 -107.603334 
L 127.986309 -105.201151 
L 125.607777 -102.796693 
L 123.229244 -100.39029 
L 120.850712 -97.982276 
L 118.47218 -95.572984 
L 116.093647 -93.162739 
L 113.715115 -90.751848 
L 111.336583 -88.340621 
L 108.95805 -85.929369 
L 106.579518 -83.518394 
L 104.200986 -81.107991 
L 101.822453 -78.698452 
L 99.443921 -76.290069 
L 97.065389 -73.883126 
L 94.686857 -71.47789 
L 92.308324 -69.074615 
L 89.929792 -66.673558 
L 87.55126 -64.274972 
L 85.172727 -61.879091 
z
" style="stroke: #000000; stroke-opacity: 0.1"/>
    </defs>
    <g clip-path="url(#p7fbcad5acc)">
     <use xlink:href="#mf0d0e95fc5" x="0" y="360" style="fill-opacity: 0.1; stroke: #000000; stroke-opacity: 0.1"/>
    </g>
   </g>
   <g id="FillBetweenPolyCollection_2">
    <defs>
     <path id="mc42c76baae" d="M 85.172727 -61.879091 
L 85.172727 -61.879091 
L 87.55126 -62.784854 
L 89.929792 -63.680428 
L 92.308324 -64.565686 
L 94.686857 -65.440509 
L 97.065389 -66.304786 
L 99.443921 -67.158413 
L 101.822453 -68.001297 
L 104.200986 -68.833356 
L 106.579518 -69.654516 
L 108.95805 -70.464714 
L 111.336583 -71.263897 
L 113.715115 -72.052025 
L 116.093647 -72.829061 
L 118.47218 -73.594976 
L 120.850712 -74.349748 
L 123.229244 -75.093367 
L 125.607777 -75.825833 
L 127.986309 -76.547162 
L 130.364841 -77.25738 
L 132.743373 -77.956519 
L 135.121906 -78.64462 
L 137.500438 -79.321734 
L 139.87897 -79.987916 
L 142.257503 -80.643228 
L 144.636035 -81.287736 
L 147.014567 -81.921523 
L 149.3931 -82.544673 
L 151.771632 -83.157286 
L 154.150164 -83.759462 
L 156.528697 -84.351312 
L 158.907229 -84.932944 
L 161.285761 -85.504468 
L 163.664294 -86.065993 
L 166.042826 -86.617641 
L 168.421358 -87.159535 
L 170.79989 -87.691798 
L 173.178423 -88.214551 
L 175.556955 -88.72791 
L 177.935487 -89.231989 
L 180.31402 -89.726903 
L 182.692552 -90.212768 
L 185.071084 -90.689701 
L 187.449617 -91.15782 
L 189.828149 -91.617238 
L 192.206681 -92.068067 
L 194.585214 -92.510413 
L 196.963746 -92.944374 
L 199.342278 -93.370049 
L 201.720811 -93.787533 
L 204.099343 -94.196919 
L 206.477875 -94.598295 
L 208.856407 -94.99174 
L 211.23494 -95.377328 
L 213.613472 -95.755128 
L 215.992004 -96.125198 
L 218.370537 -96.487592 
L 220.749069 -96.842357 
L 223.127601 -97.189537 
L 225.506134 -97.529167 
L 227.884666 -97.861275 
L 230.263198 -98.185883 
L 232.641731 -98.503005 
L 235.020263 -98.81265 
L 237.398795 -99.114818 
L 239.777327 -99.4095 
L 242.15586 -99.696688 
L 244.534392 -99.976366 
L 246.912924 -100.248512 
L 249.291457 -100.513095 
L 251.669989 -100.770075 
L 254.048521 -101.019408 
L 256.427054 -101.261043 
L 258.805586 -101.494922 
L 261.184118 -101.720982 
L 263.562651 -101.93916 
L 265.941183 -102.149385 
L 268.319715 -102.351583 
L 270.698248 -102.545677 
L 273.07678 -102.731581 
L 275.455312 -102.90921 
L 277.833844 -103.078472 
L 280.212377 -103.239276 
L 282.590909 -103.391523 
L 284.969441 -103.535114 
L 287.347974 -103.669949 
L 289.726506 -103.795929 
L 292.105038 -103.912953 
L 294.483571 -104.020921 
L 296.862103 -104.119733 
L 299.240635 -104.209286 
L 301.619168 -104.289474 
L 303.9977 -104.360189 
L 306.376232 -104.421325 
L 308.754765 -104.472779 
L 311.133297 -104.514458 
L 313.511829 -104.546268 
L 315.890361 -104.568117 
L 318.268894 -104.579919 
L 320.647426 -104.581587 
L 323.025958 -104.573035 
L 325.404491 -104.554182 
L 327.783023 -104.524945 
L 330.161555 -104.485247 
L 332.540088 -104.43501 
L 334.91862 -104.374166 
L 337.297152 -104.302653 
L 339.675685 -104.220417 
L 342.054217 -104.127408 
L 344.432749 -104.023585 
L 346.811281 -103.908916 
L 349.189814 -103.783376 
L 351.568346 -103.646953 
L 353.946878 -103.499641 
L 356.325411 -103.341444 
L 358.703943 -103.172385 
L 361.082475 -102.992492 
L 363.461008 -102.801812 
L 365.83954 -102.600403 
L 368.218072 -102.388336 
L 370.596605 -102.165696 
L 372.975137 -101.932588 
L 375.353669 -101.689143 
L 377.732202 -101.435516 
L 380.110734 -101.171889 
L 382.489266 -100.898473 
L 384.867798 -100.615511 
L 387.246331 -100.323275 
L 389.624863 -100.022072 
L 392.003395 -99.712247 
L 394.381928 -99.394186 
L 396.76046 -99.068319 
L 399.138992 -98.735126 
L 401.517525 -98.395135 
L 403.896057 -98.048912 
L 406.274589 -97.697076 
L 408.653122 -97.340296 
L 411.031654 -96.979291 
L 413.410186 -96.614842 
L 415.788719 -96.247788 
L 418.167251 -95.879033 
L 420.545783 -95.509536 
L 422.924315 -95.140318 
L 425.302848 -94.772454 
L 427.68138 -94.40708 
L 430.059912 -94.045385 
L 432.438445 -93.68862 
L 434.816977 -93.338083 
L 437.195509 -92.995121 
L 439.574042 -92.661118 
L 441.952574 -92.337487 
L 444.331106 -92.025667 
L 446.709639 -91.72711 
L 449.088171 -91.443271 
L 451.466703 -91.175591 
L 453.845235 -90.925482 
L 456.223768 -90.694315 
L 458.6023 -90.483409 
L 460.980832 -90.294005 
L 463.359365 -90.127259 
L 465.737897 -89.984226 
L 468.116429 -89.86585 
L 470.494962 -89.772952 
L 472.873494 -89.706221 
L 475.252026 -89.666215 
L 477.630559 -89.653359 
L 480.009091 -89.667956 
L 482.387623 -89.710191 
L 484.766156 -89.780152 
L 487.144688 -89.877845 
L 489.52322 -90.003213 
L 491.901752 -90.156157 
L 494.280285 -90.336561 
L 496.658817 -90.544316 
L 499.037349 -90.779335 
L 501.415882 -91.041578 
L 503.794414 -91.331063 
L 506.172946 -91.647882 
L 508.551479 -91.9922 
L 510.930011 -92.364264 
L 513.308543 -92.764393 
L 515.687076 -93.192972 
L 518.065608 -93.650435 
L 520.44414 -94.137254 
L 522.822673 -94.653916 
L 525.201205 -95.200899 
L 527.579737 -95.778653 
L 529.958269 -96.387564 
L 532.336802 -97.02794 
L 534.715334 -97.699993 
L 537.093866 -98.403821 
L 539.472399 -99.139404 
L 541.850931 -99.906587 
L 544.229463 -100.705086 
L 546.607996 -101.53448 
L 548.986528 -102.39423 
L 551.36506 -103.283679 
L 553.743593 -104.202071 
L 556.122125 -105.148556 
L 558.500657 -106.12221 
L 560.879189 -107.122046 
L 563.257722 -108.14703 
L 565.636254 -109.196099 
L 568.014786 -110.268168 
L 570.393319 -111.362151 
L 572.771851 -112.476964 
L 575.150383 -113.61154 
L 577.528916 -114.76484 
L 579.907448 -115.935859 
L 582.28598 -117.123632 
L 584.664513 -118.32724 
L 587.043045 -119.545811 
L 589.421577 -120.778517 
L 591.80011 -122.024585 
L 594.178642 -123.283294 
L 596.557174 -124.553975 
L 598.935706 -125.836009 
L 601.314239 -127.128828 
L 603.692771 -128.431907 
L 606.071303 -129.744772 
L 608.449836 -131.066995 
L 610.828368 -132.398194 
L 613.2069 -133.73803 
L 615.585433 -135.086208 
L 617.963965 -136.442467 
L 620.342497 -137.806579 
L 622.72103 -139.178351 
L 625.099562 -140.557619 
L 627.478094 -141.944252 
L 629.856627 -143.338142 
L 632.235159 -144.739199 
L 634.613691 -146.147359 
L 636.992223 -147.562575 
L 639.370756 -148.984816 
L 641.749288 -150.414071 
L 644.12782 -151.850344 
L 646.506353 -153.293649 
L 648.884885 -154.744012 
L 651.263417 -156.201464 
L 653.64195 -157.66605 
L 656.020482 -159.137826 
L 658.399014 -160.616856 
L 660.777547 -162.103205 
L 663.156079 -163.596941 
L 665.534611 -165.098132 
L 667.913143 -166.606857 
L 670.291676 -168.123198 
L 672.670208 -169.647234 
L 675.04874 -171.179045 
L 677.427273 -172.718718 
L 677.427273 -252.01975 
L 677.427273 -252.01975 
L 675.04874 -249.217127 
L 672.670208 -246.426035 
L 670.291676 -243.646876 
L 667.913143 -240.880056 
L 665.534611 -238.125993 
L 663.156079 -235.38512 
L 660.777547 -232.65788 
L 658.399014 -229.944743 
L 656.020482 -227.246195 
L 653.64195 -224.562745 
L 651.263417 -221.894913 
L 648.884885 -219.243229 
L 646.506353 -216.608221 
L 644.12782 -213.990432 
L 641.749288 -211.390415 
L 639.370756 -208.808732 
L 636.992223 -206.245965 
L 634.613691 -203.702725 
L 632.235159 -201.179629 
L 629.856627 -198.677282 
L 627.478094 -196.196293 
L 625.099562 -193.737269 
L 622.72103 -191.300828 
L 620.342497 -188.887603 
L 617.963965 -186.498242 
L 615.585433 -184.133403 
L 613.2069 -181.793741 
L 610.828368 -179.479895 
L 608.449836 -177.192501 
L 606.071303 -174.932204 
L 603.692771 -172.699655 
L 601.314239 -170.495505 
L 598.935706 -168.320415 
L 596.557174 -166.175032 
L 594.178642 -164.059998 
L 591.80011 -161.975956 
L 589.421577 -159.923549 
L 587.043045 -157.903426 
L 584.664513 -155.916251 
L 582.28598 -153.962695 
L 579.907448 -152.043425 
L 577.528916 -150.159114 
L 575.150383 -148.310457 
L 572.771851 -146.498168 
L 570.393319 -144.722991 
L 568.014786 -142.985699 
L 565.636254 -141.287097 
L 563.257722 -139.628022 
L 560.879189 -138.009359 
L 558.500657 -136.432044 
L 556.122125 -134.897069 
L 553.743593 -133.405493 
L 551.36506 -131.958431 
L 548.986528 -130.557062 
L 546.607996 -129.202632 
L 544.229463 -127.896453 
L 541.850931 -126.639901 
L 539.472399 -125.434407 
L 537.093866 -124.281449 
L 534.715334 -123.182523 
L 532.336802 -122.139135 
L 529.958269 -121.152776 
L 527.579737 -120.2249 
L 525.201205 -119.356887 
L 522.822673 -118.550007 
L 520.44414 -117.805384 
L 518.065608 -117.12396 
L 515.687076 -116.506465 
L 513.308543 -115.953382 
L 510.930011 -115.464923 
L 508.551479 -115.041004 
L 506.172946 -114.681234 
L 503.794414 -114.384907 
L 501.415882 -114.150998 
L 499.037349 -113.978176 
L 496.658817 -113.864818 
L 494.280285 -113.80903 
L 491.901752 -113.808685 
L 489.52322 -113.861447 
L 487.144688 -113.964816 
L 484.766156 -114.116163 
L 482.387623 -114.312771 
L 480.009091 -114.551877 
L 477.630559 -114.830704 
L 475.252026 -115.146495 
L 472.873494 -115.496536 
L 470.494962 -115.878183 
L 468.116429 -116.288885 
L 465.737897 -116.726194 
L 463.359365 -117.187786 
L 460.980832 -117.671452 
L 458.6023 -118.175111 
L 456.223768 -118.696801 
L 453.845235 -119.234687 
L 451.466703 -119.78706 
L 449.088171 -120.352344 
L 446.709639 -120.929087 
L 444.331106 -121.515951 
L 441.952574 -122.111703 
L 439.574042 -122.715199 
L 437.195509 -123.325386 
L 434.816977 -123.941296 
L 432.438445 -124.562039 
L 430.059912 -125.186797 
L 427.68138 -125.814812 
L 425.302848 -126.445388 
L 422.924315 -127.07787 
L 420.545783 -127.711646 
L 418.167251 -128.346143 
L 415.788719 -128.980815 
L 413.410186 -129.61515 
L 411.031654 -130.248655 
L 408.653122 -130.88086 
L 406.274589 -131.511304 
L 403.896057 -132.139539 
L 401.517525 -132.765135 
L 399.138992 -133.387665 
L 396.76046 -134.006703 
L 394.381928 -134.621838 
L 392.003395 -135.232679 
L 389.624863 -135.838833 
L 387.246331 -136.43989 
L 384.867798 -137.03546 
L 382.489266 -137.625143 
L 380.110734 -138.208531 
L 377.732202 -138.785215 
L 375.353669 -139.354787 
L 372.975137 -139.916834 
L 370.596605 -140.470935 
L 368.218072 -141.016674 
L 365.83954 -141.553618 
L 363.461008 -142.081327 
L 361.082475 -142.599364 
L 358.703943 -143.107307 
L 356.325411 -143.60474 
L 353.946878 -144.091244 
L 351.568346 -144.566416 
L 349.189814 -145.029845 
L 346.811281 -145.481103 
L 344.432749 -145.919789 
L 342.054217 -146.345473 
L 339.675685 -146.757738 
L 337.297152 -147.156169 
L 334.91862 -147.540351 
L 332.540088 -147.909866 
L 330.161555 -148.264297 
L 327.783023 -148.603228 
L 325.404491 -148.926247 
L 323.025958 -149.232961 
L 320.647426 -149.522983 
L 318.268894 -149.795936 
L 315.890361 -150.051447 
L 313.511829 -150.289157 
L 311.133297 -150.508713 
L 308.754765 -150.709773 
L 306.376232 -150.892001 
L 303.9977 -151.055061 
L 301.619168 -151.198609 
L 299.240635 -151.32231 
L 296.862103 -151.425835 
L 294.483571 -151.508872 
L 292.105038 -151.57112 
L 289.726506 -151.612281 
L 287.347974 -151.632064 
L 284.969441 -151.630181 
L 282.590909 -151.606355 
L 280.212377 -151.560315 
L 277.833844 -151.491809 
L 275.455312 -151.400585 
L 273.07678 -151.286407 
L 270.698248 -151.149036 
L 268.319715 -150.988243 
L 265.941183 -150.803806 
L 263.562651 -150.595506 
L 261.184118 -150.363123 
L 258.805586 -150.106441 
L 256.427054 -149.825251 
L 254.048521 -149.519357 
L 251.669989 -149.188579 
L 249.291457 -148.832746 
L 246.912924 -148.451697 
L 244.534392 -148.045276 
L 242.15586 -147.613336 
L 239.777327 -147.155737 
L 237.398795 -146.672349 
L 235.020263 -146.163048 
L 232.641731 -145.627716 
L 230.263198 -145.066246 
L 227.884666 -144.478541 
L 225.506134 -143.864509 
L 223.127601 -143.224064 
L 220.749069 -142.557124 
L 218.370537 -141.86361 
L 215.992004 -141.143456 
L 213.613472 -140.396604 
L 211.23494 -139.623002 
L 208.856407 -138.822616 
L 206.477875 -137.995419 
L 204.099343 -137.141396 
L 201.720811 -136.260535 
L 199.342278 -135.352829 
L 196.963746 -134.41828 
L 194.585214 -133.456904 
L 192.206681 -132.468726 
L 189.828149 -131.453782 
L 187.449617 -130.412115 
L 185.071084 -129.343778 
L 182.692552 -128.248827 
L 180.31402 -127.127328 
L 177.935487 -125.97935 
L 175.556955 -124.804964 
L 173.178423 -123.604256 
L 170.79989 -122.377318 
L 168.421358 -121.124241 
L 166.042826 -119.845127 
L 163.664294 -118.540079 
L 161.285761 -117.209201 
L 158.907229 -115.852608 
L 156.528697 -114.470412 
L 154.150164 -113.062747 
L 151.771632 -111.629753 
L 149.3931 -110.171584 
L 147.014567 -108.688388 
L 144.636035 -107.180319 
L 142.257503 -105.647524 
L 139.87897 -104.090159 
L 137.500438 -102.508389 
L 135.121906 -100.902378 
L 132.743373 -99.272295 
L 130.364841 -97.61831 
L 127.986309 -95.940592 
L 125.607777 -94.239307 
L 123.229244 -92.514626 
L 120.850712 -90.76672 
L 118.47218 -88.99577 
L 116.093647 -87.201956 
L 113.715115 -85.385449 
L 111.336583 -83.54642 
L 108.95805 -81.685039 
L 106.579518 -79.801476 
L 104.200986 -77.895902 
L 101.822453 -75.968485 
L 99.443921 -74.019391 
L 97.065389 -72.048787 
L 94.686857 -70.056845 
L 92.308324 -68.043741 
L 89.929792 -66.009643 
L 87.55126 -63.954709 
L 85.172727 -61.879091 
z
" style="stroke: #a52a2a; stroke-opacity: 0.1"/>
    </defs>
    <g clip-path="url(#p7fbcad5acc)">
     <use xlink:href="#mc42c76baae" x="0" y="360" style="fill: #a52a2a; fill-opacity: 0.1; stroke: #a52a2a; stroke-opacity: 0.1"/>
    </g>
   </g>
   <g id="FillBetweenPolyCollection_3">
    <defs>
     <path id="mc9a523f490" d="M 85.172727 -61.879091 
L 85.172727 -61.879091 
L 87.55126 -62.176231 
L 89.929792 -62.451744 
L 92.308324 -62.705617 
L 94.686857 -62.937907 
L 97.065389 -63.148752 
L 99.443921 -63.338365 
L 101.822453 -63.507032 
L 104.200986 -63.655126 
L 106.579518 -63.783096 
L 108.95805 -63.891468 
L 111.336583 -63.980853 
L 113.715115 -64.051941 
L 116.093647 -64.105496 
L 118.47218 -64.142357 
L 120.850712 -64.163432 
L 123.229244 -64.169712 
L 125.607777 -64.162279 
L 127.986309 -64.14233 
L 130.364841 -64.111195 
L 132.743373 -64.070354 
L 135.121906 -64.021473 
L 137.500438 -63.966423 
L 139.87897 -63.907295 
L 142.257503 -63.846395 
L 144.636035 -63.786205 
L 147.014567 -63.729304 
L 149.3931 -63.678255 
L 151.771632 -63.635503 
L 154.150164 -63.603293 
L 156.528697 -63.583539 
L 158.907229 -63.577484 
L 161.285761 -63.5851 
L 163.664294 -63.604667 
L 166.042826 -63.633063 
L 168.421358 -63.666662 
L 170.79989 -63.702145 
L 173.178423 -63.736903 
L 175.556955 -63.769091 
L 177.935487 -63.797557 
L 180.31402 -63.821722 
L 182.692552 -63.841462 
L 185.071084 -63.856997 
L 187.449617 -63.868796 
L 189.828149 -63.877478 
L 192.206681 -63.883742 
L 194.585214 -63.888307 
L 196.963746 -63.89187 
L 199.342278 -63.895099 
L 201.720811 -63.898653 
L 204.099343 -63.903201 
L 206.477875 -63.90944 
L 208.856407 -63.918079 
L 211.23494 -63.929794 
L 213.613472 -63.945153 
L 215.992004 -63.964552 
L 218.370537 -63.988183 
L 220.749069 -64.016041 
L 223.127601 -64.047955 
L 225.506134 -64.083643 
L 227.884666 -64.122735 
L 230.263198 -64.164805 
L 232.641731 -64.209376 
L 235.020263 -64.255928 
L 237.398795 -64.303901 
L 239.777327 -64.352704 
L 242.15586 -64.401726 
L 244.534392 -64.450344 
L 246.912924 -64.497932 
L 249.291457 -64.543876 
L 251.669989 -64.587588 
L 254.048521 -64.628519 
L 256.427054 -64.666173 
L 258.805586 -64.700117 
L 261.184118 -64.729979 
L 263.562651 -64.755462 
L 265.941183 -64.77635 
L 268.319715 -64.792509 
L 270.698248 -64.803888 
L 273.07678 -64.810517 
L 275.455312 -64.812498 
L 277.833844 -64.809991 
L 280.212377 -64.803219 
L 282.590909 -64.792454 
L 284.969441 -64.778013 
L 287.347974 -64.76024 
L 289.726506 -64.739502 
L 292.105038 -64.716181 
L 294.483571 -64.690665 
L 296.862103 -64.663342 
L 299.240635 -64.634604 
L 301.619168 -64.604835 
L 303.9977 -64.574415 
L 306.376232 -64.543724 
L 308.754765 -64.513145 
L 311.133297 -64.483072 
L 313.511829 -64.453907 
L 315.890361 -64.426054 
L 318.268894 -64.39991 
L 320.647426 -64.375851 
L 323.025958 -64.354212 
L 325.404491 -64.335261 
L 327.783023 -64.319182 
L 330.161555 -64.306077 
L 332.540088 -64.295994 
L 334.91862 -64.289005 
L 337.297152 -64.285286 
L 339.675685 -64.285172 
L 342.054217 -64.289139 
L 344.432749 -64.297708 
L 346.811281 -64.3113 
L 349.189814 -64.330113 
L 351.568346 -64.354039 
L 353.946878 -64.382657 
L 356.325411 -64.415275 
L 358.703943 -64.451006 
L 361.082475 -64.488847 
L 363.461008 -64.527758 
L 365.83954 -64.566726 
L 368.218072 -64.604806 
L 370.596605 -64.641151 
L 372.975137 -64.67502 
L 375.353669 -64.705773 
L 377.732202 -64.732876 
L 380.110734 -64.755898 
L 382.489266 -64.774506 
L 384.867798 -64.788463 
L 387.246331 -64.797631 
L 389.624863 -64.801962 
L 392.003395 -64.801492 
L 394.381928 -64.796338 
L 396.76046 -64.786697 
L 399.138992 -64.772845 
L 401.517525 -64.755128 
L 403.896057 -64.733965 
L 406.274589 -64.709833 
L 408.653122 -64.683261 
L 411.031654 -64.654811 
L 413.410186 -64.625056 
L 415.788719 -64.594571 
L 418.167251 -64.563906 
L 420.545783 -64.533561 
L 422.924315 -64.503975 
L 425.302848 -64.475499 
L 427.68138 -64.448391 
L 430.059912 -64.422815 
L 432.438445 -64.398835 
L 434.816977 -64.376435 
L 437.195509 -64.355539 
L 439.574042 -64.336035 
L 441.952574 -64.317792 
L 444.331106 -64.30068 
L 446.709639 -64.284575 
L 449.088171 -64.269349 
L 451.466703 -64.254882 
L 453.845235 -64.241053 
L 456.223768 -64.227746 
L 458.6023 -64.214845 
L 460.980832 -64.202245 
L 463.359365 -64.189853 
L 465.737897 -64.177603 
L 468.116429 -64.165476 
L 470.494962 -64.153531 
L 472.873494 -64.141924 
L 475.252026 -64.130925 
L 477.630559 -64.120935 
L 480.009091 -64.112477 
L 482.387623 -64.106173 
L 484.766156 -64.102702 
L 487.144688 -64.102723 
L 489.52322 -64.106792 
L 491.901752 -64.115269 
L 494.280285 -64.128234 
L 496.658817 -64.145449 
L 499.037349 -64.166351 
L 501.415882 -64.190141 
L 503.794414 -64.215913 
L 506.172946 -64.242848 
L 508.551479 -64.270391 
L 510.930011 -64.298384 
L 513.308543 -64.327088 
L 515.687076 -64.357099 
L 518.065608 -64.389201 
L 520.44414 -64.424201 
L 522.822673 -64.46281 
L 525.201205 -64.505567 
L 527.579737 -64.552808 
L 529.958269 -64.60468 
L 532.336802 -64.661169 
L 534.715334 -64.722124 
L 537.093866 -64.787297 
L 539.472399 -64.85638 
L 541.850931 -64.92902 
L 544.229463 -65.004849 
L 546.607996 -65.083494 
L 548.986528 -65.164585 
L 551.36506 -65.247756 
L 553.743593 -65.332652 
L 556.122125 -65.418934 
L 558.500657 -65.506273 
L 560.879189 -65.594347 
L 563.257722 -65.682828 
L 565.636254 -65.771383 
L 568.014786 -65.859667 
L 570.393319 -65.947321 
L 572.771851 -66.033975 
L 575.150383 -66.11925 
L 577.528916 -66.202762 
L 579.907448 -66.284136 
L 582.28598 -66.363036 
L 584.664513 -66.439181 
L 587.043045 -66.512381 
L 589.421577 -66.582547 
L 591.80011 -66.649711 
L 594.178642 -66.714019 
L 596.557174 -66.775733 
L 598.935706 -66.835201 
L 601.314239 -66.89284 
L 603.692771 -66.949108 
L 606.071303 -67.004474 
L 608.449836 -67.059397 
L 610.828368 -67.114299 
L 613.2069 -67.169565 
L 615.585433 -67.22553 
L 617.963965 -67.28248 
L 620.342497 -67.340661 
L 622.72103 -67.400282 
L 625.099562 -67.461522 
L 627.478094 -67.524553 
L 629.856627 -67.589542 
L 632.235159 -67.656675 
L 634.613691 -67.726167 
L 636.992223 -67.798283 
L 639.370756 -67.873353 
L 641.749288 -67.951772 
L 644.12782 -68.034016 
L 646.506353 -68.120658 
L 648.884885 -68.21238 
L 651.263417 -68.309969 
L 653.64195 -68.414328 
L 656.020482 -68.526467 
L 658.399014 -68.647503 
L 660.777547 -68.77865 
L 663.156079 -68.921204 
L 665.534611 -69.076523 
L 667.913143 -69.246004 
L 670.291676 -69.431052 
L 672.670208 -69.633055 
L 675.04874 -69.853351 
L 677.427273 -70.093203 
L 677.427273 -85.171192 
L 677.427273 -85.171192 
L 675.04874 -84.728473 
L 672.670208 -84.287397 
L 670.291676 -83.846815 
L 667.913143 -83.405656 
L 665.534611 -82.962952 
L 663.156079 -82.517862 
L 660.777547 -82.069689 
L 658.399014 -81.617896 
L 656.020482 -81.162121 
L 653.64195 -80.702175 
L 651.263417 -80.238064 
L 648.884885 -79.770004 
L 646.506353 -79.298421 
L 644.12782 -78.823943 
L 641.749288 -78.3474 
L 639.370756 -77.869816 
L 636.992223 -77.392385 
L 634.613691 -76.916466 
L 632.235159 -76.443568 
L 629.856627 -75.975323 
L 627.478094 -75.513459 
L 625.099562 -75.059769 
L 622.72103 -74.616076 
L 620.342497 -74.184198 
L 617.963965 -73.765917 
L 615.585433 -73.362933 
L 613.2069 -72.97683 
L 610.828368 -72.609037 
L 608.449836 -72.260789 
L 606.071303 -71.933083 
L 603.692771 -71.626642 
L 601.314239 -71.341883 
L 598.935706 -71.078884 
L 596.557174 -70.837372 
L 594.178642 -70.616713 
L 591.80011 -70.415911 
L 589.421577 -70.233624 
L 587.043045 -70.068191 
L 584.664513 -69.917681 
L 582.28598 -69.779956 
L 579.907448 -69.652755 
L 577.528916 -69.533767 
L 575.150383 -69.420706 
L 572.771851 -69.311379 
L 570.393319 -69.20374 
L 568.014786 -69.095938 
L 565.636254 -68.986351 
L 563.257722 -68.873609 
L 560.879189 -68.756606 
L 558.500657 -68.634496 
L 556.122125 -68.506693 
L 553.743593 -68.372866 
L 551.36506 -68.23293 
L 548.986528 -68.087032 
L 546.607996 -67.93554 
L 544.229463 -67.779026 
L 541.850931 -67.618247 
L 539.472399 -67.454135 
L 537.093866 -67.287782 
L 534.715334 -67.120426 
L 532.336802 -66.953438 
L 529.958269 -66.788297 
L 527.579737 -66.626587 
L 525.201205 -66.469981 
L 522.822673 -66.320226 
L 520.44414 -66.179123 
L 518.065608 -66.048485 
L 515.687076 -65.930075 
L 513.308543 -65.8255 
L 510.930011 -65.73608 
L 508.551479 -65.662675 
L 506.172946 -65.605537 
L 503.794414 -65.564233 
L 501.415882 -65.537672 
L 499.037349 -65.524248 
L 496.658817 -65.522046 
L 494.280285 -65.529046 
L 491.901752 -65.543297 
L 489.52322 -65.563029 
L 487.144688 -65.586709 
L 484.766156 -65.613057 
L 482.387623 -65.641033 
L 480.009091 -65.669809 
L 477.630559 -65.698733 
L 475.252026 -65.727308 
L 472.873494 -65.755176 
L 470.494962 -65.782101 
L 468.116429 -65.807976 
L 465.737897 -65.832813 
L 463.359365 -65.856755 
L 460.980832 -65.880062 
L 458.6023 -65.903112 
L 456.223768 -65.926386 
L 453.845235 -65.950452 
L 451.466703 -65.975922 
L 449.088171 -66.003412 
L 446.709639 -66.033504 
L 444.331106 -66.066703 
L 441.952574 -66.103405 
L 439.574042 -66.143854 
L 437.195509 -66.188121 
L 434.816977 -66.236085 
L 432.438445 -66.287426 
L 430.059912 -66.341641 
L 427.68138 -66.398063 
L 425.302848 -66.455894 
L 422.924315 -66.514243 
L 420.545783 -66.572161 
L 418.167251 -66.62867 
L 415.788719 -66.682789 
L 413.410186 -66.733556 
L 411.031654 -66.78005 
L 408.653122 -66.82141 
L 406.274589 -66.856858 
L 403.896057 -66.885704 
L 401.517525 -66.907355 
L 399.138992 -66.921319 
L 396.76046 -66.927207 
L 394.381928 -66.924738 
L 392.003395 -66.913742 
L 389.624863 -66.894164 
L 387.246331 -66.866069 
L 384.867798 -66.829635 
L 382.489266 -66.785162 
L 380.110734 -66.733058 
L 377.732202 -66.673851 
L 375.353669 -66.608179 
L 372.975137 -66.536804 
L 370.596605 -66.46061 
L 368.218072 -66.380602 
L 365.83954 -66.297923 
L 363.461008 -66.213844 
L 361.082475 -66.129767 
L 358.703943 -66.047225 
L 356.325411 -65.967899 
L 353.946878 -65.89362 
L 351.568346 -65.826372 
L 349.189814 -65.768282 
L 346.811281 -65.721584 
L 344.432749 -65.688537 
L 342.054217 -65.671307 
L 339.675685 -65.671786 
L 337.297152 -65.691399 
L 334.91862 -65.730922 
L 332.540088 -65.790385 
L 330.161555 -65.869088 
L 327.783023 -65.965703 
L 325.404491 -66.078433 
L 323.025958 -66.205181 
L 320.647426 -66.343687 
L 318.268894 -66.491631 
L 315.890361 -66.6467 
L 313.511829 -66.806636 
L 311.133297 -66.969272 
L 308.754765 -67.132551 
L 306.376232 -67.294538 
L 303.9977 -67.453429 
L 301.619168 -67.607548 
L 299.240635 -67.755354 
L 296.862103 -67.895439 
L 294.483571 -68.026528 
L 292.105038 -68.147474 
L 289.726506 -68.257255 
L 287.347974 -68.354968 
L 284.969441 -68.43982 
L 282.590909 -68.511129 
L 280.212377 -68.568326 
L 277.833844 -68.610953 
L 275.455312 -68.638668 
L 273.07678 -68.651241 
L 270.698248 -68.648562 
L 268.319715 -68.63064 
L 265.941183 -68.597608 
L 263.562651 -68.549733 
L 261.184118 -68.487411 
L 258.805586 -68.411184 
L 256.427054 -68.321735 
L 254.048521 -68.219892 
L 251.669989 -68.106629 
L 249.291457 -67.983068 
L 246.912924 -67.850472 
L 244.534392 -67.710247 
L 242.15586 -67.563927 
L 239.777327 -67.413161 
L 237.398795 -67.259694 
L 235.020263 -67.10534 
L 232.641731 -66.951945 
L 230.263198 -66.801345 
L 227.884666 -66.655322 
L 225.506134 -66.515547 
L 223.127601 -66.38352 
L 220.749069 -66.260517 
L 218.370537 -66.147544 
L 215.992004 -66.045298 
L 213.613472 -65.954164 
L 211.23494 -65.874219 
L 208.856407 -65.805248 
L 206.477875 -65.746768 
L 204.099343 -65.698046 
L 201.720811 -65.65814 
L 199.342278 -65.625951 
L 196.963746 -65.600311 
L 194.585214 -65.580081 
L 192.206681 -65.564253 
L 189.828149 -65.552025 
L 187.449617 -65.542859 
L 185.071084 -65.536504 
L 182.692552 -65.532986 
L 180.31402 -65.532579 
L 177.935487 -65.535743 
L 175.556955 -65.543051 
L 173.178423 -65.555098 
L 170.79989 -65.57241 
L 168.421358 -65.595336 
L 166.042826 -65.623967 
L 163.664294 -65.658103 
L 161.285761 -65.697351 
L 158.907229 -65.741371 
L 156.528697 -65.790093 
L 154.150164 -65.843691 
L 151.771632 -65.90228 
L 149.3931 -65.96563 
L 147.014567 -66.033041 
L 144.636035 -66.10336 
L 142.257503 -66.175022 
L 139.87897 -66.2461 
L 137.500438 -66.314344 
L 135.121906 -66.377216 
L 132.743373 -66.431946 
L 130.364841 -66.4756 
L 127.986309 -66.505146 
L 125.607777 -66.517521 
L 123.229244 -66.509703 
L 120.850712 -66.478769 
L 118.47218 -66.42195 
L 116.093647 -66.336657 
L 113.715115 -66.220503 
L 111.336583 -66.071327 
L 108.95805 -65.887212 
L 106.579518 -65.666491 
L 104.200986 -65.40775 
L 101.822453 -65.109829 
L 99.443921 -64.771809 
L 97.065389 -64.39301 
L 94.686857 -63.972985 
L 92.308324 -63.511516 
L 89.929792 -63.008574 
L 87.55126 -62.464322 
L 85.172727 -61.879091 
z
" style="stroke: #000080; stroke-opacity: 0.1"/>
    </defs>
    <g clip-path="url(#p7fbcad5acc)">
     <use xlink:href="#mc9a523f490" x="0" y="360" style="fill: #000080; fill-opacity: 0.1; stroke: #000080; stroke-opacity: 0.1"/>
    </g>
   </g>
   <g id="FillBetweenPolyCollection_4">
    <defs>
     <path id="md28d5953ab" d="M 85.172727 -61.879091 
L 85.172727 -61.879091 
L 87.55126 -62.403929 
L 89.929792 -62.899725 
L 92.308324 -63.36615 
L 94.686857 -63.802977 
L 97.065389 -64.21008 
L 99.443921 -64.587441 
L 101.822453 -64.935151 
L 104.200986 -65.253415 
L 106.579518 -65.542549 
L 108.95805 -65.802986 
L 111.336583 -66.035285 
L 113.715115 -66.240147 
L 116.093647 -66.418422 
L 118.47218 -66.571135 
L 120.850712 -66.699508 
L 123.229244 -66.804993 
L 125.607777 -66.889301 
L 127.986309 -66.954422 
L 130.364841 -67.002645 
L 132.743373 -67.036546 
L 135.121906 -67.058931 
L 137.500438 -67.072762 
L 139.87897 -67.081038 
L 142.257503 -67.086639 
L 144.636035 -67.092149 
L 147.014567 -67.099672 
L 149.3931 -67.110686 
L 151.771632 -67.125953 
L 154.150164 -67.145528 
L 156.528697 -67.168826 
L 158.907229 -67.194778 
L 161.285761 -67.222005 
L 163.664294 -67.248999 
L 166.042826 -67.274257 
L 168.421358 -67.296405 
L 170.79989 -67.314277 
L 173.178423 -67.326972 
L 175.556955 -67.333882 
L 177.935487 -67.334705 
L 180.31402 -67.329447 
L 182.692552 -67.318414 
L 185.071084 -67.302192 
L 187.449617 -67.281612 
L 189.828149 -67.257698 
L 192.206681 -67.231597 
L 194.585214 -67.204488 
L 196.963746 -67.177482 
L 199.342278 -67.151495 
L 201.720811 -67.127141 
L 204.099343 -67.104644 
L 206.477875 -67.083834 
L 208.856407 -67.06425 
L 211.23494 -67.045363 
L 213.613472 -67.026898 
L 215.992004 -67.009173 
L 218.370537 -66.99332 
L 220.749069 -66.981303 
L 223.127601 -66.975698 
L 225.506134 -66.979312 
L 227.884666 -66.994737 
L 230.263198 -67.023957 
L 232.641731 -67.068089 
L 235.020263 -67.127266 
L 237.398795 -67.200661 
L 239.777327 -67.286623 
L 242.15586 -67.382869 
L 244.534392 -67.486701 
L 246.912924 -67.595218 
L 249.291457 -67.705485 
L 251.669989 -67.814672 
L 254.048521 -67.920152 
L 256.427054 -68.019568 
L 258.805586 -68.110861 
L 261.184118 -68.192301 
L 263.562651 -68.26248 
L 265.941183 -68.320318 
L 268.319715 -68.365053 
L 270.698248 -68.39622 
L 273.07678 -68.413637 
L 275.455312 -68.417391 
L 277.833844 -68.40781 
L 280.212377 -68.38544 
L 282.590909 -68.351034 
L 284.969441 -68.305519 
L 287.347974 -68.249989 
L 289.726506 -68.185676 
L 292.105038 -68.113931 
L 294.483571 -68.03619 
L 296.862103 -67.953953 
L 299.240635 -67.868749 
L 301.619168 -67.782109 
L 303.9977 -67.695521 
L 306.376232 -67.610392 
L 308.754765 -67.527999 
L 311.133297 -67.449447 
L 313.511829 -67.37563 
L 315.890361 -67.307194 
L 318.268894 -67.244519 
L 320.647426 -67.187712 
L 323.025958 -67.136646 
L 325.404491 -67.091015 
L 327.783023 -67.050435 
L 330.161555 -67.014552 
L 332.540088 -66.983169 
L 334.91862 -66.956346 
L 337.297152 -66.934455 
L 339.675685 -66.918164 
L 342.054217 -66.90835 
L 344.432749 -66.905948 
L 346.811281 -66.911783 
L 349.189814 -66.926428 
L 351.568346 -66.9501 
L 353.946878 -66.982616 
L 356.325411 -67.023409 
L 358.703943 -67.071574 
L 361.082475 -67.125939 
L 363.461008 -67.185136 
L 365.83954 -67.247675 
L 368.218072 -67.312008 
L 370.596605 -67.376576 
L 372.975137 -67.439858 
L 375.353669 -67.500404 
L 377.732202 -67.556854 
L 380.110734 -67.607966 
L 382.489266 -67.652626 
L 384.867798 -67.689865 
L 387.246331 -67.718865 
L 389.624863 -67.738969 
L 392.003395 -67.749687 
L 394.381928 -67.750692 
L 396.76046 -67.741838 
L 399.138992 -67.723155 
L 401.517525 -67.694848 
L 403.896057 -67.657295 
L 406.274589 -67.611038 
L 408.653122 -67.556778 
L 411.031654 -67.495363 
L 413.410186 -67.427777 
L 415.788719 -67.355122 
L 418.167251 -67.278601 
L 420.545783 -67.199488 
L 422.924315 -67.119106 
L 425.302848 -67.038796 
L 427.68138 -66.959888 
L 430.059912 -66.883664 
L 432.438445 -66.811314 
L 434.816977 -66.743887 
L 437.195509 -66.682245 
L 439.574042 -66.627004 
L 441.952574 -66.578487 
L 444.331106 -66.536687 
L 446.709639 -66.501242 
L 449.088171 -66.471446 
L 451.466703 -66.446284 
L 453.845235 -66.424494 
L 456.223768 -66.404643 
L 458.6023 -66.385211 
L 460.980832 -66.364672 
L 463.359365 -66.341582 
L 465.737897 -66.31464 
L 468.116429 -66.282745 
L 470.494962 -66.245024 
L 472.873494 -66.200864 
L 475.252026 -66.149926 
L 477.630559 -66.092158 
L 480.009091 -66.027804 
L 482.387623 -65.95741 
L 484.766156 -65.881813 
L 487.144688 -65.802146 
L 489.52322 -65.719832 
L 491.901752 -65.636598 
L 494.280285 -65.554492 
L 496.658817 -65.475914 
L 499.037349 -65.403651 
L 501.415882 -65.340901 
L 503.794414 -65.291256 
L 506.172946 -65.258578 
L 508.551479 -65.246775 
L 510.930011 -65.259457 
L 513.308543 -65.299521 
L 515.687076 -65.368762 
L 518.065608 -65.467621 
L 520.44414 -65.59516 
L 522.822673 -65.749278 
L 525.201205 -65.927063 
L 527.579737 -66.125174 
L 529.958269 -66.340153 
L 532.336802 -66.568633 
L 534.715334 -66.807453 
L 537.093866 -67.053711 
L 539.472399 -67.30479 
L 541.850931 -67.558353 
L 544.229463 -67.81234 
L 546.607996 -68.064947 
L 548.986528 -68.314603 
L 551.36506 -68.559959 
L 553.743593 -68.79988 
L 556.122125 -69.033433 
L 558.500657 -69.259893 
L 560.879189 -69.478716 
L 563.257722 -69.689534 
L 565.636254 -69.892147 
L 568.014786 -70.086515 
L 570.393319 -70.272749 
L 572.771851 -70.451109 
L 575.150383 -70.621982 
L 577.528916 -70.78586 
L 579.907448 -70.943315 
L 582.28598 -71.094992 
L 584.664513 -71.241593 
L 587.043045 -71.38386 
L 589.421577 -71.522566 
L 591.80011 -71.658492 
L 594.178642 -71.792422 
L 596.557174 -71.925149 
L 598.935706 -72.057487 
L 601.314239 -72.190291 
L 603.692771 -72.324474 
L 606.071303 -72.461016 
L 608.449836 -72.600974 
L 610.828368 -72.745488 
L 613.2069 -72.895773 
L 615.585433 -73.053109 
L 617.963965 -73.21882 
L 620.342497 -73.394245 
L 622.72103 -73.580698 
L 625.099562 -73.779426 
L 627.478094 -73.991577 
L 629.856627 -74.218169 
L 632.235159 -74.460061 
L 634.613691 -74.717933 
L 636.992223 -74.992277 
L 639.370756 -75.28339 
L 641.749288 -75.591383 
L 644.12782 -75.916195 
L 646.506353 -76.257617 
L 648.884885 -76.615328 
L 651.263417 -76.988918 
L 653.64195 -77.377911 
L 656.020482 -77.781798 
L 658.399014 -78.200061 
L 660.777547 -78.632181 
L 663.156079 -79.07765 
L 665.534611 -79.53598 
L 667.913143 -80.006705 
L 670.291676 -80.489385 
L 672.670208 -80.9836 
L 675.04874 -81.488956 
L 677.427273 -82.005077 
L 677.427273 -116.814687 
L 677.427273 -116.814687 
L 675.04874 -115.783154 
L 672.670208 -114.75358 
L 670.291676 -113.724936 
L 667.913143 -112.696354 
L 665.534611 -111.667153 
L 663.156079 -110.636872 
L 660.777547 -109.605287 
L 658.399014 -108.572424 
L 656.020482 -107.538585 
L 653.64195 -106.504352 
L 651.263417 -105.470607 
L 648.884885 -104.438523 
L 646.506353 -103.409581 
L 644.12782 -102.385547 
L 641.749288 -101.36847 
L 639.370756 -100.360651 
L 636.992223 -99.364606 
L 634.613691 -98.383043 
L 632.235159 -97.418805 
L 629.856627 -96.474821 
L 627.478094 -95.554028 
L 625.099562 -94.659304 
L 622.72103 -93.793391 
L 620.342497 -92.958808 
L 617.963965 -92.157767 
L 615.585433 -91.392082 
L 613.2069 -90.663107 
L 610.828368 -89.971671 
L 608.449836 -89.318027 
L 606.071303 -88.701817 
L 603.692771 -88.122059 
L 601.314239 -87.577171 
L 598.935706 -87.064998 
L 596.557174 -86.582877 
L 594.178642 -86.127709 
L 591.80011 -85.696046 
L 589.421577 -85.284196 
L 587.043045 -84.888307 
L 584.664513 -84.504463 
L 582.28598 -84.128776 
L 579.907448 -83.757468 
L 577.528916 -83.386946 
L 575.150383 -83.013859 
L 572.771851 -82.635147 
L 570.393319 -82.248086 
L 568.014786 -81.850311 
L 565.636254 -81.43985 
L 563.257722 -81.015146 
L 560.879189 -80.575085 
L 558.500657 -80.118994 
L 556.122125 -79.646642 
L 553.743593 -79.15826 
L 551.36506 -78.654535 
L 548.986528 -78.13661 
L 546.607996 -77.606087 
L 544.229463 -77.065007 
L 541.850931 -76.515844 
L 539.472399 -75.961497 
L 537.093866 -75.405284 
L 534.715334 -74.850926 
L 532.336802 -74.302527 
L 529.958269 -73.764531 
L 527.579737 -73.241683 
L 525.201205 -72.738969 
L 522.822673 -72.261533 
L 520.44414 -71.81458 
L 518.065608 -71.403244 
L 515.687076 -71.032415 
L 513.308543 -70.706525 
L 510.930011 -70.429269 
L 508.551479 -70.203267 
L 506.172946 -70.029747 
L 503.794414 -69.908286 
L 501.415882 -69.836733 
L 499.037349 -69.811302 
L 496.658817 -69.826862 
L 494.280285 -69.877338 
L 491.901752 -69.956169 
L 489.52322 -70.056734 
L 487.144688 -70.172707 
L 484.766156 -70.298312 
L 482.387623 -70.428482 
L 480.009091 -70.558941 
L 477.630559 -70.686228 
L 475.252026 -70.807686 
L 472.873494 -70.921431 
L 470.494962 -71.026318 
L 468.116429 -71.121892 
L 465.737897 -71.20834 
L 463.359365 -71.286438 
L 460.980832 -71.35749 
L 458.6023 -71.423258 
L 456.223768 -71.485895 
L 453.845235 -71.547853 
L 451.466703 -71.611783 
L 449.088171 -71.680424 
L 446.709639 -71.756479 
L 444.331106 -71.842492 
L 441.952574 -71.940704 
L 439.574042 -72.052933 
L 437.195509 -72.180451 
L 434.816977 -72.323894 
L 432.438445 -72.483205 
L 430.059912 -72.657621 
L 427.68138 -72.845697 
L 425.302848 -73.045367 
L 422.924315 -73.254042 
L 420.545783 -73.468728 
L 418.167251 -73.686153 
L 415.788719 -73.902882 
L 413.410186 -74.115441 
L 411.031654 -74.320414 
L 408.653122 -74.514539 
L 406.274589 -74.694777 
L 403.896057 -74.858373 
L 401.517525 -75.002898 
L 399.138992 -75.126299 
L 396.76046 -75.2269 
L 394.381928 -75.303433 
L 392.003395 -75.355041 
L 389.624863 -75.381261 
L 387.246331 -75.382028 
L 384.867798 -75.357679 
L 382.489266 -75.308929 
L 380.110734 -75.236872 
L 377.732202 -75.142973 
L 375.353669 -75.029055 
L 372.975137 -74.897278 
L 370.596605 -74.750133 
L 368.218072 -74.590445 
L 365.83954 -74.421338 
L 363.461008 -74.24624 
L 361.082475 -74.06887 
L 358.703943 -73.893207 
L 356.325411 -73.723454 
L 353.946878 -73.563987 
L 351.568346 -73.419291 
L 349.189814 -73.293875 
L 346.811281 -73.192158 
L 344.432749 -73.118333 
L 342.054217 -73.076167 
L 339.675685 -73.068817 
L 337.297152 -73.098609 
L 334.91862 -73.166866 
L 332.540088 -73.273786 
L 330.161555 -73.418416 
L 327.783023 -73.598712 
L 325.404491 -73.811677 
L 323.025958 -74.053559 
L 320.647426 -74.320071 
L 318.268894 -74.606598 
L 315.890361 -74.908376 
L 313.511829 -75.220621 
L 311.133297 -75.538647 
L 308.754765 -75.857928 
L 306.376232 -76.174145 
L 303.9977 -76.483216 
L 301.619168 -76.78131 
L 299.240635 -77.064844 
L 296.862103 -77.330498 
L 294.483571 -77.575204 
L 292.105038 -77.796152 
L 289.726506 -77.990791 
L 287.347974 -78.156823 
L 284.969441 -78.292211 
L 282.590909 -78.395185 
L 280.212377 -78.46426 
L 277.833844 -78.49824 
L 275.455312 -78.496247 
L 273.07678 -78.457727 
L 270.698248 -78.382478 
L 268.319715 -78.270661 
L 265.941183 -78.122815 
L 263.562651 -77.939878 
L 261.184118 -77.723195 
L 258.805586 -77.474526 
L 256.427054 -77.196058 
L 254.048521 -76.890392 
L 251.669989 -76.560553 
L 249.291457 -76.20999 
L 246.912924 -75.842555 
L 244.534392 -75.462492 
L 242.15586 -75.074416 
L 239.777327 -74.683288 
L 237.398795 -74.294381 
L 235.020263 -73.913233 
L 232.641731 -73.54558 
L 230.263198 -73.197256 
L 227.884666 -72.874063 
L 225.506134 -72.581575 
L 223.127601 -72.324872 
L 220.749069 -72.108192 
L 218.370537 -71.934546 
L 215.992004 -71.805328 
L 213.613472 -71.720051 
L 211.23494 -71.676286 
L 208.856407 -71.669852 
L 206.477875 -71.69525 
L 204.099343 -71.746199 
L 201.720811 -71.816178 
L 199.342278 -71.898878 
L 196.963746 -71.988504 
L 194.585214 -72.079956 
L 192.206681 -72.168912 
L 189.828149 -72.251841 
L 187.449617 -72.325959 
L 185.071084 -72.38918 
L 182.692552 -72.440058 
L 180.31402 -72.477708 
L 177.935487 -72.50174 
L 175.556955 -72.512188 
L 173.178423 -72.509438 
L 170.79989 -72.49415 
L 168.421358 -72.467191 
L 166.042826 -72.429551 
L 163.664294 -72.382272 
L 161.285761 -72.326388 
L 158.907229 -72.26286 
L 156.528697 -72.192538 
L 154.150164 -72.116122 
L 151.771632 -72.034157 
L 149.3931 -71.947024 
L 147.014567 -71.854921 
L 144.636035 -71.757855 
L 142.257503 -71.655597 
L 139.87897 -71.547641 
L 137.500438 -71.433137 
L 135.121906 -71.310832 
L 132.743373 -71.179032 
L 130.364841 -71.035572 
L 127.986309 -70.877837 
L 125.607777 -70.702793 
L 123.229244 -70.50707 
L 120.850712 -70.287053 
L 118.47218 -70.038984 
L 116.093647 -69.759065 
L 113.715115 -69.443552 
L 111.336583 -69.088859 
L 108.95805 -68.691627 
L 106.579518 -68.248783 
L 104.200986 -67.757581 
L 101.822453 -67.215639 
L 99.443921 -66.62095 
L 97.065389 -65.971885 
L 94.686857 -65.267184 
L 92.308324 -64.505945 
L 89.929792 -63.687617 
L 87.55126 -62.811975 
L 85.172727 -61.879091 
z
" style="stroke: #add8e6; stroke-opacity: 0.1"/>
    </defs>
    <g clip-path="url(#p7fbcad5acc)">
     <use xlink:href="#md28d5953ab" x="0" y="360" style="fill: #add8e6; fill-opacity: 0.1; stroke: #add8e6; stroke-opacity: 0.1"/>
    </g>
   </g>
   <g id="line2d_1">
    <path d="M 85.172727 298.120909 
L 161.285761 240.2606 
L 180.31402 226.157575 
L 199.342278 212.338872 
L 215.992004 200.524727 
L 232.641731 189.00293 
L 246.912924 179.38124 
L 261.184118 170.011492 
L 275.455312 160.908428 
L 289.726506 152.086375 
L 303.9977 143.55895 
L 315.890361 136.68624 
L 327.783023 130.032817 
L 339.675685 123.604442 
L 351.568346 117.406211 
L 363.461008 111.444206 
L 375.353669 105.724809 
L 387.246331 100.254007 
L 399.138992 95.038395 
L 411.031654 90.084419 
L 422.924315 85.397593 
L 434.816977 80.982674 
L 446.709639 76.843296 
L 458.6023 72.980836 
L 470.494962 69.393874 
L 482.387623 66.078497 
L 494.280285 63.028546 
L 506.172946 60.234968 
L 518.065608 57.686716 
L 529.958269 55.370956 
L 541.850931 53.273333 
L 553.743593 51.3786 
L 568.014786 49.351528 
L 582.28598 47.570653 
L 596.557174 46.015357 
L 610.828368 44.66989 
L 625.099562 43.523136 
L 641.749288 42.427694 
L 658.399014 41.588232 
L 675.04874 41.002215 
L 677.427273 40.939091 
L 677.427273 40.939091 
" clip-path="url(#p7fbcad5acc)" style="fill: none; stroke: #000000; stroke-width: 1.5; stroke-linecap: round"/>
   </g>
   <g id="line2d_2">
    <path d="M 85.172727 298.120909 
L 94.686857 292.251323 
L 104.200986 286.635371 
L 113.715115 281.281263 
L 123.229244 276.196004 
L 132.743373 271.385593 
L 142.257503 266.854624 
L 151.771632 262.606481 
L 161.285761 258.643166 
L 170.79989 254.965442 
L 180.31402 251.572884 
L 189.828149 248.46449 
L 199.342278 245.638561 
L 208.856407 243.092822 
L 218.370537 240.824399 
L 227.884666 238.830092 
L 237.398795 237.106416 
L 246.912924 235.649895 
L 256.427054 234.456853 
L 265.941183 233.523405 
L 275.455312 232.845102 
L 284.969441 232.417352 
L 294.483571 232.235103 
L 303.9977 232.292375 
L 313.511829 232.582288 
L 323.025958 233.097002 
L 332.540088 233.827562 
L 342.054217 234.76356 
L 351.568346 235.893315 
L 363.461008 237.558431 
L 375.353669 239.478035 
L 387.246331 241.618417 
L 401.517525 244.419865 
L 425.302848 249.391079 
L 441.952574 252.775405 
L 451.466703 254.518674 
L 460.980832 256.017271 
L 468.116429 256.922633 
L 475.252026 257.593645 
L 482.387623 257.988519 
L 489.52322 258.06767 
L 494.280285 257.927204 
L 499.037349 257.621244 
L 503.794414 257.142015 
L 508.551479 256.483398 
L 513.308543 255.641113 
L 518.065608 254.612803 
L 522.822673 253.398039 
L 527.579737 251.998224 
L 532.336802 250.416463 
L 537.093866 248.657365 
L 541.850931 246.726756 
L 548.986528 243.524354 
L 556.122125 239.977187 
L 563.257722 236.112474 
L 570.393319 231.957429 
L 577.528916 227.538023 
L 584.664513 222.878254 
L 591.80011 217.99973 
L 601.314239 211.187833 
L 610.828368 204.060956 
L 620.342497 196.652909 
L 629.856627 188.992288 
L 641.749288 179.097757 
L 653.64195 168.885603 
L 665.534611 158.387937 
L 677.427273 147.630766 
L 677.427273 147.630766 
" clip-path="url(#p7fbcad5acc)" style="fill: none; stroke: #a52a2a; stroke-width: 1.5; stroke-linecap: round"/>
   </g>
   <g id="line2d_3">
    <path d="M 85.172727 298.120909 
L 92.308324 296.891434 
L 99.443921 295.944913 
L 106.579518 295.275207 
L 113.715115 294.863778 
L 120.850712 294.678899 
L 130.364841 294.706603 
L 144.636035 295.055217 
L 158.907229 295.340572 
L 173.178423 295.354 
L 211.23494 295.097993 
L 223.127601 294.784262 
L 244.534392 293.919704 
L 258.805586 293.444349 
L 270.698248 293.273775 
L 282.590909 293.348208 
L 294.483571 293.641404 
L 315.890361 294.463623 
L 330.161555 294.912417 
L 339.675685 295.021521 
L 351.568346 294.909794 
L 394.381928 294.139462 
L 408.653122 294.247664 
L 468.116429 295.013274 
L 499.037349 295.1547 
L 510.930011 294.982768 
L 522.822673 294.608482 
L 539.472399 293.844742 
L 568.014786 292.522197 
L 591.80011 291.467189 
L 603.692771 290.712125 
L 615.585433 289.705769 
L 629.856627 288.217567 
L 653.64195 285.441748 
L 670.291676 283.361067 
L 677.427273 282.367802 
L 677.427273 282.367802 
" clip-path="url(#p7fbcad5acc)" style="fill: none; stroke: #000080; stroke-width: 1.5; stroke-linecap: round"/>
   </g>
   <g id="line2d_4">
    <path d="M 85.172727 298.120909 
L 89.929792 296.706329 
L 94.686857 295.464919 
L 99.443921 294.395805 
L 104.200986 293.494502 
L 108.95805 292.752694 
L 116.093647 291.911256 
L 123.229244 291.343968 
L 132.743373 290.892211 
L 147.014567 290.522704 
L 170.79989 290.095787 
L 182.692552 290.120764 
L 196.963746 290.417007 
L 208.856407 290.632949 
L 215.992004 290.59275 
L 223.127601 290.349715 
L 230.263198 289.889394 
L 239.777327 289.015044 
L 256.427054 287.392187 
L 263.562651 286.898821 
L 270.698248 286.610651 
L 277.833844 286.546975 
L 284.969441 286.701135 
L 292.105038 287.044958 
L 301.619168 287.718291 
L 325.404491 289.548654 
L 332.540088 289.871522 
L 339.675685 290.00651 
L 346.811281 289.948029 
L 356.325411 289.626568 
L 382.489266 288.519222 
L 392.003395 288.447636 
L 401.517525 288.651127 
L 411.031654 289.092111 
L 439.574042 290.660032 
L 451.466703 290.970967 
L 472.873494 291.438852 
L 503.794414 292.400229 
L 508.551479 292.274979 
L 513.308543 291.996977 
L 520.44414 291.29513 
L 527.579737 290.316571 
L 539.472399 288.366856 
L 553.743593 286.02093 
L 563.257722 284.64766 
L 575.150383 283.18208 
L 598.935706 280.438757 
L 608.449836 279.0405 
L 615.585433 277.777404 
L 622.72103 276.312956 
L 629.856627 274.653505 
L 639.370756 272.17798 
L 648.884885 269.473074 
L 663.156079 265.142739 
L 677.427273 260.590118 
L 677.427273 260.590118 
" clip-path="url(#p7fbcad5acc)" style="fill: none; stroke: #add8e6; stroke-width: 1.5; stroke-linecap: round"/>
   </g>
   <g id="patch_3">
    <path d="M 55.56 310.98 
L 55.56 28.08 
" style="fill: none; stroke: #ffffff; stroke-width: 1.25; stroke-linejoin: miter; stroke-linecap: square"/>
   </g>
   <g id="patch_4">
    <path d="M 707.04 310.98 
L 707.04 28.08 
" style="fill: none; stroke: #ffffff; stroke-width: 1.25; stroke-linejoin: miter; stroke-linecap: square"/>
   </g>
   <g id="patch_5">
    <path d="M 55.56 310.98 
L 707.04 310.98 
" style="fill: none; stroke: #ffffff; stroke-width: 1.25; stroke-linejoin: miter; stroke-linecap: square"/>
   </g>
   <g id="patch_6">
    <path d="M 55.56 28.08 
L 707.04 28.08 
" style="fill: none; stroke: #ffffff; stroke-width: 1.25; stroke-linejoin: miter; stroke-linecap: square"/>
   </g>
   <g id="text_15">
    <!-- QG3L (Perturbed) - [112, 176] x [64, 192] -->
    <g style="fill: #262626" transform="translate(256.36125 22.08) scale(0.12 -0.12)">
     <defs>
      <path id="DejaVuSans-51" d="M 2522 4238 
Q 1834 4238 1429 3725 
Q 1025 3213 1025 2328 
Q 1025 1447 1429 934 
Q 1834 422 2522 422 
Q 3209 422 3611 934 
Q 4013 1447 4013 2328 
Q 4013 3213 3611 3725 
Q 3209 4238 2522 4238 
z
M 3406 84 
L 4238 -825 
L 3475 -825 
L 2784 -78 
Q 2681 -84 2626 -87 
Q 2572 -91 2522 -91 
Q 1538 -91 948 567 
Q 359 1225 359 2328 
Q 359 3434 948 4092 
Q 1538 4750 2522 4750 
Q 3503 4750 4090 4092 
Q 4678 3434 4678 2328 
Q 4678 1516 4351 937 
Q 4025 359 3406 84 
z
" transform="scale(0.015625)"/>
      <path id="DejaVuSans-47" d="M 3809 666 
L 3809 1919 
L 2778 1919 
L 2778 2438 
L 4434 2438 
L 4434 434 
Q 4069 175 3628 42 
Q 3188 -91 2688 -91 
Q 1594 -91 976 548 
Q 359 1188 359 2328 
Q 359 3472 976 4111 
Q 1594 4750 2688 4750 
Q 3144 4750 3555 4637 
Q 3966 4525 4313 4306 
L 4313 3634 
Q 3963 3931 3569 4081 
Q 3175 4231 2741 4231 
Q 1884 4231 1454 3753 
Q 1025 3275 1025 2328 
Q 1025 1384 1454 906 
Q 1884 428 2741 428 
Q 3075 428 3337 486 
Q 3600 544 3809 666 
z
" transform="scale(0.015625)"/>
      <path id="DejaVuSans-4c" d="M 628 4666 
L 1259 4666 
L 1259 531 
L 3531 531 
L 3531 0 
L 628 0 
L 628 4666 
z
" transform="scale(0.015625)"/>
      <path id="DejaVuSans-28" d="M 1984 4856 
Q 1566 4138 1362 3434 
Q 1159 2731 1159 2009 
Q 1159 1288 1364 580 
Q 1569 -128 1984 -844 
L 1484 -844 
Q 1016 -109 783 600 
Q 550 1309 550 2009 
Q 550 2706 781 3412 
Q 1013 4119 1484 4856 
L 1984 4856 
z
" transform="scale(0.015625)"/>
      <path id="DejaVuSans-50" d="M 1259 4147 
L 1259 2394 
L 2053 2394 
Q 2494 2394 2734 2622 
Q 2975 2850 2975 3272 
Q 2975 3691 2734 3919 
Q 2494 4147 2053 4147 
L 1259 4147 
z
M 628 4666 
L 2053 4666 
Q 2838 4666 3239 4311 
Q 3641 3956 3641 3272 
Q 3641 2581 3239 2228 
Q 2838 1875 2053 1875 
L 1259 1875 
L 1259 0 
L 628 0 
L 628 4666 
z
" transform="scale(0.015625)"/>
      <path id="DejaVuSans-72" d="M 2631 2963 
Q 2534 3019 2420 3045 
Q 2306 3072 2169 3072 
Q 1681 3072 1420 2755 
Q 1159 2438 1159 1844 
L 1159 0 
L 581 0 
L 581 3500 
L 1159 3500 
L 1159 2956 
Q 1341 3275 1631 3429 
Q 1922 3584 2338 3584 
Q 2397 3584 2469 3576 
Q 2541 3569 2628 3553 
L 2631 2963 
z
" transform="scale(0.015625)"/>
      <path id="DejaVuSans-74" d="M 1172 4494 
L 1172 3500 
L 2356 3500 
L 2356 3053 
L 1172 3053 
L 1172 1153 
Q 1172 725 1289 603 
Q 1406 481 1766 481 
L 2356 481 
L 2356 0 
L 1766 0 
Q 1100 0 847 248 
Q 594 497 594 1153 
L 594 3053 
L 172 3053 
L 172 3500 
L 594 3500 
L 594 4494 
L 1172 4494 
z
" transform="scale(0.015625)"/>
      <path id="DejaVuSans-75" d="M 544 1381 
L 544 3500 
L 1119 3500 
L 1119 1403 
Q 1119 906 1312 657 
Q 1506 409 1894 409 
Q 2359 409 2629 706 
Q 2900 1003 2900 1516 
L 2900 3500 
L 3475 3500 
L 3475 0 
L 2900 0 
L 2900 538 
Q 2691 219 2414 64 
Q 2138 -91 1772 -91 
Q 1169 -91 856 284 
Q 544 659 544 1381 
z
M 1991 3584 
L 1991 3584 
z
" transform="scale(0.015625)"/>
      <path id="DejaVuSans-62" d="M 3116 1747 
Q 3116 2381 2855 2742 
Q 2594 3103 2138 3103 
Q 1681 3103 1420 2742 
Q 1159 2381 1159 1747 
Q 1159 1113 1420 752 
Q 1681 391 2138 391 
Q 2594 391 2855 752 
Q 3116 1113 3116 1747 
z
M 1159 2969 
Q 1341 3281 1617 3432 
Q 1894 3584 2278 3584 
Q 2916 3584 3314 3078 
Q 3713 2572 3713 1747 
Q 3713 922 3314 415 
Q 2916 -91 2278 -91 
Q 1894 -91 1617 61 
Q 1341 213 1159 525 
L 1159 0 
L 581 0 
L 581 4863 
L 1159 4863 
L 1159 2969 
z
" transform="scale(0.015625)"/>
      <path id="DejaVuSans-29" d="M 513 4856 
L 1013 4856 
Q 1481 4119 1714 3412 
Q 1947 2706 1947 2009 
Q 1947 1309 1714 600 
Q 1481 -109 1013 -844 
L 513 -844 
Q 928 -128 1133 580 
Q 1338 1288 1338 2009 
Q 1338 2731 1133 3434 
Q 928 4138 513 4856 
z
" transform="scale(0.015625)"/>
      <path id="DejaVuSans-2d" d="M 313 2009 
L 1997 2009 
L 1997 1497 
L 313 1497 
L 313 2009 
z
" transform="scale(0.015625)"/>
      <path id="DejaVuSans-2c" d="M 750 794 
L 1409 794 
L 1409 256 
L 897 -744 
L 494 -744 
L 750 256 
L 750 794 
z
" transform="scale(0.015625)"/>
      <path id="DejaVuSans-37" d="M 525 4666 
L 3525 4666 
L 3525 4397 
L 1831 0 
L 1172 0 
L 2766 4134 
L 525 4134 
L 525 4666 
z
" transform="scale(0.015625)"/>
      <path id="DejaVuSans-78" d="M 3513 3500 
L 2247 1797 
L 3578 0 
L 2900 0 
L 1881 1375 
L 863 0 
L 184 0 
L 1544 1831 
L 300 3500 
L 978 3500 
L 1906 2253 
L 2834 3500 
L 3513 3500 
z
" transform="scale(0.015625)"/>
      <path id="DejaVuSans-39" d="M 703 97 
L 703 672 
Q 941 559 1184 500 
Q 1428 441 1663 441 
Q 2288 441 2617 861 
Q 2947 1281 2994 2138 
Q 2813 1869 2534 1725 
Q 2256 1581 1919 1581 
Q 1219 1581 811 2004 
Q 403 2428 403 3163 
Q 403 3881 828 4315 
Q 1253 4750 1959 4750 
Q 2769 4750 3195 4129 
Q 3622 3509 3622 2328 
Q 3622 1225 3098 567 
Q 2575 -91 1691 -91 
Q 1453 -91 1209 -44 
Q 966 3 703 97 
z
M 1959 2075 
Q 2384 2075 2632 2365 
Q 2881 2656 2881 3163 
Q 2881 3666 2632 3958 
Q 2384 4250 1959 4250 
Q 1534 4250 1286 3958 
Q 1038 3666 1038 3163 
Q 1038 2656 1286 2365 
Q 1534 2075 1959 2075 
z
" transform="scale(0.015625)"/>
     </defs>
     <use xlink:href="#DejaVuSans-51"/>
     <use xlink:href="#DejaVuSans-47" transform="translate(78.710938 0)"/>
     <use xlink:href="#DejaVuSans-33" transform="translate(156.201172 0)"/>
     <use xlink:href="#DejaVuSans-4c" transform="translate(219.824219 0)"/>
     <use xlink:href="#DejaVuSans-20" transform="translate(275.537109 0)"/>
     <use xlink:href="#DejaVuSans-28" transform="translate(307.324219 0)"/>
     <use xlink:href="#DejaVuSans-50" transform="translate(346.337891 0)"/>
     <use xlink:href="#DejaVuSans-65" transform="translate(403.015625 0)"/>
     <use xlink:href="#DejaVuSans-72" transform="translate(464.539062 0)"/>
     <use xlink:href="#DejaVuSans-74" transform="translate(505.652344 0)"/>
     <use xlink:href="#DejaVuSans-75" transform="translate(544.861328 0)"/>
     <use xlink:href="#DejaVuSans-72" transform="translate(608.240234 0)"/>
     <use xlink:href="#DejaVuSans-62" transform="translate(649.353516 0)"/>
     <use xlink:href="#DejaVuSans-65" transform="translate(712.830078 0)"/>
     <use xlink:href="#DejaVuSans-64" transform="translate(774.353516 0)"/>
     <use xlink:href="#DejaVuSans-29" transform="translate(837.830078 0)"/>
     <use xlink:href="#DejaVuSans-20" transform="translate(876.84375 0)"/>
     <use xlink:href="#DejaVuSans-2d" transform="translate(908.630859 0)"/>
     <use xlink:href="#DejaVuSans-20" transform="translate(944.714844 0)"/>
     <use xlink:href="#DejaVuSans-5b" transform="translate(976.501953 0)"/>
     <use xlink:href="#DejaVuSans-31" transform="translate(1015.515625 0)"/>
     <use xlink:href="#DejaVuSans-31" transform="translate(1079.138672 0)"/>
     <use xlink:href="#DejaVuSans-32" transform="translate(1142.761719 0)"/>
     <use xlink:href="#DejaVuSans-2c" transform="translate(1206.384766 0)"/>
     <use xlink:href="#DejaVuSans-20" transform="translate(1238.171875 0)"/>
     <use xlink:href="#DejaVuSans-31" transform="translate(1269.958984 0)"/>
     <use xlink:href="#DejaVuSans-37" transform="translate(1333.582031 0)"/>
     <use xlink:href="#DejaVuSans-36" transform="translate(1397.205078 0)"/>
     <use xlink:href="#DejaVuSans-5d" transform="translate(1460.828125 0)"/>
     <use xlink:href="#DejaVuSans-20" transform="translate(1499.841797 0)"/>
     <use xlink:href="#DejaVuSans-78" transform="translate(1531.628906 0)"/>
     <use xlink:href="#DejaVuSans-20" transform="translate(1590.808594 0)"/>
     <use xlink:href="#DejaVuSans-5b" transform="translate(1622.595703 0)"/>
     <use xlink:href="#DejaVuSans-36" transform="translate(1661.609375 0)"/>
     <use xlink:href="#DejaVuSans-34" transform="translate(1725.232422 0)"/>
     <use xlink:href="#DejaVuSans-2c" transform="translate(1788.855469 0)"/>
     <use xlink:href="#DejaVuSans-20" transform="translate(1820.642578 0)"/>
     <use xlink:href="#DejaVuSans-31" transform="translate(1852.429688 0)"/>
     <use xlink:href="#DejaVuSans-39" transform="translate(1916.052734 0)"/>
     <use xlink:href="#DejaVuSans-32" transform="translate(1979.675781 0)"/>
     <use xlink:href="#DejaVuSans-5d" transform="translate(2043.298828 0)"/>
    </g>
   </g>
   <g id="legend_1">
    <g id="patch_7">
     <path d="M 63.26 101.46375 
L 197.121406 101.46375 
Q 199.321406 101.46375 199.321406 99.26375 
L 199.321406 35.78 
Q 199.321406 33.58 197.121406 33.58 
L 63.26 33.58 
Q 61.06 33.58 61.06 35.78 
L 61.06 99.26375 
Q 61.06 101.46375 63.26 101.46375 
z
" style="fill: #eaeaf2; opacity: 0.8; stroke: #cccccc; stroke-linejoin: miter"/>
    </g>
    <g id="line2d_5">
     <path d="M 65.46 42.488281 
L 76.46 42.488281 
L 87.46 42.488281 
" style="fill: none; stroke: #000000; stroke-width: 1.5; stroke-linecap: round"/>
    </g>
    <g id="text_16">
     <!-- Reduced Gravity -->
     <g style="fill: #262626" transform="translate(96.26 46.338281) scale(0.11 -0.11)">
      <defs>
       <path id="DejaVuSans-63" d="M 3122 3366 
L 3122 2828 
Q 2878 2963 2633 3030 
Q 2388 3097 2138 3097 
Q 1578 3097 1268 2742 
Q 959 2388 959 1747 
Q 959 1106 1268 751 
Q 1578 397 2138 397 
Q 2388 397 2633 464 
Q 2878 531 3122 666 
L 3122 134 
Q 2881 22 2623 -34 
Q 2366 -91 2075 -91 
Q 1284 -91 818 406 
Q 353 903 353 1747 
Q 353 2603 823 3093 
Q 1294 3584 2113 3584 
Q 2378 3584 2631 3529 
Q 2884 3475 3122 3366 
z
" transform="scale(0.015625)"/>
       <path id="DejaVuSans-76" d="M 191 3500 
L 800 3500 
L 1894 563 
L 2988 3500 
L 3597 3500 
L 2284 0 
L 1503 0 
L 191 3500 
z
" transform="scale(0.015625)"/>
      </defs>
      <use xlink:href="#DejaVuSans-52"/>
      <use xlink:href="#DejaVuSans-65" transform="translate(64.982422 0)"/>
      <use xlink:href="#DejaVuSans-64" transform="translate(126.505859 0)"/>
      <use xlink:href="#DejaVuSans-75" transform="translate(189.982422 0)"/>
      <use xlink:href="#DejaVuSans-63" transform="translate(253.361328 0)"/>
      <use xlink:href="#DejaVuSans-65" transform="translate(308.341797 0)"/>
      <use xlink:href="#DejaVuSans-64" transform="translate(369.865234 0)"/>
      <use xlink:href="#DejaVuSans-20" transform="translate(433.341797 0)"/>
      <use xlink:href="#DejaVuSans-47" transform="translate(465.128906 0)"/>
      <use xlink:href="#DejaVuSans-72" transform="translate(542.619141 0)"/>
      <use xlink:href="#DejaVuSans-61" transform="translate(583.732422 0)"/>
      <use xlink:href="#DejaVuSans-76" transform="translate(645.011719 0)"/>
      <use xlink:href="#DejaVuSans-69" transform="translate(704.191406 0)"/>
      <use xlink:href="#DejaVuSans-74" transform="translate(731.974609 0)"/>
      <use xlink:href="#DejaVuSans-79" transform="translate(771.183594 0)"/>
     </g>
    </g>
    <g id="line2d_6">
     <path d="M 65.46 58.634219 
L 76.46 58.634219 
L 87.46 58.634219 
" style="fill: none; stroke: #a52a2a; stroke-width: 1.5; stroke-linecap: round"/>
    </g>
    <g id="text_17">
     <!-- VarDyn -->
     <g style="fill: #262626" transform="translate(96.26 62.484219) scale(0.11 -0.11)">
      <defs>
       <path id="DejaVuSans-56" d="M 1831 0 
L 50 4666 
L 709 4666 
L 2188 738 
L 3669 4666 
L 4325 4666 
L 2547 0 
L 1831 0 
z
" transform="scale(0.015625)"/>
       <path id="DejaVuSans-44" d="M 1259 4147 
L 1259 519 
L 2022 519 
Q 2988 519 3436 956 
Q 3884 1394 3884 2338 
Q 3884 3275 3436 3711 
Q 2988 4147 2022 4147 
L 1259 4147 
z
M 628 4666 
L 1925 4666 
Q 3281 4666 3915 4102 
Q 4550 3538 4550 2338 
Q 4550 1131 3912 565 
Q 3275 0 1925 0 
L 628 0 
L 628 4666 
z
" transform="scale(0.015625)"/>
      </defs>
      <use xlink:href="#DejaVuSans-56"/>
      <use xlink:href="#DejaVuSans-61" transform="translate(60.658203 0)"/>
      <use xlink:href="#DejaVuSans-72" transform="translate(121.9375 0)"/>
      <use xlink:href="#DejaVuSans-44" transform="translate(163.050781 0)"/>
      <use xlink:href="#DejaVuSans-79" transform="translate(240.052734 0)"/>
      <use xlink:href="#DejaVuSans-6e" transform="translate(299.232422 0)"/>
     </g>
    </g>
    <g id="line2d_7">
     <path d="M 65.46 74.780156 
L 76.46 74.780156 
L 87.46 74.780156 
" style="fill: none; stroke: #000080; stroke-width: 1.5; stroke-linecap: round"/>
    </g>
    <g id="text_18">
     <!-- SurfML -->
     <g style="fill: #262626" transform="translate(96.26 78.630156) scale(0.11 -0.11)">
      <defs>
       <path id="DejaVuSans-66" d="M 2375 4863 
L 2375 4384 
L 1825 4384 
Q 1516 4384 1395 4259 
Q 1275 4134 1275 3809 
L 1275 3500 
L 2222 3500 
L 2222 3053 
L 1275 3053 
L 1275 0 
L 697 0 
L 697 3053 
L 147 3053 
L 147 3500 
L 697 3500 
L 697 3744 
Q 697 4328 969 4595 
Q 1241 4863 1831 4863 
L 2375 4863 
z
" transform="scale(0.015625)"/>
      </defs>
      <use xlink:href="#DejaVuSans-53"/>
      <use xlink:href="#DejaVuSans-75" transform="translate(63.476562 0)"/>
      <use xlink:href="#DejaVuSans-72" transform="translate(126.855469 0)"/>
      <use xlink:href="#DejaVuSans-66" transform="translate(167.96875 0)"/>
      <use xlink:href="#DejaVuSans-4d" transform="translate(203.173828 0)"/>
      <use xlink:href="#DejaVuSans-4c" transform="translate(289.453125 0)"/>
     </g>
    </g>
    <g id="line2d_8">
     <path d="M 65.46 90.926094 
L 76.46 90.926094 
L 87.46 90.926094 
" style="fill: none; stroke: #add8e6; stroke-width: 1.5; stroke-linecap: round"/>
    </g>
    <g id="text_19">
     <!-- SurfML - No Alpha -->
     <g style="fill: #262626" transform="translate(96.26 94.776094) scale(0.11 -0.11)">
      <defs>
       <path id="DejaVuSans-4e" d="M 628 4666 
L 1478 4666 
L 3547 763 
L 3547 4666 
L 4159 4666 
L 4159 0 
L 3309 0 
L 1241 3903 
L 1241 0 
L 628 0 
L 628 4666 
z
" transform="scale(0.015625)"/>
       <path id="DejaVuSans-6f" d="M 1959 3097 
Q 1497 3097 1228 2736 
Q 959 2375 959 1747 
Q 959 1119 1226 758 
Q 1494 397 1959 397 
Q 2419 397 2687 759 
Q 2956 1122 2956 1747 
Q 2956 2369 2687 2733 
Q 2419 3097 1959 3097 
z
M 1959 3584 
Q 2709 3584 3137 3096 
Q 3566 2609 3566 1747 
Q 3566 888 3137 398 
Q 2709 -91 1959 -91 
Q 1206 -91 779 398 
Q 353 888 353 1747 
Q 353 2609 779 3096 
Q 1206 3584 1959 3584 
z
" transform="scale(0.015625)"/>
       <path id="DejaVuSans-41" d="M 2188 4044 
L 1331 1722 
L 3047 1722 
L 2188 4044 
z
M 1831 4666 
L 2547 4666 
L 4325 0 
L 3669 0 
L 3244 1197 
L 1141 1197 
L 716 0 
L 50 0 
L 1831 4666 
z
" transform="scale(0.015625)"/>
       <path id="DejaVuSans-6c" d="M 603 4863 
L 1178 4863 
L 1178 0 
L 603 0 
L 603 4863 
z
" transform="scale(0.015625)"/>
       <path id="DejaVuSans-70" d="M 1159 525 
L 1159 -1331 
L 581 -1331 
L 581 3500 
L 1159 3500 
L 1159 2969 
Q 1341 3281 1617 3432 
Q 1894 3584 2278 3584 
Q 2916 3584 3314 3078 
Q 3713 2572 3713 1747 
Q 3713 922 3314 415 
Q 2916 -91 2278 -91 
Q 1894 -91 1617 61 
Q 1341 213 1159 525 
z
M 3116 1747 
Q 3116 2381 2855 2742 
Q 2594 3103 2138 3103 
Q 1681 3103 1420 2742 
Q 1159 2381 1159 1747 
Q 1159 1113 1420 752 
Q 1681 391 2138 391 
Q 2594 391 2855 752 
Q 3116 1113 3116 1747 
z
" transform="scale(0.015625)"/>
       <path id="DejaVuSans-68" d="M 3513 2113 
L 3513 0 
L 2938 0 
L 2938 2094 
Q 2938 2591 2744 2837 
Q 2550 3084 2163 3084 
Q 1697 3084 1428 2787 
Q 1159 2491 1159 1978 
L 1159 0 
L 581 0 
L 581 4863 
L 1159 4863 
L 1159 2956 
Q 1366 3272 1645 3428 
Q 1925 3584 2291 3584 
Q 2894 3584 3203 3211 
Q 3513 2838 3513 2113 
z
" transform="scale(0.015625)"/>
      </defs>
      <use xlink:href="#DejaVuSans-53"/>
      <use xlink:href="#DejaVuSans-75" transform="translate(63.476562 0)"/>
      <use xlink:href="#DejaVuSans-72" transform="translate(126.855469 0)"/>
      <use xlink:href="#DejaVuSans-66" transform="translate(167.96875 0)"/>
      <use xlink:href="#DejaVuSans-4d" transform="translate(203.173828 0)"/>
      <use xlink:href="#DejaVuSans-4c" transform="translate(289.453125 0)"/>
      <use xlink:href="#DejaVuSans-20" transform="translate(345.166016 0)"/>
      <use xlink:href="#DejaVuSans-2d" transform="translate(376.953125 0)"/>
      <use xlink:href="#DejaVuSans-20" transform="translate(413.037109 0)"/>
      <use xlink:href="#DejaVuSans-4e" transform="translate(444.824219 0)"/>
      <use xlink:href="#DejaVuSans-6f" transform="translate(519.628906 0)"/>
      <use xlink:href="#DejaVuSans-20" transform="translate(580.810547 0)"/>
      <use xlink:href="#DejaVuSans-41" transform="translate(612.597656 0)"/>
      <use xlink:href="#DejaVuSans-6c" transform="translate(681.005859 0)"/>
      <use xlink:href="#DejaVuSans-70" transform="translate(708.789062 0)"/>
      <use xlink:href="#DejaVuSans-68" transform="translate(772.265625 0)"/>
      <use xlink:href="#DejaVuSans-61" transform="translate(835.644531 0)"/>
     </g>
    </g>
   </g>
  </g>
 </g>
 <defs>
  <clipPath id="p7fbcad5acc">
   <rect x="55.56" y="28.08" width="651.48" height="282.9"/>
  </clipPath>
 </defs>
</svg>
