<?xml version="1.0" encoding="utf-8" standalone="no"?>
<!DOCTYPE svg PUBLIC "-//W3C//DTD SVG 1.1//EN"
  "http://www.w3.org/Graphics/SVG/1.1/DTD/svg11.dtd">
<svg xmlns:xlink="http://www.w3.org/1999/xlink" width="720pt" height="360pt" viewBox="0 0 720 360" xmlns="http://www.w3.org/2000/svg" version="1.1">
 <metadata>
  <rdf:RDF xmlns:dc="http://purl.org/dc/elements/1.1/" xmlns:cc="http://creativecommons.org/ns#" xmlns:rdf="http://www.w3.org/1999/02/22-rdf-syntax-ns#">
   <cc:Work>
    <dc:type rdf:resource="http://purl.org/dc/dcmitype/StillImage"/>
    <dc:date>2026-03-19T14:40:26.258817</dc:date>
    <dc:format>image/svg+xml</dc:format>
    <dc:creator>
     <cc:Agent>
      <dc:title>Matplotlib v3.10.6, https://matplotlib.org/</dc:title>
     </cc:Agent>
    </dc:creator>
   </cc:Work>
  </rdf:RDF>
 </metadata>
 <defs>
  <style type="text/css">*{stroke-linejoin: round; stroke-linecap: butt}</style>
 </defs>
 <g id="figure_1">
  <g id="patch_1">
   <path d="M 0 360 
L 720 360 
L 720 0 
L 0 0 
z
" style="fill: #ffffff"/>
  </g>
  <g id="axes_1">
   <g id="patch_2">
    <path d="M 55.56 310.98 
L 707.04 310.98 
L 707.04 28.08 
L 55.56 28.08 
z
" style="fill: #eaeaf2"/>
   </g>
   <g id="matplotlib.axis_1">
    <g id="xtick_1">
     <g id="text_1">
      <!-- 0 -->
      <g style="fill: #262626" transform="translate(81.673352 328.838281) scale(0.11 -0.11)">
       <defs>
        <path id="DejaVuSans-30" d="M 2034 4250 
Q 1547 4250 1301 3770 
Q 1056 3291 1056 2328 
Q 1056 1369 1301 889 
Q 1547 409 2034 409 
Q 2525 409 2770 889 
Q 3016 1369 3016 2328 
Q 3016 3291 2770 3770 
Q 2525 4250 2034 4250 
z
M 2034 4750 
Q 2819 4750 3233 4129 
Q 3647 3509 3647 2328 
Q 3647 1150 3233 529 
Q 2819 -91 2034 -91 
Q 1250 -91 836 529 
Q 422 1150 422 2328 
Q 422 3509 836 4129 
Q 1250 4750 2034 4750 
z
" transform="scale(0.015625)"/>
       </defs>
       <use xlink:href="#DejaVuSans-30"/>
      </g>
     </g>
    </g>
    <g id="xtick_2">
     <g id="text_2">
      <!-- 5 -->
      <g style="fill: #262626" transform="translate(224.385291 328.838281) scale(0.11 -0.11)">
       <defs>
        <path id="DejaVuSans-35" d="M 691 4666 
L 3169 4666 
L 3169 4134 
L 1269 4134 
L 1269 2991 
Q 1406 3038 1543 3061 
Q 1681 3084 1819 3084 
Q 2600 3084 3056 2656 
Q 3513 2228 3513 1497 
Q 3513 744 3044 326 
Q 2575 -91 1722 -91 
Q 1428 -91 1123 -41 
Q 819 9 494 109 
L 494 744 
Q 775 591 1075 516 
Q 1375 441 1709 441 
Q 2250 441 2565 725 
Q 2881 1009 2881 1497 
Q 2881 1984 2565 2268 
Q 2250 2553 1709 2553 
Q 1456 2553 1204 2497 
Q 953 2441 691 2322 
L 691 4666 
z
" transform="scale(0.015625)"/>
       </defs>
       <use xlink:href="#DejaVuSans-35"/>
      </g>
     </g>
    </g>
    <g id="xtick_3">
     <g id="text_3">
      <!-- 10 -->
      <g style="fill: #262626" transform="translate(363.597855 328.838281) scale(0.11 -0.11)">
       <defs>
        <path id="DejaVuSans-31" d="M 794 531 
L 1825 531 
L 1825 4091 
L 703 3866 
L 703 4441 
L 1819 4666 
L 2450 4666 
L 2450 531 
L 3481 531 
L 3481 0 
L 794 0 
L 794 531 
z
" transform="scale(0.015625)"/>
       </defs>
       <use xlink:href="#DejaVuSans-31"/>
       <use xlink:href="#DejaVuSans-30" transform="translate(63.623047 0)"/>
      </g>
     </g>
    </g>
    <g id="xtick_4">
     <g id="text_4">
      <!-- 15 -->
      <g style="fill: #262626" transform="translate(506.309793 328.838281) scale(0.11 -0.11)">
       <use xlink:href="#DejaVuSans-31"/>
       <use xlink:href="#DejaVuSans-35" transform="translate(63.623047 0)"/>
      </g>
     </g>
    </g>
    <g id="xtick_5">
     <g id="text_5">
      <!-- 20 -->
      <g style="fill: #262626" transform="translate(649.021732 328.838281) scale(0.11 -0.11)">
       <defs>
        <path id="DejaVuSans-32" d="M 1228 531 
L 3431 531 
L 3431 0 
L 469 0 
L 469 531 
Q 828 903 1448 1529 
Q 2069 2156 2228 2338 
Q 2531 2678 2651 2914 
Q 2772 3150 2772 3378 
Q 2772 3750 2511 3984 
Q 2250 4219 1831 4219 
Q 1534 4219 1204 4116 
Q 875 4013 500 3803 
L 500 4441 
Q 881 4594 1212 4672 
Q 1544 4750 1819 4750 
Q 2544 4750 2975 4387 
Q 3406 4025 3406 3419 
Q 3406 3131 3298 2873 
Q 3191 2616 2906 2266 
Q 2828 2175 2409 1742 
Q 1991 1309 1228 531 
z
" transform="scale(0.015625)"/>
       </defs>
       <use xlink:href="#DejaVuSans-32"/>
       <use xlink:href="#DejaVuSans-30" transform="translate(63.623047 0)"/>
      </g>
     </g>
    </g>
    <g id="text_6">
     <!-- Time [days] -->
     <g style="fill: #262626" transform="translate(345.868125 344.244062) scale(0.12 -0.12)">
      <defs>
       <path id="DejaVuSans-54" d="M -19 4666 
L 3928 4666 
L 3928 4134 
L 2272 4134 
L 2272 0 
L 1638 0 
L 1638 4134 
L -19 4134 
L -19 4666 
z
" transform="scale(0.015625)"/>
       <path id="DejaVuSans-69" d="M 603 3500 
L 1178 3500 
L 1178 0 
L 603 0 
L 603 3500 
z
M 603 4863 
L 1178 4863 
L 1178 4134 
L 603 4134 
L 603 4863 
z
" transform="scale(0.015625)"/>
       <path id="DejaVuSans-6d" d="M 3328 2828 
Q 3544 3216 3844 3400 
Q 4144 3584 4550 3584 
Q 5097 3584 5394 3201 
Q 5691 2819 5691 2113 
L 5691 0 
L 5113 0 
L 5113 2094 
Q 5113 2597 4934 2840 
Q 4756 3084 4391 3084 
Q 3944 3084 3684 2787 
Q 3425 2491 3425 1978 
L 3425 0 
L 2847 0 
L 2847 2094 
Q 2847 2600 2669 2842 
Q 2491 3084 2119 3084 
Q 1678 3084 1418 2786 
Q 1159 2488 1159 1978 
L 1159 0 
L 581 0 
L 581 3500 
L 1159 3500 
L 1159 2956 
Q 1356 3278 1631 3431 
Q 1906 3584 2284 3584 
Q 2666 3584 2933 3390 
Q 3200 3197 3328 2828 
z
" transform="scale(0.015625)"/>
       <path id="DejaVuSans-65" d="M 3597 1894 
L 3597 1613 
L 953 1613 
Q 991 1019 1311 708 
Q 1631 397 2203 397 
Q 2534 397 2845 478 
Q 3156 559 3463 722 
L 3463 178 
Q 3153 47 2828 -22 
Q 2503 -91 2169 -91 
Q 1331 -91 842 396 
Q 353 884 353 1716 
Q 353 2575 817 3079 
Q 1281 3584 2069 3584 
Q 2775 3584 3186 3129 
Q 3597 2675 3597 1894 
z
M 3022 2063 
Q 3016 2534 2758 2815 
Q 2500 3097 2075 3097 
Q 1594 3097 1305 2825 
Q 1016 2553 972 2059 
L 3022 2063 
z
" transform="scale(0.015625)"/>
       <path id="DejaVuSans-20" transform="scale(0.015625)"/>
       <path id="DejaVuSans-5b" d="M 550 4863 
L 1875 4863 
L 1875 4416 
L 1125 4416 
L 1125 -397 
L 1875 -397 
L 1875 -844 
L 550 -844 
L 550 4863 
z
" transform="scale(0.015625)"/>
       <path id="DejaVuSans-64" d="M 2906 2969 
L 2906 4863 
L 3481 4863 
L 3481 0 
L 2906 0 
L 2906 525 
Q 2725 213 2448 61 
Q 2172 -91 1784 -91 
Q 1150 -91 751 415 
Q 353 922 353 1747 
Q 353 2572 751 3078 
Q 1150 3584 1784 3584 
Q 2172 3584 2448 3432 
Q 2725 3281 2906 2969 
z
M 947 1747 
Q 947 1113 1208 752 
Q 1469 391 1925 391 
Q 2381 391 2643 752 
Q 2906 1113 2906 1747 
Q 2906 2381 2643 2742 
Q 2381 3103 1925 3103 
Q 1469 3103 1208 2742 
Q 947 2381 947 1747 
z
" transform="scale(0.015625)"/>
       <path id="DejaVuSans-61" d="M 2194 1759 
Q 1497 1759 1228 1600 
Q 959 1441 959 1056 
Q 959 750 1161 570 
Q 1363 391 1709 391 
Q 2188 391 2477 730 
Q 2766 1069 2766 1631 
L 2766 1759 
L 2194 1759 
z
M 3341 1997 
L 3341 0 
L 2766 0 
L 2766 531 
Q 2569 213 2275 61 
Q 1981 -91 1556 -91 
Q 1019 -91 701 211 
Q 384 513 384 1019 
Q 384 1609 779 1909 
Q 1175 2209 1959 2209 
L 2766 2209 
L 2766 2266 
Q 2766 2663 2505 2880 
Q 2244 3097 1772 3097 
Q 1472 3097 1187 3025 
Q 903 2953 641 2809 
L 641 3341 
Q 956 3463 1253 3523 
Q 1550 3584 1831 3584 
Q 2591 3584 2966 3190 
Q 3341 2797 3341 1997 
z
" transform="scale(0.015625)"/>
       <path id="DejaVuSans-79" d="M 2059 -325 
Q 1816 -950 1584 -1140 
Q 1353 -1331 966 -1331 
L 506 -1331 
L 506 -850 
L 844 -850 
Q 1081 -850 1212 -737 
Q 1344 -625 1503 -206 
L 1606 56 
L 191 3500 
L 800 3500 
L 1894 763 
L 2988 3500 
L 3597 3500 
L 2059 -325 
z
" transform="scale(0.015625)"/>
       <path id="DejaVuSans-73" d="M 2834 3397 
L 2834 2853 
Q 2591 2978 2328 3040 
Q 2066 3103 1784 3103 
Q 1356 3103 1142 2972 
Q 928 2841 928 2578 
Q 928 2378 1081 2264 
Q 1234 2150 1697 2047 
L 1894 2003 
Q 2506 1872 2764 1633 
Q 3022 1394 3022 966 
Q 3022 478 2636 193 
Q 2250 -91 1575 -91 
Q 1294 -91 989 -36 
Q 684 19 347 128 
L 347 722 
Q 666 556 975 473 
Q 1284 391 1588 391 
Q 1994 391 2212 530 
Q 2431 669 2431 922 
Q 2431 1156 2273 1281 
Q 2116 1406 1581 1522 
L 1381 1569 
Q 847 1681 609 1914 
Q 372 2147 372 2553 
Q 372 3047 722 3315 
Q 1072 3584 1716 3584 
Q 2034 3584 2315 3537 
Q 2597 3491 2834 3397 
z
" transform="scale(0.015625)"/>
       <path id="DejaVuSans-5d" d="M 1947 4863 
L 1947 -844 
L 622 -844 
L 622 -397 
L 1369 -397 
L 1369 4416 
L 622 4416 
L 622 4863 
L 1947 4863 
z
" transform="scale(0.015625)"/>
      </defs>
      <use xlink:href="#DejaVuSans-54"/>
      <use xlink:href="#DejaVuSans-69" transform="translate(57.958984 0)"/>
      <use xlink:href="#DejaVuSans-6d" transform="translate(85.742188 0)"/>
      <use xlink:href="#DejaVuSans-65" transform="translate(183.154297 0)"/>
      <use xlink:href="#DejaVuSans-20" transform="translate(244.677734 0)"/>
      <use xlink:href="#DejaVuSans-5b" transform="translate(276.464844 0)"/>
      <use xlink:href="#DejaVuSans-64" transform="translate(315.478516 0)"/>
      <use xlink:href="#DejaVuSans-61" transform="translate(378.955078 0)"/>
      <use xlink:href="#DejaVuSans-79" transform="translate(440.234375 0)"/>
      <use xlink:href="#DejaVuSans-73" transform="translate(499.414062 0)"/>
      <use xlink:href="#DejaVuSans-5d" transform="translate(551.513672 0)"/>
     </g>
    </g>
   </g>
   <g id="matplotlib.axis_2">
    <g id="ytick_1">
     <g id="text_7">
      <!-- 0.0 -->
      <g style="fill: #262626" transform="translate(28.566562 302.30005) scale(0.11 -0.11)">
       <defs>
        <path id="DejaVuSans-2e" d="M 684 794 
L 1344 794 
L 1344 0 
L 684 0 
L 684 794 
z
" transform="scale(0.015625)"/>
       </defs>
       <use xlink:href="#DejaVuSans-30"/>
       <use xlink:href="#DejaVuSans-2e" transform="translate(63.623047 0)"/>
       <use xlink:href="#DejaVuSans-30" transform="translate(95.410156 0)"/>
      </g>
     </g>
    </g>
    <g id="ytick_2">
     <g id="text_8">
      <!-- 0.1 -->
      <g style="fill: #262626" transform="translate(28.566562 264.508581) scale(0.11 -0.11)">
       <use xlink:href="#DejaVuSans-30"/>
       <use xlink:href="#DejaVuSans-2e" transform="translate(63.623047 0)"/>
       <use xlink:href="#DejaVuSans-31" transform="translate(95.410156 0)"/>
      </g>
     </g>
    </g>
    <g id="ytick_3">
     <g id="text_9">
      <!-- 0.2 -->
      <g style="fill: #262626" transform="translate(28.566562 226.717112) scale(0.11 -0.11)">
       <use xlink:href="#DejaVuSans-30"/>
       <use xlink:href="#DejaVuSans-2e" transform="translate(63.623047 0)"/>
       <use xlink:href="#DejaVuSans-32" transform="translate(95.410156 0)"/>
      </g>
     </g>
    </g>
    <g id="ytick_4">
     <g id="text_10">
      <!-- 0.3 -->
      <g style="fill: #262626" transform="translate(28.566562 188.925644) scale(0.11 -0.11)">
       <defs>
        <path id="DejaVuSans-33" d="M 2597 2516 
Q 3050 2419 3304 2112 
Q 3559 1806 3559 1356 
Q 3559 666 3084 287 
Q 2609 -91 1734 -91 
Q 1441 -91 1130 -33 
Q 819 25 488 141 
L 488 750 
Q 750 597 1062 519 
Q 1375 441 1716 441 
Q 2309 441 2620 675 
Q 2931 909 2931 1356 
Q 2931 1769 2642 2001 
Q 2353 2234 1838 2234 
L 1294 2234 
L 1294 2753 
L 1863 2753 
Q 2328 2753 2575 2939 
Q 2822 3125 2822 3475 
Q 2822 3834 2567 4026 
Q 2313 4219 1838 4219 
Q 1578 4219 1281 4162 
Q 984 4106 628 3988 
L 628 4550 
Q 988 4650 1302 4700 
Q 1616 4750 1894 4750 
Q 2613 4750 3031 4423 
Q 3450 4097 3450 3541 
Q 3450 3153 3228 2886 
Q 3006 2619 2597 2516 
z
" transform="scale(0.015625)"/>
       </defs>
       <use xlink:href="#DejaVuSans-30"/>
       <use xlink:href="#DejaVuSans-2e" transform="translate(63.623047 0)"/>
       <use xlink:href="#DejaVuSans-33" transform="translate(95.410156 0)"/>
      </g>
     </g>
    </g>
    <g id="ytick_5">
     <g id="text_11">
      <!-- 0.4 -->
      <g style="fill: #262626" transform="translate(28.566562 151.134175) scale(0.11 -0.11)">
       <defs>
        <path id="DejaVuSans-34" d="M 2419 4116 
L 825 1625 
L 2419 1625 
L 2419 4116 
z
M 2253 4666 
L 3047 4666 
L 3047 1625 
L 3713 1625 
L 3713 1100 
L 3047 1100 
L 3047 0 
L 2419 0 
L 2419 1100 
L 313 1100 
L 313 1709 
L 2253 4666 
z
" transform="scale(0.015625)"/>
       </defs>
       <use xlink:href="#DejaVuSans-30"/>
       <use xlink:href="#DejaVuSans-2e" transform="translate(63.623047 0)"/>
       <use xlink:href="#DejaVuSans-34" transform="translate(95.410156 0)"/>
      </g>
     </g>
    </g>
    <g id="ytick_6">
     <g id="text_12">
      <!-- 0.5 -->
      <g style="fill: #262626" transform="translate(28.566562 113.342706) scale(0.11 -0.11)">
       <use xlink:href="#DejaVuSans-30"/>
       <use xlink:href="#DejaVuSans-2e" transform="translate(63.623047 0)"/>
       <use xlink:href="#DejaVuSans-35" transform="translate(95.410156 0)"/>
      </g>
     </g>
    </g>
    <g id="ytick_7">
     <g id="text_13">
      <!-- 0.6 -->
      <g style="fill: #262626" transform="translate(28.566562 75.551238) scale(0.11 -0.11)">
       <defs>
        <path id="DejaVuSans-36" d="M 2113 2584 
Q 1688 2584 1439 2293 
Q 1191 2003 1191 1497 
Q 1191 994 1439 701 
Q 1688 409 2113 409 
Q 2538 409 2786 701 
Q 3034 994 3034 1497 
Q 3034 2003 2786 2293 
Q 2538 2584 2113 2584 
z
M 3366 4563 
L 3366 3988 
Q 3128 4100 2886 4159 
Q 2644 4219 2406 4219 
Q 1781 4219 1451 3797 
Q 1122 3375 1075 2522 
Q 1259 2794 1537 2939 
Q 1816 3084 2150 3084 
Q 2853 3084 3261 2657 
Q 3669 2231 3669 1497 
Q 3669 778 3244 343 
Q 2819 -91 2113 -91 
Q 1303 -91 875 529 
Q 447 1150 447 2328 
Q 447 3434 972 4092 
Q 1497 4750 2381 4750 
Q 2619 4750 2861 4703 
Q 3103 4656 3366 4563 
z
" transform="scale(0.015625)"/>
       </defs>
       <use xlink:href="#DejaVuSans-30"/>
       <use xlink:href="#DejaVuSans-2e" transform="translate(63.623047 0)"/>
       <use xlink:href="#DejaVuSans-36" transform="translate(95.410156 0)"/>
      </g>
     </g>
    </g>
    <g id="ytick_8">
     <g id="text_14">
      <!-- 0.7 -->
      <g style="fill: #262626" transform="translate(28.566562 37.759769) scale(0.11 -0.11)">
       <defs>
        <path id="DejaVuSans-37" d="M 525 4666 
L 3525 4666 
L 3525 4397 
L 1831 0 
L 1172 0 
L 2766 4134 
L 525 4134 
L 525 4666 
z
" transform="scale(0.015625)"/>
       </defs>
       <use xlink:href="#DejaVuSans-30"/>
       <use xlink:href="#DejaVuSans-2e" transform="translate(63.623047 0)"/>
       <use xlink:href="#DejaVuSans-37" transform="translate(95.410156 0)"/>
      </g>
     </g>
    </g>
    <g id="text_15">
     <!-- nRMSE -->
     <g style="fill: #262626" transform="translate(22.070937 190.27875) rotate(-90) scale(0.12 -0.12)">
      <defs>
       <path id="DejaVuSans-6e" d="M 3513 2113 
L 3513 0 
L 2938 0 
L 2938 2094 
Q 2938 2591 2744 2837 
Q 2550 3084 2163 3084 
Q 1697 3084 1428 2787 
Q 1159 2491 1159 1978 
L 1159 0 
L 581 0 
L 581 3500 
L 1159 3500 
L 1159 2956 
Q 1366 3272 1645 3428 
Q 1925 3584 2291 3584 
Q 2894 3584 3203 3211 
Q 3513 2838 3513 2113 
z
" transform="scale(0.015625)"/>
       <path id="DejaVuSans-52" d="M 2841 2188 
Q 3044 2119 3236 1894 
Q 3428 1669 3622 1275 
L 4263 0 
L 3584 0 
L 2988 1197 
Q 2756 1666 2539 1819 
Q 2322 1972 1947 1972 
L 1259 1972 
L 1259 0 
L 628 0 
L 628 4666 
L 2053 4666 
Q 2853 4666 3247 4331 
Q 3641 3997 3641 3322 
Q 3641 2881 3436 2590 
Q 3231 2300 2841 2188 
z
M 1259 4147 
L 1259 2491 
L 2053 2491 
Q 2509 2491 2742 2702 
Q 2975 2913 2975 3322 
Q 2975 3731 2742 3939 
Q 2509 4147 2053 4147 
L 1259 4147 
z
" transform="scale(0.015625)"/>
       <path id="DejaVuSans-4d" d="M 628 4666 
L 1569 4666 
L 2759 1491 
L 3956 4666 
L 4897 4666 
L 4897 0 
L 4281 0 
L 4281 4097 
L 3078 897 
L 2444 897 
L 1241 4097 
L 1241 0 
L 628 0 
L 628 4666 
z
" transform="scale(0.015625)"/>
       <path id="DejaVuSans-53" d="M 3425 4513 
L 3425 3897 
Q 3066 4069 2747 4153 
Q 2428 4238 2131 4238 
Q 1616 4238 1336 4038 
Q 1056 3838 1056 3469 
Q 1056 3159 1242 3001 
Q 1428 2844 1947 2747 
L 2328 2669 
Q 3034 2534 3370 2195 
Q 3706 1856 3706 1288 
Q 3706 609 3251 259 
Q 2797 -91 1919 -91 
Q 1588 -91 1214 -16 
Q 841 59 441 206 
L 441 856 
Q 825 641 1194 531 
Q 1563 422 1919 422 
Q 2459 422 2753 634 
Q 3047 847 3047 1241 
Q 3047 1584 2836 1778 
Q 2625 1972 2144 2069 
L 1759 2144 
Q 1053 2284 737 2584 
Q 422 2884 422 3419 
Q 422 4038 858 4394 
Q 1294 4750 2059 4750 
Q 2388 4750 2728 4690 
Q 3069 4631 3425 4513 
z
" transform="scale(0.015625)"/>
       <path id="DejaVuSans-45" d="M 628 4666 
L 3578 4666 
L 3578 4134 
L 1259 4134 
L 1259 2753 
L 3481 2753 
L 3481 2222 
L 1259 2222 
L 1259 531 
L 3634 531 
L 3634 0 
L 628 0 
L 628 4666 
z
" transform="scale(0.015625)"/>
      </defs>
      <use xlink:href="#DejaVuSans-6e"/>
      <use xlink:href="#DejaVuSans-52" transform="translate(63.378906 0)"/>
      <use xlink:href="#DejaVuSans-4d" transform="translate(132.861328 0)"/>
      <use xlink:href="#DejaVuSans-53" transform="translate(219.140625 0)"/>
      <use xlink:href="#DejaVuSans-45" transform="translate(282.617188 0)"/>
     </g>
    </g>
   </g>
   <g id="FillBetweenPolyCollection_1">
    <defs>
     <path id="m575d10f407" d="M 85.172727 -61.879091 
L 85.172727 -61.879091 
L 87.55126 -63.319454 
L 89.929792 -64.772174 
L 92.308324 -66.237462 
L 94.686857 -67.71552 
L 97.065389 -69.206524 
L 99.443921 -70.710618 
L 101.822453 -72.227906 
L 104.200986 -73.758465 
L 106.579518 -75.302342 
L 108.95805 -76.859563 
L 111.336583 -78.430139 
L 113.715115 -80.014065 
L 116.093647 -81.61133 
L 118.47218 -83.221909 
L 120.850712 -84.845762 
L 123.229244 -86.482827 
L 125.607777 -88.133023 
L 127.986309 -89.796233 
L 130.364841 -91.472278 
L 132.743373 -93.160873 
L 135.121906 -94.861566 
L 137.500438 -96.573614 
L 139.87897 -98.295722 
L 142.257503 -100.0255 
L 144.636035 -101.758193 
L 147.014567 -103.483769 
L 149.3931 -105.181572 
L 151.771632 -106.820523 
L 154.150164 -108.385131 
L 156.528697 -109.89141 
L 158.907229 -111.360307 
L 161.285761 -112.803965 
L 163.664294 -114.228298 
L 166.042826 -115.636224 
L 168.421358 -117.029243 
L 170.79989 -118.408163 
L 173.178423 -119.773432 
L 175.556955 -121.125291 
L 177.935487 -122.463861 
L 180.31402 -123.789196 
L 182.692552 -125.101305 
L 185.071084 -126.400153 
L 187.449617 -127.685688 
L 189.828149 -128.957854 
L 192.206681 -130.216591 
L 194.585214 -131.461851 
L 196.963746 -132.693608 
L 199.342278 -133.911851 
L 201.720811 -135.116608 
L 204.099343 -136.307933 
L 206.477875 -137.485911 
L 208.856407 -138.650649 
L 211.23494 -139.802284 
L 213.613472 -140.940969 
L 215.992004 -142.066879 
L 218.370537 -143.180199 
L 220.749069 -144.281124 
L 223.127601 -145.369839 
L 225.506134 -146.446534 
L 227.884666 -147.511388 
L 230.263198 -148.564575 
L 232.641731 -149.606259 
L 235.020263 -150.636598 
L 237.398795 -151.655745 
L 239.777327 -152.663846 
L 242.15586 -153.661028 
L 244.534392 -154.647418 
L 246.912924 -155.623139 
L 249.291457 -156.588304 
L 251.669989 -157.543022 
L 254.048521 -158.487397 
L 256.427054 -159.421528 
L 258.805586 -160.345522 
L 261.184118 -161.259488 
L 263.562651 -162.163534 
L 265.941183 -163.057791 
L 268.319715 -163.942396 
L 270.698248 -164.8175 
L 273.07678 -165.683272 
L 275.455312 -166.539884 
L 277.833844 -167.387509 
L 280.212377 -168.226349 
L 282.590909 -169.056614 
L 284.969441 -169.87852 
L 287.347974 -170.69229 
L 289.726506 -171.498141 
L 292.105038 -172.296298 
L 294.483571 -173.087004 
L 296.862103 -173.870503 
L 299.240635 -174.647053 
L 301.619168 -175.41692 
L 303.9977 -176.180372 
L 306.376232 -176.937689 
L 308.754765 -177.689152 
L 311.133297 -178.435052 
L 313.511829 -179.175695 
L 315.890361 -179.911391 
L 318.268894 -180.642452 
L 320.647426 -181.369191 
L 323.025958 -182.091916 
L 325.404491 -182.810939 
L 327.783023 -183.526574 
L 330.161555 -184.239129 
L 332.540088 -184.948928 
L 334.91862 -185.656311 
L 337.297152 -186.361622 
L 339.675685 -187.065212 
L 342.054217 -187.767436 
L 344.432749 -188.46865 
L 346.811281 -189.169198 
L 349.189814 -189.869424 
L 351.568346 -190.56966 
L 353.946878 -191.270222 
L 356.325411 -191.971409 
L 358.703943 -192.673499 
L 361.082475 -193.376733 
L 363.461008 -194.081329 
L 365.83954 -194.787475 
L 368.218072 -195.495322 
L 370.596605 -196.204997 
L 372.975137 -196.91661 
L 375.353669 -197.630255 
L 377.732202 -198.345995 
L 380.110734 -199.063866 
L 382.489266 -199.78389 
L 384.867798 -200.506079 
L 387.246331 -201.230436 
L 389.624863 -201.956947 
L 392.003395 -202.685601 
L 394.381928 -203.41638 
L 396.76046 -204.149264 
L 399.138992 -204.884228 
L 401.517525 -205.621241 
L 403.896057 -206.360266 
L 406.274589 -207.101255 
L 408.653122 -207.844152 
L 411.031654 -208.588898 
L 413.410186 -209.335438 
L 415.788719 -210.083712 
L 418.167251 -210.833652 
L 420.545783 -211.585178 
L 422.924315 -212.338202 
L 425.302848 -213.092637 
L 427.68138 -213.848383 
L 430.059912 -214.605308 
L 432.438445 -215.363255 
L 434.816977 -216.122051 
L 437.195509 -216.881484 
L 439.574042 -217.641304 
L 441.952574 -218.401239 
L 444.331106 -219.160994 
L 446.709639 -219.920276 
L 449.088171 -220.678821 
L 451.466703 -221.436428 
L 453.845235 -222.192948 
L 456.223768 -222.948316 
L 458.6023 -223.702564 
L 460.980832 -224.455798 
L 463.359365 -225.208166 
L 465.737897 -225.959829 
L 468.116429 -226.710914 
L 470.494962 -227.46149 
L 472.873494 -228.211542 
L 475.252026 -228.960974 
L 477.630559 -229.709627 
L 480.009091 -230.457315 
L 482.387623 -231.203891 
L 484.766156 -231.949262 
L 487.144688 -232.693412 
L 489.52322 -233.436421 
L 491.901752 -234.178479 
L 494.280285 -234.919882 
L 496.658817 -235.660979 
L 499.037349 -236.402145 
L 501.415882 -237.143761 
L 503.794414 -237.886174 
L 506.172946 -238.629664 
L 508.551479 -239.374442 
L 510.930011 -240.120648 
L 513.308543 -240.868352 
L 515.687076 -241.617563 
L 518.065608 -242.368212 
L 520.44414 -243.120186 
L 522.822673 -243.873323 
L 525.201205 -244.627396 
L 527.579737 -245.382153 
L 529.958269 -246.137329 
L 532.336802 -246.892638 
L 534.715334 -247.647785 
L 537.093866 -248.402482 
L 539.472399 -249.156466 
L 541.850931 -249.909484 
L 544.229463 -250.661329 
L 546.607996 -251.411818 
L 548.986528 -252.160798 
L 551.36506 -252.908157 
L 553.743593 -253.65381 
L 556.122125 -254.39771 
L 558.500657 -255.139835 
L 560.879189 -255.880188 
L 563.257722 -256.61879 
L 565.636254 -257.355662 
L 568.014786 -258.090814 
L 570.393319 -258.824234 
L 572.771851 -259.555911 
L 575.150383 -260.285817 
L 577.528916 -261.01391 
L 579.907448 -261.740165 
L 582.28598 -262.464561 
L 584.664513 -263.187101 
L 587.043045 -263.907809 
L 589.421577 -264.626698 
L 591.80011 -265.343807 
L 594.178642 -266.059193 
L 596.557174 -266.772903 
L 598.935706 -267.484984 
L 601.314239 -268.195477 
L 603.692771 -268.904424 
L 606.071303 -269.611844 
L 608.449836 -270.317742 
L 610.828368 -271.022106 
L 613.2069 -271.724916 
L 615.585433 -272.426125 
L 617.963965 -273.125683 
L 620.342497 -273.823528 
L 622.72103 -274.519576 
L 625.099562 -275.213704 
L 627.478094 -275.905746 
L 629.856627 -276.595502 
L 632.235159 -277.282698 
L 634.613691 -277.966996 
L 636.992223 -278.648 
L 639.370756 -279.325281 
L 641.749288 -279.998374 
L 644.12782 -280.6668 
L 646.506353 -281.330068 
L 648.884885 -281.987691 
L 651.263417 -282.639231 
L 653.64195 -283.284309 
L 656.020482 -283.922605 
L 658.399014 -284.553885 
L 660.777547 -285.178002 
L 663.156079 -285.794898 
L 665.534611 -286.40461 
L 667.913143 -287.007269 
L 670.291676 -287.603091 
L 672.670208 -288.192375 
L 675.04874 -288.775482 
L 677.427273 -289.352801 
L 677.427273 -348.769017 
L 677.427273 -348.769017 
L 675.04874 -349.244214 
L 672.670208 -349.717529 
L 670.291676 -350.188858 
L 667.913143 -350.657935 
L 665.534611 -351.124344 
L 663.156079 -351.587507 
L 660.777547 -352.046735 
L 658.399014 -352.501318 
L 656.020482 -352.950507 
L 653.64195 -353.393498 
L 651.263417 -353.829438 
L 648.884885 -354.257445 
L 646.506353 -354.676558 
L 644.12782 -355.085756 
L 641.749288 -355.483988 
L 639.370756 -355.870223 
L 636.992223 -356.243451 
L 634.613691 -356.602735 
L 632.235159 -356.94724 
L 629.856627 -357.276263 
L 627.478094 -357.589256 
L 625.099562 -357.885827 
L 622.72103 -358.165762 
L 620.342497 -358.428975 
L 617.963965 -358.675484 
L 615.585433 -358.905387 
L 613.2069 -359.118817 
L 610.828368 -359.315945 
L 608.449836 -359.49696 
L 606.071303 -359.662116 
L 603.692771 -359.811711 
L 601.314239 -359.946055 
L 598.935706 -360.065542 
L 596.557174 -360.17062 
L 594.178642 -360.261775 
L 591.80011 -360.339545 
L 589.421577 -360.404513 
L 587.043045 -360.457375 
L 584.664513 -360.498856 
L 582.28598 -360.529664 
L 579.907448 -360.550591 
L 577.528916 -360.562424 
L 575.150383 -360.565908 
L 572.771851 -360.56177 
L 570.393319 -360.550636 
L 568.014786 -360.533071 
L 565.636254 -360.509606 
L 563.257722 -360.480618 
L 560.879189 -360.446409 
L 558.500657 -360.407113 
L 556.122125 -360.362765 
L 553.743593 -360.313233 
L 551.36506 -360.258253 
L 548.986528 -360.197436 
L 546.607996 -360.130242 
L 544.229463 -360.056067 
L 541.850931 -359.974184 
L 539.472399 -359.883743 
L 537.093866 -359.783815 
L 534.715334 -359.673275 
L 532.336802 -359.550918 
L 529.958269 -359.415385 
L 527.579737 -359.265176 
L 525.201205 -359.098701 
L 522.822673 -358.914349 
L 520.44414 -358.710432 
L 518.065608 -358.485268 
L 515.687076 -358.237321 
L 513.308543 -357.965185 
L 510.930011 -357.667595 
L 508.551479 -357.343563 
L 506.172946 -356.992343 
L 503.794414 -356.613509 
L 501.415882 -356.206962 
L 499.037349 -355.772987 
L 496.658817 -355.312221 
L 494.280285 -354.825576 
L 491.901752 -354.314118 
L 489.52322 -353.778985 
L 487.144688 -353.221345 
L 484.766156 -352.642213 
L 482.387623 -352.042386 
L 480.009091 -351.422417 
L 477.630559 -350.782615 
L 475.252026 -350.123038 
L 472.873494 -349.443476 
L 470.494962 -348.743556 
L 468.116429 -348.022765 
L 465.737897 -347.280541 
L 463.359365 -346.516355 
L 460.980832 -345.729712 
L 458.6023 -344.920159 
L 456.223768 -344.087299 
L 453.845235 -343.230804 
L 451.466703 -342.350378 
L 449.088171 -341.445685 
L 446.709639 -340.516414 
L 444.331106 -339.562262 
L 441.952574 -338.582893 
L 439.574042 -337.577956 
L 437.195509 -336.547141 
L 434.816977 -335.490195 
L 432.438445 -334.406902 
L 430.059912 -333.297109 
L 427.68138 -332.160738 
L 425.302848 -330.997746 
L 422.924315 -329.808132 
L 420.545783 -328.591983 
L 418.167251 -327.349464 
L 415.788719 -326.080758 
L 413.410186 -324.786089 
L 411.031654 -323.465744 
L 408.653122 -322.120031 
L 406.274589 -320.749289 
L 403.896057 -319.353858 
L 401.517525 -317.934078 
L 399.138992 -316.490333 
L 396.76046 -315.023007 
L 394.381928 -313.532478 
L 392.003395 -312.019135 
L 389.624863 -310.483336 
L 387.246331 -308.925408 
L 384.867798 -307.345648 
L 382.489266 -305.744301 
L 380.110734 -304.121605 
L 377.732202 -302.477783 
L 375.353669 -300.813025 
L 372.975137 -299.1275 
L 370.596605 -297.421407 
L 368.218072 -295.694954 
L 365.83954 -293.948343 
L 363.461008 -292.181758 
L 361.082475 -290.395398 
L 358.703943 -288.589532 
L 356.325411 -286.764478 
L 353.946878 -284.920603 
L 351.568346 -283.058331 
L 349.189814 -281.178111 
L 346.811281 -279.280405 
L 344.432749 -277.365712 
L 342.054217 -275.434549 
L 339.675685 -273.487394 
L 337.297152 -271.52475 
L 334.91862 -269.547116 
L 332.540088 -267.554974 
L 330.161555 -265.548769 
L 327.783023 -263.528941 
L 325.404491 -261.495875 
L 323.025958 -259.449908 
L 320.647426 -257.391406 
L 318.268894 -255.32075 
L 315.890361 -253.238311 
L 313.511829 -251.1445 
L 311.133297 -249.039736 
L 308.754765 -246.924445 
L 306.376232 -244.79907 
L 303.9977 -242.664043 
L 301.619168 -240.519772 
L 299.240635 -238.36671 
L 296.862103 -236.205299 
L 294.483571 -234.035997 
L 292.105038 -231.859262 
L 289.726506 -229.675539 
L 287.347974 -227.485303 
L 284.969441 -225.288991 
L 282.590909 -223.087044 
L 280.212377 -220.879954 
L 277.833844 -218.668203 
L 275.455312 -216.452295 
L 273.07678 -214.232723 
L 270.698248 -212.009898 
L 268.319715 -209.784287 
L 265.941183 -207.556375 
L 263.562651 -205.326619 
L 261.184118 -203.095474 
L 258.805586 -200.863397 
L 256.427054 -198.63081 
L 254.048521 -196.398162 
L 251.669989 -194.165926 
L 249.291457 -191.934579 
L 246.912924 -189.704641 
L 244.534392 -187.476647 
L 242.15586 -185.251161 
L 239.777327 -183.028767 
L 237.398795 -180.810046 
L 235.020263 -178.595576 
L 232.641731 -176.385967 
L 230.263198 -174.181823 
L 227.884666 -171.983735 
L 225.506134 -169.79228 
L 223.127601 -167.608029 
L 220.749069 -165.431539 
L 218.370537 -163.263358 
L 215.992004 -161.104003 
L 213.613472 -158.95399 
L 211.23494 -156.813794 
L 208.856407 -154.683841 
L 206.477875 -152.564527 
L 204.099343 -150.456229 
L 201.720811 -148.359302 
L 199.342278 -146.274069 
L 196.963746 -144.200836 
L 194.585214 -142.139898 
L 192.206681 -140.091503 
L 189.828149 -138.055886 
L 187.449617 -136.033271 
L 185.071084 -134.023871 
L 182.692552 -132.027897 
L 180.31402 -130.045555 
L 177.935487 -128.077066 
L 175.556955 -126.122671 
L 173.178423 -124.18264 
L 170.79989 -122.257304 
L 168.421358 -120.34709 
L 166.042826 -118.452614 
L 163.664294 -116.574829 
L 161.285761 -114.715381 
L 158.907229 -112.877313 
L 156.528697 -111.066643 
L 154.150164 -109.295605 
L 151.771632 -107.58524 
L 149.3931 -105.951635 
L 147.014567 -104.379374 
L 144.636035 -102.837435 
L 142.257503 -101.305213 
L 139.87897 -99.772717 
L 137.500438 -98.235231 
L 135.121906 -96.690395 
L 132.743373 -95.136928 
L 130.364841 -93.574099 
L 127.986309 -92.001448 
L 125.607777 -90.418678 
L 123.229244 -88.825588 
L 120.850712 -87.22203 
L 118.47218 -85.607885 
L 116.093647 -83.983056 
L 113.715115 -82.347479 
L 111.336583 -80.701092 
L 108.95805 -79.04384 
L 106.579518 -77.375669 
L 104.200986 -75.696546 
L 101.822453 -74.006452 
L 99.443921 -72.305402 
L 97.065389 -70.593468 
L 94.686857 -68.870815 
L 92.308324 -67.137701 
L 89.929792 -65.394462 
L 87.55126 -63.641475 
L 85.172727 -61.879091 
z
" style="stroke: #000000; stroke-opacity: 0.1"/>
    </defs>
    <g clip-path="url(#p25295895db)">
     <use xlink:href="#m575d10f407" x="0" y="360" style="fill-opacity: 0.1; stroke: #000000; stroke-opacity: 0.1"/>
    </g>
   </g>
   <g id="FillBetweenPolyCollection_2">
    <defs>
     <path id="mcb99e80262" d="M 85.172727 -61.879091 
L 85.172727 -61.879091 
L 87.55126 -62.711847 
L 89.929792 -63.530174 
L 92.308324 -64.334315 
L 94.686857 -65.124553 
L 97.065389 -65.901189 
L 99.443921 -66.664522 
L 101.822453 -67.414816 
L 104.200986 -68.152292 
L 106.579518 -68.877118 
L 108.95805 -69.589413 
L 111.336583 -70.289268 
L 113.715115 -70.976791 
L 116.093647 -71.6521 
L 118.47218 -72.315334 
L 120.850712 -72.966645 
L 123.229244 -73.606205 
L 125.607777 -74.2342 
L 127.986309 -74.850815 
L 130.364841 -75.456233 
L 132.743373 -76.050632 
L 135.121906 -76.634198 
L 137.500438 -77.207114 
L 139.87897 -77.769577 
L 142.257503 -78.32179 
L 144.636035 -78.863969 
L 147.014567 -79.396343 
L 149.3931 -79.919142 
L 151.771632 -80.43259 
L 154.150164 -80.936905 
L 156.528697 -81.432311 
L 158.907229 -81.919023 
L 161.285761 -82.397259 
L 163.664294 -82.867238 
L 166.042826 -83.329176 
L 168.421358 -83.78329 
L 170.79989 -84.229804 
L 173.178423 -84.668941 
L 175.556955 -85.100916 
L 177.935487 -85.525937 
L 180.31402 -85.944206 
L 182.692552 -86.355917 
L 185.071084 -86.761244 
L 187.449617 -87.160338 
L 189.828149 -87.553324 
L 192.206681 -87.940291 
L 194.585214 -88.321293 
L 196.963746 -88.696361 
L 199.342278 -89.065495 
L 201.720811 -89.428652 
L 204.099343 -89.785763 
L 206.477875 -90.136731 
L 208.856407 -90.481419 
L 211.23494 -90.81967 
L 213.613472 -91.151304 
L 215.992004 -91.476112 
L 218.370537 -91.79385 
L 220.749069 -92.104252 
L 223.127601 -92.407036 
L 225.506134 -92.701919 
L 227.884666 -92.988619 
L 230.263198 -93.266862 
L 232.641731 -93.536382 
L 235.020263 -93.79692 
L 237.398795 -94.048215 
L 239.777327 -94.290011 
L 242.15586 -94.522067 
L 244.534392 -94.744144 
L 246.912924 -94.956016 
L 249.291457 -95.157468 
L 251.669989 -95.348318 
L 254.048521 -95.528417 
L 256.427054 -95.697661 
L 258.805586 -95.855977 
L 261.184118 -96.003338 
L 263.562651 -96.139756 
L 265.941183 -96.265281 
L 268.319715 -96.380011 
L 270.698248 -96.484079 
L 273.07678 -96.577659 
L 275.455312 -96.660959 
L 277.833844 -96.734228 
L 280.212377 -96.79774 
L 282.590909 -96.851795 
L 284.969441 -96.896727 
L 287.347974 -96.932888 
L 289.726506 -96.960656 
L 292.105038 -96.980422 
L 294.483571 -96.992595 
L 296.862103 -96.997594 
L 299.240635 -96.99585 
L 301.619168 -96.987795 
L 303.9977 -96.973861 
L 306.376232 -96.954471 
L 308.754765 -96.930034 
L 311.133297 -96.900948 
L 313.511829 -96.867592 
L 315.890361 -96.830329 
L 318.268894 -96.789496 
L 320.647426 -96.745402 
L 323.025958 -96.698331 
L 325.404491 -96.648533 
L 327.783023 -96.596231 
L 330.161555 -96.54161 
L 332.540088 -96.484827 
L 334.91862 -96.426017 
L 337.297152 -96.365279 
L 339.675685 -96.302681 
L 342.054217 -96.238261 
L 344.432749 -96.17203 
L 346.811281 -96.103968 
L 349.189814 -96.03403 
L 351.568346 -95.96215 
L 353.946878 -95.888234 
L 356.325411 -95.812169 
L 358.703943 -95.733828 
L 361.082475 -95.653073 
L 363.461008 -95.569761 
L 365.83954 -95.483753 
L 368.218072 -95.394913 
L 370.596605 -95.303119 
L 372.975137 -95.208272 
L 375.353669 -95.110305 
L 377.732202 -95.009185 
L 380.110734 -94.904908 
L 382.489266 -94.797518 
L 384.867798 -94.687111 
L 387.246331 -94.573841 
L 389.624863 -94.457913 
L 392.003395 -94.339596 
L 394.381928 -94.219208 
L 396.76046 -94.097126 
L 399.138992 -93.973779 
L 401.517525 -93.849642 
L 403.896057 -93.725242 
L 406.274589 -93.601141 
L 408.653122 -93.477938 
L 411.031654 -93.356268 
L 413.410186 -93.236802 
L 415.788719 -93.120243 
L 418.167251 -93.007327 
L 420.545783 -92.898811 
L 422.924315 -92.79548 
L 425.302848 -92.698148 
L 427.68138 -92.607655 
L 430.059912 -92.52484 
L 432.438445 -92.450535 
L 434.816977 -92.385572 
L 437.195509 -92.33076 
L 439.574042 -92.286881 
L 441.952574 -92.25469 
L 444.331106 -92.234923 
L 446.709639 -92.228306 
L 449.088171 -92.235572 
L 451.466703 -92.257467 
L 453.845235 -92.29475 
L 456.223768 -92.348194 
L 458.6023 -92.418569 
L 460.980832 -92.506613 
L 463.359365 -92.612986 
L 465.737897 -92.738238 
L 468.116429 -92.882765 
L 470.494962 -93.046787 
L 472.873494 -93.230324 
L 475.252026 -93.433209 
L 477.630559 -93.655096 
L 480.009091 -93.895483 
L 482.387623 -94.153752 
L 484.766156 -94.429171 
L 487.144688 -94.720904 
L 489.52322 -95.027991 
L 491.901752 -95.349312 
L 494.280285 -95.683581 
L 496.658817 -96.029324 
L 499.037349 -96.384918 
L 501.415882 -96.748684 
L 503.794414 -97.119021 
L 506.172946 -97.49458 
L 508.551479 -97.874439 
L 510.930011 -98.258251 
L 513.308543 -98.646331 
L 515.687076 -99.039638 
L 518.065608 -99.439702 
L 520.44414 -99.84848 
L 522.822673 -100.26819 
L 525.201205 -100.701158 
L 527.579737 -101.149677 
L 529.958269 -101.615919 
L 532.336802 -102.101876 
L 534.715334 -102.60933 
L 537.093866 -103.139843 
L 539.472399 -103.694767 
L 541.850931 -104.275255 
L 544.229463 -104.882283 
L 546.607996 -105.516679 
L 548.986528 -106.179146 
L 551.36506 -106.870269 
L 553.743593 -107.590541 
L 556.122125 -108.340366 
L 558.500657 -109.120077 
L 560.879189 -109.929949 
L 563.257722 -110.770197 
L 565.636254 -111.640991 
L 568.014786 -112.542451 
L 570.393319 -113.474664 
L 572.771851 -114.437681 
L 575.150383 -115.431513 
L 577.528916 -116.456164 
L 579.907448 -117.511607 
L 582.28598 -118.597773 
L 584.664513 -119.714574 
L 587.043045 -120.861892 
L 589.421577 -122.039585 
L 591.80011 -123.247487 
L 594.178642 -124.485423 
L 596.557174 -125.753222 
L 598.935706 -127.050693 
L 601.314239 -128.377638 
L 603.692771 -129.733859 
L 606.071303 -131.119146 
L 608.449836 -132.533305 
L 610.828368 -133.976147 
L 613.2069 -135.447495 
L 615.585433 -136.947194 
L 617.963965 -138.475095 
L 620.342497 -140.031064 
L 622.72103 -141.614976 
L 625.099562 -143.226712 
L 627.478094 -144.86614 
L 629.856627 -146.533164 
L 632.235159 -148.227678 
L 634.613691 -149.949565 
L 636.992223 -151.698714 
L 639.370756 -153.475013 
L 641.749288 -155.278338 
L 644.12782 -157.108589 
L 646.506353 -158.96564 
L 648.884885 -160.849343 
L 651.263417 -162.759565 
L 653.64195 -164.696178 
L 656.020482 -166.659065 
L 658.399014 -168.648137 
L 660.777547 -170.663322 
L 663.156079 -172.704557 
L 665.534611 -174.771825 
L 667.913143 -176.86517 
L 670.291676 -178.984677 
L 672.670208 -181.130454 
L 675.04874 -183.302649 
L 677.427273 -185.50144 
L 677.427273 -221.459869 
L 677.427273 -221.459869 
L 675.04874 -219.461724 
L 672.670208 -217.4559 
L 670.291676 -215.442665 
L 667.913143 -213.422564 
L 665.534611 -211.396362 
L 663.156079 -209.364992 
L 660.777547 -207.329473 
L 658.399014 -205.290842 
L 656.020482 -203.250099 
L 653.64195 -201.208167 
L 651.263417 -199.165889 
L 648.884885 -197.124039 
L 646.506353 -195.083321 
L 644.12782 -193.044412 
L 641.749288 -191.007937 
L 639.370756 -188.974483 
L 636.992223 -186.944593 
L 634.613691 -184.91876 
L 632.235159 -182.897465 
L 629.856627 -180.88118 
L 627.478094 -178.870395 
L 625.099562 -176.865647 
L 622.72103 -174.867537 
L 620.342497 -172.876736 
L 617.963965 -170.893988 
L 615.585433 -168.920109 
L 613.2069 -166.95596 
L 610.828368 -165.002448 
L 608.449836 -163.060517 
L 606.071303 -161.131117 
L 603.692771 -159.215208 
L 601.314239 -157.313732 
L 598.935706 -155.427606 
L 596.557174 -153.55774 
L 594.178642 -151.705028 
L 591.80011 -149.870338 
L 589.421577 -148.054517 
L 587.043045 -146.258411 
L 584.664513 -144.482849 
L 582.28598 -142.728658 
L 579.907448 -140.996645 
L 577.528916 -139.287644 
L 575.150383 -137.602499 
L 572.771851 -135.942058 
L 570.393319 -134.307229 
L 568.014786 -132.69894 
L 565.636254 -131.118177 
L 563.257722 -129.565992 
L 560.879189 -128.043487 
L 558.500657 -126.551874 
L 556.122125 -125.092442 
L 553.743593 -123.666606 
L 551.36506 -122.275867 
L 548.986528 -120.921784 
L 546.607996 -119.606022 
L 544.229463 -118.330286 
L 541.850931 -117.096358 
L 539.472399 -115.906109 
L 537.093866 -114.761431 
L 534.715334 -113.664312 
L 532.336802 -112.616794 
L 529.958269 -111.62101 
L 527.579737 -110.67917 
L 525.201205 -109.793513 
L 522.822673 -108.966257 
L 520.44414 -108.199573 
L 518.065608 -107.495484 
L 515.687076 -106.855721 
L 513.308543 -106.281595 
L 510.930011 -105.773869 
L 508.551479 -105.332633 
L 506.172946 -104.957237 
L 503.794414 -104.646284 
L 501.415882 -104.397716 
L 499.037349 -104.208951 
L 496.658817 -104.077045 
L 494.280285 -103.998864 
L 491.901752 -103.971216 
L 489.52322 -103.990949 
L 487.144688 -104.055024 
L 484.766156 -104.160522 
L 482.387623 -104.304657 
L 480.009091 -104.484761 
L 477.630559 -104.698268 
L 475.252026 -104.942703 
L 472.873494 -105.21568 
L 470.494962 -105.5149 
L 468.116429 -105.838163 
L 465.737897 -106.183366 
L 463.359365 -106.548519 
L 460.980832 -106.931743 
L 458.6023 -107.331261 
L 456.223768 -107.745387 
L 453.845235 -108.172522 
L 451.466703 -108.611136 
L 449.088171 -109.059735 
L 446.709639 -109.516863 
L 444.331106 -109.981113 
L 441.952574 -110.451098 
L 439.574042 -110.925466 
L 437.195509 -111.402916 
L 434.816977 -111.882216 
L 432.438445 -112.362193 
L 430.059912 -112.841751 
L 427.68138 -113.319876 
L 425.302848 -113.79562 
L 422.924315 -114.268102 
L 420.545783 -114.73653 
L 418.167251 -115.200194 
L 415.788719 -115.658431 
L 413.410186 -116.110637 
L 411.031654 -116.556269 
L 408.653122 -116.994825 
L 406.274589 -117.425842 
L 403.896057 -117.848887 
L 401.517525 -118.263552 
L 399.138992 -118.669482 
L 396.76046 -119.06636 
L 394.381928 -119.453891 
L 392.003395 -119.831819 
L 389.624863 -120.199898 
L 387.246331 -120.557895 
L 384.867798 -120.905592 
L 382.489266 -121.242778 
L 380.110734 -121.569264 
L 377.732202 -121.884889 
L 375.353669 -122.189494 
L 372.975137 -122.482941 
L 370.596605 -122.765145 
L 368.218072 -123.036056 
L 365.83954 -123.295635 
L 363.461008 -123.543852 
L 361.082475 -123.780694 
L 358.703943 -124.006202 
L 356.325411 -124.220443 
L 353.946878 -124.423517 
L 351.568346 -124.615554 
L 349.189814 -124.796674 
L 346.811281 -124.966992 
L 344.432749 -125.126631 
L 342.054217 -125.275714 
L 339.675685 -125.414308 
L 337.297152 -125.542482 
L 334.91862 -125.660285 
L 332.540088 -125.767733 
L 330.161555 -125.864803 
L 327.783023 -125.95146 
L 325.404491 -126.027616 
L 323.025958 -126.093146 
L 320.647426 -126.147934 
L 318.268894 -126.191847 
L 315.890361 -126.224736 
L 313.511829 -126.246447 
L 311.133297 -126.256806 
L 308.754765 -126.255625 
L 306.376232 -126.242716 
L 303.9977 -126.217865 
L 301.619168 -126.180835 
L 299.240635 -126.131426 
L 296.862103 -126.069436 
L 294.483571 -125.994677 
L 292.105038 -125.906968 
L 289.726506 -125.80614 
L 287.347974 -125.692054 
L 284.969441 -125.564552 
L 282.590909 -125.423488 
L 280.212377 -125.268767 
L 277.833844 -125.100291 
L 275.455312 -124.917986 
L 273.07678 -124.721783 
L 270.698248 -124.511587 
L 268.319715 -124.287349 
L 265.941183 -124.049039 
L 263.562651 -123.796629 
L 261.184118 -123.530102 
L 258.805586 -123.249454 
L 256.427054 -122.95468 
L 254.048521 -122.645801 
L 251.669989 -122.322867 
L 249.291457 -121.985937 
L 246.912924 -121.635095 
L 244.534392 -121.270431 
L 242.15586 -120.892036 
L 239.777327 -120.500002 
L 237.398795 -120.094403 
L 235.020263 -119.675297 
L 232.641731 -119.242738 
L 230.263198 -118.796767 
L 227.884666 -118.337413 
L 225.506134 -117.864697 
L 223.127601 -117.378638 
L 220.749069 -116.879246 
L 218.370537 -116.366528 
L 215.992004 -115.840468 
L 213.613472 -115.301048 
L 211.23494 -114.748227 
L 208.856407 -114.181943 
L 206.477875 -113.602112 
L 204.099343 -113.00864 
L 201.720811 -112.401415 
L 199.342278 -111.780308 
L 196.963746 -111.145172 
L 194.585214 -110.495847 
L 192.206681 -109.832149 
L 189.828149 -109.153877 
L 187.449617 -108.460816 
L 185.071084 -107.752739 
L 182.692552 -107.029404 
L 180.31402 -106.290553 
L 177.935487 -105.535918 
L 175.556955 -104.765224 
L 173.178423 -103.978186 
L 170.79989 -103.174517 
L 168.421358 -102.353927 
L 166.042826 -101.516129 
L 163.664294 -100.660842 
L 161.285761 -99.787796 
L 158.907229 -98.896739 
L 156.528697 -97.987434 
L 154.150164 -97.059667 
L 151.771632 -96.113249 
L 149.3931 -95.148017 
L 147.014567 -94.163835 
L 144.636035 -93.160592 
L 142.257503 -92.138205 
L 139.87897 -91.096613 
L 137.500438 -90.035782 
L 135.121906 -88.955697 
L 132.743373 -87.856361 
L 130.364841 -86.737797 
L 127.986309 -85.600035 
L 125.607777 -84.443119 
L 123.229244 -83.267095 
L 120.850712 -82.072013 
L 118.47218 -80.857922 
L 116.093647 -79.624867 
L 113.715115 -78.372896 
L 111.336583 -77.10205 
L 108.95805 -75.812368 
L 106.579518 -74.503887 
L 104.200986 -73.176637 
L 101.822453 -71.830632 
L 99.443921 -70.465862 
L 97.065389 -69.082289 
L 94.686857 -67.679841 
L 92.308324 -66.258418 
L 89.929792 -64.817902 
L 87.55126 -63.358168 
L 85.172727 -61.879091 
z
" style="stroke: #a52a2a; stroke-opacity: 0.1"/>
    </defs>
    <g clip-path="url(#p25295895db)">
     <use xlink:href="#mcb99e80262" x="0" y="360" style="fill: #a52a2a; fill-opacity: 0.1; stroke: #a52a2a; stroke-opacity: 0.1"/>
    </g>
   </g>
   <g id="FillBetweenPolyCollection_3">
    <defs>
     <path id="m96a858a485" d="M 85.172727 -61.879091 
L 85.172727 -61.879091 
L 87.55126 -62.369284 
L 89.929792 -62.834644 
L 92.308324 -63.274287 
L 94.686857 -63.686889 
L 97.065389 -64.070221 
L 99.443921 -64.420678 
L 101.822453 -64.733618 
L 104.200986 -65.005427 
L 106.579518 -65.235523 
L 108.95805 -65.425806 
L 111.336583 -65.579079 
L 113.715115 -65.698279 
L 116.093647 -65.786313 
L 118.47218 -65.846104 
L 120.850712 -65.88064 
L 123.229244 -65.89302 
L 125.607777 -65.886454 
L 127.986309 -65.864268 
L 130.364841 -65.829868 
L 132.743373 -65.786718 
L 135.121906 -65.738287 
L 137.500438 -65.687984 
L 139.87897 -65.63904 
L 142.257503 -65.594379 
L 144.636035 -65.556488 
L 147.014567 -65.527325 
L 149.3931 -65.508182 
L 151.771632 -65.499642 
L 154.150164 -65.501593 
L 156.528697 -65.51332 
L 158.907229 -65.533605 
L 161.285761 -65.560885 
L 163.664294 -65.593408 
L 166.042826 -65.629381 
L 168.421358 -65.66709 
L 170.79989 -65.704974 
L 173.178423 -65.741686 
L 175.556955 -65.776141 
L 177.935487 -65.80754 
L 180.31402 -65.835357 
L 182.692552 -65.859346 
L 185.071084 -65.879521 
L 187.449617 -65.896128 
L 189.828149 -65.909637 
L 192.206681 -65.920735 
L 194.585214 -65.930311 
L 196.963746 -65.939441 
L 199.342278 -65.949392 
L 201.720811 -65.961606 
L 204.099343 -65.977662 
L 206.477875 -65.999221 
L 208.856407 -66.027969 
L 211.23494 -66.065508 
L 213.613472 -66.113255 
L 215.992004 -66.172342 
L 218.370537 -66.243516 
L 220.749069 -66.327076 
L 223.127601 -66.422833 
L 225.506134 -66.530108 
L 227.884666 -66.647753 
L 230.263198 -66.774211 
L 232.641731 -66.907609 
L 235.020263 -67.045859 
L 237.398795 -67.186755 
L 239.777327 -67.328087 
L 242.15586 -67.467729 
L 244.534392 -67.603704 
L 246.912924 -67.734224 
L 249.291457 -67.857693 
L 251.669989 -67.972696 
L 254.048521 -68.077968 
L 256.427054 -68.17238 
L 258.805586 -68.25492 
L 261.184118 -68.324689 
L 263.562651 -68.380902 
L 265.941183 -68.422887 
L 268.319715 -68.450093 
L 270.698248 -68.462097 
L 273.07678 -68.458609 
L 275.455312 -68.439472 
L 277.833844 -68.404679 
L 280.212377 -68.354351 
L 282.590909 -68.288752 
L 284.969441 -68.208288 
L 287.347974 -68.113506 
L 289.726506 -68.0051 
L 292.105038 -67.883908 
L 294.483571 -67.750904 
L 296.862103 -67.607199 
L 299.240635 -67.45404 
L 301.619168 -67.292819 
L 303.9977 -67.125063 
L 306.376232 -66.952452 
L 308.754765 -66.776824 
L 311.133297 -66.60017 
L 313.511829 -66.424637 
L 315.890361 -66.252519 
L 318.268894 -66.086243 
L 320.647426 -65.928334 
L 323.025958 -65.781376 
L 325.404491 -65.64793 
L 327.783023 -65.530429 
L 330.161555 -65.431073 
L 332.540088 -65.351678 
L 334.91862 -65.293542 
L 337.297152 -65.257356 
L 339.675685 -65.243137 
L 342.054217 -65.250241 
L 344.432749 -65.277417 
L 346.811281 -65.322923 
L 349.189814 -65.384642 
L 351.568346 -65.46022 
L 353.946878 -65.547191 
L 356.325411 -65.643068 
L 358.703943 -65.745421 
L 361.082475 -65.851943 
L 363.461008 -65.960481 
L 365.83954 -66.069061 
L 368.218072 -66.175903 
L 370.596605 -66.279422 
L 372.975137 -66.378228 
L 375.353669 -66.47112 
L 377.732202 -66.557085 
L 380.110734 -66.635286 
L 382.489266 -66.705056 
L 384.867798 -66.765892 
L 387.246331 -66.817441 
L 389.624863 -66.859483 
L 392.003395 -66.891908 
L 394.381928 -66.914678 
L 396.76046 -66.927773 
L 399.138992 -66.931111 
L 401.517525 -66.924449 
L 403.896057 -66.907247 
L 406.274589 -66.878517 
L 408.653122 -66.836739 
L 411.031654 -66.77994 
L 413.410186 -66.706123 
L 415.788719 -66.614094 
L 418.167251 -66.504426 
L 420.545783 -66.379965 
L 422.924315 -66.245497 
L 425.302848 -66.106812 
L 427.68138 -65.969725 
L 430.059912 -65.839419 
L 432.438445 -65.720095 
L 434.816977 -65.614858 
L 437.195509 -65.525713 
L 439.574042 -65.453642 
L 441.952574 -65.398705 
L 444.331106 -65.360187 
L 446.709639 -65.336745 
L 449.088171 -65.326563 
L 451.466703 -65.32752 
L 453.845235 -65.337347 
L 456.223768 -65.353774 
L 458.6023 -65.374647 
L 460.980832 -65.398029 
L 463.359365 -65.42228 
L 465.737897 -65.446088 
L 468.116429 -65.468497 
L 470.494962 -65.488915 
L 472.873494 -65.507113 
L 475.252026 -65.523207 
L 477.630559 -65.537639 
L 480.009091 -65.55115 
L 482.387623 -65.56474 
L 484.766156 -65.57965 
L 487.144688 -65.597318 
L 489.52322 -65.619348 
L 491.901752 -65.64745 
L 494.280285 -65.68338 
L 496.658817 -65.728872 
L 499.037349 -65.785569 
L 501.415882 -65.854968 
L 503.794414 -65.938382 
L 506.172946 -66.03692 
L 508.551479 -66.151488 
L 510.930011 -66.282762 
L 513.308543 -66.431154 
L 515.687076 -66.596716 
L 518.065608 -66.77895 
L 520.44414 -66.976437 
L 522.822673 -67.186115 
L 525.201205 -67.401897 
L 527.579737 -67.612303 
L 529.958269 -67.798557 
L 532.336802 -67.941109 
L 534.715334 -68.037559 
L 537.093866 -68.104219 
L 539.472399 -68.15859 
L 541.850931 -68.211551 
L 544.229463 -68.26877 
L 546.607996 -68.333041 
L 548.986528 -68.40565 
L 551.36506 -68.487094 
L 553.743593 -68.577467 
L 556.122125 -68.676643 
L 558.500657 -68.784417 
L 560.879189 -68.900562 
L 563.257722 -69.02489 
L 565.636254 -69.157288 
L 568.014786 -69.297744 
L 570.393319 -69.44637 
L 572.771851 -69.603408 
L 575.150383 -69.769242 
L 577.528916 -69.944381 
L 579.907448 -70.129422 
L 582.28598 -70.325049 
L 584.664513 -70.53199 
L 587.043045 -70.750996 
L 589.421577 -70.982807 
L 591.80011 -71.228099 
L 594.178642 -71.48747 
L 596.557174 -71.761412 
L 598.935706 -72.050292 
L 601.314239 -72.354343 
L 603.692771 -72.673656 
L 606.071303 -73.008167 
L 608.449836 -73.357695 
L 610.828368 -73.721917 
L 613.2069 -74.100395 
L 615.585433 -74.492602 
L 617.963965 -74.897939 
L 620.342497 -75.31575 
L 622.72103 -75.74533 
L 625.099562 -76.185942 
L 627.478094 -76.636832 
L 629.856627 -77.097227 
L 632.235159 -77.566336 
L 634.613691 -78.043339 
L 636.992223 -78.527399 
L 639.370756 -79.017681 
L 641.749288 -79.51334 
L 644.12782 -80.013546 
L 646.506353 -80.517479 
L 648.884885 -81.024352 
L 651.263417 -81.533401 
L 653.64195 -82.043888 
L 656.020482 -82.555073 
L 658.399014 -83.06621 
L 660.777547 -83.576567 
L 663.156079 -84.085443 
L 665.534611 -84.592202 
L 667.913143 -85.096335 
L 670.291676 -85.597541 
L 672.670208 -86.095808 
L 675.04874 -86.591465 
L 677.427273 -87.085225 
L 677.427273 -105.638055 
L 677.427273 -105.638055 
L 675.04874 -104.779712 
L 672.670208 -103.933685 
L 670.291676 -103.099289 
L 667.913143 -102.275674 
L 665.534611 -101.461916 
L 663.156079 -100.657145 
L 660.777547 -99.860605 
L 658.399014 -99.071702 
L 656.020482 -98.290021 
L 653.64195 -97.51528 
L 651.263417 -96.747269 
L 648.884885 -95.985793 
L 646.506353 -95.230646 
L 644.12782 -94.481601 
L 641.749288 -93.738397 
L 639.370756 -93.000775 
L 636.992223 -92.268561 
L 634.613691 -91.54171 
L 632.235159 -90.820358 
L 629.856627 -90.104819 
L 627.478094 -89.395593 
L 625.099562 -88.693328 
L 622.72103 -87.998736 
L 620.342497 -87.31254 
L 617.963965 -86.635396 
L 615.585433 -85.967839 
L 613.2069 -85.310274 
L 610.828368 -84.662966 
L 608.449836 -84.02605 
L 606.071303 -83.399535 
L 603.692771 -82.783335 
L 601.314239 -82.177339 
L 598.935706 -81.581357 
L 596.557174 -80.995195 
L 594.178642 -80.418698 
L 591.80011 -79.851741 
L 589.421577 -79.294252 
L 587.043045 -78.746172 
L 584.664513 -78.207489 
L 582.28598 -77.67823 
L 579.907448 -77.158382 
L 577.528916 -76.647908 
L 575.150383 -76.146737 
L 572.771851 -75.654733 
L 570.393319 -75.171728 
L 568.014786 -74.69748 
L 565.636254 -74.231692 
L 563.257722 -73.774076 
L 560.879189 -73.324356 
L 558.500657 -72.882376 
L 556.122125 -72.44813 
L 553.743593 -72.021861 
L 551.36506 -71.604118 
L 548.986528 -71.195801 
L 546.607996 -70.798299 
L 544.229463 -70.413611 
L 541.850931 -70.044718 
L 539.472399 -69.696236 
L 537.093866 -69.375691 
L 534.715334 -69.095813 
L 532.336802 -68.875835 
L 529.958269 -68.733615 
L 527.579737 -68.667994 
L 525.201205 -68.660251 
L 522.822673 -68.69193 
L 520.44414 -68.75129 
L 518.065608 -68.831364 
L 515.687076 -68.927601 
L 513.308543 -69.036531 
L 510.930011 -69.155118 
L 508.551479 -69.280488 
L 506.172946 -69.409801 
L 503.794414 -69.540236 
L 501.415882 -69.668999 
L 499.037349 -69.793373 
L 496.658817 -69.910742 
L 494.280285 -70.018637 
L 491.901752 -70.114777 
L 489.52322 -70.19715 
L 487.144688 -70.264117 
L 484.766156 -70.31446 
L 482.387623 -70.347416 
L 480.009091 -70.36264 
L 477.630559 -70.360121 
L 475.252026 -70.340082 
L 472.873494 -70.30288 
L 470.494962 -70.24899 
L 468.116429 -70.179011 
L 465.737897 -70.093726 
L 463.359365 -69.994152 
L 460.980832 -69.88156 
L 458.6023 -69.757483 
L 456.223768 -69.623686 
L 453.845235 -69.482146 
L 451.466703 -69.335025 
L 449.088171 -69.184648 
L 446.709639 -69.033509 
L 444.331106 -68.884244 
L 441.952574 -68.739571 
L 439.574042 -68.602226 
L 437.195509 -68.474896 
L 434.816977 -68.360161 
L 432.438445 -68.260463 
L 430.059912 -68.178118 
L 427.68138 -68.115376 
L 425.302848 -68.074478 
L 422.924315 -68.057672 
L 420.545783 -68.067056 
L 418.167251 -68.104133 
L 415.788719 -68.169041 
L 413.410186 -68.259808 
L 411.031654 -68.372182 
L 408.653122 -68.500284 
L 406.274589 -68.637671 
L 403.896057 -68.778258 
L 401.517525 -68.916808 
L 399.138992 -69.04904 
L 396.76046 -69.171574 
L 394.381928 -69.281808 
L 392.003395 -69.377774 
L 389.624863 -69.458057 
L 387.246331 -69.521714 
L 384.867798 -69.568211 
L 382.489266 -69.597389 
L 380.110734 -69.60942 
L 377.732202 -69.604771 
L 375.353669 -69.584176 
L 372.975137 -69.548603 
L 370.596605 -69.499229 
L 368.218072 -69.43742 
L 365.83954 -69.364711 
L 363.461008 -69.282785 
L 361.082475 -69.193449 
L 358.703943 -69.098622 
L 356.325411 -69.000317 
L 353.946878 -68.900639 
L 351.568346 -68.801752 
L 349.189814 -68.705892 
L 346.811281 -68.615344 
L 344.432749 -68.532367 
L 342.054217 -68.459146 
L 339.675685 -68.397745 
L 337.297152 -68.349988 
L 334.91862 -68.317386 
L 332.540088 -68.301076 
L 330.161555 -68.301752 
L 327.783023 -68.319606 
L 325.404491 -68.354357 
L 323.025958 -68.405262 
L 320.647426 -68.471134 
L 318.268894 -68.55043 
L 315.890361 -68.641347 
L 313.511829 -68.741887 
L 311.133297 -68.849943 
L 308.754765 -68.963368 
L 306.376232 -69.079999 
L 303.9977 -69.197705 
L 301.619168 -69.31441 
L 299.240635 -69.428083 
L 296.862103 -69.53678 
L 294.483571 -69.638659 
L 292.105038 -69.731997 
L 289.726506 -69.815214 
L 287.347974 -69.886885 
L 284.969441 -69.94578 
L 282.590909 -69.990855 
L 280.212377 -70.021252 
L 277.833844 -70.036341 
L 275.455312 -70.03572 
L 273.07678 -70.019235 
L 270.698248 -69.987027 
L 268.319715 -69.939497 
L 265.941183 -69.877349 
L 263.562651 -69.801618 
L 261.184118 -69.713674 
L 258.805586 -69.615225 
L 256.427054 -69.508334 
L 254.048521 -69.395384 
L 251.669989 -69.279054 
L 249.291457 -69.162276 
L 246.912924 -69.048151 
L 244.534392 -68.939844 
L 242.15586 -68.840455 
L 239.777327 -68.75287 
L 237.398795 -68.679632 
L 235.020263 -68.622825 
L 232.641731 -68.583973 
L 230.263198 -68.563986 
L 227.884666 -68.563118 
L 225.506134 -68.580959 
L 223.127601 -68.616465 
L 220.749069 -68.668024 
L 218.370537 -68.733551 
L 215.992004 -68.810615 
L 213.613472 -68.896557 
L 211.23494 -68.98862 
L 208.856407 -69.084051 
L 206.477875 -69.18019 
L 204.099343 -69.274542 
L 201.720811 -69.364829 
L 199.342278 -69.449013 
L 196.963746 -69.525329 
L 194.585214 -69.592293 
L 192.206681 -69.648698 
L 189.828149 -69.693618 
L 187.449617 -69.726403 
L 185.071084 -69.746661 
L 182.692552 -69.754246 
L 180.31402 -69.749231 
L 177.935487 -69.731892 
L 175.556955 -69.702666 
L 173.178423 -69.662131 
L 170.79989 -69.610967 
L 168.421358 -69.549919 
L 166.042826 -69.479772 
L 163.664294 -69.401309 
L 161.285761 -69.315288 
L 158.907229 -69.222417 
L 156.528697 -69.123329 
L 154.150164 -69.018574 
L 151.771632 -68.908612 
L 149.3931 -68.79382 
L 147.014567 -68.674476 
L 144.636035 -68.550763 
L 142.257503 -68.422754 
L 139.87897 -68.290389 
L 137.500438 -68.153445 
L 135.121906 -68.011517 
L 132.743373 -67.86401 
L 130.364841 -67.71013 
L 127.986309 -67.548898 
L 125.607777 -67.379176 
L 123.229244 -67.199703 
L 120.850712 -67.009144 
L 118.47218 -66.806144 
L 116.093647 -66.589396 
L 113.715115 -66.357696 
L 111.336583 -66.110032 
L 108.95805 -65.845666 
L 106.579518 -65.56422 
L 104.200986 -65.265534 
L 101.822453 -64.94889 
L 99.443921 -64.611458 
L 97.065389 -64.247784 
L 94.686857 -63.85184 
L 92.308324 -63.419104 
L 89.929792 -62.946883 
L 87.55126 -62.43377 
L 85.172727 -61.879091 
z
" style="stroke: #000080; stroke-opacity: 0.1"/>
    </defs>
    <g clip-path="url(#p25295895db)">
     <use xlink:href="#m96a858a485" x="0" y="360" style="fill: #000080; fill-opacity: 0.1; stroke: #000080; stroke-opacity: 0.1"/>
    </g>
   </g>
   <g id="FillBetweenPolyCollection_4">
    <defs>
     <path id="mf487660eb3" d="M 85.172727 -61.879091 
L 85.172727 -61.879091 
L 87.55126 -62.477598 
L 89.929792 -63.05522 
L 92.308324 -63.611977 
L 94.686857 -64.148065 
L 97.065389 -64.663876 
L 99.443921 -65.160009 
L 101.822453 -65.637257 
L 104.200986 -66.096583 
L 106.579518 -66.539063 
L 108.95805 -66.965851 
L 111.336583 -67.378127 
L 113.715115 -67.777077 
L 116.093647 -68.163844 
L 118.47218 -68.539504 
L 120.850712 -68.905021 
L 123.229244 -69.261222 
L 125.607777 -69.608764 
L 127.986309 -69.94812 
L 130.364841 -70.27956 
L 132.743373 -70.603151 
L 135.121906 -70.918757 
L 137.500438 -71.22605 
L 139.87897 -71.524508 
L 142.257503 -71.813442 
L 144.636035 -72.092006 
L 147.014567 -72.359224 
L 149.3931 -72.614008 
L 151.771632 -72.855185 
L 154.150164 -73.08153 
L 156.528697 -73.291797 
L 158.907229 -73.484751 
L 161.285761 -73.659192 
L 163.664294 -73.814005 
L 166.042826 -73.948184 
L 168.421358 -74.060861 
L 170.79989 -74.151332 
L 173.178423 -74.219083 
L 175.556955 -74.263816 
L 177.935487 -74.285473 
L 180.31402 -74.284255 
L 182.692552 -74.260641 
L 185.071084 -74.215409 
L 187.449617 -74.149633 
L 189.828149 -74.064705 
L 192.206681 -73.962336 
L 194.585214 -73.844549 
L 196.963746 -73.713667 
L 199.342278 -73.5723 
L 201.720811 -73.423323 
L 204.099343 -73.26981 
L 206.477875 -73.114977 
L 208.856407 -72.962103 
L 211.23494 -72.814408 
L 213.613472 -72.674929 
L 215.992004 -72.546378 
L 218.370537 -72.430999 
L 220.749069 -72.33044 
L 223.127601 -72.24566 
L 225.506134 -72.176904 
L 227.884666 -72.123754 
L 230.263198 -72.085263 
L 232.641731 -72.060165 
L 235.020263 -72.047107 
L 237.398795 -72.04485 
L 239.777327 -72.052402 
L 242.15586 -72.069028 
L 244.534392 -72.094173 
L 246.912924 -72.127323 
L 249.291457 -72.167861 
L 251.669989 -72.214965 
L 254.048521 -72.267564 
L 256.427054 -72.324358 
L 258.805586 -72.383885 
L 261.184118 -72.444615 
L 263.562651 -72.505045 
L 265.941183 -72.5638 
L 268.319715 -72.619713 
L 270.698248 -72.671891 
L 273.07678 -72.719769 
L 275.455312 -72.763134 
L 277.833844 -72.802147 
L 280.212377 -72.837345 
L 282.590909 -72.869628 
L 284.969441 -72.900246 
L 287.347974 -72.930758 
L 289.726506 -72.962995 
L 292.105038 -72.999008 
L 294.483571 -73.040994 
L 296.862103 -73.091224 
L 299.240635 -73.151955 
L 301.619168 -73.225338 
L 303.9977 -73.313316 
L 306.376232 -73.417531 
L 308.754765 -73.539238 
L 311.133297 -73.679224 
L 313.511829 -73.837765 
L 315.890361 -74.014583 
L 318.268894 -74.208854 
L 320.647426 -74.419228 
L 323.025958 -74.643888 
L 325.404491 -74.880627 
L 327.783023 -75.12694 
L 330.161555 -75.380137 
L 332.540088 -75.637437 
L 334.91862 -75.896072 
L 337.297152 -76.153364 
L 339.675685 -76.406792 
L 342.054217 -76.654032 
L 344.432749 -76.89298 
L 346.811281 -77.121752 
L 349.189814 -77.338685 
L 351.568346 -77.542318 
L 353.946878 -77.731377 
L 356.325411 -77.904764 
L 358.703943 -78.061536 
L 361.082475 -78.200891 
L 363.461008 -78.322168 
L 365.83954 -78.424836 
L 368.218072 -78.508501 
L 370.596605 -78.572899 
L 372.975137 -78.617904 
L 375.353669 -78.643527 
L 377.732202 -78.649927 
L 380.110734 -78.637405 
L 382.489266 -78.606412 
L 384.867798 -78.557544 
L 387.246331 -78.491546 
L 389.624863 -78.409302 
L 392.003395 -78.311835 
L 394.381928 -78.200297 
L 396.76046 -78.07595 
L 399.138992 -77.940161 
L 401.517525 -77.794368 
L 403.896057 -77.640066 
L 406.274589 -77.47877 
L 408.653122 -77.311972 
L 411.031654 -77.141124 
L 413.410186 -76.967596 
L 415.788719 -76.792653 
L 418.167251 -76.617407 
L 420.545783 -76.442798 
L 422.924315 -76.269588 
L 425.302848 -76.098338 
L 427.68138 -75.929403 
L 430.059912 -75.762925 
L 432.438445 -75.598862 
L 434.816977 -75.437005 
L 437.195509 -75.277002 
L 439.574042 -75.118387 
L 441.952574 -74.960613 
L 444.331106 -74.803084 
L 446.709639 -74.645185 
L 449.088171 -74.48632 
L 451.466703 -74.325941 
L 453.845235 -74.163564 
L 456.223768 -73.998784 
L 458.6023 -73.831292 
L 460.980832 -73.660894 
L 463.359365 -73.487517 
L 465.737897 -73.311228 
L 468.116429 -73.132256 
L 470.494962 -72.951009 
L 472.873494 -72.768092 
L 475.252026 -72.584321 
L 477.630559 -72.400752 
L 480.009091 -72.218694 
L 482.387623 -72.039719 
L 484.766156 -71.865667 
L 487.144688 -71.698639 
L 489.52322 -71.540976 
L 491.901752 -71.395214 
L 494.280285 -71.264029 
L 496.658817 -71.150138 
L 499.037349 -71.056199 
L 501.415882 -70.984693 
L 503.794414 -70.937788 
L 506.172946 -70.917219 
L 508.551479 -70.92417 
L 510.930011 -70.959188 
L 513.308543 -71.022128 
L 515.687076 -71.112133 
L 518.065608 -71.227651 
L 520.44414 -71.366482 
L 522.822673 -71.525861 
L 525.201205 -71.702561 
L 527.579737 -71.893029 
L 529.958269 -72.093557 
L 532.336802 -72.300486 
L 534.715334 -72.510438 
L 537.093866 -72.720557 
L 539.472399 -72.928712 
L 541.850931 -73.133629 
L 544.229463 -73.334911 
L 546.607996 -73.532933 
L 548.986528 -73.728636 
L 551.36506 -73.923265 
L 553.743593 -74.11812 
L 556.122125 -74.31435 
L 558.500657 -74.512824 
L 560.879189 -74.714078 
L 563.257722 -74.918316 
L 565.636254 -75.125473 
L 568.014786 -75.335284 
L 570.393319 -75.547383 
L 572.771851 -75.761377 
L 575.150383 -75.976922 
L 577.528916 -76.193772 
L 579.907448 -76.411804 
L 582.28598 -76.631053 
L 584.664513 -76.851721 
L 587.043045 -77.074181 
L 589.421577 -77.298969 
L 591.80011 -77.526771 
L 594.178642 -77.758416 
L 596.557174 -77.994877 
L 598.935706 -78.237243 
L 601.314239 -78.486701 
L 603.692771 -78.744502 
L 606.071303 -79.011939 
L 608.449836 -79.290348 
L 610.828368 -79.581045 
L 613.2069 -79.885318 
L 615.585433 -80.204402 
L 617.963965 -80.539448 
L 620.342497 -80.891504 
L 622.72103 -81.261482 
L 625.099562 -81.650169 
L 627.478094 -82.058222 
L 629.856627 -82.486182 
L 632.235159 -82.934452 
L 634.613691 -83.403297 
L 636.992223 -83.892867 
L 639.370756 -84.403206 
L 641.749288 -84.93425 
L 644.12782 -85.485845 
L 646.506353 -86.05773 
L 648.884885 -86.649535 
L 651.263417 -87.260807 
L 653.64195 -87.891014 
L 656.020482 -88.53954 
L 658.399014 -89.205713 
L 660.777547 -89.888811 
L 663.156079 -90.588086 
L 665.534611 -91.302824 
L 667.913143 -92.032401 
L 670.291676 -92.776312 
L 672.670208 -93.534217 
L 675.04874 -94.30599 
L 677.427273 -95.091729 
L 677.427273 -139.457444 
L 677.427273 -139.457444 
L 675.04874 -138.24453 
L 672.670208 -137.016281 
L 670.291676 -135.772487 
L 667.913143 -134.513227 
L 665.534611 -133.238869 
L 663.156079 -131.9501 
L 660.777547 -130.647894 
L 658.399014 -129.333424 
L 656.020482 -128.008037 
L 653.64195 -126.67322 
L 651.263417 -125.330557 
L 648.884885 -123.981668 
L 646.506353 -122.628228 
L 644.12782 -121.271976 
L 641.749288 -119.914702 
L 639.370756 -118.558251 
L 636.992223 -117.204561 
L 634.613691 -115.855649 
L 632.235159 -114.513629 
L 629.856627 -113.180681 
L 627.478094 -111.859063 
L 625.099562 -110.551075 
L 622.72103 -109.259024 
L 620.342497 -107.985194 
L 617.963965 -106.731787 
L 615.585433 -105.500896 
L 613.2069 -104.294483 
L 610.828368 -103.114343 
L 608.449836 -101.962075 
L 606.071303 -100.839035 
L 603.692771 -99.746325 
L 601.314239 -98.684791 
L 598.935706 -97.654988 
L 596.557174 -96.657201 
L 594.178642 -95.691477 
L 591.80011 -94.757637 
L 589.421577 -93.855304 
L 587.043045 -92.983933 
L 584.664513 -92.142888 
L 582.28598 -91.331504 
L 579.907448 -90.549111 
L 577.528916 -89.795126 
L 575.150383 -89.069119 
L 572.771851 -88.370866 
L 570.393319 -87.700431 
L 568.014786 -87.058211 
L 565.636254 -86.44501 
L 563.257722 -85.862118 
L 560.879189 -85.311359 
L 558.500657 -84.795162 
L 556.122125 -84.316571 
L 553.743593 -83.879241 
L 551.36506 -83.487335 
L 548.986528 -83.145356 
L 546.607996 -82.857913 
L 544.229463 -82.629375 
L 541.850931 -82.463518 
L 539.472399 -82.363145 
L 537.093866 -82.329771 
L 534.715334 -82.363437 
L 532.336802 -82.462667 
L 529.958269 -82.624561 
L 527.579737 -82.844992 
L 525.201205 -83.118856 
L 522.822673 -83.44035 
L 520.44414 -83.803208 
L 518.065608 -84.200936 
L 515.687076 -84.627029 
L 513.308543 -85.075123 
L 510.930011 -85.539115 
L 508.551479 -86.01329 
L 506.172946 -86.492374 
L 503.794414 -86.971586 
L 501.415882 -87.44666 
L 499.037349 -87.913858 
L 496.658817 -88.369965 
L 494.280285 -88.812262 
L 491.901752 -89.238496 
L 489.52322 -89.646883 
L 487.144688 -90.036129 
L 484.766156 -90.405393 
L 482.387623 -90.754279 
L 480.009091 -91.082803 
L 477.630559 -91.391341 
L 475.252026 -91.680569 
L 472.873494 -91.951389 
L 470.494962 -92.204911 
L 468.116429 -92.442413 
L 465.737897 -92.665337 
L 463.359365 -92.875285 
L 460.980832 -93.073974 
L 458.6023 -93.2632 
L 456.223768 -93.444791 
L 453.845235 -93.62056 
L 451.466703 -93.792237 
L 449.088171 -93.96138 
L 446.709639 -94.129353 
L 444.331106 -94.297269 
L 441.952574 -94.46592 
L 439.574042 -94.635737 
L 437.195509 -94.806789 
L 434.816977 -94.978765 
L 432.438445 -95.150969 
L 430.059912 -95.322346 
L 427.68138 -95.491506 
L 425.302848 -95.656747 
L 422.924315 -95.816097 
L 420.545783 -95.967386 
L 418.167251 -96.1083 
L 415.788719 -96.236426 
L 413.410186 -96.349309 
L 411.031654 -96.444522 
L 408.653122 -96.519702 
L 406.274589 -96.572604 
L 403.896057 -96.601142 
L 401.517525 -96.603408 
L 399.138992 -96.577731 
L 396.76046 -96.522682 
L 394.381928 -96.437095 
L 392.003395 -96.320096 
L 389.624863 -96.171091 
L 387.246331 -95.989788 
L 384.867798 -95.776203 
L 382.489266 -95.53065 
L 380.110734 -95.253778 
L 377.732202 -94.94656 
L 375.353669 -94.610288 
L 372.975137 -94.246563 
L 370.596605 -93.857316 
L 368.218072 -93.444781 
L 365.83954 -93.011484 
L 363.461008 -92.560222 
L 361.082475 -92.094055 
L 358.703943 -91.616288 
L 356.325411 -91.130439 
L 353.946878 -90.640187 
L 351.568346 -90.149339 
L 349.189814 -89.661776 
L 346.811281 -89.181366 
L 344.432749 -88.71189 
L 342.054217 -88.256949 
L 339.675685 -87.819887 
L 337.297152 -87.403686 
L 334.91862 -87.010872 
L 332.540088 -86.643434 
L 330.161555 -86.302758 
L 327.783023 -85.989592 
L 325.404491 -85.70403 
L 323.025958 -85.445528 
L 320.647426 -85.212939 
L 318.268894 -85.004562 
L 315.890361 -84.818233 
L 313.511829 -84.651395 
L 311.133297 -84.501175 
L 308.754765 -84.364479 
L 306.376232 -84.238065 
L 303.9977 -84.118623 
L 301.619168 -84.002847 
L 299.240635 -83.887487 
L 296.862103 -83.769424 
L 294.483571 -83.645725 
L 292.105038 -83.513697 
L 289.726506 -83.370923 
L 287.347974 -83.215322 
L 284.969441 -83.045192 
L 282.590909 -82.859246 
L 280.212377 -82.656645 
L 277.833844 -82.43703 
L 275.455312 -82.200548 
L 273.07678 -81.947878 
L 270.698248 -81.680246 
L 268.319715 -81.399452 
L 265.941183 -81.10788 
L 263.562651 -80.808516 
L 261.184118 -80.504939 
L 258.805586 -80.201311 
L 256.427054 -79.902341 
L 254.048521 -79.613241 
L 251.669989 -79.339637 
L 249.291457 -79.08745 
L 246.912924 -78.862705 
L 244.534392 -78.671287 
L 242.15586 -78.51862 
L 239.777327 -78.409301 
L 237.398795 -78.346714 
L 235.020263 -78.332706 
L 232.641731 -78.367378 
L 230.263198 -78.449027 
L 227.884666 -78.574274 
L 225.506134 -78.738334 
L 223.127601 -78.93539 
L 220.749069 -79.158973 
L 218.370537 -79.402332 
L 215.992004 -79.658723 
L 213.613472 -79.921652 
L 211.23494 -80.185014 
L 208.856407 -80.443187 
L 206.477875 -80.691089 
L 204.099343 -80.924203 
L 201.720811 -81.138576 
L 199.342278 -81.330801 
L 196.963746 -81.497999 
L 194.585214 -81.637793 
L 192.206681 -81.748257 
L 189.828149 -81.827897 
L 187.449617 -81.875619 
L 185.071084 -81.890693 
L 182.692552 -81.87272 
L 180.31402 -81.821599 
L 177.935487 -81.737494 
L 175.556955 -81.62081 
L 173.178423 -81.472151 
L 170.79989 -81.292298 
L 168.421358 -81.082174 
L 166.042826 -80.842824 
L 163.664294 -80.575384 
L 161.285761 -80.281068 
L 158.907229 -79.961143 
L 156.528697 -79.616906 
L 154.150164 -79.24966 
L 151.771632 -78.860695 
L 149.3931 -78.45127 
L 147.014567 -78.022602 
L 144.636035 -77.575842 
L 142.257503 -77.112062 
L 139.87897 -76.632246 
L 137.500438 -76.137282 
L 135.121906 -75.627951 
L 132.743373 -75.104923 
L 130.364841 -74.568759 
L 127.986309 -74.019906 
L 125.607777 -73.458704 
L 123.229244 -72.885376 
L 120.850712 -72.300036 
L 118.47218 -71.702694 
L 116.093647 -71.093271 
L 113.715115 -70.471586 
L 111.336583 -69.837371 
L 108.95805 -69.190268 
L 106.579518 -68.529839 
L 104.200986 -67.855569 
L 101.822453 -67.166854 
L 99.443921 -66.463004 
L 97.065389 -65.743259 
L 94.686857 -65.00683 
L 92.308324 -64.252926 
L 89.929792 -63.480794 
L 87.55126 -62.689735 
L 85.172727 -61.879091 
z
" style="stroke: #000080; stroke-opacity: 0.1"/>
    </defs>
    <g clip-path="url(#p25295895db)">
     <use xlink:href="#mf487660eb3" x="0" y="360" style="fill: #000080; fill-opacity: 0.1; stroke: #000080; stroke-opacity: 0.1"/>
    </g>
   </g>
   <g id="line2d_1">
    <path d="M 85.172727 298.120909 
L 118.47218 275.585103 
L 151.771632 252.797119 
L 196.963746 221.552778 
L 230.263198 198.626801 
L 251.669989 184.145526 
L 268.319715 173.136658 
L 284.969441 162.416245 
L 299.240635 153.493119 
L 313.511829 144.839903 
L 327.783023 136.472242 
L 342.054217 128.399007 
L 353.946878 121.904588 
L 365.83954 115.632091 
L 377.732202 109.588111 
L 389.624863 103.779859 
L 401.517525 98.222341 
L 413.410186 92.939236 
L 422.924315 88.926833 
L 432.438445 85.114922 
L 441.952574 81.507934 
L 451.466703 78.106597 
L 460.980832 74.907245 
L 472.873494 71.172491 
L 484.766156 67.704262 
L 494.280285 65.127271 
L 503.794414 62.750158 
L 513.308543 60.583231 
L 525.201205 58.136952 
L 539.472399 55.479896 
L 556.122125 52.619762 
L 575.150383 49.574137 
L 589.421577 47.484394 
L 601.314239 45.929234 
L 613.2069 44.578134 
L 625.099562 43.450235 
L 636.992223 42.554274 
L 648.884885 41.877432 
L 663.156079 41.308797 
L 677.427273 40.939091 
L 677.427273 40.939091 
" clip-path="url(#p25295895db)" style="fill: none; stroke: #000000; stroke-width: 1.5; stroke-linecap: round"/>
   </g>
   <g id="line2d_2">
    <path d="M 85.172727 298.120909 
L 94.686857 293.597803 
L 104.200986 289.335535 
L 113.715115 285.325157 
L 123.229244 281.56335 
L 132.743373 278.046503 
L 142.257503 274.770003 
L 151.771632 271.72708 
L 161.285761 268.907472 
L 170.79989 266.297839 
L 180.31402 263.882621 
L 192.206681 261.11378 
L 204.099343 258.602799 
L 215.992004 256.34171 
L 227.884666 254.336984 
L 239.777327 252.604993 
L 249.291457 251.428298 
L 258.805586 250.447284 
L 268.319715 249.66632 
L 277.833844 249.08274 
L 287.347974 248.687529 
L 299.240635 248.436362 
L 311.133297 248.421123 
L 325.404491 248.661926 
L 339.675685 249.141505 
L 353.946878 249.844124 
L 368.218072 250.784516 
L 382.489266 251.979852 
L 396.76046 253.418257 
L 415.788719 255.610663 
L 441.952574 258.647106 
L 453.845235 259.766364 
L 463.359365 260.419248 
L 470.494962 260.719157 
L 477.630559 260.823318 
L 484.766156 260.705153 
L 491.901752 260.339736 
L 499.037349 259.703065 
L 506.172946 258.774092 
L 513.308543 257.536037 
L 520.44414 255.975974 
L 527.579737 254.085576 
L 534.715334 251.863179 
L 541.850931 249.314194 
L 548.986528 246.449535 
L 556.122125 243.283596 
L 563.257722 239.831906 
L 570.393319 236.109054 
L 577.528916 232.128096 
L 584.664513 227.901289 
L 591.80011 223.441087 
L 598.935706 218.760851 
L 608.449836 212.203089 
L 617.963965 205.315459 
L 627.478094 198.131733 
L 636.992223 190.678346 
L 646.506353 182.975519 
L 658.399014 173.03051 
L 670.291676 162.786329 
L 677.427273 156.519346 
L 677.427273 156.519346 
" clip-path="url(#p25295895db)" style="fill: none; stroke: #a52a2a; stroke-width: 1.5; stroke-linecap: round"/>
   </g>
   <g id="line2d_3">
    <path d="M 85.172727 298.120909 
L 92.308324 296.653304 
L 99.443921 295.483932 
L 106.579518 294.600128 
L 113.715115 293.972012 
L 120.850712 293.555108 
L 130.364841 293.230001 
L 177.935487 292.230284 
L 189.828149 292.198373 
L 208.856407 292.44399 
L 220.749069 292.50245 
L 230.263198 292.330901 
L 242.15586 291.845908 
L 261.184118 290.980819 
L 270.698248 290.775438 
L 280.212377 290.812198 
L 289.726506 291.089843 
L 301.619168 291.696386 
L 323.025958 292.906681 
L 332.540088 293.173623 
L 339.675685 293.179559 
L 349.189814 292.954733 
L 382.489266 291.848777 
L 392.003395 291.865159 
L 403.896057 292.157247 
L 430.059912 292.991232 
L 439.574042 292.972066 
L 451.466703 292.668727 
L 470.494962 292.131047 
L 482.387623 292.043922 
L 499.037349 292.210529 
L 513.308543 292.266158 
L 522.822673 292.060977 
L 532.336802 291.591528 
L 541.850931 290.871866 
L 553.743593 289.700336 
L 565.636254 288.30551 
L 577.528916 286.703856 
L 589.421577 284.86147 
L 598.935706 283.184176 
L 608.449836 281.308128 
L 617.963965 279.233333 
L 629.856627 276.398977 
L 644.12782 272.752426 
L 663.156079 267.628706 
L 677.427273 263.63836 
L 677.427273 263.63836 
" clip-path="url(#p25295895db)" style="fill: none; stroke: #000080; stroke-width: 1.5; stroke-linecap: round"/>
   </g>
   <g id="line2d_4">
    <path d="M 85.172727 298.120909 
L 92.308324 296.067548 
L 101.822453 293.597944 
L 111.336583 291.392251 
L 120.850712 289.397472 
L 132.743373 287.145963 
L 142.257503 285.537248 
L 151.771632 284.14206 
L 158.907229 283.277053 
L 166.042826 282.604496 
L 173.178423 282.154383 
L 180.31402 281.947073 
L 187.449617 281.987374 
L 194.585214 282.258829 
L 204.099343 282.902994 
L 225.506134 284.542381 
L 232.641731 284.786229 
L 239.777327 284.769149 
L 246.912924 284.504986 
L 256.427054 283.886651 
L 277.833844 282.380411 
L 289.726506 281.833041 
L 308.754765 281.048141 
L 318.268894 280.393292 
L 325.404491 279.707672 
L 334.91862 278.546528 
L 349.189814 276.499769 
L 361.082475 274.852527 
L 370.596605 273.784892 
L 377.732202 273.201756 
L 384.867798 272.833127 
L 392.003395 272.684034 
L 399.138992 272.741054 
L 408.653122 273.084163 
L 420.545783 273.794908 
L 463.359365 276.818599 
L 475.252026 277.867555 
L 487.144688 279.132616 
L 508.551479 281.53127 
L 515.687076 282.130419 
L 522.822673 282.516894 
L 529.958269 282.640941 
L 537.093866 282.474836 
L 544.229463 282.017857 
L 551.36506 281.2947 
L 558.500657 280.346007 
L 568.014786 278.803252 
L 577.528916 277.005551 
L 587.043045 274.970943 
L 596.557174 272.673961 
L 603.692771 270.754587 
L 610.828368 268.652306 
L 617.963965 266.364383 
L 627.478094 263.041358 
L 636.992223 259.451286 
L 648.884885 254.684399 
L 667.913143 246.727186 
L 677.427273 242.725413 
L 677.427273 242.725413 
" clip-path="url(#p25295895db)" style="fill: none; stroke-dasharray: 5.55,2.4; stroke-dashoffset: 0; stroke: #000080; stroke-width: 1.5"/>
   </g>
   <g id="patch_3">
    <path d="M 55.56 310.98 
L 55.56 28.08 
" style="fill: none; stroke: #ffffff; stroke-width: 1.25; stroke-linejoin: miter; stroke-linecap: square"/>
   </g>
   <g id="patch_4">
    <path d="M 707.04 310.98 
L 707.04 28.08 
" style="fill: none; stroke: #ffffff; stroke-width: 1.25; stroke-linejoin: miter; stroke-linecap: square"/>
   </g>
   <g id="patch_5">
    <path d="M 55.56 310.98 
L 707.04 310.98 
" style="fill: none; stroke: #ffffff; stroke-width: 1.25; stroke-linejoin: miter; stroke-linecap: square"/>
   </g>
   <g id="patch_6">
    <path d="M 55.56 28.08 
L 707.04 28.08 
" style="fill: none; stroke: #ffffff; stroke-width: 1.25; stroke-linejoin: miter; stroke-linecap: square"/>
   </g>
   <g id="text_16">
    <!-- QG3L - [112, 176] x [256, 384] -->
    <g style="fill: #262626" transform="translate(288.6225 22.08) scale(0.12 -0.12)">
     <defs>
      <path id="DejaVuSans-51" d="M 2522 4238 
Q 1834 4238 1429 3725 
Q 1025 3213 1025 2328 
Q 1025 1447 1429 934 
Q 1834 422 2522 422 
Q 3209 422 3611 934 
Q 4013 1447 4013 2328 
Q 4013 3213 3611 3725 
Q 3209 4238 2522 4238 
z
M 3406 84 
L 4238 -825 
L 3475 -825 
L 2784 -78 
Q 2681 -84 2626 -87 
Q 2572 -91 2522 -91 
Q 1538 -91 948 567 
Q 359 1225 359 2328 
Q 359 3434 948 4092 
Q 1538 4750 2522 4750 
Q 3503 4750 4090 4092 
Q 4678 3434 4678 2328 
Q 4678 1516 4351 937 
Q 4025 359 3406 84 
z
" transform="scale(0.015625)"/>
      <path id="DejaVuSans-47" d="M 3809 666 
L 3809 1919 
L 2778 1919 
L 2778 2438 
L 4434 2438 
L 4434 434 
Q 4069 175 3628 42 
Q 3188 -91 2688 -91 
Q 1594 -91 976 548 
Q 359 1188 359 2328 
Q 359 3472 976 4111 
Q 1594 4750 2688 4750 
Q 3144 4750 3555 4637 
Q 3966 4525 4313 4306 
L 4313 3634 
Q 3963 3931 3569 4081 
Q 3175 4231 2741 4231 
Q 1884 4231 1454 3753 
Q 1025 3275 1025 2328 
Q 1025 1384 1454 906 
Q 1884 428 2741 428 
Q 3075 428 3337 486 
Q 3600 544 3809 666 
z
" transform="scale(0.015625)"/>
      <path id="DejaVuSans-4c" d="M 628 4666 
L 1259 4666 
L 1259 531 
L 3531 531 
L 3531 0 
L 628 0 
L 628 4666 
z
" transform="scale(0.015625)"/>
      <path id="DejaVuSans-2d" d="M 313 2009 
L 1997 2009 
L 1997 1497 
L 313 1497 
L 313 2009 
z
" transform="scale(0.015625)"/>
      <path id="DejaVuSans-2c" d="M 750 794 
L 1409 794 
L 1409 256 
L 897 -744 
L 494 -744 
L 750 256 
L 750 794 
z
" transform="scale(0.015625)"/>
      <path id="DejaVuSans-78" d="M 3513 3500 
L 2247 1797 
L 3578 0 
L 2900 0 
L 1881 1375 
L 863 0 
L 184 0 
L 1544 1831 
L 300 3500 
L 978 3500 
L 1906 2253 
L 2834 3500 
L 3513 3500 
z
" transform="scale(0.015625)"/>
      <path id="DejaVuSans-38" d="M 2034 2216 
Q 1584 2216 1326 1975 
Q 1069 1734 1069 1313 
Q 1069 891 1326 650 
Q 1584 409 2034 409 
Q 2484 409 2743 651 
Q 3003 894 3003 1313 
Q 3003 1734 2745 1975 
Q 2488 2216 2034 2216 
z
M 1403 2484 
Q 997 2584 770 2862 
Q 544 3141 544 3541 
Q 544 4100 942 4425 
Q 1341 4750 2034 4750 
Q 2731 4750 3128 4425 
Q 3525 4100 3525 3541 
Q 3525 3141 3298 2862 
Q 3072 2584 2669 2484 
Q 3125 2378 3379 2068 
Q 3634 1759 3634 1313 
Q 3634 634 3220 271 
Q 2806 -91 2034 -91 
Q 1263 -91 848 271 
Q 434 634 434 1313 
Q 434 1759 690 2068 
Q 947 2378 1403 2484 
z
M 1172 3481 
Q 1172 3119 1398 2916 
Q 1625 2713 2034 2713 
Q 2441 2713 2670 2916 
Q 2900 3119 2900 3481 
Q 2900 3844 2670 4047 
Q 2441 4250 2034 4250 
Q 1625 4250 1398 4047 
Q 1172 3844 1172 3481 
z
" transform="scale(0.015625)"/>
     </defs>
     <use xlink:href="#DejaVuSans-51"/>
     <use xlink:href="#DejaVuSans-47" transform="translate(78.710938 0)"/>
     <use xlink:href="#DejaVuSans-33" transform="translate(156.201172 0)"/>
     <use xlink:href="#DejaVuSans-4c" transform="translate(219.824219 0)"/>
     <use xlink:href="#DejaVuSans-20" transform="translate(275.537109 0)"/>
     <use xlink:href="#DejaVuSans-2d" transform="translate(307.324219 0)"/>
     <use xlink:href="#DejaVuSans-20" transform="translate(343.408203 0)"/>
     <use xlink:href="#DejaVuSans-5b" transform="translate(375.195312 0)"/>
     <use xlink:href="#DejaVuSans-31" transform="translate(414.208984 0)"/>
     <use xlink:href="#DejaVuSans-31" transform="translate(477.832031 0)"/>
     <use xlink:href="#DejaVuSans-32" transform="translate(541.455078 0)"/>
     <use xlink:href="#DejaVuSans-2c" transform="translate(605.078125 0)"/>
     <use xlink:href="#DejaVuSans-20" transform="translate(636.865234 0)"/>
     <use xlink:href="#DejaVuSans-31" transform="translate(668.652344 0)"/>
     <use xlink:href="#DejaVuSans-37" transform="translate(732.275391 0)"/>
     <use xlink:href="#DejaVuSans-36" transform="translate(795.898438 0)"/>
     <use xlink:href="#DejaVuSans-5d" transform="translate(859.521484 0)"/>
     <use xlink:href="#DejaVuSans-20" transform="translate(898.535156 0)"/>
     <use xlink:href="#DejaVuSans-78" transform="translate(930.322266 0)"/>
     <use xlink:href="#DejaVuSans-20" transform="translate(989.501953 0)"/>
     <use xlink:href="#DejaVuSans-5b" transform="translate(1021.289062 0)"/>
     <use xlink:href="#DejaVuSans-32" transform="translate(1060.302734 0)"/>
     <use xlink:href="#DejaVuSans-35" transform="translate(1123.925781 0)"/>
     <use xlink:href="#DejaVuSans-36" transform="translate(1187.548828 0)"/>
     <use xlink:href="#DejaVuSans-2c" transform="translate(1251.171875 0)"/>
     <use xlink:href="#DejaVuSans-20" transform="translate(1282.958984 0)"/>
     <use xlink:href="#DejaVuSans-33" transform="translate(1314.746094 0)"/>
     <use xlink:href="#DejaVuSans-38" transform="translate(1378.369141 0)"/>
     <use xlink:href="#DejaVuSans-34" transform="translate(1441.992188 0)"/>
     <use xlink:href="#DejaVuSans-5d" transform="translate(1505.615234 0)"/>
    </g>
   </g>
   <g id="legend_1">
    <g id="patch_7">
     <path d="M 63.26 101.46375 
L 244.675781 101.46375 
Q 246.875781 101.46375 246.875781 99.26375 
L 246.875781 35.78 
Q 246.875781 33.58 244.675781 33.58 
L 63.26 33.58 
Q 61.06 33.58 61.06 35.78 
L 61.06 99.26375 
Q 61.06 101.46375 63.26 101.46375 
z
" style="fill: #eaeaf2; opacity: 0.8; stroke: #cccccc; stroke-linejoin: miter"/>
    </g>
    <g id="line2d_5">
     <path d="M 65.46 42.488281 
L 76.46 42.488281 
L 87.46 42.488281 
" style="fill: none; stroke: #000000; stroke-width: 1.5; stroke-linecap: round"/>
    </g>
    <g id="text_17">
     <!-- Reduced Gravity -->
     <g style="fill: #262626" transform="translate(96.26 46.338281) scale(0.11 -0.11)">
      <defs>
       <path id="DejaVuSans-75" d="M 544 1381 
L 544 3500 
L 1119 3500 
L 1119 1403 
Q 1119 906 1312 657 
Q 1506 409 1894 409 
Q 2359 409 2629 706 
Q 2900 1003 2900 1516 
L 2900 3500 
L 3475 3500 
L 3475 0 
L 2900 0 
L 2900 538 
Q 2691 219 2414 64 
Q 2138 -91 1772 -91 
Q 1169 -91 856 284 
Q 544 659 544 1381 
z
M 1991 3584 
L 1991 3584 
z
" transform="scale(0.015625)"/>
       <path id="DejaVuSans-63" d="M 3122 3366 
L 3122 2828 
Q 2878 2963 2633 3030 
Q 2388 3097 2138 3097 
Q 1578 3097 1268 2742 
Q 959 2388 959 1747 
Q 959 1106 1268 751 
Q 1578 397 2138 397 
Q 2388 397 2633 464 
Q 2878 531 3122 666 
L 3122 134 
Q 2881 22 2623 -34 
Q 2366 -91 2075 -91 
Q 1284 -91 818 406 
Q 353 903 353 1747 
Q 353 2603 823 3093 
Q 1294 3584 2113 3584 
Q 2378 3584 2631 3529 
Q 2884 3475 3122 3366 
z
" transform="scale(0.015625)"/>
       <path id="DejaVuSans-72" d="M 2631 2963 
Q 2534 3019 2420 3045 
Q 2306 3072 2169 3072 
Q 1681 3072 1420 2755 
Q 1159 2438 1159 1844 
L 1159 0 
L 581 0 
L 581 3500 
L 1159 3500 
L 1159 2956 
Q 1341 3275 1631 3429 
Q 1922 3584 2338 3584 
Q 2397 3584 2469 3576 
Q 2541 3569 2628 3553 
L 2631 2963 
z
" transform="scale(0.015625)"/>
       <path id="DejaVuSans-76" d="M 191 3500 
L 800 3500 
L 1894 563 
L 2988 3500 
L 3597 3500 
L 2284 0 
L 1503 0 
L 191 3500 
z
" transform="scale(0.015625)"/>
       <path id="DejaVuSans-74" d="M 1172 4494 
L 1172 3500 
L 2356 3500 
L 2356 3053 
L 1172 3053 
L 1172 1153 
Q 1172 725 1289 603 
Q 1406 481 1766 481 
L 2356 481 
L 2356 0 
L 1766 0 
Q 1100 0 847 248 
Q 594 497 594 1153 
L 594 3053 
L 172 3053 
L 172 3500 
L 594 3500 
L 594 4494 
L 1172 4494 
z
" transform="scale(0.015625)"/>
      </defs>
      <use xlink:href="#DejaVuSans-52"/>
      <use xlink:href="#DejaVuSans-65" transform="translate(64.982422 0)"/>
      <use xlink:href="#DejaVuSans-64" transform="translate(126.505859 0)"/>
      <use xlink:href="#DejaVuSans-75" transform="translate(189.982422 0)"/>
      <use xlink:href="#DejaVuSans-63" transform="translate(253.361328 0)"/>
      <use xlink:href="#DejaVuSans-65" transform="translate(308.341797 0)"/>
      <use xlink:href="#DejaVuSans-64" transform="translate(369.865234 0)"/>
      <use xlink:href="#DejaVuSans-20" transform="translate(433.341797 0)"/>
      <use xlink:href="#DejaVuSans-47" transform="translate(465.128906 0)"/>
      <use xlink:href="#DejaVuSans-72" transform="translate(542.619141 0)"/>
      <use xlink:href="#DejaVuSans-61" transform="translate(583.732422 0)"/>
      <use xlink:href="#DejaVuSans-76" transform="translate(645.011719 0)"/>
      <use xlink:href="#DejaVuSans-69" transform="translate(704.191406 0)"/>
      <use xlink:href="#DejaVuSans-74" transform="translate(731.974609 0)"/>
      <use xlink:href="#DejaVuSans-79" transform="translate(771.183594 0)"/>
     </g>
    </g>
    <g id="line2d_6">
     <path d="M 65.46 58.634219 
L 76.46 58.634219 
L 87.46 58.634219 
" style="fill: none; stroke: #a52a2a; stroke-width: 1.5; stroke-linecap: round"/>
    </g>
    <g id="text_18">
     <!-- VarDyn -->
     <g style="fill: #262626" transform="translate(96.26 62.484219) scale(0.11 -0.11)">
      <defs>
       <path id="DejaVuSans-56" d="M 1831 0 
L 50 4666 
L 709 4666 
L 2188 738 
L 3669 4666 
L 4325 4666 
L 2547 0 
L 1831 0 
z
" transform="scale(0.015625)"/>
       <path id="DejaVuSans-44" d="M 1259 4147 
L 1259 519 
L 2022 519 
Q 2988 519 3436 956 
Q 3884 1394 3884 2338 
Q 3884 3275 3436 3711 
Q 2988 4147 2022 4147 
L 1259 4147 
z
M 628 4666 
L 1925 4666 
Q 3281 4666 3915 4102 
Q 4550 3538 4550 2338 
Q 4550 1131 3912 565 
Q 3275 0 1925 0 
L 628 0 
L 628 4666 
z
" transform="scale(0.015625)"/>
      </defs>
      <use xlink:href="#DejaVuSans-56"/>
      <use xlink:href="#DejaVuSans-61" transform="translate(60.658203 0)"/>
      <use xlink:href="#DejaVuSans-72" transform="translate(121.9375 0)"/>
      <use xlink:href="#DejaVuSans-44" transform="translate(163.050781 0)"/>
      <use xlink:href="#DejaVuSans-79" transform="translate(240.052734 0)"/>
      <use xlink:href="#DejaVuSans-6e" transform="translate(299.232422 0)"/>
     </g>
    </g>
    <g id="line2d_7">
     <path d="M 65.46 74.780156 
L 76.46 74.780156 
L 87.46 74.780156 
" style="fill: none; stroke: #000080; stroke-width: 1.5; stroke-linecap: round"/>
    </g>
    <g id="text_19">
     <!-- SurfML -->
     <g style="fill: #262626" transform="translate(96.26 78.630156) scale(0.11 -0.11)">
      <defs>
       <path id="DejaVuSans-66" d="M 2375 4863 
L 2375 4384 
L 1825 4384 
Q 1516 4384 1395 4259 
Q 1275 4134 1275 3809 
L 1275 3500 
L 2222 3500 
L 2222 3053 
L 1275 3053 
L 1275 0 
L 697 0 
L 697 3053 
L 147 3053 
L 147 3500 
L 697 3500 
L 697 3744 
Q 697 4328 969 4595 
Q 1241 4863 1831 4863 
L 2375 4863 
z
" transform="scale(0.015625)"/>
      </defs>
      <use xlink:href="#DejaVuSans-53"/>
      <use xlink:href="#DejaVuSans-75" transform="translate(63.476562 0)"/>
      <use xlink:href="#DejaVuSans-72" transform="translate(126.855469 0)"/>
      <use xlink:href="#DejaVuSans-66" transform="translate(167.96875 0)"/>
      <use xlink:href="#DejaVuSans-4d" transform="translate(203.173828 0)"/>
      <use xlink:href="#DejaVuSans-4c" transform="translate(289.453125 0)"/>
     </g>
    </g>
    <g id="line2d_8">
     <path d="M 65.46 90.926094 
L 76.46 90.926094 
L 87.46 90.926094 
" style="fill: none; stroke-dasharray: 5.55,2.4; stroke-dashoffset: 0; stroke: #000080; stroke-width: 1.5"/>
    </g>
    <g id="text_20">
     <!-- SurfML - No Regularization -->
     <g style="fill: #262626" transform="translate(96.26 94.776094) scale(0.11 -0.11)">
      <defs>
       <path id="DejaVuSans-4e" d="M 628 4666 
L 1478 4666 
L 3547 763 
L 3547 4666 
L 4159 4666 
L 4159 0 
L 3309 0 
L 1241 3903 
L 1241 0 
L 628 0 
L 628 4666 
z
" transform="scale(0.015625)"/>
       <path id="DejaVuSans-6f" d="M 1959 3097 
Q 1497 3097 1228 2736 
Q 959 2375 959 1747 
Q 959 1119 1226 758 
Q 1494 397 1959 397 
Q 2419 397 2687 759 
Q 2956 1122 2956 1747 
Q 2956 2369 2687 2733 
Q 2419 3097 1959 3097 
z
M 1959 3584 
Q 2709 3584 3137 3096 
Q 3566 2609 3566 1747 
Q 3566 888 3137 398 
Q 2709 -91 1959 -91 
Q 1206 -91 779 398 
Q 353 888 353 1747 
Q 353 2609 779 3096 
Q 1206 3584 1959 3584 
z
" transform="scale(0.015625)"/>
       <path id="DejaVuSans-67" d="M 2906 1791 
Q 2906 2416 2648 2759 
Q 2391 3103 1925 3103 
Q 1463 3103 1205 2759 
Q 947 2416 947 1791 
Q 947 1169 1205 825 
Q 1463 481 1925 481 
Q 2391 481 2648 825 
Q 2906 1169 2906 1791 
z
M 3481 434 
Q 3481 -459 3084 -895 
Q 2688 -1331 1869 -1331 
Q 1566 -1331 1297 -1286 
Q 1028 -1241 775 -1147 
L 775 -588 
Q 1028 -725 1275 -790 
Q 1522 -856 1778 -856 
Q 2344 -856 2625 -561 
Q 2906 -266 2906 331 
L 2906 616 
Q 2728 306 2450 153 
Q 2172 0 1784 0 
Q 1141 0 747 490 
Q 353 981 353 1791 
Q 353 2603 747 3093 
Q 1141 3584 1784 3584 
Q 2172 3584 2450 3431 
Q 2728 3278 2906 2969 
L 2906 3500 
L 3481 3500 
L 3481 434 
z
" transform="scale(0.015625)"/>
       <path id="DejaVuSans-6c" d="M 603 4863 
L 1178 4863 
L 1178 0 
L 603 0 
L 603 4863 
z
" transform="scale(0.015625)"/>
       <path id="DejaVuSans-7a" d="M 353 3500 
L 3084 3500 
L 3084 2975 
L 922 459 
L 3084 459 
L 3084 0 
L 275 0 
L 275 525 
L 2438 3041 
L 353 3041 
L 353 3500 
z
" transform="scale(0.015625)"/>
      </defs>
      <use xlink:href="#DejaVuSans-53"/>
      <use xlink:href="#DejaVuSans-75" transform="translate(63.476562 0)"/>
      <use xlink:href="#DejaVuSans-72" transform="translate(126.855469 0)"/>
      <use xlink:href="#DejaVuSans-66" transform="translate(167.96875 0)"/>
      <use xlink:href="#DejaVuSans-4d" transform="translate(203.173828 0)"/>
      <use xlink:href="#DejaVuSans-4c" transform="translate(289.453125 0)"/>
      <use xlink:href="#DejaVuSans-20" transform="translate(345.166016 0)"/>
      <use xlink:href="#DejaVuSans-2d" transform="translate(376.953125 0)"/>
      <use xlink:href="#DejaVuSans-20" transform="translate(413.037109 0)"/>
      <use xlink:href="#DejaVuSans-4e" transform="translate(444.824219 0)"/>
      <use xlink:href="#DejaVuSans-6f" transform="translate(519.628906 0)"/>
      <use xlink:href="#DejaVuSans-20" transform="translate(580.810547 0)"/>
      <use xlink:href="#DejaVuSans-52" transform="translate(612.597656 0)"/>
      <use xlink:href="#DejaVuSans-65" transform="translate(677.580078 0)"/>
      <use xlink:href="#DejaVuSans-67" transform="translate(739.103516 0)"/>
      <use xlink:href="#DejaVuSans-75" transform="translate(802.580078 0)"/>
      <use xlink:href="#DejaVuSans-6c" transform="translate(865.958984 0)"/>
      <use xlink:href="#DejaVuSans-61" transform="translate(893.742188 0)"/>
      <use xlink:href="#DejaVuSans-72" transform="translate(955.021484 0)"/>
      <use xlink:href="#DejaVuSans-69" transform="translate(996.134766 0)"/>
      <use xlink:href="#DejaVuSans-7a" transform="translate(1023.917969 0)"/>
      <use xlink:href="#DejaVuSans-61" transform="translate(1076.408203 0)"/>
      <use xlink:href="#DejaVuSans-74" transform="translate(1137.6875 0)"/>
      <use xlink:href="#DejaVuSans-69" transform="translate(1176.896484 0)"/>
      <use xlink:href="#DejaVuSans-6f" transform="translate(1204.679688 0)"/>
      <use xlink:href="#DejaVuSans-6e" transform="translate(1265.861328 0)"/>
     </g>
    </g>
   </g>
  </g>
 </g>
 <defs>
  <clipPath id="p25295895db">
   <rect x="55.56" y="28.08" width="651.48" height="282.9"/>
  </clipPath>
 </defs>
</svg>
