<?xml version="1.0" encoding="utf-8" standalone="no"?>
<!DOCTYPE svg PUBLIC "-//W3C//DTD SVG 1.1//EN"
  "http://www.w3.org/Graphics/SVG/1.1/DTD/svg11.dtd">
<svg xmlns:xlink="http://www.w3.org/1999/xlink" width="720pt" height="360pt" viewBox="0 0 720 360" xmlns="http://www.w3.org/2000/svg" version="1.1">
 <metadata>
  <rdf:RDF xmlns:dc="http://purl.org/dc/elements/1.1/" xmlns:cc="http://creativecommons.org/ns#" xmlns:rdf="http://www.w3.org/1999/02/22-rdf-syntax-ns#">
   <cc:Work>
    <dc:type rdf:resource="http://purl.org/dc/dcmitype/StillImage"/>
    <dc:date>2026-03-19T16:21:34.970352</dc:date>
    <dc:format>image/svg+xml</dc:format>
    <dc:creator>
     <cc:Agent>
      <dc:title>Matplotlib v3.10.6, https://matplotlib.org/</dc:title>
     </cc:Agent>
    </dc:creator>
   </cc:Work>
  </rdf:RDF>
 </metadata>
 <defs>
  <style type="text/css">*{stroke-linejoin: round; stroke-linecap: butt}</style>
 </defs>
 <g id="figure_1">
  <g id="patch_1">
   <path d="M 0 360 
L 720 360 
L 720 0 
L 0 0 
z
" style="fill: #ffffff"/>
  </g>
  <g id="axes_1">
   <g id="patch_2">
    <path d="M 55.56 310.98 
L 707.04 310.98 
L 707.04 28.08 
L 55.56 28.08 
z
" style="fill: #eaeaf2"/>
   </g>
   <g id="matplotlib.axis_1">
    <g id="xtick_1">
     <g id="text_1">
      <!-- 0 -->
      <g style="fill: #262626" transform="translate(81.673352 328.838281) scale(0.11 -0.11)">
       <defs>
        <path id="DejaVuSans-30" d="M 2034 4250 
Q 1547 4250 1301 3770 
Q 1056 3291 1056 2328 
Q 1056 1369 1301 889 
Q 1547 409 2034 409 
Q 2525 409 2770 889 
Q 3016 1369 3016 2328 
Q 3016 3291 2770 3770 
Q 2525 4250 2034 4250 
z
M 2034 4750 
Q 2819 4750 3233 4129 
Q 3647 3509 3647 2328 
Q 3647 1150 3233 529 
Q 2819 -91 2034 -91 
Q 1250 -91 836 529 
Q 422 1150 422 2328 
Q 422 3509 836 4129 
Q 1250 4750 2034 4750 
z
" transform="scale(0.015625)"/>
       </defs>
       <use xlink:href="#DejaVuSans-30"/>
      </g>
     </g>
    </g>
    <g id="xtick_2">
     <g id="text_2">
      <!-- 5 -->
      <g style="fill: #262626" transform="translate(224.385291 328.838281) scale(0.11 -0.11)">
       <defs>
        <path id="DejaVuSans-35" d="M 691 4666 
L 3169 4666 
L 3169 4134 
L 1269 4134 
L 1269 2991 
Q 1406 3038 1543 3061 
Q 1681 3084 1819 3084 
Q 2600 3084 3056 2656 
Q 3513 2228 3513 1497 
Q 3513 744 3044 326 
Q 2575 -91 1722 -91 
Q 1428 -91 1123 -41 
Q 819 9 494 109 
L 494 744 
Q 775 591 1075 516 
Q 1375 441 1709 441 
Q 2250 441 2565 725 
Q 2881 1009 2881 1497 
Q 2881 1984 2565 2268 
Q 2250 2553 1709 2553 
Q 1456 2553 1204 2497 
Q 953 2441 691 2322 
L 691 4666 
z
" transform="scale(0.015625)"/>
       </defs>
       <use xlink:href="#DejaVuSans-35"/>
      </g>
     </g>
    </g>
    <g id="xtick_3">
     <g id="text_3">
      <!-- 10 -->
      <g style="fill: #262626" transform="translate(363.597855 328.838281) scale(0.11 -0.11)">
       <defs>
        <path id="DejaVuSans-31" d="M 794 531 
L 1825 531 
L 1825 4091 
L 703 3866 
L 703 4441 
L 1819 4666 
L 2450 4666 
L 2450 531 
L 3481 531 
L 3481 0 
L 794 0 
L 794 531 
z
" transform="scale(0.015625)"/>
       </defs>
       <use xlink:href="#DejaVuSans-31"/>
       <use xlink:href="#DejaVuSans-30" transform="translate(63.623047 0)"/>
      </g>
     </g>
    </g>
    <g id="xtick_4">
     <g id="text_4">
      <!-- 15 -->
      <g style="fill: #262626" transform="translate(506.309793 328.838281) scale(0.11 -0.11)">
       <use xlink:href="#DejaVuSans-31"/>
       <use xlink:href="#DejaVuSans-35" transform="translate(63.623047 0)"/>
      </g>
     </g>
    </g>
    <g id="xtick_5">
     <g id="text_5">
      <!-- 20 -->
      <g style="fill: #262626" transform="translate(649.021732 328.838281) scale(0.11 -0.11)">
       <defs>
        <path id="DejaVuSans-32" d="M 1228 531 
L 3431 531 
L 3431 0 
L 469 0 
L 469 531 
Q 828 903 1448 1529 
Q 2069 2156 2228 2338 
Q 2531 2678 2651 2914 
Q 2772 3150 2772 3378 
Q 2772 3750 2511 3984 
Q 2250 4219 1831 4219 
Q 1534 4219 1204 4116 
Q 875 4013 500 3803 
L 500 4441 
Q 881 4594 1212 4672 
Q 1544 4750 1819 4750 
Q 2544 4750 2975 4387 
Q 3406 4025 3406 3419 
Q 3406 3131 3298 2873 
Q 3191 2616 2906 2266 
Q 2828 2175 2409 1742 
Q 1991 1309 1228 531 
z
" transform="scale(0.015625)"/>
       </defs>
       <use xlink:href="#DejaVuSans-32"/>
       <use xlink:href="#DejaVuSans-30" transform="translate(63.623047 0)"/>
      </g>
     </g>
    </g>
    <g id="text_6">
     <!-- Time [days] -->
     <g style="fill: #262626" transform="translate(345.868125 344.244062) scale(0.12 -0.12)">
      <defs>
       <path id="DejaVuSans-54" d="M -19 4666 
L 3928 4666 
L 3928 4134 
L 2272 4134 
L 2272 0 
L 1638 0 
L 1638 4134 
L -19 4134 
L -19 4666 
z
" transform="scale(0.015625)"/>
       <path id="DejaVuSans-69" d="M 603 3500 
L 1178 3500 
L 1178 0 
L 603 0 
L 603 3500 
z
M 603 4863 
L 1178 4863 
L 1178 4134 
L 603 4134 
L 603 4863 
z
" transform="scale(0.015625)"/>
       <path id="DejaVuSans-6d" d="M 3328 2828 
Q 3544 3216 3844 3400 
Q 4144 3584 4550 3584 
Q 5097 3584 5394 3201 
Q 5691 2819 5691 2113 
L 5691 0 
L 5113 0 
L 5113 2094 
Q 5113 2597 4934 2840 
Q 4756 3084 4391 3084 
Q 3944 3084 3684 2787 
Q 3425 2491 3425 1978 
L 3425 0 
L 2847 0 
L 2847 2094 
Q 2847 2600 2669 2842 
Q 2491 3084 2119 3084 
Q 1678 3084 1418 2786 
Q 1159 2488 1159 1978 
L 1159 0 
L 581 0 
L 581 3500 
L 1159 3500 
L 1159 2956 
Q 1356 3278 1631 3431 
Q 1906 3584 2284 3584 
Q 2666 3584 2933 3390 
Q 3200 3197 3328 2828 
z
" transform="scale(0.015625)"/>
       <path id="DejaVuSans-65" d="M 3597 1894 
L 3597 1613 
L 953 1613 
Q 991 1019 1311 708 
Q 1631 397 2203 397 
Q 2534 397 2845 478 
Q 3156 559 3463 722 
L 3463 178 
Q 3153 47 2828 -22 
Q 2503 -91 2169 -91 
Q 1331 -91 842 396 
Q 353 884 353 1716 
Q 353 2575 817 3079 
Q 1281 3584 2069 3584 
Q 2775 3584 3186 3129 
Q 3597 2675 3597 1894 
z
M 3022 2063 
Q 3016 2534 2758 2815 
Q 2500 3097 2075 3097 
Q 1594 3097 1305 2825 
Q 1016 2553 972 2059 
L 3022 2063 
z
" transform="scale(0.015625)"/>
       <path id="DejaVuSans-20" transform="scale(0.015625)"/>
       <path id="DejaVuSans-5b" d="M 550 4863 
L 1875 4863 
L 1875 4416 
L 1125 4416 
L 1125 -397 
L 1875 -397 
L 1875 -844 
L 550 -844 
L 550 4863 
z
" transform="scale(0.015625)"/>
       <path id="DejaVuSans-64" d="M 2906 2969 
L 2906 4863 
L 3481 4863 
L 3481 0 
L 2906 0 
L 2906 525 
Q 2725 213 2448 61 
Q 2172 -91 1784 -91 
Q 1150 -91 751 415 
Q 353 922 353 1747 
Q 353 2572 751 3078 
Q 1150 3584 1784 3584 
Q 2172 3584 2448 3432 
Q 2725 3281 2906 2969 
z
M 947 1747 
Q 947 1113 1208 752 
Q 1469 391 1925 391 
Q 2381 391 2643 752 
Q 2906 1113 2906 1747 
Q 2906 2381 2643 2742 
Q 2381 3103 1925 3103 
Q 1469 3103 1208 2742 
Q 947 2381 947 1747 
z
" transform="scale(0.015625)"/>
       <path id="DejaVuSans-61" d="M 2194 1759 
Q 1497 1759 1228 1600 
Q 959 1441 959 1056 
Q 959 750 1161 570 
Q 1363 391 1709 391 
Q 2188 391 2477 730 
Q 2766 1069 2766 1631 
L 2766 1759 
L 2194 1759 
z
M 3341 1997 
L 3341 0 
L 2766 0 
L 2766 531 
Q 2569 213 2275 61 
Q 1981 -91 1556 -91 
Q 1019 -91 701 211 
Q 384 513 384 1019 
Q 384 1609 779 1909 
Q 1175 2209 1959 2209 
L 2766 2209 
L 2766 2266 
Q 2766 2663 2505 2880 
Q 2244 3097 1772 3097 
Q 1472 3097 1187 3025 
Q 903 2953 641 2809 
L 641 3341 
Q 956 3463 1253 3523 
Q 1550 3584 1831 3584 
Q 2591 3584 2966 3190 
Q 3341 2797 3341 1997 
z
" transform="scale(0.015625)"/>
       <path id="DejaVuSans-79" d="M 2059 -325 
Q 1816 -950 1584 -1140 
Q 1353 -1331 966 -1331 
L 506 -1331 
L 506 -850 
L 844 -850 
Q 1081 -850 1212 -737 
Q 1344 -625 1503 -206 
L 1606 56 
L 191 3500 
L 800 3500 
L 1894 763 
L 2988 3500 
L 3597 3500 
L 2059 -325 
z
" transform="scale(0.015625)"/>
       <path id="DejaVuSans-73" d="M 2834 3397 
L 2834 2853 
Q 2591 2978 2328 3040 
Q 2066 3103 1784 3103 
Q 1356 3103 1142 2972 
Q 928 2841 928 2578 
Q 928 2378 1081 2264 
Q 1234 2150 1697 2047 
L 1894 2003 
Q 2506 1872 2764 1633 
Q 3022 1394 3022 966 
Q 3022 478 2636 193 
Q 2250 -91 1575 -91 
Q 1294 -91 989 -36 
Q 684 19 347 128 
L 347 722 
Q 666 556 975 473 
Q 1284 391 1588 391 
Q 1994 391 2212 530 
Q 2431 669 2431 922 
Q 2431 1156 2273 1281 
Q 2116 1406 1581 1522 
L 1381 1569 
Q 847 1681 609 1914 
Q 372 2147 372 2553 
Q 372 3047 722 3315 
Q 1072 3584 1716 3584 
Q 2034 3584 2315 3537 
Q 2597 3491 2834 3397 
z
" transform="scale(0.015625)"/>
       <path id="DejaVuSans-5d" d="M 1947 4863 
L 1947 -844 
L 622 -844 
L 622 -397 
L 1369 -397 
L 1369 4416 
L 622 4416 
L 622 4863 
L 1947 4863 
z
" transform="scale(0.015625)"/>
      </defs>
      <use xlink:href="#DejaVuSans-54"/>
      <use xlink:href="#DejaVuSans-69" transform="translate(57.958984 0)"/>
      <use xlink:href="#DejaVuSans-6d" transform="translate(85.742188 0)"/>
      <use xlink:href="#DejaVuSans-65" transform="translate(183.154297 0)"/>
      <use xlink:href="#DejaVuSans-20" transform="translate(244.677734 0)"/>
      <use xlink:href="#DejaVuSans-5b" transform="translate(276.464844 0)"/>
      <use xlink:href="#DejaVuSans-64" transform="translate(315.478516 0)"/>
      <use xlink:href="#DejaVuSans-61" transform="translate(378.955078 0)"/>
      <use xlink:href="#DejaVuSans-79" transform="translate(440.234375 0)"/>
      <use xlink:href="#DejaVuSans-73" transform="translate(499.414062 0)"/>
      <use xlink:href="#DejaVuSans-5d" transform="translate(551.513672 0)"/>
     </g>
    </g>
   </g>
   <g id="matplotlib.axis_2">
    <g id="ytick_1">
     <g id="text_7">
      <!-- 0.0 -->
      <g style="fill: #262626" transform="translate(28.566562 302.30005) scale(0.11 -0.11)">
       <defs>
        <path id="DejaVuSans-2e" d="M 684 794 
L 1344 794 
L 1344 0 
L 684 0 
L 684 794 
z
" transform="scale(0.015625)"/>
       </defs>
       <use xlink:href="#DejaVuSans-30"/>
       <use xlink:href="#DejaVuSans-2e" transform="translate(63.623047 0)"/>
       <use xlink:href="#DejaVuSans-30" transform="translate(95.410156 0)"/>
      </g>
     </g>
    </g>
    <g id="ytick_2">
     <g id="text_8">
      <!-- 0.2 -->
      <g style="fill: #262626" transform="translate(28.566562 250.863686) scale(0.11 -0.11)">
       <use xlink:href="#DejaVuSans-30"/>
       <use xlink:href="#DejaVuSans-2e" transform="translate(63.623047 0)"/>
       <use xlink:href="#DejaVuSans-32" transform="translate(95.410156 0)"/>
      </g>
     </g>
    </g>
    <g id="ytick_3">
     <g id="text_9">
      <!-- 0.4 -->
      <g style="fill: #262626" transform="translate(28.566562 199.427322) scale(0.11 -0.11)">
       <defs>
        <path id="DejaVuSans-34" d="M 2419 4116 
L 825 1625 
L 2419 1625 
L 2419 4116 
z
M 2253 4666 
L 3047 4666 
L 3047 1625 
L 3713 1625 
L 3713 1100 
L 3047 1100 
L 3047 0 
L 2419 0 
L 2419 1100 
L 313 1100 
L 313 1709 
L 2253 4666 
z
" transform="scale(0.015625)"/>
       </defs>
       <use xlink:href="#DejaVuSans-30"/>
       <use xlink:href="#DejaVuSans-2e" transform="translate(63.623047 0)"/>
       <use xlink:href="#DejaVuSans-34" transform="translate(95.410156 0)"/>
      </g>
     </g>
    </g>
    <g id="ytick_4">
     <g id="text_10">
      <!-- 0.6 -->
      <g style="fill: #262626" transform="translate(28.566562 147.990959) scale(0.11 -0.11)">
       <defs>
        <path id="DejaVuSans-36" d="M 2113 2584 
Q 1688 2584 1439 2293 
Q 1191 2003 1191 1497 
Q 1191 994 1439 701 
Q 1688 409 2113 409 
Q 2538 409 2786 701 
Q 3034 994 3034 1497 
Q 3034 2003 2786 2293 
Q 2538 2584 2113 2584 
z
M 3366 4563 
L 3366 3988 
Q 3128 4100 2886 4159 
Q 2644 4219 2406 4219 
Q 1781 4219 1451 3797 
Q 1122 3375 1075 2522 
Q 1259 2794 1537 2939 
Q 1816 3084 2150 3084 
Q 2853 3084 3261 2657 
Q 3669 2231 3669 1497 
Q 3669 778 3244 343 
Q 2819 -91 2113 -91 
Q 1303 -91 875 529 
Q 447 1150 447 2328 
Q 447 3434 972 4092 
Q 1497 4750 2381 4750 
Q 2619 4750 2861 4703 
Q 3103 4656 3366 4563 
z
" transform="scale(0.015625)"/>
       </defs>
       <use xlink:href="#DejaVuSans-30"/>
       <use xlink:href="#DejaVuSans-2e" transform="translate(63.623047 0)"/>
       <use xlink:href="#DejaVuSans-36" transform="translate(95.410156 0)"/>
      </g>
     </g>
    </g>
    <g id="ytick_5">
     <g id="text_11">
      <!-- 0.8 -->
      <g style="fill: #262626" transform="translate(28.566562 96.554595) scale(0.11 -0.11)">
       <defs>
        <path id="DejaVuSans-38" d="M 2034 2216 
Q 1584 2216 1326 1975 
Q 1069 1734 1069 1313 
Q 1069 891 1326 650 
Q 1584 409 2034 409 
Q 2484 409 2743 651 
Q 3003 894 3003 1313 
Q 3003 1734 2745 1975 
Q 2488 2216 2034 2216 
z
M 1403 2484 
Q 997 2584 770 2862 
Q 544 3141 544 3541 
Q 544 4100 942 4425 
Q 1341 4750 2034 4750 
Q 2731 4750 3128 4425 
Q 3525 4100 3525 3541 
Q 3525 3141 3298 2862 
Q 3072 2584 2669 2484 
Q 3125 2378 3379 2068 
Q 3634 1759 3634 1313 
Q 3634 634 3220 271 
Q 2806 -91 2034 -91 
Q 1263 -91 848 271 
Q 434 634 434 1313 
Q 434 1759 690 2068 
Q 947 2378 1403 2484 
z
M 1172 3481 
Q 1172 3119 1398 2916 
Q 1625 2713 2034 2713 
Q 2441 2713 2670 2916 
Q 2900 3119 2900 3481 
Q 2900 3844 2670 4047 
Q 2441 4250 2034 4250 
Q 1625 4250 1398 4047 
Q 1172 3844 1172 3481 
z
" transform="scale(0.015625)"/>
       </defs>
       <use xlink:href="#DejaVuSans-30"/>
       <use xlink:href="#DejaVuSans-2e" transform="translate(63.623047 0)"/>
       <use xlink:href="#DejaVuSans-38" transform="translate(95.410156 0)"/>
      </g>
     </g>
    </g>
    <g id="ytick_6">
     <g id="text_12">
      <!-- 1.0 -->
      <g style="fill: #262626" transform="translate(28.566562 45.118232) scale(0.11 -0.11)">
       <use xlink:href="#DejaVuSans-31"/>
       <use xlink:href="#DejaVuSans-2e" transform="translate(63.623047 0)"/>
       <use xlink:href="#DejaVuSans-30" transform="translate(95.410156 0)"/>
      </g>
     </g>
    </g>
    <g id="text_13">
     <!-- ψ₂ nRMSE -->
     <g style="fill: #262626" transform="translate(22.070937 198.549375) rotate(-90) scale(0.12 -0.12)">
      <defs>
       <path id="DejaVuSans-3c8" d="M 1816 -78 
Q 1094 38 759 341 
Q 350 713 350 1472 
L 350 3500 
L 931 3500 
L 931 1494 
Q 931 922 1197 684 
Q 1428 478 1816 434 
L 1816 3500 
L 2388 3500 
L 2388 438 
Q 2797 481 3006 688 
Q 3272 950 3272 1497 
L 3272 3500 
L 3853 3500 
L 3853 1475 
Q 3853 688 3444 344 
Q 3075 34 2388 -75 
L 2388 -1331 
L 1816 -1331 
L 1816 -78 
z
" transform="scale(0.015625)"/>
       <path id="DejaVuSans-2082" d="M 838 356 
L 2163 356 
L 2163 0 
L 294 0 
L 294 343 
Q 400 440 597 615 
Q 1672 1568 1672 1862 
Q 1672 2068 1509 2194 
Q 1347 2321 1081 2321 
Q 919 2321 728 2266 
Q 538 2212 313 2103 
L 313 2487 
Q 553 2575 761 2618 
Q 969 2662 1147 2662 
Q 1600 2662 1872 2456 
Q 2144 2250 2144 1912 
Q 2144 1478 1109 590 
Q 934 440 838 356 
z
" transform="scale(0.015625)"/>
       <path id="DejaVuSans-6e" d="M 3513 2113 
L 3513 0 
L 2938 0 
L 2938 2094 
Q 2938 2591 2744 2837 
Q 2550 3084 2163 3084 
Q 1697 3084 1428 2787 
Q 1159 2491 1159 1978 
L 1159 0 
L 581 0 
L 581 3500 
L 1159 3500 
L 1159 2956 
Q 1366 3272 1645 3428 
Q 1925 3584 2291 3584 
Q 2894 3584 3203 3211 
Q 3513 2838 3513 2113 
z
" transform="scale(0.015625)"/>
       <path id="DejaVuSans-52" d="M 2841 2188 
Q 3044 2119 3236 1894 
Q 3428 1669 3622 1275 
L 4263 0 
L 3584 0 
L 2988 1197 
Q 2756 1666 2539 1819 
Q 2322 1972 1947 1972 
L 1259 1972 
L 1259 0 
L 628 0 
L 628 4666 
L 2053 4666 
Q 2853 4666 3247 4331 
Q 3641 3997 3641 3322 
Q 3641 2881 3436 2590 
Q 3231 2300 2841 2188 
z
M 1259 4147 
L 1259 2491 
L 2053 2491 
Q 2509 2491 2742 2702 
Q 2975 2913 2975 3322 
Q 2975 3731 2742 3939 
Q 2509 4147 2053 4147 
L 1259 4147 
z
" transform="scale(0.015625)"/>
       <path id="DejaVuSans-4d" d="M 628 4666 
L 1569 4666 
L 2759 1491 
L 3956 4666 
L 4897 4666 
L 4897 0 
L 4281 0 
L 4281 4097 
L 3078 897 
L 2444 897 
L 1241 4097 
L 1241 0 
L 628 0 
L 628 4666 
z
" transform="scale(0.015625)"/>
       <path id="DejaVuSans-53" d="M 3425 4513 
L 3425 3897 
Q 3066 4069 2747 4153 
Q 2428 4238 2131 4238 
Q 1616 4238 1336 4038 
Q 1056 3838 1056 3469 
Q 1056 3159 1242 3001 
Q 1428 2844 1947 2747 
L 2328 2669 
Q 3034 2534 3370 2195 
Q 3706 1856 3706 1288 
Q 3706 609 3251 259 
Q 2797 -91 1919 -91 
Q 1588 -91 1214 -16 
Q 841 59 441 206 
L 441 856 
Q 825 641 1194 531 
Q 1563 422 1919 422 
Q 2459 422 2753 634 
Q 3047 847 3047 1241 
Q 3047 1584 2836 1778 
Q 2625 1972 2144 2069 
L 1759 2144 
Q 1053 2284 737 2584 
Q 422 2884 422 3419 
Q 422 4038 858 4394 
Q 1294 4750 2059 4750 
Q 2388 4750 2728 4690 
Q 3069 4631 3425 4513 
z
" transform="scale(0.015625)"/>
       <path id="DejaVuSans-45" d="M 628 4666 
L 3578 4666 
L 3578 4134 
L 1259 4134 
L 1259 2753 
L 3481 2753 
L 3481 2222 
L 1259 2222 
L 1259 531 
L 3634 531 
L 3634 0 
L 628 0 
L 628 4666 
z
" transform="scale(0.015625)"/>
      </defs>
      <use xlink:href="#DejaVuSans-3c8"/>
      <use xlink:href="#DejaVuSans-2082" transform="translate(65.966797 0)"/>
      <use xlink:href="#DejaVuSans-20" transform="translate(106.054688 0)"/>
      <use xlink:href="#DejaVuSans-6e" transform="translate(137.841797 0)"/>
      <use xlink:href="#DejaVuSans-52" transform="translate(201.220703 0)"/>
      <use xlink:href="#DejaVuSans-4d" transform="translate(270.703125 0)"/>
      <use xlink:href="#DejaVuSans-53" transform="translate(356.982422 0)"/>
      <use xlink:href="#DejaVuSans-45" transform="translate(420.458984 0)"/>
     </g>
    </g>
   </g>
   <g id="FillBetweenPolyCollection_1">
    <defs>
     <path id="m190c2ab8fa" d="M 85.172727 -217.046781 
L 85.172727 -187.672079 
L 87.55126 -188.12287 
L 89.929792 -188.540687 
L 92.308324 -188.924353 
L 94.686857 -189.272873 
L 97.065389 -189.58545 
L 99.443921 -189.861501 
L 101.822453 -190.100672 
L 104.200986 -190.302864 
L 106.579518 -190.468226 
L 108.95805 -190.597151 
L 111.336583 -190.690287 
L 113.715115 -190.748534 
L 116.093647 -190.773036 
L 118.47218 -190.765157 
L 120.850712 -190.726482 
L 123.229244 -190.658803 
L 125.607777 -190.564097 
L 127.986309 -190.444513 
L 130.364841 -190.30233 
L 132.743373 -190.139921 
L 135.121906 -189.959739 
L 137.500438 -189.764304 
L 139.87897 -189.556148 
L 142.257503 -189.33779 
L 144.636035 -189.111691 
L 147.014567 -188.880248 
L 149.3931 -188.645761 
L 151.771632 -188.410403 
L 154.150164 -188.176201 
L 156.528697 -187.945022 
L 158.907229 -187.718571 
L 161.285761 -187.498363 
L 163.664294 -187.285729 
L 166.042826 -187.081819 
L 168.421358 -186.887609 
L 170.79989 -186.703906 
L 173.178423 -186.531347 
L 175.556955 -186.370415 
L 177.935487 -186.221447 
L 180.31402 -186.084648 
L 182.692552 -185.960103 
L 185.071084 -185.847796 
L 187.449617 -185.74763 
L 189.828149 -185.659433 
L 192.206681 -185.582973 
L 194.585214 -185.517963 
L 196.963746 -185.464084 
L 199.342278 -185.420986 
L 201.720811 -185.388293 
L 204.099343 -185.365622 
L 206.477875 -185.352591 
L 208.856407 -185.348824 
L 211.23494 -185.353961 
L 213.613472 -185.367658 
L 215.992004 -185.389578 
L 218.370537 -185.41939 
L 220.749069 -185.456768 
L 223.127601 -185.501409 
L 225.506134 -185.553024 
L 227.884666 -185.611326 
L 230.263198 -185.676032 
L 232.641731 -185.746855 
L 235.020263 -185.823505 
L 237.398795 -185.905683 
L 239.777327 -185.993089 
L 242.15586 -186.085434 
L 244.534392 -186.182423 
L 246.912924 -186.283749 
L 249.291457 -186.389103 
L 251.669989 -186.498181 
L 254.048521 -186.610687 
L 256.427054 -186.72634 
L 258.805586 -186.84488 
L 261.184118 -186.96607 
L 263.562651 -187.089691 
L 265.941183 -187.215537 
L 268.319715 -187.343425 
L 270.698248 -187.473198 
L 273.07678 -187.604717 
L 275.455312 -187.737875 
L 277.833844 -187.872589 
L 280.212377 -188.008771 
L 282.590909 -188.146339 
L 284.969441 -188.285212 
L 287.347974 -188.425309 
L 289.726506 -188.566539 
L 292.105038 -188.70878 
L 294.483571 -188.851893 
L 296.862103 -188.995711 
L 299.240635 -189.140027 
L 301.619168 -189.284586 
L 303.9977 -189.42909 
L 306.376232 -189.573192 
L 308.754765 -189.716496 
L 311.133297 -189.858538 
L 313.511829 -189.998801 
L 315.890361 -190.136712 
L 318.268894 -190.271642 
L 320.647426 -190.402893 
L 323.025958 -190.529721 
L 325.404491 -190.651332 
L 327.783023 -190.766899 
L 330.161555 -190.875554 
L 332.540088 -190.976415 
L 334.91862 -191.068585 
L 337.297152 -191.151165 
L 339.675685 -191.223265 
L 342.054217 -191.284014 
L 344.432749 -191.332587 
L 346.811281 -191.368211 
L 349.189814 -191.390156 
L 351.568346 -191.397775 
L 353.946878 -191.390495 
L 356.325411 -191.367821 
L 358.703943 -191.329341 
L 361.082475 -191.274727 
L 363.461008 -191.203734 
L 365.83954 -191.116205 
L 368.218072 -191.012075 
L 370.596605 -190.891353 
L 372.975137 -190.754127 
L 375.353669 -190.60056 
L 377.732202 -190.430889 
L 380.110734 -190.24542 
L 382.489266 -190.044508 
L 384.867798 -189.828555 
L 387.246331 -189.598009 
L 389.624863 -189.353373 
L 392.003395 -189.095194 
L 394.381928 -188.824067 
L 396.76046 -188.540634 
L 399.138992 -188.245583 
L 401.517525 -187.939642 
L 403.896057 -187.623564 
L 406.274589 -187.298128 
L 408.653122 -186.964133 
L 411.031654 -186.622406 
L 413.410186 -186.273804 
L 415.788719 -185.919198 
L 418.167251 -185.559473 
L 420.545783 -185.195517 
L 422.924315 -184.828212 
L 425.302848 -184.458417 
L 427.68138 -184.086973 
L 430.059912 -183.714692 
L 432.438445 -183.342357 
L 434.816977 -182.970721 
L 437.195509 -182.600503 
L 439.574042 -182.232383 
L 441.952574 -181.867013 
L 444.331106 -181.505018 
L 446.709639 -181.147001 
L 449.088171 -180.793527 
L 451.466703 -180.445129 
L 453.845235 -180.102327 
L 456.223768 -179.765628 
L 458.6023 -179.435539 
L 460.980832 -179.112578 
L 463.359365 -178.797266 
L 465.737897 -178.49014 
L 468.116429 -178.191742 
L 470.494962 -177.902602 
L 472.873494 -177.623247 
L 475.252026 -177.354205 
L 477.630559 -177.095983 
L 480.009091 -176.849085 
L 482.387623 -176.614011 
L 484.766156 -176.391257 
L 487.144688 -176.181303 
L 489.52322 -175.984606 
L 491.901752 -175.801574 
L 494.280285 -175.632571 
L 496.658817 -175.477888 
L 499.037349 -175.337722 
L 501.415882 -175.212182 
L 503.794414 -175.101282 
L 506.172946 -175.004929 
L 508.551479 -174.922947 
L 510.930011 -174.855066 
L 513.308543 -174.80091 
L 515.687076 -174.759997 
L 518.065608 -174.731732 
L 520.44414 -174.715382 
L 522.822673 -174.710089 
L 525.201205 -174.714894 
L 527.579737 -174.728772 
L 529.958269 -174.750636 
L 532.336802 -174.779355 
L 534.715334 -174.813775 
L 537.093866 -174.85273 
L 539.472399 -174.89506 
L 541.850931 -174.93965 
L 544.229463 -174.98544 
L 546.607996 -175.031423 
L 548.986528 -175.076681 
L 551.36506 -175.1204 
L 553.743593 -175.161878 
L 556.122125 -175.200539 
L 558.500657 -175.235944 
L 560.879189 -175.267792 
L 563.257722 -175.295914 
L 565.636254 -175.320271 
L 568.014786 -175.340954 
L 570.393319 -175.358165 
L 572.771851 -175.372215 
L 575.150383 -175.383517 
L 577.528916 -175.392545 
L 579.907448 -175.399826 
L 582.28598 -175.405922 
L 584.664513 -175.411389 
L 587.043045 -175.416797 
L 589.421577 -175.422705 
L 591.80011 -175.429638 
L 594.178642 -175.43806 
L 596.557174 -175.448363 
L 598.935706 -175.460852 
L 601.314239 -175.475716 
L 603.692771 -175.493027 
L 606.071303 -175.51272 
L 608.449836 -175.534581 
L 610.828368 -175.558243 
L 613.2069 -175.583205 
L 615.585433 -175.608837 
L 617.963965 -175.634369 
L 620.342497 -175.658913 
L 622.72103 -175.681461 
L 625.099562 -175.700906 
L 627.478094 -175.716048 
L 629.856627 -175.725631 
L 632.235159 -175.72837 
L 634.613691 -175.722968 
L 636.992223 -175.708145 
L 639.370756 -175.682669 
L 641.749288 -175.645381 
L 644.12782 -175.595211 
L 646.506353 -175.531212 
L 648.884885 -175.452587 
L 651.263417 -175.358705 
L 653.64195 -175.249112 
L 656.020482 -175.123544 
L 658.399014 -174.981955 
L 660.777547 -174.824515 
L 663.156079 -174.651604 
L 665.534611 -174.463818 
L 667.913143 -174.261985 
L 670.291676 -174.047164 
L 672.670208 -173.820634 
L 675.04874 -173.583916 
L 677.427273 -173.338753 
L 677.427273 -219.730776 
L 677.427273 -219.730776 
L 675.04874 -219.98774 
L 672.670208 -220.214954 
L 670.291676 -220.410818 
L 667.913143 -220.574018 
L 665.534611 -220.703519 
L 663.156079 -220.798579 
L 660.777547 -220.858772 
L 658.399014 -220.884013 
L 656.020482 -220.874561 
L 653.64195 -220.831022 
L 651.263417 -220.754332 
L 648.884885 -220.64573 
L 646.506353 -220.506753 
L 644.12782 -220.339212 
L 641.749288 -220.14517 
L 639.370756 -219.926916 
L 636.992223 -219.686946 
L 634.613691 -219.42793 
L 632.235159 -219.152654 
L 629.856627 -218.863997 
L 627.478094 -218.56489 
L 625.099562 -218.258271 
L 622.72103 -217.947037 
L 620.342497 -217.634016 
L 617.963965 -217.321932 
L 615.585433 -217.013379 
L 613.2069 -216.710781 
L 610.828368 -216.416376 
L 608.449836 -216.132218 
L 606.071303 -215.860153 
L 603.692771 -215.601803 
L 601.314239 -215.358585 
L 598.935706 -215.13172 
L 596.557174 -214.922194 
L 594.178642 -214.730763 
L 591.80011 -214.557942 
L 589.421577 -214.404019 
L 587.043045 -214.269079 
L 584.664513 -214.153039 
L 582.28598 -214.055682 
L 579.907448 -213.976658 
L 577.528916 -213.915512 
L 575.150383 -213.87176 
L 572.771851 -213.844874 
L 570.393319 -213.834304 
L 568.014786 -213.839507 
L 565.636254 -213.859938 
L 563.257722 -213.895051 
L 560.879189 -213.944302 
L 558.500657 -214.007172 
L 556.122125 -214.083164 
L 553.743593 -214.171809 
L 551.36506 -214.272718 
L 548.986528 -214.385553 
L 546.607996 -214.509999 
L 544.229463 -214.64579 
L 541.850931 -214.792699 
L 539.472399 -214.95055 
L 537.093866 -215.119197 
L 534.715334 -215.298478 
L 532.336802 -215.488171 
L 529.958269 -215.688019 
L 527.579737 -215.89772 
L 525.201205 -216.116854 
L 522.822673 -216.344902 
L 520.44414 -216.581252 
L 518.065608 -216.825195 
L 515.687076 -217.075952 
L 513.308543 -217.332692 
L 510.930011 -217.594516 
L 508.551479 -217.860445 
L 506.172946 -218.129356 
L 503.794414 -218.399968 
L 501.415882 -218.670881 
L 499.037349 -218.940578 
L 496.658817 -219.207485 
L 494.280285 -219.469988 
L 491.901752 -219.726455 
L 489.52322 -219.975301 
L 487.144688 -220.215008 
L 484.766156 -220.44412 
L 482.387623 -220.661211 
L 480.009091 -220.864881 
L 477.630559 -221.053806 
L 475.252026 -221.226748 
L 472.873494 -221.382579 
L 470.494962 -221.520367 
L 468.116429 -221.639374 
L 465.737897 -221.739076 
L 463.359365 -221.819192 
L 460.980832 -221.879693 
L 458.6023 -221.920759 
L 456.223768 -221.942729 
L 453.845235 -221.946148 
L 451.466703 -221.931764 
L 449.088171 -221.900488 
L 446.709639 -221.85342 
L 444.331106 -221.79184 
L 441.952574 -221.717204 
L 439.574042 -221.63113 
L 437.195509 -221.535322 
L 434.816977 -221.431542 
L 432.438445 -221.32156 
L 430.059912 -221.207149 
L 427.68138 -221.090027 
L 425.302848 -220.971856 
L 422.924315 -220.85425 
L 420.545783 -220.738757 
L 418.167251 -220.626856 
L 415.788719 -220.519944 
L 413.410186 -220.419274 
L 411.031654 -220.325959 
L 408.653122 -220.240952 
L 406.274589 -220.165058 
L 403.896057 -220.098925 
L 401.517525 -220.043076 
L 399.138992 -219.997929 
L 396.76046 -219.963819 
L 394.381928 -219.941 
L 392.003395 -219.929631 
L 389.624863 -219.929747 
L 387.246331 -219.9413 
L 384.867798 -219.964189 
L 382.489266 -219.998234 
L 380.110734 -220.043204 
L 377.732202 -220.09884 
L 375.353669 -220.164877 
L 372.975137 -220.24105 
L 370.596605 -220.327065 
L 368.218072 -220.422599 
L 365.83954 -220.527294 
L 363.461008 -220.640779 
L 361.082475 -220.762676 
L 358.703943 -220.892579 
L 356.325411 -221.030074 
L 353.946878 -221.174748 
L 351.568346 -221.326194 
L 349.189814 -221.484001 
L 346.811281 -221.647734 
L 344.432749 -221.816931 
L 342.054217 -221.991104 
L 339.675685 -222.169747 
L 337.297152 -222.35234 
L 334.91862 -222.538341 
L 332.540088 -222.727193 
L 330.161555 -222.918331 
L 327.783023 -223.111182 
L 325.404491 -223.305172 
L 323.025958 -223.499711 
L 320.647426 -223.694201 
L 318.268894 -223.888038 
L 315.890361 -224.080613 
L 313.511829 -224.271315 
L 311.133297 -224.459534 
L 308.754765 -224.644661 
L 306.376232 -224.826093 
L 303.9977 -225.003238 
L 301.619168 -225.175515 
L 299.240635 -225.342355 
L 296.862103 -225.503202 
L 294.483571 -225.657519 
L 292.105038 -225.80479 
L 289.726506 -225.944527 
L 287.347974 -226.076269 
L 284.969441 -226.199593 
L 282.590909 -226.314116 
L 280.212377 -226.419495 
L 277.833844 -226.515439 
L 275.455312 -226.601709 
L 273.07678 -226.678127 
L 270.698248 -226.744577 
L 268.319715 -226.801006 
L 265.941183 -226.847426 
L 263.562651 -226.883912 
L 261.184118 -226.910607 
L 258.805586 -226.927712 
L 256.427054 -226.935494 
L 254.048521 -226.934271 
L 251.669989 -226.924405 
L 249.291457 -226.906296 
L 246.912924 -226.880372 
L 244.534392 -226.847075 
L 242.15586 -226.806856 
L 239.777327 -226.760165 
L 237.398795 -226.707447 
L 235.020263 -226.649129 
L 232.641731 -226.585611 
L 230.263198 -226.517265 
L 227.884666 -226.444438 
L 225.506134 -226.367449 
L 223.127601 -226.286594 
L 220.749069 -226.20215 
L 218.370537 -226.114381 
L 215.992004 -226.023547 
L 213.613472 -225.929905 
L 211.23494 -225.833724 
L 208.856407 -225.735299 
L 206.477875 -225.63495 
L 204.099343 -225.533028 
L 201.720811 -225.429923 
L 199.342278 -225.326064 
L 196.963746 -225.221923 
L 194.585214 -225.118007 
L 192.206681 -225.014858 
L 189.828149 -224.913052 
L 187.449617 -224.813176 
L 185.071084 -224.715821 
L 182.692552 -224.62157 
L 180.31402 -224.530983 
L 177.935487 -224.444584 
L 175.556955 -224.362834 
L 173.178423 -224.286128 
L 170.79989 -224.214775 
L 168.421358 -224.148974 
L 166.042826 -224.088802 
L 163.664294 -224.034201 
L 161.285761 -223.984961 
L 158.907229 -223.940707 
L 156.528697 -223.900891 
L 154.150164 -223.864788 
L 151.771632 -223.831488 
L 149.3931 -223.799897 
L 147.014567 -223.768737 
L 144.636035 -223.736554 
L 142.257503 -223.701727 
L 139.87897 -223.662482 
L 137.500438 -223.616903 
L 135.121906 -223.562964 
L 132.743373 -223.498538 
L 130.364841 -223.421435 
L 127.986309 -223.329423 
L 125.607777 -223.220254 
L 123.229244 -223.091697 
L 120.850712 -222.941568 
L 118.47218 -222.76776 
L 116.093647 -222.56827 
L 113.715115 -222.341227 
L 111.336583 -222.084919 
L 108.95805 -221.797811 
L 106.579518 -221.478562 
L 104.200986 -221.126038 
L 101.822453 -220.739327 
L 99.443921 -220.317749 
L 97.065389 -219.860851 
L 94.686857 -219.368408 
L 92.308324 -218.840432 
L 89.929792 -218.277162 
L 87.55126 -217.679055 
L 85.172727 -217.046781 
z
" style="stroke: #000080; stroke-opacity: 0.1"/>
    </defs>
    <g clip-path="url(#p2d9fea2234)">
     <use xlink:href="#m190c2ab8fa" x="0" y="360" style="fill: #000080; fill-opacity: 0.1; stroke: #000080; stroke-opacity: 0.1"/>
    </g>
   </g>
   <g id="FillBetweenPolyCollection_2">
    <defs>
     <path id="m7d048f1f0b" d="M 85.172727 -255.439521 
L 85.172727 -237.810674 
L 87.55126 -238.150681 
L 89.929792 -238.474713 
L 92.308324 -238.782504 
L 94.686857 -239.073974 
L 97.065389 -239.349227 
L 99.443921 -239.608558 
L 101.822453 -239.852445 
L 104.200986 -240.081537 
L 106.579518 -240.296638 
L 108.95805 -240.498686 
L 111.336583 -240.688724 
L 113.715115 -240.867879 
L 116.093647 -241.037315 
L 118.47218 -241.198198 
L 120.850712 -241.351662 
L 123.229244 -241.49877 
L 125.607777 -241.640484 
L 127.986309 -241.77763 
L 130.364841 -241.910858 
L 132.743373 -242.040608 
L 135.121906 -242.167098 
L 137.500438 -242.290307 
L 139.87897 -242.409966 
L 142.257503 -242.525552 
L 144.636035 -242.636286 
L 147.014567 -242.741158 
L 149.3931 -242.838948 
L 151.771632 -242.928249 
L 154.150164 -243.007508 
L 156.528697 -243.075065 
L 158.907229 -243.129205 
L 161.285761 -243.168203 
L 163.664294 -243.190383 
L 166.042826 -243.194174 
L 168.421358 -243.17817 
L 170.79989 -243.141189 
L 173.178423 -243.082308 
L 175.556955 -243.000927 
L 177.935487 -242.896806 
L 180.31402 -242.770105 
L 182.692552 -242.621415 
L 185.071084 -242.45179 
L 187.449617 -242.262766 
L 189.828149 -242.056364 
L 192.206681 -241.835088 
L 194.585214 -241.601916 
L 196.963746 -241.360283 
L 199.342278 -241.114047 
L 201.720811 -240.867441 
L 204.099343 -240.625024 
L 206.477875 -240.391623 
L 208.856407 -240.172256 
L 211.23494 -239.972055 
L 213.613472 -239.796178 
L 215.992004 -239.649715 
L 218.370537 -239.537588 
L 220.749069 -239.464457 
L 223.127601 -239.434636 
L 225.506134 -239.452006 
L 227.884666 -239.519935 
L 230.263198 -239.641214 
L 232.641731 -239.818007 
L 235.020263 -240.05181 
L 237.398795 -240.343442 
L 239.777327 -240.693039 
L 242.15586 -241.100076 
L 244.534392 -241.563396 
L 246.912924 -242.08125 
L 249.291457 -242.65136 
L 251.669989 -243.27098 
L 254.048521 -243.936971 
L 256.427054 -244.645872 
L 258.805586 -245.393966 
L 261.184118 -246.177344 
L 263.562651 -246.991959 
L 265.941183 -247.833662 
L 268.319715 -248.698237 
L 270.698248 -249.581412 
L 273.07678 -250.478857 
L 275.455312 -251.386165 
L 277.833844 -252.298832 
L 280.212377 -253.212218 
L 282.590909 -254.121525 
L 284.969441 -255.021792 
L 287.347974 -255.907907 
L 289.726506 -256.774672 
L 292.105038 -257.616923 
L 294.483571 -258.429705 
L 296.862103 -259.208508 
L 299.240635 -259.949515 
L 301.619168 -260.649844 
L 303.9977 -261.307726 
L 306.376232 -261.92258 
L 308.754765 -262.494966 
L 311.133297 -263.026427 
L 313.511829 -263.519245 
L 315.890361 -263.97615 
L 318.268894 -264.400023 
L 320.647426 -264.793628 
L 323.025958 -265.159399 
L 325.404491 -265.499271 
L 327.783023 -265.814576 
L 330.161555 -266.105986 
L 332.540088 -266.373487 
L 334.91862 -266.616391 
L 337.297152 -266.833379 
L 339.675685 -267.022555 
L 342.054217 -267.181513 
L 344.432749 -267.30743 
L 346.811281 -267.397141 
L 349.189814 -267.447234 
L 351.568346 -267.454144 
L 353.946878 -267.414245 
L 356.325411 -267.323942 
L 358.703943 -267.179748 
L 361.082475 -266.978375 
L 363.461008 -266.716802 
L 365.83954 -266.392349 
L 368.218072 -266.002743 
L 370.596605 -265.546167 
L 372.975137 -265.02131 
L 375.353669 -264.427417 
L 377.732202 -263.764317 
L 380.110734 -263.032442 
L 382.489266 -262.232849 
L 384.867798 -261.367227 
L 387.246331 -260.437911 
L 389.624863 -259.447872 
L 392.003395 -258.400709 
L 394.381928 -257.300627 
L 396.76046 -256.152408 
L 399.138992 -254.961377 
L 401.517525 -253.733336 
L 403.896057 -252.474514 
L 406.274589 -251.191486 
L 408.653122 -249.891102 
L 411.031654 -248.580404 
L 413.410186 -247.266543 
L 415.788719 -245.956671 
L 418.167251 -244.657832 
L 420.545783 -243.376855 
L 422.924315 -242.12025 
L 425.302848 -240.894105 
L 427.68138 -239.703983 
L 430.059912 -238.554831 
L 432.438445 -237.450909 
L 434.816977 -236.395744 
L 437.195509 -235.39207 
L 439.574042 -234.441787 
L 441.952574 -233.545986 
L 444.331106 -232.70495 
L 446.709639 -231.918186 
L 449.088171 -231.18447 
L 451.466703 -230.501895 
L 453.845235 -229.86798 
L 456.223768 -229.279751 
L 458.6023 -228.733851 
L 460.980832 -228.226632 
L 463.359365 -227.754261 
L 465.737897 -227.31282 
L 468.116429 -226.898415 
L 470.494962 -226.507232 
L 472.873494 -226.13563 
L 475.252026 -225.780225 
L 477.630559 -225.437907 
L 480.009091 -225.105953 
L 482.387623 -224.782046 
L 484.766156 -224.464307 
L 487.144688 -224.151308 
L 489.52322 -223.842076 
L 491.901752 -223.536049 
L 494.280285 -223.233125 
L 496.658817 -222.933591 
L 499.037349 -222.638093 
L 501.415882 -222.347605 
L 503.794414 -222.063377 
L 506.172946 -221.786891 
L 508.551479 -221.519805 
L 510.930011 -221.263909 
L 513.308543 -221.021069 
L 515.687076 -220.793156 
L 518.065608 -220.581993 
L 520.44414 -220.389289 
L 522.822673 -220.216579 
L 525.201205 -220.065192 
L 527.579737 -219.936241 
L 529.958269 -219.830582 
L 532.336802 -219.748796 
L 534.715334 -219.691193 
L 537.093866 -219.657799 
L 539.472399 -219.648357 
L 541.850931 -219.662369 
L 544.229463 -219.699102 
L 546.607996 -219.757601 
L 548.986528 -219.836736 
L 551.36506 -219.935217 
L 553.743593 -220.051656 
L 556.122125 -220.184614 
L 558.500657 -220.332638 
L 560.879189 -220.494301 
L 563.257722 -220.668237 
L 565.636254 -220.853172 
L 568.014786 -221.047964 
L 570.393319 -221.25162 
L 572.771851 -221.46332 
L 575.150383 -221.682429 
L 577.528916 -221.90849 
L 579.907448 -222.141236 
L 582.28598 -222.380597 
L 584.664513 -222.626662 
L 587.043045 -222.879702 
L 589.421577 -223.140141 
L 591.80011 -223.40854 
L 594.178642 -223.685564 
L 596.557174 -223.971961 
L 598.935706 -224.268532 
L 601.314239 -224.57611 
L 603.692771 -224.895525 
L 606.071303 -225.227554 
L 608.449836 -225.572875 
L 610.828368 -225.932054 
L 613.2069 -226.305522 
L 615.585433 -226.693557 
L 617.963965 -227.096264 
L 620.342497 -227.513566 
L 622.72103 -227.945198 
L 625.099562 -228.390703 
L 627.478094 -228.84942 
L 629.856627 -229.3205 
L 632.235159 -229.802922 
L 634.613691 -230.295507 
L 636.992223 -230.796936 
L 639.370756 -231.305756 
L 641.749288 -231.82041 
L 644.12782 -232.339228 
L 646.506353 -232.86043 
L 648.884885 -233.382131 
L 651.263417 -233.902315 
L 653.64195 -234.418803 
L 656.020482 -234.929206 
L 658.399014 -235.43085 
L 660.777547 -235.920698 
L 663.156079 -236.395245 
L 665.534611 -236.850472 
L 667.913143 -237.281856 
L 670.291676 -237.684541 
L 672.670208 -238.053688 
L 675.04874 -238.385054 
L 677.427273 -238.67568 
L 677.427273 -243.953667 
L 677.427273 -243.953667 
L 675.04874 -243.684221 
L 672.670208 -243.463719 
L 670.291676 -243.289491 
L 667.913143 -243.157934 
L 665.534611 -243.065173 
L 663.156079 -243.007622 
L 660.777547 -242.982319 
L 658.399014 -242.987089 
L 656.020482 -243.02051 
L 653.64195 -243.08182 
L 651.263417 -243.170767 
L 648.884885 -243.287459 
L 646.506353 -243.432226 
L 644.12782 -243.605506 
L 641.749288 -243.807745 
L 639.370756 -244.039321 
L 636.992223 -244.30048 
L 634.613691 -244.591269 
L 632.235159 -244.911468 
L 629.856627 -245.26056 
L 627.478094 -245.637706 
L 625.099562 -246.041716 
L 622.72103 -246.471045 
L 620.342497 -246.923823 
L 617.963965 -247.39786 
L 615.585433 -247.890678 
L 613.2069 -248.399535 
L 610.828368 -248.921464 
L 608.449836 -249.45335 
L 606.071303 -249.991965 
L 603.692771 -250.534015 
L 601.314239 -251.076204 
L 598.935706 -251.615299 
L 596.557174 -252.148142 
L 594.178642 -252.671681 
L 591.80011 -253.183001 
L 589.421577 -253.679379 
L 587.043045 -254.158335 
L 584.664513 -254.617687 
L 582.28598 -255.055591 
L 579.907448 -255.470559 
L 577.528916 -255.861481 
L 575.150383 -256.227699 
L 572.771851 -256.568965 
L 570.393319 -256.885467 
L 568.014786 -257.177844 
L 565.636254 -257.44715 
L 563.257722 -257.694809 
L 560.879189 -257.92259 
L 558.500657 -258.132586 
L 556.122125 -258.32719 
L 553.743593 -258.509049 
L 551.36506 -258.681067 
L 548.986528 -258.846335 
L 546.607996 -259.008067 
L 544.229463 -259.169574 
L 541.850931 -259.334222 
L 539.472399 -259.505384 
L 537.093866 -259.68637 
L 534.715334 -259.880348 
L 532.336802 -260.090274 
L 529.958269 -260.318877 
L 527.579737 -260.568631 
L 525.201205 -260.841695 
L 522.822673 -261.139923 
L 520.44414 -261.464879 
L 518.065608 -261.81784 
L 515.687076 -262.19983 
L 513.308543 -262.611682 
L 510.930011 -263.054038 
L 508.551479 -263.527362 
L 506.172946 -264.031936 
L 503.794414 -264.567893 
L 501.415882 -265.135294 
L 499.037349 -265.734163 
L 496.658817 -266.364573 
L 494.280285 -267.026699 
L 491.901752 -267.720862 
L 489.52322 -268.44759 
L 487.144688 -269.207662 
L 484.766156 -270.002105 
L 482.387623 -270.832153 
L 480.009091 -271.699211 
L 477.630559 -272.604864 
L 475.252026 -273.550849 
L 472.873494 -274.539023 
L 470.494962 -275.571349 
L 468.116429 -276.64985 
L 465.737897 -277.776535 
L 463.359365 -278.953336 
L 460.980832 -280.18201 
L 458.6023 -281.463998 
L 456.223768 -282.800284 
L 453.845235 -284.191342 
L 451.466703 -285.637028 
L 449.088171 -287.136489 
L 446.709639 -288.688122 
L 444.331106 -290.289521 
L 441.952574 -291.937431 
L 439.574042 -293.627732 
L 437.195509 -295.35537 
L 434.816977 -297.114365 
L 432.438445 -298.897811 
L 430.059912 -300.697955 
L 427.68138 -302.506248 
L 425.302848 -304.313449 
L 422.924315 -306.10975 
L 420.545783 -307.884897 
L 418.167251 -309.628329 
L 415.788719 -311.329291 
L 413.410186 -312.976932 
L 411.031654 -314.560445 
L 408.653122 -316.069204 
L 406.274589 -317.492887 
L 403.896057 -318.821589 
L 401.517525 -320.045958 
L 399.138992 -321.157304 
L 396.76046 -322.14769 
L 394.381928 -323.010005 
L 392.003395 -323.73802 
L 389.624863 -324.326412 
L 387.246331 -324.77084 
L 384.867798 -325.068002 
L 382.489266 -325.21563 
L 380.110734 -325.21252 
L 377.732202 -325.058546 
L 375.353669 -324.754676 
L 372.975137 -324.302957 
L 370.596605 -323.706479 
L 368.218072 -322.969344 
L 365.83954 -322.096629 
L 363.461008 -321.094362 
L 361.082475 -319.969472 
L 358.703943 -318.729703 
L 356.325411 -317.383566 
L 353.946878 -315.940272 
L 351.568346 -314.409648 
L 349.189814 -312.802046 
L 346.811281 -311.128236 
L 344.432749 -309.399305 
L 342.054217 -307.626551 
L 339.675685 -305.821386 
L 337.297152 -303.995239 
L 334.91862 -302.159446 
L 332.540088 -300.325167 
L 330.161555 -298.503301 
L 327.783023 -296.704406 
L 325.404491 -294.938624 
L 323.025958 -293.215598 
L 320.647426 -291.544392 
L 318.268894 -289.933408 
L 315.890361 -288.39027 
L 313.511829 -286.921703 
L 311.133297 -285.533381 
L 308.754765 -284.229742 
L 306.376232 -283.013805 
L 303.9977 -281.887012 
L 301.619168 -280.849128 
L 299.240635 -279.898239 
L 296.862103 -279.030871 
L 294.483571 -278.242239 
L 292.105038 -277.526578 
L 289.726506 -276.877548 
L 287.347974 -276.288629 
L 284.969441 -275.753485 
L 282.590909 -275.266255 
L 280.212377 -274.821761 
L 277.833844 -274.415649 
L 275.455312 -274.044447 
L 273.07678 -273.705579 
L 270.698248 -273.397328 
L 268.319715 -273.11877 
L 265.941183 -272.869686 
L 263.562651 -272.650454 
L 261.184118 -272.461936 
L 258.805586 -272.305348 
L 256.427054 -272.182137 
L 254.048521 -272.093851 
L 251.669989 -272.042011 
L 249.291457 -272.027994 
L 246.912924 -272.052913 
L 244.534392 -272.117515 
L 242.15586 -272.222091 
L 239.777327 -272.366401 
L 237.398795 -272.549621 
L 235.020263 -272.770297 
L 232.641731 -273.026336 
L 230.263198 -273.315005 
L 227.884666 -273.632957 
L 225.506134 -273.97627 
L 223.127601 -274.340505 
L 220.749069 -274.720782 
L 218.370537 -275.111861 
L 215.992004 -275.508236 
L 213.613472 -275.904232 
L 211.23494 -276.294103 
L 208.856407 -276.672138 
L 206.477875 -277.032743 
L 204.099343 -277.370538 
L 201.720811 -277.680436 
L 199.342278 -277.957717 
L 196.963746 -278.198087 
L 194.585214 -278.39773 
L 192.206681 -278.553354 
L 189.828149 -278.66222 
L 187.449617 -278.722148 
L 185.071084 -278.731534 
L 182.692552 -278.689348 
L 180.31402 -278.595124 
L 177.935487 -278.448946 
L 175.556955 -278.251416 
L 173.178423 -278.003633 
L 170.79989 -277.707155 
L 168.421358 -277.363948 
L 166.042826 -276.976345 
L 163.664294 -276.546997 
L 161.285761 -276.078817 
L 158.907229 -275.574927 
L 156.528697 -275.038605 
L 154.150164 -274.473224 
L 151.771632 -273.8822 
L 149.3931 -273.268938 
L 147.014567 -272.63678 
L 144.636035 -271.988957 
L 142.257503 -271.32854 
L 139.87897 -270.65841 
L 137.500438 -269.981218 
L 135.121906 -269.29936 
L 132.743373 -268.614958 
L 130.364841 -267.929847 
L 127.986309 -267.24557 
L 125.607777 -266.563375 
L 123.229244 -265.884225 
L 120.850712 -265.208805 
L 118.47218 -264.537548 
L 116.093647 -263.870658 
L 113.715115 -263.208133 
L 111.336583 -262.549794 
L 108.95805 -261.895314 
L 106.579518 -261.244244 
L 104.200986 -260.596044 
L 101.822453 -259.950112 
L 99.443921 -259.30581 
L 97.065389 -258.662484 
L 94.686857 -258.019494 
L 92.308324 -257.376229 
L 89.929792 -256.73213 
L 87.55126 -256.0867 
L 85.172727 -255.439521 
z
" style="stroke: #000080; stroke-opacity: 0.1"/>
    </defs>
    <g clip-path="url(#p2d9fea2234)">
     <use xlink:href="#m7d048f1f0b" x="0" y="360" style="fill: #000080; fill-opacity: 0.1; stroke: #000080; stroke-opacity: 0.1"/>
    </g>
   </g>
   <g id="line2d_1">
    <path d="M 85.172727 157.64057 
L 92.308324 156.117607 
L 99.443921 154.910375 
L 106.579518 154.026606 
L 113.715115 153.455119 
L 120.850712 153.165975 
L 127.986309 153.113032 
L 137.500438 153.309396 
L 154.150164 153.979505 
L 168.421358 154.481709 
L 180.31402 154.692185 
L 192.206681 154.701084 
L 208.856407 154.457938 
L 232.641731 153.833767 
L 263.562651 153.013198 
L 280.212377 152.785867 
L 299.240635 152.758809 
L 320.647426 152.951453 
L 342.054217 153.362441 
L 358.703943 153.88904 
L 377.732202 154.735136 
L 413.410186 156.653461 
L 449.088171 158.652993 
L 463.359365 159.691771 
L 480.009091 161.143017 
L 503.794414 163.249375 
L 515.687076 164.082025 
L 527.579737 164.686754 
L 539.472399 165.077195 
L 553.743593 165.333156 
L 570.393319 165.403765 
L 582.28598 165.269198 
L 594.178642 164.915589 
L 606.071303 164.313564 
L 622.72103 163.185751 
L 636.992223 162.302454 
L 646.506353 161.981018 
L 653.64195 161.959933 
L 660.777547 162.158356 
L 667.913143 162.581998 
L 675.04874 163.214172 
L 677.427273 163.465236 
L 677.427273 163.465236 
" clip-path="url(#p2d9fea2234)" style="fill: none; stroke: #000080; stroke-width: 1.5; stroke-linecap: round"/>
   </g>
   <g id="line2d_2">
    <path d="M 85.172727 113.374903 
L 97.065389 110.994145 
L 111.336583 108.380741 
L 139.87897 103.465812 
L 151.771632 101.594776 
L 158.907229 100.647934 
L 166.042826 99.914741 
L 173.178423 99.45703 
L 180.31402 99.317386 
L 187.449617 99.507543 
L 194.585214 100.000177 
L 201.720811 100.726061 
L 223.127601 103.11243 
L 230.263198 103.52189 
L 235.020263 103.588946 
L 239.777327 103.47028 
L 244.534392 103.159545 
L 249.291457 102.660323 
L 254.048521 101.984589 
L 261.184118 100.68036 
L 268.319715 99.091497 
L 275.455312 97.284694 
L 284.969441 94.612361 
L 294.483571 91.664028 
L 301.619168 89.250514 
L 308.754765 86.637646 
L 315.890361 83.81679 
L 325.404491 79.781053 
L 342.054217 72.595968 
L 346.811281 70.737312 
L 351.568346 69.068104 
L 356.325411 67.646246 
L 361.082475 66.526077 
L 365.83954 65.755511 
L 370.596605 65.373677 
L 375.353669 65.408954 
L 380.110734 65.877519 
L 384.867798 66.782386 
L 389.624863 68.112858 
L 394.381928 69.844684 
L 399.138992 71.94066 
L 403.896057 74.351949 
L 408.653122 77.019847 
L 415.788719 81.357019 
L 434.816977 93.244945 
L 439.574042 95.965241 
L 444.331106 98.502765 
L 449.088171 100.83952 
L 453.845235 102.970339 
L 458.6023 104.901076 
L 463.359365 106.646202 
L 470.494962 108.96071 
L 477.630559 110.978615 
L 484.766156 112.766794 
L 494.280285 114.870088 
L 503.794414 116.684365 
L 510.930011 117.841027 
L 518.065608 118.800084 
L 525.201205 119.546556 
L 532.336802 120.080465 
L 539.472399 120.42313 
L 548.986528 120.658465 
L 579.907448 121.194102 
L 594.178642 121.821377 
L 610.828368 122.573241 
L 620.342497 122.781306 
L 627.478094 122.756437 
L 634.613691 122.556612 
L 644.12782 122.027633 
L 653.64195 121.249688 
L 665.534611 120.042177 
L 677.427273 118.685327 
L 677.427273 118.685327 
" clip-path="url(#p2d9fea2234)" style="fill: none; stroke-dasharray: 5.55,2.4; stroke-dashoffset: 0; stroke: #000080; stroke-width: 1.5"/>
   </g>
   <g id="patch_3">
    <path d="M 55.56 310.98 
L 55.56 28.08 
" style="fill: none; stroke: #ffffff; stroke-width: 1.25; stroke-linejoin: miter; stroke-linecap: square"/>
   </g>
   <g id="patch_4">
    <path d="M 707.04 310.98 
L 707.04 28.08 
" style="fill: none; stroke: #ffffff; stroke-width: 1.25; stroke-linejoin: miter; stroke-linecap: square"/>
   </g>
   <g id="patch_5">
    <path d="M 55.56 310.98 
L 707.04 310.98 
" style="fill: none; stroke: #ffffff; stroke-width: 1.25; stroke-linejoin: miter; stroke-linecap: square"/>
   </g>
   <g id="patch_6">
    <path d="M 55.56 28.08 
L 707.04 28.08 
" style="fill: none; stroke: #ffffff; stroke-width: 1.25; stroke-linejoin: miter; stroke-linecap: square"/>
   </g>
   <g id="text_14">
    <!-- QG3L - [32, 96] x [64, 192] -->
    <g style="fill: #262626" transform="translate(300.075 22.08) scale(0.12 -0.12)">
     <defs>
      <path id="DejaVuSans-51" d="M 2522 4238 
Q 1834 4238 1429 3725 
Q 1025 3213 1025 2328 
Q 1025 1447 1429 934 
Q 1834 422 2522 422 
Q 3209 422 3611 934 
Q 4013 1447 4013 2328 
Q 4013 3213 3611 3725 
Q 3209 4238 2522 4238 
z
M 3406 84 
L 4238 -825 
L 3475 -825 
L 2784 -78 
Q 2681 -84 2626 -87 
Q 2572 -91 2522 -91 
Q 1538 -91 948 567 
Q 359 1225 359 2328 
Q 359 3434 948 4092 
Q 1538 4750 2522 4750 
Q 3503 4750 4090 4092 
Q 4678 3434 4678 2328 
Q 4678 1516 4351 937 
Q 4025 359 3406 84 
z
" transform="scale(0.015625)"/>
      <path id="DejaVuSans-47" d="M 3809 666 
L 3809 1919 
L 2778 1919 
L 2778 2438 
L 4434 2438 
L 4434 434 
Q 4069 175 3628 42 
Q 3188 -91 2688 -91 
Q 1594 -91 976 548 
Q 359 1188 359 2328 
Q 359 3472 976 4111 
Q 1594 4750 2688 4750 
Q 3144 4750 3555 4637 
Q 3966 4525 4313 4306 
L 4313 3634 
Q 3963 3931 3569 4081 
Q 3175 4231 2741 4231 
Q 1884 4231 1454 3753 
Q 1025 3275 1025 2328 
Q 1025 1384 1454 906 
Q 1884 428 2741 428 
Q 3075 428 3337 486 
Q 3600 544 3809 666 
z
" transform="scale(0.015625)"/>
      <path id="DejaVuSans-33" d="M 2597 2516 
Q 3050 2419 3304 2112 
Q 3559 1806 3559 1356 
Q 3559 666 3084 287 
Q 2609 -91 1734 -91 
Q 1441 -91 1130 -33 
Q 819 25 488 141 
L 488 750 
Q 750 597 1062 519 
Q 1375 441 1716 441 
Q 2309 441 2620 675 
Q 2931 909 2931 1356 
Q 2931 1769 2642 2001 
Q 2353 2234 1838 2234 
L 1294 2234 
L 1294 2753 
L 1863 2753 
Q 2328 2753 2575 2939 
Q 2822 3125 2822 3475 
Q 2822 3834 2567 4026 
Q 2313 4219 1838 4219 
Q 1578 4219 1281 4162 
Q 984 4106 628 3988 
L 628 4550 
Q 988 4650 1302 4700 
Q 1616 4750 1894 4750 
Q 2613 4750 3031 4423 
Q 3450 4097 3450 3541 
Q 3450 3153 3228 2886 
Q 3006 2619 2597 2516 
z
" transform="scale(0.015625)"/>
      <path id="DejaVuSans-4c" d="M 628 4666 
L 1259 4666 
L 1259 531 
L 3531 531 
L 3531 0 
L 628 0 
L 628 4666 
z
" transform="scale(0.015625)"/>
      <path id="DejaVuSans-2d" d="M 313 2009 
L 1997 2009 
L 1997 1497 
L 313 1497 
L 313 2009 
z
" transform="scale(0.015625)"/>
      <path id="DejaVuSans-2c" d="M 750 794 
L 1409 794 
L 1409 256 
L 897 -744 
L 494 -744 
L 750 256 
L 750 794 
z
" transform="scale(0.015625)"/>
      <path id="DejaVuSans-39" d="M 703 97 
L 703 672 
Q 941 559 1184 500 
Q 1428 441 1663 441 
Q 2288 441 2617 861 
Q 2947 1281 2994 2138 
Q 2813 1869 2534 1725 
Q 2256 1581 1919 1581 
Q 1219 1581 811 2004 
Q 403 2428 403 3163 
Q 403 3881 828 4315 
Q 1253 4750 1959 4750 
Q 2769 4750 3195 4129 
Q 3622 3509 3622 2328 
Q 3622 1225 3098 567 
Q 2575 -91 1691 -91 
Q 1453 -91 1209 -44 
Q 966 3 703 97 
z
M 1959 2075 
Q 2384 2075 2632 2365 
Q 2881 2656 2881 3163 
Q 2881 3666 2632 3958 
Q 2384 4250 1959 4250 
Q 1534 4250 1286 3958 
Q 1038 3666 1038 3163 
Q 1038 2656 1286 2365 
Q 1534 2075 1959 2075 
z
" transform="scale(0.015625)"/>
      <path id="DejaVuSans-78" d="M 3513 3500 
L 2247 1797 
L 3578 0 
L 2900 0 
L 1881 1375 
L 863 0 
L 184 0 
L 1544 1831 
L 300 3500 
L 978 3500 
L 1906 2253 
L 2834 3500 
L 3513 3500 
z
" transform="scale(0.015625)"/>
     </defs>
     <use xlink:href="#DejaVuSans-51"/>
     <use xlink:href="#DejaVuSans-47" transform="translate(78.710938 0)"/>
     <use xlink:href="#DejaVuSans-33" transform="translate(156.201172 0)"/>
     <use xlink:href="#DejaVuSans-4c" transform="translate(219.824219 0)"/>
     <use xlink:href="#DejaVuSans-20" transform="translate(275.537109 0)"/>
     <use xlink:href="#DejaVuSans-2d" transform="translate(307.324219 0)"/>
     <use xlink:href="#DejaVuSans-20" transform="translate(343.408203 0)"/>
     <use xlink:href="#DejaVuSans-5b" transform="translate(375.195312 0)"/>
     <use xlink:href="#DejaVuSans-33" transform="translate(414.208984 0)"/>
     <use xlink:href="#DejaVuSans-32" transform="translate(477.832031 0)"/>
     <use xlink:href="#DejaVuSans-2c" transform="translate(541.455078 0)"/>
     <use xlink:href="#DejaVuSans-20" transform="translate(573.242188 0)"/>
     <use xlink:href="#DejaVuSans-39" transform="translate(605.029297 0)"/>
     <use xlink:href="#DejaVuSans-36" transform="translate(668.652344 0)"/>
     <use xlink:href="#DejaVuSans-5d" transform="translate(732.275391 0)"/>
     <use xlink:href="#DejaVuSans-20" transform="translate(771.289062 0)"/>
     <use xlink:href="#DejaVuSans-78" transform="translate(803.076172 0)"/>
     <use xlink:href="#DejaVuSans-20" transform="translate(862.255859 0)"/>
     <use xlink:href="#DejaVuSans-5b" transform="translate(894.042969 0)"/>
     <use xlink:href="#DejaVuSans-36" transform="translate(933.056641 0)"/>
     <use xlink:href="#DejaVuSans-34" transform="translate(996.679688 0)"/>
     <use xlink:href="#DejaVuSans-2c" transform="translate(1060.302734 0)"/>
     <use xlink:href="#DejaVuSans-20" transform="translate(1092.089844 0)"/>
     <use xlink:href="#DejaVuSans-31" transform="translate(1123.876953 0)"/>
     <use xlink:href="#DejaVuSans-39" transform="translate(1187.5 0)"/>
     <use xlink:href="#DejaVuSans-32" transform="translate(1251.123047 0)"/>
     <use xlink:href="#DejaVuSans-5d" transform="translate(1314.746094 0)"/>
    </g>
   </g>
   <g id="legend_1">
    <g id="patch_7">
     <path d="M 517.924219 69.171875 
L 699.34 69.171875 
Q 701.54 69.171875 701.54 66.971875 
L 701.54 35.78 
Q 701.54 33.58 699.34 33.58 
L 517.924219 33.58 
Q 515.724219 33.58 515.724219 35.78 
L 515.724219 66.971875 
Q 515.724219 69.171875 517.924219 69.171875 
z
" style="fill: #eaeaf2; opacity: 0.8; stroke: #cccccc; stroke-linejoin: miter"/>
    </g>
    <g id="line2d_3">
     <path d="M 520.124219 42.488281 
L 531.124219 42.488281 
L 542.124219 42.488281 
" style="fill: none; stroke: #000080; stroke-width: 1.5; stroke-linecap: round"/>
    </g>
    <g id="text_15">
     <!-- SurfML -->
     <g style="fill: #262626" transform="translate(550.924219 46.338281) scale(0.11 -0.11)">
      <defs>
       <path id="DejaVuSans-75" d="M 544 1381 
L 544 3500 
L 1119 3500 
L 1119 1403 
Q 1119 906 1312 657 
Q 1506 409 1894 409 
Q 2359 409 2629 706 
Q 2900 1003 2900 1516 
L 2900 3500 
L 3475 3500 
L 3475 0 
L 2900 0 
L 2900 538 
Q 2691 219 2414 64 
Q 2138 -91 1772 -91 
Q 1169 -91 856 284 
Q 544 659 544 1381 
z
M 1991 3584 
L 1991 3584 
z
" transform="scale(0.015625)"/>
       <path id="DejaVuSans-72" d="M 2631 2963 
Q 2534 3019 2420 3045 
Q 2306 3072 2169 3072 
Q 1681 3072 1420 2755 
Q 1159 2438 1159 1844 
L 1159 0 
L 581 0 
L 581 3500 
L 1159 3500 
L 1159 2956 
Q 1341 3275 1631 3429 
Q 1922 3584 2338 3584 
Q 2397 3584 2469 3576 
Q 2541 3569 2628 3553 
L 2631 2963 
z
" transform="scale(0.015625)"/>
       <path id="DejaVuSans-66" d="M 2375 4863 
L 2375 4384 
L 1825 4384 
Q 1516 4384 1395 4259 
Q 1275 4134 1275 3809 
L 1275 3500 
L 2222 3500 
L 2222 3053 
L 1275 3053 
L 1275 0 
L 697 0 
L 697 3053 
L 147 3053 
L 147 3500 
L 697 3500 
L 697 3744 
Q 697 4328 969 4595 
Q 1241 4863 1831 4863 
L 2375 4863 
z
" transform="scale(0.015625)"/>
      </defs>
      <use xlink:href="#DejaVuSans-53"/>
      <use xlink:href="#DejaVuSans-75" transform="translate(63.476562 0)"/>
      <use xlink:href="#DejaVuSans-72" transform="translate(126.855469 0)"/>
      <use xlink:href="#DejaVuSans-66" transform="translate(167.96875 0)"/>
      <use xlink:href="#DejaVuSans-4d" transform="translate(203.173828 0)"/>
      <use xlink:href="#DejaVuSans-4c" transform="translate(289.453125 0)"/>
     </g>
    </g>
    <g id="line2d_4">
     <path d="M 520.124219 58.634219 
L 531.124219 58.634219 
L 542.124219 58.634219 
" style="fill: none; stroke-dasharray: 5.55,2.4; stroke-dashoffset: 0; stroke: #000080; stroke-width: 1.5"/>
    </g>
    <g id="text_16">
     <!-- SurfML - No Regularization -->
     <g style="fill: #262626" transform="translate(550.924219 62.484219) scale(0.11 -0.11)">
      <defs>
       <path id="DejaVuSans-4e" d="M 628 4666 
L 1478 4666 
L 3547 763 
L 3547 4666 
L 4159 4666 
L 4159 0 
L 3309 0 
L 1241 3903 
L 1241 0 
L 628 0 
L 628 4666 
z
" transform="scale(0.015625)"/>
       <path id="DejaVuSans-6f" d="M 1959 3097 
Q 1497 3097 1228 2736 
Q 959 2375 959 1747 
Q 959 1119 1226 758 
Q 1494 397 1959 397 
Q 2419 397 2687 759 
Q 2956 1122 2956 1747 
Q 2956 2369 2687 2733 
Q 2419 3097 1959 3097 
z
M 1959 3584 
Q 2709 3584 3137 3096 
Q 3566 2609 3566 1747 
Q 3566 888 3137 398 
Q 2709 -91 1959 -91 
Q 1206 -91 779 398 
Q 353 888 353 1747 
Q 353 2609 779 3096 
Q 1206 3584 1959 3584 
z
" transform="scale(0.015625)"/>
       <path id="DejaVuSans-67" d="M 2906 1791 
Q 2906 2416 2648 2759 
Q 2391 3103 1925 3103 
Q 1463 3103 1205 2759 
Q 947 2416 947 1791 
Q 947 1169 1205 825 
Q 1463 481 1925 481 
Q 2391 481 2648 825 
Q 2906 1169 2906 1791 
z
M 3481 434 
Q 3481 -459 3084 -895 
Q 2688 -1331 1869 -1331 
Q 1566 -1331 1297 -1286 
Q 1028 -1241 775 -1147 
L 775 -588 
Q 1028 -725 1275 -790 
Q 1522 -856 1778 -856 
Q 2344 -856 2625 -561 
Q 2906 -266 2906 331 
L 2906 616 
Q 2728 306 2450 153 
Q 2172 0 1784 0 
Q 1141 0 747 490 
Q 353 981 353 1791 
Q 353 2603 747 3093 
Q 1141 3584 1784 3584 
Q 2172 3584 2450 3431 
Q 2728 3278 2906 2969 
L 2906 3500 
L 3481 3500 
L 3481 434 
z
" transform="scale(0.015625)"/>
       <path id="DejaVuSans-6c" d="M 603 4863 
L 1178 4863 
L 1178 0 
L 603 0 
L 603 4863 
z
" transform="scale(0.015625)"/>
       <path id="DejaVuSans-7a" d="M 353 3500 
L 3084 3500 
L 3084 2975 
L 922 459 
L 3084 459 
L 3084 0 
L 275 0 
L 275 525 
L 2438 3041 
L 353 3041 
L 353 3500 
z
" transform="scale(0.015625)"/>
       <path id="DejaVuSans-74" d="M 1172 4494 
L 1172 3500 
L 2356 3500 
L 2356 3053 
L 1172 3053 
L 1172 1153 
Q 1172 725 1289 603 
Q 1406 481 1766 481 
L 2356 481 
L 2356 0 
L 1766 0 
Q 1100 0 847 248 
Q 594 497 594 1153 
L 594 3053 
L 172 3053 
L 172 3500 
L 594 3500 
L 594 4494 
L 1172 4494 
z
" transform="scale(0.015625)"/>
      </defs>
      <use xlink:href="#DejaVuSans-53"/>
      <use xlink:href="#DejaVuSans-75" transform="translate(63.476562 0)"/>
      <use xlink:href="#DejaVuSans-72" transform="translate(126.855469 0)"/>
      <use xlink:href="#DejaVuSans-66" transform="translate(167.96875 0)"/>
      <use xlink:href="#DejaVuSans-4d" transform="translate(203.173828 0)"/>
      <use xlink:href="#DejaVuSans-4c" transform="translate(289.453125 0)"/>
      <use xlink:href="#DejaVuSans-20" transform="translate(345.166016 0)"/>
      <use xlink:href="#DejaVuSans-2d" transform="translate(376.953125 0)"/>
      <use xlink:href="#DejaVuSans-20" transform="translate(413.037109 0)"/>
      <use xlink:href="#DejaVuSans-4e" transform="translate(444.824219 0)"/>
      <use xlink:href="#DejaVuSans-6f" transform="translate(519.628906 0)"/>
      <use xlink:href="#DejaVuSans-20" transform="translate(580.810547 0)"/>
      <use xlink:href="#DejaVuSans-52" transform="translate(612.597656 0)"/>
      <use xlink:href="#DejaVuSans-65" transform="translate(677.580078 0)"/>
      <use xlink:href="#DejaVuSans-67" transform="translate(739.103516 0)"/>
      <use xlink:href="#DejaVuSans-75" transform="translate(802.580078 0)"/>
      <use xlink:href="#DejaVuSans-6c" transform="translate(865.958984 0)"/>
      <use xlink:href="#DejaVuSans-61" transform="translate(893.742188 0)"/>
      <use xlink:href="#DejaVuSans-72" transform="translate(955.021484 0)"/>
      <use xlink:href="#DejaVuSans-69" transform="translate(996.134766 0)"/>
      <use xlink:href="#DejaVuSans-7a" transform="translate(1023.917969 0)"/>
      <use xlink:href="#DejaVuSans-61" transform="translate(1076.408203 0)"/>
      <use xlink:href="#DejaVuSans-74" transform="translate(1137.6875 0)"/>
      <use xlink:href="#DejaVuSans-69" transform="translate(1176.896484 0)"/>
      <use xlink:href="#DejaVuSans-6f" transform="translate(1204.679688 0)"/>
      <use xlink:href="#DejaVuSans-6e" transform="translate(1265.861328 0)"/>
     </g>
    </g>
   </g>
  </g>
 </g>
 <defs>
  <clipPath id="p2d9fea2234">
   <rect x="55.56" y="28.08" width="651.48" height="282.9"/>
  </clipPath>
 </defs>
</svg>
