<?xml version="1.0" encoding="utf-8" standalone="no"?>
<!DOCTYPE svg PUBLIC "-//W3C//DTD SVG 1.1//EN"
  "http://www.w3.org/Graphics/SVG/1.1/DTD/svg11.dtd">
<svg xmlns:xlink="http://www.w3.org/1999/xlink" width="720pt" height="360pt" viewBox="0 0 720 360" xmlns="http://www.w3.org/2000/svg" version="1.1">
 <metadata>
  <rdf:RDF xmlns:dc="http://purl.org/dc/elements/1.1/" xmlns:cc="http://creativecommons.org/ns#" xmlns:rdf="http://www.w3.org/1999/02/22-rdf-syntax-ns#">
   <cc:Work>
    <dc:type rdf:resource="http://purl.org/dc/dcmitype/StillImage"/>
    <dc:date>2026-03-19T16:25:36.422005</dc:date>
    <dc:format>image/svg+xml</dc:format>
    <dc:creator>
     <cc:Agent>
      <dc:title>Matplotlib v3.10.6, https://matplotlib.org/</dc:title>
     </cc:Agent>
    </dc:creator>
   </cc:Work>
  </rdf:RDF>
 </metadata>
 <defs>
  <style type="text/css">*{stroke-linejoin: round; stroke-linecap: butt}</style>
 </defs>
 <g id="figure_1">
  <g id="patch_1">
   <path d="M 0 360 
L 720 360 
L 720 0 
L 0 0 
z
" style="fill: #ffffff"/>
  </g>
  <g id="axes_1">
   <g id="patch_2">
    <path d="M 55.56 310.98 
L 707.04 310.98 
L 707.04 28.08 
L 55.56 28.08 
z
" style="fill: #eaeaf2"/>
   </g>
   <g id="matplotlib.axis_1">
    <g id="xtick_1">
     <g id="text_1">
      <!-- 0 -->
      <g style="fill: #262626" transform="translate(81.673352 328.838281) scale(0.11 -0.11)">
       <defs>
        <path id="DejaVuSans-30" d="M 2034 4250 
Q 1547 4250 1301 3770 
Q 1056 3291 1056 2328 
Q 1056 1369 1301 889 
Q 1547 409 2034 409 
Q 2525 409 2770 889 
Q 3016 1369 3016 2328 
Q 3016 3291 2770 3770 
Q 2525 4250 2034 4250 
z
M 2034 4750 
Q 2819 4750 3233 4129 
Q 3647 3509 3647 2328 
Q 3647 1150 3233 529 
Q 2819 -91 2034 -91 
Q 1250 -91 836 529 
Q 422 1150 422 2328 
Q 422 3509 836 4129 
Q 1250 4750 2034 4750 
z
" transform="scale(0.015625)"/>
       </defs>
       <use xlink:href="#DejaVuSans-30"/>
      </g>
     </g>
    </g>
    <g id="xtick_2">
     <g id="text_2">
      <!-- 5 -->
      <g style="fill: #262626" transform="translate(224.385291 328.838281) scale(0.11 -0.11)">
       <defs>
        <path id="DejaVuSans-35" d="M 691 4666 
L 3169 4666 
L 3169 4134 
L 1269 4134 
L 1269 2991 
Q 1406 3038 1543 3061 
Q 1681 3084 1819 3084 
Q 2600 3084 3056 2656 
Q 3513 2228 3513 1497 
Q 3513 744 3044 326 
Q 2575 -91 1722 -91 
Q 1428 -91 1123 -41 
Q 819 9 494 109 
L 494 744 
Q 775 591 1075 516 
Q 1375 441 1709 441 
Q 2250 441 2565 725 
Q 2881 1009 2881 1497 
Q 2881 1984 2565 2268 
Q 2250 2553 1709 2553 
Q 1456 2553 1204 2497 
Q 953 2441 691 2322 
L 691 4666 
z
" transform="scale(0.015625)"/>
       </defs>
       <use xlink:href="#DejaVuSans-35"/>
      </g>
     </g>
    </g>
    <g id="xtick_3">
     <g id="text_3">
      <!-- 10 -->
      <g style="fill: #262626" transform="translate(363.597855 328.838281) scale(0.11 -0.11)">
       <defs>
        <path id="DejaVuSans-31" d="M 794 531 
L 1825 531 
L 1825 4091 
L 703 3866 
L 703 4441 
L 1819 4666 
L 2450 4666 
L 2450 531 
L 3481 531 
L 3481 0 
L 794 0 
L 794 531 
z
" transform="scale(0.015625)"/>
       </defs>
       <use xlink:href="#DejaVuSans-31"/>
       <use xlink:href="#DejaVuSans-30" transform="translate(63.623047 0)"/>
      </g>
     </g>
    </g>
    <g id="xtick_4">
     <g id="text_4">
      <!-- 15 -->
      <g style="fill: #262626" transform="translate(506.309793 328.838281) scale(0.11 -0.11)">
       <use xlink:href="#DejaVuSans-31"/>
       <use xlink:href="#DejaVuSans-35" transform="translate(63.623047 0)"/>
      </g>
     </g>
    </g>
    <g id="xtick_5">
     <g id="text_5">
      <!-- 20 -->
      <g style="fill: #262626" transform="translate(649.021732 328.838281) scale(0.11 -0.11)">
       <defs>
        <path id="DejaVuSans-32" d="M 1228 531 
L 3431 531 
L 3431 0 
L 469 0 
L 469 531 
Q 828 903 1448 1529 
Q 2069 2156 2228 2338 
Q 2531 2678 2651 2914 
Q 2772 3150 2772 3378 
Q 2772 3750 2511 3984 
Q 2250 4219 1831 4219 
Q 1534 4219 1204 4116 
Q 875 4013 500 3803 
L 500 4441 
Q 881 4594 1212 4672 
Q 1544 4750 1819 4750 
Q 2544 4750 2975 4387 
Q 3406 4025 3406 3419 
Q 3406 3131 3298 2873 
Q 3191 2616 2906 2266 
Q 2828 2175 2409 1742 
Q 1991 1309 1228 531 
z
" transform="scale(0.015625)"/>
       </defs>
       <use xlink:href="#DejaVuSans-32"/>
       <use xlink:href="#DejaVuSans-30" transform="translate(63.623047 0)"/>
      </g>
     </g>
    </g>
    <g id="text_6">
     <!-- Time [days] -->
     <g style="fill: #262626" transform="translate(345.868125 344.244062) scale(0.12 -0.12)">
      <defs>
       <path id="DejaVuSans-54" d="M -19 4666 
L 3928 4666 
L 3928 4134 
L 2272 4134 
L 2272 0 
L 1638 0 
L 1638 4134 
L -19 4134 
L -19 4666 
z
" transform="scale(0.015625)"/>
       <path id="DejaVuSans-69" d="M 603 3500 
L 1178 3500 
L 1178 0 
L 603 0 
L 603 3500 
z
M 603 4863 
L 1178 4863 
L 1178 4134 
L 603 4134 
L 603 4863 
z
" transform="scale(0.015625)"/>
       <path id="DejaVuSans-6d" d="M 3328 2828 
Q 3544 3216 3844 3400 
Q 4144 3584 4550 3584 
Q 5097 3584 5394 3201 
Q 5691 2819 5691 2113 
L 5691 0 
L 5113 0 
L 5113 2094 
Q 5113 2597 4934 2840 
Q 4756 3084 4391 3084 
Q 3944 3084 3684 2787 
Q 3425 2491 3425 1978 
L 3425 0 
L 2847 0 
L 2847 2094 
Q 2847 2600 2669 2842 
Q 2491 3084 2119 3084 
Q 1678 3084 1418 2786 
Q 1159 2488 1159 1978 
L 1159 0 
L 581 0 
L 581 3500 
L 1159 3500 
L 1159 2956 
Q 1356 3278 1631 3431 
Q 1906 3584 2284 3584 
Q 2666 3584 2933 3390 
Q 3200 3197 3328 2828 
z
" transform="scale(0.015625)"/>
       <path id="DejaVuSans-65" d="M 3597 1894 
L 3597 1613 
L 953 1613 
Q 991 1019 1311 708 
Q 1631 397 2203 397 
Q 2534 397 2845 478 
Q 3156 559 3463 722 
L 3463 178 
Q 3153 47 2828 -22 
Q 2503 -91 2169 -91 
Q 1331 -91 842 396 
Q 353 884 353 1716 
Q 353 2575 817 3079 
Q 1281 3584 2069 3584 
Q 2775 3584 3186 3129 
Q 3597 2675 3597 1894 
z
M 3022 2063 
Q 3016 2534 2758 2815 
Q 2500 3097 2075 3097 
Q 1594 3097 1305 2825 
Q 1016 2553 972 2059 
L 3022 2063 
z
" transform="scale(0.015625)"/>
       <path id="DejaVuSans-20" transform="scale(0.015625)"/>
       <path id="DejaVuSans-5b" d="M 550 4863 
L 1875 4863 
L 1875 4416 
L 1125 4416 
L 1125 -397 
L 1875 -397 
L 1875 -844 
L 550 -844 
L 550 4863 
z
" transform="scale(0.015625)"/>
       <path id="DejaVuSans-64" d="M 2906 2969 
L 2906 4863 
L 3481 4863 
L 3481 0 
L 2906 0 
L 2906 525 
Q 2725 213 2448 61 
Q 2172 -91 1784 -91 
Q 1150 -91 751 415 
Q 353 922 353 1747 
Q 353 2572 751 3078 
Q 1150 3584 1784 3584 
Q 2172 3584 2448 3432 
Q 2725 3281 2906 2969 
z
M 947 1747 
Q 947 1113 1208 752 
Q 1469 391 1925 391 
Q 2381 391 2643 752 
Q 2906 1113 2906 1747 
Q 2906 2381 2643 2742 
Q 2381 3103 1925 3103 
Q 1469 3103 1208 2742 
Q 947 2381 947 1747 
z
" transform="scale(0.015625)"/>
       <path id="DejaVuSans-61" d="M 2194 1759 
Q 1497 1759 1228 1600 
Q 959 1441 959 1056 
Q 959 750 1161 570 
Q 1363 391 1709 391 
Q 2188 391 2477 730 
Q 2766 1069 2766 1631 
L 2766 1759 
L 2194 1759 
z
M 3341 1997 
L 3341 0 
L 2766 0 
L 2766 531 
Q 2569 213 2275 61 
Q 1981 -91 1556 -91 
Q 1019 -91 701 211 
Q 384 513 384 1019 
Q 384 1609 779 1909 
Q 1175 2209 1959 2209 
L 2766 2209 
L 2766 2266 
Q 2766 2663 2505 2880 
Q 2244 3097 1772 3097 
Q 1472 3097 1187 3025 
Q 903 2953 641 2809 
L 641 3341 
Q 956 3463 1253 3523 
Q 1550 3584 1831 3584 
Q 2591 3584 2966 3190 
Q 3341 2797 3341 1997 
z
" transform="scale(0.015625)"/>
       <path id="DejaVuSans-79" d="M 2059 -325 
Q 1816 -950 1584 -1140 
Q 1353 -1331 966 -1331 
L 506 -1331 
L 506 -850 
L 844 -850 
Q 1081 -850 1212 -737 
Q 1344 -625 1503 -206 
L 1606 56 
L 191 3500 
L 800 3500 
L 1894 763 
L 2988 3500 
L 3597 3500 
L 2059 -325 
z
" transform="scale(0.015625)"/>
       <path id="DejaVuSans-73" d="M 2834 3397 
L 2834 2853 
Q 2591 2978 2328 3040 
Q 2066 3103 1784 3103 
Q 1356 3103 1142 2972 
Q 928 2841 928 2578 
Q 928 2378 1081 2264 
Q 1234 2150 1697 2047 
L 1894 2003 
Q 2506 1872 2764 1633 
Q 3022 1394 3022 966 
Q 3022 478 2636 193 
Q 2250 -91 1575 -91 
Q 1294 -91 989 -36 
Q 684 19 347 128 
L 347 722 
Q 666 556 975 473 
Q 1284 391 1588 391 
Q 1994 391 2212 530 
Q 2431 669 2431 922 
Q 2431 1156 2273 1281 
Q 2116 1406 1581 1522 
L 1381 1569 
Q 847 1681 609 1914 
Q 372 2147 372 2553 
Q 372 3047 722 3315 
Q 1072 3584 1716 3584 
Q 2034 3584 2315 3537 
Q 2597 3491 2834 3397 
z
" transform="scale(0.015625)"/>
       <path id="DejaVuSans-5d" d="M 1947 4863 
L 1947 -844 
L 622 -844 
L 622 -397 
L 1369 -397 
L 1369 4416 
L 622 4416 
L 622 4863 
L 1947 4863 
z
" transform="scale(0.015625)"/>
      </defs>
      <use xlink:href="#DejaVuSans-54"/>
      <use xlink:href="#DejaVuSans-69" transform="translate(57.958984 0)"/>
      <use xlink:href="#DejaVuSans-6d" transform="translate(85.742188 0)"/>
      <use xlink:href="#DejaVuSans-65" transform="translate(183.154297 0)"/>
      <use xlink:href="#DejaVuSans-20" transform="translate(244.677734 0)"/>
      <use xlink:href="#DejaVuSans-5b" transform="translate(276.464844 0)"/>
      <use xlink:href="#DejaVuSans-64" transform="translate(315.478516 0)"/>
      <use xlink:href="#DejaVuSans-61" transform="translate(378.955078 0)"/>
      <use xlink:href="#DejaVuSans-79" transform="translate(440.234375 0)"/>
      <use xlink:href="#DejaVuSans-73" transform="translate(499.414062 0)"/>
      <use xlink:href="#DejaVuSans-5d" transform="translate(551.513672 0)"/>
     </g>
    </g>
   </g>
   <g id="matplotlib.axis_2">
    <g id="ytick_1">
     <g id="text_7">
      <!-- 0.0 -->
      <g style="fill: #262626" transform="translate(28.566562 302.30005) scale(0.11 -0.11)">
       <defs>
        <path id="DejaVuSans-2e" d="M 684 794 
L 1344 794 
L 1344 0 
L 684 0 
L 684 794 
z
" transform="scale(0.015625)"/>
       </defs>
       <use xlink:href="#DejaVuSans-30"/>
       <use xlink:href="#DejaVuSans-2e" transform="translate(63.623047 0)"/>
       <use xlink:href="#DejaVuSans-30" transform="translate(95.410156 0)"/>
      </g>
     </g>
    </g>
    <g id="ytick_2">
     <g id="text_8">
      <!-- 0.2 -->
      <g style="fill: #262626" transform="translate(28.566562 250.863686) scale(0.11 -0.11)">
       <use xlink:href="#DejaVuSans-30"/>
       <use xlink:href="#DejaVuSans-2e" transform="translate(63.623047 0)"/>
       <use xlink:href="#DejaVuSans-32" transform="translate(95.410156 0)"/>
      </g>
     </g>
    </g>
    <g id="ytick_3">
     <g id="text_9">
      <!-- 0.4 -->
      <g style="fill: #262626" transform="translate(28.566562 199.427322) scale(0.11 -0.11)">
       <defs>
        <path id="DejaVuSans-34" d="M 2419 4116 
L 825 1625 
L 2419 1625 
L 2419 4116 
z
M 2253 4666 
L 3047 4666 
L 3047 1625 
L 3713 1625 
L 3713 1100 
L 3047 1100 
L 3047 0 
L 2419 0 
L 2419 1100 
L 313 1100 
L 313 1709 
L 2253 4666 
z
" transform="scale(0.015625)"/>
       </defs>
       <use xlink:href="#DejaVuSans-30"/>
       <use xlink:href="#DejaVuSans-2e" transform="translate(63.623047 0)"/>
       <use xlink:href="#DejaVuSans-34" transform="translate(95.410156 0)"/>
      </g>
     </g>
    </g>
    <g id="ytick_4">
     <g id="text_10">
      <!-- 0.6 -->
      <g style="fill: #262626" transform="translate(28.566562 147.990959) scale(0.11 -0.11)">
       <defs>
        <path id="DejaVuSans-36" d="M 2113 2584 
Q 1688 2584 1439 2293 
Q 1191 2003 1191 1497 
Q 1191 994 1439 701 
Q 1688 409 2113 409 
Q 2538 409 2786 701 
Q 3034 994 3034 1497 
Q 3034 2003 2786 2293 
Q 2538 2584 2113 2584 
z
M 3366 4563 
L 3366 3988 
Q 3128 4100 2886 4159 
Q 2644 4219 2406 4219 
Q 1781 4219 1451 3797 
Q 1122 3375 1075 2522 
Q 1259 2794 1537 2939 
Q 1816 3084 2150 3084 
Q 2853 3084 3261 2657 
Q 3669 2231 3669 1497 
Q 3669 778 3244 343 
Q 2819 -91 2113 -91 
Q 1303 -91 875 529 
Q 447 1150 447 2328 
Q 447 3434 972 4092 
Q 1497 4750 2381 4750 
Q 2619 4750 2861 4703 
Q 3103 4656 3366 4563 
z
" transform="scale(0.015625)"/>
       </defs>
       <use xlink:href="#DejaVuSans-30"/>
       <use xlink:href="#DejaVuSans-2e" transform="translate(63.623047 0)"/>
       <use xlink:href="#DejaVuSans-36" transform="translate(95.410156 0)"/>
      </g>
     </g>
    </g>
    <g id="ytick_5">
     <g id="text_11">
      <!-- 0.8 -->
      <g style="fill: #262626" transform="translate(28.566562 96.554595) scale(0.11 -0.11)">
       <defs>
        <path id="DejaVuSans-38" d="M 2034 2216 
Q 1584 2216 1326 1975 
Q 1069 1734 1069 1313 
Q 1069 891 1326 650 
Q 1584 409 2034 409 
Q 2484 409 2743 651 
Q 3003 894 3003 1313 
Q 3003 1734 2745 1975 
Q 2488 2216 2034 2216 
z
M 1403 2484 
Q 997 2584 770 2862 
Q 544 3141 544 3541 
Q 544 4100 942 4425 
Q 1341 4750 2034 4750 
Q 2731 4750 3128 4425 
Q 3525 4100 3525 3541 
Q 3525 3141 3298 2862 
Q 3072 2584 2669 2484 
Q 3125 2378 3379 2068 
Q 3634 1759 3634 1313 
Q 3634 634 3220 271 
Q 2806 -91 2034 -91 
Q 1263 -91 848 271 
Q 434 634 434 1313 
Q 434 1759 690 2068 
Q 947 2378 1403 2484 
z
M 1172 3481 
Q 1172 3119 1398 2916 
Q 1625 2713 2034 2713 
Q 2441 2713 2670 2916 
Q 2900 3119 2900 3481 
Q 2900 3844 2670 4047 
Q 2441 4250 2034 4250 
Q 1625 4250 1398 4047 
Q 1172 3844 1172 3481 
z
" transform="scale(0.015625)"/>
       </defs>
       <use xlink:href="#DejaVuSans-30"/>
       <use xlink:href="#DejaVuSans-2e" transform="translate(63.623047 0)"/>
       <use xlink:href="#DejaVuSans-38" transform="translate(95.410156 0)"/>
      </g>
     </g>
    </g>
    <g id="ytick_6">
     <g id="text_12">
      <!-- 1.0 -->
      <g style="fill: #262626" transform="translate(28.566562 45.118232) scale(0.11 -0.11)">
       <use xlink:href="#DejaVuSans-31"/>
       <use xlink:href="#DejaVuSans-2e" transform="translate(63.623047 0)"/>
       <use xlink:href="#DejaVuSans-30" transform="translate(95.410156 0)"/>
      </g>
     </g>
    </g>
    <g id="text_13">
     <!-- ψ₂ nRMSE -->
     <g style="fill: #262626" transform="translate(22.070937 198.549375) rotate(-90) scale(0.12 -0.12)">
      <defs>
       <path id="DejaVuSans-3c8" d="M 1816 -78 
Q 1094 38 759 341 
Q 350 713 350 1472 
L 350 3500 
L 931 3500 
L 931 1494 
Q 931 922 1197 684 
Q 1428 478 1816 434 
L 1816 3500 
L 2388 3500 
L 2388 438 
Q 2797 481 3006 688 
Q 3272 950 3272 1497 
L 3272 3500 
L 3853 3500 
L 3853 1475 
Q 3853 688 3444 344 
Q 3075 34 2388 -75 
L 2388 -1331 
L 1816 -1331 
L 1816 -78 
z
" transform="scale(0.015625)"/>
       <path id="DejaVuSans-2082" d="M 838 356 
L 2163 356 
L 2163 0 
L 294 0 
L 294 343 
Q 400 440 597 615 
Q 1672 1568 1672 1862 
Q 1672 2068 1509 2194 
Q 1347 2321 1081 2321 
Q 919 2321 728 2266 
Q 538 2212 313 2103 
L 313 2487 
Q 553 2575 761 2618 
Q 969 2662 1147 2662 
Q 1600 2662 1872 2456 
Q 2144 2250 2144 1912 
Q 2144 1478 1109 590 
Q 934 440 838 356 
z
" transform="scale(0.015625)"/>
       <path id="DejaVuSans-6e" d="M 3513 2113 
L 3513 0 
L 2938 0 
L 2938 2094 
Q 2938 2591 2744 2837 
Q 2550 3084 2163 3084 
Q 1697 3084 1428 2787 
Q 1159 2491 1159 1978 
L 1159 0 
L 581 0 
L 581 3500 
L 1159 3500 
L 1159 2956 
Q 1366 3272 1645 3428 
Q 1925 3584 2291 3584 
Q 2894 3584 3203 3211 
Q 3513 2838 3513 2113 
z
" transform="scale(0.015625)"/>
       <path id="DejaVuSans-52" d="M 2841 2188 
Q 3044 2119 3236 1894 
Q 3428 1669 3622 1275 
L 4263 0 
L 3584 0 
L 2988 1197 
Q 2756 1666 2539 1819 
Q 2322 1972 1947 1972 
L 1259 1972 
L 1259 0 
L 628 0 
L 628 4666 
L 2053 4666 
Q 2853 4666 3247 4331 
Q 3641 3997 3641 3322 
Q 3641 2881 3436 2590 
Q 3231 2300 2841 2188 
z
M 1259 4147 
L 1259 2491 
L 2053 2491 
Q 2509 2491 2742 2702 
Q 2975 2913 2975 3322 
Q 2975 3731 2742 3939 
Q 2509 4147 2053 4147 
L 1259 4147 
z
" transform="scale(0.015625)"/>
       <path id="DejaVuSans-4d" d="M 628 4666 
L 1569 4666 
L 2759 1491 
L 3956 4666 
L 4897 4666 
L 4897 0 
L 4281 0 
L 4281 4097 
L 3078 897 
L 2444 897 
L 1241 4097 
L 1241 0 
L 628 0 
L 628 4666 
z
" transform="scale(0.015625)"/>
       <path id="DejaVuSans-53" d="M 3425 4513 
L 3425 3897 
Q 3066 4069 2747 4153 
Q 2428 4238 2131 4238 
Q 1616 4238 1336 4038 
Q 1056 3838 1056 3469 
Q 1056 3159 1242 3001 
Q 1428 2844 1947 2747 
L 2328 2669 
Q 3034 2534 3370 2195 
Q 3706 1856 3706 1288 
Q 3706 609 3251 259 
Q 2797 -91 1919 -91 
Q 1588 -91 1214 -16 
Q 841 59 441 206 
L 441 856 
Q 825 641 1194 531 
Q 1563 422 1919 422 
Q 2459 422 2753 634 
Q 3047 847 3047 1241 
Q 3047 1584 2836 1778 
Q 2625 1972 2144 2069 
L 1759 2144 
Q 1053 2284 737 2584 
Q 422 2884 422 3419 
Q 422 4038 858 4394 
Q 1294 4750 2059 4750 
Q 2388 4750 2728 4690 
Q 3069 4631 3425 4513 
z
" transform="scale(0.015625)"/>
       <path id="DejaVuSans-45" d="M 628 4666 
L 3578 4666 
L 3578 4134 
L 1259 4134 
L 1259 2753 
L 3481 2753 
L 3481 2222 
L 1259 2222 
L 1259 531 
L 3634 531 
L 3634 0 
L 628 0 
L 628 4666 
z
" transform="scale(0.015625)"/>
      </defs>
      <use xlink:href="#DejaVuSans-3c8"/>
      <use xlink:href="#DejaVuSans-2082" transform="translate(65.966797 0)"/>
      <use xlink:href="#DejaVuSans-20" transform="translate(106.054688 0)"/>
      <use xlink:href="#DejaVuSans-6e" transform="translate(137.841797 0)"/>
      <use xlink:href="#DejaVuSans-52" transform="translate(201.220703 0)"/>
      <use xlink:href="#DejaVuSans-4d" transform="translate(270.703125 0)"/>
      <use xlink:href="#DejaVuSans-53" transform="translate(356.982422 0)"/>
      <use xlink:href="#DejaVuSans-45" transform="translate(420.458984 0)"/>
     </g>
    </g>
   </g>
   <g id="FillBetweenPolyCollection_1">
    <defs>
     <path id="m379e2a2ded" d="M 85.172727 -214.001315 
L 85.172727 -169.160356 
L 87.55126 -170.10151 
L 89.929792 -171.008634 
L 92.308324 -171.879045 
L 94.686857 -172.710302 
L 97.065389 -173.500238 
L 99.443921 -174.246979 
L 101.822453 -174.948967 
L 104.200986 -175.604991 
L 106.579518 -176.214194 
L 108.95805 -176.776093 
L 111.336583 -177.290586 
L 113.715115 -177.75796 
L 116.093647 -178.178879 
L 118.47218 -178.554377 
L 120.850712 -178.885833 
L 123.229244 -179.174968 
L 125.607777 -179.423796 
L 127.986309 -179.634587 
L 130.364841 -179.809818 
L 132.743373 -179.952126 
L 135.121906 -180.064275 
L 137.500438 -180.149089 
L 139.87897 -180.209447 
L 142.257503 -180.248216 
L 144.636035 -180.268199 
L 147.014567 -180.272124 
L 149.3931 -180.262591 
L 151.771632 -180.24204 
L 154.150164 -180.21273 
L 156.528697 -180.176729 
L 158.907229 -180.135885 
L 161.285761 -180.091822 
L 163.664294 -180.045932 
L 166.042826 -179.999383 
L 168.421358 -179.953133 
L 170.79989 -179.907944 
L 173.178423 -179.864391 
L 175.556955 -179.822873 
L 177.935487 -179.783644 
L 180.31402 -179.746829 
L 182.692552 -179.712447 
L 185.071084 -179.680412 
L 187.449617 -179.650579 
L 189.828149 -179.622746 
L 192.206681 -179.596656 
L 194.585214 -179.572019 
L 196.963746 -179.548544 
L 199.342278 -179.52592 
L 201.720811 -179.503826 
L 204.099343 -179.48196 
L 206.477875 -179.460025 
L 208.856407 -179.437716 
L 211.23494 -179.414739 
L 213.613472 -179.390808 
L 215.992004 -179.365628 
L 218.370537 -179.338894 
L 220.749069 -179.310285 
L 223.127601 -179.279461 
L 225.506134 -179.246053 
L 227.884666 -179.20966 
L 230.263198 -179.169833 
L 232.641731 -179.126082 
L 235.020263 -179.07787 
L 237.398795 -179.024618 
L 239.777327 -178.965707 
L 242.15586 -178.900489 
L 244.534392 -178.828286 
L 246.912924 -178.7484 
L 249.291457 -178.660135 
L 251.669989 -178.562791 
L 254.048521 -178.455691 
L 256.427054 -178.338196 
L 258.805586 -178.209713 
L 261.184118 -178.06971 
L 263.562651 -177.917735 
L 265.941183 -177.753417 
L 268.319715 -177.576476 
L 270.698248 -177.386735 
L 273.07678 -177.184124 
L 275.455312 -176.968673 
L 277.833844 -176.740514 
L 280.212377 -176.499887 
L 282.590909 -176.247136 
L 284.969441 -175.982697 
L 287.347974 -175.707101 
L 289.726506 -175.420964 
L 292.105038 -175.124995 
L 294.483571 -174.819981 
L 296.862103 -174.506767 
L 299.240635 -174.186258 
L 301.619168 -173.859414 
L 303.9977 -173.527232 
L 306.376232 -173.190746 
L 308.754765 -172.851013 
L 311.133297 -172.509105 
L 313.511829 -172.166117 
L 315.890361 -171.823133 
L 318.268894 -171.481242 
L 320.647426 -171.141523 
L 323.025958 -170.805028 
L 325.404491 -170.472796 
L 327.783023 -170.145823 
L 330.161555 -169.82507 
L 332.540088 -169.51146 
L 334.91862 -169.205881 
L 337.297152 -168.909169 
L 339.675685 -168.622115 
L 342.054217 -168.345464 
L 344.432749 -168.079899 
L 346.811281 -167.82605 
L 349.189814 -167.584509 
L 351.568346 -167.355816 
L 353.946878 -167.140457 
L 356.325411 -166.93889 
L 358.703943 -166.751541 
L 361.082475 -166.578797 
L 363.461008 -166.421017 
L 365.83954 -166.278534 
L 368.218072 -166.151648 
L 370.596605 -166.040642 
L 372.975137 -165.945785 
L 375.353669 -165.867332 
L 377.732202 -165.805522 
L 380.110734 -165.760575 
L 382.489266 -165.73269 
L 384.867798 -165.722042 
L 387.246331 -165.728773 
L 389.624863 -165.752985 
L 392.003395 -165.794741 
L 394.381928 -165.854054 
L 396.76046 -165.930883 
L 399.138992 -166.025118 
L 401.517525 -166.136567 
L 403.896057 -166.264945 
L 406.274589 -166.409872 
L 408.653122 -166.57085 
L 411.031654 -166.747267 
L 413.410186 -166.938382 
L 415.788719 -167.143324 
L 418.167251 -167.36108 
L 420.545783 -167.590503 
L 422.924315 -167.830319 
L 425.302848 -168.079122 
L 427.68138 -168.335376 
L 430.059912 -168.597444 
L 432.438445 -168.863603 
L 434.816977 -169.132058 
L 437.195509 -169.400972 
L 439.574042 -169.668487 
L 441.952574 -169.932739 
L 444.331106 -170.191887 
L 446.709639 -170.444126 
L 449.088171 -170.687721 
L 451.466703 -170.921034 
L 453.845235 -171.142535 
L 456.223768 -171.35082 
L 458.6023 -171.544618 
L 460.980832 -171.722804 
L 463.359365 -171.8844 
L 465.737897 -172.028576 
L 468.116429 -172.154669 
L 470.494962 -172.262161 
L 472.873494 -172.350685 
L 475.252026 -172.420012 
L 477.630559 -172.470055 
L 480.009091 -172.500852 
L 482.387623 -172.512559 
L 484.766156 -172.505435 
L 487.144688 -172.479831 
L 489.52322 -172.436175 
L 491.901752 -172.374953 
L 494.280285 -172.296698 
L 496.658817 -172.201969 
L 499.037349 -172.091345 
L 501.415882 -171.96541 
L 503.794414 -171.824742 
L 506.172946 -171.669904 
L 508.551479 -171.501428 
L 510.930011 -171.319822 
L 513.308543 -171.125565 
L 515.687076 -170.919108 
L 518.065608 -170.700868 
L 520.44414 -170.471232 
L 522.822673 -170.230562 
L 525.201205 -169.979183 
L 527.579737 -169.7174 
L 529.958269 -169.445497 
L 532.336802 -169.163744 
L 534.715334 -168.8724 
L 537.093866 -168.571728 
L 539.472399 -168.261995 
L 541.850931 -167.943472 
L 544.229463 -167.61645 
L 546.607996 -167.281232 
L 548.986528 -166.938154 
L 551.36506 -166.587589 
L 553.743593 -166.22994 
L 556.122125 -165.86566 
L 558.500657 -165.495256 
L 560.879189 -165.119299 
L 563.257722 -164.738433 
L 565.636254 -164.353363 
L 568.014786 -163.964867 
L 570.393319 -163.57378 
L 572.771851 -163.180997 
L 575.150383 -162.787457 
L 577.528916 -162.394147 
L 579.907448 -162.002102 
L 582.28598 -161.612371 
L 584.664513 -161.226022 
L 587.043045 -160.844112 
L 589.421577 -160.467687 
L 591.80011 -160.097776 
L 594.178642 -159.735358 
L 596.557174 -159.381366 
L 598.935706 -159.036664 
L 601.314239 -158.702036 
L 603.692771 -158.378168 
L 606.071303 -158.065656 
L 608.449836 -157.764983 
L 610.828368 -157.476518 
L 613.2069 -157.200509 
L 615.585433 -156.937084 
L 617.963965 -156.686251 
L 620.342497 -156.447907 
L 622.72103 -156.221847 
L 625.099562 -156.007778 
L 627.478094 -155.805331 
L 629.856627 -155.614079 
L 632.235159 -155.433537 
L 634.613691 -155.263183 
L 636.992223 -155.10248 
L 639.370756 -154.950887 
L 641.749288 -154.807872 
L 644.12782 -154.672939 
L 646.506353 -154.545646 
L 648.884885 -154.425606 
L 651.263417 -154.312515 
L 653.64195 -154.206164 
L 656.020482 -154.106452 
L 658.399014 -154.013393 
L 660.777547 -153.927134 
L 663.156079 -153.847956 
L 665.534611 -153.776283 
L 667.913143 -153.712668 
L 670.291676 -153.657802 
L 672.670208 -153.612519 
L 675.04874 -153.577782 
L 677.427273 -153.554674 
L 677.427273 -212.416726 
L 677.427273 -212.416726 
L 675.04874 -212.019647 
L 672.670208 -211.615099 
L 670.291676 -211.201684 
L 667.913143 -210.778277 
L 665.534611 -210.34404 
L 663.156079 -209.89845 
L 660.777547 -209.441312 
L 658.399014 -208.972719 
L 656.020482 -208.493054 
L 653.64195 -208.003016 
L 651.263417 -207.503577 
L 648.884885 -206.99594 
L 646.506353 -206.481556 
L 644.12782 -205.962079 
L 641.749288 -205.439307 
L 639.370756 -204.915181 
L 636.992223 -204.391752 
L 634.613691 -203.871087 
L 632.235159 -203.355273 
L 629.856627 -202.846361 
L 627.478094 -202.346326 
L 625.099562 -201.857052 
L 622.72103 -201.380295 
L 620.342497 -200.917623 
L 617.963965 -200.470421 
L 615.585433 -200.039863 
L 613.2069 -199.626907 
L 610.828368 -199.232275 
L 608.449836 -198.856462 
L 606.071303 -198.499721 
L 603.692771 -198.162074 
L 601.314239 -197.843345 
L 598.935706 -197.543157 
L 596.557174 -197.260963 
L 594.178642 -196.996066 
L 591.80011 -196.747646 
L 589.421577 -196.514797 
L 587.043045 -196.296508 
L 584.664513 -196.091716 
L 582.28598 -195.899332 
L 579.907448 -195.718271 
L 577.528916 -195.547474 
L 575.150383 -195.385924 
L 572.771851 -195.232677 
L 570.393319 -195.086872 
L 568.014786 -194.947743 
L 565.636254 -194.814647 
L 563.257722 -194.687072 
L 560.879189 -194.564641 
L 558.500657 -194.447136 
L 556.122125 -194.334482 
L 553.743593 -194.226749 
L 551.36506 -194.124147 
L 548.986528 -194.027021 
L 546.607996 -193.935835 
L 544.229463 -193.851159 
L 541.850931 -193.773647 
L 539.472399 -193.704018 
L 537.093866 -193.643024 
L 534.715334 -193.591431 
L 532.336802 -193.549986 
L 529.958269 -193.519395 
L 527.579737 -193.500301 
L 525.201205 -193.493256 
L 522.822673 -193.498707 
L 520.44414 -193.516969 
L 518.065608 -193.548216 
L 515.687076 -193.592474 
L 513.308543 -193.649603 
L 510.930011 -193.719306 
L 508.551479 -193.801137 
L 506.172946 -193.894504 
L 503.794414 -193.998679 
L 501.415882 -194.112815 
L 499.037349 -194.235966 
L 496.658817 -194.367106 
L 494.280285 -194.505159 
L 491.901752 -194.649015 
L 489.52322 -194.797557 
L 487.144688 -194.949687 
L 484.766156 -195.10434 
L 482.387623 -195.260515 
L 480.009091 -195.417295 
L 477.630559 -195.573863 
L 475.252026 -195.729522 
L 472.873494 -195.883697 
L 470.494962 -196.035944 
L 468.116429 -196.18596 
L 465.737897 -196.333578 
L 463.359365 -196.478771 
L 460.980832 -196.621646 
L 458.6023 -196.76243 
L 456.223768 -196.901467 
L 453.845235 -197.039189 
L 451.466703 -197.176116 
L 449.088171 -197.312811 
L 446.709639 -197.449871 
L 444.331106 -197.587903 
L 441.952574 -197.727507 
L 439.574042 -197.869253 
L 437.195509 -198.013658 
L 434.816977 -198.161181 
L 432.438445 -198.312205 
L 430.059912 -198.467024 
L 427.68138 -198.62583 
L 425.302848 -198.788711 
L 422.924315 -198.955653 
L 420.545783 -199.126538 
L 418.167251 -199.301148 
L 415.788719 -199.479169 
L 413.410186 -199.660207 
L 411.031654 -199.843798 
L 408.653122 -200.029416 
L 406.274589 -200.216499 
L 403.896057 -200.404456 
L 401.517525 -200.592676 
L 399.138992 -200.780535 
L 396.76046 -200.967423 
L 394.381928 -201.152755 
L 392.003395 -201.335975 
L 389.624863 -201.516568 
L 387.246331 -201.694061 
L 384.867798 -201.868022 
L 382.489266 -202.038068 
L 380.110734 -202.203876 
L 377.732202 -202.365173 
L 375.353669 -202.521742 
L 372.975137 -202.673421 
L 370.596605 -202.820107 
L 368.218072 -202.961747 
L 365.83954 -203.098345 
L 363.461008 -203.22995 
L 361.082475 -203.35666 
L 358.703943 -203.478619 
L 356.325411 -203.596015 
L 353.946878 -203.709073 
L 351.568346 -203.818048 
L 349.189814 -203.923232 
L 346.811281 -204.024943 
L 344.432749 -204.123525 
L 342.054217 -204.219338 
L 339.675685 -204.312764 
L 337.297152 -204.404193 
L 334.91862 -204.494021 
L 332.540088 -204.58265 
L 330.161555 -204.67048 
L 327.783023 -204.757907 
L 325.404491 -204.84532 
L 323.025958 -204.9331 
L 320.647426 -205.021624 
L 318.268894 -205.111254 
L 315.890361 -205.202356 
L 313.511829 -205.29528 
L 311.133297 -205.390365 
L 308.754765 -205.487945 
L 306.376232 -205.588339 
L 303.9977 -205.691862 
L 301.619168 -205.798824 
L 299.240635 -205.909528 
L 296.862103 -206.024276 
L 294.483571 -206.143364 
L 292.105038 -206.267092 
L 289.726506 -206.395759 
L 287.347974 -206.529671 
L 284.969441 -206.669137 
L 282.590909 -206.814479 
L 280.212377 -206.966024 
L 277.833844 -207.124106 
L 275.455312 -207.289063 
L 273.07678 -207.46124 
L 270.698248 -207.640977 
L 268.319715 -207.828613 
L 265.941183 -208.024476 
L 263.562651 -208.228875 
L 261.184118 -208.442093 
L 258.805586 -208.66437 
L 256.427054 -208.895896 
L 254.048521 -209.1368 
L 251.669989 -209.387131 
L 249.291457 -209.646852 
L 246.912924 -209.915827 
L 244.534392 -210.193812 
L 242.15586 -210.480448 
L 239.777327 -210.775255 
L 237.398795 -211.077636 
L 235.020263 -211.386874 
L 232.641731 -211.702142 
L 230.263198 -212.022512 
L 227.884666 -212.34697 
L 225.506134 -212.674436 
L 223.127601 -213.003781 
L 220.749069 -213.333855 
L 218.370537 -213.663507 
L 215.992004 -213.991614 
L 213.613472 -214.317102 
L 211.23494 -214.638971 
L 208.856407 -214.956313 
L 206.477875 -215.268333 
L 204.099343 -215.574363 
L 201.720811 -215.873873 
L 199.342278 -216.166473 
L 196.963746 -216.451917 
L 194.585214 -216.730099 
L 192.206681 -217.001041 
L 189.828149 -217.26488 
L 187.449617 -217.521855 
L 185.071084 -217.772284 
L 182.692552 -218.016536 
L 180.31402 -218.25501 
L 177.935487 -218.488107 
L 175.556955 -218.716199 
L 173.178423 -218.939602 
L 170.79989 -219.158549 
L 168.421358 -219.373162 
L 166.042826 -219.583425 
L 163.664294 -219.789163 
L 161.285761 -219.990023 
L 158.907229 -220.185452 
L 156.528697 -220.374689 
L 154.150164 -220.556754 
L 151.771632 -220.730446 
L 149.3931 -220.894341 
L 147.014567 -221.046803 
L 144.636035 -221.185992 
L 142.257503 -221.309884 
L 139.87897 -221.416289 
L 137.500438 -221.502876 
L 135.121906 -221.567202 
L 132.743373 -221.606741 
L 130.364841 -221.618925 
L 127.986309 -221.601171 
L 125.607777 -221.550921 
L 123.229244 -221.465673 
L 120.850712 -221.343023 
L 118.47218 -221.180693 
L 116.093647 -220.976568 
L 113.715115 -220.728735 
L 111.336583 -220.435504 
L 108.95805 -220.095428 
L 106.579518 -219.707327 
L 104.200986 -219.270298 
L 101.822453 -218.783732 
L 99.443921 -218.247318 
L 97.065389 -217.661038 
L 94.686857 -217.025173 
L 92.308324 -216.340291 
L 89.929792 -215.607238 
L 87.55126 -214.827126 
L 85.172727 -214.001315 
z
" style="stroke: #000080; stroke-opacity: 0.1"/>
    </defs>
    <g clip-path="url(#pc9ccb972bf)">
     <use xlink:href="#m379e2a2ded" x="0" y="360" style="fill: #000080; fill-opacity: 0.1; stroke: #000080; stroke-opacity: 0.1"/>
    </g>
   </g>
   <g id="FillBetweenPolyCollection_2">
    <defs>
     <path id="m90778586c6" d="M 85.172727 -219.432903 
L 85.172727 -201.59095 
L 87.55126 -202.33972 
L 89.929792 -203.080799 
L 92.308324 -203.813015 
L 94.686857 -204.535358 
L 97.065389 -205.246982 
L 99.443921 -205.947214 
L 101.822453 -206.635563 
L 104.200986 -207.311725 
L 106.579518 -207.975573 
L 108.95805 -208.627158 
L 111.336583 -209.266694 
L 113.715115 -209.894545 
L 116.093647 -210.511205 
L 118.47218 -211.117257 
L 120.850712 -211.713354 
L 123.229244 -212.300193 
L 125.607777 -212.878462 
L 127.986309 -213.44881 
L 130.364841 -214.0118 
L 132.743373 -214.567871 
L 135.121906 -215.117316 
L 137.500438 -215.660244 
L 139.87897 -216.196576 
L 142.257503 -216.72602 
L 144.636035 -217.248052 
L 147.014567 -217.761931 
L 149.3931 -218.266693 
L 151.771632 -218.761167 
L 154.150164 -219.243989 
L 156.528697 -219.713643 
L 158.907229 -220.168482 
L 161.285761 -220.60677 
L 163.664294 -221.02672 
L 166.042826 -221.426545 
L 168.421358 -221.804513 
L 170.79989 -222.15899 
L 173.178423 -222.488479 
L 175.556955 -222.791665 
L 177.935487 -223.067452 
L 180.31402 -223.314983 
L 182.692552 -223.533651 
L 185.071084 -223.723078 
L 187.449617 -223.883086 
L 189.828149 -224.013606 
L 192.206681 -224.114538 
L 194.585214 -224.185526 
L 196.963746 -224.225668 
L 199.342278 -224.233074 
L 201.720811 -224.204414 
L 204.099343 -224.134634 
L 206.477875 -224.017321 
L 208.856407 -223.846395 
L 211.23494 -223.619063 
L 213.613472 -223.338285 
L 215.992004 -223.012597 
L 218.370537 -222.653561 
L 220.749069 -222.273005 
L 223.127601 -221.881479 
L 225.506134 -221.487826 
L 227.884666 -221.099303 
L 230.263198 -220.721851 
L 232.641731 -220.360349 
L 235.020263 -220.018807 
L 237.398795 -219.700491 
L 239.777327 -219.408027 
L 242.15586 -219.143465 
L 244.534392 -218.908333 
L 246.912924 -218.703688 
L 249.291457 -218.530166 
L 251.669989 -218.388023 
L 254.048521 -218.277191 
L 256.427054 -218.197327 
L 258.805586 -218.147868 
L 261.184118 -218.128079 
L 263.562651 -218.137116 
L 265.941183 -218.174058 
L 268.319715 -218.237956 
L 270.698248 -218.327875 
L 273.07678 -218.44292 
L 275.455312 -218.582267 
L 277.833844 -218.745178 
L 280.212377 -218.930999 
L 282.590909 -219.139162 
L 284.969441 -219.369176 
L 287.347974 -219.620599 
L 289.726506 -219.893026 
L 292.105038 -220.186042 
L 294.483571 -220.499172 
L 296.862103 -220.83183 
L 299.240635 -221.183253 
L 301.619168 -221.552431 
L 303.9977 -221.938023 
L 306.376232 -222.338281 
L 308.754765 -222.750969 
L 311.133297 -223.173286 
L 313.511829 -223.60183 
L 315.890361 -224.032611 
L 318.268894 -224.461162 
L 320.647426 -224.882792 
L 323.025958 -225.292992 
L 325.404491 -225.688008 
L 327.783023 -226.065402 
L 330.161555 -226.424471 
L 332.540088 -226.766289 
L 334.91862 -227.09336 
L 337.297152 -227.408984 
L 339.675685 -227.716573 
L 342.054217 -228.019094 
L 344.432749 -228.318708 
L 346.811281 -228.616641 
L 349.189814 -228.913199 
L 351.568346 -229.207861 
L 353.946878 -229.499416 
L 356.325411 -229.786134 
L 358.703943 -230.065929 
L 361.082475 -230.336499 
L 363.461008 -230.595451 
L 365.83954 -230.840422 
L 368.218072 -231.069179 
L 370.596605 -231.279708 
L 372.975137 -231.470289 
L 375.353669 -231.639552 
L 377.732202 -231.786531 
L 380.110734 -231.910691 
L 382.489266 -232.011945 
L 384.867798 -232.090676 
L 387.246331 -232.147719 
L 389.624863 -232.184362 
L 392.003395 -232.202317 
L 394.381928 -232.203688 
L 396.76046 -232.190929 
L 399.138992 -232.166779 
L 401.517525 -232.134194 
L 403.896057 -232.096261 
L 406.274589 -232.056097 
L 408.653122 -232.016721 
L 411.031654 -231.980863 
L 413.410186 -231.950617 
L 415.788719 -231.926501 
L 418.167251 -231.903634 
L 420.545783 -231.84412 
L 422.924315 -231.501761 
L 425.302848 -230.844569 
L 427.68138 -230.121122 
L 430.059912 -229.377189 
L 432.438445 -228.622937 
L 434.816977 -227.862974 
L 437.195509 -227.100327 
L 439.574042 -226.337324 
L 441.952574 -225.575872 
L 444.331106 -224.817562 
L 446.709639 -224.063724 
L 449.088171 -223.315458 
L 451.466703 -222.573673 
L 453.845235 -221.839103 
L 456.223768 -221.112329 
L 458.6023 -220.393823 
L 460.980832 -219.68398 
L 463.359365 -218.983137 
L 465.737897 -218.291609 
L 468.116429 -217.609712 
L 470.494962 -216.937791 
L 472.873494 -216.276245 
L 475.252026 -215.625537 
L 477.630559 -214.986226 
L 480.009091 -214.358965 
L 482.387623 -213.744513 
L 484.766156 -213.143737 
L 487.144688 -212.557597 
L 489.52322 -211.98715 
L 491.901752 -211.43352 
L 494.280285 -210.897878 
L 496.658817 -210.381422 
L 499.037349 -209.885335 
L 501.415882 -209.410739 
L 503.794414 -208.95865 
L 506.172946 -208.529915 
L 508.551479 -208.125148 
L 510.930011 -207.74465 
L 513.308543 -207.388316 
L 515.687076 -207.05552 
L 518.065608 -206.744976 
L 520.44414 -206.454552 
L 522.822673 -206.18103 
L 525.201205 -205.919802 
L 527.579737 -205.664506 
L 529.958269 -205.40663 
L 532.336802 -205.13527 
L 534.715334 -204.837382 
L 537.093866 -204.499149 
L 539.472399 -204.108855 
L 541.850931 -203.660535 
L 544.229463 -203.1563 
L 546.607996 -202.60537 
L 548.986528 -202.020605 
L 551.36506 -201.414893 
L 553.743593 -200.799013 
L 556.122125 -200.181017 
L 558.500657 -199.566425 
L 560.879189 -198.958755 
L 563.257722 -198.360068 
L 565.636254 -197.77141 
L 568.014786 -197.193193 
L 570.393319 -196.625467 
L 572.771851 -196.068135 
L 575.150383 -195.521124 
L 577.528916 -194.984503 
L 579.907448 -194.458587 
L 582.28598 -193.943985 
L 584.664513 -193.441648 
L 587.043045 -192.952893 
L 589.421577 -192.479404 
L 591.80011 -192.023235 
L 594.178642 -191.586778 
L 596.557174 -191.172748 
L 598.935706 -190.784127 
L 601.314239 -190.42411 
L 603.692771 -190.096053 
L 606.071303 -189.803411 
L 608.449836 -189.549659 
L 610.828368 -189.338218 
L 613.2069 -189.172374 
L 615.585433 -189.055202 
L 617.963965 -188.989496 
L 620.342497 -188.977699 
L 622.72103 -189.021835 
L 625.099562 -189.123447 
L 627.478094 -189.283549 
L 629.856627 -189.502584 
L 632.235159 -189.780382 
L 634.613691 -190.116137 
L 636.992223 -190.5084 
L 639.370756 -190.955078 
L 641.749288 -191.453453 
L 644.12782 -192.000216 
L 646.506353 -192.591515 
L 648.884885 -193.223003 
L 651.263417 -193.889923 
L 653.64195 -194.587185 
L 656.020482 -195.309472 
L 658.399014 -196.051333 
L 660.777547 -196.80731 
L 663.156079 -197.57207 
L 665.534611 -198.340525 
L 667.913143 -199.10796 
L 670.291676 -199.870152 
L 672.670208 -200.623472 
L 675.04874 -201.36494 
L 677.427273 -202.092291 
L 677.427273 -222.795343 
L 677.427273 -222.795343 
L 675.04874 -221.659385 
L 672.670208 -220.578803 
L 670.291676 -219.553493 
L 667.913143 -218.583037 
L 665.534611 -217.666715 
L 663.156079 -216.803578 
L 660.777547 -215.9925 
L 658.399014 -215.232206 
L 656.020482 -214.521347 
L 653.64195 -213.858561 
L 651.263417 -213.242505 
L 648.884885 -212.671858 
L 646.506353 -212.145355 
L 644.12782 -211.661778 
L 641.749288 -211.219926 
L 639.370756 -210.818609 
L 636.992223 -210.456628 
L 634.613691 -210.132711 
L 632.235159 -209.845505 
L 629.856627 -209.59354 
L 627.478094 -209.3752 
L 625.099562 -209.188728 
L 622.72103 -209.0322 
L 620.342497 -208.903511 
L 617.963965 -208.800396 
L 615.585433 -208.72044 
L 613.2069 -208.6611 
L 610.828368 -208.619733 
L 608.449836 -208.593634 
L 606.071303 -208.58006 
L 603.692771 -208.576278 
L 601.314239 -208.579619 
L 598.935706 -208.587512 
L 596.557174 -208.597532 
L 594.178642 -208.607444 
L 591.80011 -208.615245 
L 589.421577 -208.619203 
L 587.043045 -208.617869 
L 584.664513 -208.610121 
L 582.28598 -208.595201 
L 579.907448 -208.572738 
L 577.528916 -208.542776 
L 575.150383 -208.505794 
L 572.771851 -208.462738 
L 570.393319 -208.415057 
L 568.014786 -208.364733 
L 565.636254 -208.314359 
L 563.257722 -208.267216 
L 560.879189 -208.227398 
L 558.500657 -208.200001 
L 556.122125 -208.191362 
L 553.743593 -208.209398 
L 551.36506 -208.264013 
L 548.986528 -208.367493 
L 546.607996 -208.53458 
L 544.229463 -208.781721 
L 541.850931 -209.124824 
L 539.472399 -209.575549 
L 537.093866 -210.137727 
L 534.715334 -210.806344 
L 532.336802 -211.569795 
L 529.958269 -212.413526 
L 527.579737 -213.322888 
L 525.201205 -214.284509 
L 522.822673 -215.286586 
L 520.44414 -216.318685 
L 518.065608 -217.371426 
L 515.687076 -218.4362 
L 513.308543 -219.504958 
L 510.930011 -220.57008 
L 508.551479 -221.624316 
L 506.172946 -222.660757 
L 503.794414 -223.672847 
L 501.415882 -224.654407 
L 499.037349 -225.599676 
L 496.658817 -226.503357 
L 494.280285 -227.360665 
L 491.901752 -228.16737 
L 489.52322 -228.919837 
L 487.144688 -229.615067 
L 484.766156 -230.250722 
L 482.387623 -230.825151 
L 480.009091 -231.337403 
L 477.630559 -231.787234 
L 475.252026 -232.175105 
L 472.873494 -232.502167 
L 470.494962 -232.77024 
L 468.116429 -232.981783 
L 465.737897 -233.139852 
L 463.359365 -233.248042 
L 460.980832 -233.310435 
L 458.6023 -233.331539 
L 456.223768 -233.316201 
L 453.845235 -233.269529 
L 451.466703 -233.196801 
L 449.088171 -233.103369 
L 446.709639 -232.994559 
L 444.331106 -232.875589 
L 441.952574 -232.751468 
L 439.574042 -232.62691 
L 437.195509 -232.506262 
L 434.816977 -232.393473 
L 432.438445 -232.292129 
L 430.059912 -232.205675 
L 427.68138 -232.138273 
L 425.302848 -232.098763 
L 422.924315 -232.130734 
L 420.545783 -232.479756 
L 418.167251 -233.110074 
L 415.788719 -233.771037 
L 413.410186 -234.419717 
L 411.031654 -235.045724 
L 408.653122 -235.643704 
L 406.274589 -236.209657 
L 403.896057 -236.740123 
L 401.517525 -237.231955 
L 399.138992 -237.682255 
L 396.76046 -238.08837 
L 394.381928 -238.44791 
L 392.003395 -238.758763 
L 389.624863 -239.019119 
L 387.246331 -239.227497 
L 384.867798 -239.38276 
L 382.489266 -239.484143 
L 380.110734 -239.531274 
L 377.732202 -239.524185 
L 375.353669 -239.463331 
L 372.975137 -239.349605 
L 370.596605 -239.184344 
L 368.218072 -238.969337 
L 365.83954 -238.706841 
L 363.461008 -238.39958 
L 361.082475 -238.050756 
L 358.703943 -237.664058 
L 356.325411 -237.243668 
L 353.946878 -236.794275 
L 351.568346 -236.321095 
L 349.189814 -235.829904 
L 346.811281 -235.327068 
L 344.432749 -234.819567 
L 342.054217 -234.31502 
L 339.675685 -233.821654 
L 337.297152 -233.348191 
L 334.91862 -232.903596 
L 332.540088 -232.496629 
L 330.161555 -232.135207 
L 327.783023 -231.825632 
L 325.404491 -231.571924 
L 323.025958 -231.375444 
L 320.647426 -231.234913 
L 318.268894 -231.146839 
L 315.890361 -231.106139 
L 313.511829 -231.10673 
L 311.133297 -231.142029 
L 308.754765 -231.205284 
L 306.376232 -231.289775 
L 303.9977 -231.388951 
L 301.619168 -231.496516 
L 299.240635 -231.606451 
L 296.862103 -231.713082 
L 294.483571 -231.811116 
L 292.105038 -231.895687 
L 289.726506 -231.962401 
L 287.347974 -232.007359 
L 284.969441 -232.027235 
L 282.590909 -232.019304 
L 280.212377 -231.98144 
L 277.833844 -231.912179 
L 275.455312 -231.810722 
L 273.07678 -231.676948 
L 270.698248 -231.511434 
L 268.319715 -231.315389 
L 265.941183 -231.090656 
L 263.562651 -230.839683 
L 261.184118 -230.565469 
L 258.805586 -230.271498 
L 256.427054 -229.961673 
L 254.048521 -229.640217 
L 251.669989 -229.311578 
L 249.291457 -228.980339 
L 246.912924 -228.651108 
L 244.534392 -228.328422 
L 242.15586 -228.016644 
L 239.777327 -227.719873 
L 237.398795 -227.441879 
L 235.020263 -227.186057 
L 232.641731 -226.955398 
L 230.263198 -226.75253 
L 227.884666 -226.57979 
L 225.506134 -226.439376 
L 223.127601 -226.333588 
L 220.749069 -226.265147 
L 218.370537 -226.237571 
L 215.992004 -226.255418 
L 213.613472 -226.323994 
L 211.23494 -226.447952 
L 208.856407 -226.628687 
L 206.477875 -226.861932 
L 204.099343 -227.137744 
L 201.720811 -227.443103 
L 199.342278 -227.764997 
L 196.963746 -228.092227 
L 194.585214 -228.415883 
L 192.206681 -228.729131 
L 189.828149 -229.02681 
L 187.449617 -229.30506 
L 185.071084 -229.561029 
L 182.692552 -229.792664 
L 180.31402 -229.998556 
L 177.935487 -230.177825 
L 175.556955 -230.330038 
L 173.178423 -230.455132 
L 170.79989 -230.553358 
L 168.421358 -230.625223 
L 166.042826 -230.671438 
L 163.664294 -230.692866 
L 161.285761 -230.690477 
L 158.907229 -230.665296 
L 156.528697 -230.618362 
L 154.150164 -230.550683 
L 151.771632 -230.463197 
L 149.3931 -230.356735 
L 147.014567 -230.231997 
L 144.636035 -230.089517 
L 142.257503 -229.929654 
L 139.87897 -229.75257 
L 137.500438 -229.558232 
L 135.121906 -229.346403 
L 132.743373 -229.116655 
L 130.364841 -228.868386 
L 127.986309 -228.600827 
L 125.607777 -228.313078 
L 123.229244 -228.004127 
L 120.850712 -227.672887 
L 118.47218 -227.318224 
L 116.093647 -226.939 
L 113.715115 -226.534108 
L 111.336583 -226.102504 
L 108.95805 -225.643238 
L 106.579518 -225.155478 
L 104.200986 -224.638546 
L 101.822453 -224.09193 
L 99.443921 -223.515305 
L 97.065389 -222.908545 
L 94.686857 -222.27173 
L 92.308324 -221.605152 
L 89.929792 -220.909314 
L 87.55126 -220.184926 
L 85.172727 -219.432903 
z
" style="stroke: #000080; stroke-opacity: 0.1"/>
    </defs>
    <g clip-path="url(#pc9ccb972bf)">
     <use xlink:href="#m90778586c6" x="0" y="360" style="fill: #000080; fill-opacity: 0.1; stroke: #000080; stroke-opacity: 0.1"/>
    </g>
   </g>
   <g id="line2d_1">
    <path d="M 85.172727 168.419164 
L 89.929792 166.692064 
L 94.686857 165.132263 
L 99.443921 163.752852 
L 104.200986 162.562356 
L 108.95805 161.564239 
L 113.715115 160.756653 
L 118.47218 160.132465 
L 123.229244 159.679679 
L 130.364841 159.285628 
L 137.500438 159.174017 
L 144.636035 159.272904 
L 154.150164 159.615258 
L 173.178423 160.598003 
L 199.342278 162.153804 
L 220.749069 163.67793 
L 282.590909 168.469193 
L 308.754765 170.830521 
L 334.91862 173.150049 
L 351.568346 174.413068 
L 368.218072 175.443303 
L 382.489266 176.114621 
L 396.76046 176.550847 
L 408.653122 176.699867 
L 420.545783 176.641479 
L 437.195509 176.292685 
L 458.6023 175.846476 
L 470.494962 175.850947 
L 482.387623 176.113463 
L 494.280285 176.599071 
L 515.687076 177.744209 
L 572.771851 180.793163 
L 587.043045 181.42969 
L 596.557174 181.678836 
L 606.071303 181.717312 
L 615.585433 181.511526 
L 625.099562 181.067585 
L 636.992223 180.252884 
L 677.427273 177.0143 
L 677.427273 177.0143 
" clip-path="url(#pc9ccb972bf)" style="fill: none; stroke: #000080; stroke-width: 1.5; stroke-linecap: round"/>
   </g>
   <g id="line2d_2">
    <path d="M 85.172727 149.488074 
L 94.686857 146.596456 
L 101.822453 144.636254 
L 108.95805 142.864802 
L 116.093647 141.274897 
L 125.607777 139.40423 
L 135.121906 137.76814 
L 144.636035 136.331215 
L 154.150164 135.102664 
L 161.285761 134.351377 
L 168.421358 133.785132 
L 175.556955 133.439148 
L 182.692552 133.336842 
L 189.828149 133.479792 
L 196.963746 133.841053 
L 206.477875 134.560373 
L 223.127601 135.892467 
L 230.263198 136.262809 
L 237.398795 136.428815 
L 244.534392 136.381623 
L 254.048521 136.041296 
L 268.319715 135.223327 
L 287.347974 134.186021 
L 306.376232 133.185972 
L 315.890361 132.430625 
L 323.025958 131.665782 
L 330.161555 130.720161 
L 339.675685 129.230886 
L 358.703943 126.135006 
L 365.83954 125.226369 
L 372.975137 124.590053 
L 377.732202 124.344642 
L 382.489266 124.251956 
L 387.246331 124.312392 
L 394.381928 124.674201 
L 401.517525 125.316925 
L 411.031654 126.486707 
L 458.6023 133.137319 
L 468.116429 134.704252 
L 475.252026 136.099679 
L 482.387623 137.715168 
L 489.52322 139.546507 
L 499.037349 142.257495 
L 522.822673 149.266192 
L 529.958269 151.089922 
L 537.093866 152.681562 
L 544.229463 154.03099 
L 551.36506 155.160547 
L 560.879189 156.406923 
L 575.150383 157.986541 
L 594.178642 159.902889 
L 603.692771 160.663835 
L 610.828368 161.021024 
L 617.963965 161.105054 
L 622.72103 160.972983 
L 627.478094 160.670625 
L 632.235159 160.187056 
L 636.992223 159.517486 
L 641.749288 158.663311 
L 646.506353 157.631565 
L 651.263417 156.433786 
L 658.399014 154.35823 
L 665.534611 151.99638 
L 672.670208 149.398863 
L 677.427273 147.556183 
L 677.427273 147.556183 
" clip-path="url(#pc9ccb972bf)" style="fill: none; stroke-dasharray: 5.55,2.4; stroke-dashoffset: 0; stroke: #000080; stroke-width: 1.5"/>
   </g>
   <g id="patch_3">
    <path d="M 55.56 310.98 
L 55.56 28.08 
" style="fill: none; stroke: #ffffff; stroke-width: 1.25; stroke-linejoin: miter; stroke-linecap: square"/>
   </g>
   <g id="patch_4">
    <path d="M 707.04 310.98 
L 707.04 28.08 
" style="fill: none; stroke: #ffffff; stroke-width: 1.25; stroke-linejoin: miter; stroke-linecap: square"/>
   </g>
   <g id="patch_5">
    <path d="M 55.56 310.98 
L 707.04 310.98 
" style="fill: none; stroke: #ffffff; stroke-width: 1.25; stroke-linejoin: miter; stroke-linecap: square"/>
   </g>
   <g id="patch_6">
    <path d="M 55.56 28.08 
L 707.04 28.08 
" style="fill: none; stroke: #ffffff; stroke-width: 1.25; stroke-linejoin: miter; stroke-linecap: square"/>
   </g>
   <g id="text_14">
    <!-- QG3L - [112, 176] x [256, 384] -->
    <g style="fill: #262626" transform="translate(288.6225 22.08) scale(0.12 -0.12)">
     <defs>
      <path id="DejaVuSans-51" d="M 2522 4238 
Q 1834 4238 1429 3725 
Q 1025 3213 1025 2328 
Q 1025 1447 1429 934 
Q 1834 422 2522 422 
Q 3209 422 3611 934 
Q 4013 1447 4013 2328 
Q 4013 3213 3611 3725 
Q 3209 4238 2522 4238 
z
M 3406 84 
L 4238 -825 
L 3475 -825 
L 2784 -78 
Q 2681 -84 2626 -87 
Q 2572 -91 2522 -91 
Q 1538 -91 948 567 
Q 359 1225 359 2328 
Q 359 3434 948 4092 
Q 1538 4750 2522 4750 
Q 3503 4750 4090 4092 
Q 4678 3434 4678 2328 
Q 4678 1516 4351 937 
Q 4025 359 3406 84 
z
" transform="scale(0.015625)"/>
      <path id="DejaVuSans-47" d="M 3809 666 
L 3809 1919 
L 2778 1919 
L 2778 2438 
L 4434 2438 
L 4434 434 
Q 4069 175 3628 42 
Q 3188 -91 2688 -91 
Q 1594 -91 976 548 
Q 359 1188 359 2328 
Q 359 3472 976 4111 
Q 1594 4750 2688 4750 
Q 3144 4750 3555 4637 
Q 3966 4525 4313 4306 
L 4313 3634 
Q 3963 3931 3569 4081 
Q 3175 4231 2741 4231 
Q 1884 4231 1454 3753 
Q 1025 3275 1025 2328 
Q 1025 1384 1454 906 
Q 1884 428 2741 428 
Q 3075 428 3337 486 
Q 3600 544 3809 666 
z
" transform="scale(0.015625)"/>
      <path id="DejaVuSans-33" d="M 2597 2516 
Q 3050 2419 3304 2112 
Q 3559 1806 3559 1356 
Q 3559 666 3084 287 
Q 2609 -91 1734 -91 
Q 1441 -91 1130 -33 
Q 819 25 488 141 
L 488 750 
Q 750 597 1062 519 
Q 1375 441 1716 441 
Q 2309 441 2620 675 
Q 2931 909 2931 1356 
Q 2931 1769 2642 2001 
Q 2353 2234 1838 2234 
L 1294 2234 
L 1294 2753 
L 1863 2753 
Q 2328 2753 2575 2939 
Q 2822 3125 2822 3475 
Q 2822 3834 2567 4026 
Q 2313 4219 1838 4219 
Q 1578 4219 1281 4162 
Q 984 4106 628 3988 
L 628 4550 
Q 988 4650 1302 4700 
Q 1616 4750 1894 4750 
Q 2613 4750 3031 4423 
Q 3450 4097 3450 3541 
Q 3450 3153 3228 2886 
Q 3006 2619 2597 2516 
z
" transform="scale(0.015625)"/>
      <path id="DejaVuSans-4c" d="M 628 4666 
L 1259 4666 
L 1259 531 
L 3531 531 
L 3531 0 
L 628 0 
L 628 4666 
z
" transform="scale(0.015625)"/>
      <path id="DejaVuSans-2d" d="M 313 2009 
L 1997 2009 
L 1997 1497 
L 313 1497 
L 313 2009 
z
" transform="scale(0.015625)"/>
      <path id="DejaVuSans-2c" d="M 750 794 
L 1409 794 
L 1409 256 
L 897 -744 
L 494 -744 
L 750 256 
L 750 794 
z
" transform="scale(0.015625)"/>
      <path id="DejaVuSans-37" d="M 525 4666 
L 3525 4666 
L 3525 4397 
L 1831 0 
L 1172 0 
L 2766 4134 
L 525 4134 
L 525 4666 
z
" transform="scale(0.015625)"/>
      <path id="DejaVuSans-78" d="M 3513 3500 
L 2247 1797 
L 3578 0 
L 2900 0 
L 1881 1375 
L 863 0 
L 184 0 
L 1544 1831 
L 300 3500 
L 978 3500 
L 1906 2253 
L 2834 3500 
L 3513 3500 
z
" transform="scale(0.015625)"/>
     </defs>
     <use xlink:href="#DejaVuSans-51"/>
     <use xlink:href="#DejaVuSans-47" transform="translate(78.710938 0)"/>
     <use xlink:href="#DejaVuSans-33" transform="translate(156.201172 0)"/>
     <use xlink:href="#DejaVuSans-4c" transform="translate(219.824219 0)"/>
     <use xlink:href="#DejaVuSans-20" transform="translate(275.537109 0)"/>
     <use xlink:href="#DejaVuSans-2d" transform="translate(307.324219 0)"/>
     <use xlink:href="#DejaVuSans-20" transform="translate(343.408203 0)"/>
     <use xlink:href="#DejaVuSans-5b" transform="translate(375.195312 0)"/>
     <use xlink:href="#DejaVuSans-31" transform="translate(414.208984 0)"/>
     <use xlink:href="#DejaVuSans-31" transform="translate(477.832031 0)"/>
     <use xlink:href="#DejaVuSans-32" transform="translate(541.455078 0)"/>
     <use xlink:href="#DejaVuSans-2c" transform="translate(605.078125 0)"/>
     <use xlink:href="#DejaVuSans-20" transform="translate(636.865234 0)"/>
     <use xlink:href="#DejaVuSans-31" transform="translate(668.652344 0)"/>
     <use xlink:href="#DejaVuSans-37" transform="translate(732.275391 0)"/>
     <use xlink:href="#DejaVuSans-36" transform="translate(795.898438 0)"/>
     <use xlink:href="#DejaVuSans-5d" transform="translate(859.521484 0)"/>
     <use xlink:href="#DejaVuSans-20" transform="translate(898.535156 0)"/>
     <use xlink:href="#DejaVuSans-78" transform="translate(930.322266 0)"/>
     <use xlink:href="#DejaVuSans-20" transform="translate(989.501953 0)"/>
     <use xlink:href="#DejaVuSans-5b" transform="translate(1021.289062 0)"/>
     <use xlink:href="#DejaVuSans-32" transform="translate(1060.302734 0)"/>
     <use xlink:href="#DejaVuSans-35" transform="translate(1123.925781 0)"/>
     <use xlink:href="#DejaVuSans-36" transform="translate(1187.548828 0)"/>
     <use xlink:href="#DejaVuSans-2c" transform="translate(1251.171875 0)"/>
     <use xlink:href="#DejaVuSans-20" transform="translate(1282.958984 0)"/>
     <use xlink:href="#DejaVuSans-33" transform="translate(1314.746094 0)"/>
     <use xlink:href="#DejaVuSans-38" transform="translate(1378.369141 0)"/>
     <use xlink:href="#DejaVuSans-34" transform="translate(1441.992188 0)"/>
     <use xlink:href="#DejaVuSans-5d" transform="translate(1505.615234 0)"/>
    </g>
   </g>
   <g id="legend_1">
    <g id="patch_7">
     <path d="M 517.924219 69.171875 
L 699.34 69.171875 
Q 701.54 69.171875 701.54 66.971875 
L 701.54 35.78 
Q 701.54 33.58 699.34 33.58 
L 517.924219 33.58 
Q 515.724219 33.58 515.724219 35.78 
L 515.724219 66.971875 
Q 515.724219 69.171875 517.924219 69.171875 
z
" style="fill: #eaeaf2; opacity: 0.8; stroke: #cccccc; stroke-linejoin: miter"/>
    </g>
    <g id="line2d_3">
     <path d="M 520.124219 42.488281 
L 531.124219 42.488281 
L 542.124219 42.488281 
" style="fill: none; stroke: #000080; stroke-width: 1.5; stroke-linecap: round"/>
    </g>
    <g id="text_15">
     <!-- SurfML -->
     <g style="fill: #262626" transform="translate(550.924219 46.338281) scale(0.11 -0.11)">
      <defs>
       <path id="DejaVuSans-75" d="M 544 1381 
L 544 3500 
L 1119 3500 
L 1119 1403 
Q 1119 906 1312 657 
Q 1506 409 1894 409 
Q 2359 409 2629 706 
Q 2900 1003 2900 1516 
L 2900 3500 
L 3475 3500 
L 3475 0 
L 2900 0 
L 2900 538 
Q 2691 219 2414 64 
Q 2138 -91 1772 -91 
Q 1169 -91 856 284 
Q 544 659 544 1381 
z
M 1991 3584 
L 1991 3584 
z
" transform="scale(0.015625)"/>
       <path id="DejaVuSans-72" d="M 2631 2963 
Q 2534 3019 2420 3045 
Q 2306 3072 2169 3072 
Q 1681 3072 1420 2755 
Q 1159 2438 1159 1844 
L 1159 0 
L 581 0 
L 581 3500 
L 1159 3500 
L 1159 2956 
Q 1341 3275 1631 3429 
Q 1922 3584 2338 3584 
Q 2397 3584 2469 3576 
Q 2541 3569 2628 3553 
L 2631 2963 
z
" transform="scale(0.015625)"/>
       <path id="DejaVuSans-66" d="M 2375 4863 
L 2375 4384 
L 1825 4384 
Q 1516 4384 1395 4259 
Q 1275 4134 1275 3809 
L 1275 3500 
L 2222 3500 
L 2222 3053 
L 1275 3053 
L 1275 0 
L 697 0 
L 697 3053 
L 147 3053 
L 147 3500 
L 697 3500 
L 697 3744 
Q 697 4328 969 4595 
Q 1241 4863 1831 4863 
L 2375 4863 
z
" transform="scale(0.015625)"/>
      </defs>
      <use xlink:href="#DejaVuSans-53"/>
      <use xlink:href="#DejaVuSans-75" transform="translate(63.476562 0)"/>
      <use xlink:href="#DejaVuSans-72" transform="translate(126.855469 0)"/>
      <use xlink:href="#DejaVuSans-66" transform="translate(167.96875 0)"/>
      <use xlink:href="#DejaVuSans-4d" transform="translate(203.173828 0)"/>
      <use xlink:href="#DejaVuSans-4c" transform="translate(289.453125 0)"/>
     </g>
    </g>
    <g id="line2d_4">
     <path d="M 520.124219 58.634219 
L 531.124219 58.634219 
L 542.124219 58.634219 
" style="fill: none; stroke-dasharray: 5.55,2.4; stroke-dashoffset: 0; stroke: #000080; stroke-width: 1.5"/>
    </g>
    <g id="text_16">
     <!-- SurfML - No Regularization -->
     <g style="fill: #262626" transform="translate(550.924219 62.484219) scale(0.11 -0.11)">
      <defs>
       <path id="DejaVuSans-4e" d="M 628 4666 
L 1478 4666 
L 3547 763 
L 3547 4666 
L 4159 4666 
L 4159 0 
L 3309 0 
L 1241 3903 
L 1241 0 
L 628 0 
L 628 4666 
z
" transform="scale(0.015625)"/>
       <path id="DejaVuSans-6f" d="M 1959 3097 
Q 1497 3097 1228 2736 
Q 959 2375 959 1747 
Q 959 1119 1226 758 
Q 1494 397 1959 397 
Q 2419 397 2687 759 
Q 2956 1122 2956 1747 
Q 2956 2369 2687 2733 
Q 2419 3097 1959 3097 
z
M 1959 3584 
Q 2709 3584 3137 3096 
Q 3566 2609 3566 1747 
Q 3566 888 3137 398 
Q 2709 -91 1959 -91 
Q 1206 -91 779 398 
Q 353 888 353 1747 
Q 353 2609 779 3096 
Q 1206 3584 1959 3584 
z
" transform="scale(0.015625)"/>
       <path id="DejaVuSans-67" d="M 2906 1791 
Q 2906 2416 2648 2759 
Q 2391 3103 1925 3103 
Q 1463 3103 1205 2759 
Q 947 2416 947 1791 
Q 947 1169 1205 825 
Q 1463 481 1925 481 
Q 2391 481 2648 825 
Q 2906 1169 2906 1791 
z
M 3481 434 
Q 3481 -459 3084 -895 
Q 2688 -1331 1869 -1331 
Q 1566 -1331 1297 -1286 
Q 1028 -1241 775 -1147 
L 775 -588 
Q 1028 -725 1275 -790 
Q 1522 -856 1778 -856 
Q 2344 -856 2625 -561 
Q 2906 -266 2906 331 
L 2906 616 
Q 2728 306 2450 153 
Q 2172 0 1784 0 
Q 1141 0 747 490 
Q 353 981 353 1791 
Q 353 2603 747 3093 
Q 1141 3584 1784 3584 
Q 2172 3584 2450 3431 
Q 2728 3278 2906 2969 
L 2906 3500 
L 3481 3500 
L 3481 434 
z
" transform="scale(0.015625)"/>
       <path id="DejaVuSans-6c" d="M 603 4863 
L 1178 4863 
L 1178 0 
L 603 0 
L 603 4863 
z
" transform="scale(0.015625)"/>
       <path id="DejaVuSans-7a" d="M 353 3500 
L 3084 3500 
L 3084 2975 
L 922 459 
L 3084 459 
L 3084 0 
L 275 0 
L 275 525 
L 2438 3041 
L 353 3041 
L 353 3500 
z
" transform="scale(0.015625)"/>
       <path id="DejaVuSans-74" d="M 1172 4494 
L 1172 3500 
L 2356 3500 
L 2356 3053 
L 1172 3053 
L 1172 1153 
Q 1172 725 1289 603 
Q 1406 481 1766 481 
L 2356 481 
L 2356 0 
L 1766 0 
Q 1100 0 847 248 
Q 594 497 594 1153 
L 594 3053 
L 172 3053 
L 172 3500 
L 594 3500 
L 594 4494 
L 1172 4494 
z
" transform="scale(0.015625)"/>
      </defs>
      <use xlink:href="#DejaVuSans-53"/>
      <use xlink:href="#DejaVuSans-75" transform="translate(63.476562 0)"/>
      <use xlink:href="#DejaVuSans-72" transform="translate(126.855469 0)"/>
      <use xlink:href="#DejaVuSans-66" transform="translate(167.96875 0)"/>
      <use xlink:href="#DejaVuSans-4d" transform="translate(203.173828 0)"/>
      <use xlink:href="#DejaVuSans-4c" transform="translate(289.453125 0)"/>
      <use xlink:href="#DejaVuSans-20" transform="translate(345.166016 0)"/>
      <use xlink:href="#DejaVuSans-2d" transform="translate(376.953125 0)"/>
      <use xlink:href="#DejaVuSans-20" transform="translate(413.037109 0)"/>
      <use xlink:href="#DejaVuSans-4e" transform="translate(444.824219 0)"/>
      <use xlink:href="#DejaVuSans-6f" transform="translate(519.628906 0)"/>
      <use xlink:href="#DejaVuSans-20" transform="translate(580.810547 0)"/>
      <use xlink:href="#DejaVuSans-52" transform="translate(612.597656 0)"/>
      <use xlink:href="#DejaVuSans-65" transform="translate(677.580078 0)"/>
      <use xlink:href="#DejaVuSans-67" transform="translate(739.103516 0)"/>
      <use xlink:href="#DejaVuSans-75" transform="translate(802.580078 0)"/>
      <use xlink:href="#DejaVuSans-6c" transform="translate(865.958984 0)"/>
      <use xlink:href="#DejaVuSans-61" transform="translate(893.742188 0)"/>
      <use xlink:href="#DejaVuSans-72" transform="translate(955.021484 0)"/>
      <use xlink:href="#DejaVuSans-69" transform="translate(996.134766 0)"/>
      <use xlink:href="#DejaVuSans-7a" transform="translate(1023.917969 0)"/>
      <use xlink:href="#DejaVuSans-61" transform="translate(1076.408203 0)"/>
      <use xlink:href="#DejaVuSans-74" transform="translate(1137.6875 0)"/>
      <use xlink:href="#DejaVuSans-69" transform="translate(1176.896484 0)"/>
      <use xlink:href="#DejaVuSans-6f" transform="translate(1204.679688 0)"/>
      <use xlink:href="#DejaVuSans-6e" transform="translate(1265.861328 0)"/>
     </g>
    </g>
   </g>
  </g>
 </g>
 <defs>
  <clipPath id="pc9ccb972bf">
   <rect x="55.56" y="28.08" width="651.48" height="282.9"/>
  </clipPath>
 </defs>
</svg>
