<?xml version="1.0" encoding="utf-8" standalone="no"?>
<!DOCTYPE svg PUBLIC "-//W3C//DTD SVG 1.1//EN"
  "http://www.w3.org/Graphics/SVG/1.1/DTD/svg11.dtd">
<svg xmlns:xlink="http://www.w3.org/1999/xlink" width="720pt" height="360pt" viewBox="0 0 720 360" xmlns="http://www.w3.org/2000/svg" version="1.1">
 <metadata>
  <rdf:RDF xmlns:dc="http://purl.org/dc/elements/1.1/" xmlns:cc="http://creativecommons.org/ns#" xmlns:rdf="http://www.w3.org/1999/02/22-rdf-syntax-ns#">
   <cc:Work>
    <dc:type rdf:resource="http://purl.org/dc/dcmitype/StillImage"/>
    <dc:date>2026-03-23T14:27:44.942945</dc:date>
    <dc:format>image/svg+xml</dc:format>
    <dc:creator>
     <cc:Agent>
      <dc:title>Matplotlib v3.10.6, https://matplotlib.org/</dc:title>
     </cc:Agent>
    </dc:creator>
   </cc:Work>
  </rdf:RDF>
 </metadata>
 <defs>
  <style type="text/css">*{stroke-linejoin: round; stroke-linecap: butt}</style>
 </defs>
 <g id="figure_1">
  <g id="patch_1">
   <path d="M 0 360 
L 720 360 
L 720 0 
L 0 0 
z
" style="fill: #ffffff"/>
  </g>
  <g id="axes_1">
   <g id="patch_2">
    <path d="M 55.56 310.98 
L 707.04 310.98 
L 707.04 28.08 
L 55.56 28.08 
z
" style="fill: #eaeaf2"/>
   </g>
   <g id="matplotlib.axis_1">
    <g id="xtick_1">
     <g id="text_1">
      <!-- 0 -->
      <g style="fill: #262626" transform="translate(80.479291 328.838281) scale(0.11 -0.11)">
       <defs>
        <path id="DejaVuSans-30" d="M 2034 4250 
Q 1547 4250 1301 3770 
Q 1056 3291 1056 2328 
Q 1056 1369 1301 889 
Q 1547 409 2034 409 
Q 2525 409 2770 889 
Q 3016 1369 3016 2328 
Q 3016 3291 2770 3770 
Q 2525 4250 2034 4250 
z
M 2034 4750 
Q 2819 4750 3233 4129 
Q 3647 3509 3647 2328 
Q 3647 1150 3233 529 
Q 2819 -91 2034 -91 
Q 1250 -91 836 529 
Q 422 1150 422 2328 
Q 422 3509 836 4129 
Q 1250 4750 2034 4750 
z
" transform="scale(0.015625)"/>
       </defs>
       <use xlink:href="#DejaVuSans-30"/>
      </g>
     </g>
    </g>
    <g id="xtick_2">
     <g id="text_2">
      <!-- 5 -->
      <g style="fill: #262626" transform="translate(223.766681 328.838281) scale(0.11 -0.11)">
       <defs>
        <path id="DejaVuSans-35" d="M 691 4666 
L 3169 4666 
L 3169 4134 
L 1269 4134 
L 1269 2991 
Q 1406 3038 1543 3061 
Q 1681 3084 1819 3084 
Q 2600 3084 3056 2656 
Q 3513 2228 3513 1497 
Q 3513 744 3044 326 
Q 2575 -91 1722 -91 
Q 1428 -91 1123 -41 
Q 819 9 494 109 
L 494 744 
Q 775 591 1075 516 
Q 1375 441 1709 441 
Q 2250 441 2565 725 
Q 2881 1009 2881 1497 
Q 2881 1984 2565 2268 
Q 2250 2553 1709 2553 
Q 1456 2553 1204 2497 
Q 953 2441 691 2322 
L 691 4666 
z
" transform="scale(0.015625)"/>
       </defs>
       <use xlink:href="#DejaVuSans-35"/>
      </g>
     </g>
    </g>
    <g id="xtick_3">
     <g id="text_3">
      <!-- 10 -->
      <g style="fill: #262626" transform="translate(363.554696 328.838281) scale(0.11 -0.11)">
       <defs>
        <path id="DejaVuSans-31" d="M 794 531 
L 1825 531 
L 1825 4091 
L 703 3866 
L 703 4441 
L 1819 4666 
L 2450 4666 
L 2450 531 
L 3481 531 
L 3481 0 
L 794 0 
L 794 531 
z
" transform="scale(0.015625)"/>
       </defs>
       <use xlink:href="#DejaVuSans-31"/>
       <use xlink:href="#DejaVuSans-30" transform="translate(63.623047 0)"/>
      </g>
     </g>
    </g>
    <g id="xtick_4">
     <g id="text_4">
      <!-- 15 -->
      <g style="fill: #262626" transform="translate(506.842086 328.838281) scale(0.11 -0.11)">
       <use xlink:href="#DejaVuSans-31"/>
       <use xlink:href="#DejaVuSans-35" transform="translate(63.623047 0)"/>
      </g>
     </g>
    </g>
    <g id="xtick_5">
     <g id="text_5">
      <!-- 20 -->
      <g style="fill: #262626" transform="translate(650.129476 328.838281) scale(0.11 -0.11)">
       <defs>
        <path id="DejaVuSans-32" d="M 1228 531 
L 3431 531 
L 3431 0 
L 469 0 
L 469 531 
Q 828 903 1448 1529 
Q 2069 2156 2228 2338 
Q 2531 2678 2651 2914 
Q 2772 3150 2772 3378 
Q 2772 3750 2511 3984 
Q 2250 4219 1831 4219 
Q 1534 4219 1204 4116 
Q 875 4013 500 3803 
L 500 4441 
Q 881 4594 1212 4672 
Q 1544 4750 1819 4750 
Q 2544 4750 2975 4387 
Q 3406 4025 3406 3419 
Q 3406 3131 3298 2873 
Q 3191 2616 2906 2266 
Q 2828 2175 2409 1742 
Q 1991 1309 1228 531 
z
" transform="scale(0.015625)"/>
       </defs>
       <use xlink:href="#DejaVuSans-32"/>
       <use xlink:href="#DejaVuSans-30" transform="translate(63.623047 0)"/>
      </g>
     </g>
    </g>
    <g id="text_6">
     <!-- Time [days] -->
     <g style="fill: #262626" transform="translate(345.868125 344.244062) scale(0.12 -0.12)">
      <defs>
       <path id="DejaVuSans-54" d="M -19 4666 
L 3928 4666 
L 3928 4134 
L 2272 4134 
L 2272 0 
L 1638 0 
L 1638 4134 
L -19 4134 
L -19 4666 
z
" transform="scale(0.015625)"/>
       <path id="DejaVuSans-69" d="M 603 3500 
L 1178 3500 
L 1178 0 
L 603 0 
L 603 3500 
z
M 603 4863 
L 1178 4863 
L 1178 4134 
L 603 4134 
L 603 4863 
z
" transform="scale(0.015625)"/>
       <path id="DejaVuSans-6d" d="M 3328 2828 
Q 3544 3216 3844 3400 
Q 4144 3584 4550 3584 
Q 5097 3584 5394 3201 
Q 5691 2819 5691 2113 
L 5691 0 
L 5113 0 
L 5113 2094 
Q 5113 2597 4934 2840 
Q 4756 3084 4391 3084 
Q 3944 3084 3684 2787 
Q 3425 2491 3425 1978 
L 3425 0 
L 2847 0 
L 2847 2094 
Q 2847 2600 2669 2842 
Q 2491 3084 2119 3084 
Q 1678 3084 1418 2786 
Q 1159 2488 1159 1978 
L 1159 0 
L 581 0 
L 581 3500 
L 1159 3500 
L 1159 2956 
Q 1356 3278 1631 3431 
Q 1906 3584 2284 3584 
Q 2666 3584 2933 3390 
Q 3200 3197 3328 2828 
z
" transform="scale(0.015625)"/>
       <path id="DejaVuSans-65" d="M 3597 1894 
L 3597 1613 
L 953 1613 
Q 991 1019 1311 708 
Q 1631 397 2203 397 
Q 2534 397 2845 478 
Q 3156 559 3463 722 
L 3463 178 
Q 3153 47 2828 -22 
Q 2503 -91 2169 -91 
Q 1331 -91 842 396 
Q 353 884 353 1716 
Q 353 2575 817 3079 
Q 1281 3584 2069 3584 
Q 2775 3584 3186 3129 
Q 3597 2675 3597 1894 
z
M 3022 2063 
Q 3016 2534 2758 2815 
Q 2500 3097 2075 3097 
Q 1594 3097 1305 2825 
Q 1016 2553 972 2059 
L 3022 2063 
z
" transform="scale(0.015625)"/>
       <path id="DejaVuSans-20" transform="scale(0.015625)"/>
       <path id="DejaVuSans-5b" d="M 550 4863 
L 1875 4863 
L 1875 4416 
L 1125 4416 
L 1125 -397 
L 1875 -397 
L 1875 -844 
L 550 -844 
L 550 4863 
z
" transform="scale(0.015625)"/>
       <path id="DejaVuSans-64" d="M 2906 2969 
L 2906 4863 
L 3481 4863 
L 3481 0 
L 2906 0 
L 2906 525 
Q 2725 213 2448 61 
Q 2172 -91 1784 -91 
Q 1150 -91 751 415 
Q 353 922 353 1747 
Q 353 2572 751 3078 
Q 1150 3584 1784 3584 
Q 2172 3584 2448 3432 
Q 2725 3281 2906 2969 
z
M 947 1747 
Q 947 1113 1208 752 
Q 1469 391 1925 391 
Q 2381 391 2643 752 
Q 2906 1113 2906 1747 
Q 2906 2381 2643 2742 
Q 2381 3103 1925 3103 
Q 1469 3103 1208 2742 
Q 947 2381 947 1747 
z
" transform="scale(0.015625)"/>
       <path id="DejaVuSans-61" d="M 2194 1759 
Q 1497 1759 1228 1600 
Q 959 1441 959 1056 
Q 959 750 1161 570 
Q 1363 391 1709 391 
Q 2188 391 2477 730 
Q 2766 1069 2766 1631 
L 2766 1759 
L 2194 1759 
z
M 3341 1997 
L 3341 0 
L 2766 0 
L 2766 531 
Q 2569 213 2275 61 
Q 1981 -91 1556 -91 
Q 1019 -91 701 211 
Q 384 513 384 1019 
Q 384 1609 779 1909 
Q 1175 2209 1959 2209 
L 2766 2209 
L 2766 2266 
Q 2766 2663 2505 2880 
Q 2244 3097 1772 3097 
Q 1472 3097 1187 3025 
Q 903 2953 641 2809 
L 641 3341 
Q 956 3463 1253 3523 
Q 1550 3584 1831 3584 
Q 2591 3584 2966 3190 
Q 3341 2797 3341 1997 
z
" transform="scale(0.015625)"/>
       <path id="DejaVuSans-79" d="M 2059 -325 
Q 1816 -950 1584 -1140 
Q 1353 -1331 966 -1331 
L 506 -1331 
L 506 -850 
L 844 -850 
Q 1081 -850 1212 -737 
Q 1344 -625 1503 -206 
L 1606 56 
L 191 3500 
L 800 3500 
L 1894 763 
L 2988 3500 
L 3597 3500 
L 2059 -325 
z
" transform="scale(0.015625)"/>
       <path id="DejaVuSans-73" d="M 2834 3397 
L 2834 2853 
Q 2591 2978 2328 3040 
Q 2066 3103 1784 3103 
Q 1356 3103 1142 2972 
Q 928 2841 928 2578 
Q 928 2378 1081 2264 
Q 1234 2150 1697 2047 
L 1894 2003 
Q 2506 1872 2764 1633 
Q 3022 1394 3022 966 
Q 3022 478 2636 193 
Q 2250 -91 1575 -91 
Q 1294 -91 989 -36 
Q 684 19 347 128 
L 347 722 
Q 666 556 975 473 
Q 1284 391 1588 391 
Q 1994 391 2212 530 
Q 2431 669 2431 922 
Q 2431 1156 2273 1281 
Q 2116 1406 1581 1522 
L 1381 1569 
Q 847 1681 609 1914 
Q 372 2147 372 2553 
Q 372 3047 722 3315 
Q 1072 3584 1716 3584 
Q 2034 3584 2315 3537 
Q 2597 3491 2834 3397 
z
" transform="scale(0.015625)"/>
       <path id="DejaVuSans-5d" d="M 1947 4863 
L 1947 -844 
L 622 -844 
L 622 -397 
L 1369 -397 
L 1369 4416 
L 622 4416 
L 622 4863 
L 1947 4863 
z
" transform="scale(0.015625)"/>
      </defs>
      <use xlink:href="#DejaVuSans-54"/>
      <use xlink:href="#DejaVuSans-69" transform="translate(57.958984 0)"/>
      <use xlink:href="#DejaVuSans-6d" transform="translate(85.742188 0)"/>
      <use xlink:href="#DejaVuSans-65" transform="translate(183.154297 0)"/>
      <use xlink:href="#DejaVuSans-20" transform="translate(244.677734 0)"/>
      <use xlink:href="#DejaVuSans-5b" transform="translate(276.464844 0)"/>
      <use xlink:href="#DejaVuSans-64" transform="translate(315.478516 0)"/>
      <use xlink:href="#DejaVuSans-61" transform="translate(378.955078 0)"/>
      <use xlink:href="#DejaVuSans-79" transform="translate(440.234375 0)"/>
      <use xlink:href="#DejaVuSans-73" transform="translate(499.414062 0)"/>
      <use xlink:href="#DejaVuSans-5d" transform="translate(551.513672 0)"/>
     </g>
    </g>
   </g>
   <g id="matplotlib.axis_2">
    <g id="ytick_1">
     <g id="text_7">
      <!-- 0.0 -->
      <g style="fill: #262626" transform="translate(28.566562 302.30005) scale(0.11 -0.11)">
       <defs>
        <path id="DejaVuSans-2e" d="M 684 794 
L 1344 794 
L 1344 0 
L 684 0 
L 684 794 
z
" transform="scale(0.015625)"/>
       </defs>
       <use xlink:href="#DejaVuSans-30"/>
       <use xlink:href="#DejaVuSans-2e" transform="translate(63.623047 0)"/>
       <use xlink:href="#DejaVuSans-30" transform="translate(95.410156 0)"/>
      </g>
     </g>
    </g>
    <g id="ytick_2">
     <g id="text_8">
      <!-- 0.2 -->
      <g style="fill: #262626" transform="translate(28.566562 250.863686) scale(0.11 -0.11)">
       <use xlink:href="#DejaVuSans-30"/>
       <use xlink:href="#DejaVuSans-2e" transform="translate(63.623047 0)"/>
       <use xlink:href="#DejaVuSans-32" transform="translate(95.410156 0)"/>
      </g>
     </g>
    </g>
    <g id="ytick_3">
     <g id="text_9">
      <!-- 0.4 -->
      <g style="fill: #262626" transform="translate(28.566562 199.427322) scale(0.11 -0.11)">
       <defs>
        <path id="DejaVuSans-34" d="M 2419 4116 
L 825 1625 
L 2419 1625 
L 2419 4116 
z
M 2253 4666 
L 3047 4666 
L 3047 1625 
L 3713 1625 
L 3713 1100 
L 3047 1100 
L 3047 0 
L 2419 0 
L 2419 1100 
L 313 1100 
L 313 1709 
L 2253 4666 
z
" transform="scale(0.015625)"/>
       </defs>
       <use xlink:href="#DejaVuSans-30"/>
       <use xlink:href="#DejaVuSans-2e" transform="translate(63.623047 0)"/>
       <use xlink:href="#DejaVuSans-34" transform="translate(95.410156 0)"/>
      </g>
     </g>
    </g>
    <g id="ytick_4">
     <g id="text_10">
      <!-- 0.6 -->
      <g style="fill: #262626" transform="translate(28.566562 147.990959) scale(0.11 -0.11)">
       <defs>
        <path id="DejaVuSans-36" d="M 2113 2584 
Q 1688 2584 1439 2293 
Q 1191 2003 1191 1497 
Q 1191 994 1439 701 
Q 1688 409 2113 409 
Q 2538 409 2786 701 
Q 3034 994 3034 1497 
Q 3034 2003 2786 2293 
Q 2538 2584 2113 2584 
z
M 3366 4563 
L 3366 3988 
Q 3128 4100 2886 4159 
Q 2644 4219 2406 4219 
Q 1781 4219 1451 3797 
Q 1122 3375 1075 2522 
Q 1259 2794 1537 2939 
Q 1816 3084 2150 3084 
Q 2853 3084 3261 2657 
Q 3669 2231 3669 1497 
Q 3669 778 3244 343 
Q 2819 -91 2113 -91 
Q 1303 -91 875 529 
Q 447 1150 447 2328 
Q 447 3434 972 4092 
Q 1497 4750 2381 4750 
Q 2619 4750 2861 4703 
Q 3103 4656 3366 4563 
z
" transform="scale(0.015625)"/>
       </defs>
       <use xlink:href="#DejaVuSans-30"/>
       <use xlink:href="#DejaVuSans-2e" transform="translate(63.623047 0)"/>
       <use xlink:href="#DejaVuSans-36" transform="translate(95.410156 0)"/>
      </g>
     </g>
    </g>
    <g id="ytick_5">
     <g id="text_11">
      <!-- 0.8 -->
      <g style="fill: #262626" transform="translate(28.566562 96.554595) scale(0.11 -0.11)">
       <defs>
        <path id="DejaVuSans-38" d="M 2034 2216 
Q 1584 2216 1326 1975 
Q 1069 1734 1069 1313 
Q 1069 891 1326 650 
Q 1584 409 2034 409 
Q 2484 409 2743 651 
Q 3003 894 3003 1313 
Q 3003 1734 2745 1975 
Q 2488 2216 2034 2216 
z
M 1403 2484 
Q 997 2584 770 2862 
Q 544 3141 544 3541 
Q 544 4100 942 4425 
Q 1341 4750 2034 4750 
Q 2731 4750 3128 4425 
Q 3525 4100 3525 3541 
Q 3525 3141 3298 2862 
Q 3072 2584 2669 2484 
Q 3125 2378 3379 2068 
Q 3634 1759 3634 1313 
Q 3634 634 3220 271 
Q 2806 -91 2034 -91 
Q 1263 -91 848 271 
Q 434 634 434 1313 
Q 434 1759 690 2068 
Q 947 2378 1403 2484 
z
M 1172 3481 
Q 1172 3119 1398 2916 
Q 1625 2713 2034 2713 
Q 2441 2713 2670 2916 
Q 2900 3119 2900 3481 
Q 2900 3844 2670 4047 
Q 2441 4250 2034 4250 
Q 1625 4250 1398 4047 
Q 1172 3844 1172 3481 
z
" transform="scale(0.015625)"/>
       </defs>
       <use xlink:href="#DejaVuSans-30"/>
       <use xlink:href="#DejaVuSans-2e" transform="translate(63.623047 0)"/>
       <use xlink:href="#DejaVuSans-38" transform="translate(95.410156 0)"/>
      </g>
     </g>
    </g>
    <g id="ytick_6">
     <g id="text_12">
      <!-- 1.0 -->
      <g style="fill: #262626" transform="translate(28.566562 45.118232) scale(0.11 -0.11)">
       <use xlink:href="#DejaVuSans-31"/>
       <use xlink:href="#DejaVuSans-2e" transform="translate(63.623047 0)"/>
       <use xlink:href="#DejaVuSans-30" transform="translate(95.410156 0)"/>
      </g>
     </g>
    </g>
    <g id="text_13">
     <!-- Dt ψ₂ nRMSE -->
     <g style="fill: #262626" transform="translate(22.070937 207.428437) rotate(-90) scale(0.12 -0.12)">
      <defs>
       <path id="DejaVuSans-44" d="M 1259 4147 
L 1259 519 
L 2022 519 
Q 2988 519 3436 956 
Q 3884 1394 3884 2338 
Q 3884 3275 3436 3711 
Q 2988 4147 2022 4147 
L 1259 4147 
z
M 628 4666 
L 1925 4666 
Q 3281 4666 3915 4102 
Q 4550 3538 4550 2338 
Q 4550 1131 3912 565 
Q 3275 0 1925 0 
L 628 0 
L 628 4666 
z
" transform="scale(0.015625)"/>
       <path id="DejaVuSans-74" d="M 1172 4494 
L 1172 3500 
L 2356 3500 
L 2356 3053 
L 1172 3053 
L 1172 1153 
Q 1172 725 1289 603 
Q 1406 481 1766 481 
L 2356 481 
L 2356 0 
L 1766 0 
Q 1100 0 847 248 
Q 594 497 594 1153 
L 594 3053 
L 172 3053 
L 172 3500 
L 594 3500 
L 594 4494 
L 1172 4494 
z
" transform="scale(0.015625)"/>
       <path id="DejaVuSans-3c8" d="M 1816 -78 
Q 1094 38 759 341 
Q 350 713 350 1472 
L 350 3500 
L 931 3500 
L 931 1494 
Q 931 922 1197 684 
Q 1428 478 1816 434 
L 1816 3500 
L 2388 3500 
L 2388 438 
Q 2797 481 3006 688 
Q 3272 950 3272 1497 
L 3272 3500 
L 3853 3500 
L 3853 1475 
Q 3853 688 3444 344 
Q 3075 34 2388 -75 
L 2388 -1331 
L 1816 -1331 
L 1816 -78 
z
" transform="scale(0.015625)"/>
       <path id="DejaVuSans-2082" d="M 838 356 
L 2163 356 
L 2163 0 
L 294 0 
L 294 343 
Q 400 440 597 615 
Q 1672 1568 1672 1862 
Q 1672 2068 1509 2194 
Q 1347 2321 1081 2321 
Q 919 2321 728 2266 
Q 538 2212 313 2103 
L 313 2487 
Q 553 2575 761 2618 
Q 969 2662 1147 2662 
Q 1600 2662 1872 2456 
Q 2144 2250 2144 1912 
Q 2144 1478 1109 590 
Q 934 440 838 356 
z
" transform="scale(0.015625)"/>
       <path id="DejaVuSans-6e" d="M 3513 2113 
L 3513 0 
L 2938 0 
L 2938 2094 
Q 2938 2591 2744 2837 
Q 2550 3084 2163 3084 
Q 1697 3084 1428 2787 
Q 1159 2491 1159 1978 
L 1159 0 
L 581 0 
L 581 3500 
L 1159 3500 
L 1159 2956 
Q 1366 3272 1645 3428 
Q 1925 3584 2291 3584 
Q 2894 3584 3203 3211 
Q 3513 2838 3513 2113 
z
" transform="scale(0.015625)"/>
       <path id="DejaVuSans-52" d="M 2841 2188 
Q 3044 2119 3236 1894 
Q 3428 1669 3622 1275 
L 4263 0 
L 3584 0 
L 2988 1197 
Q 2756 1666 2539 1819 
Q 2322 1972 1947 1972 
L 1259 1972 
L 1259 0 
L 628 0 
L 628 4666 
L 2053 4666 
Q 2853 4666 3247 4331 
Q 3641 3997 3641 3322 
Q 3641 2881 3436 2590 
Q 3231 2300 2841 2188 
z
M 1259 4147 
L 1259 2491 
L 2053 2491 
Q 2509 2491 2742 2702 
Q 2975 2913 2975 3322 
Q 2975 3731 2742 3939 
Q 2509 4147 2053 4147 
L 1259 4147 
z
" transform="scale(0.015625)"/>
       <path id="DejaVuSans-4d" d="M 628 4666 
L 1569 4666 
L 2759 1491 
L 3956 4666 
L 4897 4666 
L 4897 0 
L 4281 0 
L 4281 4097 
L 3078 897 
L 2444 897 
L 1241 4097 
L 1241 0 
L 628 0 
L 628 4666 
z
" transform="scale(0.015625)"/>
       <path id="DejaVuSans-53" d="M 3425 4513 
L 3425 3897 
Q 3066 4069 2747 4153 
Q 2428 4238 2131 4238 
Q 1616 4238 1336 4038 
Q 1056 3838 1056 3469 
Q 1056 3159 1242 3001 
Q 1428 2844 1947 2747 
L 2328 2669 
Q 3034 2534 3370 2195 
Q 3706 1856 3706 1288 
Q 3706 609 3251 259 
Q 2797 -91 1919 -91 
Q 1588 -91 1214 -16 
Q 841 59 441 206 
L 441 856 
Q 825 641 1194 531 
Q 1563 422 1919 422 
Q 2459 422 2753 634 
Q 3047 847 3047 1241 
Q 3047 1584 2836 1778 
Q 2625 1972 2144 2069 
L 1759 2144 
Q 1053 2284 737 2584 
Q 422 2884 422 3419 
Q 422 4038 858 4394 
Q 1294 4750 2059 4750 
Q 2388 4750 2728 4690 
Q 3069 4631 3425 4513 
z
" transform="scale(0.015625)"/>
       <path id="DejaVuSans-45" d="M 628 4666 
L 3578 4666 
L 3578 4134 
L 1259 4134 
L 1259 2753 
L 3481 2753 
L 3481 2222 
L 1259 2222 
L 1259 531 
L 3634 531 
L 3634 0 
L 628 0 
L 628 4666 
z
" transform="scale(0.015625)"/>
      </defs>
      <use xlink:href="#DejaVuSans-44"/>
      <use xlink:href="#DejaVuSans-74" transform="translate(77.001953 0)"/>
      <use xlink:href="#DejaVuSans-20" transform="translate(116.210938 0)"/>
      <use xlink:href="#DejaVuSans-3c8" transform="translate(147.998047 0)"/>
      <use xlink:href="#DejaVuSans-2082" transform="translate(213.964844 0)"/>
      <use xlink:href="#DejaVuSans-20" transform="translate(254.052734 0)"/>
      <use xlink:href="#DejaVuSans-6e" transform="translate(285.839844 0)"/>
      <use xlink:href="#DejaVuSans-52" transform="translate(349.21875 0)"/>
      <use xlink:href="#DejaVuSans-4d" transform="translate(418.701172 0)"/>
      <use xlink:href="#DejaVuSans-53" transform="translate(504.980469 0)"/>
      <use xlink:href="#DejaVuSans-45" transform="translate(568.457031 0)"/>
     </g>
    </g>
   </g>
   <g id="FillBetweenPolyCollection_1">
    <defs>
     <path id="m4ac849c37d" d="M 85.172727 -164.059225 
L 85.172727 -151.16001 
L 87.56085 -144.928896 
L 89.948974 -138.827219 
L 92.337097 -132.920343 
L 94.72522 -127.282479 
L 97.113343 -121.9956 
L 99.501466 -117.14669 
L 101.889589 -112.823832 
L 104.277713 -109.107422 
L 106.665836 -106.062667 
L 109.053959 -103.733537 
L 111.442082 -102.139395 
L 113.830205 -101.271203 
L 116.218328 -101.085417 
L 118.606452 -101.500285 
L 120.994575 -102.401019 
L 123.382698 -103.655522 
L 125.770821 -105.130421 
L 128.158944 -106.705321 
L 130.547067 -108.279584 
L 132.935191 -109.771245 
L 135.323314 -111.11831 
L 137.711437 -112.275874 
L 140.09956 -113.214126 
L 142.487683 -113.915752 
L 144.875806 -114.373687 
L 147.26393 -114.590625 
L 149.652053 -114.576699 
L 152.040176 -114.347527 
L 154.428299 -113.923654 
L 156.816422 -113.329593 
L 159.204545 -112.591354 
L 161.592669 -111.735981 
L 163.980792 -110.790102 
L 166.368915 -109.778608 
L 168.757038 -108.723841 
L 171.145161 -107.645277 
L 173.533284 -106.561654 
L 175.921408 -105.496834 
L 178.309531 -104.487248 
L 180.697654 -103.587023 
L 183.085777 -102.863981 
L 185.4739 -102.386597 
L 187.862023 -102.210688 
L 190.250147 -102.370624 
L 192.63827 -102.875031 
L 195.026393 -103.707711 
L 197.414516 -104.831756 
L 199.802639 -106.194874 
L 202.190762 -107.737851 
L 204.578886 -109.398226 
L 206.967009 -111.115434 
L 209.355132 -112.832507 
L 211.743255 -114.498232 
L 214.131378 -116.067919 
L 216.519501 -117.502307 
L 218.907625 -118.768386 
L 221.295748 -119.839401 
L 223.683871 -120.694296 
L 226.071994 -121.317972 
L 228.460117 -121.700445 
L 230.84824 -121.837722 
L 233.236364 -121.731197 
L 235.624487 -121.386914 
L 238.01261 -120.816139 
L 240.400733 -120.036105 
L 242.788856 -119.068796 
L 245.176979 -117.940963 
L 247.565103 -116.683819 
L 249.953226 -115.332921 
L 252.341349 -113.927645 
L 254.729472 -112.5098 
L 257.117595 -111.122739 
L 259.505718 -109.811186 
L 261.893842 -108.619177 
L 264.281965 -107.587078 
L 266.670088 -106.750831 
L 269.058211 -106.138703 
L 271.446334 -105.768094 
L 273.834457 -105.643729 
L 276.222581 -105.752225 
L 278.610704 -106.047507 
L 280.998827 -106.431059 
L 283.38695 -106.816739 
L 285.775073 -107.242823 
L 288.163196 -107.757214 
L 290.55132 -108.365878 
L 292.939443 -109.056002 
L 295.327566 -109.809002 
L 297.715689 -110.605478 
L 300.103812 -111.426065 
L 302.491935 -112.252691 
L 304.880059 -113.06917 
L 307.268182 -113.861079 
L 309.656305 -114.615695 
L 312.044428 -115.321729 
L 314.432551 -115.968445 
L 316.820674 -116.545696 
L 319.208798 -117.044338 
L 321.596921 -117.45527 
L 323.985044 -117.77024 
L 326.373167 -117.98099 
L 328.76129 -118.080477 
L 331.149413 -118.061793 
L 333.537537 -117.918896 
L 335.92566 -117.646592 
L 338.313783 -117.241014 
L 340.701906 -116.700055 
L 343.090029 -116.02398 
L 345.478152 -115.216613 
L 347.866276 -114.285906 
L 350.254399 -113.242884 
L 352.642522 -112.103199 
L 355.030645 -110.886455 
L 357.418768 -109.616055 
L 359.806891 -108.319253 
L 362.195015 -107.02654 
L 364.583138 -105.7711 
L 366.971261 -104.589167 
L 369.359384 -103.517303 
L 371.747507 -102.591623 
L 374.13563 -101.846458 
L 376.523754 -101.311978 
L 378.911877 -101.011049 
L 381.3 -100.952166 
L 383.688123 -101.123255 
L 386.076246 -101.486492 
L 388.46437 -101.977568 
L 390.852493 -102.520104 
L 393.240616 -103.063971 
L 395.628739 -103.606977 
L 398.016862 -104.179494 
L 400.404985 -104.814703 
L 402.793109 -105.530674 
L 405.181232 -106.327564 
L 407.569355 -107.192354 
L 409.957478 -108.102502 
L 412.345601 -109.029997 
L 414.733724 -109.943106 
L 417.121848 -110.809164 
L 419.509971 -111.597434 
L 421.898094 -112.277876 
L 424.286217 -112.823625 
L 426.67434 -113.212975 
L 429.062463 -113.429987 
L 431.450587 -113.464461 
L 433.83871 -113.312358 
L 436.226833 -112.974778 
L 438.614956 -112.460383 
L 441.003079 -111.784956 
L 443.391202 -110.970769 
L 445.779326 -110.046547 
L 448.167449 -109.04675 
L 450.555572 -108.011305 
L 452.943695 -106.98636 
L 455.331818 -106.019752 
L 457.719941 -105.160524 
L 460.108065 -104.457367 
L 462.496188 -103.953955 
L 464.884311 -103.686586 
L 467.272434 -103.682876 
L 469.660557 -103.960321 
L 472.04868 -104.526137 
L 474.436804 -105.377599 
L 476.824927 -106.504064 
L 479.21305 -107.888474 
L 481.601173 -109.509661 
L 483.989296 -111.339025 
L 486.377419 -112.904173 
L 488.765543 -114.226988 
L 491.153666 -115.768702 
L 493.541789 -117.477996 
L 495.929912 -119.301797 
L 498.318035 -121.192675 
L 500.706158 -123.109464 
L 503.094282 -125.016524 
L 505.482405 -126.883388 
L 507.870528 -128.683526 
L 510.258651 -130.392629 
L 512.646774 -131.98853 
L 515.034897 -133.45284 
L 517.423021 -134.770563 
L 519.811144 -135.92904 
L 522.199267 -136.918657 
L 524.58739 -137.731679 
L 526.975513 -138.361738 
L 529.363636 -138.805837 
L 531.75176 -139.064949 
L 534.139883 -139.143185 
L 536.528006 -139.049417 
L 538.916129 -138.797265 
L 541.304252 -138.402756 
L 543.692375 -137.887014 
L 546.080499 -137.274593 
L 548.468622 -136.590741 
L 550.856745 -135.865868 
L 553.244868 -135.129422 
L 555.632991 -134.411724 
L 558.021114 -133.742363 
L 560.409238 -133.148915 
L 562.797361 -132.65969 
L 565.185484 -132.301192 
L 567.573607 -132.094181 
L 569.96173 -132.057793 
L 572.349853 -132.205009 
L 574.737977 -132.540758 
L 577.1261 -133.059794 
L 579.514223 -133.750439 
L 581.902346 -134.594005 
L 584.290469 -135.565515 
L 586.678592 -136.634951 
L 589.066716 -137.769234 
L 591.454839 -138.930642 
L 593.842962 -140.082404 
L 596.231085 -141.188623 
L 598.619208 -142.217022 
L 601.007331 -143.137791 
L 603.395455 -143.926674 
L 605.783578 -144.569522 
L 608.171701 -145.058419 
L 610.559824 -145.389072 
L 612.947947 -145.56433 
L 615.33607 -145.592517 
L 617.724194 -145.485975 
L 620.112317 -145.262102 
L 622.50044 -144.943241 
L 624.888563 -144.556569 
L 627.276686 -144.135906 
L 629.664809 -143.720402 
L 632.052933 -143.352277 
L 634.441056 -143.07658 
L 636.829179 -142.941569 
L 639.217302 -142.996533 
L 641.605425 -143.288446 
L 643.993548 -143.861124 
L 646.381672 -144.752334 
L 648.769795 -145.990674 
L 651.157918 -147.593728 
L 653.546041 -149.567719 
L 655.934164 -151.907914 
L 658.322287 -154.599719 
L 660.710411 -157.620343 
L 663.098534 -160.941052 
L 665.486657 -164.528984 
L 667.87478 -168.348939 
L 670.262903 -172.364969 
L 672.651026 -176.541313 
L 675.03915 -180.844019 
L 677.427273 -185.240755 
L 677.427273 -221.573792 
L 677.427273 -221.573792 
L 675.03915 -218.376483 
L 672.651026 -215.303274 
L 670.262903 -212.377842 
L 667.87478 -209.622785 
L 665.486657 -207.056417 
L 663.098534 -204.692375 
L 660.710411 -202.537116 
L 658.322287 -200.590349 
L 655.934164 -198.84565 
L 653.546041 -197.291673 
L 651.157918 -195.912145 
L 648.769795 -194.684693 
L 646.381672 -193.583522 
L 643.993548 -192.580831 
L 641.605425 -191.648161 
L 639.217302 -190.756856 
L 636.829179 -189.879678 
L 634.441056 -188.990884 
L 632.052933 -188.065425 
L 629.664809 -187.08034 
L 627.276686 -186.017005 
L 624.888563 -184.862581 
L 622.50044 -183.610893 
L 620.112317 -182.260332 
L 617.724194 -180.814912 
L 615.33607 -179.282969 
L 612.947947 -177.6775 
L 610.559824 -176.01617 
L 608.171701 -174.320073 
L 605.783578 -172.611346 
L 603.395455 -170.911613 
L 601.007331 -169.242375 
L 598.619208 -167.622416 
L 596.231085 -166.065402 
L 593.842962 -164.580896 
L 591.454839 -163.175816 
L 589.066716 -161.854576 
L 586.678592 -160.619817 
L 584.290469 -159.474804 
L 581.902346 -158.421568 
L 579.514223 -157.463305 
L 577.1261 -156.604053 
L 574.737977 -155.845729 
L 572.349853 -155.191795 
L 569.96173 -154.644217 
L 567.573607 -154.203455 
L 565.185484 -153.865674 
L 562.797361 -153.622993 
L 560.409238 -153.464712 
L 558.021114 -153.376754 
L 555.632991 -153.342084 
L 553.244868 -153.343955 
L 550.856745 -153.362319 
L 548.468622 -153.373634 
L 546.080499 -153.355744 
L 543.692375 -153.287584 
L 541.304252 -153.148841 
L 538.916129 -152.919257 
L 536.528006 -152.577842 
L 534.139883 -152.102256 
L 531.75176 -151.476732 
L 529.363636 -150.687644 
L 526.975513 -149.719751 
L 524.58739 -148.563735 
L 522.199267 -147.215499 
L 519.811144 -145.675221 
L 517.423021 -143.949996 
L 515.034897 -142.05279 
L 512.646774 -139.999504 
L 510.258651 -137.808738 
L 507.870528 -135.496673 
L 505.482405 -133.080736 
L 503.094282 -130.584151 
L 500.706158 -128.032486 
L 498.318035 -125.456732 
L 495.929912 -122.889397 
L 493.541789 -120.363917 
L 491.153666 -117.916346 
L 488.765543 -115.581053 
L 486.377419 -113.394727 
L 483.989296 -111.900736 
L 481.601173 -111.196246 
L 479.21305 -110.874533 
L 476.824927 -110.955244 
L 474.436804 -111.444145 
L 472.04868 -112.325673 
L 469.660557 -113.566663 
L 467.272434 -115.114861 
L 464.884311 -116.906671 
L 462.496188 -118.872347 
L 460.108065 -120.940628 
L 457.719941 -123.047054 
L 455.331818 -125.132947 
L 452.943695 -127.145821 
L 450.555572 -129.04119 
L 448.167449 -130.779206 
L 445.779326 -132.32441 
L 443.391202 -133.646672 
L 441.003079 -134.718255 
L 438.614956 -135.520249 
L 436.226833 -136.038969 
L 433.83871 -136.267925 
L 431.450587 -136.20563 
L 429.062463 -135.857175 
L 426.67434 -135.230585 
L 424.286217 -134.335727 
L 421.898094 -133.185968 
L 419.509971 -131.797121 
L 417.121848 -130.188817 
L 414.733724 -128.390585 
L 412.345601 -126.435765 
L 409.957478 -124.363277 
L 407.569355 -122.215161 
L 405.181232 -120.040236 
L 402.793109 -117.890767 
L 400.404985 -115.825077 
L 398.016862 -113.910045 
L 395.628739 -112.224958 
L 393.240616 -110.858823 
L 390.852493 -109.890645 
L 388.46437 -109.352226 
L 386.076246 -109.213792 
L 383.688123 -109.406641 
L 381.3 -109.856629 
L 378.911877 -110.501018 
L 376.523754 -111.290788 
L 374.13563 -112.187727 
L 371.747507 -113.162541 
L 369.359384 -114.191162 
L 366.971261 -115.253366 
L 364.583138 -116.331465 
L 362.195015 -117.410933 
L 359.806891 -118.480356 
L 357.418768 -119.529402 
L 355.030645 -120.548536 
L 352.642522 -121.529221 
L 350.254399 -122.46287 
L 347.866276 -123.340366 
L 345.478152 -124.151664 
L 343.090029 -124.885782 
L 340.701906 -125.530841 
L 338.313783 -126.074366 
L 335.92566 -126.503983 
L 333.537537 -126.808473 
L 331.149413 -126.978049 
L 328.76129 -127.004838 
L 326.373167 -126.883689 
L 323.985044 -126.612214 
L 321.596921 -126.190746 
L 319.208798 -125.622027 
L 316.820674 -124.911887 
L 314.432551 -124.067864 
L 312.044428 -123.099724 
L 309.656305 -122.019214 
L 307.268182 -120.840096 
L 304.880059 -119.578116 
L 302.491935 -118.250681 
L 300.103812 -116.877104 
L 297.715689 -115.478634 
L 295.327566 -114.078795 
L 292.939443 -112.703852 
L 290.55132 -111.383224 
L 288.163196 -110.151144 
L 285.775073 -109.050284 
L 283.38695 -108.142986 
L 280.998827 -107.531944 
L 278.610704 -107.305091 
L 276.222581 -107.417312 
L 273.834457 -107.798365 
L 271.446334 -108.411764 
L 269.058211 -109.238202 
L 266.670088 -110.25851 
L 264.281965 -111.449002 
L 261.893842 -112.782066 
L 259.505718 -114.226597 
L 257.117595 -115.746392 
L 254.729472 -117.30599 
L 252.341349 -118.86854 
L 249.953226 -120.39809 
L 247.565103 -121.862485 
L 245.176979 -123.230224 
L 242.788856 -124.472849 
L 240.400733 -125.565363 
L 238.01261 -126.487366 
L 235.624487 -127.22308 
L 233.236364 -127.761209 
L 230.84824 -128.09443 
L 228.460117 -128.219992 
L 226.071994 -128.138103 
L 223.683871 -127.854273 
L 221.295748 -127.378225 
L 218.907625 -126.724308 
L 216.519501 -125.909688 
L 214.131378 -124.954313 
L 211.743255 -123.880825 
L 209.355132 -122.71519 
L 206.967009 -121.486427 
L 204.578886 -120.225757 
L 202.190762 -118.965128 
L 199.802639 -117.73784 
L 197.414516 -116.5789 
L 195.026393 -115.524447 
L 192.63827 -114.61151 
L 190.250147 -113.879851 
L 187.862023 -113.3697 
L 185.4739 -113.120933 
L 183.085777 -113.170363 
L 180.697654 -113.549047 
L 178.309531 -114.275479 
L 175.921408 -115.34842 
L 173.533284 -116.737933 
L 171.145161 -118.387086 
L 168.757038 -120.221264 
L 166.368915 -122.159576 
L 163.980792 -124.123047 
L 161.592669 -126.039316 
L 159.204545 -127.843584 
L 156.816422 -129.478857 
L 154.428299 -130.895551 
L 152.040176 -132.051429 
L 149.652053 -132.911284 
L 147.26393 -133.447026 
L 144.875806 -133.637975 
L 142.487683 -133.471428 
L 140.09956 -132.943237 
L 137.711437 -132.058744 
L 135.323314 -130.833824 
L 132.935191 -129.296442 
L 130.547067 -127.488478 
L 128.158944 -125.468202 
L 125.770821 -123.313307 
L 123.382698 -121.124352 
L 120.994575 -119.028724 
L 118.606452 -117.182474 
L 116.218328 -115.767359 
L 113.830205 -114.978123 
L 111.442082 -114.996368 
L 109.053959 -115.954075 
L 106.665836 -117.902628 
L 104.277713 -120.805229 
L 101.889589 -124.558643 
L 99.501466 -129.02749 
L 97.113343 -134.072237 
L 94.72522 -139.565204 
L 92.337097 -145.396034 
L 89.948974 -151.471745 
L 87.56085 -157.714545 
L 85.172727 -164.059225 
z
" style="stroke: #000080; stroke-opacity: 0.1"/>
    </defs>
    <g clip-path="url(#p8f51fb22ce)">
     <use xlink:href="#m4ac849c37d" x="0" y="360" style="fill: #000080; fill-opacity: 0.1; stroke: #000080; stroke-opacity: 0.1"/>
    </g>
   </g>
   <g id="FillBetweenPolyCollection_2">
    <defs>
     <path id="m33980e6664" d="M 85.172727 -266.713874 
L 85.172727 -238.50569 
L 87.56085 -236.871993 
L 89.948974 -235.531868 
L 92.337097 -234.48598 
L 94.72522 -233.726284 
L 97.113343 -233.235439 
L 99.501466 -232.987303 
L 101.889589 -232.948048 
L 104.277713 -233.076569 
L 106.665836 -233.325704 
L 109.053959 -233.643881 
L 111.442082 -233.97706 
L 113.830205 -234.269794 
L 116.218328 -234.46679 
L 118.606452 -234.514992 
L 120.994575 -234.364988 
L 123.382698 -233.971849 
L 125.770821 -233.295835 
L 128.158944 -232.304568 
L 130.547067 -230.974145 
L 132.935191 -229.287925 
L 135.323314 -227.237727 
L 137.711437 -224.823713 
L 140.09956 -222.056056 
L 142.487683 -218.954556 
L 144.875806 -215.549324 
L 147.26393 -211.881206 
L 149.652053 -208.002191 
L 152.040176 -203.975827 
L 154.428299 -199.878679 
L 156.816422 -195.80124 
L 159.204545 -191.848617 
L 161.592669 -188.141415 
L 163.980792 -184.81488 
L 166.368915 -182.015916 
L 168.757038 -179.896916 
L 171.145161 -178.604409 
L 173.533284 -178.266543 
L 175.921408 -178.977968 
L 178.309531 -180.78713 
L 180.697654 -183.690425 
L 183.085777 -187.633384 
L 185.4739 -192.517626 
L 187.862023 -198.213243 
L 190.250147 -204.573118 
L 192.63827 -211.44402 
L 195.026393 -218.67574 
L 197.414516 -226.126515 
L 199.802639 -233.66455 
L 202.190762 -241.172003 
L 204.578886 -248.543738 
L 206.967009 -255.688172 
L 209.355132 -262.523389 
L 211.743255 -268.978409 
L 214.131378 -274.992555 
L 216.519501 -280.513029 
L 218.907625 -285.495805 
L 221.295748 -289.9065 
L 223.683871 -293.719043 
L 226.071994 -296.915652 
L 228.460117 -299.486955 
L 230.84824 -301.432471 
L 233.236364 -302.761232 
L 235.624487 -303.489496 
L 238.01261 -303.64174 
L 240.400733 -303.251948 
L 242.788856 -302.361917 
L 245.176979 -301.020681 
L 247.565103 -299.284602 
L 249.953226 -297.217094 
L 252.341349 -294.887632 
L 254.729472 -292.368395 
L 257.117595 -289.735368 
L 259.505718 -287.067206 
L 261.893842 -284.442919 
L 264.281965 -281.939446 
L 266.670088 -279.631609 
L 269.058211 -277.589065 
L 271.446334 -275.87202 
L 273.834457 -274.532999 
L 276.222581 -273.614024 
L 278.610704 -273.143584 
L 280.998827 -273.138436 
L 283.38695 -273.602366 
L 285.775073 -274.52581 
L 288.163196 -275.886539 
L 290.55132 -277.650326 
L 292.939443 -279.774168 
L 295.327566 -282.206656 
L 297.715689 -284.889792 
L 300.103812 -287.760596 
L 302.491935 -290.754023 
L 304.880059 -293.80329 
L 307.268182 -296.840399 
L 309.656305 -299.798505 
L 312.044428 -302.612479 
L 314.432551 -305.22235 
L 316.820674 -307.570454 
L 319.208798 -309.603599 
L 321.596921 -311.274311 
L 323.985044 -312.540429 
L 326.373167 -313.368004 
L 328.76129 -313.72814 
L 331.149413 -313.60013 
L 333.537537 -312.970862 
L 335.92566 -311.835557 
L 338.313783 -310.197779 
L 340.701906 -308.069839 
L 343.090029 -305.474422 
L 345.478152 -302.442641 
L 347.866276 -299.014739 
L 350.254399 -295.242768 
L 352.642522 -291.189339 
L 355.030645 -286.927804 
L 357.418768 -282.542405 
L 359.806891 -278.129528 
L 362.195015 -273.79661 
L 364.583138 -269.662922 
L 366.971261 -265.858607 
L 369.359384 -262.519924 
L 371.747507 -259.785674 
L 374.13563 -257.790369 
L 376.523754 -256.644014 
L 378.911877 -256.372381 
L 381.3 -256.564338 
L 383.688123 -256.516073 
L 386.076246 -257.418881 
L 388.46437 -259.772654 
L 390.852493 -263.499362 
L 393.240616 -268.408267 
L 395.628739 -274.278499 
L 398.016862 -280.891532 
L 400.404985 -288.052484 
L 402.793109 -295.588105 
L 405.181232 -303.342977 
L 407.569355 -311.174434 
L 409.957478 -318.95051 
L 412.345601 -326.548983 
L 414.733724 -333.855974 
L 417.121848 -340.767566 
L 419.509971 -347.190376 
L 421.898094 -353.042619 
L 424.286217 -358.254369 
L 426.67434 -362.763313 
L 429.062463 -366.521763 
L 431.450587 -369.493256 
L 433.83871 -371.656011 
L 436.226833 -372.999555 
L 438.614956 -373.523548 
L 441.003079 -373.247311 
L 443.391202 -372.201233 
L 445.779326 -370.427241 
L 448.167449 -367.978928 
L 450.555572 -364.915402 
L 452.943695 -361.313113 
L 455.331818 -357.2528 
L 457.719941 -352.823205 
L 460.108065 -348.118016 
L 462.496188 -343.232308 
L 464.884311 -338.263139 
L 467.272434 -333.310415 
L 469.660557 -328.466852 
L 472.04868 -323.821548 
L 474.436804 -319.457817 
L 476.824927 -315.443595 
L 479.21305 -311.844498 
L 481.601173 -308.70856 
L 483.989296 -306.068886 
L 486.377419 -303.941172 
L 488.765543 -302.324195 
L 491.153666 -301.197646 
L 493.541789 -300.531242 
L 495.929912 -300.277293 
L 498.318035 -300.377641 
L 500.706158 -300.76565 
L 503.094282 -301.369028 
L 505.482405 -302.11236 
L 507.870528 -302.920943 
L 510.258651 -303.72054 
L 512.646774 -304.439622 
L 515.034897 -305.012092 
L 517.423021 -305.378186 
L 519.811144 -305.483756 
L 522.199267 -305.283459 
L 524.58739 -304.741555 
L 526.975513 -303.831847 
L 529.363636 -302.537462 
L 531.75176 -300.851576 
L 534.139883 -298.776656 
L 536.528006 -296.324637 
L 538.916129 -293.517172 
L 541.304252 -290.382849 
L 543.692375 -286.958934 
L 546.080499 -283.290318 
L 548.468622 -279.427566 
L 550.856745 -275.429905 
L 553.244868 -271.359832 
L 555.632991 -267.283312 
L 558.021114 -263.269211 
L 560.409238 -259.387605 
L 562.797361 -255.70914 
L 565.185484 -252.302795 
L 567.573607 -249.231404 
L 569.96173 -246.553137 
L 572.349853 -244.317031 
L 574.737977 -242.561293 
L 577.1261 -241.311497 
L 579.514223 -240.579506 
L 581.902346 -240.361561 
L 584.290469 -240.643564 
L 586.678592 -241.395628 
L 589.066716 -242.577663 
L 591.454839 -244.140159 
L 593.842962 -246.028799 
L 596.231085 -248.185015 
L 598.619208 -250.548853 
L 601.007331 -253.059282 
L 603.395455 -255.657398 
L 605.783578 -258.290815 
L 608.171701 -260.911243 
L 610.559824 -263.472896 
L 612.947947 -265.936448 
L 615.33607 -268.268356 
L 617.724194 -270.440202 
L 620.112317 -272.429908 
L 622.50044 -274.221589 
L 624.888563 -275.805152 
L 627.276686 -277.177327 
L 629.664809 -278.341053 
L 632.052933 -279.303287 
L 634.441056 -280.074817 
L 636.829179 -280.671368 
L 639.217302 -281.112693 
L 641.605425 -281.420472 
L 643.993548 -281.619387 
L 646.381672 -281.736315 
L 648.769795 -281.798617 
L 651.157918 -281.83363 
L 653.546041 -281.868007 
L 655.934164 -281.926927 
L 658.322287 -282.033565 
L 660.710411 -282.209036 
L 663.098534 -282.471735 
L 665.486657 -282.836944 
L 667.87478 -283.316423 
L 670.262903 -283.918361 
L 672.651026 -284.647628 
L 675.03915 -285.505484 
L 677.427273 -286.490919 
L 677.427273 -371.255788 
L 677.427273 -371.255788 
L 675.03915 -373.531067 
L 672.651026 -375.903856 
L 670.262903 -378.35286 
L 667.87478 -380.851522 
L 665.486657 -383.37036 
L 663.098534 -385.875338 
L 660.710411 -388.329837 
L 658.322287 -390.694966 
L 655.934164 -392.92952 
L 653.546041 -394.990919 
L 651.157918 -396.834938 
L 648.769795 -398.419037 
L 646.381672 -399.701508 
L 643.993548 -400.643766 
L 641.605425 -401.210204 
L 639.217302 -401.369427 
L 636.829179 -401.095511 
L 634.441056 -400.367398 
L 632.052933 -399.170129 
L 629.664809 -397.495294 
L 627.276686 -395.342074 
L 624.888563 -392.718204 
L 622.50044 -389.64022 
L 620.112317 -386.133701 
L 617.724194 -382.231913 
L 615.33607 -377.975635 
L 612.947947 -373.412762 
L 610.559824 -368.597765 
L 608.171701 -363.590686 
L 605.783578 -358.457766 
L 603.395455 -353.269685 
L 601.007331 -348.100941 
L 598.619208 -343.028111 
L 596.231085 -338.128133 
L 593.842962 -333.47742 
L 591.454839 -329.149125 
L 589.066716 -325.211313 
L 586.678592 -321.725023 
L 584.290469 -318.741335 
L 581.902346 -316.300379 
L 579.514223 -314.43002 
L 577.1261 -313.145547 
L 574.737977 -312.446863 
L 572.349853 -312.320098 
L 569.96173 -312.737489 
L 567.573607 -313.657587 
L 565.185484 -315.028348 
L 562.797361 -316.789 
L 560.409238 -318.871546 
L 558.021114 -321.20416 
L 555.632991 -323.713198 
L 553.244868 -326.32392 
L 550.856745 -328.963869 
L 548.468622 -331.565085 
L 546.080499 -334.064351 
L 543.692375 -336.404645 
L 541.304252 -338.535573 
L 538.916129 -340.41654 
L 536.528006 -342.016426 
L 534.139883 -343.314185 
L 531.75176 -344.299192 
L 529.363636 -344.970406 
L 526.975513 -345.337638 
L 524.58739 -345.419362 
L 522.199267 -345.242265 
L 519.811144 -344.841344 
L 517.423021 -344.259236 
L 515.034897 -343.542843 
L 512.646774 -342.746881 
L 510.258651 -341.931772 
L 507.870528 -341.16353 
L 505.482405 -340.510336 
L 503.094282 -340.038693 
L 500.706158 -339.814207 
L 498.318035 -339.896218 
L 495.929912 -340.336585 
L 493.541789 -341.178617 
L 491.153666 -342.453702 
L 488.765543 -344.179143 
L 486.377419 -346.360129 
L 483.989296 -348.992891 
L 481.601173 -352.063506 
L 479.21305 -355.544351 
L 476.824927 -359.395718 
L 474.436804 -363.568016 
L 472.04868 -367.999342 
L 469.660557 -372.616414 
L 467.272434 -377.339826 
L 464.884311 -382.082539 
L 462.496188 -386.754823 
L 460.108065 -391.271396 
L 457.719941 -395.551424 
L 455.331818 -399.51077 
L 452.943695 -403.06842 
L 450.555572 -406.149027 
L 448.167449 -408.676551 
L 445.779326 -410.579096 
L 443.391202 -411.788181 
L 441.003079 -412.242617 
L 438.614956 -411.896792 
L 436.226833 -410.715713 
L 433.83871 -408.679697 
L 431.450587 -405.773856 
L 429.062463 -402.000061 
L 426.67434 -397.368613 
L 424.286217 -391.897477 
L 421.898094 -385.618255 
L 419.509971 -378.573295 
L 417.121848 -370.823302 
L 414.733724 -362.452445 
L 412.345601 -353.556671 
L 409.957478 -344.250322 
L 407.569355 -334.663987 
L 405.181232 -324.947159 
L 402.793109 -315.264523 
L 400.404985 -305.798155 
L 398.016862 -296.739928 
L 395.628739 -288.283802 
L 393.240616 -280.614531 
L 390.852493 -273.892559 
L 388.46437 -268.245001 
L 386.076246 -263.776698 
L 383.688123 -260.633064 
L 381.3 -259.435911 
L 378.911877 -261.383492 
L 376.523754 -265.66306 
L 374.13563 -271.653583 
L 371.747507 -279.09315 
L 369.359384 -287.752414 
L 366.971261 -297.400455 
L 364.583138 -307.80326 
L 362.195015 -318.733786 
L 359.806891 -329.984529 
L 357.418768 -341.360826 
L 355.030645 -352.684509 
L 352.642522 -363.793691 
L 350.254399 -374.545382 
L 347.866276 -384.81702 
L 345.478152 -394.502727 
L 343.090029 -403.511752 
L 340.701906 -411.768019 
L 338.313783 -419.210955 
L 335.92566 -425.795427 
L 333.537537 -431.489224 
L 331.149413 -436.273629 
L 328.76129 -440.141 
L 326.373167 -443.096308 
L 323.985044 -445.160162 
L 321.596921 -446.369796 
L 319.208798 -446.773446 
L 316.820674 -446.432834 
L 314.432551 -445.417758 
L 312.044428 -443.808036 
L 309.656305 -441.690163 
L 307.268182 -439.157458 
L 304.880059 -436.309719 
L 302.491935 -433.251452 
L 300.103812 -430.090346 
L 297.715689 -426.933551 
L 295.327566 -423.886162 
L 292.939443 -421.048282 
L 290.55132 -418.508401 
L 288.163196 -416.346849 
L 285.775073 -414.631635 
L 283.38695 -413.415003 
L 280.998827 -412.733654 
L 278.610704 -412.605456 
L 276.222581 -413.030569 
L 273.834457 -413.988585 
L 271.446334 -415.434002 
L 269.058211 -417.312907 
L 266.670088 -419.557594 
L 264.281965 -422.085094 
L 261.893842 -424.806074 
L 259.505718 -427.624953 
L 257.117595 -430.437377 
L 254.729472 -433.141828 
L 252.341349 -435.637524 
L 249.953226 -437.827005 
L 247.565103 -439.620396 
L 245.176979 -440.933091 
L 242.788856 -441.688047 
L 240.400733 -441.817181 
L 238.01261 -441.26279 
L 235.624487 -439.980444 
L 233.236364 -437.939622 
L 230.84824 -435.120057 
L 228.460117 -431.512507 
L 226.071994 -427.119852 
L 223.683871 -421.95731 
L 221.295748 -416.052284 
L 218.907625 -409.443963 
L 216.519501 -402.183185 
L 214.131378 -394.331125 
L 211.743255 -385.956233 
L 209.355132 -377.135995 
L 206.967009 -367.957491 
L 204.578886 -358.516619 
L 202.190762 -348.915279 
L 199.802639 -339.260046 
L 197.414516 -329.662145 
L 195.026393 -320.235583 
L 192.63827 -311.094913 
L 190.250147 -302.356749 
L 187.862023 -294.137174 
L 185.4739 -286.548379 
L 183.085777 -279.696161 
L 180.697654 -273.677515 
L 178.309531 -268.576798 
L 175.921408 -264.459812 
L 173.533284 -261.367396 
L 171.145161 -259.311064 
L 168.757038 -258.269673 
L 166.368915 -258.188032 
L 163.980792 -258.977756 
L 161.592669 -260.524864 
L 159.204545 -262.695348 
L 156.816422 -265.343156 
L 154.428299 -268.318841 
L 152.040176 -271.47674 
L 149.652053 -274.681218 
L 147.26393 -277.81 
L 144.875806 -280.756674 
L 142.487683 -283.432335 
L 140.09956 -285.765878 
L 137.711437 -287.703678 
L 135.323314 -289.207324 
L 132.935191 -290.255149 
L 130.547067 -290.839557 
L 128.158944 -290.967946 
L 125.770821 -290.659118 
L 123.382698 -289.942074 
L 120.994575 -288.855711 
L 118.606452 -287.447623 
L 116.218328 -285.771958 
L 113.830205 -283.888119 
L 111.442082 -281.858637 
L 109.053959 -279.747895 
L 106.665836 -277.621167 
L 104.277713 -275.542886 
L 101.889589 -273.574154 
L 99.501466 -271.771416 
L 97.113343 -270.185248 
L 94.72522 -268.859297 
L 92.337097 -267.828138 
L 89.948974 -267.117456 
L 87.56085 -266.743528 
L 85.172727 -266.713874 
z
" style="stroke: #000080; stroke-opacity: 0.1"/>
    </defs>
    <g clip-path="url(#p8f51fb22ce)">
     <use xlink:href="#m33980e6664" x="0" y="360" style="fill: #000080; fill-opacity: 0.1; stroke: #000080; stroke-opacity: 0.1"/>
    </g>
   </g>
   <g id="line2d_1">
    <path d="M 85.172727 202.390383 
L 89.948974 214.850518 
L 94.72522 226.576158 
L 97.113343 231.966082 
L 99.501466 236.91291 
L 101.889589 241.308763 
L 104.277713 245.043675 
L 106.665836 248.017352 
L 109.053959 250.156194 
L 111.442082 251.432118 
L 113.830205 251.875337 
L 116.218328 251.573612 
L 118.606452 250.658621 
L 120.994575 249.285128 
L 123.382698 247.610063 
L 130.547067 242.115969 
L 132.935191 240.466156 
L 135.323314 239.023933 
L 137.711437 237.832691 
L 140.09956 236.921319 
L 142.487683 236.30641 
L 144.875806 235.994169 
L 147.26393 235.981174 
L 149.652053 236.256008 
L 152.040176 236.800522 
L 154.428299 237.590397 
L 156.816422 238.595775 
L 159.204545 239.782531 
L 163.980792 242.543425 
L 171.145161 246.983818 
L 173.533284 248.350207 
L 175.921408 249.577373 
L 178.309531 250.618637 
L 180.697654 251.431965 
L 183.085777 251.982828 
L 185.4739 252.246235 
L 187.862023 252.209806 
L 190.250147 251.874762 
L 192.63827 251.256729 
L 195.026393 250.383921 
L 197.414516 249.294672 
L 202.190762 246.64851 
L 211.743255 240.810472 
L 216.519501 238.294002 
L 218.907625 237.253653 
L 221.295748 236.391187 
L 223.683871 235.725715 
L 226.071994 235.271963 
L 228.460117 235.039782 
L 230.84824 235.033924 
L 233.236364 235.253797 
L 235.624487 235.695003 
L 238.01261 236.348248 
L 240.400733 237.199266 
L 242.788856 238.229177 
L 245.176979 239.414407 
L 249.953226 242.134494 
L 259.505718 247.981108 
L 261.893842 249.299378 
L 264.281965 250.48196 
L 266.670088 251.49533 
L 269.058211 252.311548 
L 271.446334 252.910071 
L 273.834457 253.278953 
L 276.222581 253.415232 
L 278.610704 253.323701 
L 280.998827 253.018499 
L 283.38695 252.520137 
L 285.775073 251.853447 
L 290.55132 250.125449 
L 295.327566 248.056101 
L 307.268182 242.649412 
L 312.044428 240.789274 
L 316.820674 239.271208 
L 321.596921 238.176992 
L 323.985044 237.808773 
L 326.373167 237.56766 
L 328.76129 237.457343 
L 331.149413 237.480079 
L 333.537537 237.636315 
L 335.92566 237.924712 
L 338.313783 238.34231 
L 340.701906 238.884552 
L 345.478152 240.315862 
L 350.254399 242.147123 
L 355.030645 244.282504 
L 369.359384 251.145767 
L 374.13563 252.982908 
L 376.523754 253.698617 
L 378.911877 254.243966 
L 381.3 254.595603 
L 383.688123 254.735052 
L 386.076246 254.649858 
L 388.46437 254.335103 
L 390.852493 253.794625 
L 393.240616 253.038603 
L 395.628739 252.084033 
L 398.016862 250.95523 
L 402.793109 248.28928 
L 417.121848 239.50101 
L 419.509971 238.302723 
L 421.898094 237.268078 
L 424.286217 236.420324 
L 426.67434 235.77822 
L 429.062463 235.356419 
L 431.450587 235.164954 
L 433.83871 235.209858 
L 436.226833 235.493126 
L 438.614956 236.009684 
L 441.003079 236.748394 
L 443.391202 237.69128 
L 445.779326 238.814521 
L 450.555572 241.473753 
L 460.108065 247.301003 
L 462.496188 248.586849 
L 464.884311 249.703371 
L 467.272434 250.601131 
L 469.660557 251.236508 
L 472.04868 251.574095 
L 474.436804 251.589128 
L 476.824927 251.270346 
L 479.21305 250.618496 
L 481.601173 249.647046 
L 483.989296 248.380119 
L 486.377419 246.85055 
L 488.765543 245.09598 
L 493.541789 241.079043 
L 500.706158 234.429025 
L 505.482405 230.017938 
L 510.258651 225.899317 
L 515.034897 222.247185 
L 517.423021 220.63972 
L 519.811144 219.197869 
L 522.199267 217.932922 
L 524.58739 216.852293 
L 526.975513 215.959255 
L 529.363636 215.25326 
L 531.75176 214.729159 
L 534.139883 214.377279 
L 536.528006 214.18637 
L 538.916129 214.141739 
L 543.692375 214.412701 
L 548.468622 215.017813 
L 558.021114 216.440442 
L 562.797361 216.858659 
L 565.185484 216.916567 
L 567.573607 216.851182 
L 569.96173 216.648995 
L 572.349853 216.301598 
L 574.737977 215.806756 
L 577.1261 215.168076 
L 579.514223 214.393128 
L 584.290469 212.47984 
L 589.066716 210.188095 
L 596.231085 206.372987 
L 603.395455 202.580856 
L 608.171701 200.310754 
L 612.947947 198.379085 
L 617.724194 196.849557 
L 622.50044 195.722933 
L 627.276686 194.923545 
L 636.829179 193.589376 
L 639.217302 193.123305 
L 641.605425 192.531697 
L 643.993548 191.779022 
L 646.381672 190.832072 
L 648.769795 189.662316 
L 651.157918 188.247063 
L 653.546041 186.570304 
L 655.934164 184.623218 
L 658.322287 182.404966 
L 660.710411 179.92127 
L 663.098534 177.183286 
L 665.486657 174.2073 
L 667.87478 171.014138 
L 672.651026 164.077706 
L 677.427273 156.592727 
L 677.427273 156.592727 
" clip-path="url(#p8f51fb22ce)" style="fill: none; stroke: #000080; stroke-width: 1.5; stroke-linecap: round"/>
   </g>
   <g id="line2d_2">
    <path d="M 85.172727 107.390218 
L 87.56085 108.192239 
L 89.948974 108.675338 
L 92.337097 108.842941 
L 94.72522 108.70721 
L 97.113343 108.289656 
L 99.501466 107.62064 
L 101.889589 106.738899 
L 106.665836 104.526565 
L 113.830205 100.921044 
L 116.218328 99.880626 
L 118.606452 99.018692 
L 120.994575 98.38965 
L 123.382698 98.043038 
L 125.770821 98.022523 
L 128.158944 98.363743 
L 130.547067 99.093149 
L 132.935191 100.228463 
L 135.323314 101.777474 
L 137.711437 103.736305 
L 140.09956 106.089033 
L 142.487683 108.806554 
L 144.875806 111.847001 
L 147.26393 115.154397 
L 152.040176 122.273716 
L 156.816422 129.427802 
L 159.204545 132.728017 
L 161.592669 135.666861 
L 163.980792 138.103682 
L 166.368915 139.898026 
L 168.757038 140.916705 
L 171.145161 141.042263 
L 173.533284 140.183031 
L 175.921408 138.28111 
L 178.309531 135.318036 
L 180.697654 131.31603 
L 183.085777 126.335227 
L 185.4739 120.466997 
L 187.862023 113.824791 
L 190.250147 106.535067 
L 192.63827 98.730534 
L 197.414516 82.10567 
L 206.967009 48.177169 
L 211.743255 32.532679 
L 214.131378 25.33816 
L 216.519501 18.651893 
L 218.907625 12.530116 
L 221.295748 7.020608 
L 223.683871 2.161824 
L 225.490472 -1 
M 256.300035 -1 
L 264.281965 7.98773 
L 266.670088 10.405399 
L 269.058211 12.549014 
L 271.446334 14.346989 
L 273.834457 15.739208 
L 276.222581 16.677704 
L 278.610704 17.12548 
L 280.998827 17.063955 
L 283.38695 16.491316 
L 285.775073 15.421278 
L 288.163196 13.883306 
L 290.55132 11.920637 
L 292.939443 9.588775 
L 295.327566 6.953591 
L 300.103812 1.074529 
L 301.713758 -1 
M 340.162409 -1 
L 340.701906 0.081071 
L 343.090029 5.506913 
L 345.478152 11.527316 
L 347.866276 18.08412 
L 350.254399 25.105925 
L 355.030645 40.193843 
L 364.583138 71.266909 
L 366.971261 78.370469 
L 369.359384 84.863831 
L 371.747507 90.560588 
L 374.13563 95.278024 
L 376.523754 98.846463 
L 378.911877 101.122063 
L 381.3 101.999876 
L 383.688123 101.425431 
L 386.076246 99.40221 
L 388.46437 95.991173 
L 390.852493 91.30404 
L 393.240616 85.488601 
L 395.628739 78.71885 
L 398.016862 71.18427 
L 402.793109 54.573686 
L 412.345601 19.947173 
L 414.733724 11.84579 
L 417.121848 4.204566 
L 418.875791 -1 
M 464.474546 -1 
L 472.04868 14.089555 
L 474.436804 18.487084 
L 476.824927 22.580343 
L 479.21305 26.305575 
L 481.601173 29.613967 
L 483.989296 32.469111 
L 486.377419 34.84935 
L 488.765543 36.748331 
L 491.153666 38.174326 
L 493.541789 39.145071 
L 495.929912 39.693061 
L 498.318035 39.863071 
L 500.706158 39.710071 
L 503.094282 39.296139 
L 505.482405 38.688652 
L 515.034897 35.722533 
L 517.423021 35.181289 
L 519.811144 34.83745 
L 522.199267 34.737138 
L 524.58739 34.919541 
L 526.975513 35.415257 
L 529.363636 36.246066 
L 531.75176 37.424616 
L 534.139883 38.95458 
L 536.528006 40.829469 
L 538.916129 43.033144 
L 541.304252 45.540789 
L 543.692375 48.318211 
L 548.468622 54.503675 
L 560.409238 70.870425 
L 562.797361 73.75093 
L 565.185484 76.334428 
L 567.573607 78.555504 
L 569.96173 80.354687 
L 572.349853 81.681436 
L 574.737977 82.495922 
L 577.1261 82.771478 
L 579.514223 82.495237 
L 581.902346 81.66903 
L 584.290469 80.307551 
L 586.678592 78.439675 
L 589.066716 76.105512 
L 591.454839 73.355358 
L 593.842962 70.246891 
L 596.231085 66.843426 
L 601.007331 59.419889 
L 610.559824 43.96467 
L 615.33607 36.878004 
L 617.724194 33.663943 
L 620.112317 30.718196 
L 622.50044 28.069096 
L 624.888563 25.738322 
L 627.276686 23.740299 
L 629.664809 22.081827 
L 632.052933 20.763292 
L 634.441056 19.778892 
L 636.829179 19.11656 
L 639.217302 18.75894 
L 641.605425 18.684662 
L 643.993548 18.868424 
L 646.381672 19.281089 
L 648.769795 19.891173 
L 651.157918 20.665716 
L 655.934164 22.571776 
L 670.262903 28.86439 
L 675.03915 30.481724 
L 677.427273 31.126646 
L 677.427273 31.126646 
" clip-path="url(#p8f51fb22ce)" style="fill: none; stroke-dasharray: 5.55,2.4; stroke-dashoffset: 0; stroke: #000080; stroke-width: 1.5"/>
   </g>
   <g id="patch_3">
    <path d="M 55.56 310.98 
L 55.56 28.08 
" style="fill: none; stroke: #ffffff; stroke-width: 1.25; stroke-linejoin: miter; stroke-linecap: square"/>
   </g>
   <g id="patch_4">
    <path d="M 707.04 310.98 
L 707.04 28.08 
" style="fill: none; stroke: #ffffff; stroke-width: 1.25; stroke-linejoin: miter; stroke-linecap: square"/>
   </g>
   <g id="patch_5">
    <path d="M 55.56 310.98 
L 707.04 310.98 
" style="fill: none; stroke: #ffffff; stroke-width: 1.25; stroke-linejoin: miter; stroke-linecap: square"/>
   </g>
   <g id="patch_6">
    <path d="M 55.56 28.08 
L 707.04 28.08 
" style="fill: none; stroke: #ffffff; stroke-width: 1.25; stroke-linejoin: miter; stroke-linecap: square"/>
   </g>
   <g id="text_14">
    <!-- QG3L - [32, 96] x [64, 192] -->
    <g style="fill: #262626" transform="translate(300.075 22.08) scale(0.12 -0.12)">
     <defs>
      <path id="DejaVuSans-51" d="M 2522 4238 
Q 1834 4238 1429 3725 
Q 1025 3213 1025 2328 
Q 1025 1447 1429 934 
Q 1834 422 2522 422 
Q 3209 422 3611 934 
Q 4013 1447 4013 2328 
Q 4013 3213 3611 3725 
Q 3209 4238 2522 4238 
z
M 3406 84 
L 4238 -825 
L 3475 -825 
L 2784 -78 
Q 2681 -84 2626 -87 
Q 2572 -91 2522 -91 
Q 1538 -91 948 567 
Q 359 1225 359 2328 
Q 359 3434 948 4092 
Q 1538 4750 2522 4750 
Q 3503 4750 4090 4092 
Q 4678 3434 4678 2328 
Q 4678 1516 4351 937 
Q 4025 359 3406 84 
z
" transform="scale(0.015625)"/>
      <path id="DejaVuSans-47" d="M 3809 666 
L 3809 1919 
L 2778 1919 
L 2778 2438 
L 4434 2438 
L 4434 434 
Q 4069 175 3628 42 
Q 3188 -91 2688 -91 
Q 1594 -91 976 548 
Q 359 1188 359 2328 
Q 359 3472 976 4111 
Q 1594 4750 2688 4750 
Q 3144 4750 3555 4637 
Q 3966 4525 4313 4306 
L 4313 3634 
Q 3963 3931 3569 4081 
Q 3175 4231 2741 4231 
Q 1884 4231 1454 3753 
Q 1025 3275 1025 2328 
Q 1025 1384 1454 906 
Q 1884 428 2741 428 
Q 3075 428 3337 486 
Q 3600 544 3809 666 
z
" transform="scale(0.015625)"/>
      <path id="DejaVuSans-33" d="M 2597 2516 
Q 3050 2419 3304 2112 
Q 3559 1806 3559 1356 
Q 3559 666 3084 287 
Q 2609 -91 1734 -91 
Q 1441 -91 1130 -33 
Q 819 25 488 141 
L 488 750 
Q 750 597 1062 519 
Q 1375 441 1716 441 
Q 2309 441 2620 675 
Q 2931 909 2931 1356 
Q 2931 1769 2642 2001 
Q 2353 2234 1838 2234 
L 1294 2234 
L 1294 2753 
L 1863 2753 
Q 2328 2753 2575 2939 
Q 2822 3125 2822 3475 
Q 2822 3834 2567 4026 
Q 2313 4219 1838 4219 
Q 1578 4219 1281 4162 
Q 984 4106 628 3988 
L 628 4550 
Q 988 4650 1302 4700 
Q 1616 4750 1894 4750 
Q 2613 4750 3031 4423 
Q 3450 4097 3450 3541 
Q 3450 3153 3228 2886 
Q 3006 2619 2597 2516 
z
" transform="scale(0.015625)"/>
      <path id="DejaVuSans-4c" d="M 628 4666 
L 1259 4666 
L 1259 531 
L 3531 531 
L 3531 0 
L 628 0 
L 628 4666 
z
" transform="scale(0.015625)"/>
      <path id="DejaVuSans-2d" d="M 313 2009 
L 1997 2009 
L 1997 1497 
L 313 1497 
L 313 2009 
z
" transform="scale(0.015625)"/>
      <path id="DejaVuSans-2c" d="M 750 794 
L 1409 794 
L 1409 256 
L 897 -744 
L 494 -744 
L 750 256 
L 750 794 
z
" transform="scale(0.015625)"/>
      <path id="DejaVuSans-39" d="M 703 97 
L 703 672 
Q 941 559 1184 500 
Q 1428 441 1663 441 
Q 2288 441 2617 861 
Q 2947 1281 2994 2138 
Q 2813 1869 2534 1725 
Q 2256 1581 1919 1581 
Q 1219 1581 811 2004 
Q 403 2428 403 3163 
Q 403 3881 828 4315 
Q 1253 4750 1959 4750 
Q 2769 4750 3195 4129 
Q 3622 3509 3622 2328 
Q 3622 1225 3098 567 
Q 2575 -91 1691 -91 
Q 1453 -91 1209 -44 
Q 966 3 703 97 
z
M 1959 2075 
Q 2384 2075 2632 2365 
Q 2881 2656 2881 3163 
Q 2881 3666 2632 3958 
Q 2384 4250 1959 4250 
Q 1534 4250 1286 3958 
Q 1038 3666 1038 3163 
Q 1038 2656 1286 2365 
Q 1534 2075 1959 2075 
z
" transform="scale(0.015625)"/>
      <path id="DejaVuSans-78" d="M 3513 3500 
L 2247 1797 
L 3578 0 
L 2900 0 
L 1881 1375 
L 863 0 
L 184 0 
L 1544 1831 
L 300 3500 
L 978 3500 
L 1906 2253 
L 2834 3500 
L 3513 3500 
z
" transform="scale(0.015625)"/>
     </defs>
     <use xlink:href="#DejaVuSans-51"/>
     <use xlink:href="#DejaVuSans-47" transform="translate(78.710938 0)"/>
     <use xlink:href="#DejaVuSans-33" transform="translate(156.201172 0)"/>
     <use xlink:href="#DejaVuSans-4c" transform="translate(219.824219 0)"/>
     <use xlink:href="#DejaVuSans-20" transform="translate(275.537109 0)"/>
     <use xlink:href="#DejaVuSans-2d" transform="translate(307.324219 0)"/>
     <use xlink:href="#DejaVuSans-20" transform="translate(343.408203 0)"/>
     <use xlink:href="#DejaVuSans-5b" transform="translate(375.195312 0)"/>
     <use xlink:href="#DejaVuSans-33" transform="translate(414.208984 0)"/>
     <use xlink:href="#DejaVuSans-32" transform="translate(477.832031 0)"/>
     <use xlink:href="#DejaVuSans-2c" transform="translate(541.455078 0)"/>
     <use xlink:href="#DejaVuSans-20" transform="translate(573.242188 0)"/>
     <use xlink:href="#DejaVuSans-39" transform="translate(605.029297 0)"/>
     <use xlink:href="#DejaVuSans-36" transform="translate(668.652344 0)"/>
     <use xlink:href="#DejaVuSans-5d" transform="translate(732.275391 0)"/>
     <use xlink:href="#DejaVuSans-20" transform="translate(771.289062 0)"/>
     <use xlink:href="#DejaVuSans-78" transform="translate(803.076172 0)"/>
     <use xlink:href="#DejaVuSans-20" transform="translate(862.255859 0)"/>
     <use xlink:href="#DejaVuSans-5b" transform="translate(894.042969 0)"/>
     <use xlink:href="#DejaVuSans-36" transform="translate(933.056641 0)"/>
     <use xlink:href="#DejaVuSans-34" transform="translate(996.679688 0)"/>
     <use xlink:href="#DejaVuSans-2c" transform="translate(1060.302734 0)"/>
     <use xlink:href="#DejaVuSans-20" transform="translate(1092.089844 0)"/>
     <use xlink:href="#DejaVuSans-31" transform="translate(1123.876953 0)"/>
     <use xlink:href="#DejaVuSans-39" transform="translate(1187.5 0)"/>
     <use xlink:href="#DejaVuSans-32" transform="translate(1251.123047 0)"/>
     <use xlink:href="#DejaVuSans-5d" transform="translate(1314.746094 0)"/>
    </g>
   </g>
   <g id="legend_1">
    <g id="patch_7">
     <path d="M 63.26 305.48 
L 244.675781 305.48 
Q 246.875781 305.48 246.875781 303.28 
L 246.875781 272.088125 
Q 246.875781 269.888125 244.675781 269.888125 
L 63.26 269.888125 
Q 61.06 269.888125 61.06 272.088125 
L 61.06 303.28 
Q 61.06 305.48 63.26 305.48 
z
" style="fill: #eaeaf2; opacity: 0.8; stroke: #cccccc; stroke-linejoin: miter"/>
    </g>
    <g id="line2d_3">
     <path d="M 65.46 278.796406 
L 76.46 278.796406 
L 87.46 278.796406 
" style="fill: none; stroke: #000080; stroke-width: 1.5; stroke-linecap: round"/>
    </g>
    <g id="text_15">
     <!-- SurfML -->
     <g style="fill: #262626" transform="translate(96.26 282.646406) scale(0.11 -0.11)">
      <defs>
       <path id="DejaVuSans-75" d="M 544 1381 
L 544 3500 
L 1119 3500 
L 1119 1403 
Q 1119 906 1312 657 
Q 1506 409 1894 409 
Q 2359 409 2629 706 
Q 2900 1003 2900 1516 
L 2900 3500 
L 3475 3500 
L 3475 0 
L 2900 0 
L 2900 538 
Q 2691 219 2414 64 
Q 2138 -91 1772 -91 
Q 1169 -91 856 284 
Q 544 659 544 1381 
z
M 1991 3584 
L 1991 3584 
z
" transform="scale(0.015625)"/>
       <path id="DejaVuSans-72" d="M 2631 2963 
Q 2534 3019 2420 3045 
Q 2306 3072 2169 3072 
Q 1681 3072 1420 2755 
Q 1159 2438 1159 1844 
L 1159 0 
L 581 0 
L 581 3500 
L 1159 3500 
L 1159 2956 
Q 1341 3275 1631 3429 
Q 1922 3584 2338 3584 
Q 2397 3584 2469 3576 
Q 2541 3569 2628 3553 
L 2631 2963 
z
" transform="scale(0.015625)"/>
       <path id="DejaVuSans-66" d="M 2375 4863 
L 2375 4384 
L 1825 4384 
Q 1516 4384 1395 4259 
Q 1275 4134 1275 3809 
L 1275 3500 
L 2222 3500 
L 2222 3053 
L 1275 3053 
L 1275 0 
L 697 0 
L 697 3053 
L 147 3053 
L 147 3500 
L 697 3500 
L 697 3744 
Q 697 4328 969 4595 
Q 1241 4863 1831 4863 
L 2375 4863 
z
" transform="scale(0.015625)"/>
      </defs>
      <use xlink:href="#DejaVuSans-53"/>
      <use xlink:href="#DejaVuSans-75" transform="translate(63.476562 0)"/>
      <use xlink:href="#DejaVuSans-72" transform="translate(126.855469 0)"/>
      <use xlink:href="#DejaVuSans-66" transform="translate(167.96875 0)"/>
      <use xlink:href="#DejaVuSans-4d" transform="translate(203.173828 0)"/>
      <use xlink:href="#DejaVuSans-4c" transform="translate(289.453125 0)"/>
     </g>
    </g>
    <g id="line2d_4">
     <path d="M 65.46 294.942344 
L 76.46 294.942344 
L 87.46 294.942344 
" style="fill: none; stroke-dasharray: 5.55,2.4; stroke-dashoffset: 0; stroke: #000080; stroke-width: 1.5"/>
    </g>
    <g id="text_16">
     <!-- SurfML - No Regularization -->
     <g style="fill: #262626" transform="translate(96.26 298.792344) scale(0.11 -0.11)">
      <defs>
       <path id="DejaVuSans-4e" d="M 628 4666 
L 1478 4666 
L 3547 763 
L 3547 4666 
L 4159 4666 
L 4159 0 
L 3309 0 
L 1241 3903 
L 1241 0 
L 628 0 
L 628 4666 
z
" transform="scale(0.015625)"/>
       <path id="DejaVuSans-6f" d="M 1959 3097 
Q 1497 3097 1228 2736 
Q 959 2375 959 1747 
Q 959 1119 1226 758 
Q 1494 397 1959 397 
Q 2419 397 2687 759 
Q 2956 1122 2956 1747 
Q 2956 2369 2687 2733 
Q 2419 3097 1959 3097 
z
M 1959 3584 
Q 2709 3584 3137 3096 
Q 3566 2609 3566 1747 
Q 3566 888 3137 398 
Q 2709 -91 1959 -91 
Q 1206 -91 779 398 
Q 353 888 353 1747 
Q 353 2609 779 3096 
Q 1206 3584 1959 3584 
z
" transform="scale(0.015625)"/>
       <path id="DejaVuSans-67" d="M 2906 1791 
Q 2906 2416 2648 2759 
Q 2391 3103 1925 3103 
Q 1463 3103 1205 2759 
Q 947 2416 947 1791 
Q 947 1169 1205 825 
Q 1463 481 1925 481 
Q 2391 481 2648 825 
Q 2906 1169 2906 1791 
z
M 3481 434 
Q 3481 -459 3084 -895 
Q 2688 -1331 1869 -1331 
Q 1566 -1331 1297 -1286 
Q 1028 -1241 775 -1147 
L 775 -588 
Q 1028 -725 1275 -790 
Q 1522 -856 1778 -856 
Q 2344 -856 2625 -561 
Q 2906 -266 2906 331 
L 2906 616 
Q 2728 306 2450 153 
Q 2172 0 1784 0 
Q 1141 0 747 490 
Q 353 981 353 1791 
Q 353 2603 747 3093 
Q 1141 3584 1784 3584 
Q 2172 3584 2450 3431 
Q 2728 3278 2906 2969 
L 2906 3500 
L 3481 3500 
L 3481 434 
z
" transform="scale(0.015625)"/>
       <path id="DejaVuSans-6c" d="M 603 4863 
L 1178 4863 
L 1178 0 
L 603 0 
L 603 4863 
z
" transform="scale(0.015625)"/>
       <path id="DejaVuSans-7a" d="M 353 3500 
L 3084 3500 
L 3084 2975 
L 922 459 
L 3084 459 
L 3084 0 
L 275 0 
L 275 525 
L 2438 3041 
L 353 3041 
L 353 3500 
z
" transform="scale(0.015625)"/>
      </defs>
      <use xlink:href="#DejaVuSans-53"/>
      <use xlink:href="#DejaVuSans-75" transform="translate(63.476562 0)"/>
      <use xlink:href="#DejaVuSans-72" transform="translate(126.855469 0)"/>
      <use xlink:href="#DejaVuSans-66" transform="translate(167.96875 0)"/>
      <use xlink:href="#DejaVuSans-4d" transform="translate(203.173828 0)"/>
      <use xlink:href="#DejaVuSans-4c" transform="translate(289.453125 0)"/>
      <use xlink:href="#DejaVuSans-20" transform="translate(345.166016 0)"/>
      <use xlink:href="#DejaVuSans-2d" transform="translate(376.953125 0)"/>
      <use xlink:href="#DejaVuSans-20" transform="translate(413.037109 0)"/>
      <use xlink:href="#DejaVuSans-4e" transform="translate(444.824219 0)"/>
      <use xlink:href="#DejaVuSans-6f" transform="translate(519.628906 0)"/>
      <use xlink:href="#DejaVuSans-20" transform="translate(580.810547 0)"/>
      <use xlink:href="#DejaVuSans-52" transform="translate(612.597656 0)"/>
      <use xlink:href="#DejaVuSans-65" transform="translate(677.580078 0)"/>
      <use xlink:href="#DejaVuSans-67" transform="translate(739.103516 0)"/>
      <use xlink:href="#DejaVuSans-75" transform="translate(802.580078 0)"/>
      <use xlink:href="#DejaVuSans-6c" transform="translate(865.958984 0)"/>
      <use xlink:href="#DejaVuSans-61" transform="translate(893.742188 0)"/>
      <use xlink:href="#DejaVuSans-72" transform="translate(955.021484 0)"/>
      <use xlink:href="#DejaVuSans-69" transform="translate(996.134766 0)"/>
      <use xlink:href="#DejaVuSans-7a" transform="translate(1023.917969 0)"/>
      <use xlink:href="#DejaVuSans-61" transform="translate(1076.408203 0)"/>
      <use xlink:href="#DejaVuSans-74" transform="translate(1137.6875 0)"/>
      <use xlink:href="#DejaVuSans-69" transform="translate(1176.896484 0)"/>
      <use xlink:href="#DejaVuSans-6f" transform="translate(1204.679688 0)"/>
      <use xlink:href="#DejaVuSans-6e" transform="translate(1265.861328 0)"/>
     </g>
    </g>
   </g>
  </g>
 </g>
 <defs>
  <clipPath id="p8f51fb22ce">
   <rect x="55.56" y="28.08" width="651.48" height="282.9"/>
  </clipPath>
 </defs>
</svg>
