<?xml version="1.0" encoding="utf-8" standalone="no"?>
<!DOCTYPE svg PUBLIC "-//W3C//DTD SVG 1.1//EN"
  "http://www.w3.org/Graphics/SVG/1.1/DTD/svg11.dtd">
<svg xmlns:xlink="http://www.w3.org/1999/xlink" width="720pt" height="360pt" viewBox="0 0 720 360" xmlns="http://www.w3.org/2000/svg" version="1.1">
 <metadata>
  <rdf:RDF xmlns:dc="http://purl.org/dc/elements/1.1/" xmlns:cc="http://creativecommons.org/ns#" xmlns:rdf="http://www.w3.org/1999/02/22-rdf-syntax-ns#">
   <cc:Work>
    <dc:type rdf:resource="http://purl.org/dc/dcmitype/StillImage"/>
    <dc:date>2026-03-24T10:52:24.795516</dc:date>
    <dc:format>image/svg+xml</dc:format>
    <dc:creator>
     <cc:Agent>
      <dc:title>Matplotlib v3.10.6, https://matplotlib.org/</dc:title>
     </cc:Agent>
    </dc:creator>
   </cc:Work>
  </rdf:RDF>
 </metadata>
 <defs>
  <style type="text/css">*{stroke-linejoin: round; stroke-linecap: butt}</style>
 </defs>
 <g id="figure_1">
  <g id="patch_1">
   <path d="M 0 360 
L 720 360 
L 720 0 
L 0 0 
z
" style="fill: #ffffff"/>
  </g>
  <g id="axes_1">
   <g id="patch_2">
    <path d="M 55.56 310.98 
L 707.04 310.98 
L 707.04 28.08 
L 55.56 28.08 
z
" style="fill: #eaeaf2"/>
   </g>
   <g id="matplotlib.axis_1">
    <g id="xtick_1">
     <g id="text_1">
      <!-- 0 -->
      <g style="fill: #262626" transform="translate(80.479291 328.838281) scale(0.11 -0.11)">
       <defs>
        <path id="DejaVuSans-30" d="M 2034 4250 
Q 1547 4250 1301 3770 
Q 1056 3291 1056 2328 
Q 1056 1369 1301 889 
Q 1547 409 2034 409 
Q 2525 409 2770 889 
Q 3016 1369 3016 2328 
Q 3016 3291 2770 3770 
Q 2525 4250 2034 4250 
z
M 2034 4750 
Q 2819 4750 3233 4129 
Q 3647 3509 3647 2328 
Q 3647 1150 3233 529 
Q 2819 -91 2034 -91 
Q 1250 -91 836 529 
Q 422 1150 422 2328 
Q 422 3509 836 4129 
Q 1250 4750 2034 4750 
z
" transform="scale(0.015625)"/>
       </defs>
       <use xlink:href="#DejaVuSans-30"/>
      </g>
     </g>
    </g>
    <g id="xtick_2">
     <g id="text_2">
      <!-- 5 -->
      <g style="fill: #262626" transform="translate(223.766681 328.838281) scale(0.11 -0.11)">
       <defs>
        <path id="DejaVuSans-35" d="M 691 4666 
L 3169 4666 
L 3169 4134 
L 1269 4134 
L 1269 2991 
Q 1406 3038 1543 3061 
Q 1681 3084 1819 3084 
Q 2600 3084 3056 2656 
Q 3513 2228 3513 1497 
Q 3513 744 3044 326 
Q 2575 -91 1722 -91 
Q 1428 -91 1123 -41 
Q 819 9 494 109 
L 494 744 
Q 775 591 1075 516 
Q 1375 441 1709 441 
Q 2250 441 2565 725 
Q 2881 1009 2881 1497 
Q 2881 1984 2565 2268 
Q 2250 2553 1709 2553 
Q 1456 2553 1204 2497 
Q 953 2441 691 2322 
L 691 4666 
z
" transform="scale(0.015625)"/>
       </defs>
       <use xlink:href="#DejaVuSans-35"/>
      </g>
     </g>
    </g>
    <g id="xtick_3">
     <g id="text_3">
      <!-- 10 -->
      <g style="fill: #262626" transform="translate(363.554696 328.838281) scale(0.11 -0.11)">
       <defs>
        <path id="DejaVuSans-31" d="M 794 531 
L 1825 531 
L 1825 4091 
L 703 3866 
L 703 4441 
L 1819 4666 
L 2450 4666 
L 2450 531 
L 3481 531 
L 3481 0 
L 794 0 
L 794 531 
z
" transform="scale(0.015625)"/>
       </defs>
       <use xlink:href="#DejaVuSans-31"/>
       <use xlink:href="#DejaVuSans-30" transform="translate(63.623047 0)"/>
      </g>
     </g>
    </g>
    <g id="xtick_4">
     <g id="text_4">
      <!-- 15 -->
      <g style="fill: #262626" transform="translate(506.842086 328.838281) scale(0.11 -0.11)">
       <use xlink:href="#DejaVuSans-31"/>
       <use xlink:href="#DejaVuSans-35" transform="translate(63.623047 0)"/>
      </g>
     </g>
    </g>
    <g id="xtick_5">
     <g id="text_5">
      <!-- 20 -->
      <g style="fill: #262626" transform="translate(650.129476 328.838281) scale(0.11 -0.11)">
       <defs>
        <path id="DejaVuSans-32" d="M 1228 531 
L 3431 531 
L 3431 0 
L 469 0 
L 469 531 
Q 828 903 1448 1529 
Q 2069 2156 2228 2338 
Q 2531 2678 2651 2914 
Q 2772 3150 2772 3378 
Q 2772 3750 2511 3984 
Q 2250 4219 1831 4219 
Q 1534 4219 1204 4116 
Q 875 4013 500 3803 
L 500 4441 
Q 881 4594 1212 4672 
Q 1544 4750 1819 4750 
Q 2544 4750 2975 4387 
Q 3406 4025 3406 3419 
Q 3406 3131 3298 2873 
Q 3191 2616 2906 2266 
Q 2828 2175 2409 1742 
Q 1991 1309 1228 531 
z
" transform="scale(0.015625)"/>
       </defs>
       <use xlink:href="#DejaVuSans-32"/>
       <use xlink:href="#DejaVuSans-30" transform="translate(63.623047 0)"/>
      </g>
     </g>
    </g>
    <g id="text_6">
     <!-- Time [days] -->
     <g style="fill: #262626" transform="translate(345.868125 344.244062) scale(0.12 -0.12)">
      <defs>
       <path id="DejaVuSans-54" d="M -19 4666 
L 3928 4666 
L 3928 4134 
L 2272 4134 
L 2272 0 
L 1638 0 
L 1638 4134 
L -19 4134 
L -19 4666 
z
" transform="scale(0.015625)"/>
       <path id="DejaVuSans-69" d="M 603 3500 
L 1178 3500 
L 1178 0 
L 603 0 
L 603 3500 
z
M 603 4863 
L 1178 4863 
L 1178 4134 
L 603 4134 
L 603 4863 
z
" transform="scale(0.015625)"/>
       <path id="DejaVuSans-6d" d="M 3328 2828 
Q 3544 3216 3844 3400 
Q 4144 3584 4550 3584 
Q 5097 3584 5394 3201 
Q 5691 2819 5691 2113 
L 5691 0 
L 5113 0 
L 5113 2094 
Q 5113 2597 4934 2840 
Q 4756 3084 4391 3084 
Q 3944 3084 3684 2787 
Q 3425 2491 3425 1978 
L 3425 0 
L 2847 0 
L 2847 2094 
Q 2847 2600 2669 2842 
Q 2491 3084 2119 3084 
Q 1678 3084 1418 2786 
Q 1159 2488 1159 1978 
L 1159 0 
L 581 0 
L 581 3500 
L 1159 3500 
L 1159 2956 
Q 1356 3278 1631 3431 
Q 1906 3584 2284 3584 
Q 2666 3584 2933 3390 
Q 3200 3197 3328 2828 
z
" transform="scale(0.015625)"/>
       <path id="DejaVuSans-65" d="M 3597 1894 
L 3597 1613 
L 953 1613 
Q 991 1019 1311 708 
Q 1631 397 2203 397 
Q 2534 397 2845 478 
Q 3156 559 3463 722 
L 3463 178 
Q 3153 47 2828 -22 
Q 2503 -91 2169 -91 
Q 1331 -91 842 396 
Q 353 884 353 1716 
Q 353 2575 817 3079 
Q 1281 3584 2069 3584 
Q 2775 3584 3186 3129 
Q 3597 2675 3597 1894 
z
M 3022 2063 
Q 3016 2534 2758 2815 
Q 2500 3097 2075 3097 
Q 1594 3097 1305 2825 
Q 1016 2553 972 2059 
L 3022 2063 
z
" transform="scale(0.015625)"/>
       <path id="DejaVuSans-20" transform="scale(0.015625)"/>
       <path id="DejaVuSans-5b" d="M 550 4863 
L 1875 4863 
L 1875 4416 
L 1125 4416 
L 1125 -397 
L 1875 -397 
L 1875 -844 
L 550 -844 
L 550 4863 
z
" transform="scale(0.015625)"/>
       <path id="DejaVuSans-64" d="M 2906 2969 
L 2906 4863 
L 3481 4863 
L 3481 0 
L 2906 0 
L 2906 525 
Q 2725 213 2448 61 
Q 2172 -91 1784 -91 
Q 1150 -91 751 415 
Q 353 922 353 1747 
Q 353 2572 751 3078 
Q 1150 3584 1784 3584 
Q 2172 3584 2448 3432 
Q 2725 3281 2906 2969 
z
M 947 1747 
Q 947 1113 1208 752 
Q 1469 391 1925 391 
Q 2381 391 2643 752 
Q 2906 1113 2906 1747 
Q 2906 2381 2643 2742 
Q 2381 3103 1925 3103 
Q 1469 3103 1208 2742 
Q 947 2381 947 1747 
z
" transform="scale(0.015625)"/>
       <path id="DejaVuSans-61" d="M 2194 1759 
Q 1497 1759 1228 1600 
Q 959 1441 959 1056 
Q 959 750 1161 570 
Q 1363 391 1709 391 
Q 2188 391 2477 730 
Q 2766 1069 2766 1631 
L 2766 1759 
L 2194 1759 
z
M 3341 1997 
L 3341 0 
L 2766 0 
L 2766 531 
Q 2569 213 2275 61 
Q 1981 -91 1556 -91 
Q 1019 -91 701 211 
Q 384 513 384 1019 
Q 384 1609 779 1909 
Q 1175 2209 1959 2209 
L 2766 2209 
L 2766 2266 
Q 2766 2663 2505 2880 
Q 2244 3097 1772 3097 
Q 1472 3097 1187 3025 
Q 903 2953 641 2809 
L 641 3341 
Q 956 3463 1253 3523 
Q 1550 3584 1831 3584 
Q 2591 3584 2966 3190 
Q 3341 2797 3341 1997 
z
" transform="scale(0.015625)"/>
       <path id="DejaVuSans-79" d="M 2059 -325 
Q 1816 -950 1584 -1140 
Q 1353 -1331 966 -1331 
L 506 -1331 
L 506 -850 
L 844 -850 
Q 1081 -850 1212 -737 
Q 1344 -625 1503 -206 
L 1606 56 
L 191 3500 
L 800 3500 
L 1894 763 
L 2988 3500 
L 3597 3500 
L 2059 -325 
z
" transform="scale(0.015625)"/>
       <path id="DejaVuSans-73" d="M 2834 3397 
L 2834 2853 
Q 2591 2978 2328 3040 
Q 2066 3103 1784 3103 
Q 1356 3103 1142 2972 
Q 928 2841 928 2578 
Q 928 2378 1081 2264 
Q 1234 2150 1697 2047 
L 1894 2003 
Q 2506 1872 2764 1633 
Q 3022 1394 3022 966 
Q 3022 478 2636 193 
Q 2250 -91 1575 -91 
Q 1294 -91 989 -36 
Q 684 19 347 128 
L 347 722 
Q 666 556 975 473 
Q 1284 391 1588 391 
Q 1994 391 2212 530 
Q 2431 669 2431 922 
Q 2431 1156 2273 1281 
Q 2116 1406 1581 1522 
L 1381 1569 
Q 847 1681 609 1914 
Q 372 2147 372 2553 
Q 372 3047 722 3315 
Q 1072 3584 1716 3584 
Q 2034 3584 2315 3537 
Q 2597 3491 2834 3397 
z
" transform="scale(0.015625)"/>
       <path id="DejaVuSans-5d" d="M 1947 4863 
L 1947 -844 
L 622 -844 
L 622 -397 
L 1369 -397 
L 1369 4416 
L 622 4416 
L 622 4863 
L 1947 4863 
z
" transform="scale(0.015625)"/>
      </defs>
      <use xlink:href="#DejaVuSans-54"/>
      <use xlink:href="#DejaVuSans-69" transform="translate(57.958984 0)"/>
      <use xlink:href="#DejaVuSans-6d" transform="translate(85.742188 0)"/>
      <use xlink:href="#DejaVuSans-65" transform="translate(183.154297 0)"/>
      <use xlink:href="#DejaVuSans-20" transform="translate(244.677734 0)"/>
      <use xlink:href="#DejaVuSans-5b" transform="translate(276.464844 0)"/>
      <use xlink:href="#DejaVuSans-64" transform="translate(315.478516 0)"/>
      <use xlink:href="#DejaVuSans-61" transform="translate(378.955078 0)"/>
      <use xlink:href="#DejaVuSans-79" transform="translate(440.234375 0)"/>
      <use xlink:href="#DejaVuSans-73" transform="translate(499.414062 0)"/>
      <use xlink:href="#DejaVuSans-5d" transform="translate(551.513672 0)"/>
     </g>
    </g>
   </g>
   <g id="matplotlib.axis_2">
    <g id="ytick_1">
     <g id="text_7">
      <!-- 0.0 -->
      <g style="fill: #262626" transform="translate(28.566562 302.30005) scale(0.11 -0.11)">
       <defs>
        <path id="DejaVuSans-2e" d="M 684 794 
L 1344 794 
L 1344 0 
L 684 0 
L 684 794 
z
" transform="scale(0.015625)"/>
       </defs>
       <use xlink:href="#DejaVuSans-30"/>
       <use xlink:href="#DejaVuSans-2e" transform="translate(63.623047 0)"/>
       <use xlink:href="#DejaVuSans-30" transform="translate(95.410156 0)"/>
      </g>
     </g>
    </g>
    <g id="ytick_2">
     <g id="text_8">
      <!-- 0.2 -->
      <g style="fill: #262626" transform="translate(28.566562 250.863686) scale(0.11 -0.11)">
       <use xlink:href="#DejaVuSans-30"/>
       <use xlink:href="#DejaVuSans-2e" transform="translate(63.623047 0)"/>
       <use xlink:href="#DejaVuSans-32" transform="translate(95.410156 0)"/>
      </g>
     </g>
    </g>
    <g id="ytick_3">
     <g id="text_9">
      <!-- 0.4 -->
      <g style="fill: #262626" transform="translate(28.566562 199.427322) scale(0.11 -0.11)">
       <defs>
        <path id="DejaVuSans-34" d="M 2419 4116 
L 825 1625 
L 2419 1625 
L 2419 4116 
z
M 2253 4666 
L 3047 4666 
L 3047 1625 
L 3713 1625 
L 3713 1100 
L 3047 1100 
L 3047 0 
L 2419 0 
L 2419 1100 
L 313 1100 
L 313 1709 
L 2253 4666 
z
" transform="scale(0.015625)"/>
       </defs>
       <use xlink:href="#DejaVuSans-30"/>
       <use xlink:href="#DejaVuSans-2e" transform="translate(63.623047 0)"/>
       <use xlink:href="#DejaVuSans-34" transform="translate(95.410156 0)"/>
      </g>
     </g>
    </g>
    <g id="ytick_4">
     <g id="text_10">
      <!-- 0.6 -->
      <g style="fill: #262626" transform="translate(28.566562 147.990959) scale(0.11 -0.11)">
       <defs>
        <path id="DejaVuSans-36" d="M 2113 2584 
Q 1688 2584 1439 2293 
Q 1191 2003 1191 1497 
Q 1191 994 1439 701 
Q 1688 409 2113 409 
Q 2538 409 2786 701 
Q 3034 994 3034 1497 
Q 3034 2003 2786 2293 
Q 2538 2584 2113 2584 
z
M 3366 4563 
L 3366 3988 
Q 3128 4100 2886 4159 
Q 2644 4219 2406 4219 
Q 1781 4219 1451 3797 
Q 1122 3375 1075 2522 
Q 1259 2794 1537 2939 
Q 1816 3084 2150 3084 
Q 2853 3084 3261 2657 
Q 3669 2231 3669 1497 
Q 3669 778 3244 343 
Q 2819 -91 2113 -91 
Q 1303 -91 875 529 
Q 447 1150 447 2328 
Q 447 3434 972 4092 
Q 1497 4750 2381 4750 
Q 2619 4750 2861 4703 
Q 3103 4656 3366 4563 
z
" transform="scale(0.015625)"/>
       </defs>
       <use xlink:href="#DejaVuSans-30"/>
       <use xlink:href="#DejaVuSans-2e" transform="translate(63.623047 0)"/>
       <use xlink:href="#DejaVuSans-36" transform="translate(95.410156 0)"/>
      </g>
     </g>
    </g>
    <g id="ytick_5">
     <g id="text_11">
      <!-- 0.8 -->
      <g style="fill: #262626" transform="translate(28.566562 96.554595) scale(0.11 -0.11)">
       <defs>
        <path id="DejaVuSans-38" d="M 2034 2216 
Q 1584 2216 1326 1975 
Q 1069 1734 1069 1313 
Q 1069 891 1326 650 
Q 1584 409 2034 409 
Q 2484 409 2743 651 
Q 3003 894 3003 1313 
Q 3003 1734 2745 1975 
Q 2488 2216 2034 2216 
z
M 1403 2484 
Q 997 2584 770 2862 
Q 544 3141 544 3541 
Q 544 4100 942 4425 
Q 1341 4750 2034 4750 
Q 2731 4750 3128 4425 
Q 3525 4100 3525 3541 
Q 3525 3141 3298 2862 
Q 3072 2584 2669 2484 
Q 3125 2378 3379 2068 
Q 3634 1759 3634 1313 
Q 3634 634 3220 271 
Q 2806 -91 2034 -91 
Q 1263 -91 848 271 
Q 434 634 434 1313 
Q 434 1759 690 2068 
Q 947 2378 1403 2484 
z
M 1172 3481 
Q 1172 3119 1398 2916 
Q 1625 2713 2034 2713 
Q 2441 2713 2670 2916 
Q 2900 3119 2900 3481 
Q 2900 3844 2670 4047 
Q 2441 4250 2034 4250 
Q 1625 4250 1398 4047 
Q 1172 3844 1172 3481 
z
" transform="scale(0.015625)"/>
       </defs>
       <use xlink:href="#DejaVuSans-30"/>
       <use xlink:href="#DejaVuSans-2e" transform="translate(63.623047 0)"/>
       <use xlink:href="#DejaVuSans-38" transform="translate(95.410156 0)"/>
      </g>
     </g>
    </g>
    <g id="ytick_6">
     <g id="text_12">
      <!-- 1.0 -->
      <g style="fill: #262626" transform="translate(28.566562 45.118232) scale(0.11 -0.11)">
       <use xlink:href="#DejaVuSans-31"/>
       <use xlink:href="#DejaVuSans-2e" transform="translate(63.623047 0)"/>
       <use xlink:href="#DejaVuSans-30" transform="translate(95.410156 0)"/>
      </g>
     </g>
    </g>
    <g id="text_13">
     <!-- Dt ψ₂ nRMSE -->
     <g style="fill: #262626" transform="translate(22.070937 207.428437) rotate(-90) scale(0.12 -0.12)">
      <defs>
       <path id="DejaVuSans-44" d="M 1259 4147 
L 1259 519 
L 2022 519 
Q 2988 519 3436 956 
Q 3884 1394 3884 2338 
Q 3884 3275 3436 3711 
Q 2988 4147 2022 4147 
L 1259 4147 
z
M 628 4666 
L 1925 4666 
Q 3281 4666 3915 4102 
Q 4550 3538 4550 2338 
Q 4550 1131 3912 565 
Q 3275 0 1925 0 
L 628 0 
L 628 4666 
z
" transform="scale(0.015625)"/>
       <path id="DejaVuSans-74" d="M 1172 4494 
L 1172 3500 
L 2356 3500 
L 2356 3053 
L 1172 3053 
L 1172 1153 
Q 1172 725 1289 603 
Q 1406 481 1766 481 
L 2356 481 
L 2356 0 
L 1766 0 
Q 1100 0 847 248 
Q 594 497 594 1153 
L 594 3053 
L 172 3053 
L 172 3500 
L 594 3500 
L 594 4494 
L 1172 4494 
z
" transform="scale(0.015625)"/>
       <path id="DejaVuSans-3c8" d="M 1816 -78 
Q 1094 38 759 341 
Q 350 713 350 1472 
L 350 3500 
L 931 3500 
L 931 1494 
Q 931 922 1197 684 
Q 1428 478 1816 434 
L 1816 3500 
L 2388 3500 
L 2388 438 
Q 2797 481 3006 688 
Q 3272 950 3272 1497 
L 3272 3500 
L 3853 3500 
L 3853 1475 
Q 3853 688 3444 344 
Q 3075 34 2388 -75 
L 2388 -1331 
L 1816 -1331 
L 1816 -78 
z
" transform="scale(0.015625)"/>
       <path id="DejaVuSans-2082" d="M 838 356 
L 2163 356 
L 2163 0 
L 294 0 
L 294 343 
Q 400 440 597 615 
Q 1672 1568 1672 1862 
Q 1672 2068 1509 2194 
Q 1347 2321 1081 2321 
Q 919 2321 728 2266 
Q 538 2212 313 2103 
L 313 2487 
Q 553 2575 761 2618 
Q 969 2662 1147 2662 
Q 1600 2662 1872 2456 
Q 2144 2250 2144 1912 
Q 2144 1478 1109 590 
Q 934 440 838 356 
z
" transform="scale(0.015625)"/>
       <path id="DejaVuSans-6e" d="M 3513 2113 
L 3513 0 
L 2938 0 
L 2938 2094 
Q 2938 2591 2744 2837 
Q 2550 3084 2163 3084 
Q 1697 3084 1428 2787 
Q 1159 2491 1159 1978 
L 1159 0 
L 581 0 
L 581 3500 
L 1159 3500 
L 1159 2956 
Q 1366 3272 1645 3428 
Q 1925 3584 2291 3584 
Q 2894 3584 3203 3211 
Q 3513 2838 3513 2113 
z
" transform="scale(0.015625)"/>
       <path id="DejaVuSans-52" d="M 2841 2188 
Q 3044 2119 3236 1894 
Q 3428 1669 3622 1275 
L 4263 0 
L 3584 0 
L 2988 1197 
Q 2756 1666 2539 1819 
Q 2322 1972 1947 1972 
L 1259 1972 
L 1259 0 
L 628 0 
L 628 4666 
L 2053 4666 
Q 2853 4666 3247 4331 
Q 3641 3997 3641 3322 
Q 3641 2881 3436 2590 
Q 3231 2300 2841 2188 
z
M 1259 4147 
L 1259 2491 
L 2053 2491 
Q 2509 2491 2742 2702 
Q 2975 2913 2975 3322 
Q 2975 3731 2742 3939 
Q 2509 4147 2053 4147 
L 1259 4147 
z
" transform="scale(0.015625)"/>
       <path id="DejaVuSans-4d" d="M 628 4666 
L 1569 4666 
L 2759 1491 
L 3956 4666 
L 4897 4666 
L 4897 0 
L 4281 0 
L 4281 4097 
L 3078 897 
L 2444 897 
L 1241 4097 
L 1241 0 
L 628 0 
L 628 4666 
z
" transform="scale(0.015625)"/>
       <path id="DejaVuSans-53" d="M 3425 4513 
L 3425 3897 
Q 3066 4069 2747 4153 
Q 2428 4238 2131 4238 
Q 1616 4238 1336 4038 
Q 1056 3838 1056 3469 
Q 1056 3159 1242 3001 
Q 1428 2844 1947 2747 
L 2328 2669 
Q 3034 2534 3370 2195 
Q 3706 1856 3706 1288 
Q 3706 609 3251 259 
Q 2797 -91 1919 -91 
Q 1588 -91 1214 -16 
Q 841 59 441 206 
L 441 856 
Q 825 641 1194 531 
Q 1563 422 1919 422 
Q 2459 422 2753 634 
Q 3047 847 3047 1241 
Q 3047 1584 2836 1778 
Q 2625 1972 2144 2069 
L 1759 2144 
Q 1053 2284 737 2584 
Q 422 2884 422 3419 
Q 422 4038 858 4394 
Q 1294 4750 2059 4750 
Q 2388 4750 2728 4690 
Q 3069 4631 3425 4513 
z
" transform="scale(0.015625)"/>
       <path id="DejaVuSans-45" d="M 628 4666 
L 3578 4666 
L 3578 4134 
L 1259 4134 
L 1259 2753 
L 3481 2753 
L 3481 2222 
L 1259 2222 
L 1259 531 
L 3634 531 
L 3634 0 
L 628 0 
L 628 4666 
z
" transform="scale(0.015625)"/>
      </defs>
      <use xlink:href="#DejaVuSans-44"/>
      <use xlink:href="#DejaVuSans-74" transform="translate(77.001953 0)"/>
      <use xlink:href="#DejaVuSans-20" transform="translate(116.210938 0)"/>
      <use xlink:href="#DejaVuSans-3c8" transform="translate(147.998047 0)"/>
      <use xlink:href="#DejaVuSans-2082" transform="translate(213.964844 0)"/>
      <use xlink:href="#DejaVuSans-20" transform="translate(254.052734 0)"/>
      <use xlink:href="#DejaVuSans-6e" transform="translate(285.839844 0)"/>
      <use xlink:href="#DejaVuSans-52" transform="translate(349.21875 0)"/>
      <use xlink:href="#DejaVuSans-4d" transform="translate(418.701172 0)"/>
      <use xlink:href="#DejaVuSans-53" transform="translate(504.980469 0)"/>
      <use xlink:href="#DejaVuSans-45" transform="translate(568.457031 0)"/>
     </g>
    </g>
   </g>
   <g id="FillBetweenPolyCollection_1">
    <defs>
     <path id="md5f649d511" d="M 85.172727 -172.088754 
L 85.172727 -149.375722 
L 87.56085 -142.744123 
L 89.948974 -136.068526 
L 92.337097 -129.380854 
L 94.72522 -122.720297 
L 97.113343 -116.135172 
L 99.501466 -109.686125 
L 101.889589 -103.45137 
L 104.277713 -97.535334 
L 106.665836 -92.084512 
L 109.053959 -87.311757 
L 111.442082 -83.526524 
L 113.830205 -81.114999 
L 116.218328 -80.350191 
L 118.606452 -81.114341 
L 120.994575 -82.947717 
L 123.382698 -85.364244 
L 125.770821 -88.005503 
L 128.158944 -90.630095 
L 130.547067 -93.079734 
L 132.935191 -95.258898 
L 135.323314 -97.117639 
L 137.711437 -98.636714 
L 140.09956 -99.813579 
L 142.487683 -100.654875 
L 144.875806 -101.171782 
L 147.26393 -101.377029 
L 149.652053 -101.288593 
L 152.040176 -100.924387 
L 154.428299 -100.307849 
L 156.816422 -99.463053 
L 159.204545 -98.416351 
L 161.592669 -97.196369 
L 163.980792 -95.838421 
L 166.368915 -94.380575 
L 168.757038 -92.866051 
L 171.145161 -91.342977 
L 173.533284 -89.863861 
L 175.921408 -88.486948 
L 178.309531 -87.273238 
L 180.697654 -86.283702 
L 183.085777 -85.575211 
L 185.4739 -85.192964 
L 187.862023 -85.162041 
L 190.250147 -85.482855 
L 192.63827 -86.132275 
L 195.026393 -87.069228 
L 197.414516 -88.238669 
L 199.802639 -89.579585 
L 202.190762 -91.030562 
L 204.578886 -92.533838 
L 206.967009 -94.037285 
L 209.355132 -95.496279 
L 211.743255 -96.871536 
L 214.131378 -98.129896 
L 216.519501 -99.243048 
L 218.907625 -100.186511 
L 221.295748 -100.941376 
L 223.683871 -101.492894 
L 226.071994 -101.829565 
L 228.460117 -101.944156 
L 230.84824 -101.833521 
L 233.236364 -101.497814 
L 235.624487 -100.940926 
L 238.01261 -100.17227 
L 240.400733 -99.205104 
L 242.788856 -98.057148 
L 245.176979 -96.750817 
L 247.565103 -95.312446 
L 249.953226 -93.772961 
L 252.341349 -92.167661 
L 254.729472 -90.535179 
L 257.117595 -88.917586 
L 259.505718 -87.359611 
L 261.893842 -85.90827 
L 264.281965 -84.611909 
L 266.670088 -83.518026 
L 269.058211 -82.673708 
L 271.446334 -82.126466 
L 273.834457 -81.922127 
L 276.222581 -82.096379 
L 278.610704 -82.654592 
L 280.998827 -83.557129 
L 283.38695 -84.725856 
L 285.775073 -86.067026 
L 288.163196 -87.4934 
L 290.55132 -88.936171 
L 292.939443 -90.347129 
L 295.327566 -91.696934 
L 297.715689 -92.968837 
L 300.103812 -94.154008 
L 302.491935 -95.248857 
L 304.880059 -96.252674 
L 307.268182 -97.167084 
L 309.656305 -97.993759 
L 312.044428 -98.734165 
L 314.432551 -99.388947 
L 316.820674 -99.958474 
L 319.208798 -100.443007 
L 321.596921 -100.842526 
L 323.985044 -101.157091 
L 326.373167 -101.385831 
L 328.76129 -101.526526 
L 331.149413 -101.578092 
L 333.537537 -101.540389 
L 335.92566 -101.413142 
L 338.313783 -101.195623 
L 340.701906 -100.886403 
L 343.090029 -100.484037 
L 345.478152 -99.986793 
L 347.866276 -99.395066 
L 350.254399 -98.709235 
L 352.642522 -97.930578 
L 355.030645 -97.05986 
L 357.418768 -96.097978 
L 359.806891 -95.046954 
L 362.195015 -93.910873 
L 364.583138 -92.696609 
L 366.971261 -91.414155 
L 369.359384 -90.077332 
L 371.747507 -88.704492 
L 374.13563 -87.320094 
L 376.523754 -85.95611 
L 378.911877 -84.653171 
L 381.3 -83.461027 
L 383.688123 -82.437129 
L 386.076246 -81.64274 
L 388.46437 -81.136534 
L 390.852493 -80.967043 
L 393.240616 -81.168485 
L 395.628739 -81.756606 
L 398.016862 -82.726772 
L 400.404985 -84.047325 
L 402.793109 -85.659575 
L 405.181232 -87.490189 
L 407.569355 -89.460217 
L 409.957478 -91.495735 
L 412.345601 -93.531373 
L 414.733724 -95.510745 
L 417.121848 -97.385959 
L 419.509971 -99.11756 
L 421.898094 -100.671605 
L 424.286217 -102.02053 
L 426.67434 -103.14123 
L 429.062463 -104.016049 
L 431.450587 -104.633863 
L 433.83871 -104.989153 
L 436.226833 -105.080082 
L 438.614956 -104.909881 
L 441.003079 -104.487029 
L 443.391202 -103.822143 
L 445.779326 -102.93139 
L 448.167449 -101.83694 
L 450.555572 -100.564089 
L 452.943695 -99.142448 
L 455.331818 -97.604351 
L 457.719941 -95.986364 
L 460.108065 -94.329731 
L 462.496188 -92.682497 
L 464.884311 -91.100192 
L 467.272434 -89.643596 
L 469.660557 -88.37697 
L 472.04868 -87.366434 
L 474.436804 -86.671755 
L 476.824927 -86.337958 
L 479.21305 -86.383567 
L 481.601173 -86.796903 
L 483.989296 -87.540041 
L 486.377419 -88.559814 
L 488.765543 -89.798209 
L 491.153666 -91.199913 
L 493.541789 -92.71456 
L 495.929912 -94.298194 
L 498.318035 -95.913794 
L 500.706158 -97.530387 
L 503.094282 -99.121428 
L 505.482405 -100.663484 
L 507.870528 -102.135201 
L 510.258651 -103.517019 
L 512.646774 -104.79239 
L 515.034897 -105.948151 
L 517.423021 -106.973326 
L 519.811144 -107.858186 
L 522.199267 -108.595421 
L 524.58739 -109.180351 
L 526.975513 -109.612235 
L 529.363636 -109.895643 
L 531.75176 -110.037908 
L 534.139883 -110.048887 
L 536.528006 -109.94228 
L 538.916129 -109.73554 
L 541.304252 -109.450107 
L 543.692375 -109.110377 
L 546.080499 -108.740123 
L 548.468622 -108.361357 
L 550.856745 -107.995807 
L 553.244868 -107.66332 
L 555.632991 -107.38354 
L 558.021114 -107.176304 
L 560.409238 -107.061708 
L 562.797361 -107.061762 
L 565.185484 -107.204105 
L 567.573607 -107.520924 
L 569.96173 -108.047184 
L 572.349853 -108.816621 
L 574.737977 -109.855354 
L 577.1261 -111.176797 
L 579.514223 -112.779284 
L 581.902346 -114.647567 
L 584.290469 -116.754143 
L 586.678592 -119.064404 
L 589.066716 -121.540134 
L 591.454839 -124.142449 
L 593.842962 -126.833744 
L 596.231085 -129.578953 
L 598.619208 -132.345761 
L 601.007331 -135.105608 
L 603.395455 -137.833151 
L 605.783578 -140.506355 
L 608.171701 -143.105136 
L 610.559824 -145.612375 
L 612.947947 -148.014668 
L 615.33607 -150.300738 
L 617.724194 -152.463212 
L 620.112317 -154.497469 
L 622.50044 -156.4016 
L 624.888563 -158.177853 
L 627.276686 -159.831233 
L 629.664809 -161.3676 
L 632.052933 -162.794478 
L 634.441056 -164.120755 
L 636.829179 -165.355354 
L 639.217302 -166.50607 
L 641.605425 -167.579824 
L 643.993548 -168.582262 
L 646.381672 -169.51723 
L 648.769795 -170.388391 
L 651.157918 -171.201624 
L 653.546041 -171.968822 
L 655.934164 -172.709789 
L 658.322287 -173.454138 
L 660.710411 -174.239836 
L 663.098534 -175.112449 
L 665.486657 -176.124608 
L 667.87478 -177.327084 
L 670.262903 -178.765652 
L 672.651026 -180.476321 
L 675.03915 -182.483211 
L 677.427273 -184.795702 
L 677.427273 -238.571096 
L 677.427273 -238.571096 
L 675.03915 -235.37556 
L 672.651026 -232.259422 
L 670.262903 -229.258516 
L 667.87478 -226.411945 
L 665.486657 -223.75986 
L 663.098534 -221.340208 
L 660.710411 -219.185736 
L 658.322287 -217.319059 
L 655.934164 -215.749614 
L 653.546041 -214.470972 
L 651.157918 -213.460292 
L 648.769795 -212.678301 
L 646.381672 -212.074749 
L 643.993548 -211.591374 
L 641.605425 -211.167725 
L 639.217302 -210.745128 
L 636.829179 -210.267584 
L 634.441056 -209.684914 
L 632.052933 -208.953951 
L 629.664809 -208.040535 
L 627.276686 -206.91728 
L 624.888563 -205.564018 
L 622.50044 -203.967849 
L 620.112317 -202.123607 
L 617.724194 -200.03209 
L 615.33607 -197.697496 
L 612.947947 -195.13011 
L 610.559824 -192.345047 
L 608.171701 -189.36205 
L 605.783578 -186.203408 
L 603.395455 -182.893146 
L 601.007331 -179.457743 
L 598.619208 -175.925356 
L 596.231085 -172.326394 
L 593.842962 -168.690269 
L 591.454839 -165.047301 
L 589.066716 -161.428394 
L 586.678592 -157.865484 
L 584.290469 -154.390677 
L 581.902346 -151.035357 
L 579.514223 -147.833518 
L 577.1261 -144.821086 
L 574.737977 -142.036451 
L 572.349853 -139.520492 
L 569.96173 -137.314375 
L 567.573607 -135.455865 
L 565.185484 -133.973316 
L 562.797361 -132.881184 
L 560.409238 -132.176898 
L 558.021114 -131.838953 
L 555.632991 -131.828852 
L 553.244868 -132.094738 
L 550.856745 -132.576008 
L 548.468622 -133.20869 
L 546.080499 -133.929772 
L 543.692375 -134.680166 
L 541.304252 -135.405982 
L 538.916129 -136.060108 
L 536.528006 -136.601075 
L 534.139883 -136.993785 
L 531.75176 -137.210396 
L 529.363636 -137.228689 
L 526.975513 -137.031758 
L 524.58739 -136.608571 
L 522.199267 -135.952033 
L 519.811144 -135.060242 
L 517.423021 -133.935418 
L 515.034897 -132.58355 
L 512.646774 -131.014593 
L 510.258651 -129.242641 
L 507.870528 -127.285532 
L 505.482405 -125.165297 
L 503.094282 -122.907959 
L 500.706158 -120.54389 
L 498.318035 -118.107808 
L 495.929912 -115.639294 
L 493.541789 -113.183863 
L 491.153666 -110.792509 
L 488.765543 -108.521617 
L 486.377419 -106.431681 
L 483.989296 -104.586071 
L 481.601173 -103.047536 
L 479.21305 -101.872482 
L 476.824927 -101.106102 
L 474.436804 -100.778343 
L 472.04868 -100.898601 
L 469.660557 -101.453001 
L 467.272434 -102.40453 
L 464.884311 -103.69664 
L 462.496188 -105.25903 
L 460.108065 -107.014784 
L 457.719941 -108.887034 
L 455.331818 -110.801735 
L 452.943695 -112.69074 
L 450.555572 -114.493017 
L 448.167449 -116.154744 
L 445.779326 -117.629412 
L 443.391202 -118.877704 
L 441.003079 -119.86757 
L 438.614956 -120.573659 
L 436.226833 -120.978015 
L 433.83871 -121.069535 
L 431.450587 -120.84345 
L 429.062463 -120.301438 
L 426.67434 -119.451884 
L 424.286217 -118.308819 
L 421.898094 -116.892535 
L 419.509971 -115.229441 
L 417.121848 -113.352183 
L 414.733724 -111.300526 
L 412.345601 -109.12053 
L 409.957478 -106.86494 
L 407.569355 -104.593243 
L 405.181232 -102.372289 
L 402.793109 -100.275896 
L 400.404985 -98.385372 
L 398.016862 -96.788721 
L 395.628739 -95.576163 
L 393.240616 -94.827807 
L 390.852493 -94.594825 
L 388.46437 -94.885634 
L 386.076246 -95.664444 
L 383.688123 -96.86367 
L 381.3 -98.400319 
L 378.911877 -100.189371 
L 376.523754 -102.152507 
L 374.13563 -104.222092 
L 371.747507 -106.341686 
L 369.359384 -108.464693 
L 366.971261 -110.554436 
L 364.583138 -112.581161 
L 362.195015 -114.520603 
L 359.806891 -116.352747 
L 357.418768 -118.061493 
L 355.030645 -119.63415 
L 352.642522 -121.059741 
L 350.254399 -122.329427 
L 347.866276 -123.435802 
L 345.478152 -124.371151 
L 343.090029 -125.131183 
L 340.701906 -125.711188 
L 338.313783 -126.108829 
L 335.92566 -126.321521 
L 333.537537 -126.347885 
L 331.149413 -126.188132 
L 328.76129 -125.843154 
L 326.373167 -125.314655 
L 323.985044 -124.604959 
L 321.596921 -123.718091 
L 319.208798 -122.658889 
L 316.820674 -121.433643 
L 314.432551 -120.049956 
L 312.044428 -118.517671 
L 309.656305 -116.848242 
L 307.268182 -115.056235 
L 304.880059 -113.159541 
L 302.491935 -111.180425 
L 300.103812 -109.146184 
L 297.715689 -107.090294 
L 295.327566 -105.053143 
L 292.939443 -103.082156 
L 290.55132 -101.231447 
L 288.163196 -99.558704 
L 285.775073 -98.123593 
L 283.38695 -96.984452 
L 280.998827 -96.195958 
L 278.610704 -95.808564 
L 276.222581 -95.866879 
L 273.834457 -96.40638 
L 271.446334 -97.442727 
L 269.058211 -98.960574 
L 266.670088 -100.9092 
L 264.281965 -103.210688 
L 261.893842 -105.775507 
L 259.505718 -108.513253 
L 257.117595 -111.339428 
L 254.729472 -114.179122 
L 252.341349 -116.966632 
L 249.953226 -119.64317 
L 247.565103 -122.157526 
L 245.176979 -124.466132 
L 242.788856 -126.531921 
L 240.400733 -128.323415 
L 238.01261 -129.814922 
L 235.624487 -130.987214 
L 233.236364 -131.826766 
L 230.84824 -132.326516 
L 228.460117 -132.483731 
L 226.071994 -132.300751 
L 223.683871 -131.785777 
L 221.295748 -130.951492 
L 218.907625 -129.816074 
L 216.519501 -128.40374 
L 214.131378 -126.743199 
L 211.743255 -124.869054 
L 209.355132 -122.818682 
L 206.967009 -120.632914 
L 204.578886 -118.357727 
L 202.190762 -116.042757 
L 199.802639 -113.740967 
L 197.414516 -111.510203 
L 195.026393 -109.411922 
L 192.63827 -107.510159 
L 190.250147 -105.869315 
L 187.862023 -104.547564 
L 185.4739 -103.592209 
L 183.085777 -103.032757 
L 180.697654 -102.877871 
L 178.309531 -103.112161 
L 175.921408 -103.697151 
L 173.533284 -104.577651 
L 171.145161 -105.686403 
L 168.757038 -106.949418 
L 166.368915 -108.293028 
L 163.980792 -109.646636 
L 161.592669 -110.944931 
L 159.204545 -112.129309 
L 156.816422 -113.147228 
L 154.428299 -113.953193 
L 152.040176 -114.509249 
L 149.652053 -114.786403 
L 147.26393 -114.765481 
L 144.875806 -114.437792 
L 142.487683 -113.808039 
L 140.09956 -112.895822 
L 137.711437 -111.739109 
L 135.323314 -110.395992 
L 132.935191 -108.946267 
L 130.547067 -107.490797 
L 128.158944 -106.148216 
L 125.770821 -105.053763 
L 123.382698 -104.356754 
L 120.994575 -104.21447 
L 118.606452 -104.767771 
L 116.218328 -106.100665 
L 113.830205 -108.222094 
L 111.442082 -111.095439 
L 109.053959 -114.668689 
L 106.665836 -118.874315 
L 104.277713 -123.628776 
L 101.889589 -128.843388 
L 99.501466 -134.43381 
L 97.113343 -140.323177 
L 94.72522 -146.442602 
L 92.337097 -152.730572 
L 89.948974 -159.132597 
L 87.56085 -165.599995 
L 85.172727 -172.088754 
z
" style="stroke: #000080; stroke-opacity: 0.1"/>
    </defs>
    <g clip-path="url(#pe65b84884e)">
     <use xlink:href="#md5f649d511" x="0" y="360" style="fill: #000080; fill-opacity: 0.1; stroke: #000080; stroke-opacity: 0.1"/>
    </g>
   </g>
   <g id="FillBetweenPolyCollection_2">
    <defs>
     <path id="m6e6003e71d" d="M 85.172727 -230.562637 
L 85.172727 -191.042229 
L 87.56085 -187.339167 
L 89.948974 -183.842536 
L 92.337097 -180.589705 
L 94.72522 -177.615949 
L 97.113343 -174.952533 
L 99.501466 -172.624484 
L 101.889589 -170.648096 
L 104.277713 -169.028253 
L 106.665836 -167.756835 
L 109.053959 -166.811953 
L 111.442082 -166.157661 
L 113.830205 -165.745752 
L 116.218328 -165.518378 
L 118.606452 -165.411857 
L 120.994575 -165.360372 
L 123.382698 -165.298435 
L 125.770821 -165.164286 
L 128.158944 -164.902225 
L 130.547067 -164.463968 
L 132.935191 -163.810376 
L 135.323314 -162.91111 
L 137.711437 -161.745783 
L 140.09956 -160.303409 
L 142.487683 -158.583669 
L 144.875806 -156.596976 
L 147.26393 -154.364127 
L 149.652053 -151.919838 
L 152.040176 -149.3091 
L 154.428299 -146.590737 
L 156.816422 -143.834905 
L 159.204545 -141.125803 
L 161.592669 -138.559598 
L 163.980792 -136.246526 
L 166.368915 -134.306255 
L 168.757038 -132.864363 
L 171.145161 -132.045171 
L 173.533284 -131.959023 
L 175.921408 -132.690785 
L 178.309531 -134.287214 
L 180.697654 -136.749977 
L 183.085777 -140.036647 
L 185.4739 -144.065909 
L 187.862023 -148.728753 
L 190.250147 -153.902162 
L 192.63827 -159.460585 
L 195.026393 -165.28382 
L 197.414516 -171.259148 
L 199.802639 -177.284438 
L 202.190762 -183.268173 
L 204.578886 -189.128402 
L 206.967009 -194.791322 
L 209.355132 -200.191096 
L 211.743255 -205.268043 
L 214.131378 -209.969135 
L 216.519501 -214.24749 
L 218.907625 -218.06248 
L 221.295748 -221.380928 
L 223.683871 -224.176232 
L 226.071994 -226.428689 
L 228.460117 -228.125942 
L 230.84824 -229.263335 
L 233.236364 -229.843543 
L 235.624487 -229.87694 
L 238.01261 -229.383085 
L 240.400733 -228.390257 
L 242.788856 -226.935479 
L 245.176979 -225.064283 
L 247.565103 -222.830236 
L 249.953226 -220.295278 
L 252.341349 -217.528721 
L 254.729472 -214.605926 
L 257.117595 -211.607636 
L 259.505718 -208.618128 
L 261.893842 -205.723496 
L 264.281965 -203.010568 
L 266.670088 -200.562924 
L 269.058211 -198.458463 
L 271.446334 -196.766868 
L 273.834457 -195.545572 
L 276.222581 -194.837825 
L 278.610704 -194.671332 
L 280.998827 -195.055737 
L 283.38695 -195.983409 
L 285.775073 -197.428775 
L 288.163196 -199.350472 
L 290.55132 -201.693499 
L 292.939443 -204.393062 
L 295.327566 -207.377161 
L 297.715689 -210.570084 
L 300.103812 -213.894199 
L 302.491935 -217.272556 
L 304.880059 -220.630175 
L 307.268182 -223.895341 
L 309.656305 -227.000431 
L 312.044428 -229.882581 
L 314.432551 -232.484743 
L 316.820674 -234.754993 
L 319.208798 -236.647748 
L 321.596921 -238.122947 
L 323.985044 -239.147117 
L 326.373167 -239.692977 
L 328.76129 -239.740188 
L 331.149413 -239.274609 
L 333.537537 -238.288658 
L 335.92566 -236.78099 
L 338.313783 -234.757177 
L 340.701906 -232.228339 
L 343.090029 -229.211727 
L 345.478152 -225.730614 
L 347.866276 -221.81176 
L 350.254399 -217.48823 
L 352.642522 -212.795995 
L 355.030645 -207.776545 
L 357.418768 -202.475606 
L 359.806891 -196.944619 
L 362.195015 -191.242634 
L 364.583138 -185.439843 
L 366.971261 -179.624541 
L 369.359384 -173.911563 
L 371.747507 -168.45031 
L 374.13563 -163.427981 
L 376.523754 -159.060247 
L 378.911877 -155.567669 
L 381.3 -153.139165 
L 383.688123 -151.895157 
L 386.076246 -151.865623 
L 388.46437 -152.992927 
L 390.852493 -155.152777 
L 393.240616 -158.183659 
L 395.628739 -161.912382 
L 398.016862 -166.17241 
L 400.404985 -170.810615 
L 402.793109 -175.689771 
L 405.181232 -180.691668 
L 407.569355 -185.710448 
L 409.957478 -190.653423 
L 412.345601 -195.439209 
L 414.733724 -199.996539 
L 417.121848 -204.264077 
L 419.509971 -208.189684 
L 421.898094 -211.729184 
L 424.286217 -214.846497 
L 426.67434 -217.512967 
L 429.062463 -219.707444 
L 431.450587 -221.417527 
L 433.83871 -222.639532 
L 436.226833 -223.37698 
L 438.614956 -223.640905 
L 441.003079 -223.450055 
L 443.391202 -222.828975 
L 445.779326 -221.809583 
L 448.167449 -220.430961 
L 450.555572 -218.737992 
L 452.943695 -216.78136 
L 455.331818 -214.616173 
L 457.719941 -212.301411 
L 460.108065 -209.898613 
L 462.496188 -207.471303 
L 464.884311 -205.084559 
L 467.272434 -202.802186 
L 469.660557 -200.683867 
L 472.04868 -198.784744 
L 474.436804 -197.152988 
L 476.824927 -195.828469 
L 479.21305 -194.840442 
L 481.601173 -194.205714 
L 483.989296 -193.927372 
L 486.377419 -193.995165 
L 488.765543 -194.386272 
L 491.153666 -195.067548 
L 493.541789 -195.997641 
L 495.929912 -197.12965 
L 498.318035 -198.413894 
L 500.706158 -199.800467 
L 503.094282 -201.240753 
L 505.482405 -202.687914 
L 507.870528 -204.09694 
L 510.258651 -205.424392 
L 512.646774 -206.628758 
L 515.034897 -207.671019 
L 517.423021 -208.514329 
L 519.811144 -209.124737 
L 522.199267 -209.472046 
L 524.58739 -209.53024 
L 526.975513 -209.278768 
L 529.363636 -208.703526 
L 531.75176 -207.796222 
L 534.139883 -206.555485 
L 536.528006 -204.986724 
L 538.916129 -203.102529 
L 541.304252 -200.923719 
L 543.692375 -198.478955 
L 546.080499 -195.803993 
L 548.468622 -192.942019 
L 550.856745 -189.943821 
L 553.244868 -186.867763 
L 555.632991 -183.779879 
L 558.021114 -180.752803 
L 560.409238 -177.865447 
L 562.797361 -175.201826 
L 565.185484 -172.849186 
L 567.573607 -170.895337 
L 569.96173 -169.424937 
L 572.349853 -168.51456 
L 574.737977 -168.227556 
L 577.1261 -168.609005 
L 579.514223 -169.680735 
L 581.902346 -171.438391 
L 584.290469 -173.851576 
L 586.678592 -176.866407 
L 589.066716 -180.411116 
L 591.454839 -184.400721 
L 593.842962 -188.742829 
L 596.231085 -193.342577 
L 598.619208 -198.106642 
L 601.007331 -202.946736 
L 603.395455 -207.781987 
L 605.783578 -212.54154 
L 608.171701 -217.164816 
L 610.559824 -221.602163 
L 612.947947 -225.814128 
L 615.33607 -229.770886 
L 617.724194 -233.452243 
L 620.112317 -236.845706 
L 622.50044 -239.944966 
L 624.888563 -242.74877 
L 627.276686 -245.260771 
L 629.664809 -247.488671 
L 632.052933 -249.444209 
L 634.441056 -251.142694 
L 636.829179 -252.602132 
L 639.217302 -253.843446 
L 641.605425 -254.889755 
L 643.993548 -255.766297 
L 646.381672 -256.498405 
L 648.769795 -257.112615 
L 651.157918 -257.635749 
L 653.546041 -258.094127 
L 655.934164 -258.513405 
L 658.322287 -258.91762 
L 660.710411 -259.328112 
L 663.098534 -259.763437 
L 665.486657 -260.240659 
L 667.87478 -260.773587 
L 670.262903 -261.37353 
L 672.651026 -262.048798 
L 675.03915 -262.805153 
L 677.427273 -263.645457 
L 677.427273 -291.980503 
L 677.427273 -291.980503 
L 675.03915 -292.126629 
L 672.651026 -292.39176 
L 670.262903 -292.760686 
L 667.87478 -293.213801 
L 665.486657 -293.727489 
L 663.098534 -294.274119 
L 660.710411 -294.822943 
L 658.322287 -295.339781 
L 655.934164 -295.788517 
L 653.546041 -296.131986 
L 651.157918 -296.332605 
L 648.769795 -296.352825 
L 646.381672 -296.157119 
L 643.993548 -295.71239 
L 641.605425 -294.989375 
L 639.217302 -293.963284 
L 636.829179 -292.614531 
L 634.441056 -290.928806 
L 632.052933 -288.897807 
L 629.664809 -286.520488 
L 627.276686 -283.803253 
L 624.888563 -280.76 
L 622.50044 -277.412377 
L 620.112317 -273.789736 
L 617.724194 -269.928442 
L 615.33607 -265.870931 
L 612.947947 -261.665466 
L 610.559824 -257.365098 
L 608.171701 -253.025974 
L 605.783578 -248.705688 
L 603.395455 -244.462223 
L 601.007331 -240.353249 
L 598.619208 -236.435145 
L 596.231085 -232.762835 
L 593.842962 -229.389432 
L 591.454839 -226.366206 
L 589.066716 -223.741771 
L 586.678592 -221.561086 
L 584.290469 -219.863304 
L 581.902346 -218.679494 
L 579.514223 -218.030552 
L 577.1261 -217.926171 
L 574.737977 -218.363712 
L 572.349853 -219.327181 
L 569.96173 -220.786867 
L 567.573607 -222.699522 
L 565.185484 -225.00972 
L 562.797361 -227.652348 
L 560.409238 -230.557071 
L 558.021114 -233.649685 
L 555.632991 -236.855239 
L 553.244868 -240.099928 
L 550.856745 -243.312656 
L 548.468622 -246.427069 
L 546.080499 -249.383133 
L 543.692375 -252.127777 
L 541.304252 -254.615185 
L 538.916129 -256.807667 
L 536.528006 -258.67505 
L 534.139883 -260.195721 
L 531.75176 -261.357877 
L 529.363636 -262.158945 
L 526.975513 -262.606022 
L 524.58739 -262.716347 
L 522.199267 -262.516181 
L 519.811144 -262.042041 
L 517.423021 -261.340367 
L 515.034897 -260.466838 
L 512.646774 -259.486131 
L 510.258651 -258.471301 
L 507.870528 -257.502104 
L 505.482405 -256.663188 
L 503.094282 -256.040695 
L 500.706158 -255.718962 
L 498.318035 -255.776396 
L 495.929912 -256.281154 
L 493.541789 -257.287916 
L 491.153666 -258.834974 
L 488.765543 -260.942446 
L 486.377419 -263.61168 
L 483.989296 -266.826446 
L 481.601173 -270.553394 
L 479.21305 -274.744626 
L 476.824927 -279.339749 
L 474.436804 -284.268044 
L 472.04868 -289.450129 
L 469.660557 -294.80082 
L 467.272434 -300.229847 
L 464.884311 -305.644901 
L 462.496188 -310.952972 
L 460.108065 -316.062099 
L 457.719941 -320.88342 
L 455.331818 -325.330842 
L 452.943695 -329.322837 
L 450.555572 -332.783028 
L 448.167449 -335.640865 
L 445.779326 -337.832605 
L 443.391202 -339.30259 
L 441.003079 -340.003052 
L 438.614956 -339.896094 
L 436.226833 -338.95414 
L 433.83871 -337.160018 
L 431.450587 -334.507519 
L 429.062463 -331.001204 
L 426.67434 -326.657501 
L 424.286217 -321.503632 
L 421.898094 -315.578978 
L 419.509971 -308.935309 
L 417.121848 -301.636648 
L 414.733724 -293.761304 
L 412.345601 -285.401253 
L 409.957478 -276.663973 
L 407.569355 -267.672545 
L 405.181232 -258.567473 
L 402.793109 -249.506985 
L 400.404985 -240.667791 
L 398.016862 -232.245414 
L 395.628739 -224.449163 
L 393.240616 -217.496117 
L 390.852493 -211.597621 
L 388.46437 -206.941979 
L 386.076246 -203.675726 
L 383.688123 -201.887603 
L 381.3 -201.601411 
L 378.911877 -202.780145 
L 376.523754 -205.337833 
L 374.13563 -209.152699 
L 371.747507 -214.075946 
L 369.359384 -219.936993 
L 366.971261 -226.549093 
L 364.583138 -233.717011 
L 362.195015 -241.246521 
L 359.806891 -248.953151 
L 357.418768 -256.668724 
L 355.030645 -264.244335 
L 352.642522 -271.550409 
L 350.254399 -278.476299 
L 347.866276 -284.928844 
L 345.478152 -290.830988 
L 343.090029 -296.119645 
L 340.701906 -300.744527 
L 338.313783 -304.667153 
L 335.92566 -307.860053 
L 333.537537 -310.306113 
L 331.149413 -311.998384 
L 328.76129 -312.939295 
L 326.373167 -313.140427 
L 323.985044 -312.622175 
L 321.596921 -311.413014 
L 319.208798 -309.549737 
L 316.820674 -307.077049 
L 314.432551 -304.047232 
L 312.044428 -300.519132 
L 309.656305 -296.558753 
L 307.268182 -292.23877 
L 304.880059 -287.637558 
L 302.491935 -282.839649 
L 300.103812 -277.935303 
L 297.715689 -273.018861 
L 295.327566 -268.187696 
L 292.939443 -263.540945 
L 290.55132 -259.177671 
L 288.163196 -255.194005 
L 285.775073 -251.679684 
L 283.38695 -248.714268 
L 280.998827 -246.362457 
L 278.610704 -244.671118 
L 276.222581 -243.664596 
L 273.834457 -243.343098 
L 271.446334 -243.681823 
L 269.058211 -244.632771 
L 266.670088 -246.127418 
L 264.281965 -248.079837 
L 261.893842 -250.393289 
L 259.505718 -252.963604 
L 257.117595 -255.683962 
L 254.729472 -258.449323 
L 252.341349 -261.158641 
L 249.953226 -263.715347 
L 247.565103 -266.029929 
L 245.176979 -268.021899 
L 242.788856 -269.619611 
L 240.400733 -270.760534 
L 238.01261 -271.392289 
L 235.624487 -271.473147 
L 233.236364 -270.972015 
L 230.84824 -269.868394 
L 228.460117 -268.150557 
L 226.071994 -265.81626 
L 223.683871 -262.87369 
L 221.295748 -259.339892 
L 218.907625 -255.241113 
L 216.519501 -250.613092 
L 214.131378 -245.500239 
L 211.743255 -239.955803 
L 209.355132 -234.039048 
L 206.967009 -227.815767 
L 204.578886 -221.359734 
L 202.190762 -214.75134 
L 199.802639 -208.077356 
L 197.414516 -201.432086 
L 195.026393 -194.916509 
L 192.63827 -188.638138 
L 190.250147 -182.709952 
L 187.862023 -177.24799 
L 185.4739 -172.370216 
L 183.085777 -168.191703 
L 180.697654 -164.818571 
L 178.309531 -162.338509 
L 175.921408 -160.809019 
L 173.533284 -160.247513 
L 171.145161 -160.624227 
L 168.757038 -161.863274 
L 166.368915 -163.853304 
L 163.980792 -166.460343 
L 161.592669 -169.540702 
L 159.204545 -172.953655 
L 156.816422 -176.568852 
L 154.428299 -180.271003 
L 152.040176 -183.961345 
L 149.652053 -187.55766 
L 147.26393 -190.994638 
L 144.875806 -194.221856 
L 142.487683 -197.203146 
L 140.09956 -199.914263 
L 137.711437 -202.342806 
L 135.323314 -204.486234 
L 132.935191 -206.35053 
L 130.547067 -207.950169 
L 128.158944 -209.306305 
L 125.770821 -210.446586 
L 123.382698 -211.403106 
L 120.994575 -212.211786 
L 118.606452 -212.910787 
L 116.218328 -213.539212 
L 113.830205 -214.136929 
L 111.442082 -214.743301 
L 109.053959 -215.396619 
L 106.665836 -216.133615 
L 104.277713 -216.988523 
L 101.889589 -217.991924 
L 99.501466 -219.169613 
L 97.113343 -220.541635 
L 94.72522 -222.121523 
L 92.337097 -223.916348 
L 89.948974 -225.926446 
L 87.56085 -228.145789 
L 85.172727 -230.562637 
z
" style="stroke: #000080; stroke-opacity: 0.1"/>
    </defs>
    <g clip-path="url(#pe65b84884e)">
     <use xlink:href="#m6e6003e71d" x="0" y="360" style="fill: #000080; fill-opacity: 0.1; stroke: #000080; stroke-opacity: 0.1"/>
    </g>
   </g>
   <g id="line2d_1">
    <path d="M 85.172727 199.267762 
L 97.113343 231.770825 
L 101.889589 243.852621 
L 104.277713 249.417945 
L 106.665836 254.520586 
L 109.053959 259.009777 
L 111.442082 262.689019 
L 113.830205 265.331453 
L 116.218328 266.774572 
L 118.606452 267.058944 
L 120.994575 266.418907 
L 123.382698 265.139501 
L 125.770821 263.470367 
L 132.935191 257.897418 
L 135.323314 256.243185 
L 137.711437 254.812088 
L 140.09956 253.6453 
L 142.487683 252.768543 
L 144.875806 252.195213 
L 147.26393 251.928745 
L 149.652053 251.962502 
L 152.040176 252.283182 
L 154.428299 252.869479 
L 156.816422 253.694859 
L 159.204545 254.72717 
L 161.592669 255.92935 
L 166.368915 258.663198 
L 171.145161 261.48531 
L 173.533284 262.779244 
L 175.921408 263.907951 
L 178.309531 264.8073 
L 180.697654 265.419213 
L 183.085777 265.696016 
L 185.4739 265.607413 
L 187.862023 265.145197 
L 190.250147 264.323915 
L 192.63827 263.178783 
L 195.026393 261.759425 
L 197.414516 260.125564 
L 202.190762 256.463341 
L 209.355132 250.84252 
L 211.743255 249.129705 
L 214.131378 247.563452 
L 216.519501 246.176606 
L 218.907625 244.998708 
L 221.295748 244.053566 
L 223.683871 243.360664 
L 226.071994 242.934842 
L 228.460117 242.786056 
L 230.84824 242.919982 
L 233.236364 243.33771 
L 235.624487 244.03593 
L 238.01261 245.006404 
L 240.400733 246.235741 
L 242.788856 247.705466 
L 245.176979 249.391525 
L 247.565103 251.265014 
L 252.341349 255.432854 
L 261.893842 264.158112 
L 264.281965 266.088701 
L 266.670088 267.786387 
L 269.058211 269.182859 
L 271.446334 270.215404 
L 273.834457 270.835747 
L 276.222581 271.018371 
L 278.610704 270.768422 
L 280.998827 270.123457 
L 283.38695 269.144846 
L 285.775073 267.90469 
L 290.55132 264.916191 
L 302.491935 256.785359 
L 307.268182 253.88834 
L 312.044428 251.374082 
L 316.820674 249.303942 
L 319.208798 248.449052 
L 321.596921 247.719691 
L 323.985044 247.118975 
L 326.373167 246.649757 
L 328.76129 246.31516 
L 331.149413 246.116888 
L 333.537537 246.055863 
L 335.92566 246.132668 
L 338.313783 246.347774 
L 340.701906 246.701205 
L 343.090029 247.19239 
L 345.478152 247.821028 
L 347.866276 248.584566 
L 350.254399 249.480669 
L 352.642522 250.50484 
L 357.418768 252.920264 
L 362.195015 255.784262 
L 366.971261 259.015705 
L 378.911877 267.578729 
L 381.3 269.069327 
L 383.688123 270.349601 
L 386.076246 271.346408 
L 388.46437 271.988916 
L 390.852493 272.219066 
L 393.240616 272.001854 
L 395.628739 271.333616 
L 398.016862 270.242254 
L 400.404985 268.783651 
L 402.793109 267.032264 
L 407.569355 262.97327 
L 414.733724 256.594364 
L 417.121848 254.630929 
L 419.509971 252.8265 
L 421.898094 251.21793 
L 424.286217 249.835325 
L 426.67434 248.703443 
L 429.062463 247.841256 
L 431.450587 247.261344 
L 433.83871 246.970656 
L 436.226833 246.970952 
L 438.614956 247.25823 
L 441.003079 247.8227 
L 443.391202 248.650076 
L 445.779326 249.719599 
L 448.167449 251.004158 
L 450.555572 252.471447 
L 455.331818 255.796957 
L 462.496188 261.029236 
L 464.884311 262.601584 
L 467.272434 263.975937 
L 469.660557 265.085015 
L 472.04868 265.867483 
L 474.436804 266.274951 
L 476.824927 266.27797 
L 479.21305 265.871976 
L 481.601173 265.077781 
L 483.989296 263.936944 
L 486.377419 262.504253 
L 488.765543 260.840087 
L 493.541789 257.050788 
L 505.482405 247.085609 
L 510.258651 243.62017 
L 512.646774 242.096509 
L 515.034897 240.73415 
L 517.423021 239.545628 
L 519.811144 238.540786 
L 522.199267 237.726273 
L 524.58739 237.105539 
L 526.975513 236.678003 
L 529.363636 236.437834 
L 531.75176 236.375848 
L 534.139883 236.478664 
L 536.528006 236.728322 
L 541.304252 237.571956 
L 550.856745 239.714092 
L 553.244868 240.120971 
L 555.632991 240.393804 
L 558.021114 240.492372 
L 560.409238 240.380697 
L 562.797361 240.028527 
L 565.185484 239.411289 
L 567.573607 238.511605 
L 569.96173 237.319221 
L 572.349853 235.831444 
L 574.737977 234.054097 
L 577.1261 232.001059 
L 579.514223 229.693599 
L 581.902346 227.158538 
L 586.678592 221.535056 
L 591.454839 215.405125 
L 603.395455 199.636852 
L 608.171701 193.766407 
L 612.947947 188.427611 
L 615.33607 186.000883 
L 617.724194 183.752349 
L 620.112317 181.689462 
L 622.50044 179.815276 
L 624.888563 178.129065 
L 627.276686 176.625744 
L 629.664809 175.295932 
L 632.052933 174.125786 
L 636.829179 172.188531 
L 641.605425 170.626226 
L 651.157918 167.669042 
L 653.546041 166.780103 
L 655.934164 165.770299 
L 658.322287 164.613402 
L 660.710411 163.287214 
L 663.098534 161.773671 
L 665.486657 160.057766 
L 667.87478 158.130486 
L 670.262903 155.987916 
L 672.651026 153.632129 
L 675.03915 151.070614 
L 677.427273 148.316601 
L 677.427273 148.316601 
" clip-path="url(#pe65b84884e)" style="fill: none; stroke: #000080; stroke-width: 1.5; stroke-linecap: round"/>
   </g>
   <g id="line2d_2">
    <path d="M 85.172727 149.197567 
L 87.56085 152.257522 
L 89.948974 155.115509 
L 92.337097 157.746974 
L 94.72522 160.131264 
L 97.113343 162.252916 
L 99.501466 164.102952 
L 101.889589 165.67999 
L 104.277713 166.991612 
L 106.665836 168.054775 
L 109.053959 168.895714 
L 111.442082 169.549519 
L 116.218328 170.471205 
L 123.382698 171.649229 
L 125.770821 172.194564 
L 128.158944 172.895735 
L 130.547067 173.792931 
L 132.935191 174.919547 
L 135.323314 176.301328 
L 137.711437 177.955705 
L 140.09956 179.891164 
L 142.487683 182.106593 
L 144.875806 184.590584 
L 147.26393 187.320617 
L 152.040176 193.364778 
L 159.204545 202.960271 
L 161.592669 205.94985 
L 163.980792 208.646566 
L 166.368915 210.920221 
L 168.757038 212.636182 
L 171.145161 213.665301 
L 173.533284 213.896732 
L 175.921408 213.250098 
L 178.309531 211.687139 
L 180.697654 209.215726 
L 183.085777 205.885825 
L 185.4739 201.781938 
L 187.862023 197.011628 
L 190.250147 191.693943 
L 192.63827 185.950639 
L 197.414516 173.654383 
L 204.578886 154.755932 
L 209.355132 142.884928 
L 211.743255 137.388077 
L 214.131378 132.265313 
L 216.519501 127.569709 
L 218.907625 123.348203 
L 221.295748 119.63959 
L 223.683871 116.475039 
L 226.071994 113.877526 
L 228.460117 111.861751 
L 230.84824 110.434136 
L 233.236364 109.592221 
L 235.624487 109.324956 
L 238.01261 109.612313 
L 240.400733 110.424605 
L 242.788856 111.722455 
L 245.176979 113.456909 
L 247.565103 115.569917 
L 249.953226 117.994687 
L 254.729472 123.472375 
L 259.505718 129.209134 
L 261.893842 131.941607 
L 264.281965 134.454798 
L 266.670088 136.654829 
L 269.058211 138.454383 
L 271.446334 139.775654 
L 273.834457 140.555665 
L 276.222581 140.748789 
L 278.610704 140.328775 
L 280.998827 139.290903 
L 283.38695 137.651161 
L 285.775073 135.445771 
L 288.163196 132.727762 
L 290.55132 129.564415 
L 292.939443 126.032996 
L 297.715689 118.205527 
L 307.268182 101.932944 
L 309.656305 98.220408 
L 312.044428 94.799144 
L 314.432551 91.734012 
L 316.820674 89.083979 
L 319.208798 86.901257 
L 321.596921 85.23202 
L 323.985044 84.115354 
L 326.373167 83.583298 
L 328.76129 83.660258 
L 331.149413 84.363503 
L 333.537537 85.702615 
L 335.92566 87.679479 
L 338.313783 90.287835 
L 340.701906 93.513567 
L 343.090029 97.334314 
L 345.478152 101.719199 
L 347.866276 106.629698 
L 350.254399 112.017736 
L 352.642522 117.826798 
L 357.418768 130.427835 
L 366.971261 156.913183 
L 369.359384 163.075722 
L 371.747507 168.736872 
L 374.13563 173.70966 
L 376.523754 177.80096 
L 378.911877 180.826093 
L 381.3 182.629712 
L 383.688123 183.10862 
L 386.076246 182.229326 
L 388.46437 180.032547 
L 390.852493 176.624801 
L 393.240616 172.160112 
L 395.628739 166.819228 
L 398.016862 160.791088 
L 400.404985 154.260797 
L 405.181232 140.37043 
L 409.957478 126.341302 
L 414.733724 113.121078 
L 417.121848 107.049638 
L 419.509971 101.437503 
L 421.898094 96.345919 
L 424.286217 91.824935 
L 426.67434 87.914766 
L 429.062463 84.645676 
L 431.450587 82.037477 
L 433.83871 80.100225 
L 436.226833 78.83444 
L 438.614956 78.2315 
L 441.003079 78.273447 
L 443.391202 78.934218 
L 445.779326 80.178906 
L 448.167449 81.964087 
L 450.555572 84.23949 
L 452.943695 86.947901 
L 455.331818 90.026493 
L 457.719941 93.407584 
L 462.496188 100.787863 
L 469.660557 112.257657 
L 472.04868 115.882564 
L 474.436804 119.289484 
L 476.824927 122.415891 
L 479.21305 125.207466 
L 481.601173 127.620446 
L 483.989296 129.623091 
L 486.377419 131.196578 
L 488.765543 132.335641 
L 491.153666 133.048739 
L 493.541789 133.357221 
L 495.929912 133.294598 
L 498.318035 132.904855 
L 500.706158 132.240286 
L 503.094282 131.359276 
L 507.870528 129.200478 
L 512.646774 126.942555 
L 515.034897 125.931072 
L 517.423021 125.072652 
L 519.811144 124.416611 
L 522.199267 124.005887 
L 524.58739 123.876707 
L 526.975513 124.057605 
L 529.363636 124.568764 
L 531.75176 125.42295 
L 534.139883 126.624397 
L 536.528006 128.169113 
L 538.916129 130.044902 
L 541.304252 132.230548 
L 543.692375 134.696634 
L 546.080499 137.406437 
L 550.856745 143.371761 
L 560.409238 155.788741 
L 562.797361 158.572913 
L 565.185484 161.070547 
L 567.573607 163.20257 
L 569.96173 164.894098 
L 572.349853 166.079129 
L 574.737977 166.704366 
L 577.1261 166.732412 
L 579.514223 166.144357 
L 581.902346 164.941058 
L 584.290469 163.14256 
L 586.678592 160.786253 
L 589.066716 157.923556 
L 591.454839 154.616537 
L 593.842962 150.933869 
L 596.231085 146.947294 
L 601.007331 138.350008 
L 610.559824 120.516369 
L 615.33607 112.179091 
L 617.724194 108.309657 
L 620.112317 104.682279 
L 622.50044 101.321328 
L 624.888563 98.245615 
L 627.276686 95.467988 
L 629.664809 92.99542 
L 632.052933 90.828992 
L 634.441056 88.96425 
L 636.829179 87.391668 
L 639.217302 86.096635 
L 641.605425 85.060435 
L 643.993548 84.260657 
L 646.381672 83.672238 
L 648.769795 83.26728 
L 651.157918 83.015823 
L 655.934164 82.849039 
L 670.262903 82.932892 
L 675.03915 82.534109 
L 677.427273 82.18702 
L 677.427273 82.18702 
" clip-path="url(#pe65b84884e)" style="fill: none; stroke-dasharray: 5.55,2.4; stroke-dashoffset: 0; stroke: #000080; stroke-width: 1.5"/>
   </g>
   <g id="patch_3">
    <path d="M 55.56 310.98 
L 55.56 28.08 
" style="fill: none; stroke: #ffffff; stroke-width: 1.25; stroke-linejoin: miter; stroke-linecap: square"/>
   </g>
   <g id="patch_4">
    <path d="M 707.04 310.98 
L 707.04 28.08 
" style="fill: none; stroke: #ffffff; stroke-width: 1.25; stroke-linejoin: miter; stroke-linecap: square"/>
   </g>
   <g id="patch_5">
    <path d="M 55.56 310.98 
L 707.04 310.98 
" style="fill: none; stroke: #ffffff; stroke-width: 1.25; stroke-linejoin: miter; stroke-linecap: square"/>
   </g>
   <g id="patch_6">
    <path d="M 55.56 28.08 
L 707.04 28.08 
" style="fill: none; stroke: #ffffff; stroke-width: 1.25; stroke-linejoin: miter; stroke-linecap: square"/>
   </g>
   <g id="text_14">
    <!-- QG3L - [112, 176] x [64, 192] -->
    <g style="fill: #262626" transform="translate(292.44 22.08) scale(0.12 -0.12)">
     <defs>
      <path id="DejaVuSans-51" d="M 2522 4238 
Q 1834 4238 1429 3725 
Q 1025 3213 1025 2328 
Q 1025 1447 1429 934 
Q 1834 422 2522 422 
Q 3209 422 3611 934 
Q 4013 1447 4013 2328 
Q 4013 3213 3611 3725 
Q 3209 4238 2522 4238 
z
M 3406 84 
L 4238 -825 
L 3475 -825 
L 2784 -78 
Q 2681 -84 2626 -87 
Q 2572 -91 2522 -91 
Q 1538 -91 948 567 
Q 359 1225 359 2328 
Q 359 3434 948 4092 
Q 1538 4750 2522 4750 
Q 3503 4750 4090 4092 
Q 4678 3434 4678 2328 
Q 4678 1516 4351 937 
Q 4025 359 3406 84 
z
" transform="scale(0.015625)"/>
      <path id="DejaVuSans-47" d="M 3809 666 
L 3809 1919 
L 2778 1919 
L 2778 2438 
L 4434 2438 
L 4434 434 
Q 4069 175 3628 42 
Q 3188 -91 2688 -91 
Q 1594 -91 976 548 
Q 359 1188 359 2328 
Q 359 3472 976 4111 
Q 1594 4750 2688 4750 
Q 3144 4750 3555 4637 
Q 3966 4525 4313 4306 
L 4313 3634 
Q 3963 3931 3569 4081 
Q 3175 4231 2741 4231 
Q 1884 4231 1454 3753 
Q 1025 3275 1025 2328 
Q 1025 1384 1454 906 
Q 1884 428 2741 428 
Q 3075 428 3337 486 
Q 3600 544 3809 666 
z
" transform="scale(0.015625)"/>
      <path id="DejaVuSans-33" d="M 2597 2516 
Q 3050 2419 3304 2112 
Q 3559 1806 3559 1356 
Q 3559 666 3084 287 
Q 2609 -91 1734 -91 
Q 1441 -91 1130 -33 
Q 819 25 488 141 
L 488 750 
Q 750 597 1062 519 
Q 1375 441 1716 441 
Q 2309 441 2620 675 
Q 2931 909 2931 1356 
Q 2931 1769 2642 2001 
Q 2353 2234 1838 2234 
L 1294 2234 
L 1294 2753 
L 1863 2753 
Q 2328 2753 2575 2939 
Q 2822 3125 2822 3475 
Q 2822 3834 2567 4026 
Q 2313 4219 1838 4219 
Q 1578 4219 1281 4162 
Q 984 4106 628 3988 
L 628 4550 
Q 988 4650 1302 4700 
Q 1616 4750 1894 4750 
Q 2613 4750 3031 4423 
Q 3450 4097 3450 3541 
Q 3450 3153 3228 2886 
Q 3006 2619 2597 2516 
z
" transform="scale(0.015625)"/>
      <path id="DejaVuSans-4c" d="M 628 4666 
L 1259 4666 
L 1259 531 
L 3531 531 
L 3531 0 
L 628 0 
L 628 4666 
z
" transform="scale(0.015625)"/>
      <path id="DejaVuSans-2d" d="M 313 2009 
L 1997 2009 
L 1997 1497 
L 313 1497 
L 313 2009 
z
" transform="scale(0.015625)"/>
      <path id="DejaVuSans-2c" d="M 750 794 
L 1409 794 
L 1409 256 
L 897 -744 
L 494 -744 
L 750 256 
L 750 794 
z
" transform="scale(0.015625)"/>
      <path id="DejaVuSans-37" d="M 525 4666 
L 3525 4666 
L 3525 4397 
L 1831 0 
L 1172 0 
L 2766 4134 
L 525 4134 
L 525 4666 
z
" transform="scale(0.015625)"/>
      <path id="DejaVuSans-78" d="M 3513 3500 
L 2247 1797 
L 3578 0 
L 2900 0 
L 1881 1375 
L 863 0 
L 184 0 
L 1544 1831 
L 300 3500 
L 978 3500 
L 1906 2253 
L 2834 3500 
L 3513 3500 
z
" transform="scale(0.015625)"/>
      <path id="DejaVuSans-39" d="M 703 97 
L 703 672 
Q 941 559 1184 500 
Q 1428 441 1663 441 
Q 2288 441 2617 861 
Q 2947 1281 2994 2138 
Q 2813 1869 2534 1725 
Q 2256 1581 1919 1581 
Q 1219 1581 811 2004 
Q 403 2428 403 3163 
Q 403 3881 828 4315 
Q 1253 4750 1959 4750 
Q 2769 4750 3195 4129 
Q 3622 3509 3622 2328 
Q 3622 1225 3098 567 
Q 2575 -91 1691 -91 
Q 1453 -91 1209 -44 
Q 966 3 703 97 
z
M 1959 2075 
Q 2384 2075 2632 2365 
Q 2881 2656 2881 3163 
Q 2881 3666 2632 3958 
Q 2384 4250 1959 4250 
Q 1534 4250 1286 3958 
Q 1038 3666 1038 3163 
Q 1038 2656 1286 2365 
Q 1534 2075 1959 2075 
z
" transform="scale(0.015625)"/>
     </defs>
     <use xlink:href="#DejaVuSans-51"/>
     <use xlink:href="#DejaVuSans-47" transform="translate(78.710938 0)"/>
     <use xlink:href="#DejaVuSans-33" transform="translate(156.201172 0)"/>
     <use xlink:href="#DejaVuSans-4c" transform="translate(219.824219 0)"/>
     <use xlink:href="#DejaVuSans-20" transform="translate(275.537109 0)"/>
     <use xlink:href="#DejaVuSans-2d" transform="translate(307.324219 0)"/>
     <use xlink:href="#DejaVuSans-20" transform="translate(343.408203 0)"/>
     <use xlink:href="#DejaVuSans-5b" transform="translate(375.195312 0)"/>
     <use xlink:href="#DejaVuSans-31" transform="translate(414.208984 0)"/>
     <use xlink:href="#DejaVuSans-31" transform="translate(477.832031 0)"/>
     <use xlink:href="#DejaVuSans-32" transform="translate(541.455078 0)"/>
     <use xlink:href="#DejaVuSans-2c" transform="translate(605.078125 0)"/>
     <use xlink:href="#DejaVuSans-20" transform="translate(636.865234 0)"/>
     <use xlink:href="#DejaVuSans-31" transform="translate(668.652344 0)"/>
     <use xlink:href="#DejaVuSans-37" transform="translate(732.275391 0)"/>
     <use xlink:href="#DejaVuSans-36" transform="translate(795.898438 0)"/>
     <use xlink:href="#DejaVuSans-5d" transform="translate(859.521484 0)"/>
     <use xlink:href="#DejaVuSans-20" transform="translate(898.535156 0)"/>
     <use xlink:href="#DejaVuSans-78" transform="translate(930.322266 0)"/>
     <use xlink:href="#DejaVuSans-20" transform="translate(989.501953 0)"/>
     <use xlink:href="#DejaVuSans-5b" transform="translate(1021.289062 0)"/>
     <use xlink:href="#DejaVuSans-36" transform="translate(1060.302734 0)"/>
     <use xlink:href="#DejaVuSans-34" transform="translate(1123.925781 0)"/>
     <use xlink:href="#DejaVuSans-2c" transform="translate(1187.548828 0)"/>
     <use xlink:href="#DejaVuSans-20" transform="translate(1219.335938 0)"/>
     <use xlink:href="#DejaVuSans-31" transform="translate(1251.123047 0)"/>
     <use xlink:href="#DejaVuSans-39" transform="translate(1314.746094 0)"/>
     <use xlink:href="#DejaVuSans-32" transform="translate(1378.369141 0)"/>
     <use xlink:href="#DejaVuSans-5d" transform="translate(1441.992188 0)"/>
    </g>
   </g>
   <g id="legend_1">
    <g id="patch_7">
     <path d="M 63.26 69.171875 
L 244.675781 69.171875 
Q 246.875781 69.171875 246.875781 66.971875 
L 246.875781 35.78 
Q 246.875781 33.58 244.675781 33.58 
L 63.26 33.58 
Q 61.06 33.58 61.06 35.78 
L 61.06 66.971875 
Q 61.06 69.171875 63.26 69.171875 
z
" style="fill: #eaeaf2; opacity: 0.8; stroke: #cccccc; stroke-linejoin: miter"/>
    </g>
    <g id="line2d_3">
     <path d="M 65.46 42.488281 
L 76.46 42.488281 
L 87.46 42.488281 
" style="fill: none; stroke: #000080; stroke-width: 1.5; stroke-linecap: round"/>
    </g>
    <g id="text_15">
     <!-- SurfML -->
     <g style="fill: #262626" transform="translate(96.26 46.338281) scale(0.11 -0.11)">
      <defs>
       <path id="DejaVuSans-75" d="M 544 1381 
L 544 3500 
L 1119 3500 
L 1119 1403 
Q 1119 906 1312 657 
Q 1506 409 1894 409 
Q 2359 409 2629 706 
Q 2900 1003 2900 1516 
L 2900 3500 
L 3475 3500 
L 3475 0 
L 2900 0 
L 2900 538 
Q 2691 219 2414 64 
Q 2138 -91 1772 -91 
Q 1169 -91 856 284 
Q 544 659 544 1381 
z
M 1991 3584 
L 1991 3584 
z
" transform="scale(0.015625)"/>
       <path id="DejaVuSans-72" d="M 2631 2963 
Q 2534 3019 2420 3045 
Q 2306 3072 2169 3072 
Q 1681 3072 1420 2755 
Q 1159 2438 1159 1844 
L 1159 0 
L 581 0 
L 581 3500 
L 1159 3500 
L 1159 2956 
Q 1341 3275 1631 3429 
Q 1922 3584 2338 3584 
Q 2397 3584 2469 3576 
Q 2541 3569 2628 3553 
L 2631 2963 
z
" transform="scale(0.015625)"/>
       <path id="DejaVuSans-66" d="M 2375 4863 
L 2375 4384 
L 1825 4384 
Q 1516 4384 1395 4259 
Q 1275 4134 1275 3809 
L 1275 3500 
L 2222 3500 
L 2222 3053 
L 1275 3053 
L 1275 0 
L 697 0 
L 697 3053 
L 147 3053 
L 147 3500 
L 697 3500 
L 697 3744 
Q 697 4328 969 4595 
Q 1241 4863 1831 4863 
L 2375 4863 
z
" transform="scale(0.015625)"/>
      </defs>
      <use xlink:href="#DejaVuSans-53"/>
      <use xlink:href="#DejaVuSans-75" transform="translate(63.476562 0)"/>
      <use xlink:href="#DejaVuSans-72" transform="translate(126.855469 0)"/>
      <use xlink:href="#DejaVuSans-66" transform="translate(167.96875 0)"/>
      <use xlink:href="#DejaVuSans-4d" transform="translate(203.173828 0)"/>
      <use xlink:href="#DejaVuSans-4c" transform="translate(289.453125 0)"/>
     </g>
    </g>
    <g id="line2d_4">
     <path d="M 65.46 58.634219 
L 76.46 58.634219 
L 87.46 58.634219 
" style="fill: none; stroke-dasharray: 5.55,2.4; stroke-dashoffset: 0; stroke: #000080; stroke-width: 1.5"/>
    </g>
    <g id="text_16">
     <!-- SurfML - No Regularization -->
     <g style="fill: #262626" transform="translate(96.26 62.484219) scale(0.11 -0.11)">
      <defs>
       <path id="DejaVuSans-4e" d="M 628 4666 
L 1478 4666 
L 3547 763 
L 3547 4666 
L 4159 4666 
L 4159 0 
L 3309 0 
L 1241 3903 
L 1241 0 
L 628 0 
L 628 4666 
z
" transform="scale(0.015625)"/>
       <path id="DejaVuSans-6f" d="M 1959 3097 
Q 1497 3097 1228 2736 
Q 959 2375 959 1747 
Q 959 1119 1226 758 
Q 1494 397 1959 397 
Q 2419 397 2687 759 
Q 2956 1122 2956 1747 
Q 2956 2369 2687 2733 
Q 2419 3097 1959 3097 
z
M 1959 3584 
Q 2709 3584 3137 3096 
Q 3566 2609 3566 1747 
Q 3566 888 3137 398 
Q 2709 -91 1959 -91 
Q 1206 -91 779 398 
Q 353 888 353 1747 
Q 353 2609 779 3096 
Q 1206 3584 1959 3584 
z
" transform="scale(0.015625)"/>
       <path id="DejaVuSans-67" d="M 2906 1791 
Q 2906 2416 2648 2759 
Q 2391 3103 1925 3103 
Q 1463 3103 1205 2759 
Q 947 2416 947 1791 
Q 947 1169 1205 825 
Q 1463 481 1925 481 
Q 2391 481 2648 825 
Q 2906 1169 2906 1791 
z
M 3481 434 
Q 3481 -459 3084 -895 
Q 2688 -1331 1869 -1331 
Q 1566 -1331 1297 -1286 
Q 1028 -1241 775 -1147 
L 775 -588 
Q 1028 -725 1275 -790 
Q 1522 -856 1778 -856 
Q 2344 -856 2625 -561 
Q 2906 -266 2906 331 
L 2906 616 
Q 2728 306 2450 153 
Q 2172 0 1784 0 
Q 1141 0 747 490 
Q 353 981 353 1791 
Q 353 2603 747 3093 
Q 1141 3584 1784 3584 
Q 2172 3584 2450 3431 
Q 2728 3278 2906 2969 
L 2906 3500 
L 3481 3500 
L 3481 434 
z
" transform="scale(0.015625)"/>
       <path id="DejaVuSans-6c" d="M 603 4863 
L 1178 4863 
L 1178 0 
L 603 0 
L 603 4863 
z
" transform="scale(0.015625)"/>
       <path id="DejaVuSans-7a" d="M 353 3500 
L 3084 3500 
L 3084 2975 
L 922 459 
L 3084 459 
L 3084 0 
L 275 0 
L 275 525 
L 2438 3041 
L 353 3041 
L 353 3500 
z
" transform="scale(0.015625)"/>
      </defs>
      <use xlink:href="#DejaVuSans-53"/>
      <use xlink:href="#DejaVuSans-75" transform="translate(63.476562 0)"/>
      <use xlink:href="#DejaVuSans-72" transform="translate(126.855469 0)"/>
      <use xlink:href="#DejaVuSans-66" transform="translate(167.96875 0)"/>
      <use xlink:href="#DejaVuSans-4d" transform="translate(203.173828 0)"/>
      <use xlink:href="#DejaVuSans-4c" transform="translate(289.453125 0)"/>
      <use xlink:href="#DejaVuSans-20" transform="translate(345.166016 0)"/>
      <use xlink:href="#DejaVuSans-2d" transform="translate(376.953125 0)"/>
      <use xlink:href="#DejaVuSans-20" transform="translate(413.037109 0)"/>
      <use xlink:href="#DejaVuSans-4e" transform="translate(444.824219 0)"/>
      <use xlink:href="#DejaVuSans-6f" transform="translate(519.628906 0)"/>
      <use xlink:href="#DejaVuSans-20" transform="translate(580.810547 0)"/>
      <use xlink:href="#DejaVuSans-52" transform="translate(612.597656 0)"/>
      <use xlink:href="#DejaVuSans-65" transform="translate(677.580078 0)"/>
      <use xlink:href="#DejaVuSans-67" transform="translate(739.103516 0)"/>
      <use xlink:href="#DejaVuSans-75" transform="translate(802.580078 0)"/>
      <use xlink:href="#DejaVuSans-6c" transform="translate(865.958984 0)"/>
      <use xlink:href="#DejaVuSans-61" transform="translate(893.742188 0)"/>
      <use xlink:href="#DejaVuSans-72" transform="translate(955.021484 0)"/>
      <use xlink:href="#DejaVuSans-69" transform="translate(996.134766 0)"/>
      <use xlink:href="#DejaVuSans-7a" transform="translate(1023.917969 0)"/>
      <use xlink:href="#DejaVuSans-61" transform="translate(1076.408203 0)"/>
      <use xlink:href="#DejaVuSans-74" transform="translate(1137.6875 0)"/>
      <use xlink:href="#DejaVuSans-69" transform="translate(1176.896484 0)"/>
      <use xlink:href="#DejaVuSans-6f" transform="translate(1204.679688 0)"/>
      <use xlink:href="#DejaVuSans-6e" transform="translate(1265.861328 0)"/>
     </g>
    </g>
   </g>
  </g>
 </g>
 <defs>
  <clipPath id="pe65b84884e">
   <rect x="55.56" y="28.08" width="651.48" height="282.9"/>
  </clipPath>
 </defs>
</svg>
