<?xml version="1.0" encoding="utf-8" standalone="no"?>
<!DOCTYPE svg PUBLIC "-//W3C//DTD SVG 1.1//EN"
  "http://www.w3.org/Graphics/SVG/1.1/DTD/svg11.dtd">
<svg xmlns:xlink="http://www.w3.org/1999/xlink" width="791.937pt" height="297.395336pt" viewBox="0 0 791.937 297.395336" xmlns="http://www.w3.org/2000/svg" version="1.1">
 <metadata>
  <rdf:RDF xmlns:dc="http://purl.org/dc/elements/1.1/" xmlns:cc="http://creativecommons.org/ns#" xmlns:rdf="http://www.w3.org/1999/02/22-rdf-syntax-ns#">
   <cc:Work>
    <dc:type rdf:resource="http://purl.org/dc/dcmitype/StillImage"/>
    <dc:date>2026-03-27T18:06:27.863031</dc:date>
    <dc:format>image/svg+xml</dc:format>
    <dc:creator>
     <cc:Agent>
      <dc:title>Matplotlib v3.10.6, https://matplotlib.org/</dc:title>
     </cc:Agent>
    </dc:creator>
   </cc:Work>
  </rdf:RDF>
 </metadata>
 <defs>
  <style type="text/css">*{stroke-linejoin: round; stroke-linecap: butt}</style>
 </defs>
 <g id="figure_1">
  <g id="patch_1">
   <path d="M 0 297.395336 
L 791.937 297.395336 
L 791.937 0 
L 0 0 
z
" style="fill: #ffffff"/>
  </g>
  <g id="axes_1">
   <g id="patch_2">
    <path d="M 57.537 248.822336 
L 417.537 248.822336 
L 417.537 26.3301 
L 57.537 26.3301 
z
" style="fill: #eaeaf2"/>
   </g>
   <g id="matplotlib.axis_1">
    <g id="xtick_1">
     <g id="text_1">
      <!-- 0 -->
      <g style="fill: #262626" transform="translate(68.659812 269.264086) scale(0.144 -0.144)">
       <defs>
        <path id="DejaVuSans-30" d="M 2034 4250 
Q 1547 4250 1301 3770 
Q 1056 3291 1056 2328 
Q 1056 1369 1301 889 
Q 1547 409 2034 409 
Q 2525 409 2770 889 
Q 3016 1369 3016 2328 
Q 3016 3291 2770 3770 
Q 2525 4250 2034 4250 
z
M 2034 4750 
Q 2819 4750 3233 4129 
Q 3647 3509 3647 2328 
Q 3647 1150 3233 529 
Q 2819 -91 2034 -91 
Q 1250 -91 836 529 
Q 422 1150 422 2328 
Q 422 3509 836 4129 
Q 1250 4750 2034 4750 
z
" transform="scale(0.015625)"/>
       </defs>
       <use xlink:href="#DejaVuSans-30"/>
      </g>
     </g>
    </g>
    <g id="xtick_2">
     <g id="text_2">
      <!-- 5 -->
      <g style="fill: #262626" transform="translate(147.838698 269.264086) scale(0.144 -0.144)">
       <defs>
        <path id="DejaVuSans-35" d="M 691 4666 
L 3169 4666 
L 3169 4134 
L 1269 4134 
L 1269 2991 
Q 1406 3038 1543 3061 
Q 1681 3084 1819 3084 
Q 2600 3084 3056 2656 
Q 3513 2228 3513 1497 
Q 3513 744 3044 326 
Q 2575 -91 1722 -91 
Q 1428 -91 1123 -41 
Q 819 9 494 109 
L 494 744 
Q 775 591 1075 516 
Q 1375 441 1709 441 
Q 2250 441 2565 725 
Q 2881 1009 2881 1497 
Q 2881 1984 2565 2268 
Q 2250 2553 1709 2553 
Q 1456 2553 1204 2497 
Q 953 2441 691 2322 
L 691 4666 
z
" transform="scale(0.015625)"/>
       </defs>
       <use xlink:href="#DejaVuSans-35"/>
      </g>
     </g>
    </g>
    <g id="xtick_3">
     <g id="text_3">
      <!-- 10 -->
      <g style="fill: #262626" transform="translate(222.436584 269.264086) scale(0.144 -0.144)">
       <defs>
        <path id="DejaVuSans-31" d="M 794 531 
L 1825 531 
L 1825 4091 
L 703 3866 
L 703 4441 
L 1819 4666 
L 2450 4666 
L 2450 531 
L 3481 531 
L 3481 0 
L 794 0 
L 794 531 
z
" transform="scale(0.015625)"/>
       </defs>
       <use xlink:href="#DejaVuSans-31"/>
       <use xlink:href="#DejaVuSans-30" transform="translate(63.623047 0)"/>
      </g>
     </g>
    </g>
    <g id="xtick_4">
     <g id="text_4">
      <!-- 15 -->
      <g style="fill: #262626" transform="translate(301.615469 269.264086) scale(0.144 -0.144)">
       <use xlink:href="#DejaVuSans-31"/>
       <use xlink:href="#DejaVuSans-35" transform="translate(63.623047 0)"/>
      </g>
     </g>
    </g>
    <g id="xtick_5">
     <g id="text_5">
      <!-- 20 -->
      <g style="fill: #262626" transform="translate(380.794355 269.264086) scale(0.144 -0.144)">
       <defs>
        <path id="DejaVuSans-32" d="M 1228 531 
L 3431 531 
L 3431 0 
L 469 0 
L 469 531 
Q 828 903 1448 1529 
Q 2069 2156 2228 2338 
Q 2531 2678 2651 2914 
Q 2772 3150 2772 3378 
Q 2772 3750 2511 3984 
Q 2250 4219 1831 4219 
Q 1534 4219 1204 4116 
Q 875 4013 500 3803 
L 500 4441 
Q 881 4594 1212 4672 
Q 1544 4750 1819 4750 
Q 2544 4750 2975 4387 
Q 3406 4025 3406 3419 
Q 3406 3131 3298 2873 
Q 3191 2616 2906 2266 
Q 2828 2175 2409 1742 
Q 1991 1309 1228 531 
z
" transform="scale(0.015625)"/>
       </defs>
       <use xlink:href="#DejaVuSans-32"/>
       <use xlink:href="#DejaVuSans-30" transform="translate(63.623047 0)"/>
      </g>
     </g>
    </g>
    <g id="text_6">
     <!-- Time [days] -->
     <g style="fill: #262626" transform="translate(195.01875 287.200586) scale(0.144 -0.144)">
      <defs>
       <path id="DejaVuSans-54" d="M -19 4666 
L 3928 4666 
L 3928 4134 
L 2272 4134 
L 2272 0 
L 1638 0 
L 1638 4134 
L -19 4134 
L -19 4666 
z
" transform="scale(0.015625)"/>
       <path id="DejaVuSans-69" d="M 603 3500 
L 1178 3500 
L 1178 0 
L 603 0 
L 603 3500 
z
M 603 4863 
L 1178 4863 
L 1178 4134 
L 603 4134 
L 603 4863 
z
" transform="scale(0.015625)"/>
       <path id="DejaVuSans-6d" d="M 3328 2828 
Q 3544 3216 3844 3400 
Q 4144 3584 4550 3584 
Q 5097 3584 5394 3201 
Q 5691 2819 5691 2113 
L 5691 0 
L 5113 0 
L 5113 2094 
Q 5113 2597 4934 2840 
Q 4756 3084 4391 3084 
Q 3944 3084 3684 2787 
Q 3425 2491 3425 1978 
L 3425 0 
L 2847 0 
L 2847 2094 
Q 2847 2600 2669 2842 
Q 2491 3084 2119 3084 
Q 1678 3084 1418 2786 
Q 1159 2488 1159 1978 
L 1159 0 
L 581 0 
L 581 3500 
L 1159 3500 
L 1159 2956 
Q 1356 3278 1631 3431 
Q 1906 3584 2284 3584 
Q 2666 3584 2933 3390 
Q 3200 3197 3328 2828 
z
" transform="scale(0.015625)"/>
       <path id="DejaVuSans-65" d="M 3597 1894 
L 3597 1613 
L 953 1613 
Q 991 1019 1311 708 
Q 1631 397 2203 397 
Q 2534 397 2845 478 
Q 3156 559 3463 722 
L 3463 178 
Q 3153 47 2828 -22 
Q 2503 -91 2169 -91 
Q 1331 -91 842 396 
Q 353 884 353 1716 
Q 353 2575 817 3079 
Q 1281 3584 2069 3584 
Q 2775 3584 3186 3129 
Q 3597 2675 3597 1894 
z
M 3022 2063 
Q 3016 2534 2758 2815 
Q 2500 3097 2075 3097 
Q 1594 3097 1305 2825 
Q 1016 2553 972 2059 
L 3022 2063 
z
" transform="scale(0.015625)"/>
       <path id="DejaVuSans-20" transform="scale(0.015625)"/>
       <path id="DejaVuSans-5b" d="M 550 4863 
L 1875 4863 
L 1875 4416 
L 1125 4416 
L 1125 -397 
L 1875 -397 
L 1875 -844 
L 550 -844 
L 550 4863 
z
" transform="scale(0.015625)"/>
       <path id="DejaVuSans-64" d="M 2906 2969 
L 2906 4863 
L 3481 4863 
L 3481 0 
L 2906 0 
L 2906 525 
Q 2725 213 2448 61 
Q 2172 -91 1784 -91 
Q 1150 -91 751 415 
Q 353 922 353 1747 
Q 353 2572 751 3078 
Q 1150 3584 1784 3584 
Q 2172 3584 2448 3432 
Q 2725 3281 2906 2969 
z
M 947 1747 
Q 947 1113 1208 752 
Q 1469 391 1925 391 
Q 2381 391 2643 752 
Q 2906 1113 2906 1747 
Q 2906 2381 2643 2742 
Q 2381 3103 1925 3103 
Q 1469 3103 1208 2742 
Q 947 2381 947 1747 
z
" transform="scale(0.015625)"/>
       <path id="DejaVuSans-61" d="M 2194 1759 
Q 1497 1759 1228 1600 
Q 959 1441 959 1056 
Q 959 750 1161 570 
Q 1363 391 1709 391 
Q 2188 391 2477 730 
Q 2766 1069 2766 1631 
L 2766 1759 
L 2194 1759 
z
M 3341 1997 
L 3341 0 
L 2766 0 
L 2766 531 
Q 2569 213 2275 61 
Q 1981 -91 1556 -91 
Q 1019 -91 701 211 
Q 384 513 384 1019 
Q 384 1609 779 1909 
Q 1175 2209 1959 2209 
L 2766 2209 
L 2766 2266 
Q 2766 2663 2505 2880 
Q 2244 3097 1772 3097 
Q 1472 3097 1187 3025 
Q 903 2953 641 2809 
L 641 3341 
Q 956 3463 1253 3523 
Q 1550 3584 1831 3584 
Q 2591 3584 2966 3190 
Q 3341 2797 3341 1997 
z
" transform="scale(0.015625)"/>
       <path id="DejaVuSans-79" d="M 2059 -325 
Q 1816 -950 1584 -1140 
Q 1353 -1331 966 -1331 
L 506 -1331 
L 506 -850 
L 844 -850 
Q 1081 -850 1212 -737 
Q 1344 -625 1503 -206 
L 1606 56 
L 191 3500 
L 800 3500 
L 1894 763 
L 2988 3500 
L 3597 3500 
L 2059 -325 
z
" transform="scale(0.015625)"/>
       <path id="DejaVuSans-73" d="M 2834 3397 
L 2834 2853 
Q 2591 2978 2328 3040 
Q 2066 3103 1784 3103 
Q 1356 3103 1142 2972 
Q 928 2841 928 2578 
Q 928 2378 1081 2264 
Q 1234 2150 1697 2047 
L 1894 2003 
Q 2506 1872 2764 1633 
Q 3022 1394 3022 966 
Q 3022 478 2636 193 
Q 2250 -91 1575 -91 
Q 1294 -91 989 -36 
Q 684 19 347 128 
L 347 722 
Q 666 556 975 473 
Q 1284 391 1588 391 
Q 1994 391 2212 530 
Q 2431 669 2431 922 
Q 2431 1156 2273 1281 
Q 2116 1406 1581 1522 
L 1381 1569 
Q 847 1681 609 1914 
Q 372 2147 372 2553 
Q 372 3047 722 3315 
Q 1072 3584 1716 3584 
Q 2034 3584 2315 3537 
Q 2597 3491 2834 3397 
z
" transform="scale(0.015625)"/>
       <path id="DejaVuSans-5d" d="M 1947 4863 
L 1947 -844 
L 622 -844 
L 622 -397 
L 1369 -397 
L 1369 4416 
L 622 4416 
L 622 4863 
L 1947 4863 
z
" transform="scale(0.015625)"/>
      </defs>
      <use xlink:href="#DejaVuSans-54"/>
      <use xlink:href="#DejaVuSans-69" transform="translate(57.958984 0)"/>
      <use xlink:href="#DejaVuSans-6d" transform="translate(85.742188 0)"/>
      <use xlink:href="#DejaVuSans-65" transform="translate(183.154297 0)"/>
      <use xlink:href="#DejaVuSans-20" transform="translate(244.677734 0)"/>
      <use xlink:href="#DejaVuSans-5b" transform="translate(276.464844 0)"/>
      <use xlink:href="#DejaVuSans-64" transform="translate(315.478516 0)"/>
      <use xlink:href="#DejaVuSans-61" transform="translate(378.955078 0)"/>
      <use xlink:href="#DejaVuSans-79" transform="translate(440.234375 0)"/>
      <use xlink:href="#DejaVuSans-73" transform="translate(499.414062 0)"/>
      <use xlink:href="#DejaVuSans-5d" transform="translate(551.513672 0)"/>
     </g>
    </g>
   </g>
   <g id="matplotlib.axis_2">
    <g id="ytick_1">
     <g id="text_7">
      <!-- 0.0 -->
      <g style="fill: #262626" transform="translate(25.1365 244.179927) scale(0.144 -0.144)">
       <defs>
        <path id="DejaVuSans-2e" d="M 684 794 
L 1344 794 
L 1344 0 
L 684 0 
L 684 794 
z
" transform="scale(0.015625)"/>
       </defs>
       <use xlink:href="#DejaVuSans-30"/>
       <use xlink:href="#DejaVuSans-2e" transform="translate(63.623047 0)"/>
       <use xlink:href="#DejaVuSans-30" transform="translate(95.410156 0)"/>
      </g>
     </g>
    </g>
    <g id="ytick_2">
     <g id="text_8">
      <!-- 0.2 -->
      <g style="fill: #262626" transform="translate(25.1365 203.726794) scale(0.144 -0.144)">
       <use xlink:href="#DejaVuSans-30"/>
       <use xlink:href="#DejaVuSans-2e" transform="translate(63.623047 0)"/>
       <use xlink:href="#DejaVuSans-32" transform="translate(95.410156 0)"/>
      </g>
     </g>
    </g>
    <g id="ytick_3">
     <g id="text_9">
      <!-- 0.4 -->
      <g style="fill: #262626" transform="translate(25.1365 163.27366) scale(0.144 -0.144)">
       <defs>
        <path id="DejaVuSans-34" d="M 2419 4116 
L 825 1625 
L 2419 1625 
L 2419 4116 
z
M 2253 4666 
L 3047 4666 
L 3047 1625 
L 3713 1625 
L 3713 1100 
L 3047 1100 
L 3047 0 
L 2419 0 
L 2419 1100 
L 313 1100 
L 313 1709 
L 2253 4666 
z
" transform="scale(0.015625)"/>
       </defs>
       <use xlink:href="#DejaVuSans-30"/>
       <use xlink:href="#DejaVuSans-2e" transform="translate(63.623047 0)"/>
       <use xlink:href="#DejaVuSans-34" transform="translate(95.410156 0)"/>
      </g>
     </g>
    </g>
    <g id="ytick_4">
     <g id="text_10">
      <!-- 0.6 -->
      <g style="fill: #262626" transform="translate(25.1365 122.820526) scale(0.144 -0.144)">
       <defs>
        <path id="DejaVuSans-36" d="M 2113 2584 
Q 1688 2584 1439 2293 
Q 1191 2003 1191 1497 
Q 1191 994 1439 701 
Q 1688 409 2113 409 
Q 2538 409 2786 701 
Q 3034 994 3034 1497 
Q 3034 2003 2786 2293 
Q 2538 2584 2113 2584 
z
M 3366 4563 
L 3366 3988 
Q 3128 4100 2886 4159 
Q 2644 4219 2406 4219 
Q 1781 4219 1451 3797 
Q 1122 3375 1075 2522 
Q 1259 2794 1537 2939 
Q 1816 3084 2150 3084 
Q 2853 3084 3261 2657 
Q 3669 2231 3669 1497 
Q 3669 778 3244 343 
Q 2819 -91 2113 -91 
Q 1303 -91 875 529 
Q 447 1150 447 2328 
Q 447 3434 972 4092 
Q 1497 4750 2381 4750 
Q 2619 4750 2861 4703 
Q 3103 4656 3366 4563 
z
" transform="scale(0.015625)"/>
       </defs>
       <use xlink:href="#DejaVuSans-30"/>
       <use xlink:href="#DejaVuSans-2e" transform="translate(63.623047 0)"/>
       <use xlink:href="#DejaVuSans-36" transform="translate(95.410156 0)"/>
      </g>
     </g>
    </g>
    <g id="ytick_5">
     <g id="text_11">
      <!-- 0.8 -->
      <g style="fill: #262626" transform="translate(25.1365 82.367392) scale(0.144 -0.144)">
       <defs>
        <path id="DejaVuSans-38" d="M 2034 2216 
Q 1584 2216 1326 1975 
Q 1069 1734 1069 1313 
Q 1069 891 1326 650 
Q 1584 409 2034 409 
Q 2484 409 2743 651 
Q 3003 894 3003 1313 
Q 3003 1734 2745 1975 
Q 2488 2216 2034 2216 
z
M 1403 2484 
Q 997 2584 770 2862 
Q 544 3141 544 3541 
Q 544 4100 942 4425 
Q 1341 4750 2034 4750 
Q 2731 4750 3128 4425 
Q 3525 4100 3525 3541 
Q 3525 3141 3298 2862 
Q 3072 2584 2669 2484 
Q 3125 2378 3379 2068 
Q 3634 1759 3634 1313 
Q 3634 634 3220 271 
Q 2806 -91 2034 -91 
Q 1263 -91 848 271 
Q 434 634 434 1313 
Q 434 1759 690 2068 
Q 947 2378 1403 2484 
z
M 1172 3481 
Q 1172 3119 1398 2916 
Q 1625 2713 2034 2713 
Q 2441 2713 2670 2916 
Q 2900 3119 2900 3481 
Q 2900 3844 2670 4047 
Q 2441 4250 2034 4250 
Q 1625 4250 1398 4047 
Q 1172 3844 1172 3481 
z
" transform="scale(0.015625)"/>
       </defs>
       <use xlink:href="#DejaVuSans-30"/>
       <use xlink:href="#DejaVuSans-2e" transform="translate(63.623047 0)"/>
       <use xlink:href="#DejaVuSans-38" transform="translate(95.410156 0)"/>
      </g>
     </g>
    </g>
    <g id="ytick_6">
     <g id="text_12">
      <!-- 1.0 -->
      <g style="fill: #262626" transform="translate(25.1365 41.914258) scale(0.144 -0.144)">
       <use xlink:href="#DejaVuSans-31"/>
       <use xlink:href="#DejaVuSans-2e" transform="translate(63.623047 0)"/>
       <use xlink:href="#DejaVuSans-30" transform="translate(95.410156 0)"/>
      </g>
     </g>
    </g>
    <g id="text_13">
     <!-- nRMSE -->
     <g style="fill: #262626" transform="translate(18.14175 162.474718) rotate(-90) scale(0.144 -0.144)">
      <defs>
       <path id="DejaVuSans-6e" d="M 3513 2113 
L 3513 0 
L 2938 0 
L 2938 2094 
Q 2938 2591 2744 2837 
Q 2550 3084 2163 3084 
Q 1697 3084 1428 2787 
Q 1159 2491 1159 1978 
L 1159 0 
L 581 0 
L 581 3500 
L 1159 3500 
L 1159 2956 
Q 1366 3272 1645 3428 
Q 1925 3584 2291 3584 
Q 2894 3584 3203 3211 
Q 3513 2838 3513 2113 
z
" transform="scale(0.015625)"/>
       <path id="DejaVuSans-52" d="M 2841 2188 
Q 3044 2119 3236 1894 
Q 3428 1669 3622 1275 
L 4263 0 
L 3584 0 
L 2988 1197 
Q 2756 1666 2539 1819 
Q 2322 1972 1947 1972 
L 1259 1972 
L 1259 0 
L 628 0 
L 628 4666 
L 2053 4666 
Q 2853 4666 3247 4331 
Q 3641 3997 3641 3322 
Q 3641 2881 3436 2590 
Q 3231 2300 2841 2188 
z
M 1259 4147 
L 1259 2491 
L 2053 2491 
Q 2509 2491 2742 2702 
Q 2975 2913 2975 3322 
Q 2975 3731 2742 3939 
Q 2509 4147 2053 4147 
L 1259 4147 
z
" transform="scale(0.015625)"/>
       <path id="DejaVuSans-4d" d="M 628 4666 
L 1569 4666 
L 2759 1491 
L 3956 4666 
L 4897 4666 
L 4897 0 
L 4281 0 
L 4281 4097 
L 3078 897 
L 2444 897 
L 1241 4097 
L 1241 0 
L 628 0 
L 628 4666 
z
" transform="scale(0.015625)"/>
       <path id="DejaVuSans-53" d="M 3425 4513 
L 3425 3897 
Q 3066 4069 2747 4153 
Q 2428 4238 2131 4238 
Q 1616 4238 1336 4038 
Q 1056 3838 1056 3469 
Q 1056 3159 1242 3001 
Q 1428 2844 1947 2747 
L 2328 2669 
Q 3034 2534 3370 2195 
Q 3706 1856 3706 1288 
Q 3706 609 3251 259 
Q 2797 -91 1919 -91 
Q 1588 -91 1214 -16 
Q 841 59 441 206 
L 441 856 
Q 825 641 1194 531 
Q 1563 422 1919 422 
Q 2459 422 2753 634 
Q 3047 847 3047 1241 
Q 3047 1584 2836 1778 
Q 2625 1972 2144 2069 
L 1759 2144 
Q 1053 2284 737 2584 
Q 422 2884 422 3419 
Q 422 4038 858 4394 
Q 1294 4750 2059 4750 
Q 2388 4750 2728 4690 
Q 3069 4631 3425 4513 
z
" transform="scale(0.015625)"/>
       <path id="DejaVuSans-45" d="M 628 4666 
L 3578 4666 
L 3578 4134 
L 1259 4134 
L 1259 2753 
L 3481 2753 
L 3481 2222 
L 1259 2222 
L 1259 531 
L 3634 531 
L 3634 0 
L 628 0 
L 628 4666 
z
" transform="scale(0.015625)"/>
      </defs>
      <use xlink:href="#DejaVuSans-6e"/>
      <use xlink:href="#DejaVuSans-52" transform="translate(63.378906 0)"/>
      <use xlink:href="#DejaVuSans-4d" transform="translate(132.861328 0)"/>
      <use xlink:href="#DejaVuSans-53" transform="translate(219.140625 0)"/>
      <use xlink:href="#DejaVuSans-45" transform="translate(282.617188 0)"/>
     </g>
    </g>
   </g>
   <g id="FillBetweenPolyCollection_1">
    <path d="M 73.900636 -29.802537 
L 73.900636 44.611268 
L 75.220284 47.411493 
L 76.539933 50.162937 
L 77.859581 52.829987 
L 79.179229 55.371569 
L 80.498877 57.746242 
L 81.818525 59.917756 
L 83.138173 61.856361 
L 84.457821 63.540614 
L 85.777469 64.959355 
L 87.097117 66.112392 
L 88.416765 67.011409 
L 89.736413 67.6785 
L 91.056062 68.144231 
L 92.37571 68.44398 
L 93.695358 68.614598 
L 95.015006 68.691838 
L 96.334654 68.707302 
L 97.654302 68.68546 
L 98.97395 68.64198 
L 100.293598 68.582915 
L 101.613246 68.50707 
L 102.932894 68.408313 
L 104.252543 68.280182 
L 105.572191 68.119057 
L 106.891839 67.925297 
L 108.211487 67.702376 
L 109.531135 67.452909 
L 110.850783 67.179841 
L 112.170431 66.883955 
L 113.490079 66.566747 
L 114.809727 66.230734 
L 116.129375 65.882928 
L 117.449023 65.531341 
L 118.768672 65.189191 
L 120.08832 64.872354 
L 121.407968 64.596716 
L 122.727616 64.376881 
L 124.047264 64.220093 
L 125.366912 64.124313 
L 126.68656 64.075157 
L 128.006208 64.045638 
L 129.325856 63.998624 
L 130.645504 63.893614 
L 131.965152 63.690189 
L 133.284801 63.354276 
L 134.604449 62.862404 
L 135.924097 62.203757 
L 137.243745 61.379208 
L 138.563393 60.400706 
L 139.883041 59.288641 
L 141.202689 58.068226 
L 142.522337 56.76702 
L 143.841985 55.414714 
L 145.161633 54.039847 
L 146.481282 52.671702 
L 147.80093 51.33766 
L 149.120578 50.061657 
L 150.440226 48.86473 
L 151.759874 47.762993 
L 153.079522 46.767627 
L 154.39917 45.884585 
L 155.718818 45.114819 
L 157.038466 44.454409 
L 158.358114 43.895843 
L 159.677762 43.427042 
L 160.997411 43.031934 
L 162.317059 42.693444 
L 163.636707 42.394985 
L 164.956355 42.123001 
L 166.276003 41.868546 
L 167.595651 41.62871 
L 168.915299 41.405461 
L 170.234947 41.205397 
L 171.554595 41.037453 
L 172.874243 40.909363 
L 174.193891 40.824151 
L 175.51354 40.77809 
L 176.833188 40.759748 
L 178.152836 40.754321 
L 179.472484 40.749377 
L 180.792132 40.738012 
L 182.11178 40.719956 
L 183.431428 40.700515 
L 184.751076 40.68708 
L 186.070724 40.686982 
L 187.390372 40.710602 
L 188.710021 40.772603 
L 190.029669 40.89323 
L 191.349317 41.099125 
L 192.668965 41.42039 
L 193.988613 41.886197 
L 195.308261 42.523356 
L 196.627909 43.353341 
L 197.947557 44.389819 
L 199.267205 45.636578 
L 200.586853 47.085752 
L 201.906501 48.718682 
L 203.22615 50.507159 
L 204.545798 52.413037 
L 205.865446 54.392626 
L 207.185094 56.398117 
L 208.504742 58.382065 
L 209.82439 60.3001 
L 211.144038 62.114595 
L 212.463686 63.795917 
L 213.783334 65.323737 
L 215.102982 66.687978 
L 216.42263 67.889027 
L 217.742279 68.936861 
L 219.061927 69.84636 
L 220.381575 70.635667 
L 221.701223 71.321474 
L 223.020871 71.91761 
L 224.340519 72.432707 
L 225.660167 72.87014 
L 226.979815 73.227856 
L 228.299463 73.49624 
L 229.619111 73.658796 
L 230.93876 73.693538 
L 232.258408 73.575354 
L 233.578056 73.278106 
L 234.897704 72.778071 
L 236.217352 72.056517 
L 237.537 71.100371 
L 238.856648 69.902532 
L 240.176296 68.462511 
L 241.495944 66.78556 
L 242.815592 64.882939 
L 244.13524 62.770178 
L 245.454889 60.466082 
L 246.774537 57.991659 
L 248.094185 55.36845 
L 249.413833 52.619404 
L 250.733481 49.770154 
L 252.053129 46.849186 
L 253.372777 43.888837 
L 254.692425 40.925704 
L 256.012073 37.998464 
L 257.331721 35.145962 
L 258.65137 32.403583 
L 259.971018 29.802315 
L 261.290666 27.368348 
L 262.610314 25.123803 
L 263.929962 23.085455 
L 265.24961 21.260933 
L 266.569258 19.646243 
L 267.888906 18.227164 
L 269.208554 16.981338 
L 270.528202 15.882722 
L 271.84785 14.90421 
L 273.167499 14.020757 
L 274.487147 13.210626 
L 275.806795 12.451759 
L 277.126443 11.720277 
L 278.446091 10.988536 
L 279.765739 10.228371 
L 281.085387 9.416259 
L 282.405035 8.537072 
L 283.724683 7.583659 
L 285.044331 6.554652 
L 286.363979 5.451861 
L 287.683628 4.279161 
L 289.003276 3.041349 
L 290.322924 1.746076 
L 291.642572 0.403843 
L 292.96222 -0.972644 
L 294.281868 -2.369201 
L 295.601516 -3.770313 
L 296.921164 -5.157363 
L 298.240812 -6.509784 
L 299.56046 -7.804137 
L 300.880109 -9.015674 
L 302.199757 -10.11898 
L 303.519405 -11.091731 
L 304.839053 -11.915223 
L 306.158701 -12.576777 
L 307.478349 -13.070226 
L 308.797997 -13.39634 
L 310.117645 -13.563093 
L 311.437293 -13.583469 
L 312.756941 -13.474582 
L 314.076589 -13.255097 
L 315.396238 -12.944326 
L 316.715886 -12.560295 
L 318.035534 -12.11866 
L 319.355182 -11.631798 
L 320.67483 -11.110946 
L 321.994478 -10.566026 
L 323.314126 -10.007661 
L 324.633774 -9.448026 
L 325.953422 -8.902055 
L 327.27307 -8.387257 
L 328.592718 -7.921702 
L 329.912367 -7.525146 
L 331.232015 -7.218406 
L 332.551663 -7.023923 
L 333.871311 -6.963558 
L 335.190959 -7.056787 
L 336.510607 -7.318221 
L 337.830255 -7.757097 
L 339.149903 -8.376842 
L 340.469551 -9.176526 
L 341.789199 -10.151203 
L 343.108848 -11.29457 
L 344.428496 -12.601553 
L 345.748144 -14.069824 
L 347.067792 -15.697713 
L 348.38744 -17.484861 
L 349.707088 -19.430105 
L 351.026736 -21.532593 
L 352.346384 -23.7891 
L 353.666032 -26.192965 
L 354.98568 -28.738579 
L 356.305328 -31.420072 
L 357.624977 -34.232708 
L 358.944625 -37.175806 
L 360.264273 -40.253774 
L 361.583921 -43.471174 
L 362.903569 -46.833256 
L 364.223217 -50.346742 
L 365.542865 -54.013211 
L 366.862513 -57.830758 
L 368.182161 -61.795157 
L 369.501809 -65.897961 
L 370.821457 -70.128476 
L 372.141106 -74.474509 
L 373.460754 -78.92457 
L 374.780402 -83.46518 
L 376.10005 -88.084501 
L 377.419698 -92.771864 
L 378.739346 -97.516263 
L 380.058994 -102.307248 
L 381.378642 -107.136583 
L 382.69829 -111.993754 
L 384.017938 -116.867869 
L 385.337587 -121.743559 
L 386.657235 -126.598831 
L 387.976883 -131.407962 
L 389.296531 -136.14345 
L 390.616179 -140.77757 
L 391.935827 -145.28816 
L 393.255475 -149.663431 
L 394.575123 -153.902396 
L 395.894771 -158.01512 
L 397.214419 -162.018858 
L 398.534067 -165.935686 
L 399.853716 -169.78895 
L 401.173364 -173.59747 
L 401.173364 -462.175902 
L 401.173364 -462.175902 
L 399.853716 -458.108621 
L 398.534067 -453.844835 
L 397.214419 -449.38257 
L 395.894771 -444.716326 
L 394.575123 -439.845082 
L 393.255475 -434.768172 
L 391.935827 -429.481721 
L 390.616179 -423.994089 
L 389.296531 -418.325024 
L 387.976883 -412.500049 
L 386.657235 -406.548614 
L 385.337587 -400.499415 
L 384.017938 -394.380913 
L 382.69829 -388.219496 
L 381.378642 -382.040131 
L 380.058994 -375.864491 
L 378.739346 -369.714535 
L 377.419698 -363.615862 
L 376.10005 -357.595195 
L 374.780402 -351.676311 
L 373.460754 -345.874729 
L 372.141106 -340.196887 
L 370.821457 -334.636864 
L 369.501809 -329.173722 
L 368.182161 -323.777659 
L 366.862513 -318.414888 
L 365.542865 -313.050949 
L 364.223217 -307.65472 
L 362.903569 -302.201406 
L 361.583921 -296.677491 
L 360.264273 -291.080725 
L 358.944625 -285.416994 
L 357.624977 -279.700385 
L 356.305328 -273.95402 
L 354.98568 -268.204311 
L 353.666032 -262.483878 
L 352.346384 -256.830855 
L 351.026736 -251.283104 
L 349.707088 -245.873369 
L 348.38744 -240.628656 
L 347.067792 -235.567554 
L 345.748144 -230.697714 
L 344.428496 -226.020979 
L 343.108848 -221.537525 
L 341.789199 -217.251259 
L 340.469551 -213.168721 
L 339.149903 -209.297672 
L 337.830255 -205.648143 
L 336.510607 -202.230243 
L 335.190959 -199.051649 
L 333.871311 -196.115495 
L 332.551663 -193.422621 
L 331.232015 -190.97389 
L 329.912367 -188.769787 
L 328.592718 -186.809109 
L 327.27307 -185.087488 
L 325.953422 -183.595198 
L 324.633774 -182.317729 
L 323.314126 -181.233898 
L 321.994478 -180.317118 
L 320.67483 -179.538229 
L 319.355182 -178.865526 
L 318.035534 -178.269393 
L 316.715886 -177.724159 
L 315.396238 -177.210322 
L 314.076589 -176.714508 
L 312.756941 -176.228447 
L 311.437293 -175.743448 
L 310.117645 -175.24963 
L 308.797997 -174.733532 
L 307.478349 -174.175635 
L 306.158701 -173.554222 
L 304.839053 -172.84797 
L 303.519405 -172.03627 
L 302.199757 -171.103482 
L 300.880109 -170.04058 
L 299.56046 -168.842344 
L 298.240812 -167.505749 
L 296.921164 -166.030247 
L 295.601516 -164.417227 
L 294.281868 -162.670971 
L 292.96222 -160.79827 
L 291.642572 -158.806701 
L 290.322924 -156.703 
L 289.003276 -154.492073 
L 287.683628 -152.177354 
L 286.363979 -149.761383 
L 285.044331 -147.246081 
L 283.724683 -144.632954 
L 282.405035 -141.925346 
L 281.085387 -139.131982 
L 279.765739 -136.2721 
L 278.446091 -133.374658 
L 277.126443 -130.473923 
L 275.806795 -127.598147 
L 274.487147 -124.761578 
L 273.167499 -121.966197 
L 271.84785 -119.21338 
L 270.528202 -116.515212 
L 269.208554 -113.89701 
L 267.888906 -111.394917 
L 266.569258 -109.049374 
L 265.24961 -106.89802 
L 263.929962 -104.97529 
L 262.610314 -103.310866 
L 261.290666 -101.930124 
L 259.971018 -100.851721 
L 258.65137 -100.087508 
L 257.331721 -99.642652 
L 256.012073 -99.518034 
L 254.692425 -99.711771 
L 253.372777 -100.219639 
L 252.053129 -101.033973 
L 250.733481 -102.14515 
L 249.413833 -103.541955 
L 248.094185 -105.211121 
L 246.774537 -107.137054 
L 245.454889 -109.299653 
L 244.13524 -111.673831 
L 242.815592 -114.228703 
L 241.495944 -116.92721 
L 240.176296 -119.725379 
L 238.856648 -122.574708 
L 237.537 -125.42459 
L 236.217352 -128.223689 
L 234.897704 -130.921785 
L 233.578056 -133.474377 
L 232.258408 -135.84374 
L 230.93876 -137.999726 
L 229.619111 -139.922135 
L 228.299463 -141.596604 
L 226.979815 -143.014066 
L 225.660167 -144.169523 
L 224.340519 -145.061143 
L 223.020871 -145.689743 
L 221.701223 -146.057985 
L 220.381575 -146.172058 
L 219.061927 -146.040893 
L 217.742279 -145.676519 
L 216.42263 -145.095534 
L 215.102982 -144.317051 
L 213.783334 -143.362949 
L 212.463686 -142.255583 
L 211.144038 -141.016611 
L 209.82439 -139.666429 
L 208.504742 -138.222309 
L 207.185094 -136.69777 
L 205.865446 -135.101421 
L 204.545798 -133.436337 
L 203.22615 -131.700103 
L 201.906501 -129.88416 
L 200.586853 -127.9772 
L 199.267205 -125.963886 
L 197.947557 -123.825595 
L 196.627909 -121.543921 
L 195.308261 -119.101509 
L 193.988613 -116.485926 
L 192.668965 -113.693173 
L 191.349317 -110.733388 
L 190.029669 -107.632459 
L 188.710021 -104.434059 
L 187.390372 -101.195517 
L 186.070724 -97.981626 
L 184.751076 -94.857374 
L 183.431428 -91.879881 
L 182.11178 -89.093518 
L 180.792132 -86.52366 
L 179.472484 -84.176936 
L 178.152836 -82.043715 
L 176.833188 -80.102706 
L 175.51354 -78.325528 
L 174.193891 -76.680094 
L 172.874243 -75.13274 
L 171.554595 -73.649557 
L 170.234947 -72.200814 
L 168.915299 -70.761965 
L 167.595651 -69.31274 
L 166.276003 -67.838738 
L 164.956355 -66.329607 
L 163.636707 -64.780604 
L 162.317059 -63.191025 
L 160.997411 -61.564614 
L 159.677762 -59.907709 
L 158.358114 -58.228086 
L 157.038466 -56.532163 
L 155.718818 -54.824725 
L 154.39917 -53.108583 
L 153.079522 -51.38606 
L 151.759874 -49.658298 
L 150.440226 -47.925972 
L 149.120578 -46.190117 
L 147.80093 -44.451122 
L 146.481282 -42.710643 
L 145.161633 -40.970523 
L 143.841985 -39.234324 
L 142.522337 -37.507064 
L 141.202689 -35.794021 
L 139.883041 -34.102001 
L 138.563393 -32.440231 
L 137.243745 -30.821272 
L 135.924097 -29.260678 
L 134.604449 -27.775849 
L 133.284801 -26.386557 
L 131.965152 -25.110975 
L 130.645504 -23.963155 
L 129.325856 -22.95254 
L 128.006208 -22.081849 
L 126.68656 -21.346386 
L 125.366912 -20.730924 
L 124.047264 -20.207758 
L 122.727616 -19.735138 
L 121.407968 -19.259242 
L 120.08832 -18.71857 
L 118.768672 -18.053474 
L 117.449023 -17.214477 
L 116.129375 -16.170411 
L 114.809727 -14.914329 
L 113.490079 -13.464211 
L 112.170431 -11.863677 
L 110.850783 -10.173141 
L 109.531135 -8.463777 
L 108.211487 -6.808197 
L 106.891839 -5.274331 
L 105.572191 -3.917695 
L 104.252543 -2.780408 
L 102.932894 -1.888659 
L 101.613246 -1.254421 
L 100.293598 -0.877199 
L 98.97395 -0.745774 
L 97.654302 -0.840497 
L 96.334654 -1.135326 
L 95.015006 -1.60306 
L 93.695358 -2.219228 
L 92.37571 -2.965897 
L 91.056062 -3.834458 
L 89.736413 -4.826519 
L 88.416765 -5.951677 
L 87.097117 -7.22505 
L 85.777469 -8.664084 
L 84.457821 -10.284476 
L 83.138173 -12.09775 
L 81.818525 -14.109808 
L 80.498877 -16.319601 
L 79.179229 -18.718073 
L 77.859581 -21.288813 
L 76.539933 -24.008141 
L 75.220284 -26.851334 
L 73.900636 -29.802537 
z
" clip-path="url(#p4d87936c5a)" style="fill: #000080; fill-opacity: 0.2; stroke: #000080; stroke-opacity: 0.2"/>
   </g>
   <g id="FillBetweenPolyCollection_2">
    <defs>
     <path id="mdaaef3351b" d="M 73.900636 -192.186012 
L 73.900636 -144.898899 
L 75.220284 -143.453821 
L 76.539933 -142.066843 
L 77.859581 -140.746388 
L 79.179229 -139.497882 
L 80.498877 -138.324294 
L 81.818525 -137.227253 
L 83.138173 -136.207953 
L 84.457821 -135.268576 
L 85.777469 -134.412009 
L 87.097117 -133.641347 
L 88.416765 -132.959393 
L 89.736413 -132.367109 
L 91.056062 -131.862465 
L 92.37571 -131.439772 
L 93.695358 -131.09088 
L 95.015006 -130.804199 
L 96.334654 -130.565317 
L 97.654302 -130.358403 
L 98.97395 -130.167551 
L 100.293598 -129.977778 
L 101.613246 -129.77683 
L 102.932894 -129.556407 
L 104.252543 -129.311717 
L 105.572191 -129.043063 
L 106.891839 -128.755174 
L 108.211487 -128.455342 
L 109.531135 -128.154869 
L 110.850783 -127.863501 
L 112.170431 -127.59213 
L 113.490079 -127.348542 
L 114.809727 -127.138184 
L 116.129375 -126.963818 
L 117.449023 -126.830631 
L 118.768672 -126.742763 
L 120.08832 -126.705022 
L 121.407968 -126.722707 
L 122.727616 -126.79957 
L 124.047264 -126.940444 
L 125.366912 -127.148665 
L 126.68656 -127.426386 
L 128.006208 -127.775343 
L 129.325856 -128.19676 
L 130.645504 -128.68979 
L 131.965152 -129.25222 
L 133.284801 -129.879336 
L 134.604449 -130.563707 
L 135.924097 -131.295245 
L 137.243745 -132.062066 
L 138.563393 -132.851545 
L 139.883041 -133.650851 
L 141.202689 -134.447782 
L 142.522337 -135.231413 
L 143.841985 -135.991148 
L 145.161633 -136.717878 
L 146.481282 -137.402702 
L 147.80093 -138.038298 
L 149.120578 -138.61934 
L 150.440226 -139.142491 
L 151.759874 -139.606658 
L 153.079522 -140.012857 
L 154.39917 -140.364702 
L 155.718818 -140.667926 
L 157.038466 -140.930026 
L 158.358114 -141.159694 
L 159.677762 -141.366257 
L 160.997411 -141.558988 
L 162.317059 -141.746238 
L 163.636707 -141.934845 
L 164.956355 -142.130134 
L 166.276003 -142.335539 
L 167.595651 -142.553254 
L 168.915299 -142.784287 
L 170.234947 -143.028629 
L 171.554595 -143.286488 
L 172.874243 -143.55915 
L 174.193891 -143.848057 
L 175.51354 -144.15468 
L 176.833188 -144.479939 
L 178.152836 -144.82354 
L 179.472484 -145.184628 
L 180.792132 -145.561694 
L 182.11178 -145.952452 
L 183.431428 -146.353768 
L 184.751076 -146.761067 
L 186.070724 -147.169243 
L 187.390372 -147.572998 
L 188.710021 -147.966608 
L 190.029669 -148.344832 
L 191.349317 -148.703032 
L 192.668965 -149.036976 
L 193.988613 -149.342808 
L 195.308261 -149.616853 
L 196.627909 -149.856319 
L 197.947557 -150.059755 
L 199.267205 -150.225994 
L 200.586853 -150.354085 
L 201.906501 -150.442722 
L 203.22615 -150.489557 
L 204.545798 -150.490254 
L 205.865446 -150.438355 
L 207.185094 -150.325807 
L 208.504742 -150.143532 
L 209.82439 -149.88321 
L 211.144038 -149.538095 
L 212.463686 -149.103993 
L 213.783334 -148.579864 
L 215.102982 -147.968215 
L 216.42263 -147.274385 
L 217.742279 -146.506118 
L 219.061927 -145.673079 
L 220.381575 -144.786392 
L 221.701223 -143.856831 
L 223.020871 -142.895461 
L 224.340519 -141.913204 
L 225.660167 -140.921258 
L 226.979815 -139.932175 
L 228.299463 -138.959724 
L 229.619111 -138.019606 
L 230.93876 -137.129222 
L 232.258408 -136.307104 
L 233.578056 -135.571515 
L 234.897704 -134.938316 
L 236.217352 -134.420686 
L 237.537 -134.027598 
L 238.856648 -133.763272 
L 240.176296 -133.626639 
L 241.495944 -133.611506 
L 242.815592 -133.706816 
L 244.13524 -133.896075 
L 245.454889 -134.160309 
L 246.774537 -134.478621 
L 248.094185 -134.829014 
L 249.413833 -135.190148 
L 250.733481 -135.542959 
L 252.053129 -135.871642 
L 253.372777 -136.164354 
L 254.692425 -136.413636 
L 256.012073 -136.615485 
L 257.331721 -136.768518 
L 258.65137 -136.873798 
L 259.971018 -136.934584 
L 261.290666 -136.956844 
L 262.610314 -136.94804 
L 263.929962 -136.917032 
L 265.24961 -136.874428 
L 266.569258 -136.83076 
L 267.888906 -136.794591 
L 269.208554 -136.771638 
L 270.528202 -136.763934 
L 271.84785 -136.771891 
L 273.167499 -136.797195 
L 274.487147 -136.844587 
L 275.806795 -136.920386 
L 277.126443 -137.030854 
L 278.446091 -137.180122 
L 279.765739 -137.368634 
L 281.085387 -137.593204 
L 282.405035 -137.848323 
L 283.724683 -138.126598 
L 285.044331 -138.41967 
L 286.363979 -138.71883 
L 287.683628 -139.015961 
L 289.003276 -139.30446 
L 290.322924 -139.580841 
L 291.642572 -139.844166 
L 292.96222 -140.095685 
L 294.281868 -140.337265 
L 295.601516 -140.569851 
L 296.921164 -140.792968 
L 298.240812 -141.004737 
L 299.56046 -141.201485 
L 300.880109 -141.378352 
L 302.199757 -141.529186 
L 303.519405 -141.648032 
L 304.839053 -141.728558 
L 306.158701 -141.765454 
L 307.478349 -141.755283 
L 308.797997 -141.696541 
L 310.117645 -141.589094 
L 311.437293 -141.434732 
L 312.756941 -141.237262 
L 314.076589 -140.999996 
L 315.396238 -140.72687 
L 316.715886 -140.421634 
L 318.035534 -140.087274 
L 319.355182 -139.726853 
L 320.67483 -139.343933 
L 321.994478 -138.943083 
L 323.314126 -138.530004 
L 324.633774 -138.112153 
L 325.953422 -137.699306 
L 327.27307 -137.302498 
L 328.592718 -136.934224 
L 329.912367 -136.607414 
L 331.232015 -136.334458 
L 332.551663 -136.127729 
L 333.871311 -135.999144 
L 335.190959 -135.959721 
L 336.510607 -136.019302 
L 337.830255 -136.186172 
L 339.149903 -136.466691 
L 340.469551 -136.865231 
L 341.789199 -137.383256 
L 343.108848 -138.019387 
L 344.428496 -138.768719 
L 345.748144 -139.623084 
L 347.067792 -140.571395 
L 348.38744 -141.600291 
L 349.707088 -142.693537 
L 351.026736 -143.833878 
L 352.346384 -145.004355 
L 353.666032 -146.189199 
L 354.98568 -147.374233 
L 356.305328 -148.546986 
L 357.624977 -149.697805 
L 358.944625 -150.818766 
L 360.264273 -151.90372 
L 361.583921 -152.948686 
L 362.903569 -153.952215 
L 364.223217 -154.915675 
L 365.542865 -155.841692 
L 366.862513 -156.735155 
L 368.182161 -157.60203 
L 369.501809 -158.448447 
L 370.821457 -159.282048 
L 372.141106 -160.110426 
L 373.460754 -160.941638 
L 374.780402 -161.783245 
L 376.10005 -162.643388 
L 377.419698 -163.530378 
L 378.739346 -164.451387 
L 380.058994 -165.413289 
L 381.378642 -166.423669 
L 382.69829 -167.489305 
L 384.017938 -168.61654 
L 385.337587 -169.810473 
L 386.657235 -171.074426 
L 387.976883 -172.410836 
L 389.296531 -173.821615 
L 390.616179 -175.307498 
L 391.935827 -176.869641 
L 393.255475 -178.509161 
L 394.575123 -180.225477 
L 395.894771 -182.016022 
L 397.214419 -183.876048 
L 398.534067 -185.797767 
L 399.853716 -187.771384 
L 401.173364 -189.785775 
L 401.173364 -277.519609 
L 401.173364 -277.519609 
L 399.853716 -274.37371 
L 398.534067 -271.213714 
L 397.214419 -268.050439 
L 395.894771 -264.891258 
L 394.575123 -261.744302 
L 393.255475 -258.617711 
L 391.935827 -255.516092 
L 390.616179 -252.447437 
L 389.296531 -249.42089 
L 387.976883 -246.445944 
L 386.657235 -243.531699 
L 385.337587 -240.68637 
L 384.017938 -237.917865 
L 382.69829 -235.232744 
L 381.378642 -232.63754 
L 380.058994 -230.137278 
L 378.739346 -227.737579 
L 377.419698 -225.441566 
L 376.10005 -223.254003 
L 374.780402 -221.178543 
L 373.460754 -219.219588 
L 372.141106 -217.380581 
L 370.821457 -215.664137 
L 369.501809 -214.072302 
L 368.182161 -212.606551 
L 366.862513 -211.26838 
L 365.542865 -210.057493 
L 364.223217 -208.972328 
L 362.903569 -208.008674 
L 361.583921 -207.159076 
L 360.264273 -206.414715 
L 358.944625 -205.764106 
L 357.624977 -205.193813 
L 356.305328 -204.689404 
L 354.98568 -204.23495 
L 353.666032 -203.81488 
L 352.346384 -203.413344 
L 351.026736 -203.014086 
L 349.707088 -202.601088 
L 348.38744 -202.159473 
L 347.067792 -201.677433 
L 345.748144 -201.146543 
L 344.428496 -200.56291 
L 343.108848 -199.927627 
L 341.789199 -199.24625 
L 340.469551 -198.528356 
L 339.149903 -197.784887 
L 337.830255 -197.028678 
L 336.510607 -196.272294 
L 335.190959 -195.527939 
L 333.871311 -194.806414 
L 332.551663 -194.117393 
L 331.232015 -193.469659 
L 329.912367 -192.871583 
L 328.592718 -192.331045 
L 327.27307 -191.856044 
L 325.953422 -191.454377 
L 324.633774 -191.1327 
L 323.314126 -190.895108 
L 321.994478 -190.743237 
L 320.67483 -190.67579 
L 319.355182 -190.688418 
L 318.035534 -190.77407 
L 316.715886 -190.923755 
L 315.396238 -191.128322 
L 314.076589 -191.378331 
L 312.756941 -191.664228 
L 311.437293 -191.975457 
L 310.117645 -192.301825 
L 308.797997 -192.631302 
L 307.478349 -192.949474 
L 306.158701 -193.241035 
L 304.839053 -193.4905 
L 303.519405 -193.680125 
L 302.199757 -193.793593 
L 300.880109 -193.817404 
L 299.56046 -193.740858 
L 298.240812 -193.558991 
L 296.921164 -193.274392 
L 295.601516 -192.895992 
L 294.281868 -192.438861 
L 292.96222 -191.922373 
L 291.642572 -191.366947 
L 290.322924 -190.791392 
L 289.003276 -190.21085 
L 287.683628 -189.634834 
L 286.363979 -189.067533 
L 285.044331 -188.509023 
L 283.724683 -187.956462 
L 282.405035 -187.40652 
L 281.085387 -186.85698 
L 279.765739 -186.306837 
L 278.446091 -185.756761 
L 277.126443 -185.2078 
L 275.806795 -184.661248 
L 274.487147 -184.119948 
L 273.167499 -183.587596 
L 271.84785 -183.068202 
L 270.528202 -182.5657 
L 269.208554 -182.081321 
L 267.888906 -181.614902 
L 266.569258 -181.166668 
L 265.24961 -180.738571 
L 263.929962 -180.334771 
L 262.610314 -179.961222 
L 261.290666 -179.625291 
L 259.971018 -179.333717 
L 258.65137 -179.092569 
L 257.331721 -178.906415 
L 256.012073 -178.778353 
L 254.692425 -178.709905 
L 253.372777 -178.701388 
L 252.053129 -178.750691 
L 250.733481 -178.853358 
L 249.413833 -179.001595 
L 248.094185 -179.185309 
L 246.774537 -179.392649 
L 245.454889 -179.610035 
L 244.13524 -179.825062 
L 242.815592 -180.028649 
L 241.495944 -180.214125 
L 240.176296 -180.375736 
L 238.856648 -180.511302 
L 237.537 -180.618806 
L 236.217352 -180.696074 
L 234.897704 -180.74134 
L 233.578056 -180.754275 
L 232.258408 -180.73536 
L 230.93876 -180.684755 
L 229.619111 -180.605889 
L 228.299463 -180.502332 
L 226.979815 -180.378223 
L 225.660167 -180.238825 
L 224.340519 -180.090728 
L 223.020871 -179.943078 
L 221.701223 -179.805157 
L 220.381575 -179.687457 
L 219.061927 -179.600724 
L 217.742279 -179.553729 
L 216.42263 -179.556364 
L 215.102982 -179.614492 
L 213.783334 -179.732467 
L 212.463686 -179.910214 
L 211.144038 -180.143375 
L 209.82439 -180.423986 
L 208.504742 -180.740738 
L 207.185094 -181.081929 
L 205.865446 -181.434903 
L 204.545798 -181.787539 
L 203.22615 -182.128959 
L 201.906501 -182.450682 
L 200.586853 -182.746374 
L 199.267205 -183.011926 
L 197.947557 -183.244286 
L 196.627909 -183.44098 
L 195.308261 -183.600246 
L 193.988613 -183.720381 
L 192.668965 -183.801471 
L 191.349317 -183.845723 
L 190.029669 -183.858063 
L 188.710021 -183.844399 
L 187.390372 -183.809814 
L 186.070724 -183.756463 
L 184.751076 -183.682597 
L 183.431428 -183.583565 
L 182.11178 -183.454436 
L 180.792132 -183.292768 
L 179.472484 -183.097504 
L 178.152836 -182.866542 
L 176.833188 -182.596111 
L 175.51354 -182.280769 
L 174.193891 -181.916313 
L 172.874243 -181.504273 
L 171.554595 -181.053783 
L 170.234947 -180.578666 
L 168.915299 -180.093643 
L 167.595651 -179.610877 
L 166.276003 -179.140538 
L 164.956355 -178.691309 
L 163.636707 -178.272576 
L 162.317059 -177.892898 
L 160.997411 -177.560927 
L 159.677762 -177.284152 
L 158.358114 -177.06868 
L 157.038466 -176.918678 
L 155.718818 -176.83802 
L 154.39917 -176.829482 
L 153.079522 -176.894835 
L 151.759874 -177.035168 
L 150.440226 -177.250402 
L 149.120578 -177.53947 
L 147.80093 -177.897858 
L 146.481282 -178.318768 
L 145.161633 -178.791122 
L 143.841985 -179.300711 
L 142.522337 -179.830767 
L 141.202689 -180.361476 
L 139.883041 -180.87148 
L 138.563393 -181.338487 
L 137.243745 -181.74077 
L 135.924097 -182.058056 
L 134.604449 -182.272539 
L 133.284801 -182.370189 
L 131.965152 -182.340723 
L 130.645504 -182.177508 
L 129.325856 -181.877562 
L 128.006208 -181.440374 
L 126.68656 -180.868755 
L 125.366912 -180.16807 
L 124.047264 -179.346499 
L 122.727616 -178.414901 
L 121.407968 -177.385845 
L 120.08832 -176.272601 
L 118.768672 -175.088399 
L 117.449023 -173.845365 
L 116.129375 -172.554909 
L 114.809727 -171.227918 
L 113.490079 -169.874309 
L 112.170431 -168.506717 
L 110.850783 -167.138135 
L 109.531135 -165.785031 
L 108.211487 -164.46607 
L 106.891839 -163.203601 
L 105.572191 -162.022635 
L 104.252543 -160.952746 
L 102.932894 -160.024121 
L 101.613246 -159.26662 
L 100.293598 -158.706949 
L 98.97395 -158.365947 
L 97.654302 -158.257814 
L 96.334654 -158.388471 
L 95.015006 -158.759757 
L 93.695358 -159.370392 
L 92.37571 -160.217639 
L 91.056062 -161.298816 
L 89.736413 -162.61179 
L 88.416765 -164.155565 
L 87.097117 -165.928066 
L 85.777469 -167.923479 
L 84.457821 -170.129981 
L 83.138173 -172.528761 
L 81.818525 -175.094482 
L 80.498877 -177.795829 
L 79.179229 -180.598152 
L 77.859581 -183.467413 
L 76.539933 -186.371985 
L 75.220284 -189.284687 
L 73.900636 -192.186012 
z
" style="stroke: #000080; stroke-opacity: 0.2"/>
    </defs>
    <g clip-path="url(#p4d87936c5a)">
     <use xlink:href="#mdaaef3351b" x="0" y="297.395336" style="fill: #000080; fill-opacity: 0.2; stroke: #000080; stroke-opacity: 0.2"/>
    </g>
   </g>
   <g id="line2d_1">
    <path d="M 73.900636 7.404366 
L 77.859581 15.770587 
L 80.498877 20.71332 
L 83.138173 24.879305 
L 84.457821 26.628069 
L 85.777469 28.147635 
L 87.097117 29.443671 
L 88.416765 30.529866 
L 89.736413 31.425991 
L 91.056062 32.154886 
L 92.37571 32.739042 
L 95.015006 33.544389 
L 97.654302 33.922482 
L 98.97395 33.948103 
L 100.293598 33.852858 
L 101.613246 33.626324 
L 102.932894 33.259827 
L 104.252543 32.749887 
L 105.572191 32.100681 
L 108.211487 30.447089 
L 116.129375 24.856259 
L 118.768672 23.567858 
L 121.407968 22.668737 
L 129.325856 20.523042 
L 131.965152 19.289607 
L 133.284801 18.48386 
L 135.924097 16.471539 
L 138.563393 13.980237 
L 141.202689 11.137102 
L 151.81061 -1 
L 151.81061 -1 
" clip-path="url(#p4d87936c5a)" style="fill: none; stroke-dasharray: 5.55,2.4; stroke-dashoffset: 0; stroke: #000080; stroke-width: 1.5"/>
   </g>
   <g id="line2d_2">
    <path d="M 73.900636 128.852881 
L 79.179229 137.347319 
L 81.818525 141.234469 
L 84.457821 144.696058 
L 87.097117 147.61063 
L 88.416765 148.837857 
L 89.736413 149.905887 
L 91.056062 150.814695 
L 92.37571 151.56663 
L 93.695358 152.1647 
L 95.015006 152.613358 
L 96.334654 152.918442 
L 97.654302 153.087227 
L 98.97395 153.128587 
L 101.613246 152.873611 
L 104.252543 152.263105 
L 106.891839 151.415948 
L 110.850783 149.894518 
L 117.449023 147.057338 
L 124.047264 144.251864 
L 128.006208 142.787478 
L 131.965152 141.598864 
L 135.924097 140.718686 
L 139.883041 140.134171 
L 145.161633 139.640836 
L 154.39917 138.798244 
L 159.677762 138.070131 
L 163.636707 137.291625 
L 168.915299 135.956371 
L 176.833188 133.857311 
L 183.431428 132.42667 
L 188.710021 131.489832 
L 192.668965 130.976113 
L 196.627909 130.746687 
L 200.586853 130.845107 
L 204.545798 131.256439 
L 208.504742 131.953201 
L 212.463686 132.888232 
L 217.742279 134.365413 
L 225.660167 136.815294 
L 232.258408 138.874104 
L 236.217352 139.836956 
L 238.856648 140.258049 
L 241.495944 140.48252 
L 245.454889 140.510164 
L 250.733481 140.197177 
L 258.65137 139.412152 
L 266.569258 138.396622 
L 271.84785 137.475289 
L 277.126443 136.276009 
L 282.405035 134.767915 
L 295.601516 130.662414 
L 298.240812 130.113472 
L 300.880109 129.797458 
L 303.519405 129.731258 
L 306.158701 129.892091 
L 310.117645 130.449877 
L 321.994478 132.552176 
L 324.633774 132.77291 
L 327.27307 132.816065 
L 329.912367 132.655837 
L 332.551663 132.272775 
L 335.190959 131.651506 
L 337.830255 130.787911 
L 340.469551 129.698542 
L 344.428496 127.729522 
L 349.707088 124.748024 
L 356.305328 120.777141 
L 361.583921 117.341455 
L 365.542865 114.445743 
L 368.182161 112.291046 
L 370.821457 109.922243 
L 373.460754 107.314723 
L 376.10005 104.44664 
L 378.739346 101.300853 
L 381.378642 97.864732 
L 384.017938 94.128133 
L 386.657235 90.092273 
L 390.616179 83.517868 
L 394.575123 76.410447 
L 399.853716 66.322789 
L 401.173364 63.742644 
L 401.173364 63.742644 
" clip-path="url(#p4d87936c5a)" style="fill: none; stroke: #000080; stroke-width: 1.5; stroke-linecap: round"/>
   </g>
   <g id="patch_3">
    <path d="M 57.537 248.822336 
L 57.537 26.3301 
" style="fill: none; stroke: #ffffff; stroke-width: 1.25; stroke-linejoin: miter; stroke-linecap: square"/>
   </g>
   <g id="patch_4">
    <path d="M 417.537 248.822336 
L 417.537 26.3301 
" style="fill: none; stroke: #ffffff; stroke-width: 1.25; stroke-linejoin: miter; stroke-linecap: square"/>
   </g>
   <g id="patch_5">
    <path d="M 57.537 248.822336 
L 417.537 248.822336 
" style="fill: none; stroke: #ffffff; stroke-width: 1.25; stroke-linejoin: miter; stroke-linecap: square"/>
   </g>
   <g id="patch_6">
    <path d="M 57.537 26.3301 
L 417.537 26.3301 
" style="fill: none; stroke: #ffffff; stroke-width: 1.25; stroke-linejoin: miter; stroke-linecap: square"/>
   </g>
   <g id="text_14">
    <!-- Z2 -->
    <g style="fill: #262626" transform="translate(226.1214 20.3301) scale(0.1728 -0.1728)">
     <defs>
      <path id="DejaVuSans-5a" d="M 359 4666 
L 4025 4666 
L 4025 4184 
L 1075 531 
L 4097 531 
L 4097 0 
L 288 0 
L 288 481 
L 3238 4134 
L 359 4134 
L 359 4666 
z
" transform="scale(0.015625)"/>
     </defs>
     <use xlink:href="#DejaVuSans-5a"/>
     <use xlink:href="#DejaVuSans-32" transform="translate(68.505859 0)"/>
    </g>
   </g>
   <g id="legend_1">
    <g id="patch_7">
     <path d="M 67.617 241.622336 
L 305.10675 241.622336 
Q 307.98675 241.622336 307.98675 238.742336 
L 307.98675 197.909336 
Q 307.98675 195.029336 305.10675 195.029336 
L 67.617 195.029336 
Q 64.737 195.029336 64.737 197.909336 
L 64.737 238.742336 
Q 64.737 241.622336 67.617 241.622336 
z
" style="fill: #eaeaf2; opacity: 0.8; stroke: #cccccc; stroke-linejoin: miter"/>
    </g>
    <g id="line2d_3">
     <path d="M 70.497 206.691086 
L 84.897 206.691086 
L 99.297 206.691086 
" style="fill: none; stroke-dasharray: 5.55,2.4; stroke-dashoffset: 0; stroke: #000080; stroke-width: 1.5"/>
    </g>
    <g id="text_15">
     <!-- SurfML - No Regularization -->
     <g style="fill: #262626" transform="translate(110.817 211.731086) scale(0.144 -0.144)">
      <defs>
       <path id="DejaVuSans-75" d="M 544 1381 
L 544 3500 
L 1119 3500 
L 1119 1403 
Q 1119 906 1312 657 
Q 1506 409 1894 409 
Q 2359 409 2629 706 
Q 2900 1003 2900 1516 
L 2900 3500 
L 3475 3500 
L 3475 0 
L 2900 0 
L 2900 538 
Q 2691 219 2414 64 
Q 2138 -91 1772 -91 
Q 1169 -91 856 284 
Q 544 659 544 1381 
z
M 1991 3584 
L 1991 3584 
z
" transform="scale(0.015625)"/>
       <path id="DejaVuSans-72" d="M 2631 2963 
Q 2534 3019 2420 3045 
Q 2306 3072 2169 3072 
Q 1681 3072 1420 2755 
Q 1159 2438 1159 1844 
L 1159 0 
L 581 0 
L 581 3500 
L 1159 3500 
L 1159 2956 
Q 1341 3275 1631 3429 
Q 1922 3584 2338 3584 
Q 2397 3584 2469 3576 
Q 2541 3569 2628 3553 
L 2631 2963 
z
" transform="scale(0.015625)"/>
       <path id="DejaVuSans-66" d="M 2375 4863 
L 2375 4384 
L 1825 4384 
Q 1516 4384 1395 4259 
Q 1275 4134 1275 3809 
L 1275 3500 
L 2222 3500 
L 2222 3053 
L 1275 3053 
L 1275 0 
L 697 0 
L 697 3053 
L 147 3053 
L 147 3500 
L 697 3500 
L 697 3744 
Q 697 4328 969 4595 
Q 1241 4863 1831 4863 
L 2375 4863 
z
" transform="scale(0.015625)"/>
       <path id="DejaVuSans-4c" d="M 628 4666 
L 1259 4666 
L 1259 531 
L 3531 531 
L 3531 0 
L 628 0 
L 628 4666 
z
" transform="scale(0.015625)"/>
       <path id="DejaVuSans-2d" d="M 313 2009 
L 1997 2009 
L 1997 1497 
L 313 1497 
L 313 2009 
z
" transform="scale(0.015625)"/>
       <path id="DejaVuSans-4e" d="M 628 4666 
L 1478 4666 
L 3547 763 
L 3547 4666 
L 4159 4666 
L 4159 0 
L 3309 0 
L 1241 3903 
L 1241 0 
L 628 0 
L 628 4666 
z
" transform="scale(0.015625)"/>
       <path id="DejaVuSans-6f" d="M 1959 3097 
Q 1497 3097 1228 2736 
Q 959 2375 959 1747 
Q 959 1119 1226 758 
Q 1494 397 1959 397 
Q 2419 397 2687 759 
Q 2956 1122 2956 1747 
Q 2956 2369 2687 2733 
Q 2419 3097 1959 3097 
z
M 1959 3584 
Q 2709 3584 3137 3096 
Q 3566 2609 3566 1747 
Q 3566 888 3137 398 
Q 2709 -91 1959 -91 
Q 1206 -91 779 398 
Q 353 888 353 1747 
Q 353 2609 779 3096 
Q 1206 3584 1959 3584 
z
" transform="scale(0.015625)"/>
       <path id="DejaVuSans-67" d="M 2906 1791 
Q 2906 2416 2648 2759 
Q 2391 3103 1925 3103 
Q 1463 3103 1205 2759 
Q 947 2416 947 1791 
Q 947 1169 1205 825 
Q 1463 481 1925 481 
Q 2391 481 2648 825 
Q 2906 1169 2906 1791 
z
M 3481 434 
Q 3481 -459 3084 -895 
Q 2688 -1331 1869 -1331 
Q 1566 -1331 1297 -1286 
Q 1028 -1241 775 -1147 
L 775 -588 
Q 1028 -725 1275 -790 
Q 1522 -856 1778 -856 
Q 2344 -856 2625 -561 
Q 2906 -266 2906 331 
L 2906 616 
Q 2728 306 2450 153 
Q 2172 0 1784 0 
Q 1141 0 747 490 
Q 353 981 353 1791 
Q 353 2603 747 3093 
Q 1141 3584 1784 3584 
Q 2172 3584 2450 3431 
Q 2728 3278 2906 2969 
L 2906 3500 
L 3481 3500 
L 3481 434 
z
" transform="scale(0.015625)"/>
       <path id="DejaVuSans-6c" d="M 603 4863 
L 1178 4863 
L 1178 0 
L 603 0 
L 603 4863 
z
" transform="scale(0.015625)"/>
       <path id="DejaVuSans-7a" d="M 353 3500 
L 3084 3500 
L 3084 2975 
L 922 459 
L 3084 459 
L 3084 0 
L 275 0 
L 275 525 
L 2438 3041 
L 353 3041 
L 353 3500 
z
" transform="scale(0.015625)"/>
       <path id="DejaVuSans-74" d="M 1172 4494 
L 1172 3500 
L 2356 3500 
L 2356 3053 
L 1172 3053 
L 1172 1153 
Q 1172 725 1289 603 
Q 1406 481 1766 481 
L 2356 481 
L 2356 0 
L 1766 0 
Q 1100 0 847 248 
Q 594 497 594 1153 
L 594 3053 
L 172 3053 
L 172 3500 
L 594 3500 
L 594 4494 
L 1172 4494 
z
" transform="scale(0.015625)"/>
      </defs>
      <use xlink:href="#DejaVuSans-53"/>
      <use xlink:href="#DejaVuSans-75" transform="translate(63.476562 0)"/>
      <use xlink:href="#DejaVuSans-72" transform="translate(126.855469 0)"/>
      <use xlink:href="#DejaVuSans-66" transform="translate(167.96875 0)"/>
      <use xlink:href="#DejaVuSans-4d" transform="translate(203.173828 0)"/>
      <use xlink:href="#DejaVuSans-4c" transform="translate(289.453125 0)"/>
      <use xlink:href="#DejaVuSans-20" transform="translate(345.166016 0)"/>
      <use xlink:href="#DejaVuSans-2d" transform="translate(376.953125 0)"/>
      <use xlink:href="#DejaVuSans-20" transform="translate(413.037109 0)"/>
      <use xlink:href="#DejaVuSans-4e" transform="translate(444.824219 0)"/>
      <use xlink:href="#DejaVuSans-6f" transform="translate(519.628906 0)"/>
      <use xlink:href="#DejaVuSans-20" transform="translate(580.810547 0)"/>
      <use xlink:href="#DejaVuSans-52" transform="translate(612.597656 0)"/>
      <use xlink:href="#DejaVuSans-65" transform="translate(677.580078 0)"/>
      <use xlink:href="#DejaVuSans-67" transform="translate(739.103516 0)"/>
      <use xlink:href="#DejaVuSans-75" transform="translate(802.580078 0)"/>
      <use xlink:href="#DejaVuSans-6c" transform="translate(865.958984 0)"/>
      <use xlink:href="#DejaVuSans-61" transform="translate(893.742188 0)"/>
      <use xlink:href="#DejaVuSans-72" transform="translate(955.021484 0)"/>
      <use xlink:href="#DejaVuSans-69" transform="translate(996.134766 0)"/>
      <use xlink:href="#DejaVuSans-7a" transform="translate(1023.917969 0)"/>
      <use xlink:href="#DejaVuSans-61" transform="translate(1076.408203 0)"/>
      <use xlink:href="#DejaVuSans-74" transform="translate(1137.6875 0)"/>
      <use xlink:href="#DejaVuSans-69" transform="translate(1176.896484 0)"/>
      <use xlink:href="#DejaVuSans-6f" transform="translate(1204.679688 0)"/>
      <use xlink:href="#DejaVuSans-6e" transform="translate(1265.861328 0)"/>
     </g>
    </g>
    <g id="line2d_4">
     <path d="M 70.497 227.827586 
L 84.897 227.827586 
L 99.297 227.827586 
" style="fill: none; stroke: #000080; stroke-width: 1.5; stroke-linecap: round"/>
    </g>
    <g id="text_16">
     <!-- SurfML -->
     <g style="fill: #262626" transform="translate(110.817 232.867586) scale(0.144 -0.144)">
      <use xlink:href="#DejaVuSans-53"/>
      <use xlink:href="#DejaVuSans-75" transform="translate(63.476562 0)"/>
      <use xlink:href="#DejaVuSans-72" transform="translate(126.855469 0)"/>
      <use xlink:href="#DejaVuSans-66" transform="translate(167.96875 0)"/>
      <use xlink:href="#DejaVuSans-4d" transform="translate(203.173828 0)"/>
      <use xlink:href="#DejaVuSans-4c" transform="translate(289.453125 0)"/>
     </g>
    </g>
   </g>
  </g>
  <g id="axes_2">
   <g id="patch_8">
    <path d="M 424.737 248.822336 
L 784.737 248.822336 
L 784.737 26.3301 
L 424.737 26.3301 
z
" style="fill: #eaeaf2"/>
   </g>
   <g id="matplotlib.axis_3">
    <g id="xtick_6">
     <g id="text_17">
      <!-- 0 -->
      <g style="fill: #262626" transform="translate(435.859812 269.264086) scale(0.144 -0.144)">
       <use xlink:href="#DejaVuSans-30"/>
      </g>
     </g>
    </g>
    <g id="xtick_7">
     <g id="text_18">
      <!-- 5 -->
      <g style="fill: #262626" transform="translate(515.038698 269.264086) scale(0.144 -0.144)">
       <use xlink:href="#DejaVuSans-35"/>
      </g>
     </g>
    </g>
    <g id="xtick_8">
     <g id="text_19">
      <!-- 10 -->
      <g style="fill: #262626" transform="translate(589.636584 269.264086) scale(0.144 -0.144)">
       <use xlink:href="#DejaVuSans-31"/>
       <use xlink:href="#DejaVuSans-30" transform="translate(63.623047 0)"/>
      </g>
     </g>
    </g>
    <g id="xtick_9">
     <g id="text_20">
      <!-- 15 -->
      <g style="fill: #262626" transform="translate(668.815469 269.264086) scale(0.144 -0.144)">
       <use xlink:href="#DejaVuSans-31"/>
       <use xlink:href="#DejaVuSans-35" transform="translate(63.623047 0)"/>
      </g>
     </g>
    </g>
    <g id="xtick_10">
     <g id="text_21">
      <!-- 20 -->
      <g style="fill: #262626" transform="translate(747.994355 269.264086) scale(0.144 -0.144)">
       <use xlink:href="#DejaVuSans-32"/>
       <use xlink:href="#DejaVuSans-30" transform="translate(63.623047 0)"/>
      </g>
     </g>
    </g>
    <g id="text_22">
     <!-- Time [days] -->
     <g style="fill: #262626" transform="translate(562.21875 287.200586) scale(0.144 -0.144)">
      <use xlink:href="#DejaVuSans-54"/>
      <use xlink:href="#DejaVuSans-69" transform="translate(57.958984 0)"/>
      <use xlink:href="#DejaVuSans-6d" transform="translate(85.742188 0)"/>
      <use xlink:href="#DejaVuSans-65" transform="translate(183.154297 0)"/>
      <use xlink:href="#DejaVuSans-20" transform="translate(244.677734 0)"/>
      <use xlink:href="#DejaVuSans-5b" transform="translate(276.464844 0)"/>
      <use xlink:href="#DejaVuSans-64" transform="translate(315.478516 0)"/>
      <use xlink:href="#DejaVuSans-61" transform="translate(378.955078 0)"/>
      <use xlink:href="#DejaVuSans-79" transform="translate(440.234375 0)"/>
      <use xlink:href="#DejaVuSans-73" transform="translate(499.414062 0)"/>
      <use xlink:href="#DejaVuSans-5d" transform="translate(551.513672 0)"/>
     </g>
    </g>
   </g>
   <g id="matplotlib.axis_4">
    <g id="ytick_7"/>
    <g id="ytick_8"/>
    <g id="ytick_9"/>
    <g id="ytick_10"/>
    <g id="ytick_11"/>
    <g id="ytick_12"/>
   </g>
   <g id="FillBetweenPolyCollection_3">
    <defs>
     <path id="m256fff3e20" d="M 441.100636 -191.350756 
L 441.100636 -160.269159 
L 442.420284 -157.356813 
L 443.739933 -154.606819 
L 445.059581 -152.048566 
L 446.379229 -149.709799 
L 447.698877 -147.615103 
L 449.018525 -145.784163 
L 450.338173 -144.229794 
L 451.657821 -142.955837 
L 452.977469 -141.955905 
L 454.297117 -141.212784 
L 455.616765 -140.698204 
L 456.936413 -140.37425 
L 458.256062 -140.195427 
L 459.57571 -140.111652 
L 460.895358 -140.07116 
L 462.215006 -140.022449 
L 463.534654 -139.916944 
L 464.854302 -139.710842 
L 466.17395 -139.366166 
L 467.493598 -138.852135 
L 468.813246 -138.14489 
L 470.132894 -137.228396 
L 471.452543 -136.094013 
L 472.772191 -134.741489 
L 474.091839 -133.179016 
L 475.411487 -131.422948 
L 476.731135 -129.50059 
L 478.050783 -127.447323 
L 479.370431 -125.309414 
L 480.690079 -123.142036 
L 482.009727 -121.011409 
L 483.329375 -118.993167 
L 484.649023 -117.174007 
L 485.968672 -115.648043 
L 487.28832 -114.514038 
L 488.607968 -113.869769 
L 489.927616 -113.802016 
L 491.247264 -114.377524 
L 492.566912 -115.633067 
L 493.88656 -117.569956 
L 495.206208 -120.154821 
L 496.525856 -123.323713 
L 497.845504 -126.990898 
L 499.165152 -131.059627 
L 500.484801 -135.431157 
L 501.804449 -140.010954 
L 503.124097 -144.710368 
L 504.443745 -149.449075 
L 505.763393 -154.1551 
L 507.083041 -158.763992 
L 508.402689 -163.217706 
L 509.722337 -167.464464 
L 511.041985 -171.457328 
L 512.361633 -175.154594 
L 513.681282 -178.51939 
L 515.00093 -181.519763 
L 516.320578 -184.129622 
L 517.640226 -186.328044 
L 518.959874 -188.099532 
L 520.279522 -189.434369 
L 521.59917 -190.328895 
L 522.918818 -190.785211 
L 524.238466 -190.811477 
L 525.558114 -190.423074 
L 526.877762 -189.642245 
L 528.197411 -188.498107 
L 529.517059 -187.026468 
L 530.836707 -185.269458 
L 532.156355 -183.275791 
L 533.476003 -181.099978 
L 534.795651 -178.801289 
L 536.115299 -176.443225 
L 537.434947 -174.092068 
L 538.754595 -171.815528 
L 540.074243 -169.681893 
L 541.393891 -167.756895 
L 542.71354 -166.101801 
L 544.033188 -164.771413 
L 545.352836 -163.810901 
L 546.672484 -163.254279 
L 547.992132 -163.123338 
L 549.31178 -163.42566 
L 550.631428 -164.155246 
L 551.951076 -165.291983 
L 553.270724 -166.803339 
L 554.590372 -168.646058 
L 555.910021 -170.769183 
L 557.229669 -173.116085 
L 558.549317 -175.627222 
L 559.868965 -178.241537 
L 561.188613 -180.898513 
L 562.508261 -183.539177 
L 563.827909 -186.107131 
L 565.147557 -188.54919 
L 566.467205 -190.815913 
L 567.786853 -192.862434 
L 569.106501 -194.647917 
L 570.42615 -196.13651 
L 571.745798 -197.29671 
L 573.065446 -198.102189 
L 574.385094 -198.531491 
L 575.704742 -198.568621 
L 577.02439 -198.202457 
L 578.344038 -197.427036 
L 579.663686 -196.241301 
L 580.983334 -194.649634 
L 582.302982 -192.66078 
L 583.62263 -190.288307 
L 584.942279 -187.550517 
L 586.261927 -184.468458 
L 587.581575 -181.068133 
L 588.901223 -177.377833 
L 590.220871 -173.430189 
L 591.540519 -169.261161 
L 592.860167 -164.911208 
L 594.179815 -160.426771 
L 595.499463 -155.863053 
L 596.819111 -151.289495 
L 598.13876 -146.796411 
L 599.458408 -142.501303 
L 600.778056 -138.551393 
L 602.097704 -135.116303 
L 603.417352 -132.369497 
L 604.737 -130.459553 
L 606.056648 -129.481179 
L 607.376296 -129.457951 
L 608.695944 -130.344541 
L 610.015592 -132.043197 
L 611.33524 -134.426894 
L 612.654889 -137.359421 
L 613.974537 -140.709803 
L 615.294185 -144.35761 
L 616.613833 -148.194918 
L 617.933481 -152.128758 
L 619.253129 -156.075875 
L 620.572777 -159.963374 
L 621.892425 -163.727249 
L 623.212073 -167.311451 
L 624.531721 -170.667739 
L 625.85137 -173.75511 
L 627.171018 -176.538818 
L 628.490666 -178.99049 
L 629.810314 -181.087588 
L 631.129962 -182.813477 
L 632.44961 -184.158406 
L 633.769258 -185.119475 
L 635.088906 -185.699456 
L 636.408554 -185.907025 
L 637.728202 -185.756927 
L 639.04785 -185.268466 
L 640.367499 -184.466746 
L 641.687147 -183.382502 
L 643.006795 -182.051033 
L 644.326443 -180.512202 
L 645.646091 -178.809348 
L 646.965739 -176.988858 
L 648.285387 -175.09913 
L 649.605035 -173.190125 
L 650.924683 -171.313024 
L 652.244331 -169.518007 
L 653.563979 -167.852014 
L 654.883628 -166.358411 
L 656.203276 -165.075085 
L 657.522924 -164.03339 
L 658.842572 -163.256337 
L 660.16222 -162.757143 
L 661.481868 -162.538236 
L 662.801516 -162.591553 
L 664.121164 -162.899147 
L 665.440812 -163.434949 
L 666.76046 -164.16644 
L 668.080109 -165.05673 
L 669.399757 -166.066748 
L 670.719405 -167.157246 
L 672.039053 -168.289987 
L 673.358701 -169.428135 
L 674.678349 -170.536291 
L 675.997997 -171.580292 
L 677.317645 -172.527489 
L 678.637293 -173.347196 
L 679.956941 -174.010433 
L 681.276589 -174.4905 
L 682.596238 -174.763648 
L 683.915886 -174.809416 
L 685.235534 -174.611641 
L 686.555182 -174.159231 
L 687.87483 -173.445664 
L 689.194478 -172.469862 
L 690.514126 -171.236079 
L 691.833774 -169.754217 
L 693.153422 -168.04065 
L 694.47307 -166.117917 
L 695.792718 -164.014141 
L 697.112367 -161.763286 
L 698.432015 -159.405294 
L 699.751663 -156.986068 
L 701.071311 -154.557541 
L 702.390959 -152.176839 
L 703.710607 -149.906021 
L 705.030255 -147.811164 
L 706.349903 -145.960885 
L 707.669551 -144.424242 
L 708.989199 -143.267817 
L 710.308848 -142.551833 
L 711.628496 -142.326113 
L 712.948144 -142.626111 
L 714.267792 -143.468994 
L 715.58744 -144.851337 
L 716.907088 -146.749233 
L 718.226736 -149.120307 
L 719.546384 -151.908112 
L 720.866032 -155.045815 
L 722.18568 -158.460751 
L 723.505328 -162.078312 
L 724.824977 -165.825104 
L 726.144625 -169.631691 
L 727.464273 -173.434468 
L 728.783921 -177.177713 
L 730.103569 -180.813778 
L 731.423217 -184.303616 
L 732.742865 -187.616199 
L 734.062513 -190.728068 
L 735.382161 -193.623343 
L 736.701809 -196.292199 
L 738.021457 -198.729672 
L 739.341106 -200.934779 
L 740.660754 -202.910391 
L 741.980402 -204.662567 
L 743.30005 -206.200538 
L 744.619698 -207.536344 
L 745.939346 -208.684148 
L 747.258994 -209.660403 
L 748.578642 -210.483294 
L 749.89829 -211.172668 
L 751.217938 -211.748448 
L 752.537587 -212.231505 
L 753.857235 -212.642934 
L 755.176883 -213.003435 
L 756.496531 -213.333184 
L 757.816179 -213.651087 
L 759.135827 -213.973927 
L 760.455475 -214.316297 
L 761.775123 -214.691617 
L 763.094771 -215.110748 
L 764.414419 -215.582585 
L 765.734067 -216.113663 
L 767.053716 -216.708513 
L 768.373364 -217.369387 
L 768.373364 -239.654038 
L 768.373364 -239.654038 
L 767.053716 -239.768961 
L 765.734067 -239.977478 
L 764.414419 -240.267628 
L 763.094771 -240.623989 
L 761.775123 -241.027989 
L 760.455475 -241.457897 
L 759.135827 -241.88953 
L 757.816179 -242.296007 
L 756.496531 -242.648925 
L 755.176883 -242.919053 
L 753.857235 -243.076833 
L 752.537587 -243.092736 
L 751.217938 -242.938819 
L 749.89829 -242.589053 
L 748.578642 -242.020424 
L 747.258994 -241.213434 
L 745.939346 -240.152682 
L 744.619698 -238.82691 
L 743.30005 -237.229591 
L 741.980402 -235.359902 
L 740.660754 -233.222879 
L 739.341106 -230.829454 
L 738.021457 -228.19665 
L 736.701809 -225.347554 
L 735.382161 -222.310764 
L 734.062513 -219.119655 
L 732.742865 -215.812184 
L 731.423217 -212.430076 
L 730.103569 -209.017486 
L 728.783921 -205.619713 
L 727.464273 -202.282358 
L 726.144625 -199.050774 
L 724.824977 -195.969305 
L 723.505328 -193.081145 
L 722.18568 -190.428066 
L 720.866032 -188.050391 
L 719.546384 -185.986353 
L 718.226736 -184.27131 
L 716.907088 -182.936057 
L 715.58744 -182.005026 
L 714.267792 -181.494653 
L 712.948144 -181.41256 
L 711.628496 -181.756673 
L 710.308848 -182.514412 
L 708.989199 -183.662411 
L 707.669551 -185.166656 
L 706.349903 -186.983556 
L 705.030255 -189.061902 
L 703.710607 -191.346378 
L 702.390959 -193.778625 
L 701.071311 -196.299696 
L 699.751663 -198.851545 
L 698.432015 -201.378258 
L 697.112367 -203.827649 
L 695.792718 -206.152504 
L 694.47307 -208.311082 
L 693.153422 -210.267353 
L 691.833774 -211.991673 
L 690.514126 -213.460313 
L 689.194478 -214.656275 
L 687.87483 -215.570275 
L 686.555182 -216.20029 
L 685.235534 -216.551903 
L 683.915886 -216.63867 
L 682.596238 -216.481246 
L 681.276589 -216.108349 
L 679.956941 -215.556504 
L 678.637293 -214.8695 
L 677.317645 -214.098204 
L 675.997997 -213.300071 
L 674.678349 -212.537827 
L 673.358701 -211.878045 
L 672.039053 -211.388473 
L 670.719405 -211.135439 
L 669.399757 -211.18061 
L 668.080109 -211.577587 
L 666.76046 -212.369375 
L 665.440812 -213.586088 
L 664.121164 -215.243551 
L 662.801516 -217.342822 
L 661.481868 -219.871138 
L 660.16222 -222.802269 
L 658.842572 -226.098545 
L 657.522924 -229.71247 
L 656.203276 -233.588424 
L 654.883628 -237.663975 
L 653.563979 -241.872131 
L 652.244331 -246.141895 
L 650.924683 -250.400671 
L 649.605035 -254.575307 
L 648.285387 -258.59348 
L 646.965739 -262.385302 
L 645.646091 -265.883064 
L 644.326443 -269.022647 
L 643.006795 -271.743981 
L 641.687147 -273.991583 
L 640.367499 -275.71532 
L 639.04785 -276.871418 
L 637.728202 -277.42231 
L 636.408554 -277.338191 
L 635.088906 -276.597373 
L 633.769258 -275.186351 
L 632.44961 -273.100241 
L 631.129962 -270.342631 
L 629.810314 -266.92644 
L 628.490666 -262.87308 
L 627.171018 -258.21352 
L 625.85137 -252.988476 
L 624.531721 -247.248302 
L 623.212073 -241.054584 
L 621.892425 -234.479658 
L 620.572777 -227.608053 
L 619.253129 -220.536569 
L 617.933481 -213.375707 
L 616.613833 -206.249909 
L 615.294185 -199.298152 
L 613.974537 -192.674209 
L 612.654889 -186.542695 
L 611.33524 -181.074336 
L 610.015592 -176.435349 
L 608.695944 -172.773828 
L 607.376296 -170.205019 
L 606.056648 -168.798715 
L 604.737 -168.573634 
L 603.417352 -169.500672 
L 602.097704 -171.512216 
L 600.778056 -174.512492 
L 599.458408 -178.384476 
L 598.13876 -182.99401 
L 596.819111 -188.194226 
L 595.499463 -193.831575 
L 594.179815 -199.753305 
L 592.860167 -205.814336 
L 591.540519 -211.882399 
L 590.220871 -217.840386 
L 588.901223 -223.586391 
L 587.581575 -229.033392 
L 586.261927 -234.108122 
L 584.942279 -238.749979 
L 583.62263 -242.909346 
L 582.302982 -246.546676 
L 580.983334 -249.631701 
L 579.663686 -252.14282 
L 578.344038 -254.066572 
L 577.02439 -255.397492 
L 575.704742 -256.137489 
L 574.385094 -256.295674 
L 573.065446 -255.888084 
L 571.745798 -254.937116 
L 570.42615 -253.471706 
L 569.106501 -251.527012 
L 567.786853 -249.144153 
L 566.467205 -246.369409 
L 565.147557 -243.254692 
L 563.827909 -239.857157 
L 562.508261 -236.238444 
L 561.188613 -232.465034 
L 559.868965 -228.607915 
L 558.549317 -224.741284 
L 557.229669 -220.94172 
L 555.910021 -217.287191 
L 554.590372 -213.855609 
L 553.270724 -210.722577 
L 551.951076 -207.95867 
L 550.631428 -205.626461 
L 549.31178 -203.776833 
L 547.992132 -202.446647 
L 546.672484 -201.655048 
L 545.352836 -201.4022 
L 544.033188 -201.668597 
L 542.71354 -202.416488 
L 541.393891 -203.591983 
L 540.074243 -205.127501 
L 538.754595 -206.94696 
L 537.434947 -208.968435 
L 536.115299 -211.107914 
L 534.795651 -213.282786 
L 533.476003 -215.413581 
L 532.156355 -217.424353 
L 530.836707 -219.244702 
L 529.517059 -220.811325 
L 528.197411 -222.067877 
L 526.877762 -222.965178 
L 525.558114 -223.462034 
L 524.238466 -223.525627 
L 522.918818 -223.131502 
L 521.59917 -222.263537 
L 520.279522 -220.91251 
L 518.959874 -219.076657 
L 517.640226 -216.762416 
L 516.320578 -213.983191 
L 515.00093 -210.759626 
L 513.681282 -207.119829 
L 512.361633 -203.098726 
L 511.041985 -198.738195 
L 509.722337 -194.084847 
L 508.402689 -189.190426 
L 507.083041 -184.112953 
L 505.763393 -178.915653 
L 504.443745 -173.666768 
L 503.124097 -168.440465 
L 501.804449 -163.316162 
L 500.484801 -158.378414 
L 499.165152 -153.716076 
L 497.845504 -149.42041 
L 496.525856 -145.584189 
L 495.206208 -142.297916 
L 493.88656 -139.64505 
L 492.566912 -137.694557 
L 491.247264 -136.49166 
L 489.927616 -136.050052 
L 488.607968 -136.346327 
L 487.28832 -137.320799 
L 485.968672 -138.885897 
L 484.649023 -140.936254 
L 483.329375 -143.358863 
L 482.009727 -146.043046 
L 480.690079 -148.886288 
L 479.370431 -151.797917 
L 478.050783 -154.700259 
L 476.731135 -157.528652 
L 475.411487 -160.23173 
L 474.091839 -162.769839 
L 472.772191 -165.114532 
L 471.452543 -167.246743 
L 470.132894 -169.156719 
L 468.813246 -170.842459 
L 467.493598 -172.308672 
L 466.17395 -173.566739 
L 464.854302 -174.633299 
L 463.534654 -175.530094 
L 462.215006 -176.282369 
L 460.895358 -176.91837 
L 459.57571 -177.468114 
L 458.256062 -177.962351 
L 456.936413 -178.432437 
L 455.616765 -178.90933 
L 454.297117 -179.423145 
L 452.977469 -180.002769 
L 451.657821 -180.675129 
L 450.338173 -181.464274 
L 449.018525 -182.39049 
L 447.698877 -183.469543 
L 446.379229 -184.712077 
L 445.059581 -186.123652 
L 443.739933 -187.704533 
L 442.420284 -189.449979 
L 441.100636 -191.350756 
z
" style="stroke: #000080; stroke-opacity: 0.2"/>
    </defs>
    <g clip-path="url(#p30139128ac)">
     <use xlink:href="#m256fff3e20" x="0" y="297.395336" style="fill: #000080; fill-opacity: 0.2; stroke: #000080; stroke-opacity: 0.2"/>
    </g>
   </g>
   <g id="FillBetweenPolyCollection_4">
    <defs>
     <path id="m77535efe3a" d="M 441.100636 -145.362828 
L 441.100636 -127.49972 
L 442.420284 -122.284169 
L 443.739933 -117.034015 
L 445.059581 -111.774364 
L 446.379229 -106.536039 
L 447.698877 -101.357039 
L 449.018525 -96.28506 
L 450.338173 -91.381615 
L 451.657821 -86.728833 
L 452.977469 -82.441928 
L 454.297117 -78.688301 
L 455.616765 -75.71133 
L 456.936413 -73.81474 
L 458.256062 -73.213241 
L 459.57571 -73.814222 
L 460.895358 -75.256116 
L 462.215006 -77.156641 
L 463.534654 -79.233911 
L 464.854302 -81.298073 
L 466.17395 -83.22464 
L 467.493598 -84.938486 
L 468.813246 -86.400328 
L 470.132894 -87.595035 
L 471.452543 -88.520603 
L 472.772191 -89.182257 
L 474.091839 -89.588789 
L 475.411487 -89.750209 
L 476.731135 -89.680657 
L 478.050783 -89.39422 
L 479.370431 -88.909332 
L 480.690079 -88.244925 
L 482.009727 -87.421726 
L 483.329375 -86.462247 
L 484.649023 -85.394263 
L 485.968672 -84.247711 
L 487.28832 -83.056584 
L 488.607968 -81.858733 
L 489.927616 -80.695453 
L 491.247264 -79.612553 
L 492.566912 -78.658007 
L 493.88656 -77.879767 
L 495.206208 -77.32256 
L 496.525856 -77.021935 
L 497.845504 -76.997615 
L 499.165152 -77.249925 
L 500.484801 -77.760675 
L 501.804449 -78.497559 
L 503.124097 -79.417289 
L 504.443745 -80.471878 
L 505.763393 -81.613028 
L 507.083041 -82.795308 
L 508.402689 -83.977724 
L 509.722337 -85.125179 
L 511.041985 -86.206776 
L 512.361633 -87.196438 
L 513.681282 -88.071898 
L 515.00093 -88.813903 
L 516.320578 -89.407581 
L 517.640226 -89.841334 
L 518.959874 -90.106115 
L 520.279522 -90.196237 
L 521.59917 -90.109226 
L 522.918818 -89.845203 
L 524.238466 -89.407227 
L 525.558114 -88.802703 
L 526.877762 -88.042056 
L 528.197411 -87.139223 
L 529.517059 -86.111834 
L 530.836707 -84.980599 
L 532.156355 -83.769841 
L 533.476003 -82.507322 
L 534.795651 -81.223424 
L 536.115299 -79.951236 
L 537.434947 -78.725937 
L 538.754595 -77.584501 
L 540.074243 -76.564953 
L 541.393891 -75.704647 
L 542.71354 -75.040616 
L 544.033188 -74.610227 
L 545.352836 -74.449521 
L 546.672484 -74.586565 
L 547.992132 -75.025582 
L 549.31178 -75.7354 
L 550.631428 -76.654568 
L 551.951076 -77.709358 
L 553.270724 -78.831157 
L 554.590372 -79.965853 
L 555.910021 -81.075529 
L 557.229669 -82.137109 
L 558.549317 -83.137422 
L 559.868965 -84.069523 
L 561.188613 -84.930589 
L 562.508261 -85.72006 
L 563.827909 -86.439216 
L 565.147557 -87.08937 
L 566.467205 -87.671677 
L 567.786853 -88.186643 
L 569.106501 -88.634558 
L 570.42615 -89.015629 
L 571.745798 -89.329839 
L 573.065446 -89.577235 
L 574.385094 -89.757131 
L 575.704742 -89.867784 
L 577.02439 -89.908339 
L 578.344038 -89.878686 
L 579.663686 -89.778611 
L 580.983334 -89.607539 
L 582.302982 -89.364347 
L 583.62263 -89.047898 
L 584.942279 -88.656831 
L 586.261927 -88.191456 
L 587.581575 -87.652071 
L 588.901223 -87.03968 
L 590.220871 -86.354887 
L 591.540519 -85.598396 
L 592.860167 -84.771798 
L 594.179815 -83.878304 
L 595.499463 -82.923323 
L 596.819111 -81.914712 
L 598.13876 -80.863341 
L 599.458408 -79.783645 
L 600.778056 -78.694858 
L 602.097704 -77.622126 
L 603.417352 -76.597404 
L 604.737 -75.659819 
L 606.056648 -74.854554 
L 607.376296 -74.229792 
L 608.695944 -73.831676 
L 610.015592 -73.698376 
L 611.33524 -73.856804 
L 612.654889 -74.319343 
L 613.974537 -75.082349 
L 615.294185 -76.120925 
L 616.613833 -77.38891 
L 617.933481 -78.828632 
L 619.253129 -80.378 
L 620.572777 -81.978872 
L 621.892425 -83.579839 
L 623.212073 -85.136556 
L 624.531721 -86.611354 
L 625.85137 -87.973205 
L 627.171018 -89.195414 
L 628.490666 -90.256303 
L 629.810314 -91.1377 
L 631.129962 -91.825718 
L 632.44961 -92.31161 
L 633.769258 -92.591035 
L 635.088906 -92.662547 
L 636.408554 -92.528689 
L 637.728202 -92.19613 
L 639.04785 -91.673217 
L 640.367499 -90.972667 
L 641.687147 -90.111915 
L 643.006795 -89.110857 
L 644.326443 -87.992779 
L 645.646091 -86.783112 
L 646.965739 -85.510616 
L 648.285387 -84.207724 
L 649.605035 -82.912225 
L 650.924683 -81.667789 
L 652.244331 -80.522221 
L 653.563979 -79.526059 
L 654.883628 -78.731303 
L 656.203276 -78.184959 
L 657.522924 -77.922438 
L 658.842572 -77.958308 
L 660.16222 -78.283384 
L 661.481868 -78.867839 
L 662.801516 -79.66986 
L 664.121164 -80.643819 
L 665.440812 -81.746217 
L 666.76046 -82.937441 
L 668.080109 -84.182921 
L 669.399757 -85.453541 
L 670.719405 -86.724942 
L 672.039053 -87.976248 
L 673.358701 -89.189028 
L 674.678349 -90.346489 
L 675.997997 -91.433246 
L 677.317645 -92.436286 
L 678.637293 -93.345257 
L 679.956941 -94.151526 
L 681.276589 -94.847442 
L 682.596238 -95.427254 
L 683.915886 -95.887284 
L 685.235534 -96.226948 
L 686.555182 -96.44984 
L 687.87483 -96.561726 
L 689.194478 -96.570361 
L 690.514126 -96.486519 
L 691.833774 -96.323924 
L 693.153422 -96.099439 
L 694.47307 -95.832252 
L 695.792718 -95.541058 
L 697.112367 -95.243171 
L 698.432015 -94.955677 
L 699.751663 -94.694185 
L 701.071311 -94.474147 
L 702.390959 -94.311162 
L 703.710607 -94.221036 
L 705.030255 -94.221078 
L 706.349903 -94.333027 
L 707.669551 -94.582196 
L 708.989199 -94.996083 
L 710.308848 -95.601222 
L 711.628496 -96.418154 
L 712.948144 -97.457428 
L 714.267792 -98.717735 
L 715.58744 -100.187083 
L 716.907088 -101.843841 
L 718.226736 -103.660791 
L 719.546384 -105.607877 
L 720.866032 -107.654519 
L 722.18568 -109.771141 
L 723.505328 -111.930164 
L 724.824977 -114.106174 
L 726.144625 -116.27671 
L 727.464273 -118.421839 
L 728.783921 -120.524233 
L 730.103569 -122.568095 
L 731.423217 -124.539962 
L 732.742865 -126.429292 
L 734.062513 -128.227216 
L 735.382161 -129.927937 
L 736.701809 -131.527818 
L 738.021457 -133.025359 
L 739.341106 -134.422327 
L 740.660754 -135.722661 
L 741.980402 -136.930967 
L 743.30005 -138.053163 
L 744.619698 -139.096239 
L 745.939346 -140.067214 
L 747.258994 -140.972216 
L 748.578642 -141.816691 
L 749.89829 -142.605079 
L 751.217938 -143.340402 
L 752.537587 -144.025544 
L 753.857235 -144.665127 
L 755.176883 -145.268505 
L 756.496531 -145.851253 
L 757.816179 -146.43666 
L 759.135827 -147.054588 
L 760.455475 -147.740872 
L 761.775123 -148.536904 
L 763.094771 -149.482615 
L 764.414419 -150.614004 
L 765.734067 -151.959393 
L 767.053716 -153.537752 
L 768.373364 -155.356456 
L 768.373364 -197.649165 
L 768.373364 -197.649165 
L 767.053716 -195.135974 
L 765.734067 -192.685226 
L 764.414419 -190.325104 
L 763.094771 -188.086363 
L 761.775123 -186.000579 
L 760.455475 -184.097597 
L 759.135827 -182.40317 
L 757.816179 -180.935085 
L 756.496531 -179.700764 
L 755.176883 -178.695152 
L 753.857235 -177.900283 
L 752.537587 -177.28527 
L 751.217938 -176.810595 
L 749.89829 -176.430436 
L 748.578642 -176.097248 
L 747.258994 -175.764889 
L 745.939346 -175.389315 
L 744.619698 -174.931063 
L 743.30005 -174.356182 
L 741.980402 -173.637809 
L 740.660754 -172.754403 
L 739.341106 -171.690103 
L 738.021457 -170.434765 
L 736.701809 -168.984325 
L 735.382161 -167.339411 
L 734.062513 -165.503324 
L 732.742865 -163.484153 
L 731.423217 -161.293786 
L 730.103569 -158.947749 
L 728.783921 -156.463573 
L 727.464273 -153.860153 
L 726.144625 -151.158313 
L 724.824977 -148.380198 
L 723.505328 -145.549725 
L 722.18568 -142.690023 
L 720.866032 -139.824939 
L 719.546384 -136.978779 
L 718.226736 -134.176659 
L 716.907088 -131.443829 
L 715.58744 -128.804972 
L 714.267792 -126.286823 
L 712.948144 -123.917637 
L 711.628496 -121.727606 
L 710.308848 -119.748881 
L 708.989199 -118.013837 
L 707.669551 -116.552176 
L 706.349903 -115.386197 
L 705.030255 -114.527267 
L 703.710607 -113.973368 
L 702.390959 -113.707585 
L 701.071311 -113.699641 
L 699.751663 -113.908752 
L 698.432015 -114.287256 
L 697.112367 -114.784841 
L 695.792718 -115.35195 
L 694.47307 -115.942112 
L 693.153422 -116.512944 
L 691.833774 -117.027395 
L 690.514126 -117.452849 
L 689.194478 -117.761703 
L 687.87483 -117.932061 
L 686.555182 -117.946448 
L 685.235534 -117.791568 
L 683.915886 -117.458744 
L 682.596238 -116.942397 
L 681.276589 -116.24103 
L 679.956941 -115.356391 
L 678.637293 -114.293188 
L 677.317645 -113.059251 
L 675.997997 -111.665665 
L 674.678349 -110.126457 
L 673.358701 -108.458958 
L 672.039053 -106.68363 
L 670.719405 -104.824361 
L 669.399757 -102.908458 
L 668.080109 -100.967047 
L 666.76046 -99.035925 
L 665.440812 -97.155197 
L 664.121164 -95.36921 
L 662.801516 -93.725539 
L 661.481868 -92.274023 
L 660.16222 -91.064012 
L 658.842572 -90.139868 
L 657.522924 -89.537133 
L 656.203276 -89.279361 
L 654.883628 -89.37394 
L 653.563979 -89.809959 
L 652.244331 -90.558307 
L 650.924683 -91.574512 
L 649.605035 -92.803285 
L 648.285387 -94.184132 
L 646.965739 -95.6566 
L 645.646091 -97.162453 
L 644.326443 -98.648098 
L 643.006795 -100.065535 
L 641.687147 -101.372432 
L 640.367499 -102.532213 
L 639.04785 -103.513957 
L 637.728202 -104.292456 
L 636.408554 -104.847774 
L 635.088906 -105.165788 
L 633.769258 -105.237765 
L 632.44961 -105.059956 
L 631.129962 -104.633681 
L 629.810314 -103.965532 
L 628.490666 -103.066547 
L 627.171018 -101.952682 
L 625.85137 -100.644709 
L 624.531721 -99.168303 
L 623.212073 -97.554737 
L 621.892425 -95.840237 
L 620.572777 -94.066284 
L 619.253129 -92.279663 
L 617.933481 -90.532951 
L 616.613833 -88.884202 
L 615.294185 -87.397362 
L 613.974537 -86.141645 
L 612.654889 -85.188005 
L 611.33524 -84.599446 
L 610.015592 -84.416212 
L 608.695944 -84.644925 
L 607.376296 -85.257435 
L 606.056648 -86.20059 
L 604.737 -87.409117 
L 603.417352 -88.816152 
L 602.097704 -90.360099 
L 600.778056 -91.987765 
L 599.458408 -93.654761 
L 598.13876 -95.324441 
L 596.819111 -96.96796 
L 595.499463 -98.561918 
L 594.179815 -100.08723 
L 592.860167 -101.528156 
L 591.540519 -102.872032 
L 590.220871 -104.108879 
L 588.901223 -105.230063 
L 587.581575 -106.228632 
L 586.261927 -107.098762 
L 584.942279 -107.834386 
L 583.62263 -108.432128 
L 582.302982 -108.888284 
L 580.983334 -109.201017 
L 579.663686 -109.368293 
L 578.344038 -109.389027 
L 577.02439 -109.263386 
L 575.704742 -108.992072 
L 574.385094 -108.576423 
L 573.065446 -108.018269 
L 571.745798 -107.320774 
L 570.42615 -106.487744 
L 569.106501 -105.524126 
L 567.786853 -104.435898 
L 566.467205 -103.230802 
L 565.147557 -101.917847 
L 563.827909 -100.508488 
L 562.508261 -99.016796 
L 561.188613 -97.460282 
L 559.868965 -95.860413 
L 558.549317 -94.243518 
L 557.229669 -92.641361 
L 555.910021 -91.09124 
L 554.590372 -89.635714 
L 553.270724 -88.320152 
L 551.951076 -87.19148 
L 550.631428 -86.295581 
L 549.31178 -85.675455 
L 547.992132 -85.370781 
L 546.672484 -85.416644 
L 545.352836 -85.840945 
L 544.033188 -86.656 
L 542.71354 -87.849741 
L 541.393891 -89.382276 
L 540.074243 -91.192326 
L 538.754595 -93.209478 
L 537.434947 -95.362632 
L 536.115299 -97.585332 
L 534.795651 -99.818666 
L 533.476003 -102.010957 
L 532.156355 -104.115973 
L 530.836707 -106.093437 
L 529.517059 -107.909085 
L 528.197411 -109.533766 
L 526.877762 -110.942721 
L 525.558114 -112.115746 
L 524.238466 -113.037718 
L 522.918818 -113.698 
L 521.59917 -114.091038 
L 520.279522 -114.214683 
L 518.959874 -114.070775 
L 517.640226 -113.665764 
L 516.320578 -113.009623 
L 515.00093 -112.116652 
L 513.681282 -111.005894 
L 512.361633 -109.699929 
L 511.041985 -108.225972 
L 509.722337 -106.613416 
L 508.402689 -104.894376 
L 507.083041 -103.105011 
L 505.763393 -101.284357 
L 504.443745 -99.47407 
L 503.124097 -97.719642 
L 501.804449 -96.069408 
L 500.484801 -94.573729 
L 499.165152 -93.283255 
L 497.845504 -92.243739 
L 496.525856 -91.492381 
L 495.206208 -91.052389 
L 493.88656 -90.930576 
L 492.566912 -91.114838 
L 491.247264 -91.574914 
L 489.927616 -92.2674 
L 488.607968 -93.1394 
L 487.28832 -94.132724 
L 485.968672 -95.189432 
L 484.649023 -96.254003 
L 483.329375 -97.275073 
L 482.009727 -98.20655 
L 480.690079 -99.007112 
L 479.370431 -99.640979 
L 478.050783 -100.0783 
L 476.731135 -100.296274 
L 475.411487 -100.279819 
L 474.091839 -100.022102 
L 472.772191 -99.52682 
L 471.452543 -98.809389 
L 470.132894 -97.89967 
L 468.813246 -96.843349 
L 467.493598 -95.703184 
L 466.17395 -94.558501 
L 464.854302 -93.502602 
L 463.534654 -92.641848 
L 462.215006 -92.093672 
L 460.895358 -91.98177 
L 459.57571 -92.416924 
L 458.256062 -93.465205 
L 456.936413 -95.133645 
L 455.616765 -97.393443 
L 454.297117 -100.203695 
L 452.977469 -103.511292 
L 451.657821 -107.250531 
L 450.338173 -111.351664 
L 449.018525 -115.748361 
L 447.698877 -120.380168 
L 446.379229 -125.19291 
L 445.059581 -130.138207 
L 443.739933 -135.173204 
L 442.420284 -140.259616 
L 441.100636 -145.362828 
z
" style="stroke: #000080; stroke-opacity: 0.2"/>
    </defs>
    <g clip-path="url(#p30139128ac)">
     <use xlink:href="#m77535efe3a" x="0" y="297.395336" style="fill: #000080; fill-opacity: 0.2; stroke: #000080; stroke-opacity: 0.2"/>
    </g>
   </g>
   <g id="line2d_5">
    <path d="M 441.100636 121.585378 
L 443.739933 126.23966 
L 446.379229 130.184398 
L 447.698877 131.853013 
L 449.018525 133.30801 
L 450.338173 134.548302 
L 451.657821 135.579853 
L 452.977469 136.415999 
L 454.297117 137.077371 
L 456.936413 137.991992 
L 463.534654 139.671817 
L 464.854302 140.223266 
L 466.17395 140.928883 
L 467.493598 141.814932 
L 468.813246 142.901661 
L 470.132894 144.202779 
L 471.452543 145.724958 
L 472.772191 147.467325 
L 475.411487 151.567997 
L 478.050783 156.321545 
L 483.329375 166.219321 
L 484.649023 168.340206 
L 485.968672 170.128366 
L 487.28832 171.477917 
L 488.607968 172.287288 
L 489.927616 172.469302 
L 491.247264 171.960744 
L 492.566912 170.731524 
L 493.88656 168.787833 
L 495.206208 166.168967 
L 496.525856 162.941385 
L 497.845504 159.189682 
L 500.484801 150.49055 
L 504.443745 135.837415 
L 508.402689 121.19127 
L 511.041985 112.297574 
L 513.681282 104.575727 
L 515.00093 101.255641 
L 516.320578 98.33893 
L 517.640226 95.850106 
L 518.959874 93.807241 
L 520.279522 92.221896 
L 521.59917 91.09912 
L 522.918818 90.43698 
L 524.238466 90.226784 
L 525.558114 90.452782 
L 526.877762 91.091624 
L 528.197411 92.112344 
L 529.517059 93.476439 
L 530.836707 95.138256 
L 533.476003 99.138556 
L 538.754595 108.014092 
L 540.074243 109.990639 
L 541.393891 111.720897 
L 542.71354 113.136192 
L 544.033188 114.175331 
L 545.352836 114.788786 
L 546.672484 114.940672 
L 547.992132 114.610344 
L 549.31178 113.794089 
L 550.631428 112.504482 
L 551.951076 110.770009 
L 553.270724 108.632378 
L 554.590372 106.144502 
L 557.229669 100.366433 
L 565.147557 81.493395 
L 566.467205 78.802675 
L 567.786853 76.392043 
L 569.106501 74.307872 
L 570.42615 72.591228 
L 571.745798 71.278423 
L 573.065446 70.400199 
L 574.385094 69.981754 
L 575.704742 70.042281 
L 577.02439 70.595362 
L 578.344038 71.648532 
L 579.663686 73.203275 
L 580.983334 75.254668 
L 582.302982 77.791608 
L 583.62263 80.796509 
L 584.942279 84.245088 
L 586.261927 88.107046 
L 588.901223 96.913224 
L 591.540519 106.823556 
L 598.13876 132.500125 
L 599.458408 136.952447 
L 600.778056 140.863393 
L 602.097704 144.081076 
L 603.417352 146.460251 
L 604.737 147.878742 
L 606.056648 148.255389 
L 607.376296 147.563851 
L 608.695944 145.836151 
L 610.015592 143.156063 
L 611.33524 139.644721 
L 612.654889 135.444278 
L 615.294185 125.567455 
L 623.212073 93.212319 
L 625.85137 84.023543 
L 627.171018 80.019167 
L 628.490666 76.463551 
L 629.810314 73.388322 
L 631.129962 70.817282 
L 632.44961 68.766012 
L 633.769258 67.242423 
L 635.088906 66.246922 
L 636.408554 65.772728 
L 637.728202 65.805718 
L 639.04785 66.325394 
L 640.367499 67.304303 
L 641.687147 68.708294 
L 643.006795 70.497829 
L 644.326443 72.627912 
L 645.646091 75.04913 
L 648.285387 80.549031 
L 656.203276 98.063582 
L 657.522924 100.522406 
L 658.842572 102.717895 
L 660.16222 104.61563 
L 661.481868 106.190649 
L 662.801516 107.428148 
L 664.121164 108.323987 
L 665.440812 108.884817 
L 666.76046 109.127429 
L 668.080109 109.078178 
L 669.399757 108.771657 
L 670.719405 108.248993 
L 673.358701 106.742246 
L 678.637293 103.286988 
L 679.956941 102.611867 
L 681.276589 102.095911 
L 682.596238 101.772889 
L 683.915886 101.671293 
L 685.235534 101.813564 
L 686.555182 102.215575 
L 687.87483 102.887366 
L 689.194478 103.832268 
L 690.514126 105.04714 
L 691.833774 106.522391 
L 693.153422 108.241335 
L 695.792718 112.312014 
L 698.432015 117.00356 
L 703.710607 126.769137 
L 705.030255 128.958803 
L 706.349903 130.923116 
L 707.669551 132.599887 
L 708.989199 133.930222 
L 710.308848 134.862213 
L 711.628496 135.353943 
L 712.948144 135.376 
L 714.267792 134.913513 
L 715.58744 133.967155 
L 716.907088 132.552691 
L 718.226736 130.699528 
L 719.546384 128.448104 
L 720.866032 125.847233 
L 723.505328 119.815608 
L 726.144625 113.054103 
L 732.742865 95.681145 
L 735.382161 89.428283 
L 738.021457 83.932175 
L 739.341106 81.513219 
L 740.660754 79.328701 
L 741.980402 77.384101 
L 743.30005 75.680271 
L 744.619698 74.213709 
L 745.939346 72.976921 
L 747.258994 71.958417 
L 748.578642 71.143477 
L 749.89829 70.514476 
L 751.217938 70.051702 
L 752.537587 69.733215 
L 755.176883 69.434092 
L 757.816179 69.421789 
L 763.094771 69.527967 
L 765.734067 69.349765 
L 768.373364 68.883624 
L 768.373364 68.883624 
" clip-path="url(#p30139128ac)" style="fill: none; stroke-dasharray: 5.55,2.4; stroke-dashoffset: 0; stroke: #000080; stroke-width: 1.5"/>
   </g>
   <g id="line2d_6">
    <path d="M 441.100636 160.964062 
L 447.698877 186.526732 
L 450.338173 196.028697 
L 452.977469 204.418726 
L 454.297117 207.949338 
L 455.616765 210.842949 
L 456.936413 212.921144 
L 458.256062 214.056113 
L 459.57571 214.279763 
L 460.895358 213.776393 
L 462.215006 212.77018 
L 464.854302 209.994999 
L 467.493598 207.074501 
L 468.813246 205.773497 
L 470.132894 204.647984 
L 471.452543 203.73034 
L 472.772191 203.040798 
L 474.091839 202.589891 
L 475.411487 202.380322 
L 476.731135 202.406871 
L 478.050783 202.659076 
L 479.370431 203.120181 
L 480.690079 203.769317 
L 482.009727 204.581198 
L 484.649023 206.571203 
L 489.927616 210.913909 
L 491.247264 211.801602 
L 492.566912 212.508913 
L 493.88656 212.990165 
L 495.206208 213.207862 
L 496.525856 213.138178 
L 497.845504 212.774659 
L 499.165152 212.128746 
L 500.484801 211.228134 
L 501.804449 210.111852 
L 504.443745 207.422362 
L 511.041985 200.178962 
L 513.681282 197.85644 
L 515.00093 196.930059 
L 516.320578 196.186734 
L 517.640226 195.641787 
L 518.959874 195.306891 
L 520.279522 195.189876 
L 521.59917 195.295204 
L 522.918818 195.623735 
L 524.238466 196.172863 
L 525.558114 196.936111 
L 526.877762 197.902947 
L 528.197411 199.058841 
L 530.836707 201.858318 
L 533.476003 205.136197 
L 538.754595 211.998346 
L 540.074243 213.516696 
L 541.393891 214.851874 
L 542.71354 215.950157 
L 544.033188 216.762222 
L 545.352836 217.250103 
L 546.672484 217.393732 
L 547.992132 217.197154 
L 549.31178 216.689909 
L 550.631428 215.920261 
L 551.951076 214.944917 
L 554.590372 212.594553 
L 562.508261 205.026908 
L 565.147557 202.891727 
L 567.786853 201.084065 
L 570.42615 199.643649 
L 573.065446 198.597584 
L 575.704742 197.965408 
L 578.344038 197.761479 
L 580.983334 197.991058 
L 583.62263 198.655323 
L 586.261927 199.750227 
L 588.901223 201.260464 
L 591.540519 203.160122 
L 594.179815 205.412569 
L 596.819111 207.954 
L 603.417352 214.688558 
L 604.737 215.860868 
L 606.056648 216.867764 
L 607.376296 217.651722 
L 608.695944 218.157036 
L 610.015592 218.338042 
L 611.33524 218.167211 
L 612.654889 217.641662 
L 613.974537 216.783339 
L 615.294185 215.636193 
L 616.613833 214.25878 
L 619.253129 211.066505 
L 623.212073 206.049689 
L 625.85137 203.086379 
L 627.171018 201.821288 
L 628.490666 200.733911 
L 629.810314 199.84372 
L 631.129962 199.165636 
L 632.44961 198.709553 
L 633.769258 198.480936 
L 635.088906 198.481168 
L 636.408554 198.707104 
L 637.728202 199.151043 
L 639.04785 199.801749 
L 640.367499 200.642896 
L 641.687147 201.653162 
L 644.326443 204.074897 
L 650.924683 210.774185 
L 652.244331 211.855072 
L 653.563979 212.727327 
L 654.883628 213.342715 
L 656.203276 213.663176 
L 657.522924 213.665551 
L 658.842572 213.346248 
L 660.16222 212.721638 
L 661.481868 211.824405 
L 662.801516 210.697637 
L 665.440812 207.944629 
L 669.399757 203.214337 
L 673.358701 198.571343 
L 675.997997 195.845881 
L 678.637293 193.576113 
L 679.956941 192.641377 
L 681.276589 191.8511 
L 682.596238 191.21051 
L 683.915886 190.722322 
L 685.235534 190.386078 
L 686.555182 190.197192 
L 687.87483 190.148442 
L 689.194478 190.229304 
L 691.833774 190.719677 
L 694.47307 191.508154 
L 698.432015 192.773869 
L 701.071311 193.308442 
L 702.390959 193.385963 
L 703.710607 193.298134 
L 705.030255 193.021163 
L 706.349903 192.535724 
L 707.669551 191.82815 
L 708.989199 190.890376 
L 710.308848 189.720285 
L 711.628496 188.322456 
L 712.948144 186.707804 
L 715.58744 182.899308 
L 718.226736 178.476611 
L 722.18568 171.164754 
L 727.464273 161.25434 
L 730.103569 156.637414 
L 732.742865 152.438614 
L 735.382161 148.761662 
L 738.021457 145.665274 
L 740.660754 143.156804 
L 743.30005 141.190663 
L 745.939346 139.667072 
L 748.578642 138.438366 
L 753.857235 136.112631 
L 756.496531 134.619328 
L 759.135827 132.666457 
L 760.455475 131.476102 
L 761.775123 130.126594 
L 763.094771 128.610847 
L 765.734067 125.073026 
L 768.373364 120.892526 
L 768.373364 120.892526 
" clip-path="url(#p30139128ac)" style="fill: none; stroke: #000080; stroke-width: 1.5; stroke-linecap: round"/>
   </g>
   <g id="patch_9">
    <path d="M 424.737 248.822336 
L 424.737 26.3301 
" style="fill: none; stroke: #ffffff; stroke-width: 1.25; stroke-linejoin: miter; stroke-linecap: square"/>
   </g>
   <g id="patch_10">
    <path d="M 784.737 248.822336 
L 784.737 26.3301 
" style="fill: none; stroke: #ffffff; stroke-width: 1.25; stroke-linejoin: miter; stroke-linecap: square"/>
   </g>
   <g id="patch_11">
    <path d="M 424.737 248.822336 
L 784.737 248.822336 
" style="fill: none; stroke: #ffffff; stroke-width: 1.25; stroke-linejoin: miter; stroke-linecap: square"/>
   </g>
   <g id="patch_12">
    <path d="M 424.737 26.3301 
L 784.737 26.3301 
" style="fill: none; stroke: #ffffff; stroke-width: 1.25; stroke-linejoin: miter; stroke-linecap: square"/>
   </g>
   <g id="text_23">
    <!-- Z3 -->
    <g style="fill: #262626" transform="translate(593.3214 20.3301) scale(0.1728 -0.1728)">
     <defs>
      <path id="DejaVuSans-33" d="M 2597 2516 
Q 3050 2419 3304 2112 
Q 3559 1806 3559 1356 
Q 3559 666 3084 287 
Q 2609 -91 1734 -91 
Q 1441 -91 1130 -33 
Q 819 25 488 141 
L 488 750 
Q 750 597 1062 519 
Q 1375 441 1716 441 
Q 2309 441 2620 675 
Q 2931 909 2931 1356 
Q 2931 1769 2642 2001 
Q 2353 2234 1838 2234 
L 1294 2234 
L 1294 2753 
L 1863 2753 
Q 2328 2753 2575 2939 
Q 2822 3125 2822 3475 
Q 2822 3834 2567 4026 
Q 2313 4219 1838 4219 
Q 1578 4219 1281 4162 
Q 984 4106 628 3988 
L 628 4550 
Q 988 4650 1302 4700 
Q 1616 4750 1894 4750 
Q 2613 4750 3031 4423 
Q 3450 4097 3450 3541 
Q 3450 3153 3228 2886 
Q 3006 2619 2597 2516 
z
" transform="scale(0.015625)"/>
     </defs>
     <use xlink:href="#DejaVuSans-5a"/>
     <use xlink:href="#DejaVuSans-33" transform="translate(68.505859 0)"/>
    </g>
   </g>
  </g>
 </g>
 <defs>
  <clipPath id="p4d87936c5a">
   <rect x="57.537" y="26.3301" width="360" height="222.492236"/>
  </clipPath>
  <clipPath id="p30139128ac">
   <rect x="424.737" y="26.3301" width="360" height="222.492236"/>
  </clipPath>
 </defs>
</svg>
