<?xml version="1.0" encoding="utf-8" standalone="no"?>
<!DOCTYPE svg PUBLIC "-//W3C//DTD SVG 1.1//EN"
  "http://www.w3.org/Graphics/SVG/1.1/DTD/svg11.dtd">
<svg xmlns:xlink="http://www.w3.org/1999/xlink" width="720pt" height="360pt" viewBox="0 0 720 360" xmlns="http://www.w3.org/2000/svg" version="1.1">
 <metadata>
  <rdf:RDF xmlns:dc="http://purl.org/dc/elements/1.1/" xmlns:cc="http://creativecommons.org/ns#" xmlns:rdf="http://www.w3.org/1999/02/22-rdf-syntax-ns#">
   <cc:Work>
    <dc:type rdf:resource="http://purl.org/dc/dcmitype/StillImage"/>
    <dc:date>2026-03-19T14:37:48.035794</dc:date>
    <dc:format>image/svg+xml</dc:format>
    <dc:creator>
     <cc:Agent>
      <dc:title>Matplotlib v3.10.6, https://matplotlib.org/</dc:title>
     </cc:Agent>
    </dc:creator>
   </cc:Work>
  </rdf:RDF>
 </metadata>
 <defs>
  <style type="text/css">*{stroke-linejoin: round; stroke-linecap: butt}</style>
 </defs>
 <g id="figure_1">
  <g id="patch_1">
   <path d="M 0 360 
L 720 360 
L 720 0 
L 0 0 
z
" style="fill: #ffffff"/>
  </g>
  <g id="axes_1">
   <g id="patch_2">
    <path d="M 55.56 310.98 
L 707.04 310.98 
L 707.04 28.08 
L 55.56 28.08 
z
" style="fill: #eaeaf2"/>
   </g>
   <g id="matplotlib.axis_1">
    <g id="xtick_1">
     <g id="text_1">
      <!-- 0 -->
      <g style="fill: #262626" transform="translate(81.673352 328.838281) scale(0.11 -0.11)">
       <defs>
        <path id="DejaVuSans-30" d="M 2034 4250 
Q 1547 4250 1301 3770 
Q 1056 3291 1056 2328 
Q 1056 1369 1301 889 
Q 1547 409 2034 409 
Q 2525 409 2770 889 
Q 3016 1369 3016 2328 
Q 3016 3291 2770 3770 
Q 2525 4250 2034 4250 
z
M 2034 4750 
Q 2819 4750 3233 4129 
Q 3647 3509 3647 2328 
Q 3647 1150 3233 529 
Q 2819 -91 2034 -91 
Q 1250 -91 836 529 
Q 422 1150 422 2328 
Q 422 3509 836 4129 
Q 1250 4750 2034 4750 
z
" transform="scale(0.015625)"/>
       </defs>
       <use xlink:href="#DejaVuSans-30"/>
      </g>
     </g>
    </g>
    <g id="xtick_2">
     <g id="text_2">
      <!-- 5 -->
      <g style="fill: #262626" transform="translate(224.385291 328.838281) scale(0.11 -0.11)">
       <defs>
        <path id="DejaVuSans-35" d="M 691 4666 
L 3169 4666 
L 3169 4134 
L 1269 4134 
L 1269 2991 
Q 1406 3038 1543 3061 
Q 1681 3084 1819 3084 
Q 2600 3084 3056 2656 
Q 3513 2228 3513 1497 
Q 3513 744 3044 326 
Q 2575 -91 1722 -91 
Q 1428 -91 1123 -41 
Q 819 9 494 109 
L 494 744 
Q 775 591 1075 516 
Q 1375 441 1709 441 
Q 2250 441 2565 725 
Q 2881 1009 2881 1497 
Q 2881 1984 2565 2268 
Q 2250 2553 1709 2553 
Q 1456 2553 1204 2497 
Q 953 2441 691 2322 
L 691 4666 
z
" transform="scale(0.015625)"/>
       </defs>
       <use xlink:href="#DejaVuSans-35"/>
      </g>
     </g>
    </g>
    <g id="xtick_3">
     <g id="text_3">
      <!-- 10 -->
      <g style="fill: #262626" transform="translate(363.597855 328.838281) scale(0.11 -0.11)">
       <defs>
        <path id="DejaVuSans-31" d="M 794 531 
L 1825 531 
L 1825 4091 
L 703 3866 
L 703 4441 
L 1819 4666 
L 2450 4666 
L 2450 531 
L 3481 531 
L 3481 0 
L 794 0 
L 794 531 
z
" transform="scale(0.015625)"/>
       </defs>
       <use xlink:href="#DejaVuSans-31"/>
       <use xlink:href="#DejaVuSans-30" transform="translate(63.623047 0)"/>
      </g>
     </g>
    </g>
    <g id="xtick_4">
     <g id="text_4">
      <!-- 15 -->
      <g style="fill: #262626" transform="translate(506.309793 328.838281) scale(0.11 -0.11)">
       <use xlink:href="#DejaVuSans-31"/>
       <use xlink:href="#DejaVuSans-35" transform="translate(63.623047 0)"/>
      </g>
     </g>
    </g>
    <g id="xtick_5">
     <g id="text_5">
      <!-- 20 -->
      <g style="fill: #262626" transform="translate(649.021732 328.838281) scale(0.11 -0.11)">
       <defs>
        <path id="DejaVuSans-32" d="M 1228 531 
L 3431 531 
L 3431 0 
L 469 0 
L 469 531 
Q 828 903 1448 1529 
Q 2069 2156 2228 2338 
Q 2531 2678 2651 2914 
Q 2772 3150 2772 3378 
Q 2772 3750 2511 3984 
Q 2250 4219 1831 4219 
Q 1534 4219 1204 4116 
Q 875 4013 500 3803 
L 500 4441 
Q 881 4594 1212 4672 
Q 1544 4750 1819 4750 
Q 2544 4750 2975 4387 
Q 3406 4025 3406 3419 
Q 3406 3131 3298 2873 
Q 3191 2616 2906 2266 
Q 2828 2175 2409 1742 
Q 1991 1309 1228 531 
z
" transform="scale(0.015625)"/>
       </defs>
       <use xlink:href="#DejaVuSans-32"/>
       <use xlink:href="#DejaVuSans-30" transform="translate(63.623047 0)"/>
      </g>
     </g>
    </g>
    <g id="text_6">
     <!-- Time [days] -->
     <g style="fill: #262626" transform="translate(345.868125 344.244062) scale(0.12 -0.12)">
      <defs>
       <path id="DejaVuSans-54" d="M -19 4666 
L 3928 4666 
L 3928 4134 
L 2272 4134 
L 2272 0 
L 1638 0 
L 1638 4134 
L -19 4134 
L -19 4666 
z
" transform="scale(0.015625)"/>
       <path id="DejaVuSans-69" d="M 603 3500 
L 1178 3500 
L 1178 0 
L 603 0 
L 603 3500 
z
M 603 4863 
L 1178 4863 
L 1178 4134 
L 603 4134 
L 603 4863 
z
" transform="scale(0.015625)"/>
       <path id="DejaVuSans-6d" d="M 3328 2828 
Q 3544 3216 3844 3400 
Q 4144 3584 4550 3584 
Q 5097 3584 5394 3201 
Q 5691 2819 5691 2113 
L 5691 0 
L 5113 0 
L 5113 2094 
Q 5113 2597 4934 2840 
Q 4756 3084 4391 3084 
Q 3944 3084 3684 2787 
Q 3425 2491 3425 1978 
L 3425 0 
L 2847 0 
L 2847 2094 
Q 2847 2600 2669 2842 
Q 2491 3084 2119 3084 
Q 1678 3084 1418 2786 
Q 1159 2488 1159 1978 
L 1159 0 
L 581 0 
L 581 3500 
L 1159 3500 
L 1159 2956 
Q 1356 3278 1631 3431 
Q 1906 3584 2284 3584 
Q 2666 3584 2933 3390 
Q 3200 3197 3328 2828 
z
" transform="scale(0.015625)"/>
       <path id="DejaVuSans-65" d="M 3597 1894 
L 3597 1613 
L 953 1613 
Q 991 1019 1311 708 
Q 1631 397 2203 397 
Q 2534 397 2845 478 
Q 3156 559 3463 722 
L 3463 178 
Q 3153 47 2828 -22 
Q 2503 -91 2169 -91 
Q 1331 -91 842 396 
Q 353 884 353 1716 
Q 353 2575 817 3079 
Q 1281 3584 2069 3584 
Q 2775 3584 3186 3129 
Q 3597 2675 3597 1894 
z
M 3022 2063 
Q 3016 2534 2758 2815 
Q 2500 3097 2075 3097 
Q 1594 3097 1305 2825 
Q 1016 2553 972 2059 
L 3022 2063 
z
" transform="scale(0.015625)"/>
       <path id="DejaVuSans-20" transform="scale(0.015625)"/>
       <path id="DejaVuSans-5b" d="M 550 4863 
L 1875 4863 
L 1875 4416 
L 1125 4416 
L 1125 -397 
L 1875 -397 
L 1875 -844 
L 550 -844 
L 550 4863 
z
" transform="scale(0.015625)"/>
       <path id="DejaVuSans-64" d="M 2906 2969 
L 2906 4863 
L 3481 4863 
L 3481 0 
L 2906 0 
L 2906 525 
Q 2725 213 2448 61 
Q 2172 -91 1784 -91 
Q 1150 -91 751 415 
Q 353 922 353 1747 
Q 353 2572 751 3078 
Q 1150 3584 1784 3584 
Q 2172 3584 2448 3432 
Q 2725 3281 2906 2969 
z
M 947 1747 
Q 947 1113 1208 752 
Q 1469 391 1925 391 
Q 2381 391 2643 752 
Q 2906 1113 2906 1747 
Q 2906 2381 2643 2742 
Q 2381 3103 1925 3103 
Q 1469 3103 1208 2742 
Q 947 2381 947 1747 
z
" transform="scale(0.015625)"/>
       <path id="DejaVuSans-61" d="M 2194 1759 
Q 1497 1759 1228 1600 
Q 959 1441 959 1056 
Q 959 750 1161 570 
Q 1363 391 1709 391 
Q 2188 391 2477 730 
Q 2766 1069 2766 1631 
L 2766 1759 
L 2194 1759 
z
M 3341 1997 
L 3341 0 
L 2766 0 
L 2766 531 
Q 2569 213 2275 61 
Q 1981 -91 1556 -91 
Q 1019 -91 701 211 
Q 384 513 384 1019 
Q 384 1609 779 1909 
Q 1175 2209 1959 2209 
L 2766 2209 
L 2766 2266 
Q 2766 2663 2505 2880 
Q 2244 3097 1772 3097 
Q 1472 3097 1187 3025 
Q 903 2953 641 2809 
L 641 3341 
Q 956 3463 1253 3523 
Q 1550 3584 1831 3584 
Q 2591 3584 2966 3190 
Q 3341 2797 3341 1997 
z
" transform="scale(0.015625)"/>
       <path id="DejaVuSans-79" d="M 2059 -325 
Q 1816 -950 1584 -1140 
Q 1353 -1331 966 -1331 
L 506 -1331 
L 506 -850 
L 844 -850 
Q 1081 -850 1212 -737 
Q 1344 -625 1503 -206 
L 1606 56 
L 191 3500 
L 800 3500 
L 1894 763 
L 2988 3500 
L 3597 3500 
L 2059 -325 
z
" transform="scale(0.015625)"/>
       <path id="DejaVuSans-73" d="M 2834 3397 
L 2834 2853 
Q 2591 2978 2328 3040 
Q 2066 3103 1784 3103 
Q 1356 3103 1142 2972 
Q 928 2841 928 2578 
Q 928 2378 1081 2264 
Q 1234 2150 1697 2047 
L 1894 2003 
Q 2506 1872 2764 1633 
Q 3022 1394 3022 966 
Q 3022 478 2636 193 
Q 2250 -91 1575 -91 
Q 1294 -91 989 -36 
Q 684 19 347 128 
L 347 722 
Q 666 556 975 473 
Q 1284 391 1588 391 
Q 1994 391 2212 530 
Q 2431 669 2431 922 
Q 2431 1156 2273 1281 
Q 2116 1406 1581 1522 
L 1381 1569 
Q 847 1681 609 1914 
Q 372 2147 372 2553 
Q 372 3047 722 3315 
Q 1072 3584 1716 3584 
Q 2034 3584 2315 3537 
Q 2597 3491 2834 3397 
z
" transform="scale(0.015625)"/>
       <path id="DejaVuSans-5d" d="M 1947 4863 
L 1947 -844 
L 622 -844 
L 622 -397 
L 1369 -397 
L 1369 4416 
L 622 4416 
L 622 4863 
L 1947 4863 
z
" transform="scale(0.015625)"/>
      </defs>
      <use xlink:href="#DejaVuSans-54"/>
      <use xlink:href="#DejaVuSans-69" transform="translate(57.958984 0)"/>
      <use xlink:href="#DejaVuSans-6d" transform="translate(85.742188 0)"/>
      <use xlink:href="#DejaVuSans-65" transform="translate(183.154297 0)"/>
      <use xlink:href="#DejaVuSans-20" transform="translate(244.677734 0)"/>
      <use xlink:href="#DejaVuSans-5b" transform="translate(276.464844 0)"/>
      <use xlink:href="#DejaVuSans-64" transform="translate(315.478516 0)"/>
      <use xlink:href="#DejaVuSans-61" transform="translate(378.955078 0)"/>
      <use xlink:href="#DejaVuSans-79" transform="translate(440.234375 0)"/>
      <use xlink:href="#DejaVuSans-73" transform="translate(499.414062 0)"/>
      <use xlink:href="#DejaVuSans-5d" transform="translate(551.513672 0)"/>
     </g>
    </g>
   </g>
   <g id="matplotlib.axis_2">
    <g id="ytick_1">
     <g id="text_7">
      <!-- 0.0 -->
      <g style="fill: #262626" transform="translate(28.566562 302.30005) scale(0.11 -0.11)">
       <defs>
        <path id="DejaVuSans-2e" d="M 684 794 
L 1344 794 
L 1344 0 
L 684 0 
L 684 794 
z
" transform="scale(0.015625)"/>
       </defs>
       <use xlink:href="#DejaVuSans-30"/>
       <use xlink:href="#DejaVuSans-2e" transform="translate(63.623047 0)"/>
       <use xlink:href="#DejaVuSans-30" transform="translate(95.410156 0)"/>
      </g>
     </g>
    </g>
    <g id="ytick_2">
     <g id="text_8">
      <!-- 0.2 -->
      <g style="fill: #262626" transform="translate(28.566562 239.6265) scale(0.11 -0.11)">
       <use xlink:href="#DejaVuSans-30"/>
       <use xlink:href="#DejaVuSans-2e" transform="translate(63.623047 0)"/>
       <use xlink:href="#DejaVuSans-32" transform="translate(95.410156 0)"/>
      </g>
     </g>
    </g>
    <g id="ytick_3">
     <g id="text_9">
      <!-- 0.4 -->
      <g style="fill: #262626" transform="translate(28.566562 176.95295) scale(0.11 -0.11)">
       <defs>
        <path id="DejaVuSans-34" d="M 2419 4116 
L 825 1625 
L 2419 1625 
L 2419 4116 
z
M 2253 4666 
L 3047 4666 
L 3047 1625 
L 3713 1625 
L 3713 1100 
L 3047 1100 
L 3047 0 
L 2419 0 
L 2419 1100 
L 313 1100 
L 313 1709 
L 2253 4666 
z
" transform="scale(0.015625)"/>
       </defs>
       <use xlink:href="#DejaVuSans-30"/>
       <use xlink:href="#DejaVuSans-2e" transform="translate(63.623047 0)"/>
       <use xlink:href="#DejaVuSans-34" transform="translate(95.410156 0)"/>
      </g>
     </g>
    </g>
    <g id="ytick_4">
     <g id="text_10">
      <!-- 0.6 -->
      <g style="fill: #262626" transform="translate(28.566562 114.279401) scale(0.11 -0.11)">
       <defs>
        <path id="DejaVuSans-36" d="M 2113 2584 
Q 1688 2584 1439 2293 
Q 1191 2003 1191 1497 
Q 1191 994 1439 701 
Q 1688 409 2113 409 
Q 2538 409 2786 701 
Q 3034 994 3034 1497 
Q 3034 2003 2786 2293 
Q 2538 2584 2113 2584 
z
M 3366 4563 
L 3366 3988 
Q 3128 4100 2886 4159 
Q 2644 4219 2406 4219 
Q 1781 4219 1451 3797 
Q 1122 3375 1075 2522 
Q 1259 2794 1537 2939 
Q 1816 3084 2150 3084 
Q 2853 3084 3261 2657 
Q 3669 2231 3669 1497 
Q 3669 778 3244 343 
Q 2819 -91 2113 -91 
Q 1303 -91 875 529 
Q 447 1150 447 2328 
Q 447 3434 972 4092 
Q 1497 4750 2381 4750 
Q 2619 4750 2861 4703 
Q 3103 4656 3366 4563 
z
" transform="scale(0.015625)"/>
       </defs>
       <use xlink:href="#DejaVuSans-30"/>
       <use xlink:href="#DejaVuSans-2e" transform="translate(63.623047 0)"/>
       <use xlink:href="#DejaVuSans-36" transform="translate(95.410156 0)"/>
      </g>
     </g>
    </g>
    <g id="ytick_5">
     <g id="text_11">
      <!-- 0.8 -->
      <g style="fill: #262626" transform="translate(28.566562 51.605851) scale(0.11 -0.11)">
       <defs>
        <path id="DejaVuSans-38" d="M 2034 2216 
Q 1584 2216 1326 1975 
Q 1069 1734 1069 1313 
Q 1069 891 1326 650 
Q 1584 409 2034 409 
Q 2484 409 2743 651 
Q 3003 894 3003 1313 
Q 3003 1734 2745 1975 
Q 2488 2216 2034 2216 
z
M 1403 2484 
Q 997 2584 770 2862 
Q 544 3141 544 3541 
Q 544 4100 942 4425 
Q 1341 4750 2034 4750 
Q 2731 4750 3128 4425 
Q 3525 4100 3525 3541 
Q 3525 3141 3298 2862 
Q 3072 2584 2669 2484 
Q 3125 2378 3379 2068 
Q 3634 1759 3634 1313 
Q 3634 634 3220 271 
Q 2806 -91 2034 -91 
Q 1263 -91 848 271 
Q 434 634 434 1313 
Q 434 1759 690 2068 
Q 947 2378 1403 2484 
z
M 1172 3481 
Q 1172 3119 1398 2916 
Q 1625 2713 2034 2713 
Q 2441 2713 2670 2916 
Q 2900 3119 2900 3481 
Q 2900 3844 2670 4047 
Q 2441 4250 2034 4250 
Q 1625 4250 1398 4047 
Q 1172 3844 1172 3481 
z
" transform="scale(0.015625)"/>
       </defs>
       <use xlink:href="#DejaVuSans-30"/>
       <use xlink:href="#DejaVuSans-2e" transform="translate(63.623047 0)"/>
       <use xlink:href="#DejaVuSans-38" transform="translate(95.410156 0)"/>
      </g>
     </g>
    </g>
    <g id="text_12">
     <!-- nRMSE -->
     <g style="fill: #262626" transform="translate(22.070937 190.27875) rotate(-90) scale(0.12 -0.12)">
      <defs>
       <path id="DejaVuSans-6e" d="M 3513 2113 
L 3513 0 
L 2938 0 
L 2938 2094 
Q 2938 2591 2744 2837 
Q 2550 3084 2163 3084 
Q 1697 3084 1428 2787 
Q 1159 2491 1159 1978 
L 1159 0 
L 581 0 
L 581 3500 
L 1159 3500 
L 1159 2956 
Q 1366 3272 1645 3428 
Q 1925 3584 2291 3584 
Q 2894 3584 3203 3211 
Q 3513 2838 3513 2113 
z
" transform="scale(0.015625)"/>
       <path id="DejaVuSans-52" d="M 2841 2188 
Q 3044 2119 3236 1894 
Q 3428 1669 3622 1275 
L 4263 0 
L 3584 0 
L 2988 1197 
Q 2756 1666 2539 1819 
Q 2322 1972 1947 1972 
L 1259 1972 
L 1259 0 
L 628 0 
L 628 4666 
L 2053 4666 
Q 2853 4666 3247 4331 
Q 3641 3997 3641 3322 
Q 3641 2881 3436 2590 
Q 3231 2300 2841 2188 
z
M 1259 4147 
L 1259 2491 
L 2053 2491 
Q 2509 2491 2742 2702 
Q 2975 2913 2975 3322 
Q 2975 3731 2742 3939 
Q 2509 4147 2053 4147 
L 1259 4147 
z
" transform="scale(0.015625)"/>
       <path id="DejaVuSans-4d" d="M 628 4666 
L 1569 4666 
L 2759 1491 
L 3956 4666 
L 4897 4666 
L 4897 0 
L 4281 0 
L 4281 4097 
L 3078 897 
L 2444 897 
L 1241 4097 
L 1241 0 
L 628 0 
L 628 4666 
z
" transform="scale(0.015625)"/>
       <path id="DejaVuSans-53" d="M 3425 4513 
L 3425 3897 
Q 3066 4069 2747 4153 
Q 2428 4238 2131 4238 
Q 1616 4238 1336 4038 
Q 1056 3838 1056 3469 
Q 1056 3159 1242 3001 
Q 1428 2844 1947 2747 
L 2328 2669 
Q 3034 2534 3370 2195 
Q 3706 1856 3706 1288 
Q 3706 609 3251 259 
Q 2797 -91 1919 -91 
Q 1588 -91 1214 -16 
Q 841 59 441 206 
L 441 856 
Q 825 641 1194 531 
Q 1563 422 1919 422 
Q 2459 422 2753 634 
Q 3047 847 3047 1241 
Q 3047 1584 2836 1778 
Q 2625 1972 2144 2069 
L 1759 2144 
Q 1053 2284 737 2584 
Q 422 2884 422 3419 
Q 422 4038 858 4394 
Q 1294 4750 2059 4750 
Q 2388 4750 2728 4690 
Q 3069 4631 3425 4513 
z
" transform="scale(0.015625)"/>
       <path id="DejaVuSans-45" d="M 628 4666 
L 3578 4666 
L 3578 4134 
L 1259 4134 
L 1259 2753 
L 3481 2753 
L 3481 2222 
L 1259 2222 
L 1259 531 
L 3634 531 
L 3634 0 
L 628 0 
L 628 4666 
z
" transform="scale(0.015625)"/>
      </defs>
      <use xlink:href="#DejaVuSans-6e"/>
      <use xlink:href="#DejaVuSans-52" transform="translate(63.378906 0)"/>
      <use xlink:href="#DejaVuSans-4d" transform="translate(132.861328 0)"/>
      <use xlink:href="#DejaVuSans-53" transform="translate(219.140625 0)"/>
      <use xlink:href="#DejaVuSans-45" transform="translate(282.617188 0)"/>
     </g>
    </g>
   </g>
   <g id="FillBetweenPolyCollection_1">
    <defs>
     <path id="me9b4178fc9" d="M 85.172727 -61.879091 
L 85.172727 -61.879091 
L 87.55126 -62.956267 
L 89.929792 -64.033173 
L 92.308324 -65.109686 
L 94.686857 -66.185652 
L 97.065389 -67.260905 
L 99.443921 -68.33528 
L 101.822453 -69.408621 
L 104.200986 -70.480809 
L 106.579518 -71.551758 
L 108.95805 -72.621414 
L 111.336583 -73.689779 
L 113.715115 -74.756908 
L 116.093647 -75.822915 
L 118.47218 -76.88795 
L 120.850712 -77.952191 
L 123.229244 -79.015847 
L 125.607777 -80.079142 
L 127.986309 -81.142323 
L 130.364841 -82.205627 
L 132.743373 -83.26926 
L 135.121906 -84.333384 
L 137.500438 -85.398118 
L 139.87897 -86.463536 
L 142.257503 -87.529669 
L 144.636035 -88.596505 
L 147.014567 -89.664024 
L 149.3931 -90.732197 
L 151.771632 -91.80099 
L 154.150164 -92.870397 
L 156.528697 -93.940427 
L 158.907229 -95.011101 
L 161.285761 -96.082463 
L 163.664294 -97.154534 
L 166.042826 -98.227332 
L 168.421358 -99.300891 
L 170.79989 -100.375198 
L 173.178423 -101.450211 
L 175.556955 -102.525893 
L 177.935487 -103.602169 
L 180.31402 -104.678938 
L 182.692552 -105.756099 
L 185.071084 -106.833558 
L 187.449617 -107.91118 
L 189.828149 -108.988757 
L 192.206681 -110.066068 
L 194.585214 -111.142849 
L 196.963746 -112.21878 
L 199.342278 -113.29352 
L 201.720811 -114.366678 
L 204.099343 -115.437834 
L 206.477875 -116.506542 
L 208.856407 -117.572368 
L 211.23494 -118.634885 
L 213.613472 -119.693659 
L 215.992004 -120.748294 
L 218.370537 -121.798424 
L 220.749069 -122.843698 
L 223.127601 -123.8838 
L 225.506134 -124.918439 
L 227.884666 -125.947367 
L 230.263198 -126.97038 
L 232.641731 -127.987306 
L 235.020263 -128.998028 
L 237.398795 -130.002477 
L 239.777327 -131.000619 
L 242.15586 -131.992479 
L 244.534392 -132.978157 
L 246.912924 -133.957799 
L 249.291457 -134.931606 
L 251.669989 -135.899832 
L 254.048521 -136.862791 
L 256.427054 -137.820824 
L 258.805586 -138.774294 
L 261.184118 -139.723566 
L 263.562651 -140.668972 
L 265.941183 -141.61081 
L 268.319715 -142.549344 
L 270.698248 -143.48479 
L 273.07678 -144.417325 
L 275.455312 -145.34705 
L 277.833844 -146.274029 
L 280.212377 -147.198254 
L 282.590909 -148.119638 
L 284.969441 -149.038083 
L 287.347974 -149.953501 
L 289.726506 -150.865779 
L 292.105038 -151.774826 
L 294.483571 -152.680618 
L 296.862103 -153.58313 
L 299.240635 -154.482362 
L 301.619168 -155.378363 
L 303.9977 -156.271213 
L 306.376232 -157.160986 
L 308.754765 -158.047744 
L 311.133297 -158.931556 
L 313.511829 -159.812513 
L 315.890361 -160.690714 
L 318.268894 -161.566249 
L 320.647426 -162.439231 
L 323.025958 -163.309784 
L 325.404491 -164.178013 
L 327.783023 -165.044012 
L 330.161555 -165.907922 
L 332.540088 -166.769894 
L 334.91862 -167.630087 
L 337.297152 -168.488712 
L 339.675685 -169.346008 
L 342.054217 -170.202243 
L 344.432749 -171.057728 
L 346.811281 -171.912819 
L 349.189814 -172.767898 
L 351.568346 -173.62336 
L 353.946878 -174.479627 
L 356.325411 -175.337136 
L 358.703943 -176.196336 
L 361.082475 -177.057702 
L 363.461008 -177.921752 
L 365.83954 -178.789055 
L 368.218072 -179.660212 
L 370.596605 -180.53585 
L 372.975137 -181.416664 
L 375.353669 -182.303384 
L 377.732202 -183.196709 
L 380.110734 -184.097327 
L 382.489266 -185.005851 
L 384.867798 -185.922775 
L 387.246331 -186.848437 
L 389.624863 -187.782974 
L 392.003395 -188.726302 
L 394.381928 -189.67811 
L 396.76046 -190.637899 
L 399.138992 -191.604967 
L 401.517525 -192.578469 
L 403.896057 -193.557409 
L 406.274589 -194.540636 
L 408.653122 -195.526917 
L 411.031654 -196.514948 
L 413.410186 -197.503366 
L 415.788719 -198.490808 
L 418.167251 -199.47596 
L 420.545783 -200.457585 
L 422.924315 -201.434518 
L 425.302848 -202.405688 
L 427.68138 -203.370078 
L 430.059912 -204.326716 
L 432.438445 -205.274643 
L 434.816977 -206.212983 
L 437.195509 -207.140959 
L 439.574042 -208.057984 
L 441.952574 -208.963706 
L 444.331106 -209.858023 
L 446.709639 -210.741102 
L 449.088171 -211.613336 
L 451.466703 -212.475333 
L 453.845235 -213.327886 
L 456.223768 -214.171904 
L 458.6023 -215.00837 
L 460.980832 -215.838316 
L 463.359365 -216.662799 
L 465.737897 -217.482834 
L 468.116429 -218.299371 
L 470.494962 -219.113234 
L 472.873494 -219.925111 
L 475.252026 -220.735526 
L 477.630559 -221.544835 
L 480.009091 -222.353271 
L 482.387623 -223.161001 
L 484.766156 -223.968171 
L 487.144688 -224.774932 
L 489.52322 -225.58144 
L 491.901752 -226.387834 
L 494.280285 -227.19417 
L 496.658817 -228.000422 
L 499.037349 -228.806458 
L 501.415882 -229.612066 
L 503.794414 -230.416983 
L 506.172946 -231.220955 
L 508.551479 -232.023808 
L 510.930011 -232.825477 
L 513.308543 -233.626008 
L 515.687076 -234.425555 
L 518.065608 -235.224383 
L 520.44414 -236.022824 
L 522.822673 -236.821273 
L 525.201205 -237.620156 
L 527.579737 -238.419859 
L 529.958269 -239.220684 
L 532.336802 -240.022791 
L 534.715334 -240.826207 
L 537.093866 -241.630815 
L 539.472399 -242.43634 
L 541.850931 -243.242434 
L 544.229463 -244.048695 
L 546.607996 -244.854748 
L 548.986528 -245.660303 
L 551.36506 -246.465191 
L 553.743593 -247.26937 
L 556.122125 -248.072879 
L 558.500657 -248.875781 
L 560.879189 -249.678154 
L 563.257722 -250.480042 
L 565.636254 -251.28146 
L 568.014786 -252.082352 
L 570.393319 -252.882627 
L 572.771851 -253.682173 
L 575.150383 -254.480828 
L 577.528916 -255.278411 
L 579.907448 -256.074726 
L 582.28598 -256.869555 
L 584.664513 -257.662691 
L 587.043045 -258.453924 
L 589.421577 -259.24304 
L 591.80011 -260.029824 
L 594.178642 -260.814061 
L 596.557174 -261.595518 
L 598.935706 -262.373869 
L 601.314239 -263.148745 
L 603.692771 -263.919735 
L 606.071303 -264.686422 
L 608.449836 -265.448437 
L 610.828368 -266.205439 
L 613.2069 -266.95719 
L 615.585433 -267.703568 
L 617.963965 -268.444528 
L 620.342497 -269.180114 
L 622.72103 -269.910438 
L 625.099562 -270.635656 
L 627.478094 -271.355919 
L 629.856627 -272.071444 
L 632.235159 -272.782406 
L 634.613691 -273.488915 
L 636.992223 -274.191076 
L 639.370756 -274.888973 
L 641.749288 -275.582617 
L 644.12782 -276.272065 
L 646.506353 -276.957319 
L 648.884885 -277.63837 
L 651.263417 -278.315314 
L 653.64195 -278.988313 
L 656.020482 -279.657579 
L 658.399014 -280.323418 
L 660.777547 -280.986169 
L 663.156079 -281.646124 
L 665.534611 -282.303541 
L 667.913143 -282.958634 
L 670.291676 -283.611481 
L 672.670208 -284.262023 
L 675.04874 -284.910061 
L 677.427273 -285.555289 
L 677.427273 -352.566529 
L 677.427273 -352.566529 
L 675.04874 -352.040323 
L 672.670208 -351.507134 
L 670.291676 -350.96654 
L 667.913143 -350.418066 
L 665.534611 -349.861208 
L 663.156079 -349.295444 
L 660.777547 -348.720261 
L 658.399014 -348.13519 
L 656.020482 -347.53982 
L 653.64195 -346.933801 
L 651.263417 -346.316849 
L 648.884885 -345.688784 
L 646.506353 -345.049528 
L 644.12782 -344.399131 
L 641.749288 -343.737774 
L 639.370756 -343.065824 
L 636.992223 -342.383792 
L 634.613691 -341.692302 
L 632.235159 -340.992123 
L 629.856627 -340.284132 
L 627.478094 -339.569277 
L 625.099562 -338.848541 
L 622.72103 -338.122945 
L 620.342497 -337.393453 
L 617.963965 -336.660965 
L 615.585433 -335.926282 
L 613.2069 -335.190081 
L 610.828368 -334.452909 
L 608.449836 -333.715168 
L 606.071303 -332.9771 
L 603.692771 -332.238802 
L 601.314239 -331.500204 
L 598.935706 -330.761061 
L 596.557174 -330.020982 
L 594.178642 -329.279415 
L 591.80011 -328.535698 
L 589.421577 -327.789158 
L 587.043045 -327.039229 
L 584.664513 -326.285526 
L 582.28598 -325.527942 
L 579.907448 -324.766735 
L 577.528916 -324.002536 
L 575.150383 -323.236348 
L 572.771851 -322.469491 
L 570.393319 -321.70356 
L 568.014786 -320.940329 
L 565.636254 -320.181644 
L 563.257722 -319.4293 
L 560.879189 -318.684946 
L 558.500657 -317.950028 
L 556.122125 -317.225748 
L 553.743593 -316.513051 
L 551.36506 -315.812711 
L 548.986528 -315.125382 
L 546.607996 -314.451688 
L 544.229463 -313.792286 
L 541.850931 -313.147873 
L 539.472399 -312.519164 
L 537.093866 -311.906842 
L 534.715334 -311.311476 
L 532.336802 -310.733501 
L 529.958269 -310.173132 
L 527.579737 -309.630341 
L 525.201205 -309.104848 
L 522.822673 -308.596125 
L 520.44414 -308.103423 
L 518.065608 -307.625782 
L 515.687076 -307.162101 
L 513.308543 -306.711172 
L 510.930011 -306.271697 
L 508.551479 -305.842336 
L 506.172946 -305.421734 
L 503.794414 -305.00854 
L 501.415882 -304.601422 
L 499.037349 -304.199072 
L 496.658817 -303.800191 
L 494.280285 -303.403465 
L 491.901752 -303.007549 
L 489.52322 -302.611064 
L 487.144688 -302.212626 
L 484.766156 -301.810858 
L 482.387623 -301.404444 
L 480.009091 -300.992162 
L 477.630559 -300.572875 
L 475.252026 -300.145585 
L 472.873494 -299.709407 
L 470.494962 -299.263528 
L 468.116429 -298.807219 
L 465.737897 -298.339817 
L 463.359365 -297.860705 
L 460.980832 -297.369294 
L 458.6023 -296.86504 
L 456.223768 -296.347392 
L 453.845235 -295.815814 
L 451.466703 -295.269773 
L 449.088171 -294.708717 
L 446.709639 -294.132076 
L 444.331106 -293.53934 
L 441.952574 -292.930052 
L 439.574042 -292.303806 
L 437.195509 -291.660211 
L 434.816977 -290.998907 
L 432.438445 -290.319533 
L 430.059912 -289.621768 
L 427.68138 -288.905266 
L 425.302848 -288.169612 
L 422.924315 -287.414344 
L 420.545783 -286.638996 
L 418.167251 -285.843079 
L 415.788719 -285.026114 
L 413.410186 -284.187732 
L 411.031654 -283.32768 
L 408.653122 -282.445834 
L 406.274589 -281.542253 
L 403.896057 -280.617178 
L 401.517525 -279.671021 
L 399.138992 -278.704359 
L 396.76046 -277.717878 
L 394.381928 -276.712361 
L 392.003395 -275.688585 
L 389.624863 -274.647275 
L 387.246331 -273.589073 
L 384.867798 -272.514478 
L 382.489266 -271.423837 
L 380.110734 -270.317339 
L 377.732202 -269.195027 
L 375.353669 -268.056818 
L 372.975137 -266.902531 
L 370.596605 -265.731905 
L 368.218072 -264.54459 
L 365.83954 -263.340211 
L 363.461008 -262.118383 
L 361.082475 -260.878733 
L 358.703943 -259.620905 
L 356.325411 -258.344586 
L 353.946878 -257.04954 
L 351.568346 -255.735634 
L 349.189814 -254.402835 
L 346.811281 -253.0512 
L 344.432749 -251.68086 
L 342.054217 -250.292049 
L 339.675685 -248.885038 
L 337.297152 -247.460153 
L 334.91862 -246.017788 
L 332.540088 -244.558353 
L 330.161555 -243.082281 
L 327.783023 -241.590018 
L 325.404491 -240.081967 
L 323.025958 -238.558548 
L 320.647426 -237.020184 
L 318.268894 -235.467336 
L 315.890361 -233.90042 
L 313.511829 -232.319806 
L 311.133297 -230.725799 
L 308.754765 -229.118561 
L 306.376232 -227.498222 
L 303.9977 -225.86478 
L 301.619168 -224.218182 
L 299.240635 -222.558385 
L 296.862103 -220.885351 
L 294.483571 -219.199092 
L 292.105038 -217.499622 
L 289.726506 -215.786946 
L 287.347974 -214.061117 
L 284.969441 -212.322187 
L 282.590909 -210.570193 
L 280.212377 -208.805158 
L 277.833844 -207.02715 
L 275.455312 -205.236337 
L 273.07678 -203.432954 
L 270.698248 -201.617368 
L 268.319715 -199.790093 
L 265.941183 -197.95177 
L 263.562651 -196.103178 
L 261.184118 -194.245248 
L 258.805586 -192.378999 
L 256.427054 -190.505539 
L 254.048521 -188.626005 
L 251.669989 -186.741527 
L 249.291457 -184.853186 
L 246.912924 -182.96203 
L 244.534392 -181.069063 
L 242.15586 -179.175255 
L 239.777327 -177.281567 
L 237.398795 -175.388953 
L 235.020263 -173.498344 
L 232.641731 -171.61064 
L 230.263198 -169.726721 
L 227.884666 -167.847401 
L 225.506134 -165.973396 
L 223.127601 -164.105322 
L 220.749069 -162.243678 
L 218.370537 -160.388864 
L 215.992004 -158.541164 
L 213.613472 -156.700763 
L 211.23494 -154.867756 
L 208.856407 -153.042107 
L 206.477875 -151.223629 
L 204.099343 -149.41214 
L 201.720811 -147.607362 
L 199.342278 -145.808872 
L 196.963746 -144.016167 
L 194.585214 -142.228701 
L 192.206681 -140.446003 
L 189.828149 -138.667498 
L 187.449617 -136.89262 
L 185.071084 -135.120828 
L 182.692552 -133.351505 
L 180.31402 -131.584285 
L 177.935487 -129.818947 
L 175.556955 -128.055292 
L 173.178423 -126.293185 
L 170.79989 -124.532656 
L 168.421358 -122.773888 
L 166.042826 -121.017057 
L 163.664294 -119.262361 
L 161.285761 -117.510135 
L 158.907229 -115.760606 
L 156.528697 -114.013931 
L 154.150164 -112.270286 
L 151.771632 -110.529713 
L 149.3931 -108.792131 
L 147.014567 -107.057328 
L 144.636035 -105.32493 
L 142.257503 -103.594452 
L 139.87897 -101.865356 
L 137.500438 -100.13705 
L 135.121906 -98.408961 
L 132.743373 -96.680573 
L 130.364841 -94.951443 
L 127.986309 -93.221211 
L 125.607777 -91.489619 
L 123.229244 -89.756507 
L 120.850712 -88.021767 
L 118.47218 -86.285337 
L 116.093647 -84.547249 
L 113.715115 -82.807602 
L 111.336583 -81.066555 
L 108.95805 -79.32431 
L 106.579518 -77.581097 
L 104.200986 -75.837125 
L 101.822453 -74.092584 
L 99.443921 -72.347657 
L 97.065389 -70.602521 
L 94.686857 -68.857333 
L 92.308324 -67.11223 
L 89.929792 -65.367355 
L 87.55126 -63.622879 
L 85.172727 -61.879091 
z
" style="stroke: #000000; stroke-opacity: 0.1"/>
    </defs>
    <g clip-path="url(#p930b669ae1)">
     <use xlink:href="#me9b4178fc9" x="0" y="360" style="fill-opacity: 0.1; stroke: #000000; stroke-opacity: 0.1"/>
    </g>
   </g>
   <g id="FillBetweenPolyCollection_2">
    <defs>
     <path id="m1bed84f0ba" d="M 85.172727 -61.879091 
L 85.172727 -61.879091 
L 87.55126 -62.385719 
L 89.929792 -62.881752 
L 92.308324 -63.366745 
L 94.686857 -63.840242 
L 97.065389 -64.301769 
L 99.443921 -64.750857 
L 101.822453 -65.187057 
L 104.200986 -65.609946 
L 106.579518 -66.019142 
L 108.95805 -66.41431 
L 111.336583 -66.795188 
L 113.715115 -67.161577 
L 116.093647 -67.513358 
L 118.47218 -67.85049 
L 120.850712 -68.173011 
L 123.229244 -68.48102 
L 125.607777 -68.774668 
L 127.986309 -69.054165 
L 130.364841 -69.319748 
L 132.743373 -69.571663 
L 135.121906 -69.810169 
L 137.500438 -70.035523 
L 139.87897 -70.247981 
L 142.257503 -70.447795 
L 144.636035 -70.635207 
L 147.014567 -70.810465 
L 149.3931 -70.973824 
L 151.771632 -71.125564 
L 154.150164 -71.265998 
L 156.528697 -71.395458 
L 158.907229 -71.514272 
L 161.285761 -71.622809 
L 163.664294 -71.721428 
L 166.042826 -71.810446 
L 168.421358 -71.890086 
L 170.79989 -71.960451 
L 173.178423 -72.021572 
L 175.556955 -72.073423 
L 177.935487 -72.115974 
L 180.31402 -72.14923 
L 182.692552 -72.173269 
L 185.071084 -72.188246 
L 187.449617 -72.194404 
L 189.828149 -72.192035 
L 192.206681 -72.181448 
L 194.585214 -72.16293 
L 196.963746 -72.136753 
L 199.342278 -72.103138 
L 201.720811 -72.062241 
L 204.099343 -72.01415 
L 206.477875 -71.958878 
L 208.856407 -71.89637 
L 211.23494 -71.826531 
L 213.613472 -71.749222 
L 215.992004 -71.664276 
L 218.370537 -71.571519 
L 220.749069 -71.470783 
L 223.127601 -71.36193 
L 225.506134 -71.244857 
L 227.884666 -71.119507 
L 230.263198 -70.985851 
L 232.641731 -70.843872 
L 235.020263 -70.693559 
L 237.398795 -70.534934 
L 239.777327 -70.368038 
L 242.15586 -70.192976 
L 244.534392 -70.009932 
L 246.912924 -69.8192 
L 249.291457 -69.621195 
L 251.669989 -69.41647 
L 254.048521 -69.205701 
L 256.427054 -68.989685 
L 258.805586 -68.769316 
L 261.184118 -68.545559 
L 263.562651 -68.319435 
L 265.941183 -68.091971 
L 268.319715 -67.864173 
L 270.698248 -67.636993 
L 273.07678 -67.411296 
L 275.455312 -67.187855 
L 277.833844 -66.967316 
L 280.212377 -66.750187 
L 282.590909 -66.536859 
L 284.969441 -66.327617 
L 287.347974 -66.122645 
L 289.726506 -65.922109 
L 292.105038 -65.726155 
L 294.483571 -65.534932 
L 296.862103 -65.348643 
L 299.240635 -65.167548 
L 301.619168 -64.991972 
L 303.9977 -64.822293 
L 306.376232 -64.658917 
L 308.754765 -64.502246 
L 311.133297 -64.352689 
L 313.511829 -64.21062 
L 315.890361 -64.076349 
L 318.268894 -63.950142 
L 320.647426 -63.832215 
L 323.025958 -63.722698 
L 325.404491 -63.621664 
L 327.783023 -63.529101 
L 330.161555 -63.444925 
L 332.540088 -63.36899 
L 334.91862 -63.301142 
L 337.297152 -63.241196 
L 339.675685 -63.188978 
L 342.054217 -63.144326 
L 344.432749 -63.107073 
L 346.811281 -63.07705 
L 349.189814 -63.054096 
L 351.568346 -63.037998 
L 353.946878 -63.028463 
L 356.325411 -63.025134 
L 358.703943 -63.027559 
L 361.082475 -63.035184 
L 363.461008 -63.047386 
L 365.83954 -63.063507 
L 368.218072 -63.082855 
L 370.596605 -63.104717 
L 372.975137 -63.128391 
L 375.353669 -63.153171 
L 377.732202 -63.178335 
L 380.110734 -63.203149 
L 382.489266 -63.22688 
L 384.867798 -63.248784 
L 387.246331 -63.268109 
L 389.624863 -63.284163 
L 392.003395 -63.296381 
L 394.381928 -63.304341 
L 396.76046 -63.307807 
L 399.138992 -63.306771 
L 401.517525 -63.301498 
L 403.896057 -63.292498 
L 406.274589 -63.280534 
L 408.653122 -63.266648 
L 411.031654 -63.252116 
L 413.410186 -63.238481 
L 415.788719 -63.227509 
L 418.167251 -63.221143 
L 420.545783 -63.221326 
L 422.924315 -63.229835 
L 425.302848 -63.24802 
L 427.68138 -63.276639 
L 430.059912 -63.315808 
L 432.438445 -63.365091 
L 434.816977 -63.423758 
L 437.195509 -63.491046 
L 439.574042 -63.566334 
L 441.952574 -63.649146 
L 444.331106 -63.739161 
L 446.709639 -63.836083 
L 449.088171 -63.939533 
L 451.466703 -64.049041 
L 453.845235 -64.163952 
L 456.223768 -64.283432 
L 458.6023 -64.406504 
L 460.980832 -64.532162 
L 463.359365 -64.659599 
L 465.737897 -64.788443 
L 468.116429 -64.918893 
L 470.494962 -65.051811 
L 472.873494 -65.188679 
L 475.252026 -65.331518 
L 477.630559 -65.482831 
L 480.009091 -65.645516 
L 482.387623 -65.822791 
L 484.766156 -66.018105 
L 487.144688 -66.234927 
L 489.52322 -66.476522 
L 491.901752 -66.745639 
L 494.280285 -67.044216 
L 496.658817 -67.373286 
L 499.037349 -67.733041 
L 501.415882 -68.123 
L 503.794414 -68.542242 
L 506.172946 -68.989579 
L 508.551479 -69.463707 
L 510.930011 -69.96324 
L 513.308543 -70.486806 
L 515.687076 -71.033016 
L 518.065608 -71.600463 
L 520.44414 -72.187882 
L 522.822673 -72.7941 
L 525.201205 -73.418103 
L 527.579737 -74.059097 
L 529.958269 -74.716515 
L 532.336802 -75.390067 
L 534.715334 -76.07973 
L 537.093866 -76.7857 
L 539.472399 -77.508304 
L 541.850931 -78.247888 
L 544.229463 -79.004732 
L 546.607996 -79.778982 
L 548.986528 -80.570704 
L 551.36506 -81.379928 
L 553.743593 -82.206659 
L 556.122125 -83.05096 
L 558.500657 -83.912933 
L 560.879189 -84.792726 
L 563.257722 -85.690516 
L 565.636254 -86.606423 
L 568.014786 -87.540483 
L 570.393319 -88.492575 
L 572.771851 -89.462402 
L 575.150383 -90.449489 
L 577.528916 -91.453202 
L 579.907448 -92.472879 
L 582.28598 -93.507906 
L 584.664513 -94.557824 
L 587.043045 -95.622428 
L 589.421577 -96.701744 
L 591.80011 -97.796026 
L 594.178642 -98.905671 
L 596.557174 -100.031087 
L 598.935706 -101.172637 
L 601.314239 -102.330607 
L 603.692771 -103.505257 
L 606.071303 -104.69689 
L 608.449836 -105.905964 
L 610.828368 -107.133122 
L 613.2069 -108.37924 
L 615.585433 -109.645383 
L 617.963965 -110.93267 
L 620.342497 -112.242158 
L 622.72103 -113.574726 
L 625.099562 -114.930914 
L 627.478094 -116.310843 
L 629.856627 -117.714207 
L 632.235159 -119.14032 
L 634.613691 -120.588188 
L 636.992223 -122.056615 
L 639.370756 -123.544266 
L 641.749288 -125.049726 
L 644.12782 -126.571512 
L 646.506353 -128.108077 
L 648.884885 -129.657855 
L 651.263417 -131.21926 
L 653.64195 -132.790702 
L 656.020482 -134.370635 
L 658.399014 -135.957588 
L 660.777547 -137.55018 
L 663.156079 -139.147121 
L 665.534611 -140.747211 
L 667.913143 -142.349405 
L 670.291676 -143.952776 
L 672.670208 -145.556535 
L 675.04874 -147.160062 
L 677.427273 -148.76292 
L 677.427273 -197.273356 
L 677.427273 -197.273356 
L 675.04874 -195.771144 
L 672.670208 -194.293829 
L 670.291676 -192.841951 
L 667.913143 -191.415882 
L 665.534611 -190.015862 
L 663.156079 -188.642013 
L 660.777547 -187.294437 
L 658.399014 -185.973199 
L 656.020482 -184.678408 
L 653.64195 -183.410173 
L 651.263417 -182.168587 
L 648.884885 -180.953756 
L 646.506353 -179.76564 
L 644.12782 -178.604052 
L 641.749288 -177.468614 
L 639.370756 -176.358665 
L 636.992223 -175.273222 
L 634.613691 -174.21088 
L 632.235159 -173.169855 
L 629.856627 -172.148132 
L 627.478094 -171.143771 
L 625.099562 -170.155301 
L 622.72103 -169.18207 
L 620.342497 -168.224457 
L 617.963965 -167.283902 
L 615.585433 -166.362699 
L 613.2069 -165.463645 
L 610.828368 -164.589677 
L 608.449836 -163.743479 
L 606.071303 -162.927224 
L 603.692771 -162.142471 
L 601.314239 -161.390154 
L 598.935706 -160.670622 
L 596.557174 -159.983738 
L 594.178642 -159.32888 
L 591.80011 -158.705025 
L 589.421577 -158.110915 
L 587.043045 -157.545149 
L 584.664513 -157.006257 
L 582.28598 -156.492877 
L 579.907448 -156.003868 
L 577.528916 -155.538378 
L 575.150383 -155.095928 
L 572.771851 -154.676373 
L 570.393319 -154.279931 
L 568.014786 -153.907072 
L 565.636254 -153.558363 
L 563.257722 -153.234388 
L 560.879189 -152.935605 
L 558.500657 -152.66229 
L 556.122125 -152.414493 
L 553.743593 -152.192038 
L 551.36506 -151.994559 
L 548.986528 -151.821576 
L 546.607996 -151.672476 
L 544.229463 -151.546575 
L 541.850931 -151.443113 
L 539.472399 -151.361304 
L 537.093866 -151.300313 
L 534.715334 -151.259323 
L 532.336802 -151.237432 
L 529.958269 -151.233719 
L 527.579737 -151.24725 
L 525.201205 -151.277061 
L 522.822673 -151.322139 
L 520.44414 -151.38155 
L 518.065608 -151.454285 
L 515.687076 -151.539275 
L 513.308543 -151.635485 
L 510.930011 -151.741949 
L 508.551479 -151.857765 
L 506.172946 -151.982164 
L 503.794414 -152.114605 
L 501.415882 -152.254785 
L 499.037349 -152.40255 
L 496.658817 -152.557805 
L 494.280285 -152.720485 
L 491.901752 -152.890455 
L 489.52322 -153.067523 
L 487.144688 -153.251491 
L 484.766156 -153.442172 
L 482.387623 -153.639446 
L 480.009091 -153.843354 
L 477.630559 -154.054202 
L 475.252026 -154.272629 
L 472.873494 -154.499535 
L 470.494962 -154.735944 
L 468.116429 -154.982855 
L 465.737897 -155.241065 
L 463.359365 -155.510959 
L 460.980832 -155.792342 
L 458.6023 -156.084416 
L 456.223768 -156.385906 
L 453.845235 -156.695299 
L 451.466703 -157.011097 
L 449.088171 -157.331932 
L 446.709639 -157.656633 
L 444.331106 -157.984239 
L 441.952574 -158.313994 
L 439.574042 -158.64529 
L 437.195509 -158.977609 
L 434.816977 -159.310555 
L 432.438445 -159.643818 
L 430.059912 -159.977247 
L 427.68138 -160.310821 
L 425.302848 -160.644589 
L 422.924315 -160.978667 
L 420.545783 -161.313186 
L 418.167251 -161.648243 
L 415.788719 -161.983927 
L 413.410186 -162.32031 
L 411.031654 -162.657496 
L 408.653122 -162.995534 
L 406.274589 -163.334406 
L 403.896057 -163.67402 
L 401.517525 -164.014119 
L 399.138992 -164.354199 
L 396.76046 -164.69346 
L 394.381928 -165.030777 
L 392.003395 -165.364683 
L 389.624863 -165.693389 
L 387.246331 -166.014882 
L 384.867798 -166.327046 
L 382.489266 -166.627787 
L 380.110734 -166.915172 
L 377.732202 -167.187519 
L 375.353669 -167.443401 
L 372.975137 -167.681613 
L 370.596605 -167.901098 
L 368.218072 -168.100834 
L 365.83954 -168.279799 
L 363.461008 -168.436892 
L 361.082475 -168.570901 
L 358.703943 -168.680479 
L 356.325411 -168.764183 
L 353.946878 -168.820537 
L 351.568346 -168.848099 
L 349.189814 -168.845516 
L 346.811281 -168.811553 
L 344.432749 -168.745124 
L 342.054217 -168.645325 
L 339.675685 -168.511398 
L 337.297152 -168.342766 
L 334.91862 -168.139066 
L 332.540088 -167.900123 
L 330.161555 -167.625973 
L 327.783023 -167.316846 
L 325.404491 -166.973119 
L 323.025958 -166.595344 
L 320.647426 -166.184181 
L 318.268894 -165.740401 
L 315.890361 -165.264797 
L 313.511829 -164.758156 
L 311.133297 -164.221266 
L 308.754765 -163.654904 
L 306.376232 -163.059881 
L 303.9977 -162.436977 
L 301.619168 -161.787005 
L 299.240635 -161.110868 
L 296.862103 -160.409555 
L 294.483571 -159.684184 
L 292.105038 -158.935981 
L 289.726506 -158.166279 
L 287.347974 -157.376524 
L 284.969441 -156.568224 
L 282.590909 -155.742918 
L 280.212377 -154.902153 
L 277.833844 -154.047467 
L 275.455312 -153.180402 
L 273.07678 -152.302505 
L 270.698248 -151.415309 
L 268.319715 -150.52032 
L 265.941183 -149.619003 
L 263.562651 -148.712761 
L 261.184118 -147.802928 
L 258.805586 -146.890731 
L 256.427054 -145.977271 
L 254.048521 -145.063482 
L 251.669989 -144.15012 
L 249.291457 -143.23777 
L 246.912924 -142.326871 
L 244.534392 -141.417731 
L 242.15586 -140.510558 
L 239.777327 -139.605483 
L 237.398795 -138.702583 
L 235.020263 -137.801863 
L 232.641731 -136.903232 
L 230.263198 -136.006511 
L 227.884666 -135.111388 
L 225.506134 -134.217417 
L 223.127601 -133.32401 
L 220.749069 -132.430453 
L 218.370537 -131.535913 
L 215.992004 -130.639431 
L 213.613472 -129.739951 
L 211.23494 -128.836327 
L 208.856407 -127.927328 
L 206.477875 -127.011692 
L 204.099343 -126.088173 
L 201.720811 -125.155499 
L 199.342278 -124.212439 
L 196.963746 -123.257832 
L 194.585214 -122.29059 
L 192.206681 -121.309709 
L 189.828149 -120.31427 
L 187.449617 -119.303445 
L 185.071084 -118.276546 
L 182.692552 -117.233012 
L 180.31402 -116.172444 
L 177.935487 -115.094575 
L 175.556955 -113.999298 
L 173.178423 -112.886666 
L 170.79989 -111.756844 
L 168.421358 -110.610132 
L 166.042826 -109.446949 
L 163.664294 -108.26771 
L 161.285761 -107.072939 
L 158.907229 -105.863197 
L 156.528697 -104.639048 
L 154.150164 -103.401105 
L 151.771632 -102.149977 
L 149.3931 -100.886202 
L 147.014567 -99.610266 
L 144.636035 -98.322549 
L 142.257503 -97.023275 
L 139.87897 -95.712564 
L 137.500438 -94.390418 
L 135.121906 -93.056749 
L 132.743373 -91.711386 
L 130.364841 -90.354067 
L 127.986309 -88.98447 
L 125.607777 -87.602221 
L 123.229244 -86.206946 
L 120.850712 -84.79826 
L 118.47218 -83.37577 
L 116.093647 -81.939121 
L 113.715115 -80.487982 
L 111.336583 -79.022036 
L 108.95805 -77.541007 
L 106.579518 -76.044654 
L 104.200986 -74.532779 
L 101.822453 -73.005215 
L 99.443921 -71.461872 
L 97.065389 -69.902756 
L 94.686857 -68.327973 
L 92.308324 -66.737743 
L 89.929792 -65.132438 
L 87.55126 -63.512625 
L 85.172727 -61.879091 
z
" style="stroke: #a52a2a; stroke-opacity: 0.1"/>
    </defs>
    <g clip-path="url(#p930b669ae1)">
     <use xlink:href="#m1bed84f0ba" x="0" y="360" style="fill: #a52a2a; fill-opacity: 0.1; stroke: #a52a2a; stroke-opacity: 0.1"/>
    </g>
   </g>
   <g id="FillBetweenPolyCollection_3">
    <defs>
     <path id="m6c9967b77e" d="M 85.172727 -61.879091 
L 85.172727 -61.879091 
L 87.55126 -62.203328 
L 89.929792 -62.526572 
L 92.308324 -62.849487 
L 94.686857 -63.172579 
L 97.065389 -63.496156 
L 99.443921 -63.820323 
L 101.822453 -64.145013 
L 104.200986 -64.47001 
L 106.579518 -64.79492 
L 108.95805 -65.119167 
L 111.336583 -65.441979 
L 113.715115 -65.76242 
L 116.093647 -66.079376 
L 118.47218 -66.391567 
L 120.850712 -66.697586 
L 123.229244 -66.995968 
L 125.607777 -67.285219 
L 127.986309 -67.563908 
L 130.364841 -67.830735 
L 132.743373 -68.084611 
L 135.121906 -68.324697 
L 137.500438 -68.550411 
L 139.87897 -68.761427 
L 142.257503 -68.957656 
L 144.636035 -69.139224 
L 147.014567 -69.306467 
L 149.3931 -69.459927 
L 151.771632 -69.600322 
L 154.150164 -69.728507 
L 156.528697 -69.845434 
L 158.907229 -69.952104 
L 161.285761 -70.049539 
L 163.664294 -70.138764 
L 166.042826 -70.220745 
L 168.421358 -70.296325 
L 170.79989 -70.366216 
L 173.178423 -70.430973 
L 175.556955 -70.49103 
L 177.935487 -70.546766 
L 180.31402 -70.598536 
L 182.692552 -70.646734 
L 185.071084 -70.691805 
L 187.449617 -70.734271 
L 189.828149 -70.774706 
L 192.206681 -70.813713 
L 194.585214 -70.851854 
L 196.963746 -70.889653 
L 199.342278 -70.927581 
L 201.720811 -70.966035 
L 204.099343 -71.005385 
L 206.477875 -71.045986 
L 208.856407 -71.088139 
L 211.23494 -71.132118 
L 213.613472 -71.178157 
L 215.992004 -71.226409 
L 218.370537 -71.276878 
L 220.749069 -71.329359 
L 223.127601 -71.383343 
L 225.506134 -71.43781 
L 227.884666 -71.490977 
L 230.263198 -71.539962 
L 232.641731 -71.580464 
L 235.020263 -71.606712 
L 237.398795 -71.612289 
L 239.777327 -71.592143 
L 242.15586 -71.544851 
L 244.534392 -71.473092 
L 246.912924 -71.381944 
L 249.291457 -71.276788 
L 251.669989 -71.162163 
L 254.048521 -71.041518 
L 256.427054 -70.917389 
L 258.805586 -70.791641 
L 261.184118 -70.665634 
L 263.562651 -70.540358 
L 265.941183 -70.416546 
L 268.319715 -70.294735 
L 270.698248 -70.175312 
L 273.07678 -70.058563 
L 275.455312 -69.944693 
L 277.833844 -69.833843 
L 280.212377 -69.726142 
L 282.590909 -69.621727 
L 284.969441 -69.520761 
L 287.347974 -69.423441 
L 289.726506 -69.330016 
L 292.105038 -69.240825 
L 294.483571 -69.156303 
L 296.862103 -69.076969 
L 299.240635 -69.00344 
L 301.619168 -68.936424 
L 303.9977 -68.876663 
L 306.376232 -68.824925 
L 308.754765 -68.781921 
L 311.133297 -68.748294 
L 313.511829 -68.72457 
L 315.890361 -68.711115 
L 318.268894 -68.708103 
L 320.647426 -68.715515 
L 323.025958 -68.733093 
L 325.404491 -68.76036 
L 327.783023 -68.796601 
L 330.161555 -68.84089 
L 332.540088 -68.892118 
L 334.91862 -68.949036 
L 337.297152 -69.0103 
L 339.675685 -69.074545 
L 342.054217 -69.140422 
L 344.432749 -69.206645 
L 346.811281 -69.272013 
L 349.189814 -69.335438 
L 351.568346 -69.395957 
L 353.946878 -69.452734 
L 356.325411 -69.505065 
L 358.703943 -69.552374 
L 361.082475 -69.594223 
L 363.461008 -69.63033 
L 365.83954 -69.660591 
L 368.218072 -69.68506 
L 370.596605 -69.703926 
L 372.975137 -69.717501 
L 375.353669 -69.726173 
L 377.732202 -69.730334 
L 380.110734 -69.730332 
L 382.489266 -69.726428 
L 384.867798 -69.718798 
L 387.246331 -69.707495 
L 389.624863 -69.692457 
L 392.003395 -69.673553 
L 394.381928 -69.650613 
L 396.76046 -69.623414 
L 399.138992 -69.59174 
L 401.517525 -69.555421 
L 403.896057 -69.51431 
L 406.274589 -69.468316 
L 408.653122 -69.417443 
L 411.031654 -69.361751 
L 413.410186 -69.301399 
L 415.788719 -69.236637 
L 418.167251 -69.167839 
L 420.545783 -69.095485 
L 422.924315 -69.020126 
L 425.302848 -68.942312 
L 427.68138 -68.862564 
L 430.059912 -68.781356 
L 432.438445 -68.699069 
L 434.816977 -68.616046 
L 437.195509 -68.53263 
L 439.574042 -68.449155 
L 441.952574 -68.365978 
L 444.331106 -68.283498 
L 446.709639 -68.202171 
L 449.088171 -68.122497 
L 451.466703 -68.044993 
L 453.845235 -67.970159 
L 456.223768 -67.898462 
L 458.6023 -67.830343 
L 460.980832 -67.766235 
L 463.359365 -67.706565 
L 465.737897 -67.651754 
L 468.116429 -67.602208 
L 470.494962 -67.558301 
L 472.873494 -67.52039 
L 475.252026 -67.48884 
L 477.630559 -67.464086 
L 480.009091 -67.446659 
L 482.387623 -67.437198 
L 484.766156 -67.43643 
L 487.144688 -67.445114 
L 489.52322 -67.463995 
L 491.901752 -67.493765 
L 494.280285 -67.535045 
L 496.658817 -67.588334 
L 499.037349 -67.653977 
L 501.415882 -67.732133 
L 503.794414 -67.822775 
L 506.172946 -67.925686 
L 508.551479 -68.040463 
L 510.930011 -68.166538 
L 513.308543 -68.3032 
L 515.687076 -68.449602 
L 518.065608 -68.604786 
L 520.44414 -68.767681 
L 522.822673 -68.937097 
L 525.201205 -69.111737 
L 527.579737 -69.290216 
L 529.958269 -69.47106 
L 532.336802 -69.652726 
L 534.715334 -69.833621 
L 537.093866 -70.012113 
L 539.472399 -70.18657 
L 541.850931 -70.355377 
L 544.229463 -70.516959 
L 546.607996 -70.66982 
L 548.986528 -70.812556 
L 551.36506 -70.943865 
L 553.743593 -71.062564 
L 556.122125 -71.167605 
L 558.500657 -71.258086 
L 560.879189 -71.333287 
L 563.257722 -71.392668 
L 565.636254 -71.435931 
L 568.014786 -71.463048 
L 570.393319 -71.474265 
L 572.771851 -71.470118 
L 575.150383 -71.451472 
L 577.528916 -71.419579 
L 579.907448 -71.376137 
L 582.28598 -71.323241 
L 584.664513 -71.263382 
L 587.043045 -71.199319 
L 589.421577 -71.134048 
L 591.80011 -71.07062 
L 594.178642 -71.012105 
L 596.557174 -70.961486 
L 598.935706 -70.921625 
L 601.314239 -70.895235 
L 603.692771 -70.884853 
L 606.071303 -70.892892 
L 608.449836 -70.92161 
L 610.828368 -70.973062 
L 613.2069 -71.049055 
L 615.585433 -71.151062 
L 617.963965 -71.280174 
L 620.342497 -71.437109 
L 622.72103 -71.622194 
L 625.099562 -71.835376 
L 627.478094 -72.076243 
L 629.856627 -72.344001 
L 632.235159 -72.637523 
L 634.613691 -72.955354 
L 636.992223 -73.295757 
L 639.370756 -73.656737 
L 641.749288 -74.036098 
L 644.12782 -74.431529 
L 646.506353 -74.840715 
L 648.884885 -75.261443 
L 651.263417 -75.691729 
L 653.64195 -76.129943 
L 656.020482 -76.5749 
L 658.399014 -77.025941 
L 660.777547 -77.482928 
L 663.156079 -77.946179 
L 665.534611 -78.416386 
L 667.913143 -78.894453 
L 670.291676 -79.381384 
L 672.670208 -79.878184 
L 675.04874 -80.385779 
L 677.427273 -80.904984 
L 677.427273 -111.906408 
L 677.427273 -111.906408 
L 675.04874 -110.866352 
L 672.670208 -109.830904 
L 670.291676 -108.80034 
L 667.913143 -107.77505 
L 665.534611 -106.755588 
L 663.156079 -105.742663 
L 660.777547 -104.737128 
L 658.399014 -103.739998 
L 656.020482 -102.752408 
L 653.64195 -101.775563 
L 651.263417 -100.810736 
L 648.884885 -99.859282 
L 646.506353 -98.92258 
L 644.12782 -98.002002 
L 641.749288 -97.098943 
L 639.370756 -96.2148 
L 636.992223 -95.350879 
L 634.613691 -94.508407 
L 632.235159 -93.688548 
L 629.856627 -92.89233 
L 627.478094 -92.120618 
L 625.099562 -91.374095 
L 622.72103 -90.65326 
L 620.342497 -89.958384 
L 617.963965 -89.289556 
L 615.585433 -88.646627 
L 613.2069 -88.029264 
L 610.828368 -87.436967 
L 608.449836 -86.869101 
L 606.071303 -86.324933 
L 603.692771 -85.803649 
L 601.314239 -85.304367 
L 598.935706 -84.826176 
L 596.557174 -84.368171 
L 594.178642 -83.929429 
L 591.80011 -83.50901 
L 589.421577 -83.105905 
L 587.043045 -82.719041 
L 584.664513 -82.347276 
L 582.28598 -81.989397 
L 579.907448 -81.644188 
L 577.528916 -81.310461 
L 575.150383 -80.987109 
L 572.771851 -80.673102 
L 570.393319 -80.367525 
L 568.014786 -80.069594 
L 565.636254 -79.778584 
L 563.257722 -79.493829 
L 560.879189 -79.214671 
L 558.500657 -78.940462 
L 556.122125 -78.670558 
L 553.743593 -78.404357 
L 551.36506 -78.141274 
L 548.986528 -77.880699 
L 546.607996 -77.621993 
L 544.229463 -77.364462 
L 541.850931 -77.107324 
L 539.472399 -76.849675 
L 537.093866 -76.5905 
L 534.715334 -76.328814 
L 532.336802 -76.063773 
L 529.958269 -75.794817 
L 527.579737 -75.521822 
L 525.201205 -75.245134 
L 522.822673 -74.965517 
L 520.44414 -74.684138 
L 518.065608 -74.402438 
L 515.687076 -74.122027 
L 513.308543 -73.844623 
L 510.930011 -73.571939 
L 508.551479 -73.305626 
L 506.172946 -73.047333 
L 503.794414 -72.798755 
L 501.415882 -72.56167 
L 499.037349 -72.338058 
L 496.658817 -72.130183 
L 494.280285 -71.940626 
L 491.901752 -71.772148 
L 489.52322 -71.627515 
L 487.144688 -71.509281 
L 484.766156 -71.419491 
L 482.387623 -71.359674 
L 480.009091 -71.330787 
L 477.630559 -71.333142 
L 475.252026 -71.366318 
L 472.873494 -71.429046 
L 470.494962 -71.519154 
L 468.116429 -71.633751 
L 465.737897 -71.769488 
L 463.359365 -71.922961 
L 460.980832 -72.091047 
L 458.6023 -72.271037 
L 456.223768 -72.460521 
L 453.845235 -72.657274 
L 451.466703 -72.859173 
L 449.088171 -73.064136 
L 446.709639 -73.270286 
L 444.331106 -73.476165 
L 441.952574 -73.680814 
L 439.574042 -73.883729 
L 437.195509 -74.084677 
L 434.816977 -74.283482 
L 432.438445 -74.479886 
L 430.059912 -74.673605 
L 427.68138 -74.864292 
L 425.302848 -75.051423 
L 422.924315 -75.234311 
L 420.545783 -75.412194 
L 418.167251 -75.584225 
L 415.788719 -75.749529 
L 413.410186 -75.907315 
L 411.031654 -76.056912 
L 408.653122 -76.1977 
L 406.274589 -76.329131 
L 403.896057 -76.450705 
L 401.517525 -76.561946 
L 399.138992 -76.662406 
L 396.76046 -76.75165 
L 394.381928 -76.829244 
L 392.003395 -76.894804 
L 389.624863 -76.947994 
L 387.246331 -76.988553 
L 384.867798 -77.01635 
L 382.489266 -77.031428 
L 380.110734 -77.034024 
L 377.732202 -77.024628 
L 375.353669 -77.003988 
L 372.975137 -76.973115 
L 370.596605 -76.93324 
L 368.218072 -76.885739 
L 365.83954 -76.832029 
L 363.461008 -76.773478 
L 361.082475 -76.711323 
L 358.703943 -76.646604 
L 356.325411 -76.58017 
L 353.946878 -76.512739 
L 351.568346 -76.444961 
L 349.189814 -76.377459 
L 346.811281 -76.310883 
L 344.432749 -76.245917 
L 342.054217 -76.183274 
L 339.675685 -76.123625 
L 337.297152 -76.06757 
L 334.91862 -76.015644 
L 332.540088 -75.968258 
L 330.161555 -75.925725 
L 327.783023 -75.888219 
L 325.404491 -75.855755 
L 323.025958 -75.828189 
L 320.647426 -75.805124 
L 318.268894 -75.785962 
L 315.890361 -75.769813 
L 313.511829 -75.755539 
L 311.133297 -75.741798 
L 308.754765 -75.727074 
L 306.376232 -75.709777 
L 303.9977 -75.688288 
L 301.619168 -75.661116 
L 299.240635 -75.62692 
L 296.862103 -75.584585 
L 294.483571 -75.533289 
L 292.105038 -75.472511 
L 289.726506 -75.401985 
L 287.347974 -75.321671 
L 284.969441 -75.231757 
L 282.590909 -75.132573 
L 280.212377 -75.024543 
L 277.833844 -74.908183 
L 275.455312 -74.784099 
L 273.07678 -74.652979 
L 270.698248 -74.515609 
L 268.319715 -74.372898 
L 265.941183 -74.225928 
L 263.562651 -74.075981 
L 261.184118 -73.924573 
L 258.805586 -73.773492 
L 256.427054 -73.624856 
L 254.048521 -73.481154 
L 251.669989 -73.345325 
L 249.291457 -73.220906 
L 246.912924 -73.112244 
L 244.534392 -73.024607 
L 242.15586 -72.963912 
L 239.777327 -72.935551 
L 237.398795 -72.942304 
L 235.020263 -72.982636 
L 232.641731 -73.05116 
L 230.263198 -73.140923 
L 227.884666 -73.245389 
L 225.506134 -73.359254 
L 223.127601 -73.478432 
L 220.749069 -73.59976 
L 218.370537 -73.720697 
L 215.992004 -73.83911 
L 213.613472 -73.95312 
L 211.23494 -74.061031 
L 208.856407 -74.161274 
L 206.477875 -74.252404 
L 204.099343 -74.333096 
L 201.720811 -74.402142 
L 199.342278 -74.458464 
L 196.963746 -74.50111 
L 194.585214 -74.529252 
L 192.206681 -74.542192 
L 189.828149 -74.539353 
L 187.449617 -74.520258 
L 185.071084 -74.484525 
L 182.692552 -74.431879 
L 180.31402 -74.362132 
L 177.935487 -74.275197 
L 175.556955 -74.171073 
L 173.178423 -74.049878 
L 170.79989 -73.911835 
L 168.421358 -73.757282 
L 166.042826 -73.586688 
L 163.664294 -73.400646 
L 161.285761 -73.199872 
L 158.907229 -72.985177 
L 156.528697 -72.757458 
L 154.150164 -72.517695 
L 151.771632 -72.266929 
L 149.3931 -72.006261 
L 147.014567 -71.736821 
L 144.636035 -71.45974 
L 142.257503 -71.176119 
L 139.87897 -70.88701 
L 137.500438 -70.593334 
L 135.121906 -70.295814 
L 132.743373 -69.994889 
L 130.364841 -69.690668 
L 127.986309 -69.382908 
L 125.607777 -69.070955 
L 123.229244 -68.753788 
L 120.850712 -68.430122 
L 118.47218 -68.098521 
L 116.093647 -67.75747 
L 113.715115 -67.405353 
L 111.336583 -67.040565 
L 108.95805 -66.661629 
L 106.579518 -66.267189 
L 104.200986 -65.855952 
L 101.822453 -65.426813 
L 99.443921 -64.978907 
L 97.065389 -64.511586 
L 94.686857 -64.024364 
L 92.308324 -63.517036 
L 89.929792 -62.989835 
L 87.55126 -62.443469 
L 85.172727 -61.879091 
z
" style="stroke: #000080; stroke-opacity: 0.1"/>
    </defs>
    <g clip-path="url(#p930b669ae1)">
     <use xlink:href="#m6c9967b77e" x="0" y="360" style="fill: #000080; fill-opacity: 0.1; stroke: #000080; stroke-opacity: 0.1"/>
    </g>
   </g>
   <g id="FillBetweenPolyCollection_4">
    <defs>
     <path id="ma4cd29efa5" d="M 85.172727 -61.879091 
L 85.172727 -61.879091 
L 87.55126 -62.422052 
L 89.929792 -62.963965 
L 92.308324 -63.504286 
L 94.686857 -64.042459 
L 97.065389 -64.577908 
L 99.443921 -65.110035 
L 101.822453 -65.638281 
L 104.200986 -66.162163 
L 106.579518 -66.681296 
L 108.95805 -67.195392 
L 111.336583 -67.704241 
L 113.715115 -68.207715 
L 116.093647 -68.705687 
L 118.47218 -69.197968 
L 120.850712 -69.684274 
L 123.229244 -70.164207 
L 125.607777 -70.637217 
L 127.986309 -71.102595 
L 130.364841 -71.559498 
L 132.743373 -72.006972 
L 135.121906 -72.443974 
L 137.500438 -72.869372 
L 139.87897 -73.281977 
L 142.257503 -73.680566 
L 144.636035 -74.063911 
L 147.014567 -74.430844 
L 149.3931 -74.780272 
L 151.771632 -75.111246 
L 154.150164 -75.423011 
L 156.528697 -75.715049 
L 158.907229 -75.987074 
L 161.285761 -76.239081 
L 163.664294 -76.47129 
L 166.042826 -76.684091 
L 168.421358 -76.87798 
L 170.79989 -77.053488 
L 173.178423 -77.211138 
L 175.556955 -77.351462 
L 177.935487 -77.474948 
L 180.31402 -77.582025 
L 182.692552 -77.673044 
L 185.071084 -77.748231 
L 187.449617 -77.8077 
L 189.828149 -77.851429 
L 192.206681 -77.87926 
L 194.585214 -77.890926 
L 196.963746 -77.886101 
L 199.342278 -77.864473 
L 201.720811 -77.825788 
L 204.099343 -77.769887 
L 206.477875 -77.696748 
L 208.856407 -77.606487 
L 211.23494 -77.49934 
L 213.613472 -77.375644 
L 215.992004 -77.235816 
L 218.370537 -77.080329 
L 220.749069 -76.909689 
L 223.127601 -76.724442 
L 225.506134 -76.525134 
L 227.884666 -76.312299 
L 230.263198 -76.086445 
L 232.641731 -75.848049 
L 235.020263 -75.597543 
L 237.398795 -75.33533 
L 239.777327 -75.061803 
L 242.15586 -74.777374 
L 244.534392 -74.482481 
L 246.912924 -74.177606 
L 249.291457 -73.86327 
L 251.669989 -73.54002 
L 254.048521 -73.208409 
L 256.427054 -72.868994 
L 258.805586 -72.522351 
L 261.184118 -72.169111 
L 263.562651 -71.810014 
L 265.941183 -71.44599 
L 268.319715 -71.078206 
L 270.698248 -70.708107 
L 273.07678 -70.337434 
L 275.455312 -69.968195 
L 277.833844 -69.602593 
L 280.212377 -69.242951 
L 282.590909 -68.891648 
L 284.969441 -68.551067 
L 287.347974 -68.223566 
L 289.726506 -67.911478 
L 292.105038 -67.61709 
L 294.483571 -67.342644 
L 296.862103 -67.090317 
L 299.240635 -66.862216 
L 301.619168 -66.66035 
L 303.9977 -66.486605 
L 306.376232 -66.342661 
L 308.754765 -66.229901 
L 311.133297 -66.149387 
L 313.511829 -66.101773 
L 315.890361 -66.087228 
L 318.268894 -66.105414 
L 320.647426 -66.155467 
L 323.025958 -66.235988 
L 325.404491 -66.34508 
L 327.783023 -66.480393 
L 330.161555 -66.639226 
L 332.540088 -66.818602 
L 334.91862 -67.015375 
L 337.297152 -67.22633 
L 339.675685 -67.448299 
L 342.054217 -67.678216 
L 344.432749 -67.913196 
L 346.811281 -68.150567 
L 349.189814 -68.387901 
L 351.568346 -68.623026 
L 353.946878 -68.854021 
L 356.325411 -69.079209 
L 358.703943 -69.297134 
L 361.082475 -69.506534 
L 363.461008 -69.706323 
L 365.83954 -69.8956 
L 368.218072 -70.073638 
L 370.596605 -70.239884 
L 372.975137 -70.393956 
L 375.353669 -70.535633 
L 377.732202 -70.664804 
L 380.110734 -70.781433 
L 382.489266 -70.88552 
L 384.867798 -70.97706 
L 387.246331 -71.056014 
L 389.624863 -71.122315 
L 392.003395 -71.175872 
L 394.381928 -71.216606 
L 396.76046 -71.244485 
L 399.138992 -71.259562 
L 401.517525 -71.262009 
L 403.896057 -71.25213 
L 406.274589 -71.230367 
L 408.653122 -71.197336 
L 411.031654 -71.153781 
L 413.410186 -71.100626 
L 415.788719 -71.038937 
L 418.167251 -70.969919 
L 420.545783 -70.894883 
L 422.924315 -70.815211 
L 425.302848 -70.732302 
L 427.68138 -70.647585 
L 430.059912 -70.562515 
L 432.438445 -70.478491 
L 434.816977 -70.396903 
L 437.195509 -70.319097 
L 439.574042 -70.246281 
L 441.952574 -70.179425 
L 444.331106 -70.119379 
L 446.709639 -70.066955 
L 449.088171 -70.023093 
L 451.466703 -69.988921 
L 453.845235 -69.965762 
L 456.223768 -69.954967 
L 458.6023 -69.957827 
L 460.980832 -69.97552 
L 463.359365 -70.009085 
L 465.737897 -70.059478 
L 468.116429 -70.127572 
L 470.494962 -70.21413 
L 472.873494 -70.319812 
L 475.252026 -70.445143 
L 477.630559 -70.590547 
L 480.009091 -70.756436 
L 482.387623 -70.943306 
L 484.766156 -71.151763 
L 487.144688 -71.382393 
L 489.52322 -71.635393 
L 491.901752 -71.910148 
L 494.280285 -72.204917 
L 496.658817 -72.516858 
L 499.037349 -72.842448 
L 501.415882 -73.178155 
L 503.794414 -73.521092 
L 506.172946 -73.869437 
L 508.551479 -74.222519 
L 510.930011 -74.580643 
L 513.308543 -74.944744 
L 515.687076 -75.31598 
L 518.065608 -75.695407 
L 520.44414 -76.083763 
L 522.822673 -76.481364 
L 525.201205 -76.888107 
L 527.579737 -77.303535 
L 529.958269 -77.72692 
L 532.336802 -78.157365 
L 534.715334 -78.593883 
L 537.093866 -79.035454 
L 539.472399 -79.481072 
L 541.850931 -79.929762 
L 544.229463 -80.380605 
L 546.607996 -80.83277 
L 548.986528 -81.28554 
L 551.36506 -81.738339 
L 553.743593 -82.190748 
L 556.122125 -82.64252 
L 558.500657 -83.093592 
L 560.879189 -83.544067 
L 563.257722 -83.994211 
L 565.636254 -84.444422 
L 568.014786 -84.895229 
L 570.393319 -85.34728 
L 572.771851 -85.80131 
L 575.150383 -86.258142 
L 577.528916 -86.718678 
L 579.907448 -87.183878 
L 582.28598 -87.654742 
L 584.664513 -88.13229 
L 587.043045 -88.617535 
L 589.421577 -89.111448 
L 591.80011 -89.614908 
L 594.178642 -90.128669 
L 596.557174 -90.653309 
L 598.935706 -91.18921 
L 601.314239 -91.736526 
L 603.692771 -92.295161 
L 606.071303 -92.864752 
L 608.449836 -93.444643 
L 610.828368 -94.03389 
L 613.2069 -94.631245 
L 615.585433 -95.235158 
L 617.963965 -95.843801 
L 620.342497 -96.455105 
L 622.72103 -97.066804 
L 625.099562 -97.676499 
L 627.478094 -98.28173 
L 629.856627 -98.880042 
L 632.235159 -99.469062 
L 634.613691 -100.04658 
L 636.992223 -100.610613 
L 639.370756 -101.159464 
L 641.749288 -101.691793 
L 644.12782 -102.206663 
L 646.506353 -102.703611 
L 648.884885 -103.182703 
L 651.263417 -103.644588 
L 653.64195 -104.090542 
L 656.020482 -104.522496 
L 658.399014 -104.943031 
L 660.777547 -105.355329 
L 663.156079 -105.763054 
L 665.534611 -106.170251 
L 667.913143 -106.581156 
L 670.291676 -107.000033 
L 672.670208 -107.431072 
L 675.04874 -107.87829 
L 677.427273 -108.345433 
L 677.427273 -147.183874 
L 677.427273 -147.183874 
L 675.04874 -145.873431 
L 672.670208 -144.583081 
L 670.291676 -143.312828 
L 667.913143 -142.062747 
L 665.534611 -140.833016 
L 663.156079 -139.623887 
L 660.777547 -138.435675 
L 658.399014 -137.268753 
L 656.020482 -136.123526 
L 653.64195 -135.000384 
L 651.263417 -133.899693 
L 648.884885 -132.821781 
L 646.506353 -131.766873 
L 644.12782 -130.735047 
L 641.749288 -129.726216 
L 639.370756 -128.740077 
L 636.992223 -127.776035 
L 634.613691 -126.833212 
L 632.235159 -125.910488 
L 629.856627 -125.006508 
L 627.478094 -124.119729 
L 625.099562 -123.248516 
L 622.72103 -122.391199 
L 620.342497 -121.546131 
L 617.963965 -120.711736 
L 615.585433 -119.886501 
L 613.2069 -119.069016 
L 610.828368 -118.257959 
L 608.449836 -117.452093 
L 606.071303 -116.650289 
L 603.692771 -115.851572 
L 601.314239 -115.055221 
L 598.935706 -114.260839 
L 596.557174 -113.468343 
L 594.178642 -112.677916 
L 591.80011 -111.889923 
L 589.421577 -111.104657 
L 587.043045 -110.322121 
L 584.664513 -109.54188 
L 582.28598 -108.762973 
L 579.907448 -107.983941 
L 577.528916 -107.203034 
L 575.150383 -106.418514 
L 572.771851 -105.628857 
L 570.393319 -104.833044 
L 568.014786 -104.030681 
L 565.636254 -103.221945 
L 563.257722 -102.407563 
L 560.879189 -101.588634 
L 558.500657 -100.766402 
L 556.122125 -99.94215 
L 553.743593 -99.117166 
L 551.36506 -98.292749 
L 548.986528 -97.470199 
L 546.607996 -96.650885 
L 544.229463 -95.836334 
L 541.850931 -95.028268 
L 539.472399 -94.228612 
L 537.093866 -93.439559 
L 534.715334 -92.663672 
L 532.336802 -91.904071 
L 529.958269 -91.164591 
L 527.579737 -90.449978 
L 525.201205 -89.766028 
L 522.822673 -89.11961 
L 520.44414 -88.518639 
L 518.065608 -87.971907 
L 515.687076 -87.488862 
L 513.308543 -87.079295 
L 510.930011 -86.752906 
L 508.551479 -86.518802 
L 506.172946 -86.384916 
L 503.794414 -86.357428 
L 501.415882 -86.440298 
L 499.037349 -86.635044 
L 496.658817 -86.940651 
L 494.280285 -87.353741 
L 491.901752 -87.868968 
L 489.52322 -88.479641 
L 487.144688 -89.178333 
L 484.766156 -89.957314 
L 482.387623 -90.808965 
L 480.009091 -91.725957 
L 477.630559 -92.701157 
L 475.252026 -93.727681 
L 472.873494 -94.798697 
L 470.494962 -95.907328 
L 468.116429 -97.046709 
L 465.737897 -98.210049 
L 463.359365 -99.390737 
L 460.980832 -100.582457 
L 458.6023 -101.779255 
L 456.223768 -102.97555 
L 453.845235 -104.166218 
L 451.466703 -105.346526 
L 449.088171 -106.512215 
L 446.709639 -107.659509 
L 444.331106 -108.78513 
L 441.952574 -109.886328 
L 439.574042 -110.960841 
L 437.195509 -112.006901 
L 434.816977 -113.023135 
L 432.438445 -114.008563 
L 430.059912 -114.962512 
L 427.68138 -115.884495 
L 425.302848 -116.774158 
L 422.924315 -117.631244 
L 420.545783 -118.455479 
L 418.167251 -119.246531 
L 415.788719 -120.003944 
L 413.410186 -120.727115 
L 411.031654 -121.415297 
L 408.653122 -122.067597 
L 406.274589 -122.682962 
L 403.896057 -123.260214 
L 401.517525 -123.798118 
L 399.138992 -124.295365 
L 396.76046 -124.750619 
L 394.381928 -125.162579 
L 392.003395 -125.53006 
L 389.624863 -125.852068 
L 387.246331 -126.127878 
L 384.867798 -126.357143 
L 382.489266 -126.539989 
L 380.110734 -126.677072 
L 377.732202 -126.769574 
L 375.353669 -126.819136 
L 372.975137 -126.827713 
L 370.596605 -126.797388 
L 368.218072 -126.730232 
L 365.83954 -126.628173 
L 363.461008 -126.492926 
L 361.082475 -126.325979 
L 358.703943 -126.128619 
L 356.325411 -125.902011 
L 353.946878 -125.647229 
L 351.568346 -125.365315 
L 349.189814 -125.057297 
L 346.811281 -124.724191 
L 344.432749 -124.366999 
L 342.054217 -123.986715 
L 339.675685 -123.584256 
L 337.297152 -123.160459 
L 334.91862 -122.716072 
L 332.540088 -122.25173 
L 330.161555 -121.76797 
L 327.783023 -121.265222 
L 325.404491 -120.743793 
L 323.025958 -120.203912 
L 320.647426 -119.645712 
L 318.268894 -119.069274 
L 315.890361 -118.474596 
L 313.511829 -117.861648 
L 311.133297 -117.230392 
L 308.754765 -116.580793 
L 306.376232 -115.912891 
L 303.9977 -115.226778 
L 301.619168 -114.522658 
L 299.240635 -113.800869 
L 296.862103 -113.061885 
L 294.483571 -112.306347 
L 292.105038 -111.535051 
L 289.726506 -110.748953 
L 287.347974 -109.949153 
L 284.969441 -109.136876 
L 282.590909 -108.313436 
L 280.212377 -107.480218 
L 277.833844 -106.63866 
L 275.455312 -105.790245 
L 273.07678 -104.936473 
L 270.698248 -104.078866 
L 268.319715 -103.218967 
L 265.941183 -102.358348 
L 263.562651 -101.49863 
L 261.184118 -100.641485 
L 258.805586 -99.788639 
L 256.427054 -98.941865 
L 254.048521 -98.102948 
L 251.669989 -97.273685 
L 249.291457 -96.455839 
L 246.912924 -95.651131 
L 244.534392 -94.861207 
L 242.15586 -94.08761 
L 239.777327 -93.331752 
L 237.398795 -92.594916 
L 235.020263 -91.878246 
L 232.641731 -91.182746 
L 230.263198 -90.509256 
L 227.884666 -89.858461 
L 225.506134 -89.230877 
L 223.127601 -88.626871 
L 220.749069 -88.046666 
L 218.370537 -87.49034 
L 215.992004 -86.957838 
L 213.613472 -86.448987 
L 211.23494 -85.963459 
L 208.856407 -85.500776 
L 206.477875 -85.060307 
L 204.099343 -84.641251 
L 201.720811 -84.242615 
L 199.342278 -83.863192 
L 196.963746 -83.501595 
L 194.585214 -83.15627 
L 192.206681 -82.825504 
L 189.828149 -82.507458 
L 187.449617 -82.200242 
L 185.071084 -81.901984 
L 182.692552 -81.610912 
L 180.31402 -81.325408 
L 177.935487 -81.044052 
L 175.556955 -80.765587 
L 173.178423 -80.488924 
L 170.79989 -80.21309 
L 168.421358 -79.937205 
L 166.042826 -79.660411 
L 163.664294 -79.381854 
L 161.285761 -79.100612 
L 158.907229 -78.815657 
L 156.528697 -78.525836 
L 154.150164 -78.229866 
L 151.771632 -77.926356 
L 149.3931 -77.613887 
L 147.014567 -77.290999 
L 144.636035 -76.956268 
L 142.257503 -76.608346 
L 139.87897 -76.246004 
L 137.500438 -75.868032 
L 135.121906 -75.473238 
L 132.743373 -75.060434 
L 130.364841 -74.628454 
L 127.986309 -74.176159 
L 125.607777 -73.702418 
L 123.229244 -73.206162 
L 120.850712 -72.686452 
L 118.47218 -72.142575 
L 116.093647 -71.574045 
L 113.715115 -70.980504 
L 111.336583 -70.361742 
L 108.95805 -69.717674 
L 106.579518 -69.048229 
L 104.200986 -68.353249 
L 101.822453 -67.632544 
L 99.443921 -66.885944 
L 97.065389 -66.113349 
L 94.686857 -65.314819 
L 92.308324 -64.49077 
L 89.929792 -63.642213 
L 87.55126 -62.770854 
L 85.172727 -61.879091 
z
" style="stroke: #000080; stroke-opacity: 0.1"/>
    </defs>
    <g clip-path="url(#p930b669ae1)">
     <use xlink:href="#ma4cd29efa5" x="0" y="360" style="fill: #000080; fill-opacity: 0.1; stroke: #000080; stroke-opacity: 0.1"/>
    </g>
   </g>
   <g id="line2d_1">
    <path d="M 85.172727 298.120909 
L 135.121906 268.628827 
L 168.421358 248.96261 
L 201.720811 229.01298 
L 235.020263 208.751814 
L 256.427054 195.836819 
L 270.698248 187.448921 
L 284.969441 179.319865 
L 299.240635 171.479626 
L 313.511829 163.93384 
L 325.404491 157.87001 
L 337.297152 152.025567 
L 349.189814 146.414634 
L 361.082475 141.031782 
L 375.353669 134.819899 
L 394.381928 126.804764 
L 408.653122 121.013625 
L 420.545783 116.45171 
L 430.059912 113.025758 
L 439.574042 109.819105 
L 449.088171 106.838974 
L 460.980832 103.396195 
L 475.252026 99.559445 
L 496.658817 94.099693 
L 518.065608 88.574918 
L 529.958269 85.303092 
L 541.850931 81.804847 
L 556.122125 77.350687 
L 575.150383 71.141412 
L 598.935706 63.432535 
L 620.342497 56.713217 
L 636.992223 51.712566 
L 651.263417 47.683919 
L 665.534611 43.917625 
L 677.427273 40.939091 
L 677.427273 40.939091 
" clip-path="url(#p930b669ae1)" style="fill: none; stroke: #000000; stroke-width: 1.5; stroke-linecap: round"/>
   </g>
   <g id="line2d_2">
    <path d="M 85.172727 298.120909 
L 94.686857 293.915893 
L 104.200986 289.928637 
L 113.715115 286.17522 
L 123.229244 282.656017 
L 132.743373 279.358476 
L 142.257503 276.264465 
L 151.771632 273.362229 
L 161.285761 270.652126 
L 170.79989 268.141353 
L 180.31402 265.839163 
L 189.828149 263.746848 
L 201.720811 261.39113 
L 215.992004 258.848146 
L 232.641731 256.126448 
L 254.048521 252.865408 
L 275.455312 249.815871 
L 289.726506 247.955806 
L 301.619168 246.610511 
L 313.511829 245.515612 
L 323.025958 244.840979 
L 332.540088 244.365443 
L 342.054217 244.105175 
L 351.568346 244.056952 
L 363.461008 244.257861 
L 375.353669 244.701714 
L 387.246331 245.358504 
L 403.896057 246.516741 
L 430.059912 248.353473 
L 446.709639 249.253642 
L 460.980832 249.837748 
L 475.252026 250.197926 
L 487.144688 250.256791 
L 496.658817 250.034454 
L 503.794414 249.671576 
L 513.308543 248.938855 
L 522.822673 247.94188 
L 532.336802 246.68625 
L 541.850931 245.154499 
L 548.986528 243.80386 
L 556.122125 242.267274 
L 563.257722 240.537548 
L 570.393319 238.613747 
L 577.528916 236.50421 
L 584.664513 234.217959 
L 591.80011 231.749475 
L 598.935706 229.078371 
L 606.071303 226.187943 
L 613.2069 223.078558 
L 620.342497 219.766693 
L 629.856627 215.06883 
L 639.370756 210.048535 
L 648.884885 204.694195 
L 658.399014 199.034607 
L 667.913143 193.117357 
L 677.427273 186.981862 
L 677.427273 186.981862 
" clip-path="url(#p930b669ae1)" style="fill: none; stroke: #a52a2a; stroke-width: 1.5; stroke-linecap: round"/>
   </g>
   <g id="line2d_3">
    <path d="M 85.172727 298.120909 
L 97.065389 295.996129 
L 108.95805 294.109602 
L 120.850712 292.436146 
L 132.743373 290.96025 
L 144.636035 289.700518 
L 156.528697 288.698554 
L 168.421358 287.973197 
L 180.31402 287.519666 
L 192.206681 287.322047 
L 206.477875 287.350805 
L 254.048521 287.738664 
L 296.862103 287.669223 
L 320.647426 287.73968 
L 334.91862 287.51766 
L 375.353669 286.63492 
L 387.246331 286.651976 
L 399.138992 286.872927 
L 411.031654 287.290668 
L 427.68138 288.136572 
L 468.116429 290.38202 
L 477.630559 290.601386 
L 484.766156 290.572039 
L 491.901752 290.367044 
L 501.415882 289.853098 
L 513.308543 288.926089 
L 537.093866 286.698694 
L 553.743593 285.26654 
L 568.014786 284.233679 
L 598.935706 282.1261 
L 606.071303 281.391088 
L 613.2069 280.460841 
L 620.342497 279.302253 
L 627.478094 277.90157 
L 634.613691 276.268119 
L 641.749288 274.432479 
L 651.263417 271.748768 
L 663.156079 268.155579 
L 677.427273 263.594304 
L 677.427273 263.594304 
" clip-path="url(#p930b669ae1)" style="fill: none; stroke: #000080; stroke-width: 1.5; stroke-linecap: round"/>
   </g>
   <g id="line2d_4">
    <path d="M 85.172727 298.120909 
L 94.686857 295.321361 
L 104.200986 292.742294 
L 113.715115 290.405891 
L 123.229244 288.314816 
L 132.743373 286.466297 
L 142.257503 284.855544 
L 151.771632 283.481199 
L 161.285761 282.330154 
L 173.178423 281.149969 
L 187.449617 279.996029 
L 227.884666 276.91462 
L 244.534392 275.328156 
L 301.619168 269.408496 
L 315.890361 267.719088 
L 332.540088 265.464834 
L 346.811281 263.562621 
L 356.325411 262.50939 
L 363.461008 261.900375 
L 370.596605 261.481364 
L 377.732202 261.282811 
L 384.867798 261.332898 
L 392.003395 261.647034 
L 399.138992 262.222536 
L 406.274589 263.043335 
L 413.410186 264.08613 
L 420.545783 265.324819 
L 430.059912 267.237487 
L 439.574042 269.396439 
L 453.845235 272.93401 
L 465.737897 275.865236 
L 472.873494 277.440745 
L 480.009091 278.758803 
L 484.766156 279.445461 
L 489.52322 279.942483 
L 494.280285 280.220671 
L 499.037349 280.261254 
L 503.794414 280.06074 
L 508.551479 279.62934 
L 513.308543 278.987981 
L 518.065608 278.166343 
L 525.201205 276.672933 
L 534.715334 274.371222 
L 548.986528 270.622131 
L 606.071303 255.24248 
L 620.342497 250.999382 
L 636.992223 245.806676 
L 658.399014 238.894108 
L 670.291676 234.84357 
L 677.427273 232.235346 
L 677.427273 232.235346 
" clip-path="url(#p930b669ae1)" style="fill: none; stroke-dasharray: 5.55,2.4; stroke-dashoffset: 0; stroke: #000080; stroke-width: 1.5"/>
   </g>
   <g id="patch_3">
    <path d="M 55.56 310.98 
L 55.56 28.08 
" style="fill: none; stroke: #ffffff; stroke-width: 1.25; stroke-linejoin: miter; stroke-linecap: square"/>
   </g>
   <g id="patch_4">
    <path d="M 707.04 310.98 
L 707.04 28.08 
" style="fill: none; stroke: #ffffff; stroke-width: 1.25; stroke-linejoin: miter; stroke-linecap: square"/>
   </g>
   <g id="patch_5">
    <path d="M 55.56 310.98 
L 707.04 310.98 
" style="fill: none; stroke: #ffffff; stroke-width: 1.25; stroke-linejoin: miter; stroke-linecap: square"/>
   </g>
   <g id="patch_6">
    <path d="M 55.56 28.08 
L 707.04 28.08 
" style="fill: none; stroke: #ffffff; stroke-width: 1.25; stroke-linejoin: miter; stroke-linecap: square"/>
   </g>
   <g id="text_13">
    <!-- QG3L - [32, 96] x [256, 384] -->
    <g style="fill: #262626" transform="translate(296.2575 22.08) scale(0.12 -0.12)">
     <defs>
      <path id="DejaVuSans-51" d="M 2522 4238 
Q 1834 4238 1429 3725 
Q 1025 3213 1025 2328 
Q 1025 1447 1429 934 
Q 1834 422 2522 422 
Q 3209 422 3611 934 
Q 4013 1447 4013 2328 
Q 4013 3213 3611 3725 
Q 3209 4238 2522 4238 
z
M 3406 84 
L 4238 -825 
L 3475 -825 
L 2784 -78 
Q 2681 -84 2626 -87 
Q 2572 -91 2522 -91 
Q 1538 -91 948 567 
Q 359 1225 359 2328 
Q 359 3434 948 4092 
Q 1538 4750 2522 4750 
Q 3503 4750 4090 4092 
Q 4678 3434 4678 2328 
Q 4678 1516 4351 937 
Q 4025 359 3406 84 
z
" transform="scale(0.015625)"/>
      <path id="DejaVuSans-47" d="M 3809 666 
L 3809 1919 
L 2778 1919 
L 2778 2438 
L 4434 2438 
L 4434 434 
Q 4069 175 3628 42 
Q 3188 -91 2688 -91 
Q 1594 -91 976 548 
Q 359 1188 359 2328 
Q 359 3472 976 4111 
Q 1594 4750 2688 4750 
Q 3144 4750 3555 4637 
Q 3966 4525 4313 4306 
L 4313 3634 
Q 3963 3931 3569 4081 
Q 3175 4231 2741 4231 
Q 1884 4231 1454 3753 
Q 1025 3275 1025 2328 
Q 1025 1384 1454 906 
Q 1884 428 2741 428 
Q 3075 428 3337 486 
Q 3600 544 3809 666 
z
" transform="scale(0.015625)"/>
      <path id="DejaVuSans-33" d="M 2597 2516 
Q 3050 2419 3304 2112 
Q 3559 1806 3559 1356 
Q 3559 666 3084 287 
Q 2609 -91 1734 -91 
Q 1441 -91 1130 -33 
Q 819 25 488 141 
L 488 750 
Q 750 597 1062 519 
Q 1375 441 1716 441 
Q 2309 441 2620 675 
Q 2931 909 2931 1356 
Q 2931 1769 2642 2001 
Q 2353 2234 1838 2234 
L 1294 2234 
L 1294 2753 
L 1863 2753 
Q 2328 2753 2575 2939 
Q 2822 3125 2822 3475 
Q 2822 3834 2567 4026 
Q 2313 4219 1838 4219 
Q 1578 4219 1281 4162 
Q 984 4106 628 3988 
L 628 4550 
Q 988 4650 1302 4700 
Q 1616 4750 1894 4750 
Q 2613 4750 3031 4423 
Q 3450 4097 3450 3541 
Q 3450 3153 3228 2886 
Q 3006 2619 2597 2516 
z
" transform="scale(0.015625)"/>
      <path id="DejaVuSans-4c" d="M 628 4666 
L 1259 4666 
L 1259 531 
L 3531 531 
L 3531 0 
L 628 0 
L 628 4666 
z
" transform="scale(0.015625)"/>
      <path id="DejaVuSans-2d" d="M 313 2009 
L 1997 2009 
L 1997 1497 
L 313 1497 
L 313 2009 
z
" transform="scale(0.015625)"/>
      <path id="DejaVuSans-2c" d="M 750 794 
L 1409 794 
L 1409 256 
L 897 -744 
L 494 -744 
L 750 256 
L 750 794 
z
" transform="scale(0.015625)"/>
      <path id="DejaVuSans-39" d="M 703 97 
L 703 672 
Q 941 559 1184 500 
Q 1428 441 1663 441 
Q 2288 441 2617 861 
Q 2947 1281 2994 2138 
Q 2813 1869 2534 1725 
Q 2256 1581 1919 1581 
Q 1219 1581 811 2004 
Q 403 2428 403 3163 
Q 403 3881 828 4315 
Q 1253 4750 1959 4750 
Q 2769 4750 3195 4129 
Q 3622 3509 3622 2328 
Q 3622 1225 3098 567 
Q 2575 -91 1691 -91 
Q 1453 -91 1209 -44 
Q 966 3 703 97 
z
M 1959 2075 
Q 2384 2075 2632 2365 
Q 2881 2656 2881 3163 
Q 2881 3666 2632 3958 
Q 2384 4250 1959 4250 
Q 1534 4250 1286 3958 
Q 1038 3666 1038 3163 
Q 1038 2656 1286 2365 
Q 1534 2075 1959 2075 
z
" transform="scale(0.015625)"/>
      <path id="DejaVuSans-78" d="M 3513 3500 
L 2247 1797 
L 3578 0 
L 2900 0 
L 1881 1375 
L 863 0 
L 184 0 
L 1544 1831 
L 300 3500 
L 978 3500 
L 1906 2253 
L 2834 3500 
L 3513 3500 
z
" transform="scale(0.015625)"/>
     </defs>
     <use xlink:href="#DejaVuSans-51"/>
     <use xlink:href="#DejaVuSans-47" transform="translate(78.710938 0)"/>
     <use xlink:href="#DejaVuSans-33" transform="translate(156.201172 0)"/>
     <use xlink:href="#DejaVuSans-4c" transform="translate(219.824219 0)"/>
     <use xlink:href="#DejaVuSans-20" transform="translate(275.537109 0)"/>
     <use xlink:href="#DejaVuSans-2d" transform="translate(307.324219 0)"/>
     <use xlink:href="#DejaVuSans-20" transform="translate(343.408203 0)"/>
     <use xlink:href="#DejaVuSans-5b" transform="translate(375.195312 0)"/>
     <use xlink:href="#DejaVuSans-33" transform="translate(414.208984 0)"/>
     <use xlink:href="#DejaVuSans-32" transform="translate(477.832031 0)"/>
     <use xlink:href="#DejaVuSans-2c" transform="translate(541.455078 0)"/>
     <use xlink:href="#DejaVuSans-20" transform="translate(573.242188 0)"/>
     <use xlink:href="#DejaVuSans-39" transform="translate(605.029297 0)"/>
     <use xlink:href="#DejaVuSans-36" transform="translate(668.652344 0)"/>
     <use xlink:href="#DejaVuSans-5d" transform="translate(732.275391 0)"/>
     <use xlink:href="#DejaVuSans-20" transform="translate(771.289062 0)"/>
     <use xlink:href="#DejaVuSans-78" transform="translate(803.076172 0)"/>
     <use xlink:href="#DejaVuSans-20" transform="translate(862.255859 0)"/>
     <use xlink:href="#DejaVuSans-5b" transform="translate(894.042969 0)"/>
     <use xlink:href="#DejaVuSans-32" transform="translate(933.056641 0)"/>
     <use xlink:href="#DejaVuSans-35" transform="translate(996.679688 0)"/>
     <use xlink:href="#DejaVuSans-36" transform="translate(1060.302734 0)"/>
     <use xlink:href="#DejaVuSans-2c" transform="translate(1123.925781 0)"/>
     <use xlink:href="#DejaVuSans-20" transform="translate(1155.712891 0)"/>
     <use xlink:href="#DejaVuSans-33" transform="translate(1187.5 0)"/>
     <use xlink:href="#DejaVuSans-38" transform="translate(1251.123047 0)"/>
     <use xlink:href="#DejaVuSans-34" transform="translate(1314.746094 0)"/>
     <use xlink:href="#DejaVuSans-5d" transform="translate(1378.369141 0)"/>
    </g>
   </g>
   <g id="legend_1">
    <g id="patch_7">
     <path d="M 63.26 101.46375 
L 244.675781 101.46375 
Q 246.875781 101.46375 246.875781 99.26375 
L 246.875781 35.78 
Q 246.875781 33.58 244.675781 33.58 
L 63.26 33.58 
Q 61.06 33.58 61.06 35.78 
L 61.06 99.26375 
Q 61.06 101.46375 63.26 101.46375 
z
" style="fill: #eaeaf2; opacity: 0.8; stroke: #cccccc; stroke-linejoin: miter"/>
    </g>
    <g id="line2d_5">
     <path d="M 65.46 42.488281 
L 76.46 42.488281 
L 87.46 42.488281 
" style="fill: none; stroke: #000000; stroke-width: 1.5; stroke-linecap: round"/>
    </g>
    <g id="text_14">
     <!-- Reduced Gravity -->
     <g style="fill: #262626" transform="translate(96.26 46.338281) scale(0.11 -0.11)">
      <defs>
       <path id="DejaVuSans-75" d="M 544 1381 
L 544 3500 
L 1119 3500 
L 1119 1403 
Q 1119 906 1312 657 
Q 1506 409 1894 409 
Q 2359 409 2629 706 
Q 2900 1003 2900 1516 
L 2900 3500 
L 3475 3500 
L 3475 0 
L 2900 0 
L 2900 538 
Q 2691 219 2414 64 
Q 2138 -91 1772 -91 
Q 1169 -91 856 284 
Q 544 659 544 1381 
z
M 1991 3584 
L 1991 3584 
z
" transform="scale(0.015625)"/>
       <path id="DejaVuSans-63" d="M 3122 3366 
L 3122 2828 
Q 2878 2963 2633 3030 
Q 2388 3097 2138 3097 
Q 1578 3097 1268 2742 
Q 959 2388 959 1747 
Q 959 1106 1268 751 
Q 1578 397 2138 397 
Q 2388 397 2633 464 
Q 2878 531 3122 666 
L 3122 134 
Q 2881 22 2623 -34 
Q 2366 -91 2075 -91 
Q 1284 -91 818 406 
Q 353 903 353 1747 
Q 353 2603 823 3093 
Q 1294 3584 2113 3584 
Q 2378 3584 2631 3529 
Q 2884 3475 3122 3366 
z
" transform="scale(0.015625)"/>
       <path id="DejaVuSans-72" d="M 2631 2963 
Q 2534 3019 2420 3045 
Q 2306 3072 2169 3072 
Q 1681 3072 1420 2755 
Q 1159 2438 1159 1844 
L 1159 0 
L 581 0 
L 581 3500 
L 1159 3500 
L 1159 2956 
Q 1341 3275 1631 3429 
Q 1922 3584 2338 3584 
Q 2397 3584 2469 3576 
Q 2541 3569 2628 3553 
L 2631 2963 
z
" transform="scale(0.015625)"/>
       <path id="DejaVuSans-76" d="M 191 3500 
L 800 3500 
L 1894 563 
L 2988 3500 
L 3597 3500 
L 2284 0 
L 1503 0 
L 191 3500 
z
" transform="scale(0.015625)"/>
       <path id="DejaVuSans-74" d="M 1172 4494 
L 1172 3500 
L 2356 3500 
L 2356 3053 
L 1172 3053 
L 1172 1153 
Q 1172 725 1289 603 
Q 1406 481 1766 481 
L 2356 481 
L 2356 0 
L 1766 0 
Q 1100 0 847 248 
Q 594 497 594 1153 
L 594 3053 
L 172 3053 
L 172 3500 
L 594 3500 
L 594 4494 
L 1172 4494 
z
" transform="scale(0.015625)"/>
      </defs>
      <use xlink:href="#DejaVuSans-52"/>
      <use xlink:href="#DejaVuSans-65" transform="translate(64.982422 0)"/>
      <use xlink:href="#DejaVuSans-64" transform="translate(126.505859 0)"/>
      <use xlink:href="#DejaVuSans-75" transform="translate(189.982422 0)"/>
      <use xlink:href="#DejaVuSans-63" transform="translate(253.361328 0)"/>
      <use xlink:href="#DejaVuSans-65" transform="translate(308.341797 0)"/>
      <use xlink:href="#DejaVuSans-64" transform="translate(369.865234 0)"/>
      <use xlink:href="#DejaVuSans-20" transform="translate(433.341797 0)"/>
      <use xlink:href="#DejaVuSans-47" transform="translate(465.128906 0)"/>
      <use xlink:href="#DejaVuSans-72" transform="translate(542.619141 0)"/>
      <use xlink:href="#DejaVuSans-61" transform="translate(583.732422 0)"/>
      <use xlink:href="#DejaVuSans-76" transform="translate(645.011719 0)"/>
      <use xlink:href="#DejaVuSans-69" transform="translate(704.191406 0)"/>
      <use xlink:href="#DejaVuSans-74" transform="translate(731.974609 0)"/>
      <use xlink:href="#DejaVuSans-79" transform="translate(771.183594 0)"/>
     </g>
    </g>
    <g id="line2d_6">
     <path d="M 65.46 58.634219 
L 76.46 58.634219 
L 87.46 58.634219 
" style="fill: none; stroke: #a52a2a; stroke-width: 1.5; stroke-linecap: round"/>
    </g>
    <g id="text_15">
     <!-- VarDyn -->
     <g style="fill: #262626" transform="translate(96.26 62.484219) scale(0.11 -0.11)">
      <defs>
       <path id="DejaVuSans-56" d="M 1831 0 
L 50 4666 
L 709 4666 
L 2188 738 
L 3669 4666 
L 4325 4666 
L 2547 0 
L 1831 0 
z
" transform="scale(0.015625)"/>
       <path id="DejaVuSans-44" d="M 1259 4147 
L 1259 519 
L 2022 519 
Q 2988 519 3436 956 
Q 3884 1394 3884 2338 
Q 3884 3275 3436 3711 
Q 2988 4147 2022 4147 
L 1259 4147 
z
M 628 4666 
L 1925 4666 
Q 3281 4666 3915 4102 
Q 4550 3538 4550 2338 
Q 4550 1131 3912 565 
Q 3275 0 1925 0 
L 628 0 
L 628 4666 
z
" transform="scale(0.015625)"/>
      </defs>
      <use xlink:href="#DejaVuSans-56"/>
      <use xlink:href="#DejaVuSans-61" transform="translate(60.658203 0)"/>
      <use xlink:href="#DejaVuSans-72" transform="translate(121.9375 0)"/>
      <use xlink:href="#DejaVuSans-44" transform="translate(163.050781 0)"/>
      <use xlink:href="#DejaVuSans-79" transform="translate(240.052734 0)"/>
      <use xlink:href="#DejaVuSans-6e" transform="translate(299.232422 0)"/>
     </g>
    </g>
    <g id="line2d_7">
     <path d="M 65.46 74.780156 
L 76.46 74.780156 
L 87.46 74.780156 
" style="fill: none; stroke: #000080; stroke-width: 1.5; stroke-linecap: round"/>
    </g>
    <g id="text_16">
     <!-- SurfML -->
     <g style="fill: #262626" transform="translate(96.26 78.630156) scale(0.11 -0.11)">
      <defs>
       <path id="DejaVuSans-66" d="M 2375 4863 
L 2375 4384 
L 1825 4384 
Q 1516 4384 1395 4259 
Q 1275 4134 1275 3809 
L 1275 3500 
L 2222 3500 
L 2222 3053 
L 1275 3053 
L 1275 0 
L 697 0 
L 697 3053 
L 147 3053 
L 147 3500 
L 697 3500 
L 697 3744 
Q 697 4328 969 4595 
Q 1241 4863 1831 4863 
L 2375 4863 
z
" transform="scale(0.015625)"/>
      </defs>
      <use xlink:href="#DejaVuSans-53"/>
      <use xlink:href="#DejaVuSans-75" transform="translate(63.476562 0)"/>
      <use xlink:href="#DejaVuSans-72" transform="translate(126.855469 0)"/>
      <use xlink:href="#DejaVuSans-66" transform="translate(167.96875 0)"/>
      <use xlink:href="#DejaVuSans-4d" transform="translate(203.173828 0)"/>
      <use xlink:href="#DejaVuSans-4c" transform="translate(289.453125 0)"/>
     </g>
    </g>
    <g id="line2d_8">
     <path d="M 65.46 90.926094 
L 76.46 90.926094 
L 87.46 90.926094 
" style="fill: none; stroke-dasharray: 5.55,2.4; stroke-dashoffset: 0; stroke: #000080; stroke-width: 1.5"/>
    </g>
    <g id="text_17">
     <!-- SurfML - No Regularization -->
     <g style="fill: #262626" transform="translate(96.26 94.776094) scale(0.11 -0.11)">
      <defs>
       <path id="DejaVuSans-4e" d="M 628 4666 
L 1478 4666 
L 3547 763 
L 3547 4666 
L 4159 4666 
L 4159 0 
L 3309 0 
L 1241 3903 
L 1241 0 
L 628 0 
L 628 4666 
z
" transform="scale(0.015625)"/>
       <path id="DejaVuSans-6f" d="M 1959 3097 
Q 1497 3097 1228 2736 
Q 959 2375 959 1747 
Q 959 1119 1226 758 
Q 1494 397 1959 397 
Q 2419 397 2687 759 
Q 2956 1122 2956 1747 
Q 2956 2369 2687 2733 
Q 2419 3097 1959 3097 
z
M 1959 3584 
Q 2709 3584 3137 3096 
Q 3566 2609 3566 1747 
Q 3566 888 3137 398 
Q 2709 -91 1959 -91 
Q 1206 -91 779 398 
Q 353 888 353 1747 
Q 353 2609 779 3096 
Q 1206 3584 1959 3584 
z
" transform="scale(0.015625)"/>
       <path id="DejaVuSans-67" d="M 2906 1791 
Q 2906 2416 2648 2759 
Q 2391 3103 1925 3103 
Q 1463 3103 1205 2759 
Q 947 2416 947 1791 
Q 947 1169 1205 825 
Q 1463 481 1925 481 
Q 2391 481 2648 825 
Q 2906 1169 2906 1791 
z
M 3481 434 
Q 3481 -459 3084 -895 
Q 2688 -1331 1869 -1331 
Q 1566 -1331 1297 -1286 
Q 1028 -1241 775 -1147 
L 775 -588 
Q 1028 -725 1275 -790 
Q 1522 -856 1778 -856 
Q 2344 -856 2625 -561 
Q 2906 -266 2906 331 
L 2906 616 
Q 2728 306 2450 153 
Q 2172 0 1784 0 
Q 1141 0 747 490 
Q 353 981 353 1791 
Q 353 2603 747 3093 
Q 1141 3584 1784 3584 
Q 2172 3584 2450 3431 
Q 2728 3278 2906 2969 
L 2906 3500 
L 3481 3500 
L 3481 434 
z
" transform="scale(0.015625)"/>
       <path id="DejaVuSans-6c" d="M 603 4863 
L 1178 4863 
L 1178 0 
L 603 0 
L 603 4863 
z
" transform="scale(0.015625)"/>
       <path id="DejaVuSans-7a" d="M 353 3500 
L 3084 3500 
L 3084 2975 
L 922 459 
L 3084 459 
L 3084 0 
L 275 0 
L 275 525 
L 2438 3041 
L 353 3041 
L 353 3500 
z
" transform="scale(0.015625)"/>
      </defs>
      <use xlink:href="#DejaVuSans-53"/>
      <use xlink:href="#DejaVuSans-75" transform="translate(63.476562 0)"/>
      <use xlink:href="#DejaVuSans-72" transform="translate(126.855469 0)"/>
      <use xlink:href="#DejaVuSans-66" transform="translate(167.96875 0)"/>
      <use xlink:href="#DejaVuSans-4d" transform="translate(203.173828 0)"/>
      <use xlink:href="#DejaVuSans-4c" transform="translate(289.453125 0)"/>
      <use xlink:href="#DejaVuSans-20" transform="translate(345.166016 0)"/>
      <use xlink:href="#DejaVuSans-2d" transform="translate(376.953125 0)"/>
      <use xlink:href="#DejaVuSans-20" transform="translate(413.037109 0)"/>
      <use xlink:href="#DejaVuSans-4e" transform="translate(444.824219 0)"/>
      <use xlink:href="#DejaVuSans-6f" transform="translate(519.628906 0)"/>
      <use xlink:href="#DejaVuSans-20" transform="translate(580.810547 0)"/>
      <use xlink:href="#DejaVuSans-52" transform="translate(612.597656 0)"/>
      <use xlink:href="#DejaVuSans-65" transform="translate(677.580078 0)"/>
      <use xlink:href="#DejaVuSans-67" transform="translate(739.103516 0)"/>
      <use xlink:href="#DejaVuSans-75" transform="translate(802.580078 0)"/>
      <use xlink:href="#DejaVuSans-6c" transform="translate(865.958984 0)"/>
      <use xlink:href="#DejaVuSans-61" transform="translate(893.742188 0)"/>
      <use xlink:href="#DejaVuSans-72" transform="translate(955.021484 0)"/>
      <use xlink:href="#DejaVuSans-69" transform="translate(996.134766 0)"/>
      <use xlink:href="#DejaVuSans-7a" transform="translate(1023.917969 0)"/>
      <use xlink:href="#DejaVuSans-61" transform="translate(1076.408203 0)"/>
      <use xlink:href="#DejaVuSans-74" transform="translate(1137.6875 0)"/>
      <use xlink:href="#DejaVuSans-69" transform="translate(1176.896484 0)"/>
      <use xlink:href="#DejaVuSans-6f" transform="translate(1204.679688 0)"/>
      <use xlink:href="#DejaVuSans-6e" transform="translate(1265.861328 0)"/>
     </g>
    </g>
   </g>
  </g>
 </g>
 <defs>
  <clipPath id="p930b669ae1">
   <rect x="55.56" y="28.08" width="651.48" height="282.9"/>
  </clipPath>
 </defs>
</svg>
