<?xml version="1.0" encoding="utf-8" standalone="no"?>
<!DOCTYPE svg PUBLIC "-//W3C//DTD SVG 1.1//EN"
  "http://www.w3.org/Graphics/SVG/1.1/DTD/svg11.dtd">
<svg xmlns:xlink="http://www.w3.org/1999/xlink" width="720pt" height="360pt" viewBox="0 0 720 360" xmlns="http://www.w3.org/2000/svg" version="1.1">
 <metadata>
  <rdf:RDF xmlns:dc="http://purl.org/dc/elements/1.1/" xmlns:cc="http://creativecommons.org/ns#" xmlns:rdf="http://www.w3.org/1999/02/22-rdf-syntax-ns#">
   <cc:Work>
    <dc:type rdf:resource="http://purl.org/dc/dcmitype/StillImage"/>
    <dc:date>2026-03-25T17:47:39.144630</dc:date>
    <dc:format>image/svg+xml</dc:format>
    <dc:creator>
     <cc:Agent>
      <dc:title>Matplotlib v3.10.6, https://matplotlib.org/</dc:title>
     </cc:Agent>
    </dc:creator>
   </cc:Work>
  </rdf:RDF>
 </metadata>
 <defs>
  <style type="text/css">*{stroke-linejoin: round; stroke-linecap: butt}</style>
 </defs>
 <g id="figure_1">
  <g id="patch_1">
   <path d="M 0 360 
L 720 360 
L 720 0 
L 0 0 
z
" style="fill: #ffffff"/>
  </g>
  <g id="axes_1">
   <g id="patch_2">
    <path d="M 55.56 310.98 
L 707.04 310.98 
L 707.04 28.08 
L 55.56 28.08 
z
" style="fill: #eaeaf2"/>
   </g>
   <g id="matplotlib.axis_1">
    <g id="xtick_1">
     <g id="text_1">
      <!-- 0 -->
      <g style="fill: #262626" transform="translate(81.673352 328.838281) scale(0.11 -0.11)">
       <defs>
        <path id="DejaVuSans-30" d="M 2034 4250 
Q 1547 4250 1301 3770 
Q 1056 3291 1056 2328 
Q 1056 1369 1301 889 
Q 1547 409 2034 409 
Q 2525 409 2770 889 
Q 3016 1369 3016 2328 
Q 3016 3291 2770 3770 
Q 2525 4250 2034 4250 
z
M 2034 4750 
Q 2819 4750 3233 4129 
Q 3647 3509 3647 2328 
Q 3647 1150 3233 529 
Q 2819 -91 2034 -91 
Q 1250 -91 836 529 
Q 422 1150 422 2328 
Q 422 3509 836 4129 
Q 1250 4750 2034 4750 
z
" transform="scale(0.015625)"/>
       </defs>
       <use xlink:href="#DejaVuSans-30"/>
      </g>
     </g>
    </g>
    <g id="xtick_2">
     <g id="text_2">
      <!-- 5 -->
      <g style="fill: #262626" transform="translate(224.385291 328.838281) scale(0.11 -0.11)">
       <defs>
        <path id="DejaVuSans-35" d="M 691 4666 
L 3169 4666 
L 3169 4134 
L 1269 4134 
L 1269 2991 
Q 1406 3038 1543 3061 
Q 1681 3084 1819 3084 
Q 2600 3084 3056 2656 
Q 3513 2228 3513 1497 
Q 3513 744 3044 326 
Q 2575 -91 1722 -91 
Q 1428 -91 1123 -41 
Q 819 9 494 109 
L 494 744 
Q 775 591 1075 516 
Q 1375 441 1709 441 
Q 2250 441 2565 725 
Q 2881 1009 2881 1497 
Q 2881 1984 2565 2268 
Q 2250 2553 1709 2553 
Q 1456 2553 1204 2497 
Q 953 2441 691 2322 
L 691 4666 
z
" transform="scale(0.015625)"/>
       </defs>
       <use xlink:href="#DejaVuSans-35"/>
      </g>
     </g>
    </g>
    <g id="xtick_3">
     <g id="text_3">
      <!-- 10 -->
      <g style="fill: #262626" transform="translate(363.597855 328.838281) scale(0.11 -0.11)">
       <defs>
        <path id="DejaVuSans-31" d="M 794 531 
L 1825 531 
L 1825 4091 
L 703 3866 
L 703 4441 
L 1819 4666 
L 2450 4666 
L 2450 531 
L 3481 531 
L 3481 0 
L 794 0 
L 794 531 
z
" transform="scale(0.015625)"/>
       </defs>
       <use xlink:href="#DejaVuSans-31"/>
       <use xlink:href="#DejaVuSans-30" transform="translate(63.623047 0)"/>
      </g>
     </g>
    </g>
    <g id="xtick_4">
     <g id="text_4">
      <!-- 15 -->
      <g style="fill: #262626" transform="translate(506.309793 328.838281) scale(0.11 -0.11)">
       <use xlink:href="#DejaVuSans-31"/>
       <use xlink:href="#DejaVuSans-35" transform="translate(63.623047 0)"/>
      </g>
     </g>
    </g>
    <g id="xtick_5">
     <g id="text_5">
      <!-- 20 -->
      <g style="fill: #262626" transform="translate(649.021732 328.838281) scale(0.11 -0.11)">
       <defs>
        <path id="DejaVuSans-32" d="M 1228 531 
L 3431 531 
L 3431 0 
L 469 0 
L 469 531 
Q 828 903 1448 1529 
Q 2069 2156 2228 2338 
Q 2531 2678 2651 2914 
Q 2772 3150 2772 3378 
Q 2772 3750 2511 3984 
Q 2250 4219 1831 4219 
Q 1534 4219 1204 4116 
Q 875 4013 500 3803 
L 500 4441 
Q 881 4594 1212 4672 
Q 1544 4750 1819 4750 
Q 2544 4750 2975 4387 
Q 3406 4025 3406 3419 
Q 3406 3131 3298 2873 
Q 3191 2616 2906 2266 
Q 2828 2175 2409 1742 
Q 1991 1309 1228 531 
z
" transform="scale(0.015625)"/>
       </defs>
       <use xlink:href="#DejaVuSans-32"/>
       <use xlink:href="#DejaVuSans-30" transform="translate(63.623047 0)"/>
      </g>
     </g>
    </g>
    <g id="text_6">
     <!-- Time [days] -->
     <g style="fill: #262626" transform="translate(345.868125 344.244062) scale(0.12 -0.12)">
      <defs>
       <path id="DejaVuSans-54" d="M -19 4666 
L 3928 4666 
L 3928 4134 
L 2272 4134 
L 2272 0 
L 1638 0 
L 1638 4134 
L -19 4134 
L -19 4666 
z
" transform="scale(0.015625)"/>
       <path id="DejaVuSans-69" d="M 603 3500 
L 1178 3500 
L 1178 0 
L 603 0 
L 603 3500 
z
M 603 4863 
L 1178 4863 
L 1178 4134 
L 603 4134 
L 603 4863 
z
" transform="scale(0.015625)"/>
       <path id="DejaVuSans-6d" d="M 3328 2828 
Q 3544 3216 3844 3400 
Q 4144 3584 4550 3584 
Q 5097 3584 5394 3201 
Q 5691 2819 5691 2113 
L 5691 0 
L 5113 0 
L 5113 2094 
Q 5113 2597 4934 2840 
Q 4756 3084 4391 3084 
Q 3944 3084 3684 2787 
Q 3425 2491 3425 1978 
L 3425 0 
L 2847 0 
L 2847 2094 
Q 2847 2600 2669 2842 
Q 2491 3084 2119 3084 
Q 1678 3084 1418 2786 
Q 1159 2488 1159 1978 
L 1159 0 
L 581 0 
L 581 3500 
L 1159 3500 
L 1159 2956 
Q 1356 3278 1631 3431 
Q 1906 3584 2284 3584 
Q 2666 3584 2933 3390 
Q 3200 3197 3328 2828 
z
" transform="scale(0.015625)"/>
       <path id="DejaVuSans-65" d="M 3597 1894 
L 3597 1613 
L 953 1613 
Q 991 1019 1311 708 
Q 1631 397 2203 397 
Q 2534 397 2845 478 
Q 3156 559 3463 722 
L 3463 178 
Q 3153 47 2828 -22 
Q 2503 -91 2169 -91 
Q 1331 -91 842 396 
Q 353 884 353 1716 
Q 353 2575 817 3079 
Q 1281 3584 2069 3584 
Q 2775 3584 3186 3129 
Q 3597 2675 3597 1894 
z
M 3022 2063 
Q 3016 2534 2758 2815 
Q 2500 3097 2075 3097 
Q 1594 3097 1305 2825 
Q 1016 2553 972 2059 
L 3022 2063 
z
" transform="scale(0.015625)"/>
       <path id="DejaVuSans-20" transform="scale(0.015625)"/>
       <path id="DejaVuSans-5b" d="M 550 4863 
L 1875 4863 
L 1875 4416 
L 1125 4416 
L 1125 -397 
L 1875 -397 
L 1875 -844 
L 550 -844 
L 550 4863 
z
" transform="scale(0.015625)"/>
       <path id="DejaVuSans-64" d="M 2906 2969 
L 2906 4863 
L 3481 4863 
L 3481 0 
L 2906 0 
L 2906 525 
Q 2725 213 2448 61 
Q 2172 -91 1784 -91 
Q 1150 -91 751 415 
Q 353 922 353 1747 
Q 353 2572 751 3078 
Q 1150 3584 1784 3584 
Q 2172 3584 2448 3432 
Q 2725 3281 2906 2969 
z
M 947 1747 
Q 947 1113 1208 752 
Q 1469 391 1925 391 
Q 2381 391 2643 752 
Q 2906 1113 2906 1747 
Q 2906 2381 2643 2742 
Q 2381 3103 1925 3103 
Q 1469 3103 1208 2742 
Q 947 2381 947 1747 
z
" transform="scale(0.015625)"/>
       <path id="DejaVuSans-61" d="M 2194 1759 
Q 1497 1759 1228 1600 
Q 959 1441 959 1056 
Q 959 750 1161 570 
Q 1363 391 1709 391 
Q 2188 391 2477 730 
Q 2766 1069 2766 1631 
L 2766 1759 
L 2194 1759 
z
M 3341 1997 
L 3341 0 
L 2766 0 
L 2766 531 
Q 2569 213 2275 61 
Q 1981 -91 1556 -91 
Q 1019 -91 701 211 
Q 384 513 384 1019 
Q 384 1609 779 1909 
Q 1175 2209 1959 2209 
L 2766 2209 
L 2766 2266 
Q 2766 2663 2505 2880 
Q 2244 3097 1772 3097 
Q 1472 3097 1187 3025 
Q 903 2953 641 2809 
L 641 3341 
Q 956 3463 1253 3523 
Q 1550 3584 1831 3584 
Q 2591 3584 2966 3190 
Q 3341 2797 3341 1997 
z
" transform="scale(0.015625)"/>
       <path id="DejaVuSans-79" d="M 2059 -325 
Q 1816 -950 1584 -1140 
Q 1353 -1331 966 -1331 
L 506 -1331 
L 506 -850 
L 844 -850 
Q 1081 -850 1212 -737 
Q 1344 -625 1503 -206 
L 1606 56 
L 191 3500 
L 800 3500 
L 1894 763 
L 2988 3500 
L 3597 3500 
L 2059 -325 
z
" transform="scale(0.015625)"/>
       <path id="DejaVuSans-73" d="M 2834 3397 
L 2834 2853 
Q 2591 2978 2328 3040 
Q 2066 3103 1784 3103 
Q 1356 3103 1142 2972 
Q 928 2841 928 2578 
Q 928 2378 1081 2264 
Q 1234 2150 1697 2047 
L 1894 2003 
Q 2506 1872 2764 1633 
Q 3022 1394 3022 966 
Q 3022 478 2636 193 
Q 2250 -91 1575 -91 
Q 1294 -91 989 -36 
Q 684 19 347 128 
L 347 722 
Q 666 556 975 473 
Q 1284 391 1588 391 
Q 1994 391 2212 530 
Q 2431 669 2431 922 
Q 2431 1156 2273 1281 
Q 2116 1406 1581 1522 
L 1381 1569 
Q 847 1681 609 1914 
Q 372 2147 372 2553 
Q 372 3047 722 3315 
Q 1072 3584 1716 3584 
Q 2034 3584 2315 3537 
Q 2597 3491 2834 3397 
z
" transform="scale(0.015625)"/>
       <path id="DejaVuSans-5d" d="M 1947 4863 
L 1947 -844 
L 622 -844 
L 622 -397 
L 1369 -397 
L 1369 4416 
L 622 4416 
L 622 4863 
L 1947 4863 
z
" transform="scale(0.015625)"/>
      </defs>
      <use xlink:href="#DejaVuSans-54"/>
      <use xlink:href="#DejaVuSans-69" transform="translate(57.958984 0)"/>
      <use xlink:href="#DejaVuSans-6d" transform="translate(85.742188 0)"/>
      <use xlink:href="#DejaVuSans-65" transform="translate(183.154297 0)"/>
      <use xlink:href="#DejaVuSans-20" transform="translate(244.677734 0)"/>
      <use xlink:href="#DejaVuSans-5b" transform="translate(276.464844 0)"/>
      <use xlink:href="#DejaVuSans-64" transform="translate(315.478516 0)"/>
      <use xlink:href="#DejaVuSans-61" transform="translate(378.955078 0)"/>
      <use xlink:href="#DejaVuSans-79" transform="translate(440.234375 0)"/>
      <use xlink:href="#DejaVuSans-73" transform="translate(499.414062 0)"/>
      <use xlink:href="#DejaVuSans-5d" transform="translate(551.513672 0)"/>
     </g>
    </g>
   </g>
   <g id="matplotlib.axis_2">
    <g id="ytick_1">
     <g id="text_7">
      <!-- 0.0 -->
      <g style="fill: #262626" transform="translate(28.566562 302.30005) scale(0.11 -0.11)">
       <defs>
        <path id="DejaVuSans-2e" d="M 684 794 
L 1344 794 
L 1344 0 
L 684 0 
L 684 794 
z
" transform="scale(0.015625)"/>
       </defs>
       <use xlink:href="#DejaVuSans-30"/>
       <use xlink:href="#DejaVuSans-2e" transform="translate(63.623047 0)"/>
       <use xlink:href="#DejaVuSans-30" transform="translate(95.410156 0)"/>
      </g>
     </g>
    </g>
    <g id="ytick_2">
     <g id="text_8">
      <!-- 0.1 -->
      <g style="fill: #262626" transform="translate(28.566562 262.99313) scale(0.11 -0.11)">
       <use xlink:href="#DejaVuSans-30"/>
       <use xlink:href="#DejaVuSans-2e" transform="translate(63.623047 0)"/>
       <use xlink:href="#DejaVuSans-31" transform="translate(95.410156 0)"/>
      </g>
     </g>
    </g>
    <g id="ytick_3">
     <g id="text_9">
      <!-- 0.2 -->
      <g style="fill: #262626" transform="translate(28.566562 223.68621) scale(0.11 -0.11)">
       <use xlink:href="#DejaVuSans-30"/>
       <use xlink:href="#DejaVuSans-2e" transform="translate(63.623047 0)"/>
       <use xlink:href="#DejaVuSans-32" transform="translate(95.410156 0)"/>
      </g>
     </g>
    </g>
    <g id="ytick_4">
     <g id="text_10">
      <!-- 0.3 -->
      <g style="fill: #262626" transform="translate(28.566562 184.379291) scale(0.11 -0.11)">
       <defs>
        <path id="DejaVuSans-33" d="M 2597 2516 
Q 3050 2419 3304 2112 
Q 3559 1806 3559 1356 
Q 3559 666 3084 287 
Q 2609 -91 1734 -91 
Q 1441 -91 1130 -33 
Q 819 25 488 141 
L 488 750 
Q 750 597 1062 519 
Q 1375 441 1716 441 
Q 2309 441 2620 675 
Q 2931 909 2931 1356 
Q 2931 1769 2642 2001 
Q 2353 2234 1838 2234 
L 1294 2234 
L 1294 2753 
L 1863 2753 
Q 2328 2753 2575 2939 
Q 2822 3125 2822 3475 
Q 2822 3834 2567 4026 
Q 2313 4219 1838 4219 
Q 1578 4219 1281 4162 
Q 984 4106 628 3988 
L 628 4550 
Q 988 4650 1302 4700 
Q 1616 4750 1894 4750 
Q 2613 4750 3031 4423 
Q 3450 4097 3450 3541 
Q 3450 3153 3228 2886 
Q 3006 2619 2597 2516 
z
" transform="scale(0.015625)"/>
       </defs>
       <use xlink:href="#DejaVuSans-30"/>
       <use xlink:href="#DejaVuSans-2e" transform="translate(63.623047 0)"/>
       <use xlink:href="#DejaVuSans-33" transform="translate(95.410156 0)"/>
      </g>
     </g>
    </g>
    <g id="ytick_5">
     <g id="text_11">
      <!-- 0.4 -->
      <g style="fill: #262626" transform="translate(28.566562 145.072371) scale(0.11 -0.11)">
       <defs>
        <path id="DejaVuSans-34" d="M 2419 4116 
L 825 1625 
L 2419 1625 
L 2419 4116 
z
M 2253 4666 
L 3047 4666 
L 3047 1625 
L 3713 1625 
L 3713 1100 
L 3047 1100 
L 3047 0 
L 2419 0 
L 2419 1100 
L 313 1100 
L 313 1709 
L 2253 4666 
z
" transform="scale(0.015625)"/>
       </defs>
       <use xlink:href="#DejaVuSans-30"/>
       <use xlink:href="#DejaVuSans-2e" transform="translate(63.623047 0)"/>
       <use xlink:href="#DejaVuSans-34" transform="translate(95.410156 0)"/>
      </g>
     </g>
    </g>
    <g id="ytick_6">
     <g id="text_12">
      <!-- 0.5 -->
      <g style="fill: #262626" transform="translate(28.566562 105.765451) scale(0.11 -0.11)">
       <use xlink:href="#DejaVuSans-30"/>
       <use xlink:href="#DejaVuSans-2e" transform="translate(63.623047 0)"/>
       <use xlink:href="#DejaVuSans-35" transform="translate(95.410156 0)"/>
      </g>
     </g>
    </g>
    <g id="ytick_7">
     <g id="text_13">
      <!-- 0.6 -->
      <g style="fill: #262626" transform="translate(28.566562 66.458531) scale(0.11 -0.11)">
       <defs>
        <path id="DejaVuSans-36" d="M 2113 2584 
Q 1688 2584 1439 2293 
Q 1191 2003 1191 1497 
Q 1191 994 1439 701 
Q 1688 409 2113 409 
Q 2538 409 2786 701 
Q 3034 994 3034 1497 
Q 3034 2003 2786 2293 
Q 2538 2584 2113 2584 
z
M 3366 4563 
L 3366 3988 
Q 3128 4100 2886 4159 
Q 2644 4219 2406 4219 
Q 1781 4219 1451 3797 
Q 1122 3375 1075 2522 
Q 1259 2794 1537 2939 
Q 1816 3084 2150 3084 
Q 2853 3084 3261 2657 
Q 3669 2231 3669 1497 
Q 3669 778 3244 343 
Q 2819 -91 2113 -91 
Q 1303 -91 875 529 
Q 447 1150 447 2328 
Q 447 3434 972 4092 
Q 1497 4750 2381 4750 
Q 2619 4750 2861 4703 
Q 3103 4656 3366 4563 
z
" transform="scale(0.015625)"/>
       </defs>
       <use xlink:href="#DejaVuSans-30"/>
       <use xlink:href="#DejaVuSans-2e" transform="translate(63.623047 0)"/>
       <use xlink:href="#DejaVuSans-36" transform="translate(95.410156 0)"/>
      </g>
     </g>
    </g>
    <g id="text_14">
     <!-- nRMSE -->
     <g style="fill: #262626" transform="translate(22.070937 190.27875) rotate(-90) scale(0.12 -0.12)">
      <defs>
       <path id="DejaVuSans-6e" d="M 3513 2113 
L 3513 0 
L 2938 0 
L 2938 2094 
Q 2938 2591 2744 2837 
Q 2550 3084 2163 3084 
Q 1697 3084 1428 2787 
Q 1159 2491 1159 1978 
L 1159 0 
L 581 0 
L 581 3500 
L 1159 3500 
L 1159 2956 
Q 1366 3272 1645 3428 
Q 1925 3584 2291 3584 
Q 2894 3584 3203 3211 
Q 3513 2838 3513 2113 
z
" transform="scale(0.015625)"/>
       <path id="DejaVuSans-52" d="M 2841 2188 
Q 3044 2119 3236 1894 
Q 3428 1669 3622 1275 
L 4263 0 
L 3584 0 
L 2988 1197 
Q 2756 1666 2539 1819 
Q 2322 1972 1947 1972 
L 1259 1972 
L 1259 0 
L 628 0 
L 628 4666 
L 2053 4666 
Q 2853 4666 3247 4331 
Q 3641 3997 3641 3322 
Q 3641 2881 3436 2590 
Q 3231 2300 2841 2188 
z
M 1259 4147 
L 1259 2491 
L 2053 2491 
Q 2509 2491 2742 2702 
Q 2975 2913 2975 3322 
Q 2975 3731 2742 3939 
Q 2509 4147 2053 4147 
L 1259 4147 
z
" transform="scale(0.015625)"/>
       <path id="DejaVuSans-4d" d="M 628 4666 
L 1569 4666 
L 2759 1491 
L 3956 4666 
L 4897 4666 
L 4897 0 
L 4281 0 
L 4281 4097 
L 3078 897 
L 2444 897 
L 1241 4097 
L 1241 0 
L 628 0 
L 628 4666 
z
" transform="scale(0.015625)"/>
       <path id="DejaVuSans-53" d="M 3425 4513 
L 3425 3897 
Q 3066 4069 2747 4153 
Q 2428 4238 2131 4238 
Q 1616 4238 1336 4038 
Q 1056 3838 1056 3469 
Q 1056 3159 1242 3001 
Q 1428 2844 1947 2747 
L 2328 2669 
Q 3034 2534 3370 2195 
Q 3706 1856 3706 1288 
Q 3706 609 3251 259 
Q 2797 -91 1919 -91 
Q 1588 -91 1214 -16 
Q 841 59 441 206 
L 441 856 
Q 825 641 1194 531 
Q 1563 422 1919 422 
Q 2459 422 2753 634 
Q 3047 847 3047 1241 
Q 3047 1584 2836 1778 
Q 2625 1972 2144 2069 
L 1759 2144 
Q 1053 2284 737 2584 
Q 422 2884 422 3419 
Q 422 4038 858 4394 
Q 1294 4750 2059 4750 
Q 2388 4750 2728 4690 
Q 3069 4631 3425 4513 
z
" transform="scale(0.015625)"/>
       <path id="DejaVuSans-45" d="M 628 4666 
L 3578 4666 
L 3578 4134 
L 1259 4134 
L 1259 2753 
L 3481 2753 
L 3481 2222 
L 1259 2222 
L 1259 531 
L 3634 531 
L 3634 0 
L 628 0 
L 628 4666 
z
" transform="scale(0.015625)"/>
      </defs>
      <use xlink:href="#DejaVuSans-6e"/>
      <use xlink:href="#DejaVuSans-52" transform="translate(63.378906 0)"/>
      <use xlink:href="#DejaVuSans-4d" transform="translate(132.861328 0)"/>
      <use xlink:href="#DejaVuSans-53" transform="translate(219.140625 0)"/>
      <use xlink:href="#DejaVuSans-45" transform="translate(282.617188 0)"/>
     </g>
    </g>
   </g>
   <g id="FillBetweenPolyCollection_1">
    <defs>
     <path id="mbe839efa50" d="M 85.172727 -61.879091 
L 85.172727 -61.879091 
L 87.55126 -63.162746 
L 89.929792 -64.441497 
L 92.308324 -65.716054 
L 94.686857 -66.986983 
L 97.065389 -68.254669 
L 99.443921 -69.519356 
L 101.822453 -70.781216 
L 104.200986 -72.040367 
L 106.579518 -73.296879 
L 108.95805 -74.550779 
L 111.336583 -75.802056 
L 113.715115 -77.050685 
L 116.093647 -78.296657 
L 118.47218 -79.539976 
L 120.850712 -80.780642 
L 123.229244 -82.018645 
L 125.607777 -83.253946 
L 127.986309 -84.486452 
L 130.364841 -85.715993 
L 132.743373 -86.942292 
L 135.121906 -88.164959 
L 137.500438 -89.383511 
L 139.87897 -90.597356 
L 142.257503 -91.805811 
L 144.636035 -93.008113 
L 147.014567 -94.203445 
L 149.3931 -95.390959 
L 151.771632 -96.569794 
L 154.150164 -97.739125 
L 156.528697 -98.89821 
L 158.907229 -100.04643 
L 161.285761 -101.183299 
L 163.664294 -102.308501 
L 166.042826 -103.421891 
L 168.421358 -104.52351 
L 170.79989 -105.613621 
L 173.178423 -106.692746 
L 175.556955 -107.761678 
L 177.935487 -108.82147 
L 180.31402 -109.873344 
L 182.692552 -110.918583 
L 185.071084 -111.958405 
L 187.449617 -112.993854 
L 189.828149 -114.025759 
L 192.206681 -115.054728 
L 194.585214 -116.081205 
L 196.963746 -117.10554 
L 199.342278 -118.128024 
L 201.720811 -119.148914 
L 204.099343 -120.168426 
L 206.477875 -121.186735 
L 208.856407 -122.203941 
L 211.23494 -123.220048 
L 213.613472 -124.234975 
L 215.992004 -125.248534 
L 218.370537 -126.260459 
L 220.749069 -127.270415 
L 223.127601 -128.278016 
L 225.506134 -129.282856 
L 227.884666 -130.284563 
L 230.263198 -131.282838 
L 232.641731 -132.277487 
L 235.020263 -133.268435 
L 237.398795 -134.255704 
L 239.777327 -135.239391 
L 242.15586 -136.219643 
L 244.534392 -137.196636 
L 246.912924 -138.170547 
L 249.291457 -139.141523 
L 251.669989 -140.109672 
L 254.048521 -141.075064 
L 256.427054 -142.03773 
L 258.805586 -142.997658 
L 261.184118 -143.954806 
L 263.562651 -144.909111 
L 265.941183 -145.860531 
L 268.319715 -146.809074 
L 270.698248 -147.754818 
L 273.07678 -148.697915 
L 275.455312 -149.638564 
L 277.833844 -150.577 
L 280.212377 -151.513481 
L 282.590909 -152.448321 
L 284.969441 -153.381911 
L 287.347974 -154.314728 
L 289.726506 -155.247337 
L 292.105038 -156.180381 
L 294.483571 -157.114562 
L 296.862103 -158.050617 
L 299.240635 -158.989287 
L 301.619168 -159.93128 
L 303.9977 -160.877232 
L 306.376232 -161.827649 
L 308.754765 -162.782872 
L 311.133297 -163.74306 
L 313.511829 -164.708213 
L 315.890361 -165.67819 
L 318.268894 -166.652735 
L 320.647426 -167.63152 
L 323.025958 -168.61416 
L 325.404491 -169.60024 
L 327.783023 -170.589326 
L 330.161555 -171.580982 
L 332.540088 -172.574796 
L 334.91862 -173.570374 
L 337.297152 -174.567324 
L 339.675685 -175.565258 
L 342.054217 -176.563804 
L 344.432749 -177.562621 
L 346.811281 -178.561419 
L 349.189814 -179.559959 
L 351.568346 -180.55805 
L 353.946878 -181.555554 
L 356.325411 -182.55237 
L 358.703943 -183.548429 
L 361.082475 -184.543697 
L 363.461008 -185.538133 
L 365.83954 -186.531665 
L 368.218072 -187.524174 
L 370.596605 -188.515478 
L 372.975137 -189.505335 
L 375.353669 -190.493443 
L 377.732202 -191.479464 
L 380.110734 -192.463033 
L 382.489266 -193.443795 
L 384.867798 -194.421405 
L 387.246331 -195.395536 
L 389.624863 -196.365883 
L 392.003395 -197.332168 
L 394.381928 -198.294166 
L 396.76046 -199.251686 
L 399.138992 -200.204587 
L 401.517525 -201.152754 
L 403.896057 -202.096085 
L 406.274589 -203.034482 
L 408.653122 -203.967836 
L 411.031654 -204.896044 
L 413.410186 -205.819015 
L 415.788719 -206.736668 
L 418.167251 -207.648938 
L 420.545783 -208.555784 
L 422.924315 -209.457196 
L 425.302848 -210.353197 
L 427.68138 -211.243846 
L 430.059912 -212.129256 
L 432.438445 -213.009595 
L 434.816977 -213.885036 
L 437.195509 -214.75572 
L 439.574042 -215.621715 
L 441.952574 -216.483004 
L 444.331106 -217.339482 
L 446.709639 -218.190987 
L 449.088171 -219.03735 
L 451.466703 -219.878429 
L 453.845235 -220.714151 
L 456.223768 -221.544525 
L 458.6023 -222.369649 
L 460.980832 -223.189675 
L 463.359365 -224.004796 
L 465.737897 -224.815222 
L 468.116429 -225.621169 
L 470.494962 -226.422829 
L 472.873494 -227.220367 
L 475.252026 -228.013911 
L 477.630559 -228.803555 
L 480.009091 -229.589381 
L 482.387623 -230.371471 
L 484.766156 -231.149915 
L 487.144688 -231.924801 
L 489.52322 -232.696237 
L 491.901752 -233.464329 
L 494.280285 -234.229155 
L 496.658817 -234.990726 
L 499.037349 -235.749006 
L 501.415882 -236.503906 
L 503.794414 -237.25528 
L 506.172946 -238.002937 
L 508.551479 -238.746663 
L 510.930011 -239.48623 
L 513.308543 -240.221394 
L 515.687076 -240.951905 
L 518.065608 -241.677506 
L 520.44414 -242.397924 
L 522.822673 -243.112883 
L 525.201205 -243.822108 
L 527.579737 -244.525331 
L 529.958269 -245.222298 
L 532.336802 -245.912759 
L 534.715334 -246.596488 
L 537.093866 -247.273256 
L 539.472399 -247.942834 
L 541.850931 -248.60499 
L 544.229463 -249.259483 
L 546.607996 -249.906073 
L 548.986528 -250.54454 
L 551.36506 -251.174681 
L 553.743593 -251.796313 
L 556.122125 -252.409273 
L 558.500657 -253.013395 
L 560.879189 -253.608542 
L 563.257722 -254.194613 
L 565.636254 -254.771533 
L 568.014786 -255.339262 
L 570.393319 -255.897787 
L 572.771851 -256.447119 
L 575.150383 -256.987296 
L 577.528916 -257.518349 
L 579.907448 -258.040302 
L 582.28598 -258.553145 
L 584.664513 -259.056822 
L 587.043045 -259.551209 
L 589.421577 -260.036174 
L 591.80011 -260.511595 
L 594.178642 -260.977397 
L 596.557174 -261.433582 
L 598.935706 -261.880255 
L 601.314239 -262.317636 
L 603.692771 -262.746044 
L 606.071303 -263.165901 
L 608.449836 -263.577731 
L 610.828368 -263.982113 
L 613.2069 -264.379666 
L 615.585433 -264.77103 
L 617.963965 -265.156829 
L 620.342497 -265.537662 
L 622.72103 -265.914095 
L 625.099562 -266.286655 
L 627.478094 -266.655817 
L 629.856627 -267.022013 
L 632.235159 -267.385639 
L 634.613691 -267.747043 
L 636.992223 -268.106534 
L 639.370756 -268.464373 
L 641.749288 -268.820763 
L 644.12782 -269.175874 
L 646.506353 -269.529832 
L 648.884885 -269.882702 
L 651.263417 -270.234498 
L 653.64195 -270.585188 
L 656.020482 -270.934684 
L 658.399014 -271.282836 
L 660.777547 -271.629464 
L 663.156079 -271.974392 
L 665.534611 -272.317459 
L 667.913143 -272.658553 
L 670.291676 -272.99765 
L 672.670208 -273.334826 
L 675.04874 -273.670278 
L 677.427273 -274.004351 
L 677.427273 -364.117467 
L 677.427273 -364.117467 
L 675.04874 -363.662165 
L 672.670208 -363.198721 
L 670.291676 -362.727306 
L 667.913143 -362.248073 
L 665.534611 -361.761131 
L 663.156079 -361.266576 
L 660.777547 -360.764535 
L 658.399014 -360.255163 
L 656.020482 -359.738688 
L 653.64195 -359.215425 
L 651.263417 -358.685774 
L 648.884885 -358.150238 
L 646.506353 -357.60937 
L 644.12782 -357.063751 
L 641.749288 -356.513973 
L 639.370756 -355.960606 
L 636.992223 -355.404158 
L 634.613691 -354.84507 
L 632.235159 -354.283694 
L 629.856627 -353.720306 
L 627.478094 -353.15511 
L 625.099562 -352.588238 
L 622.72103 -352.019758 
L 620.342497 -351.449717 
L 617.963965 -350.878098 
L 615.585433 -350.304835 
L 613.2069 -349.729813 
L 610.828368 -349.152859 
L 608.449836 -348.573738 
L 606.071303 -347.992141 
L 603.692771 -347.407696 
L 601.314239 -346.819982 
L 598.935706 -346.228551 
L 596.557174 -345.632936 
L 594.178642 -345.032685 
L 591.80011 -344.427379 
L 589.421577 -343.816648 
L 587.043045 -343.200233 
L 584.664513 -342.578005 
L 582.28598 -341.949967 
L 579.907448 -341.316268 
L 577.528916 -340.67723 
L 575.150383 -340.033325 
L 572.771851 -339.385146 
L 570.393319 -338.733389 
L 568.014786 -338.078821 
L 565.636254 -337.42225 
L 563.257722 -336.764461 
L 560.879189 -336.106177 
L 558.500657 -335.448014 
L 556.122125 -334.790458 
L 553.743593 -334.133841 
L 551.36506 -333.478319 
L 548.986528 -332.823906 
L 546.607996 -332.17051 
L 544.229463 -331.517983 
L 541.850931 -330.866179 
L 539.472399 -330.214986 
L 537.093866 -329.56437 
L 534.715334 -328.914371 
L 532.336802 -328.265103 
L 529.958269 -327.616728 
L 527.579737 -326.96943 
L 525.201205 -326.323389 
L 522.822673 -325.67876 
L 520.44414 -325.035645 
L 518.065608 -324.394078 
L 515.687076 -323.754015 
L 513.308543 -323.11534 
L 510.930011 -322.477855 
L 508.551479 -321.841306 
L 506.172946 -321.205397 
L 503.794414 -320.569793 
L 501.415882 -319.934139 
L 499.037349 -319.298061 
L 496.658817 -318.661177 
L 494.280285 -318.023085 
L 491.901752 -317.383367 
L 489.52322 -316.741578 
L 487.144688 -316.097247 
L 484.766156 -315.449873 
L 482.387623 -314.798939 
L 480.009091 -314.143922 
L 477.630559 -313.484305 
L 475.252026 -312.819589 
L 472.873494 -312.149325 
L 470.494962 -311.473121 
L 468.116429 -310.790644 
L 465.737897 -310.101631 
L 463.359365 -309.40588 
L 460.980832 -308.703236 
L 458.6023 -307.993585 
L 456.223768 -307.276844 
L 453.845235 -306.552923 
L 451.466703 -305.821727 
L 449.088171 -305.083142 
L 446.709639 -304.337021 
L 444.331106 -303.583179 
L 441.952574 -302.821396 
L 439.574042 -302.051423 
L 437.195509 -301.272959 
L 434.816977 -300.485652 
L 432.438445 -299.689099 
L 430.059912 -298.882856 
L 427.68138 -298.066495 
L 425.302848 -297.23961 
L 422.924315 -296.401843 
L 420.545783 -295.552884 
L 418.167251 -294.692492 
L 415.788719 -293.820466 
L 413.410186 -292.936643 
L 411.031654 -292.040923 
L 408.653122 -291.133253 
L 406.274589 -290.213623 
L 403.896057 -289.282063 
L 401.517525 -288.338627 
L 399.138992 -287.383387 
L 396.76046 -286.416408 
L 394.381928 -285.437725 
L 392.003395 -284.447335 
L 389.624863 -283.445208 
L 387.246331 -282.431262 
L 384.867798 -281.405401 
L 382.489266 -280.367523 
L 380.110734 -279.317541 
L 377.732202 -278.255385 
L 375.353669 -277.181008 
L 372.975137 -276.094384 
L 370.596605 -274.995489 
L 368.218072 -273.88427 
L 365.83954 -272.760627 
L 363.461008 -271.624401 
L 361.082475 -270.475371 
L 358.703943 -269.31326 
L 356.325411 -268.13775 
L 353.946878 -266.948494 
L 351.568346 -265.745135 
L 349.189814 -264.527322 
L 346.811281 -263.294736 
L 344.432749 -262.047089 
L 342.054217 -260.784127 
L 339.675685 -259.50564 
L 337.297152 -258.211459 
L 334.91862 -256.901468 
L 332.540088 -255.575615 
L 330.161555 -254.233914 
L 327.783023 -252.876445 
L 325.404491 -251.503346 
L 323.025958 -250.114812 
L 320.647426 -248.711105 
L 318.268894 -247.292545 
L 315.890361 -245.859521 
L 313.511829 -244.412458 
L 311.133297 -242.951806 
L 308.754765 -241.478036 
L 306.376232 -239.991626 
L 303.9977 -238.493081 
L 301.619168 -236.982872 
L 299.240635 -235.461472 
L 296.862103 -233.929367 
L 294.483571 -232.387022 
L 292.105038 -230.834905 
L 289.726506 -229.27348 
L 287.347974 -227.703185 
L 284.969441 -226.124449 
L 282.590909 -224.537663 
L 280.212377 -222.943166 
L 277.833844 -221.341248 
L 275.455312 -219.732134 
L 273.07678 -218.116007 
L 270.698248 -216.492993 
L 268.319715 -214.863172 
L 265.941183 -213.226593 
L 263.562651 -211.583283 
L 261.184118 -209.933264 
L 258.805586 -208.276565 
L 256.427054 -206.61323 
L 254.048521 -204.943305 
L 251.669989 -203.266849 
L 249.291457 -201.583914 
L 246.912924 -199.894576 
L 244.534392 -198.198925 
L 242.15586 -196.497076 
L 239.777327 -194.789156 
L 237.398795 -193.07528 
L 235.020263 -191.355545 
L 232.641731 -189.629985 
L 230.263198 -187.898581 
L 227.884666 -186.161251 
L 225.506134 -184.417827 
L 223.127601 -182.668046 
L 220.749069 -180.911533 
L 218.370537 -179.147811 
L 215.992004 -177.376337 
L 213.613472 -175.596511 
L 211.23494 -173.807717 
L 208.856407 -172.009354 
L 206.477875 -170.200828 
L 204.099343 -168.381554 
L 201.720811 -166.550987 
L 199.342278 -164.708638 
L 196.963746 -162.854067 
L 194.585214 -160.98689 
L 192.206681 -159.106793 
L 189.828149 -157.213554 
L 187.449617 -155.307028 
L 185.071084 -153.387144 
L 182.692552 -151.453896 
L 180.31402 -149.507299 
L 177.935487 -147.547393 
L 175.556955 -145.574221 
L 173.178423 -143.587825 
L 170.79989 -141.588285 
L 168.421358 -139.5757 
L 166.042826 -137.550218 
L 163.664294 -135.512015 
L 161.285761 -133.461282 
L 158.907229 -131.39826 
L 156.528697 -129.323197 
L 154.150164 -127.23635 
L 151.771632 -125.138009 
L 149.3931 -123.028475 
L 147.014567 -120.90804 
L 144.636035 -118.776982 
L 142.257503 -116.635572 
L 139.87897 -114.484031 
L 137.500438 -112.322521 
L 135.121906 -110.151162 
L 132.743373 -107.969983 
L 130.364841 -105.77892 
L 127.986309 -103.577801 
L 125.607777 -101.366342 
L 123.229244 -99.144131 
L 120.850712 -96.910641 
L 118.47218 -94.665266 
L 116.093647 -92.407342 
L 113.715115 -90.136222 
L 111.336583 -87.85131 
L 108.95805 -85.552116 
L 106.579518 -83.238335 
L 104.200986 -80.909952 
L 101.822453 -78.567299 
L 99.443921 -76.211107 
L 97.065389 -73.842524 
L 94.686857 -71.463102 
L 92.308324 -69.074761 
L 89.929792 -66.679706 
L 87.55126 -64.280323 
L 85.172727 -61.879091 
z
" style="stroke: #000000; stroke-opacity: 0.1"/>
    </defs>
    <g clip-path="url(#p92c1602a2e)">
     <use xlink:href="#mbe839efa50" x="0" y="360" style="fill-opacity: 0.1; stroke: #000000; stroke-opacity: 0.1"/>
    </g>
   </g>
   <g id="FillBetweenPolyCollection_2">
    <defs>
     <path id="maecb8203d2" d="M 85.172727 -61.879091 
L 85.172727 -61.879091 
L 87.55126 -63.108312 
L 89.929792 -64.326179 
L 92.308324 -65.533654 
L 94.686857 -66.731521 
L 97.065389 -67.920327 
L 99.443921 -69.100414 
L 101.822453 -70.271992 
L 104.200986 -71.435151 
L 106.579518 -72.589882 
L 108.95805 -73.736091 
L 111.336583 -74.87361 
L 113.715115 -76.002241 
L 116.093647 -77.121793 
L 118.47218 -78.232105 
L 120.850712 -79.333044 
L 123.229244 -80.424527 
L 125.607777 -81.506504 
L 127.986309 -82.578931 
L 130.364841 -83.641749 
L 132.743373 -84.694859 
L 135.121906 -85.738084 
L 137.500438 -86.771188 
L 139.87897 -87.79384 
L 142.257503 -88.805618 
L 144.636035 -89.805998 
L 147.014567 -90.794372 
L 149.3931 -91.770042 
L 151.771632 -92.732247 
L 154.150164 -93.680182 
L 156.528697 -94.613056 
L 158.907229 -95.530117 
L 161.285761 -96.430666 
L 163.664294 -97.314079 
L 166.042826 -98.179843 
L 168.421358 -99.027571 
L 170.79989 -99.857047 
L 173.178423 -100.66826 
L 175.556955 -101.461434 
L 177.935487 -102.237061 
L 180.31402 -102.995854 
L 182.692552 -103.738684 
L 185.071084 -104.466487 
L 187.449617 -105.180186 
L 189.828149 -105.880631 
L 192.206681 -106.568578 
L 194.585214 -107.244715 
L 196.963746 -107.909694 
L 199.342278 -108.564164 
L 201.720811 -109.208773 
L 204.099343 -109.844158 
L 206.477875 -110.470919 
L 208.856407 -111.089595 
L 211.23494 -111.700636 
L 213.613472 -112.304389 
L 215.992004 -112.901073 
L 218.370537 -113.490775 
L 220.749069 -114.073461 
L 223.127601 -114.648976 
L 225.506134 -115.217059 
L 227.884666 -115.777387 
L 230.263198 -116.329616 
L 232.641731 -116.873427 
L 235.020263 -117.408544 
L 237.398795 -117.934739 
L 239.777327 -118.451829 
L 242.15586 -118.959669 
L 244.534392 -119.458159 
L 246.912924 -119.947208 
L 249.291457 -120.426706 
L 251.669989 -120.896524 
L 254.048521 -121.356492 
L 256.427054 -121.806392 
L 258.805586 -122.245943 
L 261.184118 -122.674818 
L 263.562651 -123.092649 
L 265.941183 -123.499081 
L 268.319715 -123.893841 
L 270.698248 -124.276778 
L 273.07678 -124.647876 
L 275.455312 -125.00724 
L 277.833844 -125.355063 
L 280.212377 -125.69162 
L 282.590909 -126.017304 
L 284.969441 -126.332639 
L 287.347974 -126.63831 
L 289.726506 -126.935149 
L 292.105038 -127.22411 
L 294.483571 -127.506238 
L 296.862103 -127.782636 
L 299.240635 -128.054414 
L 301.619168 -128.322645 
L 303.9977 -128.588322 
L 306.376232 -128.85229 
L 308.754765 -129.115201 
L 311.133297 -129.377507 
L 313.511829 -129.639464 
L 315.890361 -129.901173 
L 318.268894 -130.162602 
L 320.647426 -130.423619 
L 323.025958 -130.684022 
L 325.404491 -130.943549 
L 327.783023 -131.201903 
L 330.161555 -131.45876 
L 332.540088 -131.713797 
L 334.91862 -131.966677 
L 337.297152 -132.217037 
L 339.675685 -132.464506 
L 342.054217 -132.70869 
L 344.432749 -132.94919 
L 346.811281 -133.185613 
L 349.189814 -133.41757 
L 351.568346 -133.64469 
L 353.946878 -133.866628 
L 356.325411 -134.08306 
L 358.703943 -134.293696 
L 361.082475 -134.498279 
L 363.461008 -134.696557 
L 365.83954 -134.888274 
L 368.218072 -135.073164 
L 370.596605 -135.250951 
L 372.975137 -135.42135 
L 375.353669 -135.58408 
L 377.732202 -135.738879 
L 380.110734 -135.885525 
L 382.489266 -136.02386 
L 384.867798 -136.153791 
L 387.246331 -136.275301 
L 389.624863 -136.388449 
L 392.003395 -136.493365 
L 394.381928 -136.590265 
L 396.76046 -136.679427 
L 399.138992 -136.76119 
L 401.517525 -136.835925 
L 403.896057 -136.904021 
L 406.274589 -136.965862 
L 408.653122 -137.021814 
L 411.031654 -137.072237 
L 413.410186 -137.117485 
L 415.788719 -137.157902 
L 418.167251 -137.193814 
L 420.545783 -137.225549 
L 422.924315 -137.253431 
L 425.302848 -137.277786 
L 427.68138 -137.298956 
L 430.059912 -137.317301 
L 432.438445 -137.333216 
L 434.816977 -137.347118 
L 437.195509 -137.359437 
L 439.574042 -137.3706 
L 441.952574 -137.381036 
L 444.331106 -137.391158 
L 446.709639 -137.401363 
L 449.088171 -137.412044 
L 451.466703 -137.423592 
L 453.845235 -137.436424 
L 456.223768 -137.450988 
L 458.6023 -137.467764 
L 460.980832 -137.487243 
L 463.359365 -137.50992 
L 465.737897 -137.536289 
L 468.116429 -137.566842 
L 470.494962 -137.602055 
L 472.873494 -137.642391 
L 475.252026 -137.688275 
L 477.630559 -137.740103 
L 480.009091 -137.798247 
L 482.387623 -137.863042 
L 484.766156 -137.934776 
L 487.144688 -138.013678 
L 489.52322 -138.099921 
L 491.901752 -138.193625 
L 494.280285 -138.294853 
L 496.658817 -138.403607 
L 499.037349 -138.519854 
L 501.415882 -138.643532 
L 503.794414 -138.774551 
L 506.172946 -138.912791 
L 508.551479 -139.058119 
L 510.930011 -139.210365 
L 513.308543 -139.369332 
L 515.687076 -139.534808 
L 518.065608 -139.706565 
L 520.44414 -139.884368 
L 522.822673 -140.068001 
L 525.201205 -140.257292 
L 527.579737 -140.452133 
L 529.958269 -140.652496 
L 532.336802 -140.858427 
L 534.715334 -141.07004 
L 537.093866 -141.287475 
L 539.472399 -141.510872 
L 541.850931 -141.740358 
L 544.229463 -141.976021 
L 546.607996 -142.217919 
L 548.986528 -142.466086 
L 551.36506 -142.720514 
L 553.743593 -142.981136 
L 556.122125 -143.247818 
L 558.500657 -143.52035 
L 560.879189 -143.798457 
L 563.257722 -144.081828 
L 565.636254 -144.370133 
L 568.014786 -144.663039 
L 570.393319 -144.960229 
L 572.771851 -145.261413 
L 575.150383 -145.566323 
L 577.528916 -145.874705 
L 579.907448 -146.186323 
L 582.28598 -146.500943 
L 584.664513 -146.818355 
L 587.043045 -147.138382 
L 589.421577 -147.460891 
L 591.80011 -147.785817 
L 594.178642 -148.113186 
L 596.557174 -148.443122 
L 598.935706 -148.775831 
L 601.314239 -149.111609 
L 603.692771 -149.450833 
L 606.071303 -149.793935 
L 608.449836 -150.141377 
L 610.828368 -150.493615 
L 613.2069 -150.851081 
L 615.585433 -151.214185 
L 617.963965 -151.583305 
L 620.342497 -151.9588 
L 622.72103 -152.341021 
L 625.099562 -152.730318 
L 627.478094 -153.12705 
L 629.856627 -153.531604 
L 632.235159 -153.944389 
L 634.613691 -154.365827 
L 636.992223 -154.796344 
L 639.370756 -155.236361 
L 641.749288 -155.686268 
L 644.12782 -156.146419 
L 646.506353 -156.617129 
L 648.884885 -157.098668 
L 651.263417 -157.591255 
L 653.64195 -158.095053 
L 656.020482 -158.610153 
L 658.399014 -159.136588 
L 660.777547 -159.674327 
L 663.156079 -160.223273 
L 665.534611 -160.783285 
L 667.913143 -161.354172 
L 670.291676 -161.935712 
L 672.670208 -162.527661 
L 675.04874 -163.129754 
L 677.427273 -163.741739 
L 677.427273 -215.568104 
L 677.427273 -215.568104 
L 675.04874 -214.727124 
L 672.670208 -213.892252 
L 670.291676 -213.063258 
L 667.913143 -212.239889 
L 665.534611 -211.421837 
L 663.156079 -210.608762 
L 660.777547 -209.800313 
L 658.399014 -208.996116 
L 656.020482 -208.19583 
L 653.64195 -207.399175 
L 651.263417 -206.605974 
L 648.884885 -205.81622 
L 646.506353 -205.03009 
L 644.12782 -204.247958 
L 641.749288 -203.470421 
L 639.370756 -202.698273 
L 636.992223 -201.932444 
L 634.613691 -201.17397 
L 632.235159 -200.423949 
L 629.856627 -199.683513 
L 627.478094 -198.953802 
L 625.099562 -198.235928 
L 622.72103 -197.530948 
L 620.342497 -196.839854 
L 617.963965 -196.16353 
L 615.585433 -195.50276 
L 613.2069 -194.858216 
L 610.828368 -194.230459 
L 608.449836 -193.619934 
L 606.071303 -193.026977 
L 603.692771 -192.451822 
L 601.314239 -191.894614 
L 598.935706 -191.355422 
L 596.557174 -190.834221 
L 594.178642 -190.330926 
L 591.80011 -189.845405 
L 589.421577 -189.377494 
L 587.043045 -188.927044 
L 584.664513 -188.493939 
L 582.28598 -188.078078 
L 579.907448 -187.679421 
L 577.528916 -187.297981 
L 575.150383 -186.933831 
L 572.771851 -186.587106 
L 570.393319 -186.257968 
L 568.014786 -185.946569 
L 565.636254 -185.65304 
L 563.257722 -185.377433 
L 560.879189 -185.119728 
L 558.500657 -184.879793 
L 556.122125 -184.657375 
L 553.743593 -184.452141 
L 551.36506 -184.263676 
L 548.986528 -184.091537 
L 546.607996 -183.935295 
L 544.229463 -183.794552 
L 541.850931 -183.668971 
L 539.472399 -183.558292 
L 537.093866 -183.462336 
L 534.715334 -183.380976 
L 532.336802 -183.314117 
L 529.958269 -183.261686 
L 527.579737 -183.223597 
L 525.201205 -183.199727 
L 522.822673 -183.189899 
L 520.44414 -183.193862 
L 518.065608 -183.211268 
L 515.687076 -183.241669 
L 513.308543 -183.284525 
L 510.930011 -183.339213 
L 508.551479 -183.40506 
L 506.172946 -183.481374 
L 503.794414 -183.567452 
L 501.415882 -183.662621 
L 499.037349 -183.76624 
L 496.658817 -183.877722 
L 494.280285 -183.996515 
L 491.901752 -184.122081 
L 489.52322 -184.253914 
L 487.144688 -184.391518 
L 484.766156 -184.534402 
L 482.387623 -184.682102 
L 480.009091 -184.834184 
L 477.630559 -184.990244 
L 475.252026 -185.149919 
L 472.873494 -185.312902 
L 470.494962 -185.478958 
L 468.116429 -185.647941 
L 465.737897 -185.819804 
L 463.359365 -185.994584 
L 460.980832 -186.172369 
L 458.6023 -186.353281 
L 456.223768 -186.53744 
L 453.845235 -186.724902 
L 451.466703 -186.915619 
L 449.088171 -187.109405 
L 446.709639 -187.305885 
L 444.331106 -187.504467 
L 441.952574 -187.704378 
L 439.574042 -187.904669 
L 437.195509 -188.104237 
L 434.816977 -188.301858 
L 432.438445 -188.496214 
L 430.059912 -188.685989 
L 427.68138 -188.869934 
L 425.302848 -189.046924 
L 422.924315 -189.215997 
L 420.545783 -189.376359 
L 418.167251 -189.527368 
L 415.788719 -189.668504 
L 413.410186 -189.79935 
L 411.031654 -189.919575 
L 408.653122 -190.028912 
L 406.274589 -190.127155 
L 403.896057 -190.21413 
L 401.517525 -190.289665 
L 399.138992 -190.353589 
L 396.76046 -190.405707 
L 394.381928 -190.445797 
L 392.003395 -190.473607 
L 389.624863 -190.488874 
L 387.246331 -190.491331 
L 384.867798 -190.480741 
L 382.489266 -190.456911 
L 380.110734 -190.419709 
L 377.732202 -190.369058 
L 375.353669 -190.304946 
L 372.975137 -190.227404 
L 370.596605 -190.136484 
L 368.218072 -190.032235 
L 365.83954 -189.914656 
L 363.461008 -189.783676 
L 361.082475 -189.639162 
L 358.703943 -189.480922 
L 356.325411 -189.308708 
L 353.946878 -189.122219 
L 351.568346 -188.921122 
L 349.189814 -188.705068 
L 346.811281 -188.473713 
L 344.432749 -188.226722 
L 342.054217 -187.963775 
L 339.675685 -187.684595 
L 337.297152 -187.388939 
L 334.91862 -187.076635 
L 332.540088 -186.747604 
L 330.161555 -186.401849 
L 327.783023 -186.039438 
L 325.404491 -185.660506 
L 323.025958 -185.265245 
L 320.647426 -184.853906 
L 318.268894 -184.426782 
L 315.890361 -183.984215 
L 313.511829 -183.526554 
L 311.133297 -183.054157 
L 308.754765 -182.567396 
L 306.376232 -182.066648 
L 303.9977 -181.552301 
L 301.619168 -181.024713 
L 299.240635 -180.484229 
L 296.862103 -179.931196 
L 294.483571 -179.365922 
L 292.105038 -178.78867 
L 289.726506 -178.199654 
L 287.347974 -177.599049 
L 284.969441 -176.987001 
L 282.590909 -176.363578 
L 280.212377 -175.728774 
L 277.833844 -175.082546 
L 275.455312 -174.424812 
L 273.07678 -173.755426 
L 270.698248 -173.074163 
L 268.319715 -172.380721 
L 265.941183 -171.67476 
L 263.562651 -170.955929 
L 261.184118 -170.223877 
L 258.805586 -169.478275 
L 256.427054 -168.718831 
L 254.048521 -167.945246 
L 251.669989 -167.157228 
L 249.291457 -166.354494 
L 246.912924 -165.536786 
L 244.534392 -164.703857 
L 242.15586 -163.855467 
L 239.777327 -162.99137 
L 237.398795 -162.11128 
L 235.020263 -161.214881 
L 232.641731 -160.3018 
L 230.263198 -159.37162 
L 227.884666 -158.423897 
L 225.506134 -157.458153 
L 223.127601 -156.473863 
L 220.749069 -155.470454 
L 218.370537 -154.447332 
L 215.992004 -153.403897 
L 213.613472 -152.339561 
L 211.23494 -151.25379 
L 208.856407 -150.146136 
L 206.477875 -149.016234 
L 204.099343 -147.863828 
L 201.720811 -146.688774 
L 199.342278 -145.491012 
L 196.963746 -144.270586 
L 194.585214 -143.027634 
L 192.206681 -141.762361 
L 189.828149 -140.475026 
L 187.449617 -139.16591 
L 185.071084 -137.835255 
L 182.692552 -136.483228 
L 180.31402 -135.109861 
L 177.935487 -133.715036 
L 175.556955 -132.298506 
L 173.178423 -130.85992 
L 170.79989 -129.398917 
L 168.421358 -127.915161 
L 166.042826 -126.408385 
L 163.664294 -124.87841 
L 161.285761 -123.325131 
L 158.907229 -121.748538 
L 156.528697 -120.1487 
L 154.150164 -118.52575 
L 151.771632 -116.879917 
L 149.3931 -115.211493 
L 147.014567 -113.520805 
L 144.636035 -111.808202 
L 142.257503 -110.074027 
L 139.87897 -108.318567 
L 137.500438 -106.542062 
L 135.121906 -104.744681 
L 132.743373 -102.926474 
L 130.364841 -101.08742 
L 127.986309 -99.227353 
L 125.607777 -97.345998 
L 123.229244 -95.442959 
L 120.850712 -93.517761 
L 118.47218 -91.569863 
L 116.093647 -89.598686 
L 113.715115 -87.603682 
L 111.336583 -85.584362 
L 108.95805 -83.540352 
L 106.579518 -81.471474 
L 104.200986 -79.377847 
L 101.822453 -77.259946 
L 99.443921 -75.118643 
L 97.065389 -72.955234 
L 94.686857 -70.771439 
L 92.308324 -68.569373 
L 89.929792 -66.351471 
L 87.55126 -64.120428 
L 85.172727 -61.879091 
z
" style="stroke: #a52a2a; stroke-opacity: 0.1"/>
    </defs>
    <g clip-path="url(#p92c1602a2e)">
     <use xlink:href="#maecb8203d2" x="0" y="360" style="fill: #a52a2a; fill-opacity: 0.1; stroke: #a52a2a; stroke-opacity: 0.1"/>
    </g>
   </g>
   <g id="FillBetweenPolyCollection_3">
    <defs>
     <path id="mecdc2ba7eb" d="M 85.172727 -61.879091 
L 85.172727 -61.879091 
L 87.55126 -62.151869 
L 89.929792 -62.412181 
L 92.308324 -62.659652 
L 94.686857 -62.893891 
L 97.065389 -63.114533 
L 99.443921 -63.321335 
L 101.822453 -63.514273 
L 104.200986 -63.693556 
L 106.579518 -63.859578 
L 108.95805 -64.012874 
L 111.336583 -64.154085 
L 113.715115 -64.283952 
L 116.093647 -64.403332 
L 118.47218 -64.513207 
L 120.850712 -64.614659 
L 123.229244 -64.708824 
L 125.607777 -64.796829 
L 127.986309 -64.879706 
L 130.364841 -64.958364 
L 132.743373 -65.033575 
L 135.121906 -65.105964 
L 137.500438 -65.17603 
L 139.87897 -65.244169 
L 142.257503 -65.310687 
L 144.636035 -65.375824 
L 147.014567 -65.439755 
L 149.3931 -65.502578 
L 151.771632 -65.564346 
L 154.150164 -65.625031 
L 156.528697 -65.684599 
L 158.907229 -65.74301 
L 161.285761 -65.800222 
L 163.664294 -65.856171 
L 166.042826 -65.910788 
L 168.421358 -65.963959 
L 170.79989 -66.015537 
L 173.178423 -66.065376 
L 175.556955 -66.113388 
L 177.935487 -66.159607 
L 180.31402 -66.204198 
L 182.692552 -66.24743 
L 185.071084 -66.289613 
L 187.449617 -66.331035 
L 189.828149 -66.37192 
L 192.206681 -66.412422 
L 194.585214 -66.452651 
L 196.963746 -66.492698 
L 199.342278 -66.532655 
L 201.720811 -66.572635 
L 204.099343 -66.612791 
L 206.477875 -66.653315 
L 208.856407 -66.694458 
L 211.23494 -66.736525 
L 213.613472 -66.779846 
L 215.992004 -66.824732 
L 218.370537 -66.871417 
L 220.749069 -66.920009 
L 223.127601 -66.970452 
L 225.506134 -67.0225 
L 227.884666 -67.075763 
L 230.263198 -67.129732 
L 232.641731 -67.183827 
L 235.020263 -67.237449 
L 237.398795 -67.290041 
L 239.777327 -67.341122 
L 242.15586 -67.39029 
L 244.534392 -67.437227 
L 246.912924 -67.481676 
L 249.291457 -67.523413 
L 251.669989 -67.562212 
L 254.048521 -67.597825 
L 256.427054 -67.629999 
L 258.805586 -67.658521 
L 261.184118 -67.683251 
L 263.562651 -67.704141 
L 265.941183 -67.721207 
L 268.319715 -67.73452 
L 270.698248 -67.744208 
L 273.07678 -67.750475 
L 275.455312 -67.753611 
L 277.833844 -67.753975 
L 280.212377 -67.751972 
L 282.590909 -67.748004 
L 284.969441 -67.742482 
L 287.347974 -67.735823 
L 289.726506 -67.728442 
L 292.105038 -67.720711 
L 294.483571 -67.712926 
L 296.862103 -67.705248 
L 299.240635 -67.697638 
L 301.619168 -67.689815 
L 303.9977 -67.681274 
L 306.376232 -67.671379 
L 308.754765 -67.659475 
L 311.133297 -67.645036 
L 313.511829 -67.627776 
L 315.890361 -67.607702 
L 318.268894 -67.5851 
L 320.647426 -67.560479 
L 323.025958 -67.534488 
L 325.404491 -67.507836 
L 327.783023 -67.481219 
L 330.161555 -67.455261 
L 332.540088 -67.430491 
L 334.91862 -67.407362 
L 337.297152 -67.386243 
L 339.675685 -67.367466 
L 342.054217 -67.351311 
L 344.432749 -67.338005 
L 346.811281 -67.327716 
L 349.189814 -67.32051 
L 351.568346 -67.316352 
L 353.946878 -67.315038 
L 356.325411 -67.316199 
L 358.703943 -67.31931 
L 361.082475 -67.323701 
L 363.461008 -67.328632 
L 365.83954 -67.333355 
L 368.218072 -67.337175 
L 370.596605 -67.339503 
L 372.975137 -67.33987 
L 375.353669 -67.337902 
L 377.732202 -67.333269 
L 380.110734 -67.325688 
L 382.489266 -67.314912 
L 384.867798 -67.300744 
L 387.246331 -67.283062 
L 389.624863 -67.261842 
L 392.003395 -67.237194 
L 394.381928 -67.20938 
L 396.76046 -67.178836 
L 399.138992 -67.146177 
L 401.517525 -67.112155 
L 403.896057 -67.077628 
L 406.274589 -67.04352 
L 408.653122 -67.010762 
L 411.031654 -66.980224 
L 413.410186 -66.95265 
L 415.788719 -66.928621 
L 418.167251 -66.908548 
L 420.545783 -66.892683 
L 422.924315 -66.881152 
L 425.302848 -66.873989 
L 427.68138 -66.871175 
L 430.059912 -66.872643 
L 432.438445 -66.878276 
L 434.816977 -66.887887 
L 437.195509 -66.901225 
L 439.574042 -66.917948 
L 441.952574 -66.937654 
L 444.331106 -66.959938 
L 446.709639 -66.984441 
L 449.088171 -67.010921 
L 451.466703 -67.039251 
L 453.845235 -67.069365 
L 456.223768 -67.101228 
L 458.6023 -67.134768 
L 460.980832 -67.169826 
L 463.359365 -67.206149 
L 465.737897 -67.243443 
L 468.116429 -67.281489 
L 470.494962 -67.32025 
L 472.873494 -67.359956 
L 475.252026 -67.40113 
L 477.630559 -67.444554 
L 480.009091 -67.491185 
L 482.387623 -67.542029 
L 484.766156 -67.598038 
L 487.144688 -67.659998 
L 489.52322 -67.728438 
L 491.901752 -67.803571 
L 494.280285 -67.885294 
L 496.658817 -67.97328 
L 499.037349 -68.067116 
L 501.415882 -68.16643 
L 503.794414 -68.271018 
L 506.172946 -68.380888 
L 508.551479 -68.496248 
L 510.930011 -68.61742 
L 513.308543 -68.744749 
L 515.687076 -68.87849 
L 518.065608 -69.018729 
L 520.44414 -69.165322 
L 522.822673 -69.317905 
L 525.201205 -69.475908 
L 527.579737 -69.638606 
L 529.958269 -69.805162 
L 532.336802 -69.974689 
L 534.715334 -70.146336 
L 537.093866 -70.319361 
L 539.472399 -70.493176 
L 541.850931 -70.667362 
L 544.229463 -70.841623 
L 546.607996 -71.015757 
L 548.986528 -71.189607 
L 551.36506 -71.363012 
L 553.743593 -71.535786 
L 556.122125 -71.707679 
L 558.500657 -71.878354 
L 560.879189 -72.047383 
L 563.257722 -72.214281 
L 565.636254 -72.378552 
L 568.014786 -72.539747 
L 570.393319 -72.697504 
L 572.771851 -72.851601 
L 575.150383 -73.002 
L 577.528916 -73.14885 
L 579.907448 -73.292484 
L 582.28598 -73.433412 
L 584.664513 -73.572271 
L 587.043045 -73.709861 
L 589.421577 -73.847152 
L 591.80011 -73.985254 
L 594.178642 -74.125402 
L 596.557174 -74.268938 
L 598.935706 -74.417318 
L 601.314239 -74.572103 
L 603.692771 -74.73488 
L 606.071303 -74.90724 
L 608.449836 -75.090708 
L 610.828368 -75.286653 
L 613.2069 -75.496246 
L 615.585433 -75.720424 
L 617.963965 -75.959855 
L 620.342497 -76.214915 
L 622.72103 -76.485654 
L 625.099562 -76.771821 
L 627.478094 -77.072887 
L 629.856627 -77.38813 
L 632.235159 -77.716691 
L 634.613691 -78.057613 
L 636.992223 -78.409902 
L 639.370756 -78.772564 
L 641.749288 -79.1446 
L 644.12782 -79.525017 
L 646.506353 -79.91283 
L 648.884885 -80.307066 
L 651.263417 -80.706774 
L 653.64195 -81.111043 
L 656.020482 -81.519036 
L 658.399014 -81.930024 
L 660.777547 -82.343381 
L 663.156079 -82.758575 
L 665.534611 -83.175169 
L 667.913143 -83.592797 
L 670.291676 -84.011156 
L 672.670208 -84.430011 
L 675.04874 -84.8492 
L 677.427273 -85.268654 
L 677.427273 -100.663638 
L 677.427273 -100.663638 
L 675.04874 -99.774702 
L 672.670208 -98.904814 
L 670.291676 -98.054702 
L 667.913143 -97.225002 
L 665.534611 -96.4163 
L 663.156079 -95.629142 
L 660.777547 -94.864059 
L 658.399014 -94.121591 
L 656.020482 -93.402314 
L 653.64195 -92.706852 
L 651.263417 -92.035916 
L 648.884885 -91.390316 
L 646.506353 -90.770919 
L 644.12782 -90.178566 
L 641.749288 -89.614013 
L 639.370756 -89.077836 
L 636.992223 -88.570367 
L 634.613691 -88.091648 
L 632.235159 -87.641413 
L 629.856627 -87.219045 
L 627.478094 -86.823617 
L 625.099562 -86.453926 
L 622.72103 -86.108564 
L 620.342497 -85.785997 
L 617.963965 -85.484642 
L 615.585433 -85.202892 
L 613.2069 -84.939152 
L 610.828368 -84.691881 
L 608.449836 -84.459589 
L 606.071303 -84.24083 
L 603.692771 -84.034215 
L 601.314239 -83.838433 
L 598.935706 -83.652208 
L 596.557174 -83.474251 
L 594.178642 -83.303255 
L 591.80011 -83.137842 
L 589.421577 -82.976539 
L 587.043045 -82.817799 
L 584.664513 -82.659999 
L 582.28598 -82.501479 
L 579.907448 -82.340511 
L 577.528916 -82.175294 
L 575.150383 -82.004047 
L 572.771851 -81.825019 
L 570.393319 -81.636614 
L 568.014786 -81.437476 
L 565.636254 -81.226573 
L 563.257722 -81.003257 
L 560.879189 -80.767336 
L 558.500657 -80.519045 
L 556.122125 -80.259016 
L 553.743593 -79.988223 
L 551.36506 -79.707846 
L 548.986528 -79.419184 
L 546.607996 -79.123586 
L 544.229463 -78.8224 
L 541.850931 -78.517044 
L 539.472399 -78.209061 
L 537.093866 -77.900195 
L 534.715334 -77.59239 
L 532.336802 -77.287773 
L 529.958269 -76.988583 
L 527.579737 -76.6971 
L 525.201205 -76.415614 
L 522.822673 -76.146401 
L 520.44414 -75.891709 
L 518.065608 -75.653734 
L 515.687076 -75.434603 
L 513.308543 -75.236331 
L 510.930011 -75.060754 
L 508.551479 -74.909504 
L 506.172946 -74.784026 
L 503.794414 -74.685557 
L 501.415882 -74.615107 
L 499.037349 -74.573446 
L 496.658817 -74.561089 
L 494.280285 -74.578276 
L 491.901752 -74.624961 
L 489.52322 -74.700799 
L 487.144688 -74.805111 
L 484.766156 -74.936821 
L 482.387623 -75.094377 
L 480.009091 -75.27575 
L 477.630559 -75.478536 
L 475.252026 -75.700149 
L 472.873494 -75.938096 
L 470.494962 -76.190192 
L 468.116429 -76.45464 
L 465.737897 -76.730062 
L 463.359365 -77.015387 
L 460.980832 -77.309726 
L 458.6023 -77.612252 
L 456.223768 -77.922141 
L 453.845235 -78.238514 
L 451.466703 -78.560464 
L 449.088171 -78.887077 
L 446.709639 -79.217466 
L 444.331106 -79.550812 
L 441.952574 -79.886316 
L 439.574042 -80.223235 
L 437.195509 -80.560849 
L 434.816977 -80.898416 
L 432.438445 -81.235157 
L 430.059912 -81.570242 
L 427.68138 -81.902728 
L 425.302848 -82.231561 
L 422.924315 -82.555573 
L 420.545783 -82.873499 
L 418.167251 -83.184 
L 415.788719 -83.485692 
L 413.410186 -83.777149 
L 411.031654 -84.056966 
L 408.653122 -84.323783 
L 406.274589 -84.576322 
L 403.896057 -84.813435 
L 401.517525 -85.034134 
L 399.138992 -85.237623 
L 396.76046 -85.423326 
L 394.381928 -85.590854 
L 392.003395 -85.74 
L 389.624863 -85.870726 
L 387.246331 -85.983133 
L 384.867798 -86.077427 
L 382.489266 -86.153932 
L 380.110734 -86.213084 
L 377.732202 -86.255413 
L 375.353669 -86.281525 
L 372.975137 -86.292088 
L 370.596605 -86.287781 
L 368.218072 -86.269239 
L 365.83954 -86.237058 
L 363.461008 -86.191799 
L 361.082475 -86.13402 
L 358.703943 -86.064323 
L 356.325411 -85.98339 
L 353.946878 -85.892044 
L 351.568346 -85.791317 
L 349.189814 -85.682486 
L 346.811281 -85.567054 
L 344.432749 -85.44669 
L 342.054217 -85.323161 
L 339.675685 -85.198234 
L 337.297152 -85.073583 
L 334.91862 -84.950709 
L 332.540088 -84.830906 
L 330.161555 -84.715235 
L 327.783023 -84.60452 
L 325.404491 -84.499356 
L 323.025958 -84.400113 
L 320.647426 -84.306979 
L 318.268894 -84.219956 
L 315.890361 -84.138912 
L 313.511829 -84.06358 
L 311.133297 -83.993593 
L 308.754765 -83.928482 
L 306.376232 -83.867671 
L 303.9977 -83.810466 
L 301.619168 -83.756049 
L 299.240635 -83.703519 
L 296.862103 -83.65192 
L 294.483571 -83.600266 
L 292.105038 -83.547612 
L 289.726506 -83.49308 
L 287.347974 -83.435896 
L 284.969441 -83.375391 
L 282.590909 -83.310967 
L 280.212377 -83.242088 
L 277.833844 -83.168299 
L 275.455312 -83.08925 
L 273.07678 -83.004682 
L 270.698248 -82.914467 
L 268.319715 -82.818669 
L 265.941183 -82.717567 
L 263.562651 -82.611679 
L 261.184118 -82.501767 
L 258.805586 -82.388791 
L 256.427054 -82.273865 
L 254.048521 -82.158229 
L 251.669989 -82.043208 
L 249.291457 -81.930132 
L 246.912924 -81.820282 
L 244.534392 -81.714876 
L 242.15586 -81.615045 
L 239.777327 -81.521809 
L 237.398795 -81.436057 
L 235.020263 -81.35853 
L 232.641731 -81.289798 
L 230.263198 -81.230261 
L 227.884666 -81.180087 
L 225.506134 -81.139177 
L 223.127601 -81.107141 
L 220.749069 -81.083278 
L 218.370537 -81.066589 
L 215.992004 -81.05581 
L 213.613472 -81.049456 
L 211.23494 -81.045891 
L 208.856407 -81.043384 
L 206.477875 -81.040132 
L 204.099343 -81.034322 
L 201.720811 -81.024163 
L 199.342278 -81.00789 
L 196.963746 -80.983789 
L 194.585214 -80.950215 
L 192.206681 -80.90561 
L 189.828149 -80.848507 
L 187.449617 -80.777557 
L 185.071084 -80.691534 
L 182.692552 -80.589333 
L 180.31402 -80.469984 
L 177.935487 -80.332643 
L 175.556955 -80.176596 
L 173.178423 -80.001246 
L 170.79989 -79.806132 
L 168.421358 -79.590908 
L 166.042826 -79.355335 
L 163.664294 -79.099279 
L 161.285761 -78.822699 
L 158.907229 -78.525687 
L 156.528697 -78.208481 
L 154.150164 -77.871442 
L 151.771632 -77.515087 
L 149.3931 -77.140068 
L 147.014567 -76.747161 
L 144.636035 -76.337262 
L 142.257503 -75.911348 
L 139.87897 -75.47042 
L 137.500438 -75.015524 
L 135.121906 -74.547695 
L 132.743373 -74.067872 
L 130.364841 -73.576903 
L 127.986309 -73.075446 
L 125.607777 -72.563955 
L 123.229244 -72.042621 
L 120.850712 -71.51139 
L 118.47218 -70.96997 
L 116.093647 -70.417853 
L 113.715115 -69.85438 
L 111.336583 -69.278721 
L 108.95805 -68.689914 
L 106.579518 -68.086934 
L 104.200986 -67.46873 
L 101.822453 -66.834257 
L 99.443921 -66.182549 
L 97.065389 -65.512775 
L 94.686857 -64.824299 
L 92.308324 -64.116702 
L 89.929792 -63.389829 
L 87.55126 -62.643815 
L 85.172727 -61.879091 
z
" style="stroke: #000080; stroke-opacity: 0.1"/>
    </defs>
    <g clip-path="url(#p92c1602a2e)">
     <use xlink:href="#mecdc2ba7eb" x="0" y="360" style="fill: #000080; fill-opacity: 0.1; stroke: #000080; stroke-opacity: 0.1"/>
    </g>
   </g>
   <g id="FillBetweenPolyCollection_4">
    <defs>
     <path id="m7f3d172b6b" d="M 85.172727 -61.879091 
L 85.172727 -61.879091 
L 87.55126 -62.643513 
L 89.929792 -63.375053 
L 92.308324 -64.074322 
L 94.686857 -64.742047 
L 97.065389 -65.378991 
L 99.443921 -65.985976 
L 101.822453 -66.563928 
L 104.200986 -67.11389 
L 106.579518 -67.637011 
L 108.95805 -68.134524 
L 111.336583 -68.607736 
L 113.715115 -69.058036 
L 116.093647 -69.486922 
L 118.47218 -69.896034 
L 120.850712 -70.287169 
L 123.229244 -70.662258 
L 125.607777 -71.02327 
L 127.986309 -71.3721 
L 130.364841 -71.710438 
L 132.743373 -72.039678 
L 135.121906 -72.360839 
L 137.500438 -72.674564 
L 139.87897 -72.981146 
L 142.257503 -73.280583 
L 144.636035 -73.572622 
L 147.014567 -73.856812 
L 149.3931 -74.132545 
L 151.771632 -74.399109 
L 154.150164 -74.65573 
L 156.528697 -74.90161 
L 158.907229 -75.135963 
L 161.285761 -75.358034 
L 163.664294 -75.567111 
L 166.042826 -75.762551 
L 168.421358 -75.943798 
L 170.79989 -76.110388 
L 173.178423 -76.261962 
L 175.556955 -76.398245 
L 177.935487 -76.519027 
L 180.31402 -76.62412 
L 182.692552 -76.713348 
L 185.071084 -76.786565 
L 187.449617 -76.843721 
L 189.828149 -76.884914 
L 192.206681 -76.91047 
L 194.585214 -76.920972 
L 196.963746 -76.917273 
L 199.342278 -76.900483 
L 201.720811 -76.87195 
L 204.099343 -76.833207 
L 206.477875 -76.785927 
L 208.856407 -76.731874 
L 211.23494 -76.672833 
L 213.613472 -76.610551 
L 215.992004 -76.546701 
L 218.370537 -76.482848 
L 220.749069 -76.42046 
L 223.127601 -76.36093 
L 225.506134 -76.305607 
L 227.884666 -76.255831 
L 230.263198 -76.212955 
L 232.641731 -76.178331 
L 235.020263 -76.15327 
L 237.398795 -76.139009 
L 239.777327 -76.136623 
L 242.15586 -76.146956 
L 244.534392 -76.170559 
L 246.912924 -76.20764 
L 249.291457 -76.258034 
L 251.669989 -76.321184 
L 254.048521 -76.396148 
L 256.427054 -76.48166 
L 258.805586 -76.576208 
L 261.184118 -76.678126 
L 263.562651 -76.785684 
L 265.941183 -76.897196 
L 268.319715 -77.011128 
L 270.698248 -77.126133 
L 273.07678 -77.241055 
L 275.455312 -77.354911 
L 277.833844 -77.466852 
L 280.212377 -77.576142 
L 282.590909 -77.682156 
L 284.969441 -77.784374 
L 287.347974 -77.882389 
L 289.726506 -77.975939 
L 292.105038 -78.06493 
L 294.483571 -78.14945 
L 296.862103 -78.229777 
L 299.240635 -78.30637 
L 301.619168 -78.379878 
L 303.9977 -78.451158 
L 306.376232 -78.521285 
L 308.754765 -78.591564 
L 311.133297 -78.663533 
L 313.511829 -78.738932 
L 315.890361 -78.819618 
L 318.268894 -78.907466 
L 320.647426 -79.004243 
L 323.025958 -79.11149 
L 325.404491 -79.230434 
L 327.783023 -79.361928 
L 330.161555 -79.506412 
L 332.540088 -79.663872 
L 334.91862 -79.833868 
L 337.297152 -80.015572 
L 339.675685 -80.207779 
L 342.054217 -80.408952 
L 344.432749 -80.617271 
L 346.811281 -80.830686 
L 349.189814 -81.046982 
L 351.568346 -81.263834 
L 353.946878 -81.478824 
L 356.325411 -81.689497 
L 358.703943 -81.8934 
L 361.082475 -82.088103 
L 363.461008 -82.271199 
L 365.83954 -82.440344 
L 368.218072 -82.593283 
L 370.596605 -82.727879 
L 372.975137 -82.842154 
L 375.353669 -82.934357 
L 377.732202 -83.003047 
L 380.110734 -83.047158 
L 382.489266 -83.066063 
L 384.867798 -83.059624 
L 387.246331 -83.028201 
L 389.624863 -82.972639 
L 392.003395 -82.894202 
L 394.381928 -82.794474 
L 396.76046 -82.675242 
L 399.138992 -82.538372 
L 401.517525 -82.385698 
L 403.896057 -82.218952 
L 406.274589 -82.039769 
L 408.653122 -81.849687 
L 411.031654 -81.650172 
L 413.410186 -81.44264 
L 415.788719 -81.228473 
L 418.167251 -81.009004 
L 420.545783 -80.785485 
L 422.924315 -80.559091 
L 425.302848 -80.330908 
L 427.68138 -80.101937 
L 430.059912 -79.873129 
L 432.438445 -79.645401 
L 434.816977 -79.419609 
L 437.195509 -79.196542 
L 439.574042 -78.97692 
L 441.952574 -78.761387 
L 444.331106 -78.550526 
L 446.709639 -78.344857 
L 449.088171 -78.144932 
L 451.466703 -77.951397 
L 453.845235 -77.765078 
L 456.223768 -77.586988 
L 458.6023 -77.418331 
L 460.980832 -77.260488 
L 463.359365 -77.114996 
L 465.737897 -76.983419 
L 468.116429 -76.867231 
L 470.494962 -76.767682 
L 472.873494 -76.685704 
L 475.252026 -76.621863 
L 477.630559 -76.576369 
L 480.009091 -76.549117 
L 482.387623 -76.539766 
L 484.766156 -76.547845 
L 487.144688 -76.572868 
L 489.52322 -76.614458 
L 491.901752 -76.672503 
L 494.280285 -76.74731 
L 496.658817 -76.83969 
L 499.037349 -76.950977 
L 501.415882 -77.082947 
L 503.794414 -77.23766 
L 506.172946 -77.417257 
L 508.551479 -77.623753 
L 510.930011 -77.858818 
L 513.308543 -78.123595 
L 515.687076 -78.418547 
L 518.065608 -78.743338 
L 520.44414 -79.096761 
L 522.822673 -79.476728 
L 525.201205 -79.880296 
L 527.579737 -80.303719 
L 529.958269 -80.742583 
L 532.336802 -81.191948 
L 534.715334 -81.64651 
L 537.093866 -82.100769 
L 539.472399 -82.549176 
L 541.850931 -82.986277 
L 544.229463 -83.406857 
L 546.607996 -83.806076 
L 548.986528 -84.179634 
L 551.36506 -84.523923 
L 553.743593 -84.836121 
L 556.122125 -85.114245 
L 558.500657 -85.357174 
L 560.879189 -85.564622 
L 563.257722 -85.73707 
L 565.636254 -85.875669 
L 568.014786 -85.982152 
L 570.393319 -86.05875 
L 572.771851 -86.108108 
L 575.150383 -86.133224 
L 577.528916 -86.137373 
L 579.907448 -86.124054 
L 582.28598 -86.096952 
L 584.664513 -86.059872 
L 587.043045 -86.01666 
L 589.421577 -85.971156 
L 591.80011 -85.927162 
L 594.178642 -85.888383 
L 596.557174 -85.858384 
L 598.935706 -85.840551 
L 601.314239 -85.838037 
L 603.692771 -85.85371 
L 606.071303 -85.890172 
L 608.449836 -85.949755 
L 610.828368 -86.03449 
L 613.2069 -86.146112 
L 615.585433 -86.286064 
L 617.963965 -86.45551 
L 620.342497 -86.65537 
L 622.72103 -86.886346 
L 625.099562 -87.14893 
L 627.478094 -87.443424 
L 629.856627 -87.769966 
L 632.235159 -88.128524 
L 634.613691 -88.5189 
L 636.992223 -88.940768 
L 639.370756 -89.393699 
L 641.749288 -89.87719 
L 644.12782 -90.39072 
L 646.506353 -90.933756 
L 648.884885 -91.5058 
L 651.263417 -92.106402 
L 653.64195 -92.735185 
L 656.020482 -93.391858 
L 658.399014 -94.076247 
L 660.777547 -94.788301 
L 663.156079 -95.528038 
L 665.534611 -96.295489 
L 667.913143 -97.090643 
L 670.291676 -97.913458 
L 672.670208 -98.763811 
L 675.04874 -99.641379 
L 677.427273 -100.545623 
L 677.427273 -143.55795 
L 677.427273 -143.55795 
L 675.04874 -142.147147 
L 672.670208 -140.756887 
L 670.291676 -139.389748 
L 667.913143 -138.048265 
L 665.534611 -136.734874 
L 663.156079 -135.451869 
L 660.777547 -134.201341 
L 658.399014 -132.985123 
L 656.020482 -131.804785 
L 653.64195 -130.661651 
L 651.263417 -129.556836 
L 648.884885 -128.491255 
L 646.506353 -127.465607 
L 644.12782 -126.480366 
L 641.749288 -125.535753 
L 639.370756 -124.631677 
L 636.992223 -123.76769 
L 634.613691 -122.942944 
L 632.235159 -122.15616 
L 629.856627 -121.405622 
L 627.478094 -120.689181 
L 625.099562 -120.004288 
L 622.72103 -119.34807 
L 620.342497 -118.717429 
L 617.963965 -118.109092 
L 615.585433 -117.519704 
L 613.2069 -116.945885 
L 610.828368 -116.384262 
L 608.449836 -115.83146 
L 606.071303 -115.284134 
L 603.692771 -114.739001 
L 601.314239 -114.192882 
L 598.935706 -113.642773 
L 596.557174 -113.085894 
L 594.178642 -112.519749 
L 591.80011 -111.942179 
L 589.421577 -111.351393 
L 587.043045 -110.745976 
L 584.664513 -110.124911 
L 582.28598 -109.487602 
L 579.907448 -108.833867 
L 577.528916 -108.163915 
L 575.150383 -107.478383 
L 572.771851 -106.778349 
L 570.393319 -106.065318 
L 568.014786 -105.341167 
L 565.636254 -104.608124 
L 563.257722 -103.868677 
L 560.879189 -103.125524 
L 558.500657 -102.381473 
L 556.122125 -101.639308 
L 553.743593 -100.901665 
L 551.36506 -100.170931 
L 548.986528 -99.449154 
L 546.607996 -98.738004 
L 544.229463 -98.038794 
L 541.850931 -97.352529 
L 539.472399 -96.679972 
L 537.093866 -96.021712 
L 534.715334 -95.378202 
L 532.336802 -94.749792 
L 529.958269 -94.136769 
L 527.579737 -93.5394 
L 525.201205 -92.958029 
L 522.822673 -92.393151 
L 520.44414 -91.845487 
L 518.065608 -91.316047 
L 515.687076 -90.80618 
L 513.308543 -90.317597 
L 510.930011 -89.852393 
L 508.551479 -89.413075 
L 506.172946 -89.00257 
L 503.794414 -88.624204 
L 501.415882 -88.281641 
L 499.037349 -87.978749 
L 496.658817 -87.719435 
L 494.280285 -87.507403 
L 491.901752 -87.345924 
L 489.52322 -87.237639 
L 487.144688 -87.184422 
L 484.766156 -87.187326 
L 482.387623 -87.246524 
L 480.009091 -87.36136 
L 477.630559 -87.530444 
L 475.252026 -87.75178 
L 472.873494 -88.02295 
L 470.494962 -88.341323 
L 468.116429 -88.704207 
L 465.737897 -89.109008 
L 463.359365 -89.55326 
L 460.980832 -90.034646 
L 458.6023 -90.550985 
L 456.223768 -91.100141 
L 453.845235 -91.679883 
L 451.466703 -92.287821 
L 449.088171 -92.921387 
L 446.709639 -93.577756 
L 444.331106 -94.253846 
L 441.952574 -94.946412 
L 439.574042 -95.65207 
L 437.195509 -96.367296 
L 434.816977 -97.088486 
L 432.438445 -97.811954 
L 430.059912 -98.53397 
L 427.68138 -99.250887 
L 425.302848 -99.959157 
L 422.924315 -100.655338 
L 420.545783 -101.336102 
L 418.167251 -101.998283 
L 415.788719 -102.638823 
L 413.410186 -103.25481 
L 411.031654 -103.843544 
L 408.653122 -104.402506 
L 406.274589 -104.929364 
L 403.896057 -105.421995 
L 401.517525 -105.878504 
L 399.138992 -106.297233 
L 396.76046 -106.676773 
L 394.381928 -107.015989 
L 392.003395 -107.314043 
L 389.624863 -107.570414 
L 387.246331 -107.784917 
L 384.867798 -107.957724 
L 382.489266 -108.089357 
L 380.110734 -108.180673 
L 377.732202 -108.232849 
L 375.353669 -108.247339 
L 372.975137 -108.225835 
L 370.596605 -108.170217 
L 368.218072 -108.082513 
L 365.83954 -107.964846 
L 363.461008 -107.819419 
L 361.082475 -107.648479 
L 358.703943 -107.454306 
L 356.325411 -107.239232 
L 353.946878 -107.005642 
L 351.568346 -106.755972 
L 349.189814 -106.492708 
L 346.811281 -106.218383 
L 344.432749 -105.935603 
L 342.054217 -105.647009 
L 339.675685 -105.355231 
L 337.297152 -105.062858 
L 334.91862 -104.772408 
L 332.540088 -104.48629 
L 330.161555 -104.206768 
L 327.783023 -103.93589 
L 325.404491 -103.675483 
L 323.025958 -103.427143 
L 320.647426 -103.19221 
L 318.268894 -102.971741 
L 315.890361 -102.766534 
L 313.511829 -102.57712 
L 311.133297 -102.403769 
L 308.754765 -102.246481 
L 306.376232 -102.104949 
L 303.9977 -101.978565 
L 301.619168 -101.866399 
L 299.240635 -101.767223 
L 296.862103 -101.679546 
L 294.483571 -101.601693 
L 292.105038 -101.531906 
L 289.726506 -101.468424 
L 287.347974 -101.409579 
L 284.969441 -101.353864 
L 282.590909 -101.29997 
L 280.212377 -101.24679 
L 277.833844 -101.193458 
L 275.455312 -101.139346 
L 273.07678 -101.084037 
L 270.698248 -101.027324 
L 268.319715 -100.969208 
L 265.941183 -100.909867 
L 263.562651 -100.849644 
L 261.184118 -100.78899 
L 258.805586 -100.728413 
L 256.427054 -100.668446 
L 254.048521 -100.609607 
L 251.669989 -100.552417 
L 249.291457 -100.497351 
L 246.912924 -100.444814 
L 244.534392 -100.395139 
L 242.15586 -100.348594 
L 239.777327 -100.305343 
L 237.398795 -100.265427 
L 235.020263 -100.228759 
L 232.641731 -100.195123 
L 230.263198 -100.164174 
L 227.884666 -100.135412 
L 225.506134 -100.108167 
L 223.127601 -100.0816 
L 220.749069 -100.054679 
L 218.370537 -100.026176 
L 215.992004 -99.99467 
L 213.613472 -99.958576 
L 211.23494 -99.916149 
L 208.856407 -99.865497 
L 206.477875 -99.804601 
L 204.099343 -99.731343 
L 201.720811 -99.643548 
L 199.342278 -99.538976 
L 196.963746 -99.415394 
L 194.585214 -99.270636 
L 192.206681 -99.102646 
L 189.828149 -98.909504 
L 187.449617 -98.689507 
L 185.071084 -98.441185 
L 182.692552 -98.16331 
L 180.31402 -97.854895 
L 177.935487 -97.515165 
L 175.556955 -97.14358 
L 173.178423 -96.739855 
L 170.79989 -96.303952 
L 168.421358 -95.836068 
L 166.042826 -95.336659 
L 163.664294 -94.806401 
L 161.285761 -94.246161 
L 158.907229 -93.657004 
L 156.528697 -93.04017 
L 154.150164 -92.397061 
L 151.771632 -91.729216 
L 149.3931 -91.038252 
L 147.014567 -90.325834 
L 144.636035 -89.593577 
L 142.257503 -88.842941 
L 139.87897 -88.075103 
L 137.500438 -87.290839 
L 135.121906 -86.490433 
L 132.743373 -85.673594 
L 130.364841 -84.839403 
L 127.986309 -83.986276 
L 125.607777 -83.111988 
L 123.229244 -82.213656 
L 120.850712 -81.287838 
L 118.47218 -80.330602 
L 116.093647 -79.337647 
L 113.715115 -78.30452 
L 111.336583 -77.226819 
L 108.95805 -76.100462 
L 106.579518 -74.92195 
L 104.200986 -73.688639 
L 101.822453 -72.398894 
L 99.443921 -71.052214 
L 97.065389 -69.649246 
L 94.686857 -68.191729 
L 92.308324 -66.682344 
L 89.929792 -65.1245 
L 87.55126 -63.522071 
L 85.172727 -61.879091 
z
" style="stroke: #add8e6; stroke-opacity: 0.1"/>
    </defs>
    <g clip-path="url(#p92c1602a2e)">
     <use xlink:href="#m7f3d172b6b" x="0" y="360" style="fill: #add8e6; fill-opacity: 0.1; stroke: #add8e6; stroke-opacity: 0.1"/>
    </g>
   </g>
   <g id="line2d_1">
    <path d="M 85.172727 298.120909 
L 101.822453 285.325742 
L 116.093647 274.648 
L 130.364841 264.252544 
L 144.636035 254.107452 
L 156.528697 245.889296 
L 168.421358 237.950395 
L 180.31402 230.309679 
L 192.206681 222.91924 
L 206.477875 214.306218 
L 223.127601 204.526969 
L 239.777327 194.985726 
L 256.427054 185.67452 
L 273.07678 176.593039 
L 289.726506 167.739592 
L 308.754765 157.869546 
L 325.404491 149.448207 
L 339.675685 142.464551 
L 353.946878 135.747976 
L 368.218072 129.295778 
L 382.489266 123.094341 
L 396.76046 117.165953 
L 408.653122 112.449456 
L 420.545783 107.945666 
L 432.438445 103.650653 
L 446.709639 98.735996 
L 460.980832 94.053544 
L 477.630559 88.85607 
L 496.658817 83.174048 
L 522.822673 75.604179 
L 544.229463 69.611267 
L 563.257722 64.520463 
L 577.528916 60.90221 
L 591.80011 57.530513 
L 606.071303 54.420979 
L 622.72103 51.033074 
L 646.506353 46.430399 
L 665.534611 42.960705 
L 677.427273 40.939091 
L 677.427273 40.939091 
" clip-path="url(#p92c1602a2e)" style="fill: none; stroke: #000000; stroke-width: 1.5; stroke-linecap: round"/>
   </g>
   <g id="line2d_2">
    <path d="M 85.172727 298.120909 
L 97.065389 289.56222 
L 106.579518 282.969322 
L 116.093647 276.63976 
L 125.607777 270.573749 
L 135.121906 264.758617 
L 144.636035 259.1929 
L 154.150164 253.897034 
L 163.664294 248.903755 
L 173.178423 244.23591 
L 182.692552 239.889044 
L 192.206681 235.834531 
L 201.720811 232.051226 
L 211.23494 228.522787 
L 220.749069 225.228043 
L 230.263198 222.149382 
L 239.777327 219.278401 
L 249.291457 216.6094 
L 258.805586 214.137891 
L 268.319715 211.862719 
L 277.833844 209.781195 
L 289.726506 207.432599 
L 301.619168 205.326321 
L 315.890361 203.057306 
L 327.783023 201.37933 
L 339.675685 199.92545 
L 351.568346 198.717094 
L 363.461008 197.759883 
L 375.353669 197.055487 
L 387.246331 196.616684 
L 399.138992 196.442611 
L 411.031654 196.504094 
L 425.302848 196.837645 
L 446.709639 197.646376 
L 468.116429 198.392609 
L 484.766156 198.765411 
L 499.037349 198.856953 
L 510.930011 198.725211 
L 522.822673 198.37105 
L 534.715334 197.774492 
L 546.607996 196.923393 
L 556.122125 196.047403 
L 565.636254 194.988413 
L 577.528916 193.413657 
L 589.421577 191.580807 
L 601.314239 189.496888 
L 613.2069 187.145351 
L 625.099562 184.516877 
L 636.992223 181.635606 
L 648.884885 178.542556 
L 663.156079 174.583982 
L 675.04874 171.071561 
L 677.427273 170.345079 
L 677.427273 170.345079 
" clip-path="url(#p92c1602a2e)" style="fill: none; stroke: #a52a2a; stroke-width: 1.5; stroke-linecap: round"/>
   </g>
   <g id="line2d_3">
    <path d="M 85.172727 298.120909 
L 94.686857 296.140905 
L 104.200986 294.418857 
L 113.715115 292.930834 
L 125.607777 291.319608 
L 139.87897 289.642705 
L 151.771632 288.460284 
L 163.664294 287.522275 
L 175.556955 286.855008 
L 187.449617 286.445704 
L 201.720811 286.201601 
L 230.263198 285.820003 
L 249.291457 285.273227 
L 273.07678 284.622422 
L 292.105038 284.365838 
L 330.161555 283.914752 
L 372.975137 283.184021 
L 384.867798 283.310914 
L 396.76046 283.698919 
L 408.653122 284.332727 
L 430.059912 285.778557 
L 456.223768 287.488315 
L 472.873494 288.350974 
L 484.766156 288.732571 
L 494.280285 288.768215 
L 503.794414 288.521713 
L 513.308543 288.00946 
L 522.822673 287.267847 
L 537.093866 285.890222 
L 558.500657 283.801301 
L 570.393319 282.832941 
L 587.043045 281.73617 
L 603.692771 280.615453 
L 613.2069 279.782301 
L 622.72103 278.702891 
L 629.856627 277.696412 
L 636.992223 276.509866 
L 646.506353 274.658126 
L 656.020482 272.539325 
L 665.534611 270.204265 
L 677.427273 267.033854 
L 677.427273 267.033854 
" clip-path="url(#p92c1602a2e)" style="fill: none; stroke: #000080; stroke-width: 1.5; stroke-linecap: round"/>
   </g>
   <g id="line2d_4">
    <path d="M 85.172727 298.120909 
L 92.308324 294.621667 
L 97.065389 292.485881 
L 101.822453 290.518589 
L 106.579518 288.72052 
L 113.715115 286.318722 
L 120.850712 284.212496 
L 130.364841 281.725079 
L 139.87897 279.471876 
L 149.3931 277.414601 
L 158.907229 275.603516 
L 166.042826 274.450395 
L 173.178423 273.499092 
L 180.31402 272.760493 
L 187.449617 272.233386 
L 194.585214 271.904196 
L 204.099343 271.717725 
L 218.370537 271.745488 
L 237.398795 271.797782 
L 249.291457 271.622307 
L 263.562651 271.182336 
L 315.890361 269.206924 
L 325.404491 268.547042 
L 337.297152 267.460785 
L 361.082475 265.131709 
L 368.218072 264.662102 
L 375.353669 264.409152 
L 382.489266 264.42229 
L 389.624863 264.728474 
L 396.76046 265.323993 
L 403.896057 266.179527 
L 411.031654 267.253142 
L 420.545783 268.939206 
L 437.195509 272.218081 
L 449.088171 274.46684 
L 458.6023 276.015342 
L 465.737897 276.953787 
L 472.873494 277.645673 
L 480.009091 278.044761 
L 487.144688 278.121355 
L 494.280285 277.872644 
L 501.415882 277.317706 
L 508.551479 276.481586 
L 515.687076 275.387637 
L 522.822673 274.06506 
L 532.336802 272.02913 
L 558.500657 266.130677 
L 568.014786 264.33834 
L 577.528916 262.849356 
L 587.043045 261.618682 
L 613.2069 258.454002 
L 620.342497 257.3136 
L 627.478094 255.933697 
L 634.613691 254.269078 
L 641.749288 252.293528 
L 648.884885 250.001472 
L 656.020482 247.401679 
L 663.156079 244.510047 
L 670.291676 241.348397 
L 677.427273 237.948214 
L 677.427273 237.948214 
" clip-path="url(#p92c1602a2e)" style="fill: none; stroke: #add8e6; stroke-width: 1.5; stroke-linecap: round"/>
   </g>
   <g id="patch_3">
    <path d="M 55.56 310.98 
L 55.56 28.08 
" style="fill: none; stroke: #ffffff; stroke-width: 1.25; stroke-linejoin: miter; stroke-linecap: square"/>
   </g>
   <g id="patch_4">
    <path d="M 707.04 310.98 
L 707.04 28.08 
" style="fill: none; stroke: #ffffff; stroke-width: 1.25; stroke-linejoin: miter; stroke-linecap: square"/>
   </g>
   <g id="patch_5">
    <path d="M 55.56 310.98 
L 707.04 310.98 
" style="fill: none; stroke: #ffffff; stroke-width: 1.25; stroke-linejoin: miter; stroke-linecap: square"/>
   </g>
   <g id="patch_6">
    <path d="M 55.56 28.08 
L 707.04 28.08 
" style="fill: none; stroke: #ffffff; stroke-width: 1.25; stroke-linejoin: miter; stroke-linecap: square"/>
   </g>
   <g id="text_15">
    <!-- QG3L (Perturbed) - [32, 96] x [256, 384] -->
    <g style="fill: #262626" transform="translate(260.17875 22.08) scale(0.12 -0.12)">
     <defs>
      <path id="DejaVuSans-51" d="M 2522 4238 
Q 1834 4238 1429 3725 
Q 1025 3213 1025 2328 
Q 1025 1447 1429 934 
Q 1834 422 2522 422 
Q 3209 422 3611 934 
Q 4013 1447 4013 2328 
Q 4013 3213 3611 3725 
Q 3209 4238 2522 4238 
z
M 3406 84 
L 4238 -825 
L 3475 -825 
L 2784 -78 
Q 2681 -84 2626 -87 
Q 2572 -91 2522 -91 
Q 1538 -91 948 567 
Q 359 1225 359 2328 
Q 359 3434 948 4092 
Q 1538 4750 2522 4750 
Q 3503 4750 4090 4092 
Q 4678 3434 4678 2328 
Q 4678 1516 4351 937 
Q 4025 359 3406 84 
z
" transform="scale(0.015625)"/>
      <path id="DejaVuSans-47" d="M 3809 666 
L 3809 1919 
L 2778 1919 
L 2778 2438 
L 4434 2438 
L 4434 434 
Q 4069 175 3628 42 
Q 3188 -91 2688 -91 
Q 1594 -91 976 548 
Q 359 1188 359 2328 
Q 359 3472 976 4111 
Q 1594 4750 2688 4750 
Q 3144 4750 3555 4637 
Q 3966 4525 4313 4306 
L 4313 3634 
Q 3963 3931 3569 4081 
Q 3175 4231 2741 4231 
Q 1884 4231 1454 3753 
Q 1025 3275 1025 2328 
Q 1025 1384 1454 906 
Q 1884 428 2741 428 
Q 3075 428 3337 486 
Q 3600 544 3809 666 
z
" transform="scale(0.015625)"/>
      <path id="DejaVuSans-4c" d="M 628 4666 
L 1259 4666 
L 1259 531 
L 3531 531 
L 3531 0 
L 628 0 
L 628 4666 
z
" transform="scale(0.015625)"/>
      <path id="DejaVuSans-28" d="M 1984 4856 
Q 1566 4138 1362 3434 
Q 1159 2731 1159 2009 
Q 1159 1288 1364 580 
Q 1569 -128 1984 -844 
L 1484 -844 
Q 1016 -109 783 600 
Q 550 1309 550 2009 
Q 550 2706 781 3412 
Q 1013 4119 1484 4856 
L 1984 4856 
z
" transform="scale(0.015625)"/>
      <path id="DejaVuSans-50" d="M 1259 4147 
L 1259 2394 
L 2053 2394 
Q 2494 2394 2734 2622 
Q 2975 2850 2975 3272 
Q 2975 3691 2734 3919 
Q 2494 4147 2053 4147 
L 1259 4147 
z
M 628 4666 
L 2053 4666 
Q 2838 4666 3239 4311 
Q 3641 3956 3641 3272 
Q 3641 2581 3239 2228 
Q 2838 1875 2053 1875 
L 1259 1875 
L 1259 0 
L 628 0 
L 628 4666 
z
" transform="scale(0.015625)"/>
      <path id="DejaVuSans-72" d="M 2631 2963 
Q 2534 3019 2420 3045 
Q 2306 3072 2169 3072 
Q 1681 3072 1420 2755 
Q 1159 2438 1159 1844 
L 1159 0 
L 581 0 
L 581 3500 
L 1159 3500 
L 1159 2956 
Q 1341 3275 1631 3429 
Q 1922 3584 2338 3584 
Q 2397 3584 2469 3576 
Q 2541 3569 2628 3553 
L 2631 2963 
z
" transform="scale(0.015625)"/>
      <path id="DejaVuSans-74" d="M 1172 4494 
L 1172 3500 
L 2356 3500 
L 2356 3053 
L 1172 3053 
L 1172 1153 
Q 1172 725 1289 603 
Q 1406 481 1766 481 
L 2356 481 
L 2356 0 
L 1766 0 
Q 1100 0 847 248 
Q 594 497 594 1153 
L 594 3053 
L 172 3053 
L 172 3500 
L 594 3500 
L 594 4494 
L 1172 4494 
z
" transform="scale(0.015625)"/>
      <path id="DejaVuSans-75" d="M 544 1381 
L 544 3500 
L 1119 3500 
L 1119 1403 
Q 1119 906 1312 657 
Q 1506 409 1894 409 
Q 2359 409 2629 706 
Q 2900 1003 2900 1516 
L 2900 3500 
L 3475 3500 
L 3475 0 
L 2900 0 
L 2900 538 
Q 2691 219 2414 64 
Q 2138 -91 1772 -91 
Q 1169 -91 856 284 
Q 544 659 544 1381 
z
M 1991 3584 
L 1991 3584 
z
" transform="scale(0.015625)"/>
      <path id="DejaVuSans-62" d="M 3116 1747 
Q 3116 2381 2855 2742 
Q 2594 3103 2138 3103 
Q 1681 3103 1420 2742 
Q 1159 2381 1159 1747 
Q 1159 1113 1420 752 
Q 1681 391 2138 391 
Q 2594 391 2855 752 
Q 3116 1113 3116 1747 
z
M 1159 2969 
Q 1341 3281 1617 3432 
Q 1894 3584 2278 3584 
Q 2916 3584 3314 3078 
Q 3713 2572 3713 1747 
Q 3713 922 3314 415 
Q 2916 -91 2278 -91 
Q 1894 -91 1617 61 
Q 1341 213 1159 525 
L 1159 0 
L 581 0 
L 581 4863 
L 1159 4863 
L 1159 2969 
z
" transform="scale(0.015625)"/>
      <path id="DejaVuSans-29" d="M 513 4856 
L 1013 4856 
Q 1481 4119 1714 3412 
Q 1947 2706 1947 2009 
Q 1947 1309 1714 600 
Q 1481 -109 1013 -844 
L 513 -844 
Q 928 -128 1133 580 
Q 1338 1288 1338 2009 
Q 1338 2731 1133 3434 
Q 928 4138 513 4856 
z
" transform="scale(0.015625)"/>
      <path id="DejaVuSans-2d" d="M 313 2009 
L 1997 2009 
L 1997 1497 
L 313 1497 
L 313 2009 
z
" transform="scale(0.015625)"/>
      <path id="DejaVuSans-2c" d="M 750 794 
L 1409 794 
L 1409 256 
L 897 -744 
L 494 -744 
L 750 256 
L 750 794 
z
" transform="scale(0.015625)"/>
      <path id="DejaVuSans-39" d="M 703 97 
L 703 672 
Q 941 559 1184 500 
Q 1428 441 1663 441 
Q 2288 441 2617 861 
Q 2947 1281 2994 2138 
Q 2813 1869 2534 1725 
Q 2256 1581 1919 1581 
Q 1219 1581 811 2004 
Q 403 2428 403 3163 
Q 403 3881 828 4315 
Q 1253 4750 1959 4750 
Q 2769 4750 3195 4129 
Q 3622 3509 3622 2328 
Q 3622 1225 3098 567 
Q 2575 -91 1691 -91 
Q 1453 -91 1209 -44 
Q 966 3 703 97 
z
M 1959 2075 
Q 2384 2075 2632 2365 
Q 2881 2656 2881 3163 
Q 2881 3666 2632 3958 
Q 2384 4250 1959 4250 
Q 1534 4250 1286 3958 
Q 1038 3666 1038 3163 
Q 1038 2656 1286 2365 
Q 1534 2075 1959 2075 
z
" transform="scale(0.015625)"/>
      <path id="DejaVuSans-78" d="M 3513 3500 
L 2247 1797 
L 3578 0 
L 2900 0 
L 1881 1375 
L 863 0 
L 184 0 
L 1544 1831 
L 300 3500 
L 978 3500 
L 1906 2253 
L 2834 3500 
L 3513 3500 
z
" transform="scale(0.015625)"/>
      <path id="DejaVuSans-38" d="M 2034 2216 
Q 1584 2216 1326 1975 
Q 1069 1734 1069 1313 
Q 1069 891 1326 650 
Q 1584 409 2034 409 
Q 2484 409 2743 651 
Q 3003 894 3003 1313 
Q 3003 1734 2745 1975 
Q 2488 2216 2034 2216 
z
M 1403 2484 
Q 997 2584 770 2862 
Q 544 3141 544 3541 
Q 544 4100 942 4425 
Q 1341 4750 2034 4750 
Q 2731 4750 3128 4425 
Q 3525 4100 3525 3541 
Q 3525 3141 3298 2862 
Q 3072 2584 2669 2484 
Q 3125 2378 3379 2068 
Q 3634 1759 3634 1313 
Q 3634 634 3220 271 
Q 2806 -91 2034 -91 
Q 1263 -91 848 271 
Q 434 634 434 1313 
Q 434 1759 690 2068 
Q 947 2378 1403 2484 
z
M 1172 3481 
Q 1172 3119 1398 2916 
Q 1625 2713 2034 2713 
Q 2441 2713 2670 2916 
Q 2900 3119 2900 3481 
Q 2900 3844 2670 4047 
Q 2441 4250 2034 4250 
Q 1625 4250 1398 4047 
Q 1172 3844 1172 3481 
z
" transform="scale(0.015625)"/>
     </defs>
     <use xlink:href="#DejaVuSans-51"/>
     <use xlink:href="#DejaVuSans-47" transform="translate(78.710938 0)"/>
     <use xlink:href="#DejaVuSans-33" transform="translate(156.201172 0)"/>
     <use xlink:href="#DejaVuSans-4c" transform="translate(219.824219 0)"/>
     <use xlink:href="#DejaVuSans-20" transform="translate(275.537109 0)"/>
     <use xlink:href="#DejaVuSans-28" transform="translate(307.324219 0)"/>
     <use xlink:href="#DejaVuSans-50" transform="translate(346.337891 0)"/>
     <use xlink:href="#DejaVuSans-65" transform="translate(403.015625 0)"/>
     <use xlink:href="#DejaVuSans-72" transform="translate(464.539062 0)"/>
     <use xlink:href="#DejaVuSans-74" transform="translate(505.652344 0)"/>
     <use xlink:href="#DejaVuSans-75" transform="translate(544.861328 0)"/>
     <use xlink:href="#DejaVuSans-72" transform="translate(608.240234 0)"/>
     <use xlink:href="#DejaVuSans-62" transform="translate(649.353516 0)"/>
     <use xlink:href="#DejaVuSans-65" transform="translate(712.830078 0)"/>
     <use xlink:href="#DejaVuSans-64" transform="translate(774.353516 0)"/>
     <use xlink:href="#DejaVuSans-29" transform="translate(837.830078 0)"/>
     <use xlink:href="#DejaVuSans-20" transform="translate(876.84375 0)"/>
     <use xlink:href="#DejaVuSans-2d" transform="translate(908.630859 0)"/>
     <use xlink:href="#DejaVuSans-20" transform="translate(944.714844 0)"/>
     <use xlink:href="#DejaVuSans-5b" transform="translate(976.501953 0)"/>
     <use xlink:href="#DejaVuSans-33" transform="translate(1015.515625 0)"/>
     <use xlink:href="#DejaVuSans-32" transform="translate(1079.138672 0)"/>
     <use xlink:href="#DejaVuSans-2c" transform="translate(1142.761719 0)"/>
     <use xlink:href="#DejaVuSans-20" transform="translate(1174.548828 0)"/>
     <use xlink:href="#DejaVuSans-39" transform="translate(1206.335938 0)"/>
     <use xlink:href="#DejaVuSans-36" transform="translate(1269.958984 0)"/>
     <use xlink:href="#DejaVuSans-5d" transform="translate(1333.582031 0)"/>
     <use xlink:href="#DejaVuSans-20" transform="translate(1372.595703 0)"/>
     <use xlink:href="#DejaVuSans-78" transform="translate(1404.382812 0)"/>
     <use xlink:href="#DejaVuSans-20" transform="translate(1463.5625 0)"/>
     <use xlink:href="#DejaVuSans-5b" transform="translate(1495.349609 0)"/>
     <use xlink:href="#DejaVuSans-32" transform="translate(1534.363281 0)"/>
     <use xlink:href="#DejaVuSans-35" transform="translate(1597.986328 0)"/>
     <use xlink:href="#DejaVuSans-36" transform="translate(1661.609375 0)"/>
     <use xlink:href="#DejaVuSans-2c" transform="translate(1725.232422 0)"/>
     <use xlink:href="#DejaVuSans-20" transform="translate(1757.019531 0)"/>
     <use xlink:href="#DejaVuSans-33" transform="translate(1788.806641 0)"/>
     <use xlink:href="#DejaVuSans-38" transform="translate(1852.429688 0)"/>
     <use xlink:href="#DejaVuSans-34" transform="translate(1916.052734 0)"/>
     <use xlink:href="#DejaVuSans-5d" transform="translate(1979.675781 0)"/>
    </g>
   </g>
   <g id="legend_1">
    <g id="patch_7">
     <path d="M 63.26 101.46375 
L 197.121406 101.46375 
Q 199.321406 101.46375 199.321406 99.26375 
L 199.321406 35.78 
Q 199.321406 33.58 197.121406 33.58 
L 63.26 33.58 
Q 61.06 33.58 61.06 35.78 
L 61.06 99.26375 
Q 61.06 101.46375 63.26 101.46375 
z
" style="fill: #eaeaf2; opacity: 0.8; stroke: #cccccc; stroke-linejoin: miter"/>
    </g>
    <g id="line2d_5">
     <path d="M 65.46 42.488281 
L 76.46 42.488281 
L 87.46 42.488281 
" style="fill: none; stroke: #000000; stroke-width: 1.5; stroke-linecap: round"/>
    </g>
    <g id="text_16">
     <!-- Reduced Gravity -->
     <g style="fill: #262626" transform="translate(96.26 46.338281) scale(0.11 -0.11)">
      <defs>
       <path id="DejaVuSans-63" d="M 3122 3366 
L 3122 2828 
Q 2878 2963 2633 3030 
Q 2388 3097 2138 3097 
Q 1578 3097 1268 2742 
Q 959 2388 959 1747 
Q 959 1106 1268 751 
Q 1578 397 2138 397 
Q 2388 397 2633 464 
Q 2878 531 3122 666 
L 3122 134 
Q 2881 22 2623 -34 
Q 2366 -91 2075 -91 
Q 1284 -91 818 406 
Q 353 903 353 1747 
Q 353 2603 823 3093 
Q 1294 3584 2113 3584 
Q 2378 3584 2631 3529 
Q 2884 3475 3122 3366 
z
" transform="scale(0.015625)"/>
       <path id="DejaVuSans-76" d="M 191 3500 
L 800 3500 
L 1894 563 
L 2988 3500 
L 3597 3500 
L 2284 0 
L 1503 0 
L 191 3500 
z
" transform="scale(0.015625)"/>
      </defs>
      <use xlink:href="#DejaVuSans-52"/>
      <use xlink:href="#DejaVuSans-65" transform="translate(64.982422 0)"/>
      <use xlink:href="#DejaVuSans-64" transform="translate(126.505859 0)"/>
      <use xlink:href="#DejaVuSans-75" transform="translate(189.982422 0)"/>
      <use xlink:href="#DejaVuSans-63" transform="translate(253.361328 0)"/>
      <use xlink:href="#DejaVuSans-65" transform="translate(308.341797 0)"/>
      <use xlink:href="#DejaVuSans-64" transform="translate(369.865234 0)"/>
      <use xlink:href="#DejaVuSans-20" transform="translate(433.341797 0)"/>
      <use xlink:href="#DejaVuSans-47" transform="translate(465.128906 0)"/>
      <use xlink:href="#DejaVuSans-72" transform="translate(542.619141 0)"/>
      <use xlink:href="#DejaVuSans-61" transform="translate(583.732422 0)"/>
      <use xlink:href="#DejaVuSans-76" transform="translate(645.011719 0)"/>
      <use xlink:href="#DejaVuSans-69" transform="translate(704.191406 0)"/>
      <use xlink:href="#DejaVuSans-74" transform="translate(731.974609 0)"/>
      <use xlink:href="#DejaVuSans-79" transform="translate(771.183594 0)"/>
     </g>
    </g>
    <g id="line2d_6">
     <path d="M 65.46 58.634219 
L 76.46 58.634219 
L 87.46 58.634219 
" style="fill: none; stroke: #a52a2a; stroke-width: 1.5; stroke-linecap: round"/>
    </g>
    <g id="text_17">
     <!-- VarDyn -->
     <g style="fill: #262626" transform="translate(96.26 62.484219) scale(0.11 -0.11)">
      <defs>
       <path id="DejaVuSans-56" d="M 1831 0 
L 50 4666 
L 709 4666 
L 2188 738 
L 3669 4666 
L 4325 4666 
L 2547 0 
L 1831 0 
z
" transform="scale(0.015625)"/>
       <path id="DejaVuSans-44" d="M 1259 4147 
L 1259 519 
L 2022 519 
Q 2988 519 3436 956 
Q 3884 1394 3884 2338 
Q 3884 3275 3436 3711 
Q 2988 4147 2022 4147 
L 1259 4147 
z
M 628 4666 
L 1925 4666 
Q 3281 4666 3915 4102 
Q 4550 3538 4550 2338 
Q 4550 1131 3912 565 
Q 3275 0 1925 0 
L 628 0 
L 628 4666 
z
" transform="scale(0.015625)"/>
      </defs>
      <use xlink:href="#DejaVuSans-56"/>
      <use xlink:href="#DejaVuSans-61" transform="translate(60.658203 0)"/>
      <use xlink:href="#DejaVuSans-72" transform="translate(121.9375 0)"/>
      <use xlink:href="#DejaVuSans-44" transform="translate(163.050781 0)"/>
      <use xlink:href="#DejaVuSans-79" transform="translate(240.052734 0)"/>
      <use xlink:href="#DejaVuSans-6e" transform="translate(299.232422 0)"/>
     </g>
    </g>
    <g id="line2d_7">
     <path d="M 65.46 74.780156 
L 76.46 74.780156 
L 87.46 74.780156 
" style="fill: none; stroke: #000080; stroke-width: 1.5; stroke-linecap: round"/>
    </g>
    <g id="text_18">
     <!-- SurfML -->
     <g style="fill: #262626" transform="translate(96.26 78.630156) scale(0.11 -0.11)">
      <defs>
       <path id="DejaVuSans-66" d="M 2375 4863 
L 2375 4384 
L 1825 4384 
Q 1516 4384 1395 4259 
Q 1275 4134 1275 3809 
L 1275 3500 
L 2222 3500 
L 2222 3053 
L 1275 3053 
L 1275 0 
L 697 0 
L 697 3053 
L 147 3053 
L 147 3500 
L 697 3500 
L 697 3744 
Q 697 4328 969 4595 
Q 1241 4863 1831 4863 
L 2375 4863 
z
" transform="scale(0.015625)"/>
      </defs>
      <use xlink:href="#DejaVuSans-53"/>
      <use xlink:href="#DejaVuSans-75" transform="translate(63.476562 0)"/>
      <use xlink:href="#DejaVuSans-72" transform="translate(126.855469 0)"/>
      <use xlink:href="#DejaVuSans-66" transform="translate(167.96875 0)"/>
      <use xlink:href="#DejaVuSans-4d" transform="translate(203.173828 0)"/>
      <use xlink:href="#DejaVuSans-4c" transform="translate(289.453125 0)"/>
     </g>
    </g>
    <g id="line2d_8">
     <path d="M 65.46 90.926094 
L 76.46 90.926094 
L 87.46 90.926094 
" style="fill: none; stroke: #add8e6; stroke-width: 1.5; stroke-linecap: round"/>
    </g>
    <g id="text_19">
     <!-- SurfML - No Alpha -->
     <g style="fill: #262626" transform="translate(96.26 94.776094) scale(0.11 -0.11)">
      <defs>
       <path id="DejaVuSans-4e" d="M 628 4666 
L 1478 4666 
L 3547 763 
L 3547 4666 
L 4159 4666 
L 4159 0 
L 3309 0 
L 1241 3903 
L 1241 0 
L 628 0 
L 628 4666 
z
" transform="scale(0.015625)"/>
       <path id="DejaVuSans-6f" d="M 1959 3097 
Q 1497 3097 1228 2736 
Q 959 2375 959 1747 
Q 959 1119 1226 758 
Q 1494 397 1959 397 
Q 2419 397 2687 759 
Q 2956 1122 2956 1747 
Q 2956 2369 2687 2733 
Q 2419 3097 1959 3097 
z
M 1959 3584 
Q 2709 3584 3137 3096 
Q 3566 2609 3566 1747 
Q 3566 888 3137 398 
Q 2709 -91 1959 -91 
Q 1206 -91 779 398 
Q 353 888 353 1747 
Q 353 2609 779 3096 
Q 1206 3584 1959 3584 
z
" transform="scale(0.015625)"/>
       <path id="DejaVuSans-41" d="M 2188 4044 
L 1331 1722 
L 3047 1722 
L 2188 4044 
z
M 1831 4666 
L 2547 4666 
L 4325 0 
L 3669 0 
L 3244 1197 
L 1141 1197 
L 716 0 
L 50 0 
L 1831 4666 
z
" transform="scale(0.015625)"/>
       <path id="DejaVuSans-6c" d="M 603 4863 
L 1178 4863 
L 1178 0 
L 603 0 
L 603 4863 
z
" transform="scale(0.015625)"/>
       <path id="DejaVuSans-70" d="M 1159 525 
L 1159 -1331 
L 581 -1331 
L 581 3500 
L 1159 3500 
L 1159 2969 
Q 1341 3281 1617 3432 
Q 1894 3584 2278 3584 
Q 2916 3584 3314 3078 
Q 3713 2572 3713 1747 
Q 3713 922 3314 415 
Q 2916 -91 2278 -91 
Q 1894 -91 1617 61 
Q 1341 213 1159 525 
z
M 3116 1747 
Q 3116 2381 2855 2742 
Q 2594 3103 2138 3103 
Q 1681 3103 1420 2742 
Q 1159 2381 1159 1747 
Q 1159 1113 1420 752 
Q 1681 391 2138 391 
Q 2594 391 2855 752 
Q 3116 1113 3116 1747 
z
" transform="scale(0.015625)"/>
       <path id="DejaVuSans-68" d="M 3513 2113 
L 3513 0 
L 2938 0 
L 2938 2094 
Q 2938 2591 2744 2837 
Q 2550 3084 2163 3084 
Q 1697 3084 1428 2787 
Q 1159 2491 1159 1978 
L 1159 0 
L 581 0 
L 581 4863 
L 1159 4863 
L 1159 2956 
Q 1366 3272 1645 3428 
Q 1925 3584 2291 3584 
Q 2894 3584 3203 3211 
Q 3513 2838 3513 2113 
z
" transform="scale(0.015625)"/>
      </defs>
      <use xlink:href="#DejaVuSans-53"/>
      <use xlink:href="#DejaVuSans-75" transform="translate(63.476562 0)"/>
      <use xlink:href="#DejaVuSans-72" transform="translate(126.855469 0)"/>
      <use xlink:href="#DejaVuSans-66" transform="translate(167.96875 0)"/>
      <use xlink:href="#DejaVuSans-4d" transform="translate(203.173828 0)"/>
      <use xlink:href="#DejaVuSans-4c" transform="translate(289.453125 0)"/>
      <use xlink:href="#DejaVuSans-20" transform="translate(345.166016 0)"/>
      <use xlink:href="#DejaVuSans-2d" transform="translate(376.953125 0)"/>
      <use xlink:href="#DejaVuSans-20" transform="translate(413.037109 0)"/>
      <use xlink:href="#DejaVuSans-4e" transform="translate(444.824219 0)"/>
      <use xlink:href="#DejaVuSans-6f" transform="translate(519.628906 0)"/>
      <use xlink:href="#DejaVuSans-20" transform="translate(580.810547 0)"/>
      <use xlink:href="#DejaVuSans-41" transform="translate(612.597656 0)"/>
      <use xlink:href="#DejaVuSans-6c" transform="translate(681.005859 0)"/>
      <use xlink:href="#DejaVuSans-70" transform="translate(708.789062 0)"/>
      <use xlink:href="#DejaVuSans-68" transform="translate(772.265625 0)"/>
      <use xlink:href="#DejaVuSans-61" transform="translate(835.644531 0)"/>
     </g>
    </g>
   </g>
  </g>
 </g>
 <defs>
  <clipPath id="p92c1602a2e">
   <rect x="55.56" y="28.08" width="651.48" height="282.9"/>
  </clipPath>
 </defs>
</svg>
