<?xml version="1.0" encoding="utf-8" standalone="no"?>
<!DOCTYPE svg PUBLIC "-//W3C//DTD SVG 1.1//EN"
  "http://www.w3.org/Graphics/SVG/1.1/DTD/svg11.dtd">
<svg xmlns:xlink="http://www.w3.org/1999/xlink" width="720pt" height="360pt" viewBox="0 0 720 360" xmlns="http://www.w3.org/2000/svg" version="1.1">
 <metadata>
  <rdf:RDF xmlns:dc="http://purl.org/dc/elements/1.1/" xmlns:cc="http://creativecommons.org/ns#" xmlns:rdf="http://www.w3.org/1999/02/22-rdf-syntax-ns#">
   <cc:Work>
    <dc:type rdf:resource="http://purl.org/dc/dcmitype/StillImage"/>
    <dc:date>2026-03-19T16:12:29.486408</dc:date>
    <dc:format>image/svg+xml</dc:format>
    <dc:creator>
     <cc:Agent>
      <dc:title>Matplotlib v3.10.6, https://matplotlib.org/</dc:title>
     </cc:Agent>
    </dc:creator>
   </cc:Work>
  </rdf:RDF>
 </metadata>
 <defs>
  <style type="text/css">*{stroke-linejoin: round; stroke-linecap: butt}</style>
 </defs>
 <g id="figure_1">
  <g id="patch_1">
   <path d="M 0 360 
L 720 360 
L 720 0 
L 0 0 
z
" style="fill: #ffffff"/>
  </g>
  <g id="axes_1">
   <g id="patch_2">
    <path d="M 62.58 310.98 
L 707.04 310.98 
L 707.04 28.08 
L 62.58 28.08 
z
" style="fill: #eaeaf2"/>
   </g>
   <g id="matplotlib.axis_1">
    <g id="xtick_1">
     <g id="text_1">
      <!-- 0 -->
      <g style="fill: #262626" transform="translate(88.374261 328.838281) scale(0.11 -0.11)">
       <defs>
        <path id="DejaVuSans-30" d="M 2034 4250 
Q 1547 4250 1301 3770 
Q 1056 3291 1056 2328 
Q 1056 1369 1301 889 
Q 1547 409 2034 409 
Q 2525 409 2770 889 
Q 3016 1369 3016 2328 
Q 3016 3291 2770 3770 
Q 2525 4250 2034 4250 
z
M 2034 4750 
Q 2819 4750 3233 4129 
Q 3647 3509 3647 2328 
Q 3647 1150 3233 529 
Q 2819 -91 2034 -91 
Q 1250 -91 836 529 
Q 422 1150 422 2328 
Q 422 3509 836 4129 
Q 1250 4750 2034 4750 
z
" transform="scale(0.015625)"/>
       </defs>
       <use xlink:href="#DejaVuSans-30"/>
      </g>
     </g>
    </g>
    <g id="xtick_2">
     <g id="text_2">
      <!-- 5 -->
      <g style="fill: #262626" transform="translate(229.548413 328.838281) scale(0.11 -0.11)">
       <defs>
        <path id="DejaVuSans-35" d="M 691 4666 
L 3169 4666 
L 3169 4134 
L 1269 4134 
L 1269 2991 
Q 1406 3038 1543 3061 
Q 1681 3084 1819 3084 
Q 2600 3084 3056 2656 
Q 3513 2228 3513 1497 
Q 3513 744 3044 326 
Q 2575 -91 1722 -91 
Q 1428 -91 1123 -41 
Q 819 9 494 109 
L 494 744 
Q 775 591 1075 516 
Q 1375 441 1709 441 
Q 2250 441 2565 725 
Q 2881 1009 2881 1497 
Q 2881 1984 2565 2268 
Q 2250 2553 1709 2553 
Q 1456 2553 1204 2497 
Q 953 2441 691 2322 
L 691 4666 
z
" transform="scale(0.015625)"/>
       </defs>
       <use xlink:href="#DejaVuSans-35"/>
      </g>
     </g>
    </g>
    <g id="xtick_3">
     <g id="text_3">
      <!-- 10 -->
      <g style="fill: #262626" transform="translate(367.223189 328.838281) scale(0.11 -0.11)">
       <defs>
        <path id="DejaVuSans-31" d="M 794 531 
L 1825 531 
L 1825 4091 
L 703 3866 
L 703 4441 
L 1819 4666 
L 2450 4666 
L 2450 531 
L 3481 531 
L 3481 0 
L 794 0 
L 794 531 
z
" transform="scale(0.015625)"/>
       </defs>
       <use xlink:href="#DejaVuSans-31"/>
       <use xlink:href="#DejaVuSans-30" transform="translate(63.623047 0)"/>
      </g>
     </g>
    </g>
    <g id="xtick_4">
     <g id="text_4">
      <!-- 15 -->
      <g style="fill: #262626" transform="translate(508.39734 328.838281) scale(0.11 -0.11)">
       <use xlink:href="#DejaVuSans-31"/>
       <use xlink:href="#DejaVuSans-35" transform="translate(63.623047 0)"/>
      </g>
     </g>
    </g>
    <g id="xtick_5">
     <g id="text_5">
      <!-- 20 -->
      <g style="fill: #262626" transform="translate(649.571491 328.838281) scale(0.11 -0.11)">
       <defs>
        <path id="DejaVuSans-32" d="M 1228 531 
L 3431 531 
L 3431 0 
L 469 0 
L 469 531 
Q 828 903 1448 1529 
Q 2069 2156 2228 2338 
Q 2531 2678 2651 2914 
Q 2772 3150 2772 3378 
Q 2772 3750 2511 3984 
Q 2250 4219 1831 4219 
Q 1534 4219 1204 4116 
Q 875 4013 500 3803 
L 500 4441 
Q 881 4594 1212 4672 
Q 1544 4750 1819 4750 
Q 2544 4750 2975 4387 
Q 3406 4025 3406 3419 
Q 3406 3131 3298 2873 
Q 3191 2616 2906 2266 
Q 2828 2175 2409 1742 
Q 1991 1309 1228 531 
z
" transform="scale(0.015625)"/>
       </defs>
       <use xlink:href="#DejaVuSans-32"/>
       <use xlink:href="#DejaVuSans-30" transform="translate(63.623047 0)"/>
      </g>
     </g>
    </g>
    <g id="text_6">
     <!-- Time [days] -->
     <g style="fill: #262626" transform="translate(349.378125 344.244062) scale(0.12 -0.12)">
      <defs>
       <path id="DejaVuSans-54" d="M -19 4666 
L 3928 4666 
L 3928 4134 
L 2272 4134 
L 2272 0 
L 1638 0 
L 1638 4134 
L -19 4134 
L -19 4666 
z
" transform="scale(0.015625)"/>
       <path id="DejaVuSans-69" d="M 603 3500 
L 1178 3500 
L 1178 0 
L 603 0 
L 603 3500 
z
M 603 4863 
L 1178 4863 
L 1178 4134 
L 603 4134 
L 603 4863 
z
" transform="scale(0.015625)"/>
       <path id="DejaVuSans-6d" d="M 3328 2828 
Q 3544 3216 3844 3400 
Q 4144 3584 4550 3584 
Q 5097 3584 5394 3201 
Q 5691 2819 5691 2113 
L 5691 0 
L 5113 0 
L 5113 2094 
Q 5113 2597 4934 2840 
Q 4756 3084 4391 3084 
Q 3944 3084 3684 2787 
Q 3425 2491 3425 1978 
L 3425 0 
L 2847 0 
L 2847 2094 
Q 2847 2600 2669 2842 
Q 2491 3084 2119 3084 
Q 1678 3084 1418 2786 
Q 1159 2488 1159 1978 
L 1159 0 
L 581 0 
L 581 3500 
L 1159 3500 
L 1159 2956 
Q 1356 3278 1631 3431 
Q 1906 3584 2284 3584 
Q 2666 3584 2933 3390 
Q 3200 3197 3328 2828 
z
" transform="scale(0.015625)"/>
       <path id="DejaVuSans-65" d="M 3597 1894 
L 3597 1613 
L 953 1613 
Q 991 1019 1311 708 
Q 1631 397 2203 397 
Q 2534 397 2845 478 
Q 3156 559 3463 722 
L 3463 178 
Q 3153 47 2828 -22 
Q 2503 -91 2169 -91 
Q 1331 -91 842 396 
Q 353 884 353 1716 
Q 353 2575 817 3079 
Q 1281 3584 2069 3584 
Q 2775 3584 3186 3129 
Q 3597 2675 3597 1894 
z
M 3022 2063 
Q 3016 2534 2758 2815 
Q 2500 3097 2075 3097 
Q 1594 3097 1305 2825 
Q 1016 2553 972 2059 
L 3022 2063 
z
" transform="scale(0.015625)"/>
       <path id="DejaVuSans-20" transform="scale(0.015625)"/>
       <path id="DejaVuSans-5b" d="M 550 4863 
L 1875 4863 
L 1875 4416 
L 1125 4416 
L 1125 -397 
L 1875 -397 
L 1875 -844 
L 550 -844 
L 550 4863 
z
" transform="scale(0.015625)"/>
       <path id="DejaVuSans-64" d="M 2906 2969 
L 2906 4863 
L 3481 4863 
L 3481 0 
L 2906 0 
L 2906 525 
Q 2725 213 2448 61 
Q 2172 -91 1784 -91 
Q 1150 -91 751 415 
Q 353 922 353 1747 
Q 353 2572 751 3078 
Q 1150 3584 1784 3584 
Q 2172 3584 2448 3432 
Q 2725 3281 2906 2969 
z
M 947 1747 
Q 947 1113 1208 752 
Q 1469 391 1925 391 
Q 2381 391 2643 752 
Q 2906 1113 2906 1747 
Q 2906 2381 2643 2742 
Q 2381 3103 1925 3103 
Q 1469 3103 1208 2742 
Q 947 2381 947 1747 
z
" transform="scale(0.015625)"/>
       <path id="DejaVuSans-61" d="M 2194 1759 
Q 1497 1759 1228 1600 
Q 959 1441 959 1056 
Q 959 750 1161 570 
Q 1363 391 1709 391 
Q 2188 391 2477 730 
Q 2766 1069 2766 1631 
L 2766 1759 
L 2194 1759 
z
M 3341 1997 
L 3341 0 
L 2766 0 
L 2766 531 
Q 2569 213 2275 61 
Q 1981 -91 1556 -91 
Q 1019 -91 701 211 
Q 384 513 384 1019 
Q 384 1609 779 1909 
Q 1175 2209 1959 2209 
L 2766 2209 
L 2766 2266 
Q 2766 2663 2505 2880 
Q 2244 3097 1772 3097 
Q 1472 3097 1187 3025 
Q 903 2953 641 2809 
L 641 3341 
Q 956 3463 1253 3523 
Q 1550 3584 1831 3584 
Q 2591 3584 2966 3190 
Q 3341 2797 3341 1997 
z
" transform="scale(0.015625)"/>
       <path id="DejaVuSans-79" d="M 2059 -325 
Q 1816 -950 1584 -1140 
Q 1353 -1331 966 -1331 
L 506 -1331 
L 506 -850 
L 844 -850 
Q 1081 -850 1212 -737 
Q 1344 -625 1503 -206 
L 1606 56 
L 191 3500 
L 800 3500 
L 1894 763 
L 2988 3500 
L 3597 3500 
L 2059 -325 
z
" transform="scale(0.015625)"/>
       <path id="DejaVuSans-73" d="M 2834 3397 
L 2834 2853 
Q 2591 2978 2328 3040 
Q 2066 3103 1784 3103 
Q 1356 3103 1142 2972 
Q 928 2841 928 2578 
Q 928 2378 1081 2264 
Q 1234 2150 1697 2047 
L 1894 2003 
Q 2506 1872 2764 1633 
Q 3022 1394 3022 966 
Q 3022 478 2636 193 
Q 2250 -91 1575 -91 
Q 1294 -91 989 -36 
Q 684 19 347 128 
L 347 722 
Q 666 556 975 473 
Q 1284 391 1588 391 
Q 1994 391 2212 530 
Q 2431 669 2431 922 
Q 2431 1156 2273 1281 
Q 2116 1406 1581 1522 
L 1381 1569 
Q 847 1681 609 1914 
Q 372 2147 372 2553 
Q 372 3047 722 3315 
Q 1072 3584 1716 3584 
Q 2034 3584 2315 3537 
Q 2597 3491 2834 3397 
z
" transform="scale(0.015625)"/>
       <path id="DejaVuSans-5d" d="M 1947 4863 
L 1947 -844 
L 622 -844 
L 622 -397 
L 1369 -397 
L 1369 4416 
L 622 4416 
L 622 4863 
L 1947 4863 
z
" transform="scale(0.015625)"/>
      </defs>
      <use xlink:href="#DejaVuSans-54"/>
      <use xlink:href="#DejaVuSans-69" transform="translate(57.958984 0)"/>
      <use xlink:href="#DejaVuSans-6d" transform="translate(85.742188 0)"/>
      <use xlink:href="#DejaVuSans-65" transform="translate(183.154297 0)"/>
      <use xlink:href="#DejaVuSans-20" transform="translate(244.677734 0)"/>
      <use xlink:href="#DejaVuSans-5b" transform="translate(276.464844 0)"/>
      <use xlink:href="#DejaVuSans-64" transform="translate(315.478516 0)"/>
      <use xlink:href="#DejaVuSans-61" transform="translate(378.955078 0)"/>
      <use xlink:href="#DejaVuSans-79" transform="translate(440.234375 0)"/>
      <use xlink:href="#DejaVuSans-73" transform="translate(499.414062 0)"/>
      <use xlink:href="#DejaVuSans-5d" transform="translate(551.513672 0)"/>
     </g>
    </g>
   </g>
   <g id="matplotlib.axis_2">
    <g id="ytick_1">
     <g id="text_7">
      <!-- 0.00 -->
      <g style="fill: #262626" transform="translate(28.587812 302.30005) scale(0.11 -0.11)">
       <defs>
        <path id="DejaVuSans-2e" d="M 684 794 
L 1344 794 
L 1344 0 
L 684 0 
L 684 794 
z
" transform="scale(0.015625)"/>
       </defs>
       <use xlink:href="#DejaVuSans-30"/>
       <use xlink:href="#DejaVuSans-2e" transform="translate(63.623047 0)"/>
       <use xlink:href="#DejaVuSans-30" transform="translate(95.410156 0)"/>
       <use xlink:href="#DejaVuSans-30" transform="translate(159.033203 0)"/>
      </g>
     </g>
    </g>
    <g id="ytick_2">
     <g id="text_8">
      <!-- 0.05 -->
      <g style="fill: #262626" transform="translate(28.587812 253.325241) scale(0.11 -0.11)">
       <use xlink:href="#DejaVuSans-30"/>
       <use xlink:href="#DejaVuSans-2e" transform="translate(63.623047 0)"/>
       <use xlink:href="#DejaVuSans-30" transform="translate(95.410156 0)"/>
       <use xlink:href="#DejaVuSans-35" transform="translate(159.033203 0)"/>
      </g>
     </g>
    </g>
    <g id="ytick_3">
     <g id="text_9">
      <!-- 0.10 -->
      <g style="fill: #262626" transform="translate(28.587812 204.350432) scale(0.11 -0.11)">
       <use xlink:href="#DejaVuSans-30"/>
       <use xlink:href="#DejaVuSans-2e" transform="translate(63.623047 0)"/>
       <use xlink:href="#DejaVuSans-31" transform="translate(95.410156 0)"/>
       <use xlink:href="#DejaVuSans-30" transform="translate(159.033203 0)"/>
      </g>
     </g>
    </g>
    <g id="ytick_4">
     <g id="text_10">
      <!-- 0.15 -->
      <g style="fill: #262626" transform="translate(28.587812 155.375623) scale(0.11 -0.11)">
       <use xlink:href="#DejaVuSans-30"/>
       <use xlink:href="#DejaVuSans-2e" transform="translate(63.623047 0)"/>
       <use xlink:href="#DejaVuSans-31" transform="translate(95.410156 0)"/>
       <use xlink:href="#DejaVuSans-35" transform="translate(159.033203 0)"/>
      </g>
     </g>
    </g>
    <g id="ytick_5">
     <g id="text_11">
      <!-- 0.20 -->
      <g style="fill: #262626" transform="translate(28.587812 106.400815) scale(0.11 -0.11)">
       <use xlink:href="#DejaVuSans-30"/>
       <use xlink:href="#DejaVuSans-2e" transform="translate(63.623047 0)"/>
       <use xlink:href="#DejaVuSans-32" transform="translate(95.410156 0)"/>
       <use xlink:href="#DejaVuSans-30" transform="translate(159.033203 0)"/>
      </g>
     </g>
    </g>
    <g id="ytick_6">
     <g id="text_12">
      <!-- 0.25 -->
      <g style="fill: #262626" transform="translate(28.587812 57.426006) scale(0.11 -0.11)">
       <use xlink:href="#DejaVuSans-30"/>
       <use xlink:href="#DejaVuSans-2e" transform="translate(63.623047 0)"/>
       <use xlink:href="#DejaVuSans-32" transform="translate(95.410156 0)"/>
       <use xlink:href="#DejaVuSans-35" transform="translate(159.033203 0)"/>
      </g>
     </g>
    </g>
    <g id="text_13">
     <!-- nRMSE -->
     <g style="fill: #262626" transform="translate(22.092187 190.27875) rotate(-90) scale(0.12 -0.12)">
      <defs>
       <path id="DejaVuSans-6e" d="M 3513 2113 
L 3513 0 
L 2938 0 
L 2938 2094 
Q 2938 2591 2744 2837 
Q 2550 3084 2163 3084 
Q 1697 3084 1428 2787 
Q 1159 2491 1159 1978 
L 1159 0 
L 581 0 
L 581 3500 
L 1159 3500 
L 1159 2956 
Q 1366 3272 1645 3428 
Q 1925 3584 2291 3584 
Q 2894 3584 3203 3211 
Q 3513 2838 3513 2113 
z
" transform="scale(0.015625)"/>
       <path id="DejaVuSans-52" d="M 2841 2188 
Q 3044 2119 3236 1894 
Q 3428 1669 3622 1275 
L 4263 0 
L 3584 0 
L 2988 1197 
Q 2756 1666 2539 1819 
Q 2322 1972 1947 1972 
L 1259 1972 
L 1259 0 
L 628 0 
L 628 4666 
L 2053 4666 
Q 2853 4666 3247 4331 
Q 3641 3997 3641 3322 
Q 3641 2881 3436 2590 
Q 3231 2300 2841 2188 
z
M 1259 4147 
L 1259 2491 
L 2053 2491 
Q 2509 2491 2742 2702 
Q 2975 2913 2975 3322 
Q 2975 3731 2742 3939 
Q 2509 4147 2053 4147 
L 1259 4147 
z
" transform="scale(0.015625)"/>
       <path id="DejaVuSans-4d" d="M 628 4666 
L 1569 4666 
L 2759 1491 
L 3956 4666 
L 4897 4666 
L 4897 0 
L 4281 0 
L 4281 4097 
L 3078 897 
L 2444 897 
L 1241 4097 
L 1241 0 
L 628 0 
L 628 4666 
z
" transform="scale(0.015625)"/>
       <path id="DejaVuSans-53" d="M 3425 4513 
L 3425 3897 
Q 3066 4069 2747 4153 
Q 2428 4238 2131 4238 
Q 1616 4238 1336 4038 
Q 1056 3838 1056 3469 
Q 1056 3159 1242 3001 
Q 1428 2844 1947 2747 
L 2328 2669 
Q 3034 2534 3370 2195 
Q 3706 1856 3706 1288 
Q 3706 609 3251 259 
Q 2797 -91 1919 -91 
Q 1588 -91 1214 -16 
Q 841 59 441 206 
L 441 856 
Q 825 641 1194 531 
Q 1563 422 1919 422 
Q 2459 422 2753 634 
Q 3047 847 3047 1241 
Q 3047 1584 2836 1778 
Q 2625 1972 2144 2069 
L 1759 2144 
Q 1053 2284 737 2584 
Q 422 2884 422 3419 
Q 422 4038 858 4394 
Q 1294 4750 2059 4750 
Q 2388 4750 2728 4690 
Q 3069 4631 3425 4513 
z
" transform="scale(0.015625)"/>
       <path id="DejaVuSans-45" d="M 628 4666 
L 3578 4666 
L 3578 4134 
L 1259 4134 
L 1259 2753 
L 3481 2753 
L 3481 2222 
L 1259 2222 
L 1259 531 
L 3634 531 
L 3634 0 
L 628 0 
L 628 4666 
z
" transform="scale(0.015625)"/>
      </defs>
      <use xlink:href="#DejaVuSans-6e"/>
      <use xlink:href="#DejaVuSans-52" transform="translate(63.378906 0)"/>
      <use xlink:href="#DejaVuSans-4d" transform="translate(132.861328 0)"/>
      <use xlink:href="#DejaVuSans-53" transform="translate(219.140625 0)"/>
      <use xlink:href="#DejaVuSans-45" transform="translate(282.617188 0)"/>
     </g>
    </g>
   </g>
   <g id="FillBetweenPolyCollection_1">
    <defs>
     <path id="me5746011d4" d="M 91.873636 -61.879091 
L 91.873636 -61.879091 
L 94.226539 -63.066207 
L 96.579441 -64.252656 
L 98.932344 -65.4384 
L 101.285246 -66.623399 
L 103.638149 -67.807611 
L 105.991051 -68.990993 
L 108.343954 -70.173506 
L 110.696857 -71.355119 
L 113.049759 -72.535803 
L 115.402662 -73.715528 
L 117.755564 -74.894263 
L 120.108467 -76.071978 
L 122.461369 -77.248644 
L 124.814272 -78.424222 
L 127.167174 -79.598674 
L 129.520077 -80.771962 
L 131.872979 -81.944051 
L 134.225882 -83.11491 
L 136.578784 -84.284507 
L 138.931687 -85.452811 
L 141.284589 -86.619797 
L 143.637492 -87.785447 
L 145.990394 -88.949746 
L 148.343297 -90.11268 
L 150.696199 -91.274228 
L 153.049102 -92.434375 
L 155.402004 -93.593106 
L 157.754907 -94.750407 
L 160.107809 -95.906257 
L 162.460712 -97.060638 
L 164.813614 -98.213532 
L 167.166517 -99.364916 
L 169.519419 -100.514762 
L 171.872322 -101.663046 
L 174.225225 -102.809744 
L 176.578127 -103.954836 
L 178.93103 -105.098298 
L 181.283932 -106.240112 
L 183.636835 -107.380262 
L 185.989737 -108.518727 
L 188.34264 -109.655491 
L 190.695542 -110.790537 
L 193.048445 -111.923857 
L 195.401347 -113.055445 
L 197.75425 -114.185296 
L 200.107152 -115.313411 
L 202.460055 -116.439789 
L 204.812957 -117.564432 
L 207.16586 -118.687335 
L 209.518762 -119.808489 
L 211.871665 -120.927888 
L 214.224567 -122.04553 
L 216.57747 -123.161413 
L 218.930372 -124.275542 
L 221.283275 -125.38792 
L 223.636177 -126.498547 
L 225.98908 -127.607418 
L 228.341982 -128.714538 
L 230.694885 -129.819915 
L 233.047788 -130.923561 
L 235.40069 -132.025488 
L 237.753593 -133.125711 
L 240.106495 -134.224246 
L 242.459398 -135.321111 
L 244.8123 -136.416328 
L 247.165203 -137.509931 
L 249.518105 -138.601959 
L 251.871008 -139.692448 
L 254.22391 -140.781431 
L 256.576813 -141.868946 
L 258.929715 -142.955032 
L 261.282618 -144.039737 
L 263.63552 -145.123109 
L 265.988423 -146.205197 
L 268.341325 -147.286053 
L 270.694228 -148.365716 
L 273.04713 -149.444228 
L 275.400033 -150.521636 
L 277.752935 -151.59798 
L 280.105838 -152.673309 
L 282.45874 -153.747673 
L 284.811643 -154.821104 
L 287.164545 -155.89363 
L 289.517448 -156.965286 
L 291.87035 -158.036108 
L 294.223253 -159.106136 
L 296.576156 -160.175402 
L 298.929058 -161.243945 
L 301.281961 -162.3118 
L 303.634863 -163.378995 
L 305.987766 -164.445557 
L 308.340668 -165.51152 
L 310.693571 -166.576923 
L 313.046473 -167.641809 
L 315.399376 -168.70622 
L 317.752278 -169.770195 
L 320.105181 -170.833774 
L 322.458083 -171.896989 
L 324.810986 -172.959869 
L 327.163888 -174.022448 
L 329.516791 -175.084764 
L 331.869693 -176.146861 
L 334.222596 -177.208787 
L 336.575498 -178.270583 
L 338.928401 -179.332269 
L 341.281303 -180.393853 
L 343.634206 -181.455333 
L 345.987108 -182.516706 
L 348.340011 -183.577974 
L 350.692913 -184.639145 
L 353.045816 -185.700216 
L 355.398719 -186.761185 
L 357.751621 -187.822046 
L 360.104524 -188.882786 
L 362.457426 -189.943381 
L 364.810329 -191.003799 
L 367.163231 -192.064005 
L 369.516134 -193.123967 
L 371.869036 -194.183681 
L 374.221939 -195.243137 
L 376.574841 -196.302312 
L 378.927744 -197.361196 
L 381.280646 -198.419783 
L 383.633549 -199.478073 
L 385.986451 -200.536053 
L 388.339354 -201.59369 
L 390.692256 -202.650946 
L 393.045159 -203.707789 
L 395.398061 -204.76418 
L 397.750964 -205.820057 
L 400.103866 -206.875353 
L 402.456769 -207.93001 
L 404.809671 -208.983968 
L 407.162574 -210.037151 
L 409.515476 -211.089462 
L 411.868379 -212.140801 
L 414.221281 -213.191052 
L 416.574184 -214.240108 
L 418.927087 -215.287855 
L 421.279989 -216.334189 
L 423.632892 -217.379008 
L 425.985794 -218.422225 
L 428.338697 -219.463743 
L 430.691599 -220.503449 
L 433.044502 -221.541227 
L 435.397404 -222.576957 
L 437.750307 -223.610519 
L 440.103209 -224.641806 
L 442.456112 -225.670715 
L 444.809014 -226.697169 
L 447.161917 -227.721098 
L 449.514819 -228.742433 
L 451.867722 -229.761082 
L 454.220624 -230.776924 
L 456.573527 -231.78982 
L 458.926429 -232.799616 
L 461.279332 -233.806155 
L 463.632234 -234.80929 
L 465.985137 -235.808877 
L 468.338039 -236.804788 
L 470.690942 -237.796898 
L 473.043844 -238.78506 
L 475.396747 -239.769107 
L 477.74965 -240.748852 
L 480.102552 -241.724085 
L 482.455455 -242.694598 
L 484.808357 -243.660199 
L 487.16126 -244.620709 
L 489.514162 -245.575976 
L 491.867065 -246.525876 
L 494.219967 -247.470293 
L 496.57287 -248.409089 
L 498.925772 -249.342102 
L 501.278675 -250.269156 
L 503.631577 -251.190071 
L 505.98448 -252.10466 
L 508.337382 -253.012743 
L 510.690285 -253.914162 
L 513.043187 -254.80877 
L 515.39609 -255.69644 
L 517.748992 -256.577058 
L 520.101895 -257.45052 
L 522.454797 -258.316703 
L 524.8077 -259.175464 
L 527.160602 -260.026663 
L 529.513505 -260.870162 
L 531.866407 -261.705822 
L 534.21931 -262.533516 
L 536.572212 -263.353133 
L 538.925115 -264.164566 
L 541.278018 -264.967714 
L 543.63092 -265.762491 
L 545.983823 -266.548818 
L 548.336725 -267.326617 
L 550.689628 -268.0958 
L 553.04253 -268.856272 
L 555.395433 -269.607932 
L 557.748335 -270.35068 
L 560.101238 -271.084423 
L 562.45414 -271.809071 
L 564.807043 -272.524541 
L 567.159945 -273.230765 
L 569.512848 -273.927697 
L 571.86575 -274.615313 
L 574.218653 -275.293604 
L 576.571555 -275.962566 
L 578.924458 -276.622185 
L 581.27736 -277.272442 
L 583.630263 -277.913321 
L 585.983165 -278.544798 
L 588.336068 -279.166852 
L 590.68897 -279.779474 
L 593.041873 -280.382661 
L 595.394775 -280.976414 
L 597.747678 -281.560748 
L 600.100581 -282.135688 
L 602.453483 -282.701275 
L 604.806386 -283.257565 
L 607.159288 -283.804616 
L 609.512191 -284.342482 
L 611.865093 -284.87122 
L 614.217996 -285.390885 
L 616.570898 -285.901533 
L 618.923801 -286.403216 
L 621.276703 -286.895988 
L 623.629606 -287.379904 
L 625.982508 -287.855017 
L 628.335411 -288.321381 
L 630.688313 -288.779047 
L 633.041216 -289.228074 
L 635.394118 -289.668535 
L 637.747021 -290.100512 
L 640.099923 -290.524096 
L 642.452826 -290.939375 
L 644.805728 -291.346431 
L 647.158631 -291.745336 
L 649.511533 -292.136155 
L 651.864436 -292.518947 
L 654.217338 -292.893773 
L 656.570241 -293.260695 
L 658.923143 -293.61977 
L 661.276046 -293.971056 
L 663.628949 -294.314606 
L 665.981851 -294.650471 
L 668.334754 -294.978703 
L 670.687656 -295.299351 
L 673.040559 -295.612469 
L 675.393461 -295.918108 
L 677.746364 -296.216313 
L 677.746364 -341.905505 
L 677.746364 -341.905505 
L 675.393461 -342.156526 
L 673.040559 -342.40117 
L 670.687656 -342.639206 
L 668.334754 -342.870409 
L 665.981851 -343.094546 
L 663.628949 -343.311376 
L 661.276046 -343.520651 
L 658.923143 -343.722129 
L 656.570241 -343.915582 
L 654.217338 -344.100792 
L 651.864436 -344.277544 
L 649.511533 -344.445632 
L 647.158631 -344.604844 
L 644.805728 -344.754976 
L 642.452826 -344.895829 
L 640.099923 -345.027215 
L 637.747021 -345.148957 
L 635.394118 -345.260879 
L 633.041216 -345.362804 
L 630.688313 -345.454557 
L 628.335411 -345.53597 
L 625.982508 -345.606869 
L 623.629606 -345.66709 
L 621.276703 -345.716487 
L 618.923801 -345.754928 
L 616.570898 -345.782273 
L 614.217996 -345.798378 
L 611.865093 -345.803098 
L 609.512191 -345.796285 
L 607.159288 -345.777804 
L 604.806386 -345.747527 
L 602.453483 -345.705334 
L 600.100581 -345.65113 
L 597.747678 -345.584849 
L 595.394775 -345.506403 
L 593.041873 -345.415686 
L 590.68897 -345.312594 
L 588.336068 -345.197025 
L 585.983165 -345.068882 
L 583.630263 -344.928061 
L 581.27736 -344.774465 
L 578.924458 -344.607984 
L 576.571555 -344.428537 
L 574.218653 -344.236026 
L 571.86575 -344.030355 
L 569.512848 -343.811431 
L 567.159945 -343.579172 
L 564.807043 -343.333488 
L 562.45414 -343.074303 
L 560.101238 -342.801525 
L 557.748335 -342.515075 
L 555.395433 -342.214873 
L 553.04253 -341.900826 
L 550.689628 -341.57284 
L 548.336725 -341.230803 
L 545.983823 -340.874602 
L 543.63092 -340.504155 
L 541.278018 -340.119371 
L 538.925115 -339.720175 
L 536.572212 -339.306479 
L 534.21931 -338.878177 
L 531.866407 -338.435165 
L 529.513505 -337.97733 
L 527.160602 -337.504548 
L 524.8077 -337.016702 
L 522.454797 -336.513676 
L 520.101895 -335.995339 
L 517.748992 -335.461581 
L 515.39609 -334.912312 
L 513.043187 -334.347432 
L 510.690285 -333.766844 
L 508.337382 -333.170456 
L 505.98448 -332.558166 
L 503.631577 -331.929874 
L 501.278675 -331.285494 
L 498.925772 -330.624947 
L 496.57287 -329.948155 
L 494.219967 -329.255044 
L 491.867065 -328.545538 
L 489.514162 -327.819574 
L 487.16126 -327.077044 
L 484.808357 -326.317884 
L 482.455455 -325.542042 
L 480.102552 -324.749471 
L 477.74965 -323.940126 
L 475.396747 -323.113965 
L 473.043844 -322.270915 
L 470.690942 -321.410951 
L 468.338039 -320.534041 
L 465.985137 -319.640163 
L 463.632234 -318.729307 
L 461.279332 -317.801451 
L 458.926429 -316.856572 
L 456.573527 -315.894662 
L 454.220624 -314.915713 
L 451.867722 -313.919715 
L 449.514819 -312.90666 
L 447.161917 -311.876525 
L 444.809014 -310.829315 
L 442.456112 -309.765039 
L 440.103209 -308.683713 
L 437.750307 -307.585358 
L 435.397404 -306.469992 
L 433.044502 -305.337666 
L 430.691599 -304.18844 
L 428.338697 -303.022376 
L 425.985794 -301.839542 
L 423.632892 -300.640021 
L 421.279989 -299.423916 
L 418.927087 -298.191337 
L 416.574184 -296.9424 
L 414.221281 -295.677237 
L 411.868379 -294.39599 
L 409.515476 -293.098812 
L 407.162574 -291.785849 
L 404.809671 -290.457251 
L 402.456769 -289.113183 
L 400.103866 -287.753818 
L 397.750964 -286.379342 
L 395.398061 -284.989945 
L 393.045159 -283.585821 
L 390.692256 -282.167163 
L 388.339354 -280.734165 
L 385.986451 -279.287026 
L 383.633549 -277.825948 
L 381.280646 -276.351141 
L 378.927744 -274.86282 
L 376.574841 -273.361211 
L 374.221939 -271.846548 
L 371.869036 -270.319073 
L 369.516134 -268.779021 
L 367.163231 -267.226643 
L 364.810329 -265.662195 
L 362.457426 -264.085937 
L 360.104524 -262.498133 
L 357.751621 -260.899053 
L 355.398719 -259.288967 
L 353.045816 -257.66815 
L 350.692913 -256.036877 
L 348.340011 -254.395423 
L 345.987108 -252.74406 
L 343.634206 -251.083067 
L 341.281303 -249.412722 
L 338.928401 -247.733296 
L 336.575498 -246.045054 
L 334.222596 -244.348261 
L 331.869693 -242.64318 
L 329.516791 -240.930073 
L 327.163888 -239.2092 
L 324.810986 -237.480819 
L 322.458083 -235.74518 
L 320.105181 -234.00253 
L 317.752278 -232.253116 
L 315.399376 -230.497182 
L 313.046473 -228.734975 
L 310.693571 -226.966725 
L 308.340668 -225.192666 
L 305.987766 -223.413036 
L 303.634863 -221.628073 
L 301.281961 -219.838014 
L 298.929058 -218.043087 
L 296.576156 -216.243524 
L 294.223253 -214.439551 
L 291.87035 -212.631391 
L 289.517448 -210.81926 
L 287.164545 -209.003379 
L 284.811643 -207.183972 
L 282.45874 -205.361261 
L 280.105838 -203.535468 
L 277.752935 -201.70681 
L 275.400033 -199.8755 
L 273.04713 -198.041751 
L 270.694228 -196.205777 
L 268.341325 -194.367799 
L 265.988423 -192.528032 
L 263.63552 -190.686686 
L 261.282618 -188.843966 
L 258.929715 -187.000077 
L 256.576813 -185.155218 
L 254.22391 -183.309588 
L 251.871008 -181.463389 
L 249.518105 -179.616817 
L 247.165203 -177.770056 
L 244.8123 -175.923288 
L 242.459398 -174.076691 
L 240.106495 -172.230442 
L 237.753593 -170.384716 
L 235.40069 -168.539697 
L 233.047788 -166.695565 
L 230.694885 -164.852494 
L 228.341982 -163.010655 
L 225.98908 -161.17022 
L 223.636177 -159.33136 
L 221.283275 -157.494244 
L 218.930372 -155.659039 
L 216.57747 -153.82591 
L 214.224567 -151.995021 
L 211.871665 -150.166526 
L 209.518762 -148.340576 
L 207.16586 -146.517326 
L 204.812957 -144.696913 
L 202.460055 -142.879469 
L 200.107152 -141.06513 
L 197.75425 -139.254032 
L 195.401347 -137.446304 
L 193.048445 -135.642066 
L 190.695542 -133.84143 
L 188.34264 -132.04449 
L 185.989737 -130.251338 
L 183.636835 -128.462062 
L 181.283932 -126.676742 
L 178.93103 -124.895453 
L 176.578127 -123.118272 
L 174.225225 -121.345263 
L 171.872322 -119.576482 
L 169.519419 -117.811979 
L 167.166517 -116.05179 
L 164.813614 -114.295952 
L 162.460712 -112.544491 
L 160.107809 -110.797424 
L 157.754907 -109.054759 
L 155.402004 -107.316491 
L 153.049102 -105.58261 
L 150.696199 -103.853097 
L 148.343297 -102.127926 
L 145.990394 -100.407064 
L 143.637492 -98.690476 
L 141.284589 -96.978128 
L 138.931687 -95.269979 
L 136.578784 -93.565995 
L 134.225882 -91.866135 
L 131.872979 -90.170355 
L 129.520077 -88.478586 
L 127.167174 -86.790751 
L 124.814272 -85.106775 
L 122.461369 -83.426573 
L 120.108467 -81.750059 
L 117.755564 -80.077139 
L 115.402662 -78.407715 
L 113.049759 -76.741681 
L 110.696857 -75.07893 
L 108.343954 -73.419347 
L 105.991051 -71.762809 
L 103.638149 -70.109178 
L 101.285246 -68.458306 
L 98.932344 -66.810033 
L 96.579441 -65.164191 
L 94.226539 -63.520604 
L 91.873636 -61.879091 
z
" style="stroke: #000000; stroke-opacity: 0.1"/>
    </defs>
    <g clip-path="url(#pcd43d1deb3)">
     <use xlink:href="#me5746011d4" x="0" y="360" style="fill-opacity: 0.1; stroke: #000000; stroke-opacity: 0.1"/>
    </g>
   </g>
   <g id="FillBetweenPolyCollection_2">
    <defs>
     <path id="m1564420241" d="M 91.873636 -61.879091 
L 91.873636 -61.879091 
L 94.226539 -62.906815 
L 96.579441 -63.928138 
L 98.932344 -64.943009 
L 101.285246 -65.951374 
L 103.638149 -66.953175 
L 105.991051 -67.948352 
L 108.343954 -68.936852 
L 110.696857 -69.91863 
L 113.049759 -70.893649 
L 115.402662 -71.861871 
L 117.755564 -72.823257 
L 120.108467 -73.777774 
L 122.461369 -74.725386 
L 124.814272 -75.666056 
L 127.167174 -76.599747 
L 129.520077 -77.526424 
L 131.872979 -78.446058 
L 134.225882 -79.358623 
L 136.578784 -80.264091 
L 138.931687 -81.162438 
L 141.284589 -82.053642 
L 143.637492 -82.937698 
L 145.990394 -83.8146 
L 148.343297 -84.684346 
L 150.696199 -85.546927 
L 153.049102 -86.402346 
L 155.402004 -87.250604 
L 157.754907 -88.091705 
L 160.107809 -88.925648 
L 162.460712 -89.752435 
L 164.813614 -90.572073 
L 167.166517 -91.384563 
L 169.519419 -92.189903 
L 171.872322 -92.988094 
L 174.225225 -93.779138 
L 176.578127 -94.563044 
L 178.93103 -95.339815 
L 181.283932 -96.109464 
L 183.636835 -96.872003 
L 185.989737 -97.627448 
L 188.34264 -98.375811 
L 190.695542 -99.117112 
L 193.048445 -99.851377 
L 195.401347 -100.578638 
L 197.75425 -101.29893 
L 200.107152 -102.012294 
L 202.460055 -102.718775 
L 204.812957 -103.41842 
L 207.16586 -104.111272 
L 209.518762 -104.797372 
L 211.871665 -105.476767 
L 214.224567 -106.14951 
L 216.57747 -106.815662 
L 218.930372 -107.475289 
L 221.283275 -108.128457 
L 223.636177 -108.775232 
L 225.98908 -109.415679 
L 228.341982 -110.049872 
L 230.694885 -110.677896 
L 233.047788 -111.299837 
L 235.40069 -111.915786 
L 237.753593 -112.525834 
L 240.106495 -113.130079 
L 242.459398 -113.728618 
L 244.8123 -114.321557 
L 247.165203 -114.909012 
L 249.518105 -115.49111 
L 251.871008 -116.067971 
L 254.22391 -116.639718 
L 256.576813 -117.206476 
L 258.929715 -117.768379 
L 261.282618 -118.325565 
L 263.63552 -118.878179 
L 265.988423 -119.42637 
L 268.341325 -119.970288 
L 270.694228 -120.510075 
L 273.04713 -121.045874 
L 275.400033 -121.577839 
L 277.752935 -122.106116 
L 280.105838 -122.630864 
L 282.45874 -123.152248 
L 284.811643 -123.670411 
L 287.164545 -124.185499 
L 289.517448 -124.69766 
L 291.87035 -125.20705 
L 294.223253 -125.713827 
L 296.576156 -126.21814 
L 298.929058 -126.720144 
L 301.281961 -127.220001 
L 303.634863 -127.71786 
L 305.987766 -128.213873 
L 308.340668 -128.708202 
L 310.693571 -129.201013 
L 313.046473 -129.692481 
L 315.399376 -130.182779 
L 317.752278 -130.672079 
L 320.105181 -131.160555 
L 322.458083 -131.648377 
L 324.810986 -132.135706 
L 327.163888 -132.622711 
L 329.516791 -133.109567 
L 331.869693 -133.596456 
L 334.222596 -134.083564 
L 336.575498 -134.571072 
L 338.928401 -135.059143 
L 341.281303 -135.547925 
L 343.634206 -136.037555 
L 345.987108 -136.528172 
L 348.340011 -137.01992 
L 350.692913 -137.512954 
L 353.045816 -138.007413 
L 355.398719 -138.503439 
L 357.751621 -139.001174 
L 360.104524 -139.500751 
L 362.457426 -140.002292 
L 364.810329 -140.505907 
L 367.163231 -141.011704 
L 369.516134 -141.519793 
L 371.869036 -142.030315 
L 374.221939 -142.543402 
L 376.574841 -143.059174 
L 378.927744 -143.577762 
L 381.280646 -144.099302 
L 383.633549 -144.623937 
L 385.986451 -145.151794 
L 388.339354 -145.682975 
L 390.692256 -146.217577 
L 393.045159 -146.755704 
L 395.398061 -147.297445 
L 397.750964 -147.842869 
L 400.103866 -148.39203 
L 402.456769 -148.945001 
L 404.809671 -149.501845 
L 407.162574 -150.062607 
L 409.515476 -150.627307 
L 411.868379 -151.195956 
L 414.221281 -151.768548 
L 416.574184 -152.345079 
L 418.927087 -152.92554 
L 421.279989 -153.509928 
L 423.632892 -154.098243 
L 425.985794 -154.690501 
L 428.338697 -155.286704 
L 430.691599 -155.886829 
L 433.044502 -156.49085 
L 435.397404 -157.098729 
L 437.750307 -157.710426 
L 440.103209 -158.325915 
L 442.456112 -158.945171 
L 444.809014 -159.568193 
L 447.161917 -160.194988 
L 449.514819 -160.825565 
L 451.867722 -161.459895 
L 454.220624 -162.097916 
L 456.573527 -162.739534 
L 458.926429 -163.384636 
L 461.279332 -164.0331 
L 463.632234 -164.68481 
L 465.985137 -165.339647 
L 468.338039 -165.99751 
L 470.690942 -166.658292 
L 473.043844 -167.321854 
L 475.396747 -167.988022 
L 477.74965 -168.656596 
L 480.102552 -169.327341 
L 482.455455 -170.000016 
L 484.808357 -170.674392 
L 487.16126 -171.350254 
L 489.514162 -172.027407 
L 491.867065 -172.705693 
L 494.219967 -173.384962 
L 496.57287 -174.065024 
L 498.925772 -174.745654 
L 501.278675 -175.426602 
L 503.631577 -176.107603 
L 505.98448 -176.78838 
L 508.337382 -177.468659 
L 510.690285 -178.148189 
L 513.043187 -178.826728 
L 515.39609 -179.504056 
L 517.748992 -180.179964 
L 520.101895 -180.854248 
L 522.454797 -181.526682 
L 524.8077 -182.197005 
L 527.160602 -182.864956 
L 529.513505 -183.53028 
L 531.866407 -184.192712 
L 534.21931 -184.852001 
L 536.572212 -185.507914 
L 538.925115 -186.160219 
L 541.278018 -186.808687 
L 543.63092 -187.453112 
L 545.983823 -188.093291 
L 548.336725 -188.729023 
L 550.689628 -189.360097 
L 553.04253 -189.986286 
L 555.395433 -190.607356 
L 557.748335 -191.223079 
L 560.101238 -191.833233 
L 562.45414 -192.437602 
L 564.807043 -193.035979 
L 567.159945 -193.628181 
L 569.512848 -194.214055 
L 571.86575 -194.793484 
L 574.218653 -195.366375 
L 576.571555 -195.932643 
L 578.924458 -196.492193 
L 581.27736 -197.044924 
L 583.630263 -197.590754 
L 585.983165 -198.129591 
L 588.336068 -198.661351 
L 590.68897 -199.185978 
L 593.041873 -199.703421 
L 595.394775 -200.213648 
L 597.747678 -200.716647 
L 600.100581 -201.212432 
L 602.453483 -201.701048 
L 604.806386 -202.182564 
L 607.159288 -202.657073 
L 609.512191 -203.124664 
L 611.865093 -203.58543 
L 614.217996 -204.039482 
L 616.570898 -204.486931 
L 618.923801 -204.927889 
L 621.276703 -205.362485 
L 623.629606 -205.790854 
L 625.982508 -206.213144 
L 628.335411 -206.629505 
L 630.688313 -207.040095 
L 633.041216 -207.44509 
L 635.394118 -207.844688 
L 637.747021 -208.239106 
L 640.099923 -208.628567 
L 642.452826 -209.0133 
L 644.805728 -209.393521 
L 647.158631 -209.769439 
L 649.511533 -210.141255 
L 651.864436 -210.509164 
L 654.217338 -210.873361 
L 656.570241 -211.234042 
L 658.923143 -211.591398 
L 661.276046 -211.94561 
L 663.628949 -212.296845 
L 665.981851 -212.645264 
L 668.334754 -212.991021 
L 670.687656 -213.334263 
L 673.040559 -213.675125 
L 675.393461 -214.013736 
L 677.746364 -214.350204 
L 677.746364 -250.163731 
L 677.746364 -250.163731 
L 675.393461 -250.115169 
L 673.040559 -250.075597 
L 670.687656 -250.044762 
L 668.334754 -250.022412 
L 665.981851 -250.008291 
L 663.628949 -250.00214 
L 661.276046 -250.003696 
L 658.923143 -250.012705 
L 656.570241 -250.028925 
L 654.217338 -250.052119 
L 651.864436 -250.08205 
L 649.511533 -250.11849 
L 647.158631 -250.161201 
L 644.805728 -250.209952 
L 642.452826 -250.264513 
L 640.099923 -250.324655 
L 637.747021 -250.390153 
L 635.394118 -250.460775 
L 633.041216 -250.536288 
L 630.688313 -250.616456 
L 628.335411 -250.701031 
L 625.982508 -250.789754 
L 623.629606 -250.882364 
L 621.276703 -250.97861 
L 618.923801 -251.078237 
L 616.570898 -251.180978 
L 614.217996 -251.286555 
L 611.865093 -251.394674 
L 609.512191 -251.505036 
L 607.159288 -251.617333 
L 604.806386 -251.731264 
L 602.453483 -251.84652 
L 600.100581 -251.962807 
L 597.747678 -252.07985 
L 595.394775 -252.197345 
L 593.041873 -252.314966 
L 590.68897 -252.43238 
L 588.336068 -252.549243 
L 585.983165 -252.665211 
L 583.630263 -252.779925 
L 581.27736 -252.893029 
L 578.924458 -253.004153 
L 576.571555 -253.112953 
L 574.218653 -253.219065 
L 571.86575 -253.322127 
L 569.512848 -253.421782 
L 567.159945 -253.517674 
L 564.807043 -253.609443 
L 562.45414 -253.696736 
L 560.101238 -253.779187 
L 557.748335 -253.856445 
L 555.395433 -253.928156 
L 553.04253 -253.993961 
L 550.689628 -254.053498 
L 548.336725 -254.106399 
L 545.983823 -254.152296 
L 543.63092 -254.190849 
L 541.278018 -254.221715 
L 538.925115 -254.24457 
L 536.572212 -254.259084 
L 534.21931 -254.26491 
L 531.866407 -254.261712 
L 529.513505 -254.249151 
L 527.160602 -254.226882 
L 524.8077 -254.19457 
L 522.454797 -254.151885 
L 520.101895 -254.098496 
L 517.748992 -254.034095 
L 515.39609 -253.958396 
L 513.043187 -253.871108 
L 510.690285 -253.771948 
L 508.337382 -253.660645 
L 505.98448 -253.536922 
L 503.631577 -253.400509 
L 501.278675 -253.251155 
L 498.925772 -253.088624 
L 496.57287 -252.912687 
L 494.219967 -252.723125 
L 491.867065 -252.519718 
L 489.514162 -252.302269 
L 487.16126 -252.070533 
L 484.808357 -251.824317 
L 482.455455 -251.563444 
L 480.102552 -251.28774 
L 477.74965 -250.997033 
L 475.396747 -250.691166 
L 473.043844 -250.369954 
L 470.690942 -250.033262 
L 468.338039 -249.680956 
L 465.985137 -249.312915 
L 463.632234 -248.929029 
L 461.279332 -248.529184 
L 458.926429 -248.11327 
L 456.573527 -247.681192 
L 454.220624 -247.232863 
L 451.867722 -246.768195 
L 449.514819 -246.287101 
L 447.161917 -245.789496 
L 444.809014 -245.275323 
L 442.456112 -244.744533 
L 440.103209 -244.197085 
L 437.750307 -243.632948 
L 435.397404 -243.052088 
L 433.044502 -242.454507 
L 430.691599 -241.840215 
L 428.338697 -241.209228 
L 425.985794 -240.561572 
L 423.632892 -239.89729 
L 421.279989 -239.216443 
L 418.927087 -238.519096 
L 416.574184 -237.805327 
L 414.221281 -237.075235 
L 411.868379 -236.328927 
L 409.515476 -235.566522 
L 407.162574 -234.788138 
L 404.809671 -233.993901 
L 402.456769 -233.183954 
L 400.103866 -232.358454 
L 397.750964 -231.517569 
L 395.398061 -230.661475 
L 393.045159 -229.790355 
L 390.692256 -228.904394 
L 388.339354 -228.003777 
L 385.986451 -227.088696 
L 383.633549 -226.159349 
L 381.280646 -225.215938 
L 378.927744 -224.258673 
L 376.574841 -223.287772 
L 374.221939 -222.303467 
L 371.869036 -221.305988 
L 369.516134 -220.295568 
L 367.163231 -219.272444 
L 364.810329 -218.236865 
L 362.457426 -217.189076 
L 360.104524 -216.129327 
L 357.751621 -215.057872 
L 355.398719 -213.974963 
L 353.045816 -212.880858 
L 350.692913 -211.775815 
L 348.340011 -210.660089 
L 345.987108 -209.533938 
L 343.634206 -208.397625 
L 341.281303 -207.251413 
L 338.928401 -206.095553 
L 336.575498 -204.930299 
L 334.222596 -203.755902 
L 331.869693 -202.572611 
L 329.516791 -201.380676 
L 327.163888 -200.180342 
L 324.810986 -198.971854 
L 322.458083 -197.755446 
L 320.105181 -196.531346 
L 317.752278 -195.299783 
L 315.399376 -194.060984 
L 313.046473 -192.815174 
L 310.693571 -191.562565 
L 308.340668 -190.303369 
L 305.987766 -189.037797 
L 303.634863 -187.766063 
L 301.281961 -186.488376 
L 298.929058 -185.204934 
L 296.576156 -183.915938 
L 294.223253 -182.62158 
L 291.87035 -181.322048 
L 289.517448 -180.01752 
L 287.164545 -178.708181 
L 284.811643 -177.394215 
L 282.45874 -176.075808 
L 280.105838 -174.753138 
L 277.752935 -173.426378 
L 275.400033 -172.095695 
L 273.04713 -170.76125 
L 270.694228 -169.423206 
L 268.341325 -168.081727 
L 265.988423 -166.736968 
L 263.63552 -165.389076 
L 261.282618 -164.03819 
L 258.929715 -162.684445 
L 256.576813 -161.327972 
L 254.22391 -159.968894 
L 251.871008 -158.607339 
L 249.518105 -157.243422 
L 247.165203 -155.877246 
L 244.8123 -154.508908 
L 242.459398 -153.138498 
L 240.106495 -151.766103 
L 237.753593 -150.391807 
L 235.40069 -149.015701 
L 233.047788 -147.637871 
L 230.694885 -146.258391 
L 228.341982 -144.877338 
L 225.98908 -143.494785 
L 223.636177 -142.110804 
L 221.283275 -140.725465 
L 218.930372 -139.338833 
L 216.57747 -137.950973 
L 214.224567 -136.561945 
L 211.871665 -135.171798 
L 209.518762 -133.780575 
L 207.16586 -132.388322 
L 204.812957 -130.995063 
L 202.460055 -129.600813 
L 200.107152 -128.205591 
L 197.75425 -126.809415 
L 195.401347 -125.412294 
L 193.048445 -124.014226 
L 190.695542 -122.615195 
L 188.34264 -121.21517 
L 185.989737 -119.814114 
L 183.636835 -118.411988 
L 181.283932 -117.008747 
L 178.93103 -115.604341 
L 176.578127 -114.198721 
L 174.225225 -112.791831 
L 171.872322 -111.383606 
L 169.519419 -109.973973 
L 167.166517 -108.562852 
L 164.813614 -107.150159 
L 162.460712 -105.735806 
L 160.107809 -104.319695 
L 157.754907 -102.901724 
L 155.402004 -101.481777 
L 153.049102 -100.059736 
L 150.696199 -98.635477 
L 148.343297 -97.20887 
L 145.990394 -95.779778 
L 143.637492 -94.348066 
L 141.284589 -92.913602 
L 138.931687 -91.476252 
L 136.578784 -90.035886 
L 134.225882 -88.592371 
L 131.872979 -87.145572 
L 129.520077 -85.695331 
L 127.167174 -84.24148 
L 124.814272 -82.783855 
L 122.461369 -81.322287 
L 120.108467 -79.856603 
L 117.755564 -78.386626 
L 115.402662 -76.912175 
L 113.049759 -75.433063 
L 110.696857 -73.949109 
L 108.343954 -72.460126 
L 105.991051 -70.965918 
L 103.638149 -69.46628 
L 101.285246 -67.961001 
L 98.932344 -66.449862 
L 96.579441 -64.932642 
L 94.226539 -63.409123 
L 91.873636 -61.879091 
z
" style="stroke: #a52a2a; stroke-opacity: 0.1"/>
    </defs>
    <g clip-path="url(#pcd43d1deb3)">
     <use xlink:href="#m1564420241" x="0" y="360" style="fill: #a52a2a; fill-opacity: 0.1; stroke: #a52a2a; stroke-opacity: 0.1"/>
    </g>
   </g>
   <g id="FillBetweenPolyCollection_3">
    <defs>
     <path id="mdb196b9c15" d="M 91.873636 -61.879091 
L 91.873636 -61.879091 
L 94.226539 -62.117366 
L 96.579441 -62.346031 
L 98.932344 -62.565351 
L 101.285246 -62.775632 
L 103.638149 -62.977208 
L 105.991051 -63.170432 
L 108.343954 -63.355661 
L 110.696857 -63.533229 
L 113.049759 -63.703427 
L 115.402662 -63.86647 
L 117.755564 -64.022468 
L 120.108467 -64.171405 
L 122.461369 -64.313147 
L 124.814272 -64.447477 
L 127.167174 -64.57419 
L 129.520077 -64.693217 
L 131.872979 -64.804751 
L 134.225882 -64.90931 
L 136.578784 -65.007709 
L 138.931687 -65.10094 
L 141.284589 -65.190036 
L 143.637492 -65.275934 
L 145.990394 -65.359387 
L 148.343297 -65.440915 
L 150.696199 -65.520791 
L 153.049102 -65.599047 
L 155.402004 -65.675498 
L 157.754907 -65.749779 
L 160.107809 -65.821381 
L 162.460712 -65.88969 
L 164.813614 -65.954027 
L 167.166517 -66.01369 
L 169.519419 -66.06799 
L 171.872322 -66.116279 
L 174.225225 -66.157985 
L 176.578127 -66.192638 
L 178.93103 -66.219888 
L 181.283932 -66.239531 
L 183.636835 -66.251522 
L 185.989737 -66.255991 
L 188.34264 -66.25325 
L 190.695542 -66.243806 
L 193.048445 -66.228361 
L 195.401347 -66.207809 
L 197.75425 -66.183223 
L 200.107152 -66.155836 
L 202.460055 -66.127003 
L 204.812957 -66.09815 
L 207.16586 -66.070712 
L 209.518762 -66.046051 
L 211.871665 -66.025375 
L 214.224567 -66.009655 
L 216.57747 -65.999563 
L 218.930372 -65.995452 
L 221.283275 -65.997375 
L 223.636177 -66.005162 
L 225.98908 -66.018528 
L 228.341982 -66.037194 
L 230.694885 -66.060977 
L 233.047788 -66.08983 
L 235.40069 -66.123813 
L 237.753593 -66.163023 
L 240.106495 -66.207503 
L 242.459398 -66.257154 
L 244.8123 -66.311689 
L 247.165203 -66.370609 
L 249.518105 -66.433213 
L 251.871008 -66.498628 
L 254.22391 -66.565855 
L 256.576813 -66.633812 
L 258.929715 -66.701385 
L 261.282618 -66.767463 
L 263.63552 -66.830979 
L 265.988423 -66.890939 
L 268.341325 -66.94644 
L 270.694228 -66.996694 
L 273.04713 -67.041029 
L 275.400033 -67.078902 
L 277.752935 -67.109899 
L 280.105838 -67.133733 
L 282.45874 -67.150234 
L 284.811643 -67.159343 
L 287.164545 -67.161092 
L 289.517448 -67.155586 
L 291.87035 -67.142978 
L 294.223253 -67.123447 
L 296.576156 -67.097181 
L 298.929058 -67.064352 
L 301.281961 -67.025123 
L 303.634863 -66.97965 
L 305.987766 -66.92811 
L 308.340668 -66.870741 
L 310.693571 -66.807898 
L 313.046473 -66.74011 
L 315.399376 -66.668135 
L 317.752278 -66.592995 
L 320.105181 -66.51598 
L 322.458083 -66.438635 
L 324.810986 -66.362701 
L 327.163888 -66.290051 
L 329.516791 -66.222609 
L 331.869693 -66.162266 
L 334.222596 -66.110785 
L 336.575498 -66.069727 
L 338.928401 -66.040381 
L 341.281303 -66.023699 
L 343.634206 -66.020263 
L 345.987108 -66.030262 
L 348.340011 -66.053509 
L 350.692913 -66.089474 
L 353.045816 -66.137339 
L 355.398719 -66.196063 
L 357.751621 -66.264447 
L 360.104524 -66.341207 
L 362.457426 -66.425043 
L 364.810329 -66.514697 
L 367.163231 -66.609 
L 369.516134 -66.706901 
L 371.869036 -66.807487 
L 374.221939 -66.909995 
L 376.574841 -67.013808 
L 378.927744 -67.118444 
L 381.280646 -67.223542 
L 383.633549 -67.328852 
L 385.986451 -67.434209 
L 388.339354 -67.539489 
L 390.692256 -67.644575 
L 393.045159 -67.749305 
L 395.398061 -67.853395 
L 397.750964 -67.956408 
L 400.103866 -68.057695 
L 402.456769 -68.156342 
L 404.809671 -68.251154 
L 407.162574 -68.340664 
L 409.515476 -68.42317 
L 411.868379 -68.496835 
L 414.221281 -68.559831 
L 416.574184 -68.610548 
L 418.927087 -68.647842 
L 421.279989 -68.671275 
L 423.632892 -68.68128 
L 425.985794 -68.679185 
L 428.338697 -68.667107 
L 430.691599 -68.647706 
L 433.044502 -68.623867 
L 435.397404 -68.598379 
L 437.750307 -68.573667 
L 440.103209 -68.551621 
L 442.456112 -68.533531 
L 444.809014 -68.520074 
L 447.161917 -68.511379 
L 449.514819 -68.50711 
L 451.867722 -68.506582 
L 454.220624 -68.508853 
L 456.573527 -68.512816 
L 458.926429 -68.517272 
L 461.279332 -68.520991 
L 463.632234 -68.522777 
L 465.985137 -68.521516 
L 468.338039 -68.516208 
L 470.690942 -68.506003 
L 473.043844 -68.490249 
L 475.396747 -68.468499 
L 477.74965 -68.440521 
L 480.102552 -68.406304 
L 482.455455 -68.366058 
L 484.808357 -68.320214 
L 487.16126 -68.269436 
L 489.514162 -68.214626 
L 491.867065 -68.156924 
L 494.219967 -68.097719 
L 496.57287 -68.038633 
L 498.925772 -67.981501 
L 501.278675 -67.928333 
L 503.631577 -67.88126 
L 505.98448 -67.842466 
L 508.337382 -67.814089 
L 510.690285 -67.798098 
L 513.043187 -67.796145 
L 515.39609 -67.809389 
L 517.748992 -67.838307 
L 520.101895 -67.882496 
L 522.454797 -67.940514 
L 524.8077 -68.0098 
L 527.160602 -68.086708 
L 529.513505 -68.16672 
L 531.866407 -68.24484 
L 534.21931 -68.316172 
L 536.572212 -68.376623 
L 538.925115 -68.423539 
L 541.278018 -68.456153 
L 543.63092 -68.475716 
L 545.983823 -68.485226 
L 548.336725 -68.488897 
L 550.689628 -68.491535 
L 553.04253 -68.497966 
L 555.395433 -68.512609 
L 557.748335 -68.539207 
L 560.101238 -68.580687 
L 562.45414 -68.639135 
L 564.807043 -68.715864 
L 567.159945 -68.811519 
L 569.512848 -68.926192 
L 571.86575 -69.059556 
L 574.218653 -69.210971 
L 576.571555 -69.379579 
L 578.924458 -69.564361 
L 581.27736 -69.764203 
L 583.630263 -69.977953 
L 585.983165 -70.204426 
L 588.336068 -70.442451 
L 590.68897 -70.690881 
L 593.041873 -70.948583 
L 595.394775 -71.214448 
L 597.747678 -71.487392 
L 600.100581 -71.766366 
L 602.453483 -72.050351 
L 604.806386 -72.338361 
L 607.159288 -72.629437 
L 609.512191 -72.922641 
L 611.865093 -73.217058 
L 614.217996 -73.511819 
L 616.570898 -73.806109 
L 618.923801 -74.099165 
L 621.276703 -74.390299 
L 623.629606 -74.678906 
L 625.982508 -74.96446 
L 628.335411 -75.246513 
L 630.688313 -75.524699 
L 633.041216 -75.79873 
L 635.394118 -76.06839 
L 637.747021 -76.333523 
L 640.099923 -76.594022 
L 642.452826 -76.849824 
L 644.805728 -77.100893 
L 647.158631 -77.347216 
L 649.511533 -77.588808 
L 651.864436 -77.825715 
L 654.217338 -78.058018 
L 656.570241 -78.285834 
L 658.923143 -78.50932 
L 661.276046 -78.728674 
L 663.628949 -78.944134 
L 665.981851 -79.155984 
L 668.334754 -79.364556 
L 670.687656 -79.570243 
L 673.040559 -79.773497 
L 675.393461 -79.974829 
L 677.746364 -80.174799 
L 677.746364 -101.400141 
L 677.746364 -101.400141 
L 675.393461 -100.931746 
L 673.040559 -100.463499 
L 670.687656 -99.994686 
L 668.334754 -99.524684 
L 665.981851 -99.052972 
L 663.628949 -98.579147 
L 661.276046 -98.102932 
L 658.923143 -97.624191 
L 656.570241 -97.142944 
L 654.217338 -96.659366 
L 651.864436 -96.173776 
L 649.511533 -95.686624 
L 647.158631 -95.198486 
L 644.805728 -94.710052 
L 642.452826 -94.222105 
L 640.099923 -93.735496 
L 637.747021 -93.251118 
L 635.394118 -92.76988 
L 633.041216 -92.292658 
L 630.688313 -91.820274 
L 628.335411 -91.35345 
L 625.982508 -90.892786 
L 623.629606 -90.43873 
L 621.276703 -89.991557 
L 618.923801 -89.551367 
L 616.570898 -89.118062 
L 614.217996 -88.69135 
L 611.865093 -88.270749 
L 609.512191 -87.855602 
L 607.159288 -87.445089 
L 604.806386 -87.03826 
L 602.453483 -86.634074 
L 600.100581 -86.231434 
L 597.747678 -85.829219 
L 595.394775 -85.426316 
L 593.041873 -85.021673 
L 590.68897 -84.614323 
L 588.336068 -84.203425 
L 585.983165 -83.788297 
L 583.630263 -83.368441 
L 581.27736 -82.943572 
L 578.924458 -82.513651 
L 576.571555 -82.078933 
L 574.218653 -81.639988 
L 571.86575 -81.197739 
L 569.512848 -80.7535 
L 567.159945 -80.309009 
L 564.807043 -79.866482 
L 562.45414 -79.428675 
L 560.101238 -78.998926 
L 557.748335 -78.581214 
L 555.395433 -78.18019 
L 553.04253 -77.801173 
L 550.689628 -77.450081 
L 548.336725 -77.133282 
L 545.983823 -76.857305 
L 543.63092 -76.628378 
L 541.278018 -76.451874 
L 538.925115 -76.331679 
L 536.572212 -76.269651 
L 534.21931 -76.26532 
L 531.866407 -76.315937 
L 529.513505 -76.416841 
L 527.160602 -76.562021 
L 524.8077 -76.744723 
L 522.454797 -76.957961 
L 520.101895 -77.194896 
L 517.748992 -77.44906 
L 515.39609 -77.714455 
L 513.043187 -77.985604 
L 510.690285 -78.257527 
L 508.337382 -78.525708 
L 505.98448 -78.786055 
L 503.631577 -79.034859 
L 501.278675 -79.268772 
L 498.925772 -79.484788 
L 496.57287 -79.68023 
L 494.219967 -79.852736 
L 491.867065 -80.000246 
L 489.514162 -80.121007 
L 487.16126 -80.213587 
L 484.808357 -80.276843 
L 482.455455 -80.309952 
L 480.102552 -80.312413 
L 477.74965 -80.284068 
L 475.396747 -80.225092 
L 473.043844 -80.13601 
L 470.690942 -80.01767 
L 468.338039 -79.87127 
L 465.985137 -79.69835 
L 463.632234 -79.5008 
L 461.279332 -79.280857 
L 458.926429 -79.041102 
L 456.573527 -78.784448 
L 454.220624 -78.514142 
L 451.867722 -78.233733 
L 449.514819 -77.947054 
L 447.161917 -77.658189 
L 444.809014 -77.371442 
L 442.456112 -77.091294 
L 440.103209 -76.822355 
L 437.750307 -76.5693 
L 435.397404 -76.336775 
L 433.044502 -76.129277 
L 430.691599 -75.950978 
L 428.338697 -75.805508 
L 425.985794 -75.695698 
L 423.632892 -75.623291 
L 421.279989 -75.588715 
L 418.927087 -75.590927 
L 416.574184 -75.627418 
L 414.221281 -75.694371 
L 411.868379 -75.786957 
L 409.515476 -75.89969 
L 407.162574 -76.026783 
L 404.809671 -76.162458 
L 402.456769 -76.30119 
L 400.103866 -76.437863 
L 397.750964 -76.567871 
L 395.398061 -76.687161 
L 393.045159 -76.792241 
L 390.692256 -76.880167 
L 388.339354 -76.948515 
L 385.986451 -76.995354 
L 383.633549 -77.019207 
L 381.280646 -77.019019 
L 378.927744 -76.994117 
L 376.574841 -76.944187 
L 374.221939 -76.869239 
L 371.869036 -76.769581 
L 369.516134 -76.645799 
L 367.163231 -76.498738 
L 364.810329 -76.329484 
L 362.457426 -76.139354 
L 360.104524 -75.929875 
L 357.751621 -75.702788 
L 355.398719 -75.46003 
L 353.045816 -75.20373 
L 350.692913 -74.936195 
L 348.340011 -74.659904 
L 345.987108 -74.37749 
L 343.634206 -74.091724 
L 341.281303 -73.805498 
L 338.928401 -73.521782 
L 336.575498 -73.243579 
L 334.222596 -72.973871 
L 331.869693 -72.715552 
L 329.516791 -72.471353 
L 327.163888 -72.243757 
L 324.810986 -72.034909 
L 322.458083 -71.84653 
L 320.105181 -71.679833 
L 317.752278 -71.535457 
L 315.399376 -71.413415 
L 313.046473 -71.313077 
L 310.693571 -71.233197 
L 308.340668 -71.171969 
L 305.987766 -71.127118 
L 303.634863 -71.096019 
L 301.281961 -71.075826 
L 298.929058 -71.063598 
L 296.576156 -71.056414 
L 294.223253 -71.051466 
L 291.87035 -71.046129 
L 289.517448 -71.038009 
L 287.164545 -71.024961 
L 284.811643 -71.00511 
L 282.45874 -70.976856 
L 280.105838 -70.938872 
L 277.752935 -70.890108 
L 275.400033 -70.829793 
L 273.04713 -70.757425 
L 270.694228 -70.672769 
L 268.341325 -70.575854 
L 265.988423 -70.466972 
L 263.63552 -70.346682 
L 261.282618 -70.215807 
L 258.929715 -70.075431 
L 256.576813 -69.926897 
L 254.22391 -69.771797 
L 251.871008 -69.611965 
L 249.518105 -69.449461 
L 247.165203 -69.286553 
L 244.8123 -69.125678 
L 242.459398 -68.969397 
L 240.106495 -68.82033 
L 237.753593 -68.681069 
L 235.40069 -68.554055 
L 233.047788 -68.441436 
L 230.694885 -68.344906 
L 228.341982 -68.265548 
L 225.98908 -68.203719 
L 223.636177 -68.158997 
L 221.283275 -68.130231 
L 218.930372 -68.115661 
L 216.57747 -68.113087 
L 214.224567 -68.120055 
L 211.871665 -68.134029 
L 209.518762 -68.152531 
L 207.16586 -68.173232 
L 204.812957 -68.194007 
L 202.460055 -68.212955 
L 200.107152 -68.2284 
L 197.75425 -68.238887 
L 195.401347 -68.243165 
L 193.048445 -68.24018 
L 190.695542 -68.229059 
L 188.34264 -68.209099 
L 185.989737 -68.179757 
L 183.636835 -68.140643 
L 181.283932 -68.091513 
L 178.93103 -68.032259 
L 176.578127 -67.962902 
L 174.225225 -67.88359 
L 171.872322 -67.794596 
L 169.519419 -67.696304 
L 167.166517 -67.589213 
L 164.813614 -67.473923 
L 162.460712 -67.351131 
L 160.107809 -67.221619 
L 157.754907 -67.086239 
L 155.402004 -66.945908 
L 153.049102 -66.801597 
L 150.696199 -66.654307 
L 148.343297 -66.505056 
L 145.990394 -66.354859 
L 143.637492 -66.204708 
L 141.284589 -66.055525 
L 138.931687 -65.908129 
L 136.578784 -65.763166 
L 134.225882 -65.621008 
L 131.872979 -65.481636 
L 129.520077 -65.344501 
L 127.167174 -65.208459 
L 124.814272 -65.07179 
L 122.461369 -64.932318 
L 120.108467 -64.787594 
L 117.755564 -64.635077 
L 115.402662 -64.47229 
L 113.049759 -64.296912 
L 110.696857 -64.106839 
L 108.343954 -63.900196 
L 105.991051 -63.675342 
L 103.638149 -63.430858 
L 101.285246 -63.165549 
L 98.932344 -62.878421 
L 96.579441 -62.568679 
L 94.226539 -62.235714 
L 91.873636 -61.879091 
z
" style="stroke: #000080; stroke-opacity: 0.1"/>
    </defs>
    <g clip-path="url(#pcd43d1deb3)">
     <use xlink:href="#mdb196b9c15" x="0" y="360" style="fill: #000080; fill-opacity: 0.1; stroke: #000080; stroke-opacity: 0.1"/>
    </g>
   </g>
   <g id="FillBetweenPolyCollection_4">
    <defs>
     <path id="m469010efa0" d="M 91.873636 -61.879091 
L 91.873636 -61.879091 
L 94.226539 -62.428073 
L 96.579441 -62.954518 
L 98.932344 -63.458827 
L 101.285246 -63.941479 
L 103.638149 -64.403006 
L 105.991051 -64.843956 
L 108.343954 -65.264853 
L 110.696857 -65.666155 
L 113.049759 -66.048242 
L 115.402662 -66.411454 
L 117.755564 -66.756209 
L 120.108467 -67.083167 
L 122.461369 -67.393366 
L 124.814272 -67.68823 
L 127.167174 -67.969458 
L 129.520077 -68.238852 
L 131.872979 -68.498144 
L 134.225882 -68.74888 
L 136.578784 -68.992338 
L 138.931687 -69.229482 
L 141.284589 -69.460949 
L 143.637492 -69.68705 
L 145.990394 -69.907789 
L 148.343297 -70.122892 
L 150.696199 -70.331835 
L 153.049102 -70.533886 
L 155.402004 -70.728142 
L 157.754907 -70.913574 
L 160.107809 -71.089071 
L 162.460712 -71.253476 
L 164.813614 -71.405633 
L 167.166517 -71.544417 
L 169.519419 -71.668772 
L 171.872322 -71.777741 
L 174.225225 -71.870499 
L 176.578127 -71.946378 
L 178.93103 -72.004888 
L 181.283932 -72.045743 
L 183.636835 -72.068879 
L 185.989737 -72.074471 
L 188.34264 -72.062951 
L 190.695542 -72.03501 
L 193.048445 -71.991604 
L 195.401347 -71.933948 
L 197.75425 -71.863496 
L 200.107152 -71.781907 
L 202.460055 -71.691001 
L 204.812957 -71.592679 
L 207.16586 -71.488842 
L 209.518762 -71.381287 
L 211.871665 -71.271611 
L 214.224567 -71.161156 
L 216.57747 -71.051016 
L 218.930372 -70.942131 
L 221.283275 -70.835476 
L 223.636177 -70.732275 
L 225.98908 -70.63418 
L 228.341982 -70.543329 
L 230.694885 -70.462242 
L 233.047788 -70.393587 
L 235.40069 -70.339891 
L 237.753593 -70.303283 
L 240.106495 -70.285287 
L 242.459398 -70.286716 
L 244.8123 -70.307642 
L 247.165203 -70.347425 
L 249.518105 -70.4048 
L 251.871008 -70.477973 
L 254.22391 -70.564753 
L 256.576813 -70.662676 
L 258.929715 -70.769124 
L 261.282618 -70.88143 
L 263.63552 -70.99697 
L 265.988423 -71.113239 
L 268.341325 -71.227903 
L 270.694228 -71.338844 
L 273.04713 -71.44419 
L 275.400033 -71.542338 
L 277.752935 -71.631969 
L 280.105838 -71.712049 
L 282.45874 -71.781833 
L 284.811643 -71.840858 
L 287.164545 -71.888933 
L 289.517448 -71.926128 
L 291.87035 -71.952764 
L 294.223253 -71.969396 
L 296.576156 -71.976787 
L 298.929058 -71.975895 
L 301.281961 -71.967844 
L 303.634863 -71.953888 
L 305.987766 -71.935373 
L 308.340668 -71.91368 
L 310.693571 -71.890173 
L 313.046473 -71.866133 
L 315.399376 -71.84268 
L 317.752278 -71.820696 
L 320.105181 -71.800743 
L 322.458083 -71.782989 
L 324.810986 -71.767156 
L 327.163888 -71.752531 
L 329.516791 -71.738035 
L 331.869693 -71.722414 
L 334.222596 -71.70451 
L 336.575498 -71.683596 
L 338.928401 -71.659637 
L 341.281303 -71.633398 
L 343.634206 -71.60634 
L 345.987108 -71.580333 
L 348.340011 -71.55731 
L 350.692913 -71.538961 
L 353.045816 -71.526525 
L 355.398719 -71.520701 
L 357.751621 -71.521637 
L 360.104524 -71.528979 
L 362.457426 -71.541961 
L 364.810329 -71.559493 
L 367.163231 -71.580253 
L 369.516134 -71.602767 
L 371.869036 -71.625491 
L 374.221939 -71.646858 
L 376.574841 -71.665329 
L 378.927744 -71.679428 
L 381.280646 -71.687773 
L 383.633549 -71.68909 
L 385.986451 -71.682221 
L 388.339354 -71.666129 
L 390.692256 -71.639907 
L 393.045159 -71.602774 
L 395.398061 -71.554084 
L 397.750964 -71.493338 
L 400.103866 -71.420208 
L 402.456769 -71.334584 
L 404.809671 -71.236636 
L 407.162574 -71.126882 
L 409.515476 -71.006266 
L 411.868379 -70.876241 
L 414.221281 -70.73882 
L 416.574184 -70.596585 
L 418.927087 -70.452655 
L 421.279989 -70.310601 
L 423.632892 -70.174316 
L 425.985794 -70.047836 
L 428.338697 -69.935139 
L 430.691599 -69.839938 
L 433.044502 -69.765478 
L 435.397404 -69.714326 
L 437.750307 -69.688211 
L 440.103209 -69.687913 
L 442.456112 -69.713222 
L 444.809014 -69.762962 
L 447.161917 -69.835105 
L 449.514819 -69.92694 
L 451.867722 -70.03527 
L 454.220624 -70.156601 
L 456.573527 -70.287335 
L 458.926429 -70.423922 
L 461.279332 -70.562968 
L 463.632234 -70.701323 
L 465.985137 -70.836155 
L 468.338039 -70.96499 
L 470.690942 -71.08574 
L 473.043844 -71.196723 
L 475.396747 -71.296665 
L 477.74965 -71.384697 
L 480.102552 -71.460324 
L 482.455455 -71.523407 
L 484.808357 -71.574148 
L 487.16126 -71.613084 
L 489.514162 -71.64107 
L 491.867065 -71.659265 
L 494.219967 -71.669122 
L 496.57287 -71.672382 
L 498.925772 -71.67104 
L 501.278675 -71.667309 
L 503.631577 -71.663602 
L 505.98448 -71.662493 
L 508.337382 -71.66668 
L 510.690285 -71.678932 
L 513.043187 -71.702031 
L 515.39609 -71.738696 
L 517.748992 -71.791491 
L 520.101895 -71.862711 
L 522.454797 -71.954284 
L 524.8077 -72.067668 
L 527.160602 -72.203775 
L 529.513505 -72.362907 
L 531.866407 -72.544726 
L 534.21931 -72.748269 
L 536.572212 -72.971993 
L 538.925115 -73.213828 
L 541.278018 -73.471281 
L 543.63092 -73.741605 
L 545.983823 -74.021954 
L 548.336725 -74.309574 
L 550.689628 -74.601979 
L 553.04253 -74.897125 
L 555.395433 -75.193521 
L 557.748335 -75.490286 
L 560.101238 -75.78709 
L 562.45414 -76.084057 
L 564.807043 -76.381675 
L 567.159945 -76.680695 
L 569.512848 -76.98204 
L 571.86575 -77.286755 
L 574.218653 -77.595966 
L 576.571555 -77.91083 
L 578.924458 -78.232497 
L 581.27736 -78.562096 
L 583.630263 -78.900725 
L 585.983165 -79.249412 
L 588.336068 -79.609119 
L 590.68897 -79.98073 
L 593.041873 -80.365015 
L 595.394775 -80.762631 
L 597.747678 -81.174105 
L 600.100581 -81.599839 
L 602.453483 -82.040093 
L 604.806386 -82.494983 
L 607.159288 -82.964477 
L 609.512191 -83.448371 
L 611.865093 -83.946295 
L 614.217996 -84.457722 
L 616.570898 -84.981973 
L 618.923801 -85.518222 
L 621.276703 -86.065504 
L 623.629606 -86.622735 
L 625.982508 -87.188705 
L 628.335411 -87.762096 
L 630.688313 -88.341499 
L 633.041216 -88.925429 
L 635.394118 -89.512351 
L 637.747021 -90.100699 
L 640.099923 -90.688885 
L 642.452826 -91.275299 
L 644.805728 -91.858331 
L 647.158631 -92.436397 
L 649.511533 -93.007976 
L 651.864436 -93.571632 
L 654.217338 -94.126062 
L 656.570241 -94.67013 
L 658.923143 -95.202896 
L 661.276046 -95.723661 
L 663.628949 -96.232004 
L 665.981851 -96.727815 
L 668.334754 -97.211317 
L 670.687656 -97.683085 
L 673.040559 -98.144039 
L 675.393461 -98.595428 
L 677.746364 -99.038822 
L 677.746364 -108.906323 
L 677.746364 -108.906323 
L 675.393461 -108.215615 
L 673.040559 -107.528648 
L 670.687656 -106.84455 
L 668.334754 -106.162377 
L 665.981851 -105.481135 
L 663.628949 -104.7998 
L 661.276046 -104.117344 
L 658.923143 -103.432779 
L 656.570241 -102.745204 
L 654.217338 -102.053845 
L 651.864436 -101.358082 
L 649.511533 -100.657484 
L 647.158631 -99.951835 
L 644.805728 -99.241162 
L 642.452826 -98.525744 
L 640.099923 -97.80611 
L 637.747021 -97.083029 
L 635.394118 -96.3575 
L 633.041216 -95.630725 
L 630.688313 -94.904076 
L 628.335411 -94.179056 
L 625.982508 -93.457254 
L 623.629606 -92.740314 
L 621.276703 -92.029887 
L 618.923801 -91.327596 
L 616.570898 -90.634979 
L 614.217996 -89.953446 
L 611.865093 -89.284251 
L 609.512191 -88.628455 
L 607.159288 -87.986908 
L 604.806386 -87.36024 
L 602.453483 -86.748859 
L 600.100581 -86.152968 
L 597.747678 -85.572562 
L 595.394775 -85.007436 
L 593.041873 -84.457215 
L 590.68897 -83.921399 
L 588.336068 -83.399398 
L 585.983165 -82.890586 
L 583.630263 -82.39433 
L 581.27736 -81.910052 
L 578.924458 -81.437265 
L 576.571555 -80.975653 
L 574.218653 -80.525105 
L 571.86575 -80.085762 
L 569.512848 -79.658067 
L 567.159945 -79.242782 
L 564.807043 -78.841006 
L 562.45414 -78.454176 
L 560.101238 -78.084021 
L 557.748335 -77.732481 
L 555.395433 -77.401593 
L 553.04253 -77.093343 
L 550.689628 -76.809531 
L 548.336725 -76.551652 
L 545.983823 -76.320849 
L 543.63092 -76.117921 
L 541.278018 -75.943347 
L 538.925115 -75.797339 
L 536.572212 -75.679868 
L 534.21931 -75.590673 
L 531.866407 -75.52927 
L 529.513505 -75.494918 
L 527.160602 -75.486595 
L 524.8077 -75.502972 
L 522.454797 -75.542409 
L 520.101895 -75.602949 
L 517.748992 -75.68235 
L 515.39609 -75.778112 
L 513.043187 -75.887508 
L 510.690285 -76.007655 
L 508.337382 -76.135567 
L 505.98448 -76.26822 
L 503.631577 -76.402618 
L 501.278675 -76.53586 
L 498.925772 -76.665185 
L 496.57287 -76.788015 
L 494.219967 -76.901992 
L 491.867065 -77.005002 
L 489.514162 -77.095201 
L 487.16126 -77.171003 
L 484.808357 -77.231116 
L 482.455455 -77.274535 
L 480.102552 -77.300535 
L 477.74965 -77.308671 
L 475.396747 -77.298769 
L 473.043844 -77.270916 
L 470.690942 -77.225462 
L 468.338039 -77.162996 
L 465.985137 -77.084339 
L 463.632234 -76.990524 
L 461.279332 -76.882784 
L 458.926429 -76.762541 
L 456.573527 -76.631398 
L 454.220624 -76.491128 
L 451.867722 -76.343654 
L 449.514819 -76.191035 
L 447.161917 -76.035446 
L 444.809014 -75.879182 
L 442.456112 -75.724623 
L 440.103209 -75.57422 
L 437.750307 -75.430456 
L 435.397404 -75.295799 
L 433.044502 -75.17264 
L 430.691599 -75.063203 
L 428.338697 -74.969469 
L 425.985794 -74.893098 
L 423.632892 -74.83534 
L 421.279989 -74.796964 
L 418.927087 -74.778197 
L 416.574184 -74.778669 
L 414.221281 -74.797411 
L 411.868379 -74.832854 
L 409.515476 -74.882887 
L 407.162574 -74.944936 
L 404.809671 -75.016084 
L 402.456769 -75.093188 
L 400.103866 -75.173025 
L 397.750964 -75.252431 
L 395.398061 -75.328409 
L 393.045159 -75.398225 
L 390.692256 -75.459481 
L 388.339354 -75.510157 
L 385.986451 -75.548626 
L 383.633549 -75.573644 
L 381.280646 -75.584339 
L 378.927744 -75.580215 
L 376.574841 -75.561133 
L 374.221939 -75.527308 
L 371.869036 -75.479304 
L 369.516134 -75.418041 
L 367.163231 -75.344791 
L 364.810329 -75.261183 
L 362.457426 -75.169189 
L 360.104524 -75.071147 
L 357.751621 -74.969775 
L 355.398719 -74.868178 
L 353.045816 -74.769857 
L 350.692913 -74.678704 
L 348.340011 -74.598951 
L 345.987108 -74.535073 
L 343.634206 -74.491578 
L 341.281303 -74.472706 
L 338.928401 -74.482061 
L 336.575498 -74.522187 
L 334.222596 -74.594244 
L 331.869693 -74.697878 
L 329.516791 -74.83133 
L 327.163888 -74.991724 
L 324.810986 -75.175419 
L 322.458083 -75.378361 
L 320.105181 -75.596341 
L 317.752278 -75.825161 
L 315.399376 -76.060727 
L 313.046473 -76.299115 
L 310.693571 -76.536598 
L 308.340668 -76.769636 
L 305.987766 -76.994887 
L 303.634863 -77.20921 
L 301.281961 -77.409672 
L 298.929058 -77.593555 
L 296.576156 -77.758351 
L 294.223253 -77.901781 
L 291.87035 -78.021796 
L 289.517448 -78.1166 
L 287.164545 -78.184654 
L 284.811643 -78.224696 
L 282.45874 -78.23575 
L 280.105838 -78.217151 
L 277.752935 -78.168558 
L 275.400033 -78.089968 
L 273.04713 -77.981738 
L 270.694228 -77.8446 
L 268.341325 -77.679677 
L 265.988423 -77.488504 
L 263.63552 -77.273036 
L 261.282618 -77.035663 
L 258.929715 -76.779211 
L 256.576813 -76.506945 
L 254.22391 -76.222545 
L 251.871008 -75.930089 
L 249.518105 -75.634021 
L 247.165203 -75.339088 
L 244.8123 -75.050267 
L 242.459398 -74.772672 
L 240.106495 -74.511436 
L 237.753593 -74.271567 
L 235.40069 -74.057772 
L 233.047788 -73.874245 
L 230.694885 -73.724442 
L 228.341982 -73.610814 
L 225.98908 -73.534537 
L 223.636177 -73.495304 
L 221.283275 -73.491206 
L 218.930372 -73.518813 
L 216.57747 -73.573436 
L 214.224567 -73.64954 
L 211.871665 -73.741202 
L 209.518762 -73.842519 
L 207.16586 -73.947914 
L 204.812957 -74.052313 
L 202.460055 -74.151224 
L 200.107152 -74.240762 
L 197.75425 -74.31762 
L 195.401347 -74.37903 
L 193.048445 -74.422715 
L 190.695542 -74.44685 
L 188.34264 -74.450018 
L 185.989737 -74.431184 
L 183.636835 -74.389665 
L 181.283932 -74.325099 
L 178.93103 -74.237428 
L 176.578127 -74.126875 
L 174.225225 -73.993919 
L 171.872322 -73.839274 
L 169.519419 -73.663867 
L 167.166517 -73.468814 
L 164.813614 -73.255393 
L 162.460712 -73.02501 
L 160.107809 -72.779176 
L 157.754907 -72.519464 
L 155.402004 -72.247475 
L 153.049102 -71.9648 
L 150.696199 -71.672979 
L 148.343297 -71.373466 
L 145.990394 -71.067586 
L 143.637492 -70.756509 
L 141.284589 -70.441212 
L 138.931687 -70.122463 
L 136.578784 -69.800803 
L 134.225882 -69.476537 
L 131.872979 -69.149735 
L 129.520077 -68.820221 
L 127.167174 -68.487574 
L 124.814272 -68.151101 
L 122.461369 -67.80978 
L 120.108467 -67.462178 
L 117.755564 -67.106353 
L 115.402662 -66.73984 
L 113.049759 -66.359744 
L 110.696857 -65.962969 
L 108.343954 -65.546453 
L 105.991051 -65.107349 
L 103.638149 -64.643115 
L 101.285246 -64.151551 
L 98.932344 -63.630786 
L 96.579441 -63.079259 
L 94.226539 -62.495697 
L 91.873636 -61.879091 
z
" style="stroke: #add8e6; stroke-opacity: 0.1"/>
    </defs>
    <g clip-path="url(#pcd43d1deb3)">
     <use xlink:href="#m469010efa0" x="0" y="360" style="fill: #add8e6; fill-opacity: 0.1; stroke: #add8e6; stroke-opacity: 0.1"/>
    </g>
   </g>
   <g id="line2d_1">
    <path d="M 91.873636 298.120909 
L 129.520077 275.374726 
L 160.107809 256.648159 
L 193.048445 236.217038 
L 294.223253 173.227157 
L 317.752278 158.988345 
L 336.575498 147.842182 
L 353.045816 138.315817 
L 369.516134 129.048506 
L 383.633549 121.34799 
L 397.750964 113.9003 
L 411.868379 106.731605 
L 423.632892 100.990486 
L 435.397404 95.476525 
L 447.161917 90.201189 
L 458.926429 85.171906 
L 470.690942 80.396076 
L 482.455455 75.88168 
L 494.219967 71.637332 
L 505.98448 67.668587 
L 517.748992 63.98068 
L 529.513505 60.576254 
L 541.278018 57.456458 
L 553.04253 54.621451 
L 564.807043 52.070986 
L 576.571555 49.804449 
L 588.336068 47.818061 
L 600.100581 46.106591 
L 611.865093 44.662841 
L 623.629606 43.476503 
L 635.394118 42.535293 
L 647.158631 41.82491 
L 658.923143 41.32905 
L 670.687656 41.030721 
L 677.746364 40.939091 
L 677.746364 40.939091 
" clip-path="url(#pcd43d1deb3)" style="fill: none; stroke: #000000; stroke-width: 1.5; stroke-linecap: round"/>
   </g>
   <g id="line2d_2">
    <path d="M 91.873636 298.120909 
L 105.991051 290.542865 
L 122.461369 281.976164 
L 138.931687 273.680655 
L 155.402004 265.633809 
L 171.872322 257.81415 
L 190.695542 249.133846 
L 209.518762 240.711027 
L 228.341982 232.536395 
L 247.165203 224.606871 
L 265.988423 216.918331 
L 284.811643 209.467687 
L 303.634863 202.258038 
L 322.458083 195.298089 
L 341.281303 188.600331 
L 357.751621 182.970477 
L 374.221939 177.576566 
L 390.692256 172.439014 
L 404.809671 168.252127 
L 418.927087 164.277682 
L 433.044502 160.527321 
L 447.161917 157.007758 
L 461.279332 153.718858 
L 475.396747 150.660406 
L 489.514162 147.835162 
L 503.631577 145.245944 
L 517.748992 142.892971 
L 531.866407 140.772788 
L 545.983823 138.877206 
L 560.101238 137.19379 
L 576.571555 135.477202 
L 593.041873 133.990807 
L 611.865093 132.509948 
L 644.805728 130.198263 
L 673.040559 128.124639 
L 677.746364 127.743032 
L 677.746364 127.743032 
" clip-path="url(#pcd43d1deb3)" style="fill: none; stroke: #a52a2a; stroke-width: 1.5; stroke-linecap: round"/>
   </g>
   <g id="line2d_3">
    <path d="M 91.873636 298.120909 
L 101.285246 297.02941 
L 110.696857 296.179966 
L 122.461369 295.377267 
L 141.284589 294.377219 
L 164.813614 293.286025 
L 176.578127 292.92223 
L 188.34264 292.768825 
L 202.460055 292.830021 
L 221.283275 292.936197 
L 233.047788 292.734367 
L 244.8123 292.281317 
L 270.694228 291.165268 
L 282.45874 290.936455 
L 296.576156 290.923203 
L 317.752278 290.935774 
L 327.163888 290.733096 
L 336.575498 290.343347 
L 350.692913 289.487165 
L 369.516134 288.32365 
L 378.927744 287.94372 
L 388.339354 287.755998 
L 400.103866 287.752221 
L 423.632892 287.847714 
L 433.044502 287.623428 
L 442.456112 287.187588 
L 468.338039 285.806261 
L 477.74965 285.637705 
L 487.16126 285.758488 
L 496.57287 286.140568 
L 527.160602 287.675636 
L 534.21931 287.709254 
L 541.278018 287.545987 
L 548.336725 287.18891 
L 557.748335 286.43979 
L 567.159945 285.439736 
L 578.924458 283.960994 
L 597.747678 281.341694 
L 618.923801 278.174734 
L 670.687656 270.217536 
L 677.746364 269.21253 
L 677.746364 269.21253 
" clip-path="url(#pcd43d1deb3)" style="fill: none; stroke: #000080; stroke-width: 1.5; stroke-linecap: round"/>
   </g>
   <g id="line2d_4">
    <path d="M 91.873636 298.120909 
L 98.932344 296.455193 
L 105.991051 295.024348 
L 113.049759 293.796007 
L 122.461369 292.398427 
L 134.225882 290.887291 
L 150.696199 288.997593 
L 162.460712 287.860757 
L 171.872322 287.191493 
L 178.93103 286.878842 
L 185.989737 286.747172 
L 195.401347 286.843511 
L 207.16586 287.281622 
L 221.283275 287.836659 
L 228.341982 287.922929 
L 235.40069 287.801168 
L 242.459398 287.470306 
L 251.871008 286.795969 
L 268.341325 285.54621 
L 277.752935 285.099736 
L 284.811643 284.967223 
L 291.87035 285.01272 
L 301.281961 285.311242 
L 315.399376 286.048297 
L 329.516791 286.715317 
L 338.928401 286.929151 
L 348.340011 286.92187 
L 362.457426 286.644425 
L 378.927744 286.370178 
L 388.339354 286.411857 
L 400.103866 286.703384 
L 425.985794 287.529533 
L 435.397404 287.494937 
L 444.809014 287.178928 
L 463.632234 286.154076 
L 473.043844 285.766181 
L 482.455455 285.601029 
L 491.867065 285.667866 
L 508.337382 286.098876 
L 517.748992 286.263079 
L 524.8077 286.21468 
L 531.866407 285.963002 
L 538.925115 285.494416 
L 545.983823 284.828598 
L 555.395433 283.702443 
L 567.159945 282.038261 
L 578.924458 280.165119 
L 590.68897 278.048936 
L 600.100581 276.123596 
L 609.512191 273.961587 
L 618.923801 271.577091 
L 633.041216 267.721923 
L 654.217338 261.910046 
L 668.334754 258.313153 
L 677.746364 256.027427 
L 677.746364 256.027427 
" clip-path="url(#pcd43d1deb3)" style="fill: none; stroke: #add8e6; stroke-width: 1.5; stroke-linecap: round"/>
   </g>
   <g id="patch_3">
    <path d="M 62.58 310.98 
L 62.58 28.08 
" style="fill: none; stroke: #ffffff; stroke-width: 1.25; stroke-linejoin: miter; stroke-linecap: square"/>
   </g>
   <g id="patch_4">
    <path d="M 707.04 310.98 
L 707.04 28.08 
" style="fill: none; stroke: #ffffff; stroke-width: 1.25; stroke-linejoin: miter; stroke-linecap: square"/>
   </g>
   <g id="patch_5">
    <path d="M 62.58 310.98 
L 707.04 310.98 
" style="fill: none; stroke: #ffffff; stroke-width: 1.25; stroke-linejoin: miter; stroke-linecap: square"/>
   </g>
   <g id="patch_6">
    <path d="M 62.58 28.08 
L 707.04 28.08 
" style="fill: none; stroke: #ffffff; stroke-width: 1.25; stroke-linejoin: miter; stroke-linecap: square"/>
   </g>
   <g id="text_14">
    <!-- QG3L - [32, 96] x [64, 192] -->
    <g style="fill: #262626" transform="translate(303.585 22.08) scale(0.12 -0.12)">
     <defs>
      <path id="DejaVuSans-51" d="M 2522 4238 
Q 1834 4238 1429 3725 
Q 1025 3213 1025 2328 
Q 1025 1447 1429 934 
Q 1834 422 2522 422 
Q 3209 422 3611 934 
Q 4013 1447 4013 2328 
Q 4013 3213 3611 3725 
Q 3209 4238 2522 4238 
z
M 3406 84 
L 4238 -825 
L 3475 -825 
L 2784 -78 
Q 2681 -84 2626 -87 
Q 2572 -91 2522 -91 
Q 1538 -91 948 567 
Q 359 1225 359 2328 
Q 359 3434 948 4092 
Q 1538 4750 2522 4750 
Q 3503 4750 4090 4092 
Q 4678 3434 4678 2328 
Q 4678 1516 4351 937 
Q 4025 359 3406 84 
z
" transform="scale(0.015625)"/>
      <path id="DejaVuSans-47" d="M 3809 666 
L 3809 1919 
L 2778 1919 
L 2778 2438 
L 4434 2438 
L 4434 434 
Q 4069 175 3628 42 
Q 3188 -91 2688 -91 
Q 1594 -91 976 548 
Q 359 1188 359 2328 
Q 359 3472 976 4111 
Q 1594 4750 2688 4750 
Q 3144 4750 3555 4637 
Q 3966 4525 4313 4306 
L 4313 3634 
Q 3963 3931 3569 4081 
Q 3175 4231 2741 4231 
Q 1884 4231 1454 3753 
Q 1025 3275 1025 2328 
Q 1025 1384 1454 906 
Q 1884 428 2741 428 
Q 3075 428 3337 486 
Q 3600 544 3809 666 
z
" transform="scale(0.015625)"/>
      <path id="DejaVuSans-33" d="M 2597 2516 
Q 3050 2419 3304 2112 
Q 3559 1806 3559 1356 
Q 3559 666 3084 287 
Q 2609 -91 1734 -91 
Q 1441 -91 1130 -33 
Q 819 25 488 141 
L 488 750 
Q 750 597 1062 519 
Q 1375 441 1716 441 
Q 2309 441 2620 675 
Q 2931 909 2931 1356 
Q 2931 1769 2642 2001 
Q 2353 2234 1838 2234 
L 1294 2234 
L 1294 2753 
L 1863 2753 
Q 2328 2753 2575 2939 
Q 2822 3125 2822 3475 
Q 2822 3834 2567 4026 
Q 2313 4219 1838 4219 
Q 1578 4219 1281 4162 
Q 984 4106 628 3988 
L 628 4550 
Q 988 4650 1302 4700 
Q 1616 4750 1894 4750 
Q 2613 4750 3031 4423 
Q 3450 4097 3450 3541 
Q 3450 3153 3228 2886 
Q 3006 2619 2597 2516 
z
" transform="scale(0.015625)"/>
      <path id="DejaVuSans-4c" d="M 628 4666 
L 1259 4666 
L 1259 531 
L 3531 531 
L 3531 0 
L 628 0 
L 628 4666 
z
" transform="scale(0.015625)"/>
      <path id="DejaVuSans-2d" d="M 313 2009 
L 1997 2009 
L 1997 1497 
L 313 1497 
L 313 2009 
z
" transform="scale(0.015625)"/>
      <path id="DejaVuSans-2c" d="M 750 794 
L 1409 794 
L 1409 256 
L 897 -744 
L 494 -744 
L 750 256 
L 750 794 
z
" transform="scale(0.015625)"/>
      <path id="DejaVuSans-39" d="M 703 97 
L 703 672 
Q 941 559 1184 500 
Q 1428 441 1663 441 
Q 2288 441 2617 861 
Q 2947 1281 2994 2138 
Q 2813 1869 2534 1725 
Q 2256 1581 1919 1581 
Q 1219 1581 811 2004 
Q 403 2428 403 3163 
Q 403 3881 828 4315 
Q 1253 4750 1959 4750 
Q 2769 4750 3195 4129 
Q 3622 3509 3622 2328 
Q 3622 1225 3098 567 
Q 2575 -91 1691 -91 
Q 1453 -91 1209 -44 
Q 966 3 703 97 
z
M 1959 2075 
Q 2384 2075 2632 2365 
Q 2881 2656 2881 3163 
Q 2881 3666 2632 3958 
Q 2384 4250 1959 4250 
Q 1534 4250 1286 3958 
Q 1038 3666 1038 3163 
Q 1038 2656 1286 2365 
Q 1534 2075 1959 2075 
z
" transform="scale(0.015625)"/>
      <path id="DejaVuSans-36" d="M 2113 2584 
Q 1688 2584 1439 2293 
Q 1191 2003 1191 1497 
Q 1191 994 1439 701 
Q 1688 409 2113 409 
Q 2538 409 2786 701 
Q 3034 994 3034 1497 
Q 3034 2003 2786 2293 
Q 2538 2584 2113 2584 
z
M 3366 4563 
L 3366 3988 
Q 3128 4100 2886 4159 
Q 2644 4219 2406 4219 
Q 1781 4219 1451 3797 
Q 1122 3375 1075 2522 
Q 1259 2794 1537 2939 
Q 1816 3084 2150 3084 
Q 2853 3084 3261 2657 
Q 3669 2231 3669 1497 
Q 3669 778 3244 343 
Q 2819 -91 2113 -91 
Q 1303 -91 875 529 
Q 447 1150 447 2328 
Q 447 3434 972 4092 
Q 1497 4750 2381 4750 
Q 2619 4750 2861 4703 
Q 3103 4656 3366 4563 
z
" transform="scale(0.015625)"/>
      <path id="DejaVuSans-78" d="M 3513 3500 
L 2247 1797 
L 3578 0 
L 2900 0 
L 1881 1375 
L 863 0 
L 184 0 
L 1544 1831 
L 300 3500 
L 978 3500 
L 1906 2253 
L 2834 3500 
L 3513 3500 
z
" transform="scale(0.015625)"/>
      <path id="DejaVuSans-34" d="M 2419 4116 
L 825 1625 
L 2419 1625 
L 2419 4116 
z
M 2253 4666 
L 3047 4666 
L 3047 1625 
L 3713 1625 
L 3713 1100 
L 3047 1100 
L 3047 0 
L 2419 0 
L 2419 1100 
L 313 1100 
L 313 1709 
L 2253 4666 
z
" transform="scale(0.015625)"/>
     </defs>
     <use xlink:href="#DejaVuSans-51"/>
     <use xlink:href="#DejaVuSans-47" transform="translate(78.710938 0)"/>
     <use xlink:href="#DejaVuSans-33" transform="translate(156.201172 0)"/>
     <use xlink:href="#DejaVuSans-4c" transform="translate(219.824219 0)"/>
     <use xlink:href="#DejaVuSans-20" transform="translate(275.537109 0)"/>
     <use xlink:href="#DejaVuSans-2d" transform="translate(307.324219 0)"/>
     <use xlink:href="#DejaVuSans-20" transform="translate(343.408203 0)"/>
     <use xlink:href="#DejaVuSans-5b" transform="translate(375.195312 0)"/>
     <use xlink:href="#DejaVuSans-33" transform="translate(414.208984 0)"/>
     <use xlink:href="#DejaVuSans-32" transform="translate(477.832031 0)"/>
     <use xlink:href="#DejaVuSans-2c" transform="translate(541.455078 0)"/>
     <use xlink:href="#DejaVuSans-20" transform="translate(573.242188 0)"/>
     <use xlink:href="#DejaVuSans-39" transform="translate(605.029297 0)"/>
     <use xlink:href="#DejaVuSans-36" transform="translate(668.652344 0)"/>
     <use xlink:href="#DejaVuSans-5d" transform="translate(732.275391 0)"/>
     <use xlink:href="#DejaVuSans-20" transform="translate(771.289062 0)"/>
     <use xlink:href="#DejaVuSans-78" transform="translate(803.076172 0)"/>
     <use xlink:href="#DejaVuSans-20" transform="translate(862.255859 0)"/>
     <use xlink:href="#DejaVuSans-5b" transform="translate(894.042969 0)"/>
     <use xlink:href="#DejaVuSans-36" transform="translate(933.056641 0)"/>
     <use xlink:href="#DejaVuSans-34" transform="translate(996.679688 0)"/>
     <use xlink:href="#DejaVuSans-2c" transform="translate(1060.302734 0)"/>
     <use xlink:href="#DejaVuSans-20" transform="translate(1092.089844 0)"/>
     <use xlink:href="#DejaVuSans-31" transform="translate(1123.876953 0)"/>
     <use xlink:href="#DejaVuSans-39" transform="translate(1187.5 0)"/>
     <use xlink:href="#DejaVuSans-32" transform="translate(1251.123047 0)"/>
     <use xlink:href="#DejaVuSans-5d" transform="translate(1314.746094 0)"/>
    </g>
   </g>
   <g id="legend_1">
    <g id="patch_7">
     <path d="M 70.28 101.46375 
L 229.620156 101.46375 
Q 231.820156 101.46375 231.820156 99.26375 
L 231.820156 35.78 
Q 231.820156 33.58 229.620156 33.58 
L 70.28 33.58 
Q 68.08 33.58 68.08 35.78 
L 68.08 99.26375 
Q 68.08 101.46375 70.28 101.46375 
z
" style="fill: #eaeaf2; opacity: 0.8; stroke: #cccccc; stroke-linejoin: miter"/>
    </g>
    <g id="line2d_5">
     <path d="M 72.48 42.488281 
L 83.48 42.488281 
L 94.48 42.488281 
" style="fill: none; stroke: #000000; stroke-width: 1.5; stroke-linecap: round"/>
    </g>
    <g id="text_15">
     <!-- Reduced Gravity - Pert -->
     <g style="fill: #262626" transform="translate(103.28 46.338281) scale(0.11 -0.11)">
      <defs>
       <path id="DejaVuSans-75" d="M 544 1381 
L 544 3500 
L 1119 3500 
L 1119 1403 
Q 1119 906 1312 657 
Q 1506 409 1894 409 
Q 2359 409 2629 706 
Q 2900 1003 2900 1516 
L 2900 3500 
L 3475 3500 
L 3475 0 
L 2900 0 
L 2900 538 
Q 2691 219 2414 64 
Q 2138 -91 1772 -91 
Q 1169 -91 856 284 
Q 544 659 544 1381 
z
M 1991 3584 
L 1991 3584 
z
" transform="scale(0.015625)"/>
       <path id="DejaVuSans-63" d="M 3122 3366 
L 3122 2828 
Q 2878 2963 2633 3030 
Q 2388 3097 2138 3097 
Q 1578 3097 1268 2742 
Q 959 2388 959 1747 
Q 959 1106 1268 751 
Q 1578 397 2138 397 
Q 2388 397 2633 464 
Q 2878 531 3122 666 
L 3122 134 
Q 2881 22 2623 -34 
Q 2366 -91 2075 -91 
Q 1284 -91 818 406 
Q 353 903 353 1747 
Q 353 2603 823 3093 
Q 1294 3584 2113 3584 
Q 2378 3584 2631 3529 
Q 2884 3475 3122 3366 
z
" transform="scale(0.015625)"/>
       <path id="DejaVuSans-72" d="M 2631 2963 
Q 2534 3019 2420 3045 
Q 2306 3072 2169 3072 
Q 1681 3072 1420 2755 
Q 1159 2438 1159 1844 
L 1159 0 
L 581 0 
L 581 3500 
L 1159 3500 
L 1159 2956 
Q 1341 3275 1631 3429 
Q 1922 3584 2338 3584 
Q 2397 3584 2469 3576 
Q 2541 3569 2628 3553 
L 2631 2963 
z
" transform="scale(0.015625)"/>
       <path id="DejaVuSans-76" d="M 191 3500 
L 800 3500 
L 1894 563 
L 2988 3500 
L 3597 3500 
L 2284 0 
L 1503 0 
L 191 3500 
z
" transform="scale(0.015625)"/>
       <path id="DejaVuSans-74" d="M 1172 4494 
L 1172 3500 
L 2356 3500 
L 2356 3053 
L 1172 3053 
L 1172 1153 
Q 1172 725 1289 603 
Q 1406 481 1766 481 
L 2356 481 
L 2356 0 
L 1766 0 
Q 1100 0 847 248 
Q 594 497 594 1153 
L 594 3053 
L 172 3053 
L 172 3500 
L 594 3500 
L 594 4494 
L 1172 4494 
z
" transform="scale(0.015625)"/>
       <path id="DejaVuSans-50" d="M 1259 4147 
L 1259 2394 
L 2053 2394 
Q 2494 2394 2734 2622 
Q 2975 2850 2975 3272 
Q 2975 3691 2734 3919 
Q 2494 4147 2053 4147 
L 1259 4147 
z
M 628 4666 
L 2053 4666 
Q 2838 4666 3239 4311 
Q 3641 3956 3641 3272 
Q 3641 2581 3239 2228 
Q 2838 1875 2053 1875 
L 1259 1875 
L 1259 0 
L 628 0 
L 628 4666 
z
" transform="scale(0.015625)"/>
      </defs>
      <use xlink:href="#DejaVuSans-52"/>
      <use xlink:href="#DejaVuSans-65" transform="translate(64.982422 0)"/>
      <use xlink:href="#DejaVuSans-64" transform="translate(126.505859 0)"/>
      <use xlink:href="#DejaVuSans-75" transform="translate(189.982422 0)"/>
      <use xlink:href="#DejaVuSans-63" transform="translate(253.361328 0)"/>
      <use xlink:href="#DejaVuSans-65" transform="translate(308.341797 0)"/>
      <use xlink:href="#DejaVuSans-64" transform="translate(369.865234 0)"/>
      <use xlink:href="#DejaVuSans-20" transform="translate(433.341797 0)"/>
      <use xlink:href="#DejaVuSans-47" transform="translate(465.128906 0)"/>
      <use xlink:href="#DejaVuSans-72" transform="translate(542.619141 0)"/>
      <use xlink:href="#DejaVuSans-61" transform="translate(583.732422 0)"/>
      <use xlink:href="#DejaVuSans-76" transform="translate(645.011719 0)"/>
      <use xlink:href="#DejaVuSans-69" transform="translate(704.191406 0)"/>
      <use xlink:href="#DejaVuSans-74" transform="translate(731.974609 0)"/>
      <use xlink:href="#DejaVuSans-79" transform="translate(771.183594 0)"/>
      <use xlink:href="#DejaVuSans-20" transform="translate(830.363281 0)"/>
      <use xlink:href="#DejaVuSans-2d" transform="translate(862.150391 0)"/>
      <use xlink:href="#DejaVuSans-20" transform="translate(898.234375 0)"/>
      <use xlink:href="#DejaVuSans-50" transform="translate(930.021484 0)"/>
      <use xlink:href="#DejaVuSans-65" transform="translate(986.699219 0)"/>
      <use xlink:href="#DejaVuSans-72" transform="translate(1048.222656 0)"/>
      <use xlink:href="#DejaVuSans-74" transform="translate(1089.335938 0)"/>
     </g>
    </g>
    <g id="line2d_6">
     <path d="M 72.48 58.634219 
L 83.48 58.634219 
L 94.48 58.634219 
" style="fill: none; stroke: #a52a2a; stroke-width: 1.5; stroke-linecap: round"/>
    </g>
    <g id="text_16">
     <!-- VarDyn -->
     <g style="fill: #262626" transform="translate(103.28 62.484219) scale(0.11 -0.11)">
      <defs>
       <path id="DejaVuSans-56" d="M 1831 0 
L 50 4666 
L 709 4666 
L 2188 738 
L 3669 4666 
L 4325 4666 
L 2547 0 
L 1831 0 
z
" transform="scale(0.015625)"/>
       <path id="DejaVuSans-44" d="M 1259 4147 
L 1259 519 
L 2022 519 
Q 2988 519 3436 956 
Q 3884 1394 3884 2338 
Q 3884 3275 3436 3711 
Q 2988 4147 2022 4147 
L 1259 4147 
z
M 628 4666 
L 1925 4666 
Q 3281 4666 3915 4102 
Q 4550 3538 4550 2338 
Q 4550 1131 3912 565 
Q 3275 0 1925 0 
L 628 0 
L 628 4666 
z
" transform="scale(0.015625)"/>
      </defs>
      <use xlink:href="#DejaVuSans-56"/>
      <use xlink:href="#DejaVuSans-61" transform="translate(60.658203 0)"/>
      <use xlink:href="#DejaVuSans-72" transform="translate(121.9375 0)"/>
      <use xlink:href="#DejaVuSans-44" transform="translate(163.050781 0)"/>
      <use xlink:href="#DejaVuSans-79" transform="translate(240.052734 0)"/>
      <use xlink:href="#DejaVuSans-6e" transform="translate(299.232422 0)"/>
     </g>
    </g>
    <g id="line2d_7">
     <path d="M 72.48 74.780156 
L 83.48 74.780156 
L 94.48 74.780156 
" style="fill: none; stroke: #000080; stroke-width: 1.5; stroke-linecap: round"/>
    </g>
    <g id="text_17">
     <!-- SurfML -->
     <g style="fill: #262626" transform="translate(103.28 78.630156) scale(0.11 -0.11)">
      <defs>
       <path id="DejaVuSans-66" d="M 2375 4863 
L 2375 4384 
L 1825 4384 
Q 1516 4384 1395 4259 
Q 1275 4134 1275 3809 
L 1275 3500 
L 2222 3500 
L 2222 3053 
L 1275 3053 
L 1275 0 
L 697 0 
L 697 3053 
L 147 3053 
L 147 3500 
L 697 3500 
L 697 3744 
Q 697 4328 969 4595 
Q 1241 4863 1831 4863 
L 2375 4863 
z
" transform="scale(0.015625)"/>
      </defs>
      <use xlink:href="#DejaVuSans-53"/>
      <use xlink:href="#DejaVuSans-75" transform="translate(63.476562 0)"/>
      <use xlink:href="#DejaVuSans-72" transform="translate(126.855469 0)"/>
      <use xlink:href="#DejaVuSans-66" transform="translate(167.96875 0)"/>
      <use xlink:href="#DejaVuSans-4d" transform="translate(203.173828 0)"/>
      <use xlink:href="#DejaVuSans-4c" transform="translate(289.453125 0)"/>
     </g>
    </g>
    <g id="line2d_8">
     <path d="M 72.48 90.926094 
L 83.48 90.926094 
L 94.48 90.926094 
" style="fill: none; stroke: #add8e6; stroke-width: 1.5; stroke-linecap: round"/>
    </g>
    <g id="text_18">
     <!-- SurfML - No Alpha -->
     <g style="fill: #262626" transform="translate(103.28 94.776094) scale(0.11 -0.11)">
      <defs>
       <path id="DejaVuSans-4e" d="M 628 4666 
L 1478 4666 
L 3547 763 
L 3547 4666 
L 4159 4666 
L 4159 0 
L 3309 0 
L 1241 3903 
L 1241 0 
L 628 0 
L 628 4666 
z
" transform="scale(0.015625)"/>
       <path id="DejaVuSans-6f" d="M 1959 3097 
Q 1497 3097 1228 2736 
Q 959 2375 959 1747 
Q 959 1119 1226 758 
Q 1494 397 1959 397 
Q 2419 397 2687 759 
Q 2956 1122 2956 1747 
Q 2956 2369 2687 2733 
Q 2419 3097 1959 3097 
z
M 1959 3584 
Q 2709 3584 3137 3096 
Q 3566 2609 3566 1747 
Q 3566 888 3137 398 
Q 2709 -91 1959 -91 
Q 1206 -91 779 398 
Q 353 888 353 1747 
Q 353 2609 779 3096 
Q 1206 3584 1959 3584 
z
" transform="scale(0.015625)"/>
       <path id="DejaVuSans-41" d="M 2188 4044 
L 1331 1722 
L 3047 1722 
L 2188 4044 
z
M 1831 4666 
L 2547 4666 
L 4325 0 
L 3669 0 
L 3244 1197 
L 1141 1197 
L 716 0 
L 50 0 
L 1831 4666 
z
" transform="scale(0.015625)"/>
       <path id="DejaVuSans-6c" d="M 603 4863 
L 1178 4863 
L 1178 0 
L 603 0 
L 603 4863 
z
" transform="scale(0.015625)"/>
       <path id="DejaVuSans-70" d="M 1159 525 
L 1159 -1331 
L 581 -1331 
L 581 3500 
L 1159 3500 
L 1159 2969 
Q 1341 3281 1617 3432 
Q 1894 3584 2278 3584 
Q 2916 3584 3314 3078 
Q 3713 2572 3713 1747 
Q 3713 922 3314 415 
Q 2916 -91 2278 -91 
Q 1894 -91 1617 61 
Q 1341 213 1159 525 
z
M 3116 1747 
Q 3116 2381 2855 2742 
Q 2594 3103 2138 3103 
Q 1681 3103 1420 2742 
Q 1159 2381 1159 1747 
Q 1159 1113 1420 752 
Q 1681 391 2138 391 
Q 2594 391 2855 752 
Q 3116 1113 3116 1747 
z
" transform="scale(0.015625)"/>
       <path id="DejaVuSans-68" d="M 3513 2113 
L 3513 0 
L 2938 0 
L 2938 2094 
Q 2938 2591 2744 2837 
Q 2550 3084 2163 3084 
Q 1697 3084 1428 2787 
Q 1159 2491 1159 1978 
L 1159 0 
L 581 0 
L 581 4863 
L 1159 4863 
L 1159 2956 
Q 1366 3272 1645 3428 
Q 1925 3584 2291 3584 
Q 2894 3584 3203 3211 
Q 3513 2838 3513 2113 
z
" transform="scale(0.015625)"/>
      </defs>
      <use xlink:href="#DejaVuSans-53"/>
      <use xlink:href="#DejaVuSans-75" transform="translate(63.476562 0)"/>
      <use xlink:href="#DejaVuSans-72" transform="translate(126.855469 0)"/>
      <use xlink:href="#DejaVuSans-66" transform="translate(167.96875 0)"/>
      <use xlink:href="#DejaVuSans-4d" transform="translate(203.173828 0)"/>
      <use xlink:href="#DejaVuSans-4c" transform="translate(289.453125 0)"/>
      <use xlink:href="#DejaVuSans-20" transform="translate(345.166016 0)"/>
      <use xlink:href="#DejaVuSans-2d" transform="translate(376.953125 0)"/>
      <use xlink:href="#DejaVuSans-20" transform="translate(413.037109 0)"/>
      <use xlink:href="#DejaVuSans-4e" transform="translate(444.824219 0)"/>
      <use xlink:href="#DejaVuSans-6f" transform="translate(519.628906 0)"/>
      <use xlink:href="#DejaVuSans-20" transform="translate(580.810547 0)"/>
      <use xlink:href="#DejaVuSans-41" transform="translate(612.597656 0)"/>
      <use xlink:href="#DejaVuSans-6c" transform="translate(681.005859 0)"/>
      <use xlink:href="#DejaVuSans-70" transform="translate(708.789062 0)"/>
      <use xlink:href="#DejaVuSans-68" transform="translate(772.265625 0)"/>
      <use xlink:href="#DejaVuSans-61" transform="translate(835.644531 0)"/>
     </g>
    </g>
   </g>
  </g>
 </g>
 <defs>
  <clipPath id="pcd43d1deb3">
   <rect x="62.58" y="28.08" width="644.46" height="282.9"/>
  </clipPath>
 </defs>
</svg>
