<?xml version="1.0" encoding="utf-8" standalone="no"?>
<!DOCTYPE svg PUBLIC "-//W3C//DTD SVG 1.1//EN"
  "http://www.w3.org/Graphics/SVG/1.1/DTD/svg11.dtd">
<svg xmlns:xlink="http://www.w3.org/1999/xlink" width="720pt" height="360pt" viewBox="0 0 720 360" xmlns="http://www.w3.org/2000/svg" version="1.1">
 <metadata>
  <rdf:RDF xmlns:dc="http://purl.org/dc/elements/1.1/" xmlns:cc="http://creativecommons.org/ns#" xmlns:rdf="http://www.w3.org/1999/02/22-rdf-syntax-ns#">
   <cc:Work>
    <dc:type rdf:resource="http://purl.org/dc/dcmitype/StillImage"/>
    <dc:date>2026-03-25T17:51:06.594773</dc:date>
    <dc:format>image/svg+xml</dc:format>
    <dc:creator>
     <cc:Agent>
      <dc:title>Matplotlib v3.10.6, https://matplotlib.org/</dc:title>
     </cc:Agent>
    </dc:creator>
   </cc:Work>
  </rdf:RDF>
 </metadata>
 <defs>
  <style type="text/css">*{stroke-linejoin: round; stroke-linecap: butt}</style>
 </defs>
 <g id="figure_1">
  <g id="patch_1">
   <path d="M 0 360 
L 720 360 
L 720 0 
L 0 0 
z
" style="fill: #ffffff"/>
  </g>
  <g id="axes_1">
   <g id="patch_2">
    <path d="M 55.56 310.98 
L 707.04 310.98 
L 707.04 28.08 
L 55.56 28.08 
z
" style="fill: #eaeaf2"/>
   </g>
   <g id="matplotlib.axis_1">
    <g id="xtick_1">
     <g id="text_1">
      <!-- 0 -->
      <g style="fill: #262626" transform="translate(81.673352 328.838281) scale(0.11 -0.11)">
       <defs>
        <path id="DejaVuSans-30" d="M 2034 4250 
Q 1547 4250 1301 3770 
Q 1056 3291 1056 2328 
Q 1056 1369 1301 889 
Q 1547 409 2034 409 
Q 2525 409 2770 889 
Q 3016 1369 3016 2328 
Q 3016 3291 2770 3770 
Q 2525 4250 2034 4250 
z
M 2034 4750 
Q 2819 4750 3233 4129 
Q 3647 3509 3647 2328 
Q 3647 1150 3233 529 
Q 2819 -91 2034 -91 
Q 1250 -91 836 529 
Q 422 1150 422 2328 
Q 422 3509 836 4129 
Q 1250 4750 2034 4750 
z
" transform="scale(0.015625)"/>
       </defs>
       <use xlink:href="#DejaVuSans-30"/>
      </g>
     </g>
    </g>
    <g id="xtick_2">
     <g id="text_2">
      <!-- 5 -->
      <g style="fill: #262626" transform="translate(224.385291 328.838281) scale(0.11 -0.11)">
       <defs>
        <path id="DejaVuSans-35" d="M 691 4666 
L 3169 4666 
L 3169 4134 
L 1269 4134 
L 1269 2991 
Q 1406 3038 1543 3061 
Q 1681 3084 1819 3084 
Q 2600 3084 3056 2656 
Q 3513 2228 3513 1497 
Q 3513 744 3044 326 
Q 2575 -91 1722 -91 
Q 1428 -91 1123 -41 
Q 819 9 494 109 
L 494 744 
Q 775 591 1075 516 
Q 1375 441 1709 441 
Q 2250 441 2565 725 
Q 2881 1009 2881 1497 
Q 2881 1984 2565 2268 
Q 2250 2553 1709 2553 
Q 1456 2553 1204 2497 
Q 953 2441 691 2322 
L 691 4666 
z
" transform="scale(0.015625)"/>
       </defs>
       <use xlink:href="#DejaVuSans-35"/>
      </g>
     </g>
    </g>
    <g id="xtick_3">
     <g id="text_3">
      <!-- 10 -->
      <g style="fill: #262626" transform="translate(363.597855 328.838281) scale(0.11 -0.11)">
       <defs>
        <path id="DejaVuSans-31" d="M 794 531 
L 1825 531 
L 1825 4091 
L 703 3866 
L 703 4441 
L 1819 4666 
L 2450 4666 
L 2450 531 
L 3481 531 
L 3481 0 
L 794 0 
L 794 531 
z
" transform="scale(0.015625)"/>
       </defs>
       <use xlink:href="#DejaVuSans-31"/>
       <use xlink:href="#DejaVuSans-30" transform="translate(63.623047 0)"/>
      </g>
     </g>
    </g>
    <g id="xtick_4">
     <g id="text_4">
      <!-- 15 -->
      <g style="fill: #262626" transform="translate(506.309793 328.838281) scale(0.11 -0.11)">
       <use xlink:href="#DejaVuSans-31"/>
       <use xlink:href="#DejaVuSans-35" transform="translate(63.623047 0)"/>
      </g>
     </g>
    </g>
    <g id="xtick_5">
     <g id="text_5">
      <!-- 20 -->
      <g style="fill: #262626" transform="translate(649.021732 328.838281) scale(0.11 -0.11)">
       <defs>
        <path id="DejaVuSans-32" d="M 1228 531 
L 3431 531 
L 3431 0 
L 469 0 
L 469 531 
Q 828 903 1448 1529 
Q 2069 2156 2228 2338 
Q 2531 2678 2651 2914 
Q 2772 3150 2772 3378 
Q 2772 3750 2511 3984 
Q 2250 4219 1831 4219 
Q 1534 4219 1204 4116 
Q 875 4013 500 3803 
L 500 4441 
Q 881 4594 1212 4672 
Q 1544 4750 1819 4750 
Q 2544 4750 2975 4387 
Q 3406 4025 3406 3419 
Q 3406 3131 3298 2873 
Q 3191 2616 2906 2266 
Q 2828 2175 2409 1742 
Q 1991 1309 1228 531 
z
" transform="scale(0.015625)"/>
       </defs>
       <use xlink:href="#DejaVuSans-32"/>
       <use xlink:href="#DejaVuSans-30" transform="translate(63.623047 0)"/>
      </g>
     </g>
    </g>
    <g id="text_6">
     <!-- Time [days] -->
     <g style="fill: #262626" transform="translate(345.868125 344.244062) scale(0.12 -0.12)">
      <defs>
       <path id="DejaVuSans-54" d="M -19 4666 
L 3928 4666 
L 3928 4134 
L 2272 4134 
L 2272 0 
L 1638 0 
L 1638 4134 
L -19 4134 
L -19 4666 
z
" transform="scale(0.015625)"/>
       <path id="DejaVuSans-69" d="M 603 3500 
L 1178 3500 
L 1178 0 
L 603 0 
L 603 3500 
z
M 603 4863 
L 1178 4863 
L 1178 4134 
L 603 4134 
L 603 4863 
z
" transform="scale(0.015625)"/>
       <path id="DejaVuSans-6d" d="M 3328 2828 
Q 3544 3216 3844 3400 
Q 4144 3584 4550 3584 
Q 5097 3584 5394 3201 
Q 5691 2819 5691 2113 
L 5691 0 
L 5113 0 
L 5113 2094 
Q 5113 2597 4934 2840 
Q 4756 3084 4391 3084 
Q 3944 3084 3684 2787 
Q 3425 2491 3425 1978 
L 3425 0 
L 2847 0 
L 2847 2094 
Q 2847 2600 2669 2842 
Q 2491 3084 2119 3084 
Q 1678 3084 1418 2786 
Q 1159 2488 1159 1978 
L 1159 0 
L 581 0 
L 581 3500 
L 1159 3500 
L 1159 2956 
Q 1356 3278 1631 3431 
Q 1906 3584 2284 3584 
Q 2666 3584 2933 3390 
Q 3200 3197 3328 2828 
z
" transform="scale(0.015625)"/>
       <path id="DejaVuSans-65" d="M 3597 1894 
L 3597 1613 
L 953 1613 
Q 991 1019 1311 708 
Q 1631 397 2203 397 
Q 2534 397 2845 478 
Q 3156 559 3463 722 
L 3463 178 
Q 3153 47 2828 -22 
Q 2503 -91 2169 -91 
Q 1331 -91 842 396 
Q 353 884 353 1716 
Q 353 2575 817 3079 
Q 1281 3584 2069 3584 
Q 2775 3584 3186 3129 
Q 3597 2675 3597 1894 
z
M 3022 2063 
Q 3016 2534 2758 2815 
Q 2500 3097 2075 3097 
Q 1594 3097 1305 2825 
Q 1016 2553 972 2059 
L 3022 2063 
z
" transform="scale(0.015625)"/>
       <path id="DejaVuSans-20" transform="scale(0.015625)"/>
       <path id="DejaVuSans-5b" d="M 550 4863 
L 1875 4863 
L 1875 4416 
L 1125 4416 
L 1125 -397 
L 1875 -397 
L 1875 -844 
L 550 -844 
L 550 4863 
z
" transform="scale(0.015625)"/>
       <path id="DejaVuSans-64" d="M 2906 2969 
L 2906 4863 
L 3481 4863 
L 3481 0 
L 2906 0 
L 2906 525 
Q 2725 213 2448 61 
Q 2172 -91 1784 -91 
Q 1150 -91 751 415 
Q 353 922 353 1747 
Q 353 2572 751 3078 
Q 1150 3584 1784 3584 
Q 2172 3584 2448 3432 
Q 2725 3281 2906 2969 
z
M 947 1747 
Q 947 1113 1208 752 
Q 1469 391 1925 391 
Q 2381 391 2643 752 
Q 2906 1113 2906 1747 
Q 2906 2381 2643 2742 
Q 2381 3103 1925 3103 
Q 1469 3103 1208 2742 
Q 947 2381 947 1747 
z
" transform="scale(0.015625)"/>
       <path id="DejaVuSans-61" d="M 2194 1759 
Q 1497 1759 1228 1600 
Q 959 1441 959 1056 
Q 959 750 1161 570 
Q 1363 391 1709 391 
Q 2188 391 2477 730 
Q 2766 1069 2766 1631 
L 2766 1759 
L 2194 1759 
z
M 3341 1997 
L 3341 0 
L 2766 0 
L 2766 531 
Q 2569 213 2275 61 
Q 1981 -91 1556 -91 
Q 1019 -91 701 211 
Q 384 513 384 1019 
Q 384 1609 779 1909 
Q 1175 2209 1959 2209 
L 2766 2209 
L 2766 2266 
Q 2766 2663 2505 2880 
Q 2244 3097 1772 3097 
Q 1472 3097 1187 3025 
Q 903 2953 641 2809 
L 641 3341 
Q 956 3463 1253 3523 
Q 1550 3584 1831 3584 
Q 2591 3584 2966 3190 
Q 3341 2797 3341 1997 
z
" transform="scale(0.015625)"/>
       <path id="DejaVuSans-79" d="M 2059 -325 
Q 1816 -950 1584 -1140 
Q 1353 -1331 966 -1331 
L 506 -1331 
L 506 -850 
L 844 -850 
Q 1081 -850 1212 -737 
Q 1344 -625 1503 -206 
L 1606 56 
L 191 3500 
L 800 3500 
L 1894 763 
L 2988 3500 
L 3597 3500 
L 2059 -325 
z
" transform="scale(0.015625)"/>
       <path id="DejaVuSans-73" d="M 2834 3397 
L 2834 2853 
Q 2591 2978 2328 3040 
Q 2066 3103 1784 3103 
Q 1356 3103 1142 2972 
Q 928 2841 928 2578 
Q 928 2378 1081 2264 
Q 1234 2150 1697 2047 
L 1894 2003 
Q 2506 1872 2764 1633 
Q 3022 1394 3022 966 
Q 3022 478 2636 193 
Q 2250 -91 1575 -91 
Q 1294 -91 989 -36 
Q 684 19 347 128 
L 347 722 
Q 666 556 975 473 
Q 1284 391 1588 391 
Q 1994 391 2212 530 
Q 2431 669 2431 922 
Q 2431 1156 2273 1281 
Q 2116 1406 1581 1522 
L 1381 1569 
Q 847 1681 609 1914 
Q 372 2147 372 2553 
Q 372 3047 722 3315 
Q 1072 3584 1716 3584 
Q 2034 3584 2315 3537 
Q 2597 3491 2834 3397 
z
" transform="scale(0.015625)"/>
       <path id="DejaVuSans-5d" d="M 1947 4863 
L 1947 -844 
L 622 -844 
L 622 -397 
L 1369 -397 
L 1369 4416 
L 622 4416 
L 622 4863 
L 1947 4863 
z
" transform="scale(0.015625)"/>
      </defs>
      <use xlink:href="#DejaVuSans-54"/>
      <use xlink:href="#DejaVuSans-69" transform="translate(57.958984 0)"/>
      <use xlink:href="#DejaVuSans-6d" transform="translate(85.742188 0)"/>
      <use xlink:href="#DejaVuSans-65" transform="translate(183.154297 0)"/>
      <use xlink:href="#DejaVuSans-20" transform="translate(244.677734 0)"/>
      <use xlink:href="#DejaVuSans-5b" transform="translate(276.464844 0)"/>
      <use xlink:href="#DejaVuSans-64" transform="translate(315.478516 0)"/>
      <use xlink:href="#DejaVuSans-61" transform="translate(378.955078 0)"/>
      <use xlink:href="#DejaVuSans-79" transform="translate(440.234375 0)"/>
      <use xlink:href="#DejaVuSans-73" transform="translate(499.414062 0)"/>
      <use xlink:href="#DejaVuSans-5d" transform="translate(551.513672 0)"/>
     </g>
    </g>
   </g>
   <g id="matplotlib.axis_2">
    <g id="ytick_1">
     <g id="text_7">
      <!-- 0.0 -->
      <g style="fill: #262626" transform="translate(28.566563 302.30005) scale(0.11 -0.11)">
       <defs>
        <path id="DejaVuSans-2e" d="M 684 794 
L 1344 794 
L 1344 0 
L 684 0 
L 684 794 
z
" transform="scale(0.015625)"/>
       </defs>
       <use xlink:href="#DejaVuSans-30"/>
       <use xlink:href="#DejaVuSans-2e" transform="translate(63.623047 0)"/>
       <use xlink:href="#DejaVuSans-30" transform="translate(95.410156 0)"/>
      </g>
     </g>
    </g>
    <g id="ytick_2">
     <g id="text_8">
      <!-- 0.2 -->
      <g style="fill: #262626" transform="translate(28.566563 250.863686) scale(0.11 -0.11)">
       <use xlink:href="#DejaVuSans-30"/>
       <use xlink:href="#DejaVuSans-2e" transform="translate(63.623047 0)"/>
       <use xlink:href="#DejaVuSans-32" transform="translate(95.410156 0)"/>
      </g>
     </g>
    </g>
    <g id="ytick_3">
     <g id="text_9">
      <!-- 0.4 -->
      <g style="fill: #262626" transform="translate(28.566563 199.427322) scale(0.11 -0.11)">
       <defs>
        <path id="DejaVuSans-34" d="M 2419 4116 
L 825 1625 
L 2419 1625 
L 2419 4116 
z
M 2253 4666 
L 3047 4666 
L 3047 1625 
L 3713 1625 
L 3713 1100 
L 3047 1100 
L 3047 0 
L 2419 0 
L 2419 1100 
L 313 1100 
L 313 1709 
L 2253 4666 
z
" transform="scale(0.015625)"/>
       </defs>
       <use xlink:href="#DejaVuSans-30"/>
       <use xlink:href="#DejaVuSans-2e" transform="translate(63.623047 0)"/>
       <use xlink:href="#DejaVuSans-34" transform="translate(95.410156 0)"/>
      </g>
     </g>
    </g>
    <g id="ytick_4">
     <g id="text_10">
      <!-- 0.6 -->
      <g style="fill: #262626" transform="translate(28.566563 147.990959) scale(0.11 -0.11)">
       <defs>
        <path id="DejaVuSans-36" d="M 2113 2584 
Q 1688 2584 1439 2293 
Q 1191 2003 1191 1497 
Q 1191 994 1439 701 
Q 1688 409 2113 409 
Q 2538 409 2786 701 
Q 3034 994 3034 1497 
Q 3034 2003 2786 2293 
Q 2538 2584 2113 2584 
z
M 3366 4563 
L 3366 3988 
Q 3128 4100 2886 4159 
Q 2644 4219 2406 4219 
Q 1781 4219 1451 3797 
Q 1122 3375 1075 2522 
Q 1259 2794 1537 2939 
Q 1816 3084 2150 3084 
Q 2853 3084 3261 2657 
Q 3669 2231 3669 1497 
Q 3669 778 3244 343 
Q 2819 -91 2113 -91 
Q 1303 -91 875 529 
Q 447 1150 447 2328 
Q 447 3434 972 4092 
Q 1497 4750 2381 4750 
Q 2619 4750 2861 4703 
Q 3103 4656 3366 4563 
z
" transform="scale(0.015625)"/>
       </defs>
       <use xlink:href="#DejaVuSans-30"/>
       <use xlink:href="#DejaVuSans-2e" transform="translate(63.623047 0)"/>
       <use xlink:href="#DejaVuSans-36" transform="translate(95.410156 0)"/>
      </g>
     </g>
    </g>
    <g id="ytick_5">
     <g id="text_11">
      <!-- 0.8 -->
      <g style="fill: #262626" transform="translate(28.566563 96.554595) scale(0.11 -0.11)">
       <defs>
        <path id="DejaVuSans-38" d="M 2034 2216 
Q 1584 2216 1326 1975 
Q 1069 1734 1069 1313 
Q 1069 891 1326 650 
Q 1584 409 2034 409 
Q 2484 409 2743 651 
Q 3003 894 3003 1313 
Q 3003 1734 2745 1975 
Q 2488 2216 2034 2216 
z
M 1403 2484 
Q 997 2584 770 2862 
Q 544 3141 544 3541 
Q 544 4100 942 4425 
Q 1341 4750 2034 4750 
Q 2731 4750 3128 4425 
Q 3525 4100 3525 3541 
Q 3525 3141 3298 2862 
Q 3072 2584 2669 2484 
Q 3125 2378 3379 2068 
Q 3634 1759 3634 1313 
Q 3634 634 3220 271 
Q 2806 -91 2034 -91 
Q 1263 -91 848 271 
Q 434 634 434 1313 
Q 434 1759 690 2068 
Q 947 2378 1403 2484 
z
M 1172 3481 
Q 1172 3119 1398 2916 
Q 1625 2713 2034 2713 
Q 2441 2713 2670 2916 
Q 2900 3119 2900 3481 
Q 2900 3844 2670 4047 
Q 2441 4250 2034 4250 
Q 1625 4250 1398 4047 
Q 1172 3844 1172 3481 
z
" transform="scale(0.015625)"/>
       </defs>
       <use xlink:href="#DejaVuSans-30"/>
       <use xlink:href="#DejaVuSans-2e" transform="translate(63.623047 0)"/>
       <use xlink:href="#DejaVuSans-38" transform="translate(95.410156 0)"/>
      </g>
     </g>
    </g>
    <g id="ytick_6">
     <g id="text_12">
      <!-- 1.0 -->
      <g style="fill: #262626" transform="translate(28.566563 45.118232) scale(0.11 -0.11)">
       <use xlink:href="#DejaVuSans-31"/>
       <use xlink:href="#DejaVuSans-2e" transform="translate(63.623047 0)"/>
       <use xlink:href="#DejaVuSans-30" transform="translate(95.410156 0)"/>
      </g>
     </g>
    </g>
    <g id="text_13">
     <!-- Gradient nRMSE -->
     <g style="fill: #262626" transform="translate(22.070938 218.300625) rotate(-90) scale(0.12 -0.12)">
      <defs>
       <path id="DejaVuSans-47" d="M 3809 666 
L 3809 1919 
L 2778 1919 
L 2778 2438 
L 4434 2438 
L 4434 434 
Q 4069 175 3628 42 
Q 3188 -91 2688 -91 
Q 1594 -91 976 548 
Q 359 1188 359 2328 
Q 359 3472 976 4111 
Q 1594 4750 2688 4750 
Q 3144 4750 3555 4637 
Q 3966 4525 4313 4306 
L 4313 3634 
Q 3963 3931 3569 4081 
Q 3175 4231 2741 4231 
Q 1884 4231 1454 3753 
Q 1025 3275 1025 2328 
Q 1025 1384 1454 906 
Q 1884 428 2741 428 
Q 3075 428 3337 486 
Q 3600 544 3809 666 
z
" transform="scale(0.015625)"/>
       <path id="DejaVuSans-72" d="M 2631 2963 
Q 2534 3019 2420 3045 
Q 2306 3072 2169 3072 
Q 1681 3072 1420 2755 
Q 1159 2438 1159 1844 
L 1159 0 
L 581 0 
L 581 3500 
L 1159 3500 
L 1159 2956 
Q 1341 3275 1631 3429 
Q 1922 3584 2338 3584 
Q 2397 3584 2469 3576 
Q 2541 3569 2628 3553 
L 2631 2963 
z
" transform="scale(0.015625)"/>
       <path id="DejaVuSans-6e" d="M 3513 2113 
L 3513 0 
L 2938 0 
L 2938 2094 
Q 2938 2591 2744 2837 
Q 2550 3084 2163 3084 
Q 1697 3084 1428 2787 
Q 1159 2491 1159 1978 
L 1159 0 
L 581 0 
L 581 3500 
L 1159 3500 
L 1159 2956 
Q 1366 3272 1645 3428 
Q 1925 3584 2291 3584 
Q 2894 3584 3203 3211 
Q 3513 2838 3513 2113 
z
" transform="scale(0.015625)"/>
       <path id="DejaVuSans-74" d="M 1172 4494 
L 1172 3500 
L 2356 3500 
L 2356 3053 
L 1172 3053 
L 1172 1153 
Q 1172 725 1289 603 
Q 1406 481 1766 481 
L 2356 481 
L 2356 0 
L 1766 0 
Q 1100 0 847 248 
Q 594 497 594 1153 
L 594 3053 
L 172 3053 
L 172 3500 
L 594 3500 
L 594 4494 
L 1172 4494 
z
" transform="scale(0.015625)"/>
       <path id="DejaVuSans-52" d="M 2841 2188 
Q 3044 2119 3236 1894 
Q 3428 1669 3622 1275 
L 4263 0 
L 3584 0 
L 2988 1197 
Q 2756 1666 2539 1819 
Q 2322 1972 1947 1972 
L 1259 1972 
L 1259 0 
L 628 0 
L 628 4666 
L 2053 4666 
Q 2853 4666 3247 4331 
Q 3641 3997 3641 3322 
Q 3641 2881 3436 2590 
Q 3231 2300 2841 2188 
z
M 1259 4147 
L 1259 2491 
L 2053 2491 
Q 2509 2491 2742 2702 
Q 2975 2913 2975 3322 
Q 2975 3731 2742 3939 
Q 2509 4147 2053 4147 
L 1259 4147 
z
" transform="scale(0.015625)"/>
       <path id="DejaVuSans-4d" d="M 628 4666 
L 1569 4666 
L 2759 1491 
L 3956 4666 
L 4897 4666 
L 4897 0 
L 4281 0 
L 4281 4097 
L 3078 897 
L 2444 897 
L 1241 4097 
L 1241 0 
L 628 0 
L 628 4666 
z
" transform="scale(0.015625)"/>
       <path id="DejaVuSans-53" d="M 3425 4513 
L 3425 3897 
Q 3066 4069 2747 4153 
Q 2428 4238 2131 4238 
Q 1616 4238 1336 4038 
Q 1056 3838 1056 3469 
Q 1056 3159 1242 3001 
Q 1428 2844 1947 2747 
L 2328 2669 
Q 3034 2534 3370 2195 
Q 3706 1856 3706 1288 
Q 3706 609 3251 259 
Q 2797 -91 1919 -91 
Q 1588 -91 1214 -16 
Q 841 59 441 206 
L 441 856 
Q 825 641 1194 531 
Q 1563 422 1919 422 
Q 2459 422 2753 634 
Q 3047 847 3047 1241 
Q 3047 1584 2836 1778 
Q 2625 1972 2144 2069 
L 1759 2144 
Q 1053 2284 737 2584 
Q 422 2884 422 3419 
Q 422 4038 858 4394 
Q 1294 4750 2059 4750 
Q 2388 4750 2728 4690 
Q 3069 4631 3425 4513 
z
" transform="scale(0.015625)"/>
       <path id="DejaVuSans-45" d="M 628 4666 
L 3578 4666 
L 3578 4134 
L 1259 4134 
L 1259 2753 
L 3481 2753 
L 3481 2222 
L 1259 2222 
L 1259 531 
L 3634 531 
L 3634 0 
L 628 0 
L 628 4666 
z
" transform="scale(0.015625)"/>
      </defs>
      <use xlink:href="#DejaVuSans-47"/>
      <use xlink:href="#DejaVuSans-72" transform="translate(77.490234 0)"/>
      <use xlink:href="#DejaVuSans-61" transform="translate(118.603516 0)"/>
      <use xlink:href="#DejaVuSans-64" transform="translate(179.882812 0)"/>
      <use xlink:href="#DejaVuSans-69" transform="translate(243.359375 0)"/>
      <use xlink:href="#DejaVuSans-65" transform="translate(271.142578 0)"/>
      <use xlink:href="#DejaVuSans-6e" transform="translate(332.666016 0)"/>
      <use xlink:href="#DejaVuSans-74" transform="translate(396.044922 0)"/>
      <use xlink:href="#DejaVuSans-20" transform="translate(435.253906 0)"/>
      <use xlink:href="#DejaVuSans-6e" transform="translate(467.041016 0)"/>
      <use xlink:href="#DejaVuSans-52" transform="translate(530.419922 0)"/>
      <use xlink:href="#DejaVuSans-4d" transform="translate(599.902344 0)"/>
      <use xlink:href="#DejaVuSans-53" transform="translate(686.181641 0)"/>
      <use xlink:href="#DejaVuSans-45" transform="translate(749.658203 0)"/>
     </g>
    </g>
   </g>
   <g id="FillBetweenPolyCollection_1">
    <path d="M 85.172727 298.120909 
L 85.172727 298.120909 
L 87.55126 294.533531 
L 89.929792 290.951984 
L 92.308324 287.376831 
L 94.686857 283.80861 
L 97.065389 280.247826 
L 99.443921 276.694944 
L 101.822453 273.150406 
L 104.200986 269.614631 
L 106.579518 266.08801 
L 108.95805 262.570909 
L 111.336583 259.063662 
L 113.715115 255.566582 
L 116.093647 252.079964 
L 118.47218 248.604083 
L 120.850712 245.13919 
L 123.229244 241.685514 
L 125.607777 238.243266 
L 127.986309 234.81264 
L 130.364841 231.393801 
L 132.743373 227.986893 
L 135.121906 224.59204 
L 137.500438 221.209352 
L 139.87897 217.83892 
L 142.257503 214.480811 
L 144.636035 211.135078 
L 147.014567 207.80176 
L 149.3931 204.480877 
L 151.771632 201.172441 
L 154.150164 197.876455 
L 156.528697 194.592918 
L 158.907229 191.321811 
L 161.285761 188.063096 
L 163.664294 184.816714 
L 166.042826 181.582603 
L 168.421358 178.360685 
L 170.79989 175.150875 
L 173.178423 171.953086 
L 175.556955 168.767224 
L 177.935487 165.593203 
L 180.31402 162.43093 
L 182.692552 159.280312 
L 185.071084 156.141248 
L 187.449617 153.013638 
L 189.828149 149.897374 
L 192.206681 146.792346 
L 194.585214 143.698438 
L 196.963746 140.615542 
L 199.342278 137.543546 
L 201.720811 134.482335 
L 204.099343 131.431799 
L 206.477875 128.391829 
L 208.856407 125.362325 
L 211.23494 122.343195 
L 213.613472 119.334345 
L 215.992004 116.335684 
L 218.370537 113.347121 
L 220.749069 110.368564 
L 223.127601 107.399927 
L 225.506134 104.441126 
L 227.884666 101.492082 
L 230.263198 98.552722 
L 232.641731 95.622977 
L 235.020263 92.702782 
L 237.398795 89.792072 
L 239.777327 86.890782 
L 242.15586 83.998851 
L 244.534392 81.116226 
L 246.912924 78.24285 
L 249.291457 75.378673 
L 251.669989 72.523648 
L 254.048521 69.677735 
L 256.427054 66.840894 
L 258.805586 64.013083 
L 261.184118 61.194258 
L 263.562651 58.384377 
L 265.941183 55.583406 
L 268.319715 52.791317 
L 270.698248 50.008089 
L 273.07678 47.233707 
L 275.455312 44.468156 
L 277.833844 41.711421 
L 280.212377 38.963486 
L 282.590909 36.224333 
L 284.969441 33.493961 
L 287.347974 30.772375 
L 289.726506 28.059583 
L 292.105038 25.35559 
L 294.483571 22.660399 
L 296.862103 19.974011 
L 299.240635 17.296435 
L 301.619168 14.627679 
L 303.9977 11.967765 
L 306.376232 9.316712 
L 308.754765 6.674545 
L 311.133297 4.04129 
L 313.511829 1.416972 
L 315.890361 -1.198374 
L 318.268894 -3.804712 
L 320.647426 -6.401995 
L 323.025958 -8.990166 
L 325.404491 -11.569175 
L 327.783023 -14.13896 
L 330.161555 -16.699452 
L 332.540088 -19.250579 
L 334.91862 -21.792258 
L 337.297152 -24.324402 
L 339.675685 -26.846907 
L 342.054217 -29.359665 
L 344.432749 -31.862548 
L 346.811281 -34.355415 
L 349.189814 -36.83812 
L 351.568346 -39.310503 
L 353.946878 -41.772403 
L 356.325411 -44.22364 
L 358.703943 -46.664022 
L 361.082475 -49.093344 
L 363.461008 -51.51139 
L 365.83954 -53.917941 
L 368.218072 -56.312769 
L 370.596605 -58.695635 
L 372.975137 -61.066285 
L 375.353669 -63.424457 
L 377.732202 -65.769883 
L 380.110734 -68.102288 
L 382.489266 -70.421388 
L 384.867798 -72.72689 
L 387.246331 -75.018493 
L 389.624863 -77.295887 
L 392.003395 -79.558756 
L 394.381928 -81.806783 
L 396.76046 -84.039647 
L 399.138992 -86.257029 
L 401.517525 -88.45861 
L 403.896057 -90.644067 
L 406.274589 -92.813071 
L 408.653122 -94.965292 
L 411.031654 -97.100405 
L 413.410186 -99.218088 
L 415.788719 -101.318023 
L 418.167251 -103.399898 
L 420.545783 -105.463395 
L 422.924315 -107.508204 
L 425.302848 -109.53402 
L 427.68138 -111.540544 
L 430.059912 -113.52749 
L 432.438445 -115.49457 
L 434.816977 -117.441513 
L 437.195509 -119.368059 
L 439.574042 -121.273962 
L 441.952574 -123.158992 
L 444.331106 -125.022932 
L 446.709639 -126.865582 
L 449.088171 -128.686755 
L 451.466703 -130.486278 
L 453.845235 -132.263987 
L 456.223768 -134.019743 
L 458.6023 -135.753426 
L 460.980832 -137.464938 
L 463.359365 -139.154204 
L 465.737897 -140.821169 
L 468.116429 -142.465787 
L 470.494962 -144.088032 
L 472.873494 -145.687896 
L 475.252026 -147.265386 
L 477.630559 -148.820525 
L 480.009091 -150.353351 
L 482.387623 -151.863921 
L 484.766156 -153.35231 
L 487.144688 -154.818623 
L 489.52322 -156.262975 
L 491.901752 -157.685497 
L 494.280285 -159.086328 
L 496.658817 -160.465621 
L 499.037349 -161.823542 
L 501.415882 -163.160268 
L 503.794414 -164.475997 
L 506.172946 -165.770933 
L 508.551479 -167.045291 
L 510.930011 -168.299296 
L 513.308543 -169.533181 
L 515.687076 -170.747188 
L 518.065608 -171.941567 
L 520.44414 -173.116578 
L 522.822673 -174.272489 
L 525.201205 -175.409568 
L 527.579737 -176.528085 
L 529.958269 -177.628316 
L 532.336802 -178.710538 
L 534.715334 -179.775037 
L 537.093866 -180.822106 
L 539.472399 -181.852045 
L 541.850931 -182.865155 
L 544.229463 -183.861728 
L 546.607996 -184.84205 
L 548.986528 -185.806403 
L 551.36506 -186.755064 
L 553.743593 -187.688308 
L 556.122125 -188.60641 
L 558.500657 -189.509638 
L 560.879189 -190.398262 
L 563.257722 -191.272549 
L 565.636254 -192.132764 
L 568.014786 -192.979174 
L 570.393319 -193.812044 
L 572.771851 -194.63163 
L 575.150383 -195.438176 
L 577.528916 -196.231921 
L 579.907448 -197.013099 
L 582.28598 -197.781938 
L 584.664513 -198.538655 
L 587.043045 -199.283456 
L 589.421577 -200.016549 
L 591.80011 -200.738129 
L 594.178642 -201.448385 
L 596.557174 -202.147494 
L 598.935706 -202.835628 
L 601.314239 -203.512968 
L 603.692771 -204.179707 
L 606.071303 -204.836043 
L 608.449836 -205.482157 
L 610.828368 -206.118225 
L 613.2069 -206.744398 
L 615.585433 -207.36082 
L 617.963965 -207.967648 
L 620.342497 -208.565028 
L 622.72103 -209.153075 
L 625.099562 -209.731938 
L 627.478094 -210.301767 
L 629.856627 -210.862709 
L 632.235159 -211.414906 
L 634.613691 -211.958501 
L 636.992223 -212.493651 
L 639.370756 -213.020503 
L 641.749288 -213.539203 
L 644.12782 -214.049893 
L 646.506353 -214.552736 
L 648.884885 -215.047898 
L 651.263417 -215.535538 
L 653.64195 -216.015809 
L 656.020482 -216.488869 
L 658.399014 -216.954851 
L 660.777547 -217.413894 
L 663.156079 -217.866145 
L 665.534611 -218.311759 
L 667.913143 -218.750896 
L 670.291676 -219.183683 
L 672.670208 -219.610253 
L 675.04874 -220.030771 
L 677.427273 -220.445385 
L 677.427273 -331.701779 
L 677.427273 -331.701779 
L 675.04874 -331.751908 
L 672.670208 -331.797663 
L 670.291676 -331.838832 
L 667.913143 -331.875225 
L 665.534611 -331.906625 
L 663.156079 -331.932822 
L 660.777547 -331.953585 
L 658.399014 -331.968665 
L 656.020482 -331.977823 
L 653.64195 -331.980824 
L 651.263417 -331.977438 
L 648.884885 -331.967425 
L 646.506353 -331.950527 
L 644.12782 -331.926462 
L 641.749288 -331.894962 
L 639.370756 -331.85576 
L 636.992223 -331.808593 
L 634.613691 -331.753189 
L 632.235159 -331.689269 
L 629.856627 -331.616547 
L 627.478094 -331.534749 
L 625.099562 -331.443592 
L 622.72103 -331.342796 
L 620.342497 -331.232082 
L 617.963965 -331.111166 
L 615.585433 -330.979787 
L 613.2069 -330.837662 
L 610.828368 -330.684511 
L 608.449836 -330.520057 
L 606.071303 -330.344014 
L 603.692771 -330.156087 
L 601.314239 -329.955973 
L 598.935706 -329.743356 
L 596.557174 -329.517929 
L 594.178642 -329.279399 
L 591.80011 -329.027494 
L 589.421577 -328.761951 
L 587.043045 -328.482504 
L 584.664513 -328.188882 
L 582.28598 -327.880817 
L 579.907448 -327.558051 
L 577.528916 -327.220331 
L 575.150383 -326.867394 
L 572.771851 -326.498992 
L 570.393319 -326.114877 
L 568.014786 -325.714806 
L 565.636254 -325.298542 
L 563.257722 -324.865863 
L 560.879189 -324.416557 
L 558.500657 -323.950415 
L 556.122125 -323.467235 
L 553.743593 -322.966819 
L 551.36506 -322.448972 
L 548.986528 -321.913515 
L 546.607996 -321.360269 
L 544.229463 -320.789063 
L 541.850931 -320.199724 
L 539.472399 -319.592081 
L 537.093866 -318.965968 
L 534.715334 -318.321217 
L 532.336802 -317.657672 
L 529.958269 -316.975182 
L 527.579737 -316.273603 
L 525.201205 -315.552794 
L 522.822673 -314.812611 
L 520.44414 -314.052913 
L 518.065608 -313.273552 
L 515.687076 -312.474373 
L 513.308543 -311.655229 
L 510.930011 -310.815975 
L 508.551479 -309.956457 
L 506.172946 -309.076513 
L 503.794414 -308.175975 
L 501.415882 -307.25467 
L 499.037349 -306.312411 
L 496.658817 -305.349006 
L 494.280285 -304.364263 
L 491.901752 -303.357979 
L 489.52322 -302.32995 
L 487.144688 -301.279963 
L 484.766156 -300.207798 
L 482.387623 -299.113224 
L 480.009091 -297.995998 
L 477.630559 -296.855868 
L 475.252026 -295.69257 
L 472.873494 -294.505825 
L 470.494962 -293.29535 
L 468.116429 -292.060847 
L 465.737897 -290.802007 
L 463.359365 -289.518495 
L 460.980832 -288.209973 
L 458.6023 -286.876089 
L 456.223768 -285.516483 
L 453.845235 -284.130783 
L 451.466703 -282.718606 
L 449.088171 -281.279561 
L 446.709639 -279.813261 
L 444.331106 -278.319315 
L 441.952574 -276.797321 
L 439.574042 -275.24688 
L 437.195509 -273.667592 
L 434.816977 -272.059052 
L 432.438445 -270.420852 
L 430.059912 -268.752581 
L 427.68138 -267.053836 
L 425.302848 -265.324216 
L 422.924315 -263.563316 
L 420.545783 -261.77073 
L 418.167251 -259.946059 
L 415.788719 -258.088903 
L 413.410186 -256.19886 
L 411.031654 -254.275528 
L 408.653122 -252.318514 
L 406.274589 -250.32742 
L 403.896057 -248.301863 
L 401.517525 -246.241463 
L 399.138992 -244.145849 
L 396.76046 -242.014658 
L 394.381928 -239.847531 
L 392.003395 -237.644125 
L 389.624863 -235.404103 
L 387.246331 -233.12714 
L 384.867798 -230.812928 
L 382.489266 -228.461166 
L 380.110734 -226.071569 
L 377.732202 -223.643866 
L 375.353669 -221.1778 
L 372.975137 -218.67313 
L 370.596605 -216.12963 
L 368.218072 -213.547095 
L 365.83954 -210.92533 
L 363.461008 -208.264153 
L 361.082475 -205.563404 
L 358.703943 -202.822948 
L 356.325411 -200.042672 
L 353.946878 -197.222474 
L 351.568346 -194.36227 
L 349.189814 -191.461993 
L 346.811281 -188.521593 
L 344.432749 -185.541048 
L 342.054217 -182.520346 
L 339.675685 -179.459491 
L 337.297152 -176.358505 
L 334.91862 -173.21743 
L 332.540088 -170.036312 
L 330.161555 -166.81522 
L 327.783023 -163.554249 
L 325.404491 -160.253517 
L 323.025958 -156.91316 
L 320.647426 -153.533325 
L 318.268894 -150.114178 
L 315.890361 -146.655895 
L 313.511829 -143.158675 
L 311.133297 -139.622727 
L 308.754765 -136.048279 
L 306.376232 -132.435577 
L 303.9977 -128.784869 
L 301.619168 -125.096422 
L 299.240635 -121.37052 
L 296.862103 -117.607461 
L 294.483571 -113.80756 
L 292.105038 -109.971141 
L 289.726506 -106.098546 
L 287.347974 -102.190134 
L 284.969441 -98.246277 
L 282.590909 -94.267362 
L 280.212377 -90.253794 
L 277.833844 -86.205995 
L 275.455312 -82.124401 
L 273.07678 -78.009457 
L 270.698248 -73.861622 
L 268.319715 -69.681366 
L 265.941183 -65.469169 
L 263.562651 -61.225523 
L 261.184118 -56.950934 
L 258.805586 -52.645918 
L 256.427054 -48.311003 
L 254.048521 -43.94673 
L 251.669989 -39.553653 
L 249.291457 -35.132339 
L 246.912924 -30.683367 
L 244.534392 -26.207328 
L 242.15586 -21.704816 
L 239.777327 -17.176434 
L 237.398795 -12.6228 
L 235.020263 -8.044537 
L 232.641731 -3.442281 
L 230.263198 1.183318 
L 227.884666 5.831598 
L 225.506134 10.50189 
L 223.127601 15.193515 
L 220.749069 19.905784 
L 218.370537 24.637998 
L 215.992004 29.389452 
L 213.613472 34.159432 
L 211.23494 38.947217 
L 208.856407 43.75207 
L 206.477875 48.573241 
L 204.099343 53.409969 
L 201.720811 58.26149 
L 199.342278 63.127026 
L 196.963746 68.005797 
L 194.585214 72.897012 
L 192.206681 77.799869 
L 189.828149 82.713559 
L 187.449617 87.637277 
L 185.071084 92.570208 
L 182.692552 97.511537 
L 180.31402 102.460448 
L 177.935487 107.416126 
L 175.556955 112.377755 
L 173.178423 117.344522 
L 170.79989 122.315616 
L 168.421358 127.290243 
L 166.042826 132.267599 
L 163.664294 137.246898 
L 161.285761 142.227361 
L 158.907229 147.208203 
L 156.528697 152.188654 
L 154.150164 157.167923 
L 151.771632 162.145222 
L 149.3931 167.119772 
L 147.014567 172.09084 
L 144.636035 177.057697 
L 142.257503 182.019657 
L 139.87897 186.976033 
L 137.500438 191.926147 
L 135.121906 196.869332 
L 132.743373 201.804924 
L 130.364841 206.732282 
L 127.986309 211.650786 
L 125.607777 216.559839 
L 123.229244 221.458868 
L 120.850712 226.347327 
L 118.47218 231.224695 
L 116.093647 236.090485 
L 113.715115 240.944235 
L 111.336583 245.785503 
L 108.95805 250.613877 
L 106.579518 255.428971 
L 104.200986 260.230437 
L 101.822453 265.017959 
L 99.443921 269.791246 
L 97.065389 274.550042 
L 94.686857 279.294143 
L 92.308324 284.023393 
L 89.929792 288.737658 
L 87.55126 293.436843 
L 85.172727 298.120909 
z
" clip-path="url(#p52f2a19ce5)" style="fill-opacity: 0.1; stroke: #000000; stroke-opacity: 0.1"/>
   </g>
   <g id="FillBetweenPolyCollection_2">
    <path d="M 85.172727 298.120909 
L 85.172727 298.120909 
L 87.55126 295.011972 
L 89.929792 291.919059 
L 92.308324 288.842658 
L 94.686857 285.783269 
L 97.065389 282.7414 
L 99.443921 279.717558 
L 101.822453 276.712257 
L 104.200986 273.726011 
L 106.579518 270.759339 
L 108.95805 267.812757 
L 111.336583 264.886779 
L 113.715115 261.981917 
L 116.093647 259.098687 
L 118.47218 256.237598 
L 120.850712 253.399151 
L 123.229244 250.583846 
L 125.607777 247.792175 
L 127.986309 245.024617 
L 130.364841 242.281642 
L 132.743373 239.563714 
L 135.121906 236.871289 
L 137.500438 234.20481 
L 139.87897 231.564714 
L 142.257503 228.951413 
L 144.636035 226.365306 
L 147.014567 223.806781 
L 149.3931 221.276198 
L 151.771632 218.773933 
L 154.150164 216.30034 
L 156.528697 213.855789 
L 158.907229 211.440625 
L 161.285761 209.055169 
L 163.664294 206.699703 
L 166.042826 204.374517 
L 168.421358 202.079885 
L 170.79989 199.816079 
L 173.178423 197.583359 
L 175.556955 195.381978 
L 177.935487 193.212198 
L 180.31402 191.074277 
L 182.692552 188.96847 
L 185.071084 186.895022 
L 187.449617 184.854178 
L 189.828149 182.846177 
L 192.206681 180.871255 
L 194.585214 178.92964 
L 196.963746 177.021564 
L 199.342278 175.14725 
L 201.720811 173.306916 
L 204.099343 171.500776 
L 206.477875 169.729037 
L 208.856407 167.991907 
L 211.23494 166.289594 
L 213.613472 164.622293 
L 215.992004 162.99019 
L 218.370537 161.39346 
L 220.749069 159.832279 
L 223.127601 158.306822 
L 225.506134 156.817252 
L 227.884666 155.363728 
L 230.263198 153.946399 
L 232.641731 152.565402 
L 235.020263 151.220859 
L 237.398795 149.912886 
L 239.777327 148.641593 
L 242.15586 147.407086 
L 244.534392 146.20948 
L 246.912924 145.048864 
L 249.291457 143.92532 
L 251.669989 142.838922 
L 254.048521 141.789734 
L 256.427054 140.777793 
L 258.805586 139.803129 
L 261.184118 138.865754 
L 263.562651 137.965659 
L 265.941183 137.102815 
L 268.319715 136.277173 
L 270.698248 135.488678 
L 273.07678 134.737255 
L 275.455312 134.022797 
L 277.833844 133.345176 
L 280.212377 132.704226 
L 282.590909 132.099757 
L 284.969441 131.531576 
L 287.347974 130.999459 
L 289.726506 130.503159 
L 292.105038 130.042393 
L 294.483571 129.616848 
L 296.862103 129.226186 
L 299.240635 128.870042 
L 301.619168 128.548032 
L 303.9977 128.259751 
L 306.376232 128.004763 
L 308.754765 127.782608 
L 311.133297 127.592792 
L 313.511829 127.434788 
L 315.890361 127.308045 
L 318.268894 127.211977 
L 320.647426 127.14598 
L 323.025958 127.10942 
L 325.404491 127.101629 
L 327.783023 127.121919 
L 330.161555 127.16958 
L 332.540088 127.243866 
L 334.91862 127.344008 
L 337.297152 127.46921 
L 339.675685 127.618655 
L 342.054217 127.791503 
L 344.432749 127.986899 
L 346.811281 128.203966 
L 349.189814 128.4418 
L 351.568346 128.699488 
L 353.946878 128.976103 
L 356.325411 129.270704 
L 358.703943 129.582339 
L 361.082475 129.91005 
L 363.461008 130.252864 
L 365.83954 130.609798 
L 368.218072 130.979857 
L 370.596605 131.362047 
L 372.975137 131.755366 
L 375.353669 132.158805 
L 377.732202 132.571348 
L 380.110734 132.991969 
L 382.489266 133.419639 
L 384.867798 133.853326 
L 387.246331 134.291997 
L 389.624863 134.734621 
L 392.003395 135.180164 
L 394.381928 135.627592 
L 396.76046 136.075871 
L 399.138992 136.523972 
L 401.517525 136.970863 
L 403.896057 137.415513 
L 406.274589 137.8569 
L 408.653122 138.29401 
L 411.031654 138.725828 
L 413.410186 139.151343 
L 415.788719 139.569548 
L 418.167251 139.979442 
L 420.545783 140.38003 
L 422.924315 140.77032 
L 425.302848 141.149318 
L 427.68138 141.516031 
L 430.059912 141.869459 
L 432.438445 142.208596 
L 434.816977 142.532415 
L 437.195509 142.839878 
L 439.574042 143.129924 
L 441.952574 143.401472 
L 444.331106 143.65341 
L 446.709639 143.884595 
L 449.088171 144.093852 
L 451.466703 144.279962 
L 453.845235 144.441669 
L 456.223768 144.577658 
L 458.6023 144.686562 
L 460.980832 144.766959 
L 463.359365 144.817376 
L 465.737897 144.836284 
L 468.116429 144.822108 
L 470.494962 144.773222 
L 472.873494 144.687945 
L 475.252026 144.564551 
L 477.630559 144.401274 
L 480.009091 144.196315 
L 482.387623 143.947841 
L 484.766156 143.653999 
L 487.144688 143.312914 
L 489.52322 142.922705 
L 491.901752 142.481503 
L 494.280285 141.98745 
L 496.658817 141.438725 
L 499.037349 140.833543 
L 501.415882 140.170178 
L 503.794414 139.446961 
L 506.172946 138.662305 
L 508.551479 137.814707 
L 510.930011 136.902761 
L 513.308543 135.925159 
L 515.687076 134.880705 
L 518.065608 133.76832 
L 520.44414 132.587056 
L 522.822673 131.336091 
L 525.201205 130.014733 
L 527.579737 128.622423 
L 529.958269 127.158735 
L 532.336802 125.623378 
L 534.715334 124.016189 
L 537.093866 122.337132 
L 539.472399 120.58629 
L 541.850931 118.763861 
L 544.229463 116.870138 
L 546.607996 114.905527 
L 548.986528 112.870533 
L 551.36506 110.765761 
L 553.743593 108.591898 
L 556.122125 106.349713 
L 558.500657 104.040022 
L 560.879189 101.663711 
L 563.257722 99.221745 
L 565.636254 96.715143 
L 568.014786 94.144968 
L 570.393319 91.512332 
L 572.771851 88.818365 
L 575.150383 86.064231 
L 577.528916 83.251139 
L 579.907448 80.380312 
L 582.28598 77.452992 
L 584.664513 74.470435 
L 587.043045 71.43389 
L 589.421577 68.344633 
L 591.80011 65.203937 
L 594.178642 62.013066 
L 596.557174 58.773296 
L 598.935706 55.485876 
L 601.314239 52.152047 
L 603.692771 48.773031 
L 606.071303 45.350023 
L 608.449836 41.884209 
L 610.828368 38.376735 
L 613.2069 34.828739 
L 615.585433 31.241327 
L 617.963965 27.615574 
L 620.342497 23.952535 
L 622.72103 20.253208 
L 625.099562 16.518578 
L 627.478094 12.749606 
L 629.856627 8.947205 
L 632.235159 5.112268 
L 634.613691 1.245652 
L 636.992223 -2.651784 
L 639.370756 -6.579196 
L 641.749288 -10.535781 
L 644.12782 -14.520762 
L 646.506353 -18.533385 
L 648.884885 -22.572904 
L 651.263417 -26.638598 
L 653.64195 -30.729759 
L 656.020482 -34.845718 
L 658.399014 -38.985834 
L 660.777547 -43.149475 
L 663.156079 -47.336017 
L 665.534611 -51.544853 
L 667.913143 -55.775398 
L 670.291676 -60.027092 
L 672.670208 -64.29939 
L 675.04874 -68.591745 
L 677.427273 -72.903622 
L 677.427273 -200.575585 
L 677.427273 -200.575585 
L 675.04874 -195.689819 
L 672.670208 -190.833793 
L 670.291676 -186.007739 
L 667.913143 -181.211936 
L 665.534611 -176.446673 
L 663.156079 -171.712215 
L 660.777547 -167.008878 
L 658.399014 -162.33701 
L 656.020482 -157.696978 
L 653.64195 -153.089151 
L 651.263417 -148.513924 
L 648.884885 -143.971702 
L 646.506353 -139.462891 
L 644.12782 -134.987888 
L 641.749288 -130.547092 
L 639.370756 -126.14092 
L 636.992223 -121.769786 
L 634.613691 -117.434107 
L 632.235159 -113.13431 
L 629.856627 -108.870842 
L 627.478094 -104.644184 
L 625.099562 -100.454793 
L 622.72103 -96.303138 
L 620.342497 -92.189699 
L 617.963965 -88.114983 
L 615.585433 -84.079512 
L 613.2069 -80.083806 
L 610.828368 -76.12839 
L 608.449836 -72.21381 
L 606.071303 -68.340623 
L 603.692771 -64.509417 
L 601.314239 -60.720783 
L 598.935706 -56.975356 
L 596.557174 -53.273786 
L 594.178642 -49.616731 
L 591.80011 -46.004874 
L 589.421577 -42.438928 
L 587.043045 -38.919638 
L 584.664513 -35.447778 
L 582.28598 -32.024128 
L 579.907448 -28.649474 
L 577.528916 -25.324616 
L 575.150383 -22.050402 
L 572.771851 -18.827705 
L 570.393319 -15.657403 
L 568.014786 -12.540391 
L 565.636254 -9.477605 
L 563.257722 -6.469999 
L 560.879189 -3.518553 
L 558.500657 -0.624263 
L 556.122125 2.211854 
L 553.743593 4.988742 
L 551.36506 7.705343 
L 548.986528 10.360593 
L 546.607996 12.953434 
L 544.229463 15.482836 
L 541.850931 17.94776 
L 539.472399 20.347158 
L 537.093866 22.679986 
L 534.715334 24.945217 
L 532.336802 27.141862 
L 529.958269 29.268977 
L 527.579737 31.325654 
L 525.201205 33.311029 
L 522.822673 35.224277 
L 520.44414 37.064637 
L 518.065608 38.831416 
L 515.687076 40.523994 
L 513.308543 42.141856 
L 510.930011 43.684545 
L 508.551479 45.151679 
L 506.172946 46.542975 
L 503.794414 47.858245 
L 501.415882 49.097397 
L 499.037349 50.260446 
L 496.658817 51.347533 
L 494.280285 52.358909 
L 491.901752 53.294933 
L 489.52322 54.156093 
L 487.144688 54.943006 
L 484.766156 55.656409 
L 482.387623 56.297175 
L 480.009091 56.866302 
L 477.630559 57.364933 
L 475.252026 57.794354 
L 472.873494 58.156001 
L 470.494962 58.451428 
L 468.116429 58.682325 
L 465.737897 58.850515 
L 463.359365 58.957957 
L 460.980832 59.006729 
L 458.6023 58.999024 
L 456.223768 58.937137 
L 453.845235 58.823458 
L 451.466703 58.660462 
L 449.088171 58.450696 
L 446.709639 58.196769 
L 444.331106 57.90134 
L 441.952574 57.56711 
L 439.574042 57.196802 
L 437.195509 56.793167 
L 434.816977 56.358953 
L 432.438445 55.896908 
L 430.059912 55.409774 
L 427.68138 54.900268 
L 425.302848 54.371081 
L 422.924315 53.824888 
L 420.545783 53.264321 
L 418.167251 52.691954 
L 415.788719 52.110321 
L 413.410186 51.52191 
L 411.031654 50.929155 
L 408.653122 50.334445 
L 406.274589 49.74009 
L 403.896057 49.148334 
L 401.517525 48.561359 
L 399.138992 47.981291 
L 396.76046 47.410181 
L 394.381928 46.849995 
L 392.003395 46.302622 
L 389.624863 45.769881 
L 387.246331 45.253532 
L 384.867798 44.755268 
L 382.489266 44.276694 
L 380.110734 43.819342 
L 377.732202 43.384687 
L 375.353669 42.974148 
L 372.975137 42.589075 
L 370.596605 42.230753 
L 368.218072 41.900403 
L 365.83954 41.599192 
L 363.461008 41.328241 
L 361.082475 41.088615 
L 358.703943 40.88133 
L 356.325411 40.707365 
L 353.946878 40.567664 
L 351.568346 40.463122 
L 349.189814 40.394595 
L 346.811281 40.362904 
L 344.432749 40.368835 
L 342.054217 40.413147 
L 339.675685 40.496565 
L 337.297152 40.619777 
L 334.91862 40.78345 
L 332.540088 40.988216 
L 330.161555 41.234676 
L 327.783023 41.523404 
L 325.404491 41.854945 
L 323.025958 42.229818 
L 320.647426 42.648518 
L 318.268894 43.111514 
L 315.890361 43.619257 
L 313.511829 44.172169 
L 311.133297 44.770665 
L 308.754765 45.415133 
L 306.376232 46.105945 
L 303.9977 46.843462 
L 301.619168 47.628021 
L 299.240635 48.459932 
L 296.862103 49.339483 
L 294.483571 50.266941 
L 292.105038 51.242558 
L 289.726506 52.266565 
L 287.347974 53.339174 
L 284.969441 54.460573 
L 282.590909 55.630916 
L 280.212377 56.850323 
L 277.833844 58.118882 
L 275.455312 59.436644 
L 273.07678 60.80363 
L 270.698248 62.219821 
L 268.319715 63.685167 
L 265.941183 65.19958 
L 263.562651 66.762935 
L 261.184118 68.375076 
L 258.805586 70.035808 
L 256.427054 71.7449 
L 254.048521 73.50209 
L 251.669989 75.30708 
L 249.291457 77.159539 
L 246.912924 79.05911 
L 244.534392 81.005415 
L 242.15586 82.998061 
L 239.777327 85.036644 
L 237.398795 87.120744 
L 235.020263 89.249932 
L 232.641731 91.423758 
L 230.263198 93.641763 
L 227.884666 95.903479 
L 225.506134 98.208438 
L 223.127601 100.556168 
L 220.749069 102.946197 
L 218.370537 105.378047 
L 215.992004 107.851249 
L 213.613472 110.365329 
L 211.23494 112.919813 
L 208.856407 115.514227 
L 206.477875 118.148098 
L 204.099343 120.820969 
L 201.720811 123.532401 
L 199.342278 126.281958 
L 196.963746 129.069218 
L 194.585214 131.893762 
L 192.206681 134.755178 
L 189.828149 137.653068 
L 187.449617 140.587059 
L 185.071084 143.556789 
L 182.692552 146.561924 
L 180.31402 149.602141 
L 177.935487 152.677134 
L 175.556955 155.786608 
L 173.178423 158.930288 
L 170.79989 162.107915 
L 168.421358 165.319243 
L 166.042826 168.564042 
L 163.664294 171.842104 
L 161.285761 175.153241 
L 158.907229 178.497273 
L 156.528697 181.874026 
L 154.150164 185.283346 
L 151.771632 188.72509 
L 149.3931 192.199135 
L 147.014567 195.70538 
L 144.636035 199.243735 
L 142.257503 202.814127 
L 139.87897 206.416492 
L 137.500438 210.050776 
L 135.121906 213.716935 
L 132.743373 217.414943 
L 130.364841 221.144785 
L 127.986309 224.906463 
L 125.607777 228.699982 
L 123.229244 232.525355 
L 120.850712 236.382608 
L 118.47218 240.271781 
L 116.093647 244.192923 
L 113.715115 248.146091 
L 111.336583 252.13136 
L 108.95805 256.148821 
L 106.579518 260.19857 
L 104.200986 264.280721 
L 101.822453 268.395403 
L 99.443921 272.542742 
L 97.065389 276.722879 
L 94.686857 280.935962 
L 92.308324 285.182142 
L 89.929792 289.461582 
L 87.55126 293.774448 
L 85.172727 298.120909 
z
" clip-path="url(#p52f2a19ce5)" style="fill: #a52a2a; fill-opacity: 0.1; stroke: #a52a2a; stroke-opacity: 0.1"/>
   </g>
   <g id="FillBetweenPolyCollection_3">
    <defs>
     <path id="m3c3eb82569" d="M 85.172727 -61.879091 
L 85.172727 -61.879091 
L 87.55126 -62.249236 
L 89.929792 -62.59446 
L 92.308324 -62.914762 
L 94.686857 -63.210245 
L 97.065389 -63.481142 
L 99.443921 -63.727818 
L 101.822453 -63.950777 
L 104.200986 -64.150678 
L 106.579518 -64.328339 
L 108.95805 -64.484742 
L 111.336583 -64.621042 
L 113.715115 -64.738571 
L 116.093647 -64.838827 
L 118.47218 -64.923471 
L 120.850712 -64.994317 
L 123.229244 -65.053309 
L 125.607777 -65.102497 
L 127.986309 -65.144016 
L 130.364841 -65.180028 
L 132.743373 -65.212676 
L 135.121906 -65.24402 
L 137.500438 -65.275975 
L 139.87897 -65.310244 
L 142.257503 -65.348255 
L 144.636035 -65.391109 
L 147.014567 -65.439534 
L 149.3931 -65.493862 
L 151.771632 -65.554027 
L 154.150164 -65.6196 
L 156.528697 -65.689846 
L 158.907229 -65.763804 
L 161.285761 -65.84037 
L 163.664294 -65.918382 
L 166.042826 -65.996684 
L 168.421358 -66.074188 
L 170.79989 -66.149917 
L 173.178423 -66.223036 
L 175.556955 -66.292876 
L 177.935487 -66.358944 
L 180.31402 -66.420929 
L 182.692552 -66.478704 
L 185.071084 -66.532318 
L 187.449617 -66.581992 
L 189.828149 -66.62811 
L 192.206681 -66.671202 
L 194.585214 -66.711931 
L 196.963746 -66.751073 
L 199.342278 -66.78949 
L 201.720811 -66.828105 
L 204.099343 -66.867874 
L 206.477875 -66.909746 
L 208.856407 -66.954626 
L 211.23494 -67.003336 
L 213.613472 -67.056572 
L 215.992004 -67.114866 
L 218.370537 -67.178561 
L 220.749069 -67.247788 
L 223.127601 -67.322469 
L 225.506134 -67.402329 
L 227.884666 -67.486924 
L 230.263198 -67.575684 
L 232.641731 -67.667944 
L 235.020263 -67.762982 
L 237.398795 -67.860037 
L 239.777327 -67.958321 
L 242.15586 -68.057016 
L 244.534392 -68.155272 
L 246.912924 -68.252199 
L 249.291457 -68.346877 
L 251.669989 -68.438364 
L 254.048521 -68.52572 
L 256.427054 -68.60803 
L 258.805586 -68.684428 
L 261.184118 -68.754117 
L 263.562651 -68.816388 
L 265.941183 -68.870634 
L 268.319715 -68.916353 
L 270.698248 -68.953154 
L 273.07678 -68.98075 
L 275.455312 -68.998957 
L 277.833844 -69.007683 
L 280.212377 -69.00693 
L 282.590909 -68.996783 
L 284.969441 -68.977414 
L 287.347974 -68.949077 
L 289.726506 -68.91211 
L 292.105038 -68.866941 
L 294.483571 -68.814092 
L 296.862103 -68.754184 
L 299.240635 -68.687945 
L 301.619168 -68.616216 
L 303.9977 -68.539947 
L 306.376232 -68.460204 
L 308.754765 -68.378156 
L 311.133297 -68.295069 
L 313.511829 -68.212284 
L 315.890361 -68.131195 
L 318.268894 -68.053216 
L 320.647426 -67.979748 
L 323.025958 -67.912148 
L 325.404491 -67.851682 
L 327.783023 -67.799495 
L 330.161555 -67.756577 
L 332.540088 -67.723725 
L 334.91862 -67.70153 
L 337.297152 -67.69036 
L 339.675685 -67.690354 
L 342.054217 -67.701431 
L 344.432749 -67.723294 
L 346.811281 -67.755455 
L 349.189814 -67.797253 
L 351.568346 -67.847887 
L 353.946878 -67.906441 
L 356.325411 -67.971914 
L 358.703943 -68.043252 
L 361.082475 -68.11937 
L 363.461008 -68.199175 
L 365.83954 -68.281588 
L 368.218072 -68.365563 
L 370.596605 -68.450097 
L 372.975137 -68.534246 
L 375.353669 -68.617137 
L 377.732202 -68.69797 
L 380.110734 -68.77603 
L 382.489266 -68.850688 
L 384.867798 -68.921408 
L 387.246331 -68.987751 
L 389.624863 -69.049374 
L 392.003395 -69.106037 
L 394.381928 -69.157597 
L 396.76046 -69.204016 
L 399.138992 -69.245351 
L 401.517525 -69.281756 
L 403.896057 -69.313472 
L 406.274589 -69.340824 
L 408.653122 -69.364211 
L 411.031654 -69.38409 
L 413.410186 -69.400972 
L 415.788719 -69.415397 
L 418.167251 -69.427921 
L 420.545783 -69.439098 
L 422.924315 -69.449454 
L 425.302848 -69.459474 
L 427.68138 -69.469588 
L 430.059912 -69.480152 
L 432.438445 -69.49144 
L 434.816977 -69.503636 
L 437.195509 -69.51683 
L 439.574042 -69.531027 
L 441.952574 -69.546153 
L 444.331106 -69.562071 
L 446.709639 -69.578594 
L 449.088171 -69.595498 
L 451.466703 -69.612545 
L 453.845235 -69.629495 
L 456.223768 -69.646122 
L 458.6023 -69.662224 
L 460.980832 -69.677644 
L 463.359365 -69.692269 
L 465.737897 -69.706045 
L 468.116429 -69.718977 
L 470.494962 -69.731134 
L 472.873494 -69.742651 
L 475.252026 -69.753724 
L 477.630559 -69.764612 
L 480.009091 -69.775631 
L 482.387623 -69.787146 
L 484.766156 -69.799561 
L 487.144688 -69.813313 
L 489.52322 -69.828853 
L 491.901752 -69.846642 
L 494.280285 -69.867126 
L 496.658817 -69.890727 
L 499.037349 -69.917822 
L 501.415882 -69.94873 
L 503.794414 -69.983697 
L 506.172946 -70.022891 
L 508.551479 -70.066397 
L 510.930011 -70.114216 
L 513.308543 -70.166278 
L 515.687076 -70.222457 
L 518.065608 -70.282585 
L 520.44414 -70.34648 
L 522.822673 -70.413954 
L 525.201205 -70.484835 
L 527.579737 -70.558974 
L 529.958269 -70.63625 
L 532.336802 -70.71657 
L 534.715334 -70.799868 
L 537.093866 -70.886101 
L 539.472399 -70.975246 
L 541.850931 -71.067293 
L 544.229463 -71.162249 
L 546.607996 -71.260132 
L 548.986528 -71.360978 
L 551.36506 -71.464839 
L 553.743593 -71.571789 
L 556.122125 -71.681927 
L 558.500657 -71.795383 
L 560.879189 -71.91232 
L 563.257722 -72.032937 
L 565.636254 -72.157466 
L 568.014786 -72.286179 
L 570.393319 -72.419379 
L 572.771851 -72.557403 
L 575.150383 -72.700615 
L 577.528916 -72.849395 
L 579.907448 -73.004134 
L 582.28598 -73.165224 
L 584.664513 -73.333044 
L 587.043045 -73.507956 
L 589.421577 -73.690288 
L 591.80011 -73.880321 
L 594.178642 -74.078281 
L 596.557174 -74.284329 
L 598.935706 -74.498554 
L 601.314239 -74.720967 
L 603.692771 -74.9515 
L 606.071303 -75.190004 
L 608.449836 -75.436249 
L 610.828368 -75.689935 
L 613.2069 -75.950699 
L 615.585433 -76.218128 
L 617.963965 -76.491775 
L 620.342497 -76.771176 
L 622.72103 -77.055864 
L 625.099562 -77.345385 
L 627.478094 -77.639316 
L 629.856627 -77.937275 
L 632.235159 -78.238934 
L 634.613691 -78.544021 
L 636.992223 -78.852336 
L 639.370756 -79.163744 
L 641.749288 -79.478176 
L 644.12782 -79.795627 
L 646.506353 -80.116152 
L 648.884885 -80.439866 
L 651.263417 -80.766935 
L 653.64195 -81.097571 
L 656.020482 -81.432026 
L 658.399014 -81.770589 
L 660.777547 -82.113577 
L 663.156079 -82.461332 
L 665.534611 -82.814212 
L 667.913143 -83.172585 
L 670.291676 -83.536826 
L 672.670208 -83.90731 
L 675.04874 -84.284406 
L 677.427273 -84.668474 
L 677.427273 -104.501915 
L 677.427273 -104.501915 
L 675.04874 -103.67732 
L 672.670208 -102.86649 
L 670.291676 -102.06889 
L 667.913143 -101.284059 
L 665.534611 -100.51162 
L 663.156079 -99.751297 
L 660.777547 -99.002925 
L 658.399014 -98.266463 
L 656.020482 -97.541995 
L 653.64195 -96.829738 
L 651.263417 -96.130037 
L 648.884885 -95.443368 
L 646.506353 -94.770319 
L 644.12782 -94.111584 
L 641.749288 -93.467934 
L 639.370756 -92.840205 
L 636.992223 -92.229258 
L 634.613691 -91.635956 
L 632.235159 -91.061131 
L 629.856627 -90.505544 
L 627.478094 -89.969859 
L 625.099562 -89.454605 
L 622.72103 -88.960147 
L 620.342497 -88.486662 
L 617.963965 -88.034126 
L 615.585433 -87.602294 
L 613.2069 -87.190697 
L 610.828368 -86.798649 
L 608.449836 -86.425254 
L 606.071303 -86.069415 
L 603.692771 -85.729862 
L 601.314239 -85.405171 
L 598.935706 -85.093794 
L 596.557174 -84.794087 
L 594.178642 -84.504347 
L 591.80011 -84.222835 
L 589.421577 -83.947814 
L 587.043045 -83.677575 
L 584.664513 -83.410469 
L 582.28598 -83.144933 
L 579.907448 -82.879519 
L 577.528916 -82.612918 
L 575.150383 -82.343978 
L 572.771851 -82.071721 
L 570.393319 -81.795365 
L 568.014786 -81.514328 
L 565.636254 -81.228249 
L 563.257722 -80.936995 
L 560.879189 -80.640664 
L 558.500657 -80.339591 
L 556.122125 -80.034351 
L 553.743593 -79.725745 
L 551.36506 -79.414805 
L 548.986528 -79.102772 
L 546.607996 -78.791083 
L 544.229463 -78.481344 
L 541.850931 -78.175304 
L 539.472399 -77.874814 
L 537.093866 -77.581787 
L 534.715334 -77.29815 
L 532.336802 -77.02579 
L 529.958269 -76.766495 
L 527.579737 -76.521892 
L 525.201205 -76.293395 
L 522.822673 -76.082149 
L 520.44414 -75.88899 
L 518.065608 -75.714408 
L 515.687076 -75.558531 
L 513.308543 -75.421125 
L 510.930011 -75.301609 
L 508.551479 -75.199088 
L 506.172946 -75.112392 
L 503.794414 -75.040136 
L 501.415882 -74.980766 
L 499.037349 -74.932623 
L 496.658817 -74.89399 
L 494.280285 -74.863148 
L 491.901752 -74.838419 
L 489.52322 -74.818208 
L 487.144688 -74.801039 
L 484.766156 -74.785584 
L 482.387623 -74.770691 
L 480.009091 -74.755405 
L 477.630559 -74.738983 
L 475.252026 -74.720906 
L 472.873494 -74.700884 
L 470.494962 -74.678857 
L 468.116429 -74.654991 
L 465.737897 -74.629674 
L 463.359365 -74.603502 
L 460.980832 -74.577259 
L 458.6023 -74.551895 
L 456.223768 -74.528495 
L 453.845235 -74.508249 
L 451.466703 -74.4924 
L 449.088171 -74.482212 
L 446.709639 -74.478912 
L 444.331106 -74.483648 
L 441.952574 -74.49744 
L 439.574042 -74.521136 
L 437.195509 -74.555375 
L 434.816977 -74.600554 
L 432.438445 -74.656809 
L 430.059912 -74.723997 
L 427.68138 -74.801701 
L 425.302848 -74.889234 
L 422.924315 -74.985658 
L 420.545783 -75.089812 
L 418.167251 -75.200344 
L 415.788719 -75.315749 
L 413.410186 -75.434409 
L 411.031654 -75.554635 
L 408.653122 -75.67471 
L 406.274589 -75.792922 
L 403.896057 -75.907608 
L 401.517525 -76.017176 
L 399.138992 -76.120138 
L 396.76046 -76.215128 
L 394.381928 -76.300921 
L 392.003395 -76.376446 
L 389.624863 -76.440796 
L 387.246331 -76.493229 
L 384.867798 -76.533176 
L 382.489266 -76.560239 
L 380.110734 -76.574188 
L 377.732202 -76.57496 
L 375.353669 -76.562657 
L 372.975137 -76.537536 
L 370.596605 -76.500007 
L 368.218072 -76.450624 
L 365.83954 -76.390077 
L 363.461008 -76.319185 
L 361.082475 -76.238886 
L 358.703943 -76.150224 
L 356.325411 -76.054338 
L 353.946878 -75.952448 
L 351.568346 -75.845842 
L 349.189814 -75.735851 
L 346.811281 -75.623838 
L 344.432749 -75.511168 
L 342.054217 -75.399187 
L 339.675685 -75.289202 
L 337.297152 -75.182448 
L 334.91862 -75.080072 
L 332.540088 -74.983101 
L 330.161555 -74.892425 
L 327.783023 -74.808779 
L 325.404491 -74.732721 
L 323.025958 -74.66462 
L 320.647426 -74.60465 
L 318.268894 -74.552782 
L 315.890361 -74.508785 
L 313.511829 -74.472231 
L 311.133297 -74.4425 
L 308.754765 -74.418795 
L 306.376232 -74.400159 
L 303.9977 -74.385496 
L 301.619168 -74.373595 
L 299.240635 -74.363158 
L 296.862103 -74.352829 
L 294.483571 -74.341231 
L 292.105038 -74.326998 
L 289.726506 -74.308807 
L 287.347974 -74.285414 
L 284.969441 -74.25568 
L 282.590909 -74.218604 
L 280.212377 -74.173349 
L 277.833844 -74.119266 
L 275.455312 -74.05591 
L 273.07678 -73.983063 
L 270.698248 -73.900741 
L 268.319715 -73.809201 
L 265.941183 -73.708951 
L 263.562651 -73.600751 
L 261.184118 -73.485604 
L 258.805586 -73.364755 
L 256.427054 -73.239674 
L 254.048521 -73.112035 
L 251.669989 -72.983701 
L 249.291457 -72.856683 
L 246.912924 -72.733106 
L 244.534392 -72.615156 
L 242.15586 -72.505011 
L 239.777327 -72.404765 
L 237.398795 -72.316342 
L 235.020263 -72.241398 
L 232.641731 -72.181235 
L 230.263198 -72.13673 
L 227.884666 -72.108284 
L 225.506134 -72.095799 
L 223.127601 -72.098694 
L 220.749069 -72.115933 
L 218.370537 -72.14609 
L 215.992004 -72.187414 
L 213.613472 -72.237908 
L 211.23494 -72.295405 
L 208.856407 -72.357646 
L 206.477875 -72.42234 
L 204.099343 -72.487232 
L 201.720811 -72.550146 
L 199.342278 -72.609035 
L 196.963746 -72.662012 
L 194.585214 -72.707379 
L 192.206681 -72.743646 
L 189.828149 -72.769545 
L 187.449617 -72.784038 
L 185.071084 -72.786316 
L 182.692552 -72.775801 
L 180.31402 -72.752134 
L 177.935487 -72.715172 
L 175.556955 -72.664968 
L 173.178423 -72.601756 
L 170.79989 -72.525937 
L 168.421358 -72.438045 
L 166.042826 -72.338734 
L 163.664294 -72.228741 
L 161.285761 -72.10886 
L 158.907229 -71.979915 
L 156.528697 -71.842724 
L 154.150164 -71.698073 
L 151.771632 -71.546677 
L 149.3931 -71.389149 
L 147.014567 -71.225967 
L 144.636035 -71.057439 
L 142.257503 -70.883673 
L 139.87897 -70.704545 
L 137.500438 -70.519675 
L 135.121906 -70.328409 
L 132.743373 -70.129807 
L 130.364841 -69.922653 
L 127.986309 -69.705472 
L 125.607777 -69.476558 
L 123.229244 -69.234011 
L 120.850712 -68.975786 
L 118.47218 -68.699745 
L 116.093647 -68.403693 
L 113.715115 -68.08543 
L 111.336583 -67.742783 
L 108.95805 -67.373662 
L 106.579518 -66.976094 
L 104.200986 -66.548255 
L 101.822453 -66.088496 
L 99.443921 -65.595351 
L 97.065389 -65.067552 
L 94.686857 -64.504043 
L 92.308324 -63.903984 
L 89.929792 -63.266734 
L 87.55126 -62.591851 
L 85.172727 -61.879091 
z
" style="stroke: #000080; stroke-opacity: 0.1"/>
    </defs>
    <g clip-path="url(#p52f2a19ce5)">
     <use xlink:href="#m3c3eb82569" x="0" y="360" style="fill: #000080; fill-opacity: 0.1; stroke: #000080; stroke-opacity: 0.1"/>
    </g>
   </g>
   <g id="FillBetweenPolyCollection_4">
    <defs>
     <path id="m92050ecd24" d="M 85.172727 -61.879091 
L 85.172727 -61.879091 
L 87.55126 -63.295553 
L 89.929792 -64.622266 
L 92.308324 -65.859005 
L 94.686857 -67.006112 
L 97.065389 -68.064551 
L 99.443921 -69.035968 
L 101.822453 -69.922702 
L 104.200986 -70.727813 
L 106.579518 -71.455102 
L 108.95805 -72.1091 
L 111.336583 -72.695045 
L 113.715115 -73.218816 
L 116.093647 -73.686848 
L 118.47218 -74.106016 
L 120.850712 -74.483494 
L 123.229244 -74.826558 
L 125.607777 -75.142397 
L 127.986309 -75.437897 
L 130.364841 -75.71943 
L 132.743373 -75.992641 
L 135.121906 -76.262277 
L 137.500438 -76.532064 
L 139.87897 -76.804642 
L 142.257503 -77.081557 
L 144.636035 -77.363296 
L 147.014567 -77.649368 
L 149.3931 -77.938445 
L 151.771632 -78.228496 
L 154.150164 -78.516974 
L 156.528697 -78.800961 
L 158.907229 -79.077348 
L 161.285761 -79.342975 
L 163.664294 -79.594759 
L 166.042826 -79.829798 
L 168.421358 -80.04547 
L 170.79989 -80.239511 
L 173.178423 -80.410083 
L 175.556955 -80.55581 
L 177.935487 -80.675818 
L 180.31402 -80.76976 
L 182.692552 -80.837832 
L 185.071084 -80.880771 
L 187.449617 -80.899853 
L 189.828149 -80.896871 
L 192.206681 -80.874105 
L 194.585214 -80.834267 
L 196.963746 -80.780445 
L 199.342278 -80.716004 
L 201.720811 -80.644481 
L 204.099343 -80.569455 
L 206.477875 -80.494416 
L 208.856407 -80.422617 
L 211.23494 -80.356946 
L 213.613472 -80.299835 
L 215.992004 -80.253219 
L 218.370537 -80.218574 
L 220.749069 -80.197 
L 223.127601 -80.189372 
L 225.506134 -80.196505 
L 227.884666 -80.219274 
L 230.263198 -80.258655 
L 232.641731 -80.315665 
L 235.020263 -80.391192 
L 237.398795 -80.485791 
L 239.777327 -80.599473 
L 242.15586 -80.731563 
L 244.534392 -80.880642 
L 246.912924 -81.044578 
L 249.291457 -81.220633 
L 251.669989 -81.405607 
L 254.048521 -81.596012 
L 256.427054 -81.788233 
L 258.805586 -81.978678 
L 261.184118 -82.163913 
L 263.562651 -82.340773 
L 265.941183 -82.506441 
L 268.319715 -82.658505 
L 270.698248 -82.794987 
L 273.07678 -82.914364 
L 275.455312 -83.015558 
L 277.833844 -83.097922 
L 280.212377 -83.161218 
L 282.590909 -83.205601 
L 284.969441 -83.231576 
L 287.347974 -83.239975 
L 289.726506 -83.231903 
L 292.105038 -83.208706 
L 294.483571 -83.171918 
L 296.862103 -83.123238 
L 299.240635 -83.064489 
L 301.619168 -82.997589 
L 303.9977 -82.924511 
L 306.376232 -82.847278 
L 308.754765 -82.767932 
L 311.133297 -82.688537 
L 313.511829 -82.611175 
L 315.890361 -82.537942 
L 318.268894 -82.470951 
L 320.647426 -82.412327 
L 323.025958 -82.364197 
L 325.404491 -82.328667 
L 327.783023 -82.307776 
L 330.161555 -82.303422 
L 332.540088 -82.317275 
L 334.91862 -82.350682 
L 337.297152 -82.404584 
L 339.675685 -82.479431 
L 342.054217 -82.575139 
L 344.432749 -82.691066 
L 346.811281 -82.826007 
L 349.189814 -82.978237 
L 351.568346 -83.145565 
L 353.946878 -83.325421 
L 356.325411 -83.514938 
L 358.703943 -83.711052 
L 361.082475 -83.910579 
L 363.461008 -84.110295 
L 365.83954 -84.30701 
L 368.218072 -84.497618 
L 370.596605 -84.679159 
L 372.975137 -84.848863 
L 375.353669 -85.004184 
L 377.732202 -85.142835 
L 380.110734 -85.262816 
L 382.489266 -85.362437 
L 384.867798 -85.440343 
L 387.246331 -85.49554 
L 389.624863 -85.527418 
L 392.003395 -85.535761 
L 394.381928 -85.520767 
L 396.76046 -85.48306 
L 399.138992 -85.42369 
L 401.517525 -85.344147 
L 403.896057 -85.246352 
L 406.274589 -85.132651 
L 408.653122 -85.005791 
L 411.031654 -84.86888 
L 413.410186 -84.725343 
L 415.788719 -84.578845 
L 418.167251 -84.433217 
L 420.545783 -84.292345 
L 422.924315 -84.160034 
L 425.302848 -84.03986 
L 427.68138 -83.935011 
L 430.059912 -83.848121 
L 432.438445 -83.781125 
L 434.816977 -83.735147 
L 437.195509 -83.710426 
L 439.574042 -83.706293 
L 441.952574 -83.721218 
L 444.331106 -83.752896 
L 446.709639 -83.798393 
L 449.088171 -83.854319 
L 451.466703 -83.91701 
L 453.845235 -83.982709 
L 456.223768 -84.047725 
L 458.6023 -84.10857 
L 460.980832 -84.162064 
L 463.359365 -84.205429 
L 465.737897 -84.236332 
L 468.116429 -84.252932 
L 470.494962 -84.253887 
L 472.873494 -84.238363 
L 475.252026 -84.206032 
L 477.630559 -84.157067 
L 480.009091 -84.092148 
L 482.387623 -84.012461 
L 484.766156 -83.919693 
L 487.144688 -83.816053 
L 489.52322 -83.704298 
L 491.901752 -83.58776 
L 494.280285 -83.470384 
L 496.658817 -83.356748 
L 499.037349 -83.252043 
L 501.415882 -83.162016 
L 503.794414 -83.092847 
L 506.172946 -83.050925 
L 508.551479 -83.042566 
L 510.930011 -83.073651 
L 513.308543 -83.149247 
L 515.687076 -83.273255 
L 518.065608 -83.448161 
L 520.44414 -83.674914 
L 522.822673 -83.952953 
L 525.201205 -84.280367 
L 527.579737 -84.654158 
L 529.958269 -85.070537 
L 532.336802 -85.525229 
L 534.715334 -86.01373 
L 537.093866 -86.531515 
L 539.472399 -87.074189 
L 541.850931 -87.637589 
L 544.229463 -88.217855 
L 546.607996 -88.81147 
L 548.986528 -89.415287 
L 551.36506 -90.026537 
L 553.743593 -90.642841 
L 556.122125 -91.262202 
L 558.500657 -91.882993 
L 560.879189 -92.503931 
L 563.257722 -93.124041 
L 565.636254 -93.742606 
L 568.014786 -94.359113 
L 570.393319 -94.973188 
L 572.771851 -95.584524 
L 575.150383 -96.192808 
L 577.528916 -96.797655 
L 579.907448 -97.398573 
L 582.28598 -97.994956 
L 584.664513 -98.58612 
L 587.043045 -99.171394 
L 589.421577 -99.750245 
L 591.80011 -100.322453 
L 594.178642 -100.888292 
L 596.557174 -101.448709 
L 598.935706 -102.00545 
L 601.314239 -102.56111 
L 603.692771 -103.119105 
L 606.071303 -103.683546 
L 608.449836 -104.259058 
L 610.828368 -104.850568 
L 613.2069 -105.463089 
L 615.585433 -106.101501 
L 617.963965 -106.770391 
L 620.342497 -107.473904 
L 622.72103 -108.215651 
L 625.099562 -108.998637 
L 627.478094 -109.825243 
L 629.856627 -110.69723 
L 632.235159 -111.615764 
L 634.613691 -112.581457 
L 636.992223 -113.594431 
L 639.370756 -114.654379 
L 641.749288 -115.760638 
L 644.12782 -116.912256 
L 646.506353 -118.108072 
L 648.884885 -119.346782 
L 651.263417 -120.626994 
L 653.64195 -121.947281 
L 656.020482 -123.306216 
L 658.399014 -124.702426 
L 660.777547 -126.134598 
L 663.156079 -127.601503 
L 665.534611 -129.101998 
L 667.913143 -130.635029 
L 670.291676 -132.199631 
L 672.670208 -133.794905 
L 675.04874 -135.420009 
L 677.427273 -137.074151 
L 677.427273 -181.137497 
L 677.427273 -181.137497 
L 675.04874 -179.015755 
L 672.670208 -176.888672 
L 670.291676 -174.754472 
L 667.913143 -172.611747 
L 665.534611 -170.459503 
L 663.156079 -168.2972 
L 660.777547 -166.124781 
L 658.399014 -163.942691 
L 656.020482 -161.751929 
L 653.64195 -159.554054 
L 651.263417 -157.351193 
L 648.884885 -155.146037 
L 646.506353 -152.941849 
L 644.12782 -150.742442 
L 641.749288 -148.552139 
L 639.370756 -146.375732 
L 636.992223 -144.218422 
L 634.613691 -142.085768 
L 632.235159 -139.983611 
L 629.856627 -137.91799 
L 627.478094 -135.895042 
L 625.099562 -133.920908 
L 622.72103 -132.001623 
L 620.342497 -130.143001 
L 617.963965 -128.350506 
L 615.585433 -126.629127 
L 613.2069 -124.983253 
L 610.828368 -123.416524 
L 608.449836 -121.931676 
L 606.071303 -120.530384 
L 603.692771 -119.213118 
L 601.314239 -117.979003 
L 598.935706 -116.825718 
L 596.557174 -115.749448 
L 594.178642 -114.744922 
L 591.80011 -113.805547 
L 589.421577 -112.923639 
L 587.043045 -112.090727 
L 584.664513 -111.297902 
L 582.28598 -110.536185 
L 579.907448 -109.796863 
L 577.528916 -109.071785 
L 575.150383 -108.353591 
L 572.771851 -107.635875 
L 570.393319 -106.913308 
L 568.014786 -106.181689 
L 565.636254 -105.43798 
L 563.257722 -104.680304 
L 560.879189 -103.907931 
L 558.500657 -103.121244 
L 556.122125 -102.321698 
L 553.743593 -101.511768 
L 551.36506 -100.694896 
L 548.986528 -99.875411 
L 546.607996 -99.058434 
L 544.229463 -98.24977 
L 541.850931 -97.455759 
L 539.472399 -96.683113 
L 537.093866 -95.938726 
L 534.715334 -95.229436 
L 532.336802 -94.56179 
L 529.958269 -93.941802 
L 527.579737 -93.374725 
L 525.201205 -92.864857 
L 522.822673 -92.41541 
L 520.44414 -92.028439 
L 518.065608 -91.704836 
L 515.687076 -91.444377 
L 513.308543 -91.245803 
L 510.930011 -91.106906 
L 508.551479 -91.024601 
L 506.172946 -90.994981 
L 503.794414 -91.013383 
L 501.415882 -91.074455 
L 499.037349 -91.172265 
L 496.658817 -91.300425 
L 494.280285 -91.452268 
L 491.901752 -91.621051 
L 489.52322 -91.800155 
L 487.144688 -91.983283 
L 484.766156 -92.164636 
L 482.387623 -92.339063 
L 480.009091 -92.502171 
L 477.630559 -92.650407 
L 475.252026 -92.781107 
L 472.873494 -92.892526 
L 470.494962 -92.983824 
L 468.116429 -93.055048 
L 465.737897 -93.107099 
L 463.359365 -93.141672 
L 460.980832 -93.161169 
L 458.6023 -93.16861 
L 456.223768 -93.167536 
L 453.845235 -93.161883 
L 451.466703 -93.155842 
L 449.088171 -93.153726 
L 446.709639 -93.159827 
L 444.331106 -93.178285 
L 441.952574 -93.212949 
L 439.574042 -93.26726 
L 437.195509 -93.344127 
L 434.816977 -93.445823 
L 432.438445 -93.573888 
L 430.059912 -93.729061 
L 427.68138 -93.911224 
L 425.302848 -94.11938 
L 422.924315 -94.351666 
L 420.545783 -94.605398 
L 418.167251 -94.877143 
L 415.788719 -95.162826 
L 413.410186 -95.457861 
L 411.031654 -95.757298 
L 408.653122 -96.055987 
L 406.274589 -96.348738 
L 403.896057 -96.630461 
L 401.517525 -96.896298 
L 399.138992 -97.141745 
L 396.76046 -97.362736 
L 394.381928 -97.555722 
L 392.003395 -97.717721 
L 389.624863 -97.846347 
L 387.246331 -97.939846 
L 384.867798 -97.997099 
L 382.489266 -98.017614 
L 380.110734 -98.001522 
L 377.732202 -97.949554 
L 375.353669 -97.863024 
L 372.975137 -97.7438 
L 370.596605 -97.59427 
L 368.218072 -97.417318 
L 365.83954 -97.216274 
L 363.461008 -96.994883 
L 361.082475 -96.757258 
L 358.703943 -96.507821 
L 356.325411 -96.251252 
L 353.946878 -95.992424 
L 351.568346 -95.736328 
L 349.189814 -95.487998 
L 346.811281 -95.252427 
L 344.432749 -95.034463 
L 342.054217 -94.83871 
L 339.675685 -94.669409 
L 337.297152 -94.530321 
L 334.91862 -94.424591 
L 332.540088 -94.354628 
L 330.161555 -94.322006 
L 327.783023 -94.327366 
L 325.404491 -94.370348 
L 323.025958 -94.449568 
L 320.647426 -94.562635 
L 318.268894 -94.706212 
L 315.890361 -94.876118 
L 313.511829 -95.067452 
L 311.133297 -95.274767 
L 308.754765 -95.492215 
L 306.376232 -95.713721 
L 303.9977 -95.933135 
L 301.619168 -96.144374 
L 299.240635 -96.341532 
L 296.862103 -96.518992 
L 294.483571 -96.671519 
L 292.105038 -96.794325 
L 289.726506 -96.883135 
L 287.347974 -96.934232 
L 284.969441 -96.944507 
L 282.590909 -96.911495 
L 280.212377 -96.83343 
L 277.833844 -96.709261 
L 275.455312 -96.538708 
L 273.07678 -96.322283 
L 270.698248 -96.061355 
L 268.319715 -95.758159 
L 265.941183 -95.415832 
L 263.562651 -95.038445 
L 261.184118 -94.631001 
L 258.805586 -94.199432 
L 256.427054 -93.750579 
L 254.048521 -93.292138 
L 251.669989 -92.832587 
L 249.291457 -92.381094 
L 246.912924 -91.947353 
L 244.534392 -91.541369 
L 242.15586 -91.173191 
L 239.777327 -90.852587 
L 237.398795 -90.588651 
L 235.020263 -90.389362 
L 232.641731 -90.261107 
L 230.263198 -90.208223 
L 227.884666 -90.232614 
L 225.506134 -90.333519 
L 223.127601 -90.507465 
L 220.749069 -90.748447 
L 218.370537 -91.048311 
L 215.992004 -91.397272 
L 213.613472 -91.7845 
L 211.23494 -92.198679 
L 208.856407 -92.628492 
L 206.477875 -93.063014 
L 204.099343 -93.491972 
L 201.720811 -93.905935 
L 199.342278 -94.296414 
L 196.963746 -94.655911 
L 194.585214 -94.977932 
L 192.206681 -95.256976 
L 189.828149 -95.488504 
L 187.449617 -95.668887 
L 185.071084 -95.795369 
L 182.692552 -95.866027 
L 180.31402 -95.87971 
L 177.935487 -95.835997 
L 175.556955 -95.735153 
L 173.178423 -95.578062 
L 170.79989 -95.366181 
L 168.421358 -95.101468 
L 166.042826 -94.786313 
L 163.664294 -94.42346 
L 161.285761 -94.015932 
L 158.907229 -93.566941 
L 156.528697 -93.0798 
L 154.150164 -92.557805 
L 151.771632 -92.004122 
L 149.3931 -91.421675 
L 147.014567 -90.813045 
L 144.636035 -90.180359 
L 142.257503 -89.525216 
L 139.87897 -88.848609 
L 137.500438 -88.150881 
L 135.121906 -87.431691 
L 132.743373 -86.690003 
L 130.364841 -85.924107 
L 127.986309 -85.131653 
L 125.607777 -84.309716 
L 123.229244 -83.454862 
L 120.850712 -82.563234 
L 118.47218 -81.630627 
L 116.093647 -80.65259 
L 113.715115 -79.624529 
L 111.336583 -78.541794 
L 108.95805 -77.399775 
L 106.579518 -76.193993 
L 104.200986 -74.920172 
L 101.822453 -73.574305 
L 99.443921 -72.152721 
L 97.065389 -70.652132 
L 94.686857 -69.06966 
L 92.308324 -67.402866 
L 89.929792 -65.649775 
L 87.55126 -63.80887 
L 85.172727 -61.879091 
z
" style="stroke: #add8e6; stroke-opacity: 0.1"/>
    </defs>
    <g clip-path="url(#p52f2a19ce5)">
     <use xlink:href="#m92050ecd24" x="0" y="360" style="fill: #add8e6; fill-opacity: 0.1; stroke: #add8e6; stroke-opacity: 0.1"/>
    </g>
   </g>
   <g id="line2d_1">
    <path d="M 85.172727 298.120909 
L 111.336583 252.424582 
L 158.907229 169.265007 
L 177.935487 136.504665 
L 194.585214 108.297725 
L 208.856407 84.557197 
L 223.127601 61.296721 
L 235.020263 42.329122 
L 246.912924 23.779742 
L 258.805586 5.683582 
L 263.280245 -1 
L 263.280245 -1 
" clip-path="url(#p52f2a19ce5)" style="fill: none; stroke: #000000; stroke-width: 1.5; stroke-linecap: round"/>
   </g>
   <g id="line2d_2">
    <path d="M 85.172727 298.120909 
L 94.686857 283.359615 
L 104.200986 269.003366 
L 113.715115 255.064004 
L 123.229244 241.5546 
L 132.743373 228.489328 
L 142.257503 215.88277 
L 151.771632 203.749511 
L 158.907229 194.968949 
L 166.042826 186.46928 
L 173.178423 178.256823 
L 180.31402 170.338209 
L 187.449617 162.720618 
L 194.585214 155.411701 
L 201.720811 148.419659 
L 208.856407 141.753067 
L 215.992004 135.420719 
L 223.127601 129.431495 
L 230.263198 123.794081 
L 237.398795 118.516815 
L 244.534392 113.607447 
L 251.669989 109.073001 
L 258.805586 104.919469 
L 263.562651 102.364297 
L 268.319715 99.98117 
L 273.07678 97.770443 
L 277.833844 95.732029 
L 282.590909 93.865336 
L 287.347974 92.169316 
L 292.105038 90.642475 
L 296.862103 89.282835 
L 301.619168 88.088026 
L 306.376232 87.055354 
L 311.133297 86.181728 
L 315.890361 85.463651 
L 323.025958 84.669619 
L 330.161555 84.202128 
L 337.297152 84.044494 
L 344.432749 84.177867 
L 351.568346 84.581305 
L 358.703943 85.231834 
L 365.83954 86.104495 
L 372.975137 87.172221 
L 382.489266 88.848167 
L 394.381928 91.238794 
L 427.68138 98.208149 
L 434.816977 99.445684 
L 441.952574 100.484291 
L 449.088171 101.272274 
L 456.223768 101.757398 
L 460.980832 101.886844 
L 465.737897 101.8434 
L 470.494962 101.612325 
L 475.252026 101.179452 
L 480.009091 100.531308 
L 484.766156 99.655204 
L 489.52322 98.539399 
L 494.280285 97.17318 
L 499.037349 95.546995 
L 503.794414 93.652603 
L 508.551479 91.483193 
L 513.308543 89.033508 
L 518.065608 86.299868 
L 522.822673 83.280184 
L 527.579737 79.974038 
L 532.336802 76.38262 
L 537.093866 72.508559 
L 541.850931 68.35581 
L 546.607996 63.929481 
L 551.36506 59.235552 
L 556.122125 54.280783 
L 560.879189 49.072579 
L 565.636254 43.618769 
L 570.393319 37.927465 
L 577.528916 28.963261 
L 584.664513 19.511329 
L 591.80011 9.599531 
L 599.107234 -1 
L 599.107234 -1 
" clip-path="url(#p52f2a19ce5)" style="fill: none; stroke: #a52a2a; stroke-width: 1.5; stroke-linecap: round"/>
   </g>
   <g id="line2d_3">
    <path d="M 85.172727 298.120909 
L 92.308324 296.590627 
L 99.443921 295.338416 
L 106.579518 294.347784 
L 113.715115 293.588 
L 123.229244 292.85634 
L 135.121906 292.213786 
L 168.421358 290.743883 
L 180.31402 290.413468 
L 192.206681 290.292576 
L 227.884666 290.202396 
L 239.777327 289.818457 
L 273.07678 288.518093 
L 284.969441 288.383453 
L 299.240635 288.474448 
L 325.404491 288.707799 
L 337.297152 288.563596 
L 351.568346 288.153136 
L 375.353669 287.410103 
L 387.246331 287.25951 
L 399.138992 287.317256 
L 418.167251 287.685868 
L 434.816977 287.947905 
L 449.088171 287.961145 
L 499.037349 287.574777 
L 510.930011 287.292087 
L 520.44414 286.882265 
L 532.336802 286.12882 
L 546.607996 284.974393 
L 591.80011 280.948422 
L 603.692771 279.659319 
L 613.2069 278.429302 
L 622.72103 276.991995 
L 632.235159 275.349968 
L 644.12782 273.046395 
L 656.020482 270.512989 
L 667.913143 267.771678 
L 677.427273 265.414806 
L 677.427273 265.414806 
" clip-path="url(#p52f2a19ce5)" style="fill: none; stroke: #000080; stroke-width: 1.5; stroke-linecap: round"/>
   </g>
   <g id="line2d_4">
    <path d="M 85.172727 298.120909 
L 89.929792 294.863979 
L 94.686857 291.962114 
L 99.443921 289.405655 
L 104.200986 287.176008 
L 108.95805 285.245562 
L 113.715115 283.578328 
L 118.47218 282.131678 
L 125.607777 280.273944 
L 135.121906 278.153016 
L 147.014567 275.768794 
L 156.528697 274.059619 
L 163.664294 272.99089 
L 170.79989 272.197154 
L 175.556955 271.854519 
L 180.31402 271.675265 
L 185.071084 271.66193 
L 189.828149 271.807312 
L 196.963746 272.281822 
L 206.477875 273.221285 
L 215.992004 274.174754 
L 223.127601 274.651581 
L 227.884666 274.774056 
L 232.641731 274.711614 
L 237.398795 274.462779 
L 244.534392 273.788994 
L 254.048521 272.555925 
L 265.941183 271.038863 
L 273.07678 270.381676 
L 280.212377 270.002676 
L 287.347974 269.912896 
L 294.483571 270.078282 
L 303.9977 270.571177 
L 320.647426 271.512519 
L 327.783023 271.682429 
L 334.91862 271.612363 
L 342.054217 271.293075 
L 351.568346 270.559054 
L 372.975137 268.703668 
L 380.110734 268.367831 
L 387.246331 268.282307 
L 394.381928 268.461755 
L 401.517525 268.879778 
L 411.031654 269.686911 
L 425.302848 270.92038 
L 432.438445 271.322494 
L 439.574042 271.513224 
L 449.088171 271.495978 
L 468.116429 271.34601 
L 477.630559 271.596263 
L 487.144688 272.100332 
L 501.415882 272.881764 
L 508.551479 272.966417 
L 513.308543 272.802475 
L 518.065608 272.423501 
L 522.822673 271.815819 
L 527.579737 270.985559 
L 532.336802 269.95649 
L 539.472399 268.121349 
L 548.986528 265.354651 
L 568.014786 259.729599 
L 591.80011 252.936 
L 598.935706 250.584416 
L 603.692771 248.833889 
L 608.449836 246.904633 
L 613.2069 244.776829 
L 617.963965 242.439551 
L 622.72103 239.891363 
L 627.478094 237.139858 
L 632.235159 234.200313 
L 639.370756 229.484944 
L 646.506353 224.475039 
L 656.020482 217.470927 
L 667.913143 208.376612 
L 677.427273 200.894176 
L 677.427273 200.894176 
" clip-path="url(#p52f2a19ce5)" style="fill: none; stroke: #add8e6; stroke-width: 1.5; stroke-linecap: round"/>
   </g>
   <g id="patch_3">
    <path d="M 55.56 310.98 
L 55.56 28.08 
" style="fill: none; stroke: #ffffff; stroke-width: 1.25; stroke-linejoin: miter; stroke-linecap: square"/>
   </g>
   <g id="patch_4">
    <path d="M 707.04 310.98 
L 707.04 28.08 
" style="fill: none; stroke: #ffffff; stroke-width: 1.25; stroke-linejoin: miter; stroke-linecap: square"/>
   </g>
   <g id="patch_5">
    <path d="M 55.56 310.98 
L 707.04 310.98 
" style="fill: none; stroke: #ffffff; stroke-width: 1.25; stroke-linejoin: miter; stroke-linecap: square"/>
   </g>
   <g id="patch_6">
    <path d="M 55.56 28.08 
L 707.04 28.08 
" style="fill: none; stroke: #ffffff; stroke-width: 1.25; stroke-linejoin: miter; stroke-linecap: square"/>
   </g>
   <g id="text_14">
    <!-- QG3L (Perturbed) - [112, 176] x [64, 192] -->
    <g style="fill: #262626" transform="translate(256.36125 22.08) scale(0.12 -0.12)">
     <defs>
      <path id="DejaVuSans-51" d="M 2522 4238 
Q 1834 4238 1429 3725 
Q 1025 3213 1025 2328 
Q 1025 1447 1429 934 
Q 1834 422 2522 422 
Q 3209 422 3611 934 
Q 4013 1447 4013 2328 
Q 4013 3213 3611 3725 
Q 3209 4238 2522 4238 
z
M 3406 84 
L 4238 -825 
L 3475 -825 
L 2784 -78 
Q 2681 -84 2626 -87 
Q 2572 -91 2522 -91 
Q 1538 -91 948 567 
Q 359 1225 359 2328 
Q 359 3434 948 4092 
Q 1538 4750 2522 4750 
Q 3503 4750 4090 4092 
Q 4678 3434 4678 2328 
Q 4678 1516 4351 937 
Q 4025 359 3406 84 
z
" transform="scale(0.015625)"/>
      <path id="DejaVuSans-33" d="M 2597 2516 
Q 3050 2419 3304 2112 
Q 3559 1806 3559 1356 
Q 3559 666 3084 287 
Q 2609 -91 1734 -91 
Q 1441 -91 1130 -33 
Q 819 25 488 141 
L 488 750 
Q 750 597 1062 519 
Q 1375 441 1716 441 
Q 2309 441 2620 675 
Q 2931 909 2931 1356 
Q 2931 1769 2642 2001 
Q 2353 2234 1838 2234 
L 1294 2234 
L 1294 2753 
L 1863 2753 
Q 2328 2753 2575 2939 
Q 2822 3125 2822 3475 
Q 2822 3834 2567 4026 
Q 2313 4219 1838 4219 
Q 1578 4219 1281 4162 
Q 984 4106 628 3988 
L 628 4550 
Q 988 4650 1302 4700 
Q 1616 4750 1894 4750 
Q 2613 4750 3031 4423 
Q 3450 4097 3450 3541 
Q 3450 3153 3228 2886 
Q 3006 2619 2597 2516 
z
" transform="scale(0.015625)"/>
      <path id="DejaVuSans-4c" d="M 628 4666 
L 1259 4666 
L 1259 531 
L 3531 531 
L 3531 0 
L 628 0 
L 628 4666 
z
" transform="scale(0.015625)"/>
      <path id="DejaVuSans-28" d="M 1984 4856 
Q 1566 4138 1362 3434 
Q 1159 2731 1159 2009 
Q 1159 1288 1364 580 
Q 1569 -128 1984 -844 
L 1484 -844 
Q 1016 -109 783 600 
Q 550 1309 550 2009 
Q 550 2706 781 3412 
Q 1013 4119 1484 4856 
L 1984 4856 
z
" transform="scale(0.015625)"/>
      <path id="DejaVuSans-50" d="M 1259 4147 
L 1259 2394 
L 2053 2394 
Q 2494 2394 2734 2622 
Q 2975 2850 2975 3272 
Q 2975 3691 2734 3919 
Q 2494 4147 2053 4147 
L 1259 4147 
z
M 628 4666 
L 2053 4666 
Q 2838 4666 3239 4311 
Q 3641 3956 3641 3272 
Q 3641 2581 3239 2228 
Q 2838 1875 2053 1875 
L 1259 1875 
L 1259 0 
L 628 0 
L 628 4666 
z
" transform="scale(0.015625)"/>
      <path id="DejaVuSans-75" d="M 544 1381 
L 544 3500 
L 1119 3500 
L 1119 1403 
Q 1119 906 1312 657 
Q 1506 409 1894 409 
Q 2359 409 2629 706 
Q 2900 1003 2900 1516 
L 2900 3500 
L 3475 3500 
L 3475 0 
L 2900 0 
L 2900 538 
Q 2691 219 2414 64 
Q 2138 -91 1772 -91 
Q 1169 -91 856 284 
Q 544 659 544 1381 
z
M 1991 3584 
L 1991 3584 
z
" transform="scale(0.015625)"/>
      <path id="DejaVuSans-62" d="M 3116 1747 
Q 3116 2381 2855 2742 
Q 2594 3103 2138 3103 
Q 1681 3103 1420 2742 
Q 1159 2381 1159 1747 
Q 1159 1113 1420 752 
Q 1681 391 2138 391 
Q 2594 391 2855 752 
Q 3116 1113 3116 1747 
z
M 1159 2969 
Q 1341 3281 1617 3432 
Q 1894 3584 2278 3584 
Q 2916 3584 3314 3078 
Q 3713 2572 3713 1747 
Q 3713 922 3314 415 
Q 2916 -91 2278 -91 
Q 1894 -91 1617 61 
Q 1341 213 1159 525 
L 1159 0 
L 581 0 
L 581 4863 
L 1159 4863 
L 1159 2969 
z
" transform="scale(0.015625)"/>
      <path id="DejaVuSans-29" d="M 513 4856 
L 1013 4856 
Q 1481 4119 1714 3412 
Q 1947 2706 1947 2009 
Q 1947 1309 1714 600 
Q 1481 -109 1013 -844 
L 513 -844 
Q 928 -128 1133 580 
Q 1338 1288 1338 2009 
Q 1338 2731 1133 3434 
Q 928 4138 513 4856 
z
" transform="scale(0.015625)"/>
      <path id="DejaVuSans-2d" d="M 313 2009 
L 1997 2009 
L 1997 1497 
L 313 1497 
L 313 2009 
z
" transform="scale(0.015625)"/>
      <path id="DejaVuSans-2c" d="M 750 794 
L 1409 794 
L 1409 256 
L 897 -744 
L 494 -744 
L 750 256 
L 750 794 
z
" transform="scale(0.015625)"/>
      <path id="DejaVuSans-37" d="M 525 4666 
L 3525 4666 
L 3525 4397 
L 1831 0 
L 1172 0 
L 2766 4134 
L 525 4134 
L 525 4666 
z
" transform="scale(0.015625)"/>
      <path id="DejaVuSans-78" d="M 3513 3500 
L 2247 1797 
L 3578 0 
L 2900 0 
L 1881 1375 
L 863 0 
L 184 0 
L 1544 1831 
L 300 3500 
L 978 3500 
L 1906 2253 
L 2834 3500 
L 3513 3500 
z
" transform="scale(0.015625)"/>
      <path id="DejaVuSans-39" d="M 703 97 
L 703 672 
Q 941 559 1184 500 
Q 1428 441 1663 441 
Q 2288 441 2617 861 
Q 2947 1281 2994 2138 
Q 2813 1869 2534 1725 
Q 2256 1581 1919 1581 
Q 1219 1581 811 2004 
Q 403 2428 403 3163 
Q 403 3881 828 4315 
Q 1253 4750 1959 4750 
Q 2769 4750 3195 4129 
Q 3622 3509 3622 2328 
Q 3622 1225 3098 567 
Q 2575 -91 1691 -91 
Q 1453 -91 1209 -44 
Q 966 3 703 97 
z
M 1959 2075 
Q 2384 2075 2632 2365 
Q 2881 2656 2881 3163 
Q 2881 3666 2632 3958 
Q 2384 4250 1959 4250 
Q 1534 4250 1286 3958 
Q 1038 3666 1038 3163 
Q 1038 2656 1286 2365 
Q 1534 2075 1959 2075 
z
" transform="scale(0.015625)"/>
     </defs>
     <use xlink:href="#DejaVuSans-51"/>
     <use xlink:href="#DejaVuSans-47" transform="translate(78.710938 0)"/>
     <use xlink:href="#DejaVuSans-33" transform="translate(156.201172 0)"/>
     <use xlink:href="#DejaVuSans-4c" transform="translate(219.824219 0)"/>
     <use xlink:href="#DejaVuSans-20" transform="translate(275.537109 0)"/>
     <use xlink:href="#DejaVuSans-28" transform="translate(307.324219 0)"/>
     <use xlink:href="#DejaVuSans-50" transform="translate(346.337891 0)"/>
     <use xlink:href="#DejaVuSans-65" transform="translate(403.015625 0)"/>
     <use xlink:href="#DejaVuSans-72" transform="translate(464.539062 0)"/>
     <use xlink:href="#DejaVuSans-74" transform="translate(505.652344 0)"/>
     <use xlink:href="#DejaVuSans-75" transform="translate(544.861328 0)"/>
     <use xlink:href="#DejaVuSans-72" transform="translate(608.240234 0)"/>
     <use xlink:href="#DejaVuSans-62" transform="translate(649.353516 0)"/>
     <use xlink:href="#DejaVuSans-65" transform="translate(712.830078 0)"/>
     <use xlink:href="#DejaVuSans-64" transform="translate(774.353516 0)"/>
     <use xlink:href="#DejaVuSans-29" transform="translate(837.830078 0)"/>
     <use xlink:href="#DejaVuSans-20" transform="translate(876.84375 0)"/>
     <use xlink:href="#DejaVuSans-2d" transform="translate(908.630859 0)"/>
     <use xlink:href="#DejaVuSans-20" transform="translate(944.714844 0)"/>
     <use xlink:href="#DejaVuSans-5b" transform="translate(976.501953 0)"/>
     <use xlink:href="#DejaVuSans-31" transform="translate(1015.515625 0)"/>
     <use xlink:href="#DejaVuSans-31" transform="translate(1079.138672 0)"/>
     <use xlink:href="#DejaVuSans-32" transform="translate(1142.761719 0)"/>
     <use xlink:href="#DejaVuSans-2c" transform="translate(1206.384766 0)"/>
     <use xlink:href="#DejaVuSans-20" transform="translate(1238.171875 0)"/>
     <use xlink:href="#DejaVuSans-31" transform="translate(1269.958984 0)"/>
     <use xlink:href="#DejaVuSans-37" transform="translate(1333.582031 0)"/>
     <use xlink:href="#DejaVuSans-36" transform="translate(1397.205078 0)"/>
     <use xlink:href="#DejaVuSans-5d" transform="translate(1460.828125 0)"/>
     <use xlink:href="#DejaVuSans-20" transform="translate(1499.841797 0)"/>
     <use xlink:href="#DejaVuSans-78" transform="translate(1531.628906 0)"/>
     <use xlink:href="#DejaVuSans-20" transform="translate(1590.808594 0)"/>
     <use xlink:href="#DejaVuSans-5b" transform="translate(1622.595703 0)"/>
     <use xlink:href="#DejaVuSans-36" transform="translate(1661.609375 0)"/>
     <use xlink:href="#DejaVuSans-34" transform="translate(1725.232422 0)"/>
     <use xlink:href="#DejaVuSans-2c" transform="translate(1788.855469 0)"/>
     <use xlink:href="#DejaVuSans-20" transform="translate(1820.642578 0)"/>
     <use xlink:href="#DejaVuSans-31" transform="translate(1852.429688 0)"/>
     <use xlink:href="#DejaVuSans-39" transform="translate(1916.052734 0)"/>
     <use xlink:href="#DejaVuSans-32" transform="translate(1979.675781 0)"/>
     <use xlink:href="#DejaVuSans-5d" transform="translate(2043.298828 0)"/>
    </g>
   </g>
   <g id="legend_1">
    <g id="patch_7">
     <path d="M 63.26 101.46375 
L 197.121406 101.46375 
Q 199.321406 101.46375 199.321406 99.26375 
L 199.321406 35.78 
Q 199.321406 33.58 197.121406 33.58 
L 63.26 33.58 
Q 61.06 33.58 61.06 35.78 
L 61.06 99.26375 
Q 61.06 101.46375 63.26 101.46375 
z
" style="fill: #eaeaf2; opacity: 0.8; stroke: #cccccc; stroke-linejoin: miter"/>
    </g>
    <g id="line2d_5">
     <path d="M 65.46 42.488281 
L 76.46 42.488281 
L 87.46 42.488281 
" style="fill: none; stroke: #000000; stroke-width: 1.5; stroke-linecap: round"/>
    </g>
    <g id="text_15">
     <!-- Reduced Gravity -->
     <g style="fill: #262626" transform="translate(96.26 46.338281) scale(0.11 -0.11)">
      <defs>
       <path id="DejaVuSans-63" d="M 3122 3366 
L 3122 2828 
Q 2878 2963 2633 3030 
Q 2388 3097 2138 3097 
Q 1578 3097 1268 2742 
Q 959 2388 959 1747 
Q 959 1106 1268 751 
Q 1578 397 2138 397 
Q 2388 397 2633 464 
Q 2878 531 3122 666 
L 3122 134 
Q 2881 22 2623 -34 
Q 2366 -91 2075 -91 
Q 1284 -91 818 406 
Q 353 903 353 1747 
Q 353 2603 823 3093 
Q 1294 3584 2113 3584 
Q 2378 3584 2631 3529 
Q 2884 3475 3122 3366 
z
" transform="scale(0.015625)"/>
       <path id="DejaVuSans-76" d="M 191 3500 
L 800 3500 
L 1894 563 
L 2988 3500 
L 3597 3500 
L 2284 0 
L 1503 0 
L 191 3500 
z
" transform="scale(0.015625)"/>
      </defs>
      <use xlink:href="#DejaVuSans-52"/>
      <use xlink:href="#DejaVuSans-65" transform="translate(64.982422 0)"/>
      <use xlink:href="#DejaVuSans-64" transform="translate(126.505859 0)"/>
      <use xlink:href="#DejaVuSans-75" transform="translate(189.982422 0)"/>
      <use xlink:href="#DejaVuSans-63" transform="translate(253.361328 0)"/>
      <use xlink:href="#DejaVuSans-65" transform="translate(308.341797 0)"/>
      <use xlink:href="#DejaVuSans-64" transform="translate(369.865234 0)"/>
      <use xlink:href="#DejaVuSans-20" transform="translate(433.341797 0)"/>
      <use xlink:href="#DejaVuSans-47" transform="translate(465.128906 0)"/>
      <use xlink:href="#DejaVuSans-72" transform="translate(542.619141 0)"/>
      <use xlink:href="#DejaVuSans-61" transform="translate(583.732422 0)"/>
      <use xlink:href="#DejaVuSans-76" transform="translate(645.011719 0)"/>
      <use xlink:href="#DejaVuSans-69" transform="translate(704.191406 0)"/>
      <use xlink:href="#DejaVuSans-74" transform="translate(731.974609 0)"/>
      <use xlink:href="#DejaVuSans-79" transform="translate(771.183594 0)"/>
     </g>
    </g>
    <g id="line2d_6">
     <path d="M 65.46 58.634219 
L 76.46 58.634219 
L 87.46 58.634219 
" style="fill: none; stroke: #a52a2a; stroke-width: 1.5; stroke-linecap: round"/>
    </g>
    <g id="text_16">
     <!-- VarDyn -->
     <g style="fill: #262626" transform="translate(96.26 62.484219) scale(0.11 -0.11)">
      <defs>
       <path id="DejaVuSans-56" d="M 1831 0 
L 50 4666 
L 709 4666 
L 2188 738 
L 3669 4666 
L 4325 4666 
L 2547 0 
L 1831 0 
z
" transform="scale(0.015625)"/>
       <path id="DejaVuSans-44" d="M 1259 4147 
L 1259 519 
L 2022 519 
Q 2988 519 3436 956 
Q 3884 1394 3884 2338 
Q 3884 3275 3436 3711 
Q 2988 4147 2022 4147 
L 1259 4147 
z
M 628 4666 
L 1925 4666 
Q 3281 4666 3915 4102 
Q 4550 3538 4550 2338 
Q 4550 1131 3912 565 
Q 3275 0 1925 0 
L 628 0 
L 628 4666 
z
" transform="scale(0.015625)"/>
      </defs>
      <use xlink:href="#DejaVuSans-56"/>
      <use xlink:href="#DejaVuSans-61" transform="translate(60.658203 0)"/>
      <use xlink:href="#DejaVuSans-72" transform="translate(121.9375 0)"/>
      <use xlink:href="#DejaVuSans-44" transform="translate(163.050781 0)"/>
      <use xlink:href="#DejaVuSans-79" transform="translate(240.052734 0)"/>
      <use xlink:href="#DejaVuSans-6e" transform="translate(299.232422 0)"/>
     </g>
    </g>
    <g id="line2d_7">
     <path d="M 65.46 74.780156 
L 76.46 74.780156 
L 87.46 74.780156 
" style="fill: none; stroke: #000080; stroke-width: 1.5; stroke-linecap: round"/>
    </g>
    <g id="text_17">
     <!-- SurfML -->
     <g style="fill: #262626" transform="translate(96.26 78.630156) scale(0.11 -0.11)">
      <defs>
       <path id="DejaVuSans-66" d="M 2375 4863 
L 2375 4384 
L 1825 4384 
Q 1516 4384 1395 4259 
Q 1275 4134 1275 3809 
L 1275 3500 
L 2222 3500 
L 2222 3053 
L 1275 3053 
L 1275 0 
L 697 0 
L 697 3053 
L 147 3053 
L 147 3500 
L 697 3500 
L 697 3744 
Q 697 4328 969 4595 
Q 1241 4863 1831 4863 
L 2375 4863 
z
" transform="scale(0.015625)"/>
      </defs>
      <use xlink:href="#DejaVuSans-53"/>
      <use xlink:href="#DejaVuSans-75" transform="translate(63.476562 0)"/>
      <use xlink:href="#DejaVuSans-72" transform="translate(126.855469 0)"/>
      <use xlink:href="#DejaVuSans-66" transform="translate(167.96875 0)"/>
      <use xlink:href="#DejaVuSans-4d" transform="translate(203.173828 0)"/>
      <use xlink:href="#DejaVuSans-4c" transform="translate(289.453125 0)"/>
     </g>
    </g>
    <g id="line2d_8">
     <path d="M 65.46 90.926094 
L 76.46 90.926094 
L 87.46 90.926094 
" style="fill: none; stroke: #add8e6; stroke-width: 1.5; stroke-linecap: round"/>
    </g>
    <g id="text_18">
     <!-- SurfML - No Alpha -->
     <g style="fill: #262626" transform="translate(96.26 94.776094) scale(0.11 -0.11)">
      <defs>
       <path id="DejaVuSans-4e" d="M 628 4666 
L 1478 4666 
L 3547 763 
L 3547 4666 
L 4159 4666 
L 4159 0 
L 3309 0 
L 1241 3903 
L 1241 0 
L 628 0 
L 628 4666 
z
" transform="scale(0.015625)"/>
       <path id="DejaVuSans-6f" d="M 1959 3097 
Q 1497 3097 1228 2736 
Q 959 2375 959 1747 
Q 959 1119 1226 758 
Q 1494 397 1959 397 
Q 2419 397 2687 759 
Q 2956 1122 2956 1747 
Q 2956 2369 2687 2733 
Q 2419 3097 1959 3097 
z
M 1959 3584 
Q 2709 3584 3137 3096 
Q 3566 2609 3566 1747 
Q 3566 888 3137 398 
Q 2709 -91 1959 -91 
Q 1206 -91 779 398 
Q 353 888 353 1747 
Q 353 2609 779 3096 
Q 1206 3584 1959 3584 
z
" transform="scale(0.015625)"/>
       <path id="DejaVuSans-41" d="M 2188 4044 
L 1331 1722 
L 3047 1722 
L 2188 4044 
z
M 1831 4666 
L 2547 4666 
L 4325 0 
L 3669 0 
L 3244 1197 
L 1141 1197 
L 716 0 
L 50 0 
L 1831 4666 
z
" transform="scale(0.015625)"/>
       <path id="DejaVuSans-6c" d="M 603 4863 
L 1178 4863 
L 1178 0 
L 603 0 
L 603 4863 
z
" transform="scale(0.015625)"/>
       <path id="DejaVuSans-70" d="M 1159 525 
L 1159 -1331 
L 581 -1331 
L 581 3500 
L 1159 3500 
L 1159 2969 
Q 1341 3281 1617 3432 
Q 1894 3584 2278 3584 
Q 2916 3584 3314 3078 
Q 3713 2572 3713 1747 
Q 3713 922 3314 415 
Q 2916 -91 2278 -91 
Q 1894 -91 1617 61 
Q 1341 213 1159 525 
z
M 3116 1747 
Q 3116 2381 2855 2742 
Q 2594 3103 2138 3103 
Q 1681 3103 1420 2742 
Q 1159 2381 1159 1747 
Q 1159 1113 1420 752 
Q 1681 391 2138 391 
Q 2594 391 2855 752 
Q 3116 1113 3116 1747 
z
" transform="scale(0.015625)"/>
       <path id="DejaVuSans-68" d="M 3513 2113 
L 3513 0 
L 2938 0 
L 2938 2094 
Q 2938 2591 2744 2837 
Q 2550 3084 2163 3084 
Q 1697 3084 1428 2787 
Q 1159 2491 1159 1978 
L 1159 0 
L 581 0 
L 581 4863 
L 1159 4863 
L 1159 2956 
Q 1366 3272 1645 3428 
Q 1925 3584 2291 3584 
Q 2894 3584 3203 3211 
Q 3513 2838 3513 2113 
z
" transform="scale(0.015625)"/>
      </defs>
      <use xlink:href="#DejaVuSans-53"/>
      <use xlink:href="#DejaVuSans-75" transform="translate(63.476562 0)"/>
      <use xlink:href="#DejaVuSans-72" transform="translate(126.855469 0)"/>
      <use xlink:href="#DejaVuSans-66" transform="translate(167.96875 0)"/>
      <use xlink:href="#DejaVuSans-4d" transform="translate(203.173828 0)"/>
      <use xlink:href="#DejaVuSans-4c" transform="translate(289.453125 0)"/>
      <use xlink:href="#DejaVuSans-20" transform="translate(345.166016 0)"/>
      <use xlink:href="#DejaVuSans-2d" transform="translate(376.953125 0)"/>
      <use xlink:href="#DejaVuSans-20" transform="translate(413.037109 0)"/>
      <use xlink:href="#DejaVuSans-4e" transform="translate(444.824219 0)"/>
      <use xlink:href="#DejaVuSans-6f" transform="translate(519.628906 0)"/>
      <use xlink:href="#DejaVuSans-20" transform="translate(580.810547 0)"/>
      <use xlink:href="#DejaVuSans-41" transform="translate(612.597656 0)"/>
      <use xlink:href="#DejaVuSans-6c" transform="translate(681.005859 0)"/>
      <use xlink:href="#DejaVuSans-70" transform="translate(708.789062 0)"/>
      <use xlink:href="#DejaVuSans-68" transform="translate(772.265625 0)"/>
      <use xlink:href="#DejaVuSans-61" transform="translate(835.644531 0)"/>
     </g>
    </g>
   </g>
  </g>
 </g>
 <defs>
  <clipPath id="p52f2a19ce5">
   <rect x="55.56" y="28.08" width="651.48" height="282.9"/>
  </clipPath>
 </defs>
</svg>
