<?xml version="1.0" encoding="utf-8" standalone="no"?>
<!DOCTYPE svg PUBLIC "-//W3C//DTD SVG 1.1//EN"
  "http://www.w3.org/Graphics/SVG/1.1/DTD/svg11.dtd">
<svg xmlns:xlink="http://www.w3.org/1999/xlink" width="720pt" height="360pt" viewBox="0 0 720 360" xmlns="http://www.w3.org/2000/svg" version="1.1">
 <metadata>
  <rdf:RDF xmlns:dc="http://purl.org/dc/elements/1.1/" xmlns:cc="http://creativecommons.org/ns#" xmlns:rdf="http://www.w3.org/1999/02/22-rdf-syntax-ns#">
   <cc:Work>
    <dc:type rdf:resource="http://purl.org/dc/dcmitype/StillImage"/>
    <dc:date>2026-03-19T16:14:43.958132</dc:date>
    <dc:format>image/svg+xml</dc:format>
    <dc:creator>
     <cc:Agent>
      <dc:title>Matplotlib v3.10.6, https://matplotlib.org/</dc:title>
     </cc:Agent>
    </dc:creator>
   </cc:Work>
  </rdf:RDF>
 </metadata>
 <defs>
  <style type="text/css">*{stroke-linejoin: round; stroke-linecap: butt}</style>
 </defs>
 <g id="figure_1">
  <g id="patch_1">
   <path d="M 0 360 
L 720 360 
L 720 0 
L 0 0 
z
" style="fill: #ffffff"/>
  </g>
  <g id="axes_1">
   <g id="patch_2">
    <path d="M 62.58 310.98 
L 707.04 310.98 
L 707.04 28.08 
L 62.58 28.08 
z
" style="fill: #eaeaf2"/>
   </g>
   <g id="matplotlib.axis_1">
    <g id="xtick_1">
     <g id="text_1">
      <!-- 0 -->
      <g style="fill: #262626" transform="translate(88.374261 328.838281) scale(0.11 -0.11)">
       <defs>
        <path id="DejaVuSans-30" d="M 2034 4250 
Q 1547 4250 1301 3770 
Q 1056 3291 1056 2328 
Q 1056 1369 1301 889 
Q 1547 409 2034 409 
Q 2525 409 2770 889 
Q 3016 1369 3016 2328 
Q 3016 3291 2770 3770 
Q 2525 4250 2034 4250 
z
M 2034 4750 
Q 2819 4750 3233 4129 
Q 3647 3509 3647 2328 
Q 3647 1150 3233 529 
Q 2819 -91 2034 -91 
Q 1250 -91 836 529 
Q 422 1150 422 2328 
Q 422 3509 836 4129 
Q 1250 4750 2034 4750 
z
" transform="scale(0.015625)"/>
       </defs>
       <use xlink:href="#DejaVuSans-30"/>
      </g>
     </g>
    </g>
    <g id="xtick_2">
     <g id="text_2">
      <!-- 5 -->
      <g style="fill: #262626" transform="translate(229.548413 328.838281) scale(0.11 -0.11)">
       <defs>
        <path id="DejaVuSans-35" d="M 691 4666 
L 3169 4666 
L 3169 4134 
L 1269 4134 
L 1269 2991 
Q 1406 3038 1543 3061 
Q 1681 3084 1819 3084 
Q 2600 3084 3056 2656 
Q 3513 2228 3513 1497 
Q 3513 744 3044 326 
Q 2575 -91 1722 -91 
Q 1428 -91 1123 -41 
Q 819 9 494 109 
L 494 744 
Q 775 591 1075 516 
Q 1375 441 1709 441 
Q 2250 441 2565 725 
Q 2881 1009 2881 1497 
Q 2881 1984 2565 2268 
Q 2250 2553 1709 2553 
Q 1456 2553 1204 2497 
Q 953 2441 691 2322 
L 691 4666 
z
" transform="scale(0.015625)"/>
       </defs>
       <use xlink:href="#DejaVuSans-35"/>
      </g>
     </g>
    </g>
    <g id="xtick_3">
     <g id="text_3">
      <!-- 10 -->
      <g style="fill: #262626" transform="translate(367.223189 328.838281) scale(0.11 -0.11)">
       <defs>
        <path id="DejaVuSans-31" d="M 794 531 
L 1825 531 
L 1825 4091 
L 703 3866 
L 703 4441 
L 1819 4666 
L 2450 4666 
L 2450 531 
L 3481 531 
L 3481 0 
L 794 0 
L 794 531 
z
" transform="scale(0.015625)"/>
       </defs>
       <use xlink:href="#DejaVuSans-31"/>
       <use xlink:href="#DejaVuSans-30" transform="translate(63.623047 0)"/>
      </g>
     </g>
    </g>
    <g id="xtick_4">
     <g id="text_4">
      <!-- 15 -->
      <g style="fill: #262626" transform="translate(508.39734 328.838281) scale(0.11 -0.11)">
       <use xlink:href="#DejaVuSans-31"/>
       <use xlink:href="#DejaVuSans-35" transform="translate(63.623047 0)"/>
      </g>
     </g>
    </g>
    <g id="xtick_5">
     <g id="text_5">
      <!-- 20 -->
      <g style="fill: #262626" transform="translate(649.571491 328.838281) scale(0.11 -0.11)">
       <defs>
        <path id="DejaVuSans-32" d="M 1228 531 
L 3431 531 
L 3431 0 
L 469 0 
L 469 531 
Q 828 903 1448 1529 
Q 2069 2156 2228 2338 
Q 2531 2678 2651 2914 
Q 2772 3150 2772 3378 
Q 2772 3750 2511 3984 
Q 2250 4219 1831 4219 
Q 1534 4219 1204 4116 
Q 875 4013 500 3803 
L 500 4441 
Q 881 4594 1212 4672 
Q 1544 4750 1819 4750 
Q 2544 4750 2975 4387 
Q 3406 4025 3406 3419 
Q 3406 3131 3298 2873 
Q 3191 2616 2906 2266 
Q 2828 2175 2409 1742 
Q 1991 1309 1228 531 
z
" transform="scale(0.015625)"/>
       </defs>
       <use xlink:href="#DejaVuSans-32"/>
       <use xlink:href="#DejaVuSans-30" transform="translate(63.623047 0)"/>
      </g>
     </g>
    </g>
    <g id="text_6">
     <!-- Time [days] -->
     <g style="fill: #262626" transform="translate(349.378125 344.244062) scale(0.12 -0.12)">
      <defs>
       <path id="DejaVuSans-54" d="M -19 4666 
L 3928 4666 
L 3928 4134 
L 2272 4134 
L 2272 0 
L 1638 0 
L 1638 4134 
L -19 4134 
L -19 4666 
z
" transform="scale(0.015625)"/>
       <path id="DejaVuSans-69" d="M 603 3500 
L 1178 3500 
L 1178 0 
L 603 0 
L 603 3500 
z
M 603 4863 
L 1178 4863 
L 1178 4134 
L 603 4134 
L 603 4863 
z
" transform="scale(0.015625)"/>
       <path id="DejaVuSans-6d" d="M 3328 2828 
Q 3544 3216 3844 3400 
Q 4144 3584 4550 3584 
Q 5097 3584 5394 3201 
Q 5691 2819 5691 2113 
L 5691 0 
L 5113 0 
L 5113 2094 
Q 5113 2597 4934 2840 
Q 4756 3084 4391 3084 
Q 3944 3084 3684 2787 
Q 3425 2491 3425 1978 
L 3425 0 
L 2847 0 
L 2847 2094 
Q 2847 2600 2669 2842 
Q 2491 3084 2119 3084 
Q 1678 3084 1418 2786 
Q 1159 2488 1159 1978 
L 1159 0 
L 581 0 
L 581 3500 
L 1159 3500 
L 1159 2956 
Q 1356 3278 1631 3431 
Q 1906 3584 2284 3584 
Q 2666 3584 2933 3390 
Q 3200 3197 3328 2828 
z
" transform="scale(0.015625)"/>
       <path id="DejaVuSans-65" d="M 3597 1894 
L 3597 1613 
L 953 1613 
Q 991 1019 1311 708 
Q 1631 397 2203 397 
Q 2534 397 2845 478 
Q 3156 559 3463 722 
L 3463 178 
Q 3153 47 2828 -22 
Q 2503 -91 2169 -91 
Q 1331 -91 842 396 
Q 353 884 353 1716 
Q 353 2575 817 3079 
Q 1281 3584 2069 3584 
Q 2775 3584 3186 3129 
Q 3597 2675 3597 1894 
z
M 3022 2063 
Q 3016 2534 2758 2815 
Q 2500 3097 2075 3097 
Q 1594 3097 1305 2825 
Q 1016 2553 972 2059 
L 3022 2063 
z
" transform="scale(0.015625)"/>
       <path id="DejaVuSans-20" transform="scale(0.015625)"/>
       <path id="DejaVuSans-5b" d="M 550 4863 
L 1875 4863 
L 1875 4416 
L 1125 4416 
L 1125 -397 
L 1875 -397 
L 1875 -844 
L 550 -844 
L 550 4863 
z
" transform="scale(0.015625)"/>
       <path id="DejaVuSans-64" d="M 2906 2969 
L 2906 4863 
L 3481 4863 
L 3481 0 
L 2906 0 
L 2906 525 
Q 2725 213 2448 61 
Q 2172 -91 1784 -91 
Q 1150 -91 751 415 
Q 353 922 353 1747 
Q 353 2572 751 3078 
Q 1150 3584 1784 3584 
Q 2172 3584 2448 3432 
Q 2725 3281 2906 2969 
z
M 947 1747 
Q 947 1113 1208 752 
Q 1469 391 1925 391 
Q 2381 391 2643 752 
Q 2906 1113 2906 1747 
Q 2906 2381 2643 2742 
Q 2381 3103 1925 3103 
Q 1469 3103 1208 2742 
Q 947 2381 947 1747 
z
" transform="scale(0.015625)"/>
       <path id="DejaVuSans-61" d="M 2194 1759 
Q 1497 1759 1228 1600 
Q 959 1441 959 1056 
Q 959 750 1161 570 
Q 1363 391 1709 391 
Q 2188 391 2477 730 
Q 2766 1069 2766 1631 
L 2766 1759 
L 2194 1759 
z
M 3341 1997 
L 3341 0 
L 2766 0 
L 2766 531 
Q 2569 213 2275 61 
Q 1981 -91 1556 -91 
Q 1019 -91 701 211 
Q 384 513 384 1019 
Q 384 1609 779 1909 
Q 1175 2209 1959 2209 
L 2766 2209 
L 2766 2266 
Q 2766 2663 2505 2880 
Q 2244 3097 1772 3097 
Q 1472 3097 1187 3025 
Q 903 2953 641 2809 
L 641 3341 
Q 956 3463 1253 3523 
Q 1550 3584 1831 3584 
Q 2591 3584 2966 3190 
Q 3341 2797 3341 1997 
z
" transform="scale(0.015625)"/>
       <path id="DejaVuSans-79" d="M 2059 -325 
Q 1816 -950 1584 -1140 
Q 1353 -1331 966 -1331 
L 506 -1331 
L 506 -850 
L 844 -850 
Q 1081 -850 1212 -737 
Q 1344 -625 1503 -206 
L 1606 56 
L 191 3500 
L 800 3500 
L 1894 763 
L 2988 3500 
L 3597 3500 
L 2059 -325 
z
" transform="scale(0.015625)"/>
       <path id="DejaVuSans-73" d="M 2834 3397 
L 2834 2853 
Q 2591 2978 2328 3040 
Q 2066 3103 1784 3103 
Q 1356 3103 1142 2972 
Q 928 2841 928 2578 
Q 928 2378 1081 2264 
Q 1234 2150 1697 2047 
L 1894 2003 
Q 2506 1872 2764 1633 
Q 3022 1394 3022 966 
Q 3022 478 2636 193 
Q 2250 -91 1575 -91 
Q 1294 -91 989 -36 
Q 684 19 347 128 
L 347 722 
Q 666 556 975 473 
Q 1284 391 1588 391 
Q 1994 391 2212 530 
Q 2431 669 2431 922 
Q 2431 1156 2273 1281 
Q 2116 1406 1581 1522 
L 1381 1569 
Q 847 1681 609 1914 
Q 372 2147 372 2553 
Q 372 3047 722 3315 
Q 1072 3584 1716 3584 
Q 2034 3584 2315 3537 
Q 2597 3491 2834 3397 
z
" transform="scale(0.015625)"/>
       <path id="DejaVuSans-5d" d="M 1947 4863 
L 1947 -844 
L 622 -844 
L 622 -397 
L 1369 -397 
L 1369 4416 
L 622 4416 
L 622 4863 
L 1947 4863 
z
" transform="scale(0.015625)"/>
      </defs>
      <use xlink:href="#DejaVuSans-54"/>
      <use xlink:href="#DejaVuSans-69" transform="translate(57.958984 0)"/>
      <use xlink:href="#DejaVuSans-6d" transform="translate(85.742188 0)"/>
      <use xlink:href="#DejaVuSans-65" transform="translate(183.154297 0)"/>
      <use xlink:href="#DejaVuSans-20" transform="translate(244.677734 0)"/>
      <use xlink:href="#DejaVuSans-5b" transform="translate(276.464844 0)"/>
      <use xlink:href="#DejaVuSans-64" transform="translate(315.478516 0)"/>
      <use xlink:href="#DejaVuSans-61" transform="translate(378.955078 0)"/>
      <use xlink:href="#DejaVuSans-79" transform="translate(440.234375 0)"/>
      <use xlink:href="#DejaVuSans-73" transform="translate(499.414062 0)"/>
      <use xlink:href="#DejaVuSans-5d" transform="translate(551.513672 0)"/>
     </g>
    </g>
   </g>
   <g id="matplotlib.axis_2">
    <g id="ytick_1">
     <g id="text_7">
      <!-- 0.00 -->
      <g style="fill: #262626" transform="translate(28.587812 302.30005) scale(0.11 -0.11)">
       <defs>
        <path id="DejaVuSans-2e" d="M 684 794 
L 1344 794 
L 1344 0 
L 684 0 
L 684 794 
z
" transform="scale(0.015625)"/>
       </defs>
       <use xlink:href="#DejaVuSans-30"/>
       <use xlink:href="#DejaVuSans-2e" transform="translate(63.623047 0)"/>
       <use xlink:href="#DejaVuSans-30" transform="translate(95.410156 0)"/>
       <use xlink:href="#DejaVuSans-30" transform="translate(159.033203 0)"/>
      </g>
     </g>
    </g>
    <g id="ytick_2">
     <g id="text_8">
      <!-- 0.05 -->
      <g style="fill: #262626" transform="translate(28.587812 266.844401) scale(0.11 -0.11)">
       <use xlink:href="#DejaVuSans-30"/>
       <use xlink:href="#DejaVuSans-2e" transform="translate(63.623047 0)"/>
       <use xlink:href="#DejaVuSans-30" transform="translate(95.410156 0)"/>
       <use xlink:href="#DejaVuSans-35" transform="translate(159.033203 0)"/>
      </g>
     </g>
    </g>
    <g id="ytick_3">
     <g id="text_9">
      <!-- 0.10 -->
      <g style="fill: #262626" transform="translate(28.587812 231.388752) scale(0.11 -0.11)">
       <use xlink:href="#DejaVuSans-30"/>
       <use xlink:href="#DejaVuSans-2e" transform="translate(63.623047 0)"/>
       <use xlink:href="#DejaVuSans-31" transform="translate(95.410156 0)"/>
       <use xlink:href="#DejaVuSans-30" transform="translate(159.033203 0)"/>
      </g>
     </g>
    </g>
    <g id="ytick_4">
     <g id="text_10">
      <!-- 0.15 -->
      <g style="fill: #262626" transform="translate(28.587812 195.933104) scale(0.11 -0.11)">
       <use xlink:href="#DejaVuSans-30"/>
       <use xlink:href="#DejaVuSans-2e" transform="translate(63.623047 0)"/>
       <use xlink:href="#DejaVuSans-31" transform="translate(95.410156 0)"/>
       <use xlink:href="#DejaVuSans-35" transform="translate(159.033203 0)"/>
      </g>
     </g>
    </g>
    <g id="ytick_5">
     <g id="text_11">
      <!-- 0.20 -->
      <g style="fill: #262626" transform="translate(28.587812 160.477455) scale(0.11 -0.11)">
       <use xlink:href="#DejaVuSans-30"/>
       <use xlink:href="#DejaVuSans-2e" transform="translate(63.623047 0)"/>
       <use xlink:href="#DejaVuSans-32" transform="translate(95.410156 0)"/>
       <use xlink:href="#DejaVuSans-30" transform="translate(159.033203 0)"/>
      </g>
     </g>
    </g>
    <g id="ytick_6">
     <g id="text_12">
      <!-- 0.25 -->
      <g style="fill: #262626" transform="translate(28.587812 125.021806) scale(0.11 -0.11)">
       <use xlink:href="#DejaVuSans-30"/>
       <use xlink:href="#DejaVuSans-2e" transform="translate(63.623047 0)"/>
       <use xlink:href="#DejaVuSans-32" transform="translate(95.410156 0)"/>
       <use xlink:href="#DejaVuSans-35" transform="translate(159.033203 0)"/>
      </g>
     </g>
    </g>
    <g id="ytick_7">
     <g id="text_13">
      <!-- 0.30 -->
      <g style="fill: #262626" transform="translate(28.587812 89.566157) scale(0.11 -0.11)">
       <defs>
        <path id="DejaVuSans-33" d="M 2597 2516 
Q 3050 2419 3304 2112 
Q 3559 1806 3559 1356 
Q 3559 666 3084 287 
Q 2609 -91 1734 -91 
Q 1441 -91 1130 -33 
Q 819 25 488 141 
L 488 750 
Q 750 597 1062 519 
Q 1375 441 1716 441 
Q 2309 441 2620 675 
Q 2931 909 2931 1356 
Q 2931 1769 2642 2001 
Q 2353 2234 1838 2234 
L 1294 2234 
L 1294 2753 
L 1863 2753 
Q 2328 2753 2575 2939 
Q 2822 3125 2822 3475 
Q 2822 3834 2567 4026 
Q 2313 4219 1838 4219 
Q 1578 4219 1281 4162 
Q 984 4106 628 3988 
L 628 4550 
Q 988 4650 1302 4700 
Q 1616 4750 1894 4750 
Q 2613 4750 3031 4423 
Q 3450 4097 3450 3541 
Q 3450 3153 3228 2886 
Q 3006 2619 2597 2516 
z
" transform="scale(0.015625)"/>
       </defs>
       <use xlink:href="#DejaVuSans-30"/>
       <use xlink:href="#DejaVuSans-2e" transform="translate(63.623047 0)"/>
       <use xlink:href="#DejaVuSans-33" transform="translate(95.410156 0)"/>
       <use xlink:href="#DejaVuSans-30" transform="translate(159.033203 0)"/>
      </g>
     </g>
    </g>
    <g id="ytick_8">
     <g id="text_14">
      <!-- 0.35 -->
      <g style="fill: #262626" transform="translate(28.587812 54.110509) scale(0.11 -0.11)">
       <use xlink:href="#DejaVuSans-30"/>
       <use xlink:href="#DejaVuSans-2e" transform="translate(63.623047 0)"/>
       <use xlink:href="#DejaVuSans-33" transform="translate(95.410156 0)"/>
       <use xlink:href="#DejaVuSans-35" transform="translate(159.033203 0)"/>
      </g>
     </g>
    </g>
    <g id="text_15">
     <!-- nRMSE -->
     <g style="fill: #262626" transform="translate(22.092187 190.27875) rotate(-90) scale(0.12 -0.12)">
      <defs>
       <path id="DejaVuSans-6e" d="M 3513 2113 
L 3513 0 
L 2938 0 
L 2938 2094 
Q 2938 2591 2744 2837 
Q 2550 3084 2163 3084 
Q 1697 3084 1428 2787 
Q 1159 2491 1159 1978 
L 1159 0 
L 581 0 
L 581 3500 
L 1159 3500 
L 1159 2956 
Q 1366 3272 1645 3428 
Q 1925 3584 2291 3584 
Q 2894 3584 3203 3211 
Q 3513 2838 3513 2113 
z
" transform="scale(0.015625)"/>
       <path id="DejaVuSans-52" d="M 2841 2188 
Q 3044 2119 3236 1894 
Q 3428 1669 3622 1275 
L 4263 0 
L 3584 0 
L 2988 1197 
Q 2756 1666 2539 1819 
Q 2322 1972 1947 1972 
L 1259 1972 
L 1259 0 
L 628 0 
L 628 4666 
L 2053 4666 
Q 2853 4666 3247 4331 
Q 3641 3997 3641 3322 
Q 3641 2881 3436 2590 
Q 3231 2300 2841 2188 
z
M 1259 4147 
L 1259 2491 
L 2053 2491 
Q 2509 2491 2742 2702 
Q 2975 2913 2975 3322 
Q 2975 3731 2742 3939 
Q 2509 4147 2053 4147 
L 1259 4147 
z
" transform="scale(0.015625)"/>
       <path id="DejaVuSans-4d" d="M 628 4666 
L 1569 4666 
L 2759 1491 
L 3956 4666 
L 4897 4666 
L 4897 0 
L 4281 0 
L 4281 4097 
L 3078 897 
L 2444 897 
L 1241 4097 
L 1241 0 
L 628 0 
L 628 4666 
z
" transform="scale(0.015625)"/>
       <path id="DejaVuSans-53" d="M 3425 4513 
L 3425 3897 
Q 3066 4069 2747 4153 
Q 2428 4238 2131 4238 
Q 1616 4238 1336 4038 
Q 1056 3838 1056 3469 
Q 1056 3159 1242 3001 
Q 1428 2844 1947 2747 
L 2328 2669 
Q 3034 2534 3370 2195 
Q 3706 1856 3706 1288 
Q 3706 609 3251 259 
Q 2797 -91 1919 -91 
Q 1588 -91 1214 -16 
Q 841 59 441 206 
L 441 856 
Q 825 641 1194 531 
Q 1563 422 1919 422 
Q 2459 422 2753 634 
Q 3047 847 3047 1241 
Q 3047 1584 2836 1778 
Q 2625 1972 2144 2069 
L 1759 2144 
Q 1053 2284 737 2584 
Q 422 2884 422 3419 
Q 422 4038 858 4394 
Q 1294 4750 2059 4750 
Q 2388 4750 2728 4690 
Q 3069 4631 3425 4513 
z
" transform="scale(0.015625)"/>
       <path id="DejaVuSans-45" d="M 628 4666 
L 3578 4666 
L 3578 4134 
L 1259 4134 
L 1259 2753 
L 3481 2753 
L 3481 2222 
L 1259 2222 
L 1259 531 
L 3634 531 
L 3634 0 
L 628 0 
L 628 4666 
z
" transform="scale(0.015625)"/>
      </defs>
      <use xlink:href="#DejaVuSans-6e"/>
      <use xlink:href="#DejaVuSans-52" transform="translate(63.378906 0)"/>
      <use xlink:href="#DejaVuSans-4d" transform="translate(132.861328 0)"/>
      <use xlink:href="#DejaVuSans-53" transform="translate(219.140625 0)"/>
      <use xlink:href="#DejaVuSans-45" transform="translate(282.617188 0)"/>
     </g>
    </g>
   </g>
   <g id="FillBetweenPolyCollection_1">
    <defs>
     <path id="mc964c019d7" d="M 91.873636 -61.879091 
L 91.873636 -61.879091 
L 94.226539 -63.070854 
L 96.579441 -64.259347 
L 98.932344 -65.444599 
L 101.285246 -66.62665 
L 103.638149 -67.805552 
L 105.991051 -68.981373 
L 108.343954 -70.154189 
L 110.696857 -71.324093 
L 113.049759 -72.491187 
L 115.402662 -73.655583 
L 117.755564 -74.8174 
L 120.108467 -75.976775 
L 122.461369 -77.133854 
L 124.814272 -78.288791 
L 127.167174 -79.441748 
L 129.520077 -80.592901 
L 131.872979 -81.742436 
L 134.225882 -82.890556 
L 136.578784 -84.037474 
L 138.931687 -85.183408 
L 141.284589 -86.32859 
L 143.637492 -87.473266 
L 145.990394 -88.61769 
L 148.343297 -89.762132 
L 150.696199 -90.906858 
L 153.049102 -92.052147 
L 155.402004 -93.198276 
L 157.754907 -94.345532 
L 160.107809 -95.494201 
L 162.460712 -96.644574 
L 164.813614 -97.796952 
L 167.166517 -98.951626 
L 169.519419 -100.108888 
L 171.872322 -101.269028 
L 174.225225 -102.432338 
L 176.578127 -103.599112 
L 178.93103 -104.769631 
L 181.283932 -105.944183 
L 183.636835 -107.123052 
L 185.989737 -108.306516 
L 188.34264 -109.494843 
L 190.695542 -110.6883 
L 193.048445 -111.887156 
L 195.401347 -113.091668 
L 197.75425 -114.302094 
L 200.107152 -115.51868 
L 202.460055 -116.741671 
L 204.812957 -117.971297 
L 207.16586 -119.207776 
L 209.518762 -120.451308 
L 211.871665 -121.702084 
L 214.224567 -122.96028 
L 216.57747 -124.226062 
L 218.930372 -125.499586 
L 221.283275 -126.780992 
L 223.636177 -128.070396 
L 225.98908 -129.367894 
L 228.341982 -130.673567 
L 230.694885 -131.987484 
L 233.047788 -133.309702 
L 235.40069 -134.640266 
L 237.753593 -135.979201 
L 240.106495 -137.326519 
L 242.459398 -138.682215 
L 244.8123 -140.046274 
L 247.165203 -141.41868 
L 249.518105 -142.799408 
L 251.871008 -144.188417 
L 254.22391 -145.585649 
L 256.576813 -146.991031 
L 258.929715 -148.40448 
L 261.282618 -149.825905 
L 263.63552 -151.255195 
L 265.988423 -152.692222 
L 268.341325 -154.136842 
L 270.694228 -155.588874 
L 273.04713 -157.048125 
L 275.400033 -158.514389 
L 277.752935 -159.987434 
L 280.105838 -161.467022 
L 282.45874 -162.952896 
L 284.811643 -164.444742 
L 287.164545 -165.942229 
L 289.517448 -167.445019 
L 291.87035 -168.952764 
L 294.223253 -170.465104 
L 296.576156 -171.981666 
L 298.929058 -173.502058 
L 301.281961 -175.025867 
L 303.634863 -176.552636 
L 305.987766 -178.081904 
L 308.340668 -179.613203 
L 310.693571 -181.146058 
L 313.046473 -182.679988 
L 315.399376 -184.214497 
L 317.752278 -185.749071 
L 320.105181 -187.283169 
L 322.458083 -188.816226 
L 324.810986 -190.34767 
L 327.163888 -191.87692 
L 329.516791 -193.403389 
L 331.869693 -194.926486 
L 334.222596 -196.445613 
L 336.575498 -197.960154 
L 338.928401 -199.469453 
L 341.281303 -200.972834 
L 343.634206 -202.469611 
L 345.987108 -203.95909 
L 348.340011 -205.440574 
L 350.692913 -206.913373 
L 353.045816 -208.376787 
L 355.398719 -209.830103 
L 357.751621 -211.272604 
L 360.104524 -212.70356 
L 362.457426 -214.12225 
L 364.810329 -215.527965 
L 367.163231 -216.920012 
L 369.516134 -218.297719 
L 371.869036 -219.660459 
L 374.221939 -221.007619 
L 376.574841 -222.338597 
L 378.927744 -223.652813 
L 381.280646 -224.949717 
L 383.633549 -226.228795 
L 385.986451 -227.489559 
L 388.339354 -228.731545 
L 390.692256 -229.954321 
L 393.045159 -231.157492 
L 395.398061 -232.34068 
L 397.750964 -233.503527 
L 400.103866 -234.645699 
L 402.456769 -235.766906 
L 404.809671 -236.866898 
L 407.162574 -237.945463 
L 409.515476 -239.002422 
L 411.868379 -240.037643 
L 414.221281 -241.051023 
L 416.574184 -242.042495 
L 418.927087 -243.012032 
L 421.279989 -243.959651 
L 423.632892 -244.88541 
L 425.985794 -245.789408 
L 428.338697 -246.671778 
L 430.691599 -247.532684 
L 433.044502 -248.372328 
L 435.397404 -249.190932 
L 437.750307 -249.988741 
L 440.103209 -250.766031 
L 442.456112 -251.523099 
L 444.809014 -252.260272 
L 447.161917 -252.977894 
L 449.514819 -253.676328 
L 451.867722 -254.355941 
L 454.220624 -255.017108 
L 456.573527 -255.660208 
L 458.926429 -256.285626 
L 461.279332 -256.893753 
L 463.632234 -257.484992 
L 465.985137 -258.059752 
L 468.338039 -258.618454 
L 470.690942 -259.161523 
L 473.043844 -259.689384 
L 475.396747 -260.202456 
L 477.74965 -260.701157 
L 480.102552 -261.185901 
L 482.455455 -261.657093 
L 484.808357 -262.115143 
L 487.16126 -262.56046 
L 489.514162 -262.993455 
L 491.867065 -263.414539 
L 494.219967 -263.824121 
L 496.57287 -264.222595 
L 498.925772 -264.610344 
L 501.278675 -264.987735 
L 503.631577 -265.355127 
L 505.98448 -265.71287 
L 508.337382 -266.061308 
L 510.690285 -266.400783 
L 513.043187 -266.731632 
L 515.39609 -267.054198 
L 517.748992 -267.368817 
L 520.101895 -267.675812 
L 522.454797 -267.975493 
L 524.8077 -268.268152 
L 527.160602 -268.55407 
L 529.513505 -268.833518 
L 531.866407 -269.10676 
L 534.21931 -269.374053 
L 536.572212 -269.635652 
L 538.925115 -269.891801 
L 541.278018 -270.142735 
L 543.63092 -270.38868 
L 545.983823 -270.629853 
L 548.336725 -270.866455 
L 550.689628 -271.098674 
L 553.04253 -271.326683 
L 555.395433 -271.550647 
L 557.748335 -271.770717 
L 560.101238 -271.987035 
L 562.45414 -272.199726 
L 564.807043 -272.408906 
L 567.159945 -272.614685 
L 569.512848 -272.817158 
L 571.86575 -273.016411 
L 574.218653 -273.21252 
L 576.571555 -273.405545 
L 578.924458 -273.595527 
L 581.27736 -273.782495 
L 583.630263 -273.966462 
L 585.983165 -274.147419 
L 588.336068 -274.325348 
L 590.68897 -274.500215 
L 593.041873 -274.671975 
L 595.394775 -274.840568 
L 597.747678 -275.005924 
L 600.100581 -275.167963 
L 602.453483 -275.326596 
L 604.806386 -275.481719 
L 607.159288 -275.633217 
L 609.512191 -275.780954 
L 611.865093 -275.924773 
L 614.217996 -276.064504 
L 616.570898 -276.199958 
L 618.923801 -276.33093 
L 621.276703 -276.457202 
L 623.629606 -276.578542 
L 625.982508 -276.694706 
L 628.335411 -276.805432 
L 630.688313 -276.910449 
L 633.041216 -277.009468 
L 635.394118 -277.102189 
L 637.747021 -277.188295 
L 640.099923 -277.267461 
L 642.452826 -277.339349 
L 644.805728 -277.403606 
L 647.158631 -277.459872 
L 649.511533 -277.507772 
L 651.864436 -277.546928 
L 654.217338 -277.576956 
L 656.570241 -277.597469 
L 658.923143 -277.608077 
L 661.276046 -277.608388 
L 663.628949 -277.598012 
L 665.981851 -277.576559 
L 668.334754 -277.543643 
L 670.687656 -277.498886 
L 673.040559 -277.441918 
L 675.393461 -277.372384 
L 677.746364 -277.28994 
L 677.746364 -351.326947 
L 677.746364 -351.326947 
L 675.393461 -351.807558 
L 673.040559 -352.288358 
L 670.687656 -352.768498 
L 668.334754 -353.247127 
L 665.981851 -353.723386 
L 663.628949 -354.196396 
L 661.276046 -354.665269 
L 658.923143 -355.129126 
L 656.570241 -355.587093 
L 654.217338 -356.038306 
L 651.864436 -356.481914 
L 649.511533 -356.917085 
L 647.158631 -357.343002 
L 644.805728 -357.758867 
L 642.452826 -358.163906 
L 640.099923 -358.557367 
L 637.747021 -358.938517 
L 635.394118 -359.306647 
L 633.041216 -359.661075 
L 630.688313 -360.001148 
L 628.335411 -360.326248 
L 625.982508 -360.635782 
L 623.629606 -360.92919 
L 621.276703 -361.205935 
L 618.923801 -361.465503 
L 616.570898 -361.707393 
L 614.217996 -361.931113 
L 611.865093 -362.136188 
L 609.512191 -362.322161 
L 607.159288 -362.488601 
L 604.806386 -362.635119 
L 602.453483 -362.761359 
L 600.100581 -362.866999 
L 597.747678 -362.951741 
L 595.394775 -363.015296 
L 593.041873 -363.057376 
L 590.68897 -363.077711 
L 588.336068 -363.076052 
L 585.983165 -363.052169 
L 583.630263 -363.005849 
L 581.27736 -362.936905 
L 578.924458 -362.845163 
L 576.571555 -362.73046 
L 574.218653 -362.592653 
L 571.86575 -362.431613 
L 569.512848 -362.247229 
L 567.159945 -362.039423 
L 564.807043 -361.808135 
L 562.45414 -361.553333 
L 560.101238 -361.275014 
L 557.748335 -360.973201 
L 555.395433 -360.647916 
L 553.04253 -360.299191 
L 550.689628 -359.927066 
L 548.336725 -359.531584 
L 545.983823 -359.112811 
L 543.63092 -358.670829 
L 541.278018 -358.205747 
L 538.925115 -357.717712 
L 536.572212 -357.206872 
L 534.21931 -356.673387 
L 531.866407 -356.117415 
L 529.513505 -355.539117 
L 527.160602 -354.938665 
L 524.8077 -354.316268 
L 522.454797 -353.672144 
L 520.101895 -353.006527 
L 517.748992 -352.319696 
L 515.39609 -351.61196 
L 513.043187 -350.883622 
L 510.690285 -350.135019 
L 508.337382 -349.366492 
L 505.98448 -348.578386 
L 503.631577 -347.771067 
L 501.278675 -346.944935 
L 498.925772 -346.100412 
L 496.57287 -345.237933 
L 494.219967 -344.357946 
L 491.867065 -343.460903 
L 489.514162 -342.54727 
L 487.16126 -341.617495 
L 484.808357 -340.672053 
L 482.455455 -339.711453 
L 480.102552 -338.736229 
L 477.74965 -337.746933 
L 475.396747 -336.744123 
L 473.043844 -335.728359 
L 470.690942 -334.700196 
L 468.338039 -333.660185 
L 465.985137 -332.608871 
L 463.632234 -331.546811 
L 461.279332 -330.474554 
L 458.926429 -329.392641 
L 456.573527 -328.301615 
L 454.220624 -327.202009 
L 451.867722 -326.094329 
L 449.514819 -324.979064 
L 447.161917 -323.856689 
L 444.809014 -322.727668 
L 442.456112 -321.592463 
L 440.103209 -320.451532 
L 437.750307 -319.305334 
L 435.397404 -318.154317 
L 433.044502 -316.998934 
L 430.691599 -315.839623 
L 428.338697 -314.676799 
L 425.985794 -313.510846 
L 423.632892 -312.342144 
L 421.279989 -311.171049 
L 418.927087 -309.997889 
L 416.574184 -308.822971 
L 414.221281 -307.646575 
L 411.868379 -306.468943 
L 409.515476 -305.290276 
L 407.162574 -304.11072 
L 404.809671 -302.930378 
L 402.456769 -301.749322 
L 400.103866 -300.567595 
L 397.750964 -299.385199 
L 395.398061 -298.202104 
L 393.045159 -297.018236 
L 390.692256 -295.833477 
L 388.339354 -294.647662 
L 385.986451 -293.460585 
L 383.633549 -292.272019 
L 381.280646 -291.081718 
L 378.927744 -289.889411 
L 376.574841 -288.694806 
L 374.221939 -287.497603 
L 371.869036 -286.297478 
L 369.516134 -285.094083 
L 367.163231 -283.887054 
L 364.810329 -282.67601 
L 362.457426 -281.460567 
L 360.104524 -280.240329 
L 357.751621 -279.014892 
L 355.398719 -277.783842 
L 353.045816 -276.546759 
L 350.692913 -275.303213 
L 348.340011 -274.052767 
L 345.987108 -272.794978 
L 343.634206 -271.529405 
L 341.281303 -270.255615 
L 338.928401 -268.973169 
L 336.575498 -267.681636 
L 334.222596 -266.380589 
L 331.869693 -265.069606 
L 329.516791 -263.748273 
L 327.163888 -262.416182 
L 324.810986 -261.072937 
L 322.458083 -259.718145 
L 320.105181 -258.35143 
L 317.752278 -256.972425 
L 315.399376 -255.580776 
L 313.046473 -254.17614 
L 310.693571 -252.758177 
L 308.340668 -251.326562 
L 305.987766 -249.880981 
L 303.634863 -248.421134 
L 301.281961 -246.946733 
L 298.929058 -245.457497 
L 296.576156 -243.95316 
L 294.223253 -242.433467 
L 291.87035 -240.89817 
L 289.517448 -239.347033 
L 287.164545 -237.779837 
L 284.811643 -236.196379 
L 282.45874 -234.59647 
L 280.105838 -232.979929 
L 277.752935 -231.346591 
L 275.400033 -229.6963 
L 273.04713 -228.028919 
L 270.694228 -226.344323 
L 268.341325 -224.642407 
L 265.988423 -222.923083 
L 263.63552 -221.186275 
L 261.282618 -219.431923 
L 258.929715 -217.659984 
L 256.576813 -215.870428 
L 254.22391 -214.063242 
L 251.871008 -212.238428 
L 249.518105 -210.396002 
L 247.165203 -208.535989 
L 244.8123 -206.658428 
L 242.459398 -204.763374 
L 240.106495 -202.850896 
L 237.753593 -200.921081 
L 235.40069 -198.974031 
L 233.047788 -197.009863 
L 230.694885 -195.028711 
L 228.341982 -193.030726 
L 225.98908 -191.016075 
L 223.636177 -188.98494 
L 221.283275 -186.937522 
L 218.930372 -184.874036 
L 216.57747 -182.794717 
L 214.224567 -180.699822 
L 211.871665 -178.589625 
L 209.518762 -176.46442 
L 207.16586 -174.324524 
L 204.812957 -172.170261 
L 202.460055 -170.001978 
L 200.107152 -167.820042 
L 197.75425 -165.62484 
L 195.401347 -163.416773 
L 193.048445 -161.196264 
L 190.695542 -158.963748 
L 188.34264 -156.719669 
L 185.989737 -154.46449 
L 183.636835 -152.198696 
L 181.283932 -149.922777 
L 178.93103 -147.637244 
L 176.578127 -145.342626 
L 174.225225 -143.039464 
L 171.872322 -140.728309 
L 169.519419 -138.409722 
L 167.166517 -136.084281 
L 164.813614 -133.752576 
L 162.460712 -131.41521 
L 160.107809 -129.072794 
L 157.754907 -126.725942 
L 155.402004 -124.375273 
L 153.049102 -122.021423 
L 150.696199 -119.665029 
L 148.343297 -117.306739 
L 145.990394 -114.947207 
L 143.637492 -112.5871 
L 141.284589 -110.22709 
L 138.931687 -107.86785 
L 136.578784 -105.510065 
L 134.225882 -103.154418 
L 131.872979 -100.801583 
L 129.520077 -98.452229 
L 127.167174 -96.107024 
L 124.814272 -93.766635 
L 122.461369 -91.431729 
L 120.108467 -89.102979 
L 117.755564 -86.781057 
L 115.402662 -84.466635 
L 113.049759 -82.160379 
L 110.696857 -79.862954 
L 108.343954 -77.57502 
L 105.991051 -75.297232 
L 103.638149 -73.030238 
L 101.285246 -70.774672 
L 98.932344 -68.531166 
L 96.579441 -66.300337 
L 94.226539 -64.082785 
L 91.873636 -61.879091 
z
" style="stroke: #000000; stroke-opacity: 0.1"/>
    </defs>
    <g clip-path="url(#peb48f8bbd5)">
     <use xlink:href="#mc964c019d7" x="0" y="360" style="fill-opacity: 0.1; stroke: #000000; stroke-opacity: 0.1"/>
    </g>
   </g>
   <g id="FillBetweenPolyCollection_2">
    <defs>
     <path id="m894f6a212c" d="M 91.873636 -61.879091 
L 91.873636 -61.879091 
L 94.226539 -63.113157 
L 96.579441 -64.331811 
L 98.932344 -65.534929 
L 101.285246 -66.722405 
L 103.638149 -67.89414 
L 105.991051 -69.050056 
L 108.343954 -70.190082 
L 110.696857 -71.314171 
L 113.049759 -72.422288 
L 115.402662 -73.514407 
L 117.755564 -74.590517 
L 120.108467 -75.65062 
L 122.461369 -76.694732 
L 124.814272 -77.722878 
L 127.167174 -78.735093 
L 129.520077 -79.731431 
L 131.872979 -80.711952 
L 134.225882 -81.676739 
L 136.578784 -82.625883 
L 138.931687 -83.559485 
L 141.284589 -84.477661 
L 143.637492 -85.380552 
L 145.990394 -86.268309 
L 148.343297 -87.141102 
L 150.696199 -87.99911 
L 153.049102 -88.842529 
L 155.402004 -89.671567 
L 157.754907 -90.486443 
L 160.107809 -91.28739 
L 162.460712 -92.074651 
L 164.813614 -92.848493 
L 167.166517 -93.609184 
L 169.519419 -94.357 
L 171.872322 -95.092229 
L 174.225225 -95.815173 
L 176.578127 -96.526139 
L 178.93103 -97.22544 
L 181.283932 -97.913408 
L 183.636835 -98.590385 
L 185.989737 -99.256719 
L 188.34264 -99.912764 
L 190.695542 -100.558882 
L 193.048445 -101.195448 
L 195.401347 -101.822846 
L 197.75425 -102.44147 
L 200.107152 -103.051722 
L 202.460055 -103.65401 
L 204.812957 -104.248743 
L 207.16586 -104.836336 
L 209.518762 -105.417201 
L 211.871665 -105.99175 
L 214.224567 -106.560403 
L 216.57747 -107.123581 
L 218.930372 -107.681707 
L 221.283275 -108.235201 
L 223.636177 -108.784477 
L 225.98908 -109.329945 
L 228.341982 -109.872011 
L 230.694885 -110.411087 
L 233.047788 -110.947581 
L 235.40069 -111.481896 
L 237.753593 -112.014424 
L 240.106495 -112.54555 
L 242.459398 -113.075652 
L 244.8123 -113.605103 
L 247.165203 -114.134275 
L 249.518105 -114.663539 
L 251.871008 -115.193255 
L 254.22391 -115.72377 
L 256.576813 -116.255423 
L 258.929715 -116.788543 
L 261.282618 -117.323455 
L 263.63552 -117.860469 
L 265.988423 -118.399883 
L 268.341325 -118.94198 
L 270.694228 -119.487012 
L 273.04713 -120.035223 
L 275.400033 -120.586838 
L 277.752935 -121.142067 
L 280.105838 -121.701108 
L 282.45874 -122.264143 
L 284.811643 -122.831302 
L 287.164545 -123.402696 
L 289.517448 -123.978421 
L 291.87035 -124.558564 
L 294.223253 -125.143197 
L 296.576156 -125.732376 
L 298.929058 -126.326132 
L 301.281961 -126.924467 
L 303.634863 -127.527344 
L 305.987766 -128.134711 
L 308.340668 -128.746513 
L 310.693571 -129.362681 
L 313.046473 -129.98313 
L 315.399376 -130.607758 
L 317.752278 -131.236437 
L 320.105181 -131.869012 
L 322.458083 -132.505294 
L 324.810986 -133.145082 
L 327.163888 -133.788159 
L 329.516791 -134.434295 
L 331.869693 -135.08325 
L 334.222596 -135.734769 
L 336.575498 -136.388567 
L 338.928401 -137.04432 
L 341.281303 -137.701675 
L 343.634206 -138.360255 
L 345.987108 -139.019669 
L 348.340011 -139.679511 
L 350.692913 -140.339369 
L 353.045816 -140.99881 
L 355.398719 -141.657375 
L 357.751621 -142.314583 
L 360.104524 -142.969925 
L 362.457426 -143.622881 
L 364.810329 -144.272928 
L 367.163231 -144.919536 
L 369.516134 -145.562183 
L 371.869036 -146.200368 
L 374.221939 -146.833589 
L 376.574841 -147.461329 
L 378.927744 -148.083069 
L 381.280646 -148.698297 
L 383.633549 -149.306518 
L 385.986451 -149.907237 
L 388.339354 -150.499962 
L 390.692256 -151.084211 
L 393.045159 -151.659511 
L 395.398061 -152.22538 
L 397.750964 -152.781327 
L 400.103866 -153.326856 
L 402.456769 -153.861491 
L 404.809671 -154.38477 
L 407.162574 -154.89625 
L 409.515476 -155.395497 
L 411.868379 -155.882105 
L 414.221281 -156.355676 
L 416.574184 -156.815822 
L 418.927087 -157.262183 
L 421.279989 -157.694428 
L 423.632892 -158.11226 
L 425.985794 -158.515416 
L 428.338697 -158.903665 
L 430.691599 -159.27681 
L 433.044502 -159.634693 
L 435.397404 -159.977181 
L 437.750307 -160.304173 
L 440.103209 -160.615603 
L 442.456112 -160.911445 
L 444.809014 -161.191715 
L 447.161917 -161.456469 
L 449.514819 -161.705799 
L 451.867722 -161.939821 
L 454.220624 -162.158671 
L 456.573527 -162.362506 
L 458.926429 -162.551502 
L 461.279332 -162.725857 
L 463.632234 -162.885802 
L 465.985137 -163.031602 
L 468.338039 -163.163558 
L 470.690942 -163.281995 
L 473.043844 -163.387261 
L 475.396747 -163.479721 
L 477.74965 -163.559756 
L 480.102552 -163.627758 
L 482.455455 -163.684135 
L 484.808357 -163.729318 
L 487.16126 -163.763767 
L 489.514162 -163.78797 
L 491.867065 -163.802442 
L 494.219967 -163.807719 
L 496.57287 -163.804334 
L 498.925772 -163.79282 
L 501.278675 -163.773707 
L 503.631577 -163.747531 
L 505.98448 -163.714833 
L 508.337382 -163.676164 
L 510.690285 -163.632089 
L 513.043187 -163.583189 
L 515.39609 -163.53006 
L 517.748992 -163.473303 
L 520.101895 -163.413514 
L 522.454797 -163.35128 
L 524.8077 -163.287179 
L 527.160602 -163.221782 
L 529.513505 -163.155657 
L 531.866407 -163.089368 
L 534.21931 -163.02348 
L 536.572212 -162.958557 
L 538.925115 -162.895154 
L 541.278018 -162.833809 
L 543.63092 -162.775054 
L 545.983823 -162.719403 
L 548.336725 -162.667356 
L 550.689628 -162.619394 
L 553.04253 -162.575981 
L 555.395433 -162.537562 
L 557.748335 -162.504561 
L 560.101238 -162.477384 
L 562.45414 -162.45641 
L 564.807043 -162.441998 
L 567.159945 -162.434485 
L 569.512848 -162.434192 
L 571.86575 -162.441419 
L 574.218653 -162.456443 
L 576.571555 -162.479515 
L 578.924458 -162.51085 
L 581.27736 -162.550631 
L 583.630263 -162.599008 
L 585.983165 -162.656091 
L 588.336068 -162.72196 
L 590.68897 -162.796667 
L 593.041873 -162.88023 
L 595.394775 -162.972634 
L 597.747678 -163.073837 
L 600.100581 -163.183763 
L 602.453483 -163.302313 
L 604.806386 -163.429352 
L 607.159288 -163.564718 
L 609.512191 -163.708211 
L 611.865093 -163.859605 
L 614.217996 -164.018655 
L 616.570898 -164.185088 
L 618.923801 -164.358615 
L 621.276703 -164.538932 
L 623.629606 -164.725725 
L 625.982508 -164.918675 
L 628.335411 -165.117466 
L 630.688313 -165.321784 
L 633.041216 -165.531338 
L 635.394118 -165.745862 
L 637.747021 -165.965128 
L 640.099923 -166.188956 
L 642.452826 -166.417216 
L 644.805728 -166.649841 
L 647.158631 -166.886831 
L 649.511533 -167.12827 
L 651.864436 -167.374325 
L 654.217338 -167.625261 
L 656.570241 -167.881436 
L 658.923143 -168.143313 
L 661.276046 -168.411455 
L 663.628949 -168.686525 
L 665.981851 -168.969281 
L 668.334754 -169.260571 
L 670.687656 -169.561318 
L 673.040559 -169.8725 
L 675.393461 -170.195147 
L 677.746364 -170.530327 
L 677.746364 -206.172715 
L 677.746364 -206.172715 
L 675.393461 -205.97745 
L 673.040559 -205.816918 
L 670.687656 -205.691165 
L 668.334754 -205.600152 
L 665.981851 -205.543741 
L 663.628949 -205.521684 
L 661.276046 -205.53361 
L 658.923143 -205.579035 
L 656.570241 -205.65735 
L 654.217338 -205.767826 
L 651.864436 -205.909611 
L 649.511533 -206.081742 
L 647.158631 -206.283147 
L 644.805728 -206.51266 
L 642.452826 -206.769031 
L 640.099923 -207.050931 
L 637.747021 -207.356961 
L 635.394118 -207.685668 
L 633.041216 -208.035554 
L 630.688313 -208.405095 
L 628.335411 -208.792749 
L 625.982508 -209.196966 
L 623.629606 -209.6162 
L 621.276703 -210.048907 
L 618.923801 -210.49356 
L 616.570898 -210.948645 
L 614.217996 -211.412673 
L 611.865093 -211.884181 
L 609.512191 -212.361737 
L 607.159288 -212.843948 
L 604.806386 -213.329473 
L 602.453483 -213.817026 
L 600.100581 -214.305375 
L 597.747678 -214.793339 
L 595.394775 -215.279776 
L 593.041873 -215.763585 
L 590.68897 -216.243709 
L 588.336068 -216.719145 
L 585.983165 -217.188935 
L 583.630263 -217.652172 
L 581.27736 -218.108004 
L 578.924458 -218.555621 
L 576.571555 -218.994257 
L 574.218653 -219.423195 
L 571.86575 -219.84177 
L 569.512848 -220.24937 
L 567.159945 -220.645443 
L 564.807043 -221.029482 
L 562.45414 -221.401035 
L 560.101238 -221.759706 
L 557.748335 -222.105143 
L 555.395433 -222.437031 
L 553.04253 -222.755091 
L 550.689628 -223.05908 
L 548.336725 -223.348782 
L 545.983823 -223.62402 
L 543.63092 -223.88465 
L 541.278018 -224.130563 
L 538.925115 -224.361703 
L 536.572212 -224.578033 
L 534.21931 -224.779541 
L 531.866407 -224.966228 
L 529.513505 -225.138113 
L 527.160602 -225.295237 
L 524.8077 -225.437683 
L 522.454797 -225.565553 
L 520.101895 -225.678971 
L 517.748992 -225.778103 
L 515.39609 -225.863151 
L 513.043187 -225.934323 
L 510.690285 -225.991861 
L 508.337382 -226.036017 
L 505.98448 -226.067055 
L 503.631577 -226.085254 
L 501.278675 -226.090918 
L 498.925772 -226.084369 
L 496.57287 -226.065942 
L 494.219967 -226.035979 
L 491.867065 -225.994826 
L 489.514162 -225.942836 
L 487.16126 -225.880345 
L 484.808357 -225.807706 
L 482.455455 -225.725284 
L 480.102552 -225.633457 
L 477.74965 -225.532596 
L 475.396747 -225.42307 
L 473.043844 -225.305236 
L 470.690942 -225.179436 
L 468.338039 -225.045995 
L 465.985137 -224.905223 
L 463.632234 -224.757421 
L 461.279332 -224.602873 
L 458.926429 -224.441837 
L 456.573527 -224.274557 
L 454.220624 -224.101257 
L 451.867722 -223.922126 
L 449.514819 -223.737326 
L 447.161917 -223.547002 
L 444.809014 -223.351281 
L 442.456112 -223.150272 
L 440.103209 -222.944069 
L 437.750307 -222.732753 
L 435.397404 -222.516384 
L 433.044502 -222.295017 
L 430.691599 -222.06869 
L 428.338697 -221.837416 
L 425.985794 -221.601181 
L 423.632892 -221.359959 
L 421.279989 -221.113704 
L 418.927087 -220.86234 
L 416.574184 -220.605781 
L 414.221281 -220.343919 
L 411.868379 -220.076624 
L 409.515476 -219.803741 
L 407.162574 -219.525087 
L 404.809671 -219.240452 
L 402.456769 -218.949616 
L 400.103866 -218.652347 
L 397.750964 -218.348395 
L 395.398061 -218.037497 
L 393.045159 -217.719372 
L 390.692256 -217.393725 
L 388.339354 -217.060238 
L 385.986451 -216.718588 
L 383.633549 -216.368447 
L 381.280646 -216.009483 
L 378.927744 -215.641358 
L 376.574841 -215.263731 
L 374.221939 -214.87627 
L 371.869036 -214.478637 
L 369.516134 -214.070494 
L 367.163231 -213.651494 
L 364.810329 -213.221299 
L 362.457426 -212.779572 
L 360.104524 -212.325983 
L 357.751621 -211.8602 
L 355.398719 -211.381896 
L 353.045816 -210.890744 
L 350.692913 -210.386427 
L 348.340011 -209.868627 
L 345.987108 -209.337036 
L 343.634206 -208.791358 
L 341.281303 -208.231303 
L 338.928401 -207.656583 
L 336.575498 -207.066923 
L 334.222596 -206.462059 
L 331.869693 -205.841733 
L 329.516791 -205.205694 
L 327.163888 -204.553706 
L 324.810986 -203.885541 
L 322.458083 -203.200977 
L 320.105181 -202.499805 
L 317.752278 -201.781829 
L 315.399376 -201.046857 
L 313.046473 -200.294713 
L 310.693571 -199.525218 
L 308.340668 -198.738205 
L 305.987766 -197.933516 
L 303.634863 -197.111003 
L 301.281961 -196.270528 
L 298.929058 -195.41196 
L 296.576156 -194.535177 
L 294.223253 -193.640068 
L 291.87035 -192.72653 
L 289.517448 -191.794463 
L 287.164545 -190.843789 
L 284.811643 -189.87444 
L 282.45874 -188.886361 
L 280.105838 -187.879502 
L 277.752935 -186.853825 
L 275.400033 -185.8093 
L 273.04713 -184.745908 
L 270.694228 -183.66364 
L 268.341325 -182.562501 
L 265.988423 -181.442512 
L 263.63552 -180.303699 
L 261.282618 -179.146102 
L 258.929715 -177.969772 
L 256.576813 -176.774773 
L 254.22391 -175.561181 
L 251.871008 -174.329082 
L 249.518105 -173.078571 
L 247.165203 -171.80975 
L 244.8123 -170.522728 
L 242.459398 -169.217625 
L 240.106495 -167.894573 
L 237.753593 -166.553714 
L 235.40069 -165.195202 
L 233.047788 -163.819202 
L 230.694885 -162.425889 
L 228.341982 -161.015456 
L 225.98908 -159.588105 
L 223.636177 -158.144051 
L 221.283275 -156.683523 
L 218.930372 -155.206756 
L 216.57747 -153.714004 
L 214.224567 -152.205536 
L 211.871665 -150.681633 
L 209.518762 -149.142588 
L 207.16586 -147.588712 
L 204.812957 -146.020317 
L 202.460055 -144.437732 
L 200.107152 -142.841297 
L 197.75425 -141.231369 
L 195.401347 -139.60831 
L 193.048445 -137.9725 
L 190.695542 -136.324321 
L 188.34264 -134.664162 
L 185.989737 -132.992421 
L 183.636835 -131.309512 
L 181.283932 -129.615853 
L 178.93103 -127.911873 
L 176.578127 -126.198013 
L 174.225225 -124.474722 
L 171.872322 -122.74245 
L 169.519419 -121.001655 
L 167.166517 -119.2528 
L 164.813614 -117.49636 
L 162.460712 -115.732813 
L 160.107809 -113.962638 
L 157.754907 -112.186311 
L 155.402004 -110.40431 
L 153.049102 -108.617119 
L 150.696199 -106.825222 
L 148.343297 -105.029101 
L 145.990394 -103.229245 
L 143.637492 -101.426144 
L 141.284589 -99.620289 
L 138.931687 -97.812169 
L 136.578784 -96.002274 
L 134.225882 -94.191091 
L 131.872979 -92.379092 
L 129.520077 -90.566739 
L 127.167174 -88.754491 
L 124.814272 -86.942799 
L 122.461369 -85.132113 
L 120.108467 -83.322883 
L 117.755564 -81.515552 
L 115.402662 -79.71056 
L 113.049759 -77.908338 
L 110.696857 -76.109307 
L 108.343954 -74.313882 
L 105.991051 -72.522469 
L 103.638149 -70.735457 
L 101.285246 -68.953223 
L 98.932344 -67.176132 
L 96.579441 -65.404533 
L 94.226539 -63.638751 
L 91.873636 -61.879091 
z
" style="stroke: #a52a2a; stroke-opacity: 0.1"/>
    </defs>
    <g clip-path="url(#peb48f8bbd5)">
     <use xlink:href="#m894f6a212c" x="0" y="360" style="fill: #a52a2a; fill-opacity: 0.1; stroke: #a52a2a; stroke-opacity: 0.1"/>
    </g>
   </g>
   <g id="FillBetweenPolyCollection_3">
    <defs>
     <path id="m4fbb367f90" d="M 91.873636 -61.879091 
L 91.873636 -61.879091 
L 94.226539 -62.035856 
L 96.579441 -62.183217 
L 98.932344 -62.321072 
L 101.285246 -62.449351 
L 103.638149 -62.568022 
L 105.991051 -62.677094 
L 108.343954 -62.77662 
L 110.696857 -62.866697 
L 113.049759 -62.947468 
L 115.402662 -63.019125 
L 117.755564 -63.081906 
L 120.108467 -63.136096 
L 122.461369 -63.182031 
L 124.814272 -63.220088 
L 127.167174 -63.250692 
L 129.520077 -63.274306 
L 131.872979 -63.291434 
L 134.225882 -63.302614 
L 136.578784 -63.308415 
L 138.931687 -63.309429 
L 141.284589 -63.306273 
L 143.637492 -63.299581 
L 145.990394 -63.289999 
L 148.343297 -63.278181 
L 150.696199 -63.264789 
L 153.049102 -63.250483 
L 155.402004 -63.235929 
L 157.754907 -63.22179 
L 160.107809 -63.208728 
L 162.460712 -63.197407 
L 164.813614 -63.188492 
L 167.166517 -63.182647 
L 169.519419 -63.180539 
L 171.872322 -63.182836 
L 174.225225 -63.190203 
L 176.578127 -63.2033 
L 178.93103 -63.222778 
L 181.283932 -63.249267 
L 183.636835 -63.283362 
L 185.989737 -63.325616 
L 188.34264 -63.376513 
L 190.695542 -63.436455 
L 193.048445 -63.505738 
L 195.401347 -63.584531 
L 197.75425 -63.672858 
L 200.107152 -63.77058 
L 202.460055 -63.877378 
L 204.812957 -63.992741 
L 207.16586 -64.115954 
L 209.518762 -64.246084 
L 211.871665 -64.381963 
L 214.224567 -64.522166 
L 216.57747 -64.664982 
L 218.930372 -64.808394 
L 221.283275 -64.950079 
L 223.636177 -65.087525 
L 225.98908 -65.218345 
L 228.341982 -65.340894 
L 230.694885 -65.454954 
L 233.047788 -65.561968 
L 235.40069 -65.664475 
L 237.753593 -65.765133 
L 240.106495 -65.865968 
L 242.459398 -65.968114 
L 244.8123 -66.071872 
L 247.165203 -66.176902 
L 249.518105 -66.282421 
L 251.871008 -66.387368 
L 254.22391 -66.490532 
L 256.576813 -66.590647 
L 258.929715 -66.68646 
L 261.282618 -66.776776 
L 263.63552 -66.860487 
L 265.988423 -66.936594 
L 268.341325 -67.004214 
L 270.694228 -67.062584 
L 273.04713 -67.111061 
L 275.400033 -67.149116 
L 277.752935 -67.176333 
L 280.105838 -67.192401 
L 282.45874 -67.197108 
L 284.811643 -67.190335 
L 287.164545 -67.172058 
L 289.517448 -67.142342 
L 291.87035 -67.101341 
L 294.223253 -67.049299 
L 296.576156 -66.986551 
L 298.929058 -66.913525 
L 301.281961 -66.830749 
L 303.634863 -66.738851 
L 305.987766 -66.63857 
L 308.340668 -66.530759 
L 310.693571 -66.416394 
L 313.046473 -66.29658 
L 315.399376 -66.172557 
L 317.752278 -66.045711 
L 320.105181 -65.917577 
L 322.458083 -65.789843 
L 324.810986 -65.664348 
L 327.163888 -65.543076 
L 329.516791 -65.428129 
L 331.869693 -65.321699 
L 334.222596 -65.226003 
L 336.575498 -65.1432 
L 338.928401 -65.075245 
L 341.281303 -65.023639 
L 343.634206 -64.988577 
L 345.987108 -64.960462 
L 348.340011 -64.896047 
L 350.692913 -64.825029 
L 353.045816 -64.764779 
L 355.398719 -64.716662 
L 357.751621 -64.680425 
L 360.104524 -64.655342 
L 362.457426 -64.640425 
L 364.810329 -64.6345 
L 367.163231 -64.636283 
L 369.516134 -64.644429 
L 371.869036 -64.657592 
L 374.221939 -64.67447 
L 376.574841 -64.693841 
L 378.927744 -64.71459 
L 381.280646 -64.73572 
L 383.633549 -64.75636 
L 385.986451 -64.775762 
L 388.339354 -64.793299 
L 390.692256 -64.808455 
L 393.045159 -64.820812 
L 395.398061 -64.830038 
L 397.750964 -64.835874 
L 400.103866 -64.838125 
L 402.456769 -64.836646 
L 404.809671 -64.831335 
L 407.162574 -64.822124 
L 409.515476 -64.808971 
L 411.868379 -64.791853 
L 414.221281 -64.770763 
L 416.574184 -64.745705 
L 418.927087 -64.716699 
L 421.279989 -64.683776 
L 423.632892 -64.646987 
L 425.985794 -64.606412 
L 428.338697 -64.562165 
L 430.691599 -64.51441 
L 433.044502 -64.463367 
L 435.397404 -64.409325 
L 437.750307 -64.352652 
L 440.103209 -64.293797 
L 442.456112 -64.233292 
L 444.809014 -64.171747 
L 447.161917 -64.109848 
L 449.514819 -64.048352 
L 451.867722 -63.988085 
L 454.220624 -63.929931 
L 456.573527 -63.874831 
L 458.926429 -63.823775 
L 461.279332 -63.777795 
L 463.632234 -63.737954 
L 465.985137 -63.705327 
L 468.338039 -63.680983 
L 470.690942 -63.665955 
L 473.043844 -63.661214 
L 475.396747 -63.667637 
L 477.74965 -63.68598 
L 480.102552 -63.716857 
L 482.455455 -63.760715 
L 484.808357 -63.817826 
L 487.16126 -63.888267 
L 489.514162 -63.971913 
L 491.867065 -64.068432 
L 494.219967 -64.177295 
L 496.57287 -64.297793 
L 498.925772 -64.429063 
L 501.278675 -64.570125 
L 503.631577 -64.719914 
L 505.98448 -64.877313 
L 508.337382 -65.041176 
L 510.690285 -65.210346 
L 513.043187 -65.383672 
L 515.39609 -65.560012 
L 517.748992 -65.738239 
L 520.101895 -65.917237 
L 522.454797 -66.095904 
L 524.8077 -66.273153 
L 527.160602 -66.447919 
L 529.513505 -66.619165 
L 531.866407 -66.785885 
L 534.21931 -66.947113 
L 536.572212 -67.101933 
L 538.925115 -67.249486 
L 541.278018 -67.388979 
L 543.63092 -67.519704 
L 545.983823 -67.64104 
L 548.336725 -67.752469 
L 550.689628 -67.853579 
L 553.04253 -67.944063 
L 555.395433 -68.0237 
L 557.748335 -68.092325 
L 560.101238 -68.149763 
L 562.45414 -68.195773 
L 564.807043 -68.230042 
L 567.159945 -68.252393 
L 569.512848 -68.263221 
L 571.86575 -68.263889 
L 574.218653 -68.256752 
L 576.571555 -68.244869 
L 578.924458 -68.231733 
L 581.27736 -68.221149 
L 583.630263 -68.217199 
L 585.983165 -68.224214 
L 588.336068 -68.246722 
L 590.68897 -68.289344 
L 593.041873 -68.356637 
L 595.394775 -68.452895 
L 597.747678 -68.581935 
L 600.100581 -68.746894 
L 602.453483 -68.950074 
L 604.806386 -69.192849 
L 607.159288 -69.475671 
L 609.512191 -69.79813 
L 611.865093 -70.159084 
L 614.217996 -70.556802 
L 616.570898 -70.989123 
L 618.923801 -71.453595 
L 621.276703 -71.947593 
L 623.629606 -72.468416 
L 625.982508 -73.013352 
L 628.335411 -73.579731 
L 630.688313 -74.164955 
L 633.041216 -74.76652 
L 635.394118 -75.382025 
L 637.747021 -76.00918 
L 640.099923 -76.645813 
L 642.452826 -77.289866 
L 644.805728 -77.939396 
L 647.158631 -78.59258 
L 649.511533 -79.247709 
L 651.864436 -79.90318 
L 654.217338 -80.5575 
L 656.570241 -81.209283 
L 658.923143 -81.857235 
L 661.276046 -82.500157 
L 663.628949 -83.136944 
L 665.981851 -83.766569 
L 668.334754 -84.388082 
L 670.687656 -85.0006 
L 673.040559 -85.603293 
L 675.393461 -86.195378 
L 677.746364 -86.776123 
L 677.746364 -90.156781 
L 677.746364 -90.156781 
L 675.393461 -89.64481 
L 673.040559 -89.11887 
L 670.687656 -88.578336 
L 668.334754 -88.022767 
L 665.981851 -87.451912 
L 663.628949 -86.865708 
L 661.276046 -86.264295 
L 658.923143 -85.648021 
L 656.570241 -85.017449 
L 654.217338 -84.373351 
L 651.864436 -83.716719 
L 649.511533 -83.048766 
L 647.158631 -82.370918 
L 644.805728 -81.684811 
L 642.452826 -80.992289 
L 640.099923 -80.295402 
L 637.747021 -79.596384 
L 635.394118 -78.897646 
L 633.041216 -78.20176 
L 630.688313 -77.511447 
L 628.335411 -76.829549 
L 625.982508 -76.159006 
L 623.629606 -75.502833 
L 621.276703 -74.864085 
L 618.923801 -74.245816 
L 616.570898 -73.651041 
L 614.217996 -73.082687 
L 611.865093 -72.54354 
L 609.512191 -72.036187 
L 607.159288 -71.562945 
L 604.806386 -71.125782 
L 602.453483 -70.726235 
L 600.100581 -70.365311 
L 597.747678 -70.043408 
L 595.394775 -69.760233 
L 593.041873 -69.514762 
L 590.68897 -69.305224 
L 588.336068 -69.12915 
L 585.983165 -68.983468 
L 583.630263 -68.864651 
L 581.27736 -68.7689 
L 578.924458 -68.692349 
L 576.571555 -68.631263 
L 574.218653 -68.582203 
L 571.86575 -68.542121 
L 569.512848 -68.508311 
L 567.159945 -68.478165 
L 564.807043 -68.448876 
L 562.45414 -68.417433 
L 560.101238 -68.380969 
L 557.748335 -68.337143 
L 555.395433 -68.284285 
L 553.04253 -68.221335 
L 550.689628 -68.147722 
L 548.336725 -68.063255 
L 545.983823 -67.968029 
L 543.63092 -67.862362 
L 541.278018 -67.746751 
L 538.925115 -67.621838 
L 536.572212 -67.488388 
L 534.21931 -67.347267 
L 531.866407 -67.199427 
L 529.513505 -67.045891 
L 527.160602 -66.887746 
L 524.8077 -66.726122 
L 522.454797 -66.562192 
L 520.101895 -66.397159 
L 517.748992 -66.232247 
L 515.39609 -66.0687 
L 513.043187 -65.90778 
L 510.690285 -65.750754 
L 508.337382 -65.59889 
L 505.98448 -65.453452 
L 503.631577 -65.315684 
L 501.278675 -65.186796 
L 498.925772 -65.067955 
L 496.57287 -64.96026 
L 494.219967 -64.864716 
L 491.867065 -64.782188 
L 489.514162 -64.713359 
L 487.16126 -64.658673 
L 484.808357 -64.618285 
L 482.455455 -64.592026 
L 480.102552 -64.579387 
L 477.74965 -64.579546 
L 475.396747 -64.591418 
L 473.043844 -64.613732 
L 470.690942 -64.645125 
L 468.338039 -64.684223 
L 465.985137 -64.729721 
L 463.632234 -64.780426 
L 461.279332 -64.835297 
L 458.926429 -64.893452 
L 456.573527 -64.954172 
L 454.220624 -65.016891 
L 451.867722 -65.081176 
L 449.514819 -65.146698 
L 447.161917 -65.213212 
L 444.809014 -65.280528 
L 442.456112 -65.348486 
L 440.103209 -65.416925 
L 437.750307 -65.485659 
L 435.397404 -65.554457 
L 433.044502 -65.623027 
L 430.691599 -65.691005 
L 428.338697 -65.757951 
L 425.985794 -65.823358 
L 423.632892 -65.886661 
L 421.279989 -65.947252 
L 418.927087 -66.004494 
L 416.574184 -66.057729 
L 414.221281 -66.106303 
L 411.868379 -66.149568 
L 409.515476 -66.186901 
L 407.162574 -66.217713 
L 404.809671 -66.241457 
L 402.456769 -66.257639 
L 400.103866 -66.265828 
L 397.750964 -66.265663 
L 395.398061 -66.256859 
L 393.045159 -66.239212 
L 390.692256 -66.212614 
L 388.339354 -66.177063 
L 385.986451 -66.132667 
L 383.633549 -66.079666 
L 381.280646 -66.018441 
L 378.927744 -65.949533 
L 376.574841 -65.873662 
L 374.221939 -65.791746 
L 371.869036 -65.704923 
L 369.516134 -65.614573 
L 367.163231 -65.522336 
L 364.810329 -65.430129 
L 362.457426 -65.34014 
L 360.104524 -65.254806 
L 357.751621 -65.176763 
L 355.398719 -65.10876 
L 353.045816 -65.053562 
L 350.692913 -65.013943 
L 348.340011 -64.993621 
L 345.987108 -65.01146 
L 343.634206 -65.097661 
L 341.281303 -65.208436 
L 338.928401 -65.33266 
L 336.575498 -65.468135 
L 334.222596 -65.613284 
L 331.869693 -65.766509 
L 329.516791 -65.926119 
L 327.163888 -66.090361 
L 324.810986 -66.257459 
L 322.458083 -66.425653 
L 320.105181 -66.593234 
L 317.752278 -66.758568 
L 315.399376 -66.920114 
L 313.046473 -67.076437 
L 310.693571 -67.226223 
L 308.340668 -67.368276 
L 305.987766 -67.501524 
L 303.634863 -67.625018 
L 301.281961 -67.73793 
L 298.929058 -67.839554 
L 296.576156 -67.929301 
L 294.223253 -68.006702 
L 291.87035 -68.071406 
L 289.517448 -68.123172 
L 287.164545 -68.161865 
L 284.811643 -68.187449 
L 282.45874 -68.199986 
L 280.105838 -68.199625 
L 277.752935 -68.186601 
L 275.400033 -68.161232 
L 273.04713 -68.123907 
L 270.694228 -68.075076 
L 268.341325 -68.015242 
L 265.988423 -67.944953 
L 263.63552 -67.864795 
L 261.282618 -67.775393 
L 258.929715 -67.677401 
L 256.576813 -67.571512 
L 254.22391 -67.458456 
L 251.871008 -67.339022 
L 249.518105 -67.214076 
L 247.165203 -67.084611 
L 244.8123 -66.951808 
L 242.459398 -66.81712 
L 240.106495 -66.682397 
L 237.753593 -66.55003 
L 235.40069 -66.423089 
L 233.047788 -66.305338 
L 230.694885 -66.200926 
L 228.341982 -66.11361 
L 225.98908 -66.045758 
L 223.636177 -65.997783 
L 221.283275 -65.968391 
L 218.930372 -65.955303 
L 216.57747 -65.955905 
L 214.224567 -65.967613 
L 211.871665 -65.988017 
L 209.518762 -66.014924 
L 207.16586 -66.046362 
L 204.812957 -66.080566 
L 202.460055 -66.115968 
L 200.107152 -66.151191 
L 197.75425 -66.185035 
L 195.401347 -66.216459 
L 193.048445 -66.244575 
L 190.695542 -66.268633 
L 188.34264 -66.288004 
L 185.989737 -66.302176 
L 183.636835 -66.310739 
L 181.283932 -66.313376 
L 178.93103 -66.309855 
L 176.578127 -66.300021 
L 174.225225 -66.283783 
L 171.872322 -66.261114 
L 169.519419 -66.232035 
L 167.166517 -66.196616 
L 164.813614 -66.154961 
L 162.460712 -66.107207 
L 160.107809 -66.053506 
L 157.754907 -65.994022 
L 155.402004 -65.928918 
L 153.049102 -65.858352 
L 150.696199 -65.782465 
L 148.343297 -65.701371 
L 145.990394 -65.615155 
L 143.637492 -65.523864 
L 141.284589 -65.427501 
L 138.931687 -65.326023 
L 136.578784 -65.21934 
L 134.225882 -65.107312 
L 131.872979 -64.989752 
L 129.520077 -64.866428 
L 127.167174 -64.737071 
L 124.814272 -64.601384 
L 122.461369 -64.459049 
L 120.108467 -64.30974 
L 117.755564 -64.153132 
L 115.402662 -63.988906 
L 113.049759 -63.816759 
L 110.696857 -63.636417 
L 108.343954 -63.447642 
L 105.991051 -63.250231 
L 103.638149 -63.044027 
L 101.285246 -62.828922 
L 98.932344 -62.604858 
L 96.579441 -62.371828 
L 94.226539 -62.129875 
L 91.873636 -61.879091 
z
" style="stroke: #000080; stroke-opacity: 0.1"/>
    </defs>
    <g clip-path="url(#peb48f8bbd5)">
     <use xlink:href="#m4fbb367f90" x="0" y="360" style="fill: #000080; fill-opacity: 0.1; stroke: #000080; stroke-opacity: 0.1"/>
    </g>
   </g>
   <g id="FillBetweenPolyCollection_4">
    <defs>
     <path id="me346fb1a9d" d="M 91.873636 -61.879091 
L 91.873636 -61.879091 
L 94.226539 -62.463606 
L 96.579441 -63.019224 
L 98.932344 -63.546265 
L 101.285246 -64.045211 
L 103.638149 -64.516715 
L 105.991051 -64.961608 
L 108.343954 -65.38089 
L 110.696857 -65.775735 
L 113.049759 -66.147466 
L 115.402662 -66.497541 
L 117.755564 -66.827528 
L 120.108467 -67.139083 
L 122.461369 -67.433912 
L 124.814272 -67.713723 
L 127.167174 -67.980189 
L 129.520077 -68.234908 
L 131.872979 -68.479353 
L 134.225882 -68.714837 
L 136.578784 -68.942468 
L 138.931687 -69.16311 
L 141.284589 -69.377376 
L 143.637492 -69.585616 
L 145.990394 -69.787904 
L 148.343297 -69.984054 
L 150.696199 -70.173625 
L 153.049102 -70.35595 
L 155.402004 -70.530169 
L 157.754907 -70.695255 
L 160.107809 -70.85006 
L 162.460712 -70.993345 
L 164.813614 -71.123826 
L 167.166517 -71.240204 
L 169.519419 -71.3412 
L 171.872322 -71.425597 
L 174.225225 -71.49227 
L 176.578127 -71.540221 
L 178.93103 -71.568605 
L 181.283932 -71.576765 
L 183.636835 -71.56427 
L 185.989737 -71.53094 
L 188.34264 -71.47689 
L 190.695542 -71.402571 
L 193.048445 -71.308815 
L 195.401347 -71.196883 
L 197.75425 -71.068522 
L 200.107152 -70.926023 
L 202.460055 -70.772287 
L 204.812957 -70.610888 
L 207.16586 -70.446125 
L 209.518762 -70.283064 
L 211.871665 -70.127544 
L 214.224567 -69.986121 
L 216.57747 -69.865923 
L 218.930372 -69.774396 
L 221.283275 -69.718923 
L 223.636177 -69.706328 
L 225.98908 -69.742328 
L 228.341982 -69.831019 
L 230.694885 -69.974505 
L 233.047788 -70.172758 
L 235.40069 -70.423722 
L 237.753593 -70.723617 
L 240.106495 -71.067343 
L 242.459398 -71.448893 
L 244.8123 -71.861661 
L 247.165203 -72.298577 
L 249.518105 -72.751896 
L 251.871008 -73.21214 
L 254.22391 -73.664392 
L 256.576813 -74.076466 
L 258.929715 -74.388789 
L 261.282618 -74.588184 
L 263.63552 -74.72496 
L 265.988423 -74.827552 
L 268.341325 -74.903957 
L 270.694228 -74.955543 
L 273.04713 -74.981753 
L 275.400033 -74.98157 
L 277.752935 -74.954033 
L 280.105838 -74.898432 
L 282.45874 -74.81439 
L 284.811643 -74.701883 
L 287.164545 -74.561255 
L 289.517448 -74.393203 
L 291.87035 -74.198776 
L 294.223253 -73.979353 
L 296.576156 -73.736634 
L 298.929058 -73.47262 
L 301.281961 -73.189605 
L 303.634863 -72.890153 
L 305.987766 -72.577084 
L 308.340668 -72.253455 
L 310.693571 -71.922537 
L 313.046473 -71.587777 
L 315.399376 -71.252766 
L 317.752278 -70.921186 
L 320.105181 -70.59676 
L 322.458083 -70.283173 
L 324.810986 -69.984004 
L 327.163888 -69.702643 
L 329.516791 -69.442196 
L 331.869693 -69.205401 
L 334.222596 -68.994542 
L 336.575498 -68.811374 
L 338.928401 -68.657066 
L 341.281303 -68.532172 
L 343.634206 -68.436616 
L 345.987108 -68.36971 
L 348.340011 -68.330202 
L 350.692913 -68.316345 
L 353.045816 -68.325969 
L 355.398719 -68.35658 
L 357.751621 -68.405447 
L 360.104524 -68.469698 
L 362.457426 -68.546407 
L 364.810329 -68.632669 
L 367.163231 -68.725656 
L 369.516134 -68.822659 
L 371.869036 -68.921134 
L 374.221939 -69.018713 
L 376.574841 -69.113227 
L 378.927744 -69.202716 
L 381.280646 -69.285435 
L 383.633549 -69.359865 
L 385.986451 -69.42471 
L 388.339354 -69.478892 
L 390.692256 -69.521556 
L 393.045159 -69.552071 
L 395.398061 -69.570018 
L 397.750964 -69.57519 
L 400.103866 -69.567593 
L 402.456769 -69.547443 
L 404.809671 -69.515162 
L 407.162574 -69.471365 
L 409.515476 -69.416856 
L 411.868379 -69.352606 
L 414.221281 -69.279738 
L 416.574184 -69.199507 
L 418.927087 -69.113277 
L 421.279989 -69.02249 
L 423.632892 -68.92864 
L 425.985794 -68.833233 
L 428.338697 -68.737749 
L 430.691599 -68.643603 
L 433.044502 -68.552107 
L 435.397404 -68.46443 
L 437.750307 -68.381561 
L 440.103209 -68.304282 
L 442.456112 -68.233149 
L 444.809014 -68.16847 
L 447.161917 -68.110299 
L 449.514819 -68.05844 
L 451.867722 -68.012449 
L 454.220624 -67.971666 
L 456.573527 -67.935234 
L 458.926429 -67.902141 
L 461.279332 -67.871257 
L 463.632234 -67.841374 
L 465.985137 -67.811254 
L 468.338039 -67.779661 
L 470.690942 -67.745392 
L 473.043844 -67.707316 
L 475.396747 -67.664395 
L 477.74965 -67.615708 
L 480.102552 -67.560475 
L 482.455455 -67.498068 
L 484.808357 -67.428037 
L 487.16126 -67.35013 
L 489.514162 -67.264329 
L 491.867065 -67.170886 
L 494.219967 -67.070384 
L 496.57287 -66.963801 
L 498.925772 -66.852592 
L 501.278675 -66.738755 
L 503.631577 -66.624887 
L 505.98448 -66.514187 
L 508.337382 -66.410392 
L 510.690285 -66.317616 
L 513.043187 -66.240112 
L 515.39609 -66.181949 
L 517.748992 -66.146668 
L 520.101895 -66.136968 
L 522.454797 -66.154501 
L 524.8077 -66.199799 
L 527.160602 -66.272341 
L 529.513505 -66.370729 
L 531.866407 -66.49293 
L 534.21931 -66.636495 
L 536.572212 -66.798772 
L 538.925115 -66.977063 
L 541.278018 -67.168732 
L 543.63092 -67.371276 
L 545.983823 -67.582373 
L 548.336725 -67.799889 
L 550.689628 -68.0219 
L 553.04253 -68.246689 
L 555.395433 -68.472746 
L 557.748335 -68.69877 
L 560.101238 -68.923657 
L 562.45414 -69.1465 
L 564.807043 -69.366589 
L 567.159945 -69.583393 
L 569.512848 -69.796565 
L 571.86575 -70.00593 
L 574.218653 -70.211488 
L 576.571555 -70.413413 
L 578.924458 -70.612058 
L 581.27736 -70.807945 
L 583.630263 -71.00177 
L 585.983165 -71.194396 
L 588.336068 -71.386848 
L 590.68897 -71.580303 
L 593.041873 -71.77609 
L 595.394775 -71.975662 
L 597.747678 -72.180583 
L 600.100581 -72.392497 
L 602.453483 -72.613096 
L 604.806386 -72.844086 
L 607.159288 -73.087136 
L 609.512191 -73.34384 
L 611.865093 -73.615658 
L 614.217996 -73.903872 
L 616.570898 -74.209531 
L 618.923801 -74.533416 
L 621.276703 -74.876004 
L 623.629606 -75.237454 
L 625.982508 -75.617601 
L 628.335411 -76.015975 
L 630.688313 -76.431828 
L 633.041216 -76.864181 
L 635.394118 -77.311891 
L 637.747021 -77.773719 
L 640.099923 -78.24842 
L 642.452826 -78.73482 
L 644.805728 -79.231896 
L 647.158631 -79.738855 
L 649.511533 -80.255169 
L 651.864436 -80.78059 
L 654.217338 -81.315132 
L 656.570241 -81.859044 
L 658.923143 -82.412741 
L 661.276046 -82.976744 
L 663.628949 -83.551639 
L 665.981851 -84.138016 
L 668.334754 -84.736435 
L 670.687656 -85.347408 
L 673.040559 -85.971383 
L 675.393461 -86.608747 
L 677.746364 -87.25985 
L 677.746364 -98.109613 
L 677.746364 -98.109613 
L 675.393461 -96.949644 
L 673.040559 -95.844585 
L 670.687656 -94.794893 
L 668.334754 -93.800917 
L 665.981851 -92.862907 
L 663.628949 -91.981018 
L 661.276046 -91.155307 
L 658.923143 -90.38571 
L 656.570241 -89.672015 
L 654.217338 -89.013816 
L 651.864436 -88.410466 
L 649.511533 -87.861019 
L 647.158631 -87.364189 
L 644.805728 -86.91831 
L 642.452826 -86.521334 
L 640.099923 -86.170845 
L 637.747021 -85.8641 
L 635.394118 -85.598086 
L 633.041216 -85.369587 
L 630.688313 -85.175256 
L 628.335411 -85.011676 
L 625.982508 -84.875417 
L 623.629606 -84.763074 
L 621.276703 -84.671306 
L 618.923801 -84.596845 
L 616.570898 -84.536511 
L 614.217996 -84.487217 
L 611.865093 -84.445969 
L 609.512191 -84.409869 
L 607.159288 -84.376116 
L 604.806386 -84.342005 
L 602.453483 -84.304932 
L 600.100581 -84.262398 
L 597.747678 -84.212006 
L 595.394775 -84.151462 
L 593.041873 -84.078589 
L 590.68897 -83.991342 
L 588.336068 -83.887825 
L 585.983165 -83.766302 
L 583.630263 -83.625218 
L 581.27736 -83.46322 
L 578.924458 -83.279166 
L 576.571555 -83.072148 
L 574.218653 -82.841513 
L 571.86575 -82.586869 
L 569.512848 -82.308119 
L 567.159945 -82.005468 
L 564.807043 -81.679438 
L 562.45414 -81.330895 
L 560.101238 -80.961048 
L 557.748335 -80.571469 
L 555.395433 -80.164074 
L 553.04253 -79.741135 
L 550.689628 -79.305286 
L 548.336725 -78.85951 
L 545.983823 -78.407148 
L 543.63092 -77.951863 
L 541.278018 -77.497623 
L 538.925115 -77.048682 
L 536.572212 -76.609497 
L 534.21931 -76.184669 
L 531.866407 -75.778852 
L 529.513505 -75.396658 
L 527.160602 -75.042565 
L 524.8077 -74.720816 
L 522.454797 -74.435296 
L 520.101895 -74.189424 
L 517.748992 -73.986078 
L 515.39609 -73.827501 
L 513.043187 -73.715207 
L 510.690285 -73.649916 
L 508.337382 -73.631497 
L 505.98448 -73.658963 
L 503.631577 -73.730499 
L 501.278675 -73.843555 
L 498.925772 -73.994987 
L 496.57287 -74.181226 
L 494.219967 -74.398469 
L 491.867065 -74.642863 
L 489.514162 -74.91067 
L 487.16126 -75.198389 
L 484.808357 -75.50286 
L 482.455455 -75.82131 
L 480.102552 -76.151379 
L 477.74965 -76.491113 
L 475.396747 -76.838949 
L 473.043844 -77.193686 
L 470.690942 -77.554446 
L 468.338039 -77.920636 
L 465.985137 -78.291896 
L 463.632234 -78.668046 
L 461.279332 -79.049042 
L 458.926429 -79.434927 
L 456.573527 -79.825771 
L 454.220624 -80.221635 
L 451.867722 -80.622536 
L 449.514819 -81.028407 
L 447.161917 -81.439065 
L 444.809014 -81.854178 
L 442.456112 -82.273245 
L 440.103209 -82.695576 
L 437.750307 -83.120279 
L 435.397404 -83.546268 
L 433.044502 -83.972265 
L 430.691599 -84.396828 
L 428.338697 -84.818368 
L 425.985794 -85.235179 
L 423.632892 -85.645441 
L 421.279989 -86.047257 
L 418.927087 -86.438678 
L 416.574184 -86.817736 
L 414.221281 -87.182466 
L 411.868379 -87.53094 
L 409.515476 -87.861291 
L 407.162574 -88.171742 
L 404.809671 -88.460627 
L 402.456769 -88.726384 
L 400.103866 -88.967579 
L 397.750964 -89.182918 
L 395.398061 -89.371253 
L 393.045159 -89.531607 
L 390.692256 -89.663179 
L 388.339354 -89.765361 
L 385.986451 -89.837747 
L 383.633549 -89.880107 
L 381.280646 -89.892399 
L 378.927744 -89.874775 
L 376.574841 -89.827584 
L 374.221939 -89.751361 
L 371.869036 -89.646845 
L 369.516134 -89.51498 
L 367.163231 -89.356923 
L 364.810329 -89.174031 
L 362.457426 -88.967831 
L 360.104524 -88.740028 
L 357.751621 -88.49249 
L 355.398719 -88.227231 
L 353.045816 -87.946394 
L 350.692913 -87.652237 
L 348.340011 -87.347103 
L 345.987108 -87.033373 
L 343.634206 -86.713424 
L 341.281303 -86.389564 
L 338.928401 -86.063997 
L 336.575498 -85.738775 
L 334.222596 -85.41575 
L 331.869693 -85.096544 
L 329.516791 -84.782517 
L 327.163888 -84.474726 
L 324.810986 -84.173902 
L 322.458083 -83.880435 
L 320.105181 -83.594374 
L 317.752278 -83.315432 
L 315.399376 -83.043002 
L 313.046473 -82.776188 
L 310.693571 -82.513832 
L 308.340668 -82.254549 
L 305.987766 -81.996753 
L 303.634863 -81.738702 
L 301.281961 -81.478541 
L 298.929058 -81.21435 
L 296.576156 -80.944184 
L 294.223253 -80.666145 
L 291.87035 -80.378409 
L 289.517448 -80.079273 
L 287.164545 -79.767195 
L 284.811643 -79.440835 
L 282.45874 -79.099099 
L 280.105838 -78.741186 
L 277.752935 -78.366635 
L 275.400033 -77.975404 
L 273.04713 -77.567925 
L 270.694228 -77.145233 
L 268.341325 -76.709213 
L 265.988423 -76.263143 
L 263.63552 -75.813199 
L 261.282618 -75.37317 
L 258.929715 -74.97826 
L 256.576813 -74.686502 
L 254.22391 -74.493332 
L 251.871008 -74.348581 
L 249.518105 -74.230105 
L 247.165203 -74.133469 
L 244.8123 -74.059845 
L 242.459398 -74.011962 
L 240.106495 -73.992655 
L 237.753593 -74.004196 
L 235.40069 -74.047944 
L 233.047788 -74.12418 
L 230.694885 -74.23209 
L 228.341982 -74.369848 
L 225.98908 -74.534791 
L 223.636177 -74.72361 
L 221.283275 -74.932545 
L 218.930372 -75.157543 
L 216.57747 -75.394385 
L 214.224567 -75.638792 
L 211.871665 -75.886503 
L 209.518762 -76.133364 
L 207.16586 -76.375401 
L 204.812957 -76.608879 
L 202.460055 -76.830365 
L 200.107152 -77.036771 
L 197.75425 -77.225385 
L 195.401347 -77.393882 
L 193.048445 -77.540327 
L 190.695542 -77.663166 
L 188.34264 -77.761209 
L 185.989737 -77.833617 
L 183.636835 -77.879871 
L 181.283932 -77.899744 
L 178.93103 -77.893272 
L 176.578127 -77.860723 
L 174.225225 -77.802555 
L 171.872322 -77.719387 
L 169.519419 -77.611956 
L 167.166517 -77.481089 
L 164.813614 -77.327665 
L 162.460712 -77.152577 
L 160.107809 -76.956699 
L 157.754907 -76.740849 
L 155.402004 -76.505757 
L 153.049102 -76.252046 
L 150.696199 -75.980201 
L 148.343297 -75.690548 
L 145.990394 -75.383249 
L 143.637492 -75.058282 
L 141.284589 -74.715448 
L 138.931687 -74.354359 
L 136.578784 -73.974462 
L 134.225882 -73.575034 
L 131.872979 -73.155205 
L 129.520077 -72.713978 
L 127.167174 -72.250258 
L 124.814272 -71.762879 
L 122.461369 -71.250637 
L 120.108467 -70.712322 
L 117.755564 -70.146743 
L 115.402662 -69.552761 
L 113.049759 -68.929311 
L 110.696857 -68.275427 
L 108.343954 -67.590264 
L 105.991051 -66.873116 
L 103.638149 -66.12343 
L 101.285246 -65.340811 
L 98.932344 -64.525036 
L 96.579441 -63.676054 
L 94.226539 -62.793979 
L 91.873636 -61.879091 
z
" style="stroke: #add8e6; stroke-opacity: 0.1"/>
    </defs>
    <g clip-path="url(#peb48f8bbd5)">
     <use xlink:href="#me346fb1a9d" x="0" y="360" style="fill: #add8e6; fill-opacity: 0.1; stroke: #add8e6; stroke-opacity: 0.1"/>
    </g>
   </g>
   <g id="line2d_1">
    <path d="M 91.873636 298.120909 
L 110.696857 284.406477 
L 136.578784 265.22623 
L 181.283932 232.06652 
L 204.812957 214.929221 
L 223.636177 201.472332 
L 242.459398 188.277206 
L 261.282618 175.371086 
L 277.752935 164.332988 
L 294.223253 153.550715 
L 310.693571 143.047882 
L 324.810986 134.289697 
L 338.928401 125.778689 
L 353.045816 117.538227 
L 364.810329 110.898013 
L 376.574841 104.483298 
L 388.339354 98.310397 
L 400.103866 92.393353 
L 411.868379 86.746707 
L 423.632892 81.386223 
L 433.044502 77.314369 
L 442.456112 73.442219 
L 451.867722 69.774865 
L 461.279332 66.315847 
L 470.690942 63.06914 
L 480.102552 60.038935 
L 489.514162 57.229638 
L 498.925772 54.644622 
L 508.337382 52.2861 
L 517.748992 50.155743 
L 527.160602 48.253632 
L 536.572212 46.578738 
L 545.983823 45.128668 
L 555.395433 43.900718 
L 564.807043 42.891479 
L 574.218653 42.097413 
L 583.630263 41.513844 
L 593.041873 41.135324 
L 602.453483 40.956023 
L 611.865093 40.969519 
L 621.276703 41.168432 
L 633.041216 41.664728 
L 644.805728 42.418763 
L 656.570241 43.407719 
L 668.334754 44.604615 
L 677.746364 45.691556 
L 677.746364 45.691556 
" clip-path="url(#peb48f8bbd5)" style="fill: none; stroke: #000000; stroke-width: 1.5; stroke-linecap: round"/>
   </g>
   <g id="line2d_2">
    <path d="M 91.873636 298.120909 
L 108.343954 287.748018 
L 122.461369 279.086577 
L 136.578784 270.685921 
L 148.343297 263.914898 
L 160.107809 257.374986 
L 171.872322 251.08266 
L 183.636835 245.050051 
L 195.401347 239.284422 
L 207.16586 233.787476 
L 218.930372 228.555769 
L 230.694885 223.581512 
L 242.459398 218.853361 
L 254.22391 214.357525 
L 265.988423 210.078803 
L 280.105838 205.209695 
L 294.223253 200.608367 
L 308.340668 196.257641 
L 322.458083 192.146865 
L 336.575498 188.272255 
L 350.692913 184.637102 
L 364.810329 181.252887 
L 376.574841 178.63747 
L 388.339354 176.2199 
L 400.103866 174.010399 
L 411.868379 172.020636 
L 423.632892 170.263891 
L 435.397404 168.753218 
L 447.161917 167.498264 
L 458.926429 166.503331 
L 470.690942 165.769285 
L 482.455455 165.295291 
L 494.219967 165.078151 
L 505.98448 165.109056 
L 517.748992 165.374297 
L 529.513505 165.853115 
L 543.63092 166.670148 
L 560.101238 167.881455 
L 585.983165 170.077487 
L 607.159288 171.795667 
L 621.276703 172.70608 
L 633.041216 173.216554 
L 642.452826 173.406876 
L 651.864436 173.358032 
L 658.923143 173.138826 
L 665.981851 172.743489 
L 673.040559 172.155291 
L 677.746364 171.648479 
L 677.746364 171.648479 
" clip-path="url(#peb48f8bbd5)" style="fill: none; stroke: #a52a2a; stroke-width: 1.5; stroke-linecap: round"/>
   </g>
   <g id="line2d_3">
    <path d="M 91.873636 298.120909 
L 103.638149 297.193976 
L 115.402662 296.495985 
L 127.167174 296.006119 
L 141.284589 295.633113 
L 160.107809 295.368883 
L 211.871665 294.81501 
L 225.98908 294.367948 
L 242.459398 293.607383 
L 263.63552 292.637359 
L 275.400033 292.344826 
L 284.811643 292.311108 
L 294.223253 292.471999 
L 305.987766 292.929953 
L 320.105181 293.744594 
L 336.575498 294.694333 
L 345.987108 295.014039 
L 355.398719 295.087289 
L 367.163231 294.920691 
L 393.045159 294.469988 
L 407.162574 294.480082 
L 423.632892 294.733176 
L 451.867722 295.465369 
L 470.690942 295.84446 
L 480.102552 295.851878 
L 489.514162 295.657364 
L 498.925772 295.251491 
L 510.690285 294.51945 
L 543.63092 292.308967 
L 555.395433 291.846007 
L 567.159945 291.634721 
L 585.983165 291.396159 
L 593.041873 291.0643 
L 600.100581 290.443897 
L 604.806386 289.840684 
L 611.865093 288.648688 
L 618.923801 287.150295 
L 625.982508 285.413821 
L 635.394118 282.860165 
L 663.628949 274.998674 
L 673.040559 272.638919 
L 677.746364 271.533548 
L 677.746364 271.533548 
" clip-path="url(#peb48f8bbd5)" style="fill: none; stroke: #000080; stroke-width: 1.5; stroke-linecap: round"/>
   </g>
   <g id="line2d_4">
    <path d="M 91.873636 298.120909 
L 98.932344 295.964349 
L 105.991051 294.082638 
L 113.049759 292.461611 
L 120.108467 291.074297 
L 127.167174 289.884777 
L 136.578784 288.541535 
L 145.990394 287.414424 
L 155.402004 286.482037 
L 164.813614 285.774255 
L 171.872322 285.427508 
L 178.93103 285.269062 
L 185.989737 285.317722 
L 193.048445 285.575429 
L 202.460055 286.198674 
L 221.283275 287.674266 
L 228.341982 287.899566 
L 233.047788 287.851531 
L 237.753593 287.636094 
L 244.8123 287.039247 
L 254.22391 285.921138 
L 268.341325 284.193415 
L 275.400033 283.521513 
L 282.45874 283.043256 
L 289.517448 282.763762 
L 298.929058 282.656515 
L 313.046473 282.818018 
L 324.810986 282.921047 
L 334.222596 282.794854 
L 343.634206 282.42498 
L 355.398719 281.708094 
L 371.869036 280.716011 
L 381.280646 280.411083 
L 388.339354 280.377873 
L 395.398061 280.529365 
L 402.456769 280.863086 
L 411.868379 281.558227 
L 423.632892 282.712959 
L 454.220624 285.903349 
L 475.396747 287.748328 
L 496.57287 289.427487 
L 505.98448 289.913425 
L 513.043187 290.022341 
L 520.101895 289.836804 
L 527.160602 289.342547 
L 534.21931 288.589418 
L 543.63092 287.33843 
L 562.45414 284.761303 
L 571.86575 283.7036 
L 581.27736 282.864417 
L 593.041873 282.072661 
L 616.570898 280.626979 
L 625.982508 279.753491 
L 633.041216 278.883116 
L 640.099923 277.790367 
L 647.158631 276.448478 
L 654.217338 274.835526 
L 661.276046 272.933975 
L 668.334754 270.731324 
L 675.393461 268.220805 
L 677.746364 267.315269 
L 677.746364 267.315269 
" clip-path="url(#peb48f8bbd5)" style="fill: none; stroke: #add8e6; stroke-width: 1.5; stroke-linecap: round"/>
   </g>
   <g id="patch_3">
    <path d="M 62.58 310.98 
L 62.58 28.08 
" style="fill: none; stroke: #ffffff; stroke-width: 1.25; stroke-linejoin: miter; stroke-linecap: square"/>
   </g>
   <g id="patch_4">
    <path d="M 707.04 310.98 
L 707.04 28.08 
" style="fill: none; stroke: #ffffff; stroke-width: 1.25; stroke-linejoin: miter; stroke-linecap: square"/>
   </g>
   <g id="patch_5">
    <path d="M 62.58 310.98 
L 707.04 310.98 
" style="fill: none; stroke: #ffffff; stroke-width: 1.25; stroke-linejoin: miter; stroke-linecap: square"/>
   </g>
   <g id="patch_6">
    <path d="M 62.58 28.08 
L 707.04 28.08 
" style="fill: none; stroke: #ffffff; stroke-width: 1.25; stroke-linejoin: miter; stroke-linecap: square"/>
   </g>
   <g id="text_16">
    <!-- QG3L - [112, 176] x [64, 192] -->
    <g style="fill: #262626" transform="translate(295.95 22.08) scale(0.12 -0.12)">
     <defs>
      <path id="DejaVuSans-51" d="M 2522 4238 
Q 1834 4238 1429 3725 
Q 1025 3213 1025 2328 
Q 1025 1447 1429 934 
Q 1834 422 2522 422 
Q 3209 422 3611 934 
Q 4013 1447 4013 2328 
Q 4013 3213 3611 3725 
Q 3209 4238 2522 4238 
z
M 3406 84 
L 4238 -825 
L 3475 -825 
L 2784 -78 
Q 2681 -84 2626 -87 
Q 2572 -91 2522 -91 
Q 1538 -91 948 567 
Q 359 1225 359 2328 
Q 359 3434 948 4092 
Q 1538 4750 2522 4750 
Q 3503 4750 4090 4092 
Q 4678 3434 4678 2328 
Q 4678 1516 4351 937 
Q 4025 359 3406 84 
z
" transform="scale(0.015625)"/>
      <path id="DejaVuSans-47" d="M 3809 666 
L 3809 1919 
L 2778 1919 
L 2778 2438 
L 4434 2438 
L 4434 434 
Q 4069 175 3628 42 
Q 3188 -91 2688 -91 
Q 1594 -91 976 548 
Q 359 1188 359 2328 
Q 359 3472 976 4111 
Q 1594 4750 2688 4750 
Q 3144 4750 3555 4637 
Q 3966 4525 4313 4306 
L 4313 3634 
Q 3963 3931 3569 4081 
Q 3175 4231 2741 4231 
Q 1884 4231 1454 3753 
Q 1025 3275 1025 2328 
Q 1025 1384 1454 906 
Q 1884 428 2741 428 
Q 3075 428 3337 486 
Q 3600 544 3809 666 
z
" transform="scale(0.015625)"/>
      <path id="DejaVuSans-4c" d="M 628 4666 
L 1259 4666 
L 1259 531 
L 3531 531 
L 3531 0 
L 628 0 
L 628 4666 
z
" transform="scale(0.015625)"/>
      <path id="DejaVuSans-2d" d="M 313 2009 
L 1997 2009 
L 1997 1497 
L 313 1497 
L 313 2009 
z
" transform="scale(0.015625)"/>
      <path id="DejaVuSans-2c" d="M 750 794 
L 1409 794 
L 1409 256 
L 897 -744 
L 494 -744 
L 750 256 
L 750 794 
z
" transform="scale(0.015625)"/>
      <path id="DejaVuSans-37" d="M 525 4666 
L 3525 4666 
L 3525 4397 
L 1831 0 
L 1172 0 
L 2766 4134 
L 525 4134 
L 525 4666 
z
" transform="scale(0.015625)"/>
      <path id="DejaVuSans-36" d="M 2113 2584 
Q 1688 2584 1439 2293 
Q 1191 2003 1191 1497 
Q 1191 994 1439 701 
Q 1688 409 2113 409 
Q 2538 409 2786 701 
Q 3034 994 3034 1497 
Q 3034 2003 2786 2293 
Q 2538 2584 2113 2584 
z
M 3366 4563 
L 3366 3988 
Q 3128 4100 2886 4159 
Q 2644 4219 2406 4219 
Q 1781 4219 1451 3797 
Q 1122 3375 1075 2522 
Q 1259 2794 1537 2939 
Q 1816 3084 2150 3084 
Q 2853 3084 3261 2657 
Q 3669 2231 3669 1497 
Q 3669 778 3244 343 
Q 2819 -91 2113 -91 
Q 1303 -91 875 529 
Q 447 1150 447 2328 
Q 447 3434 972 4092 
Q 1497 4750 2381 4750 
Q 2619 4750 2861 4703 
Q 3103 4656 3366 4563 
z
" transform="scale(0.015625)"/>
      <path id="DejaVuSans-78" d="M 3513 3500 
L 2247 1797 
L 3578 0 
L 2900 0 
L 1881 1375 
L 863 0 
L 184 0 
L 1544 1831 
L 300 3500 
L 978 3500 
L 1906 2253 
L 2834 3500 
L 3513 3500 
z
" transform="scale(0.015625)"/>
      <path id="DejaVuSans-34" d="M 2419 4116 
L 825 1625 
L 2419 1625 
L 2419 4116 
z
M 2253 4666 
L 3047 4666 
L 3047 1625 
L 3713 1625 
L 3713 1100 
L 3047 1100 
L 3047 0 
L 2419 0 
L 2419 1100 
L 313 1100 
L 313 1709 
L 2253 4666 
z
" transform="scale(0.015625)"/>
      <path id="DejaVuSans-39" d="M 703 97 
L 703 672 
Q 941 559 1184 500 
Q 1428 441 1663 441 
Q 2288 441 2617 861 
Q 2947 1281 2994 2138 
Q 2813 1869 2534 1725 
Q 2256 1581 1919 1581 
Q 1219 1581 811 2004 
Q 403 2428 403 3163 
Q 403 3881 828 4315 
Q 1253 4750 1959 4750 
Q 2769 4750 3195 4129 
Q 3622 3509 3622 2328 
Q 3622 1225 3098 567 
Q 2575 -91 1691 -91 
Q 1453 -91 1209 -44 
Q 966 3 703 97 
z
M 1959 2075 
Q 2384 2075 2632 2365 
Q 2881 2656 2881 3163 
Q 2881 3666 2632 3958 
Q 2384 4250 1959 4250 
Q 1534 4250 1286 3958 
Q 1038 3666 1038 3163 
Q 1038 2656 1286 2365 
Q 1534 2075 1959 2075 
z
" transform="scale(0.015625)"/>
     </defs>
     <use xlink:href="#DejaVuSans-51"/>
     <use xlink:href="#DejaVuSans-47" transform="translate(78.710938 0)"/>
     <use xlink:href="#DejaVuSans-33" transform="translate(156.201172 0)"/>
     <use xlink:href="#DejaVuSans-4c" transform="translate(219.824219 0)"/>
     <use xlink:href="#DejaVuSans-20" transform="translate(275.537109 0)"/>
     <use xlink:href="#DejaVuSans-2d" transform="translate(307.324219 0)"/>
     <use xlink:href="#DejaVuSans-20" transform="translate(343.408203 0)"/>
     <use xlink:href="#DejaVuSans-5b" transform="translate(375.195312 0)"/>
     <use xlink:href="#DejaVuSans-31" transform="translate(414.208984 0)"/>
     <use xlink:href="#DejaVuSans-31" transform="translate(477.832031 0)"/>
     <use xlink:href="#DejaVuSans-32" transform="translate(541.455078 0)"/>
     <use xlink:href="#DejaVuSans-2c" transform="translate(605.078125 0)"/>
     <use xlink:href="#DejaVuSans-20" transform="translate(636.865234 0)"/>
     <use xlink:href="#DejaVuSans-31" transform="translate(668.652344 0)"/>
     <use xlink:href="#DejaVuSans-37" transform="translate(732.275391 0)"/>
     <use xlink:href="#DejaVuSans-36" transform="translate(795.898438 0)"/>
     <use xlink:href="#DejaVuSans-5d" transform="translate(859.521484 0)"/>
     <use xlink:href="#DejaVuSans-20" transform="translate(898.535156 0)"/>
     <use xlink:href="#DejaVuSans-78" transform="translate(930.322266 0)"/>
     <use xlink:href="#DejaVuSans-20" transform="translate(989.501953 0)"/>
     <use xlink:href="#DejaVuSans-5b" transform="translate(1021.289062 0)"/>
     <use xlink:href="#DejaVuSans-36" transform="translate(1060.302734 0)"/>
     <use xlink:href="#DejaVuSans-34" transform="translate(1123.925781 0)"/>
     <use xlink:href="#DejaVuSans-2c" transform="translate(1187.548828 0)"/>
     <use xlink:href="#DejaVuSans-20" transform="translate(1219.335938 0)"/>
     <use xlink:href="#DejaVuSans-31" transform="translate(1251.123047 0)"/>
     <use xlink:href="#DejaVuSans-39" transform="translate(1314.746094 0)"/>
     <use xlink:href="#DejaVuSans-32" transform="translate(1378.369141 0)"/>
     <use xlink:href="#DejaVuSans-5d" transform="translate(1441.992188 0)"/>
    </g>
   </g>
   <g id="legend_1">
    <g id="patch_7">
     <path d="M 70.28 101.46375 
L 229.620156 101.46375 
Q 231.820156 101.46375 231.820156 99.26375 
L 231.820156 35.78 
Q 231.820156 33.58 229.620156 33.58 
L 70.28 33.58 
Q 68.08 33.58 68.08 35.78 
L 68.08 99.26375 
Q 68.08 101.46375 70.28 101.46375 
z
" style="fill: #eaeaf2; opacity: 0.8; stroke: #cccccc; stroke-linejoin: miter"/>
    </g>
    <g id="line2d_5">
     <path d="M 72.48 42.488281 
L 83.48 42.488281 
L 94.48 42.488281 
" style="fill: none; stroke: #000000; stroke-width: 1.5; stroke-linecap: round"/>
    </g>
    <g id="text_17">
     <!-- Reduced Gravity - Pert -->
     <g style="fill: #262626" transform="translate(103.28 46.338281) scale(0.11 -0.11)">
      <defs>
       <path id="DejaVuSans-75" d="M 544 1381 
L 544 3500 
L 1119 3500 
L 1119 1403 
Q 1119 906 1312 657 
Q 1506 409 1894 409 
Q 2359 409 2629 706 
Q 2900 1003 2900 1516 
L 2900 3500 
L 3475 3500 
L 3475 0 
L 2900 0 
L 2900 538 
Q 2691 219 2414 64 
Q 2138 -91 1772 -91 
Q 1169 -91 856 284 
Q 544 659 544 1381 
z
M 1991 3584 
L 1991 3584 
z
" transform="scale(0.015625)"/>
       <path id="DejaVuSans-63" d="M 3122 3366 
L 3122 2828 
Q 2878 2963 2633 3030 
Q 2388 3097 2138 3097 
Q 1578 3097 1268 2742 
Q 959 2388 959 1747 
Q 959 1106 1268 751 
Q 1578 397 2138 397 
Q 2388 397 2633 464 
Q 2878 531 3122 666 
L 3122 134 
Q 2881 22 2623 -34 
Q 2366 -91 2075 -91 
Q 1284 -91 818 406 
Q 353 903 353 1747 
Q 353 2603 823 3093 
Q 1294 3584 2113 3584 
Q 2378 3584 2631 3529 
Q 2884 3475 3122 3366 
z
" transform="scale(0.015625)"/>
       <path id="DejaVuSans-72" d="M 2631 2963 
Q 2534 3019 2420 3045 
Q 2306 3072 2169 3072 
Q 1681 3072 1420 2755 
Q 1159 2438 1159 1844 
L 1159 0 
L 581 0 
L 581 3500 
L 1159 3500 
L 1159 2956 
Q 1341 3275 1631 3429 
Q 1922 3584 2338 3584 
Q 2397 3584 2469 3576 
Q 2541 3569 2628 3553 
L 2631 2963 
z
" transform="scale(0.015625)"/>
       <path id="DejaVuSans-76" d="M 191 3500 
L 800 3500 
L 1894 563 
L 2988 3500 
L 3597 3500 
L 2284 0 
L 1503 0 
L 191 3500 
z
" transform="scale(0.015625)"/>
       <path id="DejaVuSans-74" d="M 1172 4494 
L 1172 3500 
L 2356 3500 
L 2356 3053 
L 1172 3053 
L 1172 1153 
Q 1172 725 1289 603 
Q 1406 481 1766 481 
L 2356 481 
L 2356 0 
L 1766 0 
Q 1100 0 847 248 
Q 594 497 594 1153 
L 594 3053 
L 172 3053 
L 172 3500 
L 594 3500 
L 594 4494 
L 1172 4494 
z
" transform="scale(0.015625)"/>
       <path id="DejaVuSans-50" d="M 1259 4147 
L 1259 2394 
L 2053 2394 
Q 2494 2394 2734 2622 
Q 2975 2850 2975 3272 
Q 2975 3691 2734 3919 
Q 2494 4147 2053 4147 
L 1259 4147 
z
M 628 4666 
L 2053 4666 
Q 2838 4666 3239 4311 
Q 3641 3956 3641 3272 
Q 3641 2581 3239 2228 
Q 2838 1875 2053 1875 
L 1259 1875 
L 1259 0 
L 628 0 
L 628 4666 
z
" transform="scale(0.015625)"/>
      </defs>
      <use xlink:href="#DejaVuSans-52"/>
      <use xlink:href="#DejaVuSans-65" transform="translate(64.982422 0)"/>
      <use xlink:href="#DejaVuSans-64" transform="translate(126.505859 0)"/>
      <use xlink:href="#DejaVuSans-75" transform="translate(189.982422 0)"/>
      <use xlink:href="#DejaVuSans-63" transform="translate(253.361328 0)"/>
      <use xlink:href="#DejaVuSans-65" transform="translate(308.341797 0)"/>
      <use xlink:href="#DejaVuSans-64" transform="translate(369.865234 0)"/>
      <use xlink:href="#DejaVuSans-20" transform="translate(433.341797 0)"/>
      <use xlink:href="#DejaVuSans-47" transform="translate(465.128906 0)"/>
      <use xlink:href="#DejaVuSans-72" transform="translate(542.619141 0)"/>
      <use xlink:href="#DejaVuSans-61" transform="translate(583.732422 0)"/>
      <use xlink:href="#DejaVuSans-76" transform="translate(645.011719 0)"/>
      <use xlink:href="#DejaVuSans-69" transform="translate(704.191406 0)"/>
      <use xlink:href="#DejaVuSans-74" transform="translate(731.974609 0)"/>
      <use xlink:href="#DejaVuSans-79" transform="translate(771.183594 0)"/>
      <use xlink:href="#DejaVuSans-20" transform="translate(830.363281 0)"/>
      <use xlink:href="#DejaVuSans-2d" transform="translate(862.150391 0)"/>
      <use xlink:href="#DejaVuSans-20" transform="translate(898.234375 0)"/>
      <use xlink:href="#DejaVuSans-50" transform="translate(930.021484 0)"/>
      <use xlink:href="#DejaVuSans-65" transform="translate(986.699219 0)"/>
      <use xlink:href="#DejaVuSans-72" transform="translate(1048.222656 0)"/>
      <use xlink:href="#DejaVuSans-74" transform="translate(1089.335938 0)"/>
     </g>
    </g>
    <g id="line2d_6">
     <path d="M 72.48 58.634219 
L 83.48 58.634219 
L 94.48 58.634219 
" style="fill: none; stroke: #a52a2a; stroke-width: 1.5; stroke-linecap: round"/>
    </g>
    <g id="text_18">
     <!-- VarDyn -->
     <g style="fill: #262626" transform="translate(103.28 62.484219) scale(0.11 -0.11)">
      <defs>
       <path id="DejaVuSans-56" d="M 1831 0 
L 50 4666 
L 709 4666 
L 2188 738 
L 3669 4666 
L 4325 4666 
L 2547 0 
L 1831 0 
z
" transform="scale(0.015625)"/>
       <path id="DejaVuSans-44" d="M 1259 4147 
L 1259 519 
L 2022 519 
Q 2988 519 3436 956 
Q 3884 1394 3884 2338 
Q 3884 3275 3436 3711 
Q 2988 4147 2022 4147 
L 1259 4147 
z
M 628 4666 
L 1925 4666 
Q 3281 4666 3915 4102 
Q 4550 3538 4550 2338 
Q 4550 1131 3912 565 
Q 3275 0 1925 0 
L 628 0 
L 628 4666 
z
" transform="scale(0.015625)"/>
      </defs>
      <use xlink:href="#DejaVuSans-56"/>
      <use xlink:href="#DejaVuSans-61" transform="translate(60.658203 0)"/>
      <use xlink:href="#DejaVuSans-72" transform="translate(121.9375 0)"/>
      <use xlink:href="#DejaVuSans-44" transform="translate(163.050781 0)"/>
      <use xlink:href="#DejaVuSans-79" transform="translate(240.052734 0)"/>
      <use xlink:href="#DejaVuSans-6e" transform="translate(299.232422 0)"/>
     </g>
    </g>
    <g id="line2d_7">
     <path d="M 72.48 74.780156 
L 83.48 74.780156 
L 94.48 74.780156 
" style="fill: none; stroke: #000080; stroke-width: 1.5; stroke-linecap: round"/>
    </g>
    <g id="text_19">
     <!-- SurfML -->
     <g style="fill: #262626" transform="translate(103.28 78.630156) scale(0.11 -0.11)">
      <defs>
       <path id="DejaVuSans-66" d="M 2375 4863 
L 2375 4384 
L 1825 4384 
Q 1516 4384 1395 4259 
Q 1275 4134 1275 3809 
L 1275 3500 
L 2222 3500 
L 2222 3053 
L 1275 3053 
L 1275 0 
L 697 0 
L 697 3053 
L 147 3053 
L 147 3500 
L 697 3500 
L 697 3744 
Q 697 4328 969 4595 
Q 1241 4863 1831 4863 
L 2375 4863 
z
" transform="scale(0.015625)"/>
      </defs>
      <use xlink:href="#DejaVuSans-53"/>
      <use xlink:href="#DejaVuSans-75" transform="translate(63.476562 0)"/>
      <use xlink:href="#DejaVuSans-72" transform="translate(126.855469 0)"/>
      <use xlink:href="#DejaVuSans-66" transform="translate(167.96875 0)"/>
      <use xlink:href="#DejaVuSans-4d" transform="translate(203.173828 0)"/>
      <use xlink:href="#DejaVuSans-4c" transform="translate(289.453125 0)"/>
     </g>
    </g>
    <g id="line2d_8">
     <path d="M 72.48 90.926094 
L 83.48 90.926094 
L 94.48 90.926094 
" style="fill: none; stroke: #add8e6; stroke-width: 1.5; stroke-linecap: round"/>
    </g>
    <g id="text_20">
     <!-- SurfML - No Alpha -->
     <g style="fill: #262626" transform="translate(103.28 94.776094) scale(0.11 -0.11)">
      <defs>
       <path id="DejaVuSans-4e" d="M 628 4666 
L 1478 4666 
L 3547 763 
L 3547 4666 
L 4159 4666 
L 4159 0 
L 3309 0 
L 1241 3903 
L 1241 0 
L 628 0 
L 628 4666 
z
" transform="scale(0.015625)"/>
       <path id="DejaVuSans-6f" d="M 1959 3097 
Q 1497 3097 1228 2736 
Q 959 2375 959 1747 
Q 959 1119 1226 758 
Q 1494 397 1959 397 
Q 2419 397 2687 759 
Q 2956 1122 2956 1747 
Q 2956 2369 2687 2733 
Q 2419 3097 1959 3097 
z
M 1959 3584 
Q 2709 3584 3137 3096 
Q 3566 2609 3566 1747 
Q 3566 888 3137 398 
Q 2709 -91 1959 -91 
Q 1206 -91 779 398 
Q 353 888 353 1747 
Q 353 2609 779 3096 
Q 1206 3584 1959 3584 
z
" transform="scale(0.015625)"/>
       <path id="DejaVuSans-41" d="M 2188 4044 
L 1331 1722 
L 3047 1722 
L 2188 4044 
z
M 1831 4666 
L 2547 4666 
L 4325 0 
L 3669 0 
L 3244 1197 
L 1141 1197 
L 716 0 
L 50 0 
L 1831 4666 
z
" transform="scale(0.015625)"/>
       <path id="DejaVuSans-6c" d="M 603 4863 
L 1178 4863 
L 1178 0 
L 603 0 
L 603 4863 
z
" transform="scale(0.015625)"/>
       <path id="DejaVuSans-70" d="M 1159 525 
L 1159 -1331 
L 581 -1331 
L 581 3500 
L 1159 3500 
L 1159 2969 
Q 1341 3281 1617 3432 
Q 1894 3584 2278 3584 
Q 2916 3584 3314 3078 
Q 3713 2572 3713 1747 
Q 3713 922 3314 415 
Q 2916 -91 2278 -91 
Q 1894 -91 1617 61 
Q 1341 213 1159 525 
z
M 3116 1747 
Q 3116 2381 2855 2742 
Q 2594 3103 2138 3103 
Q 1681 3103 1420 2742 
Q 1159 2381 1159 1747 
Q 1159 1113 1420 752 
Q 1681 391 2138 391 
Q 2594 391 2855 752 
Q 3116 1113 3116 1747 
z
" transform="scale(0.015625)"/>
       <path id="DejaVuSans-68" d="M 3513 2113 
L 3513 0 
L 2938 0 
L 2938 2094 
Q 2938 2591 2744 2837 
Q 2550 3084 2163 3084 
Q 1697 3084 1428 2787 
Q 1159 2491 1159 1978 
L 1159 0 
L 581 0 
L 581 4863 
L 1159 4863 
L 1159 2956 
Q 1366 3272 1645 3428 
Q 1925 3584 2291 3584 
Q 2894 3584 3203 3211 
Q 3513 2838 3513 2113 
z
" transform="scale(0.015625)"/>
      </defs>
      <use xlink:href="#DejaVuSans-53"/>
      <use xlink:href="#DejaVuSans-75" transform="translate(63.476562 0)"/>
      <use xlink:href="#DejaVuSans-72" transform="translate(126.855469 0)"/>
      <use xlink:href="#DejaVuSans-66" transform="translate(167.96875 0)"/>
      <use xlink:href="#DejaVuSans-4d" transform="translate(203.173828 0)"/>
      <use xlink:href="#DejaVuSans-4c" transform="translate(289.453125 0)"/>
      <use xlink:href="#DejaVuSans-20" transform="translate(345.166016 0)"/>
      <use xlink:href="#DejaVuSans-2d" transform="translate(376.953125 0)"/>
      <use xlink:href="#DejaVuSans-20" transform="translate(413.037109 0)"/>
      <use xlink:href="#DejaVuSans-4e" transform="translate(444.824219 0)"/>
      <use xlink:href="#DejaVuSans-6f" transform="translate(519.628906 0)"/>
      <use xlink:href="#DejaVuSans-20" transform="translate(580.810547 0)"/>
      <use xlink:href="#DejaVuSans-41" transform="translate(612.597656 0)"/>
      <use xlink:href="#DejaVuSans-6c" transform="translate(681.005859 0)"/>
      <use xlink:href="#DejaVuSans-70" transform="translate(708.789062 0)"/>
      <use xlink:href="#DejaVuSans-68" transform="translate(772.265625 0)"/>
      <use xlink:href="#DejaVuSans-61" transform="translate(835.644531 0)"/>
     </g>
    </g>
   </g>
  </g>
 </g>
 <defs>
  <clipPath id="peb48f8bbd5">
   <rect x="62.58" y="28.08" width="644.46" height="282.9"/>
  </clipPath>
 </defs>
</svg>
