<?xml version="1.0" encoding="utf-8" standalone="no"?>
<!DOCTYPE svg PUBLIC "-//W3C//DTD SVG 1.1//EN"
  "http://www.w3.org/Graphics/SVG/1.1/DTD/svg11.dtd">
<svg xmlns:xlink="http://www.w3.org/1999/xlink" width="720pt" height="360pt" viewBox="0 0 720 360" xmlns="http://www.w3.org/2000/svg" version="1.1">
 <metadata>
  <rdf:RDF xmlns:dc="http://purl.org/dc/elements/1.1/" xmlns:cc="http://creativecommons.org/ns#" xmlns:rdf="http://www.w3.org/1999/02/22-rdf-syntax-ns#">
   <cc:Work>
    <dc:type rdf:resource="http://purl.org/dc/dcmitype/StillImage"/>
    <dc:date>2026-03-19T16:22:55.648639</dc:date>
    <dc:format>image/svg+xml</dc:format>
    <dc:creator>
     <cc:Agent>
      <dc:title>Matplotlib v3.10.6, https://matplotlib.org/</dc:title>
     </cc:Agent>
    </dc:creator>
   </cc:Work>
  </rdf:RDF>
 </metadata>
 <defs>
  <style type="text/css">*{stroke-linejoin: round; stroke-linecap: butt}</style>
 </defs>
 <g id="figure_1">
  <g id="patch_1">
   <path d="M 0 360 
L 720 360 
L 720 0 
L 0 0 
z
" style="fill: #ffffff"/>
  </g>
  <g id="axes_1">
   <g id="patch_2">
    <path d="M 55.56 310.98 
L 707.04 310.98 
L 707.04 28.08 
L 55.56 28.08 
z
" style="fill: #eaeaf2"/>
   </g>
   <g id="matplotlib.axis_1">
    <g id="xtick_1">
     <g id="text_1">
      <!-- 0 -->
      <g style="fill: #262626" transform="translate(81.673352 328.838281) scale(0.11 -0.11)">
       <defs>
        <path id="DejaVuSans-30" d="M 2034 4250 
Q 1547 4250 1301 3770 
Q 1056 3291 1056 2328 
Q 1056 1369 1301 889 
Q 1547 409 2034 409 
Q 2525 409 2770 889 
Q 3016 1369 3016 2328 
Q 3016 3291 2770 3770 
Q 2525 4250 2034 4250 
z
M 2034 4750 
Q 2819 4750 3233 4129 
Q 3647 3509 3647 2328 
Q 3647 1150 3233 529 
Q 2819 -91 2034 -91 
Q 1250 -91 836 529 
Q 422 1150 422 2328 
Q 422 3509 836 4129 
Q 1250 4750 2034 4750 
z
" transform="scale(0.015625)"/>
       </defs>
       <use xlink:href="#DejaVuSans-30"/>
      </g>
     </g>
    </g>
    <g id="xtick_2">
     <g id="text_2">
      <!-- 5 -->
      <g style="fill: #262626" transform="translate(224.385291 328.838281) scale(0.11 -0.11)">
       <defs>
        <path id="DejaVuSans-35" d="M 691 4666 
L 3169 4666 
L 3169 4134 
L 1269 4134 
L 1269 2991 
Q 1406 3038 1543 3061 
Q 1681 3084 1819 3084 
Q 2600 3084 3056 2656 
Q 3513 2228 3513 1497 
Q 3513 744 3044 326 
Q 2575 -91 1722 -91 
Q 1428 -91 1123 -41 
Q 819 9 494 109 
L 494 744 
Q 775 591 1075 516 
Q 1375 441 1709 441 
Q 2250 441 2565 725 
Q 2881 1009 2881 1497 
Q 2881 1984 2565 2268 
Q 2250 2553 1709 2553 
Q 1456 2553 1204 2497 
Q 953 2441 691 2322 
L 691 4666 
z
" transform="scale(0.015625)"/>
       </defs>
       <use xlink:href="#DejaVuSans-35"/>
      </g>
     </g>
    </g>
    <g id="xtick_3">
     <g id="text_3">
      <!-- 10 -->
      <g style="fill: #262626" transform="translate(363.597855 328.838281) scale(0.11 -0.11)">
       <defs>
        <path id="DejaVuSans-31" d="M 794 531 
L 1825 531 
L 1825 4091 
L 703 3866 
L 703 4441 
L 1819 4666 
L 2450 4666 
L 2450 531 
L 3481 531 
L 3481 0 
L 794 0 
L 794 531 
z
" transform="scale(0.015625)"/>
       </defs>
       <use xlink:href="#DejaVuSans-31"/>
       <use xlink:href="#DejaVuSans-30" transform="translate(63.623047 0)"/>
      </g>
     </g>
    </g>
    <g id="xtick_4">
     <g id="text_4">
      <!-- 15 -->
      <g style="fill: #262626" transform="translate(506.309793 328.838281) scale(0.11 -0.11)">
       <use xlink:href="#DejaVuSans-31"/>
       <use xlink:href="#DejaVuSans-35" transform="translate(63.623047 0)"/>
      </g>
     </g>
    </g>
    <g id="xtick_5">
     <g id="text_5">
      <!-- 20 -->
      <g style="fill: #262626" transform="translate(649.021732 328.838281) scale(0.11 -0.11)">
       <defs>
        <path id="DejaVuSans-32" d="M 1228 531 
L 3431 531 
L 3431 0 
L 469 0 
L 469 531 
Q 828 903 1448 1529 
Q 2069 2156 2228 2338 
Q 2531 2678 2651 2914 
Q 2772 3150 2772 3378 
Q 2772 3750 2511 3984 
Q 2250 4219 1831 4219 
Q 1534 4219 1204 4116 
Q 875 4013 500 3803 
L 500 4441 
Q 881 4594 1212 4672 
Q 1544 4750 1819 4750 
Q 2544 4750 2975 4387 
Q 3406 4025 3406 3419 
Q 3406 3131 3298 2873 
Q 3191 2616 2906 2266 
Q 2828 2175 2409 1742 
Q 1991 1309 1228 531 
z
" transform="scale(0.015625)"/>
       </defs>
       <use xlink:href="#DejaVuSans-32"/>
       <use xlink:href="#DejaVuSans-30" transform="translate(63.623047 0)"/>
      </g>
     </g>
    </g>
    <g id="text_6">
     <!-- Time [days] -->
     <g style="fill: #262626" transform="translate(345.868125 344.244062) scale(0.12 -0.12)">
      <defs>
       <path id="DejaVuSans-54" d="M -19 4666 
L 3928 4666 
L 3928 4134 
L 2272 4134 
L 2272 0 
L 1638 0 
L 1638 4134 
L -19 4134 
L -19 4666 
z
" transform="scale(0.015625)"/>
       <path id="DejaVuSans-69" d="M 603 3500 
L 1178 3500 
L 1178 0 
L 603 0 
L 603 3500 
z
M 603 4863 
L 1178 4863 
L 1178 4134 
L 603 4134 
L 603 4863 
z
" transform="scale(0.015625)"/>
       <path id="DejaVuSans-6d" d="M 3328 2828 
Q 3544 3216 3844 3400 
Q 4144 3584 4550 3584 
Q 5097 3584 5394 3201 
Q 5691 2819 5691 2113 
L 5691 0 
L 5113 0 
L 5113 2094 
Q 5113 2597 4934 2840 
Q 4756 3084 4391 3084 
Q 3944 3084 3684 2787 
Q 3425 2491 3425 1978 
L 3425 0 
L 2847 0 
L 2847 2094 
Q 2847 2600 2669 2842 
Q 2491 3084 2119 3084 
Q 1678 3084 1418 2786 
Q 1159 2488 1159 1978 
L 1159 0 
L 581 0 
L 581 3500 
L 1159 3500 
L 1159 2956 
Q 1356 3278 1631 3431 
Q 1906 3584 2284 3584 
Q 2666 3584 2933 3390 
Q 3200 3197 3328 2828 
z
" transform="scale(0.015625)"/>
       <path id="DejaVuSans-65" d="M 3597 1894 
L 3597 1613 
L 953 1613 
Q 991 1019 1311 708 
Q 1631 397 2203 397 
Q 2534 397 2845 478 
Q 3156 559 3463 722 
L 3463 178 
Q 3153 47 2828 -22 
Q 2503 -91 2169 -91 
Q 1331 -91 842 396 
Q 353 884 353 1716 
Q 353 2575 817 3079 
Q 1281 3584 2069 3584 
Q 2775 3584 3186 3129 
Q 3597 2675 3597 1894 
z
M 3022 2063 
Q 3016 2534 2758 2815 
Q 2500 3097 2075 3097 
Q 1594 3097 1305 2825 
Q 1016 2553 972 2059 
L 3022 2063 
z
" transform="scale(0.015625)"/>
       <path id="DejaVuSans-20" transform="scale(0.015625)"/>
       <path id="DejaVuSans-5b" d="M 550 4863 
L 1875 4863 
L 1875 4416 
L 1125 4416 
L 1125 -397 
L 1875 -397 
L 1875 -844 
L 550 -844 
L 550 4863 
z
" transform="scale(0.015625)"/>
       <path id="DejaVuSans-64" d="M 2906 2969 
L 2906 4863 
L 3481 4863 
L 3481 0 
L 2906 0 
L 2906 525 
Q 2725 213 2448 61 
Q 2172 -91 1784 -91 
Q 1150 -91 751 415 
Q 353 922 353 1747 
Q 353 2572 751 3078 
Q 1150 3584 1784 3584 
Q 2172 3584 2448 3432 
Q 2725 3281 2906 2969 
z
M 947 1747 
Q 947 1113 1208 752 
Q 1469 391 1925 391 
Q 2381 391 2643 752 
Q 2906 1113 2906 1747 
Q 2906 2381 2643 2742 
Q 2381 3103 1925 3103 
Q 1469 3103 1208 2742 
Q 947 2381 947 1747 
z
" transform="scale(0.015625)"/>
       <path id="DejaVuSans-61" d="M 2194 1759 
Q 1497 1759 1228 1600 
Q 959 1441 959 1056 
Q 959 750 1161 570 
Q 1363 391 1709 391 
Q 2188 391 2477 730 
Q 2766 1069 2766 1631 
L 2766 1759 
L 2194 1759 
z
M 3341 1997 
L 3341 0 
L 2766 0 
L 2766 531 
Q 2569 213 2275 61 
Q 1981 -91 1556 -91 
Q 1019 -91 701 211 
Q 384 513 384 1019 
Q 384 1609 779 1909 
Q 1175 2209 1959 2209 
L 2766 2209 
L 2766 2266 
Q 2766 2663 2505 2880 
Q 2244 3097 1772 3097 
Q 1472 3097 1187 3025 
Q 903 2953 641 2809 
L 641 3341 
Q 956 3463 1253 3523 
Q 1550 3584 1831 3584 
Q 2591 3584 2966 3190 
Q 3341 2797 3341 1997 
z
" transform="scale(0.015625)"/>
       <path id="DejaVuSans-79" d="M 2059 -325 
Q 1816 -950 1584 -1140 
Q 1353 -1331 966 -1331 
L 506 -1331 
L 506 -850 
L 844 -850 
Q 1081 -850 1212 -737 
Q 1344 -625 1503 -206 
L 1606 56 
L 191 3500 
L 800 3500 
L 1894 763 
L 2988 3500 
L 3597 3500 
L 2059 -325 
z
" transform="scale(0.015625)"/>
       <path id="DejaVuSans-73" d="M 2834 3397 
L 2834 2853 
Q 2591 2978 2328 3040 
Q 2066 3103 1784 3103 
Q 1356 3103 1142 2972 
Q 928 2841 928 2578 
Q 928 2378 1081 2264 
Q 1234 2150 1697 2047 
L 1894 2003 
Q 2506 1872 2764 1633 
Q 3022 1394 3022 966 
Q 3022 478 2636 193 
Q 2250 -91 1575 -91 
Q 1294 -91 989 -36 
Q 684 19 347 128 
L 347 722 
Q 666 556 975 473 
Q 1284 391 1588 391 
Q 1994 391 2212 530 
Q 2431 669 2431 922 
Q 2431 1156 2273 1281 
Q 2116 1406 1581 1522 
L 1381 1569 
Q 847 1681 609 1914 
Q 372 2147 372 2553 
Q 372 3047 722 3315 
Q 1072 3584 1716 3584 
Q 2034 3584 2315 3537 
Q 2597 3491 2834 3397 
z
" transform="scale(0.015625)"/>
       <path id="DejaVuSans-5d" d="M 1947 4863 
L 1947 -844 
L 622 -844 
L 622 -397 
L 1369 -397 
L 1369 4416 
L 622 4416 
L 622 4863 
L 1947 4863 
z
" transform="scale(0.015625)"/>
      </defs>
      <use xlink:href="#DejaVuSans-54"/>
      <use xlink:href="#DejaVuSans-69" transform="translate(57.958984 0)"/>
      <use xlink:href="#DejaVuSans-6d" transform="translate(85.742188 0)"/>
      <use xlink:href="#DejaVuSans-65" transform="translate(183.154297 0)"/>
      <use xlink:href="#DejaVuSans-20" transform="translate(244.677734 0)"/>
      <use xlink:href="#DejaVuSans-5b" transform="translate(276.464844 0)"/>
      <use xlink:href="#DejaVuSans-64" transform="translate(315.478516 0)"/>
      <use xlink:href="#DejaVuSans-61" transform="translate(378.955078 0)"/>
      <use xlink:href="#DejaVuSans-79" transform="translate(440.234375 0)"/>
      <use xlink:href="#DejaVuSans-73" transform="translate(499.414062 0)"/>
      <use xlink:href="#DejaVuSans-5d" transform="translate(551.513672 0)"/>
     </g>
    </g>
   </g>
   <g id="matplotlib.axis_2">
    <g id="ytick_1">
     <g id="text_7">
      <!-- 0.0 -->
      <g style="fill: #262626" transform="translate(28.566562 302.30005) scale(0.11 -0.11)">
       <defs>
        <path id="DejaVuSans-2e" d="M 684 794 
L 1344 794 
L 1344 0 
L 684 0 
L 684 794 
z
" transform="scale(0.015625)"/>
       </defs>
       <use xlink:href="#DejaVuSans-30"/>
       <use xlink:href="#DejaVuSans-2e" transform="translate(63.623047 0)"/>
       <use xlink:href="#DejaVuSans-30" transform="translate(95.410156 0)"/>
      </g>
     </g>
    </g>
    <g id="ytick_2">
     <g id="text_8">
      <!-- 0.2 -->
      <g style="fill: #262626" transform="translate(28.566562 250.863686) scale(0.11 -0.11)">
       <use xlink:href="#DejaVuSans-30"/>
       <use xlink:href="#DejaVuSans-2e" transform="translate(63.623047 0)"/>
       <use xlink:href="#DejaVuSans-32" transform="translate(95.410156 0)"/>
      </g>
     </g>
    </g>
    <g id="ytick_3">
     <g id="text_9">
      <!-- 0.4 -->
      <g style="fill: #262626" transform="translate(28.566562 199.427322) scale(0.11 -0.11)">
       <defs>
        <path id="DejaVuSans-34" d="M 2419 4116 
L 825 1625 
L 2419 1625 
L 2419 4116 
z
M 2253 4666 
L 3047 4666 
L 3047 1625 
L 3713 1625 
L 3713 1100 
L 3047 1100 
L 3047 0 
L 2419 0 
L 2419 1100 
L 313 1100 
L 313 1709 
L 2253 4666 
z
" transform="scale(0.015625)"/>
       </defs>
       <use xlink:href="#DejaVuSans-30"/>
       <use xlink:href="#DejaVuSans-2e" transform="translate(63.623047 0)"/>
       <use xlink:href="#DejaVuSans-34" transform="translate(95.410156 0)"/>
      </g>
     </g>
    </g>
    <g id="ytick_4">
     <g id="text_10">
      <!-- 0.6 -->
      <g style="fill: #262626" transform="translate(28.566562 147.990959) scale(0.11 -0.11)">
       <defs>
        <path id="DejaVuSans-36" d="M 2113 2584 
Q 1688 2584 1439 2293 
Q 1191 2003 1191 1497 
Q 1191 994 1439 701 
Q 1688 409 2113 409 
Q 2538 409 2786 701 
Q 3034 994 3034 1497 
Q 3034 2003 2786 2293 
Q 2538 2584 2113 2584 
z
M 3366 4563 
L 3366 3988 
Q 3128 4100 2886 4159 
Q 2644 4219 2406 4219 
Q 1781 4219 1451 3797 
Q 1122 3375 1075 2522 
Q 1259 2794 1537 2939 
Q 1816 3084 2150 3084 
Q 2853 3084 3261 2657 
Q 3669 2231 3669 1497 
Q 3669 778 3244 343 
Q 2819 -91 2113 -91 
Q 1303 -91 875 529 
Q 447 1150 447 2328 
Q 447 3434 972 4092 
Q 1497 4750 2381 4750 
Q 2619 4750 2861 4703 
Q 3103 4656 3366 4563 
z
" transform="scale(0.015625)"/>
       </defs>
       <use xlink:href="#DejaVuSans-30"/>
       <use xlink:href="#DejaVuSans-2e" transform="translate(63.623047 0)"/>
       <use xlink:href="#DejaVuSans-36" transform="translate(95.410156 0)"/>
      </g>
     </g>
    </g>
    <g id="ytick_5">
     <g id="text_11">
      <!-- 0.8 -->
      <g style="fill: #262626" transform="translate(28.566562 96.554595) scale(0.11 -0.11)">
       <defs>
        <path id="DejaVuSans-38" d="M 2034 2216 
Q 1584 2216 1326 1975 
Q 1069 1734 1069 1313 
Q 1069 891 1326 650 
Q 1584 409 2034 409 
Q 2484 409 2743 651 
Q 3003 894 3003 1313 
Q 3003 1734 2745 1975 
Q 2488 2216 2034 2216 
z
M 1403 2484 
Q 997 2584 770 2862 
Q 544 3141 544 3541 
Q 544 4100 942 4425 
Q 1341 4750 2034 4750 
Q 2731 4750 3128 4425 
Q 3525 4100 3525 3541 
Q 3525 3141 3298 2862 
Q 3072 2584 2669 2484 
Q 3125 2378 3379 2068 
Q 3634 1759 3634 1313 
Q 3634 634 3220 271 
Q 2806 -91 2034 -91 
Q 1263 -91 848 271 
Q 434 634 434 1313 
Q 434 1759 690 2068 
Q 947 2378 1403 2484 
z
M 1172 3481 
Q 1172 3119 1398 2916 
Q 1625 2713 2034 2713 
Q 2441 2713 2670 2916 
Q 2900 3119 2900 3481 
Q 2900 3844 2670 4047 
Q 2441 4250 2034 4250 
Q 1625 4250 1398 4047 
Q 1172 3844 1172 3481 
z
" transform="scale(0.015625)"/>
       </defs>
       <use xlink:href="#DejaVuSans-30"/>
       <use xlink:href="#DejaVuSans-2e" transform="translate(63.623047 0)"/>
       <use xlink:href="#DejaVuSans-38" transform="translate(95.410156 0)"/>
      </g>
     </g>
    </g>
    <g id="ytick_6">
     <g id="text_12">
      <!-- 1.0 -->
      <g style="fill: #262626" transform="translate(28.566562 45.118232) scale(0.11 -0.11)">
       <use xlink:href="#DejaVuSans-31"/>
       <use xlink:href="#DejaVuSans-2e" transform="translate(63.623047 0)"/>
       <use xlink:href="#DejaVuSans-30" transform="translate(95.410156 0)"/>
      </g>
     </g>
    </g>
    <g id="text_13">
     <!-- ψ₂ nRMSE -->
     <g style="fill: #262626" transform="translate(22.070937 198.549375) rotate(-90) scale(0.12 -0.12)">
      <defs>
       <path id="DejaVuSans-3c8" d="M 1816 -78 
Q 1094 38 759 341 
Q 350 713 350 1472 
L 350 3500 
L 931 3500 
L 931 1494 
Q 931 922 1197 684 
Q 1428 478 1816 434 
L 1816 3500 
L 2388 3500 
L 2388 438 
Q 2797 481 3006 688 
Q 3272 950 3272 1497 
L 3272 3500 
L 3853 3500 
L 3853 1475 
Q 3853 688 3444 344 
Q 3075 34 2388 -75 
L 2388 -1331 
L 1816 -1331 
L 1816 -78 
z
" transform="scale(0.015625)"/>
       <path id="DejaVuSans-2082" d="M 838 356 
L 2163 356 
L 2163 0 
L 294 0 
L 294 343 
Q 400 440 597 615 
Q 1672 1568 1672 1862 
Q 1672 2068 1509 2194 
Q 1347 2321 1081 2321 
Q 919 2321 728 2266 
Q 538 2212 313 2103 
L 313 2487 
Q 553 2575 761 2618 
Q 969 2662 1147 2662 
Q 1600 2662 1872 2456 
Q 2144 2250 2144 1912 
Q 2144 1478 1109 590 
Q 934 440 838 356 
z
" transform="scale(0.015625)"/>
       <path id="DejaVuSans-6e" d="M 3513 2113 
L 3513 0 
L 2938 0 
L 2938 2094 
Q 2938 2591 2744 2837 
Q 2550 3084 2163 3084 
Q 1697 3084 1428 2787 
Q 1159 2491 1159 1978 
L 1159 0 
L 581 0 
L 581 3500 
L 1159 3500 
L 1159 2956 
Q 1366 3272 1645 3428 
Q 1925 3584 2291 3584 
Q 2894 3584 3203 3211 
Q 3513 2838 3513 2113 
z
" transform="scale(0.015625)"/>
       <path id="DejaVuSans-52" d="M 2841 2188 
Q 3044 2119 3236 1894 
Q 3428 1669 3622 1275 
L 4263 0 
L 3584 0 
L 2988 1197 
Q 2756 1666 2539 1819 
Q 2322 1972 1947 1972 
L 1259 1972 
L 1259 0 
L 628 0 
L 628 4666 
L 2053 4666 
Q 2853 4666 3247 4331 
Q 3641 3997 3641 3322 
Q 3641 2881 3436 2590 
Q 3231 2300 2841 2188 
z
M 1259 4147 
L 1259 2491 
L 2053 2491 
Q 2509 2491 2742 2702 
Q 2975 2913 2975 3322 
Q 2975 3731 2742 3939 
Q 2509 4147 2053 4147 
L 1259 4147 
z
" transform="scale(0.015625)"/>
       <path id="DejaVuSans-4d" d="M 628 4666 
L 1569 4666 
L 2759 1491 
L 3956 4666 
L 4897 4666 
L 4897 0 
L 4281 0 
L 4281 4097 
L 3078 897 
L 2444 897 
L 1241 4097 
L 1241 0 
L 628 0 
L 628 4666 
z
" transform="scale(0.015625)"/>
       <path id="DejaVuSans-53" d="M 3425 4513 
L 3425 3897 
Q 3066 4069 2747 4153 
Q 2428 4238 2131 4238 
Q 1616 4238 1336 4038 
Q 1056 3838 1056 3469 
Q 1056 3159 1242 3001 
Q 1428 2844 1947 2747 
L 2328 2669 
Q 3034 2534 3370 2195 
Q 3706 1856 3706 1288 
Q 3706 609 3251 259 
Q 2797 -91 1919 -91 
Q 1588 -91 1214 -16 
Q 841 59 441 206 
L 441 856 
Q 825 641 1194 531 
Q 1563 422 1919 422 
Q 2459 422 2753 634 
Q 3047 847 3047 1241 
Q 3047 1584 2836 1778 
Q 2625 1972 2144 2069 
L 1759 2144 
Q 1053 2284 737 2584 
Q 422 2884 422 3419 
Q 422 4038 858 4394 
Q 1294 4750 2059 4750 
Q 2388 4750 2728 4690 
Q 3069 4631 3425 4513 
z
" transform="scale(0.015625)"/>
       <path id="DejaVuSans-45" d="M 628 4666 
L 3578 4666 
L 3578 4134 
L 1259 4134 
L 1259 2753 
L 3481 2753 
L 3481 2222 
L 1259 2222 
L 1259 531 
L 3634 531 
L 3634 0 
L 628 0 
L 628 4666 
z
" transform="scale(0.015625)"/>
      </defs>
      <use xlink:href="#DejaVuSans-3c8"/>
      <use xlink:href="#DejaVuSans-2082" transform="translate(65.966797 0)"/>
      <use xlink:href="#DejaVuSans-20" transform="translate(106.054688 0)"/>
      <use xlink:href="#DejaVuSans-6e" transform="translate(137.841797 0)"/>
      <use xlink:href="#DejaVuSans-52" transform="translate(201.220703 0)"/>
      <use xlink:href="#DejaVuSans-4d" transform="translate(270.703125 0)"/>
      <use xlink:href="#DejaVuSans-53" transform="translate(356.982422 0)"/>
      <use xlink:href="#DejaVuSans-45" transform="translate(420.458984 0)"/>
     </g>
    </g>
   </g>
   <g id="FillBetweenPolyCollection_1">
    <defs>
     <path id="m8af5374dfb" d="M 85.172727 -287.584815 
L 85.172727 -228.00542 
L 87.55126 -228.202939 
L 89.929792 -228.38428 
L 92.308324 -228.548882 
L 94.686857 -228.696346 
L 97.065389 -228.826441 
L 99.443921 -228.939111 
L 101.822453 -229.03448 
L 104.200986 -229.112821 
L 106.579518 -229.174559 
L 108.95805 -229.220277 
L 111.336583 -229.250686 
L 113.715115 -229.266579 
L 116.093647 -229.268841 
L 118.47218 -229.258441 
L 120.850712 -229.236395 
L 123.229244 -229.20375 
L 125.607777 -229.161593 
L 127.986309 -229.111021 
L 130.364841 -229.05313 
L 132.743373 -228.989035 
L 135.121906 -228.919831 
L 137.500438 -228.846584 
L 139.87897 -228.77032 
L 142.257503 -228.692002 
L 144.636035 -228.612555 
L 147.014567 -228.532834 
L 149.3931 -228.453639 
L 151.771632 -228.375729 
L 154.150164 -228.29982 
L 156.528697 -228.226567 
L 158.907229 -228.156558 
L 161.285761 -228.090372 
L 163.664294 -228.028581 
L 166.042826 -227.971727 
L 168.421358 -227.920334 
L 170.79989 -227.874897 
L 173.178423 -227.835933 
L 175.556955 -227.80392 
L 177.935487 -227.779318 
L 180.31402 -227.762579 
L 182.692552 -227.75413 
L 185.071084 -227.754402 
L 187.449617 -227.76377 
L 189.828149 -227.782554 
L 192.206681 -227.810991 
L 194.585214 -227.849272 
L 196.963746 -227.897522 
L 199.342278 -227.955829 
L 201.720811 -228.024186 
L 204.099343 -228.102525 
L 206.477875 -228.190685 
L 208.856407 -228.2884 
L 211.23494 -228.395303 
L 213.613472 -228.510925 
L 215.992004 -228.634705 
L 218.370537 -228.765986 
L 220.749069 -228.904 
L 223.127601 -229.047869 
L 225.506134 -229.196597 
L 227.884666 -229.3491 
L 230.263198 -229.50421 
L 232.641731 -229.660677 
L 235.020263 -229.817191 
L 237.398795 -229.972409 
L 239.777327 -230.124946 
L 242.15586 -230.273403 
L 244.534392 -230.416367 
L 246.912924 -230.552469 
L 249.291457 -230.680393 
L 251.669989 -230.798886 
L 254.048521 -230.906742 
L 256.427054 -231.002825 
L 258.805586 -231.086078 
L 261.184118 -231.155547 
L 263.562651 -231.210394 
L 265.941183 -231.249892 
L 268.319715 -231.273416 
L 270.698248 -231.280456 
L 273.07678 -231.270617 
L 275.455312 -231.243608 
L 277.833844 -231.199256 
L 280.212377 -231.137543 
L 282.590909 -231.058578 
L 284.969441 -230.962543 
L 287.347974 -230.8497 
L 289.726506 -230.720399 
L 292.105038 -230.575077 
L 294.483571 -230.41422 
L 296.862103 -230.238383 
L 299.240635 -230.048223 
L 301.619168 -229.844453 
L 303.9977 -229.627789 
L 306.376232 -229.399003 
L 308.754765 -229.158957 
L 311.133297 -228.908542 
L 313.511829 -228.648761 
L 315.890361 -228.380643 
L 318.268894 -228.105292 
L 320.647426 -227.823859 
L 323.025958 -227.537494 
L 325.404491 -227.247423 
L 327.783023 -226.954882 
L 330.161555 -226.66111 
L 332.540088 -226.367334 
L 334.91862 -226.074786 
L 337.297152 -225.784663 
L 339.675685 -225.498114 
L 342.054217 -225.216194 
L 344.432749 -224.939831 
L 346.811281 -224.669847 
L 349.189814 -224.406965 
L 351.568346 -224.151803 
L 353.946878 -223.904866 
L 356.325411 -223.66657 
L 358.703943 -223.437177 
L 361.082475 -223.216794 
L 363.461008 -223.005447 
L 365.83954 -222.803039 
L 368.218072 -222.609321 
L 370.596605 -222.42396 
L 372.975137 -222.246562 
L 375.353669 -222.076678 
L 377.732202 -221.913773 
L 380.110734 -221.75721 
L 382.489266 -221.606349 
L 384.867798 -221.46053 
L 387.246331 -221.319093 
L 389.624863 -221.181359 
L 392.003395 -221.046734 
L 394.381928 -220.914671 
L 396.76046 -220.784639 
L 399.138992 -220.656228 
L 401.517525 -220.529059 
L 403.896057 -220.402816 
L 406.274589 -220.277263 
L 408.653122 -220.15221 
L 411.031654 -220.027558 
L 413.410186 -219.903285 
L 415.788719 -219.779403 
L 418.167251 -219.656 
L 420.545783 -219.533185 
L 422.924315 -219.411158 
L 425.302848 -219.290149 
L 427.68138 -219.170364 
L 430.059912 -219.052007 
L 432.438445 -218.935302 
L 434.816977 -218.820444 
L 437.195509 -218.707639 
L 439.574042 -218.597021 
L 441.952574 -218.488678 
L 444.331106 -218.382636 
L 446.709639 -218.278859 
L 449.088171 -218.177278 
L 451.466703 -218.077794 
L 453.845235 -217.980243 
L 456.223768 -217.884505 
L 458.6023 -217.790489 
L 460.980832 -217.698115 
L 463.359365 -217.607305 
L 465.737897 -217.518044 
L 468.116429 -217.430388 
L 470.494962 -217.344434 
L 472.873494 -217.260301 
L 475.252026 -217.178154 
L 477.630559 -217.09819 
L 480.009091 -217.020651 
L 482.387623 -216.945779 
L 484.766156 -216.873802 
L 487.144688 -216.804956 
L 489.52322 -216.739412 
L 491.901752 -216.677287 
L 494.280285 -216.61869 
L 496.658817 -216.563681 
L 499.037349 -216.512304 
L 501.415882 -216.464569 
L 503.794414 -216.420477 
L 506.172946 -216.380009 
L 508.551479 -216.343001 
L 510.930011 -216.309189 
L 513.308543 -216.278321 
L 515.687076 -216.250126 
L 518.065608 -216.224222 
L 520.44414 -216.200355 
L 522.822673 -216.178254 
L 525.201205 -216.157602 
L 527.579737 -216.138088 
L 529.958269 -216.119401 
L 532.336802 -216.101229 
L 534.715334 -216.083269 
L 537.093866 -216.065213 
L 539.472399 -216.046759 
L 541.850931 -216.027584 
L 544.229463 -216.007343 
L 546.607996 -215.985687 
L 548.986528 -215.962222 
L 551.36506 -215.936507 
L 553.743593 -215.908081 
L 556.122125 -215.876458 
L 558.500657 -215.841164 
L 560.879189 -215.801717 
L 563.257722 -215.75768 
L 565.636254 -215.708665 
L 568.014786 -215.65432 
L 570.393319 -215.594369 
L 572.771851 -215.528623 
L 575.150383 -215.456903 
L 577.528916 -215.379156 
L 579.907448 -215.295385 
L 582.28598 -215.20569 
L 584.664513 -215.110269 
L 587.043045 -215.009374 
L 589.421577 -214.903357 
L 591.80011 -214.792638 
L 594.178642 -214.677708 
L 596.557174 -214.559089 
L 598.935706 -214.437358 
L 601.314239 -214.313141 
L 603.692771 -214.187112 
L 606.071303 -214.059935 
L 608.449836 -213.93229 
L 610.828368 -213.804838 
L 613.2069 -213.678164 
L 615.585433 -213.55279 
L 617.963965 -213.429214 
L 620.342497 -213.307906 
L 622.72103 -213.189339 
L 625.099562 -213.073972 
L 627.478094 -212.962261 
L 629.856627 -212.854629 
L 632.235159 -212.75148 
L 634.613691 -212.65324 
L 636.992223 -212.560328 
L 639.370756 -212.473126 
L 641.749288 -212.391986 
L 644.12782 -212.317261 
L 646.506353 -212.249294 
L 648.884885 -212.188355 
L 651.263417 -212.134667 
L 653.64195 -212.088442 
L 656.020482 -212.04987 
L 658.399014 -212.019072 
L 660.777547 -211.99615 
L 663.156079 -211.981229 
L 665.534611 -211.974438 
L 667.913143 -211.975891 
L 670.291676 -211.98573 
L 672.670208 -212.004175 
L 675.04874 -212.031467 
L 677.427273 -212.06788 
L 677.427273 -265.412015 
L 677.427273 -265.412015 
L 675.04874 -265.065071 
L 672.670208 -264.691667 
L 670.291676 -264.293284 
L 667.913143 -263.871697 
L 665.534611 -263.429016 
L 663.156079 -262.967635 
L 660.777547 -262.490213 
L 658.399014 -261.999624 
L 656.020482 -261.498927 
L 653.64195 -260.991328 
L 651.263417 -260.480133 
L 648.884885 -259.96869 
L 646.506353 -259.460342 
L 644.12782 -258.958352 
L 641.749288 -258.465843 
L 639.370756 -257.985785 
L 636.992223 -257.52092 
L 634.613691 -257.073668 
L 632.235159 -256.646138 
L 629.856627 -256.240052 
L 627.478094 -255.856707 
L 625.099562 -255.496986 
L 622.72103 -255.161351 
L 620.342497 -254.849811 
L 617.963965 -254.561961 
L 615.585433 -254.297 
L 613.2069 -254.053746 
L 610.828368 -253.830692 
L 608.449836 -253.626041 
L 606.071303 -253.437758 
L 603.692771 -253.263618 
L 601.314239 -253.101274 
L 598.935706 -252.948268 
L 596.557174 -252.802091 
L 594.178642 -252.660241 
L 591.80011 -252.520261 
L 589.421577 -252.379792 
L 587.043045 -252.236583 
L 584.664513 -252.088522 
L 582.28598 -251.933688 
L 579.907448 -251.770349 
L 577.528916 -251.596998 
L 575.150383 -251.412358 
L 572.771851 -251.215398 
L 570.393319 -251.005355 
L 568.014786 -250.781717 
L 565.636254 -250.544247 
L 563.257722 -250.29297 
L 560.879189 -250.028163 
L 558.500657 -249.750359 
L 556.122125 -249.460337 
L 553.743593 -249.159098 
L 551.36506 -248.847857 
L 548.986528 -248.528026 
L 546.607996 -248.201198 
L 544.229463 -247.869123 
L 541.850931 -247.533682 
L 539.472399 -247.19686 
L 537.093866 -246.860715 
L 534.715334 -246.527347 
L 532.336802 -246.198875 
L 529.958269 -245.877395 
L 527.579737 -245.564953 
L 525.201205 -245.263527 
L 522.822673 -244.975003 
L 520.44414 -244.701153 
L 518.065608 -244.443615 
L 515.687076 -244.203876 
L 513.308543 -243.983255 
L 510.930011 -243.782878 
L 508.551479 -243.603703 
L 506.172946 -243.446515 
L 503.794414 -243.311927 
L 501.415882 -243.200399 
L 499.037349 -243.112251 
L 496.658817 -243.047659 
L 494.280285 -243.006679 
L 491.901752 -242.989244 
L 489.52322 -242.99517 
L 487.144688 -243.024181 
L 484.766156 -243.075925 
L 482.387623 -243.149986 
L 480.009091 -243.245906 
L 477.630559 -243.363175 
L 475.252026 -243.501252 
L 472.873494 -243.659564 
L 470.494962 -243.837492 
L 468.116429 -244.034401 
L 465.737897 -244.249628 
L 463.359365 -244.482488 
L 460.980832 -244.732264 
L 458.6023 -244.998205 
L 456.223768 -245.279536 
L 453.845235 -245.575484 
L 451.466703 -245.885228 
L 449.088171 -246.20792 
L 446.709639 -246.542678 
L 444.331106 -246.888623 
L 441.952574 -247.244837 
L 439.574042 -247.610368 
L 437.195509 -247.98424 
L 434.816977 -248.365444 
L 432.438445 -248.752944 
L 430.059912 -249.145676 
L 427.68138 -249.542543 
L 425.302848 -249.942427 
L 422.924315 -250.344174 
L 420.545783 -250.74662 
L 418.167251 -251.148596 
L 415.788719 -251.548927 
L 413.410186 -251.946445 
L 411.031654 -252.340015 
L 408.653122 -252.728528 
L 406.274589 -253.110925 
L 403.896057 -253.486197 
L 401.517525 -253.853407 
L 399.138992 -254.2117 
L 396.76046 -254.560303 
L 394.381928 -254.898532 
L 392.003395 -255.225819 
L 389.624863 -255.541676 
L 387.246331 -255.845729 
L 384.867798 -256.13773 
L 382.489266 -256.417525 
L 380.110734 -256.685092 
L 377.732202 -256.940518 
L 375.353669 -257.184002 
L 372.975137 -257.415849 
L 370.596605 -257.636481 
L 368.218072 -257.84643 
L 365.83954 -258.046317 
L 363.461008 -258.236839 
L 361.082475 -258.41876 
L 358.703943 -258.592909 
L 356.325411 -258.760153 
L 353.946878 -258.921384 
L 351.568346 -259.077506 
L 349.189814 -259.229419 
L 346.811281 -259.377982 
L 344.432749 -259.524012 
L 342.054217 -259.668265 
L 339.675685 -259.811418 
L 337.297152 -259.954051 
L 334.91862 -260.096653 
L 332.540088 -260.2396 
L 330.161555 -260.383147 
L 327.783023 -260.527417 
L 325.404491 -260.672393 
L 323.025958 -260.817937 
L 320.647426 -260.963785 
L 318.268894 -261.109573 
L 315.890361 -261.254813 
L 313.511829 -261.398949 
L 311.133297 -261.541355 
L 308.754765 -261.681344 
L 306.376232 -261.818208 
L 303.9977 -261.951196 
L 301.619168 -262.07957 
L 299.240635 -262.202597 
L 296.862103 -262.319576 
L 294.483571 -262.429881 
L 292.105038 -262.532948 
L 289.726506 -262.628274 
L 287.347974 -262.715445 
L 284.969441 -262.794166 
L 282.590909 -262.864239 
L 280.212377 -262.925567 
L 277.833844 -262.978171 
L 275.455312 -263.022192 
L 273.07678 -263.05789 
L 270.698248 -263.085618 
L 268.319715 -263.105833 
L 265.941183 -263.119101 
L 263.562651 -263.126084 
L 261.184118 -263.127534 
L 258.805586 -263.124284 
L 256.427054 -263.117243 
L 254.048521 -263.107371 
L 251.669989 -263.095687 
L 249.291457 -263.08325 
L 246.912924 -263.071147 
L 244.534392 -263.060482 
L 242.15586 -263.052359 
L 239.777327 -263.047874 
L 237.398795 -263.048098 
L 235.020263 -263.054073 
L 232.641731 -263.06681 
L 230.263198 -263.087292 
L 227.884666 -263.116439 
L 225.506134 -263.155145 
L 223.127601 -263.204268 
L 220.749069 -263.264627 
L 218.370537 -263.337001 
L 215.992004 -263.422138 
L 213.613472 -263.520766 
L 211.23494 -263.633588 
L 208.856407 -263.761272 
L 206.477875 -263.904455 
L 204.099343 -264.063751 
L 201.720811 -264.239736 
L 199.342278 -264.432969 
L 196.963746 -264.643976 
L 194.585214 -264.873244 
L 192.206681 -265.121249 
L 189.828149 -265.388419 
L 187.449617 -265.675138 
L 185.071084 -265.981737 
L 182.692552 -266.308493 
L 180.31402 -266.655636 
L 177.935487 -267.023323 
L 175.556955 -267.41164 
L 173.178423 -267.820607 
L 170.79989 -268.250146 
L 168.421358 -268.700075 
L 166.042826 -269.17013 
L 163.664294 -269.659902 
L 161.285761 -270.168874 
L 158.907229 -270.696399 
L 156.528697 -271.241697 
L 154.150164 -271.803836 
L 151.771632 -272.381733 
L 149.3931 -272.97416 
L 147.014567 -273.579775 
L 144.636035 -274.197088 
L 142.257503 -274.82443 
L 139.87897 -275.459987 
L 137.500438 -276.101822 
L 135.121906 -276.747871 
L 132.743373 -277.395954 
L 130.364841 -278.043791 
L 127.986309 -278.689004 
L 125.607777 -279.329163 
L 123.229244 -279.96182 
L 120.850712 -280.584553 
L 118.47218 -281.195004 
L 116.093647 -281.790926 
L 113.715115 -282.370273 
L 111.336583 -282.93119 
L 108.95805 -283.472055 
L 106.579518 -283.991479 
L 104.200986 -284.488351 
L 101.822453 -284.961778 
L 99.443921 -285.411075 
L 97.065389 -285.835745 
L 94.686857 -286.2355 
L 92.308324 -286.610207 
L 89.929792 -286.959862 
L 87.55126 -287.284627 
L 85.172727 -287.584815 
z
" style="stroke: #000080; stroke-opacity: 0.1"/>
    </defs>
    <g clip-path="url(#p7bfac404ff)">
     <use xlink:href="#m8af5374dfb" x="0" y="360" style="fill: #000080; fill-opacity: 0.1; stroke: #000080; stroke-opacity: 0.1"/>
    </g>
   </g>
   <g id="FillBetweenPolyCollection_2">
    <defs>
     <path id="m79884adc20" d="M 85.172727 -284.482286 
L 85.172727 -254.870455 
L 87.55126 -254.864421 
L 89.929792 -254.851105 
L 92.308324 -254.831142 
L 94.686857 -254.805378 
L 97.065389 -254.774884 
L 99.443921 -254.740945 
L 101.822453 -254.705054 
L 104.200986 -254.668878 
L 106.579518 -254.634226 
L 108.95805 -254.603017 
L 111.336583 -254.577222 
L 113.715115 -254.558794 
L 116.093647 -254.549629 
L 118.47218 -254.551503 
L 120.850712 -254.566011 
L 123.229244 -254.594522 
L 125.607777 -254.638153 
L 127.986309 -254.69772 
L 130.364841 -254.77372 
L 132.743373 -254.866337 
L 135.121906 -254.975431 
L 137.500438 -255.100543 
L 139.87897 -255.240915 
L 142.257503 -255.395505 
L 144.636035 -255.563043 
L 147.014567 -255.742054 
L 149.3931 -255.930924 
L 151.771632 -256.127944 
L 154.150164 -256.33138 
L 156.528697 -256.539516 
L 158.907229 -256.750706 
L 161.285761 -256.963441 
L 163.664294 -257.176395 
L 166.042826 -257.388452 
L 168.421358 -257.598739 
L 170.79989 -257.806634 
L 173.178423 -258.011808 
L 175.556955 -258.214203 
L 177.935487 -258.414038 
L 180.31402 -258.611798 
L 182.692552 -258.80822 
L 185.071084 -259.004286 
L 187.449617 -259.201174 
L 189.828149 -259.400232 
L 192.206681 -259.602931 
L 194.585214 -259.810851 
L 196.963746 -260.02563 
L 199.342278 -260.248925 
L 201.720811 -260.482356 
L 204.099343 -260.727446 
L 206.477875 -260.985553 
L 208.856407 -261.257801 
L 211.23494 -261.54501 
L 213.613472 -261.847629 
L 215.992004 -262.165675 
L 218.370537 -262.498667 
L 220.749069 -262.845559 
L 223.127601 -263.204684 
L 225.506134 -263.573725 
L 227.884666 -263.949718 
L 230.263198 -264.329088 
L 232.641731 -264.70772 
L 235.020263 -265.081106 
L 237.398795 -265.444546 
L 239.777327 -265.793386 
L 242.15586 -266.123285 
L 244.534392 -266.430478 
L 246.912924 -266.711985 
L 249.291457 -266.96572 
L 251.669989 -267.190477 
L 254.048521 -267.385835 
L 256.427054 -267.552008 
L 258.805586 -267.689682 
L 261.184118 -267.799867 
L 263.562651 -267.883786 
L 265.941183 -267.942792 
L 268.319715 -267.97832 
L 270.698248 -267.991877 
L 273.07678 -267.98505 
L 275.455312 -267.959529 
L 277.833844 -267.917111 
L 280.212377 -267.859759 
L 282.590909 -267.789612 
L 284.969441 -267.708957 
L 287.347974 -267.620241 
L 289.726506 -267.526079 
L 292.105038 -267.42923 
L 294.483571 -267.332543 
L 296.862103 -267.238927 
L 299.240635 -267.151318 
L 301.619168 -267.072609 
L 303.9977 -267.005558 
L 306.376232 -266.952766 
L 308.754765 -266.916619 
L 311.133297 -266.899203 
L 313.511829 -266.902286 
L 315.890361 -266.927219 
L 318.268894 -266.974948 
L 320.647426 -267.045973 
L 323.025958 -267.140306 
L 325.404491 -267.257509 
L 327.783023 -267.396684 
L 330.161555 -267.556457 
L 332.540088 -267.735024 
L 334.91862 -267.930186 
L 337.297152 -268.139366 
L 339.675685 -268.359671 
L 342.054217 -268.587932 
L 344.432749 -268.820735 
L 346.811281 -269.0545 
L 349.189814 -269.285536 
L 351.568346 -269.510094 
L 353.946878 -269.724425 
L 356.325411 -269.92483 
L 358.703943 -270.107699 
L 361.082475 -270.269553 
L 363.461008 -270.407094 
L 365.83954 -270.517237 
L 368.218072 -270.597134 
L 370.596605 -270.644214 
L 372.975137 -270.656212 
L 375.353669 -270.631187 
L 377.732202 -270.56755 
L 380.110734 -270.464069 
L 382.489266 -270.319903 
L 384.867798 -270.134608 
L 387.246331 -269.90814 
L 389.624863 -269.640873 
L 392.003395 -269.3336 
L 394.381928 -268.987542 
L 396.76046 -268.604318 
L 399.138992 -268.185938 
L 401.517525 -267.734796 
L 403.896057 -267.253616 
L 406.274589 -266.745436 
L 408.653122 -266.21357 
L 411.031654 -265.661552 
L 413.410186 -265.093083 
L 415.788719 -264.511967 
L 418.167251 -263.922068 
L 420.545783 -263.327249 
L 422.924315 -262.73131 
L 425.302848 -262.137925 
L 427.68138 -261.550597 
L 430.059912 -260.972631 
L 432.438445 -260.407076 
L 434.816977 -259.856701 
L 437.195509 -259.323997 
L 439.574042 -258.811144 
L 441.952574 -258.320016 
L 444.331106 -257.852171 
L 446.709639 -257.408875 
L 449.088171 -256.991126 
L 451.466703 -256.599666 
L 453.845235 -256.235032 
L 456.223768 -255.897586 
L 458.6023 -255.587556 
L 460.980832 -255.305033 
L 463.359365 -255.050057 
L 465.737897 -254.822627 
L 468.116429 -254.622735 
L 470.494962 -254.45039 
L 472.873494 -254.305611 
L 475.252026 -254.188428 
L 477.630559 -254.098848 
L 480.009091 -254.036788 
L 482.387623 -254.001992 
L 484.766156 -253.993888 
L 487.144688 -254.01138 
L 489.52322 -254.052564 
L 491.901752 -254.114327 
L 494.280285 -254.191802 
L 496.658817 -254.277632 
L 499.037349 -254.361073 
L 501.415882 -254.427083 
L 503.794414 -254.455836 
L 506.172946 -254.423626 
L 508.551479 -254.306383 
L 510.930011 -254.085961 
L 513.308543 -253.756502 
L 515.687076 -253.326526 
L 518.065608 -252.815251 
L 520.44414 -252.246301 
L 522.822673 -251.642722 
L 525.201205 -251.024503 
L 527.579737 -250.407973 
L 529.958269 -249.806083 
L 532.336802 -249.228945 
L 534.715334 -248.684358 
L 537.093866 -248.17823 
L 539.472399 -247.714908 
L 541.850931 -247.297422 
L 544.229463 -246.927686 
L 546.607996 -246.606655 
L 548.986528 -246.334462 
L 551.36506 -246.110549 
L 553.743593 -245.933776 
L 556.122125 -245.802543 
L 558.500657 -245.714886 
L 560.879189 -245.668589 
L 563.257722 -245.661282 
L 565.636254 -245.690542 
L 568.014786 -245.753967 
L 570.393319 -245.849261 
L 572.771851 -245.974301 
L 575.150383 -246.127183 
L 577.528916 -246.306256 
L 579.907448 -246.510158 
L 582.28598 -246.73783 
L 584.664513 -246.988522 
L 587.043045 -247.261765 
L 589.421577 -247.557353 
L 591.80011 -247.875323 
L 594.178642 -248.215922 
L 596.557174 -248.579549 
L 598.935706 -248.96671 
L 601.314239 -249.377996 
L 603.692771 -249.814039 
L 606.071303 -250.275458 
L 608.449836 -250.762819 
L 610.828368 -251.276612 
L 613.2069 -251.81723 
L 615.585433 -252.384939 
L 617.963965 -252.979844 
L 620.342497 -253.60188 
L 622.72103 -254.250828 
L 625.099562 -254.926281 
L 627.478094 -255.627646 
L 629.856627 -256.354143 
L 632.235159 -257.104786 
L 634.613691 -257.878382 
L 636.992223 -258.673526 
L 639.370756 -259.488604 
L 641.749288 -260.32179 
L 644.12782 -261.171062 
L 646.506353 -262.034214 
L 648.884885 -262.908856 
L 651.263417 -263.79246 
L 653.64195 -264.682384 
L 656.020482 -265.57591 
L 658.399014 -266.470297 
L 660.777547 -267.362824 
L 663.156079 -268.250828 
L 665.534611 -269.131748 
L 667.913143 -270.00318 
L 670.291676 -270.862895 
L 672.670208 -271.708864 
L 675.04874 -272.539288 
L 677.427273 -273.352598 
L 677.427273 -356.87059 
L 677.427273 -356.87059 
L 675.04874 -355.612746 
L 672.670208 -354.303541 
L 670.291676 -352.944355 
L 667.913143 -351.536948 
L 665.534611 -350.083478 
L 663.156079 -348.586489 
L 660.777547 -347.04892 
L 658.399014 -345.474056 
L 656.020482 -343.865523 
L 653.64195 -342.227301 
L 651.263417 -340.563674 
L 648.884885 -338.879153 
L 646.506353 -337.178455 
L 644.12782 -335.466428 
L 641.749288 -333.747941 
L 639.370756 -332.027852 
L 636.992223 -330.31094 
L 634.613691 -328.601741 
L 632.235159 -326.904525 
L 629.856627 -325.223176 
L 627.478094 -323.561102 
L 625.099562 -321.921216 
L 622.72103 -320.30587 
L 620.342497 -318.716773 
L 617.963965 -317.155018 
L 615.585433 -315.621064 
L 613.2069 -314.114732 
L 610.828368 -312.63525 
L 608.449836 -311.1813 
L 606.071303 -309.751042 
L 603.692771 -308.342204 
L 601.314239 -306.952198 
L 598.935706 -305.578185 
L 596.557174 -304.217174 
L 594.178642 -302.866121 
L 591.80011 -301.522003 
L 589.421577 -300.181932 
L 587.043045 -298.843201 
L 584.664513 -297.503348 
L 582.28598 -296.16026 
L 579.907448 -294.812195 
L 577.528916 -293.457845 
L 575.150383 -292.096374 
L 572.771851 -290.727451 
L 570.393319 -289.351284 
L 568.014786 -287.968623 
L 565.636254 -286.580761 
L 563.257722 -285.189544 
L 560.879189 -283.797343 
L 558.500657 -282.407054 
L 556.122125 -281.022044 
L 553.743593 -279.646137 
L 551.36506 -278.283526 
L 548.986528 -276.938752 
L 546.607996 -275.616673 
L 544.229463 -274.322417 
L 541.850931 -273.061343 
L 539.472399 -271.839045 
L 537.093866 -270.661382 
L 534.715334 -269.534537 
L 532.336802 -268.465132 
L 529.958269 -267.460445 
L 527.579737 -266.528699 
L 525.201205 -265.679481 
L 522.822673 -264.924311 
L 520.44414 -264.277204 
L 518.065608 -263.755025 
L 515.687076 -263.376937 
L 513.308543 -263.162041 
L 510.930011 -263.124529 
L 508.551479 -263.267432 
L 506.172946 -263.579073 
L 503.794414 -264.035278 
L 501.415882 -264.605819 
L 499.037349 -265.26081 
L 496.658817 -265.974386 
L 494.280285 -266.725725 
L 491.901752 -267.498667 
L 489.52322 -268.280915 
L 487.144688 -269.063221 
L 484.766156 -269.838753 
L 482.387623 -270.602593 
L 480.009091 -271.351378 
L 477.630559 -272.083052 
L 475.252026 -272.796653 
L 472.873494 -273.49215 
L 470.494962 -274.170312 
L 468.116429 -274.832566 
L 465.737897 -275.480874 
L 463.359365 -276.117616 
L 460.980832 -276.745487 
L 458.6023 -277.367387 
L 456.223768 -277.986312 
L 453.845235 -278.605217 
L 451.466703 -279.226938 
L 449.088171 -279.854111 
L 446.709639 -280.489085 
L 444.331106 -281.133833 
L 441.952574 -281.789905 
L 439.574042 -282.458399 
L 437.195509 -283.139918 
L 434.816977 -283.834545 
L 432.438445 -284.541813 
L 430.059912 -285.260687 
L 427.68138 -285.989577 
L 425.302848 -286.726331 
L 422.924315 -287.468266 
L 420.545783 -288.212205 
L 418.167251 -288.954528 
L 415.788719 -289.691221 
L 413.410186 -290.417972 
L 411.031654 -291.130253 
L 408.653122 -291.823392 
L 406.274589 -292.492665 
L 403.896057 -293.133403 
L 401.517525 -293.741062 
L 399.138992 -294.311316 
L 396.76046 -294.840136 
L 394.381928 -295.323851 
L 392.003395 -295.759207 
L 389.624863 -296.143426 
L 387.246331 -296.474228 
L 384.867798 -296.749877 
L 382.489266 -296.969201 
L 380.110734 -297.131614 
L 377.732202 -297.237105 
L 375.353669 -297.286243 
L 372.975137 -297.280174 
L 370.596605 -297.220583 
L 368.218072 -297.10968 
L 365.83954 -296.95016 
L 363.461008 -296.745161 
L 361.082475 -296.498216 
L 358.703943 -296.213183 
L 356.325411 -295.894193 
L 353.946878 -295.54557 
L 351.568346 -295.171755 
L 349.189814 -294.777213 
L 346.811281 -294.366364 
L 344.432749 -293.943491 
L 342.054217 -293.512669 
L 339.675685 -293.077688 
L 337.297152 -292.641978 
L 334.91862 -292.208557 
L 332.540088 -291.779982 
L 330.161555 -291.358309 
L 327.783023 -290.945073 
L 325.404491 -290.541274 
L 323.025958 -290.147386 
L 320.647426 -289.763371 
L 318.268894 -289.388708 
L 315.890361 -289.022428 
L 313.511829 -288.66317 
L 311.133297 -288.30923 
L 308.754765 -287.958628 
L 306.376232 -287.60918 
L 303.9977 -287.258551 
L 301.619168 -286.904338 
L 299.240635 -286.544135 
L 296.862103 -286.175602 
L 294.483571 -285.79654 
L 292.105038 -285.404948 
L 289.726506 -284.999089 
L 287.347974 -284.577553 
L 284.969441 -284.139319 
L 282.590909 -283.683804 
L 280.212377 -283.210908 
L 277.833844 -282.721061 
L 275.455312 -282.215261 
L 273.07678 -281.695101 
L 270.698248 -281.162778 
L 268.319715 -280.62111 
L 265.941183 -280.073523 
L 263.562651 -279.524029 
L 261.184118 -278.977169 
L 258.805586 -278.437932 
L 256.427054 -277.911626 
L 254.048521 -277.40371 
L 251.669989 -276.919582 
L 249.291457 -276.464314 
L 246.912924 -276.042387 
L 244.534392 -275.65743 
L 242.15586 -275.312017 
L 239.777327 -275.00757 
L 237.398795 -274.744371 
L 235.020263 -274.521677 
L 232.641731 -274.337917 
L 230.263198 -274.1909 
L 227.884666 -274.07802 
L 225.506134 -273.996431 
L 223.127601 -273.943179 
L 220.749069 -273.915291 
L 218.370537 -273.909831 
L 215.992004 -273.923944 
L 213.613472 -273.954878 
L 211.23494 -273.999999 
L 208.856407 -274.056803 
L 206.477875 -274.122933 
L 204.099343 -274.196197 
L 201.720811 -274.274583 
L 199.342278 -274.356284 
L 196.963746 -274.439712 
L 194.585214 -274.523515 
L 192.206681 -274.606599 
L 189.828149 -274.688135 
L 187.449617 -274.767567 
L 185.071084 -274.844616 
L 182.692552 -274.919284 
L 180.31402 -274.991843 
L 177.935487 -275.062824 
L 175.556955 -275.132986 
L 173.178423 -275.2033 
L 170.79989 -275.274918 
L 168.421358 -275.349137 
L 166.042826 -275.427374 
L 163.664294 -275.511112 
L 161.285761 -275.601868 
L 158.907229 -275.70116 
L 156.528697 -275.810469 
L 154.150164 -275.931205 
L 151.771632 -276.064681 
L 149.3931 -276.212092 
L 147.014567 -276.374499 
L 144.636035 -276.552808 
L 142.257503 -276.747732 
L 139.87897 -276.959768 
L 137.500438 -277.189192 
L 135.121906 -277.436035 
L 132.743373 -277.700075 
L 130.364841 -277.980818 
L 127.986309 -278.277504 
L 125.607777 -278.589133 
L 123.229244 -278.914473 
L 120.850712 -279.252089 
L 118.47218 -279.600359 
L 116.093647 -279.957507 
L 113.715115 -280.321662 
L 111.336583 -280.690864 
L 108.95805 -281.06308 
L 106.579518 -281.436227 
L 104.200986 -281.808201 
L 101.822453 -282.176867 
L 99.443921 -282.540054 
L 97.065389 -282.89557 
L 94.686857 -283.241233 
L 92.308324 -283.574862 
L 89.929792 -283.894299 
L 87.55126 -284.197441 
L 85.172727 -284.482286 
z
" style="stroke: #000080; stroke-opacity: 0.1"/>
    </defs>
    <g clip-path="url(#p7bfac404ff)">
     <use xlink:href="#m79884adc20" x="0" y="360" style="fill: #000080; fill-opacity: 0.1; stroke: #000080; stroke-opacity: 0.1"/>
    </g>
   </g>
   <g id="line2d_1">
    <path d="M 85.172727 102.204883 
L 92.308324 102.420456 
L 99.443921 102.824907 
L 106.579518 103.416981 
L 116.093647 104.470116 
L 125.607777 105.754622 
L 161.285761 110.870377 
L 170.79989 111.937479 
L 180.31402 112.790893 
L 189.828149 113.414514 
L 199.342278 113.805601 
L 208.856407 113.975164 
L 218.370537 113.948506 
L 230.263198 113.704249 
L 263.562651 112.831761 
L 273.07678 112.835746 
L 282.590909 113.038591 
L 292.105038 113.445987 
L 303.9977 114.210507 
L 318.268894 115.392568 
L 368.218072 119.772124 
L 389.624863 121.638483 
L 406.274589 123.305906 
L 451.466703 128.018489 
L 463.359365 128.955103 
L 475.252026 129.660297 
L 484.766156 130.025137 
L 494.280285 130.187315 
L 503.794414 130.133798 
L 513.308543 129.869212 
L 525.201205 129.289436 
L 544.229463 128.061767 
L 560.879189 127.08506 
L 572.771851 126.627989 
L 584.664513 126.400605 
L 617.963965 126.004413 
L 627.478094 125.590516 
L 636.992223 124.959376 
L 648.884885 123.921477 
L 677.427273 121.260053 
L 677.427273 121.260053 
" clip-path="url(#p7bfac404ff)" style="fill: none; stroke: #000080; stroke-width: 1.5; stroke-linecap: round"/>
   </g>
   <g id="line2d_2">
    <path d="M 85.172727 90.32363 
L 94.686857 90.976695 
L 127.986309 93.512388 
L 137.500438 93.855133 
L 147.014567 93.941723 
L 158.907229 93.774067 
L 196.963746 92.767329 
L 208.856407 92.342698 
L 218.370537 91.795751 
L 227.884666 90.986131 
L 237.398795 89.905541 
L 249.291457 88.284983 
L 265.941183 85.991842 
L 275.455312 84.912605 
L 284.969441 84.075862 
L 296.862103 83.292735 
L 313.511829 82.217272 
L 323.025958 81.356154 
L 332.540088 80.242497 
L 358.703943 76.839559 
L 365.83954 76.266302 
L 370.596605 76.067602 
L 375.353669 76.041285 
L 380.110734 76.202158 
L 384.867798 76.557758 
L 389.624863 77.107851 
L 394.381928 77.844303 
L 399.138992 78.751373 
L 406.274589 80.38095 
L 413.410186 82.244472 
L 439.574042 89.365229 
L 449.088171 91.577382 
L 458.6023 93.522529 
L 470.494962 95.689649 
L 487.144688 98.462699 
L 496.658817 99.873991 
L 503.794414 100.754443 
L 510.930011 101.394755 
L 515.687076 101.648268 
L 520.44414 101.738248 
L 525.201205 101.648008 
L 529.958269 101.366736 
L 534.715334 100.890553 
L 539.472399 100.223024 
L 544.229463 99.374948 
L 551.36506 97.802962 
L 558.500657 95.93903 
L 568.014786 93.138705 
L 579.907448 89.338823 
L 591.80011 85.301337 
L 601.314239 81.834903 
L 608.449836 79.027941 
L 615.585433 75.996999 
L 622.72103 72.721651 
L 629.856627 69.21134 
L 639.370756 64.241772 
L 663.156079 51.581342 
L 670.291676 48.096375 
L 677.427273 44.888406 
L 677.427273 44.888406 
" clip-path="url(#p7bfac404ff)" style="fill: none; stroke-dasharray: 5.55,2.4; stroke-dashoffset: 0; stroke: #000080; stroke-width: 1.5"/>
   </g>
   <g id="patch_3">
    <path d="M 55.56 310.98 
L 55.56 28.08 
" style="fill: none; stroke: #ffffff; stroke-width: 1.25; stroke-linejoin: miter; stroke-linecap: square"/>
   </g>
   <g id="patch_4">
    <path d="M 707.04 310.98 
L 707.04 28.08 
" style="fill: none; stroke: #ffffff; stroke-width: 1.25; stroke-linejoin: miter; stroke-linecap: square"/>
   </g>
   <g id="patch_5">
    <path d="M 55.56 310.98 
L 707.04 310.98 
" style="fill: none; stroke: #ffffff; stroke-width: 1.25; stroke-linejoin: miter; stroke-linecap: square"/>
   </g>
   <g id="patch_6">
    <path d="M 55.56 28.08 
L 707.04 28.08 
" style="fill: none; stroke: #ffffff; stroke-width: 1.25; stroke-linejoin: miter; stroke-linecap: square"/>
   </g>
   <g id="text_14">
    <!-- QG3L - [32, 96] x [256, 384] -->
    <g style="fill: #262626" transform="translate(296.2575 22.08) scale(0.12 -0.12)">
     <defs>
      <path id="DejaVuSans-51" d="M 2522 4238 
Q 1834 4238 1429 3725 
Q 1025 3213 1025 2328 
Q 1025 1447 1429 934 
Q 1834 422 2522 422 
Q 3209 422 3611 934 
Q 4013 1447 4013 2328 
Q 4013 3213 3611 3725 
Q 3209 4238 2522 4238 
z
M 3406 84 
L 4238 -825 
L 3475 -825 
L 2784 -78 
Q 2681 -84 2626 -87 
Q 2572 -91 2522 -91 
Q 1538 -91 948 567 
Q 359 1225 359 2328 
Q 359 3434 948 4092 
Q 1538 4750 2522 4750 
Q 3503 4750 4090 4092 
Q 4678 3434 4678 2328 
Q 4678 1516 4351 937 
Q 4025 359 3406 84 
z
" transform="scale(0.015625)"/>
      <path id="DejaVuSans-47" d="M 3809 666 
L 3809 1919 
L 2778 1919 
L 2778 2438 
L 4434 2438 
L 4434 434 
Q 4069 175 3628 42 
Q 3188 -91 2688 -91 
Q 1594 -91 976 548 
Q 359 1188 359 2328 
Q 359 3472 976 4111 
Q 1594 4750 2688 4750 
Q 3144 4750 3555 4637 
Q 3966 4525 4313 4306 
L 4313 3634 
Q 3963 3931 3569 4081 
Q 3175 4231 2741 4231 
Q 1884 4231 1454 3753 
Q 1025 3275 1025 2328 
Q 1025 1384 1454 906 
Q 1884 428 2741 428 
Q 3075 428 3337 486 
Q 3600 544 3809 666 
z
" transform="scale(0.015625)"/>
      <path id="DejaVuSans-33" d="M 2597 2516 
Q 3050 2419 3304 2112 
Q 3559 1806 3559 1356 
Q 3559 666 3084 287 
Q 2609 -91 1734 -91 
Q 1441 -91 1130 -33 
Q 819 25 488 141 
L 488 750 
Q 750 597 1062 519 
Q 1375 441 1716 441 
Q 2309 441 2620 675 
Q 2931 909 2931 1356 
Q 2931 1769 2642 2001 
Q 2353 2234 1838 2234 
L 1294 2234 
L 1294 2753 
L 1863 2753 
Q 2328 2753 2575 2939 
Q 2822 3125 2822 3475 
Q 2822 3834 2567 4026 
Q 2313 4219 1838 4219 
Q 1578 4219 1281 4162 
Q 984 4106 628 3988 
L 628 4550 
Q 988 4650 1302 4700 
Q 1616 4750 1894 4750 
Q 2613 4750 3031 4423 
Q 3450 4097 3450 3541 
Q 3450 3153 3228 2886 
Q 3006 2619 2597 2516 
z
" transform="scale(0.015625)"/>
      <path id="DejaVuSans-4c" d="M 628 4666 
L 1259 4666 
L 1259 531 
L 3531 531 
L 3531 0 
L 628 0 
L 628 4666 
z
" transform="scale(0.015625)"/>
      <path id="DejaVuSans-2d" d="M 313 2009 
L 1997 2009 
L 1997 1497 
L 313 1497 
L 313 2009 
z
" transform="scale(0.015625)"/>
      <path id="DejaVuSans-2c" d="M 750 794 
L 1409 794 
L 1409 256 
L 897 -744 
L 494 -744 
L 750 256 
L 750 794 
z
" transform="scale(0.015625)"/>
      <path id="DejaVuSans-39" d="M 703 97 
L 703 672 
Q 941 559 1184 500 
Q 1428 441 1663 441 
Q 2288 441 2617 861 
Q 2947 1281 2994 2138 
Q 2813 1869 2534 1725 
Q 2256 1581 1919 1581 
Q 1219 1581 811 2004 
Q 403 2428 403 3163 
Q 403 3881 828 4315 
Q 1253 4750 1959 4750 
Q 2769 4750 3195 4129 
Q 3622 3509 3622 2328 
Q 3622 1225 3098 567 
Q 2575 -91 1691 -91 
Q 1453 -91 1209 -44 
Q 966 3 703 97 
z
M 1959 2075 
Q 2384 2075 2632 2365 
Q 2881 2656 2881 3163 
Q 2881 3666 2632 3958 
Q 2384 4250 1959 4250 
Q 1534 4250 1286 3958 
Q 1038 3666 1038 3163 
Q 1038 2656 1286 2365 
Q 1534 2075 1959 2075 
z
" transform="scale(0.015625)"/>
      <path id="DejaVuSans-78" d="M 3513 3500 
L 2247 1797 
L 3578 0 
L 2900 0 
L 1881 1375 
L 863 0 
L 184 0 
L 1544 1831 
L 300 3500 
L 978 3500 
L 1906 2253 
L 2834 3500 
L 3513 3500 
z
" transform="scale(0.015625)"/>
     </defs>
     <use xlink:href="#DejaVuSans-51"/>
     <use xlink:href="#DejaVuSans-47" transform="translate(78.710938 0)"/>
     <use xlink:href="#DejaVuSans-33" transform="translate(156.201172 0)"/>
     <use xlink:href="#DejaVuSans-4c" transform="translate(219.824219 0)"/>
     <use xlink:href="#DejaVuSans-20" transform="translate(275.537109 0)"/>
     <use xlink:href="#DejaVuSans-2d" transform="translate(307.324219 0)"/>
     <use xlink:href="#DejaVuSans-20" transform="translate(343.408203 0)"/>
     <use xlink:href="#DejaVuSans-5b" transform="translate(375.195312 0)"/>
     <use xlink:href="#DejaVuSans-33" transform="translate(414.208984 0)"/>
     <use xlink:href="#DejaVuSans-32" transform="translate(477.832031 0)"/>
     <use xlink:href="#DejaVuSans-2c" transform="translate(541.455078 0)"/>
     <use xlink:href="#DejaVuSans-20" transform="translate(573.242188 0)"/>
     <use xlink:href="#DejaVuSans-39" transform="translate(605.029297 0)"/>
     <use xlink:href="#DejaVuSans-36" transform="translate(668.652344 0)"/>
     <use xlink:href="#DejaVuSans-5d" transform="translate(732.275391 0)"/>
     <use xlink:href="#DejaVuSans-20" transform="translate(771.289062 0)"/>
     <use xlink:href="#DejaVuSans-78" transform="translate(803.076172 0)"/>
     <use xlink:href="#DejaVuSans-20" transform="translate(862.255859 0)"/>
     <use xlink:href="#DejaVuSans-5b" transform="translate(894.042969 0)"/>
     <use xlink:href="#DejaVuSans-32" transform="translate(933.056641 0)"/>
     <use xlink:href="#DejaVuSans-35" transform="translate(996.679688 0)"/>
     <use xlink:href="#DejaVuSans-36" transform="translate(1060.302734 0)"/>
     <use xlink:href="#DejaVuSans-2c" transform="translate(1123.925781 0)"/>
     <use xlink:href="#DejaVuSans-20" transform="translate(1155.712891 0)"/>
     <use xlink:href="#DejaVuSans-33" transform="translate(1187.5 0)"/>
     <use xlink:href="#DejaVuSans-38" transform="translate(1251.123047 0)"/>
     <use xlink:href="#DejaVuSans-34" transform="translate(1314.746094 0)"/>
     <use xlink:href="#DejaVuSans-5d" transform="translate(1378.369141 0)"/>
    </g>
   </g>
   <g id="legend_1">
    <g id="patch_7">
     <path d="M 63.26 69.171875 
L 244.675781 69.171875 
Q 246.875781 69.171875 246.875781 66.971875 
L 246.875781 35.78 
Q 246.875781 33.58 244.675781 33.58 
L 63.26 33.58 
Q 61.06 33.58 61.06 35.78 
L 61.06 66.971875 
Q 61.06 69.171875 63.26 69.171875 
z
" style="fill: #eaeaf2; opacity: 0.8; stroke: #cccccc; stroke-linejoin: miter"/>
    </g>
    <g id="line2d_3">
     <path d="M 65.46 42.488281 
L 76.46 42.488281 
L 87.46 42.488281 
" style="fill: none; stroke: #000080; stroke-width: 1.5; stroke-linecap: round"/>
    </g>
    <g id="text_15">
     <!-- SurfML -->
     <g style="fill: #262626" transform="translate(96.26 46.338281) scale(0.11 -0.11)">
      <defs>
       <path id="DejaVuSans-75" d="M 544 1381 
L 544 3500 
L 1119 3500 
L 1119 1403 
Q 1119 906 1312 657 
Q 1506 409 1894 409 
Q 2359 409 2629 706 
Q 2900 1003 2900 1516 
L 2900 3500 
L 3475 3500 
L 3475 0 
L 2900 0 
L 2900 538 
Q 2691 219 2414 64 
Q 2138 -91 1772 -91 
Q 1169 -91 856 284 
Q 544 659 544 1381 
z
M 1991 3584 
L 1991 3584 
z
" transform="scale(0.015625)"/>
       <path id="DejaVuSans-72" d="M 2631 2963 
Q 2534 3019 2420 3045 
Q 2306 3072 2169 3072 
Q 1681 3072 1420 2755 
Q 1159 2438 1159 1844 
L 1159 0 
L 581 0 
L 581 3500 
L 1159 3500 
L 1159 2956 
Q 1341 3275 1631 3429 
Q 1922 3584 2338 3584 
Q 2397 3584 2469 3576 
Q 2541 3569 2628 3553 
L 2631 2963 
z
" transform="scale(0.015625)"/>
       <path id="DejaVuSans-66" d="M 2375 4863 
L 2375 4384 
L 1825 4384 
Q 1516 4384 1395 4259 
Q 1275 4134 1275 3809 
L 1275 3500 
L 2222 3500 
L 2222 3053 
L 1275 3053 
L 1275 0 
L 697 0 
L 697 3053 
L 147 3053 
L 147 3500 
L 697 3500 
L 697 3744 
Q 697 4328 969 4595 
Q 1241 4863 1831 4863 
L 2375 4863 
z
" transform="scale(0.015625)"/>
      </defs>
      <use xlink:href="#DejaVuSans-53"/>
      <use xlink:href="#DejaVuSans-75" transform="translate(63.476562 0)"/>
      <use xlink:href="#DejaVuSans-72" transform="translate(126.855469 0)"/>
      <use xlink:href="#DejaVuSans-66" transform="translate(167.96875 0)"/>
      <use xlink:href="#DejaVuSans-4d" transform="translate(203.173828 0)"/>
      <use xlink:href="#DejaVuSans-4c" transform="translate(289.453125 0)"/>
     </g>
    </g>
    <g id="line2d_4">
     <path d="M 65.46 58.634219 
L 76.46 58.634219 
L 87.46 58.634219 
" style="fill: none; stroke-dasharray: 5.55,2.4; stroke-dashoffset: 0; stroke: #000080; stroke-width: 1.5"/>
    </g>
    <g id="text_16">
     <!-- SurfML - No Regularization -->
     <g style="fill: #262626" transform="translate(96.26 62.484219) scale(0.11 -0.11)">
      <defs>
       <path id="DejaVuSans-4e" d="M 628 4666 
L 1478 4666 
L 3547 763 
L 3547 4666 
L 4159 4666 
L 4159 0 
L 3309 0 
L 1241 3903 
L 1241 0 
L 628 0 
L 628 4666 
z
" transform="scale(0.015625)"/>
       <path id="DejaVuSans-6f" d="M 1959 3097 
Q 1497 3097 1228 2736 
Q 959 2375 959 1747 
Q 959 1119 1226 758 
Q 1494 397 1959 397 
Q 2419 397 2687 759 
Q 2956 1122 2956 1747 
Q 2956 2369 2687 2733 
Q 2419 3097 1959 3097 
z
M 1959 3584 
Q 2709 3584 3137 3096 
Q 3566 2609 3566 1747 
Q 3566 888 3137 398 
Q 2709 -91 1959 -91 
Q 1206 -91 779 398 
Q 353 888 353 1747 
Q 353 2609 779 3096 
Q 1206 3584 1959 3584 
z
" transform="scale(0.015625)"/>
       <path id="DejaVuSans-67" d="M 2906 1791 
Q 2906 2416 2648 2759 
Q 2391 3103 1925 3103 
Q 1463 3103 1205 2759 
Q 947 2416 947 1791 
Q 947 1169 1205 825 
Q 1463 481 1925 481 
Q 2391 481 2648 825 
Q 2906 1169 2906 1791 
z
M 3481 434 
Q 3481 -459 3084 -895 
Q 2688 -1331 1869 -1331 
Q 1566 -1331 1297 -1286 
Q 1028 -1241 775 -1147 
L 775 -588 
Q 1028 -725 1275 -790 
Q 1522 -856 1778 -856 
Q 2344 -856 2625 -561 
Q 2906 -266 2906 331 
L 2906 616 
Q 2728 306 2450 153 
Q 2172 0 1784 0 
Q 1141 0 747 490 
Q 353 981 353 1791 
Q 353 2603 747 3093 
Q 1141 3584 1784 3584 
Q 2172 3584 2450 3431 
Q 2728 3278 2906 2969 
L 2906 3500 
L 3481 3500 
L 3481 434 
z
" transform="scale(0.015625)"/>
       <path id="DejaVuSans-6c" d="M 603 4863 
L 1178 4863 
L 1178 0 
L 603 0 
L 603 4863 
z
" transform="scale(0.015625)"/>
       <path id="DejaVuSans-7a" d="M 353 3500 
L 3084 3500 
L 3084 2975 
L 922 459 
L 3084 459 
L 3084 0 
L 275 0 
L 275 525 
L 2438 3041 
L 353 3041 
L 353 3500 
z
" transform="scale(0.015625)"/>
       <path id="DejaVuSans-74" d="M 1172 4494 
L 1172 3500 
L 2356 3500 
L 2356 3053 
L 1172 3053 
L 1172 1153 
Q 1172 725 1289 603 
Q 1406 481 1766 481 
L 2356 481 
L 2356 0 
L 1766 0 
Q 1100 0 847 248 
Q 594 497 594 1153 
L 594 3053 
L 172 3053 
L 172 3500 
L 594 3500 
L 594 4494 
L 1172 4494 
z
" transform="scale(0.015625)"/>
      </defs>
      <use xlink:href="#DejaVuSans-53"/>
      <use xlink:href="#DejaVuSans-75" transform="translate(63.476562 0)"/>
      <use xlink:href="#DejaVuSans-72" transform="translate(126.855469 0)"/>
      <use xlink:href="#DejaVuSans-66" transform="translate(167.96875 0)"/>
      <use xlink:href="#DejaVuSans-4d" transform="translate(203.173828 0)"/>
      <use xlink:href="#DejaVuSans-4c" transform="translate(289.453125 0)"/>
      <use xlink:href="#DejaVuSans-20" transform="translate(345.166016 0)"/>
      <use xlink:href="#DejaVuSans-2d" transform="translate(376.953125 0)"/>
      <use xlink:href="#DejaVuSans-20" transform="translate(413.037109 0)"/>
      <use xlink:href="#DejaVuSans-4e" transform="translate(444.824219 0)"/>
      <use xlink:href="#DejaVuSans-6f" transform="translate(519.628906 0)"/>
      <use xlink:href="#DejaVuSans-20" transform="translate(580.810547 0)"/>
      <use xlink:href="#DejaVuSans-52" transform="translate(612.597656 0)"/>
      <use xlink:href="#DejaVuSans-65" transform="translate(677.580078 0)"/>
      <use xlink:href="#DejaVuSans-67" transform="translate(739.103516 0)"/>
      <use xlink:href="#DejaVuSans-75" transform="translate(802.580078 0)"/>
      <use xlink:href="#DejaVuSans-6c" transform="translate(865.958984 0)"/>
      <use xlink:href="#DejaVuSans-61" transform="translate(893.742188 0)"/>
      <use xlink:href="#DejaVuSans-72" transform="translate(955.021484 0)"/>
      <use xlink:href="#DejaVuSans-69" transform="translate(996.134766 0)"/>
      <use xlink:href="#DejaVuSans-7a" transform="translate(1023.917969 0)"/>
      <use xlink:href="#DejaVuSans-61" transform="translate(1076.408203 0)"/>
      <use xlink:href="#DejaVuSans-74" transform="translate(1137.6875 0)"/>
      <use xlink:href="#DejaVuSans-69" transform="translate(1176.896484 0)"/>
      <use xlink:href="#DejaVuSans-6f" transform="translate(1204.679688 0)"/>
      <use xlink:href="#DejaVuSans-6e" transform="translate(1265.861328 0)"/>
     </g>
    </g>
   </g>
  </g>
 </g>
 <defs>
  <clipPath id="p7bfac404ff">
   <rect x="55.56" y="28.08" width="651.48" height="282.9"/>
  </clipPath>
 </defs>
</svg>
