<?xml version="1.0" encoding="utf-8" standalone="no"?>
<!DOCTYPE svg PUBLIC "-//W3C//DTD SVG 1.1//EN"
  "http://www.w3.org/Graphics/SVG/1.1/DTD/svg11.dtd">
<svg xmlns:xlink="http://www.w3.org/1999/xlink" width="720pt" height="360pt" viewBox="0 0 720 360" xmlns="http://www.w3.org/2000/svg" version="1.1">
 <metadata>
  <rdf:RDF xmlns:dc="http://purl.org/dc/elements/1.1/" xmlns:cc="http://creativecommons.org/ns#" xmlns:rdf="http://www.w3.org/1999/02/22-rdf-syntax-ns#">
   <cc:Work>
    <dc:type rdf:resource="http://purl.org/dc/dcmitype/StillImage"/>
    <dc:date>2026-03-19T14:39:07.082618</dc:date>
    <dc:format>image/svg+xml</dc:format>
    <dc:creator>
     <cc:Agent>
      <dc:title>Matplotlib v3.10.6, https://matplotlib.org/</dc:title>
     </cc:Agent>
    </dc:creator>
   </cc:Work>
  </rdf:RDF>
 </metadata>
 <defs>
  <style type="text/css">*{stroke-linejoin: round; stroke-linecap: butt}</style>
 </defs>
 <g id="figure_1">
  <g id="patch_1">
   <path d="M 0 360 
L 720 360 
L 720 0 
L 0 0 
z
" style="fill: #ffffff"/>
  </g>
  <g id="axes_1">
   <g id="patch_2">
    <path d="M 62.58 310.98 
L 707.04 310.98 
L 707.04 28.08 
L 62.58 28.08 
z
" style="fill: #eaeaf2"/>
   </g>
   <g id="matplotlib.axis_1">
    <g id="xtick_1">
     <g id="text_1">
      <!-- 0 -->
      <g style="fill: #262626" transform="translate(88.374261 328.838281) scale(0.11 -0.11)">
       <defs>
        <path id="DejaVuSans-30" d="M 2034 4250 
Q 1547 4250 1301 3770 
Q 1056 3291 1056 2328 
Q 1056 1369 1301 889 
Q 1547 409 2034 409 
Q 2525 409 2770 889 
Q 3016 1369 3016 2328 
Q 3016 3291 2770 3770 
Q 2525 4250 2034 4250 
z
M 2034 4750 
Q 2819 4750 3233 4129 
Q 3647 3509 3647 2328 
Q 3647 1150 3233 529 
Q 2819 -91 2034 -91 
Q 1250 -91 836 529 
Q 422 1150 422 2328 
Q 422 3509 836 4129 
Q 1250 4750 2034 4750 
z
" transform="scale(0.015625)"/>
       </defs>
       <use xlink:href="#DejaVuSans-30"/>
      </g>
     </g>
    </g>
    <g id="xtick_2">
     <g id="text_2">
      <!-- 5 -->
      <g style="fill: #262626" transform="translate(229.548413 328.838281) scale(0.11 -0.11)">
       <defs>
        <path id="DejaVuSans-35" d="M 691 4666 
L 3169 4666 
L 3169 4134 
L 1269 4134 
L 1269 2991 
Q 1406 3038 1543 3061 
Q 1681 3084 1819 3084 
Q 2600 3084 3056 2656 
Q 3513 2228 3513 1497 
Q 3513 744 3044 326 
Q 2575 -91 1722 -91 
Q 1428 -91 1123 -41 
Q 819 9 494 109 
L 494 744 
Q 775 591 1075 516 
Q 1375 441 1709 441 
Q 2250 441 2565 725 
Q 2881 1009 2881 1497 
Q 2881 1984 2565 2268 
Q 2250 2553 1709 2553 
Q 1456 2553 1204 2497 
Q 953 2441 691 2322 
L 691 4666 
z
" transform="scale(0.015625)"/>
       </defs>
       <use xlink:href="#DejaVuSans-35"/>
      </g>
     </g>
    </g>
    <g id="xtick_3">
     <g id="text_3">
      <!-- 10 -->
      <g style="fill: #262626" transform="translate(367.223189 328.838281) scale(0.11 -0.11)">
       <defs>
        <path id="DejaVuSans-31" d="M 794 531 
L 1825 531 
L 1825 4091 
L 703 3866 
L 703 4441 
L 1819 4666 
L 2450 4666 
L 2450 531 
L 3481 531 
L 3481 0 
L 794 0 
L 794 531 
z
" transform="scale(0.015625)"/>
       </defs>
       <use xlink:href="#DejaVuSans-31"/>
       <use xlink:href="#DejaVuSans-30" transform="translate(63.623047 0)"/>
      </g>
     </g>
    </g>
    <g id="xtick_4">
     <g id="text_4">
      <!-- 15 -->
      <g style="fill: #262626" transform="translate(508.39734 328.838281) scale(0.11 -0.11)">
       <use xlink:href="#DejaVuSans-31"/>
       <use xlink:href="#DejaVuSans-35" transform="translate(63.623047 0)"/>
      </g>
     </g>
    </g>
    <g id="xtick_5">
     <g id="text_5">
      <!-- 20 -->
      <g style="fill: #262626" transform="translate(649.571491 328.838281) scale(0.11 -0.11)">
       <defs>
        <path id="DejaVuSans-32" d="M 1228 531 
L 3431 531 
L 3431 0 
L 469 0 
L 469 531 
Q 828 903 1448 1529 
Q 2069 2156 2228 2338 
Q 2531 2678 2651 2914 
Q 2772 3150 2772 3378 
Q 2772 3750 2511 3984 
Q 2250 4219 1831 4219 
Q 1534 4219 1204 4116 
Q 875 4013 500 3803 
L 500 4441 
Q 881 4594 1212 4672 
Q 1544 4750 1819 4750 
Q 2544 4750 2975 4387 
Q 3406 4025 3406 3419 
Q 3406 3131 3298 2873 
Q 3191 2616 2906 2266 
Q 2828 2175 2409 1742 
Q 1991 1309 1228 531 
z
" transform="scale(0.015625)"/>
       </defs>
       <use xlink:href="#DejaVuSans-32"/>
       <use xlink:href="#DejaVuSans-30" transform="translate(63.623047 0)"/>
      </g>
     </g>
    </g>
    <g id="text_6">
     <!-- Time [days] -->
     <g style="fill: #262626" transform="translate(349.378125 344.244062) scale(0.12 -0.12)">
      <defs>
       <path id="DejaVuSans-54" d="M -19 4666 
L 3928 4666 
L 3928 4134 
L 2272 4134 
L 2272 0 
L 1638 0 
L 1638 4134 
L -19 4134 
L -19 4666 
z
" transform="scale(0.015625)"/>
       <path id="DejaVuSans-69" d="M 603 3500 
L 1178 3500 
L 1178 0 
L 603 0 
L 603 3500 
z
M 603 4863 
L 1178 4863 
L 1178 4134 
L 603 4134 
L 603 4863 
z
" transform="scale(0.015625)"/>
       <path id="DejaVuSans-6d" d="M 3328 2828 
Q 3544 3216 3844 3400 
Q 4144 3584 4550 3584 
Q 5097 3584 5394 3201 
Q 5691 2819 5691 2113 
L 5691 0 
L 5113 0 
L 5113 2094 
Q 5113 2597 4934 2840 
Q 4756 3084 4391 3084 
Q 3944 3084 3684 2787 
Q 3425 2491 3425 1978 
L 3425 0 
L 2847 0 
L 2847 2094 
Q 2847 2600 2669 2842 
Q 2491 3084 2119 3084 
Q 1678 3084 1418 2786 
Q 1159 2488 1159 1978 
L 1159 0 
L 581 0 
L 581 3500 
L 1159 3500 
L 1159 2956 
Q 1356 3278 1631 3431 
Q 1906 3584 2284 3584 
Q 2666 3584 2933 3390 
Q 3200 3197 3328 2828 
z
" transform="scale(0.015625)"/>
       <path id="DejaVuSans-65" d="M 3597 1894 
L 3597 1613 
L 953 1613 
Q 991 1019 1311 708 
Q 1631 397 2203 397 
Q 2534 397 2845 478 
Q 3156 559 3463 722 
L 3463 178 
Q 3153 47 2828 -22 
Q 2503 -91 2169 -91 
Q 1331 -91 842 396 
Q 353 884 353 1716 
Q 353 2575 817 3079 
Q 1281 3584 2069 3584 
Q 2775 3584 3186 3129 
Q 3597 2675 3597 1894 
z
M 3022 2063 
Q 3016 2534 2758 2815 
Q 2500 3097 2075 3097 
Q 1594 3097 1305 2825 
Q 1016 2553 972 2059 
L 3022 2063 
z
" transform="scale(0.015625)"/>
       <path id="DejaVuSans-20" transform="scale(0.015625)"/>
       <path id="DejaVuSans-5b" d="M 550 4863 
L 1875 4863 
L 1875 4416 
L 1125 4416 
L 1125 -397 
L 1875 -397 
L 1875 -844 
L 550 -844 
L 550 4863 
z
" transform="scale(0.015625)"/>
       <path id="DejaVuSans-64" d="M 2906 2969 
L 2906 4863 
L 3481 4863 
L 3481 0 
L 2906 0 
L 2906 525 
Q 2725 213 2448 61 
Q 2172 -91 1784 -91 
Q 1150 -91 751 415 
Q 353 922 353 1747 
Q 353 2572 751 3078 
Q 1150 3584 1784 3584 
Q 2172 3584 2448 3432 
Q 2725 3281 2906 2969 
z
M 947 1747 
Q 947 1113 1208 752 
Q 1469 391 1925 391 
Q 2381 391 2643 752 
Q 2906 1113 2906 1747 
Q 2906 2381 2643 2742 
Q 2381 3103 1925 3103 
Q 1469 3103 1208 2742 
Q 947 2381 947 1747 
z
" transform="scale(0.015625)"/>
       <path id="DejaVuSans-61" d="M 2194 1759 
Q 1497 1759 1228 1600 
Q 959 1441 959 1056 
Q 959 750 1161 570 
Q 1363 391 1709 391 
Q 2188 391 2477 730 
Q 2766 1069 2766 1631 
L 2766 1759 
L 2194 1759 
z
M 3341 1997 
L 3341 0 
L 2766 0 
L 2766 531 
Q 2569 213 2275 61 
Q 1981 -91 1556 -91 
Q 1019 -91 701 211 
Q 384 513 384 1019 
Q 384 1609 779 1909 
Q 1175 2209 1959 2209 
L 2766 2209 
L 2766 2266 
Q 2766 2663 2505 2880 
Q 2244 3097 1772 3097 
Q 1472 3097 1187 3025 
Q 903 2953 641 2809 
L 641 3341 
Q 956 3463 1253 3523 
Q 1550 3584 1831 3584 
Q 2591 3584 2966 3190 
Q 3341 2797 3341 1997 
z
" transform="scale(0.015625)"/>
       <path id="DejaVuSans-79" d="M 2059 -325 
Q 1816 -950 1584 -1140 
Q 1353 -1331 966 -1331 
L 506 -1331 
L 506 -850 
L 844 -850 
Q 1081 -850 1212 -737 
Q 1344 -625 1503 -206 
L 1606 56 
L 191 3500 
L 800 3500 
L 1894 763 
L 2988 3500 
L 3597 3500 
L 2059 -325 
z
" transform="scale(0.015625)"/>
       <path id="DejaVuSans-73" d="M 2834 3397 
L 2834 2853 
Q 2591 2978 2328 3040 
Q 2066 3103 1784 3103 
Q 1356 3103 1142 2972 
Q 928 2841 928 2578 
Q 928 2378 1081 2264 
Q 1234 2150 1697 2047 
L 1894 2003 
Q 2506 1872 2764 1633 
Q 3022 1394 3022 966 
Q 3022 478 2636 193 
Q 2250 -91 1575 -91 
Q 1294 -91 989 -36 
Q 684 19 347 128 
L 347 722 
Q 666 556 975 473 
Q 1284 391 1588 391 
Q 1994 391 2212 530 
Q 2431 669 2431 922 
Q 2431 1156 2273 1281 
Q 2116 1406 1581 1522 
L 1381 1569 
Q 847 1681 609 1914 
Q 372 2147 372 2553 
Q 372 3047 722 3315 
Q 1072 3584 1716 3584 
Q 2034 3584 2315 3537 
Q 2597 3491 2834 3397 
z
" transform="scale(0.015625)"/>
       <path id="DejaVuSans-5d" d="M 1947 4863 
L 1947 -844 
L 622 -844 
L 622 -397 
L 1369 -397 
L 1369 4416 
L 622 4416 
L 622 4863 
L 1947 4863 
z
" transform="scale(0.015625)"/>
      </defs>
      <use xlink:href="#DejaVuSans-54"/>
      <use xlink:href="#DejaVuSans-69" transform="translate(57.958984 0)"/>
      <use xlink:href="#DejaVuSans-6d" transform="translate(85.742188 0)"/>
      <use xlink:href="#DejaVuSans-65" transform="translate(183.154297 0)"/>
      <use xlink:href="#DejaVuSans-20" transform="translate(244.677734 0)"/>
      <use xlink:href="#DejaVuSans-5b" transform="translate(276.464844 0)"/>
      <use xlink:href="#DejaVuSans-64" transform="translate(315.478516 0)"/>
      <use xlink:href="#DejaVuSans-61" transform="translate(378.955078 0)"/>
      <use xlink:href="#DejaVuSans-79" transform="translate(440.234375 0)"/>
      <use xlink:href="#DejaVuSans-73" transform="translate(499.414062 0)"/>
      <use xlink:href="#DejaVuSans-5d" transform="translate(551.513672 0)"/>
     </g>
    </g>
   </g>
   <g id="matplotlib.axis_2">
    <g id="ytick_1">
     <g id="text_7">
      <!-- 0.00 -->
      <g style="fill: #262626" transform="translate(28.587812 302.30005) scale(0.11 -0.11)">
       <defs>
        <path id="DejaVuSans-2e" d="M 684 794 
L 1344 794 
L 1344 0 
L 684 0 
L 684 794 
z
" transform="scale(0.015625)"/>
       </defs>
       <use xlink:href="#DejaVuSans-30"/>
       <use xlink:href="#DejaVuSans-2e" transform="translate(63.623047 0)"/>
       <use xlink:href="#DejaVuSans-30" transform="translate(95.410156 0)"/>
       <use xlink:href="#DejaVuSans-30" transform="translate(159.033203 0)"/>
      </g>
     </g>
    </g>
    <g id="ytick_2">
     <g id="text_8">
      <!-- 0.05 -->
      <g style="fill: #262626" transform="translate(28.587812 262.427324) scale(0.11 -0.11)">
       <use xlink:href="#DejaVuSans-30"/>
       <use xlink:href="#DejaVuSans-2e" transform="translate(63.623047 0)"/>
       <use xlink:href="#DejaVuSans-30" transform="translate(95.410156 0)"/>
       <use xlink:href="#DejaVuSans-35" transform="translate(159.033203 0)"/>
      </g>
     </g>
    </g>
    <g id="ytick_3">
     <g id="text_9">
      <!-- 0.10 -->
      <g style="fill: #262626" transform="translate(28.587812 222.554598) scale(0.11 -0.11)">
       <use xlink:href="#DejaVuSans-30"/>
       <use xlink:href="#DejaVuSans-2e" transform="translate(63.623047 0)"/>
       <use xlink:href="#DejaVuSans-31" transform="translate(95.410156 0)"/>
       <use xlink:href="#DejaVuSans-30" transform="translate(159.033203 0)"/>
      </g>
     </g>
    </g>
    <g id="ytick_4">
     <g id="text_10">
      <!-- 0.15 -->
      <g style="fill: #262626" transform="translate(28.587812 182.681873) scale(0.11 -0.11)">
       <use xlink:href="#DejaVuSans-30"/>
       <use xlink:href="#DejaVuSans-2e" transform="translate(63.623047 0)"/>
       <use xlink:href="#DejaVuSans-31" transform="translate(95.410156 0)"/>
       <use xlink:href="#DejaVuSans-35" transform="translate(159.033203 0)"/>
      </g>
     </g>
    </g>
    <g id="ytick_5">
     <g id="text_11">
      <!-- 0.20 -->
      <g style="fill: #262626" transform="translate(28.587812 142.809147) scale(0.11 -0.11)">
       <use xlink:href="#DejaVuSans-30"/>
       <use xlink:href="#DejaVuSans-2e" transform="translate(63.623047 0)"/>
       <use xlink:href="#DejaVuSans-32" transform="translate(95.410156 0)"/>
       <use xlink:href="#DejaVuSans-30" transform="translate(159.033203 0)"/>
      </g>
     </g>
    </g>
    <g id="ytick_6">
     <g id="text_12">
      <!-- 0.25 -->
      <g style="fill: #262626" transform="translate(28.587812 102.936421) scale(0.11 -0.11)">
       <use xlink:href="#DejaVuSans-30"/>
       <use xlink:href="#DejaVuSans-2e" transform="translate(63.623047 0)"/>
       <use xlink:href="#DejaVuSans-32" transform="translate(95.410156 0)"/>
       <use xlink:href="#DejaVuSans-35" transform="translate(159.033203 0)"/>
      </g>
     </g>
    </g>
    <g id="ytick_7">
     <g id="text_13">
      <!-- 0.30 -->
      <g style="fill: #262626" transform="translate(28.587812 63.063695) scale(0.11 -0.11)">
       <defs>
        <path id="DejaVuSans-33" d="M 2597 2516 
Q 3050 2419 3304 2112 
Q 3559 1806 3559 1356 
Q 3559 666 3084 287 
Q 2609 -91 1734 -91 
Q 1441 -91 1130 -33 
Q 819 25 488 141 
L 488 750 
Q 750 597 1062 519 
Q 1375 441 1716 441 
Q 2309 441 2620 675 
Q 2931 909 2931 1356 
Q 2931 1769 2642 2001 
Q 2353 2234 1838 2234 
L 1294 2234 
L 1294 2753 
L 1863 2753 
Q 2328 2753 2575 2939 
Q 2822 3125 2822 3475 
Q 2822 3834 2567 4026 
Q 2313 4219 1838 4219 
Q 1578 4219 1281 4162 
Q 984 4106 628 3988 
L 628 4550 
Q 988 4650 1302 4700 
Q 1616 4750 1894 4750 
Q 2613 4750 3031 4423 
Q 3450 4097 3450 3541 
Q 3450 3153 3228 2886 
Q 3006 2619 2597 2516 
z
" transform="scale(0.015625)"/>
       </defs>
       <use xlink:href="#DejaVuSans-30"/>
       <use xlink:href="#DejaVuSans-2e" transform="translate(63.623047 0)"/>
       <use xlink:href="#DejaVuSans-33" transform="translate(95.410156 0)"/>
       <use xlink:href="#DejaVuSans-30" transform="translate(159.033203 0)"/>
      </g>
     </g>
    </g>
    <g id="text_14">
     <!-- nRMSE -->
     <g style="fill: #262626" transform="translate(22.092187 190.27875) rotate(-90) scale(0.12 -0.12)">
      <defs>
       <path id="DejaVuSans-6e" d="M 3513 2113 
L 3513 0 
L 2938 0 
L 2938 2094 
Q 2938 2591 2744 2837 
Q 2550 3084 2163 3084 
Q 1697 3084 1428 2787 
Q 1159 2491 1159 1978 
L 1159 0 
L 581 0 
L 581 3500 
L 1159 3500 
L 1159 2956 
Q 1366 3272 1645 3428 
Q 1925 3584 2291 3584 
Q 2894 3584 3203 3211 
Q 3513 2838 3513 2113 
z
" transform="scale(0.015625)"/>
       <path id="DejaVuSans-52" d="M 2841 2188 
Q 3044 2119 3236 1894 
Q 3428 1669 3622 1275 
L 4263 0 
L 3584 0 
L 2988 1197 
Q 2756 1666 2539 1819 
Q 2322 1972 1947 1972 
L 1259 1972 
L 1259 0 
L 628 0 
L 628 4666 
L 2053 4666 
Q 2853 4666 3247 4331 
Q 3641 3997 3641 3322 
Q 3641 2881 3436 2590 
Q 3231 2300 2841 2188 
z
M 1259 4147 
L 1259 2491 
L 2053 2491 
Q 2509 2491 2742 2702 
Q 2975 2913 2975 3322 
Q 2975 3731 2742 3939 
Q 2509 4147 2053 4147 
L 1259 4147 
z
" transform="scale(0.015625)"/>
       <path id="DejaVuSans-4d" d="M 628 4666 
L 1569 4666 
L 2759 1491 
L 3956 4666 
L 4897 4666 
L 4897 0 
L 4281 0 
L 4281 4097 
L 3078 897 
L 2444 897 
L 1241 4097 
L 1241 0 
L 628 0 
L 628 4666 
z
" transform="scale(0.015625)"/>
       <path id="DejaVuSans-53" d="M 3425 4513 
L 3425 3897 
Q 3066 4069 2747 4153 
Q 2428 4238 2131 4238 
Q 1616 4238 1336 4038 
Q 1056 3838 1056 3469 
Q 1056 3159 1242 3001 
Q 1428 2844 1947 2747 
L 2328 2669 
Q 3034 2534 3370 2195 
Q 3706 1856 3706 1288 
Q 3706 609 3251 259 
Q 2797 -91 1919 -91 
Q 1588 -91 1214 -16 
Q 841 59 441 206 
L 441 856 
Q 825 641 1194 531 
Q 1563 422 1919 422 
Q 2459 422 2753 634 
Q 3047 847 3047 1241 
Q 3047 1584 2836 1778 
Q 2625 1972 2144 2069 
L 1759 2144 
Q 1053 2284 737 2584 
Q 422 2884 422 3419 
Q 422 4038 858 4394 
Q 1294 4750 2059 4750 
Q 2388 4750 2728 4690 
Q 3069 4631 3425 4513 
z
" transform="scale(0.015625)"/>
       <path id="DejaVuSans-45" d="M 628 4666 
L 3578 4666 
L 3578 4134 
L 1259 4134 
L 1259 2753 
L 3481 2753 
L 3481 2222 
L 1259 2222 
L 1259 531 
L 3634 531 
L 3634 0 
L 628 0 
L 628 4666 
z
" transform="scale(0.015625)"/>
      </defs>
      <use xlink:href="#DejaVuSans-6e"/>
      <use xlink:href="#DejaVuSans-52" transform="translate(63.378906 0)"/>
      <use xlink:href="#DejaVuSans-4d" transform="translate(132.861328 0)"/>
      <use xlink:href="#DejaVuSans-53" transform="translate(219.140625 0)"/>
      <use xlink:href="#DejaVuSans-45" transform="translate(282.617188 0)"/>
     </g>
    </g>
   </g>
   <g id="FillBetweenPolyCollection_1">
    <defs>
     <path id="m4a49d9b507" d="M 91.873636 -61.879091 
L 91.873636 -61.879091 
L 94.226539 -63.082774 
L 96.579441 -64.282568 
L 98.932344 -65.478461 
L 101.285246 -66.670449 
L 103.638149 -67.858542 
L 105.991051 -69.042767 
L 108.343954 -70.223162 
L 110.696857 -71.399784 
L 113.049759 -72.5727 
L 115.402662 -73.74199 
L 117.755564 -74.907742 
L 120.108467 -76.070067 
L 122.461369 -77.229085 
L 124.814272 -78.384925 
L 127.167174 -79.537732 
L 129.520077 -80.687663 
L 131.872979 -81.83489 
L 134.225882 -82.979607 
L 136.578784 -84.122019 
L 138.931687 -85.262339 
L 141.284589 -86.400797 
L 143.637492 -87.537644 
L 145.990394 -88.673138 
L 148.343297 -89.807561 
L 150.696199 -90.941193 
L 153.049102 -92.074328 
L 155.402004 -93.207265 
L 157.754907 -94.340313 
L 160.107809 -95.473787 
L 162.460712 -96.608006 
L 164.813614 -97.743305 
L 167.166517 -98.880013 
L 169.519419 -100.018456 
L 171.872322 -101.158966 
L 174.225225 -102.301878 
L 176.578127 -103.447531 
L 178.93103 -104.596252 
L 181.283932 -105.748379 
L 183.636835 -106.904251 
L 185.989737 -108.064197 
L 188.34264 -109.228542 
L 190.695542 -110.397611 
L 193.048445 -111.57173 
L 195.401347 -112.75122 
L 197.75425 -113.9364 
L 200.107152 -115.127582 
L 202.460055 -116.325076 
L 204.812957 -117.52918 
L 207.16586 -118.740177 
L 209.518762 -119.958334 
L 211.871665 -121.183908 
L 214.224567 -122.417142 
L 216.57747 -123.65827 
L 218.930372 -124.907516 
L 221.283275 -126.165087 
L 223.636177 -127.431165 
L 225.98908 -128.70591 
L 228.341982 -129.989466 
L 230.694885 -131.281968 
L 233.047788 -132.583536 
L 235.40069 -133.894275 
L 237.753593 -135.214272 
L 240.106495 -136.543596 
L 242.459398 -137.882301 
L 244.8123 -139.230429 
L 247.165203 -140.588019 
L 249.518105 -141.955104 
L 251.871008 -143.331698 
L 254.22391 -144.717794 
L 256.576813 -146.113371 
L 258.929715 -147.518394 
L 261.282618 -148.932823 
L 263.63552 -150.356597 
L 265.988423 -151.789632 
L 268.341325 -153.231831 
L 270.694228 -154.683054 
L 273.04713 -156.143149 
L 275.400033 -157.61195 
L 277.752935 -159.089265 
L 280.105838 -160.574891 
L 282.45874 -162.068608 
L 284.811643 -163.57013 
L 287.164545 -165.079153 
L 289.517448 -166.595362 
L 291.87035 -168.118434 
L 294.223253 -169.64803 
L 296.576156 -171.183794 
L 298.929058 -172.72535 
L 301.281961 -174.272297 
L 303.634863 -175.824183 
L 305.987766 -177.380547 
L 308.340668 -178.940926 
L 310.693571 -180.504845 
L 313.046473 -182.071821 
L 315.399376 -183.641356 
L 317.752278 -185.212922 
L 320.105181 -186.785967 
L 322.458083 -188.359903 
L 324.810986 -189.93413 
L 327.163888 -191.508042 
L 329.516791 -193.081016 
L 331.869693 -194.652426 
L 334.222596 -196.221632 
L 336.575498 -197.787966 
L 338.928401 -199.350717 
L 341.281303 -200.909141 
L 343.634206 -202.462477 
L 345.987108 -204.009952 
L 348.340011 -205.550782 
L 350.692913 -207.084187 
L 353.045816 -208.609362 
L 355.398719 -210.125488 
L 357.751621 -211.631724 
L 360.104524 -213.12721 
L 362.457426 -214.611084 
L 364.810329 -216.082492 
L 367.163231 -217.54059 
L 369.516134 -218.98455 
L 371.869036 -220.413587 
L 374.221939 -221.826922 
L 376.574841 -223.223784 
L 378.927744 -224.603416 
L 381.280646 -225.965089 
L 383.633549 -227.308108 
L 385.986451 -228.631804 
L 388.339354 -229.935531 
L 390.692256 -231.218675 
L 393.045159 -232.480659 
L 395.398061 -233.720927 
L 397.750964 -234.938936 
L 400.103866 -236.134175 
L 402.456769 -237.306178 
L 404.809671 -238.454528 
L 407.162574 -239.578852 
L 409.515476 -240.678822 
L 411.868379 -241.754166 
L 414.221281 -242.804651 
L 416.574184 -243.830086 
L 418.927087 -244.830335 
L 421.279989 -245.805318 
L 423.632892 -246.755007 
L 425.985794 -247.679433 
L 428.338697 -248.57867 
L 430.691599 -249.452838 
L 433.044502 -250.302104 
L 435.397404 -251.126669 
L 437.750307 -251.926768 
L 440.103209 -252.702671 
L 442.456112 -253.454686 
L 444.809014 -254.183155 
L 447.161917 -254.888449 
L 449.514819 -255.570965 
L 451.867722 -256.231109 
L 454.220624 -256.869297 
L 456.573527 -257.485957 
L 458.926429 -258.081521 
L 461.279332 -258.656432 
L 463.632234 -259.211147 
L 465.985137 -259.746131 
L 468.338039 -260.261866 
L 470.690942 -260.758838 
L 473.043844 -261.237532 
L 475.396747 -261.698431 
L 477.74965 -262.142015 
L 480.102552 -262.568757 
L 482.455455 -262.979125 
L 484.808357 -263.373586 
L 487.16126 -263.752613 
L 489.514162 -264.116677 
L 491.867065 -264.466256 
L 494.219967 -264.801818 
L 496.57287 -265.123822 
L 498.925772 -265.432707 
L 501.278675 -265.728897 
L 503.631577 -266.012805 
L 505.98448 -266.284837 
L 508.337382 -266.545389 
L 510.690285 -266.794857 
L 513.043187 -267.033634 
L 515.39609 -267.262117 
L 517.748992 -267.480698 
L 520.101895 -267.689753 
L 522.454797 -267.889645 
L 524.8077 -268.080716 
L 527.160602 -268.263299 
L 529.513505 -268.437714 
L 531.866407 -268.604277 
L 534.21931 -268.763297 
L 536.572212 -268.91508 
L 538.925115 -269.059923 
L 541.278018 -269.198107 
L 543.63092 -269.329912 
L 545.983823 -269.455603 
L 548.336725 -269.575429 
L 550.689628 -269.689626 
L 553.04253 -269.798415 
L 555.395433 -269.902008 
L 557.748335 -270.000602 
L 560.101238 -270.094386 
L 562.45414 -270.183529 
L 564.807043 -270.26819 
L 567.159945 -270.348522 
L 569.512848 -270.424664 
L 571.86575 -270.496746 
L 574.218653 -270.56489 
L 576.571555 -270.629198 
L 578.924458 -270.689758 
L 581.27736 -270.746639 
L 583.630263 -270.799896 
L 585.983165 -270.849562 
L 588.336068 -270.895654 
L 590.68897 -270.938183 
L 593.041873 -270.97714 
L 595.394775 -271.012504 
L 597.747678 -271.044247 
L 600.100581 -271.072327 
L 602.453483 -271.096696 
L 604.806386 -271.117291 
L 607.159288 -271.134036 
L 609.512191 -271.146834 
L 611.865093 -271.155571 
L 614.217996 -271.160114 
L 616.570898 -271.160317 
L 618.923801 -271.156014 
L 621.276703 -271.147029 
L 623.629606 -271.133172 
L 625.982508 -271.114238 
L 628.335411 -271.090012 
L 630.688313 -271.060262 
L 633.041216 -271.024746 
L 635.394118 -270.983206 
L 637.747021 -270.935376 
L 640.099923 -270.880975 
L 642.452826 -270.819717 
L 644.805728 -270.751302 
L 647.158631 -270.675418 
L 649.511533 -270.591746 
L 651.864436 -270.499964 
L 654.217338 -270.399746 
L 656.570241 -270.290764 
L 658.923143 -270.172689 
L 661.276046 -270.045197 
L 663.628949 -269.907957 
L 665.981851 -269.760646 
L 668.334754 -269.602943 
L 670.687656 -269.434536 
L 673.040559 -269.255124 
L 675.393461 -269.064419 
L 677.746364 -268.862143 
L 677.746364 -358.15471 
L 677.746364 -358.15471 
L 675.393461 -358.575756 
L 673.040559 -358.995187 
L 670.687656 -359.412206 
L 668.334754 -359.826015 
L 665.981851 -360.235809 
L 663.628949 -360.640768 
L 661.276046 -361.040056 
L 658.923143 -361.432849 
L 656.570241 -361.818324 
L 654.217338 -362.195665 
L 651.864436 -362.564069 
L 649.511533 -362.922751 
L 647.158631 -363.270935 
L 644.805728 -363.607864 
L 642.452826 -363.932804 
L 640.099923 -364.245044 
L 637.747021 -364.543888 
L 635.394118 -364.828666 
L 633.041216 -365.098728 
L 630.688313 -365.353461 
L 628.335411 -365.59228 
L 625.982508 -365.814624 
L 623.629606 -366.019968 
L 621.276703 -366.207807 
L 618.923801 -366.377659 
L 616.570898 -366.529052 
L 614.217996 -366.661521 
L 611.865093 -366.77462 
L 609.512191 -366.867916 
L 607.159288 -366.941003 
L 604.806386 -366.993516 
L 602.453483 -367.025122 
L 600.100581 -367.035526 
L 597.747678 -367.024457 
L 595.394775 -366.991645 
L 593.041873 -366.936828 
L 590.68897 -366.859755 
L 588.336068 -366.760199 
L 585.983165 -366.637954 
L 583.630263 -366.492827 
L 581.27736 -366.324653 
L 578.924458 -366.133281 
L 576.571555 -365.918571 
L 574.218653 -365.6804 
L 571.86575 -365.418664 
L 569.512848 -365.133275 
L 567.159945 -364.824179 
L 564.807043 -364.49134 
L 562.45414 -364.134752 
L 560.101238 -363.754436 
L 557.748335 -363.350441 
L 555.395433 -362.922817 
L 553.04253 -362.471622 
L 550.689628 -361.996925 
L 548.336725 -361.4988 
L 545.983823 -360.977341 
L 543.63092 -360.432661 
L 541.278018 -359.864902 
L 538.925115 -359.274244 
L 536.572212 -358.660873 
L 534.21931 -358.024985 
L 531.866407 -357.366778 
L 529.513505 -356.686451 
L 527.160602 -355.984219 
L 524.8077 -355.260332 
L 522.454797 -354.515053 
L 520.101895 -353.748664 
L 517.748992 -352.961492 
L 515.39609 -352.153899 
L 513.043187 -351.326239 
L 510.690285 -350.478904 
L 508.337382 -349.612287 
L 505.98448 -348.726791 
L 503.631577 -347.822838 
L 501.278675 -346.900889 
L 498.925772 -345.961427 
L 496.57287 -345.00495 
L 494.219967 -344.031972 
L 491.867065 -343.043014 
L 489.514162 -342.03861 
L 487.16126 -341.019285 
L 484.808357 -339.985588 
L 482.455455 -338.938105 
L 480.102552 -337.877449 
L 477.74965 -336.804251 
L 475.396747 -335.719151 
L 473.043844 -334.622792 
L 470.690942 -333.515815 
L 468.338039 -332.398853 
L 465.985137 -331.272541 
L 463.632234 -330.137518 
L 461.279332 -328.99442 
L 458.926429 -327.843871 
L 456.573527 -326.686498 
L 454.220624 -325.522913 
L 451.867722 -324.353704 
L 449.514819 -323.179435 
L 447.161917 -322.000656 
L 444.809014 -320.817904 
L 442.456112 -319.631705 
L 440.103209 -318.44258 
L 437.750307 -317.25104 
L 435.397404 -316.05758 
L 433.044502 -314.86269 
L 430.691599 -313.666836 
L 428.338697 -312.470448 
L 425.985794 -311.27392 
L 423.632892 -310.077627 
L 421.279989 -308.881908 
L 418.927087 -307.687061 
L 416.574184 -306.493352 
L 414.221281 -305.301007 
L 411.868379 -304.110201 
L 409.515476 -302.921056 
L 407.162574 -301.733633 
L 404.809671 -300.547937 
L 402.456769 -299.363936 
L 400.103866 -298.181555 
L 397.750964 -297.000675 
L 395.398061 -295.821135 
L 393.045159 -294.642725 
L 390.692256 -293.465188 
L 388.339354 -292.288223 
L 385.986451 -291.111487 
L 383.633549 -289.934614 
L 381.280646 -288.757214 
L 378.927744 -287.578874 
L 376.574841 -286.399165 
L 374.221939 -285.217646 
L 371.869036 -284.033857 
L 369.516134 -282.847321 
L 367.163231 -281.657548 
L 364.810329 -280.464038 
L 362.457426 -279.266289 
L 360.104524 -278.063794 
L 357.751621 -276.856041 
L 355.398719 -275.642512 
L 353.045816 -274.42269 
L 350.692913 -273.196056 
L 348.340011 -271.962096 
L 345.987108 -270.720294 
L 343.634206 -269.470147 
L 341.281303 -268.211163 
L 338.928401 -266.942849 
L 336.575498 -265.664727 
L 334.222596 -264.37633 
L 331.869693 -263.077202 
L 329.516791 -261.7669 
L 327.163888 -260.444994 
L 324.810986 -259.111072 
L 322.458083 -257.764725 
L 320.105181 -256.405565 
L 317.752278 -255.033218 
L 315.399376 -253.647325 
L 313.046473 -252.247544 
L 310.693571 -250.83354 
L 308.340668 -249.404994 
L 305.987766 -247.961604 
L 303.634863 -246.503082 
L 301.281961 -245.029153 
L 298.929058 -243.539553 
L 296.576156 -242.034032 
L 294.223253 -240.512355 
L 291.87035 -238.974301 
L 289.517448 -237.419657 
L 287.164545 -235.848234 
L 284.811643 -234.259862 
L 282.45874 -232.654383 
L 280.105838 -231.031653 
L 277.752935 -229.391539 
L 275.400033 -227.733931 
L 273.04713 -226.05873 
L 270.694228 -224.365854 
L 268.341325 -222.655241 
L 265.988423 -220.926845 
L 263.63552 -219.180635 
L 261.282618 -217.416596 
L 258.929715 -215.63473 
L 256.576813 -213.835053 
L 254.22391 -212.017599 
L 251.871008 -210.182419 
L 249.518105 -208.329573 
L 247.165203 -206.459135 
L 244.8123 -204.571195 
L 242.459398 -202.665856 
L 240.106495 -200.743239 
L 237.753593 -198.803481 
L 235.40069 -196.846737 
L 233.047788 -194.873176 
L 230.694885 -192.882987 
L 228.341982 -190.876376 
L 225.98908 -188.853568 
L 223.636177 -186.814801 
L 221.283275 -184.760337 
L 218.930372 -182.690447 
L 216.57747 -180.605429 
L 214.224567 -178.505602 
L 211.871665 -176.3913 
L 209.518762 -174.262881 
L 207.16586 -172.120724 
L 204.812957 -169.965214 
L 202.460055 -167.796759 
L 200.107152 -165.615788 
L 197.75425 -163.422751 
L 195.401347 -161.218109 
L 193.048445 -159.002349 
L 190.695542 -156.775964 
L 188.34264 -154.539458 
L 185.989737 -152.293354 
L 183.636835 -150.038194 
L 181.283932 -147.774529 
L 178.93103 -145.502927 
L 176.578127 -143.223977 
L 174.225225 -140.938277 
L 171.872322 -138.646437 
L 169.519419 -136.349077 
L 167.166517 -134.046828 
L 164.813614 -131.740339 
L 162.460712 -129.430267 
L 160.107809 -127.117276 
L 157.754907 -124.802034 
L 155.402004 -122.485212 
L 153.049102 -120.167496 
L 150.696199 -117.849572 
L 148.343297 -115.532134 
L 145.990394 -113.215882 
L 143.637492 -110.901523 
L 141.284589 -108.589772 
L 138.931687 -106.28134 
L 136.578784 -103.976947 
L 134.225882 -101.677307 
L 131.872979 -99.383124 
L 129.520077 -97.095095 
L 127.167174 -94.813911 
L 124.814272 -92.54026 
L 122.461369 -90.274829 
L 120.108467 -88.018308 
L 117.755564 -85.771383 
L 115.402662 -83.534739 
L 113.049759 -81.309052 
L 110.696857 -79.094995 
L 108.343954 -76.893234 
L 105.991051 -74.704429 
L 103.638149 -72.529227 
L 101.285246 -70.368263 
L 98.932344 -68.222166 
L 96.579441 -66.091547 
L 94.226539 -63.976998 
L 91.873636 -61.879091 
z
" style="stroke: #000000; stroke-opacity: 0.1"/>
    </defs>
    <g clip-path="url(#pd349ed6c86)">
     <use xlink:href="#m4a49d9b507" x="0" y="360" style="fill-opacity: 0.1; stroke: #000000; stroke-opacity: 0.1"/>
    </g>
   </g>
   <g id="FillBetweenPolyCollection_2">
    <defs>
     <path id="m3dbd78f4c1" d="M 91.873636 -61.879091 
L 91.873636 -61.879091 
L 94.226539 -63.226473 
L 96.579441 -64.560809 
L 98.932344 -65.882016 
L 101.285246 -67.189979 
L 103.638149 -68.484542 
L 105.991051 -69.765513 
L 108.343954 -71.032657 
L 110.696857 -72.285704 
L 113.049759 -73.524343 
L 115.402662 -74.748227 
L 117.755564 -75.956975 
L 120.108467 -77.150177 
L 122.461369 -78.3274 
L 124.814272 -79.488197 
L 127.167174 -80.63211 
L 129.520077 -81.758688 
L 131.872979 -82.867491 
L 134.225882 -83.958103 
L 136.578784 -85.030134 
L 138.931687 -86.083231 
L 141.284589 -87.117085 
L 143.637492 -88.131437 
L 145.990394 -89.126083 
L 148.343297 -90.100885 
L 150.696199 -91.05577 
L 153.049102 -91.990743 
L 155.402004 -92.905885 
L 157.754907 -93.80136 
L 160.107809 -94.677412 
L 162.460712 -95.534365 
L 164.813614 -96.372619 
L 167.166517 -97.192634 
L 169.519419 -97.994918 
L 171.872322 -98.780022 
L 174.225225 -99.548524 
L 176.578127 -100.301016 
L 178.93103 -101.038095 
L 181.283932 -101.760365 
L 183.636835 -102.468429 
L 185.989737 -103.162885 
L 188.34264 -103.844327 
L 190.695542 -104.513336 
L 193.048445 -105.170482 
L 195.401347 -105.816311 
L 197.75425 -106.451334 
L 200.107152 -107.076007 
L 202.460055 -107.690723 
L 204.812957 -108.295788 
L 207.16586 -108.891428 
L 209.518762 -109.47777 
L 211.871665 -110.054846 
L 214.224567 -110.622595 
L 216.57747 -111.180864 
L 218.930372 -111.729408 
L 221.283275 -112.2679 
L 223.636177 -112.795929 
L 225.98908 -113.313006 
L 228.341982 -113.818572 
L 230.694885 -114.312012 
L 233.047788 -114.79265 
L 235.40069 -115.259768 
L 237.753593 -115.712611 
L 240.106495 -116.150414 
L 242.459398 -116.572417 
L 244.8123 -116.977887 
L 247.165203 -117.366141 
L 249.518105 -117.736557 
L 251.871008 -118.088581 
L 254.22391 -118.421741 
L 256.576813 -118.73565 
L 258.929715 -119.030023 
L 261.282618 -119.304675 
L 263.63552 -119.559529 
L 265.988423 -119.794625 
L 268.341325 -120.010132 
L 270.694228 -120.206354 
L 273.04713 -120.383749 
L 275.400033 -120.54293 
L 277.752935 -120.684668 
L 280.105838 -120.809895 
L 282.45874 -120.919689 
L 284.811643 -121.015249 
L 287.164545 -121.0979 
L 289.517448 -121.169074 
L 291.87035 -121.230305 
L 294.223253 -121.283207 
L 296.576156 -121.329463 
L 298.929058 -121.370809 
L 301.281961 -121.409015 
L 303.634863 -121.445865 
L 305.987766 -121.483154 
L 308.340668 -121.522678 
L 310.693571 -121.566206 
L 313.046473 -121.615443 
L 315.399376 -121.672014 
L 317.752278 -121.737431 
L 320.105181 -121.813054 
L 322.458083 -121.900079 
L 324.810986 -121.99953 
L 327.163888 -122.112246 
L 329.516791 -122.238872 
L 331.869693 -122.379858 
L 334.222596 -122.535448 
L 336.575498 -122.705674 
L 338.928401 -122.890344 
L 341.281303 -123.089053 
L 343.634206 -123.301186 
L 345.987108 -123.525933 
L 348.340011 -123.762304 
L 350.692913 -124.00914 
L 353.045816 -124.265112 
L 355.398719 -124.528751 
L 357.751621 -124.798458 
L 360.104524 -125.072527 
L 362.457426 -125.34918 
L 364.810329 -125.626585 
L 367.163231 -125.902865 
L 369.516134 -126.17609 
L 371.869036 -126.444261 
L 374.221939 -126.705252 
L 376.574841 -126.956704 
L 378.927744 -127.195853 
L 381.280646 -127.419248 
L 383.633549 -127.622224 
L 385.986451 -127.797992 
L 388.339354 -127.93625 
L 390.692256 -128.021692 
L 393.045159 -128.034474 
L 395.398061 -127.95691 
L 397.750964 -127.785234 
L 400.103866 -127.532785 
L 402.456769 -127.219952 
L 404.809671 -126.864579 
L 407.162574 -126.479397 
L 409.515476 -126.073011 
L 411.868379 -125.651357 
L 414.221281 -125.218752 
L 416.574184 -124.778558 
L 418.927087 -124.333549 
L 421.279989 -123.886131 
L 423.632892 -123.438472 
L 425.985794 -122.992585 
L 428.338697 -122.550356 
L 430.691599 -122.113577 
L 433.044502 -121.683972 
L 435.397404 -121.263204 
L 437.750307 -120.852875 
L 440.103209 -120.454541 
L 442.456112 -120.069711 
L 444.809014 -119.699841 
L 447.161917 -119.346332 
L 449.514819 -119.01053 
L 451.867722 -118.693728 
L 454.220624 -118.397166 
L 456.573527 -118.122041 
L 458.926429 -117.869507 
L 461.279332 -117.640677 
L 463.632234 -117.436623 
L 465.985137 -117.258375 
L 468.338039 -117.106924 
L 470.690942 -116.983228 
L 473.043844 -116.888219 
L 475.396747 -116.822817 
L 477.74965 -116.787938 
L 480.102552 -116.784498 
L 482.455455 -116.813427 
L 484.808357 -116.875664 
L 487.16126 -116.972168 
L 489.514162 -117.103931 
L 491.867065 -117.271961 
L 494.219967 -117.477286 
L 496.57287 -117.720969 
L 498.925772 -118.004088 
L 501.278675 -118.327731 
L 503.631577 -118.692983 
L 505.98448 -119.100906 
L 508.337382 -119.552532 
L 510.690285 -120.048788 
L 513.043187 -120.590485 
L 515.39609 -121.178279 
L 517.748992 -121.812654 
L 520.101895 -122.493874 
L 522.454797 -123.221963 
L 524.8077 -123.99669 
L 527.160602 -124.817544 
L 529.513505 -125.683715 
L 531.866407 -126.594102 
L 534.21931 -127.547336 
L 536.572212 -128.541815 
L 538.925115 -129.575775 
L 541.278018 -130.647348 
L 543.63092 -131.754647 
L 545.983823 -132.895843 
L 548.336725 -134.069282 
L 550.689628 -135.273585 
L 553.04253 -136.507715 
L 555.395433 -137.771046 
L 557.748335 -139.063394 
L 560.101238 -140.384998 
L 562.45414 -141.736498 
L 564.807043 -143.118861 
L 567.159945 -144.533313 
L 569.512848 -145.981261 
L 571.86575 -147.464202 
L 574.218653 -148.983638 
L 576.571555 -150.541011 
L 578.924458 -152.137689 
L 581.27736 -153.774887 
L 583.630263 -155.453654 
L 585.983165 -157.174866 
L 588.336068 -158.939229 
L 590.68897 -160.747279 
L 593.041873 -162.599386 
L 595.394775 -164.495768 
L 597.747678 -166.436493 
L 600.100581 -168.421516 
L 602.453483 -170.450693 
L 604.806386 -172.523804 
L 607.159288 -174.640573 
L 609.512191 -176.800669 
L 611.865093 -179.003719 
L 614.217996 -181.249313 
L 616.570898 -183.537016 
L 618.923801 -185.866382 
L 621.276703 -188.236946 
L 623.629606 -190.648217 
L 625.982508 -193.09969 
L 628.335411 -195.590837 
L 630.688313 -198.121096 
L 633.041216 -200.689879 
L 635.394118 -203.296581 
L 637.747021 -205.940581 
L 640.099923 -208.62123 
L 642.452826 -211.337848 
L 644.805728 -214.089733 
L 647.158631 -216.876144 
L 649.511533 -219.696311 
L 651.864436 -222.549427 
L 654.217338 -225.434643 
L 656.570241 -228.35109 
L 658.923143 -231.297873 
L 661.276046 -234.274066 
L 663.628949 -237.278718 
L 665.981851 -240.310864 
L 668.334754 -243.369521 
L 670.687656 -246.453694 
L 673.040559 -249.562374 
L 675.393461 -252.694538 
L 677.746364 -255.849174 
L 677.746364 -300.735864 
L 677.746364 -300.735864 
L 675.393461 -297.105793 
L 673.040559 -293.502142 
L 670.687656 -289.925006 
L 668.334754 -286.374484 
L 665.981851 -282.850684 
L 663.628949 -279.353707 
L 661.276046 -275.88365 
L 658.923143 -272.440632 
L 656.570241 -269.024776 
L 654.217338 -265.636216 
L 651.864436 -262.275102 
L 649.511533 -258.941585 
L 647.158631 -255.635822 
L 644.805728 -252.357995 
L 642.452826 -249.108292 
L 640.099923 -245.886928 
L 637.747021 -242.694133 
L 635.394118 -239.530163 
L 633.041216 -236.395303 
L 630.688313 -233.289886 
L 628.335411 -230.214269 
L 625.982508 -227.168851 
L 623.629606 -224.154102 
L 621.276703 -221.170563 
L 618.923801 -218.21884 
L 616.570898 -215.299626 
L 614.217996 -212.413712 
L 611.865093 -209.561989 
L 609.512191 -206.745445 
L 607.159288 -203.965204 
L 604.806386 -201.222517 
L 602.453483 -198.518756 
L 600.100581 -195.855433 
L 597.747678 -193.234192 
L 595.394775 -190.656831 
L 593.041873 -188.125299 
L 590.68897 -185.641685 
L 588.336068 -183.20825 
L 585.983165 -180.827419 
L 583.630263 -178.501761 
L 581.27736 -176.233985 
L 578.924458 -174.026933 
L 576.571555 -171.883563 
L 574.218653 -169.806909 
L 571.86575 -167.800004 
L 569.512848 -165.865848 
L 567.159945 -164.007354 
L 564.807043 -162.227255 
L 562.45414 -160.528003 
L 560.101238 -158.911665 
L 557.748335 -157.379804 
L 555.395433 -155.933399 
L 553.04253 -154.57276 
L 550.689628 -153.297468 
L 548.336725 -152.106381 
L 545.983823 -150.99762 
L 543.63092 -149.968643 
L 541.278018 -149.016315 
L 538.925115 -148.136994 
L 536.572212 -147.32662 
L 534.21931 -146.580836 
L 531.866407 -145.895074 
L 529.513505 -145.264636 
L 527.160602 -144.684781 
L 524.8077 -144.150796 
L 522.454797 -143.658053 
L 520.101895 -143.202045 
L 517.748992 -142.778433 
L 515.39609 -142.383076 
L 513.043187 -142.012043 
L 510.690285 -141.661643 
L 508.337382 -141.328422 
L 505.98448 -141.00921 
L 503.631577 -140.701133 
L 501.278675 -140.401628 
L 498.925772 -140.108435 
L 496.57287 -139.819599 
L 494.219967 -139.533462 
L 491.867065 -139.248661 
L 489.514162 -138.964109 
L 487.16126 -138.678962 
L 484.808357 -138.392639 
L 482.455455 -138.104788 
L 480.102552 -137.815265 
L 477.74965 -137.524118 
L 475.396747 -137.23156 
L 473.043844 -136.937949 
L 470.690942 -136.643749 
L 468.338039 -136.349519 
L 465.985137 -136.055903 
L 463.632234 -135.763609 
L 461.279332 -135.47338 
L 458.926429 -135.185971 
L 456.573527 -134.902145 
L 454.220624 -134.622643 
L 451.867722 -134.348155 
L 449.514819 -134.079315 
L 447.161917 -133.816681 
L 444.809014 -133.560737 
L 442.456112 -133.31189 
L 440.103209 -133.070463 
L 437.750307 -132.836687 
L 435.397404 -132.610698 
L 433.044502 -132.39253 
L 430.691599 -132.182109 
L 428.338697 -131.979259 
L 425.985794 -131.783711 
L 423.632892 -131.59513 
L 421.279989 -131.413142 
L 418.927087 -131.23738 
L 416.574184 -131.067562 
L 414.221281 -130.903606 
L 411.868379 -130.745771 
L 409.515476 -130.594911 
L 407.162574 -130.452877 
L 404.809671 -130.323199 
L 402.456769 -130.212178 
L 400.103866 -130.130379 
L 397.750964 -130.093661 
L 395.398061 -130.120641 
L 393.045159 -130.223129 
L 390.692256 -130.396109 
L 388.339354 -130.620932 
L 385.986451 -130.877117 
L 383.633549 -131.149057 
L 381.280646 -131.426499 
L 378.927744 -131.703029 
L 376.574841 -131.974671 
L 374.221939 -132.238961 
L 371.869036 -132.494391 
L 369.516134 -132.740069 
L 367.163231 -132.975512 
L 364.810329 -133.200511 
L 362.457426 -133.415051 
L 360.104524 -133.619251 
L 357.751621 -133.813322 
L 355.398719 -133.997532 
L 353.045816 -134.172188 
L 350.692913 -134.337626 
L 348.340011 -134.494191 
L 345.987108 -134.642216 
L 343.634206 -134.782015 
L 341.281303 -134.91386 
L 338.928401 -135.037969 
L 336.575498 -135.15451 
L 334.222596 -135.263597 
L 331.869693 -135.365285 
L 329.516791 -135.459564 
L 327.163888 -135.546357 
L 324.810986 -135.625515 
L 322.458083 -135.696805 
L 320.105181 -135.759925 
L 317.752278 -135.814495 
L 315.399376 -135.86005 
L 313.046473 -135.896048 
L 310.693571 -135.921877 
L 308.340668 -135.93685 
L 305.987766 -135.940209 
L 303.634863 -135.931144 
L 301.281961 -135.908788 
L 298.929058 -135.872235 
L 296.576156 -135.820552 
L 294.223253 -135.752784 
L 291.87035 -135.667964 
L 289.517448 -135.565118 
L 287.164545 -135.443294 
L 284.811643 -135.301559 
L 282.45874 -135.139018 
L 280.105838 -134.954825 
L 277.752935 -134.748203 
L 275.400033 -134.518468 
L 273.04713 -134.265031 
L 270.694228 -133.987415 
L 268.341325 -133.685259 
L 265.988423 -133.358328 
L 263.63552 -133.006496 
L 261.282618 -132.629766 
L 258.929715 -132.228247 
L 256.576813 -131.802163 
L 254.22391 -131.351834 
L 251.871008 -130.877678 
L 249.518105 -130.380187 
L 247.165203 -129.859928 
L 244.8123 -129.317534 
L 242.459398 -128.753695 
L 240.106495 -128.169152 
L 237.753593 -127.564678 
L 235.40069 -126.941069 
L 233.047788 -126.299142 
L 230.694885 -125.63971 
L 228.341982 -124.963582 
L 225.98908 -124.271547 
L 223.636177 -123.564365 
L 221.283275 -122.842759 
L 218.930372 -122.107406 
L 216.57747 -121.358935 
L 214.224567 -120.597925 
L 211.871665 -119.82489 
L 209.518762 -119.040276 
L 207.16586 -118.244467 
L 204.812957 -117.43777 
L 202.460055 -116.620415 
L 200.107152 -115.792556 
L 197.75425 -114.954263 
L 195.401347 -114.105529 
L 193.048445 -113.246269 
L 190.695542 -112.376327 
L 188.34264 -111.495477 
L 185.989737 -110.603427 
L 183.636835 -109.699832 
L 181.283932 -108.784294 
L 178.93103 -107.856363 
L 176.578127 -106.915548 
L 174.225225 -105.961327 
L 171.872322 -104.993148 
L 169.519419 -104.010445 
L 167.166517 -103.012647 
L 164.813614 -101.999196 
L 162.460712 -100.969556 
L 160.107809 -99.923225 
L 157.754907 -98.859742 
L 155.402004 -97.778703 
L 153.049102 -96.679768 
L 150.696199 -95.56266 
L 148.343297 -94.427173 
L 145.990394 -93.273169 
L 143.637492 -92.100577 
L 141.284589 -90.909382 
L 138.931687 -89.699622 
L 136.578784 -88.471386 
L 134.225882 -87.224804 
L 131.872979 -85.960038 
L 129.520077 -84.677272 
L 127.167174 -83.376711 
L 124.814272 -82.058575 
L 122.461369 -80.723092 
L 120.108467 -79.37049 
L 117.755564 -78.000998 
L 115.402662 -76.61484 
L 113.049759 -75.212234 
L 110.696857 -73.793385 
L 108.343954 -72.358488 
L 105.991051 -70.907727 
L 103.638149 -69.441275 
L 101.285246 -67.959296 
L 98.932344 -66.461946 
L 96.579441 -64.949373 
L 94.226539 -63.421713 
L 91.873636 -61.879091 
z
" style="stroke: #a52a2a; stroke-opacity: 0.1"/>
    </defs>
    <g clip-path="url(#pd349ed6c86)">
     <use xlink:href="#m3dbd78f4c1" x="0" y="360" style="fill: #a52a2a; fill-opacity: 0.1; stroke: #a52a2a; stroke-opacity: 0.1"/>
    </g>
   </g>
   <g id="FillBetweenPolyCollection_3">
    <defs>
     <path id="m0324718936" d="M 91.873636 -61.879091 
L 91.873636 -61.879091 
L 94.226539 -62.408824 
L 96.579441 -62.904368 
L 98.932344 -63.365522 
L 101.285246 -63.792229 
L 103.638149 -64.184589 
L 105.991051 -64.542883 
L 108.343954 -64.867569 
L 110.696857 -65.159312 
L 113.049759 -65.418978 
L 115.402662 -65.647641 
L 117.755564 -65.846588 
L 120.108467 -66.017333 
L 122.461369 -66.161599 
L 124.814272 -66.281315 
L 127.167174 -66.378601 
L 129.520077 -66.45576 
L 131.872979 -66.515239 
L 134.225882 -66.559613 
L 136.578784 -66.591529 
L 138.931687 -66.613648 
L 141.284589 -66.628596 
L 143.637492 -66.638906 
L 145.990394 -66.646934 
L 148.343297 -66.654799 
L 150.696199 -66.664286 
L 153.049102 -66.676808 
L 155.402004 -66.693355 
L 157.754907 -66.714467 
L 160.107809 -66.740237 
L 162.460712 -66.770336 
L 164.813614 -66.804066 
L 167.166517 -66.84041 
L 169.519419 -66.878116 
L 171.872322 -66.915778 
L 174.225225 -66.951922 
L 176.578127 -66.985076 
L 178.93103 -67.013838 
L 181.283932 -67.03694 
L 183.636835 -67.053298 
L 185.989737 -67.062057 
L 188.34264 -67.062629 
L 190.695542 -67.05473 
L 193.048445 -67.038411 
L 195.401347 -67.014075 
L 197.75425 -66.982502 
L 200.107152 -66.944867 
L 202.460055 -66.902735 
L 204.812957 -66.858064 
L 207.16586 -66.813174 
L 209.518762 -66.770702 
L 211.871665 -66.733537 
L 214.224567 -66.704709 
L 216.57747 -66.687261 
L 218.930372 -66.684093 
L 221.283275 -66.6978 
L 223.636177 -66.730513 
L 225.98908 -66.783753 
L 228.341982 -66.858331 
L 230.694885 -66.954281 
L 233.047788 -67.070869 
L 235.40069 -67.206643 
L 237.753593 -67.359525 
L 240.106495 -67.526938 
L 242.459398 -67.705942 
L 244.8123 -67.893363 
L 247.165203 -68.085913 
L 249.518105 -68.280295 
L 251.871008 -68.473308 
L 254.22391 -68.661906 
L 256.576813 -68.84325 
L 258.929715 -69.014735 
L 261.282618 -69.174011 
L 263.63552 -69.319003 
L 265.988423 -69.447921 
L 268.341325 -69.559251 
L 270.694228 -69.65177 
L 273.04713 -69.72452 
L 275.400033 -69.776798 
L 277.752935 -69.808149 
L 280.105838 -69.818348 
L 282.45874 -69.80739 
L 284.811643 -69.77551 
L 287.164545 -69.72314 
L 289.517448 -69.650892 
L 291.87035 -69.559549 
L 294.223253 -69.450056 
L 296.576156 -69.32352 
L 298.929058 -69.181209 
L 301.281961 -69.02455 
L 303.634863 -68.855146 
L 305.987766 -68.674755 
L 308.340668 -68.485281 
L 310.693571 -68.288788 
L 313.046473 -68.087488 
L 315.399376 -67.883744 
L 317.752278 -67.68005 
L 320.105181 -67.478985 
L 322.458083 -67.28311 
L 324.810986 -67.094736 
L 327.163888 -66.915453 
L 329.516791 -66.745083 
L 331.869693 -66.579252 
L 334.222596 -66.405326 
L 336.575498 -66.20523 
L 338.928401 -65.977517 
L 341.281303 -65.740388 
L 343.634206 -65.510616 
L 345.987108 -65.298412 
L 348.340011 -65.110226 
L 350.692913 -64.950651 
L 353.045816 -64.823126 
L 355.398719 -64.730045 
L 357.751621 -64.672571 
L 360.104524 -64.650383 
L 362.457426 -64.661544 
L 364.810329 -64.702624 
L 367.163231 -64.769071 
L 369.516134 -64.855738 
L 371.869036 -64.957378 
L 374.221939 -65.069021 
L 376.574841 -65.186187 
L 378.927744 -65.304981 
L 381.280646 -65.422089 
L 383.633549 -65.534737 
L 385.986451 -65.640619 
L 388.339354 -65.737839 
L 390.692256 -65.824846 
L 393.045159 -65.900395 
L 395.398061 -65.963508 
L 397.750964 -66.013432 
L 400.103866 -66.049607 
L 402.456769 -66.071649 
L 404.809671 -66.079296 
L 407.162574 -66.072369 
L 409.515476 -66.050717 
L 411.868379 -66.014159 
L 414.221281 -65.962422 
L 416.574184 -65.89513 
L 418.927087 -65.811897 
L 421.279989 -65.712683 
L 423.632892 -65.598488 
L 425.985794 -65.472236 
L 428.338697 -65.339221 
L 430.691599 -65.206686 
L 433.044502 -65.082699 
L 435.397404 -64.974994 
L 437.750307 -64.890077 
L 440.103209 -64.832616 
L 442.456112 -64.805036 
L 444.809014 -64.807379 
L 447.161917 -64.837431 
L 449.514819 -64.891084 
L 451.867722 -64.962793 
L 454.220624 -65.045937 
L 456.573527 -65.132974 
L 458.926429 -65.215621 
L 461.279332 -65.286213 
L 463.632234 -65.341118 
L 465.985137 -65.382371 
L 468.338039 -65.414284 
L 470.690942 -65.440115 
L 473.043844 -65.461561 
L 475.396747 -65.47929 
L 477.74965 -65.493396 
L 480.102552 -65.503616 
L 482.455455 -65.509358 
L 484.808357 -65.509645 
L 487.16126 -65.503033 
L 489.514162 -65.487674 
L 491.867065 -65.461669 
L 494.219967 -65.423726 
L 496.57287 -65.373754 
L 498.925772 -65.313024 
L 501.278675 -65.243902 
L 503.631577 -65.169446 
L 505.98448 -65.093096 
L 508.337382 -65.018476 
L 510.690285 -64.94924 
L 513.043187 -64.888917 
L 515.39609 -64.840725 
L 517.748992 -64.807378 
L 520.101895 -64.790918 
L 522.454797 -64.792608 
L 524.8077 -64.812907 
L 527.160602 -64.851532 
L 529.513505 -64.907592 
L 531.866407 -64.979742 
L 534.21931 -65.066341 
L 536.572212 -65.165593 
L 538.925115 -65.275658 
L 541.278018 -65.394733 
L 543.63092 -65.521108 
L 545.983823 -65.6532 
L 548.336725 -65.789571 
L 550.689628 -65.928944 
L 553.04253 -66.070207 
L 555.395433 -66.212411 
L 557.748335 -66.354775 
L 560.101238 -66.496675 
L 562.45414 -66.637649 
L 564.807043 -66.777387 
L 567.159945 -66.915717 
L 569.512848 -67.052605 
L 571.86575 -67.188139 
L 574.218653 -67.322527 
L 576.571555 -67.456086 
L 578.924458 -67.589237 
L 581.27736 -67.722494 
L 583.630263 -67.856455 
L 585.983165 -67.991788 
L 588.336068 -68.12922 
L 590.68897 -68.269518 
L 593.041873 -68.413472 
L 595.394775 -68.561871 
L 597.747678 -68.715476 
L 600.100581 -68.874987 
L 602.453483 -69.041011 
L 604.806386 -69.214018 
L 607.159288 -69.394298 
L 609.512191 -69.581915 
L 611.865093 -69.77664 
L 614.217996 -69.977883 
L 616.570898 -70.184627 
L 618.923801 -70.395371 
L 621.276703 -70.608081 
L 623.629606 -70.820212 
L 625.982508 -71.028802 
L 628.335411 -71.23072 
L 630.688313 -71.423077 
L 633.041216 -71.603803 
L 635.394118 -71.772295 
L 637.747021 -71.929921 
L 640.099923 -72.080212 
L 642.452826 -72.228668 
L 644.805728 -72.38224 
L 647.158631 -72.548687 
L 649.511533 -72.735925 
L 651.864436 -72.951453 
L 654.217338 -73.201906 
L 656.570241 -73.492709 
L 658.923143 -73.827844 
L 661.276046 -74.209715 
L 663.628949 -74.639126 
L 665.981851 -75.11535 
L 668.334754 -75.636306 
L 670.687656 -76.198798 
L 673.040559 -76.798808 
L 675.393461 -77.431831 
L 677.746364 -78.093218 
L 677.746364 -86.490368 
L 677.746364 -86.490368 
L 675.393461 -85.56329 
L 673.040559 -84.69224 
L 670.687656 -83.873629 
L 668.334754 -83.103664 
L 665.981851 -82.378568 
L 663.628949 -81.694817 
L 661.276046 -81.049335 
L 658.923143 -80.43966 
L 656.570241 -79.864069 
L 654.217338 -79.32166 
L 651.864436 -78.812383 
L 649.511533 -78.337025 
L 647.158631 -77.897139 
L 644.805728 -77.494895 
L 642.452826 -77.132817 
L 640.099923 -76.813391 
L 637.747021 -76.538544 
L 635.394118 -76.309084 
L 633.041216 -76.124241 
L 630.688313 -75.981497 
L 628.335411 -75.876759 
L 625.982508 -75.804832 
L 623.629606 -75.760009 
L 621.276703 -75.736605 
L 618.923801 -75.729302 
L 616.570898 -75.73334 
L 614.217996 -75.744568 
L 611.865093 -75.759429 
L 609.512191 -75.774887 
L 607.159288 -75.788359 
L 604.806386 -75.797639 
L 602.453483 -75.800825 
L 600.100581 -75.796265 
L 597.747678 -75.782503 
L 595.394775 -75.758235 
L 593.041873 -75.722285 
L 590.68897 -75.673593 
L 588.336068 -75.611207 
L 585.983165 -75.53427 
L 583.630263 -75.442019 
L 581.27736 -75.333795 
L 578.924458 -75.209034 
L 576.571555 -75.067275 
L 574.218653 -74.90818 
L 571.86575 -74.731528 
L 569.512848 -74.537237 
L 567.159945 -74.325373 
L 564.807043 -74.096151 
L 562.45414 -73.849965 
L 560.101238 -73.587376 
L 557.748335 -73.309131 
L 555.395433 -73.016149 
L 553.04253 -72.709523 
L 550.689628 -72.390534 
L 548.336725 -72.06064 
L 545.983823 -71.721481 
L 543.63092 -71.374862 
L 541.278018 -71.022742 
L 538.925115 -70.667243 
L 536.572212 -70.310595 
L 534.21931 -69.955132 
L 531.866407 -69.60324 
L 529.513505 -69.257337 
L 527.160602 -68.919851 
L 524.8077 -68.593189 
L 522.454797 -68.279696 
L 520.101895 -67.981618 
L 517.748992 -67.701093 
L 515.39609 -67.440103 
L 513.043187 -67.200431 
L 510.690285 -66.983585 
L 508.337382 -66.790719 
L 505.98448 -66.622577 
L 503.631577 -66.479424 
L 501.278675 -66.361012 
L 498.925772 -66.26657 
L 496.57287 -66.194729 
L 494.219967 -66.143354 
L 491.867065 -66.109292 
L 489.514162 -66.088236 
L 487.16126 -66.075018 
L 484.808357 -66.06432 
L 482.455455 -66.051406 
L 480.102552 -66.032548 
L 477.74965 -66.005131 
L 475.396747 -65.967609 
L 473.043844 -65.919474 
L 470.690942 -65.861313 
L 468.338039 -65.795043 
L 465.985137 -65.724385 
L 463.632234 -65.65541 
L 461.279332 -65.596027 
L 458.926429 -65.552658 
L 456.573527 -65.526778 
L 454.220624 -65.516452 
L 451.867722 -65.519573 
L 449.514819 -65.534917 
L 447.161917 -65.561903 
L 444.809014 -65.600219 
L 442.456112 -65.649598 
L 440.103209 -65.709776 
L 437.750307 -65.780557 
L 435.397404 -65.861951 
L 433.044502 -65.954323 
L 430.691599 -66.058503 
L 428.338697 -66.175714 
L 425.985794 -66.307178 
L 423.632892 -66.453332 
L 421.279989 -66.612967 
L 418.927087 -66.782953 
L 416.574184 -66.9588 
L 414.221281 -67.135568 
L 411.868379 -67.308583 
L 409.515476 -67.473784 
L 407.162574 -67.62781 
L 404.809671 -67.767962 
L 402.456769 -67.892131 
L 400.103866 -67.998719 
L 397.750964 -68.086571 
L 395.398061 -68.154918 
L 393.045159 -68.203332 
L 390.692256 -68.231687 
L 388.339354 -68.240137 
L 385.986451 -68.229086 
L 383.633549 -68.199161 
L 381.280646 -68.151197 
L 378.927744 -68.086218 
L 376.574841 -68.005429 
L 374.221939 -67.910206 
L 371.869036 -67.802102 
L 369.516134 -67.682869 
L 367.163231 -67.554503 
L 364.810329 -67.419322 
L 362.457426 -67.280051 
L 360.104524 -67.139933 
L 357.751621 -67.002801 
L 355.398719 -66.873047 
L 353.045816 -66.75548 
L 350.692913 -66.655087 
L 348.340011 -66.576754 
L 345.987108 -66.525086 
L 343.634206 -66.504525 
L 341.281303 -66.520071 
L 338.928401 -66.579287 
L 336.575498 -66.695243 
L 334.222596 -66.881596 
L 331.869693 -67.13175 
L 329.516791 -67.422105 
L 327.163888 -67.734311 
L 324.810986 -68.058232 
L 322.458083 -68.388004 
L 320.105181 -68.719686 
L 317.752278 -69.05026 
L 315.399376 -69.377193 
L 313.046473 -69.698221 
L 310.693571 -70.011252 
L 308.340668 -70.314303 
L 305.987766 -70.605476 
L 303.634863 -70.882941 
L 301.281961 -71.144932 
L 298.929058 -71.389751 
L 296.576156 -71.615776 
L 294.223253 -71.821461 
L 291.87035 -72.005361 
L 289.517448 -72.166148 
L 287.164545 -72.302625 
L 284.811643 -72.413753 
L 282.45874 -72.498671 
L 280.105838 -72.556724 
L 277.752935 -72.587482 
L 275.400033 -72.590758 
L 273.04713 -72.566638 
L 270.694228 -72.515507 
L 268.341325 -72.438062 
L 265.988423 -72.335339 
L 263.63552 -72.208728 
L 261.282618 -72.059981 
L 258.929715 -71.891229 
L 256.576813 -71.704979 
L 254.22391 -71.504118 
L 251.871008 -71.291897 
L 249.518105 -71.071913 
L 247.165203 -70.84807 
L 244.8123 -70.624521 
L 242.459398 -70.405591 
L 240.106495 -70.195677 
L 237.753593 -69.999112 
L 235.40069 -69.82 
L 233.047788 -69.662035 
L 230.694885 -69.528304 
L 228.341982 -69.421102 
L 225.98908 -69.34178 
L 223.636177 -69.290655 
L 221.283275 -69.267004 
L 218.930372 -69.269138 
L 216.57747 -69.294547 
L 214.224567 -69.340107 
L 211.871665 -69.402294 
L 209.518762 -69.4774 
L 207.16586 -69.561719 
L 204.812957 -69.651689 
L 202.460055 -69.744004 
L 200.107152 -69.835684 
L 197.75425 -69.924125 
L 195.401347 -70.007103 
L 193.048445 -70.082778 
L 190.695542 -70.149675 
L 188.34264 -70.206656 
L 185.989737 -70.252909 
L 183.636835 -70.287901 
L 181.283932 -70.311353 
L 178.93103 -70.323207 
L 176.578127 -70.323594 
L 174.225225 -70.31279 
L 171.872322 -70.29119 
L 169.519419 -70.259272 
L 167.166517 -70.217569 
L 164.813614 -70.166636 
L 162.460712 -70.107024 
L 160.107809 -70.039245 
L 157.754907 -69.963742 
L 155.402004 -69.880861 
L 153.049102 -69.790824 
L 150.696199 -69.693702 
L 148.343297 -69.589377 
L 145.990394 -69.477532 
L 143.637492 -69.357631 
L 141.284589 -69.228909 
L 138.931687 -69.090367 
L 136.578784 -68.94079 
L 134.225882 -68.778757 
L 131.872979 -68.60267 
L 129.520077 -68.410795 
L 127.167174 -68.201304 
L 124.814272 -67.972318 
L 122.461369 -67.721959 
L 120.108467 -67.448393 
L 117.755564 -67.149869 
L 115.402662 -66.824751 
L 113.049759 -66.47155 
L 110.696857 -66.088949 
L 108.343954 -65.675824 
L 105.991051 -65.231256 
L 103.638149 -64.754539 
L 101.285246 -64.245183 
L 98.932344 -63.702919 
L 96.579441 -63.127689 
L 94.226539 -62.519635 
L 91.873636 -61.879091 
z
" style="stroke: #000080; stroke-opacity: 0.1"/>
    </defs>
    <g clip-path="url(#pd349ed6c86)">
     <use xlink:href="#m0324718936" x="0" y="360" style="fill: #000080; fill-opacity: 0.1; stroke: #000080; stroke-opacity: 0.1"/>
    </g>
   </g>
   <g id="FillBetweenPolyCollection_4">
    <defs>
     <path id="md46b1d3ae7" d="M 91.873636 -61.879091 
L 91.873636 -61.879091 
L 94.226539 -62.477255 
L 96.579441 -63.046106 
L 98.932344 -63.585663 
L 101.285246 -64.096077 
L 103.638149 -64.577636 
L 105.991051 -65.03077 
L 108.343954 -65.45605 
L 110.696857 -65.854195 
L 113.049759 -66.226057 
L 115.402662 -66.572614 
L 117.755564 -66.894959 
L 120.108467 -67.194292 
L 122.461369 -67.471896 
L 124.814272 -67.729111 
L 127.167174 -67.967312 
L 129.520077 -68.187883 
L 131.872979 -68.392186 
L 134.225882 -68.581541 
L 136.578784 -68.757184 
L 138.931687 -68.920239 
L 141.284589 -69.071702 
L 143.637492 -69.212424 
L 145.990394 -69.343087 
L 148.343297 -69.464203 
L 150.696199 -69.5761 
L 153.049102 -69.678936 
L 155.402004 -69.772707 
L 157.754907 -69.857269 
L 160.107809 -69.932365 
L 162.460712 -69.99765 
L 164.813614 -70.052742 
L 167.166517 -70.097244 
L 169.519419 -70.130795 
L 171.872322 -70.153125 
L 174.225225 -70.164104 
L 176.578127 -70.163794 
L 178.93103 -70.152501 
L 181.283932 -70.130842 
L 183.636835 -70.099801 
L 185.989737 -70.060782 
L 188.34264 -70.01567 
L 190.695542 -69.966889 
L 193.048445 -69.917443 
L 195.401347 -69.870941 
L 197.75425 -69.831607 
L 200.107152 -69.804245 
L 202.460055 -69.794166 
L 204.812957 -69.80705 
L 207.16586 -69.848747 
L 209.518762 -69.925005 
L 211.871665 -70.041156 
L 214.224567 -70.201754 
L 216.57747 -70.41023 
L 218.930372 -70.668609 
L 221.283275 -70.977324 
L 223.636177 -71.335179 
L 225.98908 -71.739441 
L 228.341982 -72.186066 
L 230.694885 -72.670003 
L 233.047788 -73.185532 
L 235.40069 -73.726602 
L 237.753593 -74.287101 
L 240.106495 -74.861075 
L 242.459398 -75.442852 
L 244.8123 -76.027116 
L 247.165203 -76.608915 
L 249.518105 -77.183661 
L 251.871008 -77.747119 
L 254.22391 -78.2954 
L 256.576813 -78.824959 
L 258.929715 -79.332606 
L 261.282618 -79.815523 
L 263.63552 -80.271299 
L 265.988423 -80.697956 
L 268.341325 -81.09397 
L 270.694228 -81.458302 
L 273.04713 -81.790395 
L 275.400033 -82.090186 
L 277.752935 -82.358107 
L 280.105838 -82.595078 
L 282.45874 -82.802503 
L 284.811643 -82.982273 
L 287.164545 -83.136729 
L 289.517448 -83.268623 
L 291.87035 -83.381091 
L 294.223253 -83.477604 
L 296.576156 -83.561926 
L 298.929058 -83.638051 
L 301.281961 -83.710132 
L 303.634863 -83.782413 
L 305.987766 -83.859122 
L 308.340668 -83.944371 
L 310.693571 -84.042061 
L 313.046473 -84.155781 
L 315.399376 -84.288714 
L 317.752278 -84.443547 
L 320.105181 -84.622401 
L 322.458083 -84.826764 
L 324.810986 -85.057444 
L 327.163888 -85.314551 
L 329.516791 -85.5975 
L 331.869693 -85.905033 
L 334.222596 -86.23527 
L 336.575498 -86.585769 
L 338.928401 -86.953606 
L 341.281303 -87.335447 
L 343.634206 -87.727634 
L 345.987108 -88.126264 
L 348.340011 -88.527272 
L 350.692913 -88.926511 
L 353.045816 -89.319824 
L 355.398719 -89.703103 
L 357.751621 -90.072351 
L 360.104524 -90.423719 
L 362.457426 -90.753547 
L 364.810329 -91.058391 
L 367.163231 -91.335046 
L 369.516134 -91.580566 
L 371.869036 -91.792276 
L 374.221939 -91.967785 
L 376.574841 -92.10499 
L 378.927744 -92.202081 
L 381.280646 -92.257541 
L 383.633549 -92.27015 
L 385.986451 -92.238978 
L 388.339354 -92.163388 
L 390.692256 -92.043034 
L 393.045159 -91.877857 
L 395.398061 -91.668084 
L 397.750964 -91.414226 
L 400.103866 -91.11707 
L 402.456769 -90.777681 
L 404.809671 -90.397391 
L 407.162574 -89.977792 
L 409.515476 -89.520724 
L 411.868379 -89.028264 
L 414.221281 -88.502711 
L 416.574184 -87.946574 
L 418.927087 -87.362551 
L 421.279989 -86.753508 
L 423.632892 -86.122455 
L 425.985794 -85.472513 
L 428.338697 -84.806887 
L 430.691599 -84.128831 
L 433.044502 -83.441614 
L 435.397404 -82.748485 
L 437.750307 -82.052641 
L 440.103209 -81.357194 
L 442.456112 -80.665138 
L 444.809014 -79.979325 
L 447.161917 -79.302442 
L 449.514819 -78.636991 
L 451.867722 -77.985282 
L 454.220624 -77.349429 
L 456.573527 -76.731357 
L 458.926429 -76.132812 
L 461.279332 -75.555374 
L 463.632234 -75.000474 
L 465.985137 -74.469396 
L 468.338039 -73.963288 
L 470.690942 -73.483158 
L 473.043844 -73.029864 
L 475.396747 -72.604114 
L 477.74965 -72.206467 
L 480.102552 -71.83733 
L 482.455455 -71.496979 
L 484.808357 -71.18558 
L 487.16126 -70.903222 
L 489.514162 -70.649956 
L 491.867065 -70.425837 
L 494.219967 -70.230965 
L 496.57287 -70.065531 
L 498.925772 -69.929832 
L 501.278675 -69.824276 
L 503.631577 -69.749356 
L 505.98448 -69.705596 
L 508.337382 -69.693469 
L 510.690285 -69.713302 
L 513.043187 -69.765175 
L 515.39609 -69.848831 
L 517.748992 -69.963615 
L 520.101895 -70.108442 
L 522.454797 -70.281805 
L 524.8077 -70.481817 
L 527.160602 -70.706263 
L 529.513505 -70.952689 
L 531.866407 -71.218481 
L 534.21931 -71.500932 
L 536.572212 -71.797317 
L 538.925115 -72.104951 
L 541.278018 -72.421233 
L 543.63092 -72.743672 
L 545.983823 -73.069918 
L 548.336725 -73.397763 
L 550.689628 -73.725153 
L 553.04253 -74.050191 
L 555.395433 -74.371125 
L 557.748335 -74.686351 
L 560.101238 -74.994397 
L 562.45414 -75.293921 
L 564.807043 -75.583695 
L 567.159945 -75.862593 
L 569.512848 -76.129578 
L 571.86575 -76.383693 
L 574.218653 -76.624055 
L 576.571555 -76.849864 
L 578.924458 -77.060401 
L 581.27736 -77.255055 
L 583.630263 -77.433343 
L 585.983165 -77.594967 
L 588.336068 -77.739861 
L 590.68897 -77.868258 
L 593.041873 -77.980745 
L 595.394775 -78.07831 
L 597.747678 -78.162357 
L 600.100581 -78.2347 
L 602.453483 -78.297529 
L 604.806386 -78.353358 
L 607.159288 -78.404978 
L 609.512191 -78.4554 
L 611.865093 -78.507804 
L 614.217996 -78.5655 
L 616.570898 -78.631887 
L 618.923801 -78.710418 
L 621.276703 -78.804576 
L 623.629606 -78.917835 
L 625.982508 -79.053638 
L 628.335411 -79.21536 
L 630.688313 -79.406284 
L 633.041216 -79.629556 
L 635.394118 -79.888147 
L 637.747021 -80.184822 
L 640.099923 -80.522108 
L 642.452826 -80.902262 
L 644.805728 -81.327249 
L 647.158631 -81.798728 
L 649.511533 -82.318042 
L 651.864436 -82.886216 
L 654.217338 -83.503961 
L 656.570241 -84.171677 
L 658.923143 -84.889463 
L 661.276046 -85.657129 
L 663.628949 -86.4742 
L 665.981851 -87.339928 
L 668.334754 -88.253294 
L 670.687656 -89.213007 
L 673.040559 -90.217487 
L 675.393461 -91.264832 
L 677.746364 -92.352773 
L 677.746364 -99.318022 
L 677.746364 -99.318022 
L 675.393461 -98.432163 
L 673.040559 -97.568002 
L 670.687656 -96.724411 
L 668.334754 -95.900587 
L 665.981851 -95.095989 
L 663.628949 -94.31029 
L 661.276046 -93.543352 
L 658.923143 -92.795213 
L 656.570241 -92.066058 
L 654.217338 -91.356216 
L 651.864436 -90.666128 
L 649.511533 -89.996323 
L 647.158631 -89.347402 
L 644.805728 -88.720014 
L 642.452826 -88.114823 
L 640.099923 -87.532493 
L 637.747021 -86.973657 
L 635.394118 -86.43888 
L 633.041216 -85.928621 
L 630.688313 -85.443206 
L 628.335411 -84.982801 
L 625.982508 -84.547393 
L 623.629606 -84.13677 
L 621.276703 -83.750517 
L 618.923801 -83.38802 
L 616.570898 -83.04847 
L 614.217996 -82.73088 
L 611.865093 -82.43411 
L 609.512191 -82.156893 
L 607.159288 -81.897857 
L 604.806386 -81.655544 
L 602.453483 -81.428425 
L 600.100581 -81.214903 
L 597.747678 -81.01329 
L 595.394775 -80.821792 
L 593.041873 -80.638497 
L 590.68897 -80.461373 
L 588.336068 -80.288287 
L 585.983165 -80.117053 
L 583.630263 -79.945494 
L 581.27736 -79.771512 
L 578.924458 -79.593164 
L 576.571555 -79.408735 
L 574.218653 -79.216787 
L 571.86575 -79.016194 
L 569.512848 -78.80617 
L 567.159945 -78.586277 
L 564.807043 -78.356419 
L 562.45414 -78.116848 
L 560.101238 -77.868144 
L 557.748335 -77.611203 
L 555.395433 -77.347208 
L 553.04253 -77.077604 
L 550.689628 -76.804079 
L 548.336725 -76.528531 
L 545.983823 -76.253047 
L 543.63092 -75.979853 
L 541.278018 -75.711285 
L 538.925115 -75.449762 
L 536.572212 -75.197712 
L 534.21931 -74.957543 
L 531.866407 -74.731585 
L 529.513505 -74.522053 
L 527.160602 -74.33102 
L 524.8077 -74.160396 
L 522.454797 -74.01189 
L 520.101895 -73.886997 
L 517.748992 -73.787009 
L 515.39609 -73.713004 
L 513.043187 -73.665853 
L 510.690285 -73.646223 
L 508.337382 -73.654585 
L 505.98448 -73.691239 
L 503.631577 -73.756327 
L 501.278675 -73.849869 
L 498.925772 -73.971795 
L 496.57287 -74.121984 
L 494.219967 -74.300316 
L 491.867065 -74.506718 
L 489.514162 -74.741212 
L 487.16126 -75.003954 
L 484.808357 -75.295263 
L 482.455455 -75.615631 
L 480.102552 -75.965709 
L 477.74965 -76.346273 
L 475.396747 -76.758177 
L 473.043844 -77.202291 
L 470.690942 -77.679422 
L 468.338039 -78.19024 
L 465.985137 -78.735189 
L 463.632234 -79.314423 
L 461.279332 -79.927739 
L 458.926429 -80.574528 
L 456.573527 -81.253755 
L 454.220624 -81.963941 
L 451.867722 -82.703176 
L 449.514819 -83.46914 
L 447.161917 -84.259137 
L 444.809014 -85.070129 
L 442.456112 -85.898787 
L 440.103209 -86.74153 
L 437.750307 -87.594578 
L 435.397404 -88.453998 
L 433.044502 -89.315742 
L 430.691599 -90.175693 
L 428.338697 -91.029708 
L 425.985794 -91.873659 
L 423.632892 -92.703473 
L 421.279989 -93.515166 
L 418.927087 -94.304884 
L 416.574184 -95.068926 
L 414.221281 -95.803784 
L 411.868379 -96.506162 
L 409.515476 -97.173 
L 407.162574 -97.801498 
L 404.809671 -98.389131 
L 402.456769 -98.933665 
L 400.103866 -99.433164 
L 397.750964 -99.885997 
L 395.398061 -100.290844 
L 393.045159 -100.646698 
L 390.692256 -100.952868 
L 388.339354 -101.208977 
L 385.986451 -101.414961 
L 383.633549 -101.571062 
L 381.280646 -101.677818 
L 378.927744 -101.736062 
L 376.574841 -101.746909 
L 374.221939 -101.711752 
L 371.869036 -101.632247 
L 369.516134 -101.510304 
L 367.163231 -101.34807 
L 364.810329 -101.147916 
L 362.457426 -100.912415 
L 360.104524 -100.644326 
L 357.751621 -100.346568 
L 355.398719 -100.022195 
L 353.045816 -99.674373 
L 350.692913 -99.306339 
L 348.340011 -98.921377 
L 345.987108 -98.522777 
L 343.634206 -98.113793 
L 341.281303 -97.697596 
L 338.928401 -97.277238 
L 336.575498 -96.855603 
L 334.222596 -96.43536 
L 331.869693 -96.018922 
L 329.516791 -95.608401 
L 327.163888 -95.205571 
L 324.810986 -94.811839 
L 322.458083 -94.428219 
L 320.105181 -94.055311 
L 317.752278 -93.6933 
L 315.399376 -93.341952 
L 313.046473 -93.000627 
L 310.693571 -92.668308 
L 308.340668 -92.343621 
L 305.987766 -92.02488 
L 303.634863 -91.710133 
L 301.281961 -91.397211 
L 298.929058 -91.083795 
L 296.576156 -90.767467 
L 294.223253 -90.445775 
L 291.87035 -90.1163 
L 289.517448 -89.776719 
L 287.164545 -89.424861 
L 284.811643 -89.05877 
L 282.45874 -88.676766 
L 280.105838 -88.277502 
L 277.752935 -87.860016 
L 275.400033 -87.42378 
L 273.04713 -86.968748 
L 270.694228 -86.4954 
L 268.341325 -86.004779 
L 265.988423 -85.498531 
L 263.63552 -84.978935 
L 261.282618 -84.448926 
L 258.929715 -83.912114 
L 256.576813 -83.372781 
L 254.22391 -82.835876 
L 251.871008 -82.306964 
L 249.518105 -81.792163 
L 247.165203 -81.298013 
L 244.8123 -80.831304 
L 242.459398 -80.398847 
L 240.106495 -80.007182 
L 237.753593 -79.662265 
L 235.40069 -79.369127 
L 233.047788 -79.131562 
L 230.694885 -78.951884 
L 228.341982 -78.83076 
L 225.98908 -78.767154 
L 223.636177 -78.758393 
L 221.283275 -78.800324 
L 218.930372 -78.887561 
L 216.57747 -79.013768 
L 214.224567 -79.171976 
L 211.871665 -79.354873 
L 209.518762 -79.55508 
L 207.16586 -79.765375 
L 204.812957 -79.97887 
L 202.460055 -80.189149 
L 200.107152 -80.390357 
L 197.75425 -80.577263 
L 195.401347 -80.74527 
L 193.048445 -80.890425 
L 190.695542 -81.009394 
L 188.34264 -81.099436 
L 185.989737 -81.158373 
L 183.636835 -81.18455 
L 181.283932 -81.176785 
L 178.93103 -81.134341 
L 176.578127 -81.056873 
L 174.225225 -80.944387 
L 171.872322 -80.797197 
L 169.519419 -80.615886 
L 167.166517 -80.401271 
L 164.813614 -80.154364 
L 162.460712 -79.876335 
L 160.107809 -79.568476 
L 157.754907 -79.232163 
L 155.402004 -78.86882 
L 153.049102 -78.479901 
L 150.696199 -78.066843 
L 148.343297 -77.631043 
L 145.990394 -77.173827 
L 143.637492 -76.696433 
L 141.284589 -76.199978 
L 138.931687 -75.685445 
L 136.578784 -75.153665 
L 134.225882 -74.605304 
L 131.872979 -74.040854 
L 129.520077 -73.460637 
L 127.167174 -72.864809 
L 124.814272 -72.253376 
L 122.461369 -71.62621 
L 120.108467 -70.983075 
L 117.755564 -70.323642 
L 115.402662 -69.647512 
L 113.049759 -68.954242 
L 110.696857 -68.24337 
L 108.343954 -67.514444 
L 105.991051 -66.76704 
L 103.638149 -66.000782 
L 101.285246 -65.215362 
L 98.932344 -64.410559 
L 96.579441 -63.586247 
L 94.226539 -62.742397 
L 91.873636 -61.879091 
z
" style="stroke: #000080; stroke-opacity: 0.1"/>
    </defs>
    <g clip-path="url(#pd349ed6c86)">
     <use xlink:href="#md46b1d3ae7" x="0" y="360" style="fill: #000080; fill-opacity: 0.1; stroke: #000080; stroke-opacity: 0.1"/>
    </g>
   </g>
   <g id="line2d_1">
    <path d="M 91.873636 298.120909 
L 108.343954 286.441802 
L 129.520077 271.108621 
L 204.812957 216.252803 
L 225.98908 201.220261 
L 247.165203 186.476423 
L 265.988423 173.641761 
L 284.811643 161.085004 
L 301.281961 150.349275 
L 317.752278 139.87693 
L 331.869693 131.135186 
L 345.987108 122.634877 
L 360.104524 114.404498 
L 371.869036 107.776278 
L 383.633549 101.378639 
L 395.398061 95.228969 
L 407.162574 89.343758 
L 418.927087 83.741302 
L 428.338697 79.475441 
L 437.750307 75.411096 
L 447.161917 71.555448 
L 456.573527 67.913773 
L 465.985137 64.490664 
L 475.396747 61.291209 
L 484.808357 58.320413 
L 494.219967 55.583105 
L 503.631577 53.082178 
L 513.043187 50.820064 
L 522.454797 48.797651 
L 531.866407 47.014472 
L 541.278018 45.468495 
L 550.689628 44.156725 
L 560.101238 43.075589 
L 569.512848 42.221031 
L 578.924458 41.588481 
L 588.336068 41.172074 
L 597.747678 40.965648 
L 607.159288 40.962481 
L 616.570898 41.155316 
L 625.982508 41.535569 
L 637.747021 42.260368 
L 649.511533 43.242751 
L 661.276046 44.457373 
L 673.040559 45.874844 
L 677.746364 46.491573 
L 677.746364 46.491573 
" clip-path="url(#pd349ed6c86)" style="fill: none; stroke: #000000; stroke-width: 1.5; stroke-linecap: round"/>
   </g>
   <g id="line2d_2">
    <path d="M 91.873636 298.120909 
L 101.285246 292.425363 
L 110.696857 286.960455 
L 120.108467 281.739667 
L 129.520077 276.78202 
L 138.931687 272.108573 
L 148.343297 267.735971 
L 157.754907 263.669449 
L 167.166517 259.89736 
L 176.578127 256.391718 
L 185.989737 253.116844 
L 197.75425 249.297201 
L 209.518762 245.740977 
L 221.283275 242.44467 
L 230.694885 240.024139 
L 240.106495 237.840217 
L 247.165203 236.386966 
L 254.22391 235.113212 
L 261.282618 234.032779 
L 268.341325 233.152305 
L 275.400033 232.469301 
L 282.45874 231.970647 
L 291.87035 231.550866 
L 303.634863 231.311496 
L 360.104524 230.654111 
L 374.221939 230.527894 
L 385.986451 230.662445 
L 397.750964 231.060552 
L 411.868379 231.801436 
L 433.044502 232.961749 
L 444.809014 233.369711 
L 454.220624 233.490095 
L 463.632234 233.399884 
L 473.043844 233.086916 
L 482.455455 232.540893 
L 491.867065 231.739689 
L 498.925772 230.943738 
L 505.98448 229.944942 
L 513.043187 228.698736 
L 520.101895 227.15204 
L 524.8077 225.926257 
L 529.513505 224.525825 
L 534.21931 222.935914 
L 538.925115 221.143616 
L 543.63092 219.138355 
L 548.336725 216.912169 
L 553.04253 214.459763 
L 557.748335 211.778401 
L 562.45414 208.867749 
L 567.159945 205.729666 
L 571.86575 202.367897 
L 576.571555 198.787713 
L 581.27736 194.995564 
L 585.983165 190.998858 
L 593.041873 184.637658 
L 600.100581 177.861526 
L 607.159288 170.697112 
L 614.217996 163.168488 
L 621.276703 155.296246 
L 628.335411 147.097447 
L 635.394118 138.586628 
L 642.452826 129.77693 
L 649.511533 120.681052 
L 658.923143 108.130747 
L 668.334754 95.127998 
L 677.746364 81.707481 
L 677.746364 81.707481 
" clip-path="url(#pd349ed6c86)" style="fill: none; stroke: #a52a2a; stroke-width: 1.5; stroke-linecap: round"/>
   </g>
   <g id="line2d_3">
    <path d="M 91.873636 298.120909 
L 98.932344 296.465779 
L 105.991051 295.112931 
L 113.049759 294.054736 
L 120.108467 293.267137 
L 127.167174 292.710048 
L 136.578784 292.23384 
L 150.696199 291.821006 
L 174.225225 291.367644 
L 185.989737 291.342517 
L 197.75425 291.546686 
L 218.930372 292.023385 
L 225.98908 291.937234 
L 233.047788 291.633548 
L 242.459398 290.944233 
L 261.282618 289.383004 
L 268.341325 289.001344 
L 275.400033 288.816222 
L 282.45874 288.846969 
L 289.517448 289.09148 
L 296.576156 289.530352 
L 305.987766 290.359884 
L 320.105181 291.900665 
L 331.869693 293.144499 
L 338.928401 293.721598 
L 345.987108 294.088251 
L 353.045816 294.210697 
L 360.104524 294.104842 
L 371.869036 293.62026 
L 385.986451 293.065148 
L 395.398061 292.940787 
L 404.809671 293.076371 
L 414.221281 293.451005 
L 440.103209 294.728804 
L 447.161917 294.800333 
L 456.573527 294.670124 
L 480.102552 294.231918 
L 513.043187 293.955326 
L 522.454797 293.463848 
L 531.866407 292.708509 
L 548.336725 291.074895 
L 562.45414 289.756193 
L 574.218653 288.884646 
L 585.983165 288.236971 
L 602.453483 287.579082 
L 623.629606 286.709889 
L 633.041216 286.135978 
L 642.452826 285.319257 
L 649.511533 284.463525 
L 656.570241 283.321611 
L 661.276046 282.370475 
L 665.981851 281.253041 
L 670.687656 279.963786 
L 675.393461 278.50244 
L 677.746364 277.708207 
L 677.746364 277.708207 
" clip-path="url(#pd349ed6c86)" style="fill: none; stroke: #000080; stroke-width: 1.5; stroke-linecap: round"/>
   </g>
   <g id="line2d_4">
    <path d="M 91.873636 298.120909 
L 98.932344 296.001889 
L 105.991051 294.101095 
L 113.049759 292.40985 
L 120.108467 290.911317 
L 129.520077 289.17574 
L 138.931687 287.697158 
L 148.343297 286.452377 
L 157.754907 285.455284 
L 164.813614 284.896447 
L 171.872322 284.524839 
L 178.93103 284.356579 
L 185.989737 284.390422 
L 195.401347 284.691894 
L 209.518762 285.259958 
L 216.57747 285.288001 
L 221.283275 285.111176 
L 225.98908 284.746702 
L 230.694885 284.189056 
L 235.40069 283.452136 
L 242.459398 282.07915 
L 254.22391 279.434362 
L 263.63552 277.374883 
L 270.694228 276.023149 
L 277.752935 274.890939 
L 284.811643 273.979478 
L 294.223253 273.038311 
L 317.752278 270.931576 
L 327.163888 269.739939 
L 336.575498 268.279314 
L 357.751621 264.790541 
L 364.810329 263.896847 
L 371.869036 263.287739 
L 376.574841 263.07405 
L 381.280646 263.03232 
L 385.986451 263.173031 
L 390.692256 263.502049 
L 395.398061 264.020536 
L 400.103866 264.724883 
L 404.809671 265.606739 
L 409.515476 266.653138 
L 416.574184 268.49225 
L 423.632892 270.587036 
L 435.397404 274.398758 
L 447.161917 278.219211 
L 454.220624 280.343315 
L 461.279332 282.258444 
L 468.338039 283.923236 
L 475.396747 285.318854 
L 482.455455 286.443695 
L 489.514162 287.304416 
L 496.57287 287.906243 
L 503.631577 288.247158 
L 510.690285 288.320238 
L 517.748992 288.124688 
L 524.8077 287.678894 
L 531.866407 287.024967 
L 541.278018 285.933741 
L 567.159945 282.775565 
L 576.571555 281.870701 
L 588.336068 280.985926 
L 618.923801 278.950781 
L 625.982508 278.199485 
L 633.041216 277.220912 
L 640.099923 275.9727 
L 647.158631 274.426935 
L 654.217338 272.569911 
L 661.276046 270.399759 
L 668.334754 267.923059 
L 675.393461 265.151503 
L 677.746364 264.164603 
L 677.746364 264.164603 
" clip-path="url(#pd349ed6c86)" style="fill: none; stroke-dasharray: 5.55,2.4; stroke-dashoffset: 0; stroke: #000080; stroke-width: 1.5"/>
   </g>
   <g id="patch_3">
    <path d="M 62.58 310.98 
L 62.58 28.08 
" style="fill: none; stroke: #ffffff; stroke-width: 1.25; stroke-linejoin: miter; stroke-linecap: square"/>
   </g>
   <g id="patch_4">
    <path d="M 707.04 310.98 
L 707.04 28.08 
" style="fill: none; stroke: #ffffff; stroke-width: 1.25; stroke-linejoin: miter; stroke-linecap: square"/>
   </g>
   <g id="patch_5">
    <path d="M 62.58 310.98 
L 707.04 310.98 
" style="fill: none; stroke: #ffffff; stroke-width: 1.25; stroke-linejoin: miter; stroke-linecap: square"/>
   </g>
   <g id="patch_6">
    <path d="M 62.58 28.08 
L 707.04 28.08 
" style="fill: none; stroke: #ffffff; stroke-width: 1.25; stroke-linejoin: miter; stroke-linecap: square"/>
   </g>
   <g id="text_15">
    <!-- QG3L - [112, 176] x [64, 192] -->
    <g style="fill: #262626" transform="translate(295.95 22.08) scale(0.12 -0.12)">
     <defs>
      <path id="DejaVuSans-51" d="M 2522 4238 
Q 1834 4238 1429 3725 
Q 1025 3213 1025 2328 
Q 1025 1447 1429 934 
Q 1834 422 2522 422 
Q 3209 422 3611 934 
Q 4013 1447 4013 2328 
Q 4013 3213 3611 3725 
Q 3209 4238 2522 4238 
z
M 3406 84 
L 4238 -825 
L 3475 -825 
L 2784 -78 
Q 2681 -84 2626 -87 
Q 2572 -91 2522 -91 
Q 1538 -91 948 567 
Q 359 1225 359 2328 
Q 359 3434 948 4092 
Q 1538 4750 2522 4750 
Q 3503 4750 4090 4092 
Q 4678 3434 4678 2328 
Q 4678 1516 4351 937 
Q 4025 359 3406 84 
z
" transform="scale(0.015625)"/>
      <path id="DejaVuSans-47" d="M 3809 666 
L 3809 1919 
L 2778 1919 
L 2778 2438 
L 4434 2438 
L 4434 434 
Q 4069 175 3628 42 
Q 3188 -91 2688 -91 
Q 1594 -91 976 548 
Q 359 1188 359 2328 
Q 359 3472 976 4111 
Q 1594 4750 2688 4750 
Q 3144 4750 3555 4637 
Q 3966 4525 4313 4306 
L 4313 3634 
Q 3963 3931 3569 4081 
Q 3175 4231 2741 4231 
Q 1884 4231 1454 3753 
Q 1025 3275 1025 2328 
Q 1025 1384 1454 906 
Q 1884 428 2741 428 
Q 3075 428 3337 486 
Q 3600 544 3809 666 
z
" transform="scale(0.015625)"/>
      <path id="DejaVuSans-4c" d="M 628 4666 
L 1259 4666 
L 1259 531 
L 3531 531 
L 3531 0 
L 628 0 
L 628 4666 
z
" transform="scale(0.015625)"/>
      <path id="DejaVuSans-2d" d="M 313 2009 
L 1997 2009 
L 1997 1497 
L 313 1497 
L 313 2009 
z
" transform="scale(0.015625)"/>
      <path id="DejaVuSans-2c" d="M 750 794 
L 1409 794 
L 1409 256 
L 897 -744 
L 494 -744 
L 750 256 
L 750 794 
z
" transform="scale(0.015625)"/>
      <path id="DejaVuSans-37" d="M 525 4666 
L 3525 4666 
L 3525 4397 
L 1831 0 
L 1172 0 
L 2766 4134 
L 525 4134 
L 525 4666 
z
" transform="scale(0.015625)"/>
      <path id="DejaVuSans-36" d="M 2113 2584 
Q 1688 2584 1439 2293 
Q 1191 2003 1191 1497 
Q 1191 994 1439 701 
Q 1688 409 2113 409 
Q 2538 409 2786 701 
Q 3034 994 3034 1497 
Q 3034 2003 2786 2293 
Q 2538 2584 2113 2584 
z
M 3366 4563 
L 3366 3988 
Q 3128 4100 2886 4159 
Q 2644 4219 2406 4219 
Q 1781 4219 1451 3797 
Q 1122 3375 1075 2522 
Q 1259 2794 1537 2939 
Q 1816 3084 2150 3084 
Q 2853 3084 3261 2657 
Q 3669 2231 3669 1497 
Q 3669 778 3244 343 
Q 2819 -91 2113 -91 
Q 1303 -91 875 529 
Q 447 1150 447 2328 
Q 447 3434 972 4092 
Q 1497 4750 2381 4750 
Q 2619 4750 2861 4703 
Q 3103 4656 3366 4563 
z
" transform="scale(0.015625)"/>
      <path id="DejaVuSans-78" d="M 3513 3500 
L 2247 1797 
L 3578 0 
L 2900 0 
L 1881 1375 
L 863 0 
L 184 0 
L 1544 1831 
L 300 3500 
L 978 3500 
L 1906 2253 
L 2834 3500 
L 3513 3500 
z
" transform="scale(0.015625)"/>
      <path id="DejaVuSans-34" d="M 2419 4116 
L 825 1625 
L 2419 1625 
L 2419 4116 
z
M 2253 4666 
L 3047 4666 
L 3047 1625 
L 3713 1625 
L 3713 1100 
L 3047 1100 
L 3047 0 
L 2419 0 
L 2419 1100 
L 313 1100 
L 313 1709 
L 2253 4666 
z
" transform="scale(0.015625)"/>
      <path id="DejaVuSans-39" d="M 703 97 
L 703 672 
Q 941 559 1184 500 
Q 1428 441 1663 441 
Q 2288 441 2617 861 
Q 2947 1281 2994 2138 
Q 2813 1869 2534 1725 
Q 2256 1581 1919 1581 
Q 1219 1581 811 2004 
Q 403 2428 403 3163 
Q 403 3881 828 4315 
Q 1253 4750 1959 4750 
Q 2769 4750 3195 4129 
Q 3622 3509 3622 2328 
Q 3622 1225 3098 567 
Q 2575 -91 1691 -91 
Q 1453 -91 1209 -44 
Q 966 3 703 97 
z
M 1959 2075 
Q 2384 2075 2632 2365 
Q 2881 2656 2881 3163 
Q 2881 3666 2632 3958 
Q 2384 4250 1959 4250 
Q 1534 4250 1286 3958 
Q 1038 3666 1038 3163 
Q 1038 2656 1286 2365 
Q 1534 2075 1959 2075 
z
" transform="scale(0.015625)"/>
     </defs>
     <use xlink:href="#DejaVuSans-51"/>
     <use xlink:href="#DejaVuSans-47" transform="translate(78.710938 0)"/>
     <use xlink:href="#DejaVuSans-33" transform="translate(156.201172 0)"/>
     <use xlink:href="#DejaVuSans-4c" transform="translate(219.824219 0)"/>
     <use xlink:href="#DejaVuSans-20" transform="translate(275.537109 0)"/>
     <use xlink:href="#DejaVuSans-2d" transform="translate(307.324219 0)"/>
     <use xlink:href="#DejaVuSans-20" transform="translate(343.408203 0)"/>
     <use xlink:href="#DejaVuSans-5b" transform="translate(375.195312 0)"/>
     <use xlink:href="#DejaVuSans-31" transform="translate(414.208984 0)"/>
     <use xlink:href="#DejaVuSans-31" transform="translate(477.832031 0)"/>
     <use xlink:href="#DejaVuSans-32" transform="translate(541.455078 0)"/>
     <use xlink:href="#DejaVuSans-2c" transform="translate(605.078125 0)"/>
     <use xlink:href="#DejaVuSans-20" transform="translate(636.865234 0)"/>
     <use xlink:href="#DejaVuSans-31" transform="translate(668.652344 0)"/>
     <use xlink:href="#DejaVuSans-37" transform="translate(732.275391 0)"/>
     <use xlink:href="#DejaVuSans-36" transform="translate(795.898438 0)"/>
     <use xlink:href="#DejaVuSans-5d" transform="translate(859.521484 0)"/>
     <use xlink:href="#DejaVuSans-20" transform="translate(898.535156 0)"/>
     <use xlink:href="#DejaVuSans-78" transform="translate(930.322266 0)"/>
     <use xlink:href="#DejaVuSans-20" transform="translate(989.501953 0)"/>
     <use xlink:href="#DejaVuSans-5b" transform="translate(1021.289062 0)"/>
     <use xlink:href="#DejaVuSans-36" transform="translate(1060.302734 0)"/>
     <use xlink:href="#DejaVuSans-34" transform="translate(1123.925781 0)"/>
     <use xlink:href="#DejaVuSans-2c" transform="translate(1187.548828 0)"/>
     <use xlink:href="#DejaVuSans-20" transform="translate(1219.335938 0)"/>
     <use xlink:href="#DejaVuSans-31" transform="translate(1251.123047 0)"/>
     <use xlink:href="#DejaVuSans-39" transform="translate(1314.746094 0)"/>
     <use xlink:href="#DejaVuSans-32" transform="translate(1378.369141 0)"/>
     <use xlink:href="#DejaVuSans-5d" transform="translate(1441.992188 0)"/>
    </g>
   </g>
   <g id="legend_1">
    <g id="patch_7">
     <path d="M 70.28 101.46375 
L 251.695781 101.46375 
Q 253.895781 101.46375 253.895781 99.26375 
L 253.895781 35.78 
Q 253.895781 33.58 251.695781 33.58 
L 70.28 33.58 
Q 68.08 33.58 68.08 35.78 
L 68.08 99.26375 
Q 68.08 101.46375 70.28 101.46375 
z
" style="fill: #eaeaf2; opacity: 0.8; stroke: #cccccc; stroke-linejoin: miter"/>
    </g>
    <g id="line2d_5">
     <path d="M 72.48 42.488281 
L 83.48 42.488281 
L 94.48 42.488281 
" style="fill: none; stroke: #000000; stroke-width: 1.5; stroke-linecap: round"/>
    </g>
    <g id="text_16">
     <!-- Reduced Gravity -->
     <g style="fill: #262626" transform="translate(103.28 46.338281) scale(0.11 -0.11)">
      <defs>
       <path id="DejaVuSans-75" d="M 544 1381 
L 544 3500 
L 1119 3500 
L 1119 1403 
Q 1119 906 1312 657 
Q 1506 409 1894 409 
Q 2359 409 2629 706 
Q 2900 1003 2900 1516 
L 2900 3500 
L 3475 3500 
L 3475 0 
L 2900 0 
L 2900 538 
Q 2691 219 2414 64 
Q 2138 -91 1772 -91 
Q 1169 -91 856 284 
Q 544 659 544 1381 
z
M 1991 3584 
L 1991 3584 
z
" transform="scale(0.015625)"/>
       <path id="DejaVuSans-63" d="M 3122 3366 
L 3122 2828 
Q 2878 2963 2633 3030 
Q 2388 3097 2138 3097 
Q 1578 3097 1268 2742 
Q 959 2388 959 1747 
Q 959 1106 1268 751 
Q 1578 397 2138 397 
Q 2388 397 2633 464 
Q 2878 531 3122 666 
L 3122 134 
Q 2881 22 2623 -34 
Q 2366 -91 2075 -91 
Q 1284 -91 818 406 
Q 353 903 353 1747 
Q 353 2603 823 3093 
Q 1294 3584 2113 3584 
Q 2378 3584 2631 3529 
Q 2884 3475 3122 3366 
z
" transform="scale(0.015625)"/>
       <path id="DejaVuSans-72" d="M 2631 2963 
Q 2534 3019 2420 3045 
Q 2306 3072 2169 3072 
Q 1681 3072 1420 2755 
Q 1159 2438 1159 1844 
L 1159 0 
L 581 0 
L 581 3500 
L 1159 3500 
L 1159 2956 
Q 1341 3275 1631 3429 
Q 1922 3584 2338 3584 
Q 2397 3584 2469 3576 
Q 2541 3569 2628 3553 
L 2631 2963 
z
" transform="scale(0.015625)"/>
       <path id="DejaVuSans-76" d="M 191 3500 
L 800 3500 
L 1894 563 
L 2988 3500 
L 3597 3500 
L 2284 0 
L 1503 0 
L 191 3500 
z
" transform="scale(0.015625)"/>
       <path id="DejaVuSans-74" d="M 1172 4494 
L 1172 3500 
L 2356 3500 
L 2356 3053 
L 1172 3053 
L 1172 1153 
Q 1172 725 1289 603 
Q 1406 481 1766 481 
L 2356 481 
L 2356 0 
L 1766 0 
Q 1100 0 847 248 
Q 594 497 594 1153 
L 594 3053 
L 172 3053 
L 172 3500 
L 594 3500 
L 594 4494 
L 1172 4494 
z
" transform="scale(0.015625)"/>
      </defs>
      <use xlink:href="#DejaVuSans-52"/>
      <use xlink:href="#DejaVuSans-65" transform="translate(64.982422 0)"/>
      <use xlink:href="#DejaVuSans-64" transform="translate(126.505859 0)"/>
      <use xlink:href="#DejaVuSans-75" transform="translate(189.982422 0)"/>
      <use xlink:href="#DejaVuSans-63" transform="translate(253.361328 0)"/>
      <use xlink:href="#DejaVuSans-65" transform="translate(308.341797 0)"/>
      <use xlink:href="#DejaVuSans-64" transform="translate(369.865234 0)"/>
      <use xlink:href="#DejaVuSans-20" transform="translate(433.341797 0)"/>
      <use xlink:href="#DejaVuSans-47" transform="translate(465.128906 0)"/>
      <use xlink:href="#DejaVuSans-72" transform="translate(542.619141 0)"/>
      <use xlink:href="#DejaVuSans-61" transform="translate(583.732422 0)"/>
      <use xlink:href="#DejaVuSans-76" transform="translate(645.011719 0)"/>
      <use xlink:href="#DejaVuSans-69" transform="translate(704.191406 0)"/>
      <use xlink:href="#DejaVuSans-74" transform="translate(731.974609 0)"/>
      <use xlink:href="#DejaVuSans-79" transform="translate(771.183594 0)"/>
     </g>
    </g>
    <g id="line2d_6">
     <path d="M 72.48 58.634219 
L 83.48 58.634219 
L 94.48 58.634219 
" style="fill: none; stroke: #a52a2a; stroke-width: 1.5; stroke-linecap: round"/>
    </g>
    <g id="text_17">
     <!-- VarDyn -->
     <g style="fill: #262626" transform="translate(103.28 62.484219) scale(0.11 -0.11)">
      <defs>
       <path id="DejaVuSans-56" d="M 1831 0 
L 50 4666 
L 709 4666 
L 2188 738 
L 3669 4666 
L 4325 4666 
L 2547 0 
L 1831 0 
z
" transform="scale(0.015625)"/>
       <path id="DejaVuSans-44" d="M 1259 4147 
L 1259 519 
L 2022 519 
Q 2988 519 3436 956 
Q 3884 1394 3884 2338 
Q 3884 3275 3436 3711 
Q 2988 4147 2022 4147 
L 1259 4147 
z
M 628 4666 
L 1925 4666 
Q 3281 4666 3915 4102 
Q 4550 3538 4550 2338 
Q 4550 1131 3912 565 
Q 3275 0 1925 0 
L 628 0 
L 628 4666 
z
" transform="scale(0.015625)"/>
      </defs>
      <use xlink:href="#DejaVuSans-56"/>
      <use xlink:href="#DejaVuSans-61" transform="translate(60.658203 0)"/>
      <use xlink:href="#DejaVuSans-72" transform="translate(121.9375 0)"/>
      <use xlink:href="#DejaVuSans-44" transform="translate(163.050781 0)"/>
      <use xlink:href="#DejaVuSans-79" transform="translate(240.052734 0)"/>
      <use xlink:href="#DejaVuSans-6e" transform="translate(299.232422 0)"/>
     </g>
    </g>
    <g id="line2d_7">
     <path d="M 72.48 74.780156 
L 83.48 74.780156 
L 94.48 74.780156 
" style="fill: none; stroke: #000080; stroke-width: 1.5; stroke-linecap: round"/>
    </g>
    <g id="text_18">
     <!-- SurfML -->
     <g style="fill: #262626" transform="translate(103.28 78.630156) scale(0.11 -0.11)">
      <defs>
       <path id="DejaVuSans-66" d="M 2375 4863 
L 2375 4384 
L 1825 4384 
Q 1516 4384 1395 4259 
Q 1275 4134 1275 3809 
L 1275 3500 
L 2222 3500 
L 2222 3053 
L 1275 3053 
L 1275 0 
L 697 0 
L 697 3053 
L 147 3053 
L 147 3500 
L 697 3500 
L 697 3744 
Q 697 4328 969 4595 
Q 1241 4863 1831 4863 
L 2375 4863 
z
" transform="scale(0.015625)"/>
      </defs>
      <use xlink:href="#DejaVuSans-53"/>
      <use xlink:href="#DejaVuSans-75" transform="translate(63.476562 0)"/>
      <use xlink:href="#DejaVuSans-72" transform="translate(126.855469 0)"/>
      <use xlink:href="#DejaVuSans-66" transform="translate(167.96875 0)"/>
      <use xlink:href="#DejaVuSans-4d" transform="translate(203.173828 0)"/>
      <use xlink:href="#DejaVuSans-4c" transform="translate(289.453125 0)"/>
     </g>
    </g>
    <g id="line2d_8">
     <path d="M 72.48 90.926094 
L 83.48 90.926094 
L 94.48 90.926094 
" style="fill: none; stroke-dasharray: 5.55,2.4; stroke-dashoffset: 0; stroke: #000080; stroke-width: 1.5"/>
    </g>
    <g id="text_19">
     <!-- SurfML - No Regularization -->
     <g style="fill: #262626" transform="translate(103.28 94.776094) scale(0.11 -0.11)">
      <defs>
       <path id="DejaVuSans-4e" d="M 628 4666 
L 1478 4666 
L 3547 763 
L 3547 4666 
L 4159 4666 
L 4159 0 
L 3309 0 
L 1241 3903 
L 1241 0 
L 628 0 
L 628 4666 
z
" transform="scale(0.015625)"/>
       <path id="DejaVuSans-6f" d="M 1959 3097 
Q 1497 3097 1228 2736 
Q 959 2375 959 1747 
Q 959 1119 1226 758 
Q 1494 397 1959 397 
Q 2419 397 2687 759 
Q 2956 1122 2956 1747 
Q 2956 2369 2687 2733 
Q 2419 3097 1959 3097 
z
M 1959 3584 
Q 2709 3584 3137 3096 
Q 3566 2609 3566 1747 
Q 3566 888 3137 398 
Q 2709 -91 1959 -91 
Q 1206 -91 779 398 
Q 353 888 353 1747 
Q 353 2609 779 3096 
Q 1206 3584 1959 3584 
z
" transform="scale(0.015625)"/>
       <path id="DejaVuSans-67" d="M 2906 1791 
Q 2906 2416 2648 2759 
Q 2391 3103 1925 3103 
Q 1463 3103 1205 2759 
Q 947 2416 947 1791 
Q 947 1169 1205 825 
Q 1463 481 1925 481 
Q 2391 481 2648 825 
Q 2906 1169 2906 1791 
z
M 3481 434 
Q 3481 -459 3084 -895 
Q 2688 -1331 1869 -1331 
Q 1566 -1331 1297 -1286 
Q 1028 -1241 775 -1147 
L 775 -588 
Q 1028 -725 1275 -790 
Q 1522 -856 1778 -856 
Q 2344 -856 2625 -561 
Q 2906 -266 2906 331 
L 2906 616 
Q 2728 306 2450 153 
Q 2172 0 1784 0 
Q 1141 0 747 490 
Q 353 981 353 1791 
Q 353 2603 747 3093 
Q 1141 3584 1784 3584 
Q 2172 3584 2450 3431 
Q 2728 3278 2906 2969 
L 2906 3500 
L 3481 3500 
L 3481 434 
z
" transform="scale(0.015625)"/>
       <path id="DejaVuSans-6c" d="M 603 4863 
L 1178 4863 
L 1178 0 
L 603 0 
L 603 4863 
z
" transform="scale(0.015625)"/>
       <path id="DejaVuSans-7a" d="M 353 3500 
L 3084 3500 
L 3084 2975 
L 922 459 
L 3084 459 
L 3084 0 
L 275 0 
L 275 525 
L 2438 3041 
L 353 3041 
L 353 3500 
z
" transform="scale(0.015625)"/>
      </defs>
      <use xlink:href="#DejaVuSans-53"/>
      <use xlink:href="#DejaVuSans-75" transform="translate(63.476562 0)"/>
      <use xlink:href="#DejaVuSans-72" transform="translate(126.855469 0)"/>
      <use xlink:href="#DejaVuSans-66" transform="translate(167.96875 0)"/>
      <use xlink:href="#DejaVuSans-4d" transform="translate(203.173828 0)"/>
      <use xlink:href="#DejaVuSans-4c" transform="translate(289.453125 0)"/>
      <use xlink:href="#DejaVuSans-20" transform="translate(345.166016 0)"/>
      <use xlink:href="#DejaVuSans-2d" transform="translate(376.953125 0)"/>
      <use xlink:href="#DejaVuSans-20" transform="translate(413.037109 0)"/>
      <use xlink:href="#DejaVuSans-4e" transform="translate(444.824219 0)"/>
      <use xlink:href="#DejaVuSans-6f" transform="translate(519.628906 0)"/>
      <use xlink:href="#DejaVuSans-20" transform="translate(580.810547 0)"/>
      <use xlink:href="#DejaVuSans-52" transform="translate(612.597656 0)"/>
      <use xlink:href="#DejaVuSans-65" transform="translate(677.580078 0)"/>
      <use xlink:href="#DejaVuSans-67" transform="translate(739.103516 0)"/>
      <use xlink:href="#DejaVuSans-75" transform="translate(802.580078 0)"/>
      <use xlink:href="#DejaVuSans-6c" transform="translate(865.958984 0)"/>
      <use xlink:href="#DejaVuSans-61" transform="translate(893.742188 0)"/>
      <use xlink:href="#DejaVuSans-72" transform="translate(955.021484 0)"/>
      <use xlink:href="#DejaVuSans-69" transform="translate(996.134766 0)"/>
      <use xlink:href="#DejaVuSans-7a" transform="translate(1023.917969 0)"/>
      <use xlink:href="#DejaVuSans-61" transform="translate(1076.408203 0)"/>
      <use xlink:href="#DejaVuSans-74" transform="translate(1137.6875 0)"/>
      <use xlink:href="#DejaVuSans-69" transform="translate(1176.896484 0)"/>
      <use xlink:href="#DejaVuSans-6f" transform="translate(1204.679688 0)"/>
      <use xlink:href="#DejaVuSans-6e" transform="translate(1265.861328 0)"/>
     </g>
    </g>
   </g>
  </g>
 </g>
 <defs>
  <clipPath id="pd349ed6c86">
   <rect x="62.58" y="28.08" width="644.46" height="282.9"/>
  </clipPath>
 </defs>
</svg>
