<?xml version="1.0" encoding="utf-8" standalone="no"?>
<!DOCTYPE svg PUBLIC "-//W3C//DTD SVG 1.1//EN"
  "http://www.w3.org/Graphics/SVG/1.1/DTD/svg11.dtd">
<svg xmlns:xlink="http://www.w3.org/1999/xlink" width="720pt" height="360pt" viewBox="0 0 720 360" xmlns="http://www.w3.org/2000/svg" version="1.1">
 <metadata>
  <rdf:RDF xmlns:dc="http://purl.org/dc/elements/1.1/" xmlns:cc="http://creativecommons.org/ns#" xmlns:rdf="http://www.w3.org/1999/02/22-rdf-syntax-ns#">
   <cc:Work>
    <dc:type rdf:resource="http://purl.org/dc/dcmitype/StillImage"/>
    <dc:date>2026-03-19T14:36:28.320924</dc:date>
    <dc:format>image/svg+xml</dc:format>
    <dc:creator>
     <cc:Agent>
      <dc:title>Matplotlib v3.10.6, https://matplotlib.org/</dc:title>
     </cc:Agent>
    </dc:creator>
   </cc:Work>
  </rdf:RDF>
 </metadata>
 <defs>
  <style type="text/css">*{stroke-linejoin: round; stroke-linecap: butt}</style>
 </defs>
 <g id="figure_1">
  <g id="patch_1">
   <path d="M 0 360 
L 720 360 
L 720 0 
L 0 0 
z
" style="fill: #ffffff"/>
  </g>
  <g id="axes_1">
   <g id="patch_2">
    <path d="M 62.58 310.98 
L 707.04 310.98 
L 707.04 28.08 
L 62.58 28.08 
z
" style="fill: #eaeaf2"/>
   </g>
   <g id="matplotlib.axis_1">
    <g id="xtick_1">
     <g id="text_1">
      <!-- 0 -->
      <g style="fill: #262626" transform="translate(88.374261 328.838281) scale(0.11 -0.11)">
       <defs>
        <path id="DejaVuSans-30" d="M 2034 4250 
Q 1547 4250 1301 3770 
Q 1056 3291 1056 2328 
Q 1056 1369 1301 889 
Q 1547 409 2034 409 
Q 2525 409 2770 889 
Q 3016 1369 3016 2328 
Q 3016 3291 2770 3770 
Q 2525 4250 2034 4250 
z
M 2034 4750 
Q 2819 4750 3233 4129 
Q 3647 3509 3647 2328 
Q 3647 1150 3233 529 
Q 2819 -91 2034 -91 
Q 1250 -91 836 529 
Q 422 1150 422 2328 
Q 422 3509 836 4129 
Q 1250 4750 2034 4750 
z
" transform="scale(0.015625)"/>
       </defs>
       <use xlink:href="#DejaVuSans-30"/>
      </g>
     </g>
    </g>
    <g id="xtick_2">
     <g id="text_2">
      <!-- 5 -->
      <g style="fill: #262626" transform="translate(229.548413 328.838281) scale(0.11 -0.11)">
       <defs>
        <path id="DejaVuSans-35" d="M 691 4666 
L 3169 4666 
L 3169 4134 
L 1269 4134 
L 1269 2991 
Q 1406 3038 1543 3061 
Q 1681 3084 1819 3084 
Q 2600 3084 3056 2656 
Q 3513 2228 3513 1497 
Q 3513 744 3044 326 
Q 2575 -91 1722 -91 
Q 1428 -91 1123 -41 
Q 819 9 494 109 
L 494 744 
Q 775 591 1075 516 
Q 1375 441 1709 441 
Q 2250 441 2565 725 
Q 2881 1009 2881 1497 
Q 2881 1984 2565 2268 
Q 2250 2553 1709 2553 
Q 1456 2553 1204 2497 
Q 953 2441 691 2322 
L 691 4666 
z
" transform="scale(0.015625)"/>
       </defs>
       <use xlink:href="#DejaVuSans-35"/>
      </g>
     </g>
    </g>
    <g id="xtick_3">
     <g id="text_3">
      <!-- 10 -->
      <g style="fill: #262626" transform="translate(367.223189 328.838281) scale(0.11 -0.11)">
       <defs>
        <path id="DejaVuSans-31" d="M 794 531 
L 1825 531 
L 1825 4091 
L 703 3866 
L 703 4441 
L 1819 4666 
L 2450 4666 
L 2450 531 
L 3481 531 
L 3481 0 
L 794 0 
L 794 531 
z
" transform="scale(0.015625)"/>
       </defs>
       <use xlink:href="#DejaVuSans-31"/>
       <use xlink:href="#DejaVuSans-30" transform="translate(63.623047 0)"/>
      </g>
     </g>
    </g>
    <g id="xtick_4">
     <g id="text_4">
      <!-- 15 -->
      <g style="fill: #262626" transform="translate(508.39734 328.838281) scale(0.11 -0.11)">
       <use xlink:href="#DejaVuSans-31"/>
       <use xlink:href="#DejaVuSans-35" transform="translate(63.623047 0)"/>
      </g>
     </g>
    </g>
    <g id="xtick_5">
     <g id="text_5">
      <!-- 20 -->
      <g style="fill: #262626" transform="translate(649.571491 328.838281) scale(0.11 -0.11)">
       <defs>
        <path id="DejaVuSans-32" d="M 1228 531 
L 3431 531 
L 3431 0 
L 469 0 
L 469 531 
Q 828 903 1448 1529 
Q 2069 2156 2228 2338 
Q 2531 2678 2651 2914 
Q 2772 3150 2772 3378 
Q 2772 3750 2511 3984 
Q 2250 4219 1831 4219 
Q 1534 4219 1204 4116 
Q 875 4013 500 3803 
L 500 4441 
Q 881 4594 1212 4672 
Q 1544 4750 1819 4750 
Q 2544 4750 2975 4387 
Q 3406 4025 3406 3419 
Q 3406 3131 3298 2873 
Q 3191 2616 2906 2266 
Q 2828 2175 2409 1742 
Q 1991 1309 1228 531 
z
" transform="scale(0.015625)"/>
       </defs>
       <use xlink:href="#DejaVuSans-32"/>
       <use xlink:href="#DejaVuSans-30" transform="translate(63.623047 0)"/>
      </g>
     </g>
    </g>
    <g id="text_6">
     <!-- Time [days] -->
     <g style="fill: #262626" transform="translate(349.378125 344.244062) scale(0.12 -0.12)">
      <defs>
       <path id="DejaVuSans-54" d="M -19 4666 
L 3928 4666 
L 3928 4134 
L 2272 4134 
L 2272 0 
L 1638 0 
L 1638 4134 
L -19 4134 
L -19 4666 
z
" transform="scale(0.015625)"/>
       <path id="DejaVuSans-69" d="M 603 3500 
L 1178 3500 
L 1178 0 
L 603 0 
L 603 3500 
z
M 603 4863 
L 1178 4863 
L 1178 4134 
L 603 4134 
L 603 4863 
z
" transform="scale(0.015625)"/>
       <path id="DejaVuSans-6d" d="M 3328 2828 
Q 3544 3216 3844 3400 
Q 4144 3584 4550 3584 
Q 5097 3584 5394 3201 
Q 5691 2819 5691 2113 
L 5691 0 
L 5113 0 
L 5113 2094 
Q 5113 2597 4934 2840 
Q 4756 3084 4391 3084 
Q 3944 3084 3684 2787 
Q 3425 2491 3425 1978 
L 3425 0 
L 2847 0 
L 2847 2094 
Q 2847 2600 2669 2842 
Q 2491 3084 2119 3084 
Q 1678 3084 1418 2786 
Q 1159 2488 1159 1978 
L 1159 0 
L 581 0 
L 581 3500 
L 1159 3500 
L 1159 2956 
Q 1356 3278 1631 3431 
Q 1906 3584 2284 3584 
Q 2666 3584 2933 3390 
Q 3200 3197 3328 2828 
z
" transform="scale(0.015625)"/>
       <path id="DejaVuSans-65" d="M 3597 1894 
L 3597 1613 
L 953 1613 
Q 991 1019 1311 708 
Q 1631 397 2203 397 
Q 2534 397 2845 478 
Q 3156 559 3463 722 
L 3463 178 
Q 3153 47 2828 -22 
Q 2503 -91 2169 -91 
Q 1331 -91 842 396 
Q 353 884 353 1716 
Q 353 2575 817 3079 
Q 1281 3584 2069 3584 
Q 2775 3584 3186 3129 
Q 3597 2675 3597 1894 
z
M 3022 2063 
Q 3016 2534 2758 2815 
Q 2500 3097 2075 3097 
Q 1594 3097 1305 2825 
Q 1016 2553 972 2059 
L 3022 2063 
z
" transform="scale(0.015625)"/>
       <path id="DejaVuSans-20" transform="scale(0.015625)"/>
       <path id="DejaVuSans-5b" d="M 550 4863 
L 1875 4863 
L 1875 4416 
L 1125 4416 
L 1125 -397 
L 1875 -397 
L 1875 -844 
L 550 -844 
L 550 4863 
z
" transform="scale(0.015625)"/>
       <path id="DejaVuSans-64" d="M 2906 2969 
L 2906 4863 
L 3481 4863 
L 3481 0 
L 2906 0 
L 2906 525 
Q 2725 213 2448 61 
Q 2172 -91 1784 -91 
Q 1150 -91 751 415 
Q 353 922 353 1747 
Q 353 2572 751 3078 
Q 1150 3584 1784 3584 
Q 2172 3584 2448 3432 
Q 2725 3281 2906 2969 
z
M 947 1747 
Q 947 1113 1208 752 
Q 1469 391 1925 391 
Q 2381 391 2643 752 
Q 2906 1113 2906 1747 
Q 2906 2381 2643 2742 
Q 2381 3103 1925 3103 
Q 1469 3103 1208 2742 
Q 947 2381 947 1747 
z
" transform="scale(0.015625)"/>
       <path id="DejaVuSans-61" d="M 2194 1759 
Q 1497 1759 1228 1600 
Q 959 1441 959 1056 
Q 959 750 1161 570 
Q 1363 391 1709 391 
Q 2188 391 2477 730 
Q 2766 1069 2766 1631 
L 2766 1759 
L 2194 1759 
z
M 3341 1997 
L 3341 0 
L 2766 0 
L 2766 531 
Q 2569 213 2275 61 
Q 1981 -91 1556 -91 
Q 1019 -91 701 211 
Q 384 513 384 1019 
Q 384 1609 779 1909 
Q 1175 2209 1959 2209 
L 2766 2209 
L 2766 2266 
Q 2766 2663 2505 2880 
Q 2244 3097 1772 3097 
Q 1472 3097 1187 3025 
Q 903 2953 641 2809 
L 641 3341 
Q 956 3463 1253 3523 
Q 1550 3584 1831 3584 
Q 2591 3584 2966 3190 
Q 3341 2797 3341 1997 
z
" transform="scale(0.015625)"/>
       <path id="DejaVuSans-79" d="M 2059 -325 
Q 1816 -950 1584 -1140 
Q 1353 -1331 966 -1331 
L 506 -1331 
L 506 -850 
L 844 -850 
Q 1081 -850 1212 -737 
Q 1344 -625 1503 -206 
L 1606 56 
L 191 3500 
L 800 3500 
L 1894 763 
L 2988 3500 
L 3597 3500 
L 2059 -325 
z
" transform="scale(0.015625)"/>
       <path id="DejaVuSans-73" d="M 2834 3397 
L 2834 2853 
Q 2591 2978 2328 3040 
Q 2066 3103 1784 3103 
Q 1356 3103 1142 2972 
Q 928 2841 928 2578 
Q 928 2378 1081 2264 
Q 1234 2150 1697 2047 
L 1894 2003 
Q 2506 1872 2764 1633 
Q 3022 1394 3022 966 
Q 3022 478 2636 193 
Q 2250 -91 1575 -91 
Q 1294 -91 989 -36 
Q 684 19 347 128 
L 347 722 
Q 666 556 975 473 
Q 1284 391 1588 391 
Q 1994 391 2212 530 
Q 2431 669 2431 922 
Q 2431 1156 2273 1281 
Q 2116 1406 1581 1522 
L 1381 1569 
Q 847 1681 609 1914 
Q 372 2147 372 2553 
Q 372 3047 722 3315 
Q 1072 3584 1716 3584 
Q 2034 3584 2315 3537 
Q 2597 3491 2834 3397 
z
" transform="scale(0.015625)"/>
       <path id="DejaVuSans-5d" d="M 1947 4863 
L 1947 -844 
L 622 -844 
L 622 -397 
L 1369 -397 
L 1369 4416 
L 622 4416 
L 622 4863 
L 1947 4863 
z
" transform="scale(0.015625)"/>
      </defs>
      <use xlink:href="#DejaVuSans-54"/>
      <use xlink:href="#DejaVuSans-69" transform="translate(57.958984 0)"/>
      <use xlink:href="#DejaVuSans-6d" transform="translate(85.742188 0)"/>
      <use xlink:href="#DejaVuSans-65" transform="translate(183.154297 0)"/>
      <use xlink:href="#DejaVuSans-20" transform="translate(244.677734 0)"/>
      <use xlink:href="#DejaVuSans-5b" transform="translate(276.464844 0)"/>
      <use xlink:href="#DejaVuSans-64" transform="translate(315.478516 0)"/>
      <use xlink:href="#DejaVuSans-61" transform="translate(378.955078 0)"/>
      <use xlink:href="#DejaVuSans-79" transform="translate(440.234375 0)"/>
      <use xlink:href="#DejaVuSans-73" transform="translate(499.414062 0)"/>
      <use xlink:href="#DejaVuSans-5d" transform="translate(551.513672 0)"/>
     </g>
    </g>
   </g>
   <g id="matplotlib.axis_2">
    <g id="ytick_1">
     <g id="text_7">
      <!-- 0.00 -->
      <g style="fill: #262626" transform="translate(28.587812 302.30005) scale(0.11 -0.11)">
       <defs>
        <path id="DejaVuSans-2e" d="M 684 794 
L 1344 794 
L 1344 0 
L 684 0 
L 684 794 
z
" transform="scale(0.015625)"/>
       </defs>
       <use xlink:href="#DejaVuSans-30"/>
       <use xlink:href="#DejaVuSans-2e" transform="translate(63.623047 0)"/>
       <use xlink:href="#DejaVuSans-30" transform="translate(95.410156 0)"/>
       <use xlink:href="#DejaVuSans-30" transform="translate(159.033203 0)"/>
      </g>
     </g>
    </g>
    <g id="ytick_2">
     <g id="text_8">
      <!-- 0.05 -->
      <g style="fill: #262626" transform="translate(28.587812 246.391189) scale(0.11 -0.11)">
       <use xlink:href="#DejaVuSans-30"/>
       <use xlink:href="#DejaVuSans-2e" transform="translate(63.623047 0)"/>
       <use xlink:href="#DejaVuSans-30" transform="translate(95.410156 0)"/>
       <use xlink:href="#DejaVuSans-35" transform="translate(159.033203 0)"/>
      </g>
     </g>
    </g>
    <g id="ytick_3">
     <g id="text_9">
      <!-- 0.10 -->
      <g style="fill: #262626" transform="translate(28.587812 190.482329) scale(0.11 -0.11)">
       <use xlink:href="#DejaVuSans-30"/>
       <use xlink:href="#DejaVuSans-2e" transform="translate(63.623047 0)"/>
       <use xlink:href="#DejaVuSans-31" transform="translate(95.410156 0)"/>
       <use xlink:href="#DejaVuSans-30" transform="translate(159.033203 0)"/>
      </g>
     </g>
    </g>
    <g id="ytick_4">
     <g id="text_10">
      <!-- 0.15 -->
      <g style="fill: #262626" transform="translate(28.587812 134.573469) scale(0.11 -0.11)">
       <use xlink:href="#DejaVuSans-30"/>
       <use xlink:href="#DejaVuSans-2e" transform="translate(63.623047 0)"/>
       <use xlink:href="#DejaVuSans-31" transform="translate(95.410156 0)"/>
       <use xlink:href="#DejaVuSans-35" transform="translate(159.033203 0)"/>
      </g>
     </g>
    </g>
    <g id="ytick_5">
     <g id="text_11">
      <!-- 0.20 -->
      <g style="fill: #262626" transform="translate(28.587812 78.664608) scale(0.11 -0.11)">
       <use xlink:href="#DejaVuSans-30"/>
       <use xlink:href="#DejaVuSans-2e" transform="translate(63.623047 0)"/>
       <use xlink:href="#DejaVuSans-32" transform="translate(95.410156 0)"/>
       <use xlink:href="#DejaVuSans-30" transform="translate(159.033203 0)"/>
      </g>
     </g>
    </g>
    <g id="text_12">
     <!-- nRMSE -->
     <g style="fill: #262626" transform="translate(22.092187 190.27875) rotate(-90) scale(0.12 -0.12)">
      <defs>
       <path id="DejaVuSans-6e" d="M 3513 2113 
L 3513 0 
L 2938 0 
L 2938 2094 
Q 2938 2591 2744 2837 
Q 2550 3084 2163 3084 
Q 1697 3084 1428 2787 
Q 1159 2491 1159 1978 
L 1159 0 
L 581 0 
L 581 3500 
L 1159 3500 
L 1159 2956 
Q 1366 3272 1645 3428 
Q 1925 3584 2291 3584 
Q 2894 3584 3203 3211 
Q 3513 2838 3513 2113 
z
" transform="scale(0.015625)"/>
       <path id="DejaVuSans-52" d="M 2841 2188 
Q 3044 2119 3236 1894 
Q 3428 1669 3622 1275 
L 4263 0 
L 3584 0 
L 2988 1197 
Q 2756 1666 2539 1819 
Q 2322 1972 1947 1972 
L 1259 1972 
L 1259 0 
L 628 0 
L 628 4666 
L 2053 4666 
Q 2853 4666 3247 4331 
Q 3641 3997 3641 3322 
Q 3641 2881 3436 2590 
Q 3231 2300 2841 2188 
z
M 1259 4147 
L 1259 2491 
L 2053 2491 
Q 2509 2491 2742 2702 
Q 2975 2913 2975 3322 
Q 2975 3731 2742 3939 
Q 2509 4147 2053 4147 
L 1259 4147 
z
" transform="scale(0.015625)"/>
       <path id="DejaVuSans-4d" d="M 628 4666 
L 1569 4666 
L 2759 1491 
L 3956 4666 
L 4897 4666 
L 4897 0 
L 4281 0 
L 4281 4097 
L 3078 897 
L 2444 897 
L 1241 4097 
L 1241 0 
L 628 0 
L 628 4666 
z
" transform="scale(0.015625)"/>
       <path id="DejaVuSans-53" d="M 3425 4513 
L 3425 3897 
Q 3066 4069 2747 4153 
Q 2428 4238 2131 4238 
Q 1616 4238 1336 4038 
Q 1056 3838 1056 3469 
Q 1056 3159 1242 3001 
Q 1428 2844 1947 2747 
L 2328 2669 
Q 3034 2534 3370 2195 
Q 3706 1856 3706 1288 
Q 3706 609 3251 259 
Q 2797 -91 1919 -91 
Q 1588 -91 1214 -16 
Q 841 59 441 206 
L 441 856 
Q 825 641 1194 531 
Q 1563 422 1919 422 
Q 2459 422 2753 634 
Q 3047 847 3047 1241 
Q 3047 1584 2836 1778 
Q 2625 1972 2144 2069 
L 1759 2144 
Q 1053 2284 737 2584 
Q 422 2884 422 3419 
Q 422 4038 858 4394 
Q 1294 4750 2059 4750 
Q 2388 4750 2728 4690 
Q 3069 4631 3425 4513 
z
" transform="scale(0.015625)"/>
       <path id="DejaVuSans-45" d="M 628 4666 
L 3578 4666 
L 3578 4134 
L 1259 4134 
L 1259 2753 
L 3481 2753 
L 3481 2222 
L 1259 2222 
L 1259 531 
L 3634 531 
L 3634 0 
L 628 0 
L 628 4666 
z
" transform="scale(0.015625)"/>
      </defs>
      <use xlink:href="#DejaVuSans-6e"/>
      <use xlink:href="#DejaVuSans-52" transform="translate(63.378906 0)"/>
      <use xlink:href="#DejaVuSans-4d" transform="translate(132.861328 0)"/>
      <use xlink:href="#DejaVuSans-53" transform="translate(219.140625 0)"/>
      <use xlink:href="#DejaVuSans-45" transform="translate(282.617188 0)"/>
     </g>
    </g>
   </g>
   <g id="FillBetweenPolyCollection_1">
    <defs>
     <path id="m2d479ca9e1" d="M 91.873636 -61.879091 
L 91.873636 -61.879091 
L 94.226539 -63.0348 
L 96.579441 -64.190359 
L 98.932344 -65.345733 
L 101.285246 -66.500886 
L 103.638149 -67.655778 
L 105.991051 -68.810367 
L 108.343954 -69.964615 
L 110.696857 -71.11849 
L 113.049759 -72.271965 
L 115.402662 -73.425007 
L 117.755564 -74.577586 
L 120.108467 -75.729669 
L 122.461369 -76.881224 
L 124.814272 -78.032211 
L 127.167174 -79.182587 
L 129.520077 -80.332313 
L 131.872979 -81.481351 
L 134.225882 -82.629667 
L 136.578784 -83.777229 
L 138.931687 -84.924006 
L 141.284589 -86.069972 
L 143.637492 -87.215111 
L 145.990394 -88.359407 
L 148.343297 -89.502847 
L 150.696199 -90.64541 
L 153.049102 -91.787081 
L 155.402004 -92.927844 
L 157.754907 -94.067685 
L 160.107809 -95.206584 
L 162.460712 -96.344519 
L 164.813614 -97.48147 
L 167.166517 -98.617413 
L 169.519419 -99.752318 
L 171.872322 -100.886156 
L 174.225225 -102.018899 
L 176.578127 -103.150523 
L 178.93103 -104.281 
L 181.283932 -105.410305 
L 183.636835 -106.538416 
L 185.989737 -107.665307 
L 188.34264 -108.790951 
L 190.695542 -109.915328 
L 193.048445 -111.038419 
L 195.401347 -112.160211 
L 197.75425 -113.280692 
L 200.107152 -114.399853 
L 202.460055 -115.517687 
L 204.812957 -116.634187 
L 207.16586 -117.749341 
L 209.518762 -118.863131 
L 211.871665 -119.975542 
L 214.224567 -121.086563 
L 216.57747 -122.196184 
L 218.930372 -123.304399 
L 221.283275 -124.411204 
L 223.636177 -125.516589 
L 225.98908 -126.620544 
L 228.341982 -127.723064 
L 230.694885 -128.824151 
L 233.047788 -129.923809 
L 235.40069 -131.022046 
L 237.753593 -132.118869 
L 240.106495 -133.214292 
L 242.459398 -134.308326 
L 244.8123 -135.400993 
L 247.165203 -136.492323 
L 249.518105 -137.582356 
L 251.871008 -138.671126 
L 254.22391 -139.758667 
L 256.576813 -140.845017 
L 258.929715 -141.930218 
L 261.282618 -143.014319 
L 263.63552 -144.097373 
L 265.988423 -145.179434 
L 268.341325 -146.260556 
L 270.694228 -147.340785 
L 273.04713 -148.420169 
L 275.400033 -149.498762 
L 277.752935 -150.576611 
L 280.105838 -151.653774 
L 282.45874 -152.730313 
L 284.811643 -153.806265 
L 287.164545 -154.881671 
L 289.517448 -155.956574 
L 291.87035 -157.031023 
L 294.223253 -158.105067 
L 296.576156 -159.17875 
L 298.929058 -160.252119 
L 301.281961 -161.325222 
L 303.634863 -162.398095 
L 305.987766 -163.470775 
L 308.340668 -164.543306 
L 310.693571 -165.615736 
L 313.046473 -166.688118 
L 315.399376 -167.760503 
L 317.752278 -168.832937 
L 320.105181 -169.905466 
L 322.458083 -170.978128 
L 324.810986 -172.050956 
L 327.163888 -173.123989 
L 329.516791 -174.197271 
L 331.869693 -175.270851 
L 334.222596 -176.344783 
L 336.575498 -177.419111 
L 338.928401 -178.493857 
L 341.281303 -179.569027 
L 343.634206 -180.644618 
L 345.987108 -181.720621 
L 348.340011 -182.797038 
L 350.692913 -183.873872 
L 353.045816 -184.951115 
L 355.398719 -186.028764 
L 357.751621 -187.106811 
L 360.104524 -188.185241 
L 362.457426 -189.264027 
L 364.810329 -190.343129 
L 367.163231 -191.4225 
L 369.516134 -192.502098 
L 371.869036 -193.581914 
L 374.221939 -194.661926 
L 376.574841 -195.742108 
L 378.927744 -196.822442 
L 381.280646 -197.902921 
L 383.633549 -198.983543 
L 385.986451 -200.064287 
L 388.339354 -201.14511 
L 390.692256 -202.225963 
L 393.045159 -203.306804 
L 395.398061 -204.387588 
L 397.750964 -205.468245 
L 400.103866 -206.548699 
L 402.456769 -207.628894 
L 404.809671 -208.708768 
L 407.162574 -209.78824 
L 409.515476 -210.867208 
L 411.868379 -211.94556 
L 414.221281 -213.023173 
L 416.574184 -214.099931 
L 418.927087 -215.175716 
L 421.279989 -216.25042 
L 423.632892 -217.323939 
L 425.985794 -218.396191 
L 428.338697 -219.467074 
L 430.691599 -220.536471 
L 433.044502 -221.604258 
L 435.397404 -222.6703 
L 437.750307 -223.734471 
L 440.103209 -224.796654 
L 442.456112 -225.85674 
L 444.809014 -226.914647 
L 447.161917 -227.970301 
L 449.514819 -229.023628 
L 451.867722 -230.074526 
L 454.220624 -231.122856 
L 456.573527 -232.168463 
L 458.926429 -233.211171 
L 461.279332 -234.250806 
L 463.632234 -235.287203 
L 465.985137 -236.320202 
L 468.338039 -237.349664 
L 470.690942 -238.375451 
L 473.043844 -239.397402 
L 475.396747 -240.415327 
L 477.74965 -241.429018 
L 480.102552 -242.438238 
L 482.455455 -243.442752 
L 484.808357 -244.442342 
L 487.16126 -245.436811 
L 489.514162 -246.425983 
L 491.867065 -247.409722 
L 494.219967 -248.387897 
L 496.57287 -249.360352 
L 498.925772 -250.326904 
L 501.278675 -251.287352 
L 503.631577 -252.241491 
L 505.98448 -253.189109 
L 508.337382 -254.13 
L 510.690285 -255.063984 
L 513.043187 -255.990897 
L 515.39609 -256.910595 
L 517.748992 -257.822955 
L 520.101895 -258.727861 
L 522.454797 -259.625176 
L 524.8077 -260.514737 
L 527.160602 -261.396381 
L 529.513505 -262.269948 
L 531.866407 -263.13528 
L 534.21931 -263.99223 
L 536.572212 -264.840673 
L 538.925115 -265.680488 
L 541.278018 -266.511561 
L 543.63092 -267.333798 
L 545.983823 -268.147112 
L 548.336725 -268.951413 
L 550.689628 -269.746604 
L 553.04253 -270.532574 
L 555.395433 -271.309208 
L 557.748335 -272.076398 
L 560.101238 -272.834039 
L 562.45414 -273.582034 
L 564.807043 -274.320292 
L 567.159945 -275.048745 
L 569.512848 -275.767344 
L 571.86575 -276.476066 
L 574.218653 -277.174908 
L 576.571555 -277.863872 
L 578.924458 -278.542948 
L 581.27736 -279.212121 
L 583.630263 -279.871386 
L 585.983165 -280.520725 
L 588.336068 -281.160128 
L 590.68897 -281.789598 
L 593.041873 -282.409146 
L 595.394775 -283.01879 
L 597.747678 -283.618566 
L 600.100581 -284.208526 
L 602.453483 -284.788744 
L 604.806386 -285.359309 
L 607.159288 -285.92032 
L 609.512191 -286.471872 
L 611.865093 -287.014061 
L 614.217996 -287.546985 
L 616.570898 -288.070744 
L 618.923801 -288.585433 
L 621.276703 -289.091156 
L 623.629606 -289.588019 
L 625.982508 -290.076132 
L 628.335411 -290.555607 
L 630.688313 -291.026558 
L 633.041216 -291.489114 
L 635.394118 -291.943414 
L 637.747021 -292.389615 
L 640.099923 -292.827878 
L 642.452826 -293.258366 
L 644.805728 -293.681236 
L 647.158631 -294.096638 
L 649.511533 -294.504714 
L 651.864436 -294.905607 
L 654.217338 -295.299459 
L 656.570241 -295.686415 
L 658.923143 -296.066617 
L 661.276046 -296.440207 
L 663.628949 -296.80732 
L 665.981851 -297.168093 
L 668.334754 -297.522659 
L 670.687656 -297.871156 
L 673.040559 -298.213718 
L 675.393461 -298.55048 
L 677.746364 -298.88157 
L 677.746364 -339.240248 
L 677.746364 -339.240248 
L 675.393461 -339.450465 
L 673.040559 -339.654459 
L 670.687656 -339.85203 
L 668.334754 -340.042982 
L 665.981851 -340.227113 
L 663.628949 -340.404214 
L 661.276046 -340.574067 
L 658.923143 -340.736466 
L 656.570241 -340.89121 
L 654.217338 -341.038111 
L 651.864436 -341.176985 
L 649.511533 -341.307652 
L 647.158631 -341.429929 
L 644.805728 -341.543639 
L 642.452826 -341.648611 
L 640.099923 -341.744681 
L 637.747021 -341.831699 
L 635.394118 -341.909515 
L 633.041216 -341.977979 
L 630.688313 -342.036946 
L 628.335411 -342.086272 
L 625.982508 -342.125808 
L 623.629606 -342.155411 
L 621.276703 -342.17496 
L 618.923801 -342.184343 
L 616.570898 -342.183439 
L 614.217996 -342.172121 
L 611.865093 -342.150257 
L 609.512191 -342.117715 
L 607.159288 -342.07437 
L 604.806386 -342.020108 
L 602.453483 -341.954818 
L 600.100581 -341.878423 
L 597.747678 -341.790861 
L 595.394775 -341.692051 
L 593.041873 -341.581889 
L 590.68897 -341.46027 
L 588.336068 -341.327087 
L 585.983165 -341.182237 
L 583.630263 -341.025606 
L 581.27736 -340.857083 
L 578.924458 -340.676542 
L 576.571555 -340.483886 
L 574.218653 -340.279 
L 571.86575 -340.06177 
L 569.512848 -339.832083 
L 567.159945 -339.589832 
L 564.807043 -339.334907 
L 562.45414 -339.067205 
L 560.101238 -338.786609 
L 557.748335 -338.493011 
L 555.395433 -338.186297 
L 553.04253 -337.866344 
L 550.689628 -337.533024 
L 548.336725 -337.186194 
L 545.983823 -336.825708 
L 543.63092 -336.451457 
L 541.278018 -336.06332 
L 538.925115 -335.661192 
L 536.572212 -335.24496 
L 534.21931 -334.814486 
L 531.866407 -334.369636 
L 529.513505 -333.910269 
L 527.160602 -333.436235 
L 524.8077 -332.947392 
L 522.454797 -332.443599 
L 520.101895 -331.924704 
L 517.748992 -331.390574 
L 515.39609 -330.841103 
L 513.043187 -330.276176 
L 510.690285 -329.695682 
L 508.337382 -329.099515 
L 505.98448 -328.487559 
L 503.631577 -327.859698 
L 501.278675 -327.215834 
L 498.925772 -326.555874 
L 496.57287 -325.87973 
L 494.219967 -325.187318 
L 491.867065 -324.478551 
L 489.514162 -323.753359 
L 487.16126 -323.011623 
L 484.808357 -322.253271 
L 482.455455 -321.478242 
L 480.102552 -320.686481 
L 477.74965 -319.877932 
L 475.396747 -319.052543 
L 473.043844 -318.210229 
L 470.690942 -317.350956 
L 468.338039 -316.474684 
L 465.985137 -315.581385 
L 463.632234 -314.671045 
L 461.279332 -313.743638 
L 458.926429 -312.799137 
L 456.573527 -311.837531 
L 454.220624 -310.85881 
L 451.867722 -309.862958 
L 449.514819 -308.849963 
L 447.161917 -307.819799 
L 444.809014 -306.772471 
L 442.456112 -305.70799 
L 440.103209 -304.626375 
L 437.750307 -303.527653 
L 435.397404 -302.411848 
L 433.044502 -301.279016 
L 430.691599 -300.129226 
L 428.338697 -298.962543 
L 425.985794 -297.779047 
L 423.632892 -296.578828 
L 421.279989 -295.361999 
L 418.927087 -294.12868 
L 416.574184 -292.878996 
L 414.221281 -291.613086 
L 411.868379 -290.331097 
L 409.515476 -289.033189 
L 407.162574 -287.719509 
L 404.809671 -286.390207 
L 402.456769 -285.045447 
L 400.103866 -283.685401 
L 397.750964 -282.310251 
L 395.398061 -280.920184 
L 393.045159 -279.515388 
L 390.692256 -278.096049 
L 388.339354 -276.662351 
L 385.986451 -275.21448 
L 383.633549 -273.752629 
L 381.280646 -272.276995 
L 378.927744 -270.78778 
L 376.574841 -269.285199 
L 374.221939 -267.769477 
L 371.869036 -266.240845 
L 369.516134 -264.69953 
L 367.163231 -263.14577 
L 364.810329 -261.579813 
L 362.457426 -260.001908 
L 360.104524 -258.412311 
L 357.751621 -256.81129 
L 355.398719 -255.199111 
L 353.045816 -253.576049 
L 350.692913 -251.942382 
L 348.340011 -250.298385 
L 345.987108 -248.644337 
L 343.634206 -246.980519 
L 341.281303 -245.307217 
L 338.928401 -243.62471 
L 336.575498 -241.933276 
L 334.222596 -240.233195 
L 331.869693 -238.524745 
L 329.516791 -236.808203 
L 327.163888 -235.083847 
L 324.810986 -233.351956 
L 322.458083 -231.612803 
L 320.105181 -229.866659 
L 317.752278 -228.113794 
L 315.399376 -226.354484 
L 313.046473 -224.589004 
L 310.693571 -222.817615 
L 308.340668 -221.040586 
L 305.987766 -219.258191 
L 303.634863 -217.470704 
L 301.281961 -215.678402 
L 298.929058 -213.881553 
L 296.576156 -212.080433 
L 294.223253 -210.27531 
L 291.87035 -208.466451 
L 289.517448 -206.654118 
L 287.164545 -204.838575 
L 284.811643 -203.020095 
L 282.45874 -201.198947 
L 280.105838 -199.375399 
L 277.752935 -197.549716 
L 275.400033 -195.722156 
L 273.04713 -193.892978 
L 270.694228 -192.062438 
L 268.341325 -190.230804 
L 265.988423 -188.398334 
L 263.63552 -186.565283 
L 261.282618 -184.731895 
L 258.929715 -182.898415 
L 256.576813 -181.065082 
L 254.22391 -179.232134 
L 251.871008 -177.399811 
L 249.518105 -175.568344 
L 247.165203 -173.737955 
L 244.8123 -171.908857 
L 242.459398 -170.081263 
L 240.106495 -168.255376 
L 237.753593 -166.431406 
L 235.40069 -164.609563 
L 233.047788 -162.790055 
L 230.694885 -160.97308 
L 228.341982 -159.158834 
L 225.98908 -157.34751 
L 223.636177 -155.539298 
L 221.283275 -153.734386 
L 218.930372 -151.932956 
L 216.57747 -150.13519 
L 214.224567 -148.341262 
L 211.871665 -146.551336 
L 209.518762 -144.765569 
L 207.16586 -142.984121 
L 204.812957 -141.20713 
L 202.460055 -139.434728 
L 200.107152 -137.667046 
L 197.75425 -135.904217 
L 195.401347 -134.146362 
L 193.048445 -132.39359 
L 190.695542 -130.645998 
L 188.34264 -128.903662 
L 185.989737 -127.166654 
L 183.636835 -125.435042 
L 181.283932 -123.708883 
L 178.93103 -121.988226 
L 176.578127 -120.273124 
L 174.225225 -118.563613 
L 171.872322 -116.859723 
L 169.519419 -115.161471 
L 167.166517 -113.468864 
L 164.813614 -111.781906 
L 162.460712 -110.100589 
L 160.107809 -108.424895 
L 157.754907 -106.754793 
L 155.402004 -105.09024 
L 153.049102 -103.431184 
L 150.696199 -101.777562 
L 148.343297 -100.129305 
L 145.990394 -98.486331 
L 143.637492 -96.848556 
L 141.284589 -95.215895 
L 138.931687 -93.588254 
L 136.578784 -91.965545 
L 134.225882 -90.347669 
L 131.872979 -88.734523 
L 129.520077 -87.125976 
L 127.167174 -85.521883 
L 124.814272 -83.922099 
L 122.461369 -82.326469 
L 120.108467 -80.734836 
L 117.755564 -79.147031 
L 115.402662 -77.562883 
L 113.049759 -75.982207 
L 110.696857 -74.40482 
L 108.343954 -72.830533 
L 105.991051 -71.259147 
L 103.638149 -69.690446 
L 101.285246 -68.124208 
L 98.932344 -66.560197 
L 96.579441 -64.998172 
L 94.226539 -63.437887 
L 91.873636 -61.879091 
z
" style="stroke: #000000; stroke-opacity: 0.1"/>
    </defs>
    <g clip-path="url(#p2509692ae4)">
     <use xlink:href="#m2d479ca9e1" x="0" y="360" style="fill-opacity: 0.1; stroke: #000000; stroke-opacity: 0.1"/>
    </g>
   </g>
   <g id="FillBetweenPolyCollection_2">
    <defs>
     <path id="m5fb690f02d" d="M 91.873636 -61.879091 
L 91.873636 -61.879091 
L 94.226539 -62.715886 
L 96.579441 -63.546092 
L 98.932344 -64.369724 
L 101.285246 -65.18677 
L 103.638149 -65.997193 
L 105.991051 -66.800933 
L 108.343954 -67.597914 
L 110.696857 -68.388047 
L 113.049759 -69.171226 
L 115.402662 -69.947324 
L 117.755564 -70.716197 
L 120.108467 -71.47768 
L 122.461369 -72.231595 
L 124.814272 -72.977745 
L 127.167174 -73.715928 
L 129.520077 -74.445934 
L 131.872979 -75.16755 
L 134.225882 -75.880563 
L 136.578784 -76.584759 
L 138.931687 -77.279931 
L 141.284589 -77.965886 
L 143.637492 -78.642458 
L 145.990394 -79.309505 
L 148.343297 -79.966912 
L 150.696199 -80.614591 
L 153.049102 -81.252496 
L 155.402004 -81.880623 
L 157.754907 -82.499004 
L 160.107809 -83.107708 
L 162.460712 -83.706846 
L 164.813614 -84.296563 
L 167.166517 -84.877029 
L 169.519419 -85.448431 
L 171.872322 -86.01097 
L 174.225225 -86.564852 
L 176.578127 -87.110285 
L 178.93103 -87.647465 
L 181.283932 -88.176577 
L 183.636835 -88.697785 
L 185.989737 -89.211235 
L 188.34264 -89.717047 
L 190.695542 -90.215313 
L 193.048445 -90.706105 
L 195.401347 -91.18947 
L 197.75425 -91.665432 
L 200.107152 -92.133982 
L 202.460055 -92.595089 
L 204.812957 -93.048688 
L 207.16586 -93.494684 
L 209.518762 -93.932954 
L 211.871665 -94.363347 
L 214.224567 -94.785694 
L 216.57747 -95.199806 
L 218.930372 -95.605471 
L 221.283275 -96.002454 
L 223.636177 -96.390498 
L 225.98908 -96.769324 
L 228.341982 -97.138638 
L 230.694885 -97.498129 
L 233.047788 -97.847464 
L 235.40069 -98.186295 
L 237.753593 -98.514255 
L 240.106495 -98.830969 
L 242.459398 -99.136055 
L 244.8123 -99.42913 
L 247.165203 -99.709826 
L 249.518105 -99.977783 
L 251.871008 -100.232658 
L 254.22391 -100.474134 
L 256.576813 -100.701924 
L 258.929715 -100.915784 
L 261.282618 -101.115516 
L 263.63552 -101.30098 
L 265.988423 -101.472101 
L 268.341325 -101.628874 
L 270.694228 -101.771362 
L 273.04713 -101.89971 
L 275.400033 -102.014151 
L 277.752935 -102.114997 
L 280.105838 -102.202645 
L 282.45874 -102.277575 
L 284.811643 -102.340329 
L 287.164545 -102.391517 
L 289.517448 -102.431802 
L 291.87035 -102.461891 
L 294.223253 -102.482524 
L 296.576156 -102.494461 
L 298.929058 -102.498475 
L 301.281961 -102.495352 
L 303.634863 -102.48587 
L 305.987766 -102.47079 
L 308.340668 -102.450854 
L 310.693571 -102.426776 
L 313.046473 -102.399234 
L 315.399376 -102.368859 
L 317.752278 -102.336236 
L 320.105181 -102.301892 
L 322.458083 -102.266295 
L 324.810986 -102.229846 
L 327.163888 -102.192881 
L 329.516791 -102.155672 
L 331.869693 -102.118422 
L 334.222596 -102.081274 
L 336.575498 -102.044301 
L 338.928401 -102.007494 
L 341.281303 -101.970767 
L 343.634206 -101.933956 
L 345.987108 -101.896829 
L 348.340011 -101.859095 
L 350.692913 -101.820402 
L 353.045816 -101.780337 
L 355.398719 -101.738437 
L 357.751621 -101.694202 
L 360.104524 -101.647082 
L 362.457426 -101.596491 
L 364.810329 -101.541812 
L 367.163231 -101.482412 
L 369.516134 -101.417662 
L 371.869036 -101.346962 
L 374.221939 -101.26973 
L 376.574841 -101.18542 
L 378.927744 -101.09356 
L 381.280646 -100.993754 
L 383.633549 -100.885696 
L 385.986451 -100.769156 
L 388.339354 -100.643989 
L 390.692256 -100.510153 
L 393.045159 -100.367722 
L 395.398061 -100.216885 
L 397.750964 -100.057923 
L 400.103866 -99.891214 
L 402.456769 -99.717236 
L 404.809671 -99.536541 
L 407.162574 -99.349737 
L 409.515476 -99.157469 
L 411.868379 -98.960414 
L 414.221281 -98.759268 
L 416.574184 -98.554757 
L 418.927087 -98.347613 
L 421.279989 -98.138566 
L 423.632892 -97.928341 
L 425.985794 -97.717642 
L 428.338697 -97.507137 
L 430.691599 -97.297452 
L 433.044502 -97.089171 
L 435.397404 -96.882834 
L 437.750307 -96.678946 
L 440.103209 -96.477984 
L 442.456112 -96.280385 
L 444.809014 -96.086563 
L 447.161917 -95.896894 
L 449.514819 -95.711721 
L 451.867722 -95.531329 
L 454.220624 -95.355952 
L 456.573527 -95.185778 
L 458.926429 -95.020963 
L 461.279332 -94.861635 
L 463.632234 -94.7079 
L 465.985137 -94.559841 
L 468.338039 -94.417526 
L 470.690942 -94.28101 
L 473.043844 -94.15032 
L 475.396747 -94.025468 
L 477.74965 -93.906464 
L 480.102552 -93.793313 
L 482.455455 -93.686035 
L 484.808357 -93.584686 
L 487.16126 -93.489363 
L 489.514162 -93.400216 
L 491.867065 -93.317458 
L 494.219967 -93.241357 
L 496.57287 -93.172253 
L 498.925772 -93.110562 
L 501.278675 -93.056786 
L 503.631577 -93.011532 
L 505.98448 -92.975518 
L 508.337382 -92.949575 
L 510.690285 -92.934649 
L 513.043187 -92.931792 
L 515.39609 -92.942147 
L 517.748992 -92.966942 
L 520.101895 -93.007459 
L 522.454797 -93.065025 
L 524.8077 -93.141001 
L 527.160602 -93.236748 
L 529.513505 -93.353608 
L 531.866407 -93.49288 
L 534.21931 -93.655802 
L 536.572212 -93.843532 
L 538.925115 -94.057117 
L 541.278018 -94.297474 
L 543.63092 -94.565395 
L 545.983823 -94.861531 
L 548.336725 -95.186402 
L 550.689628 -95.5404 
L 553.04253 -95.923789 
L 555.395433 -96.336713 
L 557.748335 -96.779208 
L 560.101238 -97.2512 
L 562.45414 -97.752511 
L 564.807043 -98.282876 
L 567.159945 -98.841948 
L 569.512848 -99.429308 
L 571.86575 -100.044474 
L 574.218653 -100.686909 
L 576.571555 -101.356036 
L 578.924458 -102.051268 
L 581.27736 -102.772012 
L 583.630263 -103.517662 
L 585.983165 -104.287626 
L 588.336068 -105.081313 
L 590.68897 -105.898133 
L 593.041873 -106.737512 
L 595.394775 -107.598893 
L 597.747678 -108.481735 
L 600.100581 -109.385514 
L 602.453483 -110.309718 
L 604.806386 -111.253853 
L 607.159288 -112.21745 
L 609.512191 -113.200079 
L 611.865093 -114.201354 
L 614.217996 -115.220928 
L 616.570898 -116.258486 
L 618.923801 -117.313759 
L 621.276703 -118.386508 
L 623.629606 -119.476525 
L 625.982508 -120.583632 
L 628.335411 -121.707684 
L 630.688313 -122.848558 
L 633.041216 -124.006142 
L 635.394118 -125.180328 
L 637.747021 -126.371011 
L 640.099923 -127.578095 
L 642.452826 -128.801495 
L 644.805728 -130.041152 
L 647.158631 -131.297029 
L 649.511533 -132.569105 
L 651.864436 -133.857373 
L 654.217338 -135.161828 
L 656.570241 -136.48247 
L 658.923143 -137.8193 
L 661.276046 -139.172324 
L 663.628949 -140.54156 
L 665.981851 -141.927039 
L 668.334754 -143.328799 
L 670.687656 -144.746873 
L 673.040559 -146.181284 
L 675.393461 -147.632041 
L 677.746364 -149.099159 
L 677.746364 -323.671959 
L 677.746364 -323.671959 
L 675.393461 -319.566112 
L 673.040559 -315.476801 
L 670.687656 -311.404595 
L 668.334754 -307.35007 
L 665.981851 -303.313808 
L 663.628949 -299.2964 
L 661.276046 -295.298444 
L 658.923143 -291.320546 
L 656.570241 -287.363316 
L 654.217338 -283.427371 
L 651.864436 -279.513332 
L 649.511533 -275.62183 
L 647.158631 -271.753505 
L 644.805728 -267.909004 
L 642.452826 -264.08898 
L 640.099923 -260.294095 
L 637.747021 -256.525012 
L 635.394118 -252.782395 
L 633.041216 -249.066919 
L 630.688313 -245.379272 
L 628.335411 -241.720158 
L 625.982508 -238.090299 
L 623.629606 -234.490434 
L 621.276703 -230.921324 
L 618.923801 -227.383745 
L 616.570898 -223.878511 
L 614.217996 -220.406464 
L 611.865093 -216.968487 
L 609.512191 -213.565499 
L 607.159288 -210.198459 
L 604.806386 -206.868362 
L 602.453483 -203.576239 
L 600.100581 -200.323166 
L 597.747678 -197.11025 
L 595.394775 -193.938652 
L 593.041873 -190.809583 
L 590.68897 -187.724305 
L 588.336068 -184.684119 
L 585.983165 -181.690386 
L 583.630263 -178.744508 
L 581.27736 -175.847932 
L 578.924458 -173.002163 
L 576.571555 -170.208758 
L 574.218653 -167.469324 
L 571.86575 -164.78551 
L 569.512848 -162.159006 
L 567.159945 -159.591541 
L 564.807043 -157.084884 
L 562.45414 -154.64084 
L 560.101238 -152.261238 
L 557.748335 -149.947926 
L 555.395433 -147.702762 
L 553.04253 -145.527601 
L 550.689628 -143.42427 
L 548.336725 -141.394567 
L 545.983823 -139.440233 
L 543.63092 -137.562941 
L 541.278018 -135.764264 
L 538.925115 -134.045656 
L 536.572212 -132.408428 
L 534.21931 -130.853711 
L 531.866407 -129.382439 
L 529.513505 -127.99532 
L 527.160602 -126.692792 
L 524.8077 -125.475012 
L 522.454797 -124.341822 
L 520.101895 -123.292737 
L 517.748992 -122.326929 
L 515.39609 -121.443245 
L 513.043187 -120.640178 
L 510.690285 -119.915897 
L 508.337382 -119.268264 
L 505.98448 -118.694847 
L 503.631577 -118.19295 
L 501.278675 -117.759645 
L 498.925772 -117.391819 
L 496.57287 -117.0862 
L 494.219967 -116.839405 
L 491.867065 -116.647973 
L 489.514162 -116.508425 
L 487.16126 -116.417235 
L 484.808357 -116.370941 
L 482.455455 -116.366134 
L 480.102552 -116.399482 
L 477.74965 -116.467744 
L 475.396747 -116.56779 
L 473.043844 -116.696575 
L 470.690942 -116.851221 
L 468.338039 -117.028977 
L 465.985137 -117.22723 
L 463.632234 -117.443508 
L 461.279332 -117.675451 
L 458.926429 -117.920829 
L 456.573527 -118.17754 
L 454.220624 -118.443609 
L 451.867722 -118.71716 
L 449.514819 -118.996413 
L 447.161917 -119.279672 
L 444.809014 -119.565352 
L 442.456112 -119.85195 
L 440.103209 -120.13804 
L 437.750307 -120.422268 
L 435.397404 -120.703339 
L 433.044502 -120.980038 
L 430.691599 -121.251207 
L 428.338697 -121.515732 
L 425.985794 -121.772553 
L 423.632892 -122.020655 
L 421.279989 -122.259064 
L 418.927087 -122.486843 
L 416.574184 -122.703098 
L 414.221281 -122.906982 
L 411.868379 -123.097689 
L 409.515476 -123.274466 
L 407.162574 -123.436592 
L 404.809671 -123.583392 
L 402.456769 -123.714261 
L 400.103866 -123.828654 
L 397.750964 -123.926099 
L 395.398061 -124.006196 
L 393.045159 -124.068622 
L 390.692256 -124.113147 
L 388.339354 -124.13964 
L 385.986451 -124.148057 
L 383.633549 -124.138449 
L 381.280646 -124.110968 
L 378.927744 -124.065869 
L 376.574841 -124.003509 
L 374.221939 -123.92434 
L 371.869036 -123.82889 
L 369.516134 -123.717733 
L 367.163231 -123.591515 
L 364.810329 -123.450959 
L 362.457426 -123.296831 
L 360.104524 -123.129925 
L 357.751621 -122.951051 
L 355.398719 -122.761028 
L 353.045816 -122.560677 
L 350.692913 -122.350851 
L 348.340011 -122.132367 
L 345.987108 -121.906026 
L 343.634206 -121.672597 
L 341.281303 -121.432829 
L 338.928401 -121.187439 
L 336.575498 -120.937093 
L 334.222596 -120.682408 
L 331.869693 -120.42396 
L 329.516791 -120.162293 
L 327.163888 -119.897893 
L 324.810986 -119.631153 
L 322.458083 -119.362424 
L 320.105181 -119.092005 
L 317.752278 -118.820143 
L 315.399376 -118.546998 
L 313.046473 -118.272665 
L 310.693571 -117.9972 
L 308.340668 -117.72058 
L 305.987766 -117.442717 
L 303.634863 -117.163476 
L 301.281961 -116.882665 
L 298.929058 -116.600042 
L 296.576156 -116.315326 
L 294.223253 -116.028197 
L 291.87035 -115.738296 
L 289.517448 -115.445235 
L 287.164545 -115.148621 
L 284.811643 -114.848066 
L 282.45874 -114.543179 
L 280.105838 -114.233579 
L 277.752935 -113.918907 
L 275.400033 -113.598831 
L 273.04713 -113.273059 
L 270.694228 -112.941357 
L 268.341325 -112.603542 
L 265.988423 -112.259488 
L 263.63552 -111.909123 
L 261.282618 -111.552428 
L 258.929715 -111.189441 
L 256.576813 -110.820257 
L 254.22391 -110.44502 
L 251.871008 -110.063921 
L 249.518105 -109.677193 
L 247.165203 -109.285096 
L 244.8123 -108.887917 
L 242.459398 -108.485961 
L 240.106495 -108.079548 
L 237.753593 -107.669012 
L 235.40069 -107.254695 
L 233.047788 -106.836924 
L 230.694885 -106.41601 
L 228.341982 -105.992239 
L 225.98908 -105.565862 
L 223.636177 -105.13709 
L 221.283275 -104.706084 
L 218.930372 -104.272953 
L 216.57747 -103.837746 
L 214.224567 -103.40043 
L 211.871665 -102.9609 
L 209.518762 -102.518968 
L 207.16586 -102.074368 
L 204.812957 -101.626741 
L 202.460055 -101.175632 
L 200.107152 -100.720512 
L 197.75425 -100.260773 
L 195.401347 -99.795722 
L 193.048445 -99.324587 
L 190.695542 -98.846524 
L 188.34264 -98.36063 
L 185.989737 -97.86595 
L 183.636835 -97.361491 
L 181.283932 -96.846233 
L 178.93103 -96.319139 
L 176.578127 -95.779157 
L 174.225225 -95.225235 
L 171.872322 -94.65633 
L 169.519419 -94.071408 
L 167.166517 -93.469461 
L 164.813614 -92.849515 
L 162.460712 -92.210642 
L 160.107809 -91.551969 
L 157.754907 -90.872688 
L 155.402004 -90.172053 
L 153.049102 -89.449389 
L 150.696199 -88.704093 
L 148.343297 -87.935629 
L 145.990394 -87.143526 
L 143.637492 -86.327374 
L 141.284589 -85.486827 
L 138.931687 -84.621594 
L 136.578784 -83.731423 
L 134.225882 -82.816098 
L 131.872979 -81.875436 
L 129.520077 -80.909271 
L 127.167174 -79.917445 
L 124.814272 -78.899821 
L 122.461369 -77.85627 
L 120.108467 -76.786676 
L 117.755564 -75.690921 
L 115.402662 -74.568889 
L 113.049759 -73.420466 
L 110.696857 -72.245554 
L 108.343954 -71.044047 
L 105.991051 -69.815829 
L 103.638149 -68.560781 
L 101.285246 -67.278788 
L 98.932344 -65.969728 
L 96.579441 -64.633486 
L 94.226539 -63.269966 
L 91.873636 -61.879091 
z
" style="stroke: #a52a2a; stroke-opacity: 0.1"/>
    </defs>
    <g clip-path="url(#p2509692ae4)">
     <use xlink:href="#m5fb690f02d" x="0" y="360" style="fill: #a52a2a; fill-opacity: 0.1; stroke: #a52a2a; stroke-opacity: 0.1"/>
    </g>
   </g>
   <g id="FillBetweenPolyCollection_3">
    <defs>
     <path id="m1b4e053486" d="M 91.873636 -61.879091 
L 91.873636 -61.879091 
L 94.226539 -62.282939 
L 96.579441 -62.657615 
L 98.932344 -63.002995 
L 101.285246 -63.319082 
L 103.638149 -63.606015 
L 105.991051 -63.864086 
L 108.343954 -64.093755 
L 110.696857 -64.29566 
L 113.049759 -64.470634 
L 115.402662 -64.619708 
L 117.755564 -64.744128 
L 120.108467 -64.845371 
L 122.461369 -64.925159 
L 124.814272 -64.985474 
L 127.167174 -65.028566 
L 129.520077 -65.056929 
L 131.872979 -65.073205 
L 134.225882 -65.079902 
L 136.578784 -65.078782 
L 138.931687 -65.069984 
L 141.284589 -65.052496 
L 143.637492 -65.027396 
L 145.990394 -64.99862 
L 148.343297 -64.970225 
L 150.696199 -64.945206 
L 153.049102 -64.925675 
L 155.402004 -64.913103 
L 157.754907 -64.908455 
L 160.107809 -64.912247 
L 162.460712 -64.924582 
L 164.813614 -64.945209 
L 167.166517 -64.973563 
L 169.519419 -65.008846 
L 171.872322 -65.050102 
L 174.225225 -65.096299 
L 176.578127 -65.146398 
L 178.93103 -65.19941 
L 181.283932 -65.254449 
L 183.636835 -65.310766 
L 185.989737 -65.367765 
L 188.34264 -65.425024 
L 190.695542 -65.48229 
L 193.048445 -65.539486 
L 195.401347 -65.59669 
L 197.75425 -65.654122 
L 200.107152 -65.712108 
L 202.460055 -65.771042 
L 204.812957 -65.831309 
L 207.16586 -65.893186 
L 209.518762 -65.956691 
L 211.871665 -66.021378 
L 214.224567 -66.086121 
L 216.57747 -66.149072 
L 218.930372 -66.208053 
L 221.283275 -66.261516 
L 223.636177 -66.309497 
L 225.98908 -66.353635 
L 228.341982 -66.396295 
L 230.694885 -66.439639 
L 233.047788 -66.485184 
L 235.40069 -66.533741 
L 237.753593 -66.585527 
L 240.106495 -66.640293 
L 242.459398 -66.697452 
L 244.8123 -66.756173 
L 247.165203 -66.815466 
L 249.518105 -66.87424 
L 251.871008 -66.931365 
L 254.22391 -66.985714 
L 256.576813 -67.036198 
L 258.929715 -67.081798 
L 261.282618 -67.121577 
L 263.63552 -67.154707 
L 265.988423 -67.180484 
L 268.341325 -67.198326 
L 270.694228 -67.20779 
L 273.04713 -67.208559 
L 275.400033 -67.200451 
L 277.752935 -67.183417 
L 280.105838 -67.157542 
L 282.45874 -67.123035 
L 284.811643 -67.080242 
L 287.164545 -67.02963 
L 289.517448 -66.971777 
L 291.87035 -66.907378 
L 294.223253 -66.837241 
L 296.576156 -66.762282 
L 298.929058 -66.683533 
L 301.281961 -66.602136 
L 303.634863 -66.519345 
L 305.987766 -66.436509 
L 308.340668 -66.355063 
L 310.693571 -66.276515 
L 313.046473 -66.202422 
L 315.399376 -66.13436 
L 317.752278 -66.073888 
L 320.105181 -66.022496 
L 322.458083 -65.981536 
L 324.810986 -65.952155 
L 327.163888 -65.93523 
L 329.516791 -65.931303 
L 331.869693 -65.940546 
L 334.222596 -65.962739 
L 336.575498 -65.997286 
L 338.928401 -66.043255 
L 341.281303 -66.099426 
L 343.634206 -66.164357 
L 345.987108 -66.236459 
L 348.340011 -66.314071 
L 350.692913 -66.395537 
L 353.045816 -66.479262 
L 355.398719 -66.563757 
L 357.751621 -66.647675 
L 360.104524 -66.729835 
L 362.457426 -66.809242 
L 364.810329 -66.885106 
L 367.163231 -66.95684 
L 369.516134 -67.024049 
L 371.869036 -67.086503 
L 374.221939 -67.144083 
L 376.574841 -67.196711 
L 378.927744 -67.244278 
L 381.280646 -67.286546 
L 383.633549 -67.323006 
L 385.986451 -67.352655 
L 388.339354 -67.373673 
L 390.692256 -67.383197 
L 393.045159 -67.377809 
L 395.398061 -67.354994 
L 397.750964 -67.314154 
L 400.103866 -67.256065 
L 402.456769 -67.181926 
L 404.809671 -67.092963 
L 407.162574 -66.990422 
L 409.515476 -66.875668 
L 411.868379 -66.750267 
L 414.221281 -66.616027 
L 416.574184 -66.475016 
L 418.927087 -66.329551 
L 421.279989 -66.182164 
L 423.632892 -66.035545 
L 425.985794 -65.892458 
L 428.338697 -65.755671 
L 430.691599 -65.62785 
L 433.044502 -65.511433 
L 435.397404 -65.408527 
L 437.750307 -65.320797 
L 440.103209 -65.249386 
L 442.456112 -65.194866 
L 444.809014 -65.157208 
L 447.161917 -65.135802 
L 449.514819 -65.1295 
L 451.867722 -65.136712 
L 454.220624 -65.155507 
L 456.573527 -65.18369 
L 458.926429 -65.21893 
L 461.279332 -65.258854 
L 463.632234 -65.301145 
L 465.985137 -65.343634 
L 468.338039 -65.384346 
L 470.690942 -65.421565 
L 473.043844 -65.453884 
L 475.396747 -65.480231 
L 477.74965 -65.499876 
L 480.102552 -65.512453 
L 482.455455 -65.517974 
L 484.808357 -65.516825 
L 487.16126 -65.509774 
L 489.514162 -65.497994 
L 491.867065 -65.483068 
L 494.219967 -65.467009 
L 496.57287 -65.452238 
L 498.925772 -65.441563 
L 501.278675 -65.438107 
L 503.631577 -65.445191 
L 505.98448 -65.46617 
L 508.337382 -65.504237 
L 510.690285 -65.562204 
L 513.043187 -65.642274 
L 515.39609 -65.745858 
L 517.748992 -65.873445 
L 520.101895 -66.024558 
L 522.454797 -66.197742 
L 524.8077 -66.390616 
L 527.160602 -66.599952 
L 529.513505 -66.821759 
L 531.866407 -67.051508 
L 534.21931 -67.284697 
L 536.572212 -67.51795 
L 538.925115 -67.750042 
L 541.278018 -67.981781 
L 543.63092 -68.214701 
L 545.983823 -68.449837 
L 548.336725 -68.687273 
L 550.689628 -68.926262 
L 553.04253 -69.165524 
L 555.395433 -69.403508 
L 557.748335 -69.638626 
L 560.101238 -69.869378 
L 562.45414 -70.094437 
L 564.807043 -70.312734 
L 567.159945 -70.523487 
L 569.512848 -70.726193 
L 571.86575 -70.920622 
L 574.218653 -71.106778 
L 576.571555 -71.284839 
L 578.924458 -71.455092 
L 581.27736 -71.617908 
L 583.630263 -71.773726 
L 585.983165 -71.922993 
L 588.336068 -72.066176 
L 590.68897 -72.203761 
L 593.041873 -72.336218 
L 595.394775 -72.464005 
L 597.747678 -72.587578 
L 600.100581 -72.707388 
L 602.453483 -72.823883 
L 604.806386 -72.93749 
L 607.159288 -73.048605 
L 609.512191 -73.157554 
L 611.865093 -73.264587 
L 614.217996 -73.369887 
L 616.570898 -73.47357 
L 618.923801 -73.575663 
L 621.276703 -73.676128 
L 623.629606 -73.774868 
L 625.982508 -73.871713 
L 628.335411 -73.966436 
L 630.688313 -74.05876 
L 633.041216 -74.148384 
L 635.394118 -74.235 
L 637.747021 -74.318316 
L 640.099923 -74.39807 
L 642.452826 -74.474045 
L 644.805728 -74.546087 
L 647.158631 -74.614149 
L 649.511533 -74.67834 
L 651.864436 -74.738958 
L 654.217338 -74.796551 
L 656.570241 -74.851952 
L 658.923143 -74.906317 
L 661.276046 -74.961156 
L 663.628949 -75.018363 
L 665.981851 -75.080238 
L 668.334754 -75.149486 
L 670.687656 -75.229203 
L 673.040559 -75.322828 
L 675.393461 -75.43407 
L 677.746364 -75.566834 
L 677.746364 -91.33216 
L 677.746364 -91.33216 
L 675.393461 -90.844253 
L 673.040559 -90.376269 
L 670.687656 -89.926309 
L 668.334754 -89.492359 
L 665.981851 -89.072309 
L 663.628949 -88.663998 
L 661.276046 -88.265224 
L 658.923143 -87.873808 
L 656.570241 -87.487637 
L 654.217338 -87.104706 
L 651.864436 -86.723144 
L 649.511533 -86.34124 
L 647.158631 -85.957482 
L 644.805728 -85.570585 
L 642.452826 -85.179506 
L 640.099923 -84.783451 
L 637.747021 -84.381882 
L 635.394118 -83.974518 
L 633.041216 -83.561307 
L 630.688313 -83.142418 
L 628.335411 -82.718211 
L 625.982508 -82.289211 
L 623.629606 -81.856083 
L 621.276703 -81.419619 
L 618.923801 -80.980707 
L 616.570898 -80.540284 
L 614.217996 -80.099307 
L 611.865093 -79.658721 
L 609.512191 -79.219439 
L 607.159288 -78.782312 
L 604.806386 -78.348118 
L 602.453483 -77.91755 
L 600.100581 -77.491227 
L 597.747678 -77.069669 
L 595.394775 -76.653274 
L 593.041873 -76.24233 
L 590.68897 -75.837029 
L 588.336068 -75.437476 
L 585.983165 -75.043712 
L 583.630263 -74.655714 
L 581.27736 -74.273409 
L 578.924458 -73.896685 
L 576.571555 -73.525443 
L 574.218653 -73.159575 
L 571.86575 -72.798974 
L 569.512848 -72.443544 
L 567.159945 -72.09318 
L 564.807043 -71.747773 
L 562.45414 -71.407219 
L 560.101238 -71.071414 
L 557.748335 -70.740304 
L 555.395433 -70.413934 
L 553.04253 -70.092523 
L 550.689628 -69.776574 
L 548.336725 -69.467039 
L 545.983823 -69.165517 
L 543.63092 -68.874538 
L 541.278018 -68.5978 
L 538.925115 -68.340269 
L 536.572212 -68.107665 
L 534.21931 -67.905144 
L 531.866407 -67.735865 
L 529.513505 -67.600698 
L 527.160602 -67.499062 
L 524.8077 -67.429789 
L 522.454797 -67.391472 
L 520.101895 -67.382473 
L 517.748992 -67.400849 
L 515.39609 -67.444311 
L 513.043187 -67.510242 
L 510.690285 -67.595786 
L 508.337382 -67.697938 
L 505.98448 -67.813629 
L 503.631577 -67.939815 
L 501.278675 -68.073545 
L 498.925772 -68.212002 
L 496.57287 -68.352528 
L 494.219967 -68.492644 
L 491.867065 -68.63006 
L 489.514162 -68.762686 
L 487.16126 -68.888635 
L 484.808357 -69.006212 
L 482.455455 -69.113917 
L 480.102552 -69.210438 
L 477.74965 -69.294662 
L 475.396747 -69.365666 
L 473.043844 -69.422726 
L 470.690942 -69.465327 
L 468.338039 -69.493157 
L 465.985137 -69.506126 
L 463.632234 -69.504359 
L 461.279332 -69.48819 
L 458.926429 -69.458162 
L 456.573527 -69.415034 
L 454.220624 -69.359793 
L 451.867722 -69.293613 
L 449.514819 -69.217843 
L 447.161917 -69.133983 
L 444.809014 -69.043645 
L 442.456112 -68.948494 
L 440.103209 -68.850202 
L 437.750307 -68.750388 
L 435.397404 -68.650565 
L 433.044502 -68.552116 
L 430.691599 -68.456247 
L 428.338697 -68.36398 
L 425.985794 -68.27616 
L 423.632892 -68.193448 
L 421.279989 -68.116329 
L 418.927087 -68.045101 
L 416.574184 -67.979879 
L 414.221281 -67.920622 
L 411.868379 -67.867147 
L 409.515476 -67.819157 
L 407.162574 -67.776284 
L 404.809671 -67.738144 
L 402.456769 -67.704414 
L 400.103866 -67.674928 
L 397.750964 -67.64979 
L 395.398061 -67.629374 
L 393.045159 -67.613929 
L 390.692256 -67.602642 
L 388.339354 -67.593087 
L 385.986451 -67.582229 
L 383.633549 -67.567877 
L 381.280646 -67.549141 
L 378.927744 -67.526205 
L 376.574841 -67.499974 
L 374.221939 -67.471834 
L 371.869036 -67.443486 
L 369.516134 -67.416825 
L 367.163231 -67.393842 
L 364.810329 -67.376515 
L 362.457426 -67.36671 
L 360.104524 -67.366122 
L 357.751621 -67.376222 
L 355.398719 -67.398219 
L 353.045816 -67.43304 
L 350.692913 -67.481316 
L 348.340011 -67.543375 
L 345.987108 -67.619245 
L 343.634206 -67.708657 
L 341.281303 -67.811067 
L 338.928401 -67.925704 
L 336.575498 -68.051607 
L 334.222596 -68.187674 
L 331.869693 -68.332702 
L 329.516791 -68.485428 
L 327.163888 -68.644555 
L 324.810986 -68.808762 
L 322.458083 -68.976721 
L 320.105181 -69.147105 
L 317.752278 -69.31858 
L 315.399376 -69.489796 
L 313.046473 -69.659399 
L 310.693571 -69.826034 
L 308.340668 -69.98832 
L 305.987766 -70.144857 
L 303.634863 -70.294228 
L 301.281961 -70.435013 
L 298.929058 -70.5658 
L 296.576156 -70.685187 
L 294.223253 -70.791808 
L 291.87035 -70.884341 
L 289.517448 -70.96153 
L 287.164545 -71.022198 
L 284.811643 -71.065268 
L 282.45874 -71.089778 
L 280.105838 -71.09491 
L 277.752935 -71.080004 
L 275.400033 -71.044582 
L 273.04713 -70.988361 
L 270.694228 -70.911275 
L 268.341325 -70.813481 
L 265.988423 -70.69539 
L 263.63552 -70.557673 
L 261.282618 -70.401275 
L 258.929715 -70.22742 
L 256.576813 -70.037617 
L 254.22391 -69.833647 
L 251.871008 -69.617566 
L 249.518105 -69.391697 
L 247.165203 -69.158609 
L 244.8123 -68.921091 
L 242.459398 -68.682122 
L 240.106495 -68.44484 
L 237.753593 -68.212506 
L 235.40069 -67.988458 
L 233.047788 -67.776077 
L 230.694885 -67.578778 
L 228.341982 -67.4 
L 225.98908 -67.24317 
L 223.636177 -67.11154 
L 221.283275 -67.007669 
L 218.930372 -66.932481 
L 216.57747 -66.884419 
L 214.224567 -66.859563 
L 211.871665 -66.852734 
L 209.518762 -66.858637 
L 207.16586 -66.872458 
L 204.812957 -66.89 
L 202.460055 -66.907637 
L 200.107152 -66.922249 
L 197.75425 -66.931168 
L 195.401347 -66.932161 
L 193.048445 -66.923416 
L 190.695542 -66.903529 
L 188.34264 -66.871501 
L 185.989737 -66.82673 
L 183.636835 -66.769003 
L 181.283932 -66.698486 
L 178.93103 -66.615724 
L 176.578127 -66.521637 
L 174.225225 -66.41751 
L 171.872322 -66.304988 
L 169.519419 -66.186071 
L 167.166517 -66.063087 
L 164.813614 -65.93866 
L 162.460712 -65.815638 
L 160.107809 -65.697004 
L 157.754907 -65.585741 
L 155.402004 -65.484658 
L 153.049102 -65.396197 
L 150.696199 -65.322252 
L 148.343297 -65.264034 
L 145.990394 -65.222102 
L 143.637492 -65.196605 
L 141.284589 -65.187537 
L 138.931687 -65.193751 
L 136.578784 -65.210475 
L 134.225882 -65.230338 
L 131.872979 -65.246874 
L 129.520077 -65.255203 
L 127.167174 -65.251342 
L 124.814272 -65.231739 
L 122.461369 -65.193081 
L 120.108467 -65.132265 
L 117.755564 -65.046399 
L 115.402662 -64.93283 
L 113.049759 -64.789165 
L 110.696857 -64.613292 
L 108.343954 -64.403368 
L 105.991051 -64.157819 
L 103.638149 -63.875323 
L 101.285246 -63.55481 
L 98.932344 -63.195441 
L 96.579441 -62.796601 
L 94.226539 -62.357885 
L 91.873636 -61.879091 
z
" style="stroke: #000080; stroke-opacity: 0.1"/>
    </defs>
    <g clip-path="url(#p2509692ae4)">
     <use xlink:href="#m1b4e053486" x="0" y="360" style="fill: #000080; fill-opacity: 0.1; stroke: #000080; stroke-opacity: 0.1"/>
    </g>
   </g>
   <g id="FillBetweenPolyCollection_4">
    <defs>
     <path id="md3589fe1d6" d="M 91.873636 -61.879091 
L 91.873636 -61.879091 
L 94.226539 -62.461832 
L 96.579441 -63.027902 
L 98.932344 -63.577841 
L 101.285246 -64.112294 
L 103.638149 -64.631997 
L 105.991051 -65.137774 
L 108.343954 -65.630521 
L 110.696857 -66.111191 
L 113.049759 -66.580764 
L 115.402662 -67.040223 
L 117.755564 -67.490524 
L 120.108467 -67.932566 
L 122.461369 -68.367158 
L 124.814272 -68.794998 
L 127.167174 -69.216641 
L 129.520077 -69.632482 
L 131.872979 -70.042738 
L 134.225882 -70.447442 
L 136.578784 -70.846431 
L 138.931687 -71.239352 
L 141.284589 -71.625668 
L 143.637492 -72.004673 
L 145.990394 -72.375506 
L 148.343297 -72.737174 
L 150.696199 -73.088572 
L 153.049102 -73.428513 
L 155.402004 -73.755759 
L 157.754907 -74.069047 
L 160.107809 -74.367117 
L 162.460712 -74.648742 
L 164.813614 -74.912759 
L 167.166517 -75.15809 
L 169.519419 -75.383771 
L 171.872322 -75.588978 
L 174.225225 -75.77305 
L 176.578127 -75.935513 
L 178.93103 -76.076103 
L 181.283932 -76.194782 
L 183.636835 -76.291766 
L 185.989737 -76.367534 
L 188.34264 -76.422849 
L 190.695542 -76.458772 
L 193.048445 -76.47668 
L 195.401347 -76.478268 
L 197.75425 -76.465557 
L 200.107152 -76.440888 
L 202.460055 -76.406911 
L 204.812957 -76.36656 
L 207.16586 -76.323015 
L 209.518762 -76.279652 
L 211.871665 -76.239989 
L 214.224567 -76.207601 
L 216.57747 -76.18603 
L 218.930372 -76.178683 
L 221.283275 -76.188722 
L 223.636177 -76.218958 
L 225.98908 -76.271754 
L 228.341982 -76.348953 
L 230.694885 -76.451812 
L 233.047788 -76.580977 
L 235.40069 -76.736475 
L 237.753593 -76.917739 
L 240.106495 -77.123653 
L 242.459398 -77.352622 
L 244.8123 -77.602648 
L 247.165203 -77.871422 
L 249.518105 -78.156413 
L 251.871008 -78.454956 
L 254.22391 -78.764342 
L 256.576813 -79.081895 
L 258.929715 -79.40505 
L 261.282618 -79.731413 
L 263.63552 -80.058812 
L 265.988423 -80.385352 
L 268.341325 -80.709444 
L 270.694228 -81.029833 
L 273.04713 -81.345619 
L 275.400033 -81.656267 
L 277.752935 -81.961609 
L 280.105838 -82.261846 
L 282.45874 -82.557528 
L 284.811643 -82.849545 
L 287.164545 -83.139091 
L 289.517448 -83.427636 
L 291.87035 -83.716884 
L 294.223253 -84.008728 
L 296.576156 -84.305194 
L 298.929058 -84.608386 
L 301.281961 -84.920419 
L 303.634863 -85.243352 
L 305.987766 -85.579115 
L 308.340668 -85.929445 
L 310.693571 -86.29581 
L 313.046473 -86.679353 
L 315.399376 -87.080823 
L 317.752278 -87.500525 
L 320.105181 -87.938262 
L 322.458083 -88.393279 
L 324.810986 -88.864176 
L 327.163888 -89.348793 
L 329.516791 -89.843958 
L 331.869693 -90.344996 
L 334.222596 -90.844654 
L 336.575498 -91.330902 
L 338.928401 -91.783761 
L 341.281303 -92.177765 
L 343.634206 -92.501968 
L 345.987108 -92.771855 
L 348.340011 -93.008444 
L 350.692913 -93.224203 
L 353.045816 -93.424379 
L 355.398719 -93.61037 
L 357.751621 -93.781677 
L 360.104524 -93.936841 
L 362.457426 -94.073922 
L 364.810329 -94.190747 
L 367.163231 -94.285055 
L 369.516134 -94.354594 
L 371.869036 -94.397183 
L 374.221939 -94.410763 
L 376.574841 -94.393433 
L 378.927744 -94.343479 
L 381.280646 -94.259396 
L 383.633549 -94.139916 
L 385.986451 -93.984019 
L 388.339354 -93.790952 
L 390.692256 -93.560239 
L 393.045159 -93.291694 
L 395.398061 -92.985431 
L 397.750964 -92.641865 
L 400.103866 -92.261722 
L 402.456769 -91.846036 
L 404.809671 -91.396152 
L 407.162574 -90.913719 
L 409.515476 -90.400686 
L 411.868379 -89.859291 
L 414.221281 -89.29204 
L 416.574184 -88.701689 
L 418.927087 -88.09122 
L 421.279989 -87.463813 
L 423.632892 -86.82281 
L 425.985794 -86.171677 
L 428.338697 -85.513961 
L 430.691599 -84.85324 
L 433.044502 -84.19307 
L 435.397404 -83.536937 
L 437.750307 -82.888195 
L 440.103209 -82.250009 
L 442.456112 -81.625302 
L 444.809014 -81.016692 
L 447.161917 -80.426451 
L 449.514819 -79.85646 
L 451.867722 -79.308178 
L 454.220624 -78.782618 
L 456.573527 -78.280352 
L 458.926429 -77.801516 
L 461.279332 -77.345842 
L 463.632234 -76.9127 
L 465.985137 -76.501156 
L 468.338039 -76.110045 
L 470.690942 -75.738084 
L 473.043844 -75.383956 
L 475.396747 -75.046412 
L 477.74965 -74.724372 
L 480.102552 -74.416981 
L 482.455455 -74.123736 
L 484.808357 -73.844524 
L 487.16126 -73.579662 
L 489.514162 -73.329925 
L 491.867065 -73.096544 
L 494.219967 -72.881169 
L 496.57287 -72.685893 
L 498.925772 -72.513157 
L 501.278675 -72.365666 
L 503.631577 -72.24627 
L 505.98448 -72.157823 
L 508.337382 -72.103027 
L 510.690285 -72.084254 
L 513.043187 -72.1034 
L 515.39609 -72.161735 
L 517.748992 -72.259804 
L 520.101895 -72.397367 
L 522.454797 -72.573389 
L 524.8077 -72.786074 
L 527.160602 -73.032947 
L 529.513505 -73.310978 
L 531.866407 -73.61672 
L 534.21931 -73.946445 
L 536.572212 -74.296287 
L 538.925115 -74.662354 
L 541.278018 -75.040818 
L 543.63092 -75.427996 
L 545.983823 -75.820397 
L 548.336725 -76.214757 
L 550.689628 -76.608062 
L 553.04253 -76.997569 
L 555.395433 -77.380813 
L 557.748335 -77.755617 
L 560.101238 -78.120092 
L 562.45414 -78.472631 
L 564.807043 -78.811921 
L 567.159945 -79.136933 
L 569.512848 -79.446918 
L 571.86575 -79.741402 
L 574.218653 -80.02018 
L 576.571555 -80.2833 
L 578.924458 -80.531044 
L 581.27736 -80.763915 
L 583.630263 -80.982626 
L 585.983165 -81.188086 
L 588.336068 -81.381386 
L 590.68897 -81.563783 
L 593.041873 -81.73667 
L 595.394775 -81.901559 
L 597.747678 -82.060056 
L 600.100581 -82.213837 
L 602.453483 -82.364607 
L 604.806386 -82.51407 
L 607.159288 -82.663905 
L 609.512191 -82.815736 
L 611.865093 -82.971089 
L 614.217996 -83.131374 
L 616.570898 -83.297865 
L 618.923801 -83.471681 
L 621.276703 -83.653768 
L 623.629606 -83.844901 
L 625.982508 -84.04567 
L 628.335411 -84.256506 
L 630.688313 -84.477699 
L 633.041216 -84.70941 
L 635.394118 -84.95169 
L 637.747021 -85.204517 
L 640.099923 -85.467832 
L 642.452826 -85.741547 
L 644.805728 -86.025584 
L 647.158631 -86.319928 
L 649.511533 -86.624658 
L 651.864436 -86.939963 
L 654.217338 -87.26616 
L 656.570241 -87.603713 
L 658.923143 -87.953241 
L 661.276046 -88.31553 
L 663.628949 -88.691531 
L 665.981851 -89.082353 
L 668.334754 -89.489245 
L 670.687656 -89.913568 
L 673.040559 -90.356748 
L 675.393461 -90.820248 
L 677.746364 -91.305545 
L 677.746364 -109.888984 
L 677.746364 -109.888984 
L 675.393461 -109.086437 
L 673.040559 -108.293928 
L 670.687656 -107.511891 
L 668.334754 -106.740819 
L 665.981851 -105.981247 
L 663.628949 -105.233766 
L 661.276046 -104.498996 
L 658.923143 -103.777595 
L 656.570241 -103.070254 
L 654.217338 -102.377687 
L 651.864436 -101.700614 
L 649.511533 -101.039734 
L 647.158631 -100.39573 
L 644.805728 -99.769257 
L 642.452826 -99.160917 
L 640.099923 -98.571242 
L 637.747021 -98.000679 
L 635.394118 -97.449575 
L 633.041216 -96.918162 
L 630.688313 -96.40654 
L 628.335411 -95.914655 
L 625.982508 -95.442292 
L 623.629606 -94.989064 
L 621.276703 -94.554405 
L 618.923801 -94.137578 
L 616.570898 -93.737663 
L 614.217996 -93.353561 
L 611.865093 -92.984002 
L 609.512191 -92.627556 
L 607.159288 -92.282642 
L 604.806386 -91.947565 
L 602.453483 -91.620538 
L 600.100581 -91.299722 
L 597.747678 -90.983245 
L 595.394775 -90.669215 
L 593.041873 -90.355764 
L 590.68897 -90.041071 
L 588.336068 -89.723391 
L 585.983165 -89.401084 
L 583.630263 -89.072633 
L 581.27736 -88.736667 
L 578.924458 -88.391984 
L 576.571555 -88.037597 
L 574.218653 -87.672736 
L 571.86575 -87.296869 
L 569.512848 -86.909721 
L 567.159945 -86.511284 
L 564.807043 -86.101828 
L 562.45414 -85.681922 
L 560.101238 -85.252427 
L 557.748335 -84.81451 
L 555.395433 -84.369643 
L 553.04253 -83.919586 
L 550.689628 -83.466387 
L 548.336725 -83.012365 
L 545.983823 -82.560099 
L 543.63092 -82.112394 
L 541.278018 -81.672251 
L 538.925115 -81.242833 
L 536.572212 -80.827407 
L 534.21931 -80.429291 
L 531.866407 -80.051794 
L 529.513505 -79.698153 
L 527.160602 -79.371465 
L 524.8077 -79.074632 
L 522.454797 -78.81028 
L 520.101895 -78.580704 
L 517.748992 -78.387819 
L 515.39609 -78.23311 
L 513.043187 -78.117583 
L 510.690285 -78.041768 
L 508.337382 -78.005715 
L 505.98448 -78.009023 
L 503.631577 -78.050896 
L 501.278675 -78.130224 
L 498.925772 -78.24565 
L 496.57287 -78.395651 
L 494.219967 -78.578618 
L 491.867065 -78.792926 
L 489.514162 -79.037005 
L 487.16126 -79.309375 
L 484.808357 -79.608678 
L 482.455455 -79.933702 
L 480.102552 -80.283368 
L 477.74965 -80.656725 
L 475.396747 -81.052919 
L 473.043844 -81.471172 
L 470.690942 -81.910763 
L 468.338039 -82.371 
L 465.985137 -82.851201 
L 463.632234 -83.350667 
L 461.279332 -83.868635 
L 458.926429 -84.404259 
L 456.573527 -84.956592 
L 454.220624 -85.524573 
L 451.867722 -86.106973 
L 449.514819 -86.702401 
L 447.161917 -87.309285 
L 444.809014 -87.92587 
L 442.456112 -88.550211 
L 440.103209 -89.180175 
L 437.750307 -89.813441 
L 435.397404 -90.447511 
L 433.044502 -91.079732 
L 430.691599 -91.707308 
L 428.338697 -92.327329 
L 425.985794 -92.936811 
L 423.632892 -93.532735 
L 421.279989 -94.112079 
L 418.927087 -94.671843 
L 416.574184 -95.209071 
L 414.221281 -95.720895 
L 411.868379 -96.20455 
L 409.515476 -96.657407 
L 407.162574 -97.076994 
L 404.809671 -97.461021 
L 402.456769 -97.807407 
L 400.103866 -98.114288 
L 397.750964 -98.380038 
L 395.398061 -98.603271 
L 393.045159 -98.782847 
L 390.692256 -98.917884 
L 388.339354 -99.007769 
L 385.986451 -99.052153 
L 383.633549 -99.050963 
L 381.280646 -99.00441 
L 378.927744 -98.912985 
L 376.574841 -98.777471 
L 374.221939 -98.598934 
L 371.869036 -98.378733 
L 369.516134 -98.118505 
L 367.163231 -97.820181 
L 364.810329 -97.485992 
L 362.457426 -97.118477 
L 360.104524 -96.720509 
L 357.751621 -96.295345 
L 355.398719 -95.846722 
L 353.045816 -95.37904 
L 350.692913 -94.897767 
L 348.340011 -94.410309 
L 345.987108 -93.927885 
L 343.634206 -93.468814 
L 341.281303 -93.059758 
L 338.928401 -92.72156 
L 336.575498 -92.448252 
L 334.222596 -92.218881 
L 331.869693 -92.017457 
L 329.516791 -91.83533 
L 327.163888 -91.667975 
L 324.810986 -91.512734 
L 322.458083 -91.367723 
L 320.105181 -91.231314 
L 317.752278 -91.10191 
L 315.399376 -90.977831 
L 313.046473 -90.857288 
L 310.693571 -90.738381 
L 308.340668 -90.619115 
L 305.987766 -90.497431 
L 303.634863 -90.37124 
L 301.281961 -90.238462 
L 298.929058 -90.097065 
L 296.576156 -89.945104 
L 294.223253 -89.780761 
L 291.87035 -89.602376 
L 289.517448 -89.408485 
L 287.164545 -89.197847 
L 284.811643 -88.969483 
L 282.45874 -88.722695 
L 280.105838 -88.457096 
L 277.752935 -88.172634 
L 275.400033 -87.869609 
L 273.04713 -87.548695 
L 270.694228 -87.210947 
L 268.341325 -86.857811 
L 265.988423 -86.491129 
L 263.63552 -86.113128 
L 261.282618 -85.726413 
L 258.929715 -85.333939 
L 256.576813 -84.938976 
L 254.22391 -84.54506 
L 251.871008 -84.155929 
L 249.518105 -83.775443 
L 247.165203 -83.407487 
L 244.8123 -83.055863 
L 242.459398 -82.724167 
L 240.106495 -82.415668 
L 237.753593 -82.133186 
L 235.40069 -81.878979 
L 233.047788 -81.654636 
L 230.694885 -81.461012 
L 228.341982 -81.29819 
L 225.98908 -81.165472 
L 223.636177 -81.061408 
L 221.283275 -80.983868 
L 218.930372 -80.930126 
L 216.57747 -80.896967 
L 214.224567 -80.880808 
L 211.871665 -80.877809 
L 209.518762 -80.883995 
L 207.16586 -80.895367 
L 204.812957 -80.907982 
L 202.460055 -80.918041 
L 200.107152 -80.921957 
L 197.75425 -80.916411 
L 195.401347 -80.898377 
L 193.048445 -80.865145 
L 190.695542 -80.814337 
L 188.34264 -80.743915 
L 185.989737 -80.652186 
L 183.636835 -80.537793 
L 181.283932 -80.39971 
L 178.93103 -80.237228 
L 176.578127 -80.049939 
L 174.225225 -79.83771 
L 171.872322 -79.600664 
L 169.519419 -79.339154 
L 167.166517 -79.05374 
L 164.813614 -78.745166 
L 162.460712 -78.414332 
L 160.107809 -78.062262 
L 157.754907 -77.690075 
L 155.402004 -77.298958 
L 153.049102 -76.890135 
L 150.696199 -76.464836 
L 148.343297 -76.024264 
L 145.990394 -75.569565 
L 143.637492 -75.101816 
L 141.284589 -74.621987 
L 138.931687 -74.130924 
L 136.578784 -73.629332 
L 134.225882 -73.117756 
L 131.872979 -72.596573 
L 129.520077 -72.065969 
L 127.167174 -71.525943 
L 124.814272 -70.976323 
L 122.461369 -70.416766 
L 120.108467 -69.846783 
L 117.755564 -69.265734 
L 115.402662 -68.672855 
L 113.049759 -68.067274 
L 110.696857 -67.448049 
L 108.343954 -66.814176 
L 105.991051 -66.164608 
L 103.638149 -65.498275 
L 101.285246 -64.814115 
L 98.932344 -64.111083 
L 96.579441 -63.38818 
L 94.226539 -62.644468 
L 91.873636 -61.879091 
z
" style="stroke: #000080; stroke-opacity: 0.1"/>
    </defs>
    <g clip-path="url(#p2509692ae4)">
     <use xlink:href="#md3589fe1d6" x="0" y="360" style="fill: #000080; fill-opacity: 0.1; stroke: #000080; stroke-opacity: 0.1"/>
    </g>
   </g>
   <g id="line2d_1">
    <path d="M 91.873636 298.120909 
L 127.167174 277.647765 
L 153.049102 262.390868 
L 178.93103 246.865387 
L 204.812957 231.079342 
L 240.106495 209.265166 
L 294.223253 175.809811 
L 317.752278 161.526634 
L 338.928401 148.940717 
L 355.398719 139.386063 
L 371.869036 130.088621 
L 385.986451 122.360616 
L 400.103866 114.88295 
L 414.221281 107.681871 
L 425.985794 101.912381 
L 437.750307 96.368938 
L 449.514819 91.063204 
L 461.279332 86.002778 
L 473.043844 81.196185 
L 484.808357 76.652194 
L 496.57287 72.379959 
L 508.337382 68.385242 
L 520.101895 64.673718 
L 531.866407 61.247542 
L 543.63092 58.107372 
L 555.395433 55.252247 
L 567.159945 52.680711 
L 578.924458 50.390255 
L 590.68897 48.375066 
L 602.453483 46.628219 
L 614.217996 45.140447 
L 625.982508 43.89903 
L 637.747021 42.889343 
L 649.511533 42.093817 
L 663.628949 41.394233 
L 677.746364 40.939091 
L 677.746364 40.939091 
" clip-path="url(#p2509692ae4)" style="fill: none; stroke: #000000; stroke-width: 1.5; stroke-linecap: round"/>
   </g>
   <g id="line2d_2">
    <path d="M 91.873636 298.120909 
L 101.285246 293.767221 
L 110.696857 289.683199 
L 120.108467 285.867822 
L 129.520077 282.322398 
L 138.931687 279.049238 
L 148.343297 276.048729 
L 157.754907 273.314154 
L 167.166517 270.826755 
L 176.578127 268.555279 
L 188.34264 265.961162 
L 202.460055 263.114639 
L 218.930372 260.060788 
L 233.047788 257.657806 
L 244.8123 255.841476 
L 256.576813 254.238909 
L 268.341325 252.883792 
L 280.105838 251.781888 
L 291.87035 250.899907 
L 308.340668 249.914283 
L 336.575498 248.509303 
L 355.398719 247.750267 
L 367.163231 247.463037 
L 378.927744 247.420285 
L 388.339354 247.608185 
L 397.750964 248.007989 
L 407.162574 248.606835 
L 418.927087 249.582772 
L 435.397404 251.206914 
L 458.926429 253.529104 
L 470.690942 254.433884 
L 480.102552 254.903603 
L 487.16126 255.046701 
L 494.219967 254.959619 
L 501.278675 254.591784 
L 505.98448 254.164817 
L 510.690285 253.574727 
L 515.39609 252.807304 
L 520.101895 251.849902 
L 524.8077 250.691994 
L 529.513505 249.325536 
L 534.21931 247.745243 
L 538.925115 245.948613 
L 543.63092 243.935832 
L 548.336725 241.709515 
L 553.04253 239.274305 
L 557.748335 236.636433 
L 562.45414 233.803324 
L 567.159945 230.783256 
L 574.218653 225.921883 
L 581.27736 220.690028 
L 588.336068 215.117284 
L 595.394775 209.231228 
L 602.453483 203.057021 
L 609.512191 196.617211 
L 616.570898 189.931502 
L 625.982508 180.663035 
L 635.394118 171.018638 
L 644.805728 161.024922 
L 654.217338 150.705401 
L 663.628949 140.08102 
L 673.040559 129.170957 
L 677.746364 123.614441 
L 677.746364 123.614441 
" clip-path="url(#p2509692ae4)" style="fill: none; stroke: #a52a2a; stroke-width: 1.5; stroke-linecap: round"/>
   </g>
   <g id="line2d_3">
    <path d="M 91.873636 298.120909 
L 98.932344 296.900782 
L 105.991051 295.989048 
L 113.049759 295.3701 
L 120.108467 295.011182 
L 127.167174 294.860046 
L 138.931687 294.868132 
L 153.049102 294.839064 
L 164.813614 294.558066 
L 190.695542 293.80709 
L 228.341982 293.101852 
L 240.106495 292.457433 
L 261.282618 291.238574 
L 270.694228 290.940468 
L 280.105838 290.873774 
L 289.517448 291.033347 
L 301.281961 291.481425 
L 331.869693 292.863376 
L 343.634206 293.063493 
L 355.398719 293.019012 
L 400.103866 292.534503 
L 418.927087 292.812674 
L 435.397404 292.970454 
L 449.514819 292.826328 
L 470.690942 292.556554 
L 482.455455 292.684055 
L 498.925772 293.173218 
L 510.690285 293.421005 
L 517.748992 293.362853 
L 524.8077 293.089798 
L 531.866407 292.606314 
L 541.278018 291.710209 
L 555.395433 290.091279 
L 593.041873 285.710726 
L 640.099923 280.40924 
L 677.746364 276.550503 
L 677.746364 276.550503 
" clip-path="url(#p2509692ae4)" style="fill: none; stroke: #000080; stroke-width: 1.5; stroke-linecap: round"/>
   </g>
   <g id="line2d_4">
    <path d="M 91.873636 298.120909 
L 101.285246 295.536796 
L 110.696857 293.22038 
L 122.461369 290.608038 
L 134.225882 288.217401 
L 145.990394 286.027464 
L 155.402004 284.472641 
L 164.813614 283.171038 
L 171.872322 282.405179 
L 178.93103 281.843335 
L 185.989737 281.49014 
L 193.048445 281.329088 
L 202.460055 281.337524 
L 218.930372 281.445596 
L 225.98908 281.281387 
L 233.047788 280.882194 
L 240.106495 280.230339 
L 247.165203 279.360545 
L 258.929715 277.630505 
L 273.04713 275.552843 
L 282.45874 274.359888 
L 294.223253 273.105255 
L 317.752278 270.698783 
L 327.163888 269.491616 
L 338.928401 267.747339 
L 355.398719 265.271454 
L 362.457426 264.403801 
L 369.516134 263.763451 
L 376.574841 263.414548 
L 381.280646 263.368097 
L 385.986451 263.481914 
L 390.692256 263.760939 
L 395.398061 264.205649 
L 400.103866 264.811995 
L 407.162574 266.004644 
L 414.221281 267.493533 
L 421.279989 269.212054 
L 433.044502 272.363599 
L 447.161917 276.132132 
L 456.573527 278.381528 
L 463.632234 279.868317 
L 470.690942 281.175576 
L 477.74965 282.309452 
L 484.808357 283.273399 
L 491.867065 284.055265 
L 498.925772 284.620597 
L 505.98448 284.916577 
L 510.690285 284.936989 
L 515.39609 284.802578 
L 520.101895 284.510965 
L 527.160602 283.797794 
L 534.21931 282.812132 
L 543.63092 281.229805 
L 564.807043 277.543126 
L 574.218653 276.153542 
L 583.630263 274.97237 
L 597.747678 273.47835 
L 614.217996 271.757532 
L 623.629606 270.583018 
L 633.041216 269.186214 
L 642.452826 267.548768 
L 651.864436 265.679711 
L 661.276046 263.592737 
L 670.687656 261.287271 
L 677.746364 259.402736 
L 677.746364 259.402736 
" clip-path="url(#p2509692ae4)" style="fill: none; stroke-dasharray: 5.55,2.4; stroke-dashoffset: 0; stroke: #000080; stroke-width: 1.5"/>
   </g>
   <g id="patch_3">
    <path d="M 62.58 310.98 
L 62.58 28.08 
" style="fill: none; stroke: #ffffff; stroke-width: 1.25; stroke-linejoin: miter; stroke-linecap: square"/>
   </g>
   <g id="patch_4">
    <path d="M 707.04 310.98 
L 707.04 28.08 
" style="fill: none; stroke: #ffffff; stroke-width: 1.25; stroke-linejoin: miter; stroke-linecap: square"/>
   </g>
   <g id="patch_5">
    <path d="M 62.58 310.98 
L 707.04 310.98 
" style="fill: none; stroke: #ffffff; stroke-width: 1.25; stroke-linejoin: miter; stroke-linecap: square"/>
   </g>
   <g id="patch_6">
    <path d="M 62.58 28.08 
L 707.04 28.08 
" style="fill: none; stroke: #ffffff; stroke-width: 1.25; stroke-linejoin: miter; stroke-linecap: square"/>
   </g>
   <g id="text_13">
    <!-- QG3L - [32, 96] x [64, 192] -->
    <g style="fill: #262626" transform="translate(303.585 22.08) scale(0.12 -0.12)">
     <defs>
      <path id="DejaVuSans-51" d="M 2522 4238 
Q 1834 4238 1429 3725 
Q 1025 3213 1025 2328 
Q 1025 1447 1429 934 
Q 1834 422 2522 422 
Q 3209 422 3611 934 
Q 4013 1447 4013 2328 
Q 4013 3213 3611 3725 
Q 3209 4238 2522 4238 
z
M 3406 84 
L 4238 -825 
L 3475 -825 
L 2784 -78 
Q 2681 -84 2626 -87 
Q 2572 -91 2522 -91 
Q 1538 -91 948 567 
Q 359 1225 359 2328 
Q 359 3434 948 4092 
Q 1538 4750 2522 4750 
Q 3503 4750 4090 4092 
Q 4678 3434 4678 2328 
Q 4678 1516 4351 937 
Q 4025 359 3406 84 
z
" transform="scale(0.015625)"/>
      <path id="DejaVuSans-47" d="M 3809 666 
L 3809 1919 
L 2778 1919 
L 2778 2438 
L 4434 2438 
L 4434 434 
Q 4069 175 3628 42 
Q 3188 -91 2688 -91 
Q 1594 -91 976 548 
Q 359 1188 359 2328 
Q 359 3472 976 4111 
Q 1594 4750 2688 4750 
Q 3144 4750 3555 4637 
Q 3966 4525 4313 4306 
L 4313 3634 
Q 3963 3931 3569 4081 
Q 3175 4231 2741 4231 
Q 1884 4231 1454 3753 
Q 1025 3275 1025 2328 
Q 1025 1384 1454 906 
Q 1884 428 2741 428 
Q 3075 428 3337 486 
Q 3600 544 3809 666 
z
" transform="scale(0.015625)"/>
      <path id="DejaVuSans-33" d="M 2597 2516 
Q 3050 2419 3304 2112 
Q 3559 1806 3559 1356 
Q 3559 666 3084 287 
Q 2609 -91 1734 -91 
Q 1441 -91 1130 -33 
Q 819 25 488 141 
L 488 750 
Q 750 597 1062 519 
Q 1375 441 1716 441 
Q 2309 441 2620 675 
Q 2931 909 2931 1356 
Q 2931 1769 2642 2001 
Q 2353 2234 1838 2234 
L 1294 2234 
L 1294 2753 
L 1863 2753 
Q 2328 2753 2575 2939 
Q 2822 3125 2822 3475 
Q 2822 3834 2567 4026 
Q 2313 4219 1838 4219 
Q 1578 4219 1281 4162 
Q 984 4106 628 3988 
L 628 4550 
Q 988 4650 1302 4700 
Q 1616 4750 1894 4750 
Q 2613 4750 3031 4423 
Q 3450 4097 3450 3541 
Q 3450 3153 3228 2886 
Q 3006 2619 2597 2516 
z
" transform="scale(0.015625)"/>
      <path id="DejaVuSans-4c" d="M 628 4666 
L 1259 4666 
L 1259 531 
L 3531 531 
L 3531 0 
L 628 0 
L 628 4666 
z
" transform="scale(0.015625)"/>
      <path id="DejaVuSans-2d" d="M 313 2009 
L 1997 2009 
L 1997 1497 
L 313 1497 
L 313 2009 
z
" transform="scale(0.015625)"/>
      <path id="DejaVuSans-2c" d="M 750 794 
L 1409 794 
L 1409 256 
L 897 -744 
L 494 -744 
L 750 256 
L 750 794 
z
" transform="scale(0.015625)"/>
      <path id="DejaVuSans-39" d="M 703 97 
L 703 672 
Q 941 559 1184 500 
Q 1428 441 1663 441 
Q 2288 441 2617 861 
Q 2947 1281 2994 2138 
Q 2813 1869 2534 1725 
Q 2256 1581 1919 1581 
Q 1219 1581 811 2004 
Q 403 2428 403 3163 
Q 403 3881 828 4315 
Q 1253 4750 1959 4750 
Q 2769 4750 3195 4129 
Q 3622 3509 3622 2328 
Q 3622 1225 3098 567 
Q 2575 -91 1691 -91 
Q 1453 -91 1209 -44 
Q 966 3 703 97 
z
M 1959 2075 
Q 2384 2075 2632 2365 
Q 2881 2656 2881 3163 
Q 2881 3666 2632 3958 
Q 2384 4250 1959 4250 
Q 1534 4250 1286 3958 
Q 1038 3666 1038 3163 
Q 1038 2656 1286 2365 
Q 1534 2075 1959 2075 
z
" transform="scale(0.015625)"/>
      <path id="DejaVuSans-36" d="M 2113 2584 
Q 1688 2584 1439 2293 
Q 1191 2003 1191 1497 
Q 1191 994 1439 701 
Q 1688 409 2113 409 
Q 2538 409 2786 701 
Q 3034 994 3034 1497 
Q 3034 2003 2786 2293 
Q 2538 2584 2113 2584 
z
M 3366 4563 
L 3366 3988 
Q 3128 4100 2886 4159 
Q 2644 4219 2406 4219 
Q 1781 4219 1451 3797 
Q 1122 3375 1075 2522 
Q 1259 2794 1537 2939 
Q 1816 3084 2150 3084 
Q 2853 3084 3261 2657 
Q 3669 2231 3669 1497 
Q 3669 778 3244 343 
Q 2819 -91 2113 -91 
Q 1303 -91 875 529 
Q 447 1150 447 2328 
Q 447 3434 972 4092 
Q 1497 4750 2381 4750 
Q 2619 4750 2861 4703 
Q 3103 4656 3366 4563 
z
" transform="scale(0.015625)"/>
      <path id="DejaVuSans-78" d="M 3513 3500 
L 2247 1797 
L 3578 0 
L 2900 0 
L 1881 1375 
L 863 0 
L 184 0 
L 1544 1831 
L 300 3500 
L 978 3500 
L 1906 2253 
L 2834 3500 
L 3513 3500 
z
" transform="scale(0.015625)"/>
      <path id="DejaVuSans-34" d="M 2419 4116 
L 825 1625 
L 2419 1625 
L 2419 4116 
z
M 2253 4666 
L 3047 4666 
L 3047 1625 
L 3713 1625 
L 3713 1100 
L 3047 1100 
L 3047 0 
L 2419 0 
L 2419 1100 
L 313 1100 
L 313 1709 
L 2253 4666 
z
" transform="scale(0.015625)"/>
     </defs>
     <use xlink:href="#DejaVuSans-51"/>
     <use xlink:href="#DejaVuSans-47" transform="translate(78.710938 0)"/>
     <use xlink:href="#DejaVuSans-33" transform="translate(156.201172 0)"/>
     <use xlink:href="#DejaVuSans-4c" transform="translate(219.824219 0)"/>
     <use xlink:href="#DejaVuSans-20" transform="translate(275.537109 0)"/>
     <use xlink:href="#DejaVuSans-2d" transform="translate(307.324219 0)"/>
     <use xlink:href="#DejaVuSans-20" transform="translate(343.408203 0)"/>
     <use xlink:href="#DejaVuSans-5b" transform="translate(375.195312 0)"/>
     <use xlink:href="#DejaVuSans-33" transform="translate(414.208984 0)"/>
     <use xlink:href="#DejaVuSans-32" transform="translate(477.832031 0)"/>
     <use xlink:href="#DejaVuSans-2c" transform="translate(541.455078 0)"/>
     <use xlink:href="#DejaVuSans-20" transform="translate(573.242188 0)"/>
     <use xlink:href="#DejaVuSans-39" transform="translate(605.029297 0)"/>
     <use xlink:href="#DejaVuSans-36" transform="translate(668.652344 0)"/>
     <use xlink:href="#DejaVuSans-5d" transform="translate(732.275391 0)"/>
     <use xlink:href="#DejaVuSans-20" transform="translate(771.289062 0)"/>
     <use xlink:href="#DejaVuSans-78" transform="translate(803.076172 0)"/>
     <use xlink:href="#DejaVuSans-20" transform="translate(862.255859 0)"/>
     <use xlink:href="#DejaVuSans-5b" transform="translate(894.042969 0)"/>
     <use xlink:href="#DejaVuSans-36" transform="translate(933.056641 0)"/>
     <use xlink:href="#DejaVuSans-34" transform="translate(996.679688 0)"/>
     <use xlink:href="#DejaVuSans-2c" transform="translate(1060.302734 0)"/>
     <use xlink:href="#DejaVuSans-20" transform="translate(1092.089844 0)"/>
     <use xlink:href="#DejaVuSans-31" transform="translate(1123.876953 0)"/>
     <use xlink:href="#DejaVuSans-39" transform="translate(1187.5 0)"/>
     <use xlink:href="#DejaVuSans-32" transform="translate(1251.123047 0)"/>
     <use xlink:href="#DejaVuSans-5d" transform="translate(1314.746094 0)"/>
    </g>
   </g>
   <g id="legend_1">
    <g id="patch_7">
     <path d="M 70.28 101.46375 
L 251.695781 101.46375 
Q 253.895781 101.46375 253.895781 99.26375 
L 253.895781 35.78 
Q 253.895781 33.58 251.695781 33.58 
L 70.28 33.58 
Q 68.08 33.58 68.08 35.78 
L 68.08 99.26375 
Q 68.08 101.46375 70.28 101.46375 
z
" style="fill: #eaeaf2; opacity: 0.8; stroke: #cccccc; stroke-linejoin: miter"/>
    </g>
    <g id="line2d_5">
     <path d="M 72.48 42.488281 
L 83.48 42.488281 
L 94.48 42.488281 
" style="fill: none; stroke: #000000; stroke-width: 1.5; stroke-linecap: round"/>
    </g>
    <g id="text_14">
     <!-- Reduced Gravity -->
     <g style="fill: #262626" transform="translate(103.28 46.338281) scale(0.11 -0.11)">
      <defs>
       <path id="DejaVuSans-75" d="M 544 1381 
L 544 3500 
L 1119 3500 
L 1119 1403 
Q 1119 906 1312 657 
Q 1506 409 1894 409 
Q 2359 409 2629 706 
Q 2900 1003 2900 1516 
L 2900 3500 
L 3475 3500 
L 3475 0 
L 2900 0 
L 2900 538 
Q 2691 219 2414 64 
Q 2138 -91 1772 -91 
Q 1169 -91 856 284 
Q 544 659 544 1381 
z
M 1991 3584 
L 1991 3584 
z
" transform="scale(0.015625)"/>
       <path id="DejaVuSans-63" d="M 3122 3366 
L 3122 2828 
Q 2878 2963 2633 3030 
Q 2388 3097 2138 3097 
Q 1578 3097 1268 2742 
Q 959 2388 959 1747 
Q 959 1106 1268 751 
Q 1578 397 2138 397 
Q 2388 397 2633 464 
Q 2878 531 3122 666 
L 3122 134 
Q 2881 22 2623 -34 
Q 2366 -91 2075 -91 
Q 1284 -91 818 406 
Q 353 903 353 1747 
Q 353 2603 823 3093 
Q 1294 3584 2113 3584 
Q 2378 3584 2631 3529 
Q 2884 3475 3122 3366 
z
" transform="scale(0.015625)"/>
       <path id="DejaVuSans-72" d="M 2631 2963 
Q 2534 3019 2420 3045 
Q 2306 3072 2169 3072 
Q 1681 3072 1420 2755 
Q 1159 2438 1159 1844 
L 1159 0 
L 581 0 
L 581 3500 
L 1159 3500 
L 1159 2956 
Q 1341 3275 1631 3429 
Q 1922 3584 2338 3584 
Q 2397 3584 2469 3576 
Q 2541 3569 2628 3553 
L 2631 2963 
z
" transform="scale(0.015625)"/>
       <path id="DejaVuSans-76" d="M 191 3500 
L 800 3500 
L 1894 563 
L 2988 3500 
L 3597 3500 
L 2284 0 
L 1503 0 
L 191 3500 
z
" transform="scale(0.015625)"/>
       <path id="DejaVuSans-74" d="M 1172 4494 
L 1172 3500 
L 2356 3500 
L 2356 3053 
L 1172 3053 
L 1172 1153 
Q 1172 725 1289 603 
Q 1406 481 1766 481 
L 2356 481 
L 2356 0 
L 1766 0 
Q 1100 0 847 248 
Q 594 497 594 1153 
L 594 3053 
L 172 3053 
L 172 3500 
L 594 3500 
L 594 4494 
L 1172 4494 
z
" transform="scale(0.015625)"/>
      </defs>
      <use xlink:href="#DejaVuSans-52"/>
      <use xlink:href="#DejaVuSans-65" transform="translate(64.982422 0)"/>
      <use xlink:href="#DejaVuSans-64" transform="translate(126.505859 0)"/>
      <use xlink:href="#DejaVuSans-75" transform="translate(189.982422 0)"/>
      <use xlink:href="#DejaVuSans-63" transform="translate(253.361328 0)"/>
      <use xlink:href="#DejaVuSans-65" transform="translate(308.341797 0)"/>
      <use xlink:href="#DejaVuSans-64" transform="translate(369.865234 0)"/>
      <use xlink:href="#DejaVuSans-20" transform="translate(433.341797 0)"/>
      <use xlink:href="#DejaVuSans-47" transform="translate(465.128906 0)"/>
      <use xlink:href="#DejaVuSans-72" transform="translate(542.619141 0)"/>
      <use xlink:href="#DejaVuSans-61" transform="translate(583.732422 0)"/>
      <use xlink:href="#DejaVuSans-76" transform="translate(645.011719 0)"/>
      <use xlink:href="#DejaVuSans-69" transform="translate(704.191406 0)"/>
      <use xlink:href="#DejaVuSans-74" transform="translate(731.974609 0)"/>
      <use xlink:href="#DejaVuSans-79" transform="translate(771.183594 0)"/>
     </g>
    </g>
    <g id="line2d_6">
     <path d="M 72.48 58.634219 
L 83.48 58.634219 
L 94.48 58.634219 
" style="fill: none; stroke: #a52a2a; stroke-width: 1.5; stroke-linecap: round"/>
    </g>
    <g id="text_15">
     <!-- VarDyn -->
     <g style="fill: #262626" transform="translate(103.28 62.484219) scale(0.11 -0.11)">
      <defs>
       <path id="DejaVuSans-56" d="M 1831 0 
L 50 4666 
L 709 4666 
L 2188 738 
L 3669 4666 
L 4325 4666 
L 2547 0 
L 1831 0 
z
" transform="scale(0.015625)"/>
       <path id="DejaVuSans-44" d="M 1259 4147 
L 1259 519 
L 2022 519 
Q 2988 519 3436 956 
Q 3884 1394 3884 2338 
Q 3884 3275 3436 3711 
Q 2988 4147 2022 4147 
L 1259 4147 
z
M 628 4666 
L 1925 4666 
Q 3281 4666 3915 4102 
Q 4550 3538 4550 2338 
Q 4550 1131 3912 565 
Q 3275 0 1925 0 
L 628 0 
L 628 4666 
z
" transform="scale(0.015625)"/>
      </defs>
      <use xlink:href="#DejaVuSans-56"/>
      <use xlink:href="#DejaVuSans-61" transform="translate(60.658203 0)"/>
      <use xlink:href="#DejaVuSans-72" transform="translate(121.9375 0)"/>
      <use xlink:href="#DejaVuSans-44" transform="translate(163.050781 0)"/>
      <use xlink:href="#DejaVuSans-79" transform="translate(240.052734 0)"/>
      <use xlink:href="#DejaVuSans-6e" transform="translate(299.232422 0)"/>
     </g>
    </g>
    <g id="line2d_7">
     <path d="M 72.48 74.780156 
L 83.48 74.780156 
L 94.48 74.780156 
" style="fill: none; stroke: #000080; stroke-width: 1.5; stroke-linecap: round"/>
    </g>
    <g id="text_16">
     <!-- SurfML -->
     <g style="fill: #262626" transform="translate(103.28 78.630156) scale(0.11 -0.11)">
      <defs>
       <path id="DejaVuSans-66" d="M 2375 4863 
L 2375 4384 
L 1825 4384 
Q 1516 4384 1395 4259 
Q 1275 4134 1275 3809 
L 1275 3500 
L 2222 3500 
L 2222 3053 
L 1275 3053 
L 1275 0 
L 697 0 
L 697 3053 
L 147 3053 
L 147 3500 
L 697 3500 
L 697 3744 
Q 697 4328 969 4595 
Q 1241 4863 1831 4863 
L 2375 4863 
z
" transform="scale(0.015625)"/>
      </defs>
      <use xlink:href="#DejaVuSans-53"/>
      <use xlink:href="#DejaVuSans-75" transform="translate(63.476562 0)"/>
      <use xlink:href="#DejaVuSans-72" transform="translate(126.855469 0)"/>
      <use xlink:href="#DejaVuSans-66" transform="translate(167.96875 0)"/>
      <use xlink:href="#DejaVuSans-4d" transform="translate(203.173828 0)"/>
      <use xlink:href="#DejaVuSans-4c" transform="translate(289.453125 0)"/>
     </g>
    </g>
    <g id="line2d_8">
     <path d="M 72.48 90.926094 
L 83.48 90.926094 
L 94.48 90.926094 
" style="fill: none; stroke-dasharray: 5.55,2.4; stroke-dashoffset: 0; stroke: #000080; stroke-width: 1.5"/>
    </g>
    <g id="text_17">
     <!-- SurfML - No Regularization -->
     <g style="fill: #262626" transform="translate(103.28 94.776094) scale(0.11 -0.11)">
      <defs>
       <path id="DejaVuSans-4e" d="M 628 4666 
L 1478 4666 
L 3547 763 
L 3547 4666 
L 4159 4666 
L 4159 0 
L 3309 0 
L 1241 3903 
L 1241 0 
L 628 0 
L 628 4666 
z
" transform="scale(0.015625)"/>
       <path id="DejaVuSans-6f" d="M 1959 3097 
Q 1497 3097 1228 2736 
Q 959 2375 959 1747 
Q 959 1119 1226 758 
Q 1494 397 1959 397 
Q 2419 397 2687 759 
Q 2956 1122 2956 1747 
Q 2956 2369 2687 2733 
Q 2419 3097 1959 3097 
z
M 1959 3584 
Q 2709 3584 3137 3096 
Q 3566 2609 3566 1747 
Q 3566 888 3137 398 
Q 2709 -91 1959 -91 
Q 1206 -91 779 398 
Q 353 888 353 1747 
Q 353 2609 779 3096 
Q 1206 3584 1959 3584 
z
" transform="scale(0.015625)"/>
       <path id="DejaVuSans-67" d="M 2906 1791 
Q 2906 2416 2648 2759 
Q 2391 3103 1925 3103 
Q 1463 3103 1205 2759 
Q 947 2416 947 1791 
Q 947 1169 1205 825 
Q 1463 481 1925 481 
Q 2391 481 2648 825 
Q 2906 1169 2906 1791 
z
M 3481 434 
Q 3481 -459 3084 -895 
Q 2688 -1331 1869 -1331 
Q 1566 -1331 1297 -1286 
Q 1028 -1241 775 -1147 
L 775 -588 
Q 1028 -725 1275 -790 
Q 1522 -856 1778 -856 
Q 2344 -856 2625 -561 
Q 2906 -266 2906 331 
L 2906 616 
Q 2728 306 2450 153 
Q 2172 0 1784 0 
Q 1141 0 747 490 
Q 353 981 353 1791 
Q 353 2603 747 3093 
Q 1141 3584 1784 3584 
Q 2172 3584 2450 3431 
Q 2728 3278 2906 2969 
L 2906 3500 
L 3481 3500 
L 3481 434 
z
" transform="scale(0.015625)"/>
       <path id="DejaVuSans-6c" d="M 603 4863 
L 1178 4863 
L 1178 0 
L 603 0 
L 603 4863 
z
" transform="scale(0.015625)"/>
       <path id="DejaVuSans-7a" d="M 353 3500 
L 3084 3500 
L 3084 2975 
L 922 459 
L 3084 459 
L 3084 0 
L 275 0 
L 275 525 
L 2438 3041 
L 353 3041 
L 353 3500 
z
" transform="scale(0.015625)"/>
      </defs>
      <use xlink:href="#DejaVuSans-53"/>
      <use xlink:href="#DejaVuSans-75" transform="translate(63.476562 0)"/>
      <use xlink:href="#DejaVuSans-72" transform="translate(126.855469 0)"/>
      <use xlink:href="#DejaVuSans-66" transform="translate(167.96875 0)"/>
      <use xlink:href="#DejaVuSans-4d" transform="translate(203.173828 0)"/>
      <use xlink:href="#DejaVuSans-4c" transform="translate(289.453125 0)"/>
      <use xlink:href="#DejaVuSans-20" transform="translate(345.166016 0)"/>
      <use xlink:href="#DejaVuSans-2d" transform="translate(376.953125 0)"/>
      <use xlink:href="#DejaVuSans-20" transform="translate(413.037109 0)"/>
      <use xlink:href="#DejaVuSans-4e" transform="translate(444.824219 0)"/>
      <use xlink:href="#DejaVuSans-6f" transform="translate(519.628906 0)"/>
      <use xlink:href="#DejaVuSans-20" transform="translate(580.810547 0)"/>
      <use xlink:href="#DejaVuSans-52" transform="translate(612.597656 0)"/>
      <use xlink:href="#DejaVuSans-65" transform="translate(677.580078 0)"/>
      <use xlink:href="#DejaVuSans-67" transform="translate(739.103516 0)"/>
      <use xlink:href="#DejaVuSans-75" transform="translate(802.580078 0)"/>
      <use xlink:href="#DejaVuSans-6c" transform="translate(865.958984 0)"/>
      <use xlink:href="#DejaVuSans-61" transform="translate(893.742188 0)"/>
      <use xlink:href="#DejaVuSans-72" transform="translate(955.021484 0)"/>
      <use xlink:href="#DejaVuSans-69" transform="translate(996.134766 0)"/>
      <use xlink:href="#DejaVuSans-7a" transform="translate(1023.917969 0)"/>
      <use xlink:href="#DejaVuSans-61" transform="translate(1076.408203 0)"/>
      <use xlink:href="#DejaVuSans-74" transform="translate(1137.6875 0)"/>
      <use xlink:href="#DejaVuSans-69" transform="translate(1176.896484 0)"/>
      <use xlink:href="#DejaVuSans-6f" transform="translate(1204.679688 0)"/>
      <use xlink:href="#DejaVuSans-6e" transform="translate(1265.861328 0)"/>
     </g>
    </g>
   </g>
  </g>
 </g>
 <defs>
  <clipPath id="p2509692ae4">
   <rect x="62.58" y="28.08" width="644.46" height="282.9"/>
  </clipPath>
 </defs>
</svg>
