<?xml version="1.0" encoding="utf-8" standalone="no"?>
<!DOCTYPE svg PUBLIC "-//W3C//DTD SVG 1.1//EN"
  "http://www.w3.org/Graphics/SVG/1.1/DTD/svg11.dtd">
<svg xmlns:xlink="http://www.w3.org/1999/xlink" width="720pt" height="360pt" viewBox="0 0 720 360" xmlns="http://www.w3.org/2000/svg" version="1.1">
 <metadata>
  <rdf:RDF xmlns:dc="http://purl.org/dc/elements/1.1/" xmlns:cc="http://creativecommons.org/ns#" xmlns:rdf="http://www.w3.org/1999/02/22-rdf-syntax-ns#">
   <cc:Work>
    <dc:type rdf:resource="http://purl.org/dc/dcmitype/StillImage"/>
    <dc:date>2026-03-24T16:38:37.326182</dc:date>
    <dc:format>image/svg+xml</dc:format>
    <dc:creator>
     <cc:Agent>
      <dc:title>Matplotlib v3.10.6, https://matplotlib.org/</dc:title>
     </cc:Agent>
    </dc:creator>
   </cc:Work>
  </rdf:RDF>
 </metadata>
 <defs>
  <style type="text/css">*{stroke-linejoin: round; stroke-linecap: butt}</style>
 </defs>
 <g id="figure_1">
  <g id="patch_1">
   <path d="M 0 360 
L 720 360 
L 720 0 
L 0 0 
z
" style="fill: #ffffff"/>
  </g>
  <g id="axes_1">
   <g id="patch_2">
    <path d="M 55.56 310.98 
L 707.04 310.98 
L 707.04 28.08 
L 55.56 28.08 
z
" style="fill: #eaeaf2"/>
   </g>
   <g id="matplotlib.axis_1">
    <g id="xtick_1">
     <g id="text_1">
      <!-- 0 -->
      <g style="fill: #262626" transform="translate(81.673352 328.838281) scale(0.11 -0.11)">
       <defs>
        <path id="DejaVuSans-30" d="M 2034 4250 
Q 1547 4250 1301 3770 
Q 1056 3291 1056 2328 
Q 1056 1369 1301 889 
Q 1547 409 2034 409 
Q 2525 409 2770 889 
Q 3016 1369 3016 2328 
Q 3016 3291 2770 3770 
Q 2525 4250 2034 4250 
z
M 2034 4750 
Q 2819 4750 3233 4129 
Q 3647 3509 3647 2328 
Q 3647 1150 3233 529 
Q 2819 -91 2034 -91 
Q 1250 -91 836 529 
Q 422 1150 422 2328 
Q 422 3509 836 4129 
Q 1250 4750 2034 4750 
z
" transform="scale(0.015625)"/>
       </defs>
       <use xlink:href="#DejaVuSans-30"/>
      </g>
     </g>
    </g>
    <g id="xtick_2">
     <g id="text_2">
      <!-- 5 -->
      <g style="fill: #262626" transform="translate(224.385291 328.838281) scale(0.11 -0.11)">
       <defs>
        <path id="DejaVuSans-35" d="M 691 4666 
L 3169 4666 
L 3169 4134 
L 1269 4134 
L 1269 2991 
Q 1406 3038 1543 3061 
Q 1681 3084 1819 3084 
Q 2600 3084 3056 2656 
Q 3513 2228 3513 1497 
Q 3513 744 3044 326 
Q 2575 -91 1722 -91 
Q 1428 -91 1123 -41 
Q 819 9 494 109 
L 494 744 
Q 775 591 1075 516 
Q 1375 441 1709 441 
Q 2250 441 2565 725 
Q 2881 1009 2881 1497 
Q 2881 1984 2565 2268 
Q 2250 2553 1709 2553 
Q 1456 2553 1204 2497 
Q 953 2441 691 2322 
L 691 4666 
z
" transform="scale(0.015625)"/>
       </defs>
       <use xlink:href="#DejaVuSans-35"/>
      </g>
     </g>
    </g>
    <g id="xtick_3">
     <g id="text_3">
      <!-- 10 -->
      <g style="fill: #262626" transform="translate(363.597855 328.838281) scale(0.11 -0.11)">
       <defs>
        <path id="DejaVuSans-31" d="M 794 531 
L 1825 531 
L 1825 4091 
L 703 3866 
L 703 4441 
L 1819 4666 
L 2450 4666 
L 2450 531 
L 3481 531 
L 3481 0 
L 794 0 
L 794 531 
z
" transform="scale(0.015625)"/>
       </defs>
       <use xlink:href="#DejaVuSans-31"/>
       <use xlink:href="#DejaVuSans-30" transform="translate(63.623047 0)"/>
      </g>
     </g>
    </g>
    <g id="xtick_4">
     <g id="text_4">
      <!-- 15 -->
      <g style="fill: #262626" transform="translate(506.309793 328.838281) scale(0.11 -0.11)">
       <use xlink:href="#DejaVuSans-31"/>
       <use xlink:href="#DejaVuSans-35" transform="translate(63.623047 0)"/>
      </g>
     </g>
    </g>
    <g id="xtick_5">
     <g id="text_5">
      <!-- 20 -->
      <g style="fill: #262626" transform="translate(649.021732 328.838281) scale(0.11 -0.11)">
       <defs>
        <path id="DejaVuSans-32" d="M 1228 531 
L 3431 531 
L 3431 0 
L 469 0 
L 469 531 
Q 828 903 1448 1529 
Q 2069 2156 2228 2338 
Q 2531 2678 2651 2914 
Q 2772 3150 2772 3378 
Q 2772 3750 2511 3984 
Q 2250 4219 1831 4219 
Q 1534 4219 1204 4116 
Q 875 4013 500 3803 
L 500 4441 
Q 881 4594 1212 4672 
Q 1544 4750 1819 4750 
Q 2544 4750 2975 4387 
Q 3406 4025 3406 3419 
Q 3406 3131 3298 2873 
Q 3191 2616 2906 2266 
Q 2828 2175 2409 1742 
Q 1991 1309 1228 531 
z
" transform="scale(0.015625)"/>
       </defs>
       <use xlink:href="#DejaVuSans-32"/>
       <use xlink:href="#DejaVuSans-30" transform="translate(63.623047 0)"/>
      </g>
     </g>
    </g>
    <g id="text_6">
     <!-- Time [days] -->
     <g style="fill: #262626" transform="translate(345.868125 344.244062) scale(0.12 -0.12)">
      <defs>
       <path id="DejaVuSans-54" d="M -19 4666 
L 3928 4666 
L 3928 4134 
L 2272 4134 
L 2272 0 
L 1638 0 
L 1638 4134 
L -19 4134 
L -19 4666 
z
" transform="scale(0.015625)"/>
       <path id="DejaVuSans-69" d="M 603 3500 
L 1178 3500 
L 1178 0 
L 603 0 
L 603 3500 
z
M 603 4863 
L 1178 4863 
L 1178 4134 
L 603 4134 
L 603 4863 
z
" transform="scale(0.015625)"/>
       <path id="DejaVuSans-6d" d="M 3328 2828 
Q 3544 3216 3844 3400 
Q 4144 3584 4550 3584 
Q 5097 3584 5394 3201 
Q 5691 2819 5691 2113 
L 5691 0 
L 5113 0 
L 5113 2094 
Q 5113 2597 4934 2840 
Q 4756 3084 4391 3084 
Q 3944 3084 3684 2787 
Q 3425 2491 3425 1978 
L 3425 0 
L 2847 0 
L 2847 2094 
Q 2847 2600 2669 2842 
Q 2491 3084 2119 3084 
Q 1678 3084 1418 2786 
Q 1159 2488 1159 1978 
L 1159 0 
L 581 0 
L 581 3500 
L 1159 3500 
L 1159 2956 
Q 1356 3278 1631 3431 
Q 1906 3584 2284 3584 
Q 2666 3584 2933 3390 
Q 3200 3197 3328 2828 
z
" transform="scale(0.015625)"/>
       <path id="DejaVuSans-65" d="M 3597 1894 
L 3597 1613 
L 953 1613 
Q 991 1019 1311 708 
Q 1631 397 2203 397 
Q 2534 397 2845 478 
Q 3156 559 3463 722 
L 3463 178 
Q 3153 47 2828 -22 
Q 2503 -91 2169 -91 
Q 1331 -91 842 396 
Q 353 884 353 1716 
Q 353 2575 817 3079 
Q 1281 3584 2069 3584 
Q 2775 3584 3186 3129 
Q 3597 2675 3597 1894 
z
M 3022 2063 
Q 3016 2534 2758 2815 
Q 2500 3097 2075 3097 
Q 1594 3097 1305 2825 
Q 1016 2553 972 2059 
L 3022 2063 
z
" transform="scale(0.015625)"/>
       <path id="DejaVuSans-20" transform="scale(0.015625)"/>
       <path id="DejaVuSans-5b" d="M 550 4863 
L 1875 4863 
L 1875 4416 
L 1125 4416 
L 1125 -397 
L 1875 -397 
L 1875 -844 
L 550 -844 
L 550 4863 
z
" transform="scale(0.015625)"/>
       <path id="DejaVuSans-64" d="M 2906 2969 
L 2906 4863 
L 3481 4863 
L 3481 0 
L 2906 0 
L 2906 525 
Q 2725 213 2448 61 
Q 2172 -91 1784 -91 
Q 1150 -91 751 415 
Q 353 922 353 1747 
Q 353 2572 751 3078 
Q 1150 3584 1784 3584 
Q 2172 3584 2448 3432 
Q 2725 3281 2906 2969 
z
M 947 1747 
Q 947 1113 1208 752 
Q 1469 391 1925 391 
Q 2381 391 2643 752 
Q 2906 1113 2906 1747 
Q 2906 2381 2643 2742 
Q 2381 3103 1925 3103 
Q 1469 3103 1208 2742 
Q 947 2381 947 1747 
z
" transform="scale(0.015625)"/>
       <path id="DejaVuSans-61" d="M 2194 1759 
Q 1497 1759 1228 1600 
Q 959 1441 959 1056 
Q 959 750 1161 570 
Q 1363 391 1709 391 
Q 2188 391 2477 730 
Q 2766 1069 2766 1631 
L 2766 1759 
L 2194 1759 
z
M 3341 1997 
L 3341 0 
L 2766 0 
L 2766 531 
Q 2569 213 2275 61 
Q 1981 -91 1556 -91 
Q 1019 -91 701 211 
Q 384 513 384 1019 
Q 384 1609 779 1909 
Q 1175 2209 1959 2209 
L 2766 2209 
L 2766 2266 
Q 2766 2663 2505 2880 
Q 2244 3097 1772 3097 
Q 1472 3097 1187 3025 
Q 903 2953 641 2809 
L 641 3341 
Q 956 3463 1253 3523 
Q 1550 3584 1831 3584 
Q 2591 3584 2966 3190 
Q 3341 2797 3341 1997 
z
" transform="scale(0.015625)"/>
       <path id="DejaVuSans-79" d="M 2059 -325 
Q 1816 -950 1584 -1140 
Q 1353 -1331 966 -1331 
L 506 -1331 
L 506 -850 
L 844 -850 
Q 1081 -850 1212 -737 
Q 1344 -625 1503 -206 
L 1606 56 
L 191 3500 
L 800 3500 
L 1894 763 
L 2988 3500 
L 3597 3500 
L 2059 -325 
z
" transform="scale(0.015625)"/>
       <path id="DejaVuSans-73" d="M 2834 3397 
L 2834 2853 
Q 2591 2978 2328 3040 
Q 2066 3103 1784 3103 
Q 1356 3103 1142 2972 
Q 928 2841 928 2578 
Q 928 2378 1081 2264 
Q 1234 2150 1697 2047 
L 1894 2003 
Q 2506 1872 2764 1633 
Q 3022 1394 3022 966 
Q 3022 478 2636 193 
Q 2250 -91 1575 -91 
Q 1294 -91 989 -36 
Q 684 19 347 128 
L 347 722 
Q 666 556 975 473 
Q 1284 391 1588 391 
Q 1994 391 2212 530 
Q 2431 669 2431 922 
Q 2431 1156 2273 1281 
Q 2116 1406 1581 1522 
L 1381 1569 
Q 847 1681 609 1914 
Q 372 2147 372 2553 
Q 372 3047 722 3315 
Q 1072 3584 1716 3584 
Q 2034 3584 2315 3537 
Q 2597 3491 2834 3397 
z
" transform="scale(0.015625)"/>
       <path id="DejaVuSans-5d" d="M 1947 4863 
L 1947 -844 
L 622 -844 
L 622 -397 
L 1369 -397 
L 1369 4416 
L 622 4416 
L 622 4863 
L 1947 4863 
z
" transform="scale(0.015625)"/>
      </defs>
      <use xlink:href="#DejaVuSans-54"/>
      <use xlink:href="#DejaVuSans-69" transform="translate(57.958984 0)"/>
      <use xlink:href="#DejaVuSans-6d" transform="translate(85.742188 0)"/>
      <use xlink:href="#DejaVuSans-65" transform="translate(183.154297 0)"/>
      <use xlink:href="#DejaVuSans-20" transform="translate(244.677734 0)"/>
      <use xlink:href="#DejaVuSans-5b" transform="translate(276.464844 0)"/>
      <use xlink:href="#DejaVuSans-64" transform="translate(315.478516 0)"/>
      <use xlink:href="#DejaVuSans-61" transform="translate(378.955078 0)"/>
      <use xlink:href="#DejaVuSans-79" transform="translate(440.234375 0)"/>
      <use xlink:href="#DejaVuSans-73" transform="translate(499.414062 0)"/>
      <use xlink:href="#DejaVuSans-5d" transform="translate(551.513672 0)"/>
     </g>
    </g>
   </g>
   <g id="matplotlib.axis_2">
    <g id="ytick_1">
     <g id="text_7">
      <!-- 0.0 -->
      <g style="fill: #262626" transform="translate(28.566562 302.30005) scale(0.11 -0.11)">
       <defs>
        <path id="DejaVuSans-2e" d="M 684 794 
L 1344 794 
L 1344 0 
L 684 0 
L 684 794 
z
" transform="scale(0.015625)"/>
       </defs>
       <use xlink:href="#DejaVuSans-30"/>
       <use xlink:href="#DejaVuSans-2e" transform="translate(63.623047 0)"/>
       <use xlink:href="#DejaVuSans-30" transform="translate(95.410156 0)"/>
      </g>
     </g>
    </g>
    <g id="ytick_2">
     <g id="text_8">
      <!-- 0.1 -->
      <g style="fill: #262626" transform="translate(28.566562 262.707707) scale(0.11 -0.11)">
       <use xlink:href="#DejaVuSans-30"/>
       <use xlink:href="#DejaVuSans-2e" transform="translate(63.623047 0)"/>
       <use xlink:href="#DejaVuSans-31" transform="translate(95.410156 0)"/>
      </g>
     </g>
    </g>
    <g id="ytick_3">
     <g id="text_9">
      <!-- 0.2 -->
      <g style="fill: #262626" transform="translate(28.566562 223.115365) scale(0.11 -0.11)">
       <use xlink:href="#DejaVuSans-30"/>
       <use xlink:href="#DejaVuSans-2e" transform="translate(63.623047 0)"/>
       <use xlink:href="#DejaVuSans-32" transform="translate(95.410156 0)"/>
      </g>
     </g>
    </g>
    <g id="ytick_4">
     <g id="text_10">
      <!-- 0.3 -->
      <g style="fill: #262626" transform="translate(28.566562 183.523022) scale(0.11 -0.11)">
       <defs>
        <path id="DejaVuSans-33" d="M 2597 2516 
Q 3050 2419 3304 2112 
Q 3559 1806 3559 1356 
Q 3559 666 3084 287 
Q 2609 -91 1734 -91 
Q 1441 -91 1130 -33 
Q 819 25 488 141 
L 488 750 
Q 750 597 1062 519 
Q 1375 441 1716 441 
Q 2309 441 2620 675 
Q 2931 909 2931 1356 
Q 2931 1769 2642 2001 
Q 2353 2234 1838 2234 
L 1294 2234 
L 1294 2753 
L 1863 2753 
Q 2328 2753 2575 2939 
Q 2822 3125 2822 3475 
Q 2822 3834 2567 4026 
Q 2313 4219 1838 4219 
Q 1578 4219 1281 4162 
Q 984 4106 628 3988 
L 628 4550 
Q 988 4650 1302 4700 
Q 1616 4750 1894 4750 
Q 2613 4750 3031 4423 
Q 3450 4097 3450 3541 
Q 3450 3153 3228 2886 
Q 3006 2619 2597 2516 
z
" transform="scale(0.015625)"/>
       </defs>
       <use xlink:href="#DejaVuSans-30"/>
       <use xlink:href="#DejaVuSans-2e" transform="translate(63.623047 0)"/>
       <use xlink:href="#DejaVuSans-33" transform="translate(95.410156 0)"/>
      </g>
     </g>
    </g>
    <g id="ytick_5">
     <g id="text_11">
      <!-- 0.4 -->
      <g style="fill: #262626" transform="translate(28.566562 143.93068) scale(0.11 -0.11)">
       <defs>
        <path id="DejaVuSans-34" d="M 2419 4116 
L 825 1625 
L 2419 1625 
L 2419 4116 
z
M 2253 4666 
L 3047 4666 
L 3047 1625 
L 3713 1625 
L 3713 1100 
L 3047 1100 
L 3047 0 
L 2419 0 
L 2419 1100 
L 313 1100 
L 313 1709 
L 2253 4666 
z
" transform="scale(0.015625)"/>
       </defs>
       <use xlink:href="#DejaVuSans-30"/>
       <use xlink:href="#DejaVuSans-2e" transform="translate(63.623047 0)"/>
       <use xlink:href="#DejaVuSans-34" transform="translate(95.410156 0)"/>
      </g>
     </g>
    </g>
    <g id="ytick_6">
     <g id="text_12">
      <!-- 0.5 -->
      <g style="fill: #262626" transform="translate(28.566562 104.338337) scale(0.11 -0.11)">
       <use xlink:href="#DejaVuSans-30"/>
       <use xlink:href="#DejaVuSans-2e" transform="translate(63.623047 0)"/>
       <use xlink:href="#DejaVuSans-35" transform="translate(95.410156 0)"/>
      </g>
     </g>
    </g>
    <g id="ytick_7">
     <g id="text_13">
      <!-- 0.6 -->
      <g style="fill: #262626" transform="translate(28.566562 64.745995) scale(0.11 -0.11)">
       <defs>
        <path id="DejaVuSans-36" d="M 2113 2584 
Q 1688 2584 1439 2293 
Q 1191 2003 1191 1497 
Q 1191 994 1439 701 
Q 1688 409 2113 409 
Q 2538 409 2786 701 
Q 3034 994 3034 1497 
Q 3034 2003 2786 2293 
Q 2538 2584 2113 2584 
z
M 3366 4563 
L 3366 3988 
Q 3128 4100 2886 4159 
Q 2644 4219 2406 4219 
Q 1781 4219 1451 3797 
Q 1122 3375 1075 2522 
Q 1259 2794 1537 2939 
Q 1816 3084 2150 3084 
Q 2853 3084 3261 2657 
Q 3669 2231 3669 1497 
Q 3669 778 3244 343 
Q 2819 -91 2113 -91 
Q 1303 -91 875 529 
Q 447 1150 447 2328 
Q 447 3434 972 4092 
Q 1497 4750 2381 4750 
Q 2619 4750 2861 4703 
Q 3103 4656 3366 4563 
z
" transform="scale(0.015625)"/>
       </defs>
       <use xlink:href="#DejaVuSans-30"/>
       <use xlink:href="#DejaVuSans-2e" transform="translate(63.623047 0)"/>
       <use xlink:href="#DejaVuSans-36" transform="translate(95.410156 0)"/>
      </g>
     </g>
    </g>
    <g id="text_14">
     <!-- nRMSE -->
     <g style="fill: #262626" transform="translate(22.070937 190.27875) rotate(-90) scale(0.12 -0.12)">
      <defs>
       <path id="DejaVuSans-6e" d="M 3513 2113 
L 3513 0 
L 2938 0 
L 2938 2094 
Q 2938 2591 2744 2837 
Q 2550 3084 2163 3084 
Q 1697 3084 1428 2787 
Q 1159 2491 1159 1978 
L 1159 0 
L 581 0 
L 581 3500 
L 1159 3500 
L 1159 2956 
Q 1366 3272 1645 3428 
Q 1925 3584 2291 3584 
Q 2894 3584 3203 3211 
Q 3513 2838 3513 2113 
z
" transform="scale(0.015625)"/>
       <path id="DejaVuSans-52" d="M 2841 2188 
Q 3044 2119 3236 1894 
Q 3428 1669 3622 1275 
L 4263 0 
L 3584 0 
L 2988 1197 
Q 2756 1666 2539 1819 
Q 2322 1972 1947 1972 
L 1259 1972 
L 1259 0 
L 628 0 
L 628 4666 
L 2053 4666 
Q 2853 4666 3247 4331 
Q 3641 3997 3641 3322 
Q 3641 2881 3436 2590 
Q 3231 2300 2841 2188 
z
M 1259 4147 
L 1259 2491 
L 2053 2491 
Q 2509 2491 2742 2702 
Q 2975 2913 2975 3322 
Q 2975 3731 2742 3939 
Q 2509 4147 2053 4147 
L 1259 4147 
z
" transform="scale(0.015625)"/>
       <path id="DejaVuSans-4d" d="M 628 4666 
L 1569 4666 
L 2759 1491 
L 3956 4666 
L 4897 4666 
L 4897 0 
L 4281 0 
L 4281 4097 
L 3078 897 
L 2444 897 
L 1241 4097 
L 1241 0 
L 628 0 
L 628 4666 
z
" transform="scale(0.015625)"/>
       <path id="DejaVuSans-53" d="M 3425 4513 
L 3425 3897 
Q 3066 4069 2747 4153 
Q 2428 4238 2131 4238 
Q 1616 4238 1336 4038 
Q 1056 3838 1056 3469 
Q 1056 3159 1242 3001 
Q 1428 2844 1947 2747 
L 2328 2669 
Q 3034 2534 3370 2195 
Q 3706 1856 3706 1288 
Q 3706 609 3251 259 
Q 2797 -91 1919 -91 
Q 1588 -91 1214 -16 
Q 841 59 441 206 
L 441 856 
Q 825 641 1194 531 
Q 1563 422 1919 422 
Q 2459 422 2753 634 
Q 3047 847 3047 1241 
Q 3047 1584 2836 1778 
Q 2625 1972 2144 2069 
L 1759 2144 
Q 1053 2284 737 2584 
Q 422 2884 422 3419 
Q 422 4038 858 4394 
Q 1294 4750 2059 4750 
Q 2388 4750 2728 4690 
Q 3069 4631 3425 4513 
z
" transform="scale(0.015625)"/>
       <path id="DejaVuSans-45" d="M 628 4666 
L 3578 4666 
L 3578 4134 
L 1259 4134 
L 1259 2753 
L 3481 2753 
L 3481 2222 
L 1259 2222 
L 1259 531 
L 3634 531 
L 3634 0 
L 628 0 
L 628 4666 
z
" transform="scale(0.015625)"/>
      </defs>
      <use xlink:href="#DejaVuSans-6e"/>
      <use xlink:href="#DejaVuSans-52" transform="translate(63.378906 0)"/>
      <use xlink:href="#DejaVuSans-4d" transform="translate(132.861328 0)"/>
      <use xlink:href="#DejaVuSans-53" transform="translate(219.140625 0)"/>
      <use xlink:href="#DejaVuSans-45" transform="translate(282.617188 0)"/>
     </g>
    </g>
   </g>
   <g id="FillBetweenPolyCollection_1">
    <defs>
     <path id="me31c782afc" d="M 85.172727 -61.879091 
L 85.172727 -61.879091 
L 87.55126 -62.82514 
L 89.929792 -63.769184 
L 92.308324 -64.711398 
L 94.686857 -65.651926 
L 97.065389 -66.590886 
L 99.443921 -67.528406 
L 101.822453 -68.46466 
L 104.200986 -69.399845 
L 106.579518 -70.334169 
L 108.95805 -71.26782 
L 111.336583 -72.200961 
L 113.715115 -73.13372 
L 116.093647 -74.066216 
L 118.47218 -74.99855 
L 120.850712 -75.930792 
L 123.229244 -76.862964 
L 125.607777 -77.79502 
L 127.986309 -78.726851 
L 130.364841 -79.658277 
L 132.743373 -80.589061 
L 135.121906 -81.518917 
L 137.500438 -82.447544 
L 139.87897 -83.37463 
L 142.257503 -84.299856 
L 144.636035 -85.222903 
L 147.014567 -86.143459 
L 149.3931 -87.061233 
L 151.771632 -87.975959 
L 154.150164 -88.887438 
L 156.528697 -89.795575 
L 158.907229 -90.700426 
L 161.285761 -91.602194 
L 163.664294 -92.501274 
L 166.042826 -93.398227 
L 168.421358 -94.293743 
L 170.79989 -95.188634 
L 173.178423 -96.083796 
L 175.556955 -96.980126 
L 177.935487 -97.878432 
L 180.31402 -98.779334 
L 182.692552 -99.683193 
L 185.071084 -100.590073 
L 187.449617 -101.499764 
L 189.828149 -102.411886 
L 192.206681 -103.325955 
L 194.585214 -104.241479 
L 196.963746 -105.158001 
L 199.342278 -106.075107 
L 201.720811 -106.992437 
L 204.099343 -107.909666 
L 206.477875 -108.826498 
L 208.856407 -109.742636 
L 211.23494 -110.657763 
L 213.613472 -111.571554 
L 215.992004 -112.483678 
L 218.370537 -113.393825 
L 220.749069 -114.301733 
L 223.127601 -115.207197 
L 225.506134 -116.110103 
L 227.884666 -117.010455 
L 230.263198 -117.908375 
L 232.641731 -118.804098 
L 235.020263 -119.697944 
L 237.398795 -120.590286 
L 239.777327 -121.481524 
L 242.15586 -122.37207 
L 244.534392 -123.262334 
L 246.912924 -124.152724 
L 249.291457 -125.043635 
L 251.669989 -125.935443 
L 254.048521 -126.828502 
L 256.427054 -127.723146 
L 258.805586 -128.619672 
L 261.184118 -129.518338 
L 263.562651 -130.419346 
L 265.941183 -131.322849 
L 268.319715 -132.228946 
L 270.698248 -133.137688 
L 273.07678 -134.049089 
L 275.455312 -134.963137 
L 277.833844 -135.87981 
L 280.212377 -136.799088 
L 282.590909 -137.721004 
L 284.969441 -138.645672 
L 287.347974 -139.573328 
L 289.726506 -140.504336 
L 292.105038 -141.439175 
L 294.483571 -142.378397 
L 296.862103 -143.322569 
L 299.240635 -144.272192 
L 301.619168 -145.227634 
L 303.9977 -146.189073 
L 306.376232 -147.156453 
L 308.754765 -148.129504 
L 311.133297 -149.107789 
L 313.511829 -150.090784 
L 315.890361 -151.07796 
L 318.268894 -152.068852 
L 320.647426 -153.063092 
L 323.025958 -154.060416 
L 325.404491 -155.060646 
L 327.783023 -156.063679 
L 330.161555 -157.069455 
L 332.540088 -158.077937 
L 334.91862 -159.089062 
L 337.297152 -160.102702 
L 339.675685 -161.118643 
L 342.054217 -162.136595 
L 344.432749 -163.156208 
L 346.811281 -164.177113 
L 349.189814 -165.19894 
L 351.568346 -166.221348 
L 353.946878 -167.244062 
L 356.325411 -168.266883 
L 358.703943 -169.289692 
L 361.082475 -170.312465 
L 363.461008 -171.335246 
L 365.83954 -172.358115 
L 368.218072 -173.381157 
L 370.596605 -174.404431 
L 372.975137 -175.427938 
L 375.353669 -176.45161 
L 377.732202 -177.475298 
L 380.110734 -178.498775 
L 382.489266 -179.521755 
L 384.867798 -180.543898 
L 387.246331 -181.564825 
L 389.624863 -182.58412 
L 392.003395 -183.601341 
L 394.381928 -184.616034 
L 396.76046 -185.627744 
L 399.138992 -186.636026 
L 401.517525 -187.640437 
L 403.896057 -188.640539 
L 406.274589 -189.635894 
L 408.653122 -190.62606 
L 411.031654 -191.610607 
L 413.410186 -192.589127 
L 415.788719 -193.561244 
L 418.167251 -194.526623 
L 420.545783 -195.484997 
L 422.924315 -196.436177 
L 425.302848 -197.38006 
L 427.68138 -198.316628 
L 430.059912 -199.245962 
L 432.438445 -200.168229 
L 434.816977 -201.083614 
L 437.195509 -201.992258 
L 439.574042 -202.894205 
L 441.952574 -203.789383 
L 444.331106 -204.677611 
L 446.709639 -205.558618 
L 449.088171 -206.4321 
L 451.466703 -207.297757 
L 453.845235 -208.15533 
L 456.223768 -209.004626 
L 458.6023 -209.845525 
L 460.980832 -210.677962 
L 463.359365 -211.501915 
L 465.737897 -212.317404 
L 468.116429 -213.124466 
L 470.494962 -213.923149 
L 472.873494 -214.713524 
L 475.252026 -215.495691 
L 477.630559 -216.269805 
L 480.009091 -217.036099 
L 482.387623 -217.794891 
L 484.766156 -218.546587 
L 487.144688 -219.291652 
L 489.52322 -220.030616 
L 491.901752 -220.764043 
L 494.280285 -221.49249 
L 496.658817 -222.216486 
L 499.037349 -222.936526 
L 501.415882 -223.653068 
L 503.794414 -224.366515 
L 506.172946 -225.077217 
L 508.551479 -225.785475 
L 510.930011 -226.491551 
L 513.308543 -227.195674 
L 515.687076 -227.898057 
L 518.065608 -228.598893 
L 520.44414 -229.298351 
L 522.822673 -229.996587 
L 525.201205 -230.693735 
L 527.579737 -231.38991 
L 529.958269 -232.085206 
L 532.336802 -232.779693 
L 534.715334 -233.47342 
L 537.093866 -234.16642 
L 539.472399 -234.858707 
L 541.850931 -235.550279 
L 544.229463 -236.241133 
L 546.607996 -236.931263 
L 548.986528 -237.620653 
L 551.36506 -238.309264 
L 553.743593 -238.997013 
L 556.122125 -239.683743 
L 558.500657 -240.369176 
L 560.879189 -241.052913 
L 563.257722 -241.734414 
L 565.636254 -242.412989 
L 568.014786 -243.0878 
L 570.393319 -243.757902 
L 572.771851 -244.42227 
L 575.150383 -245.079856 
L 577.528916 -245.729592 
L 579.907448 -246.37045 
L 582.28598 -247.001468 
L 584.664513 -247.621763 
L 587.043045 -248.230546 
L 589.421577 -248.827183 
L 591.80011 -249.411216 
L 594.178642 -249.982394 
L 596.557174 -250.540679 
L 598.935706 -251.086272 
L 601.314239 -251.619601 
L 603.692771 -252.141302 
L 606.071303 -252.652206 
L 608.449836 -253.153318 
L 610.828368 -253.645745 
L 613.2069 -254.130649 
L 615.585433 -254.6092 
L 617.963965 -255.082516 
L 620.342497 -255.551627 
L 622.72103 -256.017449 
L 625.099562 -256.480785 
L 627.478094 -256.942332 
L 629.856627 -257.402705 
L 632.235159 -257.862464 
L 634.613691 -258.322126 
L 636.992223 -258.782185 
L 639.370756 -259.243129 
L 641.749288 -259.705414 
L 644.12782 -260.169494 
L 646.506353 -260.635796 
L 648.884885 -261.104691 
L 651.263417 -261.576467 
L 653.64195 -262.051334 
L 656.020482 -262.529403 
L 658.399014 -263.010685 
L 660.777547 -263.49511 
L 663.156079 -263.982582 
L 665.534611 -264.472981 
L 667.913143 -264.966196 
L 670.291676 -265.462165 
L 672.670208 -265.960887 
L 675.04874 -266.462426 
L 677.427273 -266.966926 
L 677.427273 -371.154893 
L 677.427273 -371.154893 
L 675.04874 -370.519951 
L 672.670208 -369.875655 
L 670.291676 -369.222835 
L 667.913143 -368.562344 
L 665.534611 -367.894992 
L 663.156079 -367.221533 
L 660.777547 -366.542657 
L 658.399014 -365.858955 
L 656.020482 -365.170946 
L 653.64195 -364.479065 
L 651.263417 -363.783683 
L 648.884885 -363.085158 
L 646.506353 -362.383831 
L 644.12782 -361.680054 
L 641.749288 -360.974217 
L 639.370756 -360.266735 
L 636.992223 -359.558056 
L 634.613691 -358.848673 
L 632.235159 -358.13909 
L 629.856627 -357.429816 
L 627.478094 -356.721355 
L 625.099562 -356.014178 
L 622.72103 -355.3087 
L 620.342497 -354.605296 
L 617.963965 -353.904239 
L 615.585433 -353.205697 
L 613.2069 -352.509708 
L 610.828368 -351.816158 
L 608.449836 -351.124778 
L 606.071303 -350.435145 
L 603.692771 -349.746701 
L 601.314239 -349.058771 
L 598.935706 -348.370613 
L 596.557174 -347.681448 
L 594.178642 -346.990502 
L 591.80011 -346.297028 
L 589.421577 -345.600328 
L 587.043045 -344.899802 
L 584.664513 -344.194975 
L 582.28598 -343.485491 
L 579.907448 -342.771121 
L 577.528916 -342.051783 
L 575.150383 -341.327535 
L 572.771851 -340.598555 
L 570.393319 -339.865124 
L 568.014786 -339.12761 
L 565.636254 -338.38642 
L 563.257722 -337.641956 
L 560.879189 -336.894584 
L 558.500657 -336.144583 
L 556.122125 -335.392137 
L 553.743593 -334.637334 
L 551.36506 -333.880185 
L 548.986528 -333.120671 
L 546.607996 -332.358801 
L 544.229463 -331.594651 
L 541.850931 -330.828413 
L 539.472399 -330.060418 
L 537.093866 -329.291154 
L 534.715334 -328.521228 
L 532.336802 -327.751342 
L 529.958269 -326.982234 
L 527.579737 -326.214614 
L 525.201205 -325.449126 
L 522.822673 -324.686303 
L 520.44414 -323.926545 
L 518.065608 -323.170105 
L 515.687076 -322.417092 
L 513.308543 -321.667473 
L 510.930011 -320.921091 
L 508.551479 -320.177702 
L 506.172946 -319.437007 
L 503.794414 -318.698665 
L 501.415882 -317.962329 
L 499.037349 -317.227668 
L 496.658817 -316.494373 
L 494.280285 -315.76216 
L 491.901752 -315.03075 
L 489.52322 -314.299865 
L 487.144688 -313.569191 
L 484.766156 -312.838391 
L 482.387623 -312.10709 
L 480.009091 -311.374904 
L 477.630559 -310.641454 
L 475.252026 -309.906377 
L 472.873494 -309.16935 
L 470.494962 -308.430099 
L 468.116429 -307.688379 
L 465.737897 -306.943981 
L 463.359365 -306.196731 
L 460.980832 -305.446452 
L 458.6023 -304.692961 
L 456.223768 -303.936074 
L 453.845235 -303.175578 
L 451.466703 -302.411222 
L 449.088171 -301.642721 
L 446.709639 -300.869742 
L 444.331106 -300.09188 
L 441.952574 -299.308677 
L 439.574042 -298.519604 
L 437.195509 -297.724049 
L 434.816977 -296.921318 
L 432.438445 -296.110659 
L 430.059912 -295.29127 
L 427.68138 -294.462356 
L 425.302848 -293.623126 
L 422.924315 -292.772815 
L 420.545783 -291.910678 
L 418.167251 -291.036023 
L 415.788719 -290.148192 
L 413.410186 -289.246566 
L 411.031654 -288.33061 
L 408.653122 -287.399897 
L 406.274589 -286.454115 
L 403.896057 -285.493086 
L 401.517525 -284.516759 
L 399.138992 -283.525198 
L 396.76046 -282.518555 
L 394.381928 -281.497023 
L 392.003395 -280.460827 
L 389.624863 -279.410187 
L 387.246331 -278.345275 
L 384.867798 -277.266238 
L 382.489266 -276.173192 
L 380.110734 -275.06622 
L 377.732202 -273.945398 
L 375.353669 -272.8108 
L 372.975137 -271.662482 
L 370.596605 -270.500476 
L 368.218072 -269.324754 
L 365.83954 -268.135209 
L 363.461008 -266.931644 
L 361.082475 -265.713771 
L 358.703943 -264.481222 
L 356.325411 -263.233584 
L 353.946878 -261.970435 
L 351.568346 -260.691378 
L 349.189814 -259.396082 
L 346.811281 -258.084294 
L 344.432749 -256.755829 
L 342.054217 -255.410552 
L 339.675685 -254.048373 
L 337.297152 -252.669219 
L 334.91862 -251.273041 
L 332.540088 -249.859829 
L 330.161555 -248.429611 
L 327.783023 -246.982472 
L 325.404491 -245.518565 
L 323.025958 -244.038129 
L 320.647426 -242.54152 
L 318.268894 -241.029193 
L 315.890361 -239.501711 
L 313.511829 -237.959694 
L 311.133297 -236.403777 
L 308.754765 -234.834576 
L 306.376232 -233.252657 
L 303.9977 -231.658564 
L 301.619168 -230.052757 
L 299.240635 -228.435663 
L 296.862103 -226.807697 
L 294.483571 -225.169237 
L 292.105038 -223.520649 
L 289.726506 -221.862259 
L 287.347974 -220.194335 
L 284.969441 -218.517103 
L 282.590909 -216.830722 
L 280.212377 -215.135275 
L 277.833844 -213.430806 
L 275.455312 -211.717326 
L 273.07678 -209.994852 
L 270.698248 -208.263412 
L 268.319715 -206.523068 
L 265.941183 -204.773946 
L 263.562651 -203.016218 
L 261.184118 -201.250123 
L 258.805586 -199.47595 
L 256.427054 -197.694041 
L 254.048521 -195.904768 
L 251.669989 -194.108542 
L 249.291457 -192.305761 
L 246.912924 -190.496847 
L 244.534392 -188.682228 
L 242.15586 -186.862346 
L 239.777327 -185.037645 
L 237.398795 -183.20855 
L 235.020263 -181.375472 
L 232.641731 -179.538782 
L 230.263198 -177.698827 
L 227.884666 -175.855931 
L 225.506134 -174.010365 
L 223.127601 -172.162339 
L 220.749069 -170.312001 
L 218.370537 -168.459429 
L 215.992004 -166.604665 
L 213.613472 -164.747706 
L 211.23494 -162.888535 
L 208.856407 -161.027135 
L 206.477875 -159.163449 
L 204.099343 -157.297401 
L 201.720811 -155.428931 
L 199.342278 -153.557958 
L 196.963746 -151.684373 
L 194.585214 -149.808045 
L 192.206681 -147.928832 
L 189.828149 -146.046661 
L 187.449617 -144.161469 
L 185.071084 -142.273206 
L 182.692552 -140.381865 
L 180.31402 -138.487455 
L 177.935487 -136.590071 
L 175.556955 -134.68989 
L 173.178423 -132.787136 
L 170.79989 -130.882082 
L 168.421358 -128.975062 
L 166.042826 -127.066458 
L 163.664294 -125.156629 
L 161.285761 -123.245915 
L 158.907229 -121.334688 
L 156.528697 -119.423256 
L 154.150164 -117.511876 
L 151.771632 -115.600787 
L 149.3931 -113.690165 
L 147.014567 -111.780117 
L 144.636035 -109.870682 
L 142.257503 -107.961823 
L 139.87897 -106.05344 
L 137.500438 -104.145403 
L 135.121906 -102.237564 
L 132.743373 -100.329767 
L 130.364841 -98.421874 
L 127.986309 -96.513736 
L 125.607777 -94.605191 
L 123.229244 -92.696054 
L 120.850712 -90.786096 
L 118.47218 -88.875041 
L 116.093647 -86.962565 
L 113.715115 -85.048343 
L 111.336583 -83.132042 
L 108.95805 -81.213333 
L 106.579518 -79.291902 
L 104.200986 -77.36751 
L 101.822453 -75.440017 
L 99.443921 -73.509421 
L 97.065389 -71.575871 
L 94.686857 -69.639674 
L 92.308324 -67.70129 
L 89.929792 -65.761289 
L 87.55126 -63.82031 
L 85.172727 -61.879091 
z
" style="stroke: #000000; stroke-opacity: 0.1"/>
    </defs>
    <g clip-path="url(#pf152ce0851)">
     <use xlink:href="#me31c782afc" x="0" y="360" style="fill-opacity: 0.1; stroke: #000000; stroke-opacity: 0.1"/>
    </g>
   </g>
   <g id="FillBetweenPolyCollection_2">
    <defs>
     <path id="me9800ffa36" d="M 85.172727 -61.879091 
L 85.172727 -61.879091 
L 87.55126 -62.819251 
L 89.929792 -63.749572 
L 92.308324 -64.670512 
L 94.686857 -65.582435 
L 97.065389 -66.48559 
L 99.443921 -67.380159 
L 101.822453 -68.266323 
L 104.200986 -69.144237 
L 106.579518 -70.014027 
L 108.95805 -70.875771 
L 111.336583 -71.729486 
L 113.715115 -72.575144 
L 116.093647 -73.412701 
L 118.47218 -74.242109 
L 120.850712 -75.063315 
L 123.229244 -75.876267 
L 125.607777 -76.680894 
L 127.986309 -77.477078 
L 130.364841 -78.264647 
L 132.743373 -79.04339 
L 135.121906 -79.813038 
L 137.500438 -80.573303 
L 139.87897 -81.323866 
L 142.257503 -82.06437 
L 144.636035 -82.794422 
L 147.014567 -83.513599 
L 149.3931 -84.221439 
L 151.771632 -84.917458 
L 154.150164 -85.601151 
L 156.528697 -86.272058 
L 158.907229 -86.929771 
L 161.285761 -87.573947 
L 163.664294 -88.204349 
L 166.042826 -88.820888 
L 168.421358 -89.423645 
L 170.79989 -90.01291 
L 173.178423 -90.58918 
L 175.556955 -91.153128 
L 177.935487 -91.70556 
L 180.31402 -92.247301 
L 182.692552 -92.779088 
L 185.071084 -93.301498 
L 187.449617 -93.814915 
L 189.828149 -94.31955 
L 192.206681 -94.815475 
L 194.585214 -95.3027 
L 196.963746 -95.781227 
L 199.342278 -96.251073 
L 201.720811 -96.712271 
L 204.099343 -97.164851 
L 206.477875 -97.608827 
L 208.856407 -98.044169 
L 211.23494 -98.470786 
L 213.613472 -98.888512 
L 215.992004 -99.297099 
L 218.370537 -99.696228 
L 220.749069 -100.085551 
L 223.127601 -100.46469 
L 225.506134 -100.833269 
L 227.884666 -101.190955 
L 230.263198 -101.537479 
L 232.641731 -101.872642 
L 235.020263 -102.196306 
L 237.398795 -102.508376 
L 239.777327 -102.808777 
L 242.15586 -103.097445 
L 244.534392 -103.374348 
L 246.912924 -103.639458 
L 249.291457 -103.892762 
L 251.669989 -104.134263 
L 254.048521 -104.36399 
L 256.427054 -104.581998 
L 258.805586 -104.788345 
L 261.184118 -104.983085 
L 263.562651 -105.166263 
L 265.941183 -105.337946 
L 268.319715 -105.498281 
L 270.698248 -105.647535 
L 273.07678 -105.786074 
L 275.455312 -105.914328 
L 277.833844 -106.032724 
L 280.212377 -106.141684 
L 282.590909 -106.241683 
L 284.969441 -106.333315 
L 287.347974 -106.41735 
L 289.726506 -106.494734 
L 292.105038 -106.566537 
L 294.483571 -106.633896 
L 296.862103 -106.697958 
L 299.240635 -106.759775 
L 301.619168 -106.820213 
L 303.9977 -106.879908 
L 306.376232 -106.939223 
L 308.754765 -106.998261 
L 311.133297 -107.056916 
L 313.511829 -107.114949 
L 315.890361 -107.172087 
L 318.268894 -107.228079 
L 320.647426 -107.282739 
L 323.025958 -107.33598 
L 325.404491 -107.387791 
L 327.783023 -107.43823 
L 330.161555 -107.487406 
L 332.540088 -107.535464 
L 334.91862 -107.58255 
L 337.297152 -107.628776 
L 339.675685 -107.674216 
L 342.054217 -107.718869 
L 344.432749 -107.762688 
L 346.811281 -107.805579 
L 349.189814 -107.847414 
L 351.568346 -107.888047 
L 353.946878 -107.927344 
L 356.325411 -107.965181 
L 358.703943 -108.001447 
L 361.082475 -108.036041 
L 363.461008 -108.068844 
L 365.83954 -108.099721 
L 368.218072 -108.12851 
L 370.596605 -108.15503 
L 372.975137 -108.179107 
L 375.353669 -108.200603 
L 377.732202 -108.219443 
L 380.110734 -108.235649 
L 382.489266 -108.24936 
L 384.867798 -108.260823 
L 387.246331 -108.270375 
L 389.624863 -108.278402 
L 392.003395 -108.285298 
L 394.381928 -108.291419 
L 396.76046 -108.297029 
L 399.138992 -108.302271 
L 401.517525 -108.30715 
L 403.896057 -108.311537 
L 406.274589 -108.315206 
L 408.653122 -108.317859 
L 411.031654 -108.319178 
L 413.410186 -108.318877 
L 415.788719 -108.316738 
L 418.167251 -108.312629 
L 420.545783 -108.30654 
L 422.924315 -108.298594 
L 425.302848 -108.289066 
L 427.68138 -108.278371 
L 430.059912 -108.267063 
L 432.438445 -108.255798 
L 434.816977 -108.245265 
L 437.195509 -108.236117 
L 439.574042 -108.228918 
L 441.952574 -108.22408 
L 444.331106 -108.221849 
L 446.709639 -108.222288 
L 449.088171 -108.225301 
L 451.466703 -108.230673 
L 453.845235 -108.238126 
L 456.223768 -108.24739 
L 458.6023 -108.258247 
L 460.980832 -108.270555 
L 463.359365 -108.284294 
L 465.737897 -108.29958 
L 468.116429 -108.316682 
L 470.494962 -108.336029 
L 472.873494 -108.358221 
L 475.252026 -108.383994 
L 477.630559 -108.414203 
L 480.009091 -108.44976 
L 482.387623 -108.491565 
L 484.766156 -108.540428 
L 487.144688 -108.596995 
L 489.52322 -108.661712 
L 491.901752 -108.734801 
L 494.280285 -108.816264 
L 496.658817 -108.90594 
L 499.037349 -109.003545 
L 501.415882 -109.108701 
L 503.794414 -109.220983 
L 506.172946 -109.339938 
L 508.551479 -109.465102 
L 510.930011 -109.595993 
L 513.308543 -109.732156 
L 515.687076 -109.873171 
L 518.065608 -110.018678 
L 520.44414 -110.16839 
L 522.822673 -110.322118 
L 525.201205 -110.479783 
L 527.579737 -110.641418 
L 529.958269 -110.807156 
L 532.336802 -110.977191 
L 534.715334 -111.151737 
L 537.093866 -111.330983 
L 539.472399 -111.515071 
L 541.850931 -111.704077 
L 544.229463 -111.898002 
L 546.607996 -112.096785 
L 548.986528 -112.300318 
L 551.36506 -112.508448 
L 553.743593 -112.721019 
L 556.122125 -112.937876 
L 558.500657 -113.158885 
L 560.879189 -113.38397 
L 563.257722 -113.613118 
L 565.636254 -113.846373 
L 568.014786 -114.083831 
L 570.393319 -114.325618 
L 572.771851 -114.571841 
L 575.150383 -114.822556 
L 577.528916 -115.077732 
L 579.907448 -115.337265 
L 582.28598 -115.600981 
L 584.664513 -115.868683 
L 587.043045 -116.140156 
L 589.421577 -116.415233 
L 591.80011 -116.693867 
L 594.178642 -116.976152 
L 596.557174 -117.262334 
L 598.935706 -117.552825 
L 601.314239 -117.848186 
L 603.692771 -118.149062 
L 606.071303 -118.456149 
L 608.449836 -118.770126 
L 610.828368 -119.091573 
L 613.2069 -119.420961 
L 615.585433 -119.758637 
L 617.963965 -120.104819 
L 620.342497 -120.459642 
L 622.72103 -120.823184 
L 625.099562 -121.195503 
L 627.478094 -121.576647 
L 629.856627 -121.966712 
L 632.235159 -122.365797 
L 634.613691 -122.773977 
L 636.992223 -123.191322 
L 639.370756 -123.617861 
L 641.749288 -124.053578 
L 644.12782 -124.498409 
L 646.506353 -124.952261 
L 648.884885 -125.415019 
L 651.263417 -125.88656 
L 653.64195 -126.366739 
L 656.020482 -126.855408 
L 658.399014 -127.352449 
L 660.777547 -127.857757 
L 663.156079 -128.371243 
L 665.534611 -128.892842 
L 667.913143 -129.422486 
L 670.291676 -129.960106 
L 672.670208 -130.505611 
L 675.04874 -131.058868 
L 677.427273 -131.619723 
L 677.427273 -190.03721 
L 677.427273 -190.03721 
L 675.04874 -188.64544 
L 672.670208 -187.270092 
L 670.291676 -185.911838 
L 667.913143 -184.571278 
L 665.534611 -183.248885 
L 663.156079 -181.945022 
L 660.777547 -180.659944 
L 658.399014 -179.393777 
L 656.020482 -178.146569 
L 653.64195 -176.91831 
L 651.263417 -175.708962 
L 648.884885 -174.518499 
L 646.506353 -173.346922 
L 644.12782 -172.194283 
L 641.749288 -171.060704 
L 639.370756 -169.946356 
L 636.992223 -168.85141 
L 634.613691 -167.776044 
L 632.235159 -166.720424 
L 629.856627 -165.684699 
L 627.478094 -164.669 
L 625.099562 -163.673446 
L 622.72103 -162.698167 
L 620.342497 -161.743326 
L 617.963965 -160.809156 
L 615.585433 -159.895995 
L 613.2069 -159.004285 
L 610.828368 -158.134561 
L 608.449836 -157.287463 
L 606.071303 -156.463689 
L 603.692771 -155.663955 
L 601.314239 -154.888922 
L 598.935706 -154.139115 
L 596.557174 -153.41486 
L 594.178642 -152.716275 
L 591.80011 -152.043254 
L 589.421577 -151.395532 
L 587.043045 -150.772757 
L 584.664513 -150.174535 
L 582.28598 -149.600406 
L 579.907448 -149.049905 
L 577.528916 -148.522591 
L 575.150383 -148.018077 
L 572.771851 -147.536095 
L 570.393319 -147.076513 
L 568.014786 -146.639361 
L 565.636254 -146.224838 
L 563.257722 -145.833247 
L 560.879189 -145.464956 
L 558.500657 -145.120327 
L 556.122125 -144.799659 
L 553.743593 -144.503164 
L 551.36506 -144.230916 
L 548.986528 -143.98288 
L 546.607996 -143.758924 
L 544.229463 -143.558773 
L 541.850931 -143.382098 
L 539.472399 -143.228557 
L 537.093866 -143.097782 
L 534.715334 -142.989386 
L 532.336802 -142.902941 
L 529.958269 -142.837965 
L 527.579737 -142.79394 
L 525.201205 -142.770308 
L 522.822673 -142.76648 
L 520.44414 -142.781823 
L 518.065608 -142.815657 
L 515.687076 -142.867259 
L 513.308543 -142.935858 
L 510.930011 -143.020639 
L 508.551479 -143.120749 
L 506.172946 -143.235337 
L 503.794414 -143.363559 
L 501.415882 -143.504605 
L 499.037349 -143.657758 
L 496.658817 -143.822412 
L 494.280285 -143.998056 
L 491.901752 -144.184268 
L 489.52322 -144.380678 
L 487.144688 -144.586929 
L 484.766156 -144.802662 
L 482.387623 -145.027479 
L 480.009091 -145.260949 
L 477.630559 -145.502609 
L 475.252026 -145.751951 
L 472.873494 -146.008474 
L 470.494962 -146.271737 
L 468.116429 -146.54136 
L 465.737897 -146.817037 
L 463.359365 -147.098556 
L 460.980832 -147.38579 
L 458.6023 -147.678624 
L 456.223768 -147.976951 
L 453.845235 -148.280599 
L 451.466703 -148.589309 
L 449.088171 -148.902707 
L 446.709639 -149.22028 
L 444.331106 -149.541392 
L 441.952574 -149.865336 
L 439.574042 -150.191371 
L 437.195509 -150.518708 
L 434.816977 -150.846508 
L 432.438445 -151.173879 
L 430.059912 -151.499904 
L 427.68138 -151.8237 
L 425.302848 -152.14443 
L 422.924315 -152.461352 
L 420.545783 -152.773825 
L 418.167251 -153.081318 
L 415.788719 -153.383371 
L 413.410186 -153.679584 
L 411.031654 -153.969636 
L 408.653122 -154.253245 
L 406.274589 -154.530145 
L 403.896057 -154.800066 
L 401.517525 -155.062724 
L 399.138992 -155.317813 
L 396.76046 -155.56496 
L 394.381928 -155.803707 
L 392.003395 -156.033505 
L 389.624863 -156.253726 
L 387.246331 -156.463669 
L 384.867798 -156.662611 
L 382.489266 -156.849835 
L 380.110734 -157.024667 
L 377.732202 -157.186501 
L 375.353669 -157.334813 
L 372.975137 -157.469163 
L 370.596605 -157.589177 
L 368.218072 -157.694526 
L 365.83954 -157.784896 
L 363.461008 -157.859947 
L 361.082475 -157.919301 
L 358.703943 -157.962543 
L 356.325411 -157.9892 
L 353.946878 -157.998741 
L 351.568346 -157.990595 
L 349.189814 -157.964161 
L 346.811281 -157.918824 
L 344.432749 -157.853985 
L 342.054217 -157.769066 
L 339.675685 -157.66355 
L 337.297152 -157.536991 
L 334.91862 -157.389072 
L 332.540088 -157.219624 
L 330.161555 -157.028623 
L 327.783023 -156.816193 
L 325.404491 -156.582609 
L 323.025958 -156.328296 
L 320.647426 -156.053809 
L 318.268894 -155.759815 
L 315.890361 -155.447067 
L 313.511829 -155.116357 
L 311.133297 -154.768486 
L 308.754765 -154.40425 
L 306.376232 -154.024414 
L 303.9977 -153.629705 
L 301.619168 -153.220777 
L 299.240635 -152.798221 
L 296.862103 -152.36259 
L 294.483571 -151.914358 
L 292.105038 -151.453935 
L 289.726506 -150.981676 
L 287.347974 -150.497912 
L 284.969441 -150.002967 
L 282.590909 -149.497146 
L 280.212377 -148.980755 
L 277.833844 -148.454148 
L 275.455312 -147.917718 
L 273.07678 -147.371851 
L 270.698248 -146.816904 
L 268.319715 -146.253229 
L 265.941183 -145.681188 
L 263.562651 -145.101178 
L 261.184118 -144.513608 
L 258.805586 -143.918861 
L 256.427054 -143.317264 
L 254.048521 -142.709025 
L 251.669989 -142.094235 
L 249.291457 -141.472859 
L 246.912924 -140.844756 
L 244.534392 -140.209673 
L 242.15586 -139.567277 
L 239.777327 -138.917142 
L 237.398795 -138.258731 
L 235.020263 -137.591433 
L 232.641731 -136.914568 
L 230.263198 -136.227421 
L 227.884666 -135.529266 
L 225.506134 -134.819378 
L 223.127601 -134.097032 
L 220.749069 -133.361504 
L 218.370537 -132.6121 
L 215.992004 -131.848157 
L 213.613472 -131.069038 
L 211.23494 -130.274171 
L 208.856407 -129.463056 
L 206.477875 -128.635252 
L 204.099343 -127.790395 
L 201.720811 -126.928194 
L 199.342278 -126.048411 
L 196.963746 -125.150872 
L 194.585214 -124.235464 
L 192.206681 -123.302122 
L 189.828149 -122.350824 
L 187.449617 -121.381564 
L 185.071084 -120.394334 
L 182.692552 -119.389124 
L 180.31402 -118.365865 
L 177.935487 -117.324415 
L 175.556955 -116.264556 
L 173.178423 -115.185999 
L 170.79989 -114.088454 
L 168.421358 -112.97162 
L 166.042826 -111.835238 
L 163.664294 -110.679115 
L 161.285761 -109.503118 
L 158.907229 -108.3072 
L 156.528697 -107.091384 
L 154.150164 -105.855753 
L 151.771632 -104.600475 
L 149.3931 -103.325765 
L 147.014567 -102.031841 
L 144.636035 -100.718934 
L 142.257503 -99.387262 
L 139.87897 -98.036994 
L 137.500438 -96.668299 
L 135.121906 -95.281325 
L 132.743373 -93.876172 
L 130.364841 -92.452945 
L 127.986309 -91.011675 
L 125.607777 -89.55236 
L 123.229244 -88.07493 
L 120.850712 -86.579253 
L 118.47218 -85.065163 
L 116.093647 -83.532431 
L 113.715115 -81.980817 
L 111.336583 -80.41006 
L 108.95805 -78.819894 
L 106.579518 -77.210088 
L 104.200986 -75.580519 
L 101.822453 -73.931208 
L 99.443921 -72.262372 
L 97.065389 -70.574438 
L 94.686857 -68.868067 
L 92.308324 -67.144158 
L 89.929792 -65.403807 
L 87.55126 -63.6483 
L 85.172727 -61.879091 
z
" style="stroke: #a52a2a; stroke-opacity: 0.1"/>
    </defs>
    <g clip-path="url(#pf152ce0851)">
     <use xlink:href="#me9800ffa36" x="0" y="360" style="fill: #a52a2a; fill-opacity: 0.1; stroke: #a52a2a; stroke-opacity: 0.1"/>
    </g>
   </g>
   <g id="FillBetweenPolyCollection_3">
    <defs>
     <path id="mb0c8f81b0b" d="M 85.172727 -61.879091 
L 85.172727 -61.879091 
L 87.55126 -62.20068 
L 89.929792 -62.507215 
L 92.308324 -62.79853 
L 94.686857 -63.074451 
L 97.065389 -63.334835 
L 99.443921 -63.579683 
L 101.822453 -63.809262 
L 104.200986 -64.024111 
L 106.579518 -64.224999 
L 108.95805 -64.412834 
L 111.336583 -64.588595 
L 113.715115 -64.753299 
L 116.093647 -64.908014 
L 118.47218 -65.053871 
L 120.850712 -65.192071 
L 123.229244 -65.323847 
L 125.607777 -65.450412 
L 127.986309 -65.572871 
L 130.364841 -65.69217 
L 132.743373 -65.809053 
L 135.121906 -65.92406 
L 137.500438 -66.037548 
L 139.87897 -66.149724 
L 142.257503 -66.260687 
L 144.636035 -66.370457 
L 147.014567 -66.478973 
L 149.3931 -66.586095 
L 151.771632 -66.691608 
L 154.150164 -66.795212 
L 156.528697 -66.896563 
L 158.907229 -66.995286 
L 161.285761 -67.090983 
L 163.664294 -67.183239 
L 166.042826 -67.271647 
L 168.421358 -67.355798 
L 170.79989 -67.435295 
L 173.178423 -67.509804 
L 175.556955 -67.579106 
L 177.935487 -67.643147 
L 180.31402 -67.70206 
L 182.692552 -67.756117 
L 185.071084 -67.805684 
L 187.449617 -67.851169 
L 189.828149 -67.89297 
L 192.206681 -67.931462 
L 194.585214 -67.967005 
L 196.963746 -67.999971 
L 199.342278 -68.030739 
L 201.720811 -68.059718 
L 204.099343 -68.087364 
L 206.477875 -68.114169 
L 208.856407 -68.140656 
L 211.23494 -68.167376 
L 213.613472 -68.194871 
L 215.992004 -68.223634 
L 218.370537 -68.254078 
L 220.749069 -68.286508 
L 223.127601 -68.321109 
L 225.506134 -68.357947 
L 227.884666 -68.396995 
L 230.263198 -68.438147 
L 232.641731 -68.481216 
L 235.020263 -68.525919 
L 237.398795 -68.571878 
L 239.777327 -68.618603 
L 242.15586 -68.665496 
L 244.534392 -68.711875 
L 246.912924 -68.756978 
L 249.291457 -68.8 
L 251.669989 -68.840119 
L 254.048521 -68.876538 
L 256.427054 -68.908552 
L 258.805586 -68.935607 
L 261.184118 -68.957337 
L 263.562651 -68.973552 
L 265.941183 -68.984218 
L 268.319715 -68.989424 
L 270.698248 -68.989347 
L 273.07678 -68.984252 
L 275.455312 -68.974452 
L 277.833844 -68.960267 
L 280.212377 -68.941994 
L 282.590909 -68.919869 
L 284.969441 -68.894121 
L 287.347974 -68.865023 
L 289.726506 -68.832907 
L 292.105038 -68.798176 
L 294.483571 -68.761299 
L 296.862103 -68.722787 
L 299.240635 -68.683124 
L 301.619168 -68.642712 
L 303.9977 -68.601873 
L 306.376232 -68.560908 
L 308.754765 -68.52017 
L 311.133297 -68.480124 
L 313.511829 -68.441361 
L 315.890361 -68.404581 
L 318.268894 -68.370542 
L 320.647426 -68.339996 
L 323.025958 -68.313628 
L 325.404491 -68.292024 
L 327.783023 -68.275646 
L 330.161555 -68.264815 
L 332.540088 -68.259698 
L 334.91862 -68.260305 
L 337.297152 -68.266497 
L 339.675685 -68.278 
L 342.054217 -68.294405 
L 344.432749 -68.315186 
L 346.811281 -68.339719 
L 349.189814 -68.367306 
L 351.568346 -68.397216 
L 353.946878 -68.428682 
L 356.325411 -68.460938 
L 358.703943 -68.493205 
L 361.082475 -68.524672 
L 363.461008 -68.554517 
L 365.83954 -68.581953 
L 368.218072 -68.606235 
L 370.596605 -68.626703 
L 372.975137 -68.642819 
L 375.353669 -68.654175 
L 377.732202 -68.660496 
L 380.110734 -68.661672 
L 382.489266 -68.657768 
L 384.867798 -68.649004 
L 387.246331 -68.635731 
L 389.624863 -68.6184 
L 392.003395 -68.597517 
L 394.381928 -68.573585 
L 396.76046 -68.547059 
L 399.138992 -68.518309 
L 401.517525 -68.487598 
L 403.896057 -68.455119 
L 406.274589 -68.421036 
L 408.653122 -68.385538 
L 411.031654 -68.348849 
L 413.410186 -68.311216 
L 415.788719 -68.272903 
L 418.167251 -68.234191 
L 420.545783 -68.195371 
L 422.924315 -68.156772 
L 425.302848 -68.118769 
L 427.68138 -68.08176 
L 430.059912 -68.046148 
L 432.438445 -68.012263 
L 434.816977 -67.980301 
L 437.195509 -67.950303 
L 439.574042 -67.92218 
L 441.952574 -67.895771 
L 444.331106 -67.870895 
L 446.709639 -67.847412 
L 449.088171 -67.825307 
L 451.466703 -67.804691 
L 453.845235 -67.785798 
L 456.223768 -67.768926 
L 458.6023 -67.754334 
L 460.980832 -67.742178 
L 463.359365 -67.732485 
L 465.737897 -67.725148 
L 468.116429 -67.720009 
L 470.494962 -67.716984 
L 472.873494 -67.716205 
L 475.252026 -67.71808 
L 477.630559 -67.723337 
L 480.009091 -67.732984 
L 482.387623 -67.748194 
L 484.766156 -67.770158 
L 487.144688 -67.799938 
L 489.52322 -67.838352 
L 491.901752 -67.885942 
L 494.280285 -67.942999 
L 496.658817 -68.009625 
L 499.037349 -68.08582 
L 501.415882 -68.171528 
L 503.794414 -68.266651 
L 506.172946 -68.371053 
L 508.551479 -68.484575 
L 510.930011 -68.606972 
L 513.308543 -68.737908 
L 515.687076 -68.876965 
L 518.065608 -69.02364 
L 520.44414 -69.177339 
L 522.822673 -69.337422 
L 525.201205 -69.503222 
L 527.579737 -69.674045 
L 529.958269 -69.849181 
L 532.336802 -70.027909 
L 534.715334 -70.209493 
L 537.093866 -70.393188 
L 539.472399 -70.578265 
L 541.850931 -70.764008 
L 544.229463 -70.949734 
L 546.607996 -71.134806 
L 548.986528 -71.318638 
L 551.36506 -71.500708 
L 553.743593 -71.680563 
L 556.122125 -71.857811 
L 558.500657 -72.032109 
L 560.879189 -72.203164 
L 563.257722 -72.370749 
L 565.636254 -72.534718 
L 568.014786 -72.695016 
L 570.393319 -72.851676 
L 572.771851 -73.004828 
L 575.150383 -73.154712 
L 577.528916 -73.301665 
L 579.907448 -73.446117 
L 582.28598 -73.588582 
L 584.664513 -73.72963 
L 587.043045 -73.869893 
L 589.421577 -74.01006 
L 591.80011 -74.150869 
L 594.178642 -74.293094 
L 596.557174 -74.437562 
L 598.935706 -74.585197 
L 601.314239 -74.737056 
L 603.692771 -74.894333 
L 606.071303 -75.058379 
L 608.449836 -75.230658 
L 610.828368 -75.412676 
L 613.2069 -75.605921 
L 615.585433 -75.811791 
L 617.963965 -76.031521 
L 620.342497 -76.266141 
L 622.72103 -76.516451 
L 625.099562 -76.783035 
L 627.478094 -77.066263 
L 629.856627 -77.36635 
L 632.235159 -77.683365 
L 634.613691 -78.017206 
L 636.992223 -78.367596 
L 639.370756 -78.734091 
L 641.749288 -79.116077 
L 644.12782 -79.512807 
L 646.506353 -79.923443 
L 648.884885 -80.347101 
L 651.263417 -80.782913 
L 653.64195 -81.230071 
L 656.020482 -81.68789 
L 658.399014 -82.155825 
L 660.777547 -82.633475 
L 663.156079 -83.120554 
L 665.534611 -83.616857 
L 667.913143 -84.122206 
L 670.291676 -84.636417 
L 672.670208 -85.159255 
L 675.04874 -85.690428 
L 677.427273 -86.229563 
L 677.427273 -97.799997 
L 677.427273 -97.799997 
L 675.04874 -96.92944 
L 672.670208 -96.073847 
L 670.291676 -95.233591 
L 667.913143 -94.409074 
L 665.534611 -93.60072 
L 663.156079 -92.80898 
L 660.777547 -92.034334 
L 658.399014 -91.27732 
L 656.020482 -90.538537 
L 653.64195 -89.818654 
L 651.263417 -89.118422 
L 648.884885 -88.438694 
L 646.506353 -87.780382 
L 644.12782 -87.144414 
L 641.749288 -86.531713 
L 639.370756 -85.943147 
L 636.992223 -85.379509 
L 634.613691 -84.841513 
L 632.235159 -84.329814 
L 629.856627 -83.844947 
L 627.478094 -83.387286 
L 625.099562 -82.957008 
L 622.72103 -82.554069 
L 620.342497 -82.1782 
L 617.963965 -81.828952 
L 615.585433 -81.50576 
L 613.2069 -81.20795 
L 610.828368 -80.934718 
L 608.449836 -80.685121 
L 606.071303 -80.457997 
L 603.692771 -80.251921 
L 601.314239 -80.065198 
L 598.935706 -79.895843 
L 596.557174 -79.741579 
L 594.178642 -79.599898 
L 591.80011 -79.468133 
L 589.421577 -79.343549 
L 587.043045 -79.223429 
L 584.664513 -79.105158 
L 582.28598 -78.986301 
L 579.907448 -78.864622 
L 577.528916 -78.738153 
L 575.150383 -78.605228 
L 572.771851 -78.464507 
L 570.393319 -78.314992 
L 568.014786 -78.156036 
L 565.636254 -77.987292 
L 563.257722 -77.808689 
L 560.879189 -77.620419 
L 558.500657 -77.422879 
L 556.122125 -77.21664 
L 553.743593 -77.002418 
L 551.36506 -76.781033 
L 548.986528 -76.553385 
L 546.607996 -76.320434 
L 544.229463 -76.083185 
L 541.850931 -75.842712 
L 539.472399 -75.600173 
L 537.093866 -75.356821 
L 534.715334 -75.113971 
L 532.336802 -74.872984 
L 529.958269 -74.635221 
L 527.579737 -74.40201 
L 525.201205 -74.174659 
L 522.822673 -73.95446 
L 520.44414 -73.742696 
L 518.065608 -73.540622 
L 515.687076 -73.349447 
L 513.308543 -73.170294 
L 510.930011 -73.004157 
L 508.551479 -72.851884 
L 506.172946 -72.714166 
L 503.794414 -72.591532 
L 501.415882 -72.484356 
L 499.037349 -72.392874 
L 496.658817 -72.317214 
L 494.280285 -72.257449 
L 491.901752 -72.213621 
L 489.52322 -72.185745 
L 487.144688 -72.173785 
L 484.766156 -72.177601 
L 482.387623 -72.196896 
L 480.009091 -72.231188 
L 477.630559 -72.27984 
L 475.252026 -72.342099 
L 472.873494 -72.417209 
L 470.494962 -72.504479 
L 468.116429 -72.603311 
L 465.737897 -72.713244 
L 463.359365 -72.8339 
L 460.980832 -72.964956 
L 458.6023 -73.106103 
L 456.223768 -73.256985 
L 453.845235 -73.417146 
L 451.466703 -73.586056 
L 449.088171 -73.763127 
L 446.709639 -73.947722 
L 444.331106 -74.139188 
L 441.952574 -74.336897 
L 439.574042 -74.540261 
L 437.195509 -74.748735 
L 434.816977 -74.961775 
L 432.438445 -75.178787 
L 430.059912 -75.399108 
L 427.68138 -75.622028 
L 425.302848 -75.846765 
L 422.924315 -76.072446 
L 420.545783 -76.298105 
L 418.167251 -76.522716 
L 415.788719 -76.745201 
L 413.410186 -76.964415 
L 411.031654 -77.179224 
L 408.653122 -77.388509 
L 406.274589 -77.591187 
L 403.896057 -77.786247 
L 401.517525 -77.972775 
L 399.138992 -78.149964 
L 396.76046 -78.31709 
L 394.381928 -78.473486 
L 392.003395 -78.61855 
L 389.624863 -78.751741 
L 387.246331 -78.872564 
L 384.867798 -78.980591 
L 382.489266 -79.075491 
L 380.110734 -79.157029 
L 377.732202 -79.225095 
L 375.353669 -79.279701 
L 372.975137 -79.321001 
L 370.596605 -79.349283 
L 368.218072 -79.364947 
L 365.83954 -79.368508 
L 363.461008 -79.360596 
L 361.082475 -79.341929 
L 358.703943 -79.31328 
L 356.325411 -79.275447 
L 353.946878 -79.229222 
L 351.568346 -79.175424 
L 349.189814 -79.114908 
L 346.811281 -79.048569 
L 344.432749 -78.977308 
L 342.054217 -78.901998 
L 339.675685 -78.823455 
L 337.297152 -78.742354 
L 334.91862 -78.659225 
L 332.540088 -78.574452 
L 330.161555 -78.488283 
L 327.783023 -78.400869 
L 325.404491 -78.312302 
L 323.025958 -78.222657 
L 320.647426 -78.132058 
L 318.268894 -78.040719 
L 315.890361 -77.949 
L 313.511829 -77.857425 
L 311.133297 -77.76669 
L 308.754765 -77.677607 
L 306.376232 -77.590988 
L 303.9977 -77.507521 
L 301.619168 -77.427636 
L 299.240635 -77.351448 
L 296.862103 -77.278749 
L 294.483571 -77.209033 
L 292.105038 -77.141609 
L 289.726506 -77.075721 
L 287.347974 -77.010636 
L 284.969441 -76.945709 
L 282.590909 -76.880393 
L 280.212377 -76.81426 
L 277.833844 -76.747024 
L 275.455312 -76.67856 
L 273.07678 -76.608882 
L 270.698248 -76.538153 
L 268.319715 -76.466696 
L 265.941183 -76.394993 
L 263.562651 -76.323681 
L 261.184118 -76.253518 
L 258.805586 -76.185301 
L 256.427054 -76.119822 
L 254.048521 -76.057842 
L 251.669989 -76.000054 
L 249.291457 -75.947016 
L 246.912924 -75.899103 
L 244.534392 -75.856511 
L 242.15586 -75.819273 
L 239.777327 -75.787272 
L 237.398795 -75.760278 
L 235.020263 -75.737979 
L 232.641731 -75.720031 
L 230.263198 -75.7061 
L 227.884666 -75.695838 
L 225.506134 -75.688856 
L 223.127601 -75.684689 
L 220.749069 -75.682755 
L 218.370537 -75.682366 
L 215.992004 -75.682726 
L 213.613472 -75.682975 
L 211.23494 -75.682232 
L 208.856407 -75.679631 
L 206.477875 -75.674333 
L 204.099343 -75.66555 
L 201.720811 -75.652561 
L 199.342278 -75.634685 
L 196.963746 -75.61127 
L 194.585214 -75.581678 
L 192.206681 -75.545302 
L 189.828149 -75.501554 
L 187.449617 -75.449876 
L 185.071084 -75.389727 
L 182.692552 -75.320597 
L 180.31402 -75.242028 
L 177.935487 -75.153603 
L 175.556955 -75.054951 
L 173.178423 -74.945759 
L 170.79989 -74.825766 
L 168.421358 -74.694746 
L 166.042826 -74.552493 
L 163.664294 -74.398801 
L 161.285761 -74.233466 
L 158.907229 -74.056311 
L 156.528697 -73.867183 
L 154.150164 -73.665941 
L 151.771632 -73.45253 
L 149.3931 -73.226969 
L 147.014567 -72.989333 
L 144.636035 -72.739744 
L 142.257503 -72.478362 
L 139.87897 -72.205344 
L 137.500438 -71.920858 
L 135.121906 -71.625011 
L 132.743373 -71.317798 
L 130.364841 -70.999117 
L 127.986309 -70.66869 
L 125.607777 -70.326099 
L 123.229244 -69.970751 
L 120.850712 -69.601904 
L 118.47218 -69.21872 
L 116.093647 -68.820283 
L 113.715115 -68.405668 
L 111.336583 -67.9739 
L 108.95805 -67.524003 
L 106.579518 -67.055051 
L 104.200986 -66.566193 
L 101.822453 -66.056644 
L 99.443921 -65.525765 
L 97.065389 -64.973071 
L 94.686857 -64.398259 
L 92.308324 -63.801219 
L 89.929792 -63.182058 
L 87.55126 -62.541141 
L 85.172727 -61.879091 
z
" style="stroke: #000080; stroke-opacity: 0.1"/>
    </defs>
    <g clip-path="url(#pf152ce0851)">
     <use xlink:href="#mb0c8f81b0b" x="0" y="360" style="fill: #000080; fill-opacity: 0.1; stroke: #000080; stroke-opacity: 0.1"/>
    </g>
   </g>
   <g id="FillBetweenPolyCollection_4">
    <defs>
     <path id="mc78be60ed5" d="M 85.172727 -61.879091 
L 85.172727 -61.879091 
L 87.55126 -62.426104 
L 89.929792 -62.958035 
L 92.308324 -63.474236 
L 94.686857 -63.974049 
L 97.065389 -64.456871 
L 99.443921 -64.922237 
L 101.822453 -65.369885 
L 104.200986 -65.799763 
L 106.579518 -66.212032 
L 108.95805 -66.607071 
L 111.336583 -66.985487 
L 113.715115 -67.348075 
L 116.093647 -67.695786 
L 118.47218 -68.02967 
L 120.850712 -68.350835 
L 123.229244 -68.660358 
L 125.607777 -68.95922 
L 127.986309 -69.248245 
L 130.364841 -69.528056 
L 132.743373 -69.799069 
L 135.121906 -70.061487 
L 137.500438 -70.315324 
L 139.87897 -70.560454 
L 142.257503 -70.796638 
L 144.636035 -71.023564 
L 147.014567 -71.240881 
L 149.3931 -71.448201 
L 151.771632 -71.645156 
L 154.150164 -71.831391 
L 156.528697 -72.00662 
L 158.907229 -72.170613 
L 161.285761 -72.323186 
L 163.664294 -72.464194 
L 166.042826 -72.593564 
L 168.421358 -72.711261 
L 170.79989 -72.817281 
L 173.178423 -72.911667 
L 175.556955 -72.994485 
L 177.935487 -73.065854 
L 180.31402 -73.125921 
L 182.692552 -73.174863 
L 185.071084 -73.21286 
L 187.449617 -73.240109 
L 189.828149 -73.256831 
L 192.206681 -73.263282 
L 194.585214 -73.259765 
L 196.963746 -73.24664 
L 199.342278 -73.224334 
L 201.720811 -73.193315 
L 204.099343 -73.154094 
L 206.477875 -73.107202 
L 208.856407 -73.053177 
L 211.23494 -72.992565 
L 213.613472 -72.925895 
L 215.992004 -72.853673 
L 218.370537 -72.776398 
L 220.749069 -72.694582 
L 223.127601 -72.608752 
L 225.506134 -72.519457 
L 227.884666 -72.427302 
L 230.263198 -72.332976 
L 232.641731 -72.23724 
L 235.020263 -72.140894 
L 237.398795 -72.044749 
L 239.777327 -71.949558 
L 242.15586 -71.855945 
L 244.534392 -71.764365 
L 246.912924 -71.675071 
L 249.291457 -71.588128 
L 251.669989 -71.50344 
L 254.048521 -71.420768 
L 256.427054 -71.339774 
L 258.805586 -71.26007 
L 261.184118 -71.181247 
L 263.562651 -71.102861 
L 265.941183 -71.02449 
L 268.319715 -70.945849 
L 270.698248 -70.866912 
L 273.07678 -70.78797 
L 275.455312 -70.709569 
L 277.833844 -70.632424 
L 280.212377 -70.557381 
L 282.590909 -70.485443 
L 284.969441 -70.417833 
L 287.347974 -70.356012 
L 289.726506 -70.301616 
L 292.105038 -70.256329 
L 294.483571 -70.221751 
L 296.862103 -70.199277 
L 299.240635 -70.189945 
L 301.619168 -70.19436 
L 303.9977 -70.21267 
L 306.376232 -70.2446 
L 308.754765 -70.289544 
L 311.133297 -70.346674 
L 313.511829 -70.415043 
L 315.890361 -70.493716 
L 318.268894 -70.581815 
L 320.647426 -70.678509 
L 323.025958 -70.783033 
L 325.404491 -70.894655 
L 327.783023 -71.01269 
L 330.161555 -71.136482 
L 332.540088 -71.26544 
L 334.91862 -71.399036 
L 337.297152 -71.536777 
L 339.675685 -71.678153 
L 342.054217 -71.822591 
L 344.432749 -71.969424 
L 346.811281 -72.117827 
L 349.189814 -72.266858 
L 351.568346 -72.415451 
L 353.946878 -72.562415 
L 356.325411 -72.706445 
L 358.703943 -72.846162 
L 361.082475 -72.98008 
L 363.461008 -73.106604 
L 365.83954 -73.224111 
L 368.218072 -73.330956 
L 370.596605 -73.425529 
L 372.975137 -73.506308 
L 375.353669 -73.571908 
L 377.732202 -73.62113 
L 380.110734 -73.653057 
L 382.489266 -73.667114 
L 384.867798 -73.663096 
L 387.246331 -73.64119 
L 389.624863 -73.601957 
L 392.003395 -73.546271 
L 394.381928 -73.475216 
L 396.76046 -73.389996 
L 399.138992 -73.291844 
L 401.517525 -73.181925 
L 403.896057 -73.061271 
L 406.274589 -72.9308 
L 408.653122 -72.791306 
L 411.031654 -72.643518 
L 413.410186 -72.488169 
L 415.788719 -72.326036 
L 418.167251 -72.158004 
L 420.545783 -71.985126 
L 422.924315 -71.808656 
L 425.302848 -71.630068 
L 427.68138 -71.451034 
L 430.059912 -71.27338 
L 432.438445 -71.099027 
L 434.816977 -70.929909 
L 437.195509 -70.767875 
L 439.574042 -70.614572 
L 441.952574 -70.471394 
L 444.331106 -70.339471 
L 446.709639 -70.219727 
L 449.088171 -70.112986 
L 451.466703 -70.02004 
L 453.845235 -69.941693 
L 456.223768 -69.878748 
L 458.6023 -69.831984 
L 460.980832 -69.802102 
L 463.359365 -69.789712 
L 465.737897 -69.795343 
L 468.116429 -69.819465 
L 470.494962 -69.862567 
L 472.873494 -69.92516 
L 475.252026 -70.007756 
L 477.630559 -70.110809 
L 480.009091 -70.234584 
L 482.387623 -70.379045 
L 484.766156 -70.543765 
L 487.144688 -70.727852 
L 489.52322 -70.929963 
L 491.901752 -71.148354 
L 494.280285 -71.380974 
L 496.658817 -71.625611 
L 499.037349 -71.880096 
L 501.415882 -72.142516 
L 503.794414 -72.411375 
L 506.172946 -72.685682 
L 508.551479 -72.964972 
L 510.930011 -73.249228 
L 513.308543 -73.538751 
L 515.687076 -73.833992 
L 518.065608 -74.135436 
L 520.44414 -74.443469 
L 522.822673 -74.758327 
L 525.201205 -75.080062 
L 527.579737 -75.408527 
L 529.958269 -75.74339 
L 532.336802 -76.084109 
L 534.715334 -76.429902 
L 537.093866 -76.779727 
L 539.472399 -77.132308 
L 541.850931 -77.486222 
L 544.229463 -77.840009 
L 546.607996 -78.192286 
L 548.986528 -78.541834 
L 551.36506 -78.887643 
L 553.743593 -79.228943 
L 556.122125 -79.565219 
L 558.500657 -79.896239 
L 560.879189 -80.222045 
L 563.257722 -80.542943 
L 565.636254 -80.859451 
L 568.014786 -81.172221 
L 570.393319 -81.481957 
L 572.771851 -81.789365 
L 575.150383 -82.09508 
L 577.528916 -82.39965 
L 579.907448 -82.703606 
L 582.28598 -83.007513 
L 584.664513 -83.312037 
L 587.043045 -83.618021 
L 589.421577 -83.926545 
L 591.80011 -84.238948 
L 594.178642 -84.556838 
L 596.557174 -84.882086 
L 598.935706 -85.216777 
L 601.314239 -85.563171 
L 603.692771 -85.923627 
L 606.071303 -86.30054 
L 608.449836 -86.696252 
L 610.828368 -87.112994 
L 613.2069 -87.552848 
L 615.585433 -88.017691 
L 617.963965 -88.509202 
L 620.342497 -89.028817 
L 622.72103 -89.577703 
L 625.099562 -90.156734 
L 627.478094 -90.76644 
L 629.856627 -91.407 
L 632.235159 -92.078243 
L 634.613691 -92.779643 
L 636.992223 -93.510343 
L 639.370756 -94.269145 
L 641.749288 -95.054524 
L 644.12782 -95.86466 
L 646.506353 -96.697472 
L 648.884885 -97.550641 
L 651.263417 -98.421653 
L 653.64195 -99.307833 
L 656.020482 -100.206392 
L 658.399014 -101.114485 
L 660.777547 -102.029286 
L 663.156079 -102.948065 
L 665.534611 -103.868309 
L 667.913143 -104.787823 
L 670.291676 -105.704809 
L 672.670208 -106.617921 
L 675.04874 -107.526299 
L 677.427273 -108.429517 
L 677.427273 -132.140993 
L 677.427273 -132.140993 
L 675.04874 -130.861285 
L 672.670208 -129.612599 
L 670.291676 -128.394866 
L 667.913143 -127.207924 
L 665.534611 -126.051508 
L 663.156079 -124.925216 
L 660.777547 -123.82847 
L 658.399014 -122.760533 
L 656.020482 -121.720528 
L 653.64195 -120.707469 
L 651.263417 -119.720339 
L 648.884885 -118.75816 
L 646.506353 -117.820035 
L 644.12782 -116.905162 
L 641.749288 -116.012832 
L 639.370756 -115.142403 
L 636.992223 -114.293248 
L 634.613691 -113.464715 
L 632.235159 -112.656116 
L 629.856627 -111.866743 
L 627.478094 -111.095855 
L 625.099562 -110.342715 
L 622.72103 -109.606633 
L 620.342497 -108.886981 
L 617.963965 -108.183236 
L 615.585433 -107.495032 
L 613.2069 -106.822165 
L 610.828368 -106.1646 
L 608.449836 -105.522441 
L 606.071303 -104.895898 
L 603.692771 -104.285226 
L 601.314239 -103.690627 
L 598.935706 -103.112173 
L 596.557174 -102.549724 
L 594.178642 -102.00282 
L 591.80011 -101.470621 
L 589.421577 -100.951877 
L 587.043045 -100.444888 
L 584.664513 -99.947518 
L 582.28598 -99.457255 
L 579.907448 -98.971271 
L 577.528916 -98.48654 
L 575.150383 -98.000032 
L 572.771851 -97.508884 
L 570.393319 -97.010557 
L 568.014786 -96.503002 
L 565.636254 -95.984748 
L 563.257722 -95.454893 
L 560.879189 -94.913058 
L 558.500657 -94.359317 
L 556.122125 -93.79412 
L 553.743593 -93.218253 
L 551.36506 -92.63278 
L 548.986528 -92.039007 
L 546.607996 -91.438454 
L 544.229463 -90.832905 
L 541.850931 -90.224459 
L 539.472399 -89.61559 
L 537.093866 -89.009196 
L 534.715334 -88.408632 
L 532.336802 -87.817717 
L 529.958269 -87.240724 
L 527.579737 -86.682347 
L 525.201205 -86.147652 
L 522.822673 -85.642036 
L 520.44414 -85.171152 
L 518.065608 -84.740836 
L 515.687076 -84.356968 
L 513.308543 -84.025284 
L 510.930011 -83.751153 
L 508.551479 -83.539337 
L 506.172946 -83.393748 
L 503.794414 -83.317207 
L 501.415882 -83.311297 
L 499.037349 -83.376292 
L 496.658817 -83.511177 
L 494.280285 -83.713741 
L 491.901752 -83.980762 
L 489.52322 -84.308282 
L 487.144688 -84.69192 
L 484.766156 -85.127134 
L 482.387623 -85.609426 
L 480.009091 -86.134523 
L 477.630559 -86.698475 
L 475.252026 -87.297605 
L 472.873494 -87.928518 
L 470.494962 -88.588032 
L 468.116429 -89.273077 
L 465.737897 -89.980673 
L 463.359365 -90.707858 
L 460.980832 -91.451645 
L 458.6023 -92.209069 
L 456.223768 -92.977137 
L 453.845235 -93.752854 
L 451.466703 -94.533293 
L 449.088171 -95.315616 
L 446.709639 -96.097137 
L 444.331106 -96.875329 
L 441.952574 -97.647834 
L 439.574042 -98.412462 
L 437.195509 -99.16716 
L 434.816977 -99.909989 
L 432.438445 -100.639091 
L 430.059912 -101.352723 
L 427.68138 -102.049232 
L 425.302848 -102.727031 
L 422.924315 -103.384619 
L 420.545783 -104.020612 
L 418.167251 -104.633722 
L 415.788719 -105.222761 
L 413.410186 -105.786628 
L 411.031654 -106.324294 
L 408.653122 -106.834782 
L 406.274589 -107.317156 
L 403.896057 -107.770511 
L 401.517525 -108.193919 
L 399.138992 -108.5864 
L 396.76046 -108.946906 
L 394.381928 -109.274302 
L 392.003395 -109.567402 
L 389.624863 -109.825044 
L 387.246331 -110.046164 
L 384.867798 -110.229902 
L 382.489266 -110.375701 
L 380.110734 -110.483423 
L 377.732202 -110.553416 
L 375.353669 -110.586533 
L 372.975137 -110.584095 
L 370.596605 -110.54783 
L 368.218072 -110.479754 
L 365.83954 -110.382048 
L 363.461008 -110.256955 
L 361.082475 -110.106687 
L 358.703943 -109.93339 
L 356.325411 -109.739094 
L 353.946878 -109.525706 
L 351.568346 -109.295025 
L 349.189814 -109.048755 
L 346.811281 -108.788498 
L 344.432749 -108.51575 
L 342.054217 -108.231891 
L 339.675685 -107.938162 
L 337.297152 -107.635612 
L 334.91862 -107.325091 
L 332.540088 -107.007255 
L 330.161555 -106.682555 
L 327.783023 -106.351254 
L 325.404491 -106.013443 
L 323.025958 -105.669045 
L 320.647426 -105.317875 
L 318.268894 -104.959666 
L 315.890361 -104.594163 
L 313.511829 -104.22116 
L 311.133297 -103.840557 
L 308.754765 -103.452407 
L 306.376232 -103.056876 
L 303.9977 -102.65419 
L 301.619168 -102.24453 
L 299.240635 -101.828023 
L 296.862103 -101.404688 
L 294.483571 -100.974446 
L 292.105038 -100.53722 
L 289.726506 -100.093018 
L 287.347974 -99.642015 
L 284.969441 -99.18463 
L 282.590909 -98.721533 
L 280.212377 -98.253611 
L 277.833844 -97.781941 
L 275.455312 -97.307728 
L 273.07678 -96.832238 
L 270.698248 -96.356765 
L 268.319715 -95.882614 
L 265.941183 -95.411083 
L 263.562651 -94.943449 
L 261.184118 -94.48096 
L 258.805586 -94.024828 
L 256.427054 -93.576228 
L 254.048521 -93.136308 
L 251.669989 -92.706185 
L 249.291457 -92.286938 
L 246.912924 -91.879581 
L 244.534392 -91.485063 
L 242.15586 -91.104262 
L 239.777327 -90.737969 
L 237.398795 -90.386842 
L 235.020263 -90.051386 
L 232.641731 -89.731934 
L 230.263198 -89.428631 
L 227.884666 -89.141386 
L 225.506134 -88.869821 
L 223.127601 -88.61325 
L 220.749069 -88.370663 
L 218.370537 -88.140738 
L 215.992004 -87.921863 
L 213.613472 -87.712187 
L 211.23494 -87.509711 
L 208.856407 -87.312341 
L 206.477875 -87.117949 
L 204.099343 -86.924458 
L 201.720811 -86.729873 
L 199.342278 -86.532301 
L 196.963746 -86.329985 
L 194.585214 -86.121329 
L 192.206681 -85.904925 
L 189.828149 -85.679554 
L 187.449617 -85.444178 
L 185.071084 -85.197958 
L 182.692552 -84.94024 
L 180.31402 -84.67054 
L 177.935487 -84.38851 
L 175.556955 -84.093918 
L 173.178423 -83.786636 
L 170.79989 -83.466618 
L 168.421358 -83.133865 
L 166.042826 -82.788415 
L 163.664294 -82.430309 
L 161.285761 -82.059578 
L 158.907229 -81.676235 
L 156.528697 -81.28027 
L 154.150164 -80.871656 
L 151.771632 -80.450375 
L 149.3931 -80.016397 
L 147.014567 -79.569657 
L 144.636035 -79.110042 
L 142.257503 -78.637385 
L 139.87897 -78.151443 
L 137.500438 -77.651908 
L 135.121906 -77.138371 
L 132.743373 -76.610314 
L 130.364841 -76.067147 
L 127.986309 -75.508204 
L 125.607777 -74.93275 
L 123.229244 -74.339974 
L 120.850712 -73.729025 
L 118.47218 -73.099052 
L 116.093647 -72.449238 
L 113.715115 -71.778821 
L 111.336583 -71.08703 
L 108.95805 -70.373077 
L 106.579518 -69.636143 
L 104.200986 -68.875377 
L 101.822453 -68.08993 
L 99.443921 -67.279087 
L 97.065389 -66.442361 
L 94.686857 -65.579575 
L 92.308324 -64.690935 
L 89.929792 -63.777112 
L 87.55126 -62.83928 
L 85.172727 -61.879091 
z
" style="stroke: #000080; stroke-opacity: 0.1"/>
    </defs>
    <g clip-path="url(#pf152ce0851)">
     <use xlink:href="#mc78be60ed5" x="0" y="360" style="fill: #000080; fill-opacity: 0.1; stroke: #000080; stroke-opacity: 0.1"/>
    </g>
   </g>
   <g id="line2d_1">
    <path d="M 85.172727 298.120909 
L 113.715115 280.908969 
L 158.907229 253.982443 
L 201.720811 228.789316 
L 230.263198 212.196399 
L 254.048521 198.633365 
L 275.455312 186.659769 
L 296.862103 174.934867 
L 318.268894 163.450978 
L 332.540088 156.031117 
L 346.811281 148.869297 
L 361.082475 141.986882 
L 375.353669 135.368795 
L 389.624863 129.002846 
L 401.517525 123.921402 
L 413.410186 119.082153 
L 425.302848 114.498407 
L 437.195509 110.141847 
L 451.466703 105.14551 
L 465.737897 100.369307 
L 482.387623 95.04901 
L 506.172946 87.742888 
L 577.528916 66.109312 
L 589.421577 62.786244 
L 603.692771 59.055999 
L 627.478094 53.168157 
L 677.427273 40.939091 
L 677.427273 40.939091 
" clip-path="url(#pf152ce0851)" style="fill: none; stroke: #000000; stroke-width: 1.5; stroke-linecap: round"/>
   </g>
   <g id="line2d_2">
    <path d="M 85.172727 298.120909 
L 97.065389 291.469986 
L 106.579518 286.387942 
L 116.093647 281.527434 
L 125.607777 276.883373 
L 135.121906 272.452819 
L 144.636035 268.243322 
L 154.150164 264.271548 
L 163.664294 260.558268 
L 173.178423 257.112411 
L 182.692552 253.915894 
L 192.206681 250.941202 
L 201.720811 248.179767 
L 211.23494 245.627522 
L 220.749069 243.276472 
L 230.263198 241.11755 
L 242.15586 238.667639 
L 254.048521 236.463492 
L 265.941183 234.490433 
L 277.833844 232.756564 
L 289.726506 231.261795 
L 301.619168 229.979505 
L 313.511829 228.884347 
L 325.404491 228.0148 
L 334.91862 227.514189 
L 346.811281 227.137798 
L 358.703943 227.018005 
L 370.596605 227.127896 
L 382.489266 227.450403 
L 396.76046 228.069006 
L 413.410186 229.000769 
L 434.816977 230.454114 
L 458.6023 232.031565 
L 475.252026 232.932028 
L 489.52322 233.478805 
L 501.415882 233.693347 
L 513.308543 233.665993 
L 525.201205 233.374955 
L 534.715334 232.929438 
L 544.229463 232.271613 
L 553.743593 231.387909 
L 563.257722 230.276818 
L 572.771851 228.946032 
L 582.28598 227.399306 
L 591.80011 225.63144 
L 601.314239 223.631446 
L 610.828368 221.386933 
L 620.342497 218.898516 
L 629.856627 216.174294 
L 639.370756 213.217892 
L 648.884885 210.033241 
L 658.399014 206.626887 
L 667.913143 203.003118 
L 677.427273 199.171533 
L 677.427273 199.171533 
" clip-path="url(#pf152ce0851)" style="fill: none; stroke: #a52a2a; stroke-width: 1.5; stroke-linecap: round"/>
   </g>
   <g id="line2d_3">
    <path d="M 85.172727 298.120909 
L 94.686857 296.263645 
L 104.200986 294.704848 
L 113.715115 293.420516 
L 123.229244 292.352701 
L 135.121906 291.225465 
L 149.3931 290.093468 
L 163.664294 289.20898 
L 175.556955 288.682972 
L 189.828149 288.302738 
L 206.477875 288.105749 
L 242.15586 287.757615 
L 287.347974 287.062171 
L 325.404491 286.697837 
L 375.353669 286.033062 
L 387.246331 286.245853 
L 401.517525 286.769814 
L 420.545783 287.753262 
L 446.709639 289.102433 
L 463.359365 289.716808 
L 477.630559 289.998412 
L 489.52322 289.987951 
L 499.037349 289.760653 
L 508.551479 289.331771 
L 520.44414 288.539982 
L 534.715334 287.338268 
L 560.879189 285.088208 
L 575.150383 284.12003 
L 606.071303 282.241812 
L 615.585433 281.341225 
L 622.72103 280.46474 
L 629.856627 279.394352 
L 636.992223 278.126448 
L 644.12782 276.671389 
L 653.64195 274.475638 
L 663.156079 272.035233 
L 672.670208 269.383449 
L 677.427273 267.98522 
L 677.427273 267.98522 
" clip-path="url(#pf152ce0851)" style="fill: none; stroke: #000080; stroke-width: 1.5; stroke-linecap: round"/>
   </g>
   <g id="line2d_4">
    <path d="M 85.172727 298.120909 
L 92.308324 295.917415 
L 99.443921 293.899338 
L 106.579518 292.075913 
L 113.715115 290.436552 
L 123.229244 288.499834 
L 132.743373 286.795309 
L 142.257503 285.282989 
L 151.771632 283.952234 
L 161.285761 282.808618 
L 170.79989 281.858051 
L 180.31402 281.101769 
L 192.206681 280.415896 
L 206.477875 279.887425 
L 232.641731 279.015413 
L 244.534392 278.375286 
L 258.805586 277.357551 
L 289.726506 274.802683 
L 311.133297 272.906385 
L 353.946878 268.95594 
L 363.461008 268.318221 
L 370.596605 268.01332 
L 377.732202 267.912727 
L 384.867798 268.053501 
L 392.003395 268.443164 
L 399.138992 269.060878 
L 406.274589 269.876022 
L 415.788719 271.225602 
L 425.302848 272.821451 
L 439.574042 275.486483 
L 456.223768 278.572057 
L 465.737897 280.111992 
L 472.873494 281.073161 
L 480.009091 281.815446 
L 487.144688 282.290114 
L 494.280285 282.452642 
L 499.037349 282.371806 
L 503.794414 282.135709 
L 510.930011 281.49981 
L 518.065608 280.561864 
L 525.201205 279.386143 
L 534.715334 277.580733 
L 560.879189 272.432448 
L 575.150383 269.952444 
L 596.557174 266.284095 
L 606.071303 264.401781 
L 615.585433 262.243639 
L 622.72103 260.407832 
L 629.856627 258.363128 
L 636.992223 256.098204 
L 644.12782 253.615089 
L 651.263417 250.929004 
L 660.777547 247.071122 
L 670.291676 242.950162 
L 677.427273 239.714745 
L 677.427273 239.714745 
" clip-path="url(#pf152ce0851)" style="fill: none; stroke-dasharray: 5.55,2.4; stroke-dashoffset: 0; stroke: #000080; stroke-width: 1.5"/>
   </g>
   <g id="patch_3">
    <path d="M 55.56 310.98 
L 55.56 28.08 
" style="fill: none; stroke: #ffffff; stroke-width: 1.25; stroke-linejoin: miter; stroke-linecap: square"/>
   </g>
   <g id="patch_4">
    <path d="M 707.04 310.98 
L 707.04 28.08 
" style="fill: none; stroke: #ffffff; stroke-width: 1.25; stroke-linejoin: miter; stroke-linecap: square"/>
   </g>
   <g id="patch_5">
    <path d="M 55.56 310.98 
L 707.04 310.98 
" style="fill: none; stroke: #ffffff; stroke-width: 1.25; stroke-linejoin: miter; stroke-linecap: square"/>
   </g>
   <g id="patch_6">
    <path d="M 55.56 28.08 
L 707.04 28.08 
" style="fill: none; stroke: #ffffff; stroke-width: 1.25; stroke-linejoin: miter; stroke-linecap: square"/>
   </g>
   <g id="text_15">
    <!-- QG3L - [32, 96] x [256, 384] -->
    <g style="fill: #262626" transform="translate(296.2575 22.08) scale(0.12 -0.12)">
     <defs>
      <path id="DejaVuSans-51" d="M 2522 4238 
Q 1834 4238 1429 3725 
Q 1025 3213 1025 2328 
Q 1025 1447 1429 934 
Q 1834 422 2522 422 
Q 3209 422 3611 934 
Q 4013 1447 4013 2328 
Q 4013 3213 3611 3725 
Q 3209 4238 2522 4238 
z
M 3406 84 
L 4238 -825 
L 3475 -825 
L 2784 -78 
Q 2681 -84 2626 -87 
Q 2572 -91 2522 -91 
Q 1538 -91 948 567 
Q 359 1225 359 2328 
Q 359 3434 948 4092 
Q 1538 4750 2522 4750 
Q 3503 4750 4090 4092 
Q 4678 3434 4678 2328 
Q 4678 1516 4351 937 
Q 4025 359 3406 84 
z
" transform="scale(0.015625)"/>
      <path id="DejaVuSans-47" d="M 3809 666 
L 3809 1919 
L 2778 1919 
L 2778 2438 
L 4434 2438 
L 4434 434 
Q 4069 175 3628 42 
Q 3188 -91 2688 -91 
Q 1594 -91 976 548 
Q 359 1188 359 2328 
Q 359 3472 976 4111 
Q 1594 4750 2688 4750 
Q 3144 4750 3555 4637 
Q 3966 4525 4313 4306 
L 4313 3634 
Q 3963 3931 3569 4081 
Q 3175 4231 2741 4231 
Q 1884 4231 1454 3753 
Q 1025 3275 1025 2328 
Q 1025 1384 1454 906 
Q 1884 428 2741 428 
Q 3075 428 3337 486 
Q 3600 544 3809 666 
z
" transform="scale(0.015625)"/>
      <path id="DejaVuSans-4c" d="M 628 4666 
L 1259 4666 
L 1259 531 
L 3531 531 
L 3531 0 
L 628 0 
L 628 4666 
z
" transform="scale(0.015625)"/>
      <path id="DejaVuSans-2d" d="M 313 2009 
L 1997 2009 
L 1997 1497 
L 313 1497 
L 313 2009 
z
" transform="scale(0.015625)"/>
      <path id="DejaVuSans-2c" d="M 750 794 
L 1409 794 
L 1409 256 
L 897 -744 
L 494 -744 
L 750 256 
L 750 794 
z
" transform="scale(0.015625)"/>
      <path id="DejaVuSans-39" d="M 703 97 
L 703 672 
Q 941 559 1184 500 
Q 1428 441 1663 441 
Q 2288 441 2617 861 
Q 2947 1281 2994 2138 
Q 2813 1869 2534 1725 
Q 2256 1581 1919 1581 
Q 1219 1581 811 2004 
Q 403 2428 403 3163 
Q 403 3881 828 4315 
Q 1253 4750 1959 4750 
Q 2769 4750 3195 4129 
Q 3622 3509 3622 2328 
Q 3622 1225 3098 567 
Q 2575 -91 1691 -91 
Q 1453 -91 1209 -44 
Q 966 3 703 97 
z
M 1959 2075 
Q 2384 2075 2632 2365 
Q 2881 2656 2881 3163 
Q 2881 3666 2632 3958 
Q 2384 4250 1959 4250 
Q 1534 4250 1286 3958 
Q 1038 3666 1038 3163 
Q 1038 2656 1286 2365 
Q 1534 2075 1959 2075 
z
" transform="scale(0.015625)"/>
      <path id="DejaVuSans-78" d="M 3513 3500 
L 2247 1797 
L 3578 0 
L 2900 0 
L 1881 1375 
L 863 0 
L 184 0 
L 1544 1831 
L 300 3500 
L 978 3500 
L 1906 2253 
L 2834 3500 
L 3513 3500 
z
" transform="scale(0.015625)"/>
      <path id="DejaVuSans-38" d="M 2034 2216 
Q 1584 2216 1326 1975 
Q 1069 1734 1069 1313 
Q 1069 891 1326 650 
Q 1584 409 2034 409 
Q 2484 409 2743 651 
Q 3003 894 3003 1313 
Q 3003 1734 2745 1975 
Q 2488 2216 2034 2216 
z
M 1403 2484 
Q 997 2584 770 2862 
Q 544 3141 544 3541 
Q 544 4100 942 4425 
Q 1341 4750 2034 4750 
Q 2731 4750 3128 4425 
Q 3525 4100 3525 3541 
Q 3525 3141 3298 2862 
Q 3072 2584 2669 2484 
Q 3125 2378 3379 2068 
Q 3634 1759 3634 1313 
Q 3634 634 3220 271 
Q 2806 -91 2034 -91 
Q 1263 -91 848 271 
Q 434 634 434 1313 
Q 434 1759 690 2068 
Q 947 2378 1403 2484 
z
M 1172 3481 
Q 1172 3119 1398 2916 
Q 1625 2713 2034 2713 
Q 2441 2713 2670 2916 
Q 2900 3119 2900 3481 
Q 2900 3844 2670 4047 
Q 2441 4250 2034 4250 
Q 1625 4250 1398 4047 
Q 1172 3844 1172 3481 
z
" transform="scale(0.015625)"/>
     </defs>
     <use xlink:href="#DejaVuSans-51"/>
     <use xlink:href="#DejaVuSans-47" transform="translate(78.710938 0)"/>
     <use xlink:href="#DejaVuSans-33" transform="translate(156.201172 0)"/>
     <use xlink:href="#DejaVuSans-4c" transform="translate(219.824219 0)"/>
     <use xlink:href="#DejaVuSans-20" transform="translate(275.537109 0)"/>
     <use xlink:href="#DejaVuSans-2d" transform="translate(307.324219 0)"/>
     <use xlink:href="#DejaVuSans-20" transform="translate(343.408203 0)"/>
     <use xlink:href="#DejaVuSans-5b" transform="translate(375.195312 0)"/>
     <use xlink:href="#DejaVuSans-33" transform="translate(414.208984 0)"/>
     <use xlink:href="#DejaVuSans-32" transform="translate(477.832031 0)"/>
     <use xlink:href="#DejaVuSans-2c" transform="translate(541.455078 0)"/>
     <use xlink:href="#DejaVuSans-20" transform="translate(573.242188 0)"/>
     <use xlink:href="#DejaVuSans-39" transform="translate(605.029297 0)"/>
     <use xlink:href="#DejaVuSans-36" transform="translate(668.652344 0)"/>
     <use xlink:href="#DejaVuSans-5d" transform="translate(732.275391 0)"/>
     <use xlink:href="#DejaVuSans-20" transform="translate(771.289062 0)"/>
     <use xlink:href="#DejaVuSans-78" transform="translate(803.076172 0)"/>
     <use xlink:href="#DejaVuSans-20" transform="translate(862.255859 0)"/>
     <use xlink:href="#DejaVuSans-5b" transform="translate(894.042969 0)"/>
     <use xlink:href="#DejaVuSans-32" transform="translate(933.056641 0)"/>
     <use xlink:href="#DejaVuSans-35" transform="translate(996.679688 0)"/>
     <use xlink:href="#DejaVuSans-36" transform="translate(1060.302734 0)"/>
     <use xlink:href="#DejaVuSans-2c" transform="translate(1123.925781 0)"/>
     <use xlink:href="#DejaVuSans-20" transform="translate(1155.712891 0)"/>
     <use xlink:href="#DejaVuSans-33" transform="translate(1187.5 0)"/>
     <use xlink:href="#DejaVuSans-38" transform="translate(1251.123047 0)"/>
     <use xlink:href="#DejaVuSans-34" transform="translate(1314.746094 0)"/>
     <use xlink:href="#DejaVuSans-5d" transform="translate(1378.369141 0)"/>
    </g>
   </g>
   <g id="legend_1">
    <g id="patch_7">
     <path d="M 63.26 101.46375 
L 244.675781 101.46375 
Q 246.875781 101.46375 246.875781 99.26375 
L 246.875781 35.78 
Q 246.875781 33.58 244.675781 33.58 
L 63.26 33.58 
Q 61.06 33.58 61.06 35.78 
L 61.06 99.26375 
Q 61.06 101.46375 63.26 101.46375 
z
" style="fill: #eaeaf2; opacity: 0.8; stroke: #cccccc; stroke-linejoin: miter"/>
    </g>
    <g id="line2d_5">
     <path d="M 65.46 42.488281 
L 76.46 42.488281 
L 87.46 42.488281 
" style="fill: none; stroke: #000000; stroke-width: 1.5; stroke-linecap: round"/>
    </g>
    <g id="text_16">
     <!-- Reduced Gravity -->
     <g style="fill: #262626" transform="translate(96.26 46.338281) scale(0.11 -0.11)">
      <defs>
       <path id="DejaVuSans-75" d="M 544 1381 
L 544 3500 
L 1119 3500 
L 1119 1403 
Q 1119 906 1312 657 
Q 1506 409 1894 409 
Q 2359 409 2629 706 
Q 2900 1003 2900 1516 
L 2900 3500 
L 3475 3500 
L 3475 0 
L 2900 0 
L 2900 538 
Q 2691 219 2414 64 
Q 2138 -91 1772 -91 
Q 1169 -91 856 284 
Q 544 659 544 1381 
z
M 1991 3584 
L 1991 3584 
z
" transform="scale(0.015625)"/>
       <path id="DejaVuSans-63" d="M 3122 3366 
L 3122 2828 
Q 2878 2963 2633 3030 
Q 2388 3097 2138 3097 
Q 1578 3097 1268 2742 
Q 959 2388 959 1747 
Q 959 1106 1268 751 
Q 1578 397 2138 397 
Q 2388 397 2633 464 
Q 2878 531 3122 666 
L 3122 134 
Q 2881 22 2623 -34 
Q 2366 -91 2075 -91 
Q 1284 -91 818 406 
Q 353 903 353 1747 
Q 353 2603 823 3093 
Q 1294 3584 2113 3584 
Q 2378 3584 2631 3529 
Q 2884 3475 3122 3366 
z
" transform="scale(0.015625)"/>
       <path id="DejaVuSans-72" d="M 2631 2963 
Q 2534 3019 2420 3045 
Q 2306 3072 2169 3072 
Q 1681 3072 1420 2755 
Q 1159 2438 1159 1844 
L 1159 0 
L 581 0 
L 581 3500 
L 1159 3500 
L 1159 2956 
Q 1341 3275 1631 3429 
Q 1922 3584 2338 3584 
Q 2397 3584 2469 3576 
Q 2541 3569 2628 3553 
L 2631 2963 
z
" transform="scale(0.015625)"/>
       <path id="DejaVuSans-76" d="M 191 3500 
L 800 3500 
L 1894 563 
L 2988 3500 
L 3597 3500 
L 2284 0 
L 1503 0 
L 191 3500 
z
" transform="scale(0.015625)"/>
       <path id="DejaVuSans-74" d="M 1172 4494 
L 1172 3500 
L 2356 3500 
L 2356 3053 
L 1172 3053 
L 1172 1153 
Q 1172 725 1289 603 
Q 1406 481 1766 481 
L 2356 481 
L 2356 0 
L 1766 0 
Q 1100 0 847 248 
Q 594 497 594 1153 
L 594 3053 
L 172 3053 
L 172 3500 
L 594 3500 
L 594 4494 
L 1172 4494 
z
" transform="scale(0.015625)"/>
      </defs>
      <use xlink:href="#DejaVuSans-52"/>
      <use xlink:href="#DejaVuSans-65" transform="translate(64.982422 0)"/>
      <use xlink:href="#DejaVuSans-64" transform="translate(126.505859 0)"/>
      <use xlink:href="#DejaVuSans-75" transform="translate(189.982422 0)"/>
      <use xlink:href="#DejaVuSans-63" transform="translate(253.361328 0)"/>
      <use xlink:href="#DejaVuSans-65" transform="translate(308.341797 0)"/>
      <use xlink:href="#DejaVuSans-64" transform="translate(369.865234 0)"/>
      <use xlink:href="#DejaVuSans-20" transform="translate(433.341797 0)"/>
      <use xlink:href="#DejaVuSans-47" transform="translate(465.128906 0)"/>
      <use xlink:href="#DejaVuSans-72" transform="translate(542.619141 0)"/>
      <use xlink:href="#DejaVuSans-61" transform="translate(583.732422 0)"/>
      <use xlink:href="#DejaVuSans-76" transform="translate(645.011719 0)"/>
      <use xlink:href="#DejaVuSans-69" transform="translate(704.191406 0)"/>
      <use xlink:href="#DejaVuSans-74" transform="translate(731.974609 0)"/>
      <use xlink:href="#DejaVuSans-79" transform="translate(771.183594 0)"/>
     </g>
    </g>
    <g id="line2d_6">
     <path d="M 65.46 58.634219 
L 76.46 58.634219 
L 87.46 58.634219 
" style="fill: none; stroke: #a52a2a; stroke-width: 1.5; stroke-linecap: round"/>
    </g>
    <g id="text_17">
     <!-- VarDyn -->
     <g style="fill: #262626" transform="translate(96.26 62.484219) scale(0.11 -0.11)">
      <defs>
       <path id="DejaVuSans-56" d="M 1831 0 
L 50 4666 
L 709 4666 
L 2188 738 
L 3669 4666 
L 4325 4666 
L 2547 0 
L 1831 0 
z
" transform="scale(0.015625)"/>
       <path id="DejaVuSans-44" d="M 1259 4147 
L 1259 519 
L 2022 519 
Q 2988 519 3436 956 
Q 3884 1394 3884 2338 
Q 3884 3275 3436 3711 
Q 2988 4147 2022 4147 
L 1259 4147 
z
M 628 4666 
L 1925 4666 
Q 3281 4666 3915 4102 
Q 4550 3538 4550 2338 
Q 4550 1131 3912 565 
Q 3275 0 1925 0 
L 628 0 
L 628 4666 
z
" transform="scale(0.015625)"/>
      </defs>
      <use xlink:href="#DejaVuSans-56"/>
      <use xlink:href="#DejaVuSans-61" transform="translate(60.658203 0)"/>
      <use xlink:href="#DejaVuSans-72" transform="translate(121.9375 0)"/>
      <use xlink:href="#DejaVuSans-44" transform="translate(163.050781 0)"/>
      <use xlink:href="#DejaVuSans-79" transform="translate(240.052734 0)"/>
      <use xlink:href="#DejaVuSans-6e" transform="translate(299.232422 0)"/>
     </g>
    </g>
    <g id="line2d_7">
     <path d="M 65.46 74.780156 
L 76.46 74.780156 
L 87.46 74.780156 
" style="fill: none; stroke: #000080; stroke-width: 1.5; stroke-linecap: round"/>
    </g>
    <g id="text_18">
     <!-- SurfML -->
     <g style="fill: #262626" transform="translate(96.26 78.630156) scale(0.11 -0.11)">
      <defs>
       <path id="DejaVuSans-66" d="M 2375 4863 
L 2375 4384 
L 1825 4384 
Q 1516 4384 1395 4259 
Q 1275 4134 1275 3809 
L 1275 3500 
L 2222 3500 
L 2222 3053 
L 1275 3053 
L 1275 0 
L 697 0 
L 697 3053 
L 147 3053 
L 147 3500 
L 697 3500 
L 697 3744 
Q 697 4328 969 4595 
Q 1241 4863 1831 4863 
L 2375 4863 
z
" transform="scale(0.015625)"/>
      </defs>
      <use xlink:href="#DejaVuSans-53"/>
      <use xlink:href="#DejaVuSans-75" transform="translate(63.476562 0)"/>
      <use xlink:href="#DejaVuSans-72" transform="translate(126.855469 0)"/>
      <use xlink:href="#DejaVuSans-66" transform="translate(167.96875 0)"/>
      <use xlink:href="#DejaVuSans-4d" transform="translate(203.173828 0)"/>
      <use xlink:href="#DejaVuSans-4c" transform="translate(289.453125 0)"/>
     </g>
    </g>
    <g id="line2d_8">
     <path d="M 65.46 90.926094 
L 76.46 90.926094 
L 87.46 90.926094 
" style="fill: none; stroke-dasharray: 5.55,2.4; stroke-dashoffset: 0; stroke: #000080; stroke-width: 1.5"/>
    </g>
    <g id="text_19">
     <!-- SurfML - No Regularization -->
     <g style="fill: #262626" transform="translate(96.26 94.776094) scale(0.11 -0.11)">
      <defs>
       <path id="DejaVuSans-4e" d="M 628 4666 
L 1478 4666 
L 3547 763 
L 3547 4666 
L 4159 4666 
L 4159 0 
L 3309 0 
L 1241 3903 
L 1241 0 
L 628 0 
L 628 4666 
z
" transform="scale(0.015625)"/>
       <path id="DejaVuSans-6f" d="M 1959 3097 
Q 1497 3097 1228 2736 
Q 959 2375 959 1747 
Q 959 1119 1226 758 
Q 1494 397 1959 397 
Q 2419 397 2687 759 
Q 2956 1122 2956 1747 
Q 2956 2369 2687 2733 
Q 2419 3097 1959 3097 
z
M 1959 3584 
Q 2709 3584 3137 3096 
Q 3566 2609 3566 1747 
Q 3566 888 3137 398 
Q 2709 -91 1959 -91 
Q 1206 -91 779 398 
Q 353 888 353 1747 
Q 353 2609 779 3096 
Q 1206 3584 1959 3584 
z
" transform="scale(0.015625)"/>
       <path id="DejaVuSans-67" d="M 2906 1791 
Q 2906 2416 2648 2759 
Q 2391 3103 1925 3103 
Q 1463 3103 1205 2759 
Q 947 2416 947 1791 
Q 947 1169 1205 825 
Q 1463 481 1925 481 
Q 2391 481 2648 825 
Q 2906 1169 2906 1791 
z
M 3481 434 
Q 3481 -459 3084 -895 
Q 2688 -1331 1869 -1331 
Q 1566 -1331 1297 -1286 
Q 1028 -1241 775 -1147 
L 775 -588 
Q 1028 -725 1275 -790 
Q 1522 -856 1778 -856 
Q 2344 -856 2625 -561 
Q 2906 -266 2906 331 
L 2906 616 
Q 2728 306 2450 153 
Q 2172 0 1784 0 
Q 1141 0 747 490 
Q 353 981 353 1791 
Q 353 2603 747 3093 
Q 1141 3584 1784 3584 
Q 2172 3584 2450 3431 
Q 2728 3278 2906 2969 
L 2906 3500 
L 3481 3500 
L 3481 434 
z
" transform="scale(0.015625)"/>
       <path id="DejaVuSans-6c" d="M 603 4863 
L 1178 4863 
L 1178 0 
L 603 0 
L 603 4863 
z
" transform="scale(0.015625)"/>
       <path id="DejaVuSans-7a" d="M 353 3500 
L 3084 3500 
L 3084 2975 
L 922 459 
L 3084 459 
L 3084 0 
L 275 0 
L 275 525 
L 2438 3041 
L 353 3041 
L 353 3500 
z
" transform="scale(0.015625)"/>
      </defs>
      <use xlink:href="#DejaVuSans-53"/>
      <use xlink:href="#DejaVuSans-75" transform="translate(63.476562 0)"/>
      <use xlink:href="#DejaVuSans-72" transform="translate(126.855469 0)"/>
      <use xlink:href="#DejaVuSans-66" transform="translate(167.96875 0)"/>
      <use xlink:href="#DejaVuSans-4d" transform="translate(203.173828 0)"/>
      <use xlink:href="#DejaVuSans-4c" transform="translate(289.453125 0)"/>
      <use xlink:href="#DejaVuSans-20" transform="translate(345.166016 0)"/>
      <use xlink:href="#DejaVuSans-2d" transform="translate(376.953125 0)"/>
      <use xlink:href="#DejaVuSans-20" transform="translate(413.037109 0)"/>
      <use xlink:href="#DejaVuSans-4e" transform="translate(444.824219 0)"/>
      <use xlink:href="#DejaVuSans-6f" transform="translate(519.628906 0)"/>
      <use xlink:href="#DejaVuSans-20" transform="translate(580.810547 0)"/>
      <use xlink:href="#DejaVuSans-52" transform="translate(612.597656 0)"/>
      <use xlink:href="#DejaVuSans-65" transform="translate(677.580078 0)"/>
      <use xlink:href="#DejaVuSans-67" transform="translate(739.103516 0)"/>
      <use xlink:href="#DejaVuSans-75" transform="translate(802.580078 0)"/>
      <use xlink:href="#DejaVuSans-6c" transform="translate(865.958984 0)"/>
      <use xlink:href="#DejaVuSans-61" transform="translate(893.742188 0)"/>
      <use xlink:href="#DejaVuSans-72" transform="translate(955.021484 0)"/>
      <use xlink:href="#DejaVuSans-69" transform="translate(996.134766 0)"/>
      <use xlink:href="#DejaVuSans-7a" transform="translate(1023.917969 0)"/>
      <use xlink:href="#DejaVuSans-61" transform="translate(1076.408203 0)"/>
      <use xlink:href="#DejaVuSans-74" transform="translate(1137.6875 0)"/>
      <use xlink:href="#DejaVuSans-69" transform="translate(1176.896484 0)"/>
      <use xlink:href="#DejaVuSans-6f" transform="translate(1204.679688 0)"/>
      <use xlink:href="#DejaVuSans-6e" transform="translate(1265.861328 0)"/>
     </g>
    </g>
   </g>
  </g>
 </g>
 <defs>
  <clipPath id="pf152ce0851">
   <rect x="55.56" y="28.08" width="651.48" height="282.9"/>
  </clipPath>
 </defs>
</svg>
