<?xml version="1.0" encoding="utf-8" standalone="no"?>
<!DOCTYPE svg PUBLIC "-//W3C//DTD SVG 1.1//EN"
  "http://www.w3.org/Graphics/SVG/1.1/DTD/svg11.dtd">
<svg xmlns:xlink="http://www.w3.org/1999/xlink" width="791.937pt" height="297.395336pt" viewBox="0 0 791.937 297.395336" xmlns="http://www.w3.org/2000/svg" version="1.1">
 <metadata>
  <rdf:RDF xmlns:dc="http://purl.org/dc/elements/1.1/" xmlns:cc="http://creativecommons.org/ns#" xmlns:rdf="http://www.w3.org/1999/02/22-rdf-syntax-ns#">
   <cc:Work>
    <dc:type rdf:resource="http://purl.org/dc/dcmitype/StillImage"/>
    <dc:date>2026-04-07T10:31:00.762425</dc:date>
    <dc:format>image/svg+xml</dc:format>
    <dc:creator>
     <cc:Agent>
      <dc:title>Matplotlib v3.10.6, https://matplotlib.org/</dc:title>
     </cc:Agent>
    </dc:creator>
   </cc:Work>
  </rdf:RDF>
 </metadata>
 <defs>
  <style type="text/css">*{stroke-linejoin: round; stroke-linecap: butt}</style>
 </defs>
 <g id="figure_1">
  <g id="patch_1">
   <path d="M 0 297.395336 
L 791.937 297.395336 
L 791.937 0 
L 0 0 
z
" style="fill: #ffffff"/>
  </g>
  <g id="axes_1">
   <g id="patch_2">
    <path d="M 57.537 248.822336 
L 417.537 248.822336 
L 417.537 26.3301 
L 57.537 26.3301 
z
" style="fill: #eaeaf2"/>
   </g>
   <g id="matplotlib.axis_1">
    <g id="xtick_1">
     <g id="text_1">
      <!-- 0 -->
      <g style="fill: #262626" transform="translate(68.659812 269.264086) scale(0.144 -0.144)">
       <defs>
        <path id="DejaVuSans-30" d="M 2034 4250 
Q 1547 4250 1301 3770 
Q 1056 3291 1056 2328 
Q 1056 1369 1301 889 
Q 1547 409 2034 409 
Q 2525 409 2770 889 
Q 3016 1369 3016 2328 
Q 3016 3291 2770 3770 
Q 2525 4250 2034 4250 
z
M 2034 4750 
Q 2819 4750 3233 4129 
Q 3647 3509 3647 2328 
Q 3647 1150 3233 529 
Q 2819 -91 2034 -91 
Q 1250 -91 836 529 
Q 422 1150 422 2328 
Q 422 3509 836 4129 
Q 1250 4750 2034 4750 
z
" transform="scale(0.015625)"/>
       </defs>
       <use xlink:href="#DejaVuSans-30"/>
      </g>
     </g>
    </g>
    <g id="xtick_2">
     <g id="text_2">
      <!-- 5 -->
      <g style="fill: #262626" transform="translate(147.838698 269.264086) scale(0.144 -0.144)">
       <defs>
        <path id="DejaVuSans-35" d="M 691 4666 
L 3169 4666 
L 3169 4134 
L 1269 4134 
L 1269 2991 
Q 1406 3038 1543 3061 
Q 1681 3084 1819 3084 
Q 2600 3084 3056 2656 
Q 3513 2228 3513 1497 
Q 3513 744 3044 326 
Q 2575 -91 1722 -91 
Q 1428 -91 1123 -41 
Q 819 9 494 109 
L 494 744 
Q 775 591 1075 516 
Q 1375 441 1709 441 
Q 2250 441 2565 725 
Q 2881 1009 2881 1497 
Q 2881 1984 2565 2268 
Q 2250 2553 1709 2553 
Q 1456 2553 1204 2497 
Q 953 2441 691 2322 
L 691 4666 
z
" transform="scale(0.015625)"/>
       </defs>
       <use xlink:href="#DejaVuSans-35"/>
      </g>
     </g>
    </g>
    <g id="xtick_3">
     <g id="text_3">
      <!-- 10 -->
      <g style="fill: #262626" transform="translate(222.436584 269.264086) scale(0.144 -0.144)">
       <defs>
        <path id="DejaVuSans-31" d="M 794 531 
L 1825 531 
L 1825 4091 
L 703 3866 
L 703 4441 
L 1819 4666 
L 2450 4666 
L 2450 531 
L 3481 531 
L 3481 0 
L 794 0 
L 794 531 
z
" transform="scale(0.015625)"/>
       </defs>
       <use xlink:href="#DejaVuSans-31"/>
       <use xlink:href="#DejaVuSans-30" transform="translate(63.623047 0)"/>
      </g>
     </g>
    </g>
    <g id="xtick_4">
     <g id="text_4">
      <!-- 15 -->
      <g style="fill: #262626" transform="translate(301.615469 269.264086) scale(0.144 -0.144)">
       <use xlink:href="#DejaVuSans-31"/>
       <use xlink:href="#DejaVuSans-35" transform="translate(63.623047 0)"/>
      </g>
     </g>
    </g>
    <g id="xtick_5">
     <g id="text_5">
      <!-- 20 -->
      <g style="fill: #262626" transform="translate(380.794355 269.264086) scale(0.144 -0.144)">
       <defs>
        <path id="DejaVuSans-32" d="M 1228 531 
L 3431 531 
L 3431 0 
L 469 0 
L 469 531 
Q 828 903 1448 1529 
Q 2069 2156 2228 2338 
Q 2531 2678 2651 2914 
Q 2772 3150 2772 3378 
Q 2772 3750 2511 3984 
Q 2250 4219 1831 4219 
Q 1534 4219 1204 4116 
Q 875 4013 500 3803 
L 500 4441 
Q 881 4594 1212 4672 
Q 1544 4750 1819 4750 
Q 2544 4750 2975 4387 
Q 3406 4025 3406 3419 
Q 3406 3131 3298 2873 
Q 3191 2616 2906 2266 
Q 2828 2175 2409 1742 
Q 1991 1309 1228 531 
z
" transform="scale(0.015625)"/>
       </defs>
       <use xlink:href="#DejaVuSans-32"/>
       <use xlink:href="#DejaVuSans-30" transform="translate(63.623047 0)"/>
      </g>
     </g>
    </g>
    <g id="text_6">
     <!-- Time [days] -->
     <g style="fill: #262626" transform="translate(195.01875 287.200586) scale(0.144 -0.144)">
      <defs>
       <path id="DejaVuSans-54" d="M -19 4666 
L 3928 4666 
L 3928 4134 
L 2272 4134 
L 2272 0 
L 1638 0 
L 1638 4134 
L -19 4134 
L -19 4666 
z
" transform="scale(0.015625)"/>
       <path id="DejaVuSans-69" d="M 603 3500 
L 1178 3500 
L 1178 0 
L 603 0 
L 603 3500 
z
M 603 4863 
L 1178 4863 
L 1178 4134 
L 603 4134 
L 603 4863 
z
" transform="scale(0.015625)"/>
       <path id="DejaVuSans-6d" d="M 3328 2828 
Q 3544 3216 3844 3400 
Q 4144 3584 4550 3584 
Q 5097 3584 5394 3201 
Q 5691 2819 5691 2113 
L 5691 0 
L 5113 0 
L 5113 2094 
Q 5113 2597 4934 2840 
Q 4756 3084 4391 3084 
Q 3944 3084 3684 2787 
Q 3425 2491 3425 1978 
L 3425 0 
L 2847 0 
L 2847 2094 
Q 2847 2600 2669 2842 
Q 2491 3084 2119 3084 
Q 1678 3084 1418 2786 
Q 1159 2488 1159 1978 
L 1159 0 
L 581 0 
L 581 3500 
L 1159 3500 
L 1159 2956 
Q 1356 3278 1631 3431 
Q 1906 3584 2284 3584 
Q 2666 3584 2933 3390 
Q 3200 3197 3328 2828 
z
" transform="scale(0.015625)"/>
       <path id="DejaVuSans-65" d="M 3597 1894 
L 3597 1613 
L 953 1613 
Q 991 1019 1311 708 
Q 1631 397 2203 397 
Q 2534 397 2845 478 
Q 3156 559 3463 722 
L 3463 178 
Q 3153 47 2828 -22 
Q 2503 -91 2169 -91 
Q 1331 -91 842 396 
Q 353 884 353 1716 
Q 353 2575 817 3079 
Q 1281 3584 2069 3584 
Q 2775 3584 3186 3129 
Q 3597 2675 3597 1894 
z
M 3022 2063 
Q 3016 2534 2758 2815 
Q 2500 3097 2075 3097 
Q 1594 3097 1305 2825 
Q 1016 2553 972 2059 
L 3022 2063 
z
" transform="scale(0.015625)"/>
       <path id="DejaVuSans-20" transform="scale(0.015625)"/>
       <path id="DejaVuSans-5b" d="M 550 4863 
L 1875 4863 
L 1875 4416 
L 1125 4416 
L 1125 -397 
L 1875 -397 
L 1875 -844 
L 550 -844 
L 550 4863 
z
" transform="scale(0.015625)"/>
       <path id="DejaVuSans-64" d="M 2906 2969 
L 2906 4863 
L 3481 4863 
L 3481 0 
L 2906 0 
L 2906 525 
Q 2725 213 2448 61 
Q 2172 -91 1784 -91 
Q 1150 -91 751 415 
Q 353 922 353 1747 
Q 353 2572 751 3078 
Q 1150 3584 1784 3584 
Q 2172 3584 2448 3432 
Q 2725 3281 2906 2969 
z
M 947 1747 
Q 947 1113 1208 752 
Q 1469 391 1925 391 
Q 2381 391 2643 752 
Q 2906 1113 2906 1747 
Q 2906 2381 2643 2742 
Q 2381 3103 1925 3103 
Q 1469 3103 1208 2742 
Q 947 2381 947 1747 
z
" transform="scale(0.015625)"/>
       <path id="DejaVuSans-61" d="M 2194 1759 
Q 1497 1759 1228 1600 
Q 959 1441 959 1056 
Q 959 750 1161 570 
Q 1363 391 1709 391 
Q 2188 391 2477 730 
Q 2766 1069 2766 1631 
L 2766 1759 
L 2194 1759 
z
M 3341 1997 
L 3341 0 
L 2766 0 
L 2766 531 
Q 2569 213 2275 61 
Q 1981 -91 1556 -91 
Q 1019 -91 701 211 
Q 384 513 384 1019 
Q 384 1609 779 1909 
Q 1175 2209 1959 2209 
L 2766 2209 
L 2766 2266 
Q 2766 2663 2505 2880 
Q 2244 3097 1772 3097 
Q 1472 3097 1187 3025 
Q 903 2953 641 2809 
L 641 3341 
Q 956 3463 1253 3523 
Q 1550 3584 1831 3584 
Q 2591 3584 2966 3190 
Q 3341 2797 3341 1997 
z
" transform="scale(0.015625)"/>
       <path id="DejaVuSans-79" d="M 2059 -325 
Q 1816 -950 1584 -1140 
Q 1353 -1331 966 -1331 
L 506 -1331 
L 506 -850 
L 844 -850 
Q 1081 -850 1212 -737 
Q 1344 -625 1503 -206 
L 1606 56 
L 191 3500 
L 800 3500 
L 1894 763 
L 2988 3500 
L 3597 3500 
L 2059 -325 
z
" transform="scale(0.015625)"/>
       <path id="DejaVuSans-73" d="M 2834 3397 
L 2834 2853 
Q 2591 2978 2328 3040 
Q 2066 3103 1784 3103 
Q 1356 3103 1142 2972 
Q 928 2841 928 2578 
Q 928 2378 1081 2264 
Q 1234 2150 1697 2047 
L 1894 2003 
Q 2506 1872 2764 1633 
Q 3022 1394 3022 966 
Q 3022 478 2636 193 
Q 2250 -91 1575 -91 
Q 1294 -91 989 -36 
Q 684 19 347 128 
L 347 722 
Q 666 556 975 473 
Q 1284 391 1588 391 
Q 1994 391 2212 530 
Q 2431 669 2431 922 
Q 2431 1156 2273 1281 
Q 2116 1406 1581 1522 
L 1381 1569 
Q 847 1681 609 1914 
Q 372 2147 372 2553 
Q 372 3047 722 3315 
Q 1072 3584 1716 3584 
Q 2034 3584 2315 3537 
Q 2597 3491 2834 3397 
z
" transform="scale(0.015625)"/>
       <path id="DejaVuSans-5d" d="M 1947 4863 
L 1947 -844 
L 622 -844 
L 622 -397 
L 1369 -397 
L 1369 4416 
L 622 4416 
L 622 4863 
L 1947 4863 
z
" transform="scale(0.015625)"/>
      </defs>
      <use xlink:href="#DejaVuSans-54"/>
      <use xlink:href="#DejaVuSans-69" transform="translate(57.958984 0)"/>
      <use xlink:href="#DejaVuSans-6d" transform="translate(85.742188 0)"/>
      <use xlink:href="#DejaVuSans-65" transform="translate(183.154297 0)"/>
      <use xlink:href="#DejaVuSans-20" transform="translate(244.677734 0)"/>
      <use xlink:href="#DejaVuSans-5b" transform="translate(276.464844 0)"/>
      <use xlink:href="#DejaVuSans-64" transform="translate(315.478516 0)"/>
      <use xlink:href="#DejaVuSans-61" transform="translate(378.955078 0)"/>
      <use xlink:href="#DejaVuSans-79" transform="translate(440.234375 0)"/>
      <use xlink:href="#DejaVuSans-73" transform="translate(499.414062 0)"/>
      <use xlink:href="#DejaVuSans-5d" transform="translate(551.513672 0)"/>
     </g>
    </g>
   </g>
   <g id="matplotlib.axis_2">
    <g id="ytick_1">
     <g id="text_7">
      <!-- 0.0 -->
      <g style="fill: #262626" transform="translate(25.1365 244.179927) scale(0.144 -0.144)">
       <defs>
        <path id="DejaVuSans-2e" d="M 684 794 
L 1344 794 
L 1344 0 
L 684 0 
L 684 794 
z
" transform="scale(0.015625)"/>
       </defs>
       <use xlink:href="#DejaVuSans-30"/>
       <use xlink:href="#DejaVuSans-2e" transform="translate(63.623047 0)"/>
       <use xlink:href="#DejaVuSans-30" transform="translate(95.410156 0)"/>
      </g>
     </g>
    </g>
    <g id="ytick_2">
     <g id="text_8">
      <!-- 0.2 -->
      <g style="fill: #262626" transform="translate(25.1365 203.726794) scale(0.144 -0.144)">
       <use xlink:href="#DejaVuSans-30"/>
       <use xlink:href="#DejaVuSans-2e" transform="translate(63.623047 0)"/>
       <use xlink:href="#DejaVuSans-32" transform="translate(95.410156 0)"/>
      </g>
     </g>
    </g>
    <g id="ytick_3">
     <g id="text_9">
      <!-- 0.4 -->
      <g style="fill: #262626" transform="translate(25.1365 163.27366) scale(0.144 -0.144)">
       <defs>
        <path id="DejaVuSans-34" d="M 2419 4116 
L 825 1625 
L 2419 1625 
L 2419 4116 
z
M 2253 4666 
L 3047 4666 
L 3047 1625 
L 3713 1625 
L 3713 1100 
L 3047 1100 
L 3047 0 
L 2419 0 
L 2419 1100 
L 313 1100 
L 313 1709 
L 2253 4666 
z
" transform="scale(0.015625)"/>
       </defs>
       <use xlink:href="#DejaVuSans-30"/>
       <use xlink:href="#DejaVuSans-2e" transform="translate(63.623047 0)"/>
       <use xlink:href="#DejaVuSans-34" transform="translate(95.410156 0)"/>
      </g>
     </g>
    </g>
    <g id="ytick_4">
     <g id="text_10">
      <!-- 0.6 -->
      <g style="fill: #262626" transform="translate(25.1365 122.820526) scale(0.144 -0.144)">
       <defs>
        <path id="DejaVuSans-36" d="M 2113 2584 
Q 1688 2584 1439 2293 
Q 1191 2003 1191 1497 
Q 1191 994 1439 701 
Q 1688 409 2113 409 
Q 2538 409 2786 701 
Q 3034 994 3034 1497 
Q 3034 2003 2786 2293 
Q 2538 2584 2113 2584 
z
M 3366 4563 
L 3366 3988 
Q 3128 4100 2886 4159 
Q 2644 4219 2406 4219 
Q 1781 4219 1451 3797 
Q 1122 3375 1075 2522 
Q 1259 2794 1537 2939 
Q 1816 3084 2150 3084 
Q 2853 3084 3261 2657 
Q 3669 2231 3669 1497 
Q 3669 778 3244 343 
Q 2819 -91 2113 -91 
Q 1303 -91 875 529 
Q 447 1150 447 2328 
Q 447 3434 972 4092 
Q 1497 4750 2381 4750 
Q 2619 4750 2861 4703 
Q 3103 4656 3366 4563 
z
" transform="scale(0.015625)"/>
       </defs>
       <use xlink:href="#DejaVuSans-30"/>
       <use xlink:href="#DejaVuSans-2e" transform="translate(63.623047 0)"/>
       <use xlink:href="#DejaVuSans-36" transform="translate(95.410156 0)"/>
      </g>
     </g>
    </g>
    <g id="ytick_5">
     <g id="text_11">
      <!-- 0.8 -->
      <g style="fill: #262626" transform="translate(25.1365 82.367392) scale(0.144 -0.144)">
       <defs>
        <path id="DejaVuSans-38" d="M 2034 2216 
Q 1584 2216 1326 1975 
Q 1069 1734 1069 1313 
Q 1069 891 1326 650 
Q 1584 409 2034 409 
Q 2484 409 2743 651 
Q 3003 894 3003 1313 
Q 3003 1734 2745 1975 
Q 2488 2216 2034 2216 
z
M 1403 2484 
Q 997 2584 770 2862 
Q 544 3141 544 3541 
Q 544 4100 942 4425 
Q 1341 4750 2034 4750 
Q 2731 4750 3128 4425 
Q 3525 4100 3525 3541 
Q 3525 3141 3298 2862 
Q 3072 2584 2669 2484 
Q 3125 2378 3379 2068 
Q 3634 1759 3634 1313 
Q 3634 634 3220 271 
Q 2806 -91 2034 -91 
Q 1263 -91 848 271 
Q 434 634 434 1313 
Q 434 1759 690 2068 
Q 947 2378 1403 2484 
z
M 1172 3481 
Q 1172 3119 1398 2916 
Q 1625 2713 2034 2713 
Q 2441 2713 2670 2916 
Q 2900 3119 2900 3481 
Q 2900 3844 2670 4047 
Q 2441 4250 2034 4250 
Q 1625 4250 1398 4047 
Q 1172 3844 1172 3481 
z
" transform="scale(0.015625)"/>
       </defs>
       <use xlink:href="#DejaVuSans-30"/>
       <use xlink:href="#DejaVuSans-2e" transform="translate(63.623047 0)"/>
       <use xlink:href="#DejaVuSans-38" transform="translate(95.410156 0)"/>
      </g>
     </g>
    </g>
    <g id="ytick_6">
     <g id="text_12">
      <!-- 1.0 -->
      <g style="fill: #262626" transform="translate(25.1365 41.914258) scale(0.144 -0.144)">
       <use xlink:href="#DejaVuSans-31"/>
       <use xlink:href="#DejaVuSans-2e" transform="translate(63.623047 0)"/>
       <use xlink:href="#DejaVuSans-30" transform="translate(95.410156 0)"/>
      </g>
     </g>
    </g>
    <g id="text_13">
     <!-- nRMSE -->
     <g style="fill: #262626" transform="translate(18.14175 162.474718) rotate(-90) scale(0.144 -0.144)">
      <defs>
       <path id="DejaVuSans-6e" d="M 3513 2113 
L 3513 0 
L 2938 0 
L 2938 2094 
Q 2938 2591 2744 2837 
Q 2550 3084 2163 3084 
Q 1697 3084 1428 2787 
Q 1159 2491 1159 1978 
L 1159 0 
L 581 0 
L 581 3500 
L 1159 3500 
L 1159 2956 
Q 1366 3272 1645 3428 
Q 1925 3584 2291 3584 
Q 2894 3584 3203 3211 
Q 3513 2838 3513 2113 
z
" transform="scale(0.015625)"/>
       <path id="DejaVuSans-52" d="M 2841 2188 
Q 3044 2119 3236 1894 
Q 3428 1669 3622 1275 
L 4263 0 
L 3584 0 
L 2988 1197 
Q 2756 1666 2539 1819 
Q 2322 1972 1947 1972 
L 1259 1972 
L 1259 0 
L 628 0 
L 628 4666 
L 2053 4666 
Q 2853 4666 3247 4331 
Q 3641 3997 3641 3322 
Q 3641 2881 3436 2590 
Q 3231 2300 2841 2188 
z
M 1259 4147 
L 1259 2491 
L 2053 2491 
Q 2509 2491 2742 2702 
Q 2975 2913 2975 3322 
Q 2975 3731 2742 3939 
Q 2509 4147 2053 4147 
L 1259 4147 
z
" transform="scale(0.015625)"/>
       <path id="DejaVuSans-4d" d="M 628 4666 
L 1569 4666 
L 2759 1491 
L 3956 4666 
L 4897 4666 
L 4897 0 
L 4281 0 
L 4281 4097 
L 3078 897 
L 2444 897 
L 1241 4097 
L 1241 0 
L 628 0 
L 628 4666 
z
" transform="scale(0.015625)"/>
       <path id="DejaVuSans-53" d="M 3425 4513 
L 3425 3897 
Q 3066 4069 2747 4153 
Q 2428 4238 2131 4238 
Q 1616 4238 1336 4038 
Q 1056 3838 1056 3469 
Q 1056 3159 1242 3001 
Q 1428 2844 1947 2747 
L 2328 2669 
Q 3034 2534 3370 2195 
Q 3706 1856 3706 1288 
Q 3706 609 3251 259 
Q 2797 -91 1919 -91 
Q 1588 -91 1214 -16 
Q 841 59 441 206 
L 441 856 
Q 825 641 1194 531 
Q 1563 422 1919 422 
Q 2459 422 2753 634 
Q 3047 847 3047 1241 
Q 3047 1584 2836 1778 
Q 2625 1972 2144 2069 
L 1759 2144 
Q 1053 2284 737 2584 
Q 422 2884 422 3419 
Q 422 4038 858 4394 
Q 1294 4750 2059 4750 
Q 2388 4750 2728 4690 
Q 3069 4631 3425 4513 
z
" transform="scale(0.015625)"/>
       <path id="DejaVuSans-45" d="M 628 4666 
L 3578 4666 
L 3578 4134 
L 1259 4134 
L 1259 2753 
L 3481 2753 
L 3481 2222 
L 1259 2222 
L 1259 531 
L 3634 531 
L 3634 0 
L 628 0 
L 628 4666 
z
" transform="scale(0.015625)"/>
      </defs>
      <use xlink:href="#DejaVuSans-6e"/>
      <use xlink:href="#DejaVuSans-52" transform="translate(63.378906 0)"/>
      <use xlink:href="#DejaVuSans-4d" transform="translate(132.861328 0)"/>
      <use xlink:href="#DejaVuSans-53" transform="translate(219.140625 0)"/>
      <use xlink:href="#DejaVuSans-45" transform="translate(282.617188 0)"/>
     </g>
    </g>
   </g>
   <g id="FillBetweenPolyCollection_1">
    <defs>
     <path id="m853859090d" d="M 73.900636 -160.032479 
L 73.900636 -118.354872 
L 75.220284 -116.079716 
L 76.539933 -113.778496 
L 77.859581 -111.5299 
L 79.179229 -109.403105 
L 80.498877 -107.433606 
L 81.818525 -105.621894 
L 83.138173 -103.949845 
L 84.457821 -102.400698 
L 85.777469 -100.970846 
L 87.097117 -99.671296 
L 88.416765 -98.52325 
L 89.736413 -97.550722 
L 91.056062 -96.774026 
L 92.37571 -96.205454 
L 93.695358 -95.84701 
L 95.015006 -95.690457 
L 96.334654 -95.719039 
L 97.654302 -95.908977 
L 98.97395 -96.231055 
L 100.293598 -96.651906 
L 101.613246 -97.137175 
L 102.932894 -97.654175 
L 104.252543 -98.175264 
L 105.572191 -98.679667 
L 106.891839 -99.153864 
L 108.211487 -99.591837 
L 109.531135 -99.993078 
L 110.850783 -100.361418 
L 112.170431 -100.703062 
L 113.490079 -101.025399 
L 114.809727 -101.335451 
L 116.129375 -101.639444 
L 117.449023 -101.942004 
L 118.768672 -102.245504 
L 120.08832 -102.549938 
L 121.407968 -102.852577 
L 122.727616 -103.148704 
L 124.047264 -103.433839 
L 125.366912 -103.704771 
L 126.68656 -103.960596 
L 128.006208 -104.20268 
L 129.325856 -104.433911 
L 130.645504 -104.657716 
L 131.965152 -104.87734 
L 133.284801 -105.095095 
L 134.604449 -105.312018 
L 135.924097 -105.527397 
L 137.243745 -105.738649 
L 138.563393 -105.940927 
L 139.883041 -106.127473 
L 141.202689 -106.290361 
L 142.522337 -106.421866 
L 143.841985 -106.515695 
L 145.161633 -106.568389 
L 146.481282 -106.579025 
L 147.80093 -106.549128 
L 149.120578 -106.482667 
L 150.440226 -106.385647 
L 151.759874 -106.266668 
L 153.079522 -106.136435 
L 154.39917 -106.007344 
L 155.718818 -105.891052 
L 157.038466 -105.796156 
L 158.358114 -105.726756 
L 159.677762 -105.682972 
L 160.997411 -105.661776 
L 162.317059 -105.658937 
L 163.636707 -105.671299 
L 164.956355 -105.698335 
L 166.276003 -105.74333 
L 167.595651 -105.812983 
L 168.915299 -105.916761 
L 170.234947 -106.064634 
L 171.554595 -106.265552 
L 172.874243 -106.524284 
L 174.193891 -106.839648 
L 175.51354 -107.202947 
L 176.833188 -107.597851 
L 178.152836 -108.002521 
L 179.472484 -108.394262 
L 180.792132 -108.754067 
L 182.11178 -109.06768 
L 183.431428 -109.324268 
L 184.751076 -109.51509 
L 186.070724 -109.634588 
L 187.390372 -109.68139 
L 188.710021 -109.660056 
L 190.029669 -109.580369 
L 191.349317 -109.454014 
L 192.668965 -109.291525 
L 193.988613 -109.1003 
L 195.308261 -108.883525 
L 196.627909 -108.641657 
L 197.947557 -108.374495 
L 199.267205 -108.082885 
L 200.586853 -107.770113 
L 201.906501 -107.441939 
L 203.22615 -107.105405 
L 204.545798 -106.768811 
L 205.865446 -106.440842 
L 207.185094 -106.130901 
L 208.504742 -105.848825 
L 209.82439 -105.605315 
L 211.144038 -105.411069 
L 212.463686 -105.275963 
L 213.783334 -105.208634 
L 215.102982 -105.217728 
L 216.42263 -105.312078 
L 217.742279 -105.500291 
L 219.061927 -105.789974 
L 220.381575 -106.186171 
L 221.701223 -106.690263 
L 223.020871 -107.298596 
L 224.340519 -108.001042 
L 225.660167 -108.77982 
L 226.979815 -109.610738 
L 228.299463 -110.466744 
L 229.619111 -111.322416 
L 230.93876 -112.157336 
L 232.258408 -112.956701 
L 233.578056 -113.709734 
L 234.897704 -114.406984 
L 236.217352 -115.038881 
L 237.537 -115.595675 
L 238.856648 -116.068409 
L 240.176296 -116.449572 
L 241.495944 -116.733898 
L 242.815592 -116.919422 
L 244.13524 -117.008627 
L 245.454889 -117.009075 
L 246.774537 -116.932013 
L 248.094185 -116.79052 
L 249.413833 -116.597121 
L 250.733481 -116.364296 
L 252.053129 -116.105122 
L 253.372777 -115.835012 
L 254.692425 -115.571863 
L 256.012073 -115.33502 
L 257.331721 -115.142971 
L 258.65137 -115.011716 
L 259.971018 -114.953659 
L 261.290666 -114.97735 
L 262.610314 -115.087685 
L 263.929962 -115.286736 
L 265.24961 -115.574585 
L 266.569258 -115.946952 
L 267.888906 -116.390761 
L 269.208554 -116.882618 
L 270.528202 -117.392546 
L 271.84785 -117.894331 
L 273.167499 -118.375032 
L 274.487147 -118.837152 
L 275.806795 -119.292218 
L 277.126443 -119.748671 
L 278.446091 -120.203593 
L 279.765739 -120.643411 
L 281.085387 -121.050627 
L 282.405035 -121.410474 
L 283.724683 -121.713053 
L 285.044331 -121.953115 
L 286.363979 -122.128161 
L 287.683628 -122.237442 
L 289.003276 -122.282581 
L 290.322924 -122.268592 
L 291.642572 -122.204979 
L 292.96222 -122.105775 
L 294.281868 -121.988009 
L 295.601516 -121.869076 
L 296.921164 -121.763773 
L 298.240812 -121.682638 
L 299.56046 -121.63103 
L 300.880109 -121.609749 
L 302.199757 -121.616341 
L 303.519405 -121.645932 
L 304.839053 -121.691593 
L 306.158701 -121.745235 
L 307.478349 -121.798252 
L 308.797997 -121.842616 
L 310.117645 -121.872273 
L 311.437293 -121.884445 
L 312.756941 -121.879813 
L 314.076589 -121.861591 
L 315.396238 -121.834348 
L 316.715886 -121.801352 
L 318.035534 -121.763251 
L 319.355182 -121.718037 
L 320.67483 -121.663005 
L 321.994478 -121.596751 
L 323.314126 -121.520711 
L 324.633774 -121.439065 
L 325.953422 -121.357571 
L 327.27307 -121.281232 
L 328.592718 -121.213972 
L 329.912367 -121.159955 
L 331.232015 -121.124943 
L 332.551663 -121.117023 
L 333.871311 -121.14526 
L 335.190959 -121.217205 
L 336.510607 -121.336262 
L 337.830255 -121.500645 
L 339.149903 -121.703302 
L 340.469551 -121.933725 
L 341.789199 -122.178937 
L 343.108848 -122.426034 
L 344.428496 -122.663916 
L 345.748144 -122.884308 
L 347.067792 -123.082093 
L 348.38744 -123.255237 
L 349.707088 -123.403412 
L 351.026736 -123.527403 
L 352.346384 -123.62771 
L 353.666032 -123.703841 
L 354.98568 -123.7551 
L 356.305328 -123.780713 
L 357.624977 -123.781458 
L 358.944625 -123.761348 
L 360.264273 -123.727775 
L 361.583921 -123.690121 
L 362.903569 -123.659307 
L 364.223217 -123.646851 
L 365.542865 -123.661805 
L 366.862513 -123.709987 
L 368.182161 -123.793289 
L 369.501809 -123.909424 
L 370.821457 -124.054138 
L 372.141106 -124.22452 
L 373.460754 -124.421479 
L 374.780402 -124.650807 
L 376.10005 -124.924303 
L 377.419698 -125.258002 
L 378.739346 -125.669642 
L 380.058994 -126.177411 
L 381.378642 -126.799178 
L 382.69829 -127.55191 
L 384.017938 -128.45173 
L 385.337587 -129.512065 
L 386.657235 -130.741293 
L 387.976883 -132.140825 
L 389.296531 -133.703923 
L 390.616179 -135.416498 
L 391.935827 -137.259447 
L 393.255475 -139.211757 
L 394.575123 -141.252362 
L 395.894771 -143.361753 
L 397.214419 -145.522514 
L 398.534067 -147.718291 
L 399.853716 -149.933889 
L 401.173364 -152.154862 
L 401.173364 -198.106843 
L 401.173364 -198.106843 
L 399.853716 -195.692533 
L 398.534067 -193.331867 
L 397.214419 -191.037903 
L 395.894771 -188.823624 
L 394.575123 -186.702002 
L 393.255475 -184.684075 
L 391.935827 -182.776404 
L 390.616179 -180.983581 
L 389.296531 -179.30657 
L 387.976883 -177.743139 
L 386.657235 -176.290084 
L 385.337587 -174.942561 
L 384.017938 -173.696386 
L 382.69829 -172.548719 
L 381.378642 -171.498318 
L 380.058994 -170.544503 
L 378.739346 -169.686765 
L 377.419698 -168.924191 
L 376.10005 -168.255712 
L 374.780402 -167.679473 
L 373.460754 -167.19271 
L 372.141106 -166.792581 
L 370.821457 -166.476321 
L 369.501809 -166.239556 
L 368.182161 -166.076191 
L 366.862513 -165.978204 
L 365.542865 -165.93516 
L 364.223217 -165.934543 
L 362.903569 -165.963079 
L 361.583921 -166.008512 
L 360.264273 -166.060676 
L 358.944625 -166.111526 
L 357.624977 -166.155545 
L 356.305328 -166.190492 
L 354.98568 -166.21554 
L 353.666032 -166.231208 
L 352.346384 -166.239556 
L 351.026736 -166.243369 
L 349.707088 -166.245701 
L 348.38744 -166.250847 
L 347.067792 -166.264386 
L 345.748144 -166.292344 
L 344.428496 -166.340919 
L 343.108848 -166.415465 
L 341.789199 -166.518965 
L 340.469551 -166.649855 
L 339.149903 -166.801243 
L 337.830255 -166.962223 
L 336.510607 -167.119785 
L 335.190959 -167.261364 
L 333.871311 -167.377355 
L 332.551663 -167.462711 
L 331.232015 -167.518236 
L 329.912367 -167.550003 
L 328.592718 -167.567803 
L 327.27307 -167.583603 
L 325.953422 -167.609741 
L 324.633774 -167.657173 
L 323.314126 -167.733112 
L 321.994478 -167.839934 
L 320.67483 -167.97465 
L 319.355182 -168.129788 
L 318.035534 -168.295839 
L 316.715886 -168.463257 
L 315.396238 -168.625112 
L 314.076589 -168.778449 
L 312.756941 -168.923937 
L 311.437293 -169.06307 
L 310.117645 -169.195349 
L 308.797997 -169.31576 
L 307.478349 -169.412678 
L 306.158701 -169.468524 
L 304.839053 -169.461769 
L 303.519405 -169.369931 
L 302.199757 -169.172788 
L 300.880109 -168.85578 
L 299.56046 -168.412353 
L 298.240812 -167.845178 
L 296.921164 -167.165881 
L 295.601516 -166.393677 
L 294.281868 -165.551998 
L 292.96222 -164.66491 
L 291.642572 -163.753803 
L 290.322924 -162.83555 
L 289.003276 -161.922219 
L 287.683628 -161.022341 
L 286.363979 -160.141582 
L 285.044331 -159.283155 
L 283.724683 -158.448357 
L 282.405035 -157.638176 
L 281.085387 -156.855944 
L 279.765739 -156.111342 
L 278.446091 -155.4209 
L 277.126443 -154.804146 
L 275.806795 -154.278735 
L 274.487147 -153.856577 
L 273.167499 -153.541678 
L 271.84785 -153.329904 
L 270.528202 -153.209661 
L 269.208554 -153.163242 
L 267.888906 -153.171017 
L 266.569258 -153.213915 
L 265.24961 -153.274736 
L 263.929962 -153.338187 
L 262.610314 -153.390761 
L 261.290666 -153.421747 
L 259.971018 -153.424578 
L 258.65137 -153.398145 
L 257.331721 -153.34608 
L 256.012073 -153.274929 
L 254.692425 -153.191583 
L 253.372777 -153.101415 
L 252.053129 -153.006811 
L 250.733481 -152.907464 
L 249.413833 -152.800804 
L 248.094185 -152.681813 
L 246.774537 -152.543702 
L 245.454889 -152.378133 
L 244.13524 -152.176311 
L 242.815592 -151.930575 
L 241.495944 -151.636483 
L 240.176296 -151.293484 
L 238.856648 -150.903961 
L 237.537 -150.472357 
L 236.217352 -150.004126 
L 234.897704 -149.505712 
L 233.578056 -148.985257 
L 232.258408 -148.452972 
L 230.93876 -147.921016 
L 229.619111 -147.402733 
L 228.299463 -146.910778 
L 226.979815 -146.455425 
L 225.660167 -146.043484 
L 224.340519 -145.678226 
L 223.020871 -145.359924 
L 221.701223 -145.086832 
L 220.381575 -144.856061 
L 219.061927 -144.663563 
L 217.742279 -144.504343 
L 216.42263 -144.371529 
L 215.102982 -144.255513 
L 213.783334 -144.14396 
L 212.463686 -144.022444 
L 211.144038 -143.876424 
L 209.82439 -143.693243 
L 208.504742 -143.463607 
L 207.185094 -143.182838 
L 205.865446 -142.850928 
L 204.545798 -142.472878 
L 203.22615 -142.05818 
L 201.906501 -141.61962 
L 200.586853 -141.172222 
L 199.267205 -140.731617 
L 197.947557 -140.312225 
L 196.627909 -139.926729 
L 195.308261 -139.584823 
L 193.988613 -139.292758 
L 192.668965 -139.053896 
L 191.349317 -138.869532 
L 190.029669 -138.740336 
L 188.710021 -138.666651 
L 187.390372 -138.647449 
L 186.070724 -138.67884 
L 184.751076 -138.753944 
L 183.431428 -138.863351 
L 182.11178 -138.996088 
L 180.792132 -139.140455 
L 179.472484 -139.285692 
L 178.152836 -139.423548 
L 176.833188 -139.550282 
L 175.51354 -139.6675 
L 174.193891 -139.781371 
L 172.874243 -139.90113 
L 171.554595 -140.037166 
L 170.234947 -140.200443 
L 168.915299 -140.401223 
L 167.595651 -140.646139 
L 166.276003 -140.936222 
L 164.956355 -141.264938 
L 163.636707 -141.618688 
L 162.317059 -141.978085 
L 160.997411 -142.320736 
L 159.677762 -142.624118 
L 158.358114 -142.86916 
L 157.038466 -143.041759 
L 155.718818 -143.13431 
L 154.39917 -143.145546 
L 153.079522 -143.07997 
L 151.759874 -142.945755 
L 150.440226 -142.752372 
L 149.120578 -142.508455 
L 147.80093 -142.220929 
L 146.481282 -141.895536 
L 145.161633 -141.536704 
L 143.841985 -141.148522 
L 142.522337 -140.735355 
L 141.202689 -140.30109 
L 139.883041 -139.848954 
L 138.563393 -139.381492 
L 137.243745 -138.900594 
L 135.924097 -138.407742 
L 134.604449 -137.904409 
L 133.284801 -137.392244 
L 131.965152 -136.873066 
L 130.645504 -136.348389 
L 129.325856 -135.819648 
L 128.006208 -135.288553 
L 126.68656 -134.757533 
L 125.366912 -134.229237 
L 124.047264 -133.706211 
L 122.727616 -133.189842 
L 121.407968 -132.67984 
L 120.08832 -132.173606 
L 118.768672 -131.667095 
L 117.449023 -131.15643 
L 116.129375 -130.639869 
L 114.809727 -130.119053 
L 113.490079 -129.599188 
L 112.170431 -129.088464 
L 110.850783 -128.594564 
L 109.531135 -128.12439 
L 108.211487 -127.682319 
L 106.891839 -127.26976 
L 105.572191 -126.886915 
L 104.252543 -126.534401 
L 102.932894 -126.215428 
L 101.613246 -125.936894 
L 100.293598 -125.709438 
L 98.97395 -125.548135 
L 97.654302 -125.471082 
L 96.334654 -125.497987 
L 95.015006 -125.651375 
L 93.695358 -125.955681 
L 92.37571 -126.436376 
L 91.056062 -127.119553 
L 89.736413 -128.030715 
L 88.416765 -129.193423 
L 87.097117 -130.628266 
L 85.777469 -132.351152 
L 84.457821 -134.372989 
L 83.138173 -136.70113 
L 81.818525 -139.338822 
L 80.498877 -142.280759 
L 79.179229 -145.505533 
L 77.859581 -148.967783 
L 76.539933 -152.598131 
L 75.220284 -156.312909 
L 73.900636 -160.032479 
z
" style="stroke: #008000; stroke-opacity: 0.2"/>
    </defs>
    <g clip-path="url(#p28965fa29e)">
     <use xlink:href="#m853859090d" x="0" y="297.395336" style="fill: #008000; fill-opacity: 0.2; stroke: #008000; stroke-opacity: 0.2"/>
    </g>
   </g>
   <g id="FillBetweenPolyCollection_2">
    <defs>
     <path id="m090b5c4c75" d="M 73.900636 -192.186012 
L 73.900636 -144.898899 
L 75.220284 -143.453821 
L 76.539933 -142.066843 
L 77.859581 -140.746388 
L 79.179229 -139.497882 
L 80.498877 -138.324294 
L 81.818525 -137.227253 
L 83.138173 -136.207953 
L 84.457821 -135.268576 
L 85.777469 -134.412009 
L 87.097117 -133.641347 
L 88.416765 -132.959393 
L 89.736413 -132.367109 
L 91.056062 -131.862465 
L 92.37571 -131.439772 
L 93.695358 -131.09088 
L 95.015006 -130.804199 
L 96.334654 -130.565317 
L 97.654302 -130.358403 
L 98.97395 -130.167551 
L 100.293598 -129.977778 
L 101.613246 -129.77683 
L 102.932894 -129.556407 
L 104.252543 -129.311717 
L 105.572191 -129.043063 
L 106.891839 -128.755174 
L 108.211487 -128.455342 
L 109.531135 -128.154869 
L 110.850783 -127.863501 
L 112.170431 -127.59213 
L 113.490079 -127.348542 
L 114.809727 -127.138184 
L 116.129375 -126.963818 
L 117.449023 -126.830631 
L 118.768672 -126.742763 
L 120.08832 -126.705022 
L 121.407968 -126.722707 
L 122.727616 -126.79957 
L 124.047264 -126.940444 
L 125.366912 -127.148665 
L 126.68656 -127.426386 
L 128.006208 -127.775343 
L 129.325856 -128.19676 
L 130.645504 -128.68979 
L 131.965152 -129.25222 
L 133.284801 -129.879336 
L 134.604449 -130.563707 
L 135.924097 -131.295245 
L 137.243745 -132.062066 
L 138.563393 -132.851545 
L 139.883041 -133.650851 
L 141.202689 -134.447782 
L 142.522337 -135.231413 
L 143.841985 -135.991148 
L 145.161633 -136.717878 
L 146.481282 -137.402702 
L 147.80093 -138.038298 
L 149.120578 -138.61934 
L 150.440226 -139.142491 
L 151.759874 -139.606658 
L 153.079522 -140.012857 
L 154.39917 -140.364702 
L 155.718818 -140.667926 
L 157.038466 -140.930026 
L 158.358114 -141.159694 
L 159.677762 -141.366257 
L 160.997411 -141.558988 
L 162.317059 -141.746238 
L 163.636707 -141.934845 
L 164.956355 -142.130134 
L 166.276003 -142.335539 
L 167.595651 -142.553254 
L 168.915299 -142.784287 
L 170.234947 -143.028629 
L 171.554595 -143.286488 
L 172.874243 -143.55915 
L 174.193891 -143.848057 
L 175.51354 -144.15468 
L 176.833188 -144.479939 
L 178.152836 -144.82354 
L 179.472484 -145.184628 
L 180.792132 -145.561694 
L 182.11178 -145.952452 
L 183.431428 -146.353768 
L 184.751076 -146.761067 
L 186.070724 -147.169243 
L 187.390372 -147.572998 
L 188.710021 -147.966608 
L 190.029669 -148.344832 
L 191.349317 -148.703032 
L 192.668965 -149.036976 
L 193.988613 -149.342808 
L 195.308261 -149.616853 
L 196.627909 -149.856319 
L 197.947557 -150.059755 
L 199.267205 -150.225994 
L 200.586853 -150.354085 
L 201.906501 -150.442722 
L 203.22615 -150.489557 
L 204.545798 -150.490254 
L 205.865446 -150.438355 
L 207.185094 -150.325807 
L 208.504742 -150.143532 
L 209.82439 -149.88321 
L 211.144038 -149.538095 
L 212.463686 -149.103993 
L 213.783334 -148.579864 
L 215.102982 -147.968215 
L 216.42263 -147.274385 
L 217.742279 -146.506118 
L 219.061927 -145.673079 
L 220.381575 -144.786392 
L 221.701223 -143.856831 
L 223.020871 -142.895461 
L 224.340519 -141.913204 
L 225.660167 -140.921258 
L 226.979815 -139.932175 
L 228.299463 -138.959724 
L 229.619111 -138.019606 
L 230.93876 -137.129222 
L 232.258408 -136.307104 
L 233.578056 -135.571515 
L 234.897704 -134.938316 
L 236.217352 -134.420686 
L 237.537 -134.027598 
L 238.856648 -133.763272 
L 240.176296 -133.626639 
L 241.495944 -133.611506 
L 242.815592 -133.706816 
L 244.13524 -133.896075 
L 245.454889 -134.160309 
L 246.774537 -134.478621 
L 248.094185 -134.829014 
L 249.413833 -135.190148 
L 250.733481 -135.542959 
L 252.053129 -135.871642 
L 253.372777 -136.164354 
L 254.692425 -136.413636 
L 256.012073 -136.615485 
L 257.331721 -136.768518 
L 258.65137 -136.873798 
L 259.971018 -136.934584 
L 261.290666 -136.956844 
L 262.610314 -136.94804 
L 263.929962 -136.917032 
L 265.24961 -136.874428 
L 266.569258 -136.83076 
L 267.888906 -136.794591 
L 269.208554 -136.771638 
L 270.528202 -136.763934 
L 271.84785 -136.771891 
L 273.167499 -136.797195 
L 274.487147 -136.844587 
L 275.806795 -136.920386 
L 277.126443 -137.030854 
L 278.446091 -137.180122 
L 279.765739 -137.368634 
L 281.085387 -137.593204 
L 282.405035 -137.848323 
L 283.724683 -138.126598 
L 285.044331 -138.41967 
L 286.363979 -138.71883 
L 287.683628 -139.015961 
L 289.003276 -139.30446 
L 290.322924 -139.580841 
L 291.642572 -139.844166 
L 292.96222 -140.095685 
L 294.281868 -140.337265 
L 295.601516 -140.569851 
L 296.921164 -140.792968 
L 298.240812 -141.004737 
L 299.56046 -141.201485 
L 300.880109 -141.378352 
L 302.199757 -141.529186 
L 303.519405 -141.648032 
L 304.839053 -141.728558 
L 306.158701 -141.765454 
L 307.478349 -141.755283 
L 308.797997 -141.696541 
L 310.117645 -141.589094 
L 311.437293 -141.434732 
L 312.756941 -141.237262 
L 314.076589 -140.999996 
L 315.396238 -140.72687 
L 316.715886 -140.421634 
L 318.035534 -140.087274 
L 319.355182 -139.726853 
L 320.67483 -139.343933 
L 321.994478 -138.943083 
L 323.314126 -138.530004 
L 324.633774 -138.112153 
L 325.953422 -137.699306 
L 327.27307 -137.302498 
L 328.592718 -136.934224 
L 329.912367 -136.607414 
L 331.232015 -136.334458 
L 332.551663 -136.127729 
L 333.871311 -135.999144 
L 335.190959 -135.959721 
L 336.510607 -136.019302 
L 337.830255 -136.186172 
L 339.149903 -136.466691 
L 340.469551 -136.865231 
L 341.789199 -137.383256 
L 343.108848 -138.019387 
L 344.428496 -138.768719 
L 345.748144 -139.623084 
L 347.067792 -140.571395 
L 348.38744 -141.600291 
L 349.707088 -142.693537 
L 351.026736 -143.833878 
L 352.346384 -145.004355 
L 353.666032 -146.189199 
L 354.98568 -147.374233 
L 356.305328 -148.546986 
L 357.624977 -149.697805 
L 358.944625 -150.818766 
L 360.264273 -151.90372 
L 361.583921 -152.948686 
L 362.903569 -153.952215 
L 364.223217 -154.915675 
L 365.542865 -155.841692 
L 366.862513 -156.735155 
L 368.182161 -157.60203 
L 369.501809 -158.448447 
L 370.821457 -159.282048 
L 372.141106 -160.110426 
L 373.460754 -160.941638 
L 374.780402 -161.783245 
L 376.10005 -162.643388 
L 377.419698 -163.530378 
L 378.739346 -164.451387 
L 380.058994 -165.413289 
L 381.378642 -166.423669 
L 382.69829 -167.489305 
L 384.017938 -168.61654 
L 385.337587 -169.810473 
L 386.657235 -171.074426 
L 387.976883 -172.410836 
L 389.296531 -173.821615 
L 390.616179 -175.307498 
L 391.935827 -176.869641 
L 393.255475 -178.509161 
L 394.575123 -180.225477 
L 395.894771 -182.016022 
L 397.214419 -183.876048 
L 398.534067 -185.797767 
L 399.853716 -187.771384 
L 401.173364 -189.785775 
L 401.173364 -277.519609 
L 401.173364 -277.519609 
L 399.853716 -274.37371 
L 398.534067 -271.213714 
L 397.214419 -268.050439 
L 395.894771 -264.891258 
L 394.575123 -261.744302 
L 393.255475 -258.617711 
L 391.935827 -255.516092 
L 390.616179 -252.447437 
L 389.296531 -249.42089 
L 387.976883 -246.445944 
L 386.657235 -243.531699 
L 385.337587 -240.68637 
L 384.017938 -237.917865 
L 382.69829 -235.232744 
L 381.378642 -232.63754 
L 380.058994 -230.137278 
L 378.739346 -227.737579 
L 377.419698 -225.441566 
L 376.10005 -223.254003 
L 374.780402 -221.178543 
L 373.460754 -219.219588 
L 372.141106 -217.380581 
L 370.821457 -215.664137 
L 369.501809 -214.072302 
L 368.182161 -212.606551 
L 366.862513 -211.26838 
L 365.542865 -210.057493 
L 364.223217 -208.972328 
L 362.903569 -208.008674 
L 361.583921 -207.159076 
L 360.264273 -206.414715 
L 358.944625 -205.764106 
L 357.624977 -205.193813 
L 356.305328 -204.689404 
L 354.98568 -204.23495 
L 353.666032 -203.81488 
L 352.346384 -203.413344 
L 351.026736 -203.014086 
L 349.707088 -202.601088 
L 348.38744 -202.159473 
L 347.067792 -201.677433 
L 345.748144 -201.146543 
L 344.428496 -200.56291 
L 343.108848 -199.927627 
L 341.789199 -199.24625 
L 340.469551 -198.528356 
L 339.149903 -197.784887 
L 337.830255 -197.028678 
L 336.510607 -196.272294 
L 335.190959 -195.527939 
L 333.871311 -194.806414 
L 332.551663 -194.117393 
L 331.232015 -193.469659 
L 329.912367 -192.871583 
L 328.592718 -192.331045 
L 327.27307 -191.856044 
L 325.953422 -191.454377 
L 324.633774 -191.1327 
L 323.314126 -190.895108 
L 321.994478 -190.743237 
L 320.67483 -190.67579 
L 319.355182 -190.688418 
L 318.035534 -190.77407 
L 316.715886 -190.923755 
L 315.396238 -191.128322 
L 314.076589 -191.378331 
L 312.756941 -191.664228 
L 311.437293 -191.975457 
L 310.117645 -192.301825 
L 308.797997 -192.631302 
L 307.478349 -192.949474 
L 306.158701 -193.241035 
L 304.839053 -193.4905 
L 303.519405 -193.680125 
L 302.199757 -193.793593 
L 300.880109 -193.817404 
L 299.56046 -193.740858 
L 298.240812 -193.558991 
L 296.921164 -193.274392 
L 295.601516 -192.895992 
L 294.281868 -192.438861 
L 292.96222 -191.922373 
L 291.642572 -191.366947 
L 290.322924 -190.791392 
L 289.003276 -190.21085 
L 287.683628 -189.634834 
L 286.363979 -189.067533 
L 285.044331 -188.509023 
L 283.724683 -187.956462 
L 282.405035 -187.40652 
L 281.085387 -186.85698 
L 279.765739 -186.306837 
L 278.446091 -185.756761 
L 277.126443 -185.2078 
L 275.806795 -184.661248 
L 274.487147 -184.119948 
L 273.167499 -183.587596 
L 271.84785 -183.068202 
L 270.528202 -182.5657 
L 269.208554 -182.081321 
L 267.888906 -181.614902 
L 266.569258 -181.166668 
L 265.24961 -180.738571 
L 263.929962 -180.334771 
L 262.610314 -179.961222 
L 261.290666 -179.625291 
L 259.971018 -179.333717 
L 258.65137 -179.092569 
L 257.331721 -178.906415 
L 256.012073 -178.778353 
L 254.692425 -178.709905 
L 253.372777 -178.701388 
L 252.053129 -178.750691 
L 250.733481 -178.853358 
L 249.413833 -179.001595 
L 248.094185 -179.185309 
L 246.774537 -179.392649 
L 245.454889 -179.610035 
L 244.13524 -179.825062 
L 242.815592 -180.028649 
L 241.495944 -180.214125 
L 240.176296 -180.375736 
L 238.856648 -180.511302 
L 237.537 -180.618806 
L 236.217352 -180.696074 
L 234.897704 -180.74134 
L 233.578056 -180.754275 
L 232.258408 -180.73536 
L 230.93876 -180.684755 
L 229.619111 -180.605889 
L 228.299463 -180.502332 
L 226.979815 -180.378223 
L 225.660167 -180.238825 
L 224.340519 -180.090728 
L 223.020871 -179.943078 
L 221.701223 -179.805157 
L 220.381575 -179.687457 
L 219.061927 -179.600724 
L 217.742279 -179.553729 
L 216.42263 -179.556364 
L 215.102982 -179.614492 
L 213.783334 -179.732467 
L 212.463686 -179.910214 
L 211.144038 -180.143375 
L 209.82439 -180.423986 
L 208.504742 -180.740738 
L 207.185094 -181.081929 
L 205.865446 -181.434903 
L 204.545798 -181.787539 
L 203.22615 -182.128959 
L 201.906501 -182.450682 
L 200.586853 -182.746374 
L 199.267205 -183.011926 
L 197.947557 -183.244286 
L 196.627909 -183.44098 
L 195.308261 -183.600246 
L 193.988613 -183.720381 
L 192.668965 -183.801471 
L 191.349317 -183.845723 
L 190.029669 -183.858063 
L 188.710021 -183.844399 
L 187.390372 -183.809814 
L 186.070724 -183.756463 
L 184.751076 -183.682597 
L 183.431428 -183.583565 
L 182.11178 -183.454436 
L 180.792132 -183.292768 
L 179.472484 -183.097504 
L 178.152836 -182.866542 
L 176.833188 -182.596111 
L 175.51354 -182.280769 
L 174.193891 -181.916313 
L 172.874243 -181.504273 
L 171.554595 -181.053783 
L 170.234947 -180.578666 
L 168.915299 -180.093643 
L 167.595651 -179.610877 
L 166.276003 -179.140538 
L 164.956355 -178.691309 
L 163.636707 -178.272576 
L 162.317059 -177.892898 
L 160.997411 -177.560927 
L 159.677762 -177.284152 
L 158.358114 -177.06868 
L 157.038466 -176.918678 
L 155.718818 -176.83802 
L 154.39917 -176.829482 
L 153.079522 -176.894835 
L 151.759874 -177.035168 
L 150.440226 -177.250402 
L 149.120578 -177.53947 
L 147.80093 -177.897858 
L 146.481282 -178.318768 
L 145.161633 -178.791122 
L 143.841985 -179.300711 
L 142.522337 -179.830767 
L 141.202689 -180.361476 
L 139.883041 -180.87148 
L 138.563393 -181.338487 
L 137.243745 -181.74077 
L 135.924097 -182.058056 
L 134.604449 -182.272539 
L 133.284801 -182.370189 
L 131.965152 -182.340723 
L 130.645504 -182.177508 
L 129.325856 -181.877562 
L 128.006208 -181.440374 
L 126.68656 -180.868755 
L 125.366912 -180.16807 
L 124.047264 -179.346499 
L 122.727616 -178.414901 
L 121.407968 -177.385845 
L 120.08832 -176.272601 
L 118.768672 -175.088399 
L 117.449023 -173.845365 
L 116.129375 -172.554909 
L 114.809727 -171.227918 
L 113.490079 -169.874309 
L 112.170431 -168.506717 
L 110.850783 -167.138135 
L 109.531135 -165.785031 
L 108.211487 -164.46607 
L 106.891839 -163.203601 
L 105.572191 -162.022635 
L 104.252543 -160.952746 
L 102.932894 -160.024121 
L 101.613246 -159.26662 
L 100.293598 -158.706949 
L 98.97395 -158.365947 
L 97.654302 -158.257814 
L 96.334654 -158.388471 
L 95.015006 -158.759757 
L 93.695358 -159.370392 
L 92.37571 -160.217639 
L 91.056062 -161.298816 
L 89.736413 -162.61179 
L 88.416765 -164.155565 
L 87.097117 -165.928066 
L 85.777469 -167.923479 
L 84.457821 -170.129981 
L 83.138173 -172.528761 
L 81.818525 -175.094482 
L 80.498877 -177.795829 
L 79.179229 -180.598152 
L 77.859581 -183.467413 
L 76.539933 -186.371985 
L 75.220284 -189.284687 
L 73.900636 -192.186012 
z
" style="stroke: #000080; stroke-opacity: 0.2"/>
    </defs>
    <g clip-path="url(#p28965fa29e)">
     <use xlink:href="#m090b5c4c75" x="0" y="297.395336" style="fill: #000080; fill-opacity: 0.2; stroke: #000080; stroke-opacity: 0.2"/>
    </g>
   </g>
   <g id="line2d_1">
    <path d="M 73.900636 158.20166 
L 79.179229 169.941017 
L 81.818525 174.914978 
L 83.138173 177.069849 
L 84.457821 179.008492 
L 85.777469 180.734337 
L 87.097117 182.245555 
L 88.416765 183.536999 
L 89.736413 184.604617 
L 91.056062 185.448546 
L 92.37571 186.074421 
L 93.695358 186.493991 
L 95.015006 186.72442 
L 96.334654 186.786823 
L 97.654302 186.705306 
L 100.293598 186.214664 
L 104.252543 185.040504 
L 118.768672 180.439036 
L 130.645504 176.892284 
L 138.563393 174.734126 
L 142.522337 173.816726 
L 146.481282 173.158055 
L 150.440226 172.826327 
L 154.39917 172.818891 
L 158.358114 173.097378 
L 168.915299 174.236344 
L 171.554595 174.243977 
L 175.51354 173.960112 
L 182.11178 173.363452 
L 186.070724 173.238622 
L 196.627909 173.111143 
L 207.185094 172.738466 
L 215.102982 172.658715 
L 217.742279 172.393019 
L 220.381575 171.87422 
L 223.020871 171.066076 
L 225.660167 169.983684 
L 229.619111 168.032761 
L 234.897704 165.438988 
L 237.537 164.36132 
L 240.176296 163.523808 
L 242.815592 162.970337 
L 245.454889 162.701732 
L 248.094185 162.659169 
L 252.053129 162.839369 
L 258.65137 163.190405 
L 262.610314 163.156113 
L 265.24961 162.970676 
L 267.888906 162.614447 
L 271.84785 161.783219 
L 274.487147 161.048471 
L 277.126443 160.118927 
L 282.405035 157.871011 
L 287.683628 155.765445 
L 291.642572 154.415945 
L 295.601516 153.263959 
L 299.56046 152.373645 
L 302.199757 152.000771 
L 304.839053 151.818655 
L 308.797997 151.816148 
L 314.076589 152.075316 
L 328.592718 153.004449 
L 337.830255 153.163902 
L 343.108848 152.974587 
L 353.666032 152.427812 
L 358.944625 152.458899 
L 365.542865 152.596853 
L 368.182161 152.460596 
L 370.821457 152.130107 
L 373.460754 151.588242 
L 376.10005 150.805328 
L 378.739346 149.717132 
L 381.378642 148.246588 
L 384.017938 146.321278 
L 386.657235 143.879648 
L 389.296531 140.89009 
L 391.935827 137.37741 
L 394.575123 133.418154 
L 398.534067 126.870257 
L 401.173364 122.264483 
L 401.173364 122.264483 
" clip-path="url(#p28965fa29e)" style="fill: none; stroke: #008000; stroke-width: 1.5; stroke-linecap: round"/>
   </g>
   <g id="line2d_2">
    <path d="M 73.900636 128.852881 
L 79.179229 137.347319 
L 81.818525 141.234469 
L 84.457821 144.696058 
L 87.097117 147.61063 
L 88.416765 148.837857 
L 89.736413 149.905887 
L 91.056062 150.814695 
L 92.37571 151.56663 
L 93.695358 152.1647 
L 95.015006 152.613358 
L 96.334654 152.918442 
L 97.654302 153.087227 
L 98.97395 153.128587 
L 101.613246 152.873611 
L 104.252543 152.263105 
L 106.891839 151.415948 
L 110.850783 149.894518 
L 117.449023 147.057338 
L 124.047264 144.251864 
L 128.006208 142.787478 
L 131.965152 141.598864 
L 135.924097 140.718686 
L 139.883041 140.134171 
L 145.161633 139.640836 
L 154.39917 138.798244 
L 159.677762 138.070131 
L 163.636707 137.291625 
L 168.915299 135.956371 
L 176.833188 133.857311 
L 183.431428 132.42667 
L 188.710021 131.489832 
L 192.668965 130.976113 
L 196.627909 130.746687 
L 200.586853 130.845107 
L 204.545798 131.256439 
L 208.504742 131.953201 
L 212.463686 132.888232 
L 217.742279 134.365413 
L 225.660167 136.815294 
L 232.258408 138.874104 
L 236.217352 139.836956 
L 238.856648 140.258049 
L 241.495944 140.48252 
L 245.454889 140.510164 
L 250.733481 140.197177 
L 258.65137 139.412152 
L 266.569258 138.396622 
L 271.84785 137.475289 
L 277.126443 136.276009 
L 282.405035 134.767915 
L 295.601516 130.662414 
L 298.240812 130.113472 
L 300.880109 129.797458 
L 303.519405 129.731258 
L 306.158701 129.892091 
L 310.117645 130.449877 
L 321.994478 132.552176 
L 324.633774 132.77291 
L 327.27307 132.816065 
L 329.912367 132.655837 
L 332.551663 132.272775 
L 335.190959 131.651506 
L 337.830255 130.787911 
L 340.469551 129.698542 
L 344.428496 127.729522 
L 349.707088 124.748024 
L 356.305328 120.777141 
L 361.583921 117.341455 
L 365.542865 114.445743 
L 368.182161 112.291046 
L 370.821457 109.922243 
L 373.460754 107.314723 
L 376.10005 104.44664 
L 378.739346 101.300853 
L 381.378642 97.864732 
L 384.017938 94.128133 
L 386.657235 90.092273 
L 390.616179 83.517868 
L 394.575123 76.410447 
L 399.853716 66.322789 
L 401.173364 63.742644 
L 401.173364 63.742644 
" clip-path="url(#p28965fa29e)" style="fill: none; stroke: #000080; stroke-width: 1.5; stroke-linecap: round"/>
   </g>
   <g id="patch_3">
    <path d="M 57.537 248.822336 
L 57.537 26.3301 
" style="fill: none; stroke: #ffffff; stroke-width: 1.25; stroke-linejoin: miter; stroke-linecap: square"/>
   </g>
   <g id="patch_4">
    <path d="M 417.537 248.822336 
L 417.537 26.3301 
" style="fill: none; stroke: #ffffff; stroke-width: 1.25; stroke-linejoin: miter; stroke-linecap: square"/>
   </g>
   <g id="patch_5">
    <path d="M 57.537 248.822336 
L 417.537 248.822336 
" style="fill: none; stroke: #ffffff; stroke-width: 1.25; stroke-linejoin: miter; stroke-linecap: square"/>
   </g>
   <g id="patch_6">
    <path d="M 57.537 26.3301 
L 417.537 26.3301 
" style="fill: none; stroke: #ffffff; stroke-width: 1.25; stroke-linejoin: miter; stroke-linecap: square"/>
   </g>
   <g id="text_14">
    <!-- Z1 -->
    <g style="fill: #262626" transform="translate(226.1214 20.3301) scale(0.1728 -0.1728)">
     <defs>
      <path id="DejaVuSans-5a" d="M 359 4666 
L 4025 4666 
L 4025 4184 
L 1075 531 
L 4097 531 
L 4097 0 
L 288 0 
L 288 481 
L 3238 4134 
L 359 4134 
L 359 4666 
z
" transform="scale(0.015625)"/>
     </defs>
     <use xlink:href="#DejaVuSans-5a"/>
     <use xlink:href="#DejaVuSans-31" transform="translate(68.505859 0)"/>
    </g>
   </g>
   <g id="legend_1">
    <g id="patch_7">
     <path d="M 67.617 80.1231 
L 200.81025 80.1231 
Q 203.69025 80.1231 203.69025 77.2431 
L 203.69025 36.4101 
Q 203.69025 33.5301 200.81025 33.5301 
L 67.617 33.5301 
Q 64.737 33.5301 64.737 36.4101 
L 64.737 77.2431 
Q 64.737 80.1231 67.617 80.1231 
z
" style="fill: #eaeaf2; opacity: 0.8; stroke: #cccccc; stroke-linejoin: miter"/>
    </g>
    <g id="line2d_3">
     <path d="M 70.497 45.19185 
L 84.897 45.19185 
L 99.297 45.19185 
" style="fill: none; stroke: #008000; stroke-width: 1.5; stroke-linecap: round"/>
    </g>
    <g id="text_15">
     <!-- Projected ψ₂ -->
     <g style="fill: #262626" transform="translate(110.817 50.23185) scale(0.144 -0.144)">
      <defs>
       <path id="DejaVuSans-50" d="M 1259 4147 
L 1259 2394 
L 2053 2394 
Q 2494 2394 2734 2622 
Q 2975 2850 2975 3272 
Q 2975 3691 2734 3919 
Q 2494 4147 2053 4147 
L 1259 4147 
z
M 628 4666 
L 2053 4666 
Q 2838 4666 3239 4311 
Q 3641 3956 3641 3272 
Q 3641 2581 3239 2228 
Q 2838 1875 2053 1875 
L 1259 1875 
L 1259 0 
L 628 0 
L 628 4666 
z
" transform="scale(0.015625)"/>
       <path id="DejaVuSans-72" d="M 2631 2963 
Q 2534 3019 2420 3045 
Q 2306 3072 2169 3072 
Q 1681 3072 1420 2755 
Q 1159 2438 1159 1844 
L 1159 0 
L 581 0 
L 581 3500 
L 1159 3500 
L 1159 2956 
Q 1341 3275 1631 3429 
Q 1922 3584 2338 3584 
Q 2397 3584 2469 3576 
Q 2541 3569 2628 3553 
L 2631 2963 
z
" transform="scale(0.015625)"/>
       <path id="DejaVuSans-6f" d="M 1959 3097 
Q 1497 3097 1228 2736 
Q 959 2375 959 1747 
Q 959 1119 1226 758 
Q 1494 397 1959 397 
Q 2419 397 2687 759 
Q 2956 1122 2956 1747 
Q 2956 2369 2687 2733 
Q 2419 3097 1959 3097 
z
M 1959 3584 
Q 2709 3584 3137 3096 
Q 3566 2609 3566 1747 
Q 3566 888 3137 398 
Q 2709 -91 1959 -91 
Q 1206 -91 779 398 
Q 353 888 353 1747 
Q 353 2609 779 3096 
Q 1206 3584 1959 3584 
z
" transform="scale(0.015625)"/>
       <path id="DejaVuSans-6a" d="M 603 3500 
L 1178 3500 
L 1178 -63 
Q 1178 -731 923 -1031 
Q 669 -1331 103 -1331 
L -116 -1331 
L -116 -844 
L 38 -844 
Q 366 -844 484 -692 
Q 603 -541 603 -63 
L 603 3500 
z
M 603 4863 
L 1178 4863 
L 1178 4134 
L 603 4134 
L 603 4863 
z
" transform="scale(0.015625)"/>
       <path id="DejaVuSans-63" d="M 3122 3366 
L 3122 2828 
Q 2878 2963 2633 3030 
Q 2388 3097 2138 3097 
Q 1578 3097 1268 2742 
Q 959 2388 959 1747 
Q 959 1106 1268 751 
Q 1578 397 2138 397 
Q 2388 397 2633 464 
Q 2878 531 3122 666 
L 3122 134 
Q 2881 22 2623 -34 
Q 2366 -91 2075 -91 
Q 1284 -91 818 406 
Q 353 903 353 1747 
Q 353 2603 823 3093 
Q 1294 3584 2113 3584 
Q 2378 3584 2631 3529 
Q 2884 3475 3122 3366 
z
" transform="scale(0.015625)"/>
       <path id="DejaVuSans-74" d="M 1172 4494 
L 1172 3500 
L 2356 3500 
L 2356 3053 
L 1172 3053 
L 1172 1153 
Q 1172 725 1289 603 
Q 1406 481 1766 481 
L 2356 481 
L 2356 0 
L 1766 0 
Q 1100 0 847 248 
Q 594 497 594 1153 
L 594 3053 
L 172 3053 
L 172 3500 
L 594 3500 
L 594 4494 
L 1172 4494 
z
" transform="scale(0.015625)"/>
       <path id="DejaVuSans-3c8" d="M 1816 -78 
Q 1094 38 759 341 
Q 350 713 350 1472 
L 350 3500 
L 931 3500 
L 931 1494 
Q 931 922 1197 684 
Q 1428 478 1816 434 
L 1816 3500 
L 2388 3500 
L 2388 438 
Q 2797 481 3006 688 
Q 3272 950 3272 1497 
L 3272 3500 
L 3853 3500 
L 3853 1475 
Q 3853 688 3444 344 
Q 3075 34 2388 -75 
L 2388 -1331 
L 1816 -1331 
L 1816 -78 
z
" transform="scale(0.015625)"/>
       <path id="DejaVuSans-2082" d="M 838 356 
L 2163 356 
L 2163 0 
L 294 0 
L 294 343 
Q 400 440 597 615 
Q 1672 1568 1672 1862 
Q 1672 2068 1509 2194 
Q 1347 2321 1081 2321 
Q 919 2321 728 2266 
Q 538 2212 313 2103 
L 313 2487 
Q 553 2575 761 2618 
Q 969 2662 1147 2662 
Q 1600 2662 1872 2456 
Q 2144 2250 2144 1912 
Q 2144 1478 1109 590 
Q 934 440 838 356 
z
" transform="scale(0.015625)"/>
      </defs>
      <use xlink:href="#DejaVuSans-50"/>
      <use xlink:href="#DejaVuSans-72" transform="translate(58.552734 0)"/>
      <use xlink:href="#DejaVuSans-6f" transform="translate(97.416016 0)"/>
      <use xlink:href="#DejaVuSans-6a" transform="translate(158.597656 0)"/>
      <use xlink:href="#DejaVuSans-65" transform="translate(186.380859 0)"/>
      <use xlink:href="#DejaVuSans-63" transform="translate(247.904297 0)"/>
      <use xlink:href="#DejaVuSans-74" transform="translate(302.884766 0)"/>
      <use xlink:href="#DejaVuSans-65" transform="translate(342.09375 0)"/>
      <use xlink:href="#DejaVuSans-64" transform="translate(403.617188 0)"/>
      <use xlink:href="#DejaVuSans-20" transform="translate(467.09375 0)"/>
      <use xlink:href="#DejaVuSans-3c8" transform="translate(498.880859 0)"/>
      <use xlink:href="#DejaVuSans-2082" transform="translate(564.847656 0)"/>
     </g>
    </g>
    <g id="line2d_4">
     <path d="M 70.497 66.32835 
L 84.897 66.32835 
L 99.297 66.32835 
" style="fill: none; stroke: #000080; stroke-width: 1.5; stroke-linecap: round"/>
    </g>
    <g id="text_16">
     <!-- RG-SI -->
     <g style="fill: #262626" transform="translate(110.817 71.36835) scale(0.144 -0.144)">
      <defs>
       <path id="DejaVuSans-47" d="M 3809 666 
L 3809 1919 
L 2778 1919 
L 2778 2438 
L 4434 2438 
L 4434 434 
Q 4069 175 3628 42 
Q 3188 -91 2688 -91 
Q 1594 -91 976 548 
Q 359 1188 359 2328 
Q 359 3472 976 4111 
Q 1594 4750 2688 4750 
Q 3144 4750 3555 4637 
Q 3966 4525 4313 4306 
L 4313 3634 
Q 3963 3931 3569 4081 
Q 3175 4231 2741 4231 
Q 1884 4231 1454 3753 
Q 1025 3275 1025 2328 
Q 1025 1384 1454 906 
Q 1884 428 2741 428 
Q 3075 428 3337 486 
Q 3600 544 3809 666 
z
" transform="scale(0.015625)"/>
       <path id="DejaVuSans-2d" d="M 313 2009 
L 1997 2009 
L 1997 1497 
L 313 1497 
L 313 2009 
z
" transform="scale(0.015625)"/>
       <path id="DejaVuSans-49" d="M 628 4666 
L 1259 4666 
L 1259 0 
L 628 0 
L 628 4666 
z
" transform="scale(0.015625)"/>
      </defs>
      <use xlink:href="#DejaVuSans-52"/>
      <use xlink:href="#DejaVuSans-47" transform="translate(69.482422 0)"/>
      <use xlink:href="#DejaVuSans-2d" transform="translate(146.972656 0)"/>
      <use xlink:href="#DejaVuSans-53" transform="translate(183.056641 0)"/>
      <use xlink:href="#DejaVuSans-49" transform="translate(246.533203 0)"/>
     </g>
    </g>
   </g>
  </g>
  <g id="axes_2">
   <g id="patch_8">
    <path d="M 424.737 248.822336 
L 784.737 248.822336 
L 784.737 26.3301 
L 424.737 26.3301 
z
" style="fill: #eaeaf2"/>
   </g>
   <g id="matplotlib.axis_3">
    <g id="xtick_6">
     <g id="text_17">
      <!-- 0 -->
      <g style="fill: #262626" transform="translate(435.859812 269.264086) scale(0.144 -0.144)">
       <use xlink:href="#DejaVuSans-30"/>
      </g>
     </g>
    </g>
    <g id="xtick_7">
     <g id="text_18">
      <!-- 5 -->
      <g style="fill: #262626" transform="translate(515.038698 269.264086) scale(0.144 -0.144)">
       <use xlink:href="#DejaVuSans-35"/>
      </g>
     </g>
    </g>
    <g id="xtick_8">
     <g id="text_19">
      <!-- 10 -->
      <g style="fill: #262626" transform="translate(589.636584 269.264086) scale(0.144 -0.144)">
       <use xlink:href="#DejaVuSans-31"/>
       <use xlink:href="#DejaVuSans-30" transform="translate(63.623047 0)"/>
      </g>
     </g>
    </g>
    <g id="xtick_9">
     <g id="text_20">
      <!-- 15 -->
      <g style="fill: #262626" transform="translate(668.815469 269.264086) scale(0.144 -0.144)">
       <use xlink:href="#DejaVuSans-31"/>
       <use xlink:href="#DejaVuSans-35" transform="translate(63.623047 0)"/>
      </g>
     </g>
    </g>
    <g id="xtick_10">
     <g id="text_21">
      <!-- 20 -->
      <g style="fill: #262626" transform="translate(747.994355 269.264086) scale(0.144 -0.144)">
       <use xlink:href="#DejaVuSans-32"/>
       <use xlink:href="#DejaVuSans-30" transform="translate(63.623047 0)"/>
      </g>
     </g>
    </g>
    <g id="text_22">
     <!-- Time [days] -->
     <g style="fill: #262626" transform="translate(562.21875 287.200586) scale(0.144 -0.144)">
      <use xlink:href="#DejaVuSans-54"/>
      <use xlink:href="#DejaVuSans-69" transform="translate(57.958984 0)"/>
      <use xlink:href="#DejaVuSans-6d" transform="translate(85.742188 0)"/>
      <use xlink:href="#DejaVuSans-65" transform="translate(183.154297 0)"/>
      <use xlink:href="#DejaVuSans-20" transform="translate(244.677734 0)"/>
      <use xlink:href="#DejaVuSans-5b" transform="translate(276.464844 0)"/>
      <use xlink:href="#DejaVuSans-64" transform="translate(315.478516 0)"/>
      <use xlink:href="#DejaVuSans-61" transform="translate(378.955078 0)"/>
      <use xlink:href="#DejaVuSans-79" transform="translate(440.234375 0)"/>
      <use xlink:href="#DejaVuSans-73" transform="translate(499.414062 0)"/>
      <use xlink:href="#DejaVuSans-5d" transform="translate(551.513672 0)"/>
     </g>
    </g>
   </g>
   <g id="matplotlib.axis_4">
    <g id="ytick_7"/>
    <g id="ytick_8"/>
    <g id="ytick_9"/>
    <g id="ytick_10"/>
    <g id="ytick_11"/>
    <g id="ytick_12"/>
   </g>
   <g id="FillBetweenPolyCollection_3">
    <defs>
     <path id="m1c48bafaa0" d="M 441.100636 -152.073519 
L 441.100636 -136.678726 
L 442.420284 -131.765742 
L 443.739933 -126.824286 
L 445.059581 -121.872001 
L 446.379229 -116.928097 
L 447.698877 -112.013326 
L 449.018525 -107.149171 
L 450.338173 -102.358936 
L 451.657821 -97.666694 
L 452.977469 -93.097684 
L 454.297117 -88.67849 
L 455.616765 -84.436752 
L 456.936413 -80.402827 
L 458.256062 -76.611661 
L 459.57571 -73.107172 
L 460.895358 -69.949836 
L 462.215006 -67.237066 
L 463.534654 -65.133457 
L 464.854302 -63.900289 
L 466.17395 -64.002757 
L 467.493598 -65.265265 
L 468.813246 -66.863847 
L 470.132894 -68.389319 
L 471.452543 -69.703496 
L 472.772191 -70.778084 
L 474.091839 -71.618865 
L 475.411487 -72.238333 
L 476.731135 -72.652202 
L 478.050783 -72.875929 
L 479.370431 -72.927685 
L 480.690079 -72.825749 
L 482.009727 -72.588411 
L 483.329375 -72.233845 
L 484.649023 -71.781845 
L 485.968672 -71.251232 
L 487.28832 -70.660343 
L 488.607968 -70.0259 
L 489.927616 -69.362426 
L 491.247264 -68.683433 
L 492.566912 -68.000042 
L 493.88656 -67.32084 
L 495.206208 -66.652052 
L 496.525856 -65.99824 
L 497.845504 -65.361751 
L 499.165152 -64.745504 
L 500.484801 -64.154798 
L 501.804449 -63.602944 
L 503.124097 -63.119078 
L 504.443745 -62.753471 
L 505.763393 -62.568369 
L 507.083041 -62.591635 
L 508.402689 -62.78363 
L 509.722337 -63.08173 
L 511.041985 -63.434814 
L 512.361633 -63.805653 
L 513.681282 -64.167495 
L 515.00093 -64.500357 
L 516.320578 -64.789656 
L 517.640226 -65.0243 
L 518.959874 -65.196561 
L 520.279522 -65.301665 
L 521.59917 -65.33706 
L 522.918818 -65.303339 
L 524.238466 -65.204 
L 525.558114 -65.04586 
L 526.877762 -64.839967 
L 528.197411 -64.600991 
L 529.517059 -64.348537 
L 530.836707 -64.10583 
L 532.156355 -63.89857 
L 533.476003 -63.752634 
L 534.795651 -63.689819 
L 536.115299 -63.723129 
L 537.434947 -63.853826 
L 538.754595 -64.070564 
L 540.074243 -64.351833 
L 541.393891 -64.669784 
L 542.71354 -64.994721 
L 544.033188 -65.298555 
L 545.352836 -65.55683 
L 546.672484 -65.749929 
L 547.992132 -65.863287 
L 549.31178 -65.888546 
L 550.631428 -65.822897 
L 551.951076 -65.669803 
L 553.270724 -65.438749 
L 554.590372 -65.144627 
L 555.910021 -64.806809 
L 557.229669 -64.447858 
L 558.549317 -64.09265 
L 559.868965 -63.76741 
L 561.188613 -63.500825 
L 562.508261 -63.324164 
L 563.827909 -63.265704 
L 565.147557 -63.341326 
L 566.467205 -63.545139 
L 567.786853 -63.851838 
L 569.106501 -64.225391 
L 570.42615 -64.628448 
L 571.745798 -65.02729 
L 573.065446 -65.394014 
L 574.385094 -65.707089 
L 575.704742 -65.951137 
L 577.02439 -66.116645 
L 578.344038 -66.199768 
L 579.663686 -66.202131 
L 580.983334 -66.13124 
L 582.302982 -65.99954 
L 583.62263 -65.823777 
L 584.942279 -65.625337 
L 586.261927 -65.427038 
L 587.581575 -65.253524 
L 588.901223 -65.125982 
L 590.220871 -65.061461 
L 591.540519 -65.068951 
L 592.860167 -65.147013 
L 594.179815 -65.286197 
L 595.499463 -65.47071 
L 596.819111 -65.681915 
L 598.13876 -65.90102 
L 599.458408 -66.110703 
L 600.778056 -66.295486 
L 602.097704 -66.441752 
L 603.417352 -66.538012 
L 604.737 -66.575476 
L 606.056648 -66.548767 
L 607.376296 -66.457568 
L 608.695944 -66.306076 
L 610.015592 -66.103421 
L 611.33524 -65.862648 
L 612.654889 -65.601517 
L 613.974537 -65.341636 
L 615.294185 -65.107712 
L 616.613833 -64.924993 
L 617.933481 -64.814512 
L 619.253129 -64.790417 
L 620.572777 -64.855433 
L 621.892425 -65.000622 
L 623.212073 -65.207895 
L 624.531721 -65.45413 
L 625.85137 -65.713989 
L 627.171018 -65.962962 
L 628.490666 -66.178939 
L 629.810314 -66.343215 
L 631.129962 -66.440473 
L 632.44961 -66.460037 
L 633.769258 -66.396353 
L 635.088906 -66.248406 
L 636.408554 -66.019749 
L 637.728202 -65.7188 
L 639.04785 -65.358284 
L 640.367499 -64.956763 
L 641.687147 -64.539806 
L 643.006795 -64.138622 
L 644.326443 -63.789237 
L 645.646091 -63.528444 
L 646.965739 -63.387278 
L 648.285387 -63.382617 
L 649.605035 -63.511974 
L 650.924683 -63.752958 
L 652.244331 -64.070205 
L 653.563979 -64.424346 
L 654.883628 -64.778841 
L 656.203276 -65.102765 
L 657.522924 -65.371812 
L 658.842572 -65.567927 
L 660.16222 -65.679321 
L 661.481868 -65.700523 
L 662.801516 -65.632768 
L 664.121164 -65.483958 
L 665.440812 -65.268242 
L 666.76046 -65.005093 
L 668.080109 -64.718159 
L 669.399757 -64.434382 
L 670.719405 -64.182359 
L 672.039053 -63.989321 
L 673.358701 -63.878001 
L 674.678349 -63.863726 
L 675.997997 -63.949724 
L 677.317645 -64.125161 
L 678.637293 -64.367391 
L 679.956941 -64.648398 
L 681.276589 -64.940964 
L 682.596238 -65.222721 
L 683.915886 -65.475729 
L 685.235534 -65.685782 
L 686.555182 -65.841431 
L 687.87483 -65.933816 
L 689.194478 -65.955715 
L 690.514126 -65.90146 
L 691.833774 -65.76735 
L 693.153422 -65.552463 
L 694.47307 -65.259708 
L 695.792718 -64.895768 
L 697.112367 -64.473876 
L 698.432015 -64.015808 
L 699.751663 -63.554124 
L 701.071311 -63.133121 
L 702.390959 -62.807174 
L 703.710607 -62.634589 
L 705.030255 -62.663743 
L 706.349903 -62.911301 
L 707.669551 -63.350725 
L 708.989199 -63.928233 
L 710.308848 -64.590815 
L 711.628496 -65.301093 
L 712.948144 -66.037122 
L 714.267792 -66.787443 
L 715.58744 -67.54503 
L 716.907088 -68.304021 
L 718.226736 -69.057241 
L 719.546384 -69.796052 
L 720.866032 -70.509864 
L 722.18568 -71.186984 
L 723.505328 -71.814186 
L 724.824977 -72.377229 
L 726.144625 -72.860745 
L 727.464273 -73.248304 
L 728.783921 -73.52344 
L 730.103569 -73.669855 
L 731.423217 -73.671406 
L 732.742865 -73.511457 
L 734.062513 -73.174628 
L 735.382161 -72.647097 
L 736.701809 -71.918767 
L 738.021457 -70.985275 
L 739.341106 -69.849897 
L 740.660754 -68.530867 
L 741.980402 -67.076984 
L 743.30005 -65.608541 
L 744.619698 -64.434348 
L 745.939346 -64.238292 
L 747.258994 -65.502364 
L 748.578642 -67.824456 
L 749.89829 -70.800267 
L 751.217938 -74.227192 
L 752.537587 -78.000633 
L 753.857235 -82.059079 
L 755.176883 -86.359208 
L 756.496531 -90.866791 
L 757.816179 -95.552532 
L 759.135827 -100.387445 
L 760.455475 -105.343173 
L 761.775123 -110.392399 
L 763.094771 -115.509661 
L 764.414419 -120.669837 
L 765.734067 -125.848703 
L 767.053716 -131.022694 
L 768.373364 -136.169735 
L 768.373364 -143.592354 
L 768.373364 -143.592354 
L 767.053716 -138.182895 
L 765.734067 -132.740697 
L 764.414419 -127.28582 
L 763.094771 -121.839631 
L 761.775123 -116.425757 
L 760.455475 -111.069016 
L 759.135827 -105.795363 
L 757.816179 -100.63265 
L 756.496531 -95.611869 
L 755.176883 -90.767936 
L 753.857235 -86.140289 
L 752.537587 -81.776627 
L 751.217938 -77.74048 
L 749.89829 -74.127362 
L 748.578642 -71.091662 
L 747.258994 -68.877382 
L 745.939346 -67.747594 
L 744.619698 -67.710949 
L 743.30005 -68.538743 
L 741.980402 -69.861182 
L 740.660754 -71.34401 
L 739.341106 -72.78727 
L 738.021457 -74.08747 
L 736.701809 -75.194466 
L 735.382161 -76.087257 
L 734.062513 -76.760251 
L 732.742865 -77.216577 
L 731.423217 -77.465861 
L 730.103569 -77.523045 
L 728.783921 -77.406014 
L 727.464273 -77.135095 
L 726.144625 -76.731307 
L 724.824977 -76.215133 
L 723.505328 -75.605305 
L 722.18568 -74.920562 
L 720.866032 -74.178524 
L 719.546384 -73.396679 
L 718.226736 -72.592267 
L 716.907088 -71.781636 
L 715.58744 -70.981001 
L 714.267792 -70.20771 
L 712.948144 -69.480865 
L 711.628496 -68.820786 
L 710.308848 -68.246532 
L 708.989199 -67.772723 
L 707.669551 -67.407145 
L 706.349903 -67.150762 
L 705.030255 -67.00029 
L 703.710607 -66.951705 
L 702.390959 -66.99849 
L 701.071311 -67.128211 
L 699.751663 -67.323991 
L 698.432015 -67.568297 
L 697.112367 -67.843478 
L 695.792718 -68.131861 
L 694.47307 -68.41572 
L 693.153422 -68.677787 
L 691.833774 -68.902406 
L 690.514126 -69.077674 
L 689.194478 -69.194892 
L 687.87483 -69.249498 
L 686.555182 -69.241839 
L 685.235534 -69.177257 
L 683.915886 -69.066282 
L 682.596238 -68.923253 
L 681.276589 -68.765879 
L 679.956941 -68.613746 
L 678.637293 -68.485858 
L 677.317645 -68.39787 
L 675.997997 -68.360118 
L 674.678349 -68.377313 
L 673.358701 -68.448804 
L 672.039053 -68.568759 
L 670.719405 -68.725323 
L 669.399757 -68.902251 
L 668.080109 -69.081853 
L 666.76046 -69.24771 
L 665.440812 -69.385904 
L 664.121164 -69.485894 
L 662.801516 -69.540544 
L 661.481868 -69.545978 
L 660.16222 -69.500926 
L 658.842572 -69.406297 
L 657.522924 -69.265317 
L 656.203276 -69.084033 
L 654.883628 -68.871597 
L 653.563979 -68.640563 
L 652.244331 -68.407189 
L 650.924683 -68.190152 
L 649.605035 -68.00911 
L 648.285387 -67.882522 
L 646.965739 -67.825389 
L 645.646091 -67.846021 
L 644.326443 -67.944558 
L 643.006795 -68.113328 
L 641.687147 -68.337604 
L 640.367499 -68.59919 
L 639.04785 -68.878571 
L 637.728202 -69.156766 
L 636.408554 -69.417032 
L 635.088906 -69.645782 
L 633.769258 -69.832351 
L 632.44961 -69.96946 
L 631.129962 -70.054167 
L 629.810314 -70.086668 
L 628.490666 -70.070633 
L 627.171018 -70.012747 
L 625.85137 -69.922491 
L 624.531721 -69.811376 
L 623.212073 -69.692376 
L 621.892425 -69.578184 
L 620.572777 -69.479718 
L 619.253129 -69.404871 
L 617.933481 -69.357523 
L 616.613833 -69.337596 
L 615.294185 -69.341965 
L 613.974537 -69.364618 
L 612.654889 -69.397131 
L 611.33524 -69.429045 
L 610.015592 -69.450324 
L 608.695944 -69.452196 
L 607.376296 -69.427389 
L 606.056648 -69.372405 
L 604.737 -69.286339 
L 603.417352 -69.17108 
L 602.097704 -69.032082 
L 600.778056 -68.879199 
L 599.458408 -68.726428 
L 598.13876 -68.590221 
L 596.819111 -68.488768 
L 595.499463 -68.43835 
L 594.179815 -68.450566 
L 592.860167 -68.530507 
L 591.540519 -68.675871 
L 590.220871 -68.877407 
L 588.901223 -69.119212 
L 587.581575 -69.382033 
L 586.261927 -69.645617 
L 584.942279 -69.890928 
L 583.62263 -70.101006 
L 582.302982 -70.262187 
L 580.983334 -70.36311 
L 579.663686 -70.395391 
L 578.344038 -70.353966 
L 577.02439 -70.237559 
L 575.704742 -70.048327 
L 574.385094 -69.792198 
L 573.065446 -69.478628 
L 571.745798 -69.119747 
L 570.42615 -68.731816 
L 569.106501 -68.334848 
L 567.786853 -67.951966 
L 566.467205 -67.609323 
L 565.147557 -67.332206 
L 563.827909 -67.143295 
L 562.508261 -67.058369 
L 561.188613 -67.082919 
L 559.868965 -67.208838 
L 558.549317 -67.414458 
L 557.229669 -67.671102 
L 555.910021 -67.949098 
L 554.590372 -68.223002 
L 553.270724 -68.472277 
L 551.951076 -68.683514 
L 550.631428 -68.848363 
L 549.31178 -68.962223 
L 547.992132 -69.023976 
L 546.672484 -69.035242 
L 545.352836 -68.999853 
L 544.033188 -68.923613 
L 542.71354 -68.815476 
L 541.393891 -68.687038 
L 540.074243 -68.552156 
L 538.754595 -68.425118 
L 537.434947 -68.321193 
L 536.115299 -68.253651 
L 534.795651 -68.231113 
L 533.476003 -68.257794 
L 532.156355 -68.330638 
L 530.836707 -68.440846 
L 529.517059 -68.575671 
L 528.197411 -68.719647 
L 526.877762 -68.855781 
L 525.558114 -68.968991 
L 524.238466 -69.04537 
L 522.918818 -69.072342 
L 521.59917 -69.042222 
L 520.279522 -68.950662 
L 518.959874 -68.797457 
L 517.640226 -68.586916 
L 516.320578 -68.327545 
L 515.00093 -68.031868 
L 513.681282 -67.717812 
L 512.361633 -67.407439 
L 511.041985 -67.127177 
L 509.722337 -66.905415 
L 508.402689 -66.769231 
L 507.083041 -66.738631 
L 505.763393 -66.820678 
L 504.443745 -67.016622 
L 503.124097 -67.337844 
L 501.804449 -67.795953 
L 500.484801 -68.388433 
L 499.165152 -69.099358 
L 497.845504 -69.906088 
L 496.525856 -70.782587 
L 495.206208 -71.702438 
L 493.88656 -72.642338 
L 492.566912 -73.579931 
L 491.247264 -74.493841 
L 489.927616 -75.364447 
L 488.607968 -76.172697 
L 487.28832 -76.898913 
L 485.968672 -77.523266 
L 484.649023 -78.025816 
L 483.329375 -78.386747 
L 482.009727 -78.587063 
L 480.690079 -78.607761 
L 479.370431 -78.431518 
L 478.050783 -78.043415 
L 476.731135 -77.432585 
L 475.411487 -76.593248 
L 474.091839 -75.528539 
L 472.772191 -74.255961 
L 471.452543 -72.816956 
L 470.132894 -71.29155 
L 468.813246 -69.813443 
L 467.493598 -68.586588 
L 466.17395 -67.905365 
L 464.854302 -68.09564 
L 463.534654 -69.512915 
L 462.215006 -72.10367 
L 460.895358 -75.497621 
L 459.57571 -79.431216 
L 458.256062 -83.753041 
L 456.936413 -88.37172 
L 455.616765 -93.226068 
L 454.297117 -98.269677 
L 452.977469 -103.463996 
L 451.657821 -108.774578 
L 450.338173 -114.169989 
L 449.018525 -119.620908 
L 447.698877 -125.099865 
L 446.379229 -130.580732 
L 445.059581 -136.039117 
L 443.739933 -141.453727 
L 442.420284 -146.804695 
L 441.100636 -152.073519 
z
" style="stroke: #008000; stroke-opacity: 0.2"/>
    </defs>
    <g clip-path="url(#pb73acaa149)">
     <use xlink:href="#m1c48bafaa0" x="0" y="297.395336" style="fill: #008000; fill-opacity: 0.2; stroke: #008000; stroke-opacity: 0.2"/>
    </g>
   </g>
   <g id="FillBetweenPolyCollection_4">
    <defs>
     <path id="m6eefb91754" d="M 441.100636 -145.362828 
L 441.100636 -127.49972 
L 442.420284 -122.284169 
L 443.739933 -117.034015 
L 445.059581 -111.774364 
L 446.379229 -106.536039 
L 447.698877 -101.357039 
L 449.018525 -96.28506 
L 450.338173 -91.381615 
L 451.657821 -86.728833 
L 452.977469 -82.441928 
L 454.297117 -78.688301 
L 455.616765 -75.71133 
L 456.936413 -73.81474 
L 458.256062 -73.213241 
L 459.57571 -73.814222 
L 460.895358 -75.256116 
L 462.215006 -77.156641 
L 463.534654 -79.233911 
L 464.854302 -81.298073 
L 466.17395 -83.22464 
L 467.493598 -84.938486 
L 468.813246 -86.400328 
L 470.132894 -87.595035 
L 471.452543 -88.520603 
L 472.772191 -89.182257 
L 474.091839 -89.588789 
L 475.411487 -89.750209 
L 476.731135 -89.680657 
L 478.050783 -89.39422 
L 479.370431 -88.909332 
L 480.690079 -88.244925 
L 482.009727 -87.421726 
L 483.329375 -86.462247 
L 484.649023 -85.394263 
L 485.968672 -84.247711 
L 487.28832 -83.056584 
L 488.607968 -81.858733 
L 489.927616 -80.695453 
L 491.247264 -79.612553 
L 492.566912 -78.658007 
L 493.88656 -77.879767 
L 495.206208 -77.32256 
L 496.525856 -77.021935 
L 497.845504 -76.997615 
L 499.165152 -77.249925 
L 500.484801 -77.760675 
L 501.804449 -78.497559 
L 503.124097 -79.417289 
L 504.443745 -80.471878 
L 505.763393 -81.613028 
L 507.083041 -82.795308 
L 508.402689 -83.977724 
L 509.722337 -85.125179 
L 511.041985 -86.206776 
L 512.361633 -87.196438 
L 513.681282 -88.071898 
L 515.00093 -88.813903 
L 516.320578 -89.407581 
L 517.640226 -89.841334 
L 518.959874 -90.106115 
L 520.279522 -90.196237 
L 521.59917 -90.109226 
L 522.918818 -89.845203 
L 524.238466 -89.407227 
L 525.558114 -88.802703 
L 526.877762 -88.042056 
L 528.197411 -87.139223 
L 529.517059 -86.111834 
L 530.836707 -84.980599 
L 532.156355 -83.769841 
L 533.476003 -82.507322 
L 534.795651 -81.223424 
L 536.115299 -79.951236 
L 537.434947 -78.725937 
L 538.754595 -77.584501 
L 540.074243 -76.564953 
L 541.393891 -75.704647 
L 542.71354 -75.040616 
L 544.033188 -74.610227 
L 545.352836 -74.449521 
L 546.672484 -74.586565 
L 547.992132 -75.025582 
L 549.31178 -75.7354 
L 550.631428 -76.654568 
L 551.951076 -77.709358 
L 553.270724 -78.831157 
L 554.590372 -79.965853 
L 555.910021 -81.075529 
L 557.229669 -82.137109 
L 558.549317 -83.137422 
L 559.868965 -84.069523 
L 561.188613 -84.930589 
L 562.508261 -85.72006 
L 563.827909 -86.439216 
L 565.147557 -87.08937 
L 566.467205 -87.671677 
L 567.786853 -88.186643 
L 569.106501 -88.634558 
L 570.42615 -89.015629 
L 571.745798 -89.329839 
L 573.065446 -89.577235 
L 574.385094 -89.757131 
L 575.704742 -89.867784 
L 577.02439 -89.908339 
L 578.344038 -89.878686 
L 579.663686 -89.778611 
L 580.983334 -89.607539 
L 582.302982 -89.364347 
L 583.62263 -89.047898 
L 584.942279 -88.656831 
L 586.261927 -88.191456 
L 587.581575 -87.652071 
L 588.901223 -87.03968 
L 590.220871 -86.354887 
L 591.540519 -85.598396 
L 592.860167 -84.771798 
L 594.179815 -83.878304 
L 595.499463 -82.923323 
L 596.819111 -81.914712 
L 598.13876 -80.863341 
L 599.458408 -79.783645 
L 600.778056 -78.694858 
L 602.097704 -77.622126 
L 603.417352 -76.597404 
L 604.737 -75.659819 
L 606.056648 -74.854554 
L 607.376296 -74.229792 
L 608.695944 -73.831676 
L 610.015592 -73.698376 
L 611.33524 -73.856804 
L 612.654889 -74.319343 
L 613.974537 -75.082349 
L 615.294185 -76.120925 
L 616.613833 -77.38891 
L 617.933481 -78.828632 
L 619.253129 -80.378 
L 620.572777 -81.978872 
L 621.892425 -83.579839 
L 623.212073 -85.136556 
L 624.531721 -86.611354 
L 625.85137 -87.973205 
L 627.171018 -89.195414 
L 628.490666 -90.256303 
L 629.810314 -91.1377 
L 631.129962 -91.825718 
L 632.44961 -92.31161 
L 633.769258 -92.591035 
L 635.088906 -92.662547 
L 636.408554 -92.528689 
L 637.728202 -92.19613 
L 639.04785 -91.673217 
L 640.367499 -90.972667 
L 641.687147 -90.111915 
L 643.006795 -89.110857 
L 644.326443 -87.992779 
L 645.646091 -86.783112 
L 646.965739 -85.510616 
L 648.285387 -84.207724 
L 649.605035 -82.912225 
L 650.924683 -81.667789 
L 652.244331 -80.522221 
L 653.563979 -79.526059 
L 654.883628 -78.731303 
L 656.203276 -78.184959 
L 657.522924 -77.922438 
L 658.842572 -77.958308 
L 660.16222 -78.283384 
L 661.481868 -78.867839 
L 662.801516 -79.66986 
L 664.121164 -80.643819 
L 665.440812 -81.746217 
L 666.76046 -82.937441 
L 668.080109 -84.182921 
L 669.399757 -85.453541 
L 670.719405 -86.724942 
L 672.039053 -87.976248 
L 673.358701 -89.189028 
L 674.678349 -90.346489 
L 675.997997 -91.433246 
L 677.317645 -92.436286 
L 678.637293 -93.345257 
L 679.956941 -94.151526 
L 681.276589 -94.847442 
L 682.596238 -95.427254 
L 683.915886 -95.887284 
L 685.235534 -96.226948 
L 686.555182 -96.44984 
L 687.87483 -96.561726 
L 689.194478 -96.570361 
L 690.514126 -96.486519 
L 691.833774 -96.323924 
L 693.153422 -96.099439 
L 694.47307 -95.832252 
L 695.792718 -95.541058 
L 697.112367 -95.243171 
L 698.432015 -94.955677 
L 699.751663 -94.694185 
L 701.071311 -94.474147 
L 702.390959 -94.311162 
L 703.710607 -94.221036 
L 705.030255 -94.221078 
L 706.349903 -94.333027 
L 707.669551 -94.582196 
L 708.989199 -94.996083 
L 710.308848 -95.601222 
L 711.628496 -96.418154 
L 712.948144 -97.457428 
L 714.267792 -98.717735 
L 715.58744 -100.187083 
L 716.907088 -101.843841 
L 718.226736 -103.660791 
L 719.546384 -105.607877 
L 720.866032 -107.654519 
L 722.18568 -109.771141 
L 723.505328 -111.930164 
L 724.824977 -114.106174 
L 726.144625 -116.27671 
L 727.464273 -118.421839 
L 728.783921 -120.524233 
L 730.103569 -122.568095 
L 731.423217 -124.539962 
L 732.742865 -126.429292 
L 734.062513 -128.227216 
L 735.382161 -129.927937 
L 736.701809 -131.527818 
L 738.021457 -133.025359 
L 739.341106 -134.422327 
L 740.660754 -135.722661 
L 741.980402 -136.930967 
L 743.30005 -138.053163 
L 744.619698 -139.096239 
L 745.939346 -140.067214 
L 747.258994 -140.972216 
L 748.578642 -141.816691 
L 749.89829 -142.605079 
L 751.217938 -143.340402 
L 752.537587 -144.025544 
L 753.857235 -144.665127 
L 755.176883 -145.268505 
L 756.496531 -145.851253 
L 757.816179 -146.43666 
L 759.135827 -147.054588 
L 760.455475 -147.740872 
L 761.775123 -148.536904 
L 763.094771 -149.482615 
L 764.414419 -150.614004 
L 765.734067 -151.959393 
L 767.053716 -153.537752 
L 768.373364 -155.356456 
L 768.373364 -197.649165 
L 768.373364 -197.649165 
L 767.053716 -195.135974 
L 765.734067 -192.685226 
L 764.414419 -190.325104 
L 763.094771 -188.086363 
L 761.775123 -186.000579 
L 760.455475 -184.097597 
L 759.135827 -182.40317 
L 757.816179 -180.935085 
L 756.496531 -179.700764 
L 755.176883 -178.695152 
L 753.857235 -177.900283 
L 752.537587 -177.28527 
L 751.217938 -176.810595 
L 749.89829 -176.430436 
L 748.578642 -176.097248 
L 747.258994 -175.764889 
L 745.939346 -175.389315 
L 744.619698 -174.931063 
L 743.30005 -174.356182 
L 741.980402 -173.637809 
L 740.660754 -172.754403 
L 739.341106 -171.690103 
L 738.021457 -170.434765 
L 736.701809 -168.984325 
L 735.382161 -167.339411 
L 734.062513 -165.503324 
L 732.742865 -163.484153 
L 731.423217 -161.293786 
L 730.103569 -158.947749 
L 728.783921 -156.463573 
L 727.464273 -153.860153 
L 726.144625 -151.158313 
L 724.824977 -148.380198 
L 723.505328 -145.549725 
L 722.18568 -142.690023 
L 720.866032 -139.824939 
L 719.546384 -136.978779 
L 718.226736 -134.176659 
L 716.907088 -131.443829 
L 715.58744 -128.804972 
L 714.267792 -126.286823 
L 712.948144 -123.917637 
L 711.628496 -121.727606 
L 710.308848 -119.748881 
L 708.989199 -118.013837 
L 707.669551 -116.552176 
L 706.349903 -115.386197 
L 705.030255 -114.527267 
L 703.710607 -113.973368 
L 702.390959 -113.707585 
L 701.071311 -113.699641 
L 699.751663 -113.908752 
L 698.432015 -114.287256 
L 697.112367 -114.784841 
L 695.792718 -115.35195 
L 694.47307 -115.942112 
L 693.153422 -116.512944 
L 691.833774 -117.027395 
L 690.514126 -117.452849 
L 689.194478 -117.761703 
L 687.87483 -117.932061 
L 686.555182 -117.946448 
L 685.235534 -117.791568 
L 683.915886 -117.458744 
L 682.596238 -116.942397 
L 681.276589 -116.24103 
L 679.956941 -115.356391 
L 678.637293 -114.293188 
L 677.317645 -113.059251 
L 675.997997 -111.665665 
L 674.678349 -110.126457 
L 673.358701 -108.458958 
L 672.039053 -106.68363 
L 670.719405 -104.824361 
L 669.399757 -102.908458 
L 668.080109 -100.967047 
L 666.76046 -99.035925 
L 665.440812 -97.155197 
L 664.121164 -95.36921 
L 662.801516 -93.725539 
L 661.481868 -92.274023 
L 660.16222 -91.064012 
L 658.842572 -90.139868 
L 657.522924 -89.537133 
L 656.203276 -89.279361 
L 654.883628 -89.37394 
L 653.563979 -89.809959 
L 652.244331 -90.558307 
L 650.924683 -91.574512 
L 649.605035 -92.803285 
L 648.285387 -94.184132 
L 646.965739 -95.6566 
L 645.646091 -97.162453 
L 644.326443 -98.648098 
L 643.006795 -100.065535 
L 641.687147 -101.372432 
L 640.367499 -102.532213 
L 639.04785 -103.513957 
L 637.728202 -104.292456 
L 636.408554 -104.847774 
L 635.088906 -105.165788 
L 633.769258 -105.237765 
L 632.44961 -105.059956 
L 631.129962 -104.633681 
L 629.810314 -103.965532 
L 628.490666 -103.066547 
L 627.171018 -101.952682 
L 625.85137 -100.644709 
L 624.531721 -99.168303 
L 623.212073 -97.554737 
L 621.892425 -95.840237 
L 620.572777 -94.066284 
L 619.253129 -92.279663 
L 617.933481 -90.532951 
L 616.613833 -88.884202 
L 615.294185 -87.397362 
L 613.974537 -86.141645 
L 612.654889 -85.188005 
L 611.33524 -84.599446 
L 610.015592 -84.416212 
L 608.695944 -84.644925 
L 607.376296 -85.257435 
L 606.056648 -86.20059 
L 604.737 -87.409117 
L 603.417352 -88.816152 
L 602.097704 -90.360099 
L 600.778056 -91.987765 
L 599.458408 -93.654761 
L 598.13876 -95.324441 
L 596.819111 -96.96796 
L 595.499463 -98.561918 
L 594.179815 -100.08723 
L 592.860167 -101.528156 
L 591.540519 -102.872032 
L 590.220871 -104.108879 
L 588.901223 -105.230063 
L 587.581575 -106.228632 
L 586.261927 -107.098762 
L 584.942279 -107.834386 
L 583.62263 -108.432128 
L 582.302982 -108.888284 
L 580.983334 -109.201017 
L 579.663686 -109.368293 
L 578.344038 -109.389027 
L 577.02439 -109.263386 
L 575.704742 -108.992072 
L 574.385094 -108.576423 
L 573.065446 -108.018269 
L 571.745798 -107.320774 
L 570.42615 -106.487744 
L 569.106501 -105.524126 
L 567.786853 -104.435898 
L 566.467205 -103.230802 
L 565.147557 -101.917847 
L 563.827909 -100.508488 
L 562.508261 -99.016796 
L 561.188613 -97.460282 
L 559.868965 -95.860413 
L 558.549317 -94.243518 
L 557.229669 -92.641361 
L 555.910021 -91.09124 
L 554.590372 -89.635714 
L 553.270724 -88.320152 
L 551.951076 -87.19148 
L 550.631428 -86.295581 
L 549.31178 -85.675455 
L 547.992132 -85.370781 
L 546.672484 -85.416644 
L 545.352836 -85.840945 
L 544.033188 -86.656 
L 542.71354 -87.849741 
L 541.393891 -89.382276 
L 540.074243 -91.192326 
L 538.754595 -93.209478 
L 537.434947 -95.362632 
L 536.115299 -97.585332 
L 534.795651 -99.818666 
L 533.476003 -102.010957 
L 532.156355 -104.115973 
L 530.836707 -106.093437 
L 529.517059 -107.909085 
L 528.197411 -109.533766 
L 526.877762 -110.942721 
L 525.558114 -112.115746 
L 524.238466 -113.037718 
L 522.918818 -113.698 
L 521.59917 -114.091038 
L 520.279522 -114.214683 
L 518.959874 -114.070775 
L 517.640226 -113.665764 
L 516.320578 -113.009623 
L 515.00093 -112.116652 
L 513.681282 -111.005894 
L 512.361633 -109.699929 
L 511.041985 -108.225972 
L 509.722337 -106.613416 
L 508.402689 -104.894376 
L 507.083041 -103.105011 
L 505.763393 -101.284357 
L 504.443745 -99.47407 
L 503.124097 -97.719642 
L 501.804449 -96.069408 
L 500.484801 -94.573729 
L 499.165152 -93.283255 
L 497.845504 -92.243739 
L 496.525856 -91.492381 
L 495.206208 -91.052389 
L 493.88656 -90.930576 
L 492.566912 -91.114838 
L 491.247264 -91.574914 
L 489.927616 -92.2674 
L 488.607968 -93.1394 
L 487.28832 -94.132724 
L 485.968672 -95.189432 
L 484.649023 -96.254003 
L 483.329375 -97.275073 
L 482.009727 -98.20655 
L 480.690079 -99.007112 
L 479.370431 -99.640979 
L 478.050783 -100.0783 
L 476.731135 -100.296274 
L 475.411487 -100.279819 
L 474.091839 -100.022102 
L 472.772191 -99.52682 
L 471.452543 -98.809389 
L 470.132894 -97.89967 
L 468.813246 -96.843349 
L 467.493598 -95.703184 
L 466.17395 -94.558501 
L 464.854302 -93.502602 
L 463.534654 -92.641848 
L 462.215006 -92.093672 
L 460.895358 -91.98177 
L 459.57571 -92.416924 
L 458.256062 -93.465205 
L 456.936413 -95.133645 
L 455.616765 -97.393443 
L 454.297117 -100.203695 
L 452.977469 -103.511292 
L 451.657821 -107.250531 
L 450.338173 -111.351664 
L 449.018525 -115.748361 
L 447.698877 -120.380168 
L 446.379229 -125.19291 
L 445.059581 -130.138207 
L 443.739933 -135.173204 
L 442.420284 -140.259616 
L 441.100636 -145.362828 
z
" style="stroke: #000080; stroke-opacity: 0.2"/>
    </defs>
    <g clip-path="url(#pb73acaa149)">
     <use xlink:href="#m6eefb91754" x="0" y="297.395336" style="fill: #000080; fill-opacity: 0.2; stroke: #000080; stroke-opacity: 0.2"/>
    </g>
   </g>
   <g id="line2d_5">
    <path d="M 441.100636 153.019213 
L 447.698877 178.83874 
L 452.977469 199.114496 
L 455.616765 208.563926 
L 458.256062 217.212985 
L 459.57571 221.126142 
L 460.895358 224.671608 
L 462.215006 227.724968 
L 463.534654 230.07215 
L 464.854302 231.397371 
L 466.17395 231.441275 
L 467.493598 230.469409 
L 472.772191 224.878314 
L 474.091839 223.821634 
L 475.411487 222.979546 
L 476.731135 222.352942 
L 478.050783 221.935664 
L 479.370431 221.715734 
L 480.690079 221.678581 
L 482.009727 221.807599 
L 483.329375 222.08504 
L 485.968672 223.008087 
L 488.607968 224.296037 
L 492.566912 226.605349 
L 497.845504 229.761417 
L 500.484801 231.12372 
L 503.124097 232.166875 
L 504.443745 232.510289 
L 505.763393 232.700812 
L 507.083041 232.730203 
L 509.722337 232.401763 
L 513.681282 231.452683 
L 517.640226 230.589728 
L 520.279522 230.269172 
L 522.918818 230.207496 
L 525.558114 230.38791 
L 534.795651 231.43487 
L 537.434947 231.307826 
L 541.393891 230.716925 
L 545.352836 230.116995 
L 547.992132 229.951705 
L 550.631428 230.059706 
L 553.270724 230.439823 
L 557.229669 231.335856 
L 559.868965 231.907212 
L 562.508261 232.204069 
L 563.827909 232.190836 
L 566.467205 231.818105 
L 569.106501 231.115216 
L 573.065446 229.959015 
L 575.704742 229.395604 
L 578.344038 229.118469 
L 580.983334 229.148161 
L 583.62263 229.432945 
L 590.220871 230.425902 
L 592.860167 230.556576 
L 595.499463 230.440806 
L 600.778056 229.807994 
L 604.737 229.464429 
L 607.376296 229.452857 
L 611.33524 229.749489 
L 616.613833 230.264041 
L 619.253129 230.297692 
L 621.892425 230.105933 
L 629.810314 229.180395 
L 632.44961 229.180588 
L 635.088906 229.448242 
L 637.728202 229.957553 
L 644.326443 231.528439 
L 646.965739 231.789003 
L 649.605035 231.634794 
L 652.244331 231.156639 
L 657.522924 230.076771 
L 660.16222 229.805212 
L 662.801516 229.80868 
L 665.440812 230.068263 
L 673.358701 231.231933 
L 675.997997 231.240415 
L 678.637293 230.968711 
L 686.555182 229.853701 
L 689.194478 229.820032 
L 691.833774 230.060458 
L 694.47307 230.557622 
L 702.390959 232.492504 
L 703.710607 232.602189 
L 705.030255 232.563319 
L 706.349903 232.364304 
L 707.669551 232.016401 
L 710.308848 230.976662 
L 712.948144 229.636342 
L 718.226736 226.570582 
L 722.18568 224.341563 
L 724.824977 223.099155 
L 727.464273 222.203637 
L 728.783921 221.930609 
L 730.103569 221.798886 
L 731.423217 221.826702 
L 732.742865 222.031319 
L 734.062513 222.427897 
L 735.382161 223.028159 
L 736.701809 223.83872 
L 738.021457 224.858963 
L 739.341106 226.076753 
L 743.30005 230.321694 
L 744.619698 231.322687 
L 745.939346 231.402393 
L 747.258994 230.205463 
L 748.578642 227.937277 
L 749.89829 224.931521 
L 751.217938 221.4115 
L 753.857235 213.295652 
L 756.496531 204.156005 
L 760.455475 189.189241 
L 767.053716 162.792541 
L 768.373364 157.514291 
L 768.373364 157.514291 
" clip-path="url(#pb73acaa149)" style="fill: none; stroke: #008000; stroke-width: 1.5; stroke-linecap: round"/>
   </g>
   <g id="line2d_6">
    <path d="M 441.100636 160.964062 
L 447.698877 186.526732 
L 450.338173 196.028697 
L 452.977469 204.418726 
L 454.297117 207.949338 
L 455.616765 210.842949 
L 456.936413 212.921144 
L 458.256062 214.056113 
L 459.57571 214.279763 
L 460.895358 213.776393 
L 462.215006 212.77018 
L 464.854302 209.994999 
L 467.493598 207.074501 
L 468.813246 205.773497 
L 470.132894 204.647984 
L 471.452543 203.73034 
L 472.772191 203.040798 
L 474.091839 202.589891 
L 475.411487 202.380322 
L 476.731135 202.406871 
L 478.050783 202.659076 
L 479.370431 203.120181 
L 480.690079 203.769317 
L 482.009727 204.581198 
L 484.649023 206.571203 
L 489.927616 210.913909 
L 491.247264 211.801602 
L 492.566912 212.508913 
L 493.88656 212.990165 
L 495.206208 213.207862 
L 496.525856 213.138178 
L 497.845504 212.774659 
L 499.165152 212.128746 
L 500.484801 211.228134 
L 501.804449 210.111852 
L 504.443745 207.422362 
L 511.041985 200.178962 
L 513.681282 197.85644 
L 515.00093 196.930059 
L 516.320578 196.186734 
L 517.640226 195.641787 
L 518.959874 195.306891 
L 520.279522 195.189876 
L 521.59917 195.295204 
L 522.918818 195.623735 
L 524.238466 196.172863 
L 525.558114 196.936111 
L 526.877762 197.902947 
L 528.197411 199.058841 
L 530.836707 201.858318 
L 533.476003 205.136197 
L 538.754595 211.998346 
L 540.074243 213.516696 
L 541.393891 214.851874 
L 542.71354 215.950157 
L 544.033188 216.762222 
L 545.352836 217.250103 
L 546.672484 217.393732 
L 547.992132 217.197154 
L 549.31178 216.689909 
L 550.631428 215.920261 
L 551.951076 214.944917 
L 554.590372 212.594553 
L 562.508261 205.026908 
L 565.147557 202.891727 
L 567.786853 201.084065 
L 570.42615 199.643649 
L 573.065446 198.597584 
L 575.704742 197.965408 
L 578.344038 197.761479 
L 580.983334 197.991058 
L 583.62263 198.655323 
L 586.261927 199.750227 
L 588.901223 201.260464 
L 591.540519 203.160122 
L 594.179815 205.412569 
L 596.819111 207.954 
L 603.417352 214.688558 
L 604.737 215.860868 
L 606.056648 216.867764 
L 607.376296 217.651722 
L 608.695944 218.157036 
L 610.015592 218.338042 
L 611.33524 218.167211 
L 612.654889 217.641662 
L 613.974537 216.783339 
L 615.294185 215.636193 
L 616.613833 214.25878 
L 619.253129 211.066505 
L 623.212073 206.049689 
L 625.85137 203.086379 
L 627.171018 201.821288 
L 628.490666 200.733911 
L 629.810314 199.84372 
L 631.129962 199.165636 
L 632.44961 198.709553 
L 633.769258 198.480936 
L 635.088906 198.481168 
L 636.408554 198.707104 
L 637.728202 199.151043 
L 639.04785 199.801749 
L 640.367499 200.642896 
L 641.687147 201.653162 
L 644.326443 204.074897 
L 650.924683 210.774185 
L 652.244331 211.855072 
L 653.563979 212.727327 
L 654.883628 213.342715 
L 656.203276 213.663176 
L 657.522924 213.665551 
L 658.842572 213.346248 
L 660.16222 212.721638 
L 661.481868 211.824405 
L 662.801516 210.697637 
L 665.440812 207.944629 
L 669.399757 203.214337 
L 673.358701 198.571343 
L 675.997997 195.845881 
L 678.637293 193.576113 
L 679.956941 192.641377 
L 681.276589 191.8511 
L 682.596238 191.21051 
L 683.915886 190.722322 
L 685.235534 190.386078 
L 686.555182 190.197192 
L 687.87483 190.148442 
L 689.194478 190.229304 
L 691.833774 190.719677 
L 694.47307 191.508154 
L 698.432015 192.773869 
L 701.071311 193.308442 
L 702.390959 193.385963 
L 703.710607 193.298134 
L 705.030255 193.021163 
L 706.349903 192.535724 
L 707.669551 191.82815 
L 708.989199 190.890376 
L 710.308848 189.720285 
L 711.628496 188.322456 
L 712.948144 186.707804 
L 715.58744 182.899308 
L 718.226736 178.476611 
L 722.18568 171.164754 
L 727.464273 161.25434 
L 730.103569 156.637414 
L 732.742865 152.438614 
L 735.382161 148.761662 
L 738.021457 145.665274 
L 740.660754 143.156804 
L 743.30005 141.190663 
L 745.939346 139.667072 
L 748.578642 138.438366 
L 753.857235 136.112631 
L 756.496531 134.619328 
L 759.135827 132.666457 
L 760.455475 131.476102 
L 761.775123 130.126594 
L 763.094771 128.610847 
L 765.734067 125.073026 
L 768.373364 120.892526 
L 768.373364 120.892526 
" clip-path="url(#pb73acaa149)" style="fill: none; stroke: #000080; stroke-width: 1.5; stroke-linecap: round"/>
   </g>
   <g id="patch_9">
    <path d="M 424.737 248.822336 
L 424.737 26.3301 
" style="fill: none; stroke: #ffffff; stroke-width: 1.25; stroke-linejoin: miter; stroke-linecap: square"/>
   </g>
   <g id="patch_10">
    <path d="M 784.737 248.822336 
L 784.737 26.3301 
" style="fill: none; stroke: #ffffff; stroke-width: 1.25; stroke-linejoin: miter; stroke-linecap: square"/>
   </g>
   <g id="patch_11">
    <path d="M 424.737 248.822336 
L 784.737 248.822336 
" style="fill: none; stroke: #ffffff; stroke-width: 1.25; stroke-linejoin: miter; stroke-linecap: square"/>
   </g>
   <g id="patch_12">
    <path d="M 424.737 26.3301 
L 784.737 26.3301 
" style="fill: none; stroke: #ffffff; stroke-width: 1.25; stroke-linejoin: miter; stroke-linecap: square"/>
   </g>
   <g id="text_23">
    <!-- Z2 -->
    <g style="fill: #262626" transform="translate(593.3214 20.3301) scale(0.1728 -0.1728)">
     <use xlink:href="#DejaVuSans-5a"/>
     <use xlink:href="#DejaVuSans-32" transform="translate(68.505859 0)"/>
    </g>
   </g>
  </g>
 </g>
 <defs>
  <clipPath id="p28965fa29e">
   <rect x="57.537" y="26.3301" width="360" height="222.492236"/>
  </clipPath>
  <clipPath id="pb73acaa149">
   <rect x="424.737" y="26.3301" width="360" height="222.492236"/>
  </clipPath>
 </defs>
</svg>
