<?xml version="1.0" encoding="utf-8" standalone="no"?>
<!DOCTYPE svg PUBLIC "-//W3C//DTD SVG 1.1//EN"
  "http://www.w3.org/Graphics/SVG/1.1/DTD/svg11.dtd">
<svg xmlns:xlink="http://www.w3.org/1999/xlink" width="720pt" height="360pt" viewBox="0 0 720 360" xmlns="http://www.w3.org/2000/svg" version="1.1">
 <metadata>
  <rdf:RDF xmlns:dc="http://purl.org/dc/elements/1.1/" xmlns:cc="http://creativecommons.org/ns#" xmlns:rdf="http://www.w3.org/1999/02/22-rdf-syntax-ns#">
   <cc:Work>
    <dc:type rdf:resource="http://purl.org/dc/dcmitype/StillImage"/>
    <dc:date>2026-03-19T16:24:16.066010</dc:date>
    <dc:format>image/svg+xml</dc:format>
    <dc:creator>
     <cc:Agent>
      <dc:title>Matplotlib v3.10.6, https://matplotlib.org/</dc:title>
     </cc:Agent>
    </dc:creator>
   </cc:Work>
  </rdf:RDF>
 </metadata>
 <defs>
  <style type="text/css">*{stroke-linejoin: round; stroke-linecap: butt}</style>
 </defs>
 <g id="figure_1">
  <g id="patch_1">
   <path d="M 0 360 
L 720 360 
L 720 0 
L 0 0 
z
" style="fill: #ffffff"/>
  </g>
  <g id="axes_1">
   <g id="patch_2">
    <path d="M 55.56 310.98 
L 707.04 310.98 
L 707.04 28.08 
L 55.56 28.08 
z
" style="fill: #eaeaf2"/>
   </g>
   <g id="matplotlib.axis_1">
    <g id="xtick_1">
     <g id="text_1">
      <!-- 0 -->
      <g style="fill: #262626" transform="translate(81.673352 328.838281) scale(0.11 -0.11)">
       <defs>
        <path id="DejaVuSans-30" d="M 2034 4250 
Q 1547 4250 1301 3770 
Q 1056 3291 1056 2328 
Q 1056 1369 1301 889 
Q 1547 409 2034 409 
Q 2525 409 2770 889 
Q 3016 1369 3016 2328 
Q 3016 3291 2770 3770 
Q 2525 4250 2034 4250 
z
M 2034 4750 
Q 2819 4750 3233 4129 
Q 3647 3509 3647 2328 
Q 3647 1150 3233 529 
Q 2819 -91 2034 -91 
Q 1250 -91 836 529 
Q 422 1150 422 2328 
Q 422 3509 836 4129 
Q 1250 4750 2034 4750 
z
" transform="scale(0.015625)"/>
       </defs>
       <use xlink:href="#DejaVuSans-30"/>
      </g>
     </g>
    </g>
    <g id="xtick_2">
     <g id="text_2">
      <!-- 5 -->
      <g style="fill: #262626" transform="translate(224.385291 328.838281) scale(0.11 -0.11)">
       <defs>
        <path id="DejaVuSans-35" d="M 691 4666 
L 3169 4666 
L 3169 4134 
L 1269 4134 
L 1269 2991 
Q 1406 3038 1543 3061 
Q 1681 3084 1819 3084 
Q 2600 3084 3056 2656 
Q 3513 2228 3513 1497 
Q 3513 744 3044 326 
Q 2575 -91 1722 -91 
Q 1428 -91 1123 -41 
Q 819 9 494 109 
L 494 744 
Q 775 591 1075 516 
Q 1375 441 1709 441 
Q 2250 441 2565 725 
Q 2881 1009 2881 1497 
Q 2881 1984 2565 2268 
Q 2250 2553 1709 2553 
Q 1456 2553 1204 2497 
Q 953 2441 691 2322 
L 691 4666 
z
" transform="scale(0.015625)"/>
       </defs>
       <use xlink:href="#DejaVuSans-35"/>
      </g>
     </g>
    </g>
    <g id="xtick_3">
     <g id="text_3">
      <!-- 10 -->
      <g style="fill: #262626" transform="translate(363.597855 328.838281) scale(0.11 -0.11)">
       <defs>
        <path id="DejaVuSans-31" d="M 794 531 
L 1825 531 
L 1825 4091 
L 703 3866 
L 703 4441 
L 1819 4666 
L 2450 4666 
L 2450 531 
L 3481 531 
L 3481 0 
L 794 0 
L 794 531 
z
" transform="scale(0.015625)"/>
       </defs>
       <use xlink:href="#DejaVuSans-31"/>
       <use xlink:href="#DejaVuSans-30" transform="translate(63.623047 0)"/>
      </g>
     </g>
    </g>
    <g id="xtick_4">
     <g id="text_4">
      <!-- 15 -->
      <g style="fill: #262626" transform="translate(506.309793 328.838281) scale(0.11 -0.11)">
       <use xlink:href="#DejaVuSans-31"/>
       <use xlink:href="#DejaVuSans-35" transform="translate(63.623047 0)"/>
      </g>
     </g>
    </g>
    <g id="xtick_5">
     <g id="text_5">
      <!-- 20 -->
      <g style="fill: #262626" transform="translate(649.021732 328.838281) scale(0.11 -0.11)">
       <defs>
        <path id="DejaVuSans-32" d="M 1228 531 
L 3431 531 
L 3431 0 
L 469 0 
L 469 531 
Q 828 903 1448 1529 
Q 2069 2156 2228 2338 
Q 2531 2678 2651 2914 
Q 2772 3150 2772 3378 
Q 2772 3750 2511 3984 
Q 2250 4219 1831 4219 
Q 1534 4219 1204 4116 
Q 875 4013 500 3803 
L 500 4441 
Q 881 4594 1212 4672 
Q 1544 4750 1819 4750 
Q 2544 4750 2975 4387 
Q 3406 4025 3406 3419 
Q 3406 3131 3298 2873 
Q 3191 2616 2906 2266 
Q 2828 2175 2409 1742 
Q 1991 1309 1228 531 
z
" transform="scale(0.015625)"/>
       </defs>
       <use xlink:href="#DejaVuSans-32"/>
       <use xlink:href="#DejaVuSans-30" transform="translate(63.623047 0)"/>
      </g>
     </g>
    </g>
    <g id="text_6">
     <!-- Time [days] -->
     <g style="fill: #262626" transform="translate(345.868125 344.244062) scale(0.12 -0.12)">
      <defs>
       <path id="DejaVuSans-54" d="M -19 4666 
L 3928 4666 
L 3928 4134 
L 2272 4134 
L 2272 0 
L 1638 0 
L 1638 4134 
L -19 4134 
L -19 4666 
z
" transform="scale(0.015625)"/>
       <path id="DejaVuSans-69" d="M 603 3500 
L 1178 3500 
L 1178 0 
L 603 0 
L 603 3500 
z
M 603 4863 
L 1178 4863 
L 1178 4134 
L 603 4134 
L 603 4863 
z
" transform="scale(0.015625)"/>
       <path id="DejaVuSans-6d" d="M 3328 2828 
Q 3544 3216 3844 3400 
Q 4144 3584 4550 3584 
Q 5097 3584 5394 3201 
Q 5691 2819 5691 2113 
L 5691 0 
L 5113 0 
L 5113 2094 
Q 5113 2597 4934 2840 
Q 4756 3084 4391 3084 
Q 3944 3084 3684 2787 
Q 3425 2491 3425 1978 
L 3425 0 
L 2847 0 
L 2847 2094 
Q 2847 2600 2669 2842 
Q 2491 3084 2119 3084 
Q 1678 3084 1418 2786 
Q 1159 2488 1159 1978 
L 1159 0 
L 581 0 
L 581 3500 
L 1159 3500 
L 1159 2956 
Q 1356 3278 1631 3431 
Q 1906 3584 2284 3584 
Q 2666 3584 2933 3390 
Q 3200 3197 3328 2828 
z
" transform="scale(0.015625)"/>
       <path id="DejaVuSans-65" d="M 3597 1894 
L 3597 1613 
L 953 1613 
Q 991 1019 1311 708 
Q 1631 397 2203 397 
Q 2534 397 2845 478 
Q 3156 559 3463 722 
L 3463 178 
Q 3153 47 2828 -22 
Q 2503 -91 2169 -91 
Q 1331 -91 842 396 
Q 353 884 353 1716 
Q 353 2575 817 3079 
Q 1281 3584 2069 3584 
Q 2775 3584 3186 3129 
Q 3597 2675 3597 1894 
z
M 3022 2063 
Q 3016 2534 2758 2815 
Q 2500 3097 2075 3097 
Q 1594 3097 1305 2825 
Q 1016 2553 972 2059 
L 3022 2063 
z
" transform="scale(0.015625)"/>
       <path id="DejaVuSans-20" transform="scale(0.015625)"/>
       <path id="DejaVuSans-5b" d="M 550 4863 
L 1875 4863 
L 1875 4416 
L 1125 4416 
L 1125 -397 
L 1875 -397 
L 1875 -844 
L 550 -844 
L 550 4863 
z
" transform="scale(0.015625)"/>
       <path id="DejaVuSans-64" d="M 2906 2969 
L 2906 4863 
L 3481 4863 
L 3481 0 
L 2906 0 
L 2906 525 
Q 2725 213 2448 61 
Q 2172 -91 1784 -91 
Q 1150 -91 751 415 
Q 353 922 353 1747 
Q 353 2572 751 3078 
Q 1150 3584 1784 3584 
Q 2172 3584 2448 3432 
Q 2725 3281 2906 2969 
z
M 947 1747 
Q 947 1113 1208 752 
Q 1469 391 1925 391 
Q 2381 391 2643 752 
Q 2906 1113 2906 1747 
Q 2906 2381 2643 2742 
Q 2381 3103 1925 3103 
Q 1469 3103 1208 2742 
Q 947 2381 947 1747 
z
" transform="scale(0.015625)"/>
       <path id="DejaVuSans-61" d="M 2194 1759 
Q 1497 1759 1228 1600 
Q 959 1441 959 1056 
Q 959 750 1161 570 
Q 1363 391 1709 391 
Q 2188 391 2477 730 
Q 2766 1069 2766 1631 
L 2766 1759 
L 2194 1759 
z
M 3341 1997 
L 3341 0 
L 2766 0 
L 2766 531 
Q 2569 213 2275 61 
Q 1981 -91 1556 -91 
Q 1019 -91 701 211 
Q 384 513 384 1019 
Q 384 1609 779 1909 
Q 1175 2209 1959 2209 
L 2766 2209 
L 2766 2266 
Q 2766 2663 2505 2880 
Q 2244 3097 1772 3097 
Q 1472 3097 1187 3025 
Q 903 2953 641 2809 
L 641 3341 
Q 956 3463 1253 3523 
Q 1550 3584 1831 3584 
Q 2591 3584 2966 3190 
Q 3341 2797 3341 1997 
z
" transform="scale(0.015625)"/>
       <path id="DejaVuSans-79" d="M 2059 -325 
Q 1816 -950 1584 -1140 
Q 1353 -1331 966 -1331 
L 506 -1331 
L 506 -850 
L 844 -850 
Q 1081 -850 1212 -737 
Q 1344 -625 1503 -206 
L 1606 56 
L 191 3500 
L 800 3500 
L 1894 763 
L 2988 3500 
L 3597 3500 
L 2059 -325 
z
" transform="scale(0.015625)"/>
       <path id="DejaVuSans-73" d="M 2834 3397 
L 2834 2853 
Q 2591 2978 2328 3040 
Q 2066 3103 1784 3103 
Q 1356 3103 1142 2972 
Q 928 2841 928 2578 
Q 928 2378 1081 2264 
Q 1234 2150 1697 2047 
L 1894 2003 
Q 2506 1872 2764 1633 
Q 3022 1394 3022 966 
Q 3022 478 2636 193 
Q 2250 -91 1575 -91 
Q 1294 -91 989 -36 
Q 684 19 347 128 
L 347 722 
Q 666 556 975 473 
Q 1284 391 1588 391 
Q 1994 391 2212 530 
Q 2431 669 2431 922 
Q 2431 1156 2273 1281 
Q 2116 1406 1581 1522 
L 1381 1569 
Q 847 1681 609 1914 
Q 372 2147 372 2553 
Q 372 3047 722 3315 
Q 1072 3584 1716 3584 
Q 2034 3584 2315 3537 
Q 2597 3491 2834 3397 
z
" transform="scale(0.015625)"/>
       <path id="DejaVuSans-5d" d="M 1947 4863 
L 1947 -844 
L 622 -844 
L 622 -397 
L 1369 -397 
L 1369 4416 
L 622 4416 
L 622 4863 
L 1947 4863 
z
" transform="scale(0.015625)"/>
      </defs>
      <use xlink:href="#DejaVuSans-54"/>
      <use xlink:href="#DejaVuSans-69" transform="translate(57.958984 0)"/>
      <use xlink:href="#DejaVuSans-6d" transform="translate(85.742188 0)"/>
      <use xlink:href="#DejaVuSans-65" transform="translate(183.154297 0)"/>
      <use xlink:href="#DejaVuSans-20" transform="translate(244.677734 0)"/>
      <use xlink:href="#DejaVuSans-5b" transform="translate(276.464844 0)"/>
      <use xlink:href="#DejaVuSans-64" transform="translate(315.478516 0)"/>
      <use xlink:href="#DejaVuSans-61" transform="translate(378.955078 0)"/>
      <use xlink:href="#DejaVuSans-79" transform="translate(440.234375 0)"/>
      <use xlink:href="#DejaVuSans-73" transform="translate(499.414062 0)"/>
      <use xlink:href="#DejaVuSans-5d" transform="translate(551.513672 0)"/>
     </g>
    </g>
   </g>
   <g id="matplotlib.axis_2">
    <g id="ytick_1">
     <g id="text_7">
      <!-- 0.0 -->
      <g style="fill: #262626" transform="translate(28.566562 302.30005) scale(0.11 -0.11)">
       <defs>
        <path id="DejaVuSans-2e" d="M 684 794 
L 1344 794 
L 1344 0 
L 684 0 
L 684 794 
z
" transform="scale(0.015625)"/>
       </defs>
       <use xlink:href="#DejaVuSans-30"/>
       <use xlink:href="#DejaVuSans-2e" transform="translate(63.623047 0)"/>
       <use xlink:href="#DejaVuSans-30" transform="translate(95.410156 0)"/>
      </g>
     </g>
    </g>
    <g id="ytick_2">
     <g id="text_8">
      <!-- 0.2 -->
      <g style="fill: #262626" transform="translate(28.566562 250.863686) scale(0.11 -0.11)">
       <use xlink:href="#DejaVuSans-30"/>
       <use xlink:href="#DejaVuSans-2e" transform="translate(63.623047 0)"/>
       <use xlink:href="#DejaVuSans-32" transform="translate(95.410156 0)"/>
      </g>
     </g>
    </g>
    <g id="ytick_3">
     <g id="text_9">
      <!-- 0.4 -->
      <g style="fill: #262626" transform="translate(28.566562 199.427322) scale(0.11 -0.11)">
       <defs>
        <path id="DejaVuSans-34" d="M 2419 4116 
L 825 1625 
L 2419 1625 
L 2419 4116 
z
M 2253 4666 
L 3047 4666 
L 3047 1625 
L 3713 1625 
L 3713 1100 
L 3047 1100 
L 3047 0 
L 2419 0 
L 2419 1100 
L 313 1100 
L 313 1709 
L 2253 4666 
z
" transform="scale(0.015625)"/>
       </defs>
       <use xlink:href="#DejaVuSans-30"/>
       <use xlink:href="#DejaVuSans-2e" transform="translate(63.623047 0)"/>
       <use xlink:href="#DejaVuSans-34" transform="translate(95.410156 0)"/>
      </g>
     </g>
    </g>
    <g id="ytick_4">
     <g id="text_10">
      <!-- 0.6 -->
      <g style="fill: #262626" transform="translate(28.566562 147.990959) scale(0.11 -0.11)">
       <defs>
        <path id="DejaVuSans-36" d="M 2113 2584 
Q 1688 2584 1439 2293 
Q 1191 2003 1191 1497 
Q 1191 994 1439 701 
Q 1688 409 2113 409 
Q 2538 409 2786 701 
Q 3034 994 3034 1497 
Q 3034 2003 2786 2293 
Q 2538 2584 2113 2584 
z
M 3366 4563 
L 3366 3988 
Q 3128 4100 2886 4159 
Q 2644 4219 2406 4219 
Q 1781 4219 1451 3797 
Q 1122 3375 1075 2522 
Q 1259 2794 1537 2939 
Q 1816 3084 2150 3084 
Q 2853 3084 3261 2657 
Q 3669 2231 3669 1497 
Q 3669 778 3244 343 
Q 2819 -91 2113 -91 
Q 1303 -91 875 529 
Q 447 1150 447 2328 
Q 447 3434 972 4092 
Q 1497 4750 2381 4750 
Q 2619 4750 2861 4703 
Q 3103 4656 3366 4563 
z
" transform="scale(0.015625)"/>
       </defs>
       <use xlink:href="#DejaVuSans-30"/>
       <use xlink:href="#DejaVuSans-2e" transform="translate(63.623047 0)"/>
       <use xlink:href="#DejaVuSans-36" transform="translate(95.410156 0)"/>
      </g>
     </g>
    </g>
    <g id="ytick_5">
     <g id="text_11">
      <!-- 0.8 -->
      <g style="fill: #262626" transform="translate(28.566562 96.554595) scale(0.11 -0.11)">
       <defs>
        <path id="DejaVuSans-38" d="M 2034 2216 
Q 1584 2216 1326 1975 
Q 1069 1734 1069 1313 
Q 1069 891 1326 650 
Q 1584 409 2034 409 
Q 2484 409 2743 651 
Q 3003 894 3003 1313 
Q 3003 1734 2745 1975 
Q 2488 2216 2034 2216 
z
M 1403 2484 
Q 997 2584 770 2862 
Q 544 3141 544 3541 
Q 544 4100 942 4425 
Q 1341 4750 2034 4750 
Q 2731 4750 3128 4425 
Q 3525 4100 3525 3541 
Q 3525 3141 3298 2862 
Q 3072 2584 2669 2484 
Q 3125 2378 3379 2068 
Q 3634 1759 3634 1313 
Q 3634 634 3220 271 
Q 2806 -91 2034 -91 
Q 1263 -91 848 271 
Q 434 634 434 1313 
Q 434 1759 690 2068 
Q 947 2378 1403 2484 
z
M 1172 3481 
Q 1172 3119 1398 2916 
Q 1625 2713 2034 2713 
Q 2441 2713 2670 2916 
Q 2900 3119 2900 3481 
Q 2900 3844 2670 4047 
Q 2441 4250 2034 4250 
Q 1625 4250 1398 4047 
Q 1172 3844 1172 3481 
z
" transform="scale(0.015625)"/>
       </defs>
       <use xlink:href="#DejaVuSans-30"/>
       <use xlink:href="#DejaVuSans-2e" transform="translate(63.623047 0)"/>
       <use xlink:href="#DejaVuSans-38" transform="translate(95.410156 0)"/>
      </g>
     </g>
    </g>
    <g id="ytick_6">
     <g id="text_12">
      <!-- 1.0 -->
      <g style="fill: #262626" transform="translate(28.566562 45.118232) scale(0.11 -0.11)">
       <use xlink:href="#DejaVuSans-31"/>
       <use xlink:href="#DejaVuSans-2e" transform="translate(63.623047 0)"/>
       <use xlink:href="#DejaVuSans-30" transform="translate(95.410156 0)"/>
      </g>
     </g>
    </g>
    <g id="text_13">
     <!-- ψ₂ nRMSE -->
     <g style="fill: #262626" transform="translate(22.070937 198.549375) rotate(-90) scale(0.12 -0.12)">
      <defs>
       <path id="DejaVuSans-3c8" d="M 1816 -78 
Q 1094 38 759 341 
Q 350 713 350 1472 
L 350 3500 
L 931 3500 
L 931 1494 
Q 931 922 1197 684 
Q 1428 478 1816 434 
L 1816 3500 
L 2388 3500 
L 2388 438 
Q 2797 481 3006 688 
Q 3272 950 3272 1497 
L 3272 3500 
L 3853 3500 
L 3853 1475 
Q 3853 688 3444 344 
Q 3075 34 2388 -75 
L 2388 -1331 
L 1816 -1331 
L 1816 -78 
z
" transform="scale(0.015625)"/>
       <path id="DejaVuSans-2082" d="M 838 356 
L 2163 356 
L 2163 0 
L 294 0 
L 294 343 
Q 400 440 597 615 
Q 1672 1568 1672 1862 
Q 1672 2068 1509 2194 
Q 1347 2321 1081 2321 
Q 919 2321 728 2266 
Q 538 2212 313 2103 
L 313 2487 
Q 553 2575 761 2618 
Q 969 2662 1147 2662 
Q 1600 2662 1872 2456 
Q 2144 2250 2144 1912 
Q 2144 1478 1109 590 
Q 934 440 838 356 
z
" transform="scale(0.015625)"/>
       <path id="DejaVuSans-6e" d="M 3513 2113 
L 3513 0 
L 2938 0 
L 2938 2094 
Q 2938 2591 2744 2837 
Q 2550 3084 2163 3084 
Q 1697 3084 1428 2787 
Q 1159 2491 1159 1978 
L 1159 0 
L 581 0 
L 581 3500 
L 1159 3500 
L 1159 2956 
Q 1366 3272 1645 3428 
Q 1925 3584 2291 3584 
Q 2894 3584 3203 3211 
Q 3513 2838 3513 2113 
z
" transform="scale(0.015625)"/>
       <path id="DejaVuSans-52" d="M 2841 2188 
Q 3044 2119 3236 1894 
Q 3428 1669 3622 1275 
L 4263 0 
L 3584 0 
L 2988 1197 
Q 2756 1666 2539 1819 
Q 2322 1972 1947 1972 
L 1259 1972 
L 1259 0 
L 628 0 
L 628 4666 
L 2053 4666 
Q 2853 4666 3247 4331 
Q 3641 3997 3641 3322 
Q 3641 2881 3436 2590 
Q 3231 2300 2841 2188 
z
M 1259 4147 
L 1259 2491 
L 2053 2491 
Q 2509 2491 2742 2702 
Q 2975 2913 2975 3322 
Q 2975 3731 2742 3939 
Q 2509 4147 2053 4147 
L 1259 4147 
z
" transform="scale(0.015625)"/>
       <path id="DejaVuSans-4d" d="M 628 4666 
L 1569 4666 
L 2759 1491 
L 3956 4666 
L 4897 4666 
L 4897 0 
L 4281 0 
L 4281 4097 
L 3078 897 
L 2444 897 
L 1241 4097 
L 1241 0 
L 628 0 
L 628 4666 
z
" transform="scale(0.015625)"/>
       <path id="DejaVuSans-53" d="M 3425 4513 
L 3425 3897 
Q 3066 4069 2747 4153 
Q 2428 4238 2131 4238 
Q 1616 4238 1336 4038 
Q 1056 3838 1056 3469 
Q 1056 3159 1242 3001 
Q 1428 2844 1947 2747 
L 2328 2669 
Q 3034 2534 3370 2195 
Q 3706 1856 3706 1288 
Q 3706 609 3251 259 
Q 2797 -91 1919 -91 
Q 1588 -91 1214 -16 
Q 841 59 441 206 
L 441 856 
Q 825 641 1194 531 
Q 1563 422 1919 422 
Q 2459 422 2753 634 
Q 3047 847 3047 1241 
Q 3047 1584 2836 1778 
Q 2625 1972 2144 2069 
L 1759 2144 
Q 1053 2284 737 2584 
Q 422 2884 422 3419 
Q 422 4038 858 4394 
Q 1294 4750 2059 4750 
Q 2388 4750 2728 4690 
Q 3069 4631 3425 4513 
z
" transform="scale(0.015625)"/>
       <path id="DejaVuSans-45" d="M 628 4666 
L 3578 4666 
L 3578 4134 
L 1259 4134 
L 1259 2753 
L 3481 2753 
L 3481 2222 
L 1259 2222 
L 1259 531 
L 3634 531 
L 3634 0 
L 628 0 
L 628 4666 
z
" transform="scale(0.015625)"/>
      </defs>
      <use xlink:href="#DejaVuSans-3c8"/>
      <use xlink:href="#DejaVuSans-2082" transform="translate(65.966797 0)"/>
      <use xlink:href="#DejaVuSans-20" transform="translate(106.054688 0)"/>
      <use xlink:href="#DejaVuSans-6e" transform="translate(137.841797 0)"/>
      <use xlink:href="#DejaVuSans-52" transform="translate(201.220703 0)"/>
      <use xlink:href="#DejaVuSans-4d" transform="translate(270.703125 0)"/>
      <use xlink:href="#DejaVuSans-53" transform="translate(356.982422 0)"/>
      <use xlink:href="#DejaVuSans-45" transform="translate(420.458984 0)"/>
     </g>
    </g>
   </g>
   <g id="FillBetweenPolyCollection_1">
    <defs>
     <path id="m26dcd60ae5" d="M 85.172727 -214.38848 
L 85.172727 -175.027959 
L 87.55126 -175.939972 
L 89.929792 -176.83534 
L 92.308324 -177.711187 
L 94.686857 -178.564751 
L 97.065389 -179.393413 
L 99.443921 -180.19472 
L 101.822453 -180.966429 
L 104.200986 -181.706526 
L 106.579518 -182.413259 
L 108.95805 -183.085152 
L 111.336583 -183.721034 
L 113.715115 -184.320053 
L 116.093647 -184.881689 
L 118.47218 -185.405766 
L 120.850712 -185.892453 
L 123.229244 -186.342272 
L 125.607777 -186.756087 
L 127.986309 -187.135094 
L 130.364841 -187.480807 
L 132.743373 -187.795035 
L 135.121906 -188.079864 
L 137.500438 -188.337627 
L 139.87897 -188.570867 
L 142.257503 -188.782306 
L 144.636035 -188.974801 
L 147.014567 -189.151306 
L 149.3931 -189.314828 
L 151.771632 -189.468387 
L 154.150164 -189.614976 
L 156.528697 -189.757524 
L 158.907229 -189.898859 
L 161.285761 -190.041681 
L 163.664294 -190.188533 
L 166.042826 -190.34178 
L 168.421358 -190.503588 
L 170.79989 -190.675918 
L 173.178423 -190.860506 
L 175.556955 -191.058862 
L 177.935487 -191.272264 
L 180.31402 -191.501756 
L 182.692552 -191.74815 
L 185.071084 -192.012023 
L 187.449617 -192.29372 
L 189.828149 -192.59335 
L 192.206681 -192.910781 
L 194.585214 -193.245641 
L 196.963746 -193.597302 
L 199.342278 -193.964875 
L 201.720811 -194.347186 
L 204.099343 -194.742766 
L 206.477875 -195.149822 
L 208.856407 -195.566222 
L 211.23494 -195.989461 
L 213.613472 -196.416645 
L 215.992004 -196.844466 
L 218.370537 -197.269191 
L 220.749069 -197.686669 
L 223.127601 -198.092346 
L 225.506134 -198.481319 
L 227.884666 -198.848411 
L 230.263198 -199.188287 
L 232.641731 -199.495619 
L 235.020263 -199.765283 
L 237.398795 -199.99258 
L 239.777327 -200.17348 
L 242.15586 -200.304835 
L 244.534392 -200.384561 
L 246.912924 -200.411748 
L 249.291457 -200.386672 
L 251.669989 -200.310727 
L 254.048521 -200.186277 
L 256.427054 -200.016444 
L 258.805586 -199.804899 
L 261.184118 -199.55564 
L 263.562651 -199.272803 
L 265.941183 -198.960507 
L 268.319715 -198.622741 
L 270.698248 -198.263274 
L 273.07678 -197.885613 
L 275.455312 -197.492979 
L 277.833844 -197.088299 
L 280.212377 -196.674222 
L 282.590909 -196.253119 
L 284.969441 -195.827097 
L 287.347974 -195.398007 
L 289.726506 -194.967465 
L 292.105038 -194.536858 
L 294.483571 -194.10737 
L 296.862103 -193.679992 
L 299.240635 -193.255534 
L 301.619168 -192.834622 
L 303.9977 -192.417715 
L 306.376232 -192.005113 
L 308.754765 -191.596963 
L 311.133297 -191.19327 
L 313.511829 -190.793906 
L 315.890361 -190.39863 
L 318.268894 -190.007085 
L 320.647426 -189.618811 
L 323.025958 -189.233255 
L 325.404491 -188.84978 
L 327.783023 -188.467685 
L 330.161555 -188.086211 
L 332.540088 -187.704548 
L 334.91862 -187.321846 
L 337.297152 -186.937221 
L 339.675685 -186.549768 
L 342.054217 -186.15856 
L 344.432749 -185.762669 
L 346.811281 -185.361162 
L 349.189814 -184.953108 
L 351.568346 -184.537585 
L 353.946878 -184.113682 
L 356.325411 -183.680504 
L 358.703943 -183.23718 
L 361.082475 -182.782875 
L 363.461008 -182.316795 
L 365.83954 -181.838196 
L 368.218072 -181.346403 
L 370.596605 -180.840809 
L 372.975137 -180.320887 
L 375.353669 -179.786205 
L 377.732202 -179.236438 
L 380.110734 -178.671379 
L 382.489266 -178.090948 
L 384.867798 -177.495201 
L 387.246331 -176.884345 
L 389.624863 -176.258742 
L 392.003395 -175.618906 
L 394.381928 -174.9655 
L 396.76046 -174.299345 
L 399.138992 -173.621409 
L 401.517525 -172.932818 
L 403.896057 -172.234835 
L 406.274589 -171.528848 
L 408.653122 -170.816372 
L 411.031654 -170.099021 
L 413.410186 -169.378489 
L 415.788719 -168.65654 
L 418.167251 -167.93499 
L 420.545783 -167.215687 
L 422.924315 -166.500494 
L 425.302848 -165.791264 
L 427.68138 -165.089829 
L 430.059912 -164.39798 
L 432.438445 -163.717442 
L 434.816977 -163.049858 
L 437.195509 -162.396789 
L 439.574042 -161.759696 
L 441.952574 -161.13995 
L 444.331106 -160.538819 
L 446.709639 -159.957476 
L 449.088171 -159.396984 
L 451.466703 -158.858292 
L 453.845235 -158.342249 
L 456.223768 -157.849604 
L 458.6023 -157.381013 
L 460.980832 -156.937054 
L 463.359365 -156.518237 
L 465.737897 -156.125012 
L 468.116429 -155.757769 
L 470.494962 -155.416844 
L 472.873494 -155.102514 
L 475.252026 -154.815005 
L 477.630559 -154.554479 
L 480.009091 -154.32105 
L 482.387623 -154.114788 
L 484.766156 -153.935716 
L 487.144688 -153.783815 
L 489.52322 -153.65902 
L 491.901752 -153.561198 
L 494.280285 -153.490135 
L 496.658817 -153.445535 
L 499.037349 -153.427005 
L 501.415882 -153.434063 
L 503.794414 -153.466137 
L 506.172946 -153.522561 
L 508.551479 -153.602589 
L 510.930011 -153.705387 
L 513.308543 -153.830037 
L 515.687076 -153.975526 
L 518.065608 -154.14076 
L 520.44414 -154.324561 
L 522.822673 -154.525686 
L 525.201205 -154.742848 
L 527.579737 -154.974717 
L 529.958269 -155.219937 
L 532.336802 -155.477152 
L 534.715334 -155.745013 
L 537.093866 -156.022183 
L 539.472399 -156.307346 
L 541.850931 -156.599244 
L 544.229463 -156.896677 
L 546.607996 -157.198527 
L 548.986528 -157.503775 
L 551.36506 -157.811496 
L 553.743593 -158.120876 
L 556.122125 -158.431214 
L 558.500657 -158.74192 
L 560.879189 -159.052513 
L 563.257722 -159.362619 
L 565.636254 -159.671975 
L 568.014786 -159.980425 
L 570.393319 -160.287908 
L 572.771851 -160.594442 
L 575.150383 -160.900107 
L 577.528916 -161.205022 
L 579.907448 -161.509325 
L 582.28598 -161.813151 
L 584.664513 -162.116609 
L 587.043045 -162.419765 
L 589.421577 -162.722624 
L 591.80011 -163.025099 
L 594.178642 -163.327 
L 596.557174 -163.628013 
L 598.935706 -163.927682 
L 601.314239 -164.225386 
L 603.692771 -164.52033 
L 606.071303 -164.811532 
L 608.449836 -165.097816 
L 610.828368 -165.377812 
L 613.2069 -165.649966 
L 615.585433 -165.912537 
L 617.963965 -166.163597 
L 620.342497 -166.401056 
L 622.72103 -166.622666 
L 625.099562 -166.826045 
L 627.478094 -167.0087 
L 629.856627 -167.168063 
L 632.235159 -167.301522 
L 634.613691 -167.406456 
L 636.992223 -167.480272 
L 639.370756 -167.520446 
L 641.749288 -167.524566 
L 644.12782 -167.490374 
L 646.506353 -167.415794 
L 648.884885 -167.298989 
L 651.263417 -167.138402 
L 653.64195 -166.932797 
L 656.020482 -166.681286 
L 658.399014 -166.38338 
L 660.777547 -166.03901 
L 663.156079 -165.648547 
L 665.534611 -165.212828 
L 667.913143 -164.73318 
L 670.291676 -164.211431 
L 672.670208 -163.649915 
L 675.04874 -163.051494 
L 677.427273 -162.41955 
L 677.427273 -195.780816 
L 677.427273 -195.780816 
L 675.04874 -195.675436 
L 672.670208 -195.585179 
L 670.291676 -195.508509 
L 667.913143 -195.444017 
L 665.534611 -195.3904 
L 663.156079 -195.346465 
L 660.777547 -195.311145 
L 658.399014 -195.283503 
L 656.020482 -195.262735 
L 653.64195 -195.248181 
L 651.263417 -195.239301 
L 648.884885 -195.235665 
L 646.506353 -195.236959 
L 644.12782 -195.24297 
L 641.749288 -195.253574 
L 639.370756 -195.268736 
L 636.992223 -195.288504 
L 634.613691 -195.312981 
L 632.235159 -195.342305 
L 629.856627 -195.376641 
L 627.478094 -195.416168 
L 625.099562 -195.461064 
L 622.72103 -195.511475 
L 620.342497 -195.567504 
L 617.963965 -195.629203 
L 615.585433 -195.696557 
L 613.2069 -195.769482 
L 610.828368 -195.847815 
L 608.449836 -195.931336 
L 606.071303 -196.019757 
L 603.692771 -196.112717 
L 601.314239 -196.209813 
L 598.935706 -196.310607 
L 596.557174 -196.414615 
L 594.178642 -196.521323 
L 591.80011 -196.630183 
L 589.421577 -196.74063 
L 587.043045 -196.852092 
L 584.664513 -196.964008 
L 582.28598 -197.075863 
L 579.907448 -197.187182 
L 577.528916 -197.297552 
L 575.150383 -197.406653 
L 572.771851 -197.514259 
L 570.393319 -197.620235 
L 568.014786 -197.724545 
L 565.636254 -197.827259 
L 563.257722 -197.928545 
L 560.879189 -198.028657 
L 558.500657 -198.127949 
L 556.122125 -198.226851 
L 553.743593 -198.325873 
L 551.36506 -198.425611 
L 548.986528 -198.526717 
L 546.607996 -198.629875 
L 544.229463 -198.735785 
L 541.850931 -198.845142 
L 539.472399 -198.958622 
L 537.093866 -199.076865 
L 534.715334 -199.200441 
L 532.336802 -199.329816 
L 529.958269 -199.465357 
L 527.579737 -199.607315 
L 525.201205 -199.755777 
L 522.822673 -199.910669 
L 520.44414 -200.071749 
L 518.065608 -200.23862 
L 515.687076 -200.410734 
L 513.308543 -200.587413 
L 510.930011 -200.76785 
L 508.551479 -200.951123 
L 506.172946 -201.136189 
L 503.794414 -201.321869 
L 501.415882 -201.506882 
L 499.037349 -201.68987 
L 496.658817 -201.86944 
L 494.280285 -202.04418 
L 491.901752 -202.212685 
L 489.52322 -202.373614 
L 487.144688 -202.525695 
L 484.766156 -202.667741 
L 482.387623 -202.798653 
L 480.009091 -202.917433 
L 477.630559 -203.023211 
L 475.252026 -203.115257 
L 472.873494 -203.192997 
L 470.494962 -203.25607 
L 468.116429 -203.304314 
L 465.737897 -203.337776 
L 463.359365 -203.356723 
L 460.980832 -203.361645 
L 458.6023 -203.353245 
L 456.223768 -203.33241 
L 453.845235 -203.300224 
L 451.466703 -203.257966 
L 449.088171 -203.207075 
L 446.709639 -203.149147 
L 444.331106 -203.085908 
L 441.952574 -203.019204 
L 439.574042 -202.950979 
L 437.195509 -202.883235 
L 434.816977 -202.818011 
L 432.438445 -202.757346 
L 430.059912 -202.703263 
L 427.68138 -202.657731 
L 425.302848 -202.62266 
L 422.924315 -202.59989 
L 420.545783 -202.59116 
L 418.167251 -202.598109 
L 415.788719 -202.622269 
L 413.410186 -202.665048 
L 411.031654 -202.727719 
L 408.653122 -202.811405 
L 406.274589 -202.917089 
L 403.896057 -203.045612 
L 401.517525 -203.197672 
L 399.138992 -203.373843 
L 396.76046 -203.574575 
L 394.381928 -203.800202 
L 392.003395 -204.050933 
L 389.624863 -204.326842 
L 387.246331 -204.627879 
L 384.867798 -204.953872 
L 382.489266 -205.304521 
L 380.110734 -205.679414 
L 377.732202 -206.078042 
L 375.353669 -206.499798 
L 372.975137 -206.943989 
L 370.596605 -207.409826 
L 368.218072 -207.896426 
L 365.83954 -208.402806 
L 363.461008 -208.927887 
L 361.082475 -209.470504 
L 358.703943 -210.029402 
L 356.325411 -210.60324 
L 353.946878 -211.190587 
L 351.568346 -211.789924 
L 349.189814 -212.399627 
L 346.811281 -213.017946 
L 344.432749 -213.642996 
L 342.054217 -214.272758 
L 339.675685 -214.905077 
L 337.297152 -215.537682 
L 334.91862 -216.168173 
L 332.540088 -216.794035 
L 330.161555 -217.412646 
L 327.783023 -218.021291 
L 325.404491 -218.61717 
L 323.025958 -219.197423 
L 320.647426 -219.759169 
L 318.268894 -220.299542 
L 315.890361 -220.815721 
L 313.511829 -221.30497 
L 311.133297 -221.764674 
L 308.754765 -222.192365 
L 306.376232 -222.585744 
L 303.9977 -222.942738 
L 301.619168 -223.261537 
L 299.240635 -223.540636 
L 296.862103 -223.778867 
L 294.483571 -223.975429 
L 292.105038 -224.129931 
L 289.726506 -224.24238 
L 287.347974 -224.313225 
L 284.969441 -224.343382 
L 282.590909 -224.334278 
L 280.212377 -224.287878 
L 277.833844 -224.206695 
L 275.455312 -224.093824 
L 273.07678 -223.952932 
L 270.698248 -223.788206 
L 268.319715 -223.604408 
L 265.941183 -223.406842 
L 263.562651 -223.201293 
L 261.184118 -222.99396 
L 258.805586 -222.791346 
L 256.427054 -222.600064 
L 254.048521 -222.426674 
L 251.669989 -222.277432 
L 249.291457 -222.158017 
L 246.912924 -222.07329 
L 244.534392 -222.027023 
L 242.15586 -222.02171 
L 239.777327 -222.058446 
L 237.398795 -222.136923 
L 235.020263 -222.255505 
L 232.641731 -222.411403 
L 230.263198 -222.600869 
L 227.884666 -222.819439 
L 225.506134 -223.062157 
L 223.127601 -223.323805 
L 220.749069 -223.599086 
L 218.370537 -223.882781 
L 215.992004 -224.169861 
L 213.613472 -224.455569 
L 211.23494 -224.735482 
L 208.856407 -225.005559 
L 206.477875 -225.262185 
L 204.099343 -225.502198 
L 201.720811 -225.72289 
L 199.342278 -225.922001 
L 196.963746 -226.097727 
L 194.585214 -226.248704 
L 192.206681 -226.373987 
L 189.828149 -226.473046 
L 187.449617 -226.545735 
L 185.071084 -226.592265 
L 182.692552 -226.613165 
L 180.31402 -226.609251 
L 177.935487 -226.581587 
L 175.556955 -226.531468 
L 173.178423 -226.460354 
L 170.79989 -226.369831 
L 168.421358 -226.261562 
L 166.042826 -226.137254 
L 163.664294 -225.998591 
L 161.285761 -225.847212 
L 158.907229 -225.684675 
L 156.528697 -225.512401 
L 154.150164 -225.331641 
L 151.771632 -225.143439 
L 149.3931 -224.948604 
L 147.014567 -224.747691 
L 144.636035 -224.540985 
L 142.257503 -224.328485 
L 139.87897 -224.109911 
L 137.500438 -223.884699 
L 135.121906 -223.651996 
L 132.743373 -223.410717 
L 130.364841 -223.159551 
L 127.986309 -222.896987 
L 125.607777 -222.621359 
L 123.229244 -222.330879 
L 120.850712 -222.023689 
L 118.47218 -221.697918 
L 116.093647 -221.351719 
L 113.715115 -220.983303 
L 111.336583 -220.590974 
L 108.95805 -220.173165 
L 106.579518 -219.728465 
L 104.200986 -219.255663 
L 101.822453 -218.753748 
L 99.443921 -218.221935 
L 97.065389 -217.65966 
L 94.686857 -217.066599 
L 92.308324 -216.442658 
L 89.929792 -215.788008 
L 87.55126 -215.103064 
L 85.172727 -214.38848 
z
" style="stroke: #000080; stroke-opacity: 0.1"/>
    </defs>
    <g clip-path="url(#p60e449c98c)">
     <use xlink:href="#m26dcd60ae5" x="0" y="360" style="fill: #000080; fill-opacity: 0.1; stroke: #000080; stroke-opacity: 0.1"/>
    </g>
   </g>
   <g id="FillBetweenPolyCollection_2">
    <defs>
     <path id="mfb85b5e8d4" d="M 85.172727 -220.708928 
L 85.172727 -187.847448 
L 87.55126 -188.758881 
L 89.929792 -189.65757 
L 92.308324 -190.54066 
L 94.686857 -191.405393 
L 97.065389 -192.249145 
L 99.443921 -193.069468 
L 101.822453 -193.864136 
L 104.200986 -194.631182 
L 106.579518 -195.368935 
L 108.95805 -196.076046 
L 111.336583 -196.751527 
L 113.715115 -197.394762 
L 116.093647 -198.005523 
L 118.47218 -198.583972 
L 120.850712 -199.130659 
L 123.229244 -199.646501 
L 125.607777 -200.132763 
L 127.986309 -200.591024 
L 130.364841 -201.023141 
L 132.743373 -201.4312 
L 135.121906 -201.817478 
L 137.500438 -202.184388 
L 139.87897 -202.534434 
L 142.257503 -202.870168 
L 144.636035 -203.194141 
L 147.014567 -203.508866 
L 149.3931 -203.816787 
L 151.771632 -204.120257 
L 154.150164 -204.42152 
L 156.528697 -204.722689 
L 158.907229 -205.025752 
L 161.285761 -205.332563 
L 163.664294 -205.644855 
L 166.042826 -205.964248 
L 168.421358 -206.292268 
L 170.79989 -206.630362 
L 173.178423 -206.979917 
L 175.556955 -207.342283 
L 177.935487 -207.718796 
L 180.31402 -208.110794 
L 182.692552 -208.519638 
L 185.071084 -208.946737 
L 187.449617 -209.393558 
L 189.828149 -209.861626 
L 192.206681 -210.352528 
L 194.585214 -210.867914 
L 196.963746 -211.409484 
L 199.342278 -211.978963 
L 201.720811 -212.578069 
L 204.099343 -213.208478 
L 206.477875 -213.871782 
L 208.856407 -214.569437 
L 211.23494 -215.3027 
L 213.613472 -216.072569 
L 215.992004 -216.879705 
L 218.370537 -217.72435 
L 220.749069 -218.606244 
L 223.127601 -219.52453 
L 225.506134 -220.47765 
L 227.884666 -221.463219 
L 230.263198 -222.477843 
L 232.641731 -223.516866 
L 235.020263 -224.573973 
L 237.398795 -225.640553 
L 239.777327 -226.704614 
L 242.15586 -227.748955 
L 244.534392 -228.748161 
L 246.912924 -229.664372 
L 249.291457 -230.444153 
L 251.669989 -231.025529 
L 254.048521 -231.36703 
L 256.427054 -231.481216 
L 258.805586 -231.427028 
L 261.184118 -231.270862 
L 263.562651 -231.062962 
L 265.941183 -230.835532 
L 268.319715 -230.608048 
L 270.698248 -230.392203 
L 273.07678 -230.195162 
L 275.455312 -230.021504 
L 277.833844 -229.874368 
L 280.212377 -229.756125 
L 282.590909 -229.668775 
L 284.969441 -229.614178 
L 287.347974 -229.59417 
L 289.726506 -229.61062 
L 292.105038 -229.665426 
L 294.483571 -229.760499 
L 296.862103 -229.89771 
L 299.240635 -230.078817 
L 301.619168 -230.305379 
L 303.9977 -230.578676 
L 306.376232 -230.899615 
L 308.754765 -231.268631 
L 311.133297 -231.68561 
L 313.511829 -232.149795 
L 315.890361 -232.659741 
L 318.268894 -233.213236 
L 320.647426 -233.80726 
L 323.025958 -234.437972 
L 325.404491 -235.100683 
L 327.783023 -235.789892 
L 330.161555 -236.499304 
L 332.540088 -237.221886 
L 334.91862 -237.949933 
L 337.297152 -238.675155 
L 339.675685 -239.388788 
L 342.054217 -240.081692 
L 344.432749 -240.744499 
L 346.811281 -241.367727 
L 349.189814 -241.941909 
L 351.568346 -242.457739 
L 353.946878 -242.906198 
L 356.325411 -243.278671 
L 358.703943 -243.56707 
L 361.082475 -243.763939 
L 363.461008 -243.86254 
L 365.83954 -243.856938 
L 368.218072 -243.742055 
L 370.596605 -243.513725 
L 372.975137 -243.168726 
L 375.353669 -242.70481 
L 377.732202 -242.120705 
L 380.110734 -241.41611 
L 382.489266 -240.591674 
L 384.867798 -239.648985 
L 387.246331 -238.590536 
L 389.624863 -237.41968 
L 392.003395 -236.140598 
L 394.381928 -234.758243 
L 396.76046 -233.278291 
L 399.138992 -231.707075 
L 401.517525 -230.051521 
L 403.896057 -228.319079 
L 406.274589 -226.517649 
L 408.653122 -224.655509 
L 411.031654 -222.741243 
L 413.410186 -220.783661 
L 415.788719 -218.791713 
L 418.167251 -216.774403 
L 420.545783 -214.740701 
L 422.924315 -212.699448 
L 425.302848 -210.659276 
L 427.68138 -208.628523 
L 430.059912 -206.615145 
L 432.438445 -204.626634 
L 434.816977 -202.669948 
L 437.195509 -200.751442 
L 439.574042 -198.876812 
L 441.952574 -197.051067 
L 444.331106 -195.278488 
L 446.709639 -193.562627 
L 449.088171 -191.90629 
L 451.466703 -190.311553 
L 453.845235 -188.779791 
L 456.223768 -187.311719 
L 458.6023 -185.907444 
L 460.980832 -184.566528 
L 463.359365 -183.288058 
L 465.737897 -182.070722 
L 468.116429 -180.912874 
L 470.494962 -179.812614 
L 472.873494 -178.76785 
L 475.252026 -177.776368 
L 477.630559 -176.835887 
L 480.009091 -175.944126 
L 482.387623 -175.098849 
L 484.766156 -174.297917 
L 487.144688 -173.539316 
L 489.52322 -172.821189 
L 491.901752 -172.141833 
L 494.280285 -171.499711 
L 496.658817 -170.893444 
L 499.037349 -170.321807 
L 501.415882 -169.783726 
L 503.794414 -169.278262 
L 506.172946 -168.804596 
L 508.551479 -168.362014 
L 510.930011 -167.949879 
L 513.308543 -167.56761 
L 515.687076 -167.214638 
L 518.065608 -166.890388 
L 520.44414 -166.594243 
L 522.822673 -166.325534 
L 525.201205 -166.083521 
L 527.579737 -165.867376 
L 529.958269 -165.676168 
L 532.336802 -165.508867 
L 534.715334 -165.364336 
L 537.093866 -165.241319 
L 539.472399 -165.138441 
L 541.850931 -165.054239 
L 544.229463 -164.987159 
L 546.607996 -164.935586 
L 548.986528 -164.897864 
L 551.36506 -164.872307 
L 553.743593 -164.857228 
L 556.122125 -164.850962 
L 558.500657 -164.851881 
L 560.879189 -164.858414 
L 563.257722 -164.869068 
L 565.636254 -164.88246 
L 568.014786 -164.897327 
L 570.393319 -164.912545 
L 572.771851 -164.927134 
L 575.150383 -164.940261 
L 577.528916 -164.951236 
L 579.907448 -164.959514 
L 582.28598 -164.964692 
L 584.664513 -164.966499 
L 587.043045 -164.964798 
L 589.421577 -164.959579 
L 591.80011 -164.950936 
L 594.178642 -164.939066 
L 596.557174 -164.924258 
L 598.935706 -164.906871 
L 601.314239 -164.887321 
L 603.692771 -164.866065 
L 606.071303 -164.843589 
L 608.449836 -164.820396 
L 610.828368 -164.796993 
L 613.2069 -164.773895 
L 615.585433 -164.751607 
L 617.963965 -164.730616 
L 620.342497 -164.711391 
L 622.72103 -164.694376 
L 625.099562 -164.679994 
L 627.478094 -164.668645 
L 629.856627 -164.660727 
L 632.235159 -164.656643 
L 634.613691 -164.656812 
L 636.992223 -164.661684 
L 639.370756 -164.671768 
L 641.749288 -164.687641 
L 644.12782 -164.709972 
L 646.506353 -164.739537 
L 648.884885 -164.777252 
L 651.263417 -164.824195 
L 653.64195 -164.881628 
L 656.020482 -164.95101 
L 658.399014 -165.034025 
L 660.777547 -165.132588 
L 663.156079 -165.24885 
L 665.534611 -165.385202 
L 667.913143 -165.544287 
L 670.291676 -165.728986 
L 672.670208 -165.942415 
L 675.04874 -166.187911 
L 677.427273 -166.469011 
L 677.427273 -226.471097 
L 677.427273 -226.471097 
L 675.04874 -225.49107 
L 672.670208 -224.533674 
L 670.291676 -223.599708 
L 667.913143 -222.690187 
L 665.534611 -221.806296 
L 663.156079 -220.949374 
L 660.777547 -220.120907 
L 658.399014 -219.322512 
L 656.020482 -218.5559 
L 653.64195 -217.822867 
L 651.263417 -217.125227 
L 648.884885 -216.464764 
L 646.506353 -215.843192 
L 644.12782 -215.262108 
L 641.749288 -214.722931 
L 639.370756 -214.226876 
L 636.992223 -213.774907 
L 634.613691 -213.367695 
L 632.235159 -213.005563 
L 629.856627 -212.68847 
L 627.478094 -212.415984 
L 625.099562 -212.187268 
L 622.72103 -212.001077 
L 620.342497 -211.855759 
L 617.963965 -211.749281 
L 615.585433 -211.679249 
L 613.2069 -211.642947 
L 610.828368 -211.637379 
L 608.449836 -211.659338 
L 606.071303 -211.705455 
L 603.692771 -211.772249 
L 601.314239 -211.856212 
L 598.935706 -211.953866 
L 596.557174 -212.061802 
L 594.178642 -212.176738 
L 591.80011 -212.29556 
L 589.421577 -212.415372 
L 587.043045 -212.533536 
L 584.664513 -212.647717 
L 582.28598 -212.755934 
L 579.907448 -212.856558 
L 577.528916 -212.948341 
L 575.150383 -213.030454 
L 572.771851 -213.102466 
L 570.393319 -213.164342 
L 568.014786 -213.216434 
L 565.636254 -213.259451 
L 563.257722 -213.29443 
L 560.879189 -213.322689 
L 558.500657 -213.345804 
L 556.122125 -213.365554 
L 553.743593 -213.38389 
L 551.36506 -213.402898 
L 548.986528 -213.424737 
L 546.607996 -213.45157 
L 544.229463 -213.485525 
L 541.850931 -213.528632 
L 539.472399 -213.582783 
L 537.093866 -213.649694 
L 534.715334 -213.730853 
L 532.336802 -213.827469 
L 529.958269 -213.940479 
L 527.579737 -214.070534 
L 525.201205 -214.217966 
L 522.822673 -214.382808 
L 520.44414 -214.564828 
L 518.065608 -214.763564 
L 515.687076 -214.978382 
L 513.308543 -215.208541 
L 510.930011 -215.453244 
L 508.551479 -215.71171 
L 506.172946 -215.983211 
L 503.794414 -216.267126 
L 501.415882 -216.56302 
L 499.037349 -216.870729 
L 496.658817 -217.19044 
L 494.280285 -217.522754 
L 491.901752 -217.868741 
L 489.52322 -218.230016 
L 487.144688 -218.608761 
L 484.766156 -219.007731 
L 482.387623 -219.430246 
L 480.009091 -219.880168 
L 477.630559 -220.361885 
L 475.252026 -220.880253 
L 472.873494 -221.440539 
L 470.494962 -222.048363 
L 468.116429 -222.709581 
L 465.737897 -223.430153 
L 463.359365 -224.216013 
L 460.980832 -225.072911 
L 458.6023 -226.006247 
L 456.223768 -227.020876 
L 453.845235 -228.12097 
L 451.466703 -229.309857 
L 449.088171 -230.589859 
L 446.709639 -231.962176 
L 444.331106 -233.42677 
L 441.952574 -234.982289 
L 439.574042 -236.626029 
L 437.195509 -238.353888 
L 434.816977 -240.1604 
L 432.438445 -242.038765 
L 430.059912 -243.980945 
L 427.68138 -245.97776 
L 425.302848 -248.019035 
L 422.924315 -250.093762 
L 420.545783 -252.190253 
L 418.167251 -254.296332 
L 415.788719 -256.399518 
L 413.410186 -258.487199 
L 411.031654 -260.546807 
L 408.653122 -262.565978 
L 406.274589 -264.532708 
L 403.896057 -266.435502 
L 401.517525 -268.263491 
L 399.138992 -270.006551 
L 396.76046 -271.655381 
L 394.381928 -273.201579 
L 392.003395 -274.63769 
L 389.624863 -275.957232 
L 387.246331 -277.15474 
L 384.867798 -278.225777 
L 382.489266 -279.166931 
L 380.110734 -279.975811 
L 377.732202 -280.651034 
L 375.353669 -281.192205 
L 372.975137 -281.599882 
L 370.596605 -281.875544 
L 368.218072 -282.02155 
L 365.83954 -282.041099 
L 363.461008 -281.938197 
L 361.082475 -281.717604 
L 358.703943 -281.38477 
L 356.325411 -280.945785 
L 353.946878 -280.407323 
L 351.568346 -279.776568 
L 349.189814 -279.061138 
L 346.811281 -278.268996 
L 344.432749 -277.408352 
L 342.054217 -276.487563 
L 339.675685 -275.515024 
L 337.297152 -274.499049 
L 334.91862 -273.447749 
L 332.540088 -272.36892 
L 330.161555 -271.269927 
L 327.783023 -270.157594 
L 325.404491 -269.038105 
L 323.025958 -267.916909 
L 320.647426 -266.798651 
L 318.268894 -265.687119 
L 315.890361 -264.585218 
L 313.511829 -263.494967 
L 311.133297 -262.417513 
L 308.754765 -261.353173 
L 306.376232 -260.301482 
L 303.9977 -259.261284 
L 301.619168 -258.230831 
L 299.240635 -257.207896 
L 296.862103 -256.189894 
L 294.483571 -255.174014 
L 292.105038 -254.157365 
L 289.726506 -253.137096 
L 287.347974 -252.110544 
L 284.969441 -251.075369 
L 282.590909 -250.02972 
L 280.212377 -248.972389 
L 277.833844 -247.902987 
L 275.455312 -246.822164 
L 273.07678 -245.731898 
L 270.698248 -244.635883 
L 268.319715 -243.54023 
L 265.941183 -242.454565 
L 263.562651 -241.393884 
L 261.184118 -240.381711 
L 258.805586 -239.454905 
L 256.427054 -238.668791 
L 254.048521 -238.0951 
L 251.669989 -237.798154 
L 249.291457 -237.795725 
L 246.912924 -238.051184 
L 244.534392 -238.506807 
L 242.15586 -239.112627 
L 239.777327 -239.833283 
L 237.398795 -240.644746 
L 235.020263 -241.529973 
L 232.641731 -242.475825 
L 230.263198 -243.471187 
L 227.884666 -244.505888 
L 225.506134 -245.5701 
L 223.127601 -246.654031 
L 220.749069 -247.74778 
L 218.370537 -248.84132 
L 215.992004 -249.924529 
L 213.613472 -250.98727 
L 211.23494 -252.019503 
L 208.856407 -253.011405 
L 206.477875 -253.953502 
L 204.099343 -254.836802 
L 201.720811 -255.652905 
L 199.342278 -256.394106 
L 196.963746 -257.053488 
L 194.585214 -257.625004 
L 192.206681 -258.103538 
L 189.828149 -258.484947 
L 187.449617 -258.76609 
L 185.071084 -258.944837 
L 182.692552 -259.020058 
L 180.31402 -258.991614 
L 177.935487 -258.860317 
L 175.556955 -258.627904 
L 173.178423 -258.296968 
L 170.79989 -257.870894 
L 168.421358 -257.353781 
L 166.042826 -256.750364 
L 163.664294 -256.065918 
L 161.285761 -255.306177 
L 158.907229 -254.477248 
L 156.528697 -253.585503 
L 154.150164 -252.637482 
L 151.771632 -251.639795 
L 149.3931 -250.599029 
L 147.014567 -249.521674 
L 144.636035 -248.414029 
L 142.257503 -247.282127 
L 139.87897 -246.131668 
L 137.500438 -244.967963 
L 135.121906 -243.795866 
L 132.743373 -242.61975 
L 130.364841 -241.443478 
L 127.986309 -240.270362 
L 125.607777 -239.103167 
L 123.229244 -237.944103 
L 120.850712 -236.794849 
L 118.47218 -235.656586 
L 116.093647 -234.530026 
L 113.715115 -233.415447 
L 111.336583 -232.312734 
L 108.95805 -231.22143 
L 106.579518 -230.140795 
L 104.200986 -229.069875 
L 101.822453 -228.007549 
L 99.443921 -226.952597 
L 97.065389 -225.903738 
L 94.686857 -224.859695 
L 92.308324 -223.819238 
L 89.929792 -222.78125 
L 87.55126 -221.74475 
L 85.172727 -220.708928 
z
" style="stroke: #000080; stroke-opacity: 0.1"/>
    </defs>
    <g clip-path="url(#p60e449c98c)">
     <use xlink:href="#mfb85b5e8d4" x="0" y="360" style="fill: #000080; fill-opacity: 0.1; stroke: #000080; stroke-opacity: 0.1"/>
    </g>
   </g>
   <g id="line2d_1">
    <path d="M 85.172727 165.291781 
L 92.308324 162.923078 
L 99.443921 160.791673 
L 106.579518 158.929138 
L 113.715115 157.348322 
L 120.850712 156.041929 
L 127.986309 154.983959 
L 135.121906 154.13407 
L 144.636035 153.242107 
L 156.528697 152.365038 
L 175.556955 151.204835 
L 194.585214 150.252828 
L 211.23494 149.637529 
L 237.398795 148.935248 
L 251.669989 148.70592 
L 261.184118 148.7252 
L 270.698248 148.97426 
L 277.833844 149.352503 
L 284.969441 149.914761 
L 292.105038 150.666605 
L 299.240635 151.601915 
L 308.754765 153.105336 
L 318.268894 154.846686 
L 330.161555 157.250572 
L 356.325411 162.858128 
L 377.732202 167.34276 
L 394.381928 170.617149 
L 408.653122 173.186112 
L 420.545783 175.096576 
L 432.438445 176.762606 
L 444.331106 178.187636 
L 458.6023 179.632871 
L 472.873494 180.852244 
L 487.144688 181.845245 
L 499.037349 182.441562 
L 508.551479 182.723144 
L 518.065608 182.81031 
L 529.958269 182.657353 
L 544.229463 182.183769 
L 629.856627 178.727648 
L 639.370756 178.605409 
L 648.884885 178.732673 
L 656.020482 179.027989 
L 663.156079 179.502494 
L 672.670208 180.382453 
L 677.427273 180.899817 
L 677.427273 180.899817 
" clip-path="url(#p60e449c98c)" style="fill: none; stroke: #000080; stroke-width: 1.5; stroke-linecap: round"/>
   </g>
   <g id="line2d_2">
    <path d="M 85.172727 155.721812 
L 99.443921 149.988968 
L 111.336583 145.46787 
L 123.229244 141.204698 
L 135.121906 137.193328 
L 144.636035 134.195915 
L 151.771632 132.119974 
L 158.907229 130.2485 
L 166.042826 128.642694 
L 170.79989 127.749372 
L 175.556955 127.014906 
L 180.31402 126.448796 
L 185.071084 126.054213 
L 189.828149 125.826714 
L 196.963746 125.768514 
L 204.099343 125.97736 
L 227.884666 127.015447 
L 235.020263 126.948027 
L 242.15586 126.569209 
L 249.291457 125.880061 
L 256.427054 124.924996 
L 265.941183 123.354952 
L 277.833844 121.111323 
L 289.726506 118.626142 
L 296.862103 116.956198 
L 303.9977 115.08002 
L 311.133297 112.948439 
L 318.268894 110.549823 
L 327.783023 107.026257 
L 339.675685 102.548094 
L 344.432749 100.923574 
L 349.189814 99.498476 
L 353.946878 98.34324 
L 358.703943 97.52408 
L 363.461008 97.099631 
L 365.83954 97.050982 
L 368.218072 97.118198 
L 370.596605 97.305365 
L 372.975137 97.615696 
L 375.353669 98.051493 
L 377.732202 98.61413 
L 380.110734 99.30404 
L 382.489266 100.120698 
L 384.867798 101.062619 
L 389.624863 103.311544 
L 394.381928 106.020089 
L 399.138992 109.143187 
L 403.896057 112.62271 
L 408.653122 116.389257 
L 415.788719 122.404384 
L 430.059912 134.701955 
L 434.816977 138.584826 
L 439.574042 142.248579 
L 444.331106 145.647371 
L 449.088171 148.751926 
L 453.845235 151.549619 
L 458.6023 154.043155 
L 463.359365 156.247964 
L 468.116429 158.188772 
L 472.873494 159.895806 
L 477.630559 161.401114 
L 484.766156 163.347176 
L 491.901752 164.994713 
L 499.037349 166.403732 
L 506.172946 167.606096 
L 513.308543 168.611925 
L 520.44414 169.420464 
L 527.579737 170.031045 
L 534.715334 170.452405 
L 544.229463 170.763658 
L 556.122125 170.891742 
L 579.907448 171.091964 
L 601.314239 171.628234 
L 613.2069 171.791579 
L 620.342497 171.716425 
L 627.478094 171.457686 
L 634.613691 170.987747 
L 641.749288 170.294714 
L 648.884885 169.378992 
L 656.020482 168.246545 
L 663.156079 166.900888 
L 670.291676 165.335653 
L 677.427273 163.529946 
L 677.427273 163.529946 
" clip-path="url(#p60e449c98c)" style="fill: none; stroke-dasharray: 5.55,2.4; stroke-dashoffset: 0; stroke: #000080; stroke-width: 1.5"/>
   </g>
   <g id="patch_3">
    <path d="M 55.56 310.98 
L 55.56 28.08 
" style="fill: none; stroke: #ffffff; stroke-width: 1.25; stroke-linejoin: miter; stroke-linecap: square"/>
   </g>
   <g id="patch_4">
    <path d="M 707.04 310.98 
L 707.04 28.08 
" style="fill: none; stroke: #ffffff; stroke-width: 1.25; stroke-linejoin: miter; stroke-linecap: square"/>
   </g>
   <g id="patch_5">
    <path d="M 55.56 310.98 
L 707.04 310.98 
" style="fill: none; stroke: #ffffff; stroke-width: 1.25; stroke-linejoin: miter; stroke-linecap: square"/>
   </g>
   <g id="patch_6">
    <path d="M 55.56 28.08 
L 707.04 28.08 
" style="fill: none; stroke: #ffffff; stroke-width: 1.25; stroke-linejoin: miter; stroke-linecap: square"/>
   </g>
   <g id="text_14">
    <!-- QG3L - [112, 176] x [64, 192] -->
    <g style="fill: #262626" transform="translate(292.44 22.08) scale(0.12 -0.12)">
     <defs>
      <path id="DejaVuSans-51" d="M 2522 4238 
Q 1834 4238 1429 3725 
Q 1025 3213 1025 2328 
Q 1025 1447 1429 934 
Q 1834 422 2522 422 
Q 3209 422 3611 934 
Q 4013 1447 4013 2328 
Q 4013 3213 3611 3725 
Q 3209 4238 2522 4238 
z
M 3406 84 
L 4238 -825 
L 3475 -825 
L 2784 -78 
Q 2681 -84 2626 -87 
Q 2572 -91 2522 -91 
Q 1538 -91 948 567 
Q 359 1225 359 2328 
Q 359 3434 948 4092 
Q 1538 4750 2522 4750 
Q 3503 4750 4090 4092 
Q 4678 3434 4678 2328 
Q 4678 1516 4351 937 
Q 4025 359 3406 84 
z
" transform="scale(0.015625)"/>
      <path id="DejaVuSans-47" d="M 3809 666 
L 3809 1919 
L 2778 1919 
L 2778 2438 
L 4434 2438 
L 4434 434 
Q 4069 175 3628 42 
Q 3188 -91 2688 -91 
Q 1594 -91 976 548 
Q 359 1188 359 2328 
Q 359 3472 976 4111 
Q 1594 4750 2688 4750 
Q 3144 4750 3555 4637 
Q 3966 4525 4313 4306 
L 4313 3634 
Q 3963 3931 3569 4081 
Q 3175 4231 2741 4231 
Q 1884 4231 1454 3753 
Q 1025 3275 1025 2328 
Q 1025 1384 1454 906 
Q 1884 428 2741 428 
Q 3075 428 3337 486 
Q 3600 544 3809 666 
z
" transform="scale(0.015625)"/>
      <path id="DejaVuSans-33" d="M 2597 2516 
Q 3050 2419 3304 2112 
Q 3559 1806 3559 1356 
Q 3559 666 3084 287 
Q 2609 -91 1734 -91 
Q 1441 -91 1130 -33 
Q 819 25 488 141 
L 488 750 
Q 750 597 1062 519 
Q 1375 441 1716 441 
Q 2309 441 2620 675 
Q 2931 909 2931 1356 
Q 2931 1769 2642 2001 
Q 2353 2234 1838 2234 
L 1294 2234 
L 1294 2753 
L 1863 2753 
Q 2328 2753 2575 2939 
Q 2822 3125 2822 3475 
Q 2822 3834 2567 4026 
Q 2313 4219 1838 4219 
Q 1578 4219 1281 4162 
Q 984 4106 628 3988 
L 628 4550 
Q 988 4650 1302 4700 
Q 1616 4750 1894 4750 
Q 2613 4750 3031 4423 
Q 3450 4097 3450 3541 
Q 3450 3153 3228 2886 
Q 3006 2619 2597 2516 
z
" transform="scale(0.015625)"/>
      <path id="DejaVuSans-4c" d="M 628 4666 
L 1259 4666 
L 1259 531 
L 3531 531 
L 3531 0 
L 628 0 
L 628 4666 
z
" transform="scale(0.015625)"/>
      <path id="DejaVuSans-2d" d="M 313 2009 
L 1997 2009 
L 1997 1497 
L 313 1497 
L 313 2009 
z
" transform="scale(0.015625)"/>
      <path id="DejaVuSans-2c" d="M 750 794 
L 1409 794 
L 1409 256 
L 897 -744 
L 494 -744 
L 750 256 
L 750 794 
z
" transform="scale(0.015625)"/>
      <path id="DejaVuSans-37" d="M 525 4666 
L 3525 4666 
L 3525 4397 
L 1831 0 
L 1172 0 
L 2766 4134 
L 525 4134 
L 525 4666 
z
" transform="scale(0.015625)"/>
      <path id="DejaVuSans-78" d="M 3513 3500 
L 2247 1797 
L 3578 0 
L 2900 0 
L 1881 1375 
L 863 0 
L 184 0 
L 1544 1831 
L 300 3500 
L 978 3500 
L 1906 2253 
L 2834 3500 
L 3513 3500 
z
" transform="scale(0.015625)"/>
      <path id="DejaVuSans-39" d="M 703 97 
L 703 672 
Q 941 559 1184 500 
Q 1428 441 1663 441 
Q 2288 441 2617 861 
Q 2947 1281 2994 2138 
Q 2813 1869 2534 1725 
Q 2256 1581 1919 1581 
Q 1219 1581 811 2004 
Q 403 2428 403 3163 
Q 403 3881 828 4315 
Q 1253 4750 1959 4750 
Q 2769 4750 3195 4129 
Q 3622 3509 3622 2328 
Q 3622 1225 3098 567 
Q 2575 -91 1691 -91 
Q 1453 -91 1209 -44 
Q 966 3 703 97 
z
M 1959 2075 
Q 2384 2075 2632 2365 
Q 2881 2656 2881 3163 
Q 2881 3666 2632 3958 
Q 2384 4250 1959 4250 
Q 1534 4250 1286 3958 
Q 1038 3666 1038 3163 
Q 1038 2656 1286 2365 
Q 1534 2075 1959 2075 
z
" transform="scale(0.015625)"/>
     </defs>
     <use xlink:href="#DejaVuSans-51"/>
     <use xlink:href="#DejaVuSans-47" transform="translate(78.710938 0)"/>
     <use xlink:href="#DejaVuSans-33" transform="translate(156.201172 0)"/>
     <use xlink:href="#DejaVuSans-4c" transform="translate(219.824219 0)"/>
     <use xlink:href="#DejaVuSans-20" transform="translate(275.537109 0)"/>
     <use xlink:href="#DejaVuSans-2d" transform="translate(307.324219 0)"/>
     <use xlink:href="#DejaVuSans-20" transform="translate(343.408203 0)"/>
     <use xlink:href="#DejaVuSans-5b" transform="translate(375.195312 0)"/>
     <use xlink:href="#DejaVuSans-31" transform="translate(414.208984 0)"/>
     <use xlink:href="#DejaVuSans-31" transform="translate(477.832031 0)"/>
     <use xlink:href="#DejaVuSans-32" transform="translate(541.455078 0)"/>
     <use xlink:href="#DejaVuSans-2c" transform="translate(605.078125 0)"/>
     <use xlink:href="#DejaVuSans-20" transform="translate(636.865234 0)"/>
     <use xlink:href="#DejaVuSans-31" transform="translate(668.652344 0)"/>
     <use xlink:href="#DejaVuSans-37" transform="translate(732.275391 0)"/>
     <use xlink:href="#DejaVuSans-36" transform="translate(795.898438 0)"/>
     <use xlink:href="#DejaVuSans-5d" transform="translate(859.521484 0)"/>
     <use xlink:href="#DejaVuSans-20" transform="translate(898.535156 0)"/>
     <use xlink:href="#DejaVuSans-78" transform="translate(930.322266 0)"/>
     <use xlink:href="#DejaVuSans-20" transform="translate(989.501953 0)"/>
     <use xlink:href="#DejaVuSans-5b" transform="translate(1021.289062 0)"/>
     <use xlink:href="#DejaVuSans-36" transform="translate(1060.302734 0)"/>
     <use xlink:href="#DejaVuSans-34" transform="translate(1123.925781 0)"/>
     <use xlink:href="#DejaVuSans-2c" transform="translate(1187.548828 0)"/>
     <use xlink:href="#DejaVuSans-20" transform="translate(1219.335938 0)"/>
     <use xlink:href="#DejaVuSans-31" transform="translate(1251.123047 0)"/>
     <use xlink:href="#DejaVuSans-39" transform="translate(1314.746094 0)"/>
     <use xlink:href="#DejaVuSans-32" transform="translate(1378.369141 0)"/>
     <use xlink:href="#DejaVuSans-5d" transform="translate(1441.992188 0)"/>
    </g>
   </g>
   <g id="legend_1">
    <g id="patch_7">
     <path d="M 517.924219 69.171875 
L 699.34 69.171875 
Q 701.54 69.171875 701.54 66.971875 
L 701.54 35.78 
Q 701.54 33.58 699.34 33.58 
L 517.924219 33.58 
Q 515.724219 33.58 515.724219 35.78 
L 515.724219 66.971875 
Q 515.724219 69.171875 517.924219 69.171875 
z
" style="fill: #eaeaf2; opacity: 0.8; stroke: #cccccc; stroke-linejoin: miter"/>
    </g>
    <g id="line2d_3">
     <path d="M 520.124219 42.488281 
L 531.124219 42.488281 
L 542.124219 42.488281 
" style="fill: none; stroke: #000080; stroke-width: 1.5; stroke-linecap: round"/>
    </g>
    <g id="text_15">
     <!-- SurfML -->
     <g style="fill: #262626" transform="translate(550.924219 46.338281) scale(0.11 -0.11)">
      <defs>
       <path id="DejaVuSans-75" d="M 544 1381 
L 544 3500 
L 1119 3500 
L 1119 1403 
Q 1119 906 1312 657 
Q 1506 409 1894 409 
Q 2359 409 2629 706 
Q 2900 1003 2900 1516 
L 2900 3500 
L 3475 3500 
L 3475 0 
L 2900 0 
L 2900 538 
Q 2691 219 2414 64 
Q 2138 -91 1772 -91 
Q 1169 -91 856 284 
Q 544 659 544 1381 
z
M 1991 3584 
L 1991 3584 
z
" transform="scale(0.015625)"/>
       <path id="DejaVuSans-72" d="M 2631 2963 
Q 2534 3019 2420 3045 
Q 2306 3072 2169 3072 
Q 1681 3072 1420 2755 
Q 1159 2438 1159 1844 
L 1159 0 
L 581 0 
L 581 3500 
L 1159 3500 
L 1159 2956 
Q 1341 3275 1631 3429 
Q 1922 3584 2338 3584 
Q 2397 3584 2469 3576 
Q 2541 3569 2628 3553 
L 2631 2963 
z
" transform="scale(0.015625)"/>
       <path id="DejaVuSans-66" d="M 2375 4863 
L 2375 4384 
L 1825 4384 
Q 1516 4384 1395 4259 
Q 1275 4134 1275 3809 
L 1275 3500 
L 2222 3500 
L 2222 3053 
L 1275 3053 
L 1275 0 
L 697 0 
L 697 3053 
L 147 3053 
L 147 3500 
L 697 3500 
L 697 3744 
Q 697 4328 969 4595 
Q 1241 4863 1831 4863 
L 2375 4863 
z
" transform="scale(0.015625)"/>
      </defs>
      <use xlink:href="#DejaVuSans-53"/>
      <use xlink:href="#DejaVuSans-75" transform="translate(63.476562 0)"/>
      <use xlink:href="#DejaVuSans-72" transform="translate(126.855469 0)"/>
      <use xlink:href="#DejaVuSans-66" transform="translate(167.96875 0)"/>
      <use xlink:href="#DejaVuSans-4d" transform="translate(203.173828 0)"/>
      <use xlink:href="#DejaVuSans-4c" transform="translate(289.453125 0)"/>
     </g>
    </g>
    <g id="line2d_4">
     <path d="M 520.124219 58.634219 
L 531.124219 58.634219 
L 542.124219 58.634219 
" style="fill: none; stroke-dasharray: 5.55,2.4; stroke-dashoffset: 0; stroke: #000080; stroke-width: 1.5"/>
    </g>
    <g id="text_16">
     <!-- SurfML - No Regularization -->
     <g style="fill: #262626" transform="translate(550.924219 62.484219) scale(0.11 -0.11)">
      <defs>
       <path id="DejaVuSans-4e" d="M 628 4666 
L 1478 4666 
L 3547 763 
L 3547 4666 
L 4159 4666 
L 4159 0 
L 3309 0 
L 1241 3903 
L 1241 0 
L 628 0 
L 628 4666 
z
" transform="scale(0.015625)"/>
       <path id="DejaVuSans-6f" d="M 1959 3097 
Q 1497 3097 1228 2736 
Q 959 2375 959 1747 
Q 959 1119 1226 758 
Q 1494 397 1959 397 
Q 2419 397 2687 759 
Q 2956 1122 2956 1747 
Q 2956 2369 2687 2733 
Q 2419 3097 1959 3097 
z
M 1959 3584 
Q 2709 3584 3137 3096 
Q 3566 2609 3566 1747 
Q 3566 888 3137 398 
Q 2709 -91 1959 -91 
Q 1206 -91 779 398 
Q 353 888 353 1747 
Q 353 2609 779 3096 
Q 1206 3584 1959 3584 
z
" transform="scale(0.015625)"/>
       <path id="DejaVuSans-67" d="M 2906 1791 
Q 2906 2416 2648 2759 
Q 2391 3103 1925 3103 
Q 1463 3103 1205 2759 
Q 947 2416 947 1791 
Q 947 1169 1205 825 
Q 1463 481 1925 481 
Q 2391 481 2648 825 
Q 2906 1169 2906 1791 
z
M 3481 434 
Q 3481 -459 3084 -895 
Q 2688 -1331 1869 -1331 
Q 1566 -1331 1297 -1286 
Q 1028 -1241 775 -1147 
L 775 -588 
Q 1028 -725 1275 -790 
Q 1522 -856 1778 -856 
Q 2344 -856 2625 -561 
Q 2906 -266 2906 331 
L 2906 616 
Q 2728 306 2450 153 
Q 2172 0 1784 0 
Q 1141 0 747 490 
Q 353 981 353 1791 
Q 353 2603 747 3093 
Q 1141 3584 1784 3584 
Q 2172 3584 2450 3431 
Q 2728 3278 2906 2969 
L 2906 3500 
L 3481 3500 
L 3481 434 
z
" transform="scale(0.015625)"/>
       <path id="DejaVuSans-6c" d="M 603 4863 
L 1178 4863 
L 1178 0 
L 603 0 
L 603 4863 
z
" transform="scale(0.015625)"/>
       <path id="DejaVuSans-7a" d="M 353 3500 
L 3084 3500 
L 3084 2975 
L 922 459 
L 3084 459 
L 3084 0 
L 275 0 
L 275 525 
L 2438 3041 
L 353 3041 
L 353 3500 
z
" transform="scale(0.015625)"/>
       <path id="DejaVuSans-74" d="M 1172 4494 
L 1172 3500 
L 2356 3500 
L 2356 3053 
L 1172 3053 
L 1172 1153 
Q 1172 725 1289 603 
Q 1406 481 1766 481 
L 2356 481 
L 2356 0 
L 1766 0 
Q 1100 0 847 248 
Q 594 497 594 1153 
L 594 3053 
L 172 3053 
L 172 3500 
L 594 3500 
L 594 4494 
L 1172 4494 
z
" transform="scale(0.015625)"/>
      </defs>
      <use xlink:href="#DejaVuSans-53"/>
      <use xlink:href="#DejaVuSans-75" transform="translate(63.476562 0)"/>
      <use xlink:href="#DejaVuSans-72" transform="translate(126.855469 0)"/>
      <use xlink:href="#DejaVuSans-66" transform="translate(167.96875 0)"/>
      <use xlink:href="#DejaVuSans-4d" transform="translate(203.173828 0)"/>
      <use xlink:href="#DejaVuSans-4c" transform="translate(289.453125 0)"/>
      <use xlink:href="#DejaVuSans-20" transform="translate(345.166016 0)"/>
      <use xlink:href="#DejaVuSans-2d" transform="translate(376.953125 0)"/>
      <use xlink:href="#DejaVuSans-20" transform="translate(413.037109 0)"/>
      <use xlink:href="#DejaVuSans-4e" transform="translate(444.824219 0)"/>
      <use xlink:href="#DejaVuSans-6f" transform="translate(519.628906 0)"/>
      <use xlink:href="#DejaVuSans-20" transform="translate(580.810547 0)"/>
      <use xlink:href="#DejaVuSans-52" transform="translate(612.597656 0)"/>
      <use xlink:href="#DejaVuSans-65" transform="translate(677.580078 0)"/>
      <use xlink:href="#DejaVuSans-67" transform="translate(739.103516 0)"/>
      <use xlink:href="#DejaVuSans-75" transform="translate(802.580078 0)"/>
      <use xlink:href="#DejaVuSans-6c" transform="translate(865.958984 0)"/>
      <use xlink:href="#DejaVuSans-61" transform="translate(893.742188 0)"/>
      <use xlink:href="#DejaVuSans-72" transform="translate(955.021484 0)"/>
      <use xlink:href="#DejaVuSans-69" transform="translate(996.134766 0)"/>
      <use xlink:href="#DejaVuSans-7a" transform="translate(1023.917969 0)"/>
      <use xlink:href="#DejaVuSans-61" transform="translate(1076.408203 0)"/>
      <use xlink:href="#DejaVuSans-74" transform="translate(1137.6875 0)"/>
      <use xlink:href="#DejaVuSans-69" transform="translate(1176.896484 0)"/>
      <use xlink:href="#DejaVuSans-6f" transform="translate(1204.679688 0)"/>
      <use xlink:href="#DejaVuSans-6e" transform="translate(1265.861328 0)"/>
     </g>
    </g>
   </g>
  </g>
 </g>
 <defs>
  <clipPath id="p60e449c98c">
   <rect x="55.56" y="28.08" width="651.48" height="282.9"/>
  </clipPath>
 </defs>
</svg>
