<?xml version="1.0" encoding="utf-8" standalone="no"?>
<!DOCTYPE svg PUBLIC "-//W3C//DTD SVG 1.1//EN"
  "http://www.w3.org/Graphics/SVG/1.1/DTD/svg11.dtd">
<svg xmlns:xlink="http://www.w3.org/1999/xlink" width="720pt" height="360pt" viewBox="0 0 720 360" xmlns="http://www.w3.org/2000/svg" version="1.1">
 <metadata>
  <rdf:RDF xmlns:dc="http://purl.org/dc/elements/1.1/" xmlns:cc="http://creativecommons.org/ns#" xmlns:rdf="http://www.w3.org/1999/02/22-rdf-syntax-ns#">
   <cc:Work>
    <dc:type rdf:resource="http://purl.org/dc/dcmitype/StillImage"/>
    <dc:date>2026-03-24T15:46:58.882606</dc:date>
    <dc:format>image/svg+xml</dc:format>
    <dc:creator>
     <cc:Agent>
      <dc:title>Matplotlib v3.10.6, https://matplotlib.org/</dc:title>
     </cc:Agent>
    </dc:creator>
   </cc:Work>
  </rdf:RDF>
 </metadata>
 <defs>
  <style type="text/css">*{stroke-linejoin: round; stroke-linecap: butt}</style>
 </defs>
 <g id="figure_1">
  <g id="patch_1">
   <path d="M 0 360 
L 720 360 
L 720 0 
L 0 0 
z
" style="fill: #ffffff"/>
  </g>
  <g id="axes_1">
   <g id="patch_2">
    <path d="M 55.56 310.98 
L 707.04 310.98 
L 707.04 28.08 
L 55.56 28.08 
z
" style="fill: #eaeaf2"/>
   </g>
   <g id="matplotlib.axis_1">
    <g id="xtick_1">
     <g id="text_1">
      <!-- 0 -->
      <g style="fill: #262626" transform="translate(81.673352 328.838281) scale(0.11 -0.11)">
       <defs>
        <path id="DejaVuSans-30" d="M 2034 4250 
Q 1547 4250 1301 3770 
Q 1056 3291 1056 2328 
Q 1056 1369 1301 889 
Q 1547 409 2034 409 
Q 2525 409 2770 889 
Q 3016 1369 3016 2328 
Q 3016 3291 2770 3770 
Q 2525 4250 2034 4250 
z
M 2034 4750 
Q 2819 4750 3233 4129 
Q 3647 3509 3647 2328 
Q 3647 1150 3233 529 
Q 2819 -91 2034 -91 
Q 1250 -91 836 529 
Q 422 1150 422 2328 
Q 422 3509 836 4129 
Q 1250 4750 2034 4750 
z
" transform="scale(0.015625)"/>
       </defs>
       <use xlink:href="#DejaVuSans-30"/>
      </g>
     </g>
    </g>
    <g id="xtick_2">
     <g id="text_2">
      <!-- 5 -->
      <g style="fill: #262626" transform="translate(224.385291 328.838281) scale(0.11 -0.11)">
       <defs>
        <path id="DejaVuSans-35" d="M 691 4666 
L 3169 4666 
L 3169 4134 
L 1269 4134 
L 1269 2991 
Q 1406 3038 1543 3061 
Q 1681 3084 1819 3084 
Q 2600 3084 3056 2656 
Q 3513 2228 3513 1497 
Q 3513 744 3044 326 
Q 2575 -91 1722 -91 
Q 1428 -91 1123 -41 
Q 819 9 494 109 
L 494 744 
Q 775 591 1075 516 
Q 1375 441 1709 441 
Q 2250 441 2565 725 
Q 2881 1009 2881 1497 
Q 2881 1984 2565 2268 
Q 2250 2553 1709 2553 
Q 1456 2553 1204 2497 
Q 953 2441 691 2322 
L 691 4666 
z
" transform="scale(0.015625)"/>
       </defs>
       <use xlink:href="#DejaVuSans-35"/>
      </g>
     </g>
    </g>
    <g id="xtick_3">
     <g id="text_3">
      <!-- 10 -->
      <g style="fill: #262626" transform="translate(363.597855 328.838281) scale(0.11 -0.11)">
       <defs>
        <path id="DejaVuSans-31" d="M 794 531 
L 1825 531 
L 1825 4091 
L 703 3866 
L 703 4441 
L 1819 4666 
L 2450 4666 
L 2450 531 
L 3481 531 
L 3481 0 
L 794 0 
L 794 531 
z
" transform="scale(0.015625)"/>
       </defs>
       <use xlink:href="#DejaVuSans-31"/>
       <use xlink:href="#DejaVuSans-30" transform="translate(63.623047 0)"/>
      </g>
     </g>
    </g>
    <g id="xtick_4">
     <g id="text_4">
      <!-- 15 -->
      <g style="fill: #262626" transform="translate(506.309793 328.838281) scale(0.11 -0.11)">
       <use xlink:href="#DejaVuSans-31"/>
       <use xlink:href="#DejaVuSans-35" transform="translate(63.623047 0)"/>
      </g>
     </g>
    </g>
    <g id="xtick_5">
     <g id="text_5">
      <!-- 20 -->
      <g style="fill: #262626" transform="translate(649.021732 328.838281) scale(0.11 -0.11)">
       <defs>
        <path id="DejaVuSans-32" d="M 1228 531 
L 3431 531 
L 3431 0 
L 469 0 
L 469 531 
Q 828 903 1448 1529 
Q 2069 2156 2228 2338 
Q 2531 2678 2651 2914 
Q 2772 3150 2772 3378 
Q 2772 3750 2511 3984 
Q 2250 4219 1831 4219 
Q 1534 4219 1204 4116 
Q 875 4013 500 3803 
L 500 4441 
Q 881 4594 1212 4672 
Q 1544 4750 1819 4750 
Q 2544 4750 2975 4387 
Q 3406 4025 3406 3419 
Q 3406 3131 3298 2873 
Q 3191 2616 2906 2266 
Q 2828 2175 2409 1742 
Q 1991 1309 1228 531 
z
" transform="scale(0.015625)"/>
       </defs>
       <use xlink:href="#DejaVuSans-32"/>
       <use xlink:href="#DejaVuSans-30" transform="translate(63.623047 0)"/>
      </g>
     </g>
    </g>
    <g id="text_6">
     <!-- Time [days] -->
     <g style="fill: #262626" transform="translate(345.868125 344.244062) scale(0.12 -0.12)">
      <defs>
       <path id="DejaVuSans-54" d="M -19 4666 
L 3928 4666 
L 3928 4134 
L 2272 4134 
L 2272 0 
L 1638 0 
L 1638 4134 
L -19 4134 
L -19 4666 
z
" transform="scale(0.015625)"/>
       <path id="DejaVuSans-69" d="M 603 3500 
L 1178 3500 
L 1178 0 
L 603 0 
L 603 3500 
z
M 603 4863 
L 1178 4863 
L 1178 4134 
L 603 4134 
L 603 4863 
z
" transform="scale(0.015625)"/>
       <path id="DejaVuSans-6d" d="M 3328 2828 
Q 3544 3216 3844 3400 
Q 4144 3584 4550 3584 
Q 5097 3584 5394 3201 
Q 5691 2819 5691 2113 
L 5691 0 
L 5113 0 
L 5113 2094 
Q 5113 2597 4934 2840 
Q 4756 3084 4391 3084 
Q 3944 3084 3684 2787 
Q 3425 2491 3425 1978 
L 3425 0 
L 2847 0 
L 2847 2094 
Q 2847 2600 2669 2842 
Q 2491 3084 2119 3084 
Q 1678 3084 1418 2786 
Q 1159 2488 1159 1978 
L 1159 0 
L 581 0 
L 581 3500 
L 1159 3500 
L 1159 2956 
Q 1356 3278 1631 3431 
Q 1906 3584 2284 3584 
Q 2666 3584 2933 3390 
Q 3200 3197 3328 2828 
z
" transform="scale(0.015625)"/>
       <path id="DejaVuSans-65" d="M 3597 1894 
L 3597 1613 
L 953 1613 
Q 991 1019 1311 708 
Q 1631 397 2203 397 
Q 2534 397 2845 478 
Q 3156 559 3463 722 
L 3463 178 
Q 3153 47 2828 -22 
Q 2503 -91 2169 -91 
Q 1331 -91 842 396 
Q 353 884 353 1716 
Q 353 2575 817 3079 
Q 1281 3584 2069 3584 
Q 2775 3584 3186 3129 
Q 3597 2675 3597 1894 
z
M 3022 2063 
Q 3016 2534 2758 2815 
Q 2500 3097 2075 3097 
Q 1594 3097 1305 2825 
Q 1016 2553 972 2059 
L 3022 2063 
z
" transform="scale(0.015625)"/>
       <path id="DejaVuSans-20" transform="scale(0.015625)"/>
       <path id="DejaVuSans-5b" d="M 550 4863 
L 1875 4863 
L 1875 4416 
L 1125 4416 
L 1125 -397 
L 1875 -397 
L 1875 -844 
L 550 -844 
L 550 4863 
z
" transform="scale(0.015625)"/>
       <path id="DejaVuSans-64" d="M 2906 2969 
L 2906 4863 
L 3481 4863 
L 3481 0 
L 2906 0 
L 2906 525 
Q 2725 213 2448 61 
Q 2172 -91 1784 -91 
Q 1150 -91 751 415 
Q 353 922 353 1747 
Q 353 2572 751 3078 
Q 1150 3584 1784 3584 
Q 2172 3584 2448 3432 
Q 2725 3281 2906 2969 
z
M 947 1747 
Q 947 1113 1208 752 
Q 1469 391 1925 391 
Q 2381 391 2643 752 
Q 2906 1113 2906 1747 
Q 2906 2381 2643 2742 
Q 2381 3103 1925 3103 
Q 1469 3103 1208 2742 
Q 947 2381 947 1747 
z
" transform="scale(0.015625)"/>
       <path id="DejaVuSans-61" d="M 2194 1759 
Q 1497 1759 1228 1600 
Q 959 1441 959 1056 
Q 959 750 1161 570 
Q 1363 391 1709 391 
Q 2188 391 2477 730 
Q 2766 1069 2766 1631 
L 2766 1759 
L 2194 1759 
z
M 3341 1997 
L 3341 0 
L 2766 0 
L 2766 531 
Q 2569 213 2275 61 
Q 1981 -91 1556 -91 
Q 1019 -91 701 211 
Q 384 513 384 1019 
Q 384 1609 779 1909 
Q 1175 2209 1959 2209 
L 2766 2209 
L 2766 2266 
Q 2766 2663 2505 2880 
Q 2244 3097 1772 3097 
Q 1472 3097 1187 3025 
Q 903 2953 641 2809 
L 641 3341 
Q 956 3463 1253 3523 
Q 1550 3584 1831 3584 
Q 2591 3584 2966 3190 
Q 3341 2797 3341 1997 
z
" transform="scale(0.015625)"/>
       <path id="DejaVuSans-79" d="M 2059 -325 
Q 1816 -950 1584 -1140 
Q 1353 -1331 966 -1331 
L 506 -1331 
L 506 -850 
L 844 -850 
Q 1081 -850 1212 -737 
Q 1344 -625 1503 -206 
L 1606 56 
L 191 3500 
L 800 3500 
L 1894 763 
L 2988 3500 
L 3597 3500 
L 2059 -325 
z
" transform="scale(0.015625)"/>
       <path id="DejaVuSans-73" d="M 2834 3397 
L 2834 2853 
Q 2591 2978 2328 3040 
Q 2066 3103 1784 3103 
Q 1356 3103 1142 2972 
Q 928 2841 928 2578 
Q 928 2378 1081 2264 
Q 1234 2150 1697 2047 
L 1894 2003 
Q 2506 1872 2764 1633 
Q 3022 1394 3022 966 
Q 3022 478 2636 193 
Q 2250 -91 1575 -91 
Q 1294 -91 989 -36 
Q 684 19 347 128 
L 347 722 
Q 666 556 975 473 
Q 1284 391 1588 391 
Q 1994 391 2212 530 
Q 2431 669 2431 922 
Q 2431 1156 2273 1281 
Q 2116 1406 1581 1522 
L 1381 1569 
Q 847 1681 609 1914 
Q 372 2147 372 2553 
Q 372 3047 722 3315 
Q 1072 3584 1716 3584 
Q 2034 3584 2315 3537 
Q 2597 3491 2834 3397 
z
" transform="scale(0.015625)"/>
       <path id="DejaVuSans-5d" d="M 1947 4863 
L 1947 -844 
L 622 -844 
L 622 -397 
L 1369 -397 
L 1369 4416 
L 622 4416 
L 622 4863 
L 1947 4863 
z
" transform="scale(0.015625)"/>
      </defs>
      <use xlink:href="#DejaVuSans-54"/>
      <use xlink:href="#DejaVuSans-69" transform="translate(57.958984 0)"/>
      <use xlink:href="#DejaVuSans-6d" transform="translate(85.742188 0)"/>
      <use xlink:href="#DejaVuSans-65" transform="translate(183.154297 0)"/>
      <use xlink:href="#DejaVuSans-20" transform="translate(244.677734 0)"/>
      <use xlink:href="#DejaVuSans-5b" transform="translate(276.464844 0)"/>
      <use xlink:href="#DejaVuSans-64" transform="translate(315.478516 0)"/>
      <use xlink:href="#DejaVuSans-61" transform="translate(378.955078 0)"/>
      <use xlink:href="#DejaVuSans-79" transform="translate(440.234375 0)"/>
      <use xlink:href="#DejaVuSans-73" transform="translate(499.414062 0)"/>
      <use xlink:href="#DejaVuSans-5d" transform="translate(551.513672 0)"/>
     </g>
    </g>
   </g>
   <g id="matplotlib.axis_2">
    <g id="ytick_1">
     <g id="text_7">
      <!-- 0.0 -->
      <g style="fill: #262626" transform="translate(28.566562 302.30005) scale(0.11 -0.11)">
       <defs>
        <path id="DejaVuSans-2e" d="M 684 794 
L 1344 794 
L 1344 0 
L 684 0 
L 684 794 
z
" transform="scale(0.015625)"/>
       </defs>
       <use xlink:href="#DejaVuSans-30"/>
       <use xlink:href="#DejaVuSans-2e" transform="translate(63.623047 0)"/>
       <use xlink:href="#DejaVuSans-30" transform="translate(95.410156 0)"/>
      </g>
     </g>
    </g>
    <g id="ytick_2">
     <g id="text_8">
      <!-- 0.2 -->
      <g style="fill: #262626" transform="translate(28.566562 250.863686) scale(0.11 -0.11)">
       <use xlink:href="#DejaVuSans-30"/>
       <use xlink:href="#DejaVuSans-2e" transform="translate(63.623047 0)"/>
       <use xlink:href="#DejaVuSans-32" transform="translate(95.410156 0)"/>
      </g>
     </g>
    </g>
    <g id="ytick_3">
     <g id="text_9">
      <!-- 0.4 -->
      <g style="fill: #262626" transform="translate(28.566562 199.427322) scale(0.11 -0.11)">
       <defs>
        <path id="DejaVuSans-34" d="M 2419 4116 
L 825 1625 
L 2419 1625 
L 2419 4116 
z
M 2253 4666 
L 3047 4666 
L 3047 1625 
L 3713 1625 
L 3713 1100 
L 3047 1100 
L 3047 0 
L 2419 0 
L 2419 1100 
L 313 1100 
L 313 1709 
L 2253 4666 
z
" transform="scale(0.015625)"/>
       </defs>
       <use xlink:href="#DejaVuSans-30"/>
       <use xlink:href="#DejaVuSans-2e" transform="translate(63.623047 0)"/>
       <use xlink:href="#DejaVuSans-34" transform="translate(95.410156 0)"/>
      </g>
     </g>
    </g>
    <g id="ytick_4">
     <g id="text_10">
      <!-- 0.6 -->
      <g style="fill: #262626" transform="translate(28.566562 147.990959) scale(0.11 -0.11)">
       <defs>
        <path id="DejaVuSans-36" d="M 2113 2584 
Q 1688 2584 1439 2293 
Q 1191 2003 1191 1497 
Q 1191 994 1439 701 
Q 1688 409 2113 409 
Q 2538 409 2786 701 
Q 3034 994 3034 1497 
Q 3034 2003 2786 2293 
Q 2538 2584 2113 2584 
z
M 3366 4563 
L 3366 3988 
Q 3128 4100 2886 4159 
Q 2644 4219 2406 4219 
Q 1781 4219 1451 3797 
Q 1122 3375 1075 2522 
Q 1259 2794 1537 2939 
Q 1816 3084 2150 3084 
Q 2853 3084 3261 2657 
Q 3669 2231 3669 1497 
Q 3669 778 3244 343 
Q 2819 -91 2113 -91 
Q 1303 -91 875 529 
Q 447 1150 447 2328 
Q 447 3434 972 4092 
Q 1497 4750 2381 4750 
Q 2619 4750 2861 4703 
Q 3103 4656 3366 4563 
z
" transform="scale(0.015625)"/>
       </defs>
       <use xlink:href="#DejaVuSans-30"/>
       <use xlink:href="#DejaVuSans-2e" transform="translate(63.623047 0)"/>
       <use xlink:href="#DejaVuSans-36" transform="translate(95.410156 0)"/>
      </g>
     </g>
    </g>
    <g id="ytick_5">
     <g id="text_11">
      <!-- 0.8 -->
      <g style="fill: #262626" transform="translate(28.566562 96.554595) scale(0.11 -0.11)">
       <defs>
        <path id="DejaVuSans-38" d="M 2034 2216 
Q 1584 2216 1326 1975 
Q 1069 1734 1069 1313 
Q 1069 891 1326 650 
Q 1584 409 2034 409 
Q 2484 409 2743 651 
Q 3003 894 3003 1313 
Q 3003 1734 2745 1975 
Q 2488 2216 2034 2216 
z
M 1403 2484 
Q 997 2584 770 2862 
Q 544 3141 544 3541 
Q 544 4100 942 4425 
Q 1341 4750 2034 4750 
Q 2731 4750 3128 4425 
Q 3525 4100 3525 3541 
Q 3525 3141 3298 2862 
Q 3072 2584 2669 2484 
Q 3125 2378 3379 2068 
Q 3634 1759 3634 1313 
Q 3634 634 3220 271 
Q 2806 -91 2034 -91 
Q 1263 -91 848 271 
Q 434 634 434 1313 
Q 434 1759 690 2068 
Q 947 2378 1403 2484 
z
M 1172 3481 
Q 1172 3119 1398 2916 
Q 1625 2713 2034 2713 
Q 2441 2713 2670 2916 
Q 2900 3119 2900 3481 
Q 2900 3844 2670 4047 
Q 2441 4250 2034 4250 
Q 1625 4250 1398 4047 
Q 1172 3844 1172 3481 
z
" transform="scale(0.015625)"/>
       </defs>
       <use xlink:href="#DejaVuSans-30"/>
       <use xlink:href="#DejaVuSans-2e" transform="translate(63.623047 0)"/>
       <use xlink:href="#DejaVuSans-38" transform="translate(95.410156 0)"/>
      </g>
     </g>
    </g>
    <g id="ytick_6">
     <g id="text_12">
      <!-- 1.0 -->
      <g style="fill: #262626" transform="translate(28.566562 45.118232) scale(0.11 -0.11)">
       <use xlink:href="#DejaVuSans-31"/>
       <use xlink:href="#DejaVuSans-2e" transform="translate(63.623047 0)"/>
       <use xlink:href="#DejaVuSans-30" transform="translate(95.410156 0)"/>
      </g>
     </g>
    </g>
    <g id="text_13">
     <!-- ψ₂ nRMSE -->
     <g style="fill: #262626" transform="translate(22.070937 198.549375) rotate(-90) scale(0.12 -0.12)">
      <defs>
       <path id="DejaVuSans-3c8" d="M 1816 -78 
Q 1094 38 759 341 
Q 350 713 350 1472 
L 350 3500 
L 931 3500 
L 931 1494 
Q 931 922 1197 684 
Q 1428 478 1816 434 
L 1816 3500 
L 2388 3500 
L 2388 438 
Q 2797 481 3006 688 
Q 3272 950 3272 1497 
L 3272 3500 
L 3853 3500 
L 3853 1475 
Q 3853 688 3444 344 
Q 3075 34 2388 -75 
L 2388 -1331 
L 1816 -1331 
L 1816 -78 
z
" transform="scale(0.015625)"/>
       <path id="DejaVuSans-2082" d="M 838 356 
L 2163 356 
L 2163 0 
L 294 0 
L 294 343 
Q 400 440 597 615 
Q 1672 1568 1672 1862 
Q 1672 2068 1509 2194 
Q 1347 2321 1081 2321 
Q 919 2321 728 2266 
Q 538 2212 313 2103 
L 313 2487 
Q 553 2575 761 2618 
Q 969 2662 1147 2662 
Q 1600 2662 1872 2456 
Q 2144 2250 2144 1912 
Q 2144 1478 1109 590 
Q 934 440 838 356 
z
" transform="scale(0.015625)"/>
       <path id="DejaVuSans-6e" d="M 3513 2113 
L 3513 0 
L 2938 0 
L 2938 2094 
Q 2938 2591 2744 2837 
Q 2550 3084 2163 3084 
Q 1697 3084 1428 2787 
Q 1159 2491 1159 1978 
L 1159 0 
L 581 0 
L 581 3500 
L 1159 3500 
L 1159 2956 
Q 1366 3272 1645 3428 
Q 1925 3584 2291 3584 
Q 2894 3584 3203 3211 
Q 3513 2838 3513 2113 
z
" transform="scale(0.015625)"/>
       <path id="DejaVuSans-52" d="M 2841 2188 
Q 3044 2119 3236 1894 
Q 3428 1669 3622 1275 
L 4263 0 
L 3584 0 
L 2988 1197 
Q 2756 1666 2539 1819 
Q 2322 1972 1947 1972 
L 1259 1972 
L 1259 0 
L 628 0 
L 628 4666 
L 2053 4666 
Q 2853 4666 3247 4331 
Q 3641 3997 3641 3322 
Q 3641 2881 3436 2590 
Q 3231 2300 2841 2188 
z
M 1259 4147 
L 1259 2491 
L 2053 2491 
Q 2509 2491 2742 2702 
Q 2975 2913 2975 3322 
Q 2975 3731 2742 3939 
Q 2509 4147 2053 4147 
L 1259 4147 
z
" transform="scale(0.015625)"/>
       <path id="DejaVuSans-4d" d="M 628 4666 
L 1569 4666 
L 2759 1491 
L 3956 4666 
L 4897 4666 
L 4897 0 
L 4281 0 
L 4281 4097 
L 3078 897 
L 2444 897 
L 1241 4097 
L 1241 0 
L 628 0 
L 628 4666 
z
" transform="scale(0.015625)"/>
       <path id="DejaVuSans-53" d="M 3425 4513 
L 3425 3897 
Q 3066 4069 2747 4153 
Q 2428 4238 2131 4238 
Q 1616 4238 1336 4038 
Q 1056 3838 1056 3469 
Q 1056 3159 1242 3001 
Q 1428 2844 1947 2747 
L 2328 2669 
Q 3034 2534 3370 2195 
Q 3706 1856 3706 1288 
Q 3706 609 3251 259 
Q 2797 -91 1919 -91 
Q 1588 -91 1214 -16 
Q 841 59 441 206 
L 441 856 
Q 825 641 1194 531 
Q 1563 422 1919 422 
Q 2459 422 2753 634 
Q 3047 847 3047 1241 
Q 3047 1584 2836 1778 
Q 2625 1972 2144 2069 
L 1759 2144 
Q 1053 2284 737 2584 
Q 422 2884 422 3419 
Q 422 4038 858 4394 
Q 1294 4750 2059 4750 
Q 2388 4750 2728 4690 
Q 3069 4631 3425 4513 
z
" transform="scale(0.015625)"/>
       <path id="DejaVuSans-45" d="M 628 4666 
L 3578 4666 
L 3578 4134 
L 1259 4134 
L 1259 2753 
L 3481 2753 
L 3481 2222 
L 1259 2222 
L 1259 531 
L 3634 531 
L 3634 0 
L 628 0 
L 628 4666 
z
" transform="scale(0.015625)"/>
      </defs>
      <use xlink:href="#DejaVuSans-3c8"/>
      <use xlink:href="#DejaVuSans-2082" transform="translate(65.966797 0)"/>
      <use xlink:href="#DejaVuSans-20" transform="translate(106.054688 0)"/>
      <use xlink:href="#DejaVuSans-6e" transform="translate(137.841797 0)"/>
      <use xlink:href="#DejaVuSans-52" transform="translate(201.220703 0)"/>
      <use xlink:href="#DejaVuSans-4d" transform="translate(270.703125 0)"/>
      <use xlink:href="#DejaVuSans-53" transform="translate(356.982422 0)"/>
      <use xlink:href="#DejaVuSans-45" transform="translate(420.458984 0)"/>
     </g>
    </g>
   </g>
   <g id="FillBetweenPolyCollection_1">
    <defs>
     <path id="mcf1235ae17" d="M 85.172727 -276.539101 
L 85.172727 -242.505984 
L 87.55126 -242.696718 
L 89.929792 -242.874235 
L 92.308324 -243.038022 
L 94.686857 -243.187654 
L 97.065389 -243.32274 
L 99.443921 -243.442894 
L 101.822453 -243.547886 
L 104.200986 -243.637597 
L 106.579518 -243.711989 
L 108.95805 -243.771116 
L 111.336583 -243.815064 
L 113.715115 -243.844003 
L 116.093647 -243.858217 
L 118.47218 -243.858075 
L 120.850712 -243.843986 
L 123.229244 -243.816414 
L 125.607777 -243.775938 
L 127.986309 -243.723199 
L 130.364841 -243.658894 
L 132.743373 -243.583777 
L 135.121906 -243.498658 
L 137.500438 -243.404414 
L 139.87897 -243.301964 
L 142.257503 -243.192249 
L 144.636035 -243.07624 
L 147.014567 -242.954927 
L 149.3931 -242.829322 
L 151.771632 -242.70043 
L 154.150164 -242.569238 
L 156.528697 -242.436716 
L 158.907229 -242.30383 
L 161.285761 -242.171508 
L 163.664294 -242.040625 
L 166.042826 -241.912015 
L 168.421358 -241.786477 
L 170.79989 -241.664765 
L 173.178423 -241.547582 
L 175.556955 -241.435566 
L 177.935487 -241.329294 
L 180.31402 -241.229278 
L 182.692552 -241.135957 
L 185.071084 -241.049695 
L 187.449617 -240.97078 
L 189.828149 -240.899431 
L 192.206681 -240.835794 
L 194.585214 -240.779933 
L 196.963746 -240.73184 
L 199.342278 -240.69144 
L 201.720811 -240.658578 
L 204.099343 -240.633048 
L 206.477875 -240.614584 
L 208.856407 -240.602864 
L 211.23494 -240.597533 
L 213.613472 -240.598196 
L 215.992004 -240.604427 
L 218.370537 -240.615771 
L 220.749069 -240.631753 
L 223.127601 -240.651887 
L 225.506134 -240.675675 
L 227.884666 -240.702611 
L 230.263198 -240.732188 
L 232.641731 -240.7639 
L 235.020263 -240.797248 
L 237.398795 -240.831741 
L 239.777327 -240.866895 
L 242.15586 -240.90224 
L 244.534392 -240.937317 
L 246.912924 -240.971695 
L 249.291457 -241.004962 
L 251.669989 -241.036734 
L 254.048521 -241.066666 
L 256.427054 -241.094449 
L 258.805586 -241.119811 
L 261.184118 -241.142513 
L 263.562651 -241.162345 
L 265.941183 -241.179125 
L 268.319715 -241.192684 
L 270.698248 -241.202874 
L 273.07678 -241.209559 
L 275.455312 -241.212622 
L 277.833844 -241.211953 
L 280.212377 -241.20745 
L 282.590909 -241.199008 
L 284.969441 -241.186513 
L 287.347974 -241.169844 
L 289.726506 -241.148871 
L 292.105038 -241.12346 
L 294.483571 -241.093476 
L 296.862103 -241.058779 
L 299.240635 -241.019223 
L 301.619168 -240.974662 
L 303.9977 -240.92494 
L 306.376232 -240.869909 
L 308.754765 -240.809448 
L 311.133297 -240.743444 
L 313.511829 -240.671803 
L 315.890361 -240.594459 
L 318.268894 -240.511385 
L 320.647426 -240.422594 
L 323.025958 -240.328149 
L 325.404491 -240.228158 
L 327.783023 -240.122792 
L 330.161555 -240.012277 
L 332.540088 -239.896897 
L 334.91862 -239.776987 
L 337.297152 -239.652931 
L 339.675685 -239.525154 
L 342.054217 -239.394118 
L 344.432749 -239.260304 
L 346.811281 -239.124212 
L 349.189814 -238.986353 
L 351.568346 -238.847236 
L 353.946878 -238.707346 
L 356.325411 -238.567149 
L 358.703943 -238.427078 
L 361.082475 -238.287537 
L 363.461008 -238.148898 
L 365.83954 -238.011497 
L 368.218072 -237.875639 
L 370.596605 -237.741596 
L 372.975137 -237.609611 
L 375.353669 -237.479896 
L 377.732202 -237.352639 
L 380.110734 -237.228003 
L 382.489266 -237.106127 
L 384.867798 -236.987128 
L 387.246331 -236.871114 
L 389.624863 -236.758182 
L 392.003395 -236.648426 
L 394.381928 -236.541924 
L 396.76046 -236.438731 
L 399.138992 -236.338883 
L 401.517525 -236.242415 
L 403.896057 -236.149358 
L 406.274589 -236.059759 
L 408.653122 -235.973665 
L 411.031654 -235.891131 
L 413.410186 -235.812218 
L 415.788719 -235.736978 
L 418.167251 -235.665456 
L 420.545783 -235.59768 
L 422.924315 -235.533663 
L 425.302848 -235.473398 
L 427.68138 -235.416865 
L 430.059912 -235.364028 
L 432.438445 -235.31483 
L 434.816977 -235.269209 
L 437.195509 -235.227089 
L 439.574042 -235.188384 
L 441.952574 -235.153003 
L 444.331106 -235.120847 
L 446.709639 -235.091828 
L 449.088171 -235.065858 
L 451.466703 -235.042854 
L 453.845235 -235.022744 
L 456.223768 -235.005476 
L 458.6023 -234.991016 
L 460.980832 -234.979367 
L 463.359365 -234.970565 
L 465.737897 -234.964669 
L 468.116429 -234.961754 
L 470.494962 -234.961932 
L 472.873494 -234.965345 
L 475.252026 -234.972169 
L 477.630559 -234.982599 
L 480.009091 -234.996844 
L 482.387623 -235.015134 
L 484.766156 -235.037708 
L 487.144688 -235.064815 
L 489.52322 -235.096699 
L 491.901752 -235.13359 
L 494.280285 -235.1757 
L 496.658817 -235.223227 
L 499.037349 -235.276333 
L 501.415882 -235.335162 
L 503.794414 -235.39982 
L 506.172946 -235.470381 
L 508.551479 -235.546876 
L 510.930011 -235.629291 
L 513.308543 -235.717557 
L 515.687076 -235.811555 
L 518.065608 -235.911114 
L 520.44414 -236.015998 
L 522.822673 -236.125913 
L 525.201205 -236.240508 
L 527.579737 -236.359377 
L 529.958269 -236.482071 
L 532.336802 -236.608101 
L 534.715334 -236.736926 
L 537.093866 -236.867973 
L 539.472399 -237.000645 
L 541.850931 -237.134331 
L 544.229463 -237.268429 
L 546.607996 -237.402333 
L 548.986528 -237.535445 
L 551.36506 -237.667186 
L 553.743593 -237.797012 
L 556.122125 -237.924431 
L 558.500657 -238.049021 
L 560.879189 -238.17042 
L 563.257722 -238.288328 
L 565.636254 -238.402524 
L 568.014786 -238.512875 
L 570.393319 -238.619357 
L 572.771851 -238.722045 
L 575.150383 -238.821105 
L 577.528916 -238.916782 
L 579.907448 -239.009393 
L 582.28598 -239.099332 
L 584.664513 -239.187068 
L 587.043045 -239.273134 
L 589.421577 -239.358101 
L 591.80011 -239.442565 
L 594.178642 -239.527103 
L 596.557174 -239.612285 
L 598.935706 -239.698662 
L 601.314239 -239.786757 
L 603.692771 -239.877045 
L 606.071303 -239.969939 
L 608.449836 -240.065746 
L 610.828368 -240.164689 
L 613.2069 -240.266869 
L 615.585433 -240.372279 
L 617.963965 -240.480806 
L 620.342497 -240.59223 
L 622.72103 -240.706207 
L 625.099562 -240.822255 
L 627.478094 -240.939765 
L 629.856627 -241.058022 
L 632.235159 -241.176227 
L 634.613691 -241.293493 
L 636.992223 -241.408875 
L 639.370756 -241.521391 
L 641.749288 -241.630036 
L 644.12782 -241.733788 
L 646.506353 -241.831643 
L 648.884885 -241.922646 
L 651.263417 -242.005911 
L 653.64195 -242.080627 
L 656.020482 -242.146083 
L 658.399014 -242.201686 
L 660.777547 -242.246965 
L 663.156079 -242.281578 
L 665.534611 -242.3053 
L 667.913143 -242.318021 
L 670.291676 -242.319752 
L 672.670208 -242.310632 
L 675.04874 -242.290906 
L 677.427273 -242.260906 
L 677.427273 -268.777788 
L 677.427273 -268.777788 
L 675.04874 -268.867648 
L 672.670208 -268.957769 
L 670.291676 -269.048379 
L 667.913143 -269.139757 
L 665.534611 -269.23226 
L 663.156079 -269.326285 
L 660.777547 -269.422251 
L 658.399014 -269.520611 
L 656.020482 -269.621816 
L 653.64195 -269.726277 
L 651.263417 -269.83435 
L 648.884885 -269.946359 
L 646.506353 -270.062571 
L 644.12782 -270.183174 
L 641.749288 -270.308265 
L 639.370756 -270.43784 
L 636.992223 -270.571784 
L 634.613691 -270.709891 
L 632.235159 -270.851854 
L 629.856627 -270.99724 
L 627.478094 -271.145499 
L 625.099562 -271.295985 
L 622.72103 -271.447945 
L 620.342497 -271.600498 
L 617.963965 -271.752699 
L 615.585433 -271.903534 
L 613.2069 -272.051913 
L 610.828368 -272.196676 
L 608.449836 -272.33663 
L 606.071303 -272.470545 
L 603.692771 -272.597175 
L 601.314239 -272.715284 
L 598.935706 -272.823644 
L 596.557174 -272.921068 
L 594.178642 -273.006421 
L 591.80011 -273.078634 
L 589.421577 -273.136715 
L 587.043045 -273.179765 
L 584.664513 -273.20699 
L 582.28598 -273.217721 
L 579.907448 -273.211425 
L 577.528916 -273.18773 
L 575.150383 -273.146405 
L 572.771851 -273.087377 
L 570.393319 -273.010719 
L 568.014786 -272.916665 
L 565.636254 -272.805607 
L 563.257722 -272.678104 
L 560.879189 -272.534868 
L 558.500657 -272.376772 
L 556.122125 -272.204823 
L 553.743593 -272.020163 
L 551.36506 -271.82405 
L 548.986528 -271.617853 
L 546.607996 -271.403023 
L 544.229463 -271.18109 
L 541.850931 -270.953625 
L 539.472399 -270.722235 
L 537.093866 -270.488545 
L 534.715334 -270.254187 
L 532.336802 -270.020752 
L 529.958269 -269.789788 
L 527.579737 -269.562786 
L 525.201205 -269.341155 
L 522.822673 -269.126232 
L 520.44414 -268.919247 
L 518.065608 -268.721333 
L 515.687076 -268.533511 
L 513.308543 -268.356682 
L 510.930011 -268.191615 
L 508.551479 -268.038956 
L 506.172946 -267.899228 
L 503.794414 -267.772846 
L 501.415882 -267.660099 
L 499.037349 -267.561178 
L 496.658817 -267.476186 
L 494.280285 -267.405132 
L 491.901752 -267.347934 
L 489.52322 -267.304435 
L 487.144688 -267.274431 
L 484.766156 -267.25767 
L 482.387623 -267.253848 
L 480.009091 -267.262609 
L 477.630559 -267.283594 
L 475.252026 -267.31643 
L 472.873494 -267.360734 
L 470.494962 -267.416111 
L 468.116429 -267.482171 
L 465.737897 -267.558525 
L 463.359365 -267.644784 
L 460.980832 -267.740563 
L 458.6023 -267.84547 
L 456.223768 -267.959104 
L 453.845235 -268.081076 
L 451.466703 -268.210999 
L 449.088171 -268.34846 
L 446.709639 -268.493017 
L 444.331106 -268.644191 
L 441.952574 -268.801485 
L 439.574042 -268.964365 
L 437.195509 -269.132263 
L 434.816977 -269.304563 
L 432.438445 -269.480593 
L 430.059912 -269.659632 
L 427.68138 -269.840893 
L 425.302848 -270.023523 
L 422.924315 -270.206603 
L 420.545783 -270.389155 
L 418.167251 -270.570166 
L 415.788719 -270.748592 
L 413.410186 -270.923371 
L 411.031654 -271.093409 
L 408.653122 -271.257607 
L 406.274589 -271.414882 
L 403.896057 -271.564171 
L 401.517525 -271.704455 
L 399.138992 -271.834775 
L 396.76046 -271.954257 
L 394.381928 -272.062106 
L 392.003395 -272.157623 
L 389.624863 -272.24021 
L 387.246331 -272.309389 
L 384.867798 -272.364815 
L 382.489266 -272.40629 
L 380.110734 -272.433768 
L 377.732202 -272.447358 
L 375.353669 -272.447317 
L 372.975137 -272.434045 
L 370.596605 -272.408086 
L 368.218072 -272.370126 
L 365.83954 -272.320975 
L 363.461008 -272.261563 
L 361.082475 -272.192922 
L 358.703943 -272.116162 
L 356.325411 -272.032457 
L 353.946878 -271.943027 
L 351.568346 -271.849117 
L 349.189814 -271.751971 
L 346.811281 -271.652826 
L 344.432749 -271.552907 
L 342.054217 -271.453375 
L 339.675685 -271.35532 
L 337.297152 -271.259729 
L 334.91862 -271.16746 
L 332.540088 -271.079247 
L 330.161555 -270.995687 
L 327.783023 -270.91723 
L 325.404491 -270.844163 
L 323.025958 -270.776612 
L 320.647426 -270.714532 
L 318.268894 -270.657732 
L 315.890361 -270.605893 
L 313.511829 -270.558572 
L 311.133297 -270.515219 
L 308.754765 -270.475187 
L 306.376232 -270.437747 
L 303.9977 -270.402128 
L 301.619168 -270.367547 
L 299.240635 -270.333217 
L 296.862103 -270.298357 
L 294.483571 -270.262196 
L 292.105038 -270.224002 
L 289.726506 -270.183111 
L 287.347974 -270.138946 
L 284.969441 -270.091027 
L 282.590909 -270.03897 
L 280.212377 -269.982483 
L 277.833844 -269.921367 
L 275.455312 -269.855527 
L 273.07678 -269.784959 
L 270.698248 -269.709765 
L 268.319715 -269.630138 
L 265.941183 -269.546367 
L 263.562651 -269.458836 
L 261.184118 -269.368012 
L 258.805586 -269.274433 
L 256.427054 -269.178709 
L 254.048521 -269.08149 
L 251.669989 -268.983468 
L 249.291457 -268.885375 
L 246.912924 -268.78797 
L 244.534392 -268.692035 
L 242.15586 -268.598354 
L 239.777327 -268.507714 
L 237.398795 -268.42089 
L 235.020263 -268.338644 
L 232.641731 -268.261702 
L 230.263198 -268.190747 
L 227.884666 -268.126407 
L 225.506134 -268.06924 
L 223.127601 -268.01973 
L 220.749069 -267.978302 
L 218.370537 -267.945317 
L 215.992004 -267.921076 
L 213.613472 -267.905817 
L 211.23494 -267.899732 
L 208.856407 -267.902971 
L 206.477875 -267.915645 
L 204.099343 -267.937834 
L 201.720811 -267.969608 
L 199.342278 -268.011026 
L 196.963746 -268.062149 
L 194.585214 -268.123043 
L 192.206681 -268.193777 
L 189.828149 -268.274431 
L 187.449617 -268.365102 
L 185.071084 -268.465909 
L 182.692552 -268.576991 
L 180.31402 -268.698509 
L 177.935487 -268.83063 
L 175.556955 -268.973522 
L 173.178423 -269.127339 
L 170.79989 -269.292229 
L 168.421358 -269.468307 
L 166.042826 -269.655648 
L 163.664294 -269.854256 
L 161.285761 -270.064051 
L 158.907229 -270.284865 
L 156.528697 -270.516418 
L 154.150164 -270.758318 
L 151.771632 -271.010055 
L 149.3931 -271.270973 
L 147.014567 -271.540264 
L 144.636035 -271.816977 
L 142.257503 -272.1 
L 139.87897 -272.38806 
L 137.500438 -272.679721 
L 135.121906 -272.973417 
L 132.743373 -273.267463 
L 130.364841 -273.560067 
L 127.986309 -273.849346 
L 125.607777 -274.133346 
L 123.229244 -274.410081 
L 120.850712 -274.677566 
L 118.47218 -274.933842 
L 116.093647 -275.176989 
L 113.715115 -275.405179 
L 111.336583 -275.61672 
L 108.95805 -275.81007 
L 106.579518 -275.983847 
L 104.200986 -276.136856 
L 101.822453 -276.268117 
L 99.443921 -276.37686 
L 97.065389 -276.462527 
L 94.686857 -276.524754 
L 92.308324 -276.563374 
L 89.929792 -276.578442 
L 87.55126 -276.570208 
L 85.172727 -276.539101 
z
" style="stroke: #000080; stroke-opacity: 0.1"/>
    </defs>
    <g clip-path="url(#p3b23ed0d93)">
     <use xlink:href="#mcf1235ae17" x="0" y="360" style="fill: #000080; fill-opacity: 0.1; stroke: #000080; stroke-opacity: 0.1"/>
    </g>
   </g>
   <g id="FillBetweenPolyCollection_2">
    <defs>
     <path id="m88c6cb4e89" d="M 85.172727 -290.949712 
L 85.172727 -258.885028 
L 87.55126 -259.032105 
L 89.929792 -259.173425 
L 92.308324 -259.309215 
L 94.686857 -259.439804 
L 97.065389 -259.565585 
L 99.443921 -259.68699 
L 101.822453 -259.804575 
L 104.200986 -259.918982 
L 106.579518 -260.030909 
L 108.95805 -260.141101 
L 111.336583 -260.250308 
L 113.715115 -260.359283 
L 116.093647 -260.468783 
L 118.47218 -260.579538 
L 120.850712 -260.692204 
L 123.229244 -260.807353 
L 125.607777 -260.92549 
L 127.986309 -261.047016 
L 130.364841 -261.172209 
L 132.743373 -261.301214 
L 135.121906 -261.434044 
L 137.500438 -261.570579 
L 139.87897 -261.710562 
L 142.257503 -261.853594 
L 144.636035 -261.999157 
L 147.014567 -262.146616 
L 149.3931 -262.295246 
L 151.771632 -262.444233 
L 154.150164 -262.592695 
L 156.528697 -262.739701 
L 158.907229 -262.884304 
L 161.285761 -263.025543 
L 163.664294 -263.162466 
L 166.042826 -263.294144 
L 168.421358 -263.419703 
L 170.79989 -263.538333 
L 173.178423 -263.649307 
L 175.556955 -263.751995 
L 177.935487 -263.845879 
L 180.31402 -263.930568 
L 182.692552 -264.005794 
L 185.071084 -264.071419 
L 187.449617 -264.127432 
L 189.828149 -264.173953 
L 192.206681 -264.211211 
L 194.585214 -264.239523 
L 196.963746 -264.259286 
L 199.342278 -264.270952 
L 201.720811 -264.275002 
L 204.099343 -264.271941 
L 206.477875 -264.262276 
L 208.856407 -264.246507 
L 211.23494 -264.225124 
L 213.613472 -264.198613 
L 215.992004 -264.167456 
L 218.370537 -264.13215 
L 220.749069 -264.093226 
L 223.127601 -264.051261 
L 225.506134 -264.006891 
L 227.884666 -263.960811 
L 230.263198 -263.913776 
L 232.641731 -263.866584 
L 235.020263 -263.820059 
L 237.398795 -263.775023 
L 239.777327 -263.732274 
L 242.15586 -263.692561 
L 244.534392 -263.656562 
L 246.912924 -263.624877 
L 249.291457 -263.598008 
L 251.669989 -263.576366 
L 254.048521 -263.560265 
L 256.427054 -263.549936 
L 258.805586 -263.545533 
L 261.184118 -263.547144 
L 263.562651 -263.554807 
L 265.941183 -263.568519 
L 268.319715 -263.588255 
L 270.698248 -263.613984 
L 273.07678 -263.645679 
L 275.455312 -263.683336 
L 277.833844 -263.726978 
L 280.212377 -263.776668 
L 282.590909 -263.832503 
L 284.969441 -263.894615 
L 287.347974 -263.963175 
L 289.726506 -264.038386 
L 292.105038 -264.12048 
L 294.483571 -264.209708 
L 296.862103 -264.306319 
L 299.240635 -264.410542 
L 301.619168 -264.522563 
L 303.9977 -264.642496 
L 306.376232 -264.770363 
L 308.754765 -264.906086 
L 311.133297 -265.049464 
L 313.511829 -265.200154 
L 315.890361 -265.357673 
L 318.268894 -265.521391 
L 320.647426 -265.690544 
L 323.025958 -265.864245 
L 325.404491 -266.041495 
L 327.783023 -266.221215 
L 330.161555 -266.402264 
L 332.540088 -266.583455 
L 334.91862 -266.763572 
L 337.297152 -266.941381 
L 339.675685 -267.115646 
L 342.054217 -267.28513 
L 344.432749 -267.44859 
L 346.811281 -267.604772 
L 349.189814 -267.752417 
L 351.568346 -267.890249 
L 353.946878 -268.016984 
L 356.325411 -268.131324 
L 358.703943 -268.231968 
L 361.082475 -268.317618 
L 363.461008 -268.387003 
L 365.83954 -268.438891 
L 368.218072 -268.472117 
L 370.596605 -268.485606 
L 372.975137 -268.478404 
L 375.353669 -268.449695 
L 377.732202 -268.39883 
L 380.110734 -268.325338 
L 382.489266 -268.228935 
L 384.867798 -268.109539 
L 387.246331 -267.96728 
L 389.624863 -267.802503 
L 392.003395 -267.615766 
L 394.381928 -267.407837 
L 396.76046 -267.179692 
L 399.138992 -266.932508 
L 401.517525 -266.667656 
L 403.896057 -266.386684 
L 406.274589 -266.091312 
L 408.653122 -265.783406 
L 411.031654 -265.464955 
L 413.410186 -265.138035 
L 415.788719 -264.804782 
L 418.167251 -264.467351 
L 420.545783 -264.127887 
L 422.924315 -263.78849 
L 425.302848 -263.451188 
L 427.68138 -263.117899 
L 430.059912 -262.790394 
L 432.438445 -262.470271 
L 434.816977 -262.15894 
L 437.195509 -261.857598 
L 439.574042 -261.567227 
L 441.952574 -261.288578 
L 444.331106 -261.022166 
L 446.709639 -260.768268 
L 449.088171 -260.526942 
L 451.466703 -260.29804 
L 453.845235 -260.081211 
L 456.223768 -259.875942 
L 458.6023 -259.681591 
L 460.980832 -259.497399 
L 463.359365 -259.32254 
L 465.737897 -259.156124 
L 468.116429 -258.997231 
L 470.494962 -258.844945 
L 472.873494 -258.698367 
L 475.252026 -258.556643 
L 477.630559 -258.418978 
L 480.009091 -258.284636 
L 482.387623 -258.152952 
L 484.766156 -258.023335 
L 487.144688 -257.895293 
L 489.52322 -257.768408 
L 491.901752 -257.642345 
L 494.280285 -257.516875 
L 496.658817 -257.391887 
L 499.037349 -257.267399 
L 501.415882 -257.143553 
L 503.794414 -257.020654 
L 506.172946 -256.899182 
L 508.551479 -256.77981 
L 510.930011 -256.663403 
L 513.308543 -256.551042 
L 515.687076 -256.444008 
L 518.065608 -256.34376 
L 520.44414 -256.251921 
L 522.822673 -256.170228 
L 525.201205 -256.100468 
L 527.579737 -256.044426 
L 529.958269 -256.003813 
L 532.336802 -255.980212 
L 534.715334 -255.975007 
L 537.093866 -255.989339 
L 539.472399 -256.024061 
L 541.850931 -256.079712 
L 544.229463 -256.156511 
L 546.607996 -256.254346 
L 548.986528 -256.372787 
L 551.36506 -256.511124 
L 553.743593 -256.668399 
L 556.122125 -256.843457 
L 558.500657 -257.034995 
L 560.879189 -257.24162 
L 563.257722 -257.461901 
L 565.636254 -257.694421 
L 568.014786 -257.93784 
L 570.393319 -258.190933 
L 572.771851 -258.45263 
L 575.150383 -258.722039 
L 577.528916 -258.998465 
L 579.907448 -259.281427 
L 582.28598 -259.570662 
L 584.664513 -259.866106 
L 587.043045 -260.167889 
L 589.421577 -260.476316 
L 591.80011 -260.791832 
L 594.178642 -261.114989 
L 596.557174 -261.446417 
L 598.935706 -261.786782 
L 601.314239 -262.136771 
L 603.692771 -262.49705 
L 606.071303 -262.868235 
L 608.449836 -263.250858 
L 610.828368 -263.645365 
L 613.2069 -264.052086 
L 615.585433 -264.471222 
L 617.963965 -264.902842 
L 620.342497 -265.346882 
L 622.72103 -265.803133 
L 625.099562 -266.271247 
L 627.478094 -266.75074 
L 629.856627 -267.240985 
L 632.235159 -267.741213 
L 634.613691 -268.250541 
L 636.992223 -268.767965 
L 639.370756 -269.292371 
L 641.749288 -269.822549 
L 644.12782 -270.357229 
L 646.506353 -270.89507 
L 648.884885 -271.434689 
L 651.263417 -271.974685 
L 653.64195 -272.513653 
L 656.020482 -273.050211 
L 658.399014 -273.583027 
L 660.777547 -274.110824 
L 663.156079 -274.632386 
L 665.534611 -275.146587 
L 667.913143 -275.652412 
L 670.291676 -276.148951 
L 672.670208 -276.63541 
L 675.04874 -277.111116 
L 677.427273 -277.575503 
L 677.427273 -328.036652 
L 677.427273 -328.036652 
L 675.04874 -327.118575 
L 672.670208 -326.177642 
L 670.291676 -325.215418 
L 667.913143 -324.233705 
L 665.534611 -323.234565 
L 663.156079 -322.220288 
L 660.777547 -321.19337 
L 658.399014 -320.156502 
L 656.020482 -319.11253 
L 653.64195 -318.064434 
L 651.263417 -317.015297 
L 648.884885 -315.96826 
L 646.506353 -314.926488 
L 644.12782 -313.893119 
L 641.749288 -312.871206 
L 639.370756 -311.863676 
L 636.992223 -310.873277 
L 634.613691 -309.902507 
L 632.235159 -308.953583 
L 629.856627 -308.028378 
L 627.478094 -307.128386 
L 625.099562 -306.254706 
L 622.72103 -305.408023 
L 620.342497 -304.588569 
L 617.963965 -303.796156 
L 615.585433 -303.03018 
L 613.2069 -302.289641 
L 610.828368 -301.573177 
L 608.449836 -300.87912 
L 606.071303 -300.205539 
L 603.692771 -299.550285 
L 601.314239 -298.911069 
L 598.935706 -298.2855 
L 596.557174 -297.671158 
L 594.178642 -297.065655 
L 591.80011 -296.466685 
L 589.421577 -295.872075 
L 587.043045 -295.27983 
L 584.664513 -294.68817 
L 582.28598 -294.09558 
L 579.907448 -293.500836 
L 577.528916 -292.903052 
L 575.150383 -292.301689 
L 572.771851 -291.696566 
L 570.393319 -291.087868 
L 568.014786 -290.476152 
L 565.636254 -289.862352 
L 563.257722 -289.247775 
L 560.879189 -288.634091 
L 558.500657 -288.023316 
L 556.122125 -287.417776 
L 553.743593 -286.820074 
L 551.36506 -286.233058 
L 548.986528 -285.659778 
L 546.607996 -285.103433 
L 544.229463 -284.567316 
L 541.850931 -284.054739 
L 539.472399 -283.568975 
L 537.093866 -283.113179 
L 534.715334 -282.690328 
L 532.336802 -282.303124 
L 529.958269 -281.953924 
L 527.579737 -281.644673 
L 525.201205 -281.376827 
L 522.822673 -281.151301 
L 520.44414 -280.968428 
L 518.065608 -280.827933 
L 515.687076 -280.728923 
L 513.308543 -280.669897 
L 510.930011 -280.648781 
L 508.551479 -280.662988 
L 506.172946 -280.709489 
L 503.794414 -280.784902 
L 501.415882 -280.885591 
L 499.037349 -281.007778 
L 496.658817 -281.14765 
L 494.280285 -281.301458 
L 491.901752 -281.465604 
L 489.52322 -281.636724 
L 487.144688 -281.811775 
L 484.766156 -281.988092 
L 482.387623 -282.16343 
L 480.009091 -282.336002 
L 477.630559 -282.504496 
L 475.252026 -282.668079 
L 472.873494 -282.826396 
L 470.494962 -282.979535 
L 468.116429 -283.12801 
L 465.737897 -283.272718 
L 463.359365 -283.414899 
L 460.980832 -283.556081 
L 458.6023 -283.698019 
L 456.223768 -283.842644 
L 453.845235 -283.991998 
L 451.466703 -284.148175 
L 449.088171 -284.313227 
L 446.709639 -284.489106 
L 444.331106 -284.677608 
L 441.952574 -284.880305 
L 439.574042 -285.098481 
L 437.195509 -285.33309 
L 434.816977 -285.584703 
L 432.438445 -285.853469 
L 430.059912 -286.139089 
L 427.68138 -286.440802 
L 425.302848 -286.757377 
L 422.924315 -287.087125 
L 420.545783 -287.427926 
L 418.167251 -287.777268 
L 415.788719 -288.132284 
L 413.410186 -288.489802 
L 411.031654 -288.846399 
L 408.653122 -289.198465 
L 406.274589 -289.54228 
L 403.896057 -289.87408 
L 401.517525 -290.190129 
L 399.138992 -290.486801 
L 396.76046 -290.760642 
L 394.381928 -291.008436 
L 392.003395 -291.227254 
L 389.624863 -291.414513 
L 387.246331 -291.568025 
L 384.867798 -291.686041 
L 382.489266 -291.767288 
L 380.110734 -291.810989 
L 377.732202 -291.81688 
L 375.353669 -291.785208 
L 372.975137 -291.716722 
L 370.596605 -291.612664 
L 368.218072 -291.474748 
L 365.83954 -291.305129 
L 363.461008 -291.10637 
L 361.082475 -290.8814 
L 358.703943 -290.63346 
L 356.325411 -290.366043 
L 353.946878 -290.082832 
L 351.568346 -289.78762 
L 349.189814 -289.484235 
L 346.811281 -289.176459 
L 344.432749 -288.867954 
L 342.054217 -288.562171 
L 339.675685 -288.262274 
L 337.297152 -287.971068 
L 334.91862 -287.690937 
L 332.540088 -287.423797 
L 330.161555 -287.17107 
L 327.783023 -286.933652 
L 325.404491 -286.711918 
L 323.025958 -286.50573 
L 320.647426 -286.314462 
L 318.268894 -286.137048 
L 315.890361 -285.97203 
L 313.511829 -285.817616 
L 311.133297 -285.671731 
L 308.754765 -285.532082 
L 306.376232 -285.396215 
L 303.9977 -285.26158 
L 301.619168 -285.125592 
L 299.240635 -284.985687 
L 296.862103 -284.839381 
L 294.483571 -284.684308 
L 292.105038 -284.518282 
L 289.726506 -284.339348 
L 287.347974 -284.14583 
L 284.969441 -283.936361 
L 282.590909 -283.70992 
L 280.212377 -283.465848 
L 277.833844 -283.203876 
L 275.455312 -282.924144 
L 273.07678 -282.627212 
L 270.698248 -282.314053 
L 268.319715 -281.986045 
L 265.941183 -281.644952 
L 263.562651 -281.292912 
L 261.184118 -280.932391 
L 258.805586 -280.566151 
L 256.427054 -280.197201 
L 254.048521 -279.828745 
L 251.669989 -279.464126 
L 249.291457 -279.106773 
L 246.912924 -278.760136 
L 244.534392 -278.427636 
L 242.15586 -278.112586 
L 239.777327 -277.818133 
L 237.398795 -277.547187 
L 235.020263 -277.302359 
L 232.641731 -277.085899 
L 230.263198 -276.899636 
L 227.884666 -276.744937 
L 225.506134 -276.622674 
L 223.127601 -276.533202 
L 220.749069 -276.476373 
L 218.370537 -276.45156 
L 215.992004 -276.457693 
L 213.613472 -276.493317 
L 211.23494 -276.55666 
L 208.856407 -276.645713 
L 206.477875 -276.758303 
L 204.099343 -276.892174 
L 201.720811 -277.045062 
L 199.342278 -277.214756 
L 196.963746 -277.399154 
L 194.585214 -277.596309 
L 192.206681 -277.804453 
L 189.828149 -278.022031 
L 187.449617 -278.247717 
L 185.071084 -278.480423 
L 182.692552 -278.719298 
L 180.31402 -278.963723 
L 177.935487 -279.213297 
L 175.556955 -279.467818 
L 173.178423 -279.727263 
L 170.79989 -279.991763 
L 168.421358 -280.261568 
L 166.042826 -280.537015 
L 163.664294 -280.81849 
L 161.285761 -281.106393 
L 158.907229 -281.401104 
L 156.528697 -281.70295 
L 154.150164 -282.012188 
L 151.771632 -282.328974 
L 149.3931 -282.653339 
L 147.014567 -282.98518 
L 144.636035 -283.324247 
L 142.257503 -283.67014 
L 139.87897 -284.022292 
L 137.500438 -284.379977 
L 135.121906 -284.742315 
L 132.743373 -285.108277 
L 130.364841 -285.476695 
L 127.986309 -285.846272 
L 125.607777 -286.215593 
L 123.229244 -286.583147 
L 120.850712 -286.947351 
L 118.47218 -287.306571 
L 116.093647 -287.659128 
L 113.715115 -288.003327 
L 111.336583 -288.337496 
L 108.95805 -288.659996 
L 106.579518 -288.969241 
L 104.200986 -289.26372 
L 101.822453 -289.542038 
L 99.443921 -289.802921 
L 97.065389 -290.045234 
L 94.686857 -290.267993 
L 92.308324 -290.470369 
L 89.929792 -290.651723 
L 87.55126 -290.811596 
L 85.172727 -290.949712 
z
" style="stroke: #000080; stroke-opacity: 0.1"/>
    </defs>
    <g clip-path="url(#p3b23ed0d93)">
     <use xlink:href="#m88c6cb4e89" x="0" y="360" style="fill: #000080; fill-opacity: 0.1; stroke: #000080; stroke-opacity: 0.1"/>
    </g>
   </g>
   <g id="line2d_1">
    <path d="M 85.172727 100.477457 
L 94.686857 100.143796 
L 101.822453 100.091999 
L 111.336583 100.284108 
L 120.850712 100.739224 
L 132.743373 101.57438 
L 170.79989 104.521503 
L 182.692552 105.143526 
L 194.585214 105.548512 
L 206.477875 105.734886 
L 218.370537 105.719456 
L 232.641731 105.487199 
L 284.969441 104.36123 
L 303.9977 104.336466 
L 349.189814 104.630838 
L 370.596605 104.925159 
L 384.867798 105.324028 
L 401.517525 106.026565 
L 451.466703 108.373074 
L 465.737897 108.738403 
L 480.009091 108.870273 
L 491.901752 108.759238 
L 503.794414 108.413667 
L 515.687076 107.827467 
L 529.958269 106.864071 
L 560.879189 104.647356 
L 572.771851 104.095289 
L 584.664513 103.802971 
L 596.557174 103.733323 
L 617.963965 103.883248 
L 677.427273 104.480653 
L 677.427273 104.480653 
" clip-path="url(#p3b23ed0d93)" style="fill: none; stroke: #000080; stroke-width: 1.5; stroke-linecap: round"/>
   </g>
   <g id="line2d_2">
    <path d="M 85.172727 85.08263 
L 94.686857 85.146102 
L 104.200986 85.408649 
L 118.47218 86.056945 
L 147.014567 87.434102 
L 168.421358 88.159365 
L 196.963746 89.17078 
L 211.23494 89.609108 
L 220.749069 89.715201 
L 230.263198 89.593294 
L 239.777327 89.224796 
L 251.669989 88.479754 
L 287.347974 85.945498 
L 320.647426 83.997497 
L 332.540088 82.996374 
L 361.082475 80.400491 
L 368.218072 80.026568 
L 375.353669 79.882548 
L 382.489266 80.001889 
L 389.624863 80.391492 
L 396.76046 81.029833 
L 406.274589 82.183204 
L 439.574042 86.667146 
L 449.088171 87.579915 
L 460.980832 88.47326 
L 494.280285 90.590833 
L 506.172946 91.195664 
L 513.308543 91.389531 
L 520.44414 91.389825 
L 527.579737 91.15545 
L 534.715334 90.667333 
L 541.850931 89.932775 
L 548.986528 88.983717 
L 558.500657 87.470844 
L 572.771851 84.925402 
L 596.557174 80.441213 
L 606.071303 78.463113 
L 615.585433 76.249299 
L 622.72103 74.394422 
L 632.235159 71.652602 
L 641.749288 68.653122 
L 672.670208 58.593474 
L 677.427273 57.193922 
L 677.427273 57.193922 
" clip-path="url(#p3b23ed0d93)" style="fill: none; stroke-dasharray: 5.55,2.4; stroke-dashoffset: 0; stroke: #000080; stroke-width: 1.5"/>
   </g>
   <g id="patch_3">
    <path d="M 55.56 310.98 
L 55.56 28.08 
" style="fill: none; stroke: #ffffff; stroke-width: 1.25; stroke-linejoin: miter; stroke-linecap: square"/>
   </g>
   <g id="patch_4">
    <path d="M 707.04 310.98 
L 707.04 28.08 
" style="fill: none; stroke: #ffffff; stroke-width: 1.25; stroke-linejoin: miter; stroke-linecap: square"/>
   </g>
   <g id="patch_5">
    <path d="M 55.56 310.98 
L 707.04 310.98 
" style="fill: none; stroke: #ffffff; stroke-width: 1.25; stroke-linejoin: miter; stroke-linecap: square"/>
   </g>
   <g id="patch_6">
    <path d="M 55.56 28.08 
L 707.04 28.08 
" style="fill: none; stroke: #ffffff; stroke-width: 1.25; stroke-linejoin: miter; stroke-linecap: square"/>
   </g>
   <g id="text_14">
    <!-- QG3L - [32, 96] x [256, 384] -->
    <g style="fill: #262626" transform="translate(296.2575 22.08) scale(0.12 -0.12)">
     <defs>
      <path id="DejaVuSans-51" d="M 2522 4238 
Q 1834 4238 1429 3725 
Q 1025 3213 1025 2328 
Q 1025 1447 1429 934 
Q 1834 422 2522 422 
Q 3209 422 3611 934 
Q 4013 1447 4013 2328 
Q 4013 3213 3611 3725 
Q 3209 4238 2522 4238 
z
M 3406 84 
L 4238 -825 
L 3475 -825 
L 2784 -78 
Q 2681 -84 2626 -87 
Q 2572 -91 2522 -91 
Q 1538 -91 948 567 
Q 359 1225 359 2328 
Q 359 3434 948 4092 
Q 1538 4750 2522 4750 
Q 3503 4750 4090 4092 
Q 4678 3434 4678 2328 
Q 4678 1516 4351 937 
Q 4025 359 3406 84 
z
" transform="scale(0.015625)"/>
      <path id="DejaVuSans-47" d="M 3809 666 
L 3809 1919 
L 2778 1919 
L 2778 2438 
L 4434 2438 
L 4434 434 
Q 4069 175 3628 42 
Q 3188 -91 2688 -91 
Q 1594 -91 976 548 
Q 359 1188 359 2328 
Q 359 3472 976 4111 
Q 1594 4750 2688 4750 
Q 3144 4750 3555 4637 
Q 3966 4525 4313 4306 
L 4313 3634 
Q 3963 3931 3569 4081 
Q 3175 4231 2741 4231 
Q 1884 4231 1454 3753 
Q 1025 3275 1025 2328 
Q 1025 1384 1454 906 
Q 1884 428 2741 428 
Q 3075 428 3337 486 
Q 3600 544 3809 666 
z
" transform="scale(0.015625)"/>
      <path id="DejaVuSans-33" d="M 2597 2516 
Q 3050 2419 3304 2112 
Q 3559 1806 3559 1356 
Q 3559 666 3084 287 
Q 2609 -91 1734 -91 
Q 1441 -91 1130 -33 
Q 819 25 488 141 
L 488 750 
Q 750 597 1062 519 
Q 1375 441 1716 441 
Q 2309 441 2620 675 
Q 2931 909 2931 1356 
Q 2931 1769 2642 2001 
Q 2353 2234 1838 2234 
L 1294 2234 
L 1294 2753 
L 1863 2753 
Q 2328 2753 2575 2939 
Q 2822 3125 2822 3475 
Q 2822 3834 2567 4026 
Q 2313 4219 1838 4219 
Q 1578 4219 1281 4162 
Q 984 4106 628 3988 
L 628 4550 
Q 988 4650 1302 4700 
Q 1616 4750 1894 4750 
Q 2613 4750 3031 4423 
Q 3450 4097 3450 3541 
Q 3450 3153 3228 2886 
Q 3006 2619 2597 2516 
z
" transform="scale(0.015625)"/>
      <path id="DejaVuSans-4c" d="M 628 4666 
L 1259 4666 
L 1259 531 
L 3531 531 
L 3531 0 
L 628 0 
L 628 4666 
z
" transform="scale(0.015625)"/>
      <path id="DejaVuSans-2d" d="M 313 2009 
L 1997 2009 
L 1997 1497 
L 313 1497 
L 313 2009 
z
" transform="scale(0.015625)"/>
      <path id="DejaVuSans-2c" d="M 750 794 
L 1409 794 
L 1409 256 
L 897 -744 
L 494 -744 
L 750 256 
L 750 794 
z
" transform="scale(0.015625)"/>
      <path id="DejaVuSans-39" d="M 703 97 
L 703 672 
Q 941 559 1184 500 
Q 1428 441 1663 441 
Q 2288 441 2617 861 
Q 2947 1281 2994 2138 
Q 2813 1869 2534 1725 
Q 2256 1581 1919 1581 
Q 1219 1581 811 2004 
Q 403 2428 403 3163 
Q 403 3881 828 4315 
Q 1253 4750 1959 4750 
Q 2769 4750 3195 4129 
Q 3622 3509 3622 2328 
Q 3622 1225 3098 567 
Q 2575 -91 1691 -91 
Q 1453 -91 1209 -44 
Q 966 3 703 97 
z
M 1959 2075 
Q 2384 2075 2632 2365 
Q 2881 2656 2881 3163 
Q 2881 3666 2632 3958 
Q 2384 4250 1959 4250 
Q 1534 4250 1286 3958 
Q 1038 3666 1038 3163 
Q 1038 2656 1286 2365 
Q 1534 2075 1959 2075 
z
" transform="scale(0.015625)"/>
      <path id="DejaVuSans-78" d="M 3513 3500 
L 2247 1797 
L 3578 0 
L 2900 0 
L 1881 1375 
L 863 0 
L 184 0 
L 1544 1831 
L 300 3500 
L 978 3500 
L 1906 2253 
L 2834 3500 
L 3513 3500 
z
" transform="scale(0.015625)"/>
     </defs>
     <use xlink:href="#DejaVuSans-51"/>
     <use xlink:href="#DejaVuSans-47" transform="translate(78.710938 0)"/>
     <use xlink:href="#DejaVuSans-33" transform="translate(156.201172 0)"/>
     <use xlink:href="#DejaVuSans-4c" transform="translate(219.824219 0)"/>
     <use xlink:href="#DejaVuSans-20" transform="translate(275.537109 0)"/>
     <use xlink:href="#DejaVuSans-2d" transform="translate(307.324219 0)"/>
     <use xlink:href="#DejaVuSans-20" transform="translate(343.408203 0)"/>
     <use xlink:href="#DejaVuSans-5b" transform="translate(375.195312 0)"/>
     <use xlink:href="#DejaVuSans-33" transform="translate(414.208984 0)"/>
     <use xlink:href="#DejaVuSans-32" transform="translate(477.832031 0)"/>
     <use xlink:href="#DejaVuSans-2c" transform="translate(541.455078 0)"/>
     <use xlink:href="#DejaVuSans-20" transform="translate(573.242188 0)"/>
     <use xlink:href="#DejaVuSans-39" transform="translate(605.029297 0)"/>
     <use xlink:href="#DejaVuSans-36" transform="translate(668.652344 0)"/>
     <use xlink:href="#DejaVuSans-5d" transform="translate(732.275391 0)"/>
     <use xlink:href="#DejaVuSans-20" transform="translate(771.289062 0)"/>
     <use xlink:href="#DejaVuSans-78" transform="translate(803.076172 0)"/>
     <use xlink:href="#DejaVuSans-20" transform="translate(862.255859 0)"/>
     <use xlink:href="#DejaVuSans-5b" transform="translate(894.042969 0)"/>
     <use xlink:href="#DejaVuSans-32" transform="translate(933.056641 0)"/>
     <use xlink:href="#DejaVuSans-35" transform="translate(996.679688 0)"/>
     <use xlink:href="#DejaVuSans-36" transform="translate(1060.302734 0)"/>
     <use xlink:href="#DejaVuSans-2c" transform="translate(1123.925781 0)"/>
     <use xlink:href="#DejaVuSans-20" transform="translate(1155.712891 0)"/>
     <use xlink:href="#DejaVuSans-33" transform="translate(1187.5 0)"/>
     <use xlink:href="#DejaVuSans-38" transform="translate(1251.123047 0)"/>
     <use xlink:href="#DejaVuSans-34" transform="translate(1314.746094 0)"/>
     <use xlink:href="#DejaVuSans-5d" transform="translate(1378.369141 0)"/>
    </g>
   </g>
   <g id="legend_1">
    <g id="patch_7">
     <path d="M 63.26 305.48 
L 244.675781 305.48 
Q 246.875781 305.48 246.875781 303.28 
L 246.875781 272.088125 
Q 246.875781 269.888125 244.675781 269.888125 
L 63.26 269.888125 
Q 61.06 269.888125 61.06 272.088125 
L 61.06 303.28 
Q 61.06 305.48 63.26 305.48 
z
" style="fill: #eaeaf2; opacity: 0.8; stroke: #cccccc; stroke-linejoin: miter"/>
    </g>
    <g id="line2d_3">
     <path d="M 65.46 278.796406 
L 76.46 278.796406 
L 87.46 278.796406 
" style="fill: none; stroke: #000080; stroke-width: 1.5; stroke-linecap: round"/>
    </g>
    <g id="text_15">
     <!-- SurfML -->
     <g style="fill: #262626" transform="translate(96.26 282.646406) scale(0.11 -0.11)">
      <defs>
       <path id="DejaVuSans-75" d="M 544 1381 
L 544 3500 
L 1119 3500 
L 1119 1403 
Q 1119 906 1312 657 
Q 1506 409 1894 409 
Q 2359 409 2629 706 
Q 2900 1003 2900 1516 
L 2900 3500 
L 3475 3500 
L 3475 0 
L 2900 0 
L 2900 538 
Q 2691 219 2414 64 
Q 2138 -91 1772 -91 
Q 1169 -91 856 284 
Q 544 659 544 1381 
z
M 1991 3584 
L 1991 3584 
z
" transform="scale(0.015625)"/>
       <path id="DejaVuSans-72" d="M 2631 2963 
Q 2534 3019 2420 3045 
Q 2306 3072 2169 3072 
Q 1681 3072 1420 2755 
Q 1159 2438 1159 1844 
L 1159 0 
L 581 0 
L 581 3500 
L 1159 3500 
L 1159 2956 
Q 1341 3275 1631 3429 
Q 1922 3584 2338 3584 
Q 2397 3584 2469 3576 
Q 2541 3569 2628 3553 
L 2631 2963 
z
" transform="scale(0.015625)"/>
       <path id="DejaVuSans-66" d="M 2375 4863 
L 2375 4384 
L 1825 4384 
Q 1516 4384 1395 4259 
Q 1275 4134 1275 3809 
L 1275 3500 
L 2222 3500 
L 2222 3053 
L 1275 3053 
L 1275 0 
L 697 0 
L 697 3053 
L 147 3053 
L 147 3500 
L 697 3500 
L 697 3744 
Q 697 4328 969 4595 
Q 1241 4863 1831 4863 
L 2375 4863 
z
" transform="scale(0.015625)"/>
      </defs>
      <use xlink:href="#DejaVuSans-53"/>
      <use xlink:href="#DejaVuSans-75" transform="translate(63.476562 0)"/>
      <use xlink:href="#DejaVuSans-72" transform="translate(126.855469 0)"/>
      <use xlink:href="#DejaVuSans-66" transform="translate(167.96875 0)"/>
      <use xlink:href="#DejaVuSans-4d" transform="translate(203.173828 0)"/>
      <use xlink:href="#DejaVuSans-4c" transform="translate(289.453125 0)"/>
     </g>
    </g>
    <g id="line2d_4">
     <path d="M 65.46 294.942344 
L 76.46 294.942344 
L 87.46 294.942344 
" style="fill: none; stroke-dasharray: 5.55,2.4; stroke-dashoffset: 0; stroke: #000080; stroke-width: 1.5"/>
    </g>
    <g id="text_16">
     <!-- SurfML - No Regularization -->
     <g style="fill: #262626" transform="translate(96.26 298.792344) scale(0.11 -0.11)">
      <defs>
       <path id="DejaVuSans-4e" d="M 628 4666 
L 1478 4666 
L 3547 763 
L 3547 4666 
L 4159 4666 
L 4159 0 
L 3309 0 
L 1241 3903 
L 1241 0 
L 628 0 
L 628 4666 
z
" transform="scale(0.015625)"/>
       <path id="DejaVuSans-6f" d="M 1959 3097 
Q 1497 3097 1228 2736 
Q 959 2375 959 1747 
Q 959 1119 1226 758 
Q 1494 397 1959 397 
Q 2419 397 2687 759 
Q 2956 1122 2956 1747 
Q 2956 2369 2687 2733 
Q 2419 3097 1959 3097 
z
M 1959 3584 
Q 2709 3584 3137 3096 
Q 3566 2609 3566 1747 
Q 3566 888 3137 398 
Q 2709 -91 1959 -91 
Q 1206 -91 779 398 
Q 353 888 353 1747 
Q 353 2609 779 3096 
Q 1206 3584 1959 3584 
z
" transform="scale(0.015625)"/>
       <path id="DejaVuSans-67" d="M 2906 1791 
Q 2906 2416 2648 2759 
Q 2391 3103 1925 3103 
Q 1463 3103 1205 2759 
Q 947 2416 947 1791 
Q 947 1169 1205 825 
Q 1463 481 1925 481 
Q 2391 481 2648 825 
Q 2906 1169 2906 1791 
z
M 3481 434 
Q 3481 -459 3084 -895 
Q 2688 -1331 1869 -1331 
Q 1566 -1331 1297 -1286 
Q 1028 -1241 775 -1147 
L 775 -588 
Q 1028 -725 1275 -790 
Q 1522 -856 1778 -856 
Q 2344 -856 2625 -561 
Q 2906 -266 2906 331 
L 2906 616 
Q 2728 306 2450 153 
Q 2172 0 1784 0 
Q 1141 0 747 490 
Q 353 981 353 1791 
Q 353 2603 747 3093 
Q 1141 3584 1784 3584 
Q 2172 3584 2450 3431 
Q 2728 3278 2906 2969 
L 2906 3500 
L 3481 3500 
L 3481 434 
z
" transform="scale(0.015625)"/>
       <path id="DejaVuSans-6c" d="M 603 4863 
L 1178 4863 
L 1178 0 
L 603 0 
L 603 4863 
z
" transform="scale(0.015625)"/>
       <path id="DejaVuSans-7a" d="M 353 3500 
L 3084 3500 
L 3084 2975 
L 922 459 
L 3084 459 
L 3084 0 
L 275 0 
L 275 525 
L 2438 3041 
L 353 3041 
L 353 3500 
z
" transform="scale(0.015625)"/>
       <path id="DejaVuSans-74" d="M 1172 4494 
L 1172 3500 
L 2356 3500 
L 2356 3053 
L 1172 3053 
L 1172 1153 
Q 1172 725 1289 603 
Q 1406 481 1766 481 
L 2356 481 
L 2356 0 
L 1766 0 
Q 1100 0 847 248 
Q 594 497 594 1153 
L 594 3053 
L 172 3053 
L 172 3500 
L 594 3500 
L 594 4494 
L 1172 4494 
z
" transform="scale(0.015625)"/>
      </defs>
      <use xlink:href="#DejaVuSans-53"/>
      <use xlink:href="#DejaVuSans-75" transform="translate(63.476562 0)"/>
      <use xlink:href="#DejaVuSans-72" transform="translate(126.855469 0)"/>
      <use xlink:href="#DejaVuSans-66" transform="translate(167.96875 0)"/>
      <use xlink:href="#DejaVuSans-4d" transform="translate(203.173828 0)"/>
      <use xlink:href="#DejaVuSans-4c" transform="translate(289.453125 0)"/>
      <use xlink:href="#DejaVuSans-20" transform="translate(345.166016 0)"/>
      <use xlink:href="#DejaVuSans-2d" transform="translate(376.953125 0)"/>
      <use xlink:href="#DejaVuSans-20" transform="translate(413.037109 0)"/>
      <use xlink:href="#DejaVuSans-4e" transform="translate(444.824219 0)"/>
      <use xlink:href="#DejaVuSans-6f" transform="translate(519.628906 0)"/>
      <use xlink:href="#DejaVuSans-20" transform="translate(580.810547 0)"/>
      <use xlink:href="#DejaVuSans-52" transform="translate(612.597656 0)"/>
      <use xlink:href="#DejaVuSans-65" transform="translate(677.580078 0)"/>
      <use xlink:href="#DejaVuSans-67" transform="translate(739.103516 0)"/>
      <use xlink:href="#DejaVuSans-75" transform="translate(802.580078 0)"/>
      <use xlink:href="#DejaVuSans-6c" transform="translate(865.958984 0)"/>
      <use xlink:href="#DejaVuSans-61" transform="translate(893.742188 0)"/>
      <use xlink:href="#DejaVuSans-72" transform="translate(955.021484 0)"/>
      <use xlink:href="#DejaVuSans-69" transform="translate(996.134766 0)"/>
      <use xlink:href="#DejaVuSans-7a" transform="translate(1023.917969 0)"/>
      <use xlink:href="#DejaVuSans-61" transform="translate(1076.408203 0)"/>
      <use xlink:href="#DejaVuSans-74" transform="translate(1137.6875 0)"/>
      <use xlink:href="#DejaVuSans-69" transform="translate(1176.896484 0)"/>
      <use xlink:href="#DejaVuSans-6f" transform="translate(1204.679688 0)"/>
      <use xlink:href="#DejaVuSans-6e" transform="translate(1265.861328 0)"/>
     </g>
    </g>
   </g>
  </g>
 </g>
 <defs>
  <clipPath id="p3b23ed0d93">
   <rect x="55.56" y="28.08" width="651.48" height="282.9"/>
  </clipPath>
 </defs>
</svg>
