<?xml version="1.0" encoding="utf-8" standalone="no"?>
<!DOCTYPE svg PUBLIC "-//W3C//DTD SVG 1.1//EN"
  "http://www.w3.org/Graphics/SVG/1.1/DTD/svg11.dtd">
<svg xmlns:xlink="http://www.w3.org/1999/xlink" width="720pt" height="360pt" viewBox="0 0 720 360" xmlns="http://www.w3.org/2000/svg" version="1.1">
 <metadata>
  <rdf:RDF xmlns:dc="http://purl.org/dc/elements/1.1/" xmlns:cc="http://creativecommons.org/ns#" xmlns:rdf="http://www.w3.org/1999/02/22-rdf-syntax-ns#">
   <cc:Work>
    <dc:type rdf:resource="http://purl.org/dc/dcmitype/StillImage"/>
    <dc:date>2026-03-19T16:15:51.803878</dc:date>
    <dc:format>image/svg+xml</dc:format>
    <dc:creator>
     <cc:Agent>
      <dc:title>Matplotlib v3.10.6, https://matplotlib.org/</dc:title>
     </cc:Agent>
    </dc:creator>
   </cc:Work>
  </rdf:RDF>
 </metadata>
 <defs>
  <style type="text/css">*{stroke-linejoin: round; stroke-linecap: butt}</style>
 </defs>
 <g id="figure_1">
  <g id="patch_1">
   <path d="M 0 360 
L 720 360 
L 720 0 
L 0 0 
z
" style="fill: #ffffff"/>
  </g>
  <g id="axes_1">
   <g id="patch_2">
    <path d="M 55.56 310.98 
L 707.04 310.98 
L 707.04 28.08 
L 55.56 28.08 
z
" style="fill: #eaeaf2"/>
   </g>
   <g id="matplotlib.axis_1">
    <g id="xtick_1">
     <g id="text_1">
      <!-- 0 -->
      <g style="fill: #262626" transform="translate(81.673352 328.838281) scale(0.11 -0.11)">
       <defs>
        <path id="DejaVuSans-30" d="M 2034 4250 
Q 1547 4250 1301 3770 
Q 1056 3291 1056 2328 
Q 1056 1369 1301 889 
Q 1547 409 2034 409 
Q 2525 409 2770 889 
Q 3016 1369 3016 2328 
Q 3016 3291 2770 3770 
Q 2525 4250 2034 4250 
z
M 2034 4750 
Q 2819 4750 3233 4129 
Q 3647 3509 3647 2328 
Q 3647 1150 3233 529 
Q 2819 -91 2034 -91 
Q 1250 -91 836 529 
Q 422 1150 422 2328 
Q 422 3509 836 4129 
Q 1250 4750 2034 4750 
z
" transform="scale(0.015625)"/>
       </defs>
       <use xlink:href="#DejaVuSans-30"/>
      </g>
     </g>
    </g>
    <g id="xtick_2">
     <g id="text_2">
      <!-- 5 -->
      <g style="fill: #262626" transform="translate(224.385291 328.838281) scale(0.11 -0.11)">
       <defs>
        <path id="DejaVuSans-35" d="M 691 4666 
L 3169 4666 
L 3169 4134 
L 1269 4134 
L 1269 2991 
Q 1406 3038 1543 3061 
Q 1681 3084 1819 3084 
Q 2600 3084 3056 2656 
Q 3513 2228 3513 1497 
Q 3513 744 3044 326 
Q 2575 -91 1722 -91 
Q 1428 -91 1123 -41 
Q 819 9 494 109 
L 494 744 
Q 775 591 1075 516 
Q 1375 441 1709 441 
Q 2250 441 2565 725 
Q 2881 1009 2881 1497 
Q 2881 1984 2565 2268 
Q 2250 2553 1709 2553 
Q 1456 2553 1204 2497 
Q 953 2441 691 2322 
L 691 4666 
z
" transform="scale(0.015625)"/>
       </defs>
       <use xlink:href="#DejaVuSans-35"/>
      </g>
     </g>
    </g>
    <g id="xtick_3">
     <g id="text_3">
      <!-- 10 -->
      <g style="fill: #262626" transform="translate(363.597855 328.838281) scale(0.11 -0.11)">
       <defs>
        <path id="DejaVuSans-31" d="M 794 531 
L 1825 531 
L 1825 4091 
L 703 3866 
L 703 4441 
L 1819 4666 
L 2450 4666 
L 2450 531 
L 3481 531 
L 3481 0 
L 794 0 
L 794 531 
z
" transform="scale(0.015625)"/>
       </defs>
       <use xlink:href="#DejaVuSans-31"/>
       <use xlink:href="#DejaVuSans-30" transform="translate(63.623047 0)"/>
      </g>
     </g>
    </g>
    <g id="xtick_4">
     <g id="text_4">
      <!-- 15 -->
      <g style="fill: #262626" transform="translate(506.309793 328.838281) scale(0.11 -0.11)">
       <use xlink:href="#DejaVuSans-31"/>
       <use xlink:href="#DejaVuSans-35" transform="translate(63.623047 0)"/>
      </g>
     </g>
    </g>
    <g id="xtick_5">
     <g id="text_5">
      <!-- 20 -->
      <g style="fill: #262626" transform="translate(649.021732 328.838281) scale(0.11 -0.11)">
       <defs>
        <path id="DejaVuSans-32" d="M 1228 531 
L 3431 531 
L 3431 0 
L 469 0 
L 469 531 
Q 828 903 1448 1529 
Q 2069 2156 2228 2338 
Q 2531 2678 2651 2914 
Q 2772 3150 2772 3378 
Q 2772 3750 2511 3984 
Q 2250 4219 1831 4219 
Q 1534 4219 1204 4116 
Q 875 4013 500 3803 
L 500 4441 
Q 881 4594 1212 4672 
Q 1544 4750 1819 4750 
Q 2544 4750 2975 4387 
Q 3406 4025 3406 3419 
Q 3406 3131 3298 2873 
Q 3191 2616 2906 2266 
Q 2828 2175 2409 1742 
Q 1991 1309 1228 531 
z
" transform="scale(0.015625)"/>
       </defs>
       <use xlink:href="#DejaVuSans-32"/>
       <use xlink:href="#DejaVuSans-30" transform="translate(63.623047 0)"/>
      </g>
     </g>
    </g>
    <g id="text_6">
     <!-- Time [days] -->
     <g style="fill: #262626" transform="translate(345.868125 344.244062) scale(0.12 -0.12)">
      <defs>
       <path id="DejaVuSans-54" d="M -19 4666 
L 3928 4666 
L 3928 4134 
L 2272 4134 
L 2272 0 
L 1638 0 
L 1638 4134 
L -19 4134 
L -19 4666 
z
" transform="scale(0.015625)"/>
       <path id="DejaVuSans-69" d="M 603 3500 
L 1178 3500 
L 1178 0 
L 603 0 
L 603 3500 
z
M 603 4863 
L 1178 4863 
L 1178 4134 
L 603 4134 
L 603 4863 
z
" transform="scale(0.015625)"/>
       <path id="DejaVuSans-6d" d="M 3328 2828 
Q 3544 3216 3844 3400 
Q 4144 3584 4550 3584 
Q 5097 3584 5394 3201 
Q 5691 2819 5691 2113 
L 5691 0 
L 5113 0 
L 5113 2094 
Q 5113 2597 4934 2840 
Q 4756 3084 4391 3084 
Q 3944 3084 3684 2787 
Q 3425 2491 3425 1978 
L 3425 0 
L 2847 0 
L 2847 2094 
Q 2847 2600 2669 2842 
Q 2491 3084 2119 3084 
Q 1678 3084 1418 2786 
Q 1159 2488 1159 1978 
L 1159 0 
L 581 0 
L 581 3500 
L 1159 3500 
L 1159 2956 
Q 1356 3278 1631 3431 
Q 1906 3584 2284 3584 
Q 2666 3584 2933 3390 
Q 3200 3197 3328 2828 
z
" transform="scale(0.015625)"/>
       <path id="DejaVuSans-65" d="M 3597 1894 
L 3597 1613 
L 953 1613 
Q 991 1019 1311 708 
Q 1631 397 2203 397 
Q 2534 397 2845 478 
Q 3156 559 3463 722 
L 3463 178 
Q 3153 47 2828 -22 
Q 2503 -91 2169 -91 
Q 1331 -91 842 396 
Q 353 884 353 1716 
Q 353 2575 817 3079 
Q 1281 3584 2069 3584 
Q 2775 3584 3186 3129 
Q 3597 2675 3597 1894 
z
M 3022 2063 
Q 3016 2534 2758 2815 
Q 2500 3097 2075 3097 
Q 1594 3097 1305 2825 
Q 1016 2553 972 2059 
L 3022 2063 
z
" transform="scale(0.015625)"/>
       <path id="DejaVuSans-20" transform="scale(0.015625)"/>
       <path id="DejaVuSans-5b" d="M 550 4863 
L 1875 4863 
L 1875 4416 
L 1125 4416 
L 1125 -397 
L 1875 -397 
L 1875 -844 
L 550 -844 
L 550 4863 
z
" transform="scale(0.015625)"/>
       <path id="DejaVuSans-64" d="M 2906 2969 
L 2906 4863 
L 3481 4863 
L 3481 0 
L 2906 0 
L 2906 525 
Q 2725 213 2448 61 
Q 2172 -91 1784 -91 
Q 1150 -91 751 415 
Q 353 922 353 1747 
Q 353 2572 751 3078 
Q 1150 3584 1784 3584 
Q 2172 3584 2448 3432 
Q 2725 3281 2906 2969 
z
M 947 1747 
Q 947 1113 1208 752 
Q 1469 391 1925 391 
Q 2381 391 2643 752 
Q 2906 1113 2906 1747 
Q 2906 2381 2643 2742 
Q 2381 3103 1925 3103 
Q 1469 3103 1208 2742 
Q 947 2381 947 1747 
z
" transform="scale(0.015625)"/>
       <path id="DejaVuSans-61" d="M 2194 1759 
Q 1497 1759 1228 1600 
Q 959 1441 959 1056 
Q 959 750 1161 570 
Q 1363 391 1709 391 
Q 2188 391 2477 730 
Q 2766 1069 2766 1631 
L 2766 1759 
L 2194 1759 
z
M 3341 1997 
L 3341 0 
L 2766 0 
L 2766 531 
Q 2569 213 2275 61 
Q 1981 -91 1556 -91 
Q 1019 -91 701 211 
Q 384 513 384 1019 
Q 384 1609 779 1909 
Q 1175 2209 1959 2209 
L 2766 2209 
L 2766 2266 
Q 2766 2663 2505 2880 
Q 2244 3097 1772 3097 
Q 1472 3097 1187 3025 
Q 903 2953 641 2809 
L 641 3341 
Q 956 3463 1253 3523 
Q 1550 3584 1831 3584 
Q 2591 3584 2966 3190 
Q 3341 2797 3341 1997 
z
" transform="scale(0.015625)"/>
       <path id="DejaVuSans-79" d="M 2059 -325 
Q 1816 -950 1584 -1140 
Q 1353 -1331 966 -1331 
L 506 -1331 
L 506 -850 
L 844 -850 
Q 1081 -850 1212 -737 
Q 1344 -625 1503 -206 
L 1606 56 
L 191 3500 
L 800 3500 
L 1894 763 
L 2988 3500 
L 3597 3500 
L 2059 -325 
z
" transform="scale(0.015625)"/>
       <path id="DejaVuSans-73" d="M 2834 3397 
L 2834 2853 
Q 2591 2978 2328 3040 
Q 2066 3103 1784 3103 
Q 1356 3103 1142 2972 
Q 928 2841 928 2578 
Q 928 2378 1081 2264 
Q 1234 2150 1697 2047 
L 1894 2003 
Q 2506 1872 2764 1633 
Q 3022 1394 3022 966 
Q 3022 478 2636 193 
Q 2250 -91 1575 -91 
Q 1294 -91 989 -36 
Q 684 19 347 128 
L 347 722 
Q 666 556 975 473 
Q 1284 391 1588 391 
Q 1994 391 2212 530 
Q 2431 669 2431 922 
Q 2431 1156 2273 1281 
Q 2116 1406 1581 1522 
L 1381 1569 
Q 847 1681 609 1914 
Q 372 2147 372 2553 
Q 372 3047 722 3315 
Q 1072 3584 1716 3584 
Q 2034 3584 2315 3537 
Q 2597 3491 2834 3397 
z
" transform="scale(0.015625)"/>
       <path id="DejaVuSans-5d" d="M 1947 4863 
L 1947 -844 
L 622 -844 
L 622 -397 
L 1369 -397 
L 1369 4416 
L 622 4416 
L 622 4863 
L 1947 4863 
z
" transform="scale(0.015625)"/>
      </defs>
      <use xlink:href="#DejaVuSans-54"/>
      <use xlink:href="#DejaVuSans-69" transform="translate(57.958984 0)"/>
      <use xlink:href="#DejaVuSans-6d" transform="translate(85.742188 0)"/>
      <use xlink:href="#DejaVuSans-65" transform="translate(183.154297 0)"/>
      <use xlink:href="#DejaVuSans-20" transform="translate(244.677734 0)"/>
      <use xlink:href="#DejaVuSans-5b" transform="translate(276.464844 0)"/>
      <use xlink:href="#DejaVuSans-64" transform="translate(315.478516 0)"/>
      <use xlink:href="#DejaVuSans-61" transform="translate(378.955078 0)"/>
      <use xlink:href="#DejaVuSans-79" transform="translate(440.234375 0)"/>
      <use xlink:href="#DejaVuSans-73" transform="translate(499.414062 0)"/>
      <use xlink:href="#DejaVuSans-5d" transform="translate(551.513672 0)"/>
     </g>
    </g>
   </g>
   <g id="matplotlib.axis_2">
    <g id="ytick_1">
     <g id="text_7">
      <!-- 0.0 -->
      <g style="fill: #262626" transform="translate(28.566562 302.30005) scale(0.11 -0.11)">
       <defs>
        <path id="DejaVuSans-2e" d="M 684 794 
L 1344 794 
L 1344 0 
L 684 0 
L 684 794 
z
" transform="scale(0.015625)"/>
       </defs>
       <use xlink:href="#DejaVuSans-30"/>
       <use xlink:href="#DejaVuSans-2e" transform="translate(63.623047 0)"/>
       <use xlink:href="#DejaVuSans-30" transform="translate(95.410156 0)"/>
      </g>
     </g>
    </g>
    <g id="ytick_2">
     <g id="text_8">
      <!-- 0.1 -->
      <g style="fill: #262626" transform="translate(28.566562 269.192307) scale(0.11 -0.11)">
       <use xlink:href="#DejaVuSans-30"/>
       <use xlink:href="#DejaVuSans-2e" transform="translate(63.623047 0)"/>
       <use xlink:href="#DejaVuSans-31" transform="translate(95.410156 0)"/>
      </g>
     </g>
    </g>
    <g id="ytick_3">
     <g id="text_9">
      <!-- 0.2 -->
      <g style="fill: #262626" transform="translate(28.566562 236.084564) scale(0.11 -0.11)">
       <use xlink:href="#DejaVuSans-30"/>
       <use xlink:href="#DejaVuSans-2e" transform="translate(63.623047 0)"/>
       <use xlink:href="#DejaVuSans-32" transform="translate(95.410156 0)"/>
      </g>
     </g>
    </g>
    <g id="ytick_4">
     <g id="text_10">
      <!-- 0.3 -->
      <g style="fill: #262626" transform="translate(28.566562 202.976821) scale(0.11 -0.11)">
       <defs>
        <path id="DejaVuSans-33" d="M 2597 2516 
Q 3050 2419 3304 2112 
Q 3559 1806 3559 1356 
Q 3559 666 3084 287 
Q 2609 -91 1734 -91 
Q 1441 -91 1130 -33 
Q 819 25 488 141 
L 488 750 
Q 750 597 1062 519 
Q 1375 441 1716 441 
Q 2309 441 2620 675 
Q 2931 909 2931 1356 
Q 2931 1769 2642 2001 
Q 2353 2234 1838 2234 
L 1294 2234 
L 1294 2753 
L 1863 2753 
Q 2328 2753 2575 2939 
Q 2822 3125 2822 3475 
Q 2822 3834 2567 4026 
Q 2313 4219 1838 4219 
Q 1578 4219 1281 4162 
Q 984 4106 628 3988 
L 628 4550 
Q 988 4650 1302 4700 
Q 1616 4750 1894 4750 
Q 2613 4750 3031 4423 
Q 3450 4097 3450 3541 
Q 3450 3153 3228 2886 
Q 3006 2619 2597 2516 
z
" transform="scale(0.015625)"/>
       </defs>
       <use xlink:href="#DejaVuSans-30"/>
       <use xlink:href="#DejaVuSans-2e" transform="translate(63.623047 0)"/>
       <use xlink:href="#DejaVuSans-33" transform="translate(95.410156 0)"/>
      </g>
     </g>
    </g>
    <g id="ytick_5">
     <g id="text_11">
      <!-- 0.4 -->
      <g style="fill: #262626" transform="translate(28.566562 169.869078) scale(0.11 -0.11)">
       <defs>
        <path id="DejaVuSans-34" d="M 2419 4116 
L 825 1625 
L 2419 1625 
L 2419 4116 
z
M 2253 4666 
L 3047 4666 
L 3047 1625 
L 3713 1625 
L 3713 1100 
L 3047 1100 
L 3047 0 
L 2419 0 
L 2419 1100 
L 313 1100 
L 313 1709 
L 2253 4666 
z
" transform="scale(0.015625)"/>
       </defs>
       <use xlink:href="#DejaVuSans-30"/>
       <use xlink:href="#DejaVuSans-2e" transform="translate(63.623047 0)"/>
       <use xlink:href="#DejaVuSans-34" transform="translate(95.410156 0)"/>
      </g>
     </g>
    </g>
    <g id="ytick_6">
     <g id="text_12">
      <!-- 0.5 -->
      <g style="fill: #262626" transform="translate(28.566562 136.761335) scale(0.11 -0.11)">
       <use xlink:href="#DejaVuSans-30"/>
       <use xlink:href="#DejaVuSans-2e" transform="translate(63.623047 0)"/>
       <use xlink:href="#DejaVuSans-35" transform="translate(95.410156 0)"/>
      </g>
     </g>
    </g>
    <g id="ytick_7">
     <g id="text_13">
      <!-- 0.6 -->
      <g style="fill: #262626" transform="translate(28.566562 103.653592) scale(0.11 -0.11)">
       <defs>
        <path id="DejaVuSans-36" d="M 2113 2584 
Q 1688 2584 1439 2293 
Q 1191 2003 1191 1497 
Q 1191 994 1439 701 
Q 1688 409 2113 409 
Q 2538 409 2786 701 
Q 3034 994 3034 1497 
Q 3034 2003 2786 2293 
Q 2538 2584 2113 2584 
z
M 3366 4563 
L 3366 3988 
Q 3128 4100 2886 4159 
Q 2644 4219 2406 4219 
Q 1781 4219 1451 3797 
Q 1122 3375 1075 2522 
Q 1259 2794 1537 2939 
Q 1816 3084 2150 3084 
Q 2853 3084 3261 2657 
Q 3669 2231 3669 1497 
Q 3669 778 3244 343 
Q 2819 -91 2113 -91 
Q 1303 -91 875 529 
Q 447 1150 447 2328 
Q 447 3434 972 4092 
Q 1497 4750 2381 4750 
Q 2619 4750 2861 4703 
Q 3103 4656 3366 4563 
z
" transform="scale(0.015625)"/>
       </defs>
       <use xlink:href="#DejaVuSans-30"/>
       <use xlink:href="#DejaVuSans-2e" transform="translate(63.623047 0)"/>
       <use xlink:href="#DejaVuSans-36" transform="translate(95.410156 0)"/>
      </g>
     </g>
    </g>
    <g id="ytick_8">
     <g id="text_14">
      <!-- 0.7 -->
      <g style="fill: #262626" transform="translate(28.566562 70.545849) scale(0.11 -0.11)">
       <defs>
        <path id="DejaVuSans-37" d="M 525 4666 
L 3525 4666 
L 3525 4397 
L 1831 0 
L 1172 0 
L 2766 4134 
L 525 4134 
L 525 4666 
z
" transform="scale(0.015625)"/>
       </defs>
       <use xlink:href="#DejaVuSans-30"/>
       <use xlink:href="#DejaVuSans-2e" transform="translate(63.623047 0)"/>
       <use xlink:href="#DejaVuSans-37" transform="translate(95.410156 0)"/>
      </g>
     </g>
    </g>
    <g id="ytick_9">
     <g id="text_15">
      <!-- 0.8 -->
      <g style="fill: #262626" transform="translate(28.566562 37.438106) scale(0.11 -0.11)">
       <defs>
        <path id="DejaVuSans-38" d="M 2034 2216 
Q 1584 2216 1326 1975 
Q 1069 1734 1069 1313 
Q 1069 891 1326 650 
Q 1584 409 2034 409 
Q 2484 409 2743 651 
Q 3003 894 3003 1313 
Q 3003 1734 2745 1975 
Q 2488 2216 2034 2216 
z
M 1403 2484 
Q 997 2584 770 2862 
Q 544 3141 544 3541 
Q 544 4100 942 4425 
Q 1341 4750 2034 4750 
Q 2731 4750 3128 4425 
Q 3525 4100 3525 3541 
Q 3525 3141 3298 2862 
Q 3072 2584 2669 2484 
Q 3125 2378 3379 2068 
Q 3634 1759 3634 1313 
Q 3634 634 3220 271 
Q 2806 -91 2034 -91 
Q 1263 -91 848 271 
Q 434 634 434 1313 
Q 434 1759 690 2068 
Q 947 2378 1403 2484 
z
M 1172 3481 
Q 1172 3119 1398 2916 
Q 1625 2713 2034 2713 
Q 2441 2713 2670 2916 
Q 2900 3119 2900 3481 
Q 2900 3844 2670 4047 
Q 2441 4250 2034 4250 
Q 1625 4250 1398 4047 
Q 1172 3844 1172 3481 
z
" transform="scale(0.015625)"/>
       </defs>
       <use xlink:href="#DejaVuSans-30"/>
       <use xlink:href="#DejaVuSans-2e" transform="translate(63.623047 0)"/>
       <use xlink:href="#DejaVuSans-38" transform="translate(95.410156 0)"/>
      </g>
     </g>
    </g>
    <g id="text_16">
     <!-- nRMSE -->
     <g style="fill: #262626" transform="translate(22.070937 190.27875) rotate(-90) scale(0.12 -0.12)">
      <defs>
       <path id="DejaVuSans-6e" d="M 3513 2113 
L 3513 0 
L 2938 0 
L 2938 2094 
Q 2938 2591 2744 2837 
Q 2550 3084 2163 3084 
Q 1697 3084 1428 2787 
Q 1159 2491 1159 1978 
L 1159 0 
L 581 0 
L 581 3500 
L 1159 3500 
L 1159 2956 
Q 1366 3272 1645 3428 
Q 1925 3584 2291 3584 
Q 2894 3584 3203 3211 
Q 3513 2838 3513 2113 
z
" transform="scale(0.015625)"/>
       <path id="DejaVuSans-52" d="M 2841 2188 
Q 3044 2119 3236 1894 
Q 3428 1669 3622 1275 
L 4263 0 
L 3584 0 
L 2988 1197 
Q 2756 1666 2539 1819 
Q 2322 1972 1947 1972 
L 1259 1972 
L 1259 0 
L 628 0 
L 628 4666 
L 2053 4666 
Q 2853 4666 3247 4331 
Q 3641 3997 3641 3322 
Q 3641 2881 3436 2590 
Q 3231 2300 2841 2188 
z
M 1259 4147 
L 1259 2491 
L 2053 2491 
Q 2509 2491 2742 2702 
Q 2975 2913 2975 3322 
Q 2975 3731 2742 3939 
Q 2509 4147 2053 4147 
L 1259 4147 
z
" transform="scale(0.015625)"/>
       <path id="DejaVuSans-4d" d="M 628 4666 
L 1569 4666 
L 2759 1491 
L 3956 4666 
L 4897 4666 
L 4897 0 
L 4281 0 
L 4281 4097 
L 3078 897 
L 2444 897 
L 1241 4097 
L 1241 0 
L 628 0 
L 628 4666 
z
" transform="scale(0.015625)"/>
       <path id="DejaVuSans-53" d="M 3425 4513 
L 3425 3897 
Q 3066 4069 2747 4153 
Q 2428 4238 2131 4238 
Q 1616 4238 1336 4038 
Q 1056 3838 1056 3469 
Q 1056 3159 1242 3001 
Q 1428 2844 1947 2747 
L 2328 2669 
Q 3034 2534 3370 2195 
Q 3706 1856 3706 1288 
Q 3706 609 3251 259 
Q 2797 -91 1919 -91 
Q 1588 -91 1214 -16 
Q 841 59 441 206 
L 441 856 
Q 825 641 1194 531 
Q 1563 422 1919 422 
Q 2459 422 2753 634 
Q 3047 847 3047 1241 
Q 3047 1584 2836 1778 
Q 2625 1972 2144 2069 
L 1759 2144 
Q 1053 2284 737 2584 
Q 422 2884 422 3419 
Q 422 4038 858 4394 
Q 1294 4750 2059 4750 
Q 2388 4750 2728 4690 
Q 3069 4631 3425 4513 
z
" transform="scale(0.015625)"/>
       <path id="DejaVuSans-45" d="M 628 4666 
L 3578 4666 
L 3578 4134 
L 1259 4134 
L 1259 2753 
L 3481 2753 
L 3481 2222 
L 1259 2222 
L 1259 531 
L 3634 531 
L 3634 0 
L 628 0 
L 628 4666 
z
" transform="scale(0.015625)"/>
      </defs>
      <use xlink:href="#DejaVuSans-6e"/>
      <use xlink:href="#DejaVuSans-52" transform="translate(63.378906 0)"/>
      <use xlink:href="#DejaVuSans-4d" transform="translate(132.861328 0)"/>
      <use xlink:href="#DejaVuSans-53" transform="translate(219.140625 0)"/>
      <use xlink:href="#DejaVuSans-45" transform="translate(282.617188 0)"/>
     </g>
    </g>
   </g>
   <g id="FillBetweenPolyCollection_1">
    <defs>
     <path id="mf35a97dab6" d="M 85.172727 -61.879091 
L 85.172727 -61.879091 
L 87.55126 -63.370223 
L 89.929792 -64.875841 
L 92.308324 -66.396096 
L 94.686857 -67.931089 
L 97.065389 -69.480834 
L 99.443921 -71.045259 
L 101.822453 -72.624202 
L 104.200986 -74.217428 
L 106.579518 -75.824647 
L 108.95805 -77.445528 
L 111.336583 -79.079718 
L 113.715115 -80.726851 
L 116.093647 -82.386557 
L 118.47218 -84.058466 
L 120.850712 -85.742213 
L 123.229244 -87.437428 
L 125.607777 -89.143749 
L 127.986309 -90.86081 
L 130.364841 -92.588233 
L 132.743373 -94.325607 
L 135.121906 -96.072474 
L 137.500438 -97.828303 
L 139.87897 -99.592453 
L 142.257503 -101.364112 
L 144.636035 -103.142204 
L 147.014567 -104.925263 
L 149.3931 -106.711255 
L 151.771632 -108.497336 
L 154.150164 -110.279548 
L 156.528697 -112.05255 
L 158.907229 -113.809613 
L 161.285761 -115.543296 
L 163.664294 -117.247078 
L 166.042826 -118.917312 
L 168.421358 -120.554083 
L 170.79989 -122.1603 
L 173.178423 -123.739987 
L 175.556955 -125.296967 
L 177.935487 -126.834285 
L 180.31402 -128.354141 
L 182.692552 -129.858008 
L 185.071084 -131.346795 
L 187.449617 -132.821015 
L 189.828149 -134.280918 
L 192.206681 -135.726585 
L 194.585214 -137.158007 
L 196.963746 -138.575148 
L 199.342278 -139.977975 
L 201.720811 -141.3665 
L 204.099343 -142.740784 
L 206.477875 -144.100944 
L 208.856407 -145.447145 
L 211.23494 -146.779606 
L 213.613472 -148.098582 
L 215.992004 -149.404357 
L 218.370537 -150.697239 
L 220.749069 -151.977541 
L 223.127601 -153.245568 
L 225.506134 -154.501627 
L 227.884666 -155.746004 
L 230.263198 -156.978962 
L 232.641731 -158.200739 
L 235.020263 -159.411542 
L 237.398795 -160.61155 
L 239.777327 -161.800911 
L 242.15586 -162.97974 
L 244.534392 -164.148136 
L 246.912924 -165.306189 
L 249.291457 -166.453979 
L 251.669989 -167.591588 
L 254.048521 -168.719103 
L 256.427054 -169.836618 
L 258.805586 -170.944247 
L 261.184118 -172.042114 
L 263.562651 -173.130356 
L 265.941183 -174.209136 
L 268.319715 -175.278629 
L 270.698248 -176.339021 
L 273.07678 -177.390516 
L 275.455312 -178.433315 
L 277.833844 -179.46761 
L 280.212377 -180.493622 
L 282.590909 -181.511566 
L 284.969441 -182.521656 
L 287.347974 -183.524108 
L 289.726506 -184.519125 
L 292.105038 -185.506915 
L 294.483571 -186.487705 
L 296.862103 -187.461712 
L 299.240635 -188.429164 
L 301.619168 -189.39029 
L 303.9977 -190.345314 
L 306.376232 -191.294461 
L 308.754765 -192.237941 
L 311.133297 -193.175965 
L 313.511829 -194.108738 
L 315.890361 -195.036451 
L 318.268894 -195.959285 
L 320.647426 -196.877411 
L 323.025958 -197.790979 
L 325.404491 -198.70013 
L 327.783023 -199.605 
L 330.161555 -200.505706 
L 332.540088 -201.402375 
L 334.91862 -202.295131 
L 337.297152 -203.184092 
L 339.675685 -204.069385 
L 342.054217 -204.951134 
L 344.432749 -205.829452 
L 346.811281 -206.704424 
L 349.189814 -207.576137 
L 351.568346 -208.444669 
L 353.946878 -209.31008 
L 356.325411 -210.17242 
L 358.703943 -211.031722 
L 361.082475 -211.888 
L 363.461008 -212.741253 
L 365.83954 -213.591469 
L 368.218072 -214.438617 
L 370.596605 -215.282657 
L 372.975137 -216.12356 
L 375.353669 -216.961303 
L 377.732202 -217.795864 
L 380.110734 -218.627213 
L 382.489266 -219.455327 
L 384.867798 -220.280193 
L 387.246331 -221.10181 
L 389.624863 -221.920182 
L 392.003395 -222.73533 
L 394.381928 -223.547281 
L 396.76046 -224.356073 
L 399.138992 -225.161744 
L 401.517525 -225.964327 
L 403.896057 -226.763851 
L 406.274589 -227.560334 
L 408.653122 -228.353778 
L 411.031654 -229.144179 
L 413.410186 -229.931522 
L 415.788719 -230.715783 
L 418.167251 -231.49692 
L 420.545783 -232.274871 
L 422.924315 -233.049564 
L 425.302848 -233.820922 
L 427.68138 -234.588856 
L 430.059912 -235.35325 
L 432.438445 -236.113963 
L 434.816977 -236.870846 
L 437.195509 -237.623719 
L 439.574042 -238.372383 
L 441.952574 -239.116625 
L 444.331106 -239.856221 
L 446.709639 -240.590944 
L 449.088171 -241.320583 
L 451.466703 -242.044961 
L 453.845235 -242.763935 
L 456.223768 -243.477396 
L 458.6023 -244.1853 
L 460.980832 -244.887632 
L 463.359365 -245.584405 
L 465.737897 -246.275647 
L 468.116429 -246.961386 
L 470.494962 -247.641641 
L 472.873494 -248.316412 
L 475.252026 -248.985697 
L 477.630559 -249.649508 
L 480.009091 -250.307875 
L 482.387623 -250.960889 
L 484.766156 -251.608693 
L 487.144688 -252.251467 
L 489.52322 -252.889434 
L 491.901752 -253.522854 
L 494.280285 -254.152026 
L 496.658817 -254.777242 
L 499.037349 -255.398789 
L 501.415882 -256.016938 
L 503.794414 -256.631923 
L 506.172946 -257.243917 
L 508.551479 -257.85303 
L 510.930011 -258.459323 
L 513.308543 -259.062801 
L 515.687076 -259.663434 
L 518.065608 -260.26115 
L 520.44414 -260.85587 
L 522.822673 -261.447504 
L 525.201205 -262.035943 
L 527.579737 -262.621076 
L 529.958269 -263.202812 
L 532.336802 -263.781053 
L 534.715334 -264.355713 
L 537.093866 -264.926719 
L 539.472399 -265.494027 
L 541.850931 -266.057604 
L 544.229463 -266.617462 
L 546.607996 -267.173636 
L 548.986528 -267.726184 
L 551.36506 -268.275196 
L 553.743593 -268.82077 
L 556.122125 -269.363031 
L 558.500657 -269.902111 
L 560.879189 -270.438148 
L 563.257722 -270.971282 
L 565.636254 -271.501634 
L 568.014786 -272.029302 
L 570.393319 -272.554354 
L 572.771851 -273.076855 
L 575.150383 -273.596848 
L 577.528916 -274.114369 
L 579.907448 -274.629466 
L 582.28598 -275.14219 
L 584.664513 -275.652611 
L 587.043045 -276.160814 
L 589.421577 -276.666867 
L 591.80011 -277.170857 
L 594.178642 -277.672883 
L 596.557174 -278.173031 
L 598.935706 -278.671382 
L 601.314239 -279.168011 
L 603.692771 -279.662992 
L 606.071303 -280.156384 
L 608.449836 -280.648225 
L 610.828368 -281.138545 
L 613.2069 -281.62735 
L 615.585433 -282.114614 
L 617.963965 -282.600299 
L 620.342497 -283.084361 
L 622.72103 -283.56673 
L 625.099562 -284.047299 
L 627.478094 -284.525932 
L 629.856627 -285.002477 
L 632.235159 -285.476752 
L 634.613691 -285.948547 
L 636.992223 -286.417641 
L 639.370756 -286.883822 
L 641.749288 -287.346894 
L 644.12782 -287.806688 
L 646.506353 -288.263053 
L 648.884885 -288.715862 
L 651.263417 -289.165045 
L 653.64195 -289.610586 
L 656.020482 -290.052532 
L 658.399014 -290.491004 
L 660.777547 -290.926211 
L 663.156079 -291.358454 
L 665.534611 -291.788128 
L 667.913143 -292.215717 
L 670.291676 -292.641763 
L 672.670208 -293.066843 
L 675.04874 -293.491537 
L 677.427273 -293.916391 
L 677.427273 -341.567996 
L 677.427273 -341.567996 
L 675.04874 -342.173011 
L 672.670208 -342.775672 
L 670.291676 -343.376152 
L 667.913143 -343.974643 
L 665.534611 -344.571323 
L 663.156079 -345.166265 
L 660.777547 -345.759419 
L 658.399014 -346.350618 
L 656.020482 -346.939546 
L 653.64195 -347.525745 
L 651.263417 -348.108636 
L 648.884885 -348.687577 
L 646.506353 -349.26184 
L 644.12782 -349.830631 
L 641.749288 -350.39311 
L 639.370756 -350.948408 
L 636.992223 -351.495586 
L 634.613691 -352.03366 
L 632.235159 -352.561603 
L 629.856627 -353.078393 
L 627.478094 -353.583021 
L 625.099562 -354.074519 
L 622.72103 -354.552017 
L 620.342497 -355.014723 
L 617.963965 -355.461943 
L 615.585433 -355.893075 
L 613.2069 -356.307601 
L 610.828368 -356.705079 
L 608.449836 -357.085143 
L 606.071303 -357.447524 
L 603.692771 -357.79202 
L 601.314239 -358.118463 
L 598.935706 -358.426776 
L 596.557174 -358.716923 
L 594.178642 -358.988898 
L 591.80011 -359.242749 
L 589.421577 -359.478551 
L 587.043045 -359.696475 
L 584.664513 -359.896721 
L 582.28598 -360.079487 
L 579.907448 -360.245069 
L 577.528916 -360.393789 
L 575.150383 -360.525982 
L 572.771851 -360.642037 
L 570.393319 -360.742311 
L 568.014786 -360.827196 
L 565.636254 -360.897147 
L 563.257722 -360.952588 
L 560.879189 -360.993988 
L 558.500657 -361.021775 
L 556.122125 -361.036391 
L 553.743593 -361.038219 
L 551.36506 -361.027598 
L 548.986528 -361.004822 
L 546.607996 -360.970076 
L 544.229463 -360.923514 
L 541.850931 -360.865181 
L 539.472399 -360.794994 
L 537.093866 -360.712787 
L 534.715334 -360.618179 
L 532.336802 -360.510676 
L 529.958269 -360.389586 
L 527.579737 -360.254017 
L 525.201205 -360.102921 
L 522.822673 -359.935142 
L 520.44414 -359.749341 
L 518.065608 -359.544049 
L 515.687076 -359.317798 
L 513.308543 -359.069096 
L 510.930011 -358.796439 
L 508.551479 -358.498469 
L 506.172946 -358.17397 
L 503.794414 -357.821969 
L 501.415882 -357.441768 
L 499.037349 -357.033025 
L 496.658817 -356.595738 
L 494.280285 -356.130201 
L 491.901752 -355.636946 
L 489.52322 -355.1167 
L 487.144688 -354.57039 
L 484.766156 -353.998997 
L 482.387623 -353.40349 
L 480.009091 -352.784763 
L 477.630559 -352.143577 
L 475.252026 -351.480491 
L 472.873494 -350.795792 
L 470.494962 -350.089553 
L 468.116429 -349.361627 
L 465.737897 -348.611743 
L 463.359365 -347.839581 
L 460.980832 -347.044806 
L 458.6023 -346.227076 
L 456.223768 -345.386084 
L 453.845235 -344.521584 
L 451.466703 -343.633354 
L 449.088171 -342.721137 
L 446.709639 -341.784709 
L 444.331106 -340.82386 
L 441.952574 -339.838344 
L 439.574042 -338.827904 
L 437.195509 -337.79232 
L 434.816977 -336.731416 
L 432.438445 -335.64504 
L 430.059912 -334.533075 
L 427.68138 -333.39546 
L 425.302848 -332.232151 
L 422.924315 -331.043123 
L 420.545783 -329.828414 
L 418.167251 -328.588118 
L 415.788719 -327.32233 
L 413.410186 -326.031174 
L 411.031654 -324.714817 
L 408.653122 -323.373442 
L 406.274589 -322.007255 
L 403.896057 -320.616466 
L 401.517525 -319.201284 
L 399.138992 -317.761962 
L 396.76046 -316.29876 
L 394.381928 -314.811944 
L 392.003395 -313.301806 
L 389.624863 -311.768607 
L 387.246331 -310.212583 
L 384.867798 -308.633961 
L 382.489266 -307.032932 
L 380.110734 -305.409698 
L 377.732202 -303.764467 
L 375.353669 -302.097425 
L 372.975137 -300.408749 
L 370.596605 -298.698646 
L 368.218072 -296.967335 
L 365.83954 -295.215021 
L 363.461008 -293.441884 
L 361.082475 -291.64812 
L 358.703943 -289.833985 
L 356.325411 -287.999787 
L 353.946878 -286.145888 
L 351.568346 -284.272706 
L 349.189814 -282.380698 
L 346.811281 -280.470354 
L 344.432749 -278.542219 
L 342.054217 -276.596878 
L 339.675685 -274.634891 
L 337.297152 -272.656863 
L 334.91862 -270.663411 
L 332.540088 -268.655128 
L 330.161555 -266.632566 
L 327.783023 -264.596252 
L 325.404491 -262.546641 
L 323.025958 -260.484132 
L 320.647426 -258.409143 
L 318.268894 -256.322095 
L 315.890361 -254.223408 
L 313.511829 -252.113553 
L 311.133297 -249.993027 
L 308.754765 -247.862355 
L 306.376232 -245.722113 
L 303.9977 -243.572894 
L 301.619168 -241.415292 
L 299.240635 -239.249951 
L 296.862103 -237.077515 
L 294.483571 -234.898642 
L 292.105038 -232.713983 
L 289.726506 -230.524163 
L 287.347974 -228.329824 
L 284.969441 -226.131565 
L 282.590909 -223.929966 
L 280.212377 -221.725643 
L 277.833844 -219.519191 
L 275.455312 -217.311217 
L 273.07678 -215.1023 
L 270.698248 -212.892925 
L 268.319715 -210.683611 
L 265.941183 -208.474874 
L 263.562651 -206.267186 
L 261.184118 -204.060985 
L 258.805586 -201.856678 
L 256.427054 -199.654593 
L 254.048521 -197.455037 
L 251.669989 -195.258284 
L 249.291457 -193.064556 
L 246.912924 -190.874059 
L 244.534392 -188.686972 
L 242.15586 -186.503472 
L 239.777327 -184.32374 
L 237.398795 -182.14797 
L 235.020263 -179.976378 
L 232.641731 -177.809262 
L 230.263198 -175.646965 
L 227.884666 -173.489874 
L 225.506134 -171.338413 
L 223.127601 -169.193037 
L 220.749069 -167.054216 
L 218.370537 -164.922434 
L 215.992004 -162.798158 
L 213.613472 -160.681867 
L 211.23494 -158.574008 
L 208.856407 -156.474996 
L 206.477875 -154.385228 
L 204.099343 -152.305103 
L 201.720811 -150.235016 
L 199.342278 -148.175359 
L 196.963746 -146.126532 
L 194.585214 -144.088968 
L 192.206681 -142.063103 
L 189.828149 -140.049434 
L 187.449617 -138.048552 
L 185.071084 -136.061168 
L 182.692552 -134.088183 
L 180.31402 -132.130757 
L 177.935487 -130.190428 
L 175.556955 -128.269243 
L 173.178423 -126.369921 
L 170.79989 -124.495961 
L 168.421358 -122.651553 
L 166.042826 -120.841006 
L 163.664294 -119.067436 
L 161.285761 -117.331058 
L 158.907229 -115.628274 
L 156.528697 -113.952539 
L 154.150164 -112.296327 
L 151.771632 -110.652792 
L 149.3931 -109.016433 
L 147.014567 -107.383106 
L 144.636035 -105.749744 
L 142.257503 -104.114074 
L 139.87897 -102.474374 
L 137.500438 -100.829318 
L 135.121906 -99.177837 
L 132.743373 -97.519018 
L 130.364841 -95.852061 
L 127.986309 -94.176231 
L 125.607777 -92.490854 
L 123.229244 -90.795292 
L 120.850712 -89.088927 
L 118.47218 -87.371159 
L 116.093647 -85.6414 
L 113.715115 -83.899099 
L 111.336583 -82.143715 
L 108.95805 -80.37473 
L 106.579518 -78.591656 
L 104.200986 -76.794067 
L 101.822453 -74.98161 
L 99.443921 -73.154035 
L 97.065389 -71.311245 
L 94.686857 -69.453341 
L 92.308324 -67.580636 
L 89.929792 -65.693626 
L 87.55126 -63.792916 
L 85.172727 -61.879091 
z
" style="stroke: #000000; stroke-opacity: 0.1"/>
    </defs>
    <g clip-path="url(#p44ae5bab41)">
     <use xlink:href="#mf35a97dab6" x="0" y="360" style="fill-opacity: 0.1; stroke: #000000; stroke-opacity: 0.1"/>
    </g>
   </g>
   <g id="FillBetweenPolyCollection_2">
    <defs>
     <path id="mcbb54b0870" d="M 85.172727 -61.879091 
L 85.172727 -61.879091 
L 87.55126 -63.243807 
L 89.929792 -64.619267 
L 92.308324 -66.005685 
L 94.686857 -67.403191 
L 97.065389 -68.811802 
L 99.443921 -70.231417 
L 101.822453 -71.661822 
L 104.200986 -73.102711 
L 106.579518 -74.553712 
L 108.95805 -76.014402 
L 111.336583 -77.484333 
L 113.715115 -78.963036 
L 116.093647 -80.450038 
L 118.47218 -81.944869 
L 120.850712 -83.447068 
L 123.229244 -84.956175 
L 125.607777 -86.471749 
L 127.986309 -87.993368 
L 130.364841 -89.520623 
L 132.743373 -91.053106 
L 135.121906 -92.590417 
L 137.500438 -94.132157 
L 139.87897 -95.67792 
L 142.257503 -97.227288 
L 144.636035 -98.779807 
L 147.014567 -100.334973 
L 149.3931 -101.892216 
L 151.771632 -103.450891 
L 154.150164 -105.010252 
L 156.528697 -106.569439 
L 158.907229 -108.127461 
L 161.285761 -109.683171 
L 163.664294 -111.235274 
L 166.042826 -112.782318 
L 168.421358 -114.322712 
L 170.79989 -115.854748 
L 173.178423 -117.376611 
L 175.556955 -118.886433 
L 177.935487 -120.382341 
L 180.31402 -121.862521 
L 182.692552 -123.325277 
L 185.071084 -124.769089 
L 187.449617 -126.19265 
L 189.828149 -127.594893 
L 192.206681 -128.975007 
L 194.585214 -130.332435 
L 196.963746 -131.666869 
L 199.342278 -132.978223 
L 201.720811 -134.266617 
L 204.099343 -135.532351 
L 206.477875 -136.775874 
L 208.856407 -137.99775 
L 211.23494 -139.198632 
L 213.613472 -140.379233 
L 215.992004 -141.540303 
L 218.370537 -142.682612 
L 220.749069 -143.806928 
L 223.127601 -144.913991 
L 225.506134 -146.004513 
L 227.884666 -147.079158 
L 230.263198 -148.13854 
L 232.641731 -149.183213 
L 235.020263 -150.21367 
L 237.398795 -151.230339 
L 239.777327 -152.23359 
L 242.15586 -153.223726 
L 244.534392 -154.201006 
L 246.912924 -155.16566 
L 249.291457 -156.117887 
L 251.669989 -157.057873 
L 254.048521 -157.9858 
L 256.427054 -158.901846 
L 258.805586 -159.806201 
L 261.184118 -160.69906 
L 263.562651 -161.580619 
L 265.941183 -162.451091 
L 268.319715 -163.310691 
L 270.698248 -164.159637 
L 273.07678 -164.998152 
L 275.455312 -165.826453 
L 277.833844 -166.64475 
L 280.212377 -167.453275 
L 282.590909 -168.252271 
L 284.969441 -169.041985 
L 287.347974 -169.822681 
L 289.726506 -170.594622 
L 292.105038 -171.358084 
L 294.483571 -172.113366 
L 296.862103 -172.860763 
L 299.240635 -173.600574 
L 301.619168 -174.3331 
L 303.9977 -175.058631 
L 306.376232 -175.777452 
L 308.754765 -176.489828 
L 311.133297 -177.196017 
L 313.511829 -177.896262 
L 315.890361 -178.590785 
L 318.268894 -179.279791 
L 320.647426 -179.963471 
L 323.025958 -180.641982 
L 325.404491 -181.315457 
L 327.783023 -181.984028 
L 330.161555 -182.647823 
L 332.540088 -183.306975 
L 334.91862 -183.961633 
L 337.297152 -184.611956 
L 339.675685 -185.258112 
L 342.054217 -185.900269 
L 344.432749 -186.538584 
L 346.811281 -187.173193 
L 349.189814 -187.804225 
L 351.568346 -188.431785 
L 353.946878 -189.055946 
L 356.325411 -189.676753 
L 358.703943 -190.29422 
L 361.082475 -190.908331 
L 363.461008 -191.519061 
L 365.83954 -192.126363 
L 368.218072 -192.730172 
L 370.596605 -193.330426 
L 372.975137 -193.927069 
L 375.353669 -194.520071 
L 377.732202 -195.109404 
L 380.110734 -195.695044 
L 382.489266 -196.276983 
L 384.867798 -196.855227 
L 387.246331 -197.429788 
L 389.624863 -198.000682 
L 392.003395 -198.567936 
L 394.381928 -199.131582 
L 396.76046 -199.691659 
L 399.138992 -200.248214 
L 401.517525 -200.801284 
L 403.896057 -201.350897 
L 406.274589 -201.897071 
L 408.653122 -202.439806 
L 411.031654 -202.979095 
L 413.410186 -203.514917 
L 415.788719 -204.047243 
L 418.167251 -204.576031 
L 420.545783 -205.101219 
L 422.924315 -205.622734 
L 425.302848 -206.140512 
L 427.68138 -206.654474 
L 430.059912 -207.164514 
L 432.438445 -207.670517 
L 434.816977 -208.172362 
L 437.195509 -208.669907 
L 439.574042 -209.162998 
L 441.952574 -209.651474 
L 444.331106 -210.135167 
L 446.709639 -210.613913 
L 449.088171 -211.087564 
L 451.466703 -211.556009 
L 453.845235 -212.019156 
L 456.223768 -212.476938 
L 458.6023 -212.929337 
L 460.980832 -213.376356 
L 463.359365 -213.818017 
L 465.737897 -214.254359 
L 468.116429 -214.685427 
L 470.494962 -215.111263 
L 472.873494 -215.531908 
L 475.252026 -215.947406 
L 477.630559 -216.357819 
L 480.009091 -216.763225 
L 482.387623 -217.163738 
L 484.766156 -217.559505 
L 487.144688 -217.950686 
L 489.52322 -218.337449 
L 491.901752 -218.719962 
L 494.280285 -219.098395 
L 496.658817 -219.472888 
L 499.037349 -219.843559 
L 501.415882 -220.210496 
L 503.794414 -220.57375 
L 506.172946 -220.933317 
L 508.551479 -221.289148 
L 510.930011 -221.641169 
L 513.308543 -221.989278 
L 515.687076 -222.333371 
L 518.065608 -222.67334 
L 520.44414 -223.009098 
L 522.822673 -223.340576 
L 525.201205 -223.667713 
L 527.579737 -223.990474 
L 529.958269 -224.308855 
L 532.336802 -224.622863 
L 534.715334 -224.93252 
L 537.093866 -225.237865 
L 539.472399 -225.538954 
L 541.850931 -225.835838 
L 544.229463 -226.128588 
L 546.607996 -226.41727 
L 548.986528 -226.701951 
L 551.36506 -226.982695 
L 553.743593 -227.259548 
L 556.122125 -227.532548 
L 558.500657 -227.801716 
L 560.879189 -228.067056 
L 563.257722 -228.328554 
L 565.636254 -228.586169 
L 568.014786 -228.839833 
L 570.393319 -229.089448 
L 572.771851 -229.334902 
L 575.150383 -229.576064 
L 577.528916 -229.8128 
L 579.907448 -230.04498 
L 582.28598 -230.272477 
L 584.664513 -230.495174 
L 587.043045 -230.712968 
L 589.421577 -230.925753 
L 591.80011 -231.133439 
L 594.178642 -231.335949 
L 596.557174 -231.533215 
L 598.935706 -231.725182 
L 601.314239 -231.911807 
L 603.692771 -232.093067 
L 606.071303 -232.26895 
L 608.449836 -232.439459 
L 610.828368 -232.604609 
L 613.2069 -232.764428 
L 615.585433 -232.918958 
L 617.963965 -233.068256 
L 620.342497 -233.212403 
L 622.72103 -233.351498 
L 625.099562 -233.485654 
L 627.478094 -233.615012 
L 629.856627 -233.739742 
L 632.235159 -233.860044 
L 634.613691 -233.976155 
L 636.992223 -234.088354 
L 639.370756 -234.196965 
L 641.749288 -234.302354 
L 644.12782 -234.40494 
L 646.506353 -234.50518 
L 648.884885 -234.603572 
L 651.263417 -234.700652 
L 653.64195 -234.796992 
L 656.020482 -234.893184 
L 658.399014 -234.989845 
L 660.777547 -235.087591 
L 663.156079 -235.187025 
L 665.534611 -235.288728 
L 667.913143 -235.393243 
L 670.291676 -235.501058 
L 672.670208 -235.612598 
L 675.04874 -235.728231 
L 677.427273 -235.848263 
L 677.427273 -279.292038 
L 677.427273 -279.292038 
L 675.04874 -279.642422 
L 672.670208 -279.994041 
L 670.291676 -280.34666 
L 667.913143 -280.700119 
L 665.534611 -281.054354 
L 663.156079 -281.40938 
L 660.777547 -281.765278 
L 658.399014 -282.122194 
L 656.020482 -282.480309 
L 653.64195 -282.839829 
L 651.263417 -283.20096 
L 648.884885 -283.563927 
L 646.506353 -283.928929 
L 644.12782 -284.296124 
L 641.749288 -284.665617 
L 639.370756 -285.037449 
L 636.992223 -285.411546 
L 634.613691 -285.787717 
L 632.235159 -286.165652 
L 629.856627 -286.544948 
L 627.478094 -286.925115 
L 625.099562 -287.305589 
L 622.72103 -287.685777 
L 620.342497 -288.065061 
L 617.963965 -288.442827 
L 615.585433 -288.818466 
L 613.2069 -289.191389 
L 610.828368 -289.561032 
L 608.449836 -289.926827 
L 606.071303 -290.288237 
L 603.692771 -290.644731 
L 601.314239 -290.995784 
L 598.935706 -291.340897 
L 596.557174 -291.679568 
L 594.178642 -292.011288 
L 591.80011 -292.33557 
L 589.421577 -292.651932 
L 587.043045 -292.959926 
L 584.664513 -293.259133 
L 582.28598 -293.549143 
L 579.907448 -293.829628 
L 577.528916 -294.100282 
L 575.150383 -294.360844 
L 572.771851 -294.611119 
L 570.393319 -294.850921 
L 568.014786 -295.080118 
L 565.636254 -295.298662 
L 563.257722 -295.506534 
L 560.879189 -295.70381 
L 558.500657 -295.89059 
L 556.122125 -296.067046 
L 553.743593 -296.233372 
L 551.36506 -296.38981 
L 548.986528 -296.536663 
L 546.607996 -296.674224 
L 544.229463 -296.802847 
L 541.850931 -296.922881 
L 539.472399 -297.034632 
L 537.093866 -297.138411 
L 534.715334 -297.234395 
L 532.336802 -297.322684 
L 529.958269 -297.403208 
L 527.579737 -297.4757 
L 525.201205 -297.539721 
L 522.822673 -297.594673 
L 520.44414 -297.639713 
L 518.065608 -297.673786 
L 515.687076 -297.695719 
L 513.308543 -297.704198 
L 510.930011 -297.69777 
L 508.551479 -297.674993 
L 506.172946 -297.634436 
L 503.794414 -297.57478 
L 501.415882 -297.49487 
L 499.037349 -297.393806 
L 496.658817 -297.270953 
L 494.280285 -297.125933 
L 491.901752 -296.958606 
L 489.52322 -296.769062 
L 487.144688 -296.557641 
L 484.766156 -296.324841 
L 482.387623 -296.071265 
L 480.009091 -295.79757 
L 477.630559 -295.5044 
L 475.252026 -295.19231 
L 472.873494 -294.861662 
L 470.494962 -294.512651 
L 468.116429 -294.14528 
L 465.737897 -293.759418 
L 463.359365 -293.354862 
L 460.980832 -292.931366 
L 458.6023 -292.488647 
L 456.223768 -292.02643 
L 453.845235 -291.544475 
L 451.466703 -291.042554 
L 449.088171 -290.520398 
L 446.709639 -289.977764 
L 444.331106 -289.414415 
L 441.952574 -288.830084 
L 439.574042 -288.224487 
L 437.195509 -287.597371 
L 434.816977 -286.948514 
L 432.438445 -286.277709 
L 430.059912 -285.584772 
L 427.68138 -284.869565 
L 425.302848 -284.131944 
L 422.924315 -283.371768 
L 420.545783 -282.588947 
L 418.167251 -281.78343 
L 415.788719 -280.955148 
L 413.410186 -280.104043 
L 411.031654 -279.230081 
L 408.653122 -278.333227 
L 406.274589 -277.413461 
L 403.896057 -276.470761 
L 401.517525 -275.5051 
L 399.138992 -274.51649 
L 396.76046 -273.504954 
L 394.381928 -272.470519 
L 392.003395 -271.413237 
L 389.624863 -270.333144 
L 387.246331 -269.230268 
L 384.867798 -268.104646 
L 382.489266 -266.956297 
L 380.110734 -265.785273 
L 377.732202 -264.591656 
L 375.353669 -263.375519 
L 372.975137 -262.136937 
L 370.596605 -260.876029 
L 368.218072 -259.592937 
L 365.83954 -258.287791 
L 363.461008 -256.960698 
L 361.082475 -255.611753 
L 358.703943 -254.241133 
L 356.325411 -252.849063 
L 353.946878 -251.435825 
L 351.568346 -250.001773 
L 349.189814 -248.547301 
L 346.811281 -247.072845 
L 344.432749 -245.57891 
L 342.054217 -244.066054 
L 339.675685 -242.534818 
L 337.297152 -240.985793 
L 334.91862 -239.419589 
L 332.540088 -237.836801 
L 330.161555 -236.23798 
L 327.783023 -234.623643 
L 325.404491 -232.994232 
L 323.025958 -231.350147 
L 320.647426 -229.691807 
L 318.268894 -228.019636 
L 315.890361 -226.334054 
L 313.511829 -224.635533 
L 311.133297 -222.924594 
L 308.754765 -221.201795 
L 306.376232 -219.467759 
L 303.9977 -217.723142 
L 301.619168 -215.968617 
L 299.240635 -214.204922 
L 296.862103 -212.432804 
L 294.483571 -210.653029 
L 292.105038 -208.866351 
L 289.726506 -207.073514 
L 287.347974 -205.275286 
L 284.969441 -203.47239 
L 282.590909 -201.665532 
L 280.212377 -199.855447 
L 277.833844 -198.042845 
L 275.455312 -196.22844 
L 273.07678 -194.412909 
L 270.698248 -192.596822 
L 268.319715 -190.780781 
L 265.941183 -188.965368 
L 263.562651 -187.151107 
L 261.184118 -185.338461 
L 258.805586 -183.527842 
L 256.427054 -181.719558 
L 254.048521 -179.913868 
L 251.669989 -178.110976 
L 249.291457 -176.311007 
L 246.912924 -174.514057 
L 244.534392 -172.720173 
L 242.15586 -170.9294 
L 239.777327 -169.141794 
L 237.398795 -167.357432 
L 235.020263 -165.57645 
L 232.641731 -163.799093 
L 230.263198 -162.025702 
L 227.884666 -160.256704 
L 225.506134 -158.492613 
L 223.127601 -156.73402 
L 220.749069 -154.981575 
L 218.370537 -153.235979 
L 215.992004 -151.497953 
L 213.613472 -149.768251 
L 211.23494 -148.047607 
L 208.856407 -146.336732 
L 206.477875 -144.636315 
L 204.099343 -142.947033 
L 201.720811 -141.269534 
L 199.342278 -139.604403 
L 196.963746 -137.952156 
L 194.585214 -136.313232 
L 192.206681 -134.68794 
L 189.828149 -133.076446 
L 187.449617 -131.478768 
L 185.071084 -129.894732 
L 182.692552 -128.323944 
L 180.31402 -126.765786 
L 177.935487 -125.219427 
L 175.556955 -123.68381 
L 173.178423 -122.157708 
L 170.79989 -120.639769 
L 168.421358 -119.128547 
L 166.042826 -117.622555 
L 163.664294 -116.120313 
L 161.285761 -114.620371 
L 158.907229 -113.121308 
L 156.528697 -111.621765 
L 154.150164 -110.120456 
L 151.771632 -108.616202 
L 149.3931 -107.107898 
L 147.014567 -105.594514 
L 144.636035 -104.075076 
L 142.257503 -102.548664 
L 139.87897 -101.0144 
L 137.500438 -99.471466 
L 135.121906 -97.91907 
L 132.743373 -96.356419 
L 130.364841 -94.782733 
L 127.986309 -93.197224 
L 125.607777 -91.599119 
L 123.229244 -89.987653 
L 120.850712 -88.362058 
L 118.47218 -86.721577 
L 116.093647 -85.065461 
L 113.715115 -83.393005 
L 111.336583 -81.703526 
L 108.95805 -79.996372 
L 106.579518 -78.270937 
L 104.200986 -76.526689 
L 101.822453 -74.763182 
L 99.443921 -72.980093 
L 97.065389 -71.177274 
L 94.686857 -69.354812 
L 92.308324 -67.513065 
L 89.929792 -65.652652 
L 87.55126 -63.774376 
L 85.172727 -61.879091 
z
" style="stroke: #a52a2a; stroke-opacity: 0.1"/>
    </defs>
    <g clip-path="url(#p44ae5bab41)">
     <use xlink:href="#mcbb54b0870" x="0" y="360" style="fill: #a52a2a; fill-opacity: 0.1; stroke: #a52a2a; stroke-opacity: 0.1"/>
    </g>
   </g>
   <g id="FillBetweenPolyCollection_3">
    <defs>
     <path id="mbbb4fe325b" d="M 85.172727 -61.879091 
L 85.172727 -61.879091 
L 87.55126 -62.098098 
L 89.929792 -62.305502 
L 92.308324 -62.501251 
L 94.686857 -62.685353 
L 97.065389 -62.857883 
L 99.443921 -63.018994 
L 101.822453 -63.168939 
L 104.200986 -63.308088 
L 106.579518 -63.436925 
L 108.95805 -63.556037 
L 111.336583 -63.666096 
L 113.715115 -63.767837 
L 116.093647 -63.862035 
L 118.47218 -63.949483 
L 120.850712 -64.030974 
L 123.229244 -64.107285 
L 125.607777 -64.179171 
L 127.986309 -64.247366 
L 130.364841 -64.31257 
L 132.743373 -64.375465 
L 135.121906 -64.436705 
L 137.500438 -64.496916 
L 139.87897 -64.556674 
L 142.257503 -64.616485 
L 144.636035 -64.676768 
L 147.014567 -64.737832 
L 149.3931 -64.799853 
L 151.771632 -64.862877 
L 154.150164 -64.926837 
L 156.528697 -64.991553 
L 158.907229 -65.056748 
L 161.285761 -65.122074 
L 163.664294 -65.187153 
L 166.042826 -65.2516 
L 168.421358 -65.315045 
L 170.79989 -65.377148 
L 173.178423 -65.437619 
L 175.556955 -65.496246 
L 177.935487 -65.552904 
L 180.31402 -65.607553 
L 182.692552 -65.660243 
L 185.071084 -65.711099 
L 187.449617 -65.760308 
L 189.828149 -65.808114 
L 192.206681 -65.854828 
L 194.585214 -65.90084 
L 196.963746 -65.946636 
L 199.342278 -65.992835 
L 201.720811 -66.040224 
L 204.099343 -66.089774 
L 206.477875 -66.142636 
L 208.856407 -66.20012 
L 211.23494 -66.263622 
L 213.613472 -66.334537 
L 215.992004 -66.414148 
L 218.370537 -66.503513 
L 220.749069 -66.603362 
L 223.127601 -66.714009 
L 225.506134 -66.83529 
L 227.884666 -66.966545 
L 230.263198 -67.106636 
L 232.641731 -67.254008 
L 235.020263 -67.406796 
L 237.398795 -67.562931 
L 239.777327 -67.720255 
L 242.15586 -67.876604 
L 244.534392 -68.029878 
L 246.912924 -68.178081 
L 249.291457 -68.319354 
L 251.669989 -68.451994 
L 254.048521 -68.574475 
L 256.427054 -68.685465 
L 258.805586 -68.783833 
L 261.184118 -68.868658 
L 263.562651 -68.939228 
L 265.941183 -68.995032 
L 268.319715 -69.035752 
L 270.698248 -69.061249 
L 273.07678 -69.071551 
L 275.455312 -69.066846 
L 277.833844 -69.047471 
L 280.212377 -69.013902 
L 282.590909 -68.966756 
L 284.969441 -68.906777 
L 287.347974 -68.83484 
L 289.726506 -68.751937 
L 292.105038 -68.659176 
L 294.483571 -68.557775 
L 296.862103 -68.449059 
L 299.240635 -68.334454 
L 301.619168 -68.215486 
L 303.9977 -68.093768 
L 306.376232 -67.970993 
L 308.754765 -67.848925 
L 311.133297 -67.729374 
L 313.511829 -67.614176 
L 315.890361 -67.50516 
L 318.268894 -67.404108 
L 320.647426 -67.312716 
L 323.025958 -67.232552 
L 325.404491 -67.164991 
L 327.783023 -67.111178 
L 330.161555 -67.07198 
L 332.540088 -67.047944 
L 334.91862 -67.039273 
L 337.297152 -67.045816 
L 339.675685 -67.067084 
L 342.054217 -67.10226 
L 344.432749 -67.150255 
L 346.811281 -67.209752 
L 349.189814 -67.279251 
L 351.568346 -67.357137 
L 353.946878 -67.441734 
L 356.325411 -67.531349 
L 358.703943 -67.624314 
L 361.082475 -67.719022 
L 363.461008 -67.813955 
L 365.83954 -67.9077 
L 368.218072 -67.998962 
L 370.596605 -68.086572 
L 372.975137 -68.169485 
L 375.353669 -68.246776 
L 377.732202 -68.317645 
L 380.110734 -68.381413 
L 382.489266 -68.437517 
L 384.867798 -68.485501 
L 387.246331 -68.525013 
L 389.624863 -68.55579 
L 392.003395 -68.577672 
L 394.381928 -68.590586 
L 396.76046 -68.594544 
L 399.138992 -68.589646 
L 401.517525 -68.576077 
L 403.896057 -68.554121 
L 406.274589 -68.524169 
L 408.653122 -68.48674 
L 411.031654 -68.442491 
L 413.410186 -68.392239 
L 415.788719 -68.33697 
L 418.167251 -68.277836 
L 420.545783 -68.216127 
L 422.924315 -68.153227 
L 425.302848 -68.09055 
L 427.68138 -68.029458 
L 430.059912 -67.971182 
L 432.438445 -67.916745 
L 434.816977 -67.866899 
L 437.195509 -67.822095 
L 439.574042 -67.782482 
L 441.952574 -67.747926 
L 444.331106 -67.718052 
L 446.709639 -67.692295 
L 449.088171 -67.66996 
L 451.466703 -67.650284 
L 453.845235 -67.632488 
L 456.223768 -67.615813 
L 458.6023 -67.599549 
L 460.980832 -67.583048 
L 463.359365 -67.565736 
L 465.737897 -67.547127 
L 468.116429 -67.526836 
L 470.494962 -67.504587 
L 472.873494 -67.48021 
L 475.252026 -67.453651 
L 477.630559 -67.424953 
L 480.009091 -67.394246 
L 482.387623 -67.361718 
L 484.766156 -67.327618 
L 487.144688 -67.292234 
L 489.52322 -67.255888 
L 491.901752 -67.218931 
L 494.280285 -67.181749 
L 496.658817 -67.144742 
L 499.037349 -67.108312 
L 501.415882 -67.072861 
L 503.794414 -67.038783 
L 506.172946 -67.006473 
L 508.551479 -66.976334 
L 510.930011 -66.948796 
L 513.308543 -66.924325 
L 515.687076 -66.903436 
L 518.065608 -66.886687 
L 520.44414 -66.874681 
L 522.822673 -66.86805 
L 525.201205 -66.867417 
L 527.579737 -66.873362 
L 529.958269 -66.886375 
L 532.336802 -66.906831 
L 534.715334 -66.934973 
L 537.093866 -66.970908 
L 539.472399 -67.014615 
L 541.850931 -67.065977 
L 544.229463 -67.124809 
L 546.607996 -67.190922 
L 548.986528 -67.264142 
L 551.36506 -67.344349 
L 553.743593 -67.431519 
L 556.122125 -67.525735 
L 558.500657 -67.627201 
L 560.879189 -67.73623 
L 563.257722 -67.853233 
L 565.636254 -67.978715 
L 568.014786 -68.113253 
L 570.393319 -68.257487 
L 572.771851 -68.412091 
L 575.150383 -68.577762 
L 577.528916 -68.755196 
L 579.907448 -68.945053 
L 582.28598 -69.147951 
L 584.664513 -69.364439 
L 587.043045 -69.594969 
L 589.421577 -69.839911 
L 591.80011 -70.099545 
L 594.178642 -70.374063 
L 596.557174 -70.663553 
L 598.935706 -70.968022 
L 601.314239 -71.287379 
L 603.692771 -71.62145 
L 606.071303 -71.969946 
L 608.449836 -72.332467 
L 610.828368 -72.708486 
L 613.2069 -73.09733 
L 615.585433 -73.498191 
L 617.963965 -73.910114 
L 620.342497 -74.33201 
L 622.72103 -74.762664 
L 625.099562 -75.200774 
L 627.478094 -75.645016 
L 629.856627 -76.094083 
L 632.235159 -76.546722 
L 634.613691 -77.00178 
L 636.992223 -77.458245 
L 639.370756 -77.915253 
L 641.749288 -78.372082 
L 644.12782 -78.828162 
L 646.506353 -79.283059 
L 648.884885 -79.736459 
L 651.263417 -80.188139 
L 653.64195 -80.637968 
L 656.020482 -81.085898 
L 658.399014 -81.531951 
L 660.777547 -81.976207 
L 663.156079 -82.418794 
L 665.534611 -82.859891 
L 667.913143 -83.29972 
L 670.291676 -83.738528 
L 672.670208 -84.176602 
L 675.04874 -84.614268 
L 677.427273 -85.051876 
L 677.427273 -109.518789 
L 677.427273 -109.518789 
L 675.04874 -108.783877 
L 672.670208 -108.044545 
L 670.291676 -107.300884 
L 667.913143 -106.553132 
L 665.534611 -105.801607 
L 663.156079 -105.046651 
L 660.777547 -104.288614 
L 658.399014 -103.52781 
L 656.020482 -102.764526 
L 653.64195 -101.999077 
L 651.263417 -101.231843 
L 648.884885 -100.46332 
L 646.506353 -99.694162 
L 644.12782 -98.925171 
L 641.749288 -98.157294 
L 639.370756 -97.391526 
L 636.992223 -96.628848 
L 634.613691 -95.870137 
L 632.235159 -95.116094 
L 629.856627 -94.367191 
L 627.478094 -93.623641 
L 625.099562 -92.885428 
L 622.72103 -92.152369 
L 620.342497 -91.424223 
L 617.963965 -90.700806 
L 615.585433 -89.9821 
L 613.2069 -89.268332 
L 610.828368 -88.559992 
L 608.449836 -87.857836 
L 606.071303 -87.162799 
L 603.692771 -86.475955 
L 601.314239 -85.798413 
L 598.935706 -85.131253 
L 596.557174 -84.475469 
L 594.178642 -83.831916 
L 591.80011 -83.201291 
L 589.421577 -82.584086 
L 587.043045 -81.980636 
L 584.664513 -81.391126 
L 582.28598 -80.815624 
L 579.907448 -80.254098 
L 577.528916 -79.706501 
L 575.150383 -79.17279 
L 572.771851 -78.652917 
L 570.393319 -78.146865 
L 568.014786 -77.654634 
L 565.636254 -77.176288 
L 563.257722 -76.711973 
L 560.879189 -76.261898 
L 558.500657 -75.82638 
L 556.122125 -75.405801 
L 553.743593 -75.00063 
L 551.36506 -74.611368 
L 548.986528 -74.238505 
L 546.607996 -73.882545 
L 544.229463 -73.543981 
L 541.850931 -73.223343 
L 539.472399 -72.921222 
L 537.093866 -72.638245 
L 534.715334 -72.375146 
L 532.336802 -72.132723 
L 529.958269 -71.91185 
L 527.579737 -71.71341 
L 525.201205 -71.538204 
L 522.822673 -71.386865 
L 520.44414 -71.25976 
L 518.065608 -71.156884 
L 515.687076 -71.07777 
L 513.308543 -71.021451 
L 510.930011 -70.986466 
L 508.551479 -70.970925 
L 506.172946 -70.972582 
L 503.794414 -70.988929 
L 501.415882 -71.01728 
L 499.037349 -71.05488 
L 496.658817 -71.09898 
L 494.280285 -71.146936 
L 491.901752 -71.196264 
L 489.52322 -71.244691 
L 487.144688 -71.290171 
L 484.766156 -71.330845 
L 482.387623 -71.365035 
L 480.009091 -71.391254 
L 477.630559 -71.408242 
L 475.252026 -71.415034 
L 472.873494 -71.411025 
L 470.494962 -71.39605 
L 468.116429 -71.370423 
L 465.737897 -71.33495 
L 463.359365 -71.290902 
L 460.980832 -71.239922 
L 458.6023 -71.183909 
L 456.223768 -71.124919 
L 453.845235 -71.065057 
L 451.466703 -71.006395 
L 449.088171 -70.950912 
L 446.709639 -70.900492 
L 444.331106 -70.856876 
L 441.952574 -70.82163 
L 439.574042 -70.796119 
L 437.195509 -70.781479 
L 434.816977 -70.778601 
L 432.438445 -70.788103 
L 430.059912 -70.810327 
L 427.68138 -70.84534 
L 425.302848 -70.892922 
L 422.924315 -70.952554 
L 420.545783 -71.023437 
L 418.167251 -71.10449 
L 415.788719 -71.194361 
L 413.410186 -71.291464 
L 411.031654 -71.394018 
L 408.653122 -71.50012 
L 406.274589 -71.607811 
L 403.896057 -71.715164 
L 401.517525 -71.820368 
L 399.138992 -71.921771 
L 396.76046 -72.017927 
L 394.381928 -72.107642 
L 392.003395 -72.189996 
L 389.624863 -72.264356 
L 387.246331 -72.330384 
L 384.867798 -72.388032 
L 382.489266 -72.437537 
L 380.110734 -72.479416 
L 377.732202 -72.514457 
L 375.353669 -72.543697 
L 372.975137 -72.568395 
L 370.596605 -72.589997 
L 368.218072 -72.610095 
L 365.83954 -72.630417 
L 363.461008 -72.65276 
L 361.082475 -72.678913 
L 358.703943 -72.710598 
L 356.325411 -72.749416 
L 353.946878 -72.796783 
L 351.568346 -72.853896 
L 349.189814 -72.921725 
L 346.811281 -73.000929 
L 344.432749 -73.09187 
L 342.054217 -73.194609 
L 339.675685 -73.308966 
L 337.297152 -73.43446 
L 334.91862 -73.570321 
L 332.540088 -73.715536 
L 330.161555 -73.868829 
L 327.783023 -74.028691 
L 325.404491 -74.193444 
L 323.025958 -74.361231 
L 320.647426 -74.53005 
L 318.268894 -74.697835 
L 315.890361 -74.862521 
L 313.511829 -75.022069 
L 311.133297 -75.174493 
L 308.754765 -75.317932 
L 306.376232 -75.45066 
L 303.9977 -75.57107 
L 301.619168 -75.677679 
L 299.240635 -75.769074 
L 296.862103 -75.843959 
L 294.483571 -75.901187 
L 292.105038 -75.939716 
L 289.726506 -75.958636 
L 287.347974 -75.957221 
L 284.969441 -75.934942 
L 282.590909 -75.89144 
L 280.212377 -75.826538 
L 277.833844 -75.74025 
L 275.455312 -75.632796 
L 273.07678 -75.504587 
L 270.698248 -75.356239 
L 268.319715 -75.188548 
L 265.941183 -75.002517 
L 263.562651 -74.799353 
L 261.184118 -74.580438 
L 258.805586 -74.347313 
L 256.427054 -74.101662 
L 254.048521 -73.845246 
L 251.669989 -73.579879 
L 249.291457 -73.307397 
L 246.912924 -73.02964 
L 244.534392 -72.748462 
L 242.15586 -72.465743 
L 239.777327 -72.1834 
L 237.398795 -71.903403 
L 235.020263 -71.627776 
L 232.641731 -71.358558 
L 230.263198 -71.097752 
L 227.884666 -70.84726 
L 225.506134 -70.608811 
L 223.127601 -70.383912 
L 220.749069 -70.173809 
L 218.370537 -69.97947 
L 215.992004 -69.801585 
L 213.613472 -69.640562 
L 211.23494 -69.496516 
L 208.856407 -69.36925 
L 206.477875 -69.258248 
L 204.099343 -69.162666 
L 201.720811 -69.081336 
L 199.342278 -69.012808 
L 196.963746 -68.95539 
L 194.585214 -68.907235 
L 192.206681 -68.866425 
L 189.828149 -68.831064 
L 187.449617 -68.799351 
L 185.071084 -68.769644 
L 182.692552 -68.740501 
L 180.31402 -68.710682 
L 177.935487 -68.679155 
L 175.556955 -68.645088 
L 173.178423 -68.607838 
L 170.79989 -68.566918 
L 168.421358 -68.521973 
L 166.042826 -68.47276 
L 163.664294 -68.419111 
L 161.285761 -68.360928 
L 158.907229 -68.29816 
L 156.528697 -68.230775 
L 154.150164 -68.158744 
L 151.771632 -68.082016 
L 149.3931 -68.000503 
L 147.014567 -67.914072 
L 144.636035 -67.822504 
L 142.257503 -67.725481 
L 139.87897 -67.622582 
L 137.500438 -67.513274 
L 135.121906 -67.396924 
L 132.743373 -67.272807 
L 130.364841 -67.140123 
L 127.986309 -66.99802 
L 125.607777 -66.845625 
L 123.229244 -66.682061 
L 120.850712 -66.506464 
L 118.47218 -66.317993 
L 116.093647 -66.115846 
L 113.715115 -65.899225 
L 111.336583 -65.667334 
L 108.95805 -65.419368 
L 106.579518 -65.154499 
L 104.200986 -64.871871 
L 101.822453 -64.570598 
L 99.443921 -64.249792 
L 97.065389 -63.908625 
L 94.686857 -63.546401 
L 92.308324 -63.162616 
L 89.929792 -62.756944 
L 87.55126 -62.329177 
L 85.172727 -61.879091 
z
" style="stroke: #000080; stroke-opacity: 0.1"/>
    </defs>
    <g clip-path="url(#p44ae5bab41)">
     <use xlink:href="#mbbb4fe325b" x="0" y="360" style="fill: #000080; fill-opacity: 0.1; stroke: #000080; stroke-opacity: 0.1"/>
    </g>
   </g>
   <g id="FillBetweenPolyCollection_4">
    <defs>
     <path id="ma8eadccb05" d="M 85.172727 -61.879091 
L 85.172727 -61.879091 
L 87.55126 -62.52469 
L 89.929792 -63.151733 
L 92.308324 -63.759681 
L 94.686857 -64.348092 
L 97.065389 -64.916599 
L 99.443921 -65.464941 
L 101.822453 -65.992995 
L 104.200986 -66.500811 
L 106.579518 -66.988626 
L 108.95805 -67.456864 
L 111.336583 -67.906123 
L 113.715115 -68.337149 
L 116.093647 -68.750808 
L 118.47218 -69.14805 
L 120.850712 -69.529869 
L 123.229244 -69.897263 
L 125.607777 -70.25118 
L 127.986309 -70.592473 
L 130.364841 -70.921846 
L 132.743373 -71.239813 
L 135.121906 -71.546671 
L 137.500438 -71.842475 
L 139.87897 -72.127033 
L 142.257503 -72.399901 
L 144.636035 -72.660395 
L 147.014567 -72.907595 
L 149.3931 -73.14036 
L 151.771632 -73.35733 
L 154.150164 -73.556938 
L 156.528697 -73.737415 
L 158.907229 -73.896813 
L 161.285761 -74.033023 
L 163.664294 -74.143834 
L 166.042826 -74.227009 
L 168.421358 -74.2804 
L 170.79989 -74.302072 
L 173.178423 -74.290453 
L 175.556955 -74.244457 
L 177.935487 -74.163579 
L 180.31402 -74.04794 
L 182.692552 -73.898299 
L 185.071084 -73.716063 
L 187.449617 -73.503278 
L 189.828149 -73.262626 
L 192.206681 -72.997454 
L 194.585214 -72.711785 
L 196.963746 -72.41034 
L 199.342278 -72.09856 
L 201.720811 -71.782576 
L 204.099343 -71.46909 
L 206.477875 -71.165183 
L 208.856407 -70.877938 
L 211.23494 -70.613865 
L 213.613472 -70.378027 
L 215.992004 -70.172976 
L 218.370537 -69.997603 
L 220.749069 -69.846282 
L 223.127601 -69.709022 
L 225.506134 -69.573437 
L 227.884666 -69.428568 
L 230.263198 -69.26884 
L 232.641731 -69.095597 
L 235.020263 -68.915431 
L 237.398795 -68.737091 
L 239.777327 -68.568935 
L 242.15586 -68.417573 
L 244.534392 -68.287461 
L 246.912924 -68.180986 
L 249.291457 -68.098777 
L 251.669989 -68.040055 
L 254.048521 -68.002983 
L 256.427054 -67.984988 
L 258.805586 -67.98305 
L 261.184118 -67.993962 
L 263.562651 -68.014557 
L 265.941183 -68.041896 
L 268.319715 -68.073424 
L 270.698248 -68.107092 
L 273.07678 -68.141429 
L 275.455312 -68.175604 
L 277.833844 -68.209447 
L 280.212377 -68.24345 
L 282.590909 -68.278739 
L 284.969441 -68.31704 
L 287.347974 -68.360619 
L 289.726506 -68.412191 
L 292.105038 -68.474805 
L 294.483571 -68.551701 
L 296.862103 -68.646155 
L 299.240635 -68.761309 
L 301.619168 -68.900002 
L 303.9977 -69.064613 
L 306.376232 -69.256948 
L 308.754765 -69.478175 
L 311.133297 -69.728795 
L 313.511829 -70.008655 
L 315.890361 -70.317012 
L 318.268894 -70.652611 
L 320.647426 -71.013778 
L 323.025958 -71.398508 
L 325.404491 -71.804541 
L 327.783023 -72.229438 
L 330.161555 -72.670643 
L 332.540088 -73.125525 
L 334.91862 -73.591399 
L 337.297152 -74.065578 
L 339.675685 -74.545399 
L 342.054217 -75.028262 
L 344.432749 -75.511661 
L 346.811281 -75.993206 
L 349.189814 -76.47061 
L 351.568346 -76.941727 
L 353.946878 -77.404546 
L 356.325411 -77.857198 
L 358.703943 -78.297945 
L 361.082475 -78.72517 
L 363.461008 -79.137374 
L 365.83954 -79.533165 
L 368.218072 -79.911268 
L 370.596605 -80.27051 
L 372.975137 -80.609808 
L 375.353669 -80.928189 
L 377.732202 -81.224808 
L 380.110734 -81.49896 
L 382.489266 -81.750089 
L 384.867798 -81.977787 
L 387.246331 -82.181804 
L 389.624863 -82.362063 
L 392.003395 -82.518649 
L 394.381928 -82.651792 
L 396.76046 -82.761866 
L 399.138992 -82.849377 
L 401.517525 -82.91495 
L 403.896057 -82.959322 
L 406.274589 -82.983326 
L 408.653122 -82.987866 
L 411.031654 -82.973878 
L 413.410186 -82.942313 
L 415.788719 -82.894115 
L 418.167251 -82.830185 
L 420.545783 -82.751368 
L 422.924315 -82.658415 
L 425.302848 -82.551955 
L 427.68138 -82.432487 
L 430.059912 -82.300372 
L 432.438445 -82.155813 
L 434.816977 -81.998864 
L 437.195509 -81.829443 
L 439.574042 -81.647348 
L 441.952574 -81.452282 
L 444.331106 -81.243888 
L 446.709639 -81.021776 
L 449.088171 -80.785544 
L 451.466703 -80.534799 
L 453.845235 -80.269199 
L 456.223768 -79.988471 
L 458.6023 -79.692422 
L 460.980832 -79.380973 
L 463.359365 -79.054173 
L 465.737897 -78.712211 
L 468.116429 -78.355418 
L 470.494962 -77.984282 
L 472.873494 -77.599467 
L 475.252026 -77.201823 
L 477.630559 -76.792413 
L 480.009091 -76.37255 
L 482.387623 -75.94384 
L 484.766156 -75.508246 
L 487.144688 -75.068152 
L 489.52322 -74.626418 
L 491.901752 -74.186421 
L 494.280285 -73.75208 
L 496.658817 -73.327905 
L 499.037349 -72.919011 
L 501.415882 -72.531142 
L 503.794414 -72.170683 
L 506.172946 -71.844631 
L 508.551479 -71.560483 
L 510.930011 -71.326012 
L 513.308543 -71.148892 
L 515.687076 -71.036162 
L 518.065608 -70.993576 
L 520.44414 -71.024909 
L 522.822673 -71.13138 
L 525.201205 -71.311324 
L 527.579737 -71.560202 
L 529.958269 -71.870982 
L 532.336802 -72.234771 
L 534.715334 -72.6416 
L 537.093866 -73.081208 
L 539.472399 -73.543766 
L 541.850931 -74.020449 
L 544.229463 -74.503861 
L 546.607996 -74.98825 
L 548.986528 -75.469506 
L 551.36506 -75.944978 
L 553.743593 -76.41316 
L 556.122125 -76.873353 
L 558.500657 -77.325364 
L 560.879189 -77.769325 
L 563.257722 -78.205599 
L 565.636254 -78.634764 
L 568.014786 -79.057621 
L 570.393319 -79.475232 
L 572.771851 -79.888935 
L 575.150383 -80.300351 
L 577.528916 -80.711341 
L 579.907448 -81.123931 
L 582.28598 -81.54025 
L 584.664513 -81.962434 
L 587.043045 -82.392548 
L 589.421577 -82.832523 
L 591.80011 -83.284087 
L 594.178642 -83.748746 
L 596.557174 -84.227797 
L 598.935706 -84.722284 
L 601.314239 -85.233035 
L 603.692771 -85.76067 
L 606.071303 -86.30563 
L 608.449836 -86.868216 
L 610.828368 -87.448567 
L 613.2069 -88.046699 
L 615.585433 -88.662505 
L 617.963965 -89.295763 
L 620.342497 -89.946133 
L 622.72103 -90.613141 
L 625.099562 -91.296189 
L 627.478094 -91.994556 
L 629.856627 -92.707403 
L 632.235159 -93.433765 
L 634.613691 -94.172554 
L 636.992223 -94.922573 
L 639.370756 -95.682563 
L 641.749288 -96.451203 
L 644.12782 -97.227132 
L 646.506353 -98.008947 
L 648.884885 -98.795235 
L 651.263417 -99.584621 
L 653.64195 -100.375777 
L 656.020482 -101.167441 
L 658.399014 -101.958463 
L 660.777547 -102.747827 
L 663.156079 -103.534675 
L 665.534611 -104.318345 
L 667.913143 -105.098402 
L 670.291676 -105.87463 
L 672.670208 -106.647044 
L 675.04874 -107.4159 
L 677.427273 -108.181687 
L 677.427273 -144.24448 
L 677.427273 -144.24448 
L 675.04874 -143.226647 
L 672.670208 -142.192611 
L 670.291676 -141.140717 
L 667.913143 -140.069361 
L 665.534611 -138.977077 
L 663.156079 -137.862613 
L 660.777547 -136.724997 
L 658.399014 -135.563549 
L 656.020482 -134.377901 
L 653.64195 -133.167976 
L 651.263417 -131.933959 
L 648.884885 -130.676288 
L 646.506353 -129.395616 
L 644.12782 -128.092811 
L 641.749288 -126.768888 
L 639.370756 -125.425012 
L 636.992223 -124.0625 
L 634.613691 -122.682805 
L 632.235159 -121.287553 
L 629.856627 -119.878504 
L 627.478094 -118.45759 
L 625.099562 -117.026924 
L 622.72103 -115.588778 
L 620.342497 -114.145584 
L 617.963965 -112.699861 
L 615.585433 -111.254178 
L 613.2069 -109.811133 
L 610.828368 -108.373316 
L 608.449836 -106.943256 
L 606.071303 -105.523389 
L 603.692771 -104.116035 
L 601.314239 -102.723467 
L 598.935706 -101.3478 
L 596.557174 -99.991064 
L 594.178642 -98.65528 
L 591.80011 -97.342444 
L 589.421577 -96.054618 
L 587.043045 -94.793834 
L 584.664513 -93.562219 
L 582.28598 -92.362014 
L 579.907448 -91.195476 
L 577.528916 -90.064866 
L 575.150383 -88.972394 
L 572.771851 -87.920151 
L 570.393319 -86.910057 
L 568.014786 -85.943745 
L 565.636254 -85.022513 
L 563.257722 -84.147392 
L 560.879189 -83.31918 
L 558.500657 -82.538588 
L 556.122125 -81.806381 
L 553.743593 -81.123539 
L 551.36506 -80.491352 
L 548.986528 -79.911411 
L 546.607996 -79.38548 
L 544.229463 -78.915274 
L 541.850931 -78.502246 
L 539.472399 -78.147397 
L 537.093866 -77.85119 
L 534.715334 -77.613583 
L 532.336802 -77.434069 
L 529.958269 -77.311745 
L 527.579737 -77.245362 
L 525.201205 -77.23333 
L 522.822673 -77.273693 
L 520.44414 -77.364064 
L 518.065608 -77.501583 
L 515.687076 -77.682896 
L 513.308543 -77.904185 
L 510.930011 -78.16124 
L 508.551479 -78.449582 
L 506.172946 -78.764604 
L 503.794414 -79.101711 
L 501.415882 -79.456435 
L 499.037349 -79.824514 
L 496.658817 -80.201937 
L 494.280285 -80.584966 
L 491.901752 -80.970167 
L 489.52322 -81.354471 
L 487.144688 -81.735264 
L 484.766156 -82.110464 
L 482.387623 -82.478602 
L 480.009091 -82.838838 
L 477.630559 -83.190918 
L 475.252026 -83.535074 
L 472.873494 -83.871898 
L 470.494962 -84.202213 
L 468.116429 -84.526981 
L 465.737897 -84.847219 
L 463.359365 -85.163987 
L 460.980832 -85.478361 
L 458.6023 -85.791428 
L 456.223768 -86.10427 
L 453.845235 -86.417938 
L 451.466703 -86.733412 
L 449.088171 -87.051559 
L 446.709639 -87.373113 
L 444.331106 -87.698642 
L 441.952574 -88.028523 
L 439.574042 -88.362914 
L 437.195509 -88.701748 
L 434.816977 -89.044741 
L 432.438445 -89.391381 
L 430.059912 -89.740958 
L 427.68138 -90.092573 
L 425.302848 -90.445155 
L 422.924315 -90.797469 
L 420.545783 -91.148154 
L 418.167251 -91.495747 
L 415.788719 -91.838705 
L 413.410186 -92.175433 
L 411.031654 -92.504303 
L 408.653122 -92.823677 
L 406.274589 -93.131943 
L 403.896057 -93.427538 
L 401.517525 -93.708964 
L 399.138992 -93.974809 
L 396.76046 -94.223759 
L 394.381928 -94.45462 
L 392.003395 -94.666337 
L 389.624863 -94.857995 
L 387.246331 -95.028831 
L 384.867798 -95.178238 
L 382.489266 -95.305773 
L 380.110734 -95.411151 
L 377.732202 -95.494232 
L 375.353669 -95.555028 
L 372.975137 -95.593697 
L 370.596605 -95.610526 
L 368.218072 -95.605929 
L 365.83954 -95.58043 
L 363.461008 -95.534642 
L 361.082475 -95.469248 
L 358.703943 -95.385002 
L 356.325411 -95.282702 
L 353.946878 -95.163186 
L 351.568346 -95.027308 
L 349.189814 -94.875934 
L 346.811281 -94.709919 
L 344.432749 -94.530088 
L 342.054217 -94.337217 
L 339.675685 -94.132027 
L 337.297152 -93.915162 
L 334.91862 -93.68716 
L 332.540088 -93.448439 
L 330.161555 -93.199283 
L 327.783023 -92.939829 
L 325.404491 -92.67005 
L 323.025958 -92.389757 
L 320.647426 -92.098618 
L 318.268894 -91.796174 
L 315.890361 -91.481864 
L 313.511829 -91.155056 
L 311.133297 -90.815092 
L 308.754765 -90.46133 
L 306.376232 -90.093169 
L 303.9977 -89.71009 
L 301.619168 -89.311666 
L 299.240635 -88.897574 
L 296.862103 -88.467589 
L 294.483571 -88.021563 
L 292.105038 -87.559423 
L 289.726506 -87.081154 
L 287.347974 -86.586792 
L 284.969441 -86.076421 
L 282.590909 -85.550194 
L 280.212377 -85.008332 
L 277.833844 -84.45114 
L 275.455312 -83.879036 
L 273.07678 -83.292593 
L 270.698248 -82.692579 
L 268.319715 -82.080011 
L 265.941183 -81.456211 
L 263.562651 -80.822872 
L 261.184118 -80.182113 
L 258.805586 -79.536552 
L 256.427054 -78.889381 
L 254.048521 -78.244442 
L 251.669989 -77.606301 
L 249.291457 -76.980306 
L 246.912924 -76.37267 
L 244.534392 -75.790553 
L 242.15586 -75.242142 
L 239.777327 -74.736749 
L 237.398795 -74.284864 
L 235.020263 -73.898047 
L 232.641731 -73.588351 
L 230.263198 -73.36684 
L 227.884666 -73.240928 
L 225.506134 -73.21116 
L 223.127601 -73.269391 
L 220.749069 -73.400194 
L 218.370537 -73.584766 
L 215.992004 -73.804838 
L 213.613472 -74.044921 
L 211.23494 -74.292898 
L 208.856407 -74.53972 
L 206.477875 -74.778802 
L 204.099343 -75.005425 
L 201.720811 -75.216245 
L 199.342278 -75.408927 
L 196.963746 -75.581889 
L 194.585214 -75.734124 
L 192.206681 -75.865069 
L 189.828149 -75.974521 
L 187.449617 -76.062572 
L 185.071084 -76.129538 
L 182.692552 -76.175908 
L 180.31402 -76.202273 
L 177.935487 -76.209252 
L 175.556955 -76.197415 
L 173.178423 -76.167209 
L 170.79989 -76.118915 
L 168.421358 -76.052649 
L 166.042826 -75.968419 
L 163.664294 -75.866204 
L 161.285761 -75.746031 
L 158.907229 -75.608064 
L 156.528697 -75.452641 
L 154.150164 -75.280275 
L 151.771632 -75.091616 
L 149.3931 -74.88743 
L 147.014567 -74.668524 
L 144.636035 -74.435681 
L 142.257503 -74.189586 
L 139.87897 -73.930761 
L 137.500438 -73.659529 
L 135.121906 -73.375977 
L 132.743373 -73.07992 
L 130.364841 -72.770876 
L 127.986309 -72.448049 
L 125.607777 -72.110329 
L 123.229244 -71.756276 
L 120.850712 -71.384127 
L 118.47218 -70.991824 
L 116.093647 -70.577047 
L 113.715115 -70.137246 
L 111.336583 -69.669682 
L 108.95805 -69.171496 
L 106.579518 -68.639737 
L 104.200986 -68.071408 
L 101.822453 -67.463489 
L 99.443921 -66.81299 
L 97.065389 -66.117051 
L 94.686857 -65.373071 
L 92.308324 -64.578821 
L 89.929792 -63.732535 
L 87.55126 -62.832923 
L 85.172727 -61.879091 
z
" style="stroke: #add8e6; stroke-opacity: 0.1"/>
    </defs>
    <g clip-path="url(#p44ae5bab41)">
     <use xlink:href="#ma8eadccb05" x="0" y="360" style="fill: #add8e6; fill-opacity: 0.1; stroke: #add8e6; stroke-opacity: 0.1"/>
    </g>
   </g>
   <g id="line2d_1">
    <path d="M 85.172727 298.120909 
L 166.042826 240.120841 
L 232.641731 191.995 
L 254.048521 176.91293 
L 273.07678 163.753592 
L 289.726506 152.478356 
L 303.9977 143.040896 
L 318.268894 133.85931 
L 332.540088 124.971248 
L 344.432749 117.814165 
L 356.325411 110.913896 
L 368.218072 104.297024 
L 380.110734 97.981544 
L 389.624863 93.155606 
L 399.138992 88.538147 
L 408.653122 84.13639 
L 418.167251 79.957481 
L 427.68138 76.007842 
L 437.195509 72.291981 
L 446.709639 68.812173 
L 456.223768 65.56826 
L 465.737897 62.556305 
L 475.252026 59.766906 
L 484.766156 57.196155 
L 494.280285 54.858886 
L 503.794414 52.773054 
L 513.308543 50.934052 
L 522.822673 49.308677 
L 534.715334 47.513054 
L 546.607996 45.928144 
L 558.500657 44.538057 
L 570.393319 43.351667 
L 582.28598 42.389161 
L 594.178642 41.669109 
L 606.071303 41.198046 
L 617.963965 40.968879 
L 629.856627 40.959565 
L 644.12782 41.181341 
L 663.156079 41.737641 
L 677.427273 42.257806 
L 677.427273 42.257806 
" clip-path="url(#p44ae5bab41)" style="fill: none; stroke: #000000; stroke-width: 1.5; stroke-linecap: round"/>
   </g>
   <g id="line2d_2">
    <path d="M 85.172727 298.120909 
L 104.200986 285.1853 
L 123.229244 272.528086 
L 144.636035 258.572558 
L 175.556955 238.714878 
L 196.963746 225.190487 
L 213.613472 214.926258 
L 230.263198 204.917879 
L 246.912924 195.160142 
L 263.562651 185.634137 
L 280.212377 176.345639 
L 294.483571 168.616803 
L 308.754765 161.154188 
L 320.647426 155.172361 
L 332.540088 149.428112 
L 344.432749 143.941253 
L 356.325411 138.737092 
L 365.83954 134.792923 
L 375.353669 131.052205 
L 384.867798 127.520063 
L 394.381928 124.198949 
L 403.896057 121.089171 
L 413.410186 118.19052 
L 422.924315 115.502749 
L 432.438445 113.025887 
L 441.952574 110.759221 
L 451.466703 108.700718 
L 460.980832 106.846139 
L 470.494962 105.188043 
L 480.009091 103.719603 
L 489.52322 102.446745 
L 499.037349 101.381317 
L 508.551479 100.517929 
L 520.44414 99.675595 
L 534.715334 98.916542 
L 548.986528 98.380693 
L 563.257722 98.082456 
L 577.528916 98.043459 
L 591.80011 98.265495 
L 606.071303 98.721407 
L 622.72103 99.481363 
L 656.020482 101.313253 
L 677.427273 102.42985 
L 677.427273 102.42985 
" clip-path="url(#p44ae5bab41)" style="fill: none; stroke: #a52a2a; stroke-width: 1.5; stroke-linecap: round"/>
   </g>
   <g id="line2d_3">
    <path d="M 85.172727 298.120909 
L 94.686857 296.884123 
L 104.200986 295.91002 
L 113.715115 295.166469 
L 125.607777 294.487602 
L 139.87897 293.910372 
L 163.664294 293.196868 
L 185.071084 292.759628 
L 206.477875 292.299558 
L 215.992004 291.892134 
L 225.506134 291.27795 
L 237.398795 290.266833 
L 256.427054 288.606437 
L 265.941183 288.001226 
L 275.455312 287.650179 
L 284.969441 287.579141 
L 294.483571 287.770519 
L 306.376232 288.289174 
L 332.540088 289.61826 
L 342.054217 289.851566 
L 353.946878 289.880742 
L 392.003395 289.616166 
L 406.274589 289.93401 
L 432.438445 290.647576 
L 444.331106 290.712536 
L 484.766156 290.670769 
L 513.308543 291.027112 
L 522.822673 290.872543 
L 532.336802 290.480223 
L 541.850931 289.85534 
L 551.36506 289.022142 
L 560.879189 288.000936 
L 570.393319 286.797824 
L 579.907448 285.400425 
L 589.421577 283.788001 
L 598.935706 281.950363 
L 608.449836 279.904848 
L 620.342497 277.121883 
L 636.992223 272.956454 
L 675.04874 263.300927 
L 677.427273 262.714667 
L 677.427273 262.714667 
" clip-path="url(#p44ae5bab41)" style="fill: none; stroke: #000080; stroke-width: 1.5; stroke-linecap: round"/>
   </g>
   <g id="line2d_4">
    <path d="M 85.172727 298.120909 
L 92.308324 295.830749 
L 99.443921 293.861034 
L 106.579518 292.185819 
L 113.715115 290.762803 
L 120.850712 289.543002 
L 130.364841 288.153639 
L 139.87897 286.971103 
L 149.3931 285.986105 
L 158.907229 285.247561 
L 166.042826 284.902286 
L 173.178423 284.771169 
L 180.31402 284.874894 
L 187.449617 285.217075 
L 194.585214 285.777045 
L 204.099343 286.762743 
L 215.992004 288.011093 
L 223.127601 288.510793 
L 227.884666 288.665252 
L 232.641731 288.658026 
L 237.398795 288.489022 
L 244.534392 287.960993 
L 251.669989 287.176822 
L 263.562651 285.581286 
L 280.212377 283.374109 
L 299.240635 281.170558 
L 313.511829 279.418144 
L 327.783023 277.415367 
L 351.568346 274.015482 
L 361.082475 272.902791 
L 368.218072 272.241401 
L 375.353669 271.758391 
L 382.489266 271.472069 
L 389.624863 271.389971 
L 396.76046 271.507188 
L 403.896057 271.80657 
L 413.410186 272.441127 
L 425.302848 273.501445 
L 441.952574 275.259597 
L 456.223768 276.953629 
L 468.116429 278.558801 
L 480.009091 280.394306 
L 506.172946 284.695383 
L 510.930011 285.256374 
L 515.687076 285.640471 
L 520.44414 285.805513 
L 525.201205 285.727673 
L 529.958269 285.408637 
L 534.715334 284.872408 
L 539.472399 284.154419 
L 546.607996 282.813135 
L 553.743593 281.23165 
L 560.879189 279.455747 
L 568.014786 277.499317 
L 575.150383 275.363628 
L 582.28598 273.048868 
L 591.80011 269.686734 
L 601.314239 266.021749 
L 610.828368 262.089058 
L 622.72103 256.899041 
L 653.64195 243.228124 
L 663.156079 239.301356 
L 672.670208 235.580173 
L 677.427273 233.786916 
L 677.427273 233.786916 
" clip-path="url(#p44ae5bab41)" style="fill: none; stroke: #add8e6; stroke-width: 1.5; stroke-linecap: round"/>
   </g>
   <g id="patch_3">
    <path d="M 55.56 310.98 
L 55.56 28.08 
" style="fill: none; stroke: #ffffff; stroke-width: 1.25; stroke-linejoin: miter; stroke-linecap: square"/>
   </g>
   <g id="patch_4">
    <path d="M 707.04 310.98 
L 707.04 28.08 
" style="fill: none; stroke: #ffffff; stroke-width: 1.25; stroke-linejoin: miter; stroke-linecap: square"/>
   </g>
   <g id="patch_5">
    <path d="M 55.56 310.98 
L 707.04 310.98 
" style="fill: none; stroke: #ffffff; stroke-width: 1.25; stroke-linejoin: miter; stroke-linecap: square"/>
   </g>
   <g id="patch_6">
    <path d="M 55.56 28.08 
L 707.04 28.08 
" style="fill: none; stroke: #ffffff; stroke-width: 1.25; stroke-linejoin: miter; stroke-linecap: square"/>
   </g>
   <g id="text_17">
    <!-- QG3L - [112, 176] x [256, 384] -->
    <g style="fill: #262626" transform="translate(288.6225 22.08) scale(0.12 -0.12)">
     <defs>
      <path id="DejaVuSans-51" d="M 2522 4238 
Q 1834 4238 1429 3725 
Q 1025 3213 1025 2328 
Q 1025 1447 1429 934 
Q 1834 422 2522 422 
Q 3209 422 3611 934 
Q 4013 1447 4013 2328 
Q 4013 3213 3611 3725 
Q 3209 4238 2522 4238 
z
M 3406 84 
L 4238 -825 
L 3475 -825 
L 2784 -78 
Q 2681 -84 2626 -87 
Q 2572 -91 2522 -91 
Q 1538 -91 948 567 
Q 359 1225 359 2328 
Q 359 3434 948 4092 
Q 1538 4750 2522 4750 
Q 3503 4750 4090 4092 
Q 4678 3434 4678 2328 
Q 4678 1516 4351 937 
Q 4025 359 3406 84 
z
" transform="scale(0.015625)"/>
      <path id="DejaVuSans-47" d="M 3809 666 
L 3809 1919 
L 2778 1919 
L 2778 2438 
L 4434 2438 
L 4434 434 
Q 4069 175 3628 42 
Q 3188 -91 2688 -91 
Q 1594 -91 976 548 
Q 359 1188 359 2328 
Q 359 3472 976 4111 
Q 1594 4750 2688 4750 
Q 3144 4750 3555 4637 
Q 3966 4525 4313 4306 
L 4313 3634 
Q 3963 3931 3569 4081 
Q 3175 4231 2741 4231 
Q 1884 4231 1454 3753 
Q 1025 3275 1025 2328 
Q 1025 1384 1454 906 
Q 1884 428 2741 428 
Q 3075 428 3337 486 
Q 3600 544 3809 666 
z
" transform="scale(0.015625)"/>
      <path id="DejaVuSans-4c" d="M 628 4666 
L 1259 4666 
L 1259 531 
L 3531 531 
L 3531 0 
L 628 0 
L 628 4666 
z
" transform="scale(0.015625)"/>
      <path id="DejaVuSans-2d" d="M 313 2009 
L 1997 2009 
L 1997 1497 
L 313 1497 
L 313 2009 
z
" transform="scale(0.015625)"/>
      <path id="DejaVuSans-2c" d="M 750 794 
L 1409 794 
L 1409 256 
L 897 -744 
L 494 -744 
L 750 256 
L 750 794 
z
" transform="scale(0.015625)"/>
      <path id="DejaVuSans-78" d="M 3513 3500 
L 2247 1797 
L 3578 0 
L 2900 0 
L 1881 1375 
L 863 0 
L 184 0 
L 1544 1831 
L 300 3500 
L 978 3500 
L 1906 2253 
L 2834 3500 
L 3513 3500 
z
" transform="scale(0.015625)"/>
     </defs>
     <use xlink:href="#DejaVuSans-51"/>
     <use xlink:href="#DejaVuSans-47" transform="translate(78.710938 0)"/>
     <use xlink:href="#DejaVuSans-33" transform="translate(156.201172 0)"/>
     <use xlink:href="#DejaVuSans-4c" transform="translate(219.824219 0)"/>
     <use xlink:href="#DejaVuSans-20" transform="translate(275.537109 0)"/>
     <use xlink:href="#DejaVuSans-2d" transform="translate(307.324219 0)"/>
     <use xlink:href="#DejaVuSans-20" transform="translate(343.408203 0)"/>
     <use xlink:href="#DejaVuSans-5b" transform="translate(375.195312 0)"/>
     <use xlink:href="#DejaVuSans-31" transform="translate(414.208984 0)"/>
     <use xlink:href="#DejaVuSans-31" transform="translate(477.832031 0)"/>
     <use xlink:href="#DejaVuSans-32" transform="translate(541.455078 0)"/>
     <use xlink:href="#DejaVuSans-2c" transform="translate(605.078125 0)"/>
     <use xlink:href="#DejaVuSans-20" transform="translate(636.865234 0)"/>
     <use xlink:href="#DejaVuSans-31" transform="translate(668.652344 0)"/>
     <use xlink:href="#DejaVuSans-37" transform="translate(732.275391 0)"/>
     <use xlink:href="#DejaVuSans-36" transform="translate(795.898438 0)"/>
     <use xlink:href="#DejaVuSans-5d" transform="translate(859.521484 0)"/>
     <use xlink:href="#DejaVuSans-20" transform="translate(898.535156 0)"/>
     <use xlink:href="#DejaVuSans-78" transform="translate(930.322266 0)"/>
     <use xlink:href="#DejaVuSans-20" transform="translate(989.501953 0)"/>
     <use xlink:href="#DejaVuSans-5b" transform="translate(1021.289062 0)"/>
     <use xlink:href="#DejaVuSans-32" transform="translate(1060.302734 0)"/>
     <use xlink:href="#DejaVuSans-35" transform="translate(1123.925781 0)"/>
     <use xlink:href="#DejaVuSans-36" transform="translate(1187.548828 0)"/>
     <use xlink:href="#DejaVuSans-2c" transform="translate(1251.171875 0)"/>
     <use xlink:href="#DejaVuSans-20" transform="translate(1282.958984 0)"/>
     <use xlink:href="#DejaVuSans-33" transform="translate(1314.746094 0)"/>
     <use xlink:href="#DejaVuSans-38" transform="translate(1378.369141 0)"/>
     <use xlink:href="#DejaVuSans-34" transform="translate(1441.992188 0)"/>
     <use xlink:href="#DejaVuSans-5d" transform="translate(1505.615234 0)"/>
    </g>
   </g>
   <g id="legend_1">
    <g id="patch_7">
     <path d="M 63.26 101.46375 
L 222.600156 101.46375 
Q 224.800156 101.46375 224.800156 99.26375 
L 224.800156 35.78 
Q 224.800156 33.58 222.600156 33.58 
L 63.26 33.58 
Q 61.06 33.58 61.06 35.78 
L 61.06 99.26375 
Q 61.06 101.46375 63.26 101.46375 
z
" style="fill: #eaeaf2; opacity: 0.8; stroke: #cccccc; stroke-linejoin: miter"/>
    </g>
    <g id="line2d_5">
     <path d="M 65.46 42.488281 
L 76.46 42.488281 
L 87.46 42.488281 
" style="fill: none; stroke: #000000; stroke-width: 1.5; stroke-linecap: round"/>
    </g>
    <g id="text_18">
     <!-- Reduced Gravity - Pert -->
     <g style="fill: #262626" transform="translate(96.26 46.338281) scale(0.11 -0.11)">
      <defs>
       <path id="DejaVuSans-75" d="M 544 1381 
L 544 3500 
L 1119 3500 
L 1119 1403 
Q 1119 906 1312 657 
Q 1506 409 1894 409 
Q 2359 409 2629 706 
Q 2900 1003 2900 1516 
L 2900 3500 
L 3475 3500 
L 3475 0 
L 2900 0 
L 2900 538 
Q 2691 219 2414 64 
Q 2138 -91 1772 -91 
Q 1169 -91 856 284 
Q 544 659 544 1381 
z
M 1991 3584 
L 1991 3584 
z
" transform="scale(0.015625)"/>
       <path id="DejaVuSans-63" d="M 3122 3366 
L 3122 2828 
Q 2878 2963 2633 3030 
Q 2388 3097 2138 3097 
Q 1578 3097 1268 2742 
Q 959 2388 959 1747 
Q 959 1106 1268 751 
Q 1578 397 2138 397 
Q 2388 397 2633 464 
Q 2878 531 3122 666 
L 3122 134 
Q 2881 22 2623 -34 
Q 2366 -91 2075 -91 
Q 1284 -91 818 406 
Q 353 903 353 1747 
Q 353 2603 823 3093 
Q 1294 3584 2113 3584 
Q 2378 3584 2631 3529 
Q 2884 3475 3122 3366 
z
" transform="scale(0.015625)"/>
       <path id="DejaVuSans-72" d="M 2631 2963 
Q 2534 3019 2420 3045 
Q 2306 3072 2169 3072 
Q 1681 3072 1420 2755 
Q 1159 2438 1159 1844 
L 1159 0 
L 581 0 
L 581 3500 
L 1159 3500 
L 1159 2956 
Q 1341 3275 1631 3429 
Q 1922 3584 2338 3584 
Q 2397 3584 2469 3576 
Q 2541 3569 2628 3553 
L 2631 2963 
z
" transform="scale(0.015625)"/>
       <path id="DejaVuSans-76" d="M 191 3500 
L 800 3500 
L 1894 563 
L 2988 3500 
L 3597 3500 
L 2284 0 
L 1503 0 
L 191 3500 
z
" transform="scale(0.015625)"/>
       <path id="DejaVuSans-74" d="M 1172 4494 
L 1172 3500 
L 2356 3500 
L 2356 3053 
L 1172 3053 
L 1172 1153 
Q 1172 725 1289 603 
Q 1406 481 1766 481 
L 2356 481 
L 2356 0 
L 1766 0 
Q 1100 0 847 248 
Q 594 497 594 1153 
L 594 3053 
L 172 3053 
L 172 3500 
L 594 3500 
L 594 4494 
L 1172 4494 
z
" transform="scale(0.015625)"/>
       <path id="DejaVuSans-50" d="M 1259 4147 
L 1259 2394 
L 2053 2394 
Q 2494 2394 2734 2622 
Q 2975 2850 2975 3272 
Q 2975 3691 2734 3919 
Q 2494 4147 2053 4147 
L 1259 4147 
z
M 628 4666 
L 2053 4666 
Q 2838 4666 3239 4311 
Q 3641 3956 3641 3272 
Q 3641 2581 3239 2228 
Q 2838 1875 2053 1875 
L 1259 1875 
L 1259 0 
L 628 0 
L 628 4666 
z
" transform="scale(0.015625)"/>
      </defs>
      <use xlink:href="#DejaVuSans-52"/>
      <use xlink:href="#DejaVuSans-65" transform="translate(64.982422 0)"/>
      <use xlink:href="#DejaVuSans-64" transform="translate(126.505859 0)"/>
      <use xlink:href="#DejaVuSans-75" transform="translate(189.982422 0)"/>
      <use xlink:href="#DejaVuSans-63" transform="translate(253.361328 0)"/>
      <use xlink:href="#DejaVuSans-65" transform="translate(308.341797 0)"/>
      <use xlink:href="#DejaVuSans-64" transform="translate(369.865234 0)"/>
      <use xlink:href="#DejaVuSans-20" transform="translate(433.341797 0)"/>
      <use xlink:href="#DejaVuSans-47" transform="translate(465.128906 0)"/>
      <use xlink:href="#DejaVuSans-72" transform="translate(542.619141 0)"/>
      <use xlink:href="#DejaVuSans-61" transform="translate(583.732422 0)"/>
      <use xlink:href="#DejaVuSans-76" transform="translate(645.011719 0)"/>
      <use xlink:href="#DejaVuSans-69" transform="translate(704.191406 0)"/>
      <use xlink:href="#DejaVuSans-74" transform="translate(731.974609 0)"/>
      <use xlink:href="#DejaVuSans-79" transform="translate(771.183594 0)"/>
      <use xlink:href="#DejaVuSans-20" transform="translate(830.363281 0)"/>
      <use xlink:href="#DejaVuSans-2d" transform="translate(862.150391 0)"/>
      <use xlink:href="#DejaVuSans-20" transform="translate(898.234375 0)"/>
      <use xlink:href="#DejaVuSans-50" transform="translate(930.021484 0)"/>
      <use xlink:href="#DejaVuSans-65" transform="translate(986.699219 0)"/>
      <use xlink:href="#DejaVuSans-72" transform="translate(1048.222656 0)"/>
      <use xlink:href="#DejaVuSans-74" transform="translate(1089.335938 0)"/>
     </g>
    </g>
    <g id="line2d_6">
     <path d="M 65.46 58.634219 
L 76.46 58.634219 
L 87.46 58.634219 
" style="fill: none; stroke: #a52a2a; stroke-width: 1.5; stroke-linecap: round"/>
    </g>
    <g id="text_19">
     <!-- VarDyn -->
     <g style="fill: #262626" transform="translate(96.26 62.484219) scale(0.11 -0.11)">
      <defs>
       <path id="DejaVuSans-56" d="M 1831 0 
L 50 4666 
L 709 4666 
L 2188 738 
L 3669 4666 
L 4325 4666 
L 2547 0 
L 1831 0 
z
" transform="scale(0.015625)"/>
       <path id="DejaVuSans-44" d="M 1259 4147 
L 1259 519 
L 2022 519 
Q 2988 519 3436 956 
Q 3884 1394 3884 2338 
Q 3884 3275 3436 3711 
Q 2988 4147 2022 4147 
L 1259 4147 
z
M 628 4666 
L 1925 4666 
Q 3281 4666 3915 4102 
Q 4550 3538 4550 2338 
Q 4550 1131 3912 565 
Q 3275 0 1925 0 
L 628 0 
L 628 4666 
z
" transform="scale(0.015625)"/>
      </defs>
      <use xlink:href="#DejaVuSans-56"/>
      <use xlink:href="#DejaVuSans-61" transform="translate(60.658203 0)"/>
      <use xlink:href="#DejaVuSans-72" transform="translate(121.9375 0)"/>
      <use xlink:href="#DejaVuSans-44" transform="translate(163.050781 0)"/>
      <use xlink:href="#DejaVuSans-79" transform="translate(240.052734 0)"/>
      <use xlink:href="#DejaVuSans-6e" transform="translate(299.232422 0)"/>
     </g>
    </g>
    <g id="line2d_7">
     <path d="M 65.46 74.780156 
L 76.46 74.780156 
L 87.46 74.780156 
" style="fill: none; stroke: #000080; stroke-width: 1.5; stroke-linecap: round"/>
    </g>
    <g id="text_20">
     <!-- SurfML -->
     <g style="fill: #262626" transform="translate(96.26 78.630156) scale(0.11 -0.11)">
      <defs>
       <path id="DejaVuSans-66" d="M 2375 4863 
L 2375 4384 
L 1825 4384 
Q 1516 4384 1395 4259 
Q 1275 4134 1275 3809 
L 1275 3500 
L 2222 3500 
L 2222 3053 
L 1275 3053 
L 1275 0 
L 697 0 
L 697 3053 
L 147 3053 
L 147 3500 
L 697 3500 
L 697 3744 
Q 697 4328 969 4595 
Q 1241 4863 1831 4863 
L 2375 4863 
z
" transform="scale(0.015625)"/>
      </defs>
      <use xlink:href="#DejaVuSans-53"/>
      <use xlink:href="#DejaVuSans-75" transform="translate(63.476562 0)"/>
      <use xlink:href="#DejaVuSans-72" transform="translate(126.855469 0)"/>
      <use xlink:href="#DejaVuSans-66" transform="translate(167.96875 0)"/>
      <use xlink:href="#DejaVuSans-4d" transform="translate(203.173828 0)"/>
      <use xlink:href="#DejaVuSans-4c" transform="translate(289.453125 0)"/>
     </g>
    </g>
    <g id="line2d_8">
     <path d="M 65.46 90.926094 
L 76.46 90.926094 
L 87.46 90.926094 
" style="fill: none; stroke: #add8e6; stroke-width: 1.5; stroke-linecap: round"/>
    </g>
    <g id="text_21">
     <!-- SurfML - No Alpha -->
     <g style="fill: #262626" transform="translate(96.26 94.776094) scale(0.11 -0.11)">
      <defs>
       <path id="DejaVuSans-4e" d="M 628 4666 
L 1478 4666 
L 3547 763 
L 3547 4666 
L 4159 4666 
L 4159 0 
L 3309 0 
L 1241 3903 
L 1241 0 
L 628 0 
L 628 4666 
z
" transform="scale(0.015625)"/>
       <path id="DejaVuSans-6f" d="M 1959 3097 
Q 1497 3097 1228 2736 
Q 959 2375 959 1747 
Q 959 1119 1226 758 
Q 1494 397 1959 397 
Q 2419 397 2687 759 
Q 2956 1122 2956 1747 
Q 2956 2369 2687 2733 
Q 2419 3097 1959 3097 
z
M 1959 3584 
Q 2709 3584 3137 3096 
Q 3566 2609 3566 1747 
Q 3566 888 3137 398 
Q 2709 -91 1959 -91 
Q 1206 -91 779 398 
Q 353 888 353 1747 
Q 353 2609 779 3096 
Q 1206 3584 1959 3584 
z
" transform="scale(0.015625)"/>
       <path id="DejaVuSans-41" d="M 2188 4044 
L 1331 1722 
L 3047 1722 
L 2188 4044 
z
M 1831 4666 
L 2547 4666 
L 4325 0 
L 3669 0 
L 3244 1197 
L 1141 1197 
L 716 0 
L 50 0 
L 1831 4666 
z
" transform="scale(0.015625)"/>
       <path id="DejaVuSans-6c" d="M 603 4863 
L 1178 4863 
L 1178 0 
L 603 0 
L 603 4863 
z
" transform="scale(0.015625)"/>
       <path id="DejaVuSans-70" d="M 1159 525 
L 1159 -1331 
L 581 -1331 
L 581 3500 
L 1159 3500 
L 1159 2969 
Q 1341 3281 1617 3432 
Q 1894 3584 2278 3584 
Q 2916 3584 3314 3078 
Q 3713 2572 3713 1747 
Q 3713 922 3314 415 
Q 2916 -91 2278 -91 
Q 1894 -91 1617 61 
Q 1341 213 1159 525 
z
M 3116 1747 
Q 3116 2381 2855 2742 
Q 2594 3103 2138 3103 
Q 1681 3103 1420 2742 
Q 1159 2381 1159 1747 
Q 1159 1113 1420 752 
Q 1681 391 2138 391 
Q 2594 391 2855 752 
Q 3116 1113 3116 1747 
z
" transform="scale(0.015625)"/>
       <path id="DejaVuSans-68" d="M 3513 2113 
L 3513 0 
L 2938 0 
L 2938 2094 
Q 2938 2591 2744 2837 
Q 2550 3084 2163 3084 
Q 1697 3084 1428 2787 
Q 1159 2491 1159 1978 
L 1159 0 
L 581 0 
L 581 4863 
L 1159 4863 
L 1159 2956 
Q 1366 3272 1645 3428 
Q 1925 3584 2291 3584 
Q 2894 3584 3203 3211 
Q 3513 2838 3513 2113 
z
" transform="scale(0.015625)"/>
      </defs>
      <use xlink:href="#DejaVuSans-53"/>
      <use xlink:href="#DejaVuSans-75" transform="translate(63.476562 0)"/>
      <use xlink:href="#DejaVuSans-72" transform="translate(126.855469 0)"/>
      <use xlink:href="#DejaVuSans-66" transform="translate(167.96875 0)"/>
      <use xlink:href="#DejaVuSans-4d" transform="translate(203.173828 0)"/>
      <use xlink:href="#DejaVuSans-4c" transform="translate(289.453125 0)"/>
      <use xlink:href="#DejaVuSans-20" transform="translate(345.166016 0)"/>
      <use xlink:href="#DejaVuSans-2d" transform="translate(376.953125 0)"/>
      <use xlink:href="#DejaVuSans-20" transform="translate(413.037109 0)"/>
      <use xlink:href="#DejaVuSans-4e" transform="translate(444.824219 0)"/>
      <use xlink:href="#DejaVuSans-6f" transform="translate(519.628906 0)"/>
      <use xlink:href="#DejaVuSans-20" transform="translate(580.810547 0)"/>
      <use xlink:href="#DejaVuSans-41" transform="translate(612.597656 0)"/>
      <use xlink:href="#DejaVuSans-6c" transform="translate(681.005859 0)"/>
      <use xlink:href="#DejaVuSans-70" transform="translate(708.789062 0)"/>
      <use xlink:href="#DejaVuSans-68" transform="translate(772.265625 0)"/>
      <use xlink:href="#DejaVuSans-61" transform="translate(835.644531 0)"/>
     </g>
    </g>
   </g>
  </g>
 </g>
 <defs>
  <clipPath id="p44ae5bab41">
   <rect x="55.56" y="28.08" width="651.48" height="282.9"/>
  </clipPath>
 </defs>
</svg>
