<?xml version="1.0" encoding="utf-8" standalone="no"?>
<!DOCTYPE svg PUBLIC "-//W3C//DTD SVG 1.1//EN"
  "http://www.w3.org/Graphics/SVG/1.1/DTD/svg11.dtd">
<svg xmlns:xlink="http://www.w3.org/1999/xlink" width="720pt" height="360pt" viewBox="0 0 720 360" xmlns="http://www.w3.org/2000/svg" version="1.1">
 <metadata>
  <rdf:RDF xmlns:dc="http://purl.org/dc/elements/1.1/" xmlns:cc="http://creativecommons.org/ns#" xmlns:rdf="http://www.w3.org/1999/02/22-rdf-syntax-ns#">
   <cc:Work>
    <dc:type rdf:resource="http://purl.org/dc/dcmitype/StillImage"/>
    <dc:date>2026-03-24T15:46:59.016020</dc:date>
    <dc:format>image/svg+xml</dc:format>
    <dc:creator>
     <cc:Agent>
      <dc:title>Matplotlib v3.10.6, https://matplotlib.org/</dc:title>
     </cc:Agent>
    </dc:creator>
   </cc:Work>
  </rdf:RDF>
 </metadata>
 <defs>
  <style type="text/css">*{stroke-linejoin: round; stroke-linecap: butt}</style>
 </defs>
 <g id="figure_1">
  <g id="patch_1">
   <path d="M 0 360 
L 720 360 
L 720 0 
L 0 0 
z
" style="fill: #ffffff"/>
  </g>
  <g id="axes_1">
   <g id="patch_2">
    <path d="M 55.56 310.98 
L 707.04 310.98 
L 707.04 28.08 
L 55.56 28.08 
z
" style="fill: #eaeaf2"/>
   </g>
   <g id="matplotlib.axis_1">
    <g id="xtick_1">
     <g id="text_1">
      <!-- 0 -->
      <g style="fill: #262626" transform="translate(80.479291 328.838281) scale(0.11 -0.11)">
       <defs>
        <path id="DejaVuSans-30" d="M 2034 4250 
Q 1547 4250 1301 3770 
Q 1056 3291 1056 2328 
Q 1056 1369 1301 889 
Q 1547 409 2034 409 
Q 2525 409 2770 889 
Q 3016 1369 3016 2328 
Q 3016 3291 2770 3770 
Q 2525 4250 2034 4250 
z
M 2034 4750 
Q 2819 4750 3233 4129 
Q 3647 3509 3647 2328 
Q 3647 1150 3233 529 
Q 2819 -91 2034 -91 
Q 1250 -91 836 529 
Q 422 1150 422 2328 
Q 422 3509 836 4129 
Q 1250 4750 2034 4750 
z
" transform="scale(0.015625)"/>
       </defs>
       <use xlink:href="#DejaVuSans-30"/>
      </g>
     </g>
    </g>
    <g id="xtick_2">
     <g id="text_2">
      <!-- 5 -->
      <g style="fill: #262626" transform="translate(223.766681 328.838281) scale(0.11 -0.11)">
       <defs>
        <path id="DejaVuSans-35" d="M 691 4666 
L 3169 4666 
L 3169 4134 
L 1269 4134 
L 1269 2991 
Q 1406 3038 1543 3061 
Q 1681 3084 1819 3084 
Q 2600 3084 3056 2656 
Q 3513 2228 3513 1497 
Q 3513 744 3044 326 
Q 2575 -91 1722 -91 
Q 1428 -91 1123 -41 
Q 819 9 494 109 
L 494 744 
Q 775 591 1075 516 
Q 1375 441 1709 441 
Q 2250 441 2565 725 
Q 2881 1009 2881 1497 
Q 2881 1984 2565 2268 
Q 2250 2553 1709 2553 
Q 1456 2553 1204 2497 
Q 953 2441 691 2322 
L 691 4666 
z
" transform="scale(0.015625)"/>
       </defs>
       <use xlink:href="#DejaVuSans-35"/>
      </g>
     </g>
    </g>
    <g id="xtick_3">
     <g id="text_3">
      <!-- 10 -->
      <g style="fill: #262626" transform="translate(363.554696 328.838281) scale(0.11 -0.11)">
       <defs>
        <path id="DejaVuSans-31" d="M 794 531 
L 1825 531 
L 1825 4091 
L 703 3866 
L 703 4441 
L 1819 4666 
L 2450 4666 
L 2450 531 
L 3481 531 
L 3481 0 
L 794 0 
L 794 531 
z
" transform="scale(0.015625)"/>
       </defs>
       <use xlink:href="#DejaVuSans-31"/>
       <use xlink:href="#DejaVuSans-30" transform="translate(63.623047 0)"/>
      </g>
     </g>
    </g>
    <g id="xtick_4">
     <g id="text_4">
      <!-- 15 -->
      <g style="fill: #262626" transform="translate(506.842086 328.838281) scale(0.11 -0.11)">
       <use xlink:href="#DejaVuSans-31"/>
       <use xlink:href="#DejaVuSans-35" transform="translate(63.623047 0)"/>
      </g>
     </g>
    </g>
    <g id="xtick_5">
     <g id="text_5">
      <!-- 20 -->
      <g style="fill: #262626" transform="translate(650.129476 328.838281) scale(0.11 -0.11)">
       <defs>
        <path id="DejaVuSans-32" d="M 1228 531 
L 3431 531 
L 3431 0 
L 469 0 
L 469 531 
Q 828 903 1448 1529 
Q 2069 2156 2228 2338 
Q 2531 2678 2651 2914 
Q 2772 3150 2772 3378 
Q 2772 3750 2511 3984 
Q 2250 4219 1831 4219 
Q 1534 4219 1204 4116 
Q 875 4013 500 3803 
L 500 4441 
Q 881 4594 1212 4672 
Q 1544 4750 1819 4750 
Q 2544 4750 2975 4387 
Q 3406 4025 3406 3419 
Q 3406 3131 3298 2873 
Q 3191 2616 2906 2266 
Q 2828 2175 2409 1742 
Q 1991 1309 1228 531 
z
" transform="scale(0.015625)"/>
       </defs>
       <use xlink:href="#DejaVuSans-32"/>
       <use xlink:href="#DejaVuSans-30" transform="translate(63.623047 0)"/>
      </g>
     </g>
    </g>
    <g id="text_6">
     <!-- Time [days] -->
     <g style="fill: #262626" transform="translate(345.868125 344.244062) scale(0.12 -0.12)">
      <defs>
       <path id="DejaVuSans-54" d="M -19 4666 
L 3928 4666 
L 3928 4134 
L 2272 4134 
L 2272 0 
L 1638 0 
L 1638 4134 
L -19 4134 
L -19 4666 
z
" transform="scale(0.015625)"/>
       <path id="DejaVuSans-69" d="M 603 3500 
L 1178 3500 
L 1178 0 
L 603 0 
L 603 3500 
z
M 603 4863 
L 1178 4863 
L 1178 4134 
L 603 4134 
L 603 4863 
z
" transform="scale(0.015625)"/>
       <path id="DejaVuSans-6d" d="M 3328 2828 
Q 3544 3216 3844 3400 
Q 4144 3584 4550 3584 
Q 5097 3584 5394 3201 
Q 5691 2819 5691 2113 
L 5691 0 
L 5113 0 
L 5113 2094 
Q 5113 2597 4934 2840 
Q 4756 3084 4391 3084 
Q 3944 3084 3684 2787 
Q 3425 2491 3425 1978 
L 3425 0 
L 2847 0 
L 2847 2094 
Q 2847 2600 2669 2842 
Q 2491 3084 2119 3084 
Q 1678 3084 1418 2786 
Q 1159 2488 1159 1978 
L 1159 0 
L 581 0 
L 581 3500 
L 1159 3500 
L 1159 2956 
Q 1356 3278 1631 3431 
Q 1906 3584 2284 3584 
Q 2666 3584 2933 3390 
Q 3200 3197 3328 2828 
z
" transform="scale(0.015625)"/>
       <path id="DejaVuSans-65" d="M 3597 1894 
L 3597 1613 
L 953 1613 
Q 991 1019 1311 708 
Q 1631 397 2203 397 
Q 2534 397 2845 478 
Q 3156 559 3463 722 
L 3463 178 
Q 3153 47 2828 -22 
Q 2503 -91 2169 -91 
Q 1331 -91 842 396 
Q 353 884 353 1716 
Q 353 2575 817 3079 
Q 1281 3584 2069 3584 
Q 2775 3584 3186 3129 
Q 3597 2675 3597 1894 
z
M 3022 2063 
Q 3016 2534 2758 2815 
Q 2500 3097 2075 3097 
Q 1594 3097 1305 2825 
Q 1016 2553 972 2059 
L 3022 2063 
z
" transform="scale(0.015625)"/>
       <path id="DejaVuSans-20" transform="scale(0.015625)"/>
       <path id="DejaVuSans-5b" d="M 550 4863 
L 1875 4863 
L 1875 4416 
L 1125 4416 
L 1125 -397 
L 1875 -397 
L 1875 -844 
L 550 -844 
L 550 4863 
z
" transform="scale(0.015625)"/>
       <path id="DejaVuSans-64" d="M 2906 2969 
L 2906 4863 
L 3481 4863 
L 3481 0 
L 2906 0 
L 2906 525 
Q 2725 213 2448 61 
Q 2172 -91 1784 -91 
Q 1150 -91 751 415 
Q 353 922 353 1747 
Q 353 2572 751 3078 
Q 1150 3584 1784 3584 
Q 2172 3584 2448 3432 
Q 2725 3281 2906 2969 
z
M 947 1747 
Q 947 1113 1208 752 
Q 1469 391 1925 391 
Q 2381 391 2643 752 
Q 2906 1113 2906 1747 
Q 2906 2381 2643 2742 
Q 2381 3103 1925 3103 
Q 1469 3103 1208 2742 
Q 947 2381 947 1747 
z
" transform="scale(0.015625)"/>
       <path id="DejaVuSans-61" d="M 2194 1759 
Q 1497 1759 1228 1600 
Q 959 1441 959 1056 
Q 959 750 1161 570 
Q 1363 391 1709 391 
Q 2188 391 2477 730 
Q 2766 1069 2766 1631 
L 2766 1759 
L 2194 1759 
z
M 3341 1997 
L 3341 0 
L 2766 0 
L 2766 531 
Q 2569 213 2275 61 
Q 1981 -91 1556 -91 
Q 1019 -91 701 211 
Q 384 513 384 1019 
Q 384 1609 779 1909 
Q 1175 2209 1959 2209 
L 2766 2209 
L 2766 2266 
Q 2766 2663 2505 2880 
Q 2244 3097 1772 3097 
Q 1472 3097 1187 3025 
Q 903 2953 641 2809 
L 641 3341 
Q 956 3463 1253 3523 
Q 1550 3584 1831 3584 
Q 2591 3584 2966 3190 
Q 3341 2797 3341 1997 
z
" transform="scale(0.015625)"/>
       <path id="DejaVuSans-79" d="M 2059 -325 
Q 1816 -950 1584 -1140 
Q 1353 -1331 966 -1331 
L 506 -1331 
L 506 -850 
L 844 -850 
Q 1081 -850 1212 -737 
Q 1344 -625 1503 -206 
L 1606 56 
L 191 3500 
L 800 3500 
L 1894 763 
L 2988 3500 
L 3597 3500 
L 2059 -325 
z
" transform="scale(0.015625)"/>
       <path id="DejaVuSans-73" d="M 2834 3397 
L 2834 2853 
Q 2591 2978 2328 3040 
Q 2066 3103 1784 3103 
Q 1356 3103 1142 2972 
Q 928 2841 928 2578 
Q 928 2378 1081 2264 
Q 1234 2150 1697 2047 
L 1894 2003 
Q 2506 1872 2764 1633 
Q 3022 1394 3022 966 
Q 3022 478 2636 193 
Q 2250 -91 1575 -91 
Q 1294 -91 989 -36 
Q 684 19 347 128 
L 347 722 
Q 666 556 975 473 
Q 1284 391 1588 391 
Q 1994 391 2212 530 
Q 2431 669 2431 922 
Q 2431 1156 2273 1281 
Q 2116 1406 1581 1522 
L 1381 1569 
Q 847 1681 609 1914 
Q 372 2147 372 2553 
Q 372 3047 722 3315 
Q 1072 3584 1716 3584 
Q 2034 3584 2315 3537 
Q 2597 3491 2834 3397 
z
" transform="scale(0.015625)"/>
       <path id="DejaVuSans-5d" d="M 1947 4863 
L 1947 -844 
L 622 -844 
L 622 -397 
L 1369 -397 
L 1369 4416 
L 622 4416 
L 622 4863 
L 1947 4863 
z
" transform="scale(0.015625)"/>
      </defs>
      <use xlink:href="#DejaVuSans-54"/>
      <use xlink:href="#DejaVuSans-69" transform="translate(57.958984 0)"/>
      <use xlink:href="#DejaVuSans-6d" transform="translate(85.742188 0)"/>
      <use xlink:href="#DejaVuSans-65" transform="translate(183.154297 0)"/>
      <use xlink:href="#DejaVuSans-20" transform="translate(244.677734 0)"/>
      <use xlink:href="#DejaVuSans-5b" transform="translate(276.464844 0)"/>
      <use xlink:href="#DejaVuSans-64" transform="translate(315.478516 0)"/>
      <use xlink:href="#DejaVuSans-61" transform="translate(378.955078 0)"/>
      <use xlink:href="#DejaVuSans-79" transform="translate(440.234375 0)"/>
      <use xlink:href="#DejaVuSans-73" transform="translate(499.414062 0)"/>
      <use xlink:href="#DejaVuSans-5d" transform="translate(551.513672 0)"/>
     </g>
    </g>
   </g>
   <g id="matplotlib.axis_2">
    <g id="ytick_1">
     <g id="text_7">
      <!-- 0.0 -->
      <g style="fill: #262626" transform="translate(28.566562 302.30005) scale(0.11 -0.11)">
       <defs>
        <path id="DejaVuSans-2e" d="M 684 794 
L 1344 794 
L 1344 0 
L 684 0 
L 684 794 
z
" transform="scale(0.015625)"/>
       </defs>
       <use xlink:href="#DejaVuSans-30"/>
       <use xlink:href="#DejaVuSans-2e" transform="translate(63.623047 0)"/>
       <use xlink:href="#DejaVuSans-30" transform="translate(95.410156 0)"/>
      </g>
     </g>
    </g>
    <g id="ytick_2">
     <g id="text_8">
      <!-- 0.2 -->
      <g style="fill: #262626" transform="translate(28.566562 250.863686) scale(0.11 -0.11)">
       <use xlink:href="#DejaVuSans-30"/>
       <use xlink:href="#DejaVuSans-2e" transform="translate(63.623047 0)"/>
       <use xlink:href="#DejaVuSans-32" transform="translate(95.410156 0)"/>
      </g>
     </g>
    </g>
    <g id="ytick_3">
     <g id="text_9">
      <!-- 0.4 -->
      <g style="fill: #262626" transform="translate(28.566562 199.427322) scale(0.11 -0.11)">
       <defs>
        <path id="DejaVuSans-34" d="M 2419 4116 
L 825 1625 
L 2419 1625 
L 2419 4116 
z
M 2253 4666 
L 3047 4666 
L 3047 1625 
L 3713 1625 
L 3713 1100 
L 3047 1100 
L 3047 0 
L 2419 0 
L 2419 1100 
L 313 1100 
L 313 1709 
L 2253 4666 
z
" transform="scale(0.015625)"/>
       </defs>
       <use xlink:href="#DejaVuSans-30"/>
       <use xlink:href="#DejaVuSans-2e" transform="translate(63.623047 0)"/>
       <use xlink:href="#DejaVuSans-34" transform="translate(95.410156 0)"/>
      </g>
     </g>
    </g>
    <g id="ytick_4">
     <g id="text_10">
      <!-- 0.6 -->
      <g style="fill: #262626" transform="translate(28.566562 147.990959) scale(0.11 -0.11)">
       <defs>
        <path id="DejaVuSans-36" d="M 2113 2584 
Q 1688 2584 1439 2293 
Q 1191 2003 1191 1497 
Q 1191 994 1439 701 
Q 1688 409 2113 409 
Q 2538 409 2786 701 
Q 3034 994 3034 1497 
Q 3034 2003 2786 2293 
Q 2538 2584 2113 2584 
z
M 3366 4563 
L 3366 3988 
Q 3128 4100 2886 4159 
Q 2644 4219 2406 4219 
Q 1781 4219 1451 3797 
Q 1122 3375 1075 2522 
Q 1259 2794 1537 2939 
Q 1816 3084 2150 3084 
Q 2853 3084 3261 2657 
Q 3669 2231 3669 1497 
Q 3669 778 3244 343 
Q 2819 -91 2113 -91 
Q 1303 -91 875 529 
Q 447 1150 447 2328 
Q 447 3434 972 4092 
Q 1497 4750 2381 4750 
Q 2619 4750 2861 4703 
Q 3103 4656 3366 4563 
z
" transform="scale(0.015625)"/>
       </defs>
       <use xlink:href="#DejaVuSans-30"/>
       <use xlink:href="#DejaVuSans-2e" transform="translate(63.623047 0)"/>
       <use xlink:href="#DejaVuSans-36" transform="translate(95.410156 0)"/>
      </g>
     </g>
    </g>
    <g id="ytick_5">
     <g id="text_11">
      <!-- 0.8 -->
      <g style="fill: #262626" transform="translate(28.566562 96.554595) scale(0.11 -0.11)">
       <defs>
        <path id="DejaVuSans-38" d="M 2034 2216 
Q 1584 2216 1326 1975 
Q 1069 1734 1069 1313 
Q 1069 891 1326 650 
Q 1584 409 2034 409 
Q 2484 409 2743 651 
Q 3003 894 3003 1313 
Q 3003 1734 2745 1975 
Q 2488 2216 2034 2216 
z
M 1403 2484 
Q 997 2584 770 2862 
Q 544 3141 544 3541 
Q 544 4100 942 4425 
Q 1341 4750 2034 4750 
Q 2731 4750 3128 4425 
Q 3525 4100 3525 3541 
Q 3525 3141 3298 2862 
Q 3072 2584 2669 2484 
Q 3125 2378 3379 2068 
Q 3634 1759 3634 1313 
Q 3634 634 3220 271 
Q 2806 -91 2034 -91 
Q 1263 -91 848 271 
Q 434 634 434 1313 
Q 434 1759 690 2068 
Q 947 2378 1403 2484 
z
M 1172 3481 
Q 1172 3119 1398 2916 
Q 1625 2713 2034 2713 
Q 2441 2713 2670 2916 
Q 2900 3119 2900 3481 
Q 2900 3844 2670 4047 
Q 2441 4250 2034 4250 
Q 1625 4250 1398 4047 
Q 1172 3844 1172 3481 
z
" transform="scale(0.015625)"/>
       </defs>
       <use xlink:href="#DejaVuSans-30"/>
       <use xlink:href="#DejaVuSans-2e" transform="translate(63.623047 0)"/>
       <use xlink:href="#DejaVuSans-38" transform="translate(95.410156 0)"/>
      </g>
     </g>
    </g>
    <g id="ytick_6">
     <g id="text_12">
      <!-- 1.0 -->
      <g style="fill: #262626" transform="translate(28.566562 45.118232) scale(0.11 -0.11)">
       <use xlink:href="#DejaVuSans-31"/>
       <use xlink:href="#DejaVuSans-2e" transform="translate(63.623047 0)"/>
       <use xlink:href="#DejaVuSans-30" transform="translate(95.410156 0)"/>
      </g>
     </g>
    </g>
    <g id="text_13">
     <!-- Dt ψ₂ nRMSE -->
     <g style="fill: #262626" transform="translate(22.070937 207.428437) rotate(-90) scale(0.12 -0.12)">
      <defs>
       <path id="DejaVuSans-44" d="M 1259 4147 
L 1259 519 
L 2022 519 
Q 2988 519 3436 956 
Q 3884 1394 3884 2338 
Q 3884 3275 3436 3711 
Q 2988 4147 2022 4147 
L 1259 4147 
z
M 628 4666 
L 1925 4666 
Q 3281 4666 3915 4102 
Q 4550 3538 4550 2338 
Q 4550 1131 3912 565 
Q 3275 0 1925 0 
L 628 0 
L 628 4666 
z
" transform="scale(0.015625)"/>
       <path id="DejaVuSans-74" d="M 1172 4494 
L 1172 3500 
L 2356 3500 
L 2356 3053 
L 1172 3053 
L 1172 1153 
Q 1172 725 1289 603 
Q 1406 481 1766 481 
L 2356 481 
L 2356 0 
L 1766 0 
Q 1100 0 847 248 
Q 594 497 594 1153 
L 594 3053 
L 172 3053 
L 172 3500 
L 594 3500 
L 594 4494 
L 1172 4494 
z
" transform="scale(0.015625)"/>
       <path id="DejaVuSans-3c8" d="M 1816 -78 
Q 1094 38 759 341 
Q 350 713 350 1472 
L 350 3500 
L 931 3500 
L 931 1494 
Q 931 922 1197 684 
Q 1428 478 1816 434 
L 1816 3500 
L 2388 3500 
L 2388 438 
Q 2797 481 3006 688 
Q 3272 950 3272 1497 
L 3272 3500 
L 3853 3500 
L 3853 1475 
Q 3853 688 3444 344 
Q 3075 34 2388 -75 
L 2388 -1331 
L 1816 -1331 
L 1816 -78 
z
" transform="scale(0.015625)"/>
       <path id="DejaVuSans-2082" d="M 838 356 
L 2163 356 
L 2163 0 
L 294 0 
L 294 343 
Q 400 440 597 615 
Q 1672 1568 1672 1862 
Q 1672 2068 1509 2194 
Q 1347 2321 1081 2321 
Q 919 2321 728 2266 
Q 538 2212 313 2103 
L 313 2487 
Q 553 2575 761 2618 
Q 969 2662 1147 2662 
Q 1600 2662 1872 2456 
Q 2144 2250 2144 1912 
Q 2144 1478 1109 590 
Q 934 440 838 356 
z
" transform="scale(0.015625)"/>
       <path id="DejaVuSans-6e" d="M 3513 2113 
L 3513 0 
L 2938 0 
L 2938 2094 
Q 2938 2591 2744 2837 
Q 2550 3084 2163 3084 
Q 1697 3084 1428 2787 
Q 1159 2491 1159 1978 
L 1159 0 
L 581 0 
L 581 3500 
L 1159 3500 
L 1159 2956 
Q 1366 3272 1645 3428 
Q 1925 3584 2291 3584 
Q 2894 3584 3203 3211 
Q 3513 2838 3513 2113 
z
" transform="scale(0.015625)"/>
       <path id="DejaVuSans-52" d="M 2841 2188 
Q 3044 2119 3236 1894 
Q 3428 1669 3622 1275 
L 4263 0 
L 3584 0 
L 2988 1197 
Q 2756 1666 2539 1819 
Q 2322 1972 1947 1972 
L 1259 1972 
L 1259 0 
L 628 0 
L 628 4666 
L 2053 4666 
Q 2853 4666 3247 4331 
Q 3641 3997 3641 3322 
Q 3641 2881 3436 2590 
Q 3231 2300 2841 2188 
z
M 1259 4147 
L 1259 2491 
L 2053 2491 
Q 2509 2491 2742 2702 
Q 2975 2913 2975 3322 
Q 2975 3731 2742 3939 
Q 2509 4147 2053 4147 
L 1259 4147 
z
" transform="scale(0.015625)"/>
       <path id="DejaVuSans-4d" d="M 628 4666 
L 1569 4666 
L 2759 1491 
L 3956 4666 
L 4897 4666 
L 4897 0 
L 4281 0 
L 4281 4097 
L 3078 897 
L 2444 897 
L 1241 4097 
L 1241 0 
L 628 0 
L 628 4666 
z
" transform="scale(0.015625)"/>
       <path id="DejaVuSans-53" d="M 3425 4513 
L 3425 3897 
Q 3066 4069 2747 4153 
Q 2428 4238 2131 4238 
Q 1616 4238 1336 4038 
Q 1056 3838 1056 3469 
Q 1056 3159 1242 3001 
Q 1428 2844 1947 2747 
L 2328 2669 
Q 3034 2534 3370 2195 
Q 3706 1856 3706 1288 
Q 3706 609 3251 259 
Q 2797 -91 1919 -91 
Q 1588 -91 1214 -16 
Q 841 59 441 206 
L 441 856 
Q 825 641 1194 531 
Q 1563 422 1919 422 
Q 2459 422 2753 634 
Q 3047 847 3047 1241 
Q 3047 1584 2836 1778 
Q 2625 1972 2144 2069 
L 1759 2144 
Q 1053 2284 737 2584 
Q 422 2884 422 3419 
Q 422 4038 858 4394 
Q 1294 4750 2059 4750 
Q 2388 4750 2728 4690 
Q 3069 4631 3425 4513 
z
" transform="scale(0.015625)"/>
       <path id="DejaVuSans-45" d="M 628 4666 
L 3578 4666 
L 3578 4134 
L 1259 4134 
L 1259 2753 
L 3481 2753 
L 3481 2222 
L 1259 2222 
L 1259 531 
L 3634 531 
L 3634 0 
L 628 0 
L 628 4666 
z
" transform="scale(0.015625)"/>
      </defs>
      <use xlink:href="#DejaVuSans-44"/>
      <use xlink:href="#DejaVuSans-74" transform="translate(77.001953 0)"/>
      <use xlink:href="#DejaVuSans-20" transform="translate(116.210938 0)"/>
      <use xlink:href="#DejaVuSans-3c8" transform="translate(147.998047 0)"/>
      <use xlink:href="#DejaVuSans-2082" transform="translate(213.964844 0)"/>
      <use xlink:href="#DejaVuSans-20" transform="translate(254.052734 0)"/>
      <use xlink:href="#DejaVuSans-6e" transform="translate(285.839844 0)"/>
      <use xlink:href="#DejaVuSans-52" transform="translate(349.21875 0)"/>
      <use xlink:href="#DejaVuSans-4d" transform="translate(418.701172 0)"/>
      <use xlink:href="#DejaVuSans-53" transform="translate(504.980469 0)"/>
      <use xlink:href="#DejaVuSans-45" transform="translate(568.457031 0)"/>
     </g>
    </g>
   </g>
   <g id="FillBetweenPolyCollection_1">
    <defs>
     <path id="me01831c91e" d="M 85.172727 -231.624668 
L 85.172727 -171.498866 
L 87.56085 -169.661443 
L 89.948974 -167.897893 
L 92.337097 -166.218927 
L 94.72522 -164.631446 
L 97.113343 -163.139223 
L 99.501466 -161.74433 
L 101.889589 -160.448285 
L 104.277713 -159.253862 
L 106.665836 -158.164732 
L 109.053959 -157.184832 
L 111.442082 -156.317724 
L 113.830205 -155.564632 
L 116.218328 -154.922975 
L 118.606452 -154.385519 
L 120.994575 -153.941901 
L 123.382698 -153.577384 
L 125.770821 -153.273645 
L 128.158944 -153.010553 
L 130.547067 -152.767883 
L 132.935191 -152.526585 
L 135.323314 -152.271079 
L 137.711437 -151.99081 
L 140.09956 -151.679685 
L 142.487683 -151.338091 
L 144.875806 -150.972039 
L 147.26393 -150.5908 
L 149.652053 -150.208747 
L 152.040176 -149.838272 
L 154.428299 -149.493222 
L 156.816422 -149.183499 
L 159.204545 -148.916027 
L 161.592669 -148.694321 
L 163.980792 -148.524972 
L 166.368915 -148.413247 
L 168.757038 -148.36526 
L 171.145161 -148.387747 
L 173.533284 -148.485478 
L 175.921408 -148.6646 
L 178.309531 -148.929354 
L 180.697654 -149.282478 
L 183.085777 -149.726179 
L 185.4739 -150.262013 
L 187.862023 -150.888903 
L 190.250147 -151.604035 
L 192.63827 -152.401416 
L 195.026393 -153.271597 
L 197.414516 -154.201751 
L 199.802639 -155.176768 
L 202.190762 -156.180595 
L 204.578886 -157.196916 
L 206.967009 -158.210218 
L 209.355132 -159.206608 
L 211.743255 -160.172616 
L 214.131378 -161.096657 
L 216.519501 -161.967414 
L 218.907625 -162.775578 
L 221.295748 -163.514376 
L 223.683871 -164.179564 
L 226.071994 -164.769755 
L 228.460117 -165.286239 
L 230.84824 -165.733612 
L 233.236364 -166.119163 
L 235.624487 -166.452424 
L 238.01261 -166.744449 
L 240.400733 -167.007095 
L 242.788856 -167.252153 
L 245.176979 -167.490242 
L 247.565103 -167.730057 
L 249.953226 -167.978367 
L 252.341349 -168.239541 
L 254.729472 -168.516368 
L 257.117595 -168.810127 
L 259.505718 -169.120809 
L 261.893842 -169.448678 
L 264.281965 -169.795368 
L 266.670088 -170.162715 
L 269.058211 -170.552588 
L 271.446334 -170.966156 
L 273.834457 -171.403047 
L 276.222581 -171.862172 
L 278.610704 -172.341613 
L 280.998827 -172.838464 
L 283.38695 -173.348739 
L 285.775073 -173.866622 
L 288.163196 -174.385621 
L 290.55132 -174.898997 
L 292.939443 -175.399474 
L 295.327566 -175.880388 
L 297.715689 -176.33584 
L 300.103812 -176.760452 
L 302.491935 -177.149319 
L 304.880059 -177.497769 
L 307.268182 -177.80225 
L 309.656305 -178.06092 
L 312.044428 -178.272294 
L 314.432551 -178.435162 
L 316.820674 -178.547866 
L 319.208798 -178.607416 
L 321.596921 -178.608303 
L 323.985044 -178.542312 
L 326.373167 -178.399207 
L 328.76129 -178.167444 
L 331.149413 -177.836443 
L 333.537537 -177.397627 
L 335.92566 -176.845664 
L 338.313783 -176.179232 
L 340.701906 -175.401517 
L 343.090029 -174.519309 
L 345.478152 -173.542453 
L 347.866276 -172.483241 
L 350.254399 -171.355813 
L 352.642522 -170.173871 
L 355.030645 -168.951485 
L 357.418768 -167.70254 
L 359.806891 -166.441276 
L 362.195015 -165.183651 
L 364.583138 -163.947175 
L 366.971261 -162.751811 
L 369.359384 -161.619683 
L 371.747507 -160.574356 
L 374.13563 -159.63905 
L 376.523754 -158.833935 
L 378.911877 -158.175766 
L 381.3 -157.675952 
L 383.688123 -157.33986 
L 386.076246 -157.16613 
L 388.46437 -157.146889 
L 390.852493 -157.268076 
L 393.240616 -157.50872 
L 395.628739 -157.844695 
L 398.016862 -158.24943 
L 400.404985 -158.694957 
L 402.793109 -159.154141 
L 405.181232 -159.602742 
L 407.569355 -160.020664 
L 409.957478 -160.392848 
L 412.345601 -160.709811 
L 414.733724 -160.966464 
L 417.121848 -161.161046 
L 419.509971 -161.29491 
L 421.898094 -161.372199 
L 424.286217 -161.400503 
L 426.67434 -161.389309 
L 429.062463 -161.349883 
L 431.450587 -161.29571 
L 433.83871 -161.240187 
L 436.226833 -161.194197 
L 438.614956 -161.165013 
L 441.003079 -161.155217 
L 443.391202 -161.165335 
L 445.779326 -161.197509 
L 448.167449 -161.257768 
L 450.555572 -161.354147 
L 452.943695 -161.494608 
L 455.331818 -161.684403 
L 457.719941 -161.924097 
L 460.108065 -162.209638 
L 462.496188 -162.534023 
L 464.884311 -162.887852 
L 467.272434 -163.260494 
L 469.660557 -163.640878 
L 472.04868 -164.018682 
L 474.436804 -164.385509 
L 476.824927 -164.736928 
L 479.21305 -165.071748 
L 481.601173 -165.391555 
L 483.989296 -165.698726 
L 486.377419 -165.994459 
L 488.765543 -166.278155 
L 491.153666 -166.547419 
L 493.541789 -166.797586 
L 495.929912 -167.022473 
L 498.318035 -167.214259 
L 500.706158 -167.365372 
L 503.094282 -167.467762 
L 505.482405 -167.514676 
L 507.870528 -167.501743 
L 510.258651 -167.427052 
L 512.646774 -167.290433 
L 515.034897 -167.094161 
L 517.423021 -166.843076 
L 519.811144 -166.541391 
L 522.199267 -166.19411 
L 524.58739 -165.806001 
L 526.975513 -165.380861 
L 529.363636 -164.922583 
L 531.75176 -164.435698 
L 534.139883 -163.926017 
L 536.528006 -163.400784 
L 538.916129 -162.869484 
L 541.304252 -162.344547 
L 543.692375 -161.840004 
L 546.080499 -161.371741 
L 548.468622 -160.956202 
L 550.856745 -160.609137 
L 553.244868 -160.346279 
L 555.632991 -160.182783 
L 558.021114 -160.132656 
L 560.409238 -160.208414 
L 562.797361 -160.420589 
L 565.185484 -160.777272 
L 567.573607 -161.284018 
L 569.96173 -161.942689 
L 572.349853 -162.751532 
L 574.737977 -163.704311 
L 577.1261 -164.790641 
L 579.514223 -165.996424 
L 581.902346 -167.30467 
L 584.290469 -168.694737 
L 586.678592 -170.144687 
L 589.066716 -171.632954 
L 591.454839 -173.13949 
L 593.842962 -174.646267 
L 596.231085 -176.137427 
L 598.619208 -177.6007 
L 601.007331 -179.026006 
L 603.395455 -180.405531 
L 605.783578 -181.734211 
L 608.171701 -183.010203 
L 610.559824 -184.235247 
L 612.947947 -185.412683 
L 615.33607 -186.548726 
L 617.724194 -187.650961 
L 620.112317 -188.727185 
L 622.50044 -189.787113 
L 624.888563 -190.840399 
L 627.276686 -191.89729 
L 629.664809 -192.967398 
L 632.052933 -194.061074 
L 634.441056 -195.188885 
L 636.829179 -196.359954 
L 639.217302 -197.583017 
L 641.605425 -198.86772 
L 643.993548 -200.222682 
L 646.381672 -201.655967 
L 648.769795 -203.174058 
L 651.157918 -204.781181 
L 653.546041 -206.480433 
L 655.934164 -208.274246 
L 658.322287 -210.163553 
L 660.710411 -212.149826 
L 663.098534 -214.234484 
L 665.486657 -216.416788 
L 667.87478 -218.693476 
L 670.262903 -221.058508 
L 672.651026 -223.501983 
L 675.03915 -226.011448 
L 677.427273 -228.572756 
L 677.427273 -340.126768 
L 677.427273 -340.126768 
L 675.03915 -336.126741 
L 672.651026 -332.10879 
L 670.262903 -328.086671 
L 667.87478 -324.069756 
L 665.486657 -320.068385 
L 663.098534 -316.092909 
L 660.710411 -312.149186 
L 658.322287 -308.247375 
L 655.934164 -304.399105 
L 653.546041 -300.616446 
L 651.157918 -296.910969 
L 648.769795 -293.293119 
L 646.381672 -289.772951 
L 643.993548 -286.358805 
L 641.605425 -283.05899 
L 639.217302 -279.879894 
L 636.829179 -276.828666 
L 634.441056 -273.909274 
L 632.052933 -271.127776 
L 629.664809 -268.488818 
L 627.276686 -265.997997 
L 624.888563 -263.65969 
L 622.50044 -261.477224 
L 620.112317 -259.453198 
L 617.724194 -257.589487 
L 615.33607 -255.887996 
L 612.947947 -254.348347 
L 610.559824 -252.968555 
L 608.171701 -251.743263 
L 605.783578 -250.662996 
L 603.395455 -249.716536 
L 601.007331 -248.889284 
L 598.619208 -248.164154 
L 596.231085 -247.522795 
L 593.842962 -246.944955 
L 591.454839 -246.410833 
L 589.066716 -245.900278 
L 586.678592 -245.392619 
L 584.290469 -244.86749 
L 581.902346 -244.305975 
L 579.514223 -243.693059 
L 577.1261 -243.018029 
L 574.737977 -242.275936 
L 572.349853 -241.468171 
L 569.96173 -240.601797 
L 567.573607 -239.688991 
L 565.185484 -238.743667 
L 562.797361 -237.782143 
L 560.409238 -236.820397 
L 558.021114 -235.873946 
L 555.632991 -234.956523 
L 553.244868 -234.080429 
L 550.856745 -233.256832 
L 548.468622 -232.496376 
L 546.080499 -231.809079 
L 543.692375 -231.205114 
L 541.304252 -230.694391 
L 538.916129 -230.285378 
L 536.528006 -229.983278 
L 534.139883 -229.790173 
L 531.75176 -229.704414 
L 529.363636 -229.720471 
L 526.975513 -229.829378 
L 524.58739 -230.019703 
L 522.199267 -230.279811 
L 519.811144 -230.597698 
L 517.423021 -230.961218 
L 515.034897 -231.356947 
L 512.646774 -231.771925 
L 510.258651 -232.190857 
L 507.870528 -232.595414 
L 505.482405 -232.966136 
L 503.094282 -233.283332 
L 500.706158 -233.524441 
L 498.318035 -233.668717 
L 495.929912 -233.698992 
L 493.541789 -233.601664 
L 491.153666 -233.370418 
L 488.765543 -233.008549 
L 486.377419 -232.527413 
L 483.989296 -231.946167 
L 481.601173 -231.28945 
L 479.21305 -230.583223 
L 476.824927 -229.851403 
L 474.436804 -229.11324 
L 472.04868 -228.380833 
L 469.660557 -227.659507 
L 467.272434 -226.949359 
L 464.884311 -226.246775 
L 462.496188 -225.547521 
L 460.108065 -224.848778 
L 457.719941 -224.149268 
L 455.331818 -223.449844 
L 452.943695 -222.751838 
L 450.555572 -222.056894 
L 448.167449 -221.368628 
L 445.779326 -220.69174 
L 443.391202 -220.031327 
L 441.003079 -219.392393 
L 438.614956 -218.776504 
L 436.226833 -218.18345 
L 433.83871 -217.613517 
L 431.450587 -217.06919 
L 429.062463 -216.555756 
L 426.67434 -216.080787 
L 424.286217 -215.653649 
L 421.898094 -215.282911 
L 419.509971 -214.976291 
L 417.121848 -214.739595 
L 414.733724 -214.576762 
L 412.345601 -214.489731 
L 409.957478 -214.478901 
L 407.569355 -214.541591 
L 405.181232 -214.672132 
L 402.793109 -214.860617 
L 400.404985 -215.094209 
L 398.016862 -215.357843 
L 395.628739 -215.634251 
L 393.240616 -215.907659 
L 390.852493 -216.16652 
L 388.46437 -216.402354 
L 386.076246 -216.607844 
L 383.688123 -216.780217 
L 381.3 -216.916908 
L 378.911877 -217.015154 
L 376.523754 -217.072711 
L 374.13563 -217.089158 
L 371.747507 -217.065107 
L 369.359384 -217.000762 
L 366.971261 -216.900484 
L 364.583138 -216.768811 
L 362.195015 -216.611005 
L 359.806891 -216.43376 
L 357.418768 -216.245454 
L 355.030645 -216.057717 
L 352.642522 -215.882349 
L 350.254399 -215.732693 
L 347.866276 -215.622412 
L 345.478152 -215.562657 
L 343.090029 -215.566008 
L 340.701906 -215.639918 
L 338.313783 -215.789924 
L 335.92566 -216.01593 
L 333.537537 -216.312395 
L 331.149413 -216.669193 
L 328.76129 -217.071945 
L 326.373167 -217.505771 
L 323.985044 -217.95458 
L 321.596921 -218.402958 
L 319.208798 -218.837075 
L 316.820674 -219.246148 
L 314.432551 -219.622122 
L 312.044428 -219.959772 
L 309.656305 -220.25522 
L 307.268182 -220.505316 
L 304.880059 -220.707824 
L 302.491935 -220.860576 
L 300.103812 -220.963682 
L 297.715689 -221.019949 
L 295.327566 -221.03564 
L 292.939443 -221.018266 
L 290.55132 -220.974291 
L 288.163196 -220.906455 
L 285.775073 -220.812534 
L 283.38695 -220.686614 
L 280.998827 -220.522427 
L 278.610704 -220.316864 
L 276.222581 -220.068585 
L 273.834457 -219.774915 
L 271.446334 -219.431061 
L 269.058211 -219.030103 
L 266.670088 -218.566695 
L 264.281965 -218.042784 
L 261.893842 -217.469984 
L 259.505718 -216.86587 
L 257.117595 -216.249161 
L 254.729472 -215.635321 
L 252.341349 -215.037283 
L 249.953226 -214.466086 
L 247.565103 -213.933665 
L 245.176979 -213.450902 
L 242.788856 -213.0288 
L 240.400733 -212.676879 
L 238.01261 -212.402905 
L 235.624487 -212.212177 
L 233.236364 -212.109619 
L 230.84824 -212.098763 
L 228.460117 -212.18186 
L 226.071994 -212.360294 
L 223.683871 -212.633966 
L 221.295748 -213.001518 
L 218.907625 -213.457209 
L 216.519501 -213.992399 
L 214.131378 -214.592999 
L 211.743255 -215.240944 
L 209.355132 -215.914913 
L 206.967009 -216.589712 
L 204.578886 -217.238184 
L 202.190762 -217.831986 
L 199.802639 -218.343491 
L 197.414516 -218.746922 
L 195.026393 -219.019638 
L 192.63827 -219.143801 
L 190.250147 -219.106335 
L 187.862023 -218.898806 
L 185.4739 -218.517423 
L 183.085777 -217.961535 
L 180.697654 -217.23472 
L 178.309531 -216.343795 
L 175.921408 -215.299164 
L 173.533284 -214.114632 
L 171.145161 -212.806183 
L 168.757038 -211.390686 
L 166.368915 -209.884968 
L 163.980792 -208.304444 
L 161.592669 -206.663622 
L 159.204545 -204.976347 
L 156.816422 -203.255226 
L 154.428299 -201.516326 
L 152.040176 -199.776167 
L 149.652053 -198.055688 
L 147.26393 -196.378623 
L 144.875806 -194.773387 
L 142.487683 -193.271783 
L 140.09956 -191.911414 
L 137.711437 -190.730662 
L 135.323314 -189.767496 
L 132.935191 -189.055871 
L 130.547067 -188.622285 
L 128.158944 -188.484794 
L 125.770821 -188.650926 
L 123.382698 -189.123017 
L 120.994575 -189.899443 
L 118.606452 -190.976721 
L 116.218328 -192.351444 
L 113.830205 -194.020896 
L 111.442082 -195.983815 
L 109.053959 -198.237558 
L 106.665836 -200.774735 
L 104.277713 -203.580314 
L 101.889589 -206.630375 
L 99.501466 -209.892702 
L 97.113343 -213.327478 
L 94.72522 -216.890646 
L 92.337097 -220.538927 
L 89.948974 -224.232105 
L 87.56085 -227.935619 
L 85.172727 -231.624668 
z
" style="stroke: #000080; stroke-opacity: 0.1"/>
    </defs>
    <g clip-path="url(#p765bf83eb9)">
     <use xlink:href="#me01831c91e" x="0" y="360" style="fill: #000080; fill-opacity: 0.1; stroke: #000080; stroke-opacity: 0.1"/>
    </g>
   </g>
   <g id="FillBetweenPolyCollection_2">
    <path d="M 85.172727 -43.292931 
L 85.172727 51.324597 
L 87.56085 54.885097 
L 89.948974 58.383573 
L 92.337097 61.77474 
L 94.72522 65.006374 
L 97.113343 68.025782 
L 99.501466 70.786874 
L 101.889589 73.25182 
L 104.277713 75.393356 
L 106.665836 77.197292 
L 109.053959 78.663384 
L 111.442082 79.80649 
L 113.830205 80.654699 
L 116.218328 81.246878 
L 118.606452 81.62801 
L 120.994575 81.844952 
L 123.382698 81.943163 
L 125.770821 81.962826 
L 128.158944 81.935054 
L 130.547067 81.879769 
L 132.935191 81.804667 
L 135.323314 81.70823 
L 137.711437 81.58266 
L 140.09956 81.41974 
L 142.487683 81.214869 
L 144.875806 80.968503 
L 147.26393 80.685058 
L 149.652053 80.367859 
L 152.040176 80.020652 
L 154.428299 79.644432 
L 156.816422 79.2411 
L 159.204545 78.813858 
L 161.592669 78.37162 
L 163.980792 77.924575 
L 166.368915 77.48953 
L 168.757038 77.086671 
L 171.145161 76.736196 
L 173.533284 76.456674 
L 175.921408 76.257317 
L 178.309531 76.135533 
L 180.697654 76.073031 
L 183.085777 76.035497 
L 185.4739 75.975718 
L 187.862023 75.842198 
L 190.250147 75.583541 
L 192.63827 75.156427 
L 195.026393 74.531009 
L 197.414516 73.693535 
L 199.802639 72.645118 
L 202.190762 71.400947 
L 204.578886 69.986951 
L 206.967009 68.435187 
L 209.355132 66.780697 
L 211.743255 65.061233 
L 214.131378 63.313083 
L 216.519501 61.57348 
L 218.907625 59.877239 
L 221.295748 58.254794 
L 223.683871 56.732895 
L 226.071994 55.332032 
L 228.460117 54.066419 
L 230.84824 52.943626 
L 233.236364 51.964865 
L 235.624487 51.12515 
L 238.01261 50.41493 
L 240.400733 49.818849 
L 242.788856 49.316466 
L 245.176979 48.886074 
L 247.565103 48.506582 
L 249.953226 48.160754 
L 252.341349 47.837213 
L 254.729472 47.532259 
L 257.117595 47.248398 
L 259.505718 46.994015 
L 261.893842 46.780474 
L 264.281965 46.617606 
L 266.670088 46.509259 
L 269.058211 46.450692 
L 271.446334 46.42737 
L 273.834457 46.42047 
L 276.222581 46.414183 
L 278.610704 46.399733 
L 280.998827 46.376775 
L 283.38695 46.352055 
L 285.775073 46.334973 
L 288.163196 46.334848 
L 290.55132 46.364881 
L 292.939443 46.443716 
L 295.327566 46.597094 
L 297.715689 46.858889 
L 300.103812 47.26738 
L 302.491935 47.859655 
L 304.880059 48.669806 
L 307.268182 49.725137 
L 309.656305 51.043024 
L 312.044428 52.628284 
L 314.432551 54.470916 
L 316.820674 56.547195 
L 319.208798 58.821252 
L 321.596921 61.244586 
L 323.985044 63.761643 
L 326.373167 66.311635 
L 328.76129 68.834235 
L 331.149413 71.273026 
L 333.537537 73.580166 
L 335.92566 75.717975 
L 338.313783 77.660606 
L 340.701906 79.395246 
L 343.090029 80.922385 
L 345.478152 82.254711 
L 347.866276 83.411144 
L 350.254399 84.414752 
L 352.642522 85.286759 
L 355.030645 86.044749 
L 357.418768 86.699698 
L 359.806891 87.255896 
L 362.195015 87.710733 
L 364.583138 88.051985 
L 366.971261 88.258675 
L 369.359384 88.302851 
L 371.747507 88.152578 
L 374.13563 87.774626 
L 376.523754 87.13883 
L 378.911877 86.22137 
L 381.3 85.005626 
L 383.688123 83.482567 
L 386.076246 81.651573 
L 388.46437 79.519321 
L 390.852493 77.100129 
L 393.240616 74.413743 
L 395.628739 71.484073 
L 398.016862 68.337832 
L 400.404985 65.002408 
L 402.793109 61.506983 
L 405.181232 57.884147 
L 407.569355 54.170122 
L 409.957478 50.406023 
L 412.345601 46.638384 
L 414.733724 42.916384 
L 417.121848 39.289413 
L 419.509971 35.802464 
L 421.898094 32.494939 
L 424.286217 29.400137 
L 426.67434 26.546188 
L 429.062463 23.954418 
L 431.450587 21.634529 
L 433.83871 19.581443 
L 436.226833 17.777076 
L 438.614956 16.193002 
L 441.003079 14.796106 
L 443.391202 13.551923 
L 445.779326 12.428608 
L 448.167449 11.398523 
L 450.555572 10.433619 
L 452.943695 9.503536 
L 455.331818 8.573124 
L 457.719941 7.606571 
L 460.108065 6.573966 
L 462.496188 5.456075 
L 464.884311 4.243806 
L 467.272434 2.935418 
L 469.660557 1.533214 
L 472.04868 0.042119 
L 474.436804 -1.531764 
L 476.824927 -3.178711 
L 479.21305 -4.885366 
L 481.601173 -6.635576 
L 483.989296 -8.411306 
L 486.377419 -10.192827 
L 488.765543 -11.956468 
L 491.153666 -13.676078 
L 493.541789 -15.321854 
L 495.929912 -16.862329 
L 498.318035 -18.26519 
L 500.706158 -19.502047 
L 503.094282 -20.549121 
L 505.482405 -21.390291 
L 507.870528 -22.017713 
L 510.258651 -22.432368 
L 512.646774 -22.644395 
L 515.034897 -22.670304 
L 517.423021 -22.531854 
L 519.811144 -22.252777 
L 522.199267 -21.85763 
L 524.58739 -21.369333 
L 526.975513 -20.807792 
L 529.363636 -20.188745 
L 531.75176 -19.526479 
L 534.139883 -18.83361 
L 536.528006 -18.123647 
L 538.916129 -17.412067 
L 541.304252 -16.717863 
L 543.692375 -16.063295 
L 546.080499 -15.471339 
L 548.468622 -14.967116 
L 550.856745 -14.577095 
L 553.244868 -14.329808 
L 555.632991 -14.253055 
L 558.021114 -14.371596 
L 560.409238 -14.70401 
L 562.797361 -15.262043 
L 565.185484 -16.050052 
L 567.573607 -17.066855 
L 569.96173 -18.306161 
L 572.349853 -19.759957 
L 574.737977 -21.421793 
L 577.1261 -23.288707 
L 579.514223 -25.358576 
L 581.902346 -27.630944 
L 584.290469 -30.104331 
L 586.678592 -32.777656 
L 589.066716 -35.646816 
L 591.454839 -38.703341 
L 593.842962 -41.940103 
L 596.231085 -45.349635 
L 598.619208 -48.925915 
L 601.007331 -52.66808 
L 603.395455 -56.581731 
L 605.783578 -60.672672 
L 608.171701 -64.947577 
L 610.559824 -69.414991 
L 612.947947 -74.076925 
L 615.33607 -78.930955 
L 617.724194 -83.971709 
L 620.112317 -89.188444 
L 622.50044 -94.567566 
L 624.888563 -100.093569 
L 627.276686 -105.751843 
L 629.664809 -111.525252 
L 632.052933 -117.398742 
L 634.441056 -123.358748 
L 636.829179 -129.391275 
L 639.217302 -135.483036 
L 641.605425 -141.623561 
L 643.993548 -147.799479 
L 646.381672 -153.99694 
L 648.769795 -160.196404 
L 651.157918 -166.369907 
L 653.546041 -172.484742 
L 655.934164 -178.505938 
L 658.322287 -184.398245 
L 660.710411 -190.133482 
L 663.098534 -195.696663 
L 665.486657 -201.086527 
L 667.87478 -206.315877 
L 670.262903 -211.406649 
L 672.651026 -216.386916 
L 675.03915 -221.286361 
L 677.427273 -226.128914 
L 677.427273 -593.057845 
L 677.427273 -593.057845 
L 675.03915 -587.886277 
L 672.651026 -582.464852 
L 670.262903 -576.791058 
L 667.87478 -570.857907 
L 665.486657 -564.664095 
L 663.098534 -558.208778 
L 660.710411 -551.487029 
L 658.322287 -544.509478 
L 655.934164 -537.301233 
L 653.546041 -529.894747 
L 651.157918 -522.327467 
L 648.769795 -514.635881 
L 646.381672 -506.856174 
L 643.993548 -499.021901 
L 641.605425 -491.164808 
L 639.217302 -483.31245 
L 636.829179 -475.492751 
L 634.441056 -467.738257 
L 632.052933 -460.082948 
L 629.664809 -452.557058 
L 627.276686 -445.180317 
L 624.888563 -437.960912 
L 622.50044 -430.891315 
L 620.112317 -423.944902 
L 617.724194 -417.083782 
L 615.33607 -410.26499 
L 612.947947 -403.444716 
L 610.559824 -396.583383 
L 608.171701 -389.649466 
L 605.783578 -382.625781 
L 603.395455 -375.509465 
L 601.007331 -368.308002 
L 598.619208 -361.039305 
L 596.231085 -353.732773 
L 593.842962 -346.421989 
L 591.454839 -339.148429 
L 589.066716 -331.960582 
L 586.678592 -324.906589 
L 584.290469 -318.028083 
L 581.902346 -311.359405 
L 579.514223 -304.924188 
L 577.1261 -298.732161 
L 574.737977 -292.78567 
L 572.349853 -287.084935 
L 569.96173 -281.634926 
L 567.573607 -276.443959 
L 565.185484 -271.5219 
L 562.797361 -266.881506 
L 560.409238 -262.535629 
L 558.021114 -258.49403 
L 555.632991 -254.760695 
L 553.244868 -251.336693 
L 550.856745 -248.22312 
L 548.468622 -245.42059 
L 546.080499 -242.927579 
L 543.692375 -240.738529 
L 541.304252 -238.841075 
L 538.916129 -237.216767 
L 536.528006 -235.83867 
L 534.139883 -234.672979 
L 531.75176 -233.682618 
L 529.363636 -232.827273 
L 526.975513 -232.069287 
L 524.58739 -231.376019 
L 522.199267 -230.722673 
L 519.811144 -230.092243 
L 517.423021 -229.474214 
L 515.034897 -228.857535 
L 512.646774 -228.229644 
L 510.258651 -227.573422 
L 507.870528 -226.864054 
L 505.482405 -226.073923 
L 503.094282 -225.175921 
L 500.706158 -224.14384 
L 498.318035 -222.957796 
L 495.929912 -221.60631 
L 493.541789 -220.082746 
L 491.153666 -218.383259 
L 488.765543 -216.507151 
L 486.377419 -214.456189 
L 483.989296 -212.235815 
L 481.601173 -209.854666 
L 479.21305 -207.322376 
L 476.824927 -204.647509 
L 474.436804 -201.836304 
L 472.04868 -198.893128 
L 469.660557 -195.821209 
L 467.272434 -192.62299 
L 464.884311 -189.300385 
L 462.496188 -185.857648 
L 460.108065 -182.305872 
L 457.719941 -178.669517 
L 455.331818 -174.985405 
L 452.943695 -171.297106 
L 450.555572 -167.640542 
L 448.167449 -164.03383 
L 445.779326 -160.479489 
L 443.391202 -156.979269 
L 441.003079 -153.548535 
L 438.614956 -150.219477 
L 436.226833 -147.038054 
L 433.83871 -144.055684 
L 431.450587 -141.320227 
L 429.062463 -138.875466 
L 426.67434 -136.759142 
L 424.286217 -135.003521 
L 421.898094 -133.632327 
L 419.509971 -132.660625 
L 417.121848 -132.094989 
L 414.733724 -131.936537 
L 412.345601 -132.182875 
L 409.957478 -132.828631 
L 407.569355 -133.864062 
L 405.181232 -135.276928 
L 402.793109 -137.052973 
L 400.404985 -139.175326 
L 398.016862 -141.62416 
L 395.628739 -144.373915 
L 393.240616 -147.392694 
L 390.852493 -150.641227 
L 388.46437 -154.072391 
L 386.076246 -157.630278 
L 383.688123 -161.253214 
L 381.3 -164.876854 
L 378.911877 -168.435922 
L 376.523754 -171.866565 
L 374.13563 -175.112198 
L 371.747507 -178.124856 
L 369.359384 -180.866203 
L 366.971261 -183.310556 
L 364.583138 -185.439651 
L 362.195015 -187.24196 
L 359.806891 -188.711131 
L 357.418768 -189.84483 
L 355.030645 -190.644097 
L 352.642522 -191.112319 
L 350.254399 -191.257364 
L 347.866276 -191.090586 
L 345.478152 -190.627284 
L 343.090029 -189.888558 
L 340.701906 -188.898713 
L 338.313783 -187.685567 
L 335.92566 -186.277546 
L 333.537537 -184.702187 
L 331.149413 -182.985423 
L 328.76129 -181.149218 
L 326.373167 -179.210758 
L 323.985044 -177.180993 
L 321.596921 -175.06383 
L 319.208798 -172.8562 
L 316.820674 -170.54722 
L 314.432551 -168.12251 
L 312.044428 -165.562571 
L 309.656305 -162.843724 
L 307.268182 -159.942564 
L 304.880059 -156.837024 
L 302.491935 -153.511297 
L 300.103812 -149.960298 
L 297.715689 -146.196916 
L 295.327566 -142.254069 
L 292.939443 -138.187288 
L 290.55132 -134.069465 
L 288.163196 -129.982986 
L 285.775073 -126.010484 
L 283.38695 -122.224587 
L 280.998827 -118.681712 
L 278.610704 -115.414124 
L 276.222581 -112.430253 
L 273.834457 -109.717853 
L 271.446334 -107.24985 
L 269.058211 -104.990159 
L 266.670088 -102.897982 
L 264.281965 -100.930513 
L 261.893842 -99.044638 
L 259.505718 -97.202554 
L 257.117595 -95.37305 
L 254.729472 -93.530353 
L 252.341349 -91.656152 
L 249.953226 -89.737284 
L 247.565103 -87.76772 
L 245.176979 -85.746561 
L 242.788856 -83.678572 
L 240.400733 -81.571809 
L 238.01261 -79.43616 
L 235.624487 -77.279785 
L 233.236364 -75.108769 
L 230.84824 -72.926685 
L 228.460117 -70.73649 
L 226.071994 -68.539632 
L 223.683871 -66.33697 
L 221.295748 -64.129822 
L 218.907625 -61.91868 
L 216.519501 -59.705653 
L 214.131378 -57.493081 
L 211.743255 -55.285496 
L 209.355132 -53.089276 
L 206.967009 -50.911134 
L 204.578886 -48.759721 
L 202.190762 -46.646772 
L 199.802639 -44.588258 
L 197.414516 -42.603955 
L 195.026393 -40.715987 
L 192.63827 -38.949495 
L 190.250147 -37.327587 
L 187.862023 -35.868127 
L 185.4739 -34.583125 
L 183.085777 -33.476037 
L 180.697654 -32.540892 
L 178.309531 -31.758329 
L 175.921408 -31.093122 
L 173.533284 -30.492182 
L 171.145161 -29.887078 
L 168.757038 -29.199611 
L 166.368915 -28.353938 
L 163.980792 -27.287149 
L 161.592669 -25.959614 
L 159.204545 -24.362499 
L 156.816422 -22.518667 
L 154.428299 -20.48358 
L 152.040176 -18.334055 
L 149.652053 -16.16059 
L 147.26393 -14.055512 
L 144.875806 -12.105193 
L 142.487683 -10.380224 
L 140.09956 -8.934158 
L 137.711437 -7.800295 
L 135.323314 -6.993858 
L 132.935191 -6.514218 
L 130.547067 -6.34711 
L 128.158944 -6.467551 
L 125.770821 -6.842427 
L 123.382698 -7.437153 
L 120.994575 -8.220614 
L 118.606452 -9.170008 
L 116.218328 -10.274388 
L 113.830205 -11.535798 
L 111.442082 -12.966443 
L 109.053959 -14.585542 
L 106.665836 -16.415281 
L 104.277713 -18.475618 
L 101.889589 -20.781206 
L 99.501466 -23.339547 
L 97.113343 -26.14931 
L 94.72522 -29.198979 
L 92.337097 -32.467688 
L 89.948974 -35.925327 
L 87.56085 -39.540462 
L 85.172727 -43.292931 
z
" clip-path="url(#p765bf83eb9)" style="fill: #000080; fill-opacity: 0.1; stroke: #000080; stroke-opacity: 0.1"/>
   </g>
   <g id="line2d_1">
    <path d="M 85.172727 158.438233 
L 92.337097 166.621073 
L 97.113343 171.766649 
L 101.889589 176.46067 
L 104.277713 178.582912 
L 106.665836 180.530266 
L 109.053959 182.288805 
L 111.442082 183.849231 
L 113.830205 185.207236 
L 116.218328 186.362791 
L 118.606452 187.31888 
L 120.994575 188.079328 
L 123.382698 188.649799 
L 125.770821 189.037715 
L 128.158944 189.252326 
L 130.547067 189.304916 
L 132.935191 189.208772 
L 135.323314 188.980712 
L 140.09956 188.204451 
L 144.875806 187.127287 
L 152.040176 185.192781 
L 161.592669 182.321028 
L 175.921408 178.018118 
L 183.085777 176.156143 
L 187.862023 175.106146 
L 192.63827 174.227392 
L 197.414516 173.525664 
L 202.190762 172.993709 
L 209.355132 172.439239 
L 233.236364 170.885609 
L 240.400733 170.158013 
L 247.565103 169.168139 
L 254.729472 167.924156 
L 271.446334 164.801391 
L 280.998827 163.319555 
L 290.55132 162.063356 
L 297.715689 161.322105 
L 302.491935 160.995052 
L 307.268182 160.846217 
L 312.044428 160.883967 
L 316.820674 161.102993 
L 321.596921 161.494369 
L 326.373167 162.047511 
L 333.537537 163.144989 
L 340.701906 164.479282 
L 352.642522 166.97189 
L 374.13563 171.635896 
L 378.911877 172.40454 
L 383.688123 172.939961 
L 388.46437 173.225378 
L 393.240616 173.29181 
L 400.404985 173.105417 
L 409.957478 172.564125 
L 424.286217 171.472924 
L 433.83871 170.573148 
L 441.003079 169.726195 
L 448.167449 168.686802 
L 455.331818 167.432877 
L 462.496188 165.959228 
L 486.377419 160.739064 
L 491.153666 160.041081 
L 495.929912 159.639267 
L 500.706158 159.555094 
L 505.482405 159.759594 
L 510.258651 160.191045 
L 517.423021 161.097853 
L 529.363636 162.678473 
L 534.139883 163.141905 
L 538.916129 163.422569 
L 543.692375 163.477441 
L 548.468622 163.273711 
L 553.244868 162.786646 
L 558.021114 161.996699 
L 562.797361 160.898634 
L 567.573607 159.513496 
L 572.349853 157.890148 
L 579.514223 155.155259 
L 589.066716 151.233384 
L 598.619208 147.117573 
L 605.783578 143.801397 
L 610.559824 141.398099 
L 615.33607 138.781639 
L 620.112317 135.909809 
L 624.888563 132.749955 
L 629.664809 129.271892 
L 634.441056 125.45092 
L 639.217302 121.268544 
L 643.993548 116.709256 
L 648.769795 111.766412 
L 653.546041 106.45156 
L 658.322287 100.794536 
L 663.098534 94.836303 
L 670.262903 85.42741 
L 677.427273 75.650238 
L 677.427273 75.650238 
" clip-path="url(#p765bf83eb9)" style="fill: none; stroke: #000080; stroke-width: 1.5; stroke-linecap: round"/>
   </g>
   <g id="line2d_2">
    <path d="M 85.172727 4.015833 
L 89.948974 11.229123 
L 94.72522 17.903698 
L 97.113343 20.938236 
L 99.501466 23.723663 
L 101.889589 26.235307 
L 104.277713 28.458869 
L 106.665836 30.391005 
L 109.053959 32.038921 
L 111.442082 33.420024 
L 113.830205 34.559451 
L 116.218328 35.486245 
L 118.606452 36.229001 
L 120.994575 36.812169 
L 123.382698 37.253005 
L 125.770821 37.560199 
L 128.158944 37.733751 
L 130.547067 37.766329 
L 132.935191 37.645224 
L 135.323314 37.357186 
L 137.711437 36.891183 
L 140.09956 36.242791 
L 142.487683 35.417323 
L 144.875806 34.431655 
L 149.652053 32.103634 
L 156.816422 28.361216 
L 161.592669 26.206003 
L 163.980792 25.318713 
L 166.368915 24.567796 
L 171.145161 23.424559 
L 185.4739 20.696297 
L 187.862023 19.987036 
L 190.250147 19.127977 
L 192.63827 18.103466 
L 195.026393 16.907511 
L 197.414516 15.54479 
L 199.802639 14.02843 
L 204.578886 10.613615 
L 209.355132 6.845711 
L 218.882309 -1 
L 218.882309 -1 
" clip-path="url(#p765bf83eb9)" style="fill: none; stroke-dasharray: 5.55,2.4; stroke-dashoffset: 0; stroke: #000080; stroke-width: 1.5"/>
   </g>
   <g id="patch_3">
    <path d="M 55.56 310.98 
L 55.56 28.08 
" style="fill: none; stroke: #ffffff; stroke-width: 1.25; stroke-linejoin: miter; stroke-linecap: square"/>
   </g>
   <g id="patch_4">
    <path d="M 707.04 310.98 
L 707.04 28.08 
" style="fill: none; stroke: #ffffff; stroke-width: 1.25; stroke-linejoin: miter; stroke-linecap: square"/>
   </g>
   <g id="patch_5">
    <path d="M 55.56 310.98 
L 707.04 310.98 
" style="fill: none; stroke: #ffffff; stroke-width: 1.25; stroke-linejoin: miter; stroke-linecap: square"/>
   </g>
   <g id="patch_6">
    <path d="M 55.56 28.08 
L 707.04 28.08 
" style="fill: none; stroke: #ffffff; stroke-width: 1.25; stroke-linejoin: miter; stroke-linecap: square"/>
   </g>
   <g id="text_14">
    <!-- QG3L - [32, 96] x [256, 384] -->
    <g style="fill: #262626" transform="translate(296.2575 22.08) scale(0.12 -0.12)">
     <defs>
      <path id="DejaVuSans-51" d="M 2522 4238 
Q 1834 4238 1429 3725 
Q 1025 3213 1025 2328 
Q 1025 1447 1429 934 
Q 1834 422 2522 422 
Q 3209 422 3611 934 
Q 4013 1447 4013 2328 
Q 4013 3213 3611 3725 
Q 3209 4238 2522 4238 
z
M 3406 84 
L 4238 -825 
L 3475 -825 
L 2784 -78 
Q 2681 -84 2626 -87 
Q 2572 -91 2522 -91 
Q 1538 -91 948 567 
Q 359 1225 359 2328 
Q 359 3434 948 4092 
Q 1538 4750 2522 4750 
Q 3503 4750 4090 4092 
Q 4678 3434 4678 2328 
Q 4678 1516 4351 937 
Q 4025 359 3406 84 
z
" transform="scale(0.015625)"/>
      <path id="DejaVuSans-47" d="M 3809 666 
L 3809 1919 
L 2778 1919 
L 2778 2438 
L 4434 2438 
L 4434 434 
Q 4069 175 3628 42 
Q 3188 -91 2688 -91 
Q 1594 -91 976 548 
Q 359 1188 359 2328 
Q 359 3472 976 4111 
Q 1594 4750 2688 4750 
Q 3144 4750 3555 4637 
Q 3966 4525 4313 4306 
L 4313 3634 
Q 3963 3931 3569 4081 
Q 3175 4231 2741 4231 
Q 1884 4231 1454 3753 
Q 1025 3275 1025 2328 
Q 1025 1384 1454 906 
Q 1884 428 2741 428 
Q 3075 428 3337 486 
Q 3600 544 3809 666 
z
" transform="scale(0.015625)"/>
      <path id="DejaVuSans-33" d="M 2597 2516 
Q 3050 2419 3304 2112 
Q 3559 1806 3559 1356 
Q 3559 666 3084 287 
Q 2609 -91 1734 -91 
Q 1441 -91 1130 -33 
Q 819 25 488 141 
L 488 750 
Q 750 597 1062 519 
Q 1375 441 1716 441 
Q 2309 441 2620 675 
Q 2931 909 2931 1356 
Q 2931 1769 2642 2001 
Q 2353 2234 1838 2234 
L 1294 2234 
L 1294 2753 
L 1863 2753 
Q 2328 2753 2575 2939 
Q 2822 3125 2822 3475 
Q 2822 3834 2567 4026 
Q 2313 4219 1838 4219 
Q 1578 4219 1281 4162 
Q 984 4106 628 3988 
L 628 4550 
Q 988 4650 1302 4700 
Q 1616 4750 1894 4750 
Q 2613 4750 3031 4423 
Q 3450 4097 3450 3541 
Q 3450 3153 3228 2886 
Q 3006 2619 2597 2516 
z
" transform="scale(0.015625)"/>
      <path id="DejaVuSans-4c" d="M 628 4666 
L 1259 4666 
L 1259 531 
L 3531 531 
L 3531 0 
L 628 0 
L 628 4666 
z
" transform="scale(0.015625)"/>
      <path id="DejaVuSans-2d" d="M 313 2009 
L 1997 2009 
L 1997 1497 
L 313 1497 
L 313 2009 
z
" transform="scale(0.015625)"/>
      <path id="DejaVuSans-2c" d="M 750 794 
L 1409 794 
L 1409 256 
L 897 -744 
L 494 -744 
L 750 256 
L 750 794 
z
" transform="scale(0.015625)"/>
      <path id="DejaVuSans-39" d="M 703 97 
L 703 672 
Q 941 559 1184 500 
Q 1428 441 1663 441 
Q 2288 441 2617 861 
Q 2947 1281 2994 2138 
Q 2813 1869 2534 1725 
Q 2256 1581 1919 1581 
Q 1219 1581 811 2004 
Q 403 2428 403 3163 
Q 403 3881 828 4315 
Q 1253 4750 1959 4750 
Q 2769 4750 3195 4129 
Q 3622 3509 3622 2328 
Q 3622 1225 3098 567 
Q 2575 -91 1691 -91 
Q 1453 -91 1209 -44 
Q 966 3 703 97 
z
M 1959 2075 
Q 2384 2075 2632 2365 
Q 2881 2656 2881 3163 
Q 2881 3666 2632 3958 
Q 2384 4250 1959 4250 
Q 1534 4250 1286 3958 
Q 1038 3666 1038 3163 
Q 1038 2656 1286 2365 
Q 1534 2075 1959 2075 
z
" transform="scale(0.015625)"/>
      <path id="DejaVuSans-78" d="M 3513 3500 
L 2247 1797 
L 3578 0 
L 2900 0 
L 1881 1375 
L 863 0 
L 184 0 
L 1544 1831 
L 300 3500 
L 978 3500 
L 1906 2253 
L 2834 3500 
L 3513 3500 
z
" transform="scale(0.015625)"/>
     </defs>
     <use xlink:href="#DejaVuSans-51"/>
     <use xlink:href="#DejaVuSans-47" transform="translate(78.710938 0)"/>
     <use xlink:href="#DejaVuSans-33" transform="translate(156.201172 0)"/>
     <use xlink:href="#DejaVuSans-4c" transform="translate(219.824219 0)"/>
     <use xlink:href="#DejaVuSans-20" transform="translate(275.537109 0)"/>
     <use xlink:href="#DejaVuSans-2d" transform="translate(307.324219 0)"/>
     <use xlink:href="#DejaVuSans-20" transform="translate(343.408203 0)"/>
     <use xlink:href="#DejaVuSans-5b" transform="translate(375.195312 0)"/>
     <use xlink:href="#DejaVuSans-33" transform="translate(414.208984 0)"/>
     <use xlink:href="#DejaVuSans-32" transform="translate(477.832031 0)"/>
     <use xlink:href="#DejaVuSans-2c" transform="translate(541.455078 0)"/>
     <use xlink:href="#DejaVuSans-20" transform="translate(573.242188 0)"/>
     <use xlink:href="#DejaVuSans-39" transform="translate(605.029297 0)"/>
     <use xlink:href="#DejaVuSans-36" transform="translate(668.652344 0)"/>
     <use xlink:href="#DejaVuSans-5d" transform="translate(732.275391 0)"/>
     <use xlink:href="#DejaVuSans-20" transform="translate(771.289062 0)"/>
     <use xlink:href="#DejaVuSans-78" transform="translate(803.076172 0)"/>
     <use xlink:href="#DejaVuSans-20" transform="translate(862.255859 0)"/>
     <use xlink:href="#DejaVuSans-5b" transform="translate(894.042969 0)"/>
     <use xlink:href="#DejaVuSans-32" transform="translate(933.056641 0)"/>
     <use xlink:href="#DejaVuSans-35" transform="translate(996.679688 0)"/>
     <use xlink:href="#DejaVuSans-36" transform="translate(1060.302734 0)"/>
     <use xlink:href="#DejaVuSans-2c" transform="translate(1123.925781 0)"/>
     <use xlink:href="#DejaVuSans-20" transform="translate(1155.712891 0)"/>
     <use xlink:href="#DejaVuSans-33" transform="translate(1187.5 0)"/>
     <use xlink:href="#DejaVuSans-38" transform="translate(1251.123047 0)"/>
     <use xlink:href="#DejaVuSans-34" transform="translate(1314.746094 0)"/>
     <use xlink:href="#DejaVuSans-5d" transform="translate(1378.369141 0)"/>
    </g>
   </g>
   <g id="legend_1">
    <g id="patch_7">
     <path d="M 63.26 305.48 
L 244.675781 305.48 
Q 246.875781 305.48 246.875781 303.28 
L 246.875781 272.088125 
Q 246.875781 269.888125 244.675781 269.888125 
L 63.26 269.888125 
Q 61.06 269.888125 61.06 272.088125 
L 61.06 303.28 
Q 61.06 305.48 63.26 305.48 
z
" style="fill: #eaeaf2; opacity: 0.8; stroke: #cccccc; stroke-linejoin: miter"/>
    </g>
    <g id="line2d_3">
     <path d="M 65.46 278.796406 
L 76.46 278.796406 
L 87.46 278.796406 
" style="fill: none; stroke: #000080; stroke-width: 1.5; stroke-linecap: round"/>
    </g>
    <g id="text_15">
     <!-- SurfML -->
     <g style="fill: #262626" transform="translate(96.26 282.646406) scale(0.11 -0.11)">
      <defs>
       <path id="DejaVuSans-75" d="M 544 1381 
L 544 3500 
L 1119 3500 
L 1119 1403 
Q 1119 906 1312 657 
Q 1506 409 1894 409 
Q 2359 409 2629 706 
Q 2900 1003 2900 1516 
L 2900 3500 
L 3475 3500 
L 3475 0 
L 2900 0 
L 2900 538 
Q 2691 219 2414 64 
Q 2138 -91 1772 -91 
Q 1169 -91 856 284 
Q 544 659 544 1381 
z
M 1991 3584 
L 1991 3584 
z
" transform="scale(0.015625)"/>
       <path id="DejaVuSans-72" d="M 2631 2963 
Q 2534 3019 2420 3045 
Q 2306 3072 2169 3072 
Q 1681 3072 1420 2755 
Q 1159 2438 1159 1844 
L 1159 0 
L 581 0 
L 581 3500 
L 1159 3500 
L 1159 2956 
Q 1341 3275 1631 3429 
Q 1922 3584 2338 3584 
Q 2397 3584 2469 3576 
Q 2541 3569 2628 3553 
L 2631 2963 
z
" transform="scale(0.015625)"/>
       <path id="DejaVuSans-66" d="M 2375 4863 
L 2375 4384 
L 1825 4384 
Q 1516 4384 1395 4259 
Q 1275 4134 1275 3809 
L 1275 3500 
L 2222 3500 
L 2222 3053 
L 1275 3053 
L 1275 0 
L 697 0 
L 697 3053 
L 147 3053 
L 147 3500 
L 697 3500 
L 697 3744 
Q 697 4328 969 4595 
Q 1241 4863 1831 4863 
L 2375 4863 
z
" transform="scale(0.015625)"/>
      </defs>
      <use xlink:href="#DejaVuSans-53"/>
      <use xlink:href="#DejaVuSans-75" transform="translate(63.476562 0)"/>
      <use xlink:href="#DejaVuSans-72" transform="translate(126.855469 0)"/>
      <use xlink:href="#DejaVuSans-66" transform="translate(167.96875 0)"/>
      <use xlink:href="#DejaVuSans-4d" transform="translate(203.173828 0)"/>
      <use xlink:href="#DejaVuSans-4c" transform="translate(289.453125 0)"/>
     </g>
    </g>
    <g id="line2d_4">
     <path d="M 65.46 294.942344 
L 76.46 294.942344 
L 87.46 294.942344 
" style="fill: none; stroke-dasharray: 5.55,2.4; stroke-dashoffset: 0; stroke: #000080; stroke-width: 1.5"/>
    </g>
    <g id="text_16">
     <!-- SurfML - No Regularization -->
     <g style="fill: #262626" transform="translate(96.26 298.792344) scale(0.11 -0.11)">
      <defs>
       <path id="DejaVuSans-4e" d="M 628 4666 
L 1478 4666 
L 3547 763 
L 3547 4666 
L 4159 4666 
L 4159 0 
L 3309 0 
L 1241 3903 
L 1241 0 
L 628 0 
L 628 4666 
z
" transform="scale(0.015625)"/>
       <path id="DejaVuSans-6f" d="M 1959 3097 
Q 1497 3097 1228 2736 
Q 959 2375 959 1747 
Q 959 1119 1226 758 
Q 1494 397 1959 397 
Q 2419 397 2687 759 
Q 2956 1122 2956 1747 
Q 2956 2369 2687 2733 
Q 2419 3097 1959 3097 
z
M 1959 3584 
Q 2709 3584 3137 3096 
Q 3566 2609 3566 1747 
Q 3566 888 3137 398 
Q 2709 -91 1959 -91 
Q 1206 -91 779 398 
Q 353 888 353 1747 
Q 353 2609 779 3096 
Q 1206 3584 1959 3584 
z
" transform="scale(0.015625)"/>
       <path id="DejaVuSans-67" d="M 2906 1791 
Q 2906 2416 2648 2759 
Q 2391 3103 1925 3103 
Q 1463 3103 1205 2759 
Q 947 2416 947 1791 
Q 947 1169 1205 825 
Q 1463 481 1925 481 
Q 2391 481 2648 825 
Q 2906 1169 2906 1791 
z
M 3481 434 
Q 3481 -459 3084 -895 
Q 2688 -1331 1869 -1331 
Q 1566 -1331 1297 -1286 
Q 1028 -1241 775 -1147 
L 775 -588 
Q 1028 -725 1275 -790 
Q 1522 -856 1778 -856 
Q 2344 -856 2625 -561 
Q 2906 -266 2906 331 
L 2906 616 
Q 2728 306 2450 153 
Q 2172 0 1784 0 
Q 1141 0 747 490 
Q 353 981 353 1791 
Q 353 2603 747 3093 
Q 1141 3584 1784 3584 
Q 2172 3584 2450 3431 
Q 2728 3278 2906 2969 
L 2906 3500 
L 3481 3500 
L 3481 434 
z
" transform="scale(0.015625)"/>
       <path id="DejaVuSans-6c" d="M 603 4863 
L 1178 4863 
L 1178 0 
L 603 0 
L 603 4863 
z
" transform="scale(0.015625)"/>
       <path id="DejaVuSans-7a" d="M 353 3500 
L 3084 3500 
L 3084 2975 
L 922 459 
L 3084 459 
L 3084 0 
L 275 0 
L 275 525 
L 2438 3041 
L 353 3041 
L 353 3500 
z
" transform="scale(0.015625)"/>
      </defs>
      <use xlink:href="#DejaVuSans-53"/>
      <use xlink:href="#DejaVuSans-75" transform="translate(63.476562 0)"/>
      <use xlink:href="#DejaVuSans-72" transform="translate(126.855469 0)"/>
      <use xlink:href="#DejaVuSans-66" transform="translate(167.96875 0)"/>
      <use xlink:href="#DejaVuSans-4d" transform="translate(203.173828 0)"/>
      <use xlink:href="#DejaVuSans-4c" transform="translate(289.453125 0)"/>
      <use xlink:href="#DejaVuSans-20" transform="translate(345.166016 0)"/>
      <use xlink:href="#DejaVuSans-2d" transform="translate(376.953125 0)"/>
      <use xlink:href="#DejaVuSans-20" transform="translate(413.037109 0)"/>
      <use xlink:href="#DejaVuSans-4e" transform="translate(444.824219 0)"/>
      <use xlink:href="#DejaVuSans-6f" transform="translate(519.628906 0)"/>
      <use xlink:href="#DejaVuSans-20" transform="translate(580.810547 0)"/>
      <use xlink:href="#DejaVuSans-52" transform="translate(612.597656 0)"/>
      <use xlink:href="#DejaVuSans-65" transform="translate(677.580078 0)"/>
      <use xlink:href="#DejaVuSans-67" transform="translate(739.103516 0)"/>
      <use xlink:href="#DejaVuSans-75" transform="translate(802.580078 0)"/>
      <use xlink:href="#DejaVuSans-6c" transform="translate(865.958984 0)"/>
      <use xlink:href="#DejaVuSans-61" transform="translate(893.742188 0)"/>
      <use xlink:href="#DejaVuSans-72" transform="translate(955.021484 0)"/>
      <use xlink:href="#DejaVuSans-69" transform="translate(996.134766 0)"/>
      <use xlink:href="#DejaVuSans-7a" transform="translate(1023.917969 0)"/>
      <use xlink:href="#DejaVuSans-61" transform="translate(1076.408203 0)"/>
      <use xlink:href="#DejaVuSans-74" transform="translate(1137.6875 0)"/>
      <use xlink:href="#DejaVuSans-69" transform="translate(1176.896484 0)"/>
      <use xlink:href="#DejaVuSans-6f" transform="translate(1204.679688 0)"/>
      <use xlink:href="#DejaVuSans-6e" transform="translate(1265.861328 0)"/>
     </g>
    </g>
   </g>
  </g>
 </g>
 <defs>
  <clipPath id="p765bf83eb9">
   <rect x="55.56" y="28.08" width="651.48" height="282.9"/>
  </clipPath>
 </defs>
</svg>
