<?xml version="1.0" encoding="utf-8" standalone="no"?>
<!DOCTYPE svg PUBLIC "-//W3C//DTD SVG 1.1//EN"
  "http://www.w3.org/Graphics/SVG/1.1/DTD/svg11.dtd">
<svg xmlns:xlink="http://www.w3.org/1999/xlink" width="791.937pt" height="297.395336pt" viewBox="0 0 791.937 297.395336" xmlns="http://www.w3.org/2000/svg" version="1.1">
 <metadata>
  <rdf:RDF xmlns:dc="http://purl.org/dc/elements/1.1/" xmlns:cc="http://creativecommons.org/ns#" xmlns:rdf="http://www.w3.org/1999/02/22-rdf-syntax-ns#">
   <cc:Work>
    <dc:type rdf:resource="http://purl.org/dc/dcmitype/StillImage"/>
    <dc:date>2026-04-07T10:31:00.349157</dc:date>
    <dc:format>image/svg+xml</dc:format>
    <dc:creator>
     <cc:Agent>
      <dc:title>Matplotlib v3.10.6, https://matplotlib.org/</dc:title>
     </cc:Agent>
    </dc:creator>
   </cc:Work>
  </rdf:RDF>
 </metadata>
 <defs>
  <style type="text/css">*{stroke-linejoin: round; stroke-linecap: butt}</style>
 </defs>
 <g id="figure_1">
  <g id="patch_1">
   <path d="M 0 297.395336 
L 791.937 297.395336 
L 791.937 0 
L 0 0 
z
" style="fill: #ffffff"/>
  </g>
  <g id="axes_1">
   <g id="patch_2">
    <path d="M 57.537 248.822336 
L 417.537 248.822336 
L 417.537 26.3301 
L 57.537 26.3301 
z
" style="fill: #eaeaf2"/>
   </g>
   <g id="matplotlib.axis_1">
    <g id="xtick_1">
     <g id="text_1">
      <!-- 0 -->
      <g style="fill: #262626" transform="translate(69.319636 269.264086) scale(0.144 -0.144)">
       <defs>
        <path id="DejaVuSans-30" d="M 2034 4250 
Q 1547 4250 1301 3770 
Q 1056 3291 1056 2328 
Q 1056 1369 1301 889 
Q 1547 409 2034 409 
Q 2525 409 2770 889 
Q 3016 1369 3016 2328 
Q 3016 3291 2770 3770 
Q 2525 4250 2034 4250 
z
M 2034 4750 
Q 2819 4750 3233 4129 
Q 3647 3509 3647 2328 
Q 3647 1150 3233 529 
Q 2819 -91 2034 -91 
Q 1250 -91 836 529 
Q 422 1150 422 2328 
Q 422 3509 836 4129 
Q 1250 4750 2034 4750 
z
" transform="scale(0.015625)"/>
       </defs>
       <use xlink:href="#DejaVuSans-30"/>
      </g>
     </g>
    </g>
    <g id="xtick_2">
     <g id="text_2">
      <!-- 5 -->
      <g style="fill: #262626" transform="translate(148.180535 269.264086) scale(0.144 -0.144)">
       <defs>
        <path id="DejaVuSans-35" d="M 691 4666 
L 3169 4666 
L 3169 4134 
L 1269 4134 
L 1269 2991 
Q 1406 3038 1543 3061 
Q 1681 3084 1819 3084 
Q 2600 3084 3056 2656 
Q 3513 2228 3513 1497 
Q 3513 744 3044 326 
Q 2575 -91 1722 -91 
Q 1428 -91 1123 -41 
Q 819 9 494 109 
L 494 744 
Q 775 591 1075 516 
Q 1375 441 1709 441 
Q 2250 441 2565 725 
Q 2881 1009 2881 1497 
Q 2881 1984 2565 2268 
Q 2250 2553 1709 2553 
Q 1456 2553 1204 2497 
Q 953 2441 691 2322 
L 691 4666 
z
" transform="scale(0.015625)"/>
       </defs>
       <use xlink:href="#DejaVuSans-35"/>
      </g>
     </g>
    </g>
    <g id="xtick_3">
     <g id="text_3">
      <!-- 10 -->
      <g style="fill: #262626" transform="translate(222.460433 269.264086) scale(0.144 -0.144)">
       <defs>
        <path id="DejaVuSans-31" d="M 794 531 
L 1825 531 
L 1825 4091 
L 703 3866 
L 703 4441 
L 1819 4666 
L 2450 4666 
L 2450 531 
L 3481 531 
L 3481 0 
L 794 0 
L 794 531 
z
" transform="scale(0.015625)"/>
       </defs>
       <use xlink:href="#DejaVuSans-31"/>
       <use xlink:href="#DejaVuSans-30" transform="translate(63.623047 0)"/>
      </g>
     </g>
    </g>
    <g id="xtick_4">
     <g id="text_4">
      <!-- 15 -->
      <g style="fill: #262626" transform="translate(301.321331 269.264086) scale(0.144 -0.144)">
       <use xlink:href="#DejaVuSans-31"/>
       <use xlink:href="#DejaVuSans-35" transform="translate(63.623047 0)"/>
      </g>
     </g>
    </g>
    <g id="xtick_5">
     <g id="text_5">
      <!-- 20 -->
      <g style="fill: #262626" transform="translate(380.182229 269.264086) scale(0.144 -0.144)">
       <defs>
        <path id="DejaVuSans-32" d="M 1228 531 
L 3431 531 
L 3431 0 
L 469 0 
L 469 531 
Q 828 903 1448 1529 
Q 2069 2156 2228 2338 
Q 2531 2678 2651 2914 
Q 2772 3150 2772 3378 
Q 2772 3750 2511 3984 
Q 2250 4219 1831 4219 
Q 1534 4219 1204 4116 
Q 875 4013 500 3803 
L 500 4441 
Q 881 4594 1212 4672 
Q 1544 4750 1819 4750 
Q 2544 4750 2975 4387 
Q 3406 4025 3406 3419 
Q 3406 3131 3298 2873 
Q 3191 2616 2906 2266 
Q 2828 2175 2409 1742 
Q 1991 1309 1228 531 
z
" transform="scale(0.015625)"/>
       </defs>
       <use xlink:href="#DejaVuSans-32"/>
       <use xlink:href="#DejaVuSans-30" transform="translate(63.623047 0)"/>
      </g>
     </g>
    </g>
    <g id="text_6">
     <!-- Time [days] -->
     <g style="fill: #262626" transform="translate(195.01875 287.200586) scale(0.144 -0.144)">
      <defs>
       <path id="DejaVuSans-54" d="M -19 4666 
L 3928 4666 
L 3928 4134 
L 2272 4134 
L 2272 0 
L 1638 0 
L 1638 4134 
L -19 4134 
L -19 4666 
z
" transform="scale(0.015625)"/>
       <path id="DejaVuSans-69" d="M 603 3500 
L 1178 3500 
L 1178 0 
L 603 0 
L 603 3500 
z
M 603 4863 
L 1178 4863 
L 1178 4134 
L 603 4134 
L 603 4863 
z
" transform="scale(0.015625)"/>
       <path id="DejaVuSans-6d" d="M 3328 2828 
Q 3544 3216 3844 3400 
Q 4144 3584 4550 3584 
Q 5097 3584 5394 3201 
Q 5691 2819 5691 2113 
L 5691 0 
L 5113 0 
L 5113 2094 
Q 5113 2597 4934 2840 
Q 4756 3084 4391 3084 
Q 3944 3084 3684 2787 
Q 3425 2491 3425 1978 
L 3425 0 
L 2847 0 
L 2847 2094 
Q 2847 2600 2669 2842 
Q 2491 3084 2119 3084 
Q 1678 3084 1418 2786 
Q 1159 2488 1159 1978 
L 1159 0 
L 581 0 
L 581 3500 
L 1159 3500 
L 1159 2956 
Q 1356 3278 1631 3431 
Q 1906 3584 2284 3584 
Q 2666 3584 2933 3390 
Q 3200 3197 3328 2828 
z
" transform="scale(0.015625)"/>
       <path id="DejaVuSans-65" d="M 3597 1894 
L 3597 1613 
L 953 1613 
Q 991 1019 1311 708 
Q 1631 397 2203 397 
Q 2534 397 2845 478 
Q 3156 559 3463 722 
L 3463 178 
Q 3153 47 2828 -22 
Q 2503 -91 2169 -91 
Q 1331 -91 842 396 
Q 353 884 353 1716 
Q 353 2575 817 3079 
Q 1281 3584 2069 3584 
Q 2775 3584 3186 3129 
Q 3597 2675 3597 1894 
z
M 3022 2063 
Q 3016 2534 2758 2815 
Q 2500 3097 2075 3097 
Q 1594 3097 1305 2825 
Q 1016 2553 972 2059 
L 3022 2063 
z
" transform="scale(0.015625)"/>
       <path id="DejaVuSans-20" transform="scale(0.015625)"/>
       <path id="DejaVuSans-5b" d="M 550 4863 
L 1875 4863 
L 1875 4416 
L 1125 4416 
L 1125 -397 
L 1875 -397 
L 1875 -844 
L 550 -844 
L 550 4863 
z
" transform="scale(0.015625)"/>
       <path id="DejaVuSans-64" d="M 2906 2969 
L 2906 4863 
L 3481 4863 
L 3481 0 
L 2906 0 
L 2906 525 
Q 2725 213 2448 61 
Q 2172 -91 1784 -91 
Q 1150 -91 751 415 
Q 353 922 353 1747 
Q 353 2572 751 3078 
Q 1150 3584 1784 3584 
Q 2172 3584 2448 3432 
Q 2725 3281 2906 2969 
z
M 947 1747 
Q 947 1113 1208 752 
Q 1469 391 1925 391 
Q 2381 391 2643 752 
Q 2906 1113 2906 1747 
Q 2906 2381 2643 2742 
Q 2381 3103 1925 3103 
Q 1469 3103 1208 2742 
Q 947 2381 947 1747 
z
" transform="scale(0.015625)"/>
       <path id="DejaVuSans-61" d="M 2194 1759 
Q 1497 1759 1228 1600 
Q 959 1441 959 1056 
Q 959 750 1161 570 
Q 1363 391 1709 391 
Q 2188 391 2477 730 
Q 2766 1069 2766 1631 
L 2766 1759 
L 2194 1759 
z
M 3341 1997 
L 3341 0 
L 2766 0 
L 2766 531 
Q 2569 213 2275 61 
Q 1981 -91 1556 -91 
Q 1019 -91 701 211 
Q 384 513 384 1019 
Q 384 1609 779 1909 
Q 1175 2209 1959 2209 
L 2766 2209 
L 2766 2266 
Q 2766 2663 2505 2880 
Q 2244 3097 1772 3097 
Q 1472 3097 1187 3025 
Q 903 2953 641 2809 
L 641 3341 
Q 956 3463 1253 3523 
Q 1550 3584 1831 3584 
Q 2591 3584 2966 3190 
Q 3341 2797 3341 1997 
z
" transform="scale(0.015625)"/>
       <path id="DejaVuSans-79" d="M 2059 -325 
Q 1816 -950 1584 -1140 
Q 1353 -1331 966 -1331 
L 506 -1331 
L 506 -850 
L 844 -850 
Q 1081 -850 1212 -737 
Q 1344 -625 1503 -206 
L 1606 56 
L 191 3500 
L 800 3500 
L 1894 763 
L 2988 3500 
L 3597 3500 
L 2059 -325 
z
" transform="scale(0.015625)"/>
       <path id="DejaVuSans-73" d="M 2834 3397 
L 2834 2853 
Q 2591 2978 2328 3040 
Q 2066 3103 1784 3103 
Q 1356 3103 1142 2972 
Q 928 2841 928 2578 
Q 928 2378 1081 2264 
Q 1234 2150 1697 2047 
L 1894 2003 
Q 2506 1872 2764 1633 
Q 3022 1394 3022 966 
Q 3022 478 2636 193 
Q 2250 -91 1575 -91 
Q 1294 -91 989 -36 
Q 684 19 347 128 
L 347 722 
Q 666 556 975 473 
Q 1284 391 1588 391 
Q 1994 391 2212 530 
Q 2431 669 2431 922 
Q 2431 1156 2273 1281 
Q 2116 1406 1581 1522 
L 1381 1569 
Q 847 1681 609 1914 
Q 372 2147 372 2553 
Q 372 3047 722 3315 
Q 1072 3584 1716 3584 
Q 2034 3584 2315 3537 
Q 2597 3491 2834 3397 
z
" transform="scale(0.015625)"/>
       <path id="DejaVuSans-5d" d="M 1947 4863 
L 1947 -844 
L 622 -844 
L 622 -397 
L 1369 -397 
L 1369 4416 
L 622 4416 
L 622 4863 
L 1947 4863 
z
" transform="scale(0.015625)"/>
      </defs>
      <use xlink:href="#DejaVuSans-54"/>
      <use xlink:href="#DejaVuSans-69" transform="translate(57.958984 0)"/>
      <use xlink:href="#DejaVuSans-6d" transform="translate(85.742188 0)"/>
      <use xlink:href="#DejaVuSans-65" transform="translate(183.154297 0)"/>
      <use xlink:href="#DejaVuSans-20" transform="translate(244.677734 0)"/>
      <use xlink:href="#DejaVuSans-5b" transform="translate(276.464844 0)"/>
      <use xlink:href="#DejaVuSans-64" transform="translate(315.478516 0)"/>
      <use xlink:href="#DejaVuSans-61" transform="translate(378.955078 0)"/>
      <use xlink:href="#DejaVuSans-79" transform="translate(440.234375 0)"/>
      <use xlink:href="#DejaVuSans-73" transform="translate(499.414062 0)"/>
      <use xlink:href="#DejaVuSans-5d" transform="translate(551.513672 0)"/>
     </g>
    </g>
   </g>
   <g id="matplotlib.axis_2">
    <g id="ytick_1">
     <g id="text_7">
      <!-- 0.0 -->
      <g style="fill: #262626" transform="translate(25.1365 244.179927) scale(0.144 -0.144)">
       <defs>
        <path id="DejaVuSans-2e" d="M 684 794 
L 1344 794 
L 1344 0 
L 684 0 
L 684 794 
z
" transform="scale(0.015625)"/>
       </defs>
       <use xlink:href="#DejaVuSans-30"/>
       <use xlink:href="#DejaVuSans-2e" transform="translate(63.623047 0)"/>
       <use xlink:href="#DejaVuSans-30" transform="translate(95.410156 0)"/>
      </g>
     </g>
    </g>
    <g id="ytick_2">
     <g id="text_8">
      <!-- 0.2 -->
      <g style="fill: #262626" transform="translate(25.1365 203.726794) scale(0.144 -0.144)">
       <use xlink:href="#DejaVuSans-30"/>
       <use xlink:href="#DejaVuSans-2e" transform="translate(63.623047 0)"/>
       <use xlink:href="#DejaVuSans-32" transform="translate(95.410156 0)"/>
      </g>
     </g>
    </g>
    <g id="ytick_3">
     <g id="text_9">
      <!-- 0.4 -->
      <g style="fill: #262626" transform="translate(25.1365 163.27366) scale(0.144 -0.144)">
       <defs>
        <path id="DejaVuSans-34" d="M 2419 4116 
L 825 1625 
L 2419 1625 
L 2419 4116 
z
M 2253 4666 
L 3047 4666 
L 3047 1625 
L 3713 1625 
L 3713 1100 
L 3047 1100 
L 3047 0 
L 2419 0 
L 2419 1100 
L 313 1100 
L 313 1709 
L 2253 4666 
z
" transform="scale(0.015625)"/>
       </defs>
       <use xlink:href="#DejaVuSans-30"/>
       <use xlink:href="#DejaVuSans-2e" transform="translate(63.623047 0)"/>
       <use xlink:href="#DejaVuSans-34" transform="translate(95.410156 0)"/>
      </g>
     </g>
    </g>
    <g id="ytick_4">
     <g id="text_10">
      <!-- 0.6 -->
      <g style="fill: #262626" transform="translate(25.1365 122.820526) scale(0.144 -0.144)">
       <defs>
        <path id="DejaVuSans-36" d="M 2113 2584 
Q 1688 2584 1439 2293 
Q 1191 2003 1191 1497 
Q 1191 994 1439 701 
Q 1688 409 2113 409 
Q 2538 409 2786 701 
Q 3034 994 3034 1497 
Q 3034 2003 2786 2293 
Q 2538 2584 2113 2584 
z
M 3366 4563 
L 3366 3988 
Q 3128 4100 2886 4159 
Q 2644 4219 2406 4219 
Q 1781 4219 1451 3797 
Q 1122 3375 1075 2522 
Q 1259 2794 1537 2939 
Q 1816 3084 2150 3084 
Q 2853 3084 3261 2657 
Q 3669 2231 3669 1497 
Q 3669 778 3244 343 
Q 2819 -91 2113 -91 
Q 1303 -91 875 529 
Q 447 1150 447 2328 
Q 447 3434 972 4092 
Q 1497 4750 2381 4750 
Q 2619 4750 2861 4703 
Q 3103 4656 3366 4563 
z
" transform="scale(0.015625)"/>
       </defs>
       <use xlink:href="#DejaVuSans-30"/>
       <use xlink:href="#DejaVuSans-2e" transform="translate(63.623047 0)"/>
       <use xlink:href="#DejaVuSans-36" transform="translate(95.410156 0)"/>
      </g>
     </g>
    </g>
    <g id="ytick_5">
     <g id="text_11">
      <!-- 0.8 -->
      <g style="fill: #262626" transform="translate(25.1365 82.367392) scale(0.144 -0.144)">
       <defs>
        <path id="DejaVuSans-38" d="M 2034 2216 
Q 1584 2216 1326 1975 
Q 1069 1734 1069 1313 
Q 1069 891 1326 650 
Q 1584 409 2034 409 
Q 2484 409 2743 651 
Q 3003 894 3003 1313 
Q 3003 1734 2745 1975 
Q 2488 2216 2034 2216 
z
M 1403 2484 
Q 997 2584 770 2862 
Q 544 3141 544 3541 
Q 544 4100 942 4425 
Q 1341 4750 2034 4750 
Q 2731 4750 3128 4425 
Q 3525 4100 3525 3541 
Q 3525 3141 3298 2862 
Q 3072 2584 2669 2484 
Q 3125 2378 3379 2068 
Q 3634 1759 3634 1313 
Q 3634 634 3220 271 
Q 2806 -91 2034 -91 
Q 1263 -91 848 271 
Q 434 634 434 1313 
Q 434 1759 690 2068 
Q 947 2378 1403 2484 
z
M 1172 3481 
Q 1172 3119 1398 2916 
Q 1625 2713 2034 2713 
Q 2441 2713 2670 2916 
Q 2900 3119 2900 3481 
Q 2900 3844 2670 4047 
Q 2441 4250 2034 4250 
Q 1625 4250 1398 4047 
Q 1172 3844 1172 3481 
z
" transform="scale(0.015625)"/>
       </defs>
       <use xlink:href="#DejaVuSans-30"/>
       <use xlink:href="#DejaVuSans-2e" transform="translate(63.623047 0)"/>
       <use xlink:href="#DejaVuSans-38" transform="translate(95.410156 0)"/>
      </g>
     </g>
    </g>
    <g id="ytick_6">
     <g id="text_12">
      <!-- 1.0 -->
      <g style="fill: #262626" transform="translate(25.1365 41.914258) scale(0.144 -0.144)">
       <use xlink:href="#DejaVuSans-31"/>
       <use xlink:href="#DejaVuSans-2e" transform="translate(63.623047 0)"/>
       <use xlink:href="#DejaVuSans-30" transform="translate(95.410156 0)"/>
      </g>
     </g>
    </g>
    <g id="text_13">
     <!-- nRMSE -->
     <g style="fill: #262626" transform="translate(18.14175 162.474718) rotate(-90) scale(0.144 -0.144)">
      <defs>
       <path id="DejaVuSans-6e" d="M 3513 2113 
L 3513 0 
L 2938 0 
L 2938 2094 
Q 2938 2591 2744 2837 
Q 2550 3084 2163 3084 
Q 1697 3084 1428 2787 
Q 1159 2491 1159 1978 
L 1159 0 
L 581 0 
L 581 3500 
L 1159 3500 
L 1159 2956 
Q 1366 3272 1645 3428 
Q 1925 3584 2291 3584 
Q 2894 3584 3203 3211 
Q 3513 2838 3513 2113 
z
" transform="scale(0.015625)"/>
       <path id="DejaVuSans-52" d="M 2841 2188 
Q 3044 2119 3236 1894 
Q 3428 1669 3622 1275 
L 4263 0 
L 3584 0 
L 2988 1197 
Q 2756 1666 2539 1819 
Q 2322 1972 1947 1972 
L 1259 1972 
L 1259 0 
L 628 0 
L 628 4666 
L 2053 4666 
Q 2853 4666 3247 4331 
Q 3641 3997 3641 3322 
Q 3641 2881 3436 2590 
Q 3231 2300 2841 2188 
z
M 1259 4147 
L 1259 2491 
L 2053 2491 
Q 2509 2491 2742 2702 
Q 2975 2913 2975 3322 
Q 2975 3731 2742 3939 
Q 2509 4147 2053 4147 
L 1259 4147 
z
" transform="scale(0.015625)"/>
       <path id="DejaVuSans-4d" d="M 628 4666 
L 1569 4666 
L 2759 1491 
L 3956 4666 
L 4897 4666 
L 4897 0 
L 4281 0 
L 4281 4097 
L 3078 897 
L 2444 897 
L 1241 4097 
L 1241 0 
L 628 0 
L 628 4666 
z
" transform="scale(0.015625)"/>
       <path id="DejaVuSans-53" d="M 3425 4513 
L 3425 3897 
Q 3066 4069 2747 4153 
Q 2428 4238 2131 4238 
Q 1616 4238 1336 4038 
Q 1056 3838 1056 3469 
Q 1056 3159 1242 3001 
Q 1428 2844 1947 2747 
L 2328 2669 
Q 3034 2534 3370 2195 
Q 3706 1856 3706 1288 
Q 3706 609 3251 259 
Q 2797 -91 1919 -91 
Q 1588 -91 1214 -16 
Q 841 59 441 206 
L 441 856 
Q 825 641 1194 531 
Q 1563 422 1919 422 
Q 2459 422 2753 634 
Q 3047 847 3047 1241 
Q 3047 1584 2836 1778 
Q 2625 1972 2144 2069 
L 1759 2144 
Q 1053 2284 737 2584 
Q 422 2884 422 3419 
Q 422 4038 858 4394 
Q 1294 4750 2059 4750 
Q 2388 4750 2728 4690 
Q 3069 4631 3425 4513 
z
" transform="scale(0.015625)"/>
       <path id="DejaVuSans-45" d="M 628 4666 
L 3578 4666 
L 3578 4134 
L 1259 4134 
L 1259 2753 
L 3481 2753 
L 3481 2222 
L 1259 2222 
L 1259 531 
L 3634 531 
L 3634 0 
L 628 0 
L 628 4666 
z
" transform="scale(0.015625)"/>
      </defs>
      <use xlink:href="#DejaVuSans-6e"/>
      <use xlink:href="#DejaVuSans-52" transform="translate(63.378906 0)"/>
      <use xlink:href="#DejaVuSans-4d" transform="translate(132.861328 0)"/>
      <use xlink:href="#DejaVuSans-53" transform="translate(219.140625 0)"/>
      <use xlink:href="#DejaVuSans-45" transform="translate(282.617188 0)"/>
     </g>
    </g>
   </g>
   <g id="FillBetweenPolyCollection_1">
    <defs>
     <path id="m3c7f6c69d1" d="M 73.900636 -238.843352 
L 73.900636 -213.625454 
L 75.214985 -213.741126 
L 76.529333 -213.85227 
L 77.843681 -213.959064 
L 79.15803 -214.061769 
L 80.472378 -214.160691 
L 81.786726 -214.256173 
L 83.101074 -214.34865 
L 84.415423 -214.438628 
L 85.729771 -214.526655 
L 87.044119 -214.613318 
L 88.358468 -214.699205 
L 89.672816 -214.784911 
L 90.987164 -214.871029 
L 92.301513 -214.958135 
L 93.615861 -215.046743 
L 94.930209 -215.137305 
L 96.244558 -215.230216 
L 97.558906 -215.325792 
L 98.873254 -215.424253 
L 100.187602 -215.525711 
L 101.501951 -215.630178 
L 102.816299 -215.737559 
L 104.130647 -215.847651 
L 105.444996 -215.960141 
L 106.759344 -216.074622 
L 108.073692 -216.190594 
L 109.388041 -216.307487 
L 110.702389 -216.424661 
L 112.016737 -216.541422 
L 113.331085 -216.657038 
L 114.645434 -216.770763 
L 115.959782 -216.881843 
L 117.27413 -216.989529 
L 118.588479 -217.09309 
L 119.902827 -217.191838 
L 121.217175 -217.285137 
L 122.531524 -217.372415 
L 123.845872 -217.453176 
L 125.16022 -217.527013 
L 126.474568 -217.593618 
L 127.788917 -217.652781 
L 129.103265 -217.704393 
L 130.417613 -217.748446 
L 131.731962 -217.785033 
L 133.04631 -217.814335 
L 134.360658 -217.836601 
L 135.675007 -217.852145 
L 136.989355 -217.86132 
L 138.303703 -217.864505 
L 139.618051 -217.862097 
L 140.9324 -217.854496 
L 142.246748 -217.842094 
L 143.561096 -217.825278 
L 144.875445 -217.804427 
L 146.189793 -217.779923 
L 147.504141 -217.752156 
L 148.81849 -217.721543 
L 150.132838 -217.68854 
L 151.447186 -217.653644 
L 152.761535 -217.617403 
L 154.075883 -217.580411 
L 155.390231 -217.543297 
L 156.704579 -217.506706 
L 158.018928 -217.471287 
L 159.333276 -217.437666 
L 160.647624 -217.406432 
L 161.961973 -217.378121 
L 163.276321 -217.353201 
L 164.590669 -217.33207 
L 165.905018 -217.315048 
L 167.219366 -217.302386 
L 168.533714 -217.294262 
L 169.848062 -217.290799 
L 171.162411 -217.292067 
L 172.476759 -217.298094 
L 173.791107 -217.308877 
L 175.105456 -217.324399 
L 176.419804 -217.344634 
L 177.734152 -217.369561 
L 179.048501 -217.399177 
L 180.362849 -217.433501 
L 181.677197 -217.47258 
L 182.991545 -217.516493 
L 184.305894 -217.565342 
L 185.620242 -217.619262 
L 186.93459 -217.678414 
L 188.248939 -217.742978 
L 189.563287 -217.813153 
L 190.877635 -217.889135 
L 192.191984 -217.971103 
L 193.506332 -218.059204 
L 194.82068 -218.153527 
L 196.135028 -218.254091 
L 197.449377 -218.360833 
L 198.763725 -218.473596 
L 200.078073 -218.592109 
L 201.392422 -218.715992 
L 202.70677 -218.844751 
L 204.021118 -218.977785 
L 205.335467 -219.114396 
L 206.649815 -219.253798 
L 207.964163 -219.395142 
L 209.278512 -219.537531 
L 210.59286 -219.680032 
L 211.907208 -219.821689 
L 213.221556 -219.961531 
L 214.535905 -220.098585 
L 215.850253 -220.231879 
L 217.164601 -220.360435 
L 218.47895 -220.483267 
L 219.793298 -220.599385 
L 221.107646 -220.707787 
L 222.421995 -220.807459 
L 223.736343 -220.897384 
L 225.050691 -220.976538 
L 226.365039 -221.043899 
L 227.679388 -221.098468 
L 228.993736 -221.139277 
L 230.308084 -221.165408 
L 231.622433 -221.176017 
L 232.936781 -221.170352 
L 234.251129 -221.147774 
L 235.565478 -221.10777 
L 236.879826 -221.04997 
L 238.194174 -220.974152 
L 239.508522 -220.880251 
L 240.822871 -220.768369 
L 242.137219 -220.638777 
L 243.451567 -220.491914 
L 244.765916 -220.328384 
L 246.080264 -220.148955 
L 247.394612 -219.954552 
L 248.708961 -219.746254 
L 250.023309 -219.525278 
L 251.337657 -219.292977 
L 252.652005 -219.050818 
L 253.966354 -218.800366 
L 255.280702 -218.543254 
L 256.59505 -218.28116 
L 257.909399 -218.015782 
L 259.223747 -217.748803 
L 260.538095 -217.481878 
L 261.852444 -217.2166 
L 263.166792 -216.954478 
L 264.48114 -216.696906 
L 265.795488 -216.445139 
L 267.109837 -216.200287 
L 268.424185 -215.96329 
L 269.738533 -215.734922 
L 271.052882 -215.515773 
L 272.36723 -215.306248 
L 273.681578 -215.106565 
L 274.995927 -214.91677 
L 276.310275 -214.736745 
L 277.624623 -214.566216 
L 278.938972 -214.404778 
L 280.25332 -214.251927 
L 281.567668 -214.107066 
L 282.882016 -213.969544 
L 284.196365 -213.838663 
L 285.510713 -213.713698 
L 286.825061 -213.59393 
L 288.13941 -213.478651 
L 289.453758 -213.36719 
L 290.768106 -213.25892 
L 292.082455 -213.153264 
L 293.396803 -213.049699 
L 294.711151 -212.947759 
L 296.025499 -212.847058 
L 297.339848 -212.747266 
L 298.654196 -212.648122 
L 299.968544 -212.549444 
L 301.282893 -212.451145 
L 302.597241 -212.353238 
L 303.911589 -212.255837 
L 305.225938 -212.159181 
L 306.540286 -212.063647 
L 307.854634 -211.969764 
L 309.168982 -211.878214 
L 310.483331 -211.789845 
L 311.797679 -211.705667 
L 313.112027 -211.626824 
L 314.426376 -211.554596 
L 315.740724 -211.490347 
L 317.055072 -211.435483 
L 318.369421 -211.391408 
L 319.683769 -211.359467 
L 320.998117 -211.340905 
L 322.312465 -211.336811 
L 323.626814 -211.348083 
L 324.941162 -211.375391 
L 326.25551 -211.419158 
L 327.569859 -211.479559 
L 328.884207 -211.556503 
L 330.198555 -211.649653 
L 331.512904 -211.758451 
L 332.827252 -211.882143 
L 334.1416 -212.019821 
L 335.455949 -212.17046 
L 336.770297 -212.332964 
L 338.084645 -212.506208 
L 339.398993 -212.689078 
L 340.713342 -212.88052 
L 342.02769 -213.07957 
L 343.342038 -213.285387 
L 344.656387 -213.497268 
L 345.970735 -213.714669 
L 347.285083 -213.93721 
L 348.599432 -214.164684 
L 349.91378 -214.397042 
L 351.228128 -214.634386 
L 352.542476 -214.876954 
L 353.856825 -215.125097 
L 355.171173 -215.379251 
L 356.485521 -215.639909 
L 357.79987 -215.907596 
L 359.114218 -216.182851 
L 360.428566 -216.4662 
L 361.742915 -216.758126 
L 363.057263 -217.059047 
L 364.371611 -217.369315 
L 365.685959 -217.689188 
L 367.000308 -218.018826 
L 368.314656 -218.358282 
L 369.629004 -218.707506 
L 370.943353 -219.066333 
L 372.257701 -219.43449 
L 373.572049 -219.811598 
L 374.886398 -220.19716 
L 376.200746 -220.590574 
L 377.515094 -220.991145 
L 378.829442 -221.398083 
L 380.143791 -221.810513 
L 381.458139 -222.227482 
L 382.772487 -222.647991 
L 384.086836 -223.070987 
L 385.401184 -223.495381 
L 386.715532 -223.920071 
L 388.029881 -224.343953 
L 389.344229 -224.76594 
L 390.658577 -225.184983 
L 391.972926 -225.60008 
L 393.287274 -226.010272 
L 394.601622 -226.414676 
L 395.91597 -226.812491 
L 397.230319 -227.203004 
L 398.544667 -227.58559 
L 399.859015 -227.959718 
L 401.173364 -228.324944 
L 401.173364 -268.011101 
L 401.173364 -268.011101 
L 399.859015 -267.289062 
L 398.544667 -266.549046 
L 397.230319 -265.792286 
L 395.91597 -265.020199 
L 394.601622 -264.234406 
L 393.287274 -263.436707 
L 391.972926 -262.629068 
L 390.658577 -261.813603 
L 389.344229 -260.992551 
L 388.029881 -260.168255 
L 386.715532 -259.343141 
L 385.401184 -258.519678 
L 384.086836 -257.700356 
L 382.772487 -256.887643 
L 381.458139 -256.08394 
L 380.143791 -255.291548 
L 378.829442 -254.512629 
L 377.515094 -253.749148 
L 376.200746 -253.002848 
L 374.886398 -252.275203 
L 373.572049 -251.567386 
L 372.257701 -250.880264 
L 370.943353 -250.214373 
L 369.629004 -249.569898 
L 368.314656 -248.946689 
L 367.000308 -248.344272 
L 365.685959 -247.761861 
L 364.371611 -247.198383 
L 363.057263 -246.652529 
L 361.742915 -246.122778 
L 360.428566 -245.607441 
L 359.114218 -245.104717 
L 357.79987 -244.612726 
L 356.485521 -244.129565 
L 355.171173 -243.653355 
L 353.856825 -243.182283 
L 352.542476 -242.714641 
L 351.228128 -242.248858 
L 349.91378 -241.783535 
L 348.599432 -241.317481 
L 347.285083 -240.849733 
L 345.970735 -240.379594 
L 344.656387 -239.90664 
L 343.342038 -239.43073 
L 342.02769 -238.952008 
L 340.713342 -238.470912 
L 339.398993 -237.988176 
L 338.084645 -237.50483 
L 336.770297 -237.022187 
L 335.455949 -236.541831 
L 334.1416 -236.065591 
L 332.827252 -235.595517 
L 331.512904 -235.133848 
L 330.198555 -234.68298 
L 328.884207 -234.245432 
L 327.569859 -233.823792 
L 326.25551 -233.420666 
L 324.941162 -233.038627 
L 323.626814 -232.680158 
L 322.312465 -232.347598 
L 320.998117 -232.043073 
L 319.683769 -231.768438 
L 318.369421 -231.525222 
L 317.055072 -231.314569 
L 315.740724 -231.1372 
L 314.426376 -230.993376 
L 313.112027 -230.882881 
L 311.797679 -230.805012 
L 310.483331 -230.75859 
L 309.168982 -230.741984 
L 307.854634 -230.753157 
L 306.540286 -230.789728 
L 305.225938 -230.849039 
L 303.911589 -230.928227 
L 302.597241 -231.024323 
L 301.282893 -231.134329 
L 299.968544 -231.255294 
L 298.654196 -231.384389 
L 297.339848 -231.51897 
L 296.025499 -231.656643 
L 294.711151 -231.795311 
L 293.396803 -231.933209 
L 292.082455 -232.068932 
L 290.768106 -232.201447 
L 289.453758 -232.3301 
L 288.13941 -232.454611 
L 286.825061 -232.57505 
L 285.510713 -232.691822 
L 284.196365 -232.80563 
L 282.882016 -232.917451 
L 281.567668 -233.028486 
L 280.25332 -233.140117 
L 278.938972 -233.253859 
L 277.624623 -233.371322 
L 276.310275 -233.49415 
L 274.995927 -233.623958 
L 273.681578 -233.762282 
L 272.36723 -233.910533 
L 271.052882 -234.069948 
L 269.738533 -234.241537 
L 268.424185 -234.42605 
L 267.109837 -234.623936 
L 265.795488 -234.835312 
L 264.48114 -235.059943 
L 263.166792 -235.297231 
L 261.852444 -235.546208 
L 260.538095 -235.805545 
L 259.223747 -236.073575 
L 257.909399 -236.348321 
L 256.59505 -236.627531 
L 255.280702 -236.908708 
L 253.966354 -237.18916 
L 252.652005 -237.466049 
L 251.337657 -237.73645 
L 250.023309 -237.9974 
L 248.708961 -238.245963 
L 247.394612 -238.479287 
L 246.080264 -238.694654 
L 244.765916 -238.889536 
L 243.451567 -239.06163 
L 242.137219 -239.208904 
L 240.822871 -239.329636 
L 239.508522 -239.422452 
L 238.194174 -239.486351 
L 236.879826 -239.52072 
L 235.565478 -239.525353 
L 234.251129 -239.500444 
L 232.936781 -239.446582 
L 231.622433 -239.364744 
L 230.308084 -239.256276 
L 228.993736 -239.122876 
L 227.679388 -238.966559 
L 226.365039 -238.789627 
L 225.050691 -238.594629 
L 223.736343 -238.384314 
L 222.421995 -238.161577 
L 221.107646 -237.929402 
L 219.793298 -237.690799 
L 218.47895 -237.448743 
L 217.164601 -237.206113 
L 215.850253 -236.965624 
L 214.535905 -236.729764 
L 213.221556 -236.500739 
L 211.907208 -236.280425 
L 210.59286 -236.070327 
L 209.278512 -235.871565 
L 207.964163 -235.684843 
L 206.649815 -235.510456 
L 205.335467 -235.348296 
L 204.021118 -235.197869 
L 202.70677 -235.058338 
L 201.392422 -234.928557 
L 200.078073 -234.807114 
L 198.763725 -234.69238 
L 197.449377 -234.582551 
L 196.135028 -234.475696 
L 194.82068 -234.369809 
L 193.506332 -234.262859 
L 192.191984 -234.152828 
L 190.877635 -234.037763 
L 189.563287 -233.915803 
L 188.248939 -233.785228 
L 186.93459 -233.644502 
L 185.620242 -233.492306 
L 184.305894 -233.327565 
L 182.991545 -233.149476 
L 181.677197 -232.957521 
L 180.362849 -232.751488 
L 179.048501 -232.531487 
L 177.734152 -232.297959 
L 176.419804 -232.051669 
L 175.105456 -231.793701 
L 173.791107 -231.525442 
L 172.476759 -231.248573 
L 171.162411 -230.965034 
L 169.848062 -230.676997 
L 168.533714 -230.386829 
L 167.219366 -230.09705 
L 165.905018 -229.810288 
L 164.590669 -229.529241 
L 163.276321 -229.256622 
L 161.961973 -228.99512 
L 160.647624 -228.747343 
L 159.333276 -228.515765 
L 158.018928 -228.302674 
L 156.704579 -228.110124 
L 155.390231 -227.939885 
L 154.075883 -227.793395 
L 152.761535 -227.671729 
L 151.447186 -227.575573 
L 150.132838 -227.505205 
L 148.81849 -227.460511 
L 147.504141 -227.440997 
L 146.189793 -227.44582 
L 144.875445 -227.473837 
L 143.561096 -227.523655 
L 142.246748 -227.593692 
L 140.9324 -227.682241 
L 139.618051 -227.787526 
L 138.303703 -227.907768 
L 136.989355 -228.041227 
L 135.675007 -228.186251 
L 134.360658 -228.341307 
L 133.04631 -228.505006 
L 131.731962 -228.676125 
L 130.417613 -228.85362 
L 129.103265 -229.036636 
L 127.788917 -229.224504 
L 126.474568 -229.416737 
L 125.16022 -229.613019 
L 123.845872 -229.813192 
L 122.531524 -230.017238 
L 121.217175 -230.225259 
L 119.902827 -230.437452 
L 118.588479 -230.654083 
L 117.27413 -230.875455 
L 115.959782 -231.101881 
L 114.645434 -231.333662 
L 113.331085 -231.571055 
L 112.016737 -231.814261 
L 110.702389 -232.063404 
L 109.388041 -232.318507 
L 108.073692 -232.57949 
L 106.759344 -232.846156 
L 105.444996 -233.11819 
L 104.130647 -233.395147 
L 102.816299 -233.676455 
L 101.501951 -233.961423 
L 100.187602 -234.249241 
L 98.873254 -234.538991 
L 97.558906 -234.829652 
L 96.244558 -235.120111 
L 94.930209 -235.409181 
L 93.615861 -235.695617 
L 92.301513 -235.978133 
L 90.987164 -236.255407 
L 89.672816 -236.526109 
L 88.358468 -236.788923 
L 87.044119 -237.04256 
L 85.729771 -237.285772 
L 84.415423 -237.517371 
L 83.101074 -237.73626 
L 81.786726 -237.941436 
L 80.472378 -238.132007 
L 79.15803 -238.307201 
L 77.843681 -238.466364 
L 76.529333 -238.608992 
L 75.214985 -238.734728 
L 73.900636 -238.843352 
z
" style="stroke: #000080; stroke-opacity: 0.2"/>
    </defs>
    <g clip-path="url(#p29c7ccf6fc)">
     <use xlink:href="#m3c7f6c69d1" x="0" y="297.395336" style="fill: #000080; fill-opacity: 0.2; stroke: #000080; stroke-opacity: 0.2"/>
    </g>
   </g>
   <g id="FillBetweenPolyCollection_2">
    <defs>
     <path id="mf6607871a8" d="M 73.900636 -227.509845 
L 73.900636 -200.743835 
L 75.214985 -200.893842 
L 76.529333 -201.033453 
L 77.843681 -201.162266 
L 79.15803 -201.279948 
L 80.472378 -201.386188 
L 81.786726 -201.480686 
L 83.101074 -201.563259 
L 84.415423 -201.633814 
L 85.729771 -201.692321 
L 87.044119 -201.738823 
L 88.358468 -201.773386 
L 89.672816 -201.796146 
L 90.987164 -201.807325 
L 92.301513 -201.807214 
L 93.615861 -201.796133 
L 94.930209 -201.774448 
L 96.244558 -201.742615 
L 97.558906 -201.701137 
L 98.873254 -201.650564 
L 100.187602 -201.591486 
L 101.501951 -201.524543 
L 102.816299 -201.450423 
L 104.130647 -201.369849 
L 105.444996 -201.283562 
L 106.759344 -201.192324 
L 108.073692 -201.096915 
L 109.388041 -200.998131 
L 110.702389 -200.896761 
L 112.016737 -200.793582 
L 113.331085 -200.689358 
L 114.645434 -200.584847 
L 115.959782 -200.48078 
L 117.27413 -200.377844 
L 118.588479 -200.276696 
L 119.902827 -200.177965 
L 121.217175 -200.082242 
L 122.531524 -199.990081 
L 123.845872 -199.901984 
L 125.16022 -199.818404 
L 126.474568 -199.739745 
L 127.788917 -199.666351 
L 129.103265 -199.598508 
L 130.417613 -199.536444 
L 131.731962 -199.48033 
L 133.04631 -199.430281 
L 134.360658 -199.386348 
L 135.675007 -199.348524 
L 136.989355 -199.316751 
L 138.303703 -199.290907 
L 139.618051 -199.270828 
L 140.9324 -199.256306 
L 142.246748 -199.247089 
L 143.561096 -199.242896 
L 144.875445 -199.243417 
L 146.189793 -199.248318 
L 147.504141 -199.25724 
L 148.81849 -199.269809 
L 150.132838 -199.285644 
L 151.447186 -199.304352 
L 152.761535 -199.325537 
L 154.075883 -199.348798 
L 155.390231 -199.373739 
L 156.704579 -199.399966 
L 158.018928 -199.427094 
L 159.333276 -199.454742 
L 160.647624 -199.482539 
L 161.961973 -199.510126 
L 163.276321 -199.537163 
L 164.590669 -199.563327 
L 165.905018 -199.588315 
L 167.219366 -199.611855 
L 168.533714 -199.633706 
L 169.848062 -199.653652 
L 171.162411 -199.671506 
L 172.476759 -199.687104 
L 173.791107 -199.7003 
L 175.105456 -199.710964 
L 176.419804 -199.718978 
L 177.734152 -199.724236 
L 179.048501 -199.726645 
L 180.362849 -199.726119 
L 181.677197 -199.722577 
L 182.991545 -199.715938 
L 184.305894 -199.706111 
L 185.620242 -199.693001 
L 186.93459 -199.676507 
L 188.248939 -199.656522 
L 189.563287 -199.632941 
L 190.877635 -199.605652 
L 192.191984 -199.574542 
L 193.506332 -199.539497 
L 194.82068 -199.500392 
L 196.135028 -199.457112 
L 197.449377 -199.409561 
L 198.763725 -199.357651 
L 200.078073 -199.301307 
L 201.392422 -199.240479 
L 202.70677 -199.175143 
L 204.021118 -199.105312 
L 205.335467 -199.031034 
L 206.649815 -198.952394 
L 207.964163 -198.869527 
L 209.278512 -198.78261 
L 210.59286 -198.691867 
L 211.907208 -198.597562 
L 213.221556 -198.499996 
L 214.535905 -198.399503 
L 215.850253 -198.296447 
L 217.164601 -198.191206 
L 218.47895 -198.084174 
L 219.793298 -197.975753 
L 221.107646 -197.866341 
L 222.421995 -197.756322 
L 223.736343 -197.646061 
L 225.050691 -197.535899 
L 226.365039 -197.426155 
L 227.679388 -197.317119 
L 228.993736 -197.209058 
L 230.308084 -197.10221 
L 231.622433 -196.996789 
L 232.936781 -196.892987 
L 234.251129 -196.79097 
L 235.565478 -196.690886 
L 236.879826 -196.592864 
L 238.194174 -196.497012 
L 239.508522 -196.403423 
L 240.822871 -196.312181 
L 242.137219 -196.223364 
L 243.451567 -196.137044 
L 244.765916 -196.053283 
L 246.080264 -195.972125 
L 247.394612 -195.893598 
L 248.708961 -195.817728 
L 250.023309 -195.744543 
L 251.337657 -195.674075 
L 252.652005 -195.606365 
L 253.966354 -195.541455 
L 255.280702 -195.479392 
L 256.59505 -195.420218 
L 257.909399 -195.363968 
L 259.223747 -195.310664 
L 260.538095 -195.260317 
L 261.852444 -195.21292 
L 263.166792 -195.168458 
L 264.48114 -195.126904 
L 265.795488 -195.088211 
L 267.109837 -195.052332 
L 268.424185 -195.019206 
L 269.738533 -194.988766 
L 271.052882 -194.960939 
L 272.36723 -194.93565 
L 273.681578 -194.912827 
L 274.995927 -194.892402 
L 276.310275 -194.87431 
L 277.624623 -194.858495 
L 278.938972 -194.844914 
L 280.25332 -194.833542 
L 281.567668 -194.82438 
L 282.882016 -194.817458 
L 284.196365 -194.812821 
L 285.510713 -194.810528 
L 286.825061 -194.810667 
L 288.13941 -194.813352 
L 289.453758 -194.818719 
L 290.768106 -194.826922 
L 292.082455 -194.838125 
L 293.396803 -194.852509 
L 294.711151 -194.870263 
L 296.025499 -194.891582 
L 297.339848 -194.916658 
L 298.654196 -194.945672 
L 299.968544 -194.97879 
L 301.282893 -195.016168 
L 302.597241 -195.057935 
L 303.911589 -195.104202 
L 305.225938 -195.155054 
L 306.540286 -195.210547 
L 307.854634 -195.270709 
L 309.168982 -195.335525 
L 310.483331 -195.404944 
L 311.797679 -195.478871 
L 313.112027 -195.557171 
L 314.426376 -195.639659 
L 315.740724 -195.726104 
L 317.055072 -195.816229 
L 318.369421 -195.909715 
L 319.683769 -196.00621 
L 320.998117 -196.10533 
L 322.312465 -196.206647 
L 323.626814 -196.309711 
L 324.941162 -196.414053 
L 326.25551 -196.519194 
L 327.569859 -196.624658 
L 328.884207 -196.729969 
L 330.198555 -196.834657 
L 331.512904 -196.938268 
L 332.827252 -197.040372 
L 334.1416 -197.140583 
L 335.455949 -197.238569 
L 336.770297 -197.334046 
L 338.084645 -197.426777 
L 339.398993 -197.516589 
L 340.713342 -197.603376 
L 342.02769 -197.687121 
L 343.342038 -197.767882 
L 344.656387 -197.84579 
L 345.970735 -197.921037 
L 347.285083 -197.993873 
L 348.599432 -198.064607 
L 349.91378 -198.133609 
L 351.228128 -198.201296 
L 352.542476 -198.268121 
L 353.856825 -198.334549 
L 355.171173 -198.401036 
L 356.485521 -198.468028 
L 357.79987 -198.535962 
L 359.114218 -198.605245 
L 360.428566 -198.676255 
L 361.742915 -198.749312 
L 363.057263 -198.824662 
L 364.371611 -198.902478 
L 365.685959 -198.982839 
L 367.000308 -199.065741 
L 368.314656 -199.151094 
L 369.629004 -199.238725 
L 370.943353 -199.328365 
L 372.257701 -199.419634 
L 373.572049 -199.512051 
L 374.886398 -199.605057 
L 376.200746 -199.698021 
L 377.515094 -199.790248 
L 378.829442 -199.880993 
L 380.143791 -199.969483 
L 381.458139 -200.054928 
L 382.772487 -200.136526 
L 384.086836 -200.213486 
L 385.401184 -200.285057 
L 386.715532 -200.350542 
L 388.029881 -200.409305 
L 389.344229 -200.460784 
L 390.658577 -200.504514 
L 391.972926 -200.540125 
L 393.287274 -200.567346 
L 394.601622 -200.586003 
L 395.91597 -200.596008 
L 397.230319 -200.597369 
L 398.544667 -200.590196 
L 399.859015 -200.574682 
L 401.173364 -200.551089 
L 401.173364 -221.405808 
L 401.173364 -221.405808 
L 399.859015 -221.476481 
L 398.544667 -221.547359 
L 397.230319 -221.61862 
L 395.91597 -221.690487 
L 394.601622 -221.763237 
L 393.287274 -221.837185 
L 391.972926 -221.912659 
L 390.658577 -221.990016 
L 389.344229 -222.069611 
L 388.029881 -222.151767 
L 386.715532 -222.236763 
L 385.401184 -222.324854 
L 384.086836 -222.416252 
L 382.772487 -222.511103 
L 381.458139 -222.609482 
L 380.143791 -222.711389 
L 378.829442 -222.816732 
L 377.515094 -222.925349 
L 376.200746 -223.036998 
L 374.886398 -223.151341 
L 373.572049 -223.267942 
L 372.257701 -223.386294 
L 370.943353 -223.505806 
L 369.629004 -223.625785 
L 368.314656 -223.745486 
L 367.000308 -223.864113 
L 365.685959 -223.980809 
L 364.371611 -224.09466 
L 363.057263 -224.20473 
L 361.742915 -224.31005 
L 360.428566 -224.409641 
L 359.114218 -224.502529 
L 357.79987 -224.587751 
L 356.485521 -224.664373 
L 355.171173 -224.7315 
L 353.856825 -224.788293 
L 352.542476 -224.833972 
L 351.228128 -224.86783 
L 349.91378 -224.889242 
L 348.599432 -224.897681 
L 347.285083 -224.89273 
L 345.970735 -224.874094 
L 344.656387 -224.841593 
L 343.342038 -224.79517 
L 342.02769 -224.73488 
L 340.713342 -224.660909 
L 339.398993 -224.573566 
L 338.084645 -224.473288 
L 336.770297 -224.360638 
L 335.455949 -224.2363 
L 334.1416 -224.101068 
L 332.827252 -223.955838 
L 331.512904 -223.801601 
L 330.198555 -223.639433 
L 328.884207 -223.470477 
L 327.569859 -223.295933 
L 326.25551 -223.117038 
L 324.941162 -222.935057 
L 323.626814 -222.751267 
L 322.312465 -222.566951 
L 320.998117 -222.383362 
L 319.683769 -222.201716 
L 318.369421 -222.023186 
L 317.055072 -221.84888 
L 315.740724 -221.679849 
L 314.426376 -221.517062 
L 313.112027 -221.361409 
L 311.797679 -221.213693 
L 310.483331 -221.074622 
L 309.168982 -220.944801 
L 307.854634 -220.82474 
L 306.540286 -220.714848 
L 305.225938 -220.615453 
L 303.911589 -220.52678 
L 302.597241 -220.448982 
L 301.282893 -220.382138 
L 299.968544 -220.326257 
L 298.654196 -220.281272 
L 297.339848 -220.247061 
L 296.025499 -220.223464 
L 294.711151 -220.210282 
L 293.396803 -220.207276 
L 292.082455 -220.214166 
L 290.768106 -220.230671 
L 289.453758 -220.256495 
L 288.13941 -220.291339 
L 286.825061 -220.334891 
L 285.510713 -220.386845 
L 284.196365 -220.446895 
L 282.882016 -220.514736 
L 281.567668 -220.590063 
L 280.25332 -220.672569 
L 278.938972 -220.761938 
L 277.624623 -220.857866 
L 276.310275 -220.960046 
L 274.995927 -221.068156 
L 273.681578 -221.181845 
L 272.36723 -221.300739 
L 271.052882 -221.424446 
L 269.738533 -221.552546 
L 268.424185 -221.684593 
L 267.109837 -221.820102 
L 265.795488 -221.958544 
L 264.48114 -222.099352 
L 263.166792 -222.241909 
L 261.852444 -222.385542 
L 260.538095 -222.529528 
L 259.223747 -222.6731 
L 257.909399 -222.815459 
L 256.59505 -222.955786 
L 255.280702 -223.093244 
L 253.966354 -223.226974 
L 252.652005 -223.356111 
L 251.337657 -223.479803 
L 250.023309 -223.597214 
L 248.708961 -223.707543 
L 247.394612 -223.810036 
L 246.080264 -223.904005 
L 244.765916 -223.988825 
L 243.451567 -224.063946 
L 242.137219 -224.128899 
L 240.822871 -224.183305 
L 239.508522 -224.226896 
L 238.194174 -224.259515 
L 236.879826 -224.281126 
L 235.565478 -224.291814 
L 234.251129 -224.291782 
L 232.936781 -224.281344 
L 231.622433 -224.260928 
L 230.308084 -224.231074 
L 228.993736 -224.192417 
L 227.679388 -224.145691 
L 226.365039 -224.091708 
L 225.050691 -224.031338 
L 223.736343 -223.965507 
L 222.421995 -223.895173 
L 221.107646 -223.821315 
L 219.793298 -223.744914 
L 218.47895 -223.666939 
L 217.164601 -223.588355 
L 215.850253 -223.510077 
L 214.535905 -223.43296 
L 213.221556 -223.35778 
L 211.907208 -223.285213 
L 210.59286 -223.215836 
L 209.278512 -223.150119 
L 207.964163 -223.088415 
L 206.649815 -223.03095 
L 205.335467 -222.977823 
L 204.021118 -222.928999 
L 202.70677 -222.884328 
L 201.392422 -222.843558 
L 200.078073 -222.806341 
L 198.763725 -222.772245 
L 197.449377 -222.740761 
L 196.135028 -222.711316 
L 194.82068 -222.683303 
L 193.506332 -222.656106 
L 192.191984 -222.629106 
L 190.877635 -222.60169 
L 189.563287 -222.57325 
L 188.248939 -222.543212 
L 186.93459 -222.511053 
L 185.620242 -222.476318 
L 184.305894 -222.438631 
L 182.991545 -222.39769 
L 181.677197 -222.353265 
L 180.362849 -222.305199 
L 179.048501 -222.253418 
L 177.734152 -222.197919 
L 176.419804 -222.13878 
L 175.105456 -222.076156 
L 173.791107 -222.010273 
L 172.476759 -221.941433 
L 171.162411 -221.870002 
L 169.848062 -221.796405 
L 168.533714 -221.721121 
L 167.219366 -221.644661 
L 165.905018 -221.56757 
L 164.590669 -221.490423 
L 163.276321 -221.413816 
L 161.961973 -221.338366 
L 160.647624 -221.26469 
L 159.333276 -221.193404 
L 158.018928 -221.12512 
L 156.704579 -221.060435 
L 155.390231 -220.999923 
L 154.075883 -220.944119 
L 152.761535 -220.893518 
L 151.447186 -220.848557 
L 150.132838 -220.809619 
L 148.81849 -220.777037 
L 147.504141 -220.751095 
L 146.189793 -220.732031 
L 144.875445 -220.72003 
L 143.561096 -220.715245 
L 142.246748 -220.717792 
L 140.9324 -220.727759 
L 139.618051 -220.74521 
L 138.303703 -220.7702 
L 136.989355 -220.802774 
L 135.675007 -220.84298 
L 134.360658 -220.890872 
L 133.04631 -220.946502 
L 131.731962 -221.009934 
L 130.417613 -221.081244 
L 129.103265 -221.160525 
L 127.788917 -221.247888 
L 126.474568 -221.343458 
L 125.16022 -221.447368 
L 123.845872 -221.559748 
L 122.531524 -221.68072 
L 121.217175 -221.810401 
L 119.902827 -221.948881 
L 118.588479 -222.096219 
L 117.27413 -222.252418 
L 115.959782 -222.417416 
L 114.645434 -222.591079 
L 113.331085 -222.773188 
L 112.016737 -222.963436 
L 110.702389 -223.161419 
L 109.388041 -223.366623 
L 108.073692 -223.578412 
L 106.759344 -223.796038 
L 105.444996 -224.018628 
L 104.130647 -224.245178 
L 102.816299 -224.47456 
L 101.501951 -224.705543 
L 100.187602 -224.936802 
L 98.873254 -225.166926 
L 97.558906 -225.394435 
L 96.244558 -225.617792 
L 94.930209 -225.835436 
L 93.615861 -226.045804 
L 92.301513 -226.247358 
L 90.987164 -226.438586 
L 89.672816 -226.61805 
L 88.358468 -226.784421 
L 87.044119 -226.936484 
L 85.729771 -227.073155 
L 84.415423 -227.193491 
L 83.101074 -227.296724 
L 81.786726 -227.382248 
L 80.472378 -227.449622 
L 79.15803 -227.498562 
L 77.843681 -227.528935 
L 76.529333 -227.540786 
L 75.214985 -227.53431 
L 73.900636 -227.509845 
z
" style="stroke: #000080; stroke-opacity: 0.2"/>
    </defs>
    <g clip-path="url(#p29c7ccf6fc)">
     <use xlink:href="#mf6607871a8" x="0" y="297.395336" style="fill: #000080; fill-opacity: 0.2; stroke: #000080; stroke-opacity: 0.2"/>
    </g>
   </g>
   <g id="line2d_1">
    <path d="M 73.900636 71.160933 
L 80.472378 71.248987 
L 87.044119 71.567397 
L 101.501951 72.599536 
L 112.016737 73.217495 
L 146.189793 74.782464 
L 151.447186 74.780728 
L 156.704579 74.586921 
L 163.276321 74.090425 
L 173.791107 72.978176 
L 184.305894 71.948882 
L 206.649815 70.013209 
L 215.850253 68.796585 
L 225.050691 67.609753 
L 230.308084 67.184494 
L 234.251129 67.071227 
L 238.194174 67.165084 
L 242.137219 67.471496 
L 246.080264 67.973531 
L 251.337657 68.880623 
L 269.738533 72.407106 
L 276.310275 73.279888 
L 284.196365 74.073189 
L 305.225938 75.891226 
L 310.483331 76.121118 
L 314.426376 76.12135 
L 318.369421 75.937021 
L 322.312465 75.553131 
L 326.25551 74.975424 
L 331.512904 73.949187 
L 338.084645 72.389817 
L 351.228128 68.953714 
L 359.114218 66.751552 
L 364.371611 65.111487 
L 369.629004 63.256634 
L 374.886398 61.159155 
L 381.458139 58.239625 
L 399.859015 49.770946 
L 401.173364 49.227313 
L 401.173364 49.227313 
" clip-path="url(#p29c7ccf6fc)" style="fill: none; stroke-dasharray: 5.55,2.4; stroke-dashoffset: 0; stroke: #000080; stroke-width: 1.5"/>
   </g>
   <g id="line2d_2">
    <path d="M 73.900636 83.268496 
L 79.15803 83.006081 
L 84.415423 82.981683 
L 89.672816 83.188238 
L 96.244558 83.715132 
L 105.444996 84.744241 
L 118.588479 86.208878 
L 126.474568 86.853735 
L 134.360658 87.256726 
L 142.246748 87.412895 
L 150.132838 87.347704 
L 160.647624 87.021722 
L 179.048501 86.405305 
L 189.563287 86.29224 
L 205.335467 86.390908 
L 230.308084 86.728694 
L 239.508522 87.080176 
L 250.023309 87.724457 
L 274.995927 89.415057 
L 284.196365 89.765478 
L 292.082455 89.86919 
L 299.968544 89.742813 
L 306.540286 89.432638 
L 314.426376 88.816975 
L 324.941162 87.720781 
L 335.455949 86.657901 
L 342.02769 86.184335 
L 348.599432 85.914192 
L 356.485521 85.829135 
L 372.257701 85.992372 
L 399.859015 86.369754 
L 401.173364 86.416887 
L 401.173364 86.416887 
" clip-path="url(#p29c7ccf6fc)" style="fill: none; stroke: #000080; stroke-width: 1.5; stroke-linecap: round"/>
   </g>
   <g id="patch_3">
    <path d="M 57.537 248.822336 
L 57.537 26.3301 
" style="fill: none; stroke: #ffffff; stroke-width: 1.25; stroke-linejoin: miter; stroke-linecap: square"/>
   </g>
   <g id="patch_4">
    <path d="M 417.537 248.822336 
L 417.537 26.3301 
" style="fill: none; stroke: #ffffff; stroke-width: 1.25; stroke-linejoin: miter; stroke-linecap: square"/>
   </g>
   <g id="patch_5">
    <path d="M 57.537 248.822336 
L 417.537 248.822336 
" style="fill: none; stroke: #ffffff; stroke-width: 1.25; stroke-linejoin: miter; stroke-linecap: square"/>
   </g>
   <g id="patch_6">
    <path d="M 57.537 26.3301 
L 417.537 26.3301 
" style="fill: none; stroke: #ffffff; stroke-width: 1.25; stroke-linejoin: miter; stroke-linecap: square"/>
   </g>
   <g id="text_14">
    <!-- Z1 -->
    <g style="fill: #262626" transform="translate(226.1214 20.3301) scale(0.1728 -0.1728)">
     <defs>
      <path id="DejaVuSans-5a" d="M 359 4666 
L 4025 4666 
L 4025 4184 
L 1075 531 
L 4097 531 
L 4097 0 
L 288 0 
L 288 481 
L 3238 4134 
L 359 4134 
L 359 4666 
z
" transform="scale(0.015625)"/>
     </defs>
     <use xlink:href="#DejaVuSans-5a"/>
     <use xlink:href="#DejaVuSans-31" transform="translate(68.505859 0)"/>
    </g>
   </g>
   <g id="legend_1">
    <g id="patch_7">
     <path d="M 67.617 241.622336 
L 295.1505 241.622336 
Q 298.0305 241.622336 298.0305 238.742336 
L 298.0305 197.909336 
Q 298.0305 195.029336 295.1505 195.029336 
L 67.617 195.029336 
Q 64.737 195.029336 64.737 197.909336 
L 64.737 238.742336 
Q 64.737 241.622336 67.617 241.622336 
z
" style="fill: #eaeaf2; opacity: 0.8; stroke: #cccccc; stroke-linejoin: miter"/>
    </g>
    <g id="line2d_3">
     <path d="M 70.497 206.691086 
L 84.897 206.691086 
L 99.297 206.691086 
" style="fill: none; stroke-dasharray: 5.55,2.4; stroke-dashoffset: 0; stroke: #000080; stroke-width: 1.5"/>
    </g>
    <g id="text_15">
     <!-- RG-SI - No Regularization -->
     <g style="fill: #262626" transform="translate(110.817 211.731086) scale(0.144 -0.144)">
      <defs>
       <path id="DejaVuSans-47" d="M 3809 666 
L 3809 1919 
L 2778 1919 
L 2778 2438 
L 4434 2438 
L 4434 434 
Q 4069 175 3628 42 
Q 3188 -91 2688 -91 
Q 1594 -91 976 548 
Q 359 1188 359 2328 
Q 359 3472 976 4111 
Q 1594 4750 2688 4750 
Q 3144 4750 3555 4637 
Q 3966 4525 4313 4306 
L 4313 3634 
Q 3963 3931 3569 4081 
Q 3175 4231 2741 4231 
Q 1884 4231 1454 3753 
Q 1025 3275 1025 2328 
Q 1025 1384 1454 906 
Q 1884 428 2741 428 
Q 3075 428 3337 486 
Q 3600 544 3809 666 
z
" transform="scale(0.015625)"/>
       <path id="DejaVuSans-2d" d="M 313 2009 
L 1997 2009 
L 1997 1497 
L 313 1497 
L 313 2009 
z
" transform="scale(0.015625)"/>
       <path id="DejaVuSans-49" d="M 628 4666 
L 1259 4666 
L 1259 0 
L 628 0 
L 628 4666 
z
" transform="scale(0.015625)"/>
       <path id="DejaVuSans-4e" d="M 628 4666 
L 1478 4666 
L 3547 763 
L 3547 4666 
L 4159 4666 
L 4159 0 
L 3309 0 
L 1241 3903 
L 1241 0 
L 628 0 
L 628 4666 
z
" transform="scale(0.015625)"/>
       <path id="DejaVuSans-6f" d="M 1959 3097 
Q 1497 3097 1228 2736 
Q 959 2375 959 1747 
Q 959 1119 1226 758 
Q 1494 397 1959 397 
Q 2419 397 2687 759 
Q 2956 1122 2956 1747 
Q 2956 2369 2687 2733 
Q 2419 3097 1959 3097 
z
M 1959 3584 
Q 2709 3584 3137 3096 
Q 3566 2609 3566 1747 
Q 3566 888 3137 398 
Q 2709 -91 1959 -91 
Q 1206 -91 779 398 
Q 353 888 353 1747 
Q 353 2609 779 3096 
Q 1206 3584 1959 3584 
z
" transform="scale(0.015625)"/>
       <path id="DejaVuSans-67" d="M 2906 1791 
Q 2906 2416 2648 2759 
Q 2391 3103 1925 3103 
Q 1463 3103 1205 2759 
Q 947 2416 947 1791 
Q 947 1169 1205 825 
Q 1463 481 1925 481 
Q 2391 481 2648 825 
Q 2906 1169 2906 1791 
z
M 3481 434 
Q 3481 -459 3084 -895 
Q 2688 -1331 1869 -1331 
Q 1566 -1331 1297 -1286 
Q 1028 -1241 775 -1147 
L 775 -588 
Q 1028 -725 1275 -790 
Q 1522 -856 1778 -856 
Q 2344 -856 2625 -561 
Q 2906 -266 2906 331 
L 2906 616 
Q 2728 306 2450 153 
Q 2172 0 1784 0 
Q 1141 0 747 490 
Q 353 981 353 1791 
Q 353 2603 747 3093 
Q 1141 3584 1784 3584 
Q 2172 3584 2450 3431 
Q 2728 3278 2906 2969 
L 2906 3500 
L 3481 3500 
L 3481 434 
z
" transform="scale(0.015625)"/>
       <path id="DejaVuSans-75" d="M 544 1381 
L 544 3500 
L 1119 3500 
L 1119 1403 
Q 1119 906 1312 657 
Q 1506 409 1894 409 
Q 2359 409 2629 706 
Q 2900 1003 2900 1516 
L 2900 3500 
L 3475 3500 
L 3475 0 
L 2900 0 
L 2900 538 
Q 2691 219 2414 64 
Q 2138 -91 1772 -91 
Q 1169 -91 856 284 
Q 544 659 544 1381 
z
M 1991 3584 
L 1991 3584 
z
" transform="scale(0.015625)"/>
       <path id="DejaVuSans-6c" d="M 603 4863 
L 1178 4863 
L 1178 0 
L 603 0 
L 603 4863 
z
" transform="scale(0.015625)"/>
       <path id="DejaVuSans-72" d="M 2631 2963 
Q 2534 3019 2420 3045 
Q 2306 3072 2169 3072 
Q 1681 3072 1420 2755 
Q 1159 2438 1159 1844 
L 1159 0 
L 581 0 
L 581 3500 
L 1159 3500 
L 1159 2956 
Q 1341 3275 1631 3429 
Q 1922 3584 2338 3584 
Q 2397 3584 2469 3576 
Q 2541 3569 2628 3553 
L 2631 2963 
z
" transform="scale(0.015625)"/>
       <path id="DejaVuSans-7a" d="M 353 3500 
L 3084 3500 
L 3084 2975 
L 922 459 
L 3084 459 
L 3084 0 
L 275 0 
L 275 525 
L 2438 3041 
L 353 3041 
L 353 3500 
z
" transform="scale(0.015625)"/>
       <path id="DejaVuSans-74" d="M 1172 4494 
L 1172 3500 
L 2356 3500 
L 2356 3053 
L 1172 3053 
L 1172 1153 
Q 1172 725 1289 603 
Q 1406 481 1766 481 
L 2356 481 
L 2356 0 
L 1766 0 
Q 1100 0 847 248 
Q 594 497 594 1153 
L 594 3053 
L 172 3053 
L 172 3500 
L 594 3500 
L 594 4494 
L 1172 4494 
z
" transform="scale(0.015625)"/>
      </defs>
      <use xlink:href="#DejaVuSans-52"/>
      <use xlink:href="#DejaVuSans-47" transform="translate(69.482422 0)"/>
      <use xlink:href="#DejaVuSans-2d" transform="translate(146.972656 0)"/>
      <use xlink:href="#DejaVuSans-53" transform="translate(183.056641 0)"/>
      <use xlink:href="#DejaVuSans-49" transform="translate(246.533203 0)"/>
      <use xlink:href="#DejaVuSans-20" transform="translate(276.025391 0)"/>
      <use xlink:href="#DejaVuSans-2d" transform="translate(307.8125 0)"/>
      <use xlink:href="#DejaVuSans-20" transform="translate(343.896484 0)"/>
      <use xlink:href="#DejaVuSans-4e" transform="translate(375.683594 0)"/>
      <use xlink:href="#DejaVuSans-6f" transform="translate(450.488281 0)"/>
      <use xlink:href="#DejaVuSans-20" transform="translate(511.669922 0)"/>
      <use xlink:href="#DejaVuSans-52" transform="translate(543.457031 0)"/>
      <use xlink:href="#DejaVuSans-65" transform="translate(608.439453 0)"/>
      <use xlink:href="#DejaVuSans-67" transform="translate(669.962891 0)"/>
      <use xlink:href="#DejaVuSans-75" transform="translate(733.439453 0)"/>
      <use xlink:href="#DejaVuSans-6c" transform="translate(796.818359 0)"/>
      <use xlink:href="#DejaVuSans-61" transform="translate(824.601562 0)"/>
      <use xlink:href="#DejaVuSans-72" transform="translate(885.880859 0)"/>
      <use xlink:href="#DejaVuSans-69" transform="translate(926.994141 0)"/>
      <use xlink:href="#DejaVuSans-7a" transform="translate(954.777344 0)"/>
      <use xlink:href="#DejaVuSans-61" transform="translate(1007.267578 0)"/>
      <use xlink:href="#DejaVuSans-74" transform="translate(1068.546875 0)"/>
      <use xlink:href="#DejaVuSans-69" transform="translate(1107.755859 0)"/>
      <use xlink:href="#DejaVuSans-6f" transform="translate(1135.539062 0)"/>
      <use xlink:href="#DejaVuSans-6e" transform="translate(1196.720703 0)"/>
     </g>
    </g>
    <g id="line2d_4">
     <path d="M 70.497 227.827586 
L 84.897 227.827586 
L 99.297 227.827586 
" style="fill: none; stroke: #000080; stroke-width: 1.5; stroke-linecap: round"/>
    </g>
    <g id="text_16">
     <!-- RG-SI -->
     <g style="fill: #262626" transform="translate(110.817 232.867586) scale(0.144 -0.144)">
      <use xlink:href="#DejaVuSans-52"/>
      <use xlink:href="#DejaVuSans-47" transform="translate(69.482422 0)"/>
      <use xlink:href="#DejaVuSans-2d" transform="translate(146.972656 0)"/>
      <use xlink:href="#DejaVuSans-53" transform="translate(183.056641 0)"/>
      <use xlink:href="#DejaVuSans-49" transform="translate(246.533203 0)"/>
     </g>
    </g>
   </g>
  </g>
  <g id="axes_2">
   <g id="patch_8">
    <path d="M 424.737 248.822336 
L 784.737 248.822336 
L 784.737 26.3301 
L 424.737 26.3301 
z
" style="fill: #eaeaf2"/>
   </g>
   <g id="matplotlib.axis_3">
    <g id="xtick_6">
     <g id="text_17">
      <!-- 0 -->
      <g style="fill: #262626" transform="translate(436.519636 269.264086) scale(0.144 -0.144)">
       <use xlink:href="#DejaVuSans-30"/>
      </g>
     </g>
    </g>
    <g id="xtick_7">
     <g id="text_18">
      <!-- 5 -->
      <g style="fill: #262626" transform="translate(515.380535 269.264086) scale(0.144 -0.144)">
       <use xlink:href="#DejaVuSans-35"/>
      </g>
     </g>
    </g>
    <g id="xtick_8">
     <g id="text_19">
      <!-- 10 -->
      <g style="fill: #262626" transform="translate(589.660433 269.264086) scale(0.144 -0.144)">
       <use xlink:href="#DejaVuSans-31"/>
       <use xlink:href="#DejaVuSans-30" transform="translate(63.623047 0)"/>
      </g>
     </g>
    </g>
    <g id="xtick_9">
     <g id="text_20">
      <!-- 15 -->
      <g style="fill: #262626" transform="translate(668.521331 269.264086) scale(0.144 -0.144)">
       <use xlink:href="#DejaVuSans-31"/>
       <use xlink:href="#DejaVuSans-35" transform="translate(63.623047 0)"/>
      </g>
     </g>
    </g>
    <g id="xtick_10">
     <g id="text_21">
      <!-- 20 -->
      <g style="fill: #262626" transform="translate(747.382229 269.264086) scale(0.144 -0.144)">
       <use xlink:href="#DejaVuSans-32"/>
       <use xlink:href="#DejaVuSans-30" transform="translate(63.623047 0)"/>
      </g>
     </g>
    </g>
    <g id="text_22">
     <!-- Time [days] -->
     <g style="fill: #262626" transform="translate(562.21875 287.200586) scale(0.144 -0.144)">
      <use xlink:href="#DejaVuSans-54"/>
      <use xlink:href="#DejaVuSans-69" transform="translate(57.958984 0)"/>
      <use xlink:href="#DejaVuSans-6d" transform="translate(85.742188 0)"/>
      <use xlink:href="#DejaVuSans-65" transform="translate(183.154297 0)"/>
      <use xlink:href="#DejaVuSans-20" transform="translate(244.677734 0)"/>
      <use xlink:href="#DejaVuSans-5b" transform="translate(276.464844 0)"/>
      <use xlink:href="#DejaVuSans-64" transform="translate(315.478516 0)"/>
      <use xlink:href="#DejaVuSans-61" transform="translate(378.955078 0)"/>
      <use xlink:href="#DejaVuSans-79" transform="translate(440.234375 0)"/>
      <use xlink:href="#DejaVuSans-73" transform="translate(499.414062 0)"/>
      <use xlink:href="#DejaVuSans-5d" transform="translate(551.513672 0)"/>
     </g>
    </g>
   </g>
   <g id="matplotlib.axis_4">
    <g id="ytick_7"/>
    <g id="ytick_8"/>
    <g id="ytick_9"/>
    <g id="ytick_10"/>
    <g id="ytick_11"/>
    <g id="ytick_12"/>
   </g>
   <g id="FillBetweenPolyCollection_3">
    <defs>
     <path id="ma4b39a9355" d="M 441.100636 -185.304707 
L 441.100636 -156.774232 
L 442.414985 -157.376665 
L 443.729333 -157.958587 
L 445.043681 -158.51879 
L 446.35803 -159.056216 
L 447.672378 -159.569967 
L 448.986726 -160.059303 
L 450.301074 -160.523659 
L 451.615423 -160.962638 
L 452.929771 -161.376012 
L 454.244119 -161.76372 
L 455.558468 -162.125861 
L 456.872816 -162.462696 
L 458.187164 -162.774634 
L 459.501513 -163.062224 
L 460.815861 -163.326133 
L 462.130209 -163.567128 
L 463.444558 -163.786064 
L 464.758906 -163.983864 
L 466.073254 -164.161503 
L 467.387602 -164.319986 
L 468.701951 -164.460332 
L 470.016299 -164.583551 
L 471.330647 -164.690633 
L 472.644996 -164.782538 
L 473.959344 -164.860176 
L 475.273692 -164.924406 
L 476.588041 -164.976027 
L 477.902389 -165.015768 
L 479.216737 -165.044291 
L 480.531085 -165.062194 
L 481.845434 -165.070025 
L 483.159782 -165.068286 
L 484.47413 -165.057456 
L 485.788479 -165.037988 
L 487.102827 -165.010338 
L 488.417175 -164.974969 
L 489.731524 -164.932371 
L 491.045872 -164.883071 
L 492.36022 -164.827649 
L 493.674568 -164.766749 
L 494.988917 -164.701094 
L 496.303265 -164.631489 
L 497.617613 -164.558829 
L 498.931962 -164.4841 
L 500.24631 -164.408377 
L 501.560658 -164.332823 
L 502.875007 -164.25867 
L 504.189355 -164.187212 
L 505.503703 -164.119783 
L 506.818051 -164.057739 
L 508.1324 -164.002433 
L 509.446748 -163.955188 
L 510.761096 -163.917273 
L 512.075445 -163.88987 
L 513.389793 -163.874051 
L 514.704141 -163.870747 
L 516.01849 -163.880733 
L 517.332838 -163.90461 
L 518.647186 -163.942795 
L 519.961535 -163.995518 
L 521.275883 -164.062822 
L 522.590231 -164.144576 
L 523.904579 -164.240486 
L 525.218928 -164.350118 
L 526.533276 -164.472919 
L 527.847624 -164.608243 
L 529.161973 -164.755377 
L 530.476321 -164.913567 
L 531.790669 -165.082037 
L 533.105018 -165.260021 
L 534.419366 -165.446776 
L 535.733714 -165.641605 
L 537.048062 -165.843871 
L 538.362411 -166.053016 
L 539.676759 -166.268571 
L 540.991107 -166.490175 
L 542.305456 -166.717587 
L 543.619804 -166.9507 
L 544.934152 -167.189549 
L 546.248501 -167.434318 
L 547.562849 -167.685344 
L 548.877197 -167.943113 
L 550.191545 -168.208255 
L 551.505894 -168.481533 
L 552.820242 -168.763827 
L 554.13459 -169.056107 
L 555.448939 -169.359413 
L 556.763287 -169.67482 
L 558.077635 -170.003402 
L 559.391984 -170.346197 
L 560.706332 -170.704164 
L 562.02068 -171.078144 
L 563.335028 -171.468817 
L 564.649377 -171.876665 
L 565.963725 -172.30194 
L 567.278073 -172.74463 
L 568.592422 -173.204438 
L 569.90677 -173.680756 
L 571.221118 -174.172657 
L 572.535467 -174.678894 
L 573.849815 -175.197897 
L 575.164163 -175.727783 
L 576.478512 -176.266373 
L 577.79286 -176.811212 
L 579.107208 -177.359591 
L 580.421556 -177.908584 
L 581.735905 -178.455082 
L 583.050253 -178.995829 
L 584.364601 -179.527457 
L 585.67895 -180.046528 
L 586.993298 -180.549562 
L 588.307646 -181.033092 
L 589.621995 -181.493679 
L 590.936343 -181.927962 
L 592.250691 -182.332683 
L 593.565039 -182.704715 
L 594.879388 -183.041093 
L 596.193736 -183.339034 
L 597.508084 -183.595954 
L 598.822433 -183.80949 
L 600.136781 -183.977513 
L 601.451129 -184.098146 
L 602.765478 -184.169764 
L 604.079826 -184.191006 
L 605.394174 -184.160777 
L 606.708522 -184.078252 
L 608.022871 -183.942876 
L 609.337219 -183.754372 
L 610.651567 -183.512749 
L 611.965916 -183.2183 
L 613.280264 -182.871618 
L 614.594612 -182.473606 
L 615.908961 -182.02548 
L 617.223309 -181.528781 
L 618.537657 -180.985397 
L 619.852005 -180.397569 
L 621.166354 -179.767906 
L 622.480702 -179.099389 
L 623.79505 -178.395369 
L 625.109399 -177.659552 
L 626.423747 -176.895971 
L 627.738095 -176.108951 
L 629.052444 -175.303044 
L 630.366792 -174.482969 
L 631.68114 -173.653525 
L 632.995488 -172.819512 
L 634.309837 -171.985633 
L 635.624185 -171.156405 
L 636.938533 -170.33607 
L 638.252882 -169.528522 
L 639.56723 -168.737241 
L 640.881578 -167.965245 
L 642.195927 -167.215069 
L 643.510275 -166.488743 
L 644.824623 -165.787804 
L 646.138972 -165.113309 
L 647.45332 -164.465864 
L 648.767668 -163.845673 
L 650.082016 -163.252591 
L 651.396365 -162.686187 
L 652.710713 -162.1458 
L 654.025061 -161.630597 
L 655.33941 -161.139631 
L 656.653758 -160.671891 
L 657.968106 -160.226351 
L 659.282455 -159.80202 
L 660.596803 -159.397969 
L 661.911151 -159.013356 
L 663.225499 -158.647449 
L 664.539848 -158.299633 
L 665.854196 -157.96942 
L 667.168544 -157.656449 
L 668.482893 -157.360472 
L 669.797241 -157.081342 
L 671.111589 -156.81899 
L 672.425938 -156.573404 
L 673.740286 -156.344599 
L 675.054634 -156.132593 
L 676.368982 -155.937375 
L 677.683331 -155.758883 
L 678.997679 -155.596962 
L 680.312027 -155.451344 
L 681.626376 -155.32163 
L 682.940724 -155.207268 
L 684.255072 -155.107547 
L 685.569421 -155.021585 
L 686.883769 -154.94832 
L 688.198117 -154.886516 
L 689.512465 -154.834784 
L 690.826814 -154.791589 
L 692.141162 -154.75527 
L 693.45551 -154.724054 
L 694.769859 -154.696073 
L 696.084207 -154.669405 
L 697.398555 -154.642112 
L 698.712904 -154.612263 
L 700.027252 -154.577966 
L 701.3416 -154.537388 
L 702.655949 -154.488772 
L 703.970297 -154.43048 
L 705.284645 -154.36102 
L 706.598993 -154.27906 
L 707.913342 -154.183447 
L 709.22769 -154.073213 
L 710.542038 -153.94758 
L 711.856387 -153.805979 
L 713.170735 -153.648063 
L 714.485083 -153.473709 
L 715.799432 -153.283011 
L 717.11378 -153.076268 
L 718.428128 -152.853965 
L 719.742476 -152.616771 
L 721.056825 -152.365539 
L 722.371173 -152.101299 
L 723.685521 -151.825228 
L 724.99987 -151.538638 
L 726.314218 -151.242937 
L 727.628566 -150.939612 
L 728.942915 -150.630215 
L 730.257263 -150.31635 
L 731.571611 -149.999644 
L 732.885959 -149.681728 
L 734.200308 -149.364208 
L 735.514656 -149.048641 
L 736.829004 -148.736512 
L 738.143353 -148.429223 
L 739.457701 -148.128085 
L 740.772049 -147.834303 
L 742.086398 -147.548964 
L 743.400746 -147.273027 
L 744.715094 -147.007327 
L 746.029442 -146.752567 
L 747.343791 -146.509316 
L 748.658139 -146.278027 
L 749.972487 -146.059055 
L 751.286836 -145.852686 
L 752.601184 -145.659128 
L 753.915532 -145.478529 
L 755.229881 -145.311016 
L 756.544229 -145.156699 
L 757.858577 -145.015677 
L 759.172926 -144.888069 
L 760.487274 -144.774033 
L 761.801622 -144.673784 
L 763.11597 -144.58761 
L 764.430319 -144.515864 
L 765.744667 -144.458966 
L 767.059015 -144.417427 
L 768.373364 -144.391852 
L 768.373364 -187.275552 
L 768.373364 -187.275552 
L 767.059015 -186.900636 
L 765.744667 -186.542987 
L 764.430319 -186.202724 
L 763.11597 -185.88014 
L 761.801622 -185.575693 
L 760.487274 -185.289998 
L 759.172926 -185.023821 
L 757.858577 -184.778061 
L 756.544229 -184.553724 
L 755.229881 -184.351908 
L 753.915532 -184.173762 
L 752.601184 -184.020455 
L 751.286836 -183.893129 
L 749.972487 -183.792859 
L 748.658139 -183.720617 
L 747.343791 -183.677219 
L 746.029442 -183.663291 
L 744.715094 -183.679229 
L 743.400746 -183.725163 
L 742.086398 -183.800934 
L 740.772049 -183.906077 
L 739.457701 -184.039801 
L 738.143353 -184.200987 
L 736.829004 -184.388196 
L 735.514656 -184.599674 
L 734.200308 -184.833367 
L 732.885959 -185.086955 
L 731.571611 -185.357898 
L 730.257263 -185.643474 
L 728.942915 -185.940823 
L 727.628566 -186.246991 
L 726.314218 -186.558988 
L 724.99987 -186.873839 
L 723.685521 -187.188631 
L 722.371173 -187.500565 
L 721.056825 -187.807006 
L 719.742476 -188.105517 
L 718.428128 -188.393901 
L 717.11378 -188.670232 
L 715.799432 -188.932888 
L 714.485083 -189.180573 
L 713.170735 -189.412345 
L 711.856387 -189.627628 
L 710.542038 -189.826216 
L 709.22769 -190.008264 
L 707.913342 -190.174292 
L 706.598993 -190.325165 
L 705.284645 -190.462086 
L 703.970297 -190.586564 
L 702.655949 -190.700382 
L 701.3416 -190.805564 
L 700.027252 -190.904327 
L 698.712904 -190.999043 
L 697.398555 -191.092182 
L 696.084207 -191.186265 
L 694.769859 -191.283804 
L 693.45551 -191.387248 
L 692.141162 -191.498926 
L 690.826814 -191.620996 
L 689.512465 -191.755405 
L 688.198117 -191.903833 
L 686.883769 -192.06766 
L 685.569421 -192.247936 
L 684.255072 -192.445366 
L 682.940724 -192.660303 
L 681.626376 -192.892744 
L 680.312027 -193.142343 
L 678.997679 -193.408431 
L 677.683331 -193.690036 
L 676.368982 -193.985914 
L 675.054634 -194.294595 
L 673.740286 -194.614422 
L 672.425938 -194.943595 
L 671.111589 -195.28022 
L 669.797241 -195.622372 
L 668.482893 -195.968135 
L 667.168544 -196.315653 
L 665.854196 -196.663189 
L 664.539848 -197.009166 
L 663.225499 -197.352207 
L 661.911151 -197.691172 
L 660.596803 -198.025185 
L 659.282455 -198.353664 
L 657.968106 -198.676337 
L 656.653758 -198.993259 
L 655.33941 -199.304814 
L 654.025061 -199.611722 
L 652.710713 -199.915022 
L 651.396365 -200.216057 
L 650.082016 -200.516451 
L 648.767668 -200.818072 
L 647.45332 -201.122996 
L 646.138972 -201.433449 
L 644.824623 -201.751757 
L 643.510275 -202.080278 
L 642.195927 -202.421341 
L 640.881578 -202.777166 
L 639.56723 -203.149797 
L 638.252882 -203.541018 
L 636.938533 -203.952278 
L 635.624185 -204.384616 
L 634.309837 -204.838584 
L 632.995488 -205.31419 
L 631.68114 -205.810834 
L 630.366792 -206.327266 
L 629.052444 -206.861555 
L 627.738095 -207.411087 
L 626.423747 -207.972575 
L 625.109399 -208.542087 
L 623.79505 -209.115103 
L 622.480702 -209.686579 
L 621.166354 -210.251047 
L 619.852005 -210.802708 
L 618.537657 -211.335554 
L 617.223309 -211.843483 
L 615.908961 -212.320422 
L 614.594612 -212.760452 
L 613.280264 -213.157918 
L 611.965916 -213.507531 
L 610.651567 -213.804447 
L 609.337219 -214.044356 
L 608.022871 -214.223537 
L 606.708522 -214.338913 
L 605.394174 -214.38809 
L 604.079826 -214.369385 
L 602.765478 -214.281845 
L 601.451129 -214.12525 
L 600.136781 -213.900117 
L 598.822433 -213.607679 
L 597.508084 -213.249866 
L 596.193736 -212.829274 
L 594.879388 -212.349129 
L 593.565039 -211.813246 
L 592.250691 -211.225972 
L 590.936343 -210.592124 
L 589.621995 -209.916924 
L 588.307646 -209.205922 
L 586.993298 -208.464918 
L 585.67895 -207.699872 
L 584.364601 -206.91681 
L 583.050253 -206.121731 
L 581.735905 -205.320516 
L 580.421556 -204.518837 
L 579.107208 -203.722072 
L 577.79286 -202.935219 
L 576.478512 -202.162831 
L 575.164163 -201.408943 
L 573.849815 -200.677035 
L 572.535467 -199.969996 
L 571.221118 -199.290104 
L 569.90677 -198.639028 
L 568.592422 -198.017838 
L 567.278073 -197.427028 
L 565.963725 -196.866567 
L 564.649377 -196.335947 
L 563.335028 -195.83425 
L 562.02068 -195.360218 
L 560.706332 -194.912324 
L 559.391984 -194.488853 
L 558.077635 -194.087982 
L 556.763287 -193.707869 
L 555.448939 -193.346725 
L 554.13459 -193.002888 
L 552.820242 -192.67489 
L 551.505894 -192.361518 
L 550.191545 -192.061868 
L 548.877197 -191.775391 
L 547.562849 -191.501928 
L 546.248501 -191.241739 
L 544.934152 -190.99551 
L 543.619804 -190.764345 
L 542.305456 -190.549753 
L 540.991107 -190.353617 
L 539.676759 -190.178147 
L 538.362411 -190.025826 
L 537.048062 -189.899332 
L 535.733714 -189.801451 
L 534.419366 -189.734978 
L 533.105018 -189.702616 
L 531.790669 -189.706865 
L 530.476321 -189.749917 
L 529.161973 -189.833553 
L 527.847624 -189.95905 
L 526.533276 -190.1271 
L 525.218928 -190.337747 
L 523.904579 -190.590347 
L 522.590231 -190.883547 
L 521.275883 -191.215294 
L 519.961535 -191.582855 
L 518.647186 -191.982865 
L 517.332838 -192.411395 
L 516.01849 -192.86403 
L 514.704141 -193.335961 
L 513.389793 -193.822081 
L 512.075445 -194.317088 
L 510.761096 -194.815591 
L 509.446748 -195.312204 
L 508.1324 -195.801647 
L 506.818051 -196.27883 
L 505.503703 -196.73893 
L 504.189355 -197.177464 
L 502.875007 -197.590342 
L 501.560658 -197.973911 
L 500.24631 -198.324998 
L 498.931962 -198.640928 
L 497.617613 -198.91954 
L 496.303265 -199.159189 
L 494.988917 -199.35874 
L 493.674568 -199.517549 
L 492.36022 -199.635446 
L 491.045872 -199.712705 
L 489.731524 -199.750002 
L 488.417175 -199.748379 
L 487.102827 -199.709197 
L 485.788479 -199.634081 
L 484.47413 -199.524876 
L 483.159782 -199.383591 
L 481.845434 -199.212346 
L 480.531085 -199.013321 
L 479.216737 -198.788704 
L 477.902389 -198.540645 
L 476.588041 -198.271201 
L 475.273692 -197.982292 
L 473.959344 -197.675669 
L 472.644996 -197.352877 
L 471.330647 -197.015236 
L 470.016299 -196.663828 
L 468.701951 -196.299482 
L 467.387602 -195.922777 
L 466.073254 -195.534042 
L 464.758906 -195.133369 
L 463.444558 -194.720627 
L 462.130209 -194.295494 
L 460.815861 -193.857486 
L 459.501513 -193.405987 
L 458.187164 -192.940287 
L 456.872816 -192.459611 
L 455.558468 -191.963166 
L 454.244119 -191.450169 
L 452.929771 -190.91988 
L 451.615423 -190.37164 
L 450.301074 -189.804899 
L 448.986726 -189.219236 
L 447.672378 -188.614378 
L 446.35803 -187.990215 
L 445.043681 -187.34681 
L 443.729333 -186.684422 
L 442.414985 -186.003506 
L 441.100636 -185.304707 
z
" style="stroke: #000080; stroke-opacity: 0.2"/>
    </defs>
    <g clip-path="url(#p804097ca1e)">
     <use xlink:href="#ma4b39a9355" x="0" y="297.395336" style="fill: #000080; fill-opacity: 0.2; stroke: #000080; stroke-opacity: 0.2"/>
    </g>
   </g>
   <g id="FillBetweenPolyCollection_4">
    <defs>
     <path id="m7e6b921815" d="M 441.100636 -179.880327 
L 441.100636 -151.163926 
L 442.414985 -151.717143 
L 443.729333 -152.237487 
L 445.043681 -152.723433 
L 446.35803 -153.173658 
L 447.672378 -153.587055 
L 448.986726 -153.962739 
L 450.301074 -154.300081 
L 451.615423 -154.598709 
L 452.929771 -154.85851 
L 454.244119 -155.079642 
L 455.558468 -155.262531 
L 456.872816 -155.407877 
L 458.187164 -155.516653 
L 459.501513 -155.590093 
L 460.815861 -155.629674 
L 462.130209 -155.637094 
L 463.444558 -155.614266 
L 464.758906 -155.563293 
L 466.073254 -155.486442 
L 467.387602 -155.386118 
L 468.701951 -155.264829 
L 470.016299 -155.125163 
L 471.330647 -154.969756 
L 472.644996 -154.801259 
L 473.959344 -154.622314 
L 475.273692 -154.435526 
L 476.588041 -154.243435 
L 477.902389 -154.048489 
L 479.216737 -153.853021 
L 480.531085 -153.659232 
L 481.845434 -153.469182 
L 483.159782 -153.284772 
L 484.47413 -153.107739 
L 485.788479 -152.939653 
L 487.102827 -152.781912 
L 488.417175 -152.635742 
L 489.731524 -152.502191 
L 491.045872 -152.382138 
L 492.36022 -152.276292 
L 493.674568 -152.185206 
L 494.988917 -152.109281 
L 496.303265 -152.048775 
L 497.617613 -152.0038 
L 498.931962 -151.974342 
L 500.24631 -151.960263 
L 501.560658 -151.961311 
L 502.875007 -151.97712 
L 504.189355 -152.007222 
L 505.503703 -152.051051 
L 506.818051 -152.107953 
L 508.1324 -152.177186 
L 509.446748 -152.257926 
L 510.761096 -152.349278 
L 512.075445 -152.450278 
L 513.389793 -152.559899 
L 514.704141 -152.677058 
L 516.01849 -152.800629 
L 517.332838 -152.929451 
L 518.647186 -153.062344 
L 519.961535 -153.198119 
L 521.275883 -153.335589 
L 522.590231 -153.473592 
L 523.904579 -153.610997 
L 525.218928 -153.746727 
L 526.533276 -153.879773 
L 527.847624 -154.009209 
L 529.161973 -154.134207 
L 530.476321 -154.254046 
L 531.790669 -154.368117 
L 533.105018 -154.475937 
L 534.419366 -154.577145 
L 535.733714 -154.671504 
L 537.048062 -154.758898 
L 538.362411 -154.839324 
L 539.676759 -154.912888 
L 540.991107 -154.979791 
L 542.305456 -155.040319 
L 543.619804 -155.094833 
L 544.934152 -155.14375 
L 546.248501 -155.187532 
L 547.562849 -155.226674 
L 548.877197 -155.261686 
L 550.191545 -155.293085 
L 551.505894 -155.321381 
L 552.820242 -155.34707 
L 554.13459 -155.370616 
L 555.448939 -155.392446 
L 556.763287 -155.412945 
L 558.077635 -155.432443 
L 559.391984 -155.451218 
L 560.706332 -155.469489 
L 562.02068 -155.487412 
L 563.335028 -155.50508 
L 564.649377 -155.522526 
L 565.963725 -155.539717 
L 567.278073 -155.556565 
L 568.592422 -155.572922 
L 569.90677 -155.588587 
L 571.221118 -155.603315 
L 572.535467 -155.616817 
L 573.849815 -155.628772 
L 575.164163 -155.638828 
L 576.478512 -155.64662 
L 577.79286 -155.651768 
L 579.107208 -155.653894 
L 580.421556 -155.652622 
L 581.735905 -155.647593 
L 583.050253 -155.638474 
L 584.364601 -155.62496 
L 585.67895 -155.606786 
L 586.993298 -155.583719 
L 588.307646 -155.555574 
L 589.621995 -155.522202 
L 590.936343 -155.4835 
L 592.250691 -155.439408 
L 593.565039 -155.389904 
L 594.879388 -155.335009 
L 596.193736 -155.274773 
L 597.508084 -155.209276 
L 598.822433 -155.138617 
L 600.136781 -155.062917 
L 601.451129 -154.982315 
L 602.765478 -154.896956 
L 604.079826 -154.806996 
L 605.394174 -154.712594 
L 606.708522 -154.613914 
L 608.022871 -154.511116 
L 609.337219 -154.404364 
L 610.651567 -154.293822 
L 611.965916 -154.179659 
L 613.280264 -154.062047 
L 614.594612 -153.941167 
L 615.908961 -153.817201 
L 617.223309 -153.690336 
L 618.537657 -153.56077 
L 619.852005 -153.428708 
L 621.166354 -153.294366 
L 622.480702 -153.157966 
L 623.79505 -153.019739 
L 625.109399 -152.879917 
L 626.423747 -152.73874 
L 627.738095 -152.596447 
L 629.052444 -152.453278 
L 630.366792 -152.309464 
L 631.68114 -152.165225 
L 632.995488 -152.020775 
L 634.309837 -151.87631 
L 635.624185 -151.73201 
L 636.938533 -151.588038 
L 638.252882 -151.444544 
L 639.56723 -151.301655 
L 640.881578 -151.159485 
L 642.195927 -151.018135 
L 643.510275 -150.877703 
L 644.824623 -150.738282 
L 646.138972 -150.599959 
L 647.45332 -150.462817 
L 648.767668 -150.326938 
L 650.082016 -150.192412 
L 651.396365 -150.059338 
L 652.710713 -149.927827 
L 654.025061 -149.797994 
L 655.33941 -149.669961 
L 656.653758 -149.543852 
L 657.968106 -149.419794 
L 659.282455 -149.297915 
L 660.596803 -149.178339 
L 661.911151 -149.06118 
L 663.225499 -148.94654 
L 664.539848 -148.8345 
L 665.854196 -148.725128 
L 667.168544 -148.618465 
L 668.482893 -148.51453 
L 669.797241 -148.413311 
L 671.111589 -148.314766 
L 672.425938 -148.218816 
L 673.740286 -148.125349 
L 675.054634 -148.034216 
L 676.368982 -147.945237 
L 677.683331 -147.858202 
L 678.997679 -147.772863 
L 680.312027 -147.688947 
L 681.626376 -147.606154 
L 682.940724 -147.524167 
L 684.255072 -147.442659 
L 685.569421 -147.3613 
L 686.883769 -147.279758 
L 688.198117 -147.19771 
L 689.512465 -147.11486 
L 690.826814 -147.030941 
L 692.141162 -146.945729 
L 693.45551 -146.859041 
L 694.769859 -146.770745 
L 696.084207 -146.680772 
L 697.398555 -146.589133 
L 698.712904 -146.495916 
L 700.027252 -146.401295 
L 701.3416 -146.305522 
L 702.655949 -146.208923 
L 703.970297 -146.111907 
L 705.284645 -146.014962 
L 706.598993 -145.918646 
L 707.913342 -145.823577 
L 709.22769 -145.730413 
L 710.542038 -145.639839 
L 711.856387 -145.552565 
L 713.170735 -145.469307 
L 714.485083 -145.390778 
L 715.799432 -145.317662 
L 717.11378 -145.250597 
L 718.428128 -145.190148 
L 719.742476 -145.136796 
L 721.056825 -145.090938 
L 722.371173 -145.052866 
L 723.685521 -145.022756 
L 724.99987 -145.00065 
L 726.314218 -144.986447 
L 727.628566 -144.979898 
L 728.942915 -144.980607 
L 730.257263 -144.98804 
L 731.571611 -145.001524 
L 732.885959 -145.02025 
L 734.200308 -145.043283 
L 735.514656 -145.069576 
L 736.829004 -145.097978 
L 738.143353 -145.127258 
L 739.457701 -145.156126 
L 740.772049 -145.183251 
L 742.086398 -145.207278 
L 743.400746 -145.226846 
L 744.715094 -145.240617 
L 746.029442 -145.247287 
L 747.343791 -145.245613 
L 748.658139 -145.234432 
L 749.972487 -145.212684 
L 751.286836 -145.179434 
L 752.601184 -145.13387 
L 753.915532 -145.075321 
L 755.229881 -145.003277 
L 756.544229 -144.917394 
L 757.858577 -144.817493 
L 759.172926 -144.703562 
L 760.487274 -144.575753 
L 761.801622 -144.434394 
L 763.11597 -144.279986 
L 764.430319 -144.113193 
L 765.744667 -143.934828 
L 767.059015 -143.745857 
L 768.373364 -143.547393 
L 768.373364 -191.818046 
L 768.373364 -191.818046 
L 767.059015 -191.864214 
L 765.744667 -191.884567 
L 764.430319 -191.877814 
L 763.11597 -191.842986 
L 761.801622 -191.779446 
L 760.487274 -191.686893 
L 759.172926 -191.565373 
L 757.858577 -191.415272 
L 756.544229 -191.237319 
L 755.229881 -191.032579 
L 753.915532 -190.802425 
L 752.601184 -190.548516 
L 751.286836 -190.272773 
L 749.972487 -189.977349 
L 748.658139 -189.664595 
L 747.343791 -189.337017 
L 746.029442 -188.997235 
L 744.715094 -188.647932 
L 743.400746 -188.291816 
L 742.086398 -187.931564 
L 740.772049 -187.569787 
L 739.457701 -187.208982 
L 738.143353 -186.851496 
L 736.829004 -186.499497 
L 735.514656 -186.154933 
L 734.200308 -185.819503 
L 732.885959 -185.494653 
L 731.571611 -185.181555 
L 730.257263 -184.88111 
L 728.942915 -184.593946 
L 727.628566 -184.320424 
L 726.314218 -184.060654 
L 724.99987 -183.814519 
L 723.685521 -183.581686 
L 722.371173 -183.361632 
L 721.056825 -183.15368 
L 719.742476 -182.957021 
L 718.428128 -182.770747 
L 717.11378 -182.593886 
L 715.799432 -182.425423 
L 714.485083 -182.26434 
L 713.170735 -182.109641 
L 711.856387 -181.960388 
L 710.542038 -181.815717 
L 709.22769 -181.674865 
L 707.913342 -181.537185 
L 706.598993 -181.402161 
L 705.284645 -181.269423 
L 703.970297 -181.138751 
L 702.655949 -181.010079 
L 701.3416 -180.883496 
L 700.027252 -180.759241 
L 698.712904 -180.637692 
L 697.398555 -180.519352 
L 696.084207 -180.404837 
L 694.769859 -180.294856 
L 693.45551 -180.190187 
L 692.141162 -180.091654 
L 690.826814 -180.000096 
L 689.512465 -179.916347 
L 688.198117 -179.841193 
L 686.883769 -179.775351 
L 685.569421 -179.719443 
L 684.255072 -179.673967 
L 682.940724 -179.639282 
L 681.626376 -179.615585 
L 680.312027 -179.602895 
L 678.997679 -179.601049 
L 677.683331 -179.609687 
L 676.368982 -179.628249 
L 675.054634 -179.655981 
L 673.740286 -179.691936 
L 672.425938 -179.734987 
L 671.111589 -179.783832 
L 669.797241 -179.83703 
L 668.482893 -179.893009 
L 667.168544 -179.950091 
L 665.854196 -180.006528 
L 664.539848 -180.060529 
L 663.225499 -180.110284 
L 661.911151 -180.154001 
L 660.596803 -180.189928 
L 659.282455 -180.216389 
L 657.968106 -180.231807 
L 656.653758 -180.234742 
L 655.33941 -180.223914 
L 654.025061 -180.19823 
L 652.710713 -180.156804 
L 651.396365 -180.098973 
L 650.082016 -180.024313 
L 648.767668 -179.932646 
L 647.45332 -179.824048 
L 646.138972 -179.698843 
L 644.824623 -179.557589 
L 643.510275 -179.401075 
L 642.195927 -179.230305 
L 640.881578 -179.046472 
L 639.56723 -178.850942 
L 638.252882 -178.645219 
L 636.938533 -178.430921 
L 635.624185 -178.209747 
L 634.309837 -177.983442 
L 632.995488 -177.753768 
L 631.68114 -177.522473 
L 630.366792 -177.29126 
L 629.052444 -177.061762 
L 627.738095 -176.835524 
L 626.423747 -176.613979 
L 625.109399 -176.398439 
L 623.79505 -176.190079 
L 622.480702 -175.989932 
L 621.166354 -175.798891 
L 619.852005 -175.617699 
L 618.537657 -175.446965 
L 617.223309 -175.287158 
L 615.908961 -175.138625 
L 614.594612 -175.001596 
L 613.280264 -174.876214 
L 611.965916 -174.762535 
L 610.651567 -174.660536 
L 609.337219 -174.570136 
L 608.022871 -174.491204 
L 606.708522 -174.423562 
L 605.394174 -174.367 
L 604.079826 -174.321285 
L 602.765478 -174.286168 
L 601.451129 -174.261386 
L 600.136781 -174.246674 
L 598.822433 -174.24176 
L 597.508084 -174.246361 
L 596.193736 -174.260194 
L 594.879388 -174.282965 
L 593.565039 -174.31438 
L 592.250691 -174.354129 
L 590.936343 -174.401889 
L 589.621995 -174.457327 
L 588.307646 -174.52009 
L 586.993298 -174.589811 
L 585.67895 -174.6661 
L 584.364601 -174.748536 
L 583.050253 -174.836676 
L 581.735905 -174.930045 
L 580.421556 -175.028145 
L 579.107208 -175.130457 
L 577.79286 -175.236439 
L 576.478512 -175.345531 
L 575.164163 -175.457155 
L 573.849815 -175.570721 
L 572.535467 -175.685623 
L 571.221118 -175.801259 
L 569.90677 -175.917024 
L 568.592422 -176.032323 
L 567.278073 -176.146568 
L 565.963725 -176.259193 
L 564.649377 -176.36966 
L 563.335028 -176.477462 
L 562.02068 -176.582134 
L 560.706332 -176.683256 
L 559.391984 -176.780458 
L 558.077635 -176.873425 
L 556.763287 -176.961913 
L 555.448939 -177.045747 
L 554.13459 -177.124834 
L 552.820242 -177.199156 
L 551.505894 -177.268778 
L 550.191545 -177.333856 
L 548.877197 -177.394636 
L 547.562849 -177.451459 
L 546.248501 -177.504766 
L 544.934152 -177.555092 
L 543.619804 -177.603055 
L 542.305456 -177.649349 
L 540.991107 -177.694737 
L 539.676759 -177.740037 
L 538.362411 -177.786113 
L 537.048062 -177.83385 
L 535.733714 -177.884139 
L 534.419366 -177.937852 
L 533.105018 -177.995819 
L 531.790669 -178.058811 
L 530.476321 -178.127517 
L 529.161973 -178.202525 
L 527.847624 -178.284313 
L 526.533276 -178.373235 
L 525.218928 -178.469511 
L 523.904579 -178.573224 
L 522.590231 -178.684326 
L 521.275883 -178.802642 
L 519.961535 -178.92788 
L 518.647186 -179.059643 
L 517.332838 -179.197453 
L 516.01849 -179.340767 
L 514.704141 -179.488998 
L 513.389793 -179.641538 
L 512.075445 -179.797774 
L 510.761096 -179.957117 
L 509.446748 -180.119009 
L 508.1324 -180.282949 
L 506.818051 -180.4485 
L 505.503703 -180.615296 
L 504.189355 -180.783056 
L 502.875007 -180.951577 
L 501.560658 -181.120737 
L 500.24631 -181.290492 
L 498.931962 -181.460863 
L 497.617613 -181.631931 
L 496.303265 -181.803817 
L 494.988917 -181.976668 
L 493.674568 -182.150638 
L 492.36022 -182.325868 
L 491.045872 -182.502465 
L 489.731524 -182.680484 
L 488.417175 -182.859903 
L 487.102827 -183.040596 
L 485.788479 -183.222322 
L 484.47413 -183.404707 
L 483.159782 -183.587223 
L 481.845434 -183.76918 
L 480.531085 -183.949708 
L 479.216737 -184.127766 
L 477.902389 -184.302131 
L 476.588041 -184.471401 
L 475.273692 -184.63398 
L 473.959344 -184.788105 
L 472.644996 -184.931845 
L 471.330647 -185.063128 
L 470.016299 -185.179762 
L 468.701951 -185.279454 
L 467.387602 -185.359847 
L 466.073254 -185.418536 
L 464.758906 -185.453104 
L 463.444558 -185.461152 
L 462.130209 -185.440334 
L 460.815861 -185.388389 
L 459.501513 -185.303173 
L 458.187164 -185.182684 
L 456.872816 -185.025086 
L 455.558468 -184.82874 
L 454.244119 -184.59222 
L 452.929771 -184.314329 
L 451.615423 -183.994114 
L 450.301074 -183.630883 
L 448.986726 -183.224205 
L 447.672378 -182.773912 
L 446.35803 -182.280092 
L 445.043681 -181.743089 
L 443.729333 -181.163515 
L 442.414985 -180.542228 
L 441.100636 -179.880327 
z
" style="stroke: #000080; stroke-opacity: 0.2"/>
    </defs>
    <g clip-path="url(#p804097ca1e)">
     <use xlink:href="#m7e6b921815" x="0" y="297.395336" style="fill: #000080; fill-opacity: 0.2; stroke: #000080; stroke-opacity: 0.2"/>
    </g>
   </g>
   <g id="line2d_5">
    <path d="M 441.100636 126.355866 
L 446.35803 123.872121 
L 450.301074 122.231057 
L 454.244119 120.788392 
L 458.187164 119.537876 
L 463.444558 118.14199 
L 468.701951 117.015429 
L 473.959344 116.127413 
L 479.216737 115.478838 
L 484.47413 115.10417 
L 488.417175 115.033662 
L 492.36022 115.163788 
L 496.303265 115.499997 
L 500.24631 116.028648 
L 505.503703 116.965979 
L 517.332838 119.237333 
L 521.275883 119.756278 
L 525.218928 120.051403 
L 529.161973 120.100871 
L 533.105018 119.914018 
L 537.048062 119.523734 
L 542.305456 118.761666 
L 548.877197 117.536084 
L 554.13459 116.365838 
L 559.391984 114.977811 
L 563.335028 113.743803 
L 567.278073 112.309507 
L 571.221118 110.663955 
L 576.478512 108.180734 
L 589.621995 101.690034 
L 593.565039 100.136355 
L 596.193736 99.311182 
L 598.822433 98.686751 
L 601.451129 98.283638 
L 604.079826 98.115141 
L 606.708522 98.186754 
L 609.337219 98.495972 
L 611.965916 99.032421 
L 614.594612 99.778307 
L 617.223309 100.709204 
L 621.166354 102.385859 
L 626.423747 104.961063 
L 636.938533 110.251162 
L 642.195927 112.577131 
L 647.45332 114.600906 
L 652.710713 116.364925 
L 659.282455 118.317494 
L 667.168544 120.409285 
L 673.740286 121.915825 
L 678.997679 122.89264 
L 684.255072 123.618879 
L 689.512465 124.100241 
L 697.398555 124.528189 
L 705.284645 124.983783 
L 710.542038 125.508438 
L 715.799432 126.287386 
L 721.056825 127.309064 
L 730.257263 129.415424 
L 736.829004 130.832982 
L 742.086398 131.720387 
L 746.029442 132.187407 
L 749.972487 132.469379 
L 753.915532 132.56919 
L 759.172926 132.439391 
L 764.430319 132.036042 
L 768.373364 131.561634 
L 768.373364 131.561634 
" clip-path="url(#p804097ca1e)" style="fill: none; stroke-dasharray: 5.55,2.4; stroke-dashoffset: 0; stroke: #000080; stroke-width: 1.5"/>
   </g>
   <g id="line2d_6">
    <path d="M 441.100636 131.873209 
L 445.043681 130.162075 
L 447.672378 129.214852 
L 450.301074 128.429854 
L 452.929771 127.808917 
L 455.558468 127.349701 
L 459.501513 126.948703 
L 463.444558 126.857627 
L 467.387602 127.022354 
L 472.644996 127.528784 
L 480.531085 128.590866 
L 489.731524 129.803998 
L 496.303265 130.46904 
L 502.875007 130.930988 
L 510.761096 131.242139 
L 518.647186 131.334342 
L 529.161973 131.22697 
L 544.934152 131.045915 
L 555.448939 131.176239 
L 568.592422 131.592713 
L 604.079826 132.831196 
L 614.594612 132.923955 
L 623.79505 132.790427 
L 647.45332 132.251903 
L 654.025061 132.397224 
L 661.911151 132.787746 
L 678.997679 133.70838 
L 686.883769 133.867781 
L 697.398555 133.841093 
L 714.485083 133.567777 
L 721.056825 133.273027 
L 727.628566 132.745175 
L 734.200308 131.963943 
L 751.286836 129.669233 
L 756.544229 129.31798 
L 760.487274 129.264013 
L 764.430319 129.399832 
L 768.373364 129.712616 
L 768.373364 129.712616 
" clip-path="url(#p804097ca1e)" style="fill: none; stroke: #000080; stroke-width: 1.5; stroke-linecap: round"/>
   </g>
   <g id="patch_9">
    <path d="M 424.737 248.822336 
L 424.737 26.3301 
" style="fill: none; stroke: #ffffff; stroke-width: 1.25; stroke-linejoin: miter; stroke-linecap: square"/>
   </g>
   <g id="patch_10">
    <path d="M 784.737 248.822336 
L 784.737 26.3301 
" style="fill: none; stroke: #ffffff; stroke-width: 1.25; stroke-linejoin: miter; stroke-linecap: square"/>
   </g>
   <g id="patch_11">
    <path d="M 424.737 248.822336 
L 784.737 248.822336 
" style="fill: none; stroke: #ffffff; stroke-width: 1.25; stroke-linejoin: miter; stroke-linecap: square"/>
   </g>
   <g id="patch_12">
    <path d="M 424.737 26.3301 
L 784.737 26.3301 
" style="fill: none; stroke: #ffffff; stroke-width: 1.25; stroke-linejoin: miter; stroke-linecap: square"/>
   </g>
   <g id="text_23">
    <!-- Z2 -->
    <g style="fill: #262626" transform="translate(593.3214 20.3301) scale(0.1728 -0.1728)">
     <use xlink:href="#DejaVuSans-5a"/>
     <use xlink:href="#DejaVuSans-32" transform="translate(68.505859 0)"/>
    </g>
   </g>
  </g>
 </g>
 <defs>
  <clipPath id="p29c7ccf6fc">
   <rect x="57.537" y="26.3301" width="360" height="222.492236"/>
  </clipPath>
  <clipPath id="p804097ca1e">
   <rect x="424.737" y="26.3301" width="360" height="222.492236"/>
  </clipPath>
 </defs>
</svg>
