<?xml version="1.0" encoding="utf-8" standalone="no"?>
<!DOCTYPE svg PUBLIC "-//W3C//DTD SVG 1.1//EN"
  "http://www.w3.org/Graphics/SVG/1.1/DTD/svg11.dtd">
<svg xmlns:xlink="http://www.w3.org/1999/xlink" width="720pt" height="360pt" viewBox="0 0 720 360" xmlns="http://www.w3.org/2000/svg" version="1.1">
 <metadata>
  <rdf:RDF xmlns:dc="http://purl.org/dc/elements/1.1/" xmlns:cc="http://creativecommons.org/ns#" xmlns:rdf="http://www.w3.org/1999/02/22-rdf-syntax-ns#">
   <cc:Work>
    <dc:type rdf:resource="http://purl.org/dc/dcmitype/StillImage"/>
    <dc:date>2026-03-23T14:30:29.308913</dc:date>
    <dc:format>image/svg+xml</dc:format>
    <dc:creator>
     <cc:Agent>
      <dc:title>Matplotlib v3.10.6, https://matplotlib.org/</dc:title>
     </cc:Agent>
    </dc:creator>
   </cc:Work>
  </rdf:RDF>
 </metadata>
 <defs>
  <style type="text/css">*{stroke-linejoin: round; stroke-linecap: butt}</style>
 </defs>
 <g id="figure_1">
  <g id="patch_1">
   <path d="M 0 360 
L 720 360 
L 720 0 
L 0 0 
z
" style="fill: #ffffff"/>
  </g>
  <g id="axes_1">
   <g id="patch_2">
    <path d="M 55.56 310.98 
L 707.04 310.98 
L 707.04 28.08 
L 55.56 28.08 
z
" style="fill: #eaeaf2"/>
   </g>
   <g id="matplotlib.axis_1">
    <g id="xtick_1">
     <g id="text_1">
      <!-- 0 -->
      <g style="fill: #262626" transform="translate(80.479291 328.838281) scale(0.11 -0.11)">
       <defs>
        <path id="DejaVuSans-30" d="M 2034 4250 
Q 1547 4250 1301 3770 
Q 1056 3291 1056 2328 
Q 1056 1369 1301 889 
Q 1547 409 2034 409 
Q 2525 409 2770 889 
Q 3016 1369 3016 2328 
Q 3016 3291 2770 3770 
Q 2525 4250 2034 4250 
z
M 2034 4750 
Q 2819 4750 3233 4129 
Q 3647 3509 3647 2328 
Q 3647 1150 3233 529 
Q 2819 -91 2034 -91 
Q 1250 -91 836 529 
Q 422 1150 422 2328 
Q 422 3509 836 4129 
Q 1250 4750 2034 4750 
z
" transform="scale(0.015625)"/>
       </defs>
       <use xlink:href="#DejaVuSans-30"/>
      </g>
     </g>
    </g>
    <g id="xtick_2">
     <g id="text_2">
      <!-- 5 -->
      <g style="fill: #262626" transform="translate(223.766681 328.838281) scale(0.11 -0.11)">
       <defs>
        <path id="DejaVuSans-35" d="M 691 4666 
L 3169 4666 
L 3169 4134 
L 1269 4134 
L 1269 2991 
Q 1406 3038 1543 3061 
Q 1681 3084 1819 3084 
Q 2600 3084 3056 2656 
Q 3513 2228 3513 1497 
Q 3513 744 3044 326 
Q 2575 -91 1722 -91 
Q 1428 -91 1123 -41 
Q 819 9 494 109 
L 494 744 
Q 775 591 1075 516 
Q 1375 441 1709 441 
Q 2250 441 2565 725 
Q 2881 1009 2881 1497 
Q 2881 1984 2565 2268 
Q 2250 2553 1709 2553 
Q 1456 2553 1204 2497 
Q 953 2441 691 2322 
L 691 4666 
z
" transform="scale(0.015625)"/>
       </defs>
       <use xlink:href="#DejaVuSans-35"/>
      </g>
     </g>
    </g>
    <g id="xtick_3">
     <g id="text_3">
      <!-- 10 -->
      <g style="fill: #262626" transform="translate(363.554696 328.838281) scale(0.11 -0.11)">
       <defs>
        <path id="DejaVuSans-31" d="M 794 531 
L 1825 531 
L 1825 4091 
L 703 3866 
L 703 4441 
L 1819 4666 
L 2450 4666 
L 2450 531 
L 3481 531 
L 3481 0 
L 794 0 
L 794 531 
z
" transform="scale(0.015625)"/>
       </defs>
       <use xlink:href="#DejaVuSans-31"/>
       <use xlink:href="#DejaVuSans-30" transform="translate(63.623047 0)"/>
      </g>
     </g>
    </g>
    <g id="xtick_4">
     <g id="text_4">
      <!-- 15 -->
      <g style="fill: #262626" transform="translate(506.842086 328.838281) scale(0.11 -0.11)">
       <use xlink:href="#DejaVuSans-31"/>
       <use xlink:href="#DejaVuSans-35" transform="translate(63.623047 0)"/>
      </g>
     </g>
    </g>
    <g id="xtick_5">
     <g id="text_5">
      <!-- 20 -->
      <g style="fill: #262626" transform="translate(650.129476 328.838281) scale(0.11 -0.11)">
       <defs>
        <path id="DejaVuSans-32" d="M 1228 531 
L 3431 531 
L 3431 0 
L 469 0 
L 469 531 
Q 828 903 1448 1529 
Q 2069 2156 2228 2338 
Q 2531 2678 2651 2914 
Q 2772 3150 2772 3378 
Q 2772 3750 2511 3984 
Q 2250 4219 1831 4219 
Q 1534 4219 1204 4116 
Q 875 4013 500 3803 
L 500 4441 
Q 881 4594 1212 4672 
Q 1544 4750 1819 4750 
Q 2544 4750 2975 4387 
Q 3406 4025 3406 3419 
Q 3406 3131 3298 2873 
Q 3191 2616 2906 2266 
Q 2828 2175 2409 1742 
Q 1991 1309 1228 531 
z
" transform="scale(0.015625)"/>
       </defs>
       <use xlink:href="#DejaVuSans-32"/>
       <use xlink:href="#DejaVuSans-30" transform="translate(63.623047 0)"/>
      </g>
     </g>
    </g>
    <g id="text_6">
     <!-- Time [days] -->
     <g style="fill: #262626" transform="translate(345.868125 344.244062) scale(0.12 -0.12)">
      <defs>
       <path id="DejaVuSans-54" d="M -19 4666 
L 3928 4666 
L 3928 4134 
L 2272 4134 
L 2272 0 
L 1638 0 
L 1638 4134 
L -19 4134 
L -19 4666 
z
" transform="scale(0.015625)"/>
       <path id="DejaVuSans-69" d="M 603 3500 
L 1178 3500 
L 1178 0 
L 603 0 
L 603 3500 
z
M 603 4863 
L 1178 4863 
L 1178 4134 
L 603 4134 
L 603 4863 
z
" transform="scale(0.015625)"/>
       <path id="DejaVuSans-6d" d="M 3328 2828 
Q 3544 3216 3844 3400 
Q 4144 3584 4550 3584 
Q 5097 3584 5394 3201 
Q 5691 2819 5691 2113 
L 5691 0 
L 5113 0 
L 5113 2094 
Q 5113 2597 4934 2840 
Q 4756 3084 4391 3084 
Q 3944 3084 3684 2787 
Q 3425 2491 3425 1978 
L 3425 0 
L 2847 0 
L 2847 2094 
Q 2847 2600 2669 2842 
Q 2491 3084 2119 3084 
Q 1678 3084 1418 2786 
Q 1159 2488 1159 1978 
L 1159 0 
L 581 0 
L 581 3500 
L 1159 3500 
L 1159 2956 
Q 1356 3278 1631 3431 
Q 1906 3584 2284 3584 
Q 2666 3584 2933 3390 
Q 3200 3197 3328 2828 
z
" transform="scale(0.015625)"/>
       <path id="DejaVuSans-65" d="M 3597 1894 
L 3597 1613 
L 953 1613 
Q 991 1019 1311 708 
Q 1631 397 2203 397 
Q 2534 397 2845 478 
Q 3156 559 3463 722 
L 3463 178 
Q 3153 47 2828 -22 
Q 2503 -91 2169 -91 
Q 1331 -91 842 396 
Q 353 884 353 1716 
Q 353 2575 817 3079 
Q 1281 3584 2069 3584 
Q 2775 3584 3186 3129 
Q 3597 2675 3597 1894 
z
M 3022 2063 
Q 3016 2534 2758 2815 
Q 2500 3097 2075 3097 
Q 1594 3097 1305 2825 
Q 1016 2553 972 2059 
L 3022 2063 
z
" transform="scale(0.015625)"/>
       <path id="DejaVuSans-20" transform="scale(0.015625)"/>
       <path id="DejaVuSans-5b" d="M 550 4863 
L 1875 4863 
L 1875 4416 
L 1125 4416 
L 1125 -397 
L 1875 -397 
L 1875 -844 
L 550 -844 
L 550 4863 
z
" transform="scale(0.015625)"/>
       <path id="DejaVuSans-64" d="M 2906 2969 
L 2906 4863 
L 3481 4863 
L 3481 0 
L 2906 0 
L 2906 525 
Q 2725 213 2448 61 
Q 2172 -91 1784 -91 
Q 1150 -91 751 415 
Q 353 922 353 1747 
Q 353 2572 751 3078 
Q 1150 3584 1784 3584 
Q 2172 3584 2448 3432 
Q 2725 3281 2906 2969 
z
M 947 1747 
Q 947 1113 1208 752 
Q 1469 391 1925 391 
Q 2381 391 2643 752 
Q 2906 1113 2906 1747 
Q 2906 2381 2643 2742 
Q 2381 3103 1925 3103 
Q 1469 3103 1208 2742 
Q 947 2381 947 1747 
z
" transform="scale(0.015625)"/>
       <path id="DejaVuSans-61" d="M 2194 1759 
Q 1497 1759 1228 1600 
Q 959 1441 959 1056 
Q 959 750 1161 570 
Q 1363 391 1709 391 
Q 2188 391 2477 730 
Q 2766 1069 2766 1631 
L 2766 1759 
L 2194 1759 
z
M 3341 1997 
L 3341 0 
L 2766 0 
L 2766 531 
Q 2569 213 2275 61 
Q 1981 -91 1556 -91 
Q 1019 -91 701 211 
Q 384 513 384 1019 
Q 384 1609 779 1909 
Q 1175 2209 1959 2209 
L 2766 2209 
L 2766 2266 
Q 2766 2663 2505 2880 
Q 2244 3097 1772 3097 
Q 1472 3097 1187 3025 
Q 903 2953 641 2809 
L 641 3341 
Q 956 3463 1253 3523 
Q 1550 3584 1831 3584 
Q 2591 3584 2966 3190 
Q 3341 2797 3341 1997 
z
" transform="scale(0.015625)"/>
       <path id="DejaVuSans-79" d="M 2059 -325 
Q 1816 -950 1584 -1140 
Q 1353 -1331 966 -1331 
L 506 -1331 
L 506 -850 
L 844 -850 
Q 1081 -850 1212 -737 
Q 1344 -625 1503 -206 
L 1606 56 
L 191 3500 
L 800 3500 
L 1894 763 
L 2988 3500 
L 3597 3500 
L 2059 -325 
z
" transform="scale(0.015625)"/>
       <path id="DejaVuSans-73" d="M 2834 3397 
L 2834 2853 
Q 2591 2978 2328 3040 
Q 2066 3103 1784 3103 
Q 1356 3103 1142 2972 
Q 928 2841 928 2578 
Q 928 2378 1081 2264 
Q 1234 2150 1697 2047 
L 1894 2003 
Q 2506 1872 2764 1633 
Q 3022 1394 3022 966 
Q 3022 478 2636 193 
Q 2250 -91 1575 -91 
Q 1294 -91 989 -36 
Q 684 19 347 128 
L 347 722 
Q 666 556 975 473 
Q 1284 391 1588 391 
Q 1994 391 2212 530 
Q 2431 669 2431 922 
Q 2431 1156 2273 1281 
Q 2116 1406 1581 1522 
L 1381 1569 
Q 847 1681 609 1914 
Q 372 2147 372 2553 
Q 372 3047 722 3315 
Q 1072 3584 1716 3584 
Q 2034 3584 2315 3537 
Q 2597 3491 2834 3397 
z
" transform="scale(0.015625)"/>
       <path id="DejaVuSans-5d" d="M 1947 4863 
L 1947 -844 
L 622 -844 
L 622 -397 
L 1369 -397 
L 1369 4416 
L 622 4416 
L 622 4863 
L 1947 4863 
z
" transform="scale(0.015625)"/>
      </defs>
      <use xlink:href="#DejaVuSans-54"/>
      <use xlink:href="#DejaVuSans-69" transform="translate(57.958984 0)"/>
      <use xlink:href="#DejaVuSans-6d" transform="translate(85.742188 0)"/>
      <use xlink:href="#DejaVuSans-65" transform="translate(183.154297 0)"/>
      <use xlink:href="#DejaVuSans-20" transform="translate(244.677734 0)"/>
      <use xlink:href="#DejaVuSans-5b" transform="translate(276.464844 0)"/>
      <use xlink:href="#DejaVuSans-64" transform="translate(315.478516 0)"/>
      <use xlink:href="#DejaVuSans-61" transform="translate(378.955078 0)"/>
      <use xlink:href="#DejaVuSans-79" transform="translate(440.234375 0)"/>
      <use xlink:href="#DejaVuSans-73" transform="translate(499.414062 0)"/>
      <use xlink:href="#DejaVuSans-5d" transform="translate(551.513672 0)"/>
     </g>
    </g>
   </g>
   <g id="matplotlib.axis_2">
    <g id="ytick_1">
     <g id="text_7">
      <!-- 0.0 -->
      <g style="fill: #262626" transform="translate(28.566562 302.30005) scale(0.11 -0.11)">
       <defs>
        <path id="DejaVuSans-2e" d="M 684 794 
L 1344 794 
L 1344 0 
L 684 0 
L 684 794 
z
" transform="scale(0.015625)"/>
       </defs>
       <use xlink:href="#DejaVuSans-30"/>
       <use xlink:href="#DejaVuSans-2e" transform="translate(63.623047 0)"/>
       <use xlink:href="#DejaVuSans-30" transform="translate(95.410156 0)"/>
      </g>
     </g>
    </g>
    <g id="ytick_2">
     <g id="text_8">
      <!-- 0.2 -->
      <g style="fill: #262626" transform="translate(28.566562 250.863686) scale(0.11 -0.11)">
       <use xlink:href="#DejaVuSans-30"/>
       <use xlink:href="#DejaVuSans-2e" transform="translate(63.623047 0)"/>
       <use xlink:href="#DejaVuSans-32" transform="translate(95.410156 0)"/>
      </g>
     </g>
    </g>
    <g id="ytick_3">
     <g id="text_9">
      <!-- 0.4 -->
      <g style="fill: #262626" transform="translate(28.566562 199.427322) scale(0.11 -0.11)">
       <defs>
        <path id="DejaVuSans-34" d="M 2419 4116 
L 825 1625 
L 2419 1625 
L 2419 4116 
z
M 2253 4666 
L 3047 4666 
L 3047 1625 
L 3713 1625 
L 3713 1100 
L 3047 1100 
L 3047 0 
L 2419 0 
L 2419 1100 
L 313 1100 
L 313 1709 
L 2253 4666 
z
" transform="scale(0.015625)"/>
       </defs>
       <use xlink:href="#DejaVuSans-30"/>
       <use xlink:href="#DejaVuSans-2e" transform="translate(63.623047 0)"/>
       <use xlink:href="#DejaVuSans-34" transform="translate(95.410156 0)"/>
      </g>
     </g>
    </g>
    <g id="ytick_4">
     <g id="text_10">
      <!-- 0.6 -->
      <g style="fill: #262626" transform="translate(28.566562 147.990959) scale(0.11 -0.11)">
       <defs>
        <path id="DejaVuSans-36" d="M 2113 2584 
Q 1688 2584 1439 2293 
Q 1191 2003 1191 1497 
Q 1191 994 1439 701 
Q 1688 409 2113 409 
Q 2538 409 2786 701 
Q 3034 994 3034 1497 
Q 3034 2003 2786 2293 
Q 2538 2584 2113 2584 
z
M 3366 4563 
L 3366 3988 
Q 3128 4100 2886 4159 
Q 2644 4219 2406 4219 
Q 1781 4219 1451 3797 
Q 1122 3375 1075 2522 
Q 1259 2794 1537 2939 
Q 1816 3084 2150 3084 
Q 2853 3084 3261 2657 
Q 3669 2231 3669 1497 
Q 3669 778 3244 343 
Q 2819 -91 2113 -91 
Q 1303 -91 875 529 
Q 447 1150 447 2328 
Q 447 3434 972 4092 
Q 1497 4750 2381 4750 
Q 2619 4750 2861 4703 
Q 3103 4656 3366 4563 
z
" transform="scale(0.015625)"/>
       </defs>
       <use xlink:href="#DejaVuSans-30"/>
       <use xlink:href="#DejaVuSans-2e" transform="translate(63.623047 0)"/>
       <use xlink:href="#DejaVuSans-36" transform="translate(95.410156 0)"/>
      </g>
     </g>
    </g>
    <g id="ytick_5">
     <g id="text_11">
      <!-- 0.8 -->
      <g style="fill: #262626" transform="translate(28.566562 96.554595) scale(0.11 -0.11)">
       <defs>
        <path id="DejaVuSans-38" d="M 2034 2216 
Q 1584 2216 1326 1975 
Q 1069 1734 1069 1313 
Q 1069 891 1326 650 
Q 1584 409 2034 409 
Q 2484 409 2743 651 
Q 3003 894 3003 1313 
Q 3003 1734 2745 1975 
Q 2488 2216 2034 2216 
z
M 1403 2484 
Q 997 2584 770 2862 
Q 544 3141 544 3541 
Q 544 4100 942 4425 
Q 1341 4750 2034 4750 
Q 2731 4750 3128 4425 
Q 3525 4100 3525 3541 
Q 3525 3141 3298 2862 
Q 3072 2584 2669 2484 
Q 3125 2378 3379 2068 
Q 3634 1759 3634 1313 
Q 3634 634 3220 271 
Q 2806 -91 2034 -91 
Q 1263 -91 848 271 
Q 434 634 434 1313 
Q 434 1759 690 2068 
Q 947 2378 1403 2484 
z
M 1172 3481 
Q 1172 3119 1398 2916 
Q 1625 2713 2034 2713 
Q 2441 2713 2670 2916 
Q 2900 3119 2900 3481 
Q 2900 3844 2670 4047 
Q 2441 4250 2034 4250 
Q 1625 4250 1398 4047 
Q 1172 3844 1172 3481 
z
" transform="scale(0.015625)"/>
       </defs>
       <use xlink:href="#DejaVuSans-30"/>
       <use xlink:href="#DejaVuSans-2e" transform="translate(63.623047 0)"/>
       <use xlink:href="#DejaVuSans-38" transform="translate(95.410156 0)"/>
      </g>
     </g>
    </g>
    <g id="ytick_6">
     <g id="text_12">
      <!-- 1.0 -->
      <g style="fill: #262626" transform="translate(28.566562 45.118232) scale(0.11 -0.11)">
       <use xlink:href="#DejaVuSans-31"/>
       <use xlink:href="#DejaVuSans-2e" transform="translate(63.623047 0)"/>
       <use xlink:href="#DejaVuSans-30" transform="translate(95.410156 0)"/>
      </g>
     </g>
    </g>
    <g id="text_13">
     <!-- Dt ψ₂ nRMSE -->
     <g style="fill: #262626" transform="translate(22.070937 207.428437) rotate(-90) scale(0.12 -0.12)">
      <defs>
       <path id="DejaVuSans-44" d="M 1259 4147 
L 1259 519 
L 2022 519 
Q 2988 519 3436 956 
Q 3884 1394 3884 2338 
Q 3884 3275 3436 3711 
Q 2988 4147 2022 4147 
L 1259 4147 
z
M 628 4666 
L 1925 4666 
Q 3281 4666 3915 4102 
Q 4550 3538 4550 2338 
Q 4550 1131 3912 565 
Q 3275 0 1925 0 
L 628 0 
L 628 4666 
z
" transform="scale(0.015625)"/>
       <path id="DejaVuSans-74" d="M 1172 4494 
L 1172 3500 
L 2356 3500 
L 2356 3053 
L 1172 3053 
L 1172 1153 
Q 1172 725 1289 603 
Q 1406 481 1766 481 
L 2356 481 
L 2356 0 
L 1766 0 
Q 1100 0 847 248 
Q 594 497 594 1153 
L 594 3053 
L 172 3053 
L 172 3500 
L 594 3500 
L 594 4494 
L 1172 4494 
z
" transform="scale(0.015625)"/>
       <path id="DejaVuSans-3c8" d="M 1816 -78 
Q 1094 38 759 341 
Q 350 713 350 1472 
L 350 3500 
L 931 3500 
L 931 1494 
Q 931 922 1197 684 
Q 1428 478 1816 434 
L 1816 3500 
L 2388 3500 
L 2388 438 
Q 2797 481 3006 688 
Q 3272 950 3272 1497 
L 3272 3500 
L 3853 3500 
L 3853 1475 
Q 3853 688 3444 344 
Q 3075 34 2388 -75 
L 2388 -1331 
L 1816 -1331 
L 1816 -78 
z
" transform="scale(0.015625)"/>
       <path id="DejaVuSans-2082" d="M 838 356 
L 2163 356 
L 2163 0 
L 294 0 
L 294 343 
Q 400 440 597 615 
Q 1672 1568 1672 1862 
Q 1672 2068 1509 2194 
Q 1347 2321 1081 2321 
Q 919 2321 728 2266 
Q 538 2212 313 2103 
L 313 2487 
Q 553 2575 761 2618 
Q 969 2662 1147 2662 
Q 1600 2662 1872 2456 
Q 2144 2250 2144 1912 
Q 2144 1478 1109 590 
Q 934 440 838 356 
z
" transform="scale(0.015625)"/>
       <path id="DejaVuSans-6e" d="M 3513 2113 
L 3513 0 
L 2938 0 
L 2938 2094 
Q 2938 2591 2744 2837 
Q 2550 3084 2163 3084 
Q 1697 3084 1428 2787 
Q 1159 2491 1159 1978 
L 1159 0 
L 581 0 
L 581 3500 
L 1159 3500 
L 1159 2956 
Q 1366 3272 1645 3428 
Q 1925 3584 2291 3584 
Q 2894 3584 3203 3211 
Q 3513 2838 3513 2113 
z
" transform="scale(0.015625)"/>
       <path id="DejaVuSans-52" d="M 2841 2188 
Q 3044 2119 3236 1894 
Q 3428 1669 3622 1275 
L 4263 0 
L 3584 0 
L 2988 1197 
Q 2756 1666 2539 1819 
Q 2322 1972 1947 1972 
L 1259 1972 
L 1259 0 
L 628 0 
L 628 4666 
L 2053 4666 
Q 2853 4666 3247 4331 
Q 3641 3997 3641 3322 
Q 3641 2881 3436 2590 
Q 3231 2300 2841 2188 
z
M 1259 4147 
L 1259 2491 
L 2053 2491 
Q 2509 2491 2742 2702 
Q 2975 2913 2975 3322 
Q 2975 3731 2742 3939 
Q 2509 4147 2053 4147 
L 1259 4147 
z
" transform="scale(0.015625)"/>
       <path id="DejaVuSans-4d" d="M 628 4666 
L 1569 4666 
L 2759 1491 
L 3956 4666 
L 4897 4666 
L 4897 0 
L 4281 0 
L 4281 4097 
L 3078 897 
L 2444 897 
L 1241 4097 
L 1241 0 
L 628 0 
L 628 4666 
z
" transform="scale(0.015625)"/>
       <path id="DejaVuSans-53" d="M 3425 4513 
L 3425 3897 
Q 3066 4069 2747 4153 
Q 2428 4238 2131 4238 
Q 1616 4238 1336 4038 
Q 1056 3838 1056 3469 
Q 1056 3159 1242 3001 
Q 1428 2844 1947 2747 
L 2328 2669 
Q 3034 2534 3370 2195 
Q 3706 1856 3706 1288 
Q 3706 609 3251 259 
Q 2797 -91 1919 -91 
Q 1588 -91 1214 -16 
Q 841 59 441 206 
L 441 856 
Q 825 641 1194 531 
Q 1563 422 1919 422 
Q 2459 422 2753 634 
Q 3047 847 3047 1241 
Q 3047 1584 2836 1778 
Q 2625 1972 2144 2069 
L 1759 2144 
Q 1053 2284 737 2584 
Q 422 2884 422 3419 
Q 422 4038 858 4394 
Q 1294 4750 2059 4750 
Q 2388 4750 2728 4690 
Q 3069 4631 3425 4513 
z
" transform="scale(0.015625)"/>
       <path id="DejaVuSans-45" d="M 628 4666 
L 3578 4666 
L 3578 4134 
L 1259 4134 
L 1259 2753 
L 3481 2753 
L 3481 2222 
L 1259 2222 
L 1259 531 
L 3634 531 
L 3634 0 
L 628 0 
L 628 4666 
z
" transform="scale(0.015625)"/>
      </defs>
      <use xlink:href="#DejaVuSans-44"/>
      <use xlink:href="#DejaVuSans-74" transform="translate(77.001953 0)"/>
      <use xlink:href="#DejaVuSans-20" transform="translate(116.210938 0)"/>
      <use xlink:href="#DejaVuSans-3c8" transform="translate(147.998047 0)"/>
      <use xlink:href="#DejaVuSans-2082" transform="translate(213.964844 0)"/>
      <use xlink:href="#DejaVuSans-20" transform="translate(254.052734 0)"/>
      <use xlink:href="#DejaVuSans-6e" transform="translate(285.839844 0)"/>
      <use xlink:href="#DejaVuSans-52" transform="translate(349.21875 0)"/>
      <use xlink:href="#DejaVuSans-4d" transform="translate(418.701172 0)"/>
      <use xlink:href="#DejaVuSans-53" transform="translate(504.980469 0)"/>
      <use xlink:href="#DejaVuSans-45" transform="translate(568.457031 0)"/>
     </g>
    </g>
   </g>
   <g id="FillBetweenPolyCollection_1">
    <defs>
     <path id="mc644d761cc" d="M 85.172727 -179.483415 
L 85.172727 -149.5707 
L 87.56085 -143.928246 
L 89.948974 -138.332643 
L 92.337097 -132.821354 
L 94.72522 -127.441541 
L 97.113343 -122.253597 
L 99.501466 -117.333622 
L 101.889589 -112.774953 
L 104.277713 -108.6862 
L 106.665836 -105.184039 
L 109.053959 -102.375963 
L 111.442082 -100.332883 
L 113.830205 -99.055695 
L 116.218328 -98.455833 
L 118.606452 -98.36341 
L 120.994575 -98.570075 
L 123.382698 -98.888913 
L 125.770821 -99.198004 
L 128.158944 -99.442033 
L 130.547067 -99.603645 
L 132.935191 -99.676324 
L 135.323314 -99.651643 
L 137.711437 -99.517467 
L 140.09956 -99.261394 
L 142.487683 -98.872707 
L 144.875806 -98.34542 
L 147.26393 -97.678356 
L 149.652053 -96.876653 
L 152.040176 -95.951854 
L 154.428299 -94.922002 
L 156.816422 -93.812567 
L 159.204545 -92.654845 
L 161.592669 -91.487427 
L 163.980792 -90.356825 
L 166.368915 -89.316193 
L 168.757038 -88.425084 
L 171.145161 -87.745855 
L 173.533284 -87.340568 
L 175.921408 -87.261428 
L 178.309531 -87.542356 
L 180.697654 -88.192451 
L 183.085777 -89.193411 
L 185.4739 -90.503456 
L 187.862023 -92.068179 
L 190.250147 -93.832688 
L 192.63827 -95.748049 
L 195.026393 -97.772497 
L 197.414516 -99.870064 
L 199.802639 -102.006731 
L 202.190762 -104.148307 
L 204.578886 -106.260459 
L 206.967009 -108.309964 
L 209.355132 -110.263128 
L 211.743255 -112.087841 
L 214.131378 -113.754149 
L 216.519501 -115.233861 
L 218.907625 -116.50156 
L 221.295748 -117.534622 
L 223.683871 -118.313194 
L 226.071994 -118.82072 
L 228.460117 -119.044647 
L 230.84824 -118.975906 
L 233.236364 -118.609848 
L 235.624487 -117.946164 
L 238.01261 -116.988552 
L 240.400733 -115.744599 
L 242.788856 -114.226738 
L 245.176979 -112.452145 
L 247.565103 -110.442385 
L 249.953226 -108.22336 
L 252.341349 -105.825346 
L 254.729472 -103.282251 
L 257.117595 -100.633628 
L 259.505718 -97.924402 
L 261.893842 -95.205541 
L 264.281965 -92.536542 
L 266.670088 -89.98499 
L 269.058211 -87.628057 
L 271.446334 -85.553018 
L 273.834457 -83.854132 
L 276.222581 -82.626698 
L 278.610704 -81.954981 
L 280.998827 -81.8911 
L 283.38695 -82.434823 
L 285.775073 -83.527457 
L 288.163196 -85.067927 
L 290.55132 -86.94055 
L 292.939443 -89.037569 
L 295.327566 -91.268855 
L 297.715689 -93.563108 
L 300.103812 -95.864769 
L 302.491935 -98.130428 
L 304.880059 -100.325296 
L 307.268182 -102.420702 
L 309.656305 -104.392373 
L 312.044428 -106.219619 
L 314.432551 -107.885005 
L 316.820674 -109.373209 
L 319.208798 -110.670276 
L 321.596921 -111.764881 
L 323.985044 -112.64783 
L 326.373167 -113.312247 
L 328.76129 -113.753452 
L 331.149413 -113.970357 
L 333.537537 -113.964439 
L 335.92566 -113.73936 
L 338.313783 -113.300642 
L 340.701906 -112.656158 
L 343.090029 -111.81618 
L 345.478152 -110.792495 
L 347.866276 -109.598609 
L 350.254399 -108.250286 
L 352.642522 -106.764342 
L 355.030645 -105.158786 
L 357.418768 -103.45308 
L 359.806891 -101.668572 
L 362.195015 -99.829233 
L 364.583138 -97.962231 
L 366.971261 -96.099159 
L 369.359384 -94.276769 
L 371.747507 -92.537882 
L 374.13563 -90.932456 
L 376.523754 -89.518031 
L 378.911877 -88.358368 
L 381.3 -87.520023 
L 383.688123 -87.065943 
L 386.076246 -87.049511 
L 388.46437 -87.505628 
L 390.852493 -88.44284 
L 393.240616 -89.834223 
L 395.628739 -91.604578 
L 398.016862 -93.609624 
L 400.404985 -95.618724 
L 402.793109 -97.435171 
L 405.181232 -99.116779 
L 407.569355 -100.808678 
L 409.957478 -102.562654 
L 412.345601 -104.364717 
L 414.733724 -106.176738 
L 417.121848 -107.954624 
L 419.509971 -109.655255 
L 421.898094 -111.239031 
L 424.286217 -112.671891 
L 426.67434 -113.924765 
L 429.062463 -114.973564 
L 431.450587 -115.799156 
L 433.83871 -116.387335 
L 436.226833 -116.728526 
L 438.614956 -116.818918 
L 441.003079 -116.659304 
L 443.391202 -116.256653 
L 445.779326 -115.623481 
L 448.167449 -114.779629 
L 450.555572 -113.750434 
L 452.943695 -112.567435 
L 455.331818 -111.268194 
L 457.719941 -109.896288 
L 460.108065 -107.668026 
L 462.496188 -104.726928 
L 464.884311 -101.850862 
L 467.272434 -99.135488 
L 469.660557 -96.689778 
L 472.04868 -94.632456 
L 474.436804 -93.083013 
L 476.824927 -92.140313 
L 479.21305 -91.862773 
L 481.601173 -92.244252 
L 483.989296 -93.214743 
L 486.377419 -94.661933 
L 488.765543 -96.461331 
L 491.153666 -98.499323 
L 493.541789 -100.687238 
L 495.929912 -102.954977 
L 498.318035 -105.248084 
L 500.706158 -107.522594 
L 503.094282 -109.742003 
L 505.482405 -111.87464 
L 507.870528 -113.89318 
L 510.258651 -115.773951 
L 512.646774 -117.496571 
L 515.034897 -119.04372 
L 517.423021 -120.400954 
L 519.811144 -121.557314 
L 522.199267 -122.504755 
L 524.58739 -123.239022 
L 526.975513 -123.759734 
L 529.363636 -124.070071 
L 531.75176 -124.176615 
L 534.139883 -124.089796 
L 536.528006 -123.823418 
L 538.916129 -123.394936 
L 541.304252 -122.82519 
L 543.692375 -122.1386 
L 546.080499 -121.362435 
L 548.468622 -120.527288 
L 550.856745 -119.66657 
L 553.244868 -118.816158 
L 555.632991 -118.013908 
L 558.021114 -117.298931 
L 560.409238 -116.710721 
L 562.797361 -116.287602 
L 565.185484 -116.064669 
L 567.573607 -116.072505 
L 569.96173 -116.334639 
L 572.349853 -116.866623 
L 574.737977 -117.674322 
L 577.1261 -118.754369 
L 579.514223 -120.093172 
L 581.902346 -121.662761 
L 584.290469 -123.398653 
L 586.678592 -124.977057 
L 589.066716 -125.853521 
L 591.454839 -126.669605 
L 593.842962 -127.661667 
L 596.231085 -128.83258 
L 598.619208 -130.158297 
L 601.007331 -131.611956 
L 603.395455 -133.16982 
L 605.783578 -134.810923 
L 608.171701 -136.517952 
L 610.559824 -138.277888 
L 612.947947 -140.079704 
L 615.33607 -141.91398 
L 617.724194 -143.772612 
L 620.112317 -145.646128 
L 622.50044 -147.523756 
L 624.888563 -149.392263 
L 627.276686 -151.23648 
L 629.664809 -153.039901 
L 632.052933 -154.788929 
L 634.441056 -156.476936 
L 636.829179 -158.107886 
L 639.217302 -159.697806 
L 641.605425 -161.273794 
L 643.993548 -162.871202 
L 646.381672 -164.530942 
L 648.769795 -166.29368 
L 651.157918 -168.196109 
L 653.546041 -170.270122 
L 655.934164 -172.541133 
L 658.322287 -175.026171 
L 660.710411 -177.735288 
L 663.098534 -180.672418 
L 665.486657 -183.833834 
L 667.87478 -187.209692 
L 670.262903 -190.784718 
L 672.651026 -194.538955 
L 675.03915 -198.449349 
L 677.427273 -202.492389 
L 677.427273 -236.54276 
L 677.427273 -236.54276 
L 675.03915 -232.637516 
L 672.651026 -228.67308 
L 670.262903 -224.663911 
L 667.87478 -220.625971 
L 665.486657 -216.576149 
L 663.098534 -212.532685 
L 660.710411 -208.514958 
L 658.322287 -204.543378 
L 655.934164 -200.639553 
L 653.546041 -196.824749 
L 651.157918 -193.120497 
L 648.769795 -189.548201 
L 646.381672 -186.128378 
L 643.993548 -182.878988 
L 641.605425 -179.815067 
L 639.217302 -176.946624 
L 636.829179 -174.275906 
L 634.441056 -171.794913 
L 632.052933 -169.482502 
L 629.664809 -167.306501 
L 627.276686 -165.226787 
L 624.888563 -163.199487 
L 622.50044 -161.181394 
L 620.112317 -159.136402 
L 617.724194 -157.037458 
L 615.33607 -154.866694 
L 612.947947 -152.61488 
L 610.559824 -150.281152 
L 608.171701 -147.870248 
L 605.783578 -145.392263 
L 603.395455 -142.863594 
L 601.007331 -140.303283 
L 598.619208 -137.73289 
L 596.231085 -135.181331 
L 593.842962 -132.682103 
L 591.454839 -130.274381 
L 589.066716 -128.027518 
L 586.678592 -126.245447 
L 584.290469 -125.634488 
L 581.902346 -125.707855 
L 579.514223 -126.189696 
L 577.1261 -127.048459 
L 574.737977 -128.272023 
L 572.349853 -129.841547 
L 569.96173 -131.72844 
L 567.573607 -133.891776 
L 565.185484 -136.283305 
L 562.797361 -138.847756 
L 560.409238 -141.525394 
L 558.021114 -144.254122 
L 555.632991 -146.972135 
L 553.244868 -149.617992 
L 550.856745 -152.13223 
L 548.468622 -154.460107 
L 546.080499 -156.550364 
L 543.692375 -158.35725 
L 541.304252 -159.841795 
L 538.916129 -160.970257 
L 536.528006 -161.717174 
L 534.139883 -162.06316 
L 531.75176 -161.996959 
L 529.363636 -161.514012 
L 526.975513 -160.616079 
L 524.58739 -159.3112 
L 522.199267 -157.614367 
L 519.811144 -155.546212 
L 517.423021 -153.131824 
L 515.034897 -150.401082 
L 512.646774 -147.388181 
L 510.258651 -144.130855 
L 507.870528 -140.670874 
L 505.482405 -137.05358 
L 503.094282 -133.329045 
L 500.706158 -129.55246 
L 498.318035 -125.783796 
L 495.929912 -122.08978 
L 493.541789 -118.54288 
L 491.153666 -115.220497 
L 488.765543 -112.201019 
L 486.377419 -109.557238 
L 483.989296 -107.346766 
L 481.601173 -105.607452 
L 479.21305 -104.35563 
L 476.824927 -103.590364 
L 474.436804 -103.294222 
L 472.04868 -103.432608 
L 469.660557 -103.954976 
L 467.272434 -104.796485 
L 464.884311 -105.884365 
L 462.496188 -107.143391 
L 460.108065 -108.502131 
L 457.719941 -110.591212 
L 455.331818 -113.424649 
L 452.943695 -116.10734 
L 450.555572 -118.586056 
L 448.167449 -120.815367 
L 445.779326 -122.756947 
L 443.391202 -124.378448 
L 441.003079 -125.653293 
L 438.614956 -126.560858 
L 436.226833 -127.086822 
L 433.83871 -127.222904 
L 431.450587 -126.967231 
L 429.062463 -126.323964 
L 426.67434 -125.303103 
L 424.286217 -123.920956 
L 421.898094 -122.200584 
L 419.509971 -120.170586 
L 417.121848 -117.866299 
L 414.733724 -115.330831 
L 412.345601 -112.615452 
L 409.957478 -109.78238 
L 407.569355 -106.912529 
L 405.181232 -104.123414 
L 402.793109 -101.609123 
L 400.404985 -99.664384 
L 398.016862 -98.497753 
L 395.628739 -98.054 
L 393.240616 -98.219415 
L 390.852493 -98.925193 
L 388.46437 -100.119086 
L 386.076246 -101.739982 
L 383.688123 -103.711365 
L 381.3 -105.948546 
L 378.911877 -108.368233 
L 376.523754 -110.894994 
L 374.13563 -113.464683 
L 371.747507 -116.023779 
L 369.359384 -118.528553 
L 366.971261 -120.943638 
L 364.583138 -123.240984 
L 362.195015 -125.398355 
L 359.806891 -127.396945 
L 357.418768 -129.222296 
L 355.030645 -130.863138 
L 352.642522 -132.310947 
L 350.254399 -133.558794 
L 347.866276 -134.601008 
L 345.478152 -135.433612 
L 343.090029 -136.054306 
L 340.701906 -136.462011 
L 338.313783 -136.656878 
L 335.92566 -136.639962 
L 333.537537 -136.4134 
L 331.149413 -135.980226 
L 328.76129 -135.344543 
L 326.373167 -134.511244 
L 323.985044 -133.48567 
L 321.596921 -132.273408 
L 319.208798 -130.881359 
L 316.820674 -129.31719 
L 314.432551 -127.590231 
L 312.044428 -125.711371 
L 309.656305 -123.693778 
L 307.268182 -121.55376 
L 304.880059 -119.311079 
L 302.491935 -116.990035 
L 300.103812 -114.620673 
L 297.715689 -112.240096 
L 295.327566 -109.893871 
L 292.939443 -107.637083 
L 290.55132 -105.535291 
L 288.163196 -103.664518 
L 285.775073 -102.109611 
L 283.38695 -100.960211 
L 280.998827 -100.303823 
L 278.610704 -100.213642 
L 276.222581 -100.732135 
L 273.834457 -101.857652 
L 271.446334 -103.543095 
L 269.058211 -105.707602 
L 266.670088 -108.253728 
L 264.281965 -111.081322 
L 261.893842 -114.095546 
L 259.505718 -117.210302 
L 257.117595 -120.348545 
L 254.729472 -123.442143 
L 252.341349 -126.430627 
L 249.953226 -129.260704 
L 247.565103 -131.885529 
L 245.176979 -134.264153 
L 242.788856 -136.361327 
L 240.400733 -138.147063 
L 238.01261 -139.596792 
L 235.624487 -140.691495 
L 233.236364 -141.417929 
L 230.84824 -141.768031 
L 228.460117 -141.739068 
L 226.071994 -141.333586 
L 223.683871 -140.55926 
L 221.295748 -139.429439 
L 218.907625 -137.962662 
L 216.519501 -136.182846 
L 214.131378 -134.119388 
L 211.743255 -131.806439 
L 209.355132 -129.283759 
L 206.967009 -126.597553 
L 204.578886 -123.800992 
L 202.190762 -120.954562 
L 199.802639 -118.126941 
L 197.414516 -115.395591 
L 195.026393 -112.846107 
L 192.63827 -110.570633 
L 190.250147 -108.661684 
L 187.862023 -107.203622 
L 185.4739 -106.259241 
L 183.085777 -105.860168 
L 180.697654 -106.001776 
L 178.309531 -106.647096 
L 175.921408 -107.731712 
L 173.533284 -109.173272 
L 171.145161 -110.881051 
L 168.757038 -112.764909 
L 166.368915 -114.739858 
L 163.980792 -116.723289 
L 161.592669 -118.64273 
L 159.204545 -120.433524 
L 156.816422 -122.040184 
L 154.428299 -123.413293 
L 152.040176 -124.509999 
L 149.652053 -125.3008 
L 147.26393 -125.762569 
L 144.875806 -125.881604 
L 142.487683 -125.655081 
L 140.09956 -125.092524 
L 137.711437 -124.22015 
L 135.323314 -123.080406 
L 132.935191 -121.742034 
L 130.547067 -120.30142 
L 128.158944 -118.889704 
L 125.770821 -117.6713 
L 123.382698 -116.830695 
L 120.994575 -116.541766 
L 118.606452 -116.926495 
L 116.218328 -118.034444 
L 113.830205 -119.856361 
L 111.442082 -122.351908 
L 109.053959 -125.471405 
L 106.665836 -129.165013 
L 104.277713 -133.38365 
L 101.889589 -138.07733 
L 99.501466 -143.193372 
L 97.113343 -148.67536 
L 94.72522 -154.463591 
L 92.337097 -160.497583 
L 89.948974 -166.716895 
L 87.56085 -173.063582 
L 85.172727 -179.483415 
z
" style="stroke: #000080; stroke-opacity: 0.1"/>
    </defs>
    <g clip-path="url(#p271afb85ca)">
     <use xlink:href="#mc644d761cc" x="0" y="360" style="fill: #000080; fill-opacity: 0.1; stroke: #000080; stroke-opacity: 0.1"/>
    </g>
   </g>
   <g id="FillBetweenPolyCollection_2">
    <defs>
     <path id="m3d2dedf026" d="M 85.172727 -205.467534 
L 85.172727 -201.154617 
L 87.56085 -198.149391 
L 89.948974 -194.972327 
L 92.337097 -191.812073 
L 94.72522 -188.833943 
L 97.113343 -186.131892 
L 99.501466 -183.752919 
L 101.889589 -181.715302 
L 104.277713 -180.015378 
L 106.665836 -178.631565 
L 109.053959 -177.527057 
L 111.442082 -176.652728 
L 113.830205 -175.950624 
L 116.218328 -175.35797 
L 118.606452 -174.810744 
L 120.994575 -174.247059 
L 123.382698 -173.609968 
L 125.770821 -172.849061 
L 128.158944 -171.92181 
L 130.547067 -170.793908 
L 132.935191 -169.438957 
L 135.323314 -167.83857 
L 137.711437 -165.98237 
L 140.09956 -163.867841 
L 142.487683 -161.500437 
L 144.875806 -158.894016 
L 147.26393 -156.07114 
L 149.652053 -153.064097 
L 152.040176 -149.915986 
L 154.428299 -146.682118 
L 156.816422 -143.432222 
L 159.204545 -140.251083 
L 161.592669 -137.241097 
L 163.980792 -134.522967 
L 166.368915 -132.233233 
L 168.757038 -130.518509 
L 171.145161 -129.523425 
L 173.533284 -129.376164 
L 175.921408 -130.169465 
L 178.309531 -131.946684 
L 180.697654 -134.697078 
L 183.085777 -138.361174 
L 185.4739 -142.842879 
L 187.862023 -148.024628 
L 190.250147 -153.781751 
L 192.63827 -159.990881 
L 195.026393 -166.534792 
L 197.414516 -173.305146 
L 199.802639 -180.201694 
L 202.190762 -187.132432 
L 204.578886 -194.012613 
L 206.967009 -200.764866 
L 209.355132 -207.315642 
L 211.743255 -213.596338 
L 214.131378 -219.542403 
L 216.519501 -225.091594 
L 218.907625 -230.184274 
L 221.295748 -234.76235 
L 223.683871 -238.766503 
L 226.071994 -242.13555 
L 228.460117 -244.809009 
L 230.84824 -246.736868 
L 233.236364 -247.901683 
L 235.624487 -248.335048 
L 238.01261 -248.111292 
L 240.400733 -247.325205 
L 242.788856 -246.076307 
L 245.176979 -244.462036 
L 247.565103 -242.577116 
L 249.953226 -240.514393 
L 252.341349 -238.365945 
L 254.729472 -236.221326 
L 257.117595 -234.170001 
L 259.505718 -232.297069 
L 261.893842 -230.680297 
L 264.281965 -229.391687 
L 266.670088 -228.49037 
L 269.058211 -228.024208 
L 271.446334 -228.030509 
L 273.834457 -228.534238 
L 276.222581 -229.54876 
L 278.610704 -231.080618 
L 280.998827 -233.119819 
L 283.38695 -235.642128 
L 285.775073 -238.610155 
L 288.163196 -241.972309 
L 290.55132 -245.665159 
L 292.939443 -249.616756 
L 295.327566 -253.747477 
L 297.715689 -257.974254 
L 300.103812 -262.208524 
L 302.491935 -266.362493 
L 304.880059 -270.350224 
L 307.268182 -274.088094 
L 309.656305 -277.498292 
L 312.044428 -280.508292 
L 314.432551 -283.053622 
L 316.820674 -285.075695 
L 319.208798 -286.52104 
L 321.596921 -287.344432 
L 323.985044 -287.508395 
L 326.373167 -286.983133 
L 328.76129 -285.746224 
L 331.149413 -283.785919 
L 333.537537 -281.098889 
L 335.92566 -277.688613 
L 338.313783 -273.565697 
L 340.701906 -268.748725 
L 343.090029 -263.265155 
L 345.478152 -257.149637 
L 347.866276 -250.446749 
L 350.254399 -243.211934 
L 352.642522 -235.510746 
L 355.030645 -227.421204 
L 357.418768 -219.036006 
L 359.806891 -210.465956 
L 362.195015 -201.844779 
L 364.583138 -193.335665 
L 366.971261 -185.137027 
L 369.359384 -177.489649 
L 371.747507 -170.678558 
L 374.13563 -165.026333 
L 376.523754 -160.870391 
L 378.911877 -158.518644 
L 381.3 -158.188784 
L 383.688123 -159.956146 
L 386.076246 -163.737156 
L 388.46437 -169.318303 
L 390.852493 -176.411012 
L 393.240616 -184.705929 
L 395.628739 -193.908557 
L 398.016862 -203.755574 
L 400.404985 -214.019548 
L 402.793109 -224.506748 
L 405.181232 -235.052287 
L 407.569355 -245.514144 
L 409.957478 -255.770593 
L 412.345601 -265.716474 
L 414.733724 -275.25906 
L 417.121848 -284.316071 
L 419.509971 -292.814549 
L 421.898094 -300.689056 
L 424.286217 -307.883733 
L 426.67434 -314.350804 
L 429.062463 -320.049348 
L 431.450587 -324.948275 
L 433.83871 -329.025039 
L 436.226833 -332.263791 
L 438.614956 -334.658644 
L 441.003079 -336.211247 
L 443.391202 -336.932908 
L 445.779326 -336.843556 
L 448.167449 -335.973452 
L 450.555572 -334.362003 
L 452.943695 -332.056912 
L 455.331818 -329.112062 
L 457.719941 -325.590239 
L 460.108065 -321.559788 
L 462.496188 -317.093328 
L 464.884311 -312.269812 
L 467.272434 -307.172664 
L 469.660557 -301.889248 
L 472.04868 -296.511099 
L 474.436804 -291.131542 
L 476.824927 -285.845957 
L 479.21305 -280.745536 
L 481.601173 -275.916678 
L 483.989296 -271.434154 
L 486.377419 -267.348524 
L 488.765543 -263.659708 
L 491.153666 -260.252841 
L 493.541789 -256.862583 
L 495.929912 -253.382373 
L 498.318035 -250.044224 
L 500.706158 -247.039676 
L 503.094282 -244.426782 
L 505.482405 -242.194779 
L 507.870528 -240.301361 
L 510.258651 -238.689584 
L 512.646774 -237.295636 
L 515.034897 -236.053644 
L 517.423021 -234.899481 
L 519.811144 -233.773719 
L 522.199267 -232.623049 
L 524.58739 -231.400889 
L 526.975513 -230.068388 
L 529.363636 -228.595663 
L 531.75176 -226.961821 
L 534.139883 -225.154758 
L 536.528006 -223.170956 
L 538.916129 -221.015336 
L 541.304252 -218.701409 
L 543.692375 -216.250471 
L 546.080499 -213.691513 
L 548.468622 -211.060383 
L 550.856745 -208.399197 
L 553.244868 -205.755524 
L 555.632991 -203.181505 
L 558.021114 -200.732793 
L 560.409238 -198.467367 
L 562.797361 -196.443869 
L 565.185484 -194.719548 
L 567.573607 -193.347681 
L 569.96173 -192.375217 
L 572.349853 -191.839961 
L 574.737977 -191.767953 
L 577.1261 -192.171679 
L 579.514223 -193.048252 
L 581.902346 -194.378509 
L 584.290469 -196.128813 
L 586.678592 -198.251587 
L 589.066716 -200.689199 
L 591.454839 -203.376783 
L 593.842962 -206.246561 
L 596.231085 -209.231649 
L 598.619208 -212.269004 
L 601.007331 -215.301255 
L 603.395455 -218.279096 
L 605.783578 -221.162966 
L 608.171701 -223.92104 
L 610.559824 -226.528693 
L 612.947947 -228.96858 
L 615.33607 -231.229389 
L 617.724194 -233.304943 
L 620.112317 -235.193866 
L 622.50044 -236.899258 
L 624.888563 -238.428173 
L 627.276686 -239.791367 
L 629.664809 -241.002725 
L 632.052933 -242.078241 
L 634.441056 -243.036074 
L 636.829179 -243.896007 
L 639.217302 -244.679125 
L 641.605425 -245.406862 
L 643.993548 -246.101027 
L 646.381672 -246.783337 
L 648.769795 -247.474254 
L 651.157918 -248.192718 
L 653.546041 -248.955869 
L 655.934164 -249.778815 
L 658.322287 -250.674078 
L 660.710411 -251.652003 
L 663.098534 -252.720564 
L 665.486657 -253.884862 
L 667.87478 -255.147558 
L 670.262903 -256.50886 
L 672.651026 -257.966673 
L 675.03915 -259.516628 
L 677.427273 -261.153255 
L 677.427273 -299.438316 
L 677.427273 -299.438316 
L 675.03915 -299.686099 
L 672.651026 -300.02105 
L 670.262903 -300.433495 
L 667.87478 -300.90911 
L 665.486657 -301.42977 
L 663.098534 -301.974275 
L 660.710411 -302.518678 
L 658.322287 -303.035907 
L 655.934164 -303.497855 
L 653.546041 -303.873804 
L 651.157918 -304.131524 
L 648.769795 -304.239079 
L 646.381672 -304.164845 
L 643.993548 -303.878378 
L 641.605425 -303.352606 
L 639.217302 -302.563917 
L 636.829179 -301.492177 
L 634.441056 -300.121556 
L 632.052933 -298.441677 
L 629.664809 -296.448012 
L 627.276686 -294.142772 
L 624.888563 -291.534793 
L 622.50044 -288.639779 
L 620.112317 -285.480948 
L 617.724194 -282.088581 
L 615.33607 -278.500204 
L 612.947947 -274.760225 
L 610.559824 -270.920097 
L 608.171701 -267.036717 
L 605.783578 -263.171769 
L 603.395455 -259.390687 
L 601.007331 -255.760399 
L 598.619208 -252.347158 
L 596.231085 -249.214782 
L 593.842962 -246.423074 
L 591.454839 -244.026651 
L 589.066716 -242.073356 
L 586.678592 -240.603094 
L 584.290469 -239.646383 
L 581.902346 -239.22349 
L 579.514223 -239.342828 
L 577.1261 -240.000279 
L 574.737977 -241.177966 
L 572.349853 -242.843965 
L 569.96173 -244.952557 
L 567.573607 -247.445292 
L 565.185484 -250.252977 
L 562.797361 -253.297781 
L 560.409238 -256.496088 
L 558.021114 -259.760615 
L 555.632991 -263.003663 
L 553.244868 -266.139108 
L 550.856745 -269.0852 
L 548.468622 -271.767528 
L 546.080499 -274.11983 
L 543.692375 -276.085522 
L 541.304252 -277.620114 
L 538.916129 -278.691813 
L 536.528006 -279.281303 
L 534.139883 -279.383367 
L 531.75176 -279.00672 
L 529.363636 -278.17473 
L 526.975513 -276.925344 
L 524.58739 -275.311023 
L 522.199267 -273.396839 
L 519.811144 -271.259877 
L 517.423021 -268.989089 
L 515.034897 -266.682197 
L 512.646774 -264.443543 
L 510.258651 -262.3806 
L 507.870528 -260.601292 
L 505.482405 -259.211594 
L 503.094282 -258.312731 
L 500.706158 -258.002216 
L 498.318035 -258.383446 
L 495.929912 -259.596819 
L 493.541789 -261.880371 
L 491.153666 -265.474384 
L 488.765543 -270.241992 
L 486.377419 -275.852165 
L 483.989296 -282.09266 
L 481.601173 -288.840444 
L 479.21305 -296.000985 
L 476.824927 -303.48602 
L 474.436804 -311.206033 
L 472.04868 -319.068292 
L 469.660557 -326.975973 
L 467.272434 -334.830322 
L 464.884311 -342.530775 
L 462.496188 -349.975717 
L 460.108065 -357.066107 
L 457.719941 -363.706397 
L 455.331818 -369.801687 
L 452.943695 -375.262338 
L 450.555572 -380.003677 
L 448.167449 -383.945415 
L 445.779326 -387.01465 
L 443.391202 -389.145283 
L 441.003079 -390.279493 
L 438.614956 -390.370906 
L 436.226833 -389.384367 
L 433.83871 -387.297156 
L 431.450587 -384.096673 
L 429.062463 -379.783993 
L 426.67434 -374.373022 
L 424.286217 -367.890003 
L 421.898094 -360.374712 
L 419.509971 -351.879884 
L 417.121848 -342.473156 
L 414.733724 -332.238707 
L 412.345601 -321.276072 
L 409.957478 -309.701641 
L 407.569355 -297.650178 
L 405.181232 -285.27749 
L 402.793109 -272.76197 
L 400.404985 -260.309719 
L 398.016862 -248.160003 
L 395.628739 -236.590379 
L 393.240616 -225.918817 
L 390.852493 -216.50106 
L 388.46437 -208.712941 
L 386.076246 -202.916822 
L 383.688123 -199.408044 
L 381.3 -198.354531 
L 378.911877 -199.754484 
L 376.523754 -203.434793 
L 374.13563 -209.090603 
L 371.747507 -216.345773 
L 369.359384 -224.809103 
L 366.971261 -234.112451 
L 364.583138 -243.930061 
L 362.195015 -253.983563 
L 359.806891 -264.0392 
L 357.418768 -273.902937 
L 355.030645 -283.414068 
L 352.642522 -292.439923 
L 350.254399 -300.871941 
L 347.866276 -308.622366 
L 345.478152 -315.621148 
L 343.090029 -321.814123 
L 340.701906 -327.161547 
L 338.313783 -331.635953 
L 335.92566 -335.221888 
L 333.537537 -337.915911 
L 331.149413 -339.724716 
L 328.76129 -340.664496 
L 326.373167 -340.76116 
L 323.985044 -340.048774 
L 321.596921 -338.568765 
L 319.208798 -336.368666 
L 316.820674 -333.503905 
L 314.432551 -330.034169 
L 312.044428 -326.023904 
L 309.656305 -321.5427 
L 307.268182 -316.662752 
L 304.880059 -311.460002 
L 302.491935 -306.013046 
L 300.103812 -300.402929 
L 297.715689 -294.713192 
L 295.327566 -289.029145 
L 292.939443 -283.437981 
L 290.55132 -278.028121 
L 288.163196 -272.887392 
L 285.775073 -268.101787 
L 283.38695 -263.752968 
L 280.998827 -259.914614 
L 278.610704 -256.648428 
L 276.222581 -253.999154 
L 273.834457 -251.990506 
L 271.446334 -250.622309 
L 269.058211 -249.867315 
L 266.670088 -249.673474 
L 264.281965 -249.967741 
L 261.893842 -250.660804 
L 259.505718 -251.653118 
L 257.117595 -252.841597 
L 254.729472 -254.123483 
L 252.341349 -255.400624 
L 249.953226 -256.582983 
L 247.565103 -257.590561 
L 245.176979 -258.355928 
L 242.788856 -258.826852 
L 240.400733 -258.969172 
L 238.01261 -258.76942 
L 235.624487 -258.235593 
L 233.236364 -257.390832 
L 230.84824 -256.255715 
L 228.460117 -254.826265 
L 226.071994 -253.067852 
L 223.683871 -250.931417 
L 221.295748 -248.374239 
L 218.907625 -245.369757 
L 216.519501 -241.908566 
L 214.131378 -237.996815 
L 211.743255 -233.652415 
L 209.355132 -228.904527 
L 206.967009 -223.793013 
L 204.578886 -218.367354 
L 202.190762 -212.684908 
L 199.802639 -206.810638 
L 197.414516 -200.817257 
L 195.026393 -194.784841 
L 192.63827 -188.800448 
L 190.250147 -182.959443 
L 187.862023 -177.364871 
L 185.4739 -172.124973 
L 183.085777 -167.351218 
L 180.697654 -163.154294 
L 178.309531 -159.638864 
L 175.921408 -156.893595 
L 173.533284 -154.980447 
L 171.145161 -153.926056 
L 168.757038 -153.717042 
L 166.368915 -154.299675 
L 163.980792 -155.581736 
L 161.592669 -157.447772 
L 159.204545 -159.768695 
L 156.816422 -162.413348 
L 154.428299 -165.25518 
L 152.040176 -168.178202 
L 149.652053 -171.084784 
L 147.26393 -173.891926 
L 144.875806 -176.532835 
L 142.487683 -178.956738 
L 140.09956 -181.128041 
L 137.711437 -183.026317 
L 135.323314 -184.642892 
L 132.935191 -185.982858 
L 130.547067 -187.061751 
L 128.158944 -187.904811 
L 125.770821 -188.544455 
L 123.382698 -189.018571 
L 120.994575 -189.369406 
L 118.606452 -189.64103 
L 116.218328 -189.876984 
L 113.830205 -190.118904 
L 111.442082 -190.40547 
L 109.053959 -190.771807 
L 106.665836 -191.249264 
L 104.277713 -191.865501 
L 101.889589 -192.6452 
L 99.501466 -193.610814 
L 97.113343 -194.784379 
L 94.72522 -196.191275 
L 92.337097 -197.868753 
L 89.948974 -199.885881 
L 87.56085 -202.37124 
L 85.172727 -205.467534 
z
" style="stroke: #000080; stroke-opacity: 0.1"/>
    </defs>
    <g clip-path="url(#p271afb85ca)">
     <use xlink:href="#m3d2dedf026" x="0" y="360" style="fill: #000080; fill-opacity: 0.1; stroke: #000080; stroke-opacity: 0.1"/>
    </g>
   </g>
   <g id="line2d_1">
    <path d="M 85.172727 195.472942 
L 92.337097 213.340531 
L 97.113343 224.535521 
L 99.501466 229.736503 
L 101.889589 234.573858 
L 104.277713 238.965075 
L 106.665836 242.825474 
L 109.053959 246.076316 
L 111.442082 248.657604 
L 113.830205 250.543972 
L 116.218328 251.754861 
L 118.606452 252.355047 
L 120.994575 252.444079 
L 123.382698 252.140196 
L 125.770821 251.565348 
L 135.323314 248.633976 
L 137.711437 248.131191 
L 140.09956 247.823041 
L 142.487683 247.736106 
L 144.875806 247.886488 
L 147.26393 248.279537 
L 149.652053 248.911274 
L 152.040176 249.769073 
L 154.428299 250.832353 
L 156.816422 252.073624 
L 161.592669 254.934921 
L 168.757038 259.405004 
L 171.145161 260.686547 
L 173.533284 261.74308 
L 175.921408 262.50343 
L 178.309531 262.905274 
L 180.697654 262.902887 
L 183.085777 262.473211 
L 185.4739 261.618651 
L 187.862023 260.3641 
L 190.250147 258.752814 
L 192.63827 256.840659 
L 195.026393 254.690698 
L 199.802639 249.933164 
L 206.967009 242.546241 
L 211.743255 238.05286 
L 214.131378 236.063231 
L 216.519501 234.291647 
L 218.907625 232.767889 
L 221.295748 231.51797 
L 223.683871 230.563773 
L 226.071994 229.922847 
L 228.460117 229.608143 
L 230.84824 229.628031 
L 233.236364 229.986111 
L 235.624487 230.68117 
L 238.01261 231.707328 
L 240.400733 233.054169 
L 242.788856 234.705968 
L 245.176979 236.641851 
L 247.565103 238.836043 
L 249.953226 241.257968 
L 254.729472 246.637803 
L 266.670088 260.880641 
L 269.058211 263.33217 
L 271.446334 265.451943 
L 273.834457 267.144108 
L 276.222581 268.320583 
L 278.610704 268.915689 
L 280.998827 268.902539 
L 283.38695 268.302483 
L 285.775073 267.181466 
L 288.163196 265.633778 
L 290.55132 263.762079 
L 295.327566 259.418637 
L 304.880059 250.181812 
L 309.656305 245.956924 
L 312.044428 244.034505 
L 314.432551 242.262382 
L 316.820674 240.654801 
L 319.208798 239.224183 
L 321.596921 237.980855 
L 323.985044 236.93325 
L 326.373167 236.088254 
L 328.76129 235.451003 
L 331.149413 235.024709 
L 333.537537 234.81108 
L 335.92566 234.810339 
L 338.313783 235.02124 
L 340.701906 235.440915 
L 343.090029 236.064757 
L 345.478152 236.886947 
L 347.866276 237.900191 
L 350.254399 239.09546 
L 352.642522 240.462355 
L 355.030645 241.989038 
L 359.806891 245.467242 
L 364.583138 249.398393 
L 376.523754 259.793487 
L 378.911877 261.636699 
L 381.3 263.265716 
L 383.688123 264.611346 
L 386.076246 265.605253 
L 388.46437 266.187643 
L 390.852493 266.315983 
L 393.240616 265.973181 
L 395.628739 265.170711 
L 398.016862 263.946312 
L 400.404985 262.358446 
L 402.793109 260.477853 
L 407.569355 256.139396 
L 414.733724 249.246216 
L 417.121848 247.089539 
L 419.509971 245.08708 
L 421.898094 243.280193 
L 424.286217 241.703576 
L 426.67434 240.386066 
L 429.062463 239.351236 
L 431.450587 238.616806 
L 433.83871 238.194881 
L 436.226833 238.092326 
L 438.614956 238.310112 
L 441.003079 238.843702 
L 443.391202 239.682449 
L 445.779326 240.809786 
L 448.167449 242.202502 
L 450.555572 243.831755 
L 452.943695 245.662613 
L 457.719941 249.75625 
L 464.884311 256.132387 
L 467.272434 258.034013 
L 469.660557 259.677623 
L 472.04868 260.967468 
L 474.436804 261.811382 
L 476.824927 262.134662 
L 479.21305 261.890798 
L 481.601173 261.074148 
L 483.989296 259.719245 
L 486.377419 257.890415 
L 488.765543 255.668825 
L 491.153666 253.14009 
L 495.929912 247.477622 
L 505.482405 235.53589 
L 510.258651 230.047597 
L 512.646774 227.557624 
L 515.034897 225.277599 
L 517.423021 223.233611 
L 519.811144 221.448237 
L 522.199267 219.940439 
L 524.58739 218.724889 
L 526.975513 217.812093 
L 529.363636 217.207958 
L 531.75176 216.913213 
L 534.139883 216.923522 
L 536.528006 217.229704 
L 538.916129 217.817404 
L 541.304252 218.666508 
L 543.692375 219.752075 
L 546.080499 221.043601 
L 548.468622 222.506302 
L 553.244868 225.782925 
L 560.409238 230.881942 
L 562.797361 232.432321 
L 565.185484 233.826013 
L 567.573607 235.017859 
L 569.96173 235.968461 
L 572.349853 236.645915 
L 574.737977 237.026828 
L 577.1261 237.098586 
L 579.514223 236.858566 
L 581.902346 236.314692 
L 584.290469 235.483429 
L 586.678592 234.388748 
L 589.066716 233.059481 
L 591.454839 231.528007 
L 596.231085 227.993044 
L 601.007331 224.042381 
L 622.50044 205.647425 
L 634.441056 195.864075 
L 639.217302 191.677785 
L 643.993548 187.124905 
L 648.769795 182.079059 
L 653.546041 176.452565 
L 658.322287 170.215226 
L 663.098534 163.397449 
L 667.87478 156.082169 
L 675.03915 144.456567 
L 677.427273 140.482426 
L 677.427273 140.482426 
" clip-path="url(#p271afb85ca)" style="fill: none; stroke: #000080; stroke-width: 1.5; stroke-linecap: round"/>
   </g>
   <g id="line2d_2">
    <path d="M 85.172727 156.688924 
L 87.56085 159.739685 
L 89.948974 162.570896 
L 92.337097 165.159587 
L 94.72522 167.487391 
L 97.113343 169.541864 
L 99.501466 171.318134 
L 101.889589 172.819749 
L 104.277713 174.05956 
L 106.665836 175.059585 
L 109.053959 175.850568 
L 111.442082 176.470901 
L 116.218328 177.382523 
L 120.994575 178.191767 
L 123.382698 178.68573 
L 125.770821 179.303242 
L 128.158944 180.08669 
L 130.547067 181.072171 
L 132.935191 182.289093 
L 135.323314 183.759269 
L 137.711437 185.495656 
L 140.09956 187.502059 
L 142.487683 189.771413 
L 144.875806 192.286575 
L 147.26393 195.018467 
L 152.040176 200.952906 
L 156.816422 207.077215 
L 159.204545 209.990111 
L 161.592669 212.655565 
L 163.980792 214.947649 
L 166.368915 216.733546 
L 168.757038 217.882224 
L 171.145161 218.275259 
L 173.533284 217.821694 
L 175.921408 216.46847 
L 178.309531 214.207226 
L 180.697654 211.074314 
L 183.085777 207.143804 
L 185.4739 202.516074 
L 187.862023 197.305251 
L 190.250147 191.629403 
L 195.026393 179.340183 
L 204.578886 153.810017 
L 209.355132 141.889916 
L 211.743255 136.375623 
L 214.131378 131.230391 
L 216.519501 126.49992 
L 218.907625 122.222985 
L 221.295748 118.431706 
L 223.683871 115.15104 
L 226.071994 112.398299 
L 228.460117 110.182363 
L 230.84824 108.503709 
L 233.236364 107.353743 
L 235.624487 106.71468 
L 238.01261 106.559644 
L 240.400733 106.852812 
L 242.788856 107.548421 
L 245.176979 108.591018 
L 247.565103 109.916161 
L 252.341349 113.116716 
L 257.117595 116.494201 
L 259.505718 118.024907 
L 261.893842 119.32945 
L 264.281965 120.320286 
L 266.670088 120.918078 
L 269.058211 121.054238 
L 271.446334 120.673591 
L 273.834457 119.737628 
L 276.222581 118.226043 
L 278.610704 116.135477 
L 280.998827 113.482783 
L 283.38695 110.302452 
L 285.775073 106.644029 
L 288.163196 102.57015 
L 290.55132 98.15336 
L 295.327566 88.611689 
L 302.491935 73.812231 
L 304.880059 69.094887 
L 307.268182 64.624577 
L 309.656305 60.479504 
L 312.044428 56.733902 
L 314.432551 53.456104 
L 316.820674 50.7102 
L 319.208798 48.555147 
L 321.596921 47.043402 
L 323.985044 46.221416 
L 326.373167 46.127853 
L 328.76129 46.79464 
L 331.149413 48.244682 
L 333.537537 50.4926 
L 335.92566 53.54475 
L 338.313783 57.399175 
L 340.701906 62.044864 
L 343.090029 67.460361 
L 345.478152 73.614608 
L 347.866276 80.465443 
L 350.254399 87.958063 
L 352.642522 96.024666 
L 357.418768 113.530529 
L 366.971261 150.375261 
L 369.359384 158.850624 
L 371.747507 166.487834 
L 374.13563 172.941532 
L 376.523754 177.847408 
L 378.911877 180.863436 
L 381.3 181.728343 
L 383.688123 180.317905 
L 386.076246 176.673011 
L 388.46437 170.984378 
L 390.852493 163.543964 
L 393.240616 154.687627 
L 395.628739 144.750532 
L 400.404985 122.835366 
L 409.957478 77.263883 
L 414.733724 56.251117 
L 417.121848 46.605386 
L 419.509971 37.652784 
L 421.898094 29.468116 
L 424.286217 22.113132 
L 426.67434 15.638087 
L 429.062463 10.08333 
L 431.450587 5.477526 
L 433.83871 1.838903 
L 436.475323 -1 
M 446.905815 -1 
L 448.167449 0.040566 
L 450.555572 2.81716 
L 452.943695 6.340375 
L 455.331818 10.543125 
L 457.719941 15.351682 
L 460.108065 20.687053 
L 462.496188 26.465478 
L 467.272434 38.998507 
L 479.21305 71.62674 
L 481.601173 77.621439 
L 483.989296 83.236593 
L 486.377419 88.399655 
L 488.765543 93.04915 
L 491.153666 97.136387 
L 493.541789 100.628523 
L 495.929912 103.510404 
L 498.318035 105.786165 
L 500.706158 107.479054 
L 503.094282 108.630243 
L 505.482405 109.296813 
L 507.870528 109.548673 
L 510.258651 109.464908 
L 512.646774 109.130411 
L 517.423021 108.055715 
L 522.199267 106.990056 
L 524.58739 106.644044 
L 526.975513 106.503134 
L 529.363636 106.614804 
L 531.75176 107.015729 
L 534.139883 107.730937 
L 536.528006 108.77387 
L 538.916129 110.146425 
L 541.304252 111.839239 
L 543.692375 113.832004 
L 546.080499 116.094329 
L 548.468622 118.586045 
L 553.244868 124.052684 
L 560.409238 132.518272 
L 562.797361 135.129175 
L 565.185484 137.513737 
L 567.573607 139.603513 
L 569.96173 141.336113 
L 572.349853 142.658037 
L 574.737977 143.52704 
L 577.1261 143.914021 
L 579.514223 143.80446 
L 581.902346 143.199 
L 584.290469 142.112402 
L 586.678592 140.572659 
L 589.066716 138.618722 
L 591.454839 136.298283 
L 593.842962 133.665182 
L 596.231085 130.776785 
L 601.007331 124.469173 
L 612.947947 108.135597 
L 617.724194 102.303238 
L 620.112317 99.662593 
L 622.50044 97.230481 
L 624.888563 95.018517 
L 627.276686 93.032931 
L 629.664809 91.274631 
L 632.052933 89.740041 
L 634.441056 88.421185 
L 636.829179 87.305908 
L 639.217302 86.378479 
L 641.605425 85.620266 
L 643.993548 85.010298 
L 648.769795 84.143333 
L 653.546041 83.585163 
L 663.098534 82.65258 
L 667.87478 81.971666 
L 672.651026 81.006139 
L 677.427273 79.704215 
L 677.427273 79.704215 
" clip-path="url(#p271afb85ca)" style="fill: none; stroke-dasharray: 5.55,2.4; stroke-dashoffset: 0; stroke: #000080; stroke-width: 1.5"/>
   </g>
   <g id="patch_3">
    <path d="M 55.56 310.98 
L 55.56 28.08 
" style="fill: none; stroke: #ffffff; stroke-width: 1.25; stroke-linejoin: miter; stroke-linecap: square"/>
   </g>
   <g id="patch_4">
    <path d="M 707.04 310.98 
L 707.04 28.08 
" style="fill: none; stroke: #ffffff; stroke-width: 1.25; stroke-linejoin: miter; stroke-linecap: square"/>
   </g>
   <g id="patch_5">
    <path d="M 55.56 310.98 
L 707.04 310.98 
" style="fill: none; stroke: #ffffff; stroke-width: 1.25; stroke-linejoin: miter; stroke-linecap: square"/>
   </g>
   <g id="patch_6">
    <path d="M 55.56 28.08 
L 707.04 28.08 
" style="fill: none; stroke: #ffffff; stroke-width: 1.25; stroke-linejoin: miter; stroke-linecap: square"/>
   </g>
   <g id="text_14">
    <!-- QG3L - [112, 176] x [64, 192] -->
    <g style="fill: #262626" transform="translate(292.44 22.08) scale(0.12 -0.12)">
     <defs>
      <path id="DejaVuSans-51" d="M 2522 4238 
Q 1834 4238 1429 3725 
Q 1025 3213 1025 2328 
Q 1025 1447 1429 934 
Q 1834 422 2522 422 
Q 3209 422 3611 934 
Q 4013 1447 4013 2328 
Q 4013 3213 3611 3725 
Q 3209 4238 2522 4238 
z
M 3406 84 
L 4238 -825 
L 3475 -825 
L 2784 -78 
Q 2681 -84 2626 -87 
Q 2572 -91 2522 -91 
Q 1538 -91 948 567 
Q 359 1225 359 2328 
Q 359 3434 948 4092 
Q 1538 4750 2522 4750 
Q 3503 4750 4090 4092 
Q 4678 3434 4678 2328 
Q 4678 1516 4351 937 
Q 4025 359 3406 84 
z
" transform="scale(0.015625)"/>
      <path id="DejaVuSans-47" d="M 3809 666 
L 3809 1919 
L 2778 1919 
L 2778 2438 
L 4434 2438 
L 4434 434 
Q 4069 175 3628 42 
Q 3188 -91 2688 -91 
Q 1594 -91 976 548 
Q 359 1188 359 2328 
Q 359 3472 976 4111 
Q 1594 4750 2688 4750 
Q 3144 4750 3555 4637 
Q 3966 4525 4313 4306 
L 4313 3634 
Q 3963 3931 3569 4081 
Q 3175 4231 2741 4231 
Q 1884 4231 1454 3753 
Q 1025 3275 1025 2328 
Q 1025 1384 1454 906 
Q 1884 428 2741 428 
Q 3075 428 3337 486 
Q 3600 544 3809 666 
z
" transform="scale(0.015625)"/>
      <path id="DejaVuSans-33" d="M 2597 2516 
Q 3050 2419 3304 2112 
Q 3559 1806 3559 1356 
Q 3559 666 3084 287 
Q 2609 -91 1734 -91 
Q 1441 -91 1130 -33 
Q 819 25 488 141 
L 488 750 
Q 750 597 1062 519 
Q 1375 441 1716 441 
Q 2309 441 2620 675 
Q 2931 909 2931 1356 
Q 2931 1769 2642 2001 
Q 2353 2234 1838 2234 
L 1294 2234 
L 1294 2753 
L 1863 2753 
Q 2328 2753 2575 2939 
Q 2822 3125 2822 3475 
Q 2822 3834 2567 4026 
Q 2313 4219 1838 4219 
Q 1578 4219 1281 4162 
Q 984 4106 628 3988 
L 628 4550 
Q 988 4650 1302 4700 
Q 1616 4750 1894 4750 
Q 2613 4750 3031 4423 
Q 3450 4097 3450 3541 
Q 3450 3153 3228 2886 
Q 3006 2619 2597 2516 
z
" transform="scale(0.015625)"/>
      <path id="DejaVuSans-4c" d="M 628 4666 
L 1259 4666 
L 1259 531 
L 3531 531 
L 3531 0 
L 628 0 
L 628 4666 
z
" transform="scale(0.015625)"/>
      <path id="DejaVuSans-2d" d="M 313 2009 
L 1997 2009 
L 1997 1497 
L 313 1497 
L 313 2009 
z
" transform="scale(0.015625)"/>
      <path id="DejaVuSans-2c" d="M 750 794 
L 1409 794 
L 1409 256 
L 897 -744 
L 494 -744 
L 750 256 
L 750 794 
z
" transform="scale(0.015625)"/>
      <path id="DejaVuSans-37" d="M 525 4666 
L 3525 4666 
L 3525 4397 
L 1831 0 
L 1172 0 
L 2766 4134 
L 525 4134 
L 525 4666 
z
" transform="scale(0.015625)"/>
      <path id="DejaVuSans-78" d="M 3513 3500 
L 2247 1797 
L 3578 0 
L 2900 0 
L 1881 1375 
L 863 0 
L 184 0 
L 1544 1831 
L 300 3500 
L 978 3500 
L 1906 2253 
L 2834 3500 
L 3513 3500 
z
" transform="scale(0.015625)"/>
      <path id="DejaVuSans-39" d="M 703 97 
L 703 672 
Q 941 559 1184 500 
Q 1428 441 1663 441 
Q 2288 441 2617 861 
Q 2947 1281 2994 2138 
Q 2813 1869 2534 1725 
Q 2256 1581 1919 1581 
Q 1219 1581 811 2004 
Q 403 2428 403 3163 
Q 403 3881 828 4315 
Q 1253 4750 1959 4750 
Q 2769 4750 3195 4129 
Q 3622 3509 3622 2328 
Q 3622 1225 3098 567 
Q 2575 -91 1691 -91 
Q 1453 -91 1209 -44 
Q 966 3 703 97 
z
M 1959 2075 
Q 2384 2075 2632 2365 
Q 2881 2656 2881 3163 
Q 2881 3666 2632 3958 
Q 2384 4250 1959 4250 
Q 1534 4250 1286 3958 
Q 1038 3666 1038 3163 
Q 1038 2656 1286 2365 
Q 1534 2075 1959 2075 
z
" transform="scale(0.015625)"/>
     </defs>
     <use xlink:href="#DejaVuSans-51"/>
     <use xlink:href="#DejaVuSans-47" transform="translate(78.710938 0)"/>
     <use xlink:href="#DejaVuSans-33" transform="translate(156.201172 0)"/>
     <use xlink:href="#DejaVuSans-4c" transform="translate(219.824219 0)"/>
     <use xlink:href="#DejaVuSans-20" transform="translate(275.537109 0)"/>
     <use xlink:href="#DejaVuSans-2d" transform="translate(307.324219 0)"/>
     <use xlink:href="#DejaVuSans-20" transform="translate(343.408203 0)"/>
     <use xlink:href="#DejaVuSans-5b" transform="translate(375.195312 0)"/>
     <use xlink:href="#DejaVuSans-31" transform="translate(414.208984 0)"/>
     <use xlink:href="#DejaVuSans-31" transform="translate(477.832031 0)"/>
     <use xlink:href="#DejaVuSans-32" transform="translate(541.455078 0)"/>
     <use xlink:href="#DejaVuSans-2c" transform="translate(605.078125 0)"/>
     <use xlink:href="#DejaVuSans-20" transform="translate(636.865234 0)"/>
     <use xlink:href="#DejaVuSans-31" transform="translate(668.652344 0)"/>
     <use xlink:href="#DejaVuSans-37" transform="translate(732.275391 0)"/>
     <use xlink:href="#DejaVuSans-36" transform="translate(795.898438 0)"/>
     <use xlink:href="#DejaVuSans-5d" transform="translate(859.521484 0)"/>
     <use xlink:href="#DejaVuSans-20" transform="translate(898.535156 0)"/>
     <use xlink:href="#DejaVuSans-78" transform="translate(930.322266 0)"/>
     <use xlink:href="#DejaVuSans-20" transform="translate(989.501953 0)"/>
     <use xlink:href="#DejaVuSans-5b" transform="translate(1021.289062 0)"/>
     <use xlink:href="#DejaVuSans-36" transform="translate(1060.302734 0)"/>
     <use xlink:href="#DejaVuSans-34" transform="translate(1123.925781 0)"/>
     <use xlink:href="#DejaVuSans-2c" transform="translate(1187.548828 0)"/>
     <use xlink:href="#DejaVuSans-20" transform="translate(1219.335938 0)"/>
     <use xlink:href="#DejaVuSans-31" transform="translate(1251.123047 0)"/>
     <use xlink:href="#DejaVuSans-39" transform="translate(1314.746094 0)"/>
     <use xlink:href="#DejaVuSans-32" transform="translate(1378.369141 0)"/>
     <use xlink:href="#DejaVuSans-5d" transform="translate(1441.992188 0)"/>
    </g>
   </g>
   <g id="legend_1">
    <g id="patch_7">
     <path d="M 63.26 69.171875 
L 244.675781 69.171875 
Q 246.875781 69.171875 246.875781 66.971875 
L 246.875781 35.78 
Q 246.875781 33.58 244.675781 33.58 
L 63.26 33.58 
Q 61.06 33.58 61.06 35.78 
L 61.06 66.971875 
Q 61.06 69.171875 63.26 69.171875 
z
" style="fill: #eaeaf2; opacity: 0.8; stroke: #cccccc; stroke-linejoin: miter"/>
    </g>
    <g id="line2d_3">
     <path d="M 65.46 42.488281 
L 76.46 42.488281 
L 87.46 42.488281 
" style="fill: none; stroke: #000080; stroke-width: 1.5; stroke-linecap: round"/>
    </g>
    <g id="text_15">
     <!-- SurfML -->
     <g style="fill: #262626" transform="translate(96.26 46.338281) scale(0.11 -0.11)">
      <defs>
       <path id="DejaVuSans-75" d="M 544 1381 
L 544 3500 
L 1119 3500 
L 1119 1403 
Q 1119 906 1312 657 
Q 1506 409 1894 409 
Q 2359 409 2629 706 
Q 2900 1003 2900 1516 
L 2900 3500 
L 3475 3500 
L 3475 0 
L 2900 0 
L 2900 538 
Q 2691 219 2414 64 
Q 2138 -91 1772 -91 
Q 1169 -91 856 284 
Q 544 659 544 1381 
z
M 1991 3584 
L 1991 3584 
z
" transform="scale(0.015625)"/>
       <path id="DejaVuSans-72" d="M 2631 2963 
Q 2534 3019 2420 3045 
Q 2306 3072 2169 3072 
Q 1681 3072 1420 2755 
Q 1159 2438 1159 1844 
L 1159 0 
L 581 0 
L 581 3500 
L 1159 3500 
L 1159 2956 
Q 1341 3275 1631 3429 
Q 1922 3584 2338 3584 
Q 2397 3584 2469 3576 
Q 2541 3569 2628 3553 
L 2631 2963 
z
" transform="scale(0.015625)"/>
       <path id="DejaVuSans-66" d="M 2375 4863 
L 2375 4384 
L 1825 4384 
Q 1516 4384 1395 4259 
Q 1275 4134 1275 3809 
L 1275 3500 
L 2222 3500 
L 2222 3053 
L 1275 3053 
L 1275 0 
L 697 0 
L 697 3053 
L 147 3053 
L 147 3500 
L 697 3500 
L 697 3744 
Q 697 4328 969 4595 
Q 1241 4863 1831 4863 
L 2375 4863 
z
" transform="scale(0.015625)"/>
      </defs>
      <use xlink:href="#DejaVuSans-53"/>
      <use xlink:href="#DejaVuSans-75" transform="translate(63.476562 0)"/>
      <use xlink:href="#DejaVuSans-72" transform="translate(126.855469 0)"/>
      <use xlink:href="#DejaVuSans-66" transform="translate(167.96875 0)"/>
      <use xlink:href="#DejaVuSans-4d" transform="translate(203.173828 0)"/>
      <use xlink:href="#DejaVuSans-4c" transform="translate(289.453125 0)"/>
     </g>
    </g>
    <g id="line2d_4">
     <path d="M 65.46 58.634219 
L 76.46 58.634219 
L 87.46 58.634219 
" style="fill: none; stroke-dasharray: 5.55,2.4; stroke-dashoffset: 0; stroke: #000080; stroke-width: 1.5"/>
    </g>
    <g id="text_16">
     <!-- SurfML - No Regularization -->
     <g style="fill: #262626" transform="translate(96.26 62.484219) scale(0.11 -0.11)">
      <defs>
       <path id="DejaVuSans-4e" d="M 628 4666 
L 1478 4666 
L 3547 763 
L 3547 4666 
L 4159 4666 
L 4159 0 
L 3309 0 
L 1241 3903 
L 1241 0 
L 628 0 
L 628 4666 
z
" transform="scale(0.015625)"/>
       <path id="DejaVuSans-6f" d="M 1959 3097 
Q 1497 3097 1228 2736 
Q 959 2375 959 1747 
Q 959 1119 1226 758 
Q 1494 397 1959 397 
Q 2419 397 2687 759 
Q 2956 1122 2956 1747 
Q 2956 2369 2687 2733 
Q 2419 3097 1959 3097 
z
M 1959 3584 
Q 2709 3584 3137 3096 
Q 3566 2609 3566 1747 
Q 3566 888 3137 398 
Q 2709 -91 1959 -91 
Q 1206 -91 779 398 
Q 353 888 353 1747 
Q 353 2609 779 3096 
Q 1206 3584 1959 3584 
z
" transform="scale(0.015625)"/>
       <path id="DejaVuSans-67" d="M 2906 1791 
Q 2906 2416 2648 2759 
Q 2391 3103 1925 3103 
Q 1463 3103 1205 2759 
Q 947 2416 947 1791 
Q 947 1169 1205 825 
Q 1463 481 1925 481 
Q 2391 481 2648 825 
Q 2906 1169 2906 1791 
z
M 3481 434 
Q 3481 -459 3084 -895 
Q 2688 -1331 1869 -1331 
Q 1566 -1331 1297 -1286 
Q 1028 -1241 775 -1147 
L 775 -588 
Q 1028 -725 1275 -790 
Q 1522 -856 1778 -856 
Q 2344 -856 2625 -561 
Q 2906 -266 2906 331 
L 2906 616 
Q 2728 306 2450 153 
Q 2172 0 1784 0 
Q 1141 0 747 490 
Q 353 981 353 1791 
Q 353 2603 747 3093 
Q 1141 3584 1784 3584 
Q 2172 3584 2450 3431 
Q 2728 3278 2906 2969 
L 2906 3500 
L 3481 3500 
L 3481 434 
z
" transform="scale(0.015625)"/>
       <path id="DejaVuSans-6c" d="M 603 4863 
L 1178 4863 
L 1178 0 
L 603 0 
L 603 4863 
z
" transform="scale(0.015625)"/>
       <path id="DejaVuSans-7a" d="M 353 3500 
L 3084 3500 
L 3084 2975 
L 922 459 
L 3084 459 
L 3084 0 
L 275 0 
L 275 525 
L 2438 3041 
L 353 3041 
L 353 3500 
z
" transform="scale(0.015625)"/>
      </defs>
      <use xlink:href="#DejaVuSans-53"/>
      <use xlink:href="#DejaVuSans-75" transform="translate(63.476562 0)"/>
      <use xlink:href="#DejaVuSans-72" transform="translate(126.855469 0)"/>
      <use xlink:href="#DejaVuSans-66" transform="translate(167.96875 0)"/>
      <use xlink:href="#DejaVuSans-4d" transform="translate(203.173828 0)"/>
      <use xlink:href="#DejaVuSans-4c" transform="translate(289.453125 0)"/>
      <use xlink:href="#DejaVuSans-20" transform="translate(345.166016 0)"/>
      <use xlink:href="#DejaVuSans-2d" transform="translate(376.953125 0)"/>
      <use xlink:href="#DejaVuSans-20" transform="translate(413.037109 0)"/>
      <use xlink:href="#DejaVuSans-4e" transform="translate(444.824219 0)"/>
      <use xlink:href="#DejaVuSans-6f" transform="translate(519.628906 0)"/>
      <use xlink:href="#DejaVuSans-20" transform="translate(580.810547 0)"/>
      <use xlink:href="#DejaVuSans-52" transform="translate(612.597656 0)"/>
      <use xlink:href="#DejaVuSans-65" transform="translate(677.580078 0)"/>
      <use xlink:href="#DejaVuSans-67" transform="translate(739.103516 0)"/>
      <use xlink:href="#DejaVuSans-75" transform="translate(802.580078 0)"/>
      <use xlink:href="#DejaVuSans-6c" transform="translate(865.958984 0)"/>
      <use xlink:href="#DejaVuSans-61" transform="translate(893.742188 0)"/>
      <use xlink:href="#DejaVuSans-72" transform="translate(955.021484 0)"/>
      <use xlink:href="#DejaVuSans-69" transform="translate(996.134766 0)"/>
      <use xlink:href="#DejaVuSans-7a" transform="translate(1023.917969 0)"/>
      <use xlink:href="#DejaVuSans-61" transform="translate(1076.408203 0)"/>
      <use xlink:href="#DejaVuSans-74" transform="translate(1137.6875 0)"/>
      <use xlink:href="#DejaVuSans-69" transform="translate(1176.896484 0)"/>
      <use xlink:href="#DejaVuSans-6f" transform="translate(1204.679688 0)"/>
      <use xlink:href="#DejaVuSans-6e" transform="translate(1265.861328 0)"/>
     </g>
    </g>
   </g>
  </g>
 </g>
 <defs>
  <clipPath id="p271afb85ca">
   <rect x="55.56" y="28.08" width="651.48" height="282.9"/>
  </clipPath>
 </defs>
</svg>
