<?xml version="1.0" encoding="utf-8" standalone="no"?>
<!DOCTYPE svg PUBLIC "-//W3C//DTD SVG 1.1//EN"
  "http://www.w3.org/Graphics/SVG/1.1/DTD/svg11.dtd">
<svg xmlns:xlink="http://www.w3.org/1999/xlink" width="720pt" height="360pt" viewBox="0 0 720 360" xmlns="http://www.w3.org/2000/svg" version="1.1">
 <metadata>
  <rdf:RDF xmlns:dc="http://purl.org/dc/elements/1.1/" xmlns:cc="http://creativecommons.org/ns#" xmlns:rdf="http://www.w3.org/1999/02/22-rdf-syntax-ns#">
   <cc:Work>
    <dc:type rdf:resource="http://purl.org/dc/dcmitype/StillImage"/>
    <dc:date>2026-03-24T10:52:24.659765</dc:date>
    <dc:format>image/svg+xml</dc:format>
    <dc:creator>
     <cc:Agent>
      <dc:title>Matplotlib v3.10.6, https://matplotlib.org/</dc:title>
     </cc:Agent>
    </dc:creator>
   </cc:Work>
  </rdf:RDF>
 </metadata>
 <defs>
  <style type="text/css">*{stroke-linejoin: round; stroke-linecap: butt}</style>
 </defs>
 <g id="figure_1">
  <g id="patch_1">
   <path d="M 0 360 
L 720 360 
L 720 0 
L 0 0 
z
" style="fill: #ffffff"/>
  </g>
  <g id="axes_1">
   <g id="patch_2">
    <path d="M 55.56 310.98 
L 707.04 310.98 
L 707.04 28.08 
L 55.56 28.08 
z
" style="fill: #eaeaf2"/>
   </g>
   <g id="matplotlib.axis_1">
    <g id="xtick_1">
     <g id="text_1">
      <!-- 0 -->
      <g style="fill: #262626" transform="translate(81.673352 328.838281) scale(0.11 -0.11)">
       <defs>
        <path id="DejaVuSans-30" d="M 2034 4250 
Q 1547 4250 1301 3770 
Q 1056 3291 1056 2328 
Q 1056 1369 1301 889 
Q 1547 409 2034 409 
Q 2525 409 2770 889 
Q 3016 1369 3016 2328 
Q 3016 3291 2770 3770 
Q 2525 4250 2034 4250 
z
M 2034 4750 
Q 2819 4750 3233 4129 
Q 3647 3509 3647 2328 
Q 3647 1150 3233 529 
Q 2819 -91 2034 -91 
Q 1250 -91 836 529 
Q 422 1150 422 2328 
Q 422 3509 836 4129 
Q 1250 4750 2034 4750 
z
" transform="scale(0.015625)"/>
       </defs>
       <use xlink:href="#DejaVuSans-30"/>
      </g>
     </g>
    </g>
    <g id="xtick_2">
     <g id="text_2">
      <!-- 5 -->
      <g style="fill: #262626" transform="translate(224.385291 328.838281) scale(0.11 -0.11)">
       <defs>
        <path id="DejaVuSans-35" d="M 691 4666 
L 3169 4666 
L 3169 4134 
L 1269 4134 
L 1269 2991 
Q 1406 3038 1543 3061 
Q 1681 3084 1819 3084 
Q 2600 3084 3056 2656 
Q 3513 2228 3513 1497 
Q 3513 744 3044 326 
Q 2575 -91 1722 -91 
Q 1428 -91 1123 -41 
Q 819 9 494 109 
L 494 744 
Q 775 591 1075 516 
Q 1375 441 1709 441 
Q 2250 441 2565 725 
Q 2881 1009 2881 1497 
Q 2881 1984 2565 2268 
Q 2250 2553 1709 2553 
Q 1456 2553 1204 2497 
Q 953 2441 691 2322 
L 691 4666 
z
" transform="scale(0.015625)"/>
       </defs>
       <use xlink:href="#DejaVuSans-35"/>
      </g>
     </g>
    </g>
    <g id="xtick_3">
     <g id="text_3">
      <!-- 10 -->
      <g style="fill: #262626" transform="translate(363.597855 328.838281) scale(0.11 -0.11)">
       <defs>
        <path id="DejaVuSans-31" d="M 794 531 
L 1825 531 
L 1825 4091 
L 703 3866 
L 703 4441 
L 1819 4666 
L 2450 4666 
L 2450 531 
L 3481 531 
L 3481 0 
L 794 0 
L 794 531 
z
" transform="scale(0.015625)"/>
       </defs>
       <use xlink:href="#DejaVuSans-31"/>
       <use xlink:href="#DejaVuSans-30" transform="translate(63.623047 0)"/>
      </g>
     </g>
    </g>
    <g id="xtick_4">
     <g id="text_4">
      <!-- 15 -->
      <g style="fill: #262626" transform="translate(506.309793 328.838281) scale(0.11 -0.11)">
       <use xlink:href="#DejaVuSans-31"/>
       <use xlink:href="#DejaVuSans-35" transform="translate(63.623047 0)"/>
      </g>
     </g>
    </g>
    <g id="xtick_5">
     <g id="text_5">
      <!-- 20 -->
      <g style="fill: #262626" transform="translate(649.021732 328.838281) scale(0.11 -0.11)">
       <defs>
        <path id="DejaVuSans-32" d="M 1228 531 
L 3431 531 
L 3431 0 
L 469 0 
L 469 531 
Q 828 903 1448 1529 
Q 2069 2156 2228 2338 
Q 2531 2678 2651 2914 
Q 2772 3150 2772 3378 
Q 2772 3750 2511 3984 
Q 2250 4219 1831 4219 
Q 1534 4219 1204 4116 
Q 875 4013 500 3803 
L 500 4441 
Q 881 4594 1212 4672 
Q 1544 4750 1819 4750 
Q 2544 4750 2975 4387 
Q 3406 4025 3406 3419 
Q 3406 3131 3298 2873 
Q 3191 2616 2906 2266 
Q 2828 2175 2409 1742 
Q 1991 1309 1228 531 
z
" transform="scale(0.015625)"/>
       </defs>
       <use xlink:href="#DejaVuSans-32"/>
       <use xlink:href="#DejaVuSans-30" transform="translate(63.623047 0)"/>
      </g>
     </g>
    </g>
    <g id="text_6">
     <!-- Time [days] -->
     <g style="fill: #262626" transform="translate(345.868125 344.244062) scale(0.12 -0.12)">
      <defs>
       <path id="DejaVuSans-54" d="M -19 4666 
L 3928 4666 
L 3928 4134 
L 2272 4134 
L 2272 0 
L 1638 0 
L 1638 4134 
L -19 4134 
L -19 4666 
z
" transform="scale(0.015625)"/>
       <path id="DejaVuSans-69" d="M 603 3500 
L 1178 3500 
L 1178 0 
L 603 0 
L 603 3500 
z
M 603 4863 
L 1178 4863 
L 1178 4134 
L 603 4134 
L 603 4863 
z
" transform="scale(0.015625)"/>
       <path id="DejaVuSans-6d" d="M 3328 2828 
Q 3544 3216 3844 3400 
Q 4144 3584 4550 3584 
Q 5097 3584 5394 3201 
Q 5691 2819 5691 2113 
L 5691 0 
L 5113 0 
L 5113 2094 
Q 5113 2597 4934 2840 
Q 4756 3084 4391 3084 
Q 3944 3084 3684 2787 
Q 3425 2491 3425 1978 
L 3425 0 
L 2847 0 
L 2847 2094 
Q 2847 2600 2669 2842 
Q 2491 3084 2119 3084 
Q 1678 3084 1418 2786 
Q 1159 2488 1159 1978 
L 1159 0 
L 581 0 
L 581 3500 
L 1159 3500 
L 1159 2956 
Q 1356 3278 1631 3431 
Q 1906 3584 2284 3584 
Q 2666 3584 2933 3390 
Q 3200 3197 3328 2828 
z
" transform="scale(0.015625)"/>
       <path id="DejaVuSans-65" d="M 3597 1894 
L 3597 1613 
L 953 1613 
Q 991 1019 1311 708 
Q 1631 397 2203 397 
Q 2534 397 2845 478 
Q 3156 559 3463 722 
L 3463 178 
Q 3153 47 2828 -22 
Q 2503 -91 2169 -91 
Q 1331 -91 842 396 
Q 353 884 353 1716 
Q 353 2575 817 3079 
Q 1281 3584 2069 3584 
Q 2775 3584 3186 3129 
Q 3597 2675 3597 1894 
z
M 3022 2063 
Q 3016 2534 2758 2815 
Q 2500 3097 2075 3097 
Q 1594 3097 1305 2825 
Q 1016 2553 972 2059 
L 3022 2063 
z
" transform="scale(0.015625)"/>
       <path id="DejaVuSans-20" transform="scale(0.015625)"/>
       <path id="DejaVuSans-5b" d="M 550 4863 
L 1875 4863 
L 1875 4416 
L 1125 4416 
L 1125 -397 
L 1875 -397 
L 1875 -844 
L 550 -844 
L 550 4863 
z
" transform="scale(0.015625)"/>
       <path id="DejaVuSans-64" d="M 2906 2969 
L 2906 4863 
L 3481 4863 
L 3481 0 
L 2906 0 
L 2906 525 
Q 2725 213 2448 61 
Q 2172 -91 1784 -91 
Q 1150 -91 751 415 
Q 353 922 353 1747 
Q 353 2572 751 3078 
Q 1150 3584 1784 3584 
Q 2172 3584 2448 3432 
Q 2725 3281 2906 2969 
z
M 947 1747 
Q 947 1113 1208 752 
Q 1469 391 1925 391 
Q 2381 391 2643 752 
Q 2906 1113 2906 1747 
Q 2906 2381 2643 2742 
Q 2381 3103 1925 3103 
Q 1469 3103 1208 2742 
Q 947 2381 947 1747 
z
" transform="scale(0.015625)"/>
       <path id="DejaVuSans-61" d="M 2194 1759 
Q 1497 1759 1228 1600 
Q 959 1441 959 1056 
Q 959 750 1161 570 
Q 1363 391 1709 391 
Q 2188 391 2477 730 
Q 2766 1069 2766 1631 
L 2766 1759 
L 2194 1759 
z
M 3341 1997 
L 3341 0 
L 2766 0 
L 2766 531 
Q 2569 213 2275 61 
Q 1981 -91 1556 -91 
Q 1019 -91 701 211 
Q 384 513 384 1019 
Q 384 1609 779 1909 
Q 1175 2209 1959 2209 
L 2766 2209 
L 2766 2266 
Q 2766 2663 2505 2880 
Q 2244 3097 1772 3097 
Q 1472 3097 1187 3025 
Q 903 2953 641 2809 
L 641 3341 
Q 956 3463 1253 3523 
Q 1550 3584 1831 3584 
Q 2591 3584 2966 3190 
Q 3341 2797 3341 1997 
z
" transform="scale(0.015625)"/>
       <path id="DejaVuSans-79" d="M 2059 -325 
Q 1816 -950 1584 -1140 
Q 1353 -1331 966 -1331 
L 506 -1331 
L 506 -850 
L 844 -850 
Q 1081 -850 1212 -737 
Q 1344 -625 1503 -206 
L 1606 56 
L 191 3500 
L 800 3500 
L 1894 763 
L 2988 3500 
L 3597 3500 
L 2059 -325 
z
" transform="scale(0.015625)"/>
       <path id="DejaVuSans-73" d="M 2834 3397 
L 2834 2853 
Q 2591 2978 2328 3040 
Q 2066 3103 1784 3103 
Q 1356 3103 1142 2972 
Q 928 2841 928 2578 
Q 928 2378 1081 2264 
Q 1234 2150 1697 2047 
L 1894 2003 
Q 2506 1872 2764 1633 
Q 3022 1394 3022 966 
Q 3022 478 2636 193 
Q 2250 -91 1575 -91 
Q 1294 -91 989 -36 
Q 684 19 347 128 
L 347 722 
Q 666 556 975 473 
Q 1284 391 1588 391 
Q 1994 391 2212 530 
Q 2431 669 2431 922 
Q 2431 1156 2273 1281 
Q 2116 1406 1581 1522 
L 1381 1569 
Q 847 1681 609 1914 
Q 372 2147 372 2553 
Q 372 3047 722 3315 
Q 1072 3584 1716 3584 
Q 2034 3584 2315 3537 
Q 2597 3491 2834 3397 
z
" transform="scale(0.015625)"/>
       <path id="DejaVuSans-5d" d="M 1947 4863 
L 1947 -844 
L 622 -844 
L 622 -397 
L 1369 -397 
L 1369 4416 
L 622 4416 
L 622 4863 
L 1947 4863 
z
" transform="scale(0.015625)"/>
      </defs>
      <use xlink:href="#DejaVuSans-54"/>
      <use xlink:href="#DejaVuSans-69" transform="translate(57.958984 0)"/>
      <use xlink:href="#DejaVuSans-6d" transform="translate(85.742188 0)"/>
      <use xlink:href="#DejaVuSans-65" transform="translate(183.154297 0)"/>
      <use xlink:href="#DejaVuSans-20" transform="translate(244.677734 0)"/>
      <use xlink:href="#DejaVuSans-5b" transform="translate(276.464844 0)"/>
      <use xlink:href="#DejaVuSans-64" transform="translate(315.478516 0)"/>
      <use xlink:href="#DejaVuSans-61" transform="translate(378.955078 0)"/>
      <use xlink:href="#DejaVuSans-79" transform="translate(440.234375 0)"/>
      <use xlink:href="#DejaVuSans-73" transform="translate(499.414062 0)"/>
      <use xlink:href="#DejaVuSans-5d" transform="translate(551.513672 0)"/>
     </g>
    </g>
   </g>
   <g id="matplotlib.axis_2">
    <g id="ytick_1">
     <g id="text_7">
      <!-- 0.0 -->
      <g style="fill: #262626" transform="translate(28.566562 302.30005) scale(0.11 -0.11)">
       <defs>
        <path id="DejaVuSans-2e" d="M 684 794 
L 1344 794 
L 1344 0 
L 684 0 
L 684 794 
z
" transform="scale(0.015625)"/>
       </defs>
       <use xlink:href="#DejaVuSans-30"/>
       <use xlink:href="#DejaVuSans-2e" transform="translate(63.623047 0)"/>
       <use xlink:href="#DejaVuSans-30" transform="translate(95.410156 0)"/>
      </g>
     </g>
    </g>
    <g id="ytick_2">
     <g id="text_8">
      <!-- 0.2 -->
      <g style="fill: #262626" transform="translate(28.566562 250.863686) scale(0.11 -0.11)">
       <use xlink:href="#DejaVuSans-30"/>
       <use xlink:href="#DejaVuSans-2e" transform="translate(63.623047 0)"/>
       <use xlink:href="#DejaVuSans-32" transform="translate(95.410156 0)"/>
      </g>
     </g>
    </g>
    <g id="ytick_3">
     <g id="text_9">
      <!-- 0.4 -->
      <g style="fill: #262626" transform="translate(28.566562 199.427322) scale(0.11 -0.11)">
       <defs>
        <path id="DejaVuSans-34" d="M 2419 4116 
L 825 1625 
L 2419 1625 
L 2419 4116 
z
M 2253 4666 
L 3047 4666 
L 3047 1625 
L 3713 1625 
L 3713 1100 
L 3047 1100 
L 3047 0 
L 2419 0 
L 2419 1100 
L 313 1100 
L 313 1709 
L 2253 4666 
z
" transform="scale(0.015625)"/>
       </defs>
       <use xlink:href="#DejaVuSans-30"/>
       <use xlink:href="#DejaVuSans-2e" transform="translate(63.623047 0)"/>
       <use xlink:href="#DejaVuSans-34" transform="translate(95.410156 0)"/>
      </g>
     </g>
    </g>
    <g id="ytick_4">
     <g id="text_10">
      <!-- 0.6 -->
      <g style="fill: #262626" transform="translate(28.566562 147.990959) scale(0.11 -0.11)">
       <defs>
        <path id="DejaVuSans-36" d="M 2113 2584 
Q 1688 2584 1439 2293 
Q 1191 2003 1191 1497 
Q 1191 994 1439 701 
Q 1688 409 2113 409 
Q 2538 409 2786 701 
Q 3034 994 3034 1497 
Q 3034 2003 2786 2293 
Q 2538 2584 2113 2584 
z
M 3366 4563 
L 3366 3988 
Q 3128 4100 2886 4159 
Q 2644 4219 2406 4219 
Q 1781 4219 1451 3797 
Q 1122 3375 1075 2522 
Q 1259 2794 1537 2939 
Q 1816 3084 2150 3084 
Q 2853 3084 3261 2657 
Q 3669 2231 3669 1497 
Q 3669 778 3244 343 
Q 2819 -91 2113 -91 
Q 1303 -91 875 529 
Q 447 1150 447 2328 
Q 447 3434 972 4092 
Q 1497 4750 2381 4750 
Q 2619 4750 2861 4703 
Q 3103 4656 3366 4563 
z
" transform="scale(0.015625)"/>
       </defs>
       <use xlink:href="#DejaVuSans-30"/>
       <use xlink:href="#DejaVuSans-2e" transform="translate(63.623047 0)"/>
       <use xlink:href="#DejaVuSans-36" transform="translate(95.410156 0)"/>
      </g>
     </g>
    </g>
    <g id="ytick_5">
     <g id="text_11">
      <!-- 0.8 -->
      <g style="fill: #262626" transform="translate(28.566562 96.554595) scale(0.11 -0.11)">
       <defs>
        <path id="DejaVuSans-38" d="M 2034 2216 
Q 1584 2216 1326 1975 
Q 1069 1734 1069 1313 
Q 1069 891 1326 650 
Q 1584 409 2034 409 
Q 2484 409 2743 651 
Q 3003 894 3003 1313 
Q 3003 1734 2745 1975 
Q 2488 2216 2034 2216 
z
M 1403 2484 
Q 997 2584 770 2862 
Q 544 3141 544 3541 
Q 544 4100 942 4425 
Q 1341 4750 2034 4750 
Q 2731 4750 3128 4425 
Q 3525 4100 3525 3541 
Q 3525 3141 3298 2862 
Q 3072 2584 2669 2484 
Q 3125 2378 3379 2068 
Q 3634 1759 3634 1313 
Q 3634 634 3220 271 
Q 2806 -91 2034 -91 
Q 1263 -91 848 271 
Q 434 634 434 1313 
Q 434 1759 690 2068 
Q 947 2378 1403 2484 
z
M 1172 3481 
Q 1172 3119 1398 2916 
Q 1625 2713 2034 2713 
Q 2441 2713 2670 2916 
Q 2900 3119 2900 3481 
Q 2900 3844 2670 4047 
Q 2441 4250 2034 4250 
Q 1625 4250 1398 4047 
Q 1172 3844 1172 3481 
z
" transform="scale(0.015625)"/>
       </defs>
       <use xlink:href="#DejaVuSans-30"/>
       <use xlink:href="#DejaVuSans-2e" transform="translate(63.623047 0)"/>
       <use xlink:href="#DejaVuSans-38" transform="translate(95.410156 0)"/>
      </g>
     </g>
    </g>
    <g id="ytick_6">
     <g id="text_12">
      <!-- 1.0 -->
      <g style="fill: #262626" transform="translate(28.566562 45.118232) scale(0.11 -0.11)">
       <use xlink:href="#DejaVuSans-31"/>
       <use xlink:href="#DejaVuSans-2e" transform="translate(63.623047 0)"/>
       <use xlink:href="#DejaVuSans-30" transform="translate(95.410156 0)"/>
      </g>
     </g>
    </g>
    <g id="text_13">
     <!-- ψ₂ nRMSE -->
     <g style="fill: #262626" transform="translate(22.070937 198.549375) rotate(-90) scale(0.12 -0.12)">
      <defs>
       <path id="DejaVuSans-3c8" d="M 1816 -78 
Q 1094 38 759 341 
Q 350 713 350 1472 
L 350 3500 
L 931 3500 
L 931 1494 
Q 931 922 1197 684 
Q 1428 478 1816 434 
L 1816 3500 
L 2388 3500 
L 2388 438 
Q 2797 481 3006 688 
Q 3272 950 3272 1497 
L 3272 3500 
L 3853 3500 
L 3853 1475 
Q 3853 688 3444 344 
Q 3075 34 2388 -75 
L 2388 -1331 
L 1816 -1331 
L 1816 -78 
z
" transform="scale(0.015625)"/>
       <path id="DejaVuSans-2082" d="M 838 356 
L 2163 356 
L 2163 0 
L 294 0 
L 294 343 
Q 400 440 597 615 
Q 1672 1568 1672 1862 
Q 1672 2068 1509 2194 
Q 1347 2321 1081 2321 
Q 919 2321 728 2266 
Q 538 2212 313 2103 
L 313 2487 
Q 553 2575 761 2618 
Q 969 2662 1147 2662 
Q 1600 2662 1872 2456 
Q 2144 2250 2144 1912 
Q 2144 1478 1109 590 
Q 934 440 838 356 
z
" transform="scale(0.015625)"/>
       <path id="DejaVuSans-6e" d="M 3513 2113 
L 3513 0 
L 2938 0 
L 2938 2094 
Q 2938 2591 2744 2837 
Q 2550 3084 2163 3084 
Q 1697 3084 1428 2787 
Q 1159 2491 1159 1978 
L 1159 0 
L 581 0 
L 581 3500 
L 1159 3500 
L 1159 2956 
Q 1366 3272 1645 3428 
Q 1925 3584 2291 3584 
Q 2894 3584 3203 3211 
Q 3513 2838 3513 2113 
z
" transform="scale(0.015625)"/>
       <path id="DejaVuSans-52" d="M 2841 2188 
Q 3044 2119 3236 1894 
Q 3428 1669 3622 1275 
L 4263 0 
L 3584 0 
L 2988 1197 
Q 2756 1666 2539 1819 
Q 2322 1972 1947 1972 
L 1259 1972 
L 1259 0 
L 628 0 
L 628 4666 
L 2053 4666 
Q 2853 4666 3247 4331 
Q 3641 3997 3641 3322 
Q 3641 2881 3436 2590 
Q 3231 2300 2841 2188 
z
M 1259 4147 
L 1259 2491 
L 2053 2491 
Q 2509 2491 2742 2702 
Q 2975 2913 2975 3322 
Q 2975 3731 2742 3939 
Q 2509 4147 2053 4147 
L 1259 4147 
z
" transform="scale(0.015625)"/>
       <path id="DejaVuSans-4d" d="M 628 4666 
L 1569 4666 
L 2759 1491 
L 3956 4666 
L 4897 4666 
L 4897 0 
L 4281 0 
L 4281 4097 
L 3078 897 
L 2444 897 
L 1241 4097 
L 1241 0 
L 628 0 
L 628 4666 
z
" transform="scale(0.015625)"/>
       <path id="DejaVuSans-53" d="M 3425 4513 
L 3425 3897 
Q 3066 4069 2747 4153 
Q 2428 4238 2131 4238 
Q 1616 4238 1336 4038 
Q 1056 3838 1056 3469 
Q 1056 3159 1242 3001 
Q 1428 2844 1947 2747 
L 2328 2669 
Q 3034 2534 3370 2195 
Q 3706 1856 3706 1288 
Q 3706 609 3251 259 
Q 2797 -91 1919 -91 
Q 1588 -91 1214 -16 
Q 841 59 441 206 
L 441 856 
Q 825 641 1194 531 
Q 1563 422 1919 422 
Q 2459 422 2753 634 
Q 3047 847 3047 1241 
Q 3047 1584 2836 1778 
Q 2625 1972 2144 2069 
L 1759 2144 
Q 1053 2284 737 2584 
Q 422 2884 422 3419 
Q 422 4038 858 4394 
Q 1294 4750 2059 4750 
Q 2388 4750 2728 4690 
Q 3069 4631 3425 4513 
z
" transform="scale(0.015625)"/>
       <path id="DejaVuSans-45" d="M 628 4666 
L 3578 4666 
L 3578 4134 
L 1259 4134 
L 1259 2753 
L 3481 2753 
L 3481 2222 
L 1259 2222 
L 1259 531 
L 3634 531 
L 3634 0 
L 628 0 
L 628 4666 
z
" transform="scale(0.015625)"/>
      </defs>
      <use xlink:href="#DejaVuSans-3c8"/>
      <use xlink:href="#DejaVuSans-2082" transform="translate(65.966797 0)"/>
      <use xlink:href="#DejaVuSans-20" transform="translate(106.054688 0)"/>
      <use xlink:href="#DejaVuSans-6e" transform="translate(137.841797 0)"/>
      <use xlink:href="#DejaVuSans-52" transform="translate(201.220703 0)"/>
      <use xlink:href="#DejaVuSans-4d" transform="translate(270.703125 0)"/>
      <use xlink:href="#DejaVuSans-53" transform="translate(356.982422 0)"/>
      <use xlink:href="#DejaVuSans-45" transform="translate(420.458984 0)"/>
     </g>
    </g>
   </g>
   <g id="FillBetweenPolyCollection_1">
    <defs>
     <path id="m1ebda2a2b3" d="M 85.172727 -215.977928 
L 85.172727 -179.46488 
L 87.55126 -180.168298 
L 89.929792 -180.829918 
L 92.308324 -181.447801 
L 94.686857 -182.020265 
L 97.065389 -182.545901 
L 99.443921 -183.023584 
L 101.822453 -183.452517 
L 104.200986 -183.832223 
L 106.579518 -184.162562 
L 108.95805 -184.443732 
L 111.336583 -184.676277 
L 113.715115 -184.861085 
L 116.093647 -184.999394 
L 118.47218 -185.092774 
L 120.850712 -185.143101 
L 123.229244 -185.152535 
L 125.607777 -185.12351 
L 127.986309 -185.058698 
L 130.364841 -184.960981 
L 132.743373 -184.833418 
L 135.121906 -184.679198 
L 137.500438 -184.501613 
L 139.87897 -184.304012 
L 142.257503 -184.089767 
L 144.636035 -183.862238 
L 147.014567 -183.624735 
L 149.3931 -183.380491 
L 151.771632 -183.132616 
L 154.150164 -182.884077 
L 156.528697 -182.637674 
L 158.907229 -182.396025 
L 161.285761 -182.161546 
L 163.664294 -181.936448 
L 166.042826 -181.722726 
L 168.421358 -181.522157 
L 170.79989 -181.336301 
L 173.178423 -181.166491 
L 175.556955 -181.013842 
L 177.935487 -180.879259 
L 180.31402 -180.763442 
L 182.692552 -180.666904 
L 185.071084 -180.589969 
L 187.449617 -180.532783 
L 189.828149 -180.495327 
L 192.206681 -180.477426 
L 194.585214 -180.478759 
L 196.963746 -180.49886 
L 199.342278 -180.537135 
L 201.720811 -180.592864 
L 204.099343 -180.665215 
L 206.477875 -180.753244 
L 208.856407 -180.855906 
L 211.23494 -180.972061 
L 213.613472 -181.100483 
L 215.992004 -181.239866 
L 218.370537 -181.388835 
L 220.749069 -181.545956 
L 223.127601 -181.709754 
L 225.506134 -181.878728 
L 227.884666 -182.051366 
L 230.263198 -182.226161 
L 232.641731 -182.401631 
L 235.020263 -182.576343 
L 237.398795 -182.748924 
L 239.777327 -182.918093 
L 242.15586 -183.082672 
L 244.534392 -183.241607 
L 246.912924 -183.393983 
L 249.291457 -183.539025 
L 251.669989 -183.676118 
L 254.048521 -183.804805 
L 256.427054 -183.924783 
L 258.805586 -184.035905 
L 261.184118 -184.138167 
L 263.562651 -184.231704 
L 265.941183 -184.316771 
L 268.319715 -184.393734 
L 270.698248 -184.463048 
L 273.07678 -184.525245 
L 275.455312 -184.580915 
L 277.833844 -184.630684 
L 280.212377 -184.675202 
L 282.590909 -184.715126 
L 284.969441 -184.751105 
L 287.347974 -184.783769 
L 289.726506 -184.813707 
L 292.105038 -184.841464 
L 294.483571 -184.867528 
L 296.862103 -184.892321 
L 299.240635 -184.916193 
L 301.619168 -184.939424 
L 303.9977 -184.962214 
L 306.376232 -184.984679 
L 308.754765 -185.006862 
L 311.133297 -185.028721 
L 313.511829 -185.050142 
L 315.890361 -185.07094 
L 318.268894 -185.090859 
L 320.647426 -185.109585 
L 323.025958 -185.126753 
L 325.404491 -185.141954 
L 327.783023 -185.154741 
L 330.161555 -185.164648 
L 332.540088 -185.171194 
L 334.91862 -185.173896 
L 337.297152 -185.172279 
L 339.675685 -185.165885 
L 342.054217 -185.15429 
L 344.432749 -185.137107 
L 346.811281 -185.113998 
L 349.189814 -185.084669 
L 351.568346 -185.048882 
L 353.946878 -185.006449 
L 356.325411 -184.95724 
L 358.703943 -184.901176 
L 361.082475 -184.838232 
L 363.461008 -184.768432 
L 365.83954 -184.691843 
L 368.218072 -184.608563 
L 370.596605 -184.51872 
L 372.975137 -184.422467 
L 375.353669 -184.31998 
L 377.732202 -184.211446 
L 380.110734 -184.097061 
L 382.489266 -183.977029 
L 384.867798 -183.851557 
L 387.246331 -183.720849 
L 389.624863 -183.585113 
L 392.003395 -183.444558 
L 394.381928 -183.2994 
L 396.76046 -183.149855 
L 399.138992 -182.996155 
L 401.517525 -182.838532 
L 403.896057 -182.677223 
L 406.274589 -182.512479 
L 408.653122 -182.344562 
L 411.031654 -182.173745 
L 413.410186 -182.000312 
L 415.788719 -181.824555 
L 418.167251 -181.646771 
L 420.545783 -181.467264 
L 422.924315 -181.286338 
L 425.302848 -181.104297 
L 427.68138 -180.921437 
L 430.059912 -180.738037 
L 432.438445 -180.554368 
L 434.816977 -180.370679 
L 437.195509 -180.187201 
L 439.574042 -180.004141 
L 441.952574 -179.821687 
L 444.331106 -179.640003 
L 446.709639 -179.459232 
L 449.088171 -179.279506 
L 451.466703 -179.100946 
L 453.845235 -178.923672 
L 456.223768 -178.747793 
L 458.6023 -178.573416 
L 460.980832 -178.400645 
L 463.359365 -178.229594 
L 465.737897 -178.060391 
L 468.116429 -177.893173 
L 470.494962 -177.72809 
L 472.873494 -177.565296 
L 475.252026 -177.404947 
L 477.630559 -177.247207 
L 480.009091 -177.092237 
L 482.387623 -176.940195 
L 484.766156 -176.791228 
L 487.144688 -176.645462 
L 489.52322 -176.503003 
L 491.901752 -176.363935 
L 494.280285 -176.228313 
L 496.658817 -176.096159 
L 499.037349 -175.967459 
L 501.415882 -175.842158 
L 503.794414 -175.720158 
L 506.172946 -175.601314 
L 508.551479 -175.485437 
L 510.930011 -175.372301 
L 513.308543 -175.261634 
L 515.687076 -175.153126 
L 518.065608 -175.046426 
L 520.44414 -174.941154 
L 522.822673 -174.836908 
L 525.201205 -174.73327 
L 527.579737 -174.629822 
L 529.958269 -174.52614 
L 532.336802 -174.421816 
L 534.715334 -174.316471 
L 537.093866 -174.209768 
L 539.472399 -174.10142 
L 541.850931 -173.991197 
L 544.229463 -173.878928 
L 546.607996 -173.764527 
L 548.986528 -173.648008 
L 551.36506 -173.529482 
L 553.743593 -173.40917 
L 556.122125 -173.287395 
L 558.500657 -173.164568 
L 560.879189 -173.041212 
L 563.257722 -172.917946 
L 565.636254 -172.79548 
L 568.014786 -172.674599 
L 570.393319 -172.55614 
L 572.771851 -172.440976 
L 575.150383 -172.330006 
L 577.528916 -172.224143 
L 579.907448 -172.124292 
L 582.28598 -172.031326 
L 584.664513 -171.946053 
L 587.043045 -171.86919 
L 589.421577 -171.801353 
L 591.80011 -171.743045 
L 594.178642 -171.694637 
L 596.557174 -171.656351 
L 598.935706 -171.628243 
L 601.314239 -171.610184 
L 603.692771 -171.601857 
L 606.071303 -171.602758 
L 608.449836 -171.61221 
L 610.828368 -171.629355 
L 613.2069 -171.653164 
L 615.585433 -171.682451 
L 617.963965 -171.715883 
L 620.342497 -171.751996 
L 622.72103 -171.789226 
L 625.099562 -171.825931 
L 627.478094 -171.860422 
L 629.856627 -171.890972 
L 632.235159 -171.915853 
L 634.613691 -171.933362 
L 636.992223 -171.941843 
L 639.370756 -171.939715 
L 641.749288 -171.925499 
L 644.12782 -171.897846 
L 646.506353 -171.855567 
L 648.884885 -171.797633 
L 651.263417 -171.723188 
L 653.64195 -171.631584 
L 656.020482 -171.522382 
L 658.399014 -171.395358 
L 660.777547 -171.250494 
L 663.156079 -171.087985 
L 665.534611 -170.908246 
L 667.913143 -170.711915 
L 670.291676 -170.499837 
L 672.670208 -170.273045 
L 675.04874 -170.032767 
L 677.427273 -169.78042 
L 677.427273 -231.156799 
L 677.427273 -231.156799 
L 675.04874 -231.215501 
L 672.670208 -231.24138 
L 670.291676 -231.232794 
L 667.913143 -231.18851 
L 665.534611 -231.107718 
L 663.156079 -230.990037 
L 660.777547 -230.835524 
L 658.399014 -230.644669 
L 656.020482 -230.418401 
L 653.64195 -230.158073 
L 651.263417 -229.865431 
L 648.884885 -229.542585 
L 646.506353 -229.191976 
L 644.12782 -228.816343 
L 641.749288 -228.418675 
L 639.370756 -228.002158 
L 636.992223 -227.570123 
L 634.613691 -227.125983 
L 632.235159 -226.673179 
L 629.856627 -226.215117 
L 627.478094 -225.755116 
L 625.099562 -225.29635 
L 622.72103 -224.841805 
L 620.342497 -224.394237 
L 617.963965 -223.956121 
L 615.585433 -223.529621 
L 613.2069 -223.116572 
L 610.828368 -222.718466 
L 608.449836 -222.336449 
L 606.071303 -221.971319 
L 603.692771 -221.623534 
L 601.314239 -221.293236 
L 598.935706 -220.980274 
L 596.557174 -220.684225 
L 594.178642 -220.404425 
L 591.80011 -220.140013 
L 589.421577 -219.88996 
L 587.043045 -219.653113 
L 584.664513 -219.428232 
L 582.28598 -219.214031 
L 579.907448 -219.009213 
L 577.528916 -218.812513 
L 575.150383 -218.622736 
L 572.771851 -218.438787 
L 570.393319 -218.259692 
L 568.014786 -218.084631 
L 565.636254 -217.912948 
L 563.257722 -217.744171 
L 560.879189 -217.578021 
L 558.500657 -217.414414 
L 556.122125 -217.253463 
L 553.743593 -217.095473 
L 551.36506 -216.940922 
L 548.986528 -216.790452 
L 546.607996 -216.644845 
L 544.229463 -216.505004 
L 541.850931 -216.371917 
L 539.472399 -216.246631 
L 537.093866 -216.130216 
L 534.715334 -216.023728 
L 532.336802 -215.928169 
L 529.958269 -215.844451 
L 527.579737 -215.773364 
L 525.201205 -215.715541 
L 522.822673 -215.671439 
L 520.44414 -215.641307 
L 518.065608 -215.625172 
L 515.687076 -215.622824 
L 513.308543 -215.633808 
L 510.930011 -215.65741 
L 508.551479 -215.692671 
L 506.172946 -215.738389 
L 503.794414 -215.793128 
L 501.415882 -215.855234 
L 499.037349 -215.922876 
L 496.658817 -215.994053 
L 494.280285 -216.066634 
L 491.901752 -216.138394 
L 489.52322 -216.207056 
L 487.144688 -216.27032 
L 484.766156 -216.325906 
L 482.387623 -216.371588 
L 480.009091 -216.405232 
L 477.630559 -216.424837 
L 475.252026 -216.428569 
L 472.873494 -216.414801 
L 470.494962 -216.382143 
L 468.116429 -216.32947 
L 465.737897 -216.255937 
L 463.359365 -216.161007 
L 460.980832 -216.044452 
L 458.6023 -215.90637 
L 456.223768 -215.74717 
L 453.845235 -215.567565 
L 451.466703 -215.368557 
L 449.088171 -215.151422 
L 446.709639 -214.917678 
L 444.331106 -214.66906 
L 441.952574 -214.407482 
L 439.574042 -214.135001 
L 437.195509 -213.853778 
L 434.816977 -213.566029 
L 432.438445 -213.273998 
L 430.059912 -212.979905 
L 427.68138 -212.685916 
L 425.302848 -212.394109 
L 422.924315 -212.106446 
L 420.545783 -211.824751 
L 418.167251 -211.55069 
L 415.788719 -211.285759 
L 413.410186 -211.031272 
L 411.031654 -210.788361 
L 408.653122 -210.557976 
L 406.274589 -210.340886 
L 403.896057 -210.137691 
L 401.517525 -209.94883 
L 399.138992 -209.774597 
L 396.76046 -209.615174 
L 394.381928 -209.47063 
L 392.003395 -209.340937 
L 389.624863 -209.225994 
L 387.246331 -209.125631 
L 384.867798 -209.039624 
L 382.489266 -208.967705 
L 380.110734 -208.909579 
L 377.732202 -208.864927 
L 375.353669 -208.833417 
L 372.975137 -208.814711 
L 370.596605 -208.808462 
L 368.218072 -208.814313 
L 365.83954 -208.8319 
L 363.461008 -208.860855 
L 361.082475 -208.900799 
L 358.703943 -208.951339 
L 356.325411 -209.012067 
L 353.946878 -209.082557 
L 351.568346 -209.162361 
L 349.189814 -209.251011 
L 346.811281 -209.348013 
L 344.432749 -209.452831 
L 342.054217 -209.5649 
L 339.675685 -209.68362 
L 337.297152 -209.808355 
L 334.91862 -209.938445 
L 332.540088 -210.073201 
L 330.161555 -210.211913 
L 327.783023 -210.353843 
L 325.404491 -210.498242 
L 323.025958 -210.644342 
L 320.647426 -210.791373 
L 318.268894 -210.938569 
L 315.890361 -211.085172 
L 313.511829 -211.230435 
L 311.133297 -211.373639 
L 308.754765 -211.514097 
L 306.376232 -211.651168 
L 303.9977 -211.784259 
L 301.619168 -211.912836 
L 299.240635 -212.036429 
L 296.862103 -212.154638 
L 294.483571 -212.26715 
L 292.105038 -212.373746 
L 289.726506 -212.474305 
L 287.347974 -212.568805 
L 284.969441 -212.657331 
L 282.590909 -212.740078 
L 280.212377 -212.81736 
L 277.833844 -212.88961 
L 275.455312 -212.957391 
L 273.07678 -213.021381 
L 270.698248 -213.082365 
L 268.319715 -213.141229 
L 265.941183 -213.198939 
L 263.562651 -213.256539 
L 261.184118 -213.315124 
L 258.805586 -213.375822 
L 256.427054 -213.439765 
L 254.048521 -213.508062 
L 251.669989 -213.581768 
L 249.291457 -213.661862 
L 246.912924 -213.749221 
L 244.534392 -213.844595 
L 242.15586 -213.948589 
L 239.777327 -214.061654 
L 237.398795 -214.184069 
L 235.020263 -214.31594 
L 232.641731 -214.457207 
L 230.263198 -214.607647 
L 227.884666 -214.766887 
L 225.506134 -214.934424 
L 223.127601 -215.109651 
L 220.749069 -215.291875 
L 218.370537 -215.480352 
L 215.992004 -215.674306 
L 213.613472 -215.872962 
L 211.23494 -216.075567 
L 208.856407 -216.281414 
L 206.477875 -216.489865 
L 204.099343 -216.700363 
L 201.720811 -216.912446 
L 199.342278 -217.125753 
L 196.963746 -217.340028 
L 194.585214 -217.555116 
L 192.206681 -217.77096 
L 189.828149 -217.987588 
L 187.449617 -218.205102 
L 185.071084 -218.423656 
L 182.692552 -218.643437 
L 180.31402 -218.86464 
L 177.935487 -219.087446 
L 175.556955 -219.31199 
L 173.178423 -219.538343 
L 170.79989 -219.766474 
L 168.421358 -219.996226 
L 166.042826 -220.227293 
L 163.664294 -220.459196 
L 161.285761 -220.691266 
L 158.907229 -220.922624 
L 156.528697 -221.152167 
L 154.150164 -221.378568 
L 151.771632 -221.600275 
L 149.3931 -221.815502 
L 147.014567 -222.022222 
L 144.636035 -222.218193 
L 142.257503 -222.400959 
L 139.87897 -222.567886 
L 137.500438 -222.716186 
L 135.121906 -222.842946 
L 132.743373 -222.945165 
L 130.364841 -223.019789 
L 127.986309 -223.063743 
L 125.607777 -223.073976 
L 123.229244 -223.047505 
L 120.850712 -222.981457 
L 118.47218 -222.873105 
L 116.093647 -222.719902 
L 113.715115 -222.519515 
L 111.336583 -222.26986 
L 108.95805 -221.969124 
L 106.579518 -221.615784 
L 104.200986 -221.208629 
L 101.822453 -220.74678 
L 99.443921 -220.229687 
L 97.065389 -219.657136 
L 94.686857 -219.029241 
L 92.308324 -218.34644 
L 89.929792 -217.609508 
L 87.55126 -216.819539 
L 85.172727 -215.977928 
z
" style="stroke: #000080; stroke-opacity: 0.1"/>
    </defs>
    <g clip-path="url(#p8c36acbd4f)">
     <use xlink:href="#m1ebda2a2b3" x="0" y="360" style="fill: #000080; fill-opacity: 0.1; stroke: #000080; stroke-opacity: 0.1"/>
    </g>
   </g>
   <g id="FillBetweenPolyCollection_2">
    <defs>
     <path id="m5cf92669d0" d="M 85.172727 -222.875055 
L 85.172727 -186.598412 
L 87.55126 -187.364409 
L 89.929792 -188.104326 
L 92.308324 -188.816626 
L 94.686857 -189.499966 
L 97.065389 -190.153203 
L 99.443921 -190.775396 
L 101.822453 -191.365827 
L 104.200986 -191.923992 
L 106.579518 -192.449599 
L 108.95805 -192.942571 
L 111.336583 -193.403036 
L 113.715115 -193.831323 
L 116.093647 -194.227953 
L 118.47218 -194.593625 
L 120.850712 -194.929187 
L 123.229244 -195.235614 
L 125.607777 -195.513992 
L 127.986309 -195.765496 
L 130.364841 -195.991364 
L 132.743373 -196.192877 
L 135.121906 -196.371327 
L 137.500438 -196.528 
L 139.87897 -196.664157 
L 142.257503 -196.781013 
L 144.636035 -196.879731 
L 147.014567 -196.961399 
L 149.3931 -197.027036 
L 151.771632 -197.077566 
L 154.150164 -197.113834 
L 156.528697 -197.136598 
L 158.907229 -197.146554 
L 161.285761 -197.144344 
L 163.664294 -197.130573 
L 166.042826 -197.10582 
L 168.421358 -197.070662 
L 170.79989 -197.025691 
L 173.178423 -196.971527 
L 175.556955 -196.908842 
L 177.935487 -196.838372 
L 180.31402 -196.760938 
L 182.692552 -196.677457 
L 185.071084 -196.588954 
L 187.449617 -196.496567 
L 189.828149 -196.401548 
L 192.206681 -196.305266 
L 194.585214 -196.209199 
L 196.963746 -196.114913 
L 199.342278 -196.024054 
L 201.720811 -195.938317 
L 204.099343 -195.859428 
L 206.477875 -195.789106 
L 208.856407 -195.729034 
L 211.23494 -195.680825 
L 213.613472 -195.645982 
L 215.992004 -195.625868 
L 218.370537 -195.621667 
L 220.749069 -195.634364 
L 223.127601 -195.664724 
L 225.506134 -195.713276 
L 227.884666 -195.780313 
L 230.263198 -195.865891 
L 232.641731 -195.969842 
L 235.020263 -196.091792 
L 237.398795 -196.23119 
L 239.777327 -196.387332 
L 242.15586 -196.559397 
L 244.534392 -196.746479 
L 246.912924 -196.947617 
L 249.291457 -197.161828 
L 251.669989 -197.388136 
L 254.048521 -197.625596 
L 256.427054 -197.873322 
L 258.805586 -198.130504 
L 261.184118 -198.396433 
L 263.562651 -198.670512 
L 265.941183 -198.952282 
L 268.319715 -199.241438 
L 270.698248 -199.537842 
L 273.07678 -199.84154 
L 275.455312 -200.152766 
L 277.833844 -200.471946 
L 280.212377 -200.799701 
L 282.590909 -201.13683 
L 284.969441 -201.484305 
L 287.347974 -201.843243 
L 289.726506 -202.214878 
L 292.105038 -202.600533 
L 294.483571 -203.001575 
L 296.862103 -203.419369 
L 299.240635 -203.855234 
L 301.619168 -204.310391 
L 303.9977 -204.785908 
L 306.376232 -205.28265 
L 308.754765 -205.801232 
L 311.133297 -206.341971 
L 313.511829 -206.904854 
L 315.890361 -207.489502 
L 318.268894 -208.095142 
L 320.647426 -208.720598 
L 323.025958 -209.364281 
L 325.404491 -210.024195 
L 327.783023 -210.697947 
L 330.161555 -211.382768 
L 332.540088 -212.075533 
L 334.91862 -212.7728 
L 337.297152 -213.470848 
L 339.675685 -214.165722 
L 342.054217 -214.853284 
L 344.432749 -215.529252 
L 346.811281 -216.189253 
L 349.189814 -216.828865 
L 351.568346 -217.443675 
L 353.946878 -218.029313 
L 356.325411 -218.581506 
L 358.703943 -219.096111 
L 361.082475 -219.569152 
L 363.461008 -219.996859 
L 365.83954 -220.375692 
L 368.218072 -220.702367 
L 370.596605 -220.97388 
L 372.975137 -221.187521 
L 375.353669 -221.340906 
L 377.732202 -221.431969 
L 380.110734 -221.458978 
L 382.489266 -221.420542 
L 384.867798 -221.315611 
L 387.246331 -221.143479 
L 389.624863 -220.903796 
L 392.003395 -220.596571 
L 394.381928 -220.222178 
L 396.76046 -219.78137 
L 399.138992 -219.275296 
L 401.517525 -218.705502 
L 403.896057 -218.073946 
L 406.274589 -217.38303 
L 408.653122 -216.635604 
L 411.031654 -215.834985 
L 413.410186 -214.984962 
L 415.788719 -214.089797 
L 418.167251 -213.154201 
L 420.545783 -212.183305 
L 422.924315 -211.182605 
L 425.302848 -210.15789 
L 427.68138 -209.115161 
L 430.059912 -208.060519 
L 432.438445 -207.000067 
L 434.816977 -205.939786 
L 437.195509 -204.885417 
L 439.574042 -203.842357 
L 441.952574 -202.815556 
L 444.331106 -201.809438 
L 446.709639 -200.827842 
L 449.088171 -199.873989 
L 451.466703 -198.950462 
L 453.845235 -198.059215 
L 456.223768 -197.201591 
L 458.6023 -196.378361 
L 460.980832 -195.589785 
L 463.359365 -194.835678 
L 465.737897 -194.115492 
L 468.116429 -193.428387 
L 470.494962 -192.773305 
L 472.873494 -192.14904 
L 475.252026 -191.554305 
L 477.630559 -190.987799 
L 480.009091 -190.44826 
L 482.387623 -189.934507 
L 484.766156 -189.44547 
L 487.144688 -188.980217 
L 489.52322 -188.537967 
L 491.901752 -188.1181 
L 494.280285 -187.720155 
L 496.658817 -187.343819 
L 499.037349 -186.988904 
L 501.415882 -186.655322 
L 503.794414 -186.343059 
L 506.172946 -186.052132 
L 508.551479 -185.782564 
L 510.930011 -185.534345 
L 513.308543 -185.307391 
L 515.687076 -185.101507 
L 518.065608 -184.916353 
L 520.44414 -184.751421 
L 522.822673 -184.60601 
L 525.201205 -184.479214 
L 527.579737 -184.369912 
L 529.958269 -184.276755 
L 532.336802 -184.198172 
L 534.715334 -184.132394 
L 537.093866 -184.077471 
L 539.472399 -184.031291 
L 541.850931 -183.9916 
L 544.229463 -183.956022 
L 546.607996 -183.922114 
L 548.986528 -183.887411 
L 551.36506 -183.849458 
L 553.743593 -183.805849 
L 556.122125 -183.754254 
L 558.500657 -183.692438 
L 560.879189 -183.61832 
L 563.257722 -183.530001 
L 565.636254 -183.425788 
L 568.014786 -183.304215 
L 570.393319 -183.164053 
L 572.771851 -183.00431 
L 575.150383 -182.824264 
L 577.528916 -182.623472 
L 579.907448 -182.401781 
L 582.28598 -182.159307 
L 584.664513 -181.896432 
L 587.043045 -181.613773 
L 589.421577 -181.312179 
L 591.80011 -180.992737 
L 594.178642 -180.656754 
L 596.557174 -180.305729 
L 598.935706 -179.941327 
L 601.314239 -179.565342 
L 603.692771 -179.179664 
L 606.071303 -178.786264 
L 608.449836 -178.387182 
L 610.828368 -177.98449 
L 613.2069 -177.580257 
L 615.585433 -177.176529 
L 617.963965 -176.775285 
L 620.342497 -176.378411 
L 622.72103 -175.987691 
L 625.099562 -175.604792 
L 627.478094 -175.231248 
L 629.856627 -174.868437 
L 632.235159 -174.517582 
L 634.613691 -174.179744 
L 636.992223 -173.855815 
L 639.370756 -173.54652 
L 641.749288 -173.252434 
L 644.12782 -172.974011 
L 646.506353 -172.711612 
L 648.884885 -172.465501 
L 651.263417 -172.235869 
L 653.64195 -172.022876 
L 656.020482 -171.82666 
L 658.399014 -171.647351 
L 660.777547 -171.485096 
L 663.156079 -171.340098 
L 665.534611 -171.212632 
L 667.913143 -171.103061 
L 670.291676 -171.011836 
L 672.670208 -170.939489 
L 675.04874 -170.886672 
L 677.427273 -170.854153 
L 677.427273 -225.380994 
L 677.427273 -225.380994 
L 675.04874 -224.904287 
L 672.670208 -224.449534 
L 670.291676 -224.016888 
L 667.913143 -223.606722 
L 665.534611 -223.219615 
L 663.156079 -222.856352 
L 660.777547 -222.517907 
L 658.399014 -222.205422 
L 656.020482 -221.920176 
L 653.64195 -221.663566 
L 651.263417 -221.437053 
L 648.884885 -221.242122 
L 646.506353 -221.080226 
L 644.12782 -220.952733 
L 641.749288 -220.860876 
L 639.370756 -220.805695 
L 636.992223 -220.787986 
L 634.613691 -220.808252 
L 632.235159 -220.866657 
L 629.856627 -220.963 
L 627.478094 -221.096689 
L 625.099562 -221.26672 
L 622.72103 -221.471669 
L 620.342497 -221.709707 
L 617.963965 -221.978602 
L 615.585433 -222.275743 
L 613.2069 -222.598183 
L 610.828368 -222.942688 
L 608.449836 -223.305799 
L 606.071303 -223.68388 
L 603.692771 -224.073173 
L 601.314239 -224.469879 
L 598.935706 -224.870214 
L 596.557174 -225.270473 
L 594.178642 -225.6671 
L 591.80011 -226.056741 
L 589.421577 -226.436299 
L 587.043045 -226.802981 
L 584.664513 -227.154337 
L 582.28598 -227.488305 
L 579.907448 -227.803238 
L 577.528916 -228.097937 
L 575.150383 -228.371671 
L 572.771851 -228.624176 
L 570.393319 -228.855652 
L 568.014786 -229.066757 
L 565.636254 -229.258593 
L 563.257722 -229.432688 
L 560.879189 -229.590962 
L 558.500657 -229.735683 
L 556.122125 -229.869422 
L 553.743593 -229.995 
L 551.36506 -230.115432 
L 548.986528 -230.233859 
L 546.607996 -230.353485 
L 544.229463 -230.477507 
L 541.850931 -230.609037 
L 539.472399 -230.751035 
L 537.093866 -230.906248 
L 534.715334 -231.07715 
L 532.336802 -231.265877 
L 529.958269 -231.474183 
L 527.579737 -231.703406 
L 525.201205 -231.954439 
L 522.822673 -232.227732 
L 520.44414 -232.523282 
L 518.065608 -232.840649 
L 515.687076 -233.178981 
L 513.308543 -233.537043 
L 510.930011 -233.913253 
L 508.551479 -234.305742 
L 506.172946 -234.712404 
L 503.794414 -235.13095 
L 501.415882 -235.558971 
L 499.037349 -235.994018 
L 496.658817 -236.433658 
L 494.280285 -236.875529 
L 491.901752 -237.317422 
L 489.52322 -237.757334 
L 487.144688 -238.193512 
L 484.766156 -238.624507 
L 482.387623 -239.049207 
L 480.009091 -239.46687 
L 477.630559 -239.87715 
L 475.252026 -240.280117 
L 472.873494 -240.676262 
L 470.494962 -241.066497 
L 468.116429 -241.452144 
L 465.737897 -241.834911 
L 463.359365 -242.216864 
L 460.980832 -242.600377 
L 458.6023 -242.988089 
L 456.223768 -243.382832 
L 453.845235 -243.787562 
L 451.466703 -244.205278 
L 449.088171 -244.638941 
L 446.709639 -245.091375 
L 444.331106 -245.565177 
L 441.952574 -246.062616 
L 439.574042 -246.585535 
L 437.195509 -247.135255 
L 434.816977 -247.712478 
L 432.438445 -248.317214 
L 430.059912 -248.948699 
L 427.68138 -249.605345 
L 425.302848 -250.284696 
L 422.924315 -250.983429 
L 420.545783 -251.697364 
L 418.167251 -252.421501 
L 415.788719 -253.150093 
L 413.410186 -253.876729 
L 411.031654 -254.594452 
L 408.653122 -255.295892 
L 406.274589 -255.973408 
L 403.896057 -256.619242 
L 401.517525 -257.225673 
L 399.138992 -257.785173 
L 396.76046 -258.290554 
L 394.381928 -258.735087 
L 392.003395 -259.112618 
L 389.624863 -259.417664 
L 387.246331 -259.645493 
L 384.867798 -259.792194 
L 382.489266 -259.854723 
L 380.110734 -259.83094 
L 377.732202 -259.719632 
L 375.353669 -259.520521 
L 372.975137 -259.234263 
L 370.596605 -258.862426 
L 368.218072 -258.407466 
L 365.83954 -257.87268 
L 363.461008 -257.262173 
L 361.082475 -256.580796 
L 358.703943 -255.834074 
L 356.325411 -255.028134 
L 353.946878 -254.169613 
L 351.568346 -253.26557 
L 349.189814 -252.32338 
L 346.811281 -251.350621 
L 344.432749 -250.354953 
L 342.054217 -249.344006 
L 339.675685 -248.325257 
L 337.297152 -247.305918 
L 334.91862 -246.292827 
L 332.540088 -245.29234 
L 330.161555 -244.310244 
L 327.783023 -243.351672 
L 325.404491 -242.421048 
L 323.025958 -241.522044 
L 320.647426 -240.657558 
L 318.268894 -239.829712 
L 315.890361 -239.039865 
L 313.511829 -238.288648 
L 311.133297 -237.576018 
L 308.754765 -236.901332 
L 306.376232 -236.263422 
L 303.9977 -235.660688 
L 301.619168 -235.091189 
L 299.240635 -234.552743 
L 296.862103 -234.043034 
L 294.483571 -233.559718 
L 292.105038 -233.100521 
L 289.726506 -232.663331 
L 287.347974 -232.24628 
L 284.969441 -231.847826 
L 282.590909 -231.46682 
L 280.212377 -231.102562 
L 277.833844 -230.754852 
L 275.455312 -230.424021 
L 273.07678 -230.11094 
L 270.698248 -229.817012 
L 268.319715 -229.544158 
L 265.941183 -229.294769 
L 263.562651 -229.071658 
L 261.184118 -228.877982 
L 258.805586 -228.717144 
L 256.427054 -228.592687 
L 254.048521 -228.508167 
L 251.669989 -228.467018 
L 249.291457 -228.472421 
L 246.912924 -228.527162 
L 244.534392 -228.633506 
L 242.15586 -228.793076 
L 239.777327 -229.006752 
L 237.398795 -229.274591 
L 235.020263 -229.595773 
L 232.641731 -229.968579 
L 230.263198 -230.390397 
L 227.884666 -230.857752 
L 225.506134 -231.366366 
L 223.127601 -231.911245 
L 220.749069 -232.486773 
L 218.370537 -233.086835 
L 215.992004 -233.704939 
L 213.613472 -234.334343 
L 211.23494 -234.968192 
L 208.856407 -235.599638 
L 206.477875 -236.221967 
L 204.099343 -236.828707 
L 201.720811 -237.413727 
L 199.342278 -237.971326 
L 196.963746 -238.496302 
L 194.585214 -238.984012 
L 192.206681 -239.43042 
L 189.828149 -239.832127 
L 187.449617 -240.186384 
L 185.071084 -240.491099 
L 182.692552 -240.744828 
L 180.31402 -240.946755 
L 177.935487 -241.096662 
L 175.556955 -241.194897 
L 173.178423 -241.24232 
L 170.79989 -241.240257 
L 168.421358 -241.190437 
L 166.042826 -241.094927 
L 163.664294 -240.956072 
L 161.285761 -240.776427 
L 158.907229 -240.558689 
L 156.528697 -240.305627 
L 154.150164 -240.020026 
L 151.771632 -239.704616 
L 149.3931 -239.362017 
L 147.014567 -238.994668 
L 144.636035 -238.604796 
L 142.257503 -238.194364 
L 139.87897 -237.765052 
L 137.500438 -237.318234 
L 135.121906 -236.854967 
L 132.743373 -236.375985 
L 130.364841 -235.881707 
L 127.986309 -235.372248 
L 125.607777 -234.847445 
L 123.229244 -234.306886 
L 120.850712 -233.749956 
L 118.47218 -233.175874 
L 116.093647 -232.583733 
L 113.715115 -231.972552 
L 111.336583 -231.341319 
L 108.95805 -230.689041 
L 106.579518 -230.014776 
L 104.200986 -229.317686 
L 101.822453 -228.597072 
L 99.443921 -227.852398 
L 97.065389 -227.083319 
L 94.686857 -226.289692 
L 92.308324 -225.471599 
L 89.929792 -224.62937 
L 87.55126 -223.763581 
L 85.172727 -222.875055 
z
" style="stroke: #000080; stroke-opacity: 0.1"/>
    </defs>
    <g clip-path="url(#p8c36acbd4f)">
     <use xlink:href="#m5cf92669d0" x="0" y="360" style="fill: #000080; fill-opacity: 0.1; stroke: #000080; stroke-opacity: 0.1"/>
    </g>
   </g>
   <g id="line2d_1">
    <path d="M 85.172727 162.278596 
L 89.929792 160.780287 
L 94.686857 159.475247 
L 99.443921 158.373364 
L 104.200986 157.479574 
L 108.95805 156.793572 
L 113.715115 156.3097 
L 118.47218 156.017061 
L 123.229244 155.89998 
L 130.364841 156.009615 
L 137.500438 156.391101 
L 147.014567 157.176521 
L 177.935487 160.016648 
L 189.828149 160.758542 
L 201.720811 161.247345 
L 213.613472 161.513277 
L 227.884666 161.590874 
L 246.912924 161.428398 
L 270.698248 161.227294 
L 287.347974 161.323713 
L 306.376232 161.682077 
L 346.811281 162.768994 
L 375.353669 163.423301 
L 392.003395 163.607252 
L 406.274589 163.573317 
L 422.924315 163.303608 
L 451.466703 162.765248 
L 463.359365 162.804699 
L 475.252026 163.083242 
L 491.901752 163.748835 
L 510.930011 164.485144 
L 522.822673 164.745827 
L 537.093866 164.830008 
L 560.879189 164.690384 
L 579.907448 164.433247 
L 591.80011 164.058471 
L 601.314239 163.54829 
L 610.828368 162.82609 
L 622.72103 161.684485 
L 641.749288 159.827913 
L 648.884885 159.329891 
L 656.020482 159.029608 
L 663.156079 158.960989 
L 670.291676 159.133684 
L 677.427273 159.531391 
L 677.427273 159.531391 
" clip-path="url(#p8c36acbd4f)" style="fill: none; stroke: #000080; stroke-width: 1.5; stroke-linecap: round"/>
   </g>
   <g id="line2d_2">
    <path d="M 85.172727 155.263266 
L 92.308324 152.855888 
L 99.443921 150.686103 
L 106.579518 148.767813 
L 113.715115 147.098063 
L 120.850712 145.660428 
L 127.986309 144.431128 
L 135.121906 143.386853 
L 144.636035 142.257737 
L 151.771632 141.608909 
L 158.907229 141.147378 
L 166.042826 140.899627 
L 173.178423 140.893076 
L 180.31402 141.146154 
L 187.449617 141.658525 
L 194.585214 142.403395 
L 204.099343 143.655932 
L 220.749069 145.939431 
L 227.884666 146.680968 
L 235.020263 147.156217 
L 242.15586 147.323764 
L 249.291457 147.182876 
L 256.427054 146.766995 
L 263.562651 146.128915 
L 273.07678 145.02376 
L 282.590909 143.698175 
L 292.105038 142.149473 
L 299.240635 140.796012 
L 306.376232 139.226964 
L 313.511829 137.403249 
L 320.647426 135.310922 
L 327.783023 132.97519 
L 339.675685 128.75451 
L 349.189814 125.423878 
L 356.325411 123.19518 
L 361.082475 121.925026 
L 365.83954 120.875814 
L 370.596605 120.081847 
L 375.353669 119.569287 
L 380.110734 119.355041 
L 384.867798 119.446097 
L 389.624863 119.83927 
L 394.381928 120.521367 
L 399.138992 121.469766 
L 403.896057 122.653406 
L 408.653122 124.034252 
L 415.788719 126.380055 
L 427.68138 130.639747 
L 437.195509 133.989664 
L 444.331106 136.312693 
L 451.466703 138.42213 
L 458.6023 140.316775 
L 468.116429 142.559734 
L 477.630559 144.567525 
L 489.52322 146.85235 
L 501.415882 148.892853 
L 510.930011 150.276201 
L 518.065608 151.121499 
L 525.201205 151.783173 
L 534.715334 152.395228 
L 546.607996 152.8622 
L 560.879189 153.395359 
L 570.393319 153.990148 
L 577.528916 154.639295 
L 584.664513 155.474615 
L 594.178642 156.838073 
L 622.72103 161.27032 
L 629.856627 162.084282 
L 636.992223 162.678099 
L 644.12782 163.036628 
L 651.263417 163.163539 
L 658.399014 163.073614 
L 665.534611 162.783877 
L 672.670208 162.305488 
L 677.427273 161.882427 
L 677.427273 161.882427 
" clip-path="url(#p8c36acbd4f)" style="fill: none; stroke-dasharray: 5.55,2.4; stroke-dashoffset: 0; stroke: #000080; stroke-width: 1.5"/>
   </g>
   <g id="patch_3">
    <path d="M 55.56 310.98 
L 55.56 28.08 
" style="fill: none; stroke: #ffffff; stroke-width: 1.25; stroke-linejoin: miter; stroke-linecap: square"/>
   </g>
   <g id="patch_4">
    <path d="M 707.04 310.98 
L 707.04 28.08 
" style="fill: none; stroke: #ffffff; stroke-width: 1.25; stroke-linejoin: miter; stroke-linecap: square"/>
   </g>
   <g id="patch_5">
    <path d="M 55.56 310.98 
L 707.04 310.98 
" style="fill: none; stroke: #ffffff; stroke-width: 1.25; stroke-linejoin: miter; stroke-linecap: square"/>
   </g>
   <g id="patch_6">
    <path d="M 55.56 28.08 
L 707.04 28.08 
" style="fill: none; stroke: #ffffff; stroke-width: 1.25; stroke-linejoin: miter; stroke-linecap: square"/>
   </g>
   <g id="text_14">
    <!-- QG3L - [112, 176] x [64, 192] -->
    <g style="fill: #262626" transform="translate(292.44 22.08) scale(0.12 -0.12)">
     <defs>
      <path id="DejaVuSans-51" d="M 2522 4238 
Q 1834 4238 1429 3725 
Q 1025 3213 1025 2328 
Q 1025 1447 1429 934 
Q 1834 422 2522 422 
Q 3209 422 3611 934 
Q 4013 1447 4013 2328 
Q 4013 3213 3611 3725 
Q 3209 4238 2522 4238 
z
M 3406 84 
L 4238 -825 
L 3475 -825 
L 2784 -78 
Q 2681 -84 2626 -87 
Q 2572 -91 2522 -91 
Q 1538 -91 948 567 
Q 359 1225 359 2328 
Q 359 3434 948 4092 
Q 1538 4750 2522 4750 
Q 3503 4750 4090 4092 
Q 4678 3434 4678 2328 
Q 4678 1516 4351 937 
Q 4025 359 3406 84 
z
" transform="scale(0.015625)"/>
      <path id="DejaVuSans-47" d="M 3809 666 
L 3809 1919 
L 2778 1919 
L 2778 2438 
L 4434 2438 
L 4434 434 
Q 4069 175 3628 42 
Q 3188 -91 2688 -91 
Q 1594 -91 976 548 
Q 359 1188 359 2328 
Q 359 3472 976 4111 
Q 1594 4750 2688 4750 
Q 3144 4750 3555 4637 
Q 3966 4525 4313 4306 
L 4313 3634 
Q 3963 3931 3569 4081 
Q 3175 4231 2741 4231 
Q 1884 4231 1454 3753 
Q 1025 3275 1025 2328 
Q 1025 1384 1454 906 
Q 1884 428 2741 428 
Q 3075 428 3337 486 
Q 3600 544 3809 666 
z
" transform="scale(0.015625)"/>
      <path id="DejaVuSans-33" d="M 2597 2516 
Q 3050 2419 3304 2112 
Q 3559 1806 3559 1356 
Q 3559 666 3084 287 
Q 2609 -91 1734 -91 
Q 1441 -91 1130 -33 
Q 819 25 488 141 
L 488 750 
Q 750 597 1062 519 
Q 1375 441 1716 441 
Q 2309 441 2620 675 
Q 2931 909 2931 1356 
Q 2931 1769 2642 2001 
Q 2353 2234 1838 2234 
L 1294 2234 
L 1294 2753 
L 1863 2753 
Q 2328 2753 2575 2939 
Q 2822 3125 2822 3475 
Q 2822 3834 2567 4026 
Q 2313 4219 1838 4219 
Q 1578 4219 1281 4162 
Q 984 4106 628 3988 
L 628 4550 
Q 988 4650 1302 4700 
Q 1616 4750 1894 4750 
Q 2613 4750 3031 4423 
Q 3450 4097 3450 3541 
Q 3450 3153 3228 2886 
Q 3006 2619 2597 2516 
z
" transform="scale(0.015625)"/>
      <path id="DejaVuSans-4c" d="M 628 4666 
L 1259 4666 
L 1259 531 
L 3531 531 
L 3531 0 
L 628 0 
L 628 4666 
z
" transform="scale(0.015625)"/>
      <path id="DejaVuSans-2d" d="M 313 2009 
L 1997 2009 
L 1997 1497 
L 313 1497 
L 313 2009 
z
" transform="scale(0.015625)"/>
      <path id="DejaVuSans-2c" d="M 750 794 
L 1409 794 
L 1409 256 
L 897 -744 
L 494 -744 
L 750 256 
L 750 794 
z
" transform="scale(0.015625)"/>
      <path id="DejaVuSans-37" d="M 525 4666 
L 3525 4666 
L 3525 4397 
L 1831 0 
L 1172 0 
L 2766 4134 
L 525 4134 
L 525 4666 
z
" transform="scale(0.015625)"/>
      <path id="DejaVuSans-78" d="M 3513 3500 
L 2247 1797 
L 3578 0 
L 2900 0 
L 1881 1375 
L 863 0 
L 184 0 
L 1544 1831 
L 300 3500 
L 978 3500 
L 1906 2253 
L 2834 3500 
L 3513 3500 
z
" transform="scale(0.015625)"/>
      <path id="DejaVuSans-39" d="M 703 97 
L 703 672 
Q 941 559 1184 500 
Q 1428 441 1663 441 
Q 2288 441 2617 861 
Q 2947 1281 2994 2138 
Q 2813 1869 2534 1725 
Q 2256 1581 1919 1581 
Q 1219 1581 811 2004 
Q 403 2428 403 3163 
Q 403 3881 828 4315 
Q 1253 4750 1959 4750 
Q 2769 4750 3195 4129 
Q 3622 3509 3622 2328 
Q 3622 1225 3098 567 
Q 2575 -91 1691 -91 
Q 1453 -91 1209 -44 
Q 966 3 703 97 
z
M 1959 2075 
Q 2384 2075 2632 2365 
Q 2881 2656 2881 3163 
Q 2881 3666 2632 3958 
Q 2384 4250 1959 4250 
Q 1534 4250 1286 3958 
Q 1038 3666 1038 3163 
Q 1038 2656 1286 2365 
Q 1534 2075 1959 2075 
z
" transform="scale(0.015625)"/>
     </defs>
     <use xlink:href="#DejaVuSans-51"/>
     <use xlink:href="#DejaVuSans-47" transform="translate(78.710938 0)"/>
     <use xlink:href="#DejaVuSans-33" transform="translate(156.201172 0)"/>
     <use xlink:href="#DejaVuSans-4c" transform="translate(219.824219 0)"/>
     <use xlink:href="#DejaVuSans-20" transform="translate(275.537109 0)"/>
     <use xlink:href="#DejaVuSans-2d" transform="translate(307.324219 0)"/>
     <use xlink:href="#DejaVuSans-20" transform="translate(343.408203 0)"/>
     <use xlink:href="#DejaVuSans-5b" transform="translate(375.195312 0)"/>
     <use xlink:href="#DejaVuSans-31" transform="translate(414.208984 0)"/>
     <use xlink:href="#DejaVuSans-31" transform="translate(477.832031 0)"/>
     <use xlink:href="#DejaVuSans-32" transform="translate(541.455078 0)"/>
     <use xlink:href="#DejaVuSans-2c" transform="translate(605.078125 0)"/>
     <use xlink:href="#DejaVuSans-20" transform="translate(636.865234 0)"/>
     <use xlink:href="#DejaVuSans-31" transform="translate(668.652344 0)"/>
     <use xlink:href="#DejaVuSans-37" transform="translate(732.275391 0)"/>
     <use xlink:href="#DejaVuSans-36" transform="translate(795.898438 0)"/>
     <use xlink:href="#DejaVuSans-5d" transform="translate(859.521484 0)"/>
     <use xlink:href="#DejaVuSans-20" transform="translate(898.535156 0)"/>
     <use xlink:href="#DejaVuSans-78" transform="translate(930.322266 0)"/>
     <use xlink:href="#DejaVuSans-20" transform="translate(989.501953 0)"/>
     <use xlink:href="#DejaVuSans-5b" transform="translate(1021.289062 0)"/>
     <use xlink:href="#DejaVuSans-36" transform="translate(1060.302734 0)"/>
     <use xlink:href="#DejaVuSans-34" transform="translate(1123.925781 0)"/>
     <use xlink:href="#DejaVuSans-2c" transform="translate(1187.548828 0)"/>
     <use xlink:href="#DejaVuSans-20" transform="translate(1219.335938 0)"/>
     <use xlink:href="#DejaVuSans-31" transform="translate(1251.123047 0)"/>
     <use xlink:href="#DejaVuSans-39" transform="translate(1314.746094 0)"/>
     <use xlink:href="#DejaVuSans-32" transform="translate(1378.369141 0)"/>
     <use xlink:href="#DejaVuSans-5d" transform="translate(1441.992188 0)"/>
    </g>
   </g>
   <g id="legend_1">
    <g id="patch_7">
     <path d="M 517.924219 69.171875 
L 699.34 69.171875 
Q 701.54 69.171875 701.54 66.971875 
L 701.54 35.78 
Q 701.54 33.58 699.34 33.58 
L 517.924219 33.58 
Q 515.724219 33.58 515.724219 35.78 
L 515.724219 66.971875 
Q 515.724219 69.171875 517.924219 69.171875 
z
" style="fill: #eaeaf2; opacity: 0.8; stroke: #cccccc; stroke-linejoin: miter"/>
    </g>
    <g id="line2d_3">
     <path d="M 520.124219 42.488281 
L 531.124219 42.488281 
L 542.124219 42.488281 
" style="fill: none; stroke: #000080; stroke-width: 1.5; stroke-linecap: round"/>
    </g>
    <g id="text_15">
     <!-- SurfML -->
     <g style="fill: #262626" transform="translate(550.924219 46.338281) scale(0.11 -0.11)">
      <defs>
       <path id="DejaVuSans-75" d="M 544 1381 
L 544 3500 
L 1119 3500 
L 1119 1403 
Q 1119 906 1312 657 
Q 1506 409 1894 409 
Q 2359 409 2629 706 
Q 2900 1003 2900 1516 
L 2900 3500 
L 3475 3500 
L 3475 0 
L 2900 0 
L 2900 538 
Q 2691 219 2414 64 
Q 2138 -91 1772 -91 
Q 1169 -91 856 284 
Q 544 659 544 1381 
z
M 1991 3584 
L 1991 3584 
z
" transform="scale(0.015625)"/>
       <path id="DejaVuSans-72" d="M 2631 2963 
Q 2534 3019 2420 3045 
Q 2306 3072 2169 3072 
Q 1681 3072 1420 2755 
Q 1159 2438 1159 1844 
L 1159 0 
L 581 0 
L 581 3500 
L 1159 3500 
L 1159 2956 
Q 1341 3275 1631 3429 
Q 1922 3584 2338 3584 
Q 2397 3584 2469 3576 
Q 2541 3569 2628 3553 
L 2631 2963 
z
" transform="scale(0.015625)"/>
       <path id="DejaVuSans-66" d="M 2375 4863 
L 2375 4384 
L 1825 4384 
Q 1516 4384 1395 4259 
Q 1275 4134 1275 3809 
L 1275 3500 
L 2222 3500 
L 2222 3053 
L 1275 3053 
L 1275 0 
L 697 0 
L 697 3053 
L 147 3053 
L 147 3500 
L 697 3500 
L 697 3744 
Q 697 4328 969 4595 
Q 1241 4863 1831 4863 
L 2375 4863 
z
" transform="scale(0.015625)"/>
      </defs>
      <use xlink:href="#DejaVuSans-53"/>
      <use xlink:href="#DejaVuSans-75" transform="translate(63.476562 0)"/>
      <use xlink:href="#DejaVuSans-72" transform="translate(126.855469 0)"/>
      <use xlink:href="#DejaVuSans-66" transform="translate(167.96875 0)"/>
      <use xlink:href="#DejaVuSans-4d" transform="translate(203.173828 0)"/>
      <use xlink:href="#DejaVuSans-4c" transform="translate(289.453125 0)"/>
     </g>
    </g>
    <g id="line2d_4">
     <path d="M 520.124219 58.634219 
L 531.124219 58.634219 
L 542.124219 58.634219 
" style="fill: none; stroke-dasharray: 5.55,2.4; stroke-dashoffset: 0; stroke: #000080; stroke-width: 1.5"/>
    </g>
    <g id="text_16">
     <!-- SurfML - No Regularization -->
     <g style="fill: #262626" transform="translate(550.924219 62.484219) scale(0.11 -0.11)">
      <defs>
       <path id="DejaVuSans-4e" d="M 628 4666 
L 1478 4666 
L 3547 763 
L 3547 4666 
L 4159 4666 
L 4159 0 
L 3309 0 
L 1241 3903 
L 1241 0 
L 628 0 
L 628 4666 
z
" transform="scale(0.015625)"/>
       <path id="DejaVuSans-6f" d="M 1959 3097 
Q 1497 3097 1228 2736 
Q 959 2375 959 1747 
Q 959 1119 1226 758 
Q 1494 397 1959 397 
Q 2419 397 2687 759 
Q 2956 1122 2956 1747 
Q 2956 2369 2687 2733 
Q 2419 3097 1959 3097 
z
M 1959 3584 
Q 2709 3584 3137 3096 
Q 3566 2609 3566 1747 
Q 3566 888 3137 398 
Q 2709 -91 1959 -91 
Q 1206 -91 779 398 
Q 353 888 353 1747 
Q 353 2609 779 3096 
Q 1206 3584 1959 3584 
z
" transform="scale(0.015625)"/>
       <path id="DejaVuSans-67" d="M 2906 1791 
Q 2906 2416 2648 2759 
Q 2391 3103 1925 3103 
Q 1463 3103 1205 2759 
Q 947 2416 947 1791 
Q 947 1169 1205 825 
Q 1463 481 1925 481 
Q 2391 481 2648 825 
Q 2906 1169 2906 1791 
z
M 3481 434 
Q 3481 -459 3084 -895 
Q 2688 -1331 1869 -1331 
Q 1566 -1331 1297 -1286 
Q 1028 -1241 775 -1147 
L 775 -588 
Q 1028 -725 1275 -790 
Q 1522 -856 1778 -856 
Q 2344 -856 2625 -561 
Q 2906 -266 2906 331 
L 2906 616 
Q 2728 306 2450 153 
Q 2172 0 1784 0 
Q 1141 0 747 490 
Q 353 981 353 1791 
Q 353 2603 747 3093 
Q 1141 3584 1784 3584 
Q 2172 3584 2450 3431 
Q 2728 3278 2906 2969 
L 2906 3500 
L 3481 3500 
L 3481 434 
z
" transform="scale(0.015625)"/>
       <path id="DejaVuSans-6c" d="M 603 4863 
L 1178 4863 
L 1178 0 
L 603 0 
L 603 4863 
z
" transform="scale(0.015625)"/>
       <path id="DejaVuSans-7a" d="M 353 3500 
L 3084 3500 
L 3084 2975 
L 922 459 
L 3084 459 
L 3084 0 
L 275 0 
L 275 525 
L 2438 3041 
L 353 3041 
L 353 3500 
z
" transform="scale(0.015625)"/>
       <path id="DejaVuSans-74" d="M 1172 4494 
L 1172 3500 
L 2356 3500 
L 2356 3053 
L 1172 3053 
L 1172 1153 
Q 1172 725 1289 603 
Q 1406 481 1766 481 
L 2356 481 
L 2356 0 
L 1766 0 
Q 1100 0 847 248 
Q 594 497 594 1153 
L 594 3053 
L 172 3053 
L 172 3500 
L 594 3500 
L 594 4494 
L 1172 4494 
z
" transform="scale(0.015625)"/>
      </defs>
      <use xlink:href="#DejaVuSans-53"/>
      <use xlink:href="#DejaVuSans-75" transform="translate(63.476562 0)"/>
      <use xlink:href="#DejaVuSans-72" transform="translate(126.855469 0)"/>
      <use xlink:href="#DejaVuSans-66" transform="translate(167.96875 0)"/>
      <use xlink:href="#DejaVuSans-4d" transform="translate(203.173828 0)"/>
      <use xlink:href="#DejaVuSans-4c" transform="translate(289.453125 0)"/>
      <use xlink:href="#DejaVuSans-20" transform="translate(345.166016 0)"/>
      <use xlink:href="#DejaVuSans-2d" transform="translate(376.953125 0)"/>
      <use xlink:href="#DejaVuSans-20" transform="translate(413.037109 0)"/>
      <use xlink:href="#DejaVuSans-4e" transform="translate(444.824219 0)"/>
      <use xlink:href="#DejaVuSans-6f" transform="translate(519.628906 0)"/>
      <use xlink:href="#DejaVuSans-20" transform="translate(580.810547 0)"/>
      <use xlink:href="#DejaVuSans-52" transform="translate(612.597656 0)"/>
      <use xlink:href="#DejaVuSans-65" transform="translate(677.580078 0)"/>
      <use xlink:href="#DejaVuSans-67" transform="translate(739.103516 0)"/>
      <use xlink:href="#DejaVuSans-75" transform="translate(802.580078 0)"/>
      <use xlink:href="#DejaVuSans-6c" transform="translate(865.958984 0)"/>
      <use xlink:href="#DejaVuSans-61" transform="translate(893.742188 0)"/>
      <use xlink:href="#DejaVuSans-72" transform="translate(955.021484 0)"/>
      <use xlink:href="#DejaVuSans-69" transform="translate(996.134766 0)"/>
      <use xlink:href="#DejaVuSans-7a" transform="translate(1023.917969 0)"/>
      <use xlink:href="#DejaVuSans-61" transform="translate(1076.408203 0)"/>
      <use xlink:href="#DejaVuSans-74" transform="translate(1137.6875 0)"/>
      <use xlink:href="#DejaVuSans-69" transform="translate(1176.896484 0)"/>
      <use xlink:href="#DejaVuSans-6f" transform="translate(1204.679688 0)"/>
      <use xlink:href="#DejaVuSans-6e" transform="translate(1265.861328 0)"/>
     </g>
    </g>
   </g>
  </g>
 </g>
 <defs>
  <clipPath id="p8c36acbd4f">
   <rect x="55.56" y="28.08" width="651.48" height="282.9"/>
  </clipPath>
 </defs>
</svg>
