<?xml version="1.0" encoding="utf-8" standalone="no"?>
<!DOCTYPE svg PUBLIC "-//W3C//DTD SVG 1.1//EN"
  "http://www.w3.org/Graphics/SVG/1.1/DTD/svg11.dtd">
<svg xmlns:xlink="http://www.w3.org/1999/xlink" width="720pt" height="360pt" viewBox="0 0 720 360" xmlns="http://www.w3.org/2000/svg" version="1.1">
 <metadata>
  <rdf:RDF xmlns:dc="http://purl.org/dc/elements/1.1/" xmlns:cc="http://creativecommons.org/ns#" xmlns:rdf="http://www.w3.org/1999/02/22-rdf-syntax-ns#">
   <cc:Work>
    <dc:type rdf:resource="http://purl.org/dc/dcmitype/StillImage"/>
    <dc:date>2026-03-24T16:33:41.172930</dc:date>
    <dc:format>image/svg+xml</dc:format>
    <dc:creator>
     <cc:Agent>
      <dc:title>Matplotlib v3.10.6, https://matplotlib.org/</dc:title>
     </cc:Agent>
    </dc:creator>
   </cc:Work>
  </rdf:RDF>
 </metadata>
 <defs>
  <style type="text/css">*{stroke-linejoin: round; stroke-linecap: butt}</style>
 </defs>
 <g id="figure_1">
  <g id="patch_1">
   <path d="M 0 360 
L 720 360 
L 720 0 
L 0 0 
z
" style="fill: #ffffff"/>
  </g>
  <g id="axes_1">
   <g id="patch_2">
    <path d="M 55.56 310.98 
L 707.04 310.98 
L 707.04 28.08 
L 55.56 28.08 
z
" style="fill: #eaeaf2"/>
   </g>
   <g id="matplotlib.axis_1">
    <g id="xtick_1">
     <g id="text_1">
      <!-- 0 -->
      <g style="fill: #262626" transform="translate(81.673352 328.838281) scale(0.11 -0.11)">
       <defs>
        <path id="DejaVuSans-30" d="M 2034 4250 
Q 1547 4250 1301 3770 
Q 1056 3291 1056 2328 
Q 1056 1369 1301 889 
Q 1547 409 2034 409 
Q 2525 409 2770 889 
Q 3016 1369 3016 2328 
Q 3016 3291 2770 3770 
Q 2525 4250 2034 4250 
z
M 2034 4750 
Q 2819 4750 3233 4129 
Q 3647 3509 3647 2328 
Q 3647 1150 3233 529 
Q 2819 -91 2034 -91 
Q 1250 -91 836 529 
Q 422 1150 422 2328 
Q 422 3509 836 4129 
Q 1250 4750 2034 4750 
z
" transform="scale(0.015625)"/>
       </defs>
       <use xlink:href="#DejaVuSans-30"/>
      </g>
     </g>
    </g>
    <g id="xtick_2">
     <g id="text_2">
      <!-- 5 -->
      <g style="fill: #262626" transform="translate(224.385291 328.838281) scale(0.11 -0.11)">
       <defs>
        <path id="DejaVuSans-35" d="M 691 4666 
L 3169 4666 
L 3169 4134 
L 1269 4134 
L 1269 2991 
Q 1406 3038 1543 3061 
Q 1681 3084 1819 3084 
Q 2600 3084 3056 2656 
Q 3513 2228 3513 1497 
Q 3513 744 3044 326 
Q 2575 -91 1722 -91 
Q 1428 -91 1123 -41 
Q 819 9 494 109 
L 494 744 
Q 775 591 1075 516 
Q 1375 441 1709 441 
Q 2250 441 2565 725 
Q 2881 1009 2881 1497 
Q 2881 1984 2565 2268 
Q 2250 2553 1709 2553 
Q 1456 2553 1204 2497 
Q 953 2441 691 2322 
L 691 4666 
z
" transform="scale(0.015625)"/>
       </defs>
       <use xlink:href="#DejaVuSans-35"/>
      </g>
     </g>
    </g>
    <g id="xtick_3">
     <g id="text_3">
      <!-- 10 -->
      <g style="fill: #262626" transform="translate(363.597855 328.838281) scale(0.11 -0.11)">
       <defs>
        <path id="DejaVuSans-31" d="M 794 531 
L 1825 531 
L 1825 4091 
L 703 3866 
L 703 4441 
L 1819 4666 
L 2450 4666 
L 2450 531 
L 3481 531 
L 3481 0 
L 794 0 
L 794 531 
z
" transform="scale(0.015625)"/>
       </defs>
       <use xlink:href="#DejaVuSans-31"/>
       <use xlink:href="#DejaVuSans-30" transform="translate(63.623047 0)"/>
      </g>
     </g>
    </g>
    <g id="xtick_4">
     <g id="text_4">
      <!-- 15 -->
      <g style="fill: #262626" transform="translate(506.309793 328.838281) scale(0.11 -0.11)">
       <use xlink:href="#DejaVuSans-31"/>
       <use xlink:href="#DejaVuSans-35" transform="translate(63.623047 0)"/>
      </g>
     </g>
    </g>
    <g id="xtick_5">
     <g id="text_5">
      <!-- 20 -->
      <g style="fill: #262626" transform="translate(649.021732 328.838281) scale(0.11 -0.11)">
       <defs>
        <path id="DejaVuSans-32" d="M 1228 531 
L 3431 531 
L 3431 0 
L 469 0 
L 469 531 
Q 828 903 1448 1529 
Q 2069 2156 2228 2338 
Q 2531 2678 2651 2914 
Q 2772 3150 2772 3378 
Q 2772 3750 2511 3984 
Q 2250 4219 1831 4219 
Q 1534 4219 1204 4116 
Q 875 4013 500 3803 
L 500 4441 
Q 881 4594 1212 4672 
Q 1544 4750 1819 4750 
Q 2544 4750 2975 4387 
Q 3406 4025 3406 3419 
Q 3406 3131 3298 2873 
Q 3191 2616 2906 2266 
Q 2828 2175 2409 1742 
Q 1991 1309 1228 531 
z
" transform="scale(0.015625)"/>
       </defs>
       <use xlink:href="#DejaVuSans-32"/>
       <use xlink:href="#DejaVuSans-30" transform="translate(63.623047 0)"/>
      </g>
     </g>
    </g>
    <g id="text_6">
     <!-- Time [days] -->
     <g style="fill: #262626" transform="translate(345.868125 344.244062) scale(0.12 -0.12)">
      <defs>
       <path id="DejaVuSans-54" d="M -19 4666 
L 3928 4666 
L 3928 4134 
L 2272 4134 
L 2272 0 
L 1638 0 
L 1638 4134 
L -19 4134 
L -19 4666 
z
" transform="scale(0.015625)"/>
       <path id="DejaVuSans-69" d="M 603 3500 
L 1178 3500 
L 1178 0 
L 603 0 
L 603 3500 
z
M 603 4863 
L 1178 4863 
L 1178 4134 
L 603 4134 
L 603 4863 
z
" transform="scale(0.015625)"/>
       <path id="DejaVuSans-6d" d="M 3328 2828 
Q 3544 3216 3844 3400 
Q 4144 3584 4550 3584 
Q 5097 3584 5394 3201 
Q 5691 2819 5691 2113 
L 5691 0 
L 5113 0 
L 5113 2094 
Q 5113 2597 4934 2840 
Q 4756 3084 4391 3084 
Q 3944 3084 3684 2787 
Q 3425 2491 3425 1978 
L 3425 0 
L 2847 0 
L 2847 2094 
Q 2847 2600 2669 2842 
Q 2491 3084 2119 3084 
Q 1678 3084 1418 2786 
Q 1159 2488 1159 1978 
L 1159 0 
L 581 0 
L 581 3500 
L 1159 3500 
L 1159 2956 
Q 1356 3278 1631 3431 
Q 1906 3584 2284 3584 
Q 2666 3584 2933 3390 
Q 3200 3197 3328 2828 
z
" transform="scale(0.015625)"/>
       <path id="DejaVuSans-65" d="M 3597 1894 
L 3597 1613 
L 953 1613 
Q 991 1019 1311 708 
Q 1631 397 2203 397 
Q 2534 397 2845 478 
Q 3156 559 3463 722 
L 3463 178 
Q 3153 47 2828 -22 
Q 2503 -91 2169 -91 
Q 1331 -91 842 396 
Q 353 884 353 1716 
Q 353 2575 817 3079 
Q 1281 3584 2069 3584 
Q 2775 3584 3186 3129 
Q 3597 2675 3597 1894 
z
M 3022 2063 
Q 3016 2534 2758 2815 
Q 2500 3097 2075 3097 
Q 1594 3097 1305 2825 
Q 1016 2553 972 2059 
L 3022 2063 
z
" transform="scale(0.015625)"/>
       <path id="DejaVuSans-20" transform="scale(0.015625)"/>
       <path id="DejaVuSans-5b" d="M 550 4863 
L 1875 4863 
L 1875 4416 
L 1125 4416 
L 1125 -397 
L 1875 -397 
L 1875 -844 
L 550 -844 
L 550 4863 
z
" transform="scale(0.015625)"/>
       <path id="DejaVuSans-64" d="M 2906 2969 
L 2906 4863 
L 3481 4863 
L 3481 0 
L 2906 0 
L 2906 525 
Q 2725 213 2448 61 
Q 2172 -91 1784 -91 
Q 1150 -91 751 415 
Q 353 922 353 1747 
Q 353 2572 751 3078 
Q 1150 3584 1784 3584 
Q 2172 3584 2448 3432 
Q 2725 3281 2906 2969 
z
M 947 1747 
Q 947 1113 1208 752 
Q 1469 391 1925 391 
Q 2381 391 2643 752 
Q 2906 1113 2906 1747 
Q 2906 2381 2643 2742 
Q 2381 3103 1925 3103 
Q 1469 3103 1208 2742 
Q 947 2381 947 1747 
z
" transform="scale(0.015625)"/>
       <path id="DejaVuSans-61" d="M 2194 1759 
Q 1497 1759 1228 1600 
Q 959 1441 959 1056 
Q 959 750 1161 570 
Q 1363 391 1709 391 
Q 2188 391 2477 730 
Q 2766 1069 2766 1631 
L 2766 1759 
L 2194 1759 
z
M 3341 1997 
L 3341 0 
L 2766 0 
L 2766 531 
Q 2569 213 2275 61 
Q 1981 -91 1556 -91 
Q 1019 -91 701 211 
Q 384 513 384 1019 
Q 384 1609 779 1909 
Q 1175 2209 1959 2209 
L 2766 2209 
L 2766 2266 
Q 2766 2663 2505 2880 
Q 2244 3097 1772 3097 
Q 1472 3097 1187 3025 
Q 903 2953 641 2809 
L 641 3341 
Q 956 3463 1253 3523 
Q 1550 3584 1831 3584 
Q 2591 3584 2966 3190 
Q 3341 2797 3341 1997 
z
" transform="scale(0.015625)"/>
       <path id="DejaVuSans-79" d="M 2059 -325 
Q 1816 -950 1584 -1140 
Q 1353 -1331 966 -1331 
L 506 -1331 
L 506 -850 
L 844 -850 
Q 1081 -850 1212 -737 
Q 1344 -625 1503 -206 
L 1606 56 
L 191 3500 
L 800 3500 
L 1894 763 
L 2988 3500 
L 3597 3500 
L 2059 -325 
z
" transform="scale(0.015625)"/>
       <path id="DejaVuSans-73" d="M 2834 3397 
L 2834 2853 
Q 2591 2978 2328 3040 
Q 2066 3103 1784 3103 
Q 1356 3103 1142 2972 
Q 928 2841 928 2578 
Q 928 2378 1081 2264 
Q 1234 2150 1697 2047 
L 1894 2003 
Q 2506 1872 2764 1633 
Q 3022 1394 3022 966 
Q 3022 478 2636 193 
Q 2250 -91 1575 -91 
Q 1294 -91 989 -36 
Q 684 19 347 128 
L 347 722 
Q 666 556 975 473 
Q 1284 391 1588 391 
Q 1994 391 2212 530 
Q 2431 669 2431 922 
Q 2431 1156 2273 1281 
Q 2116 1406 1581 1522 
L 1381 1569 
Q 847 1681 609 1914 
Q 372 2147 372 2553 
Q 372 3047 722 3315 
Q 1072 3584 1716 3584 
Q 2034 3584 2315 3537 
Q 2597 3491 2834 3397 
z
" transform="scale(0.015625)"/>
       <path id="DejaVuSans-5d" d="M 1947 4863 
L 1947 -844 
L 622 -844 
L 622 -397 
L 1369 -397 
L 1369 4416 
L 622 4416 
L 622 4863 
L 1947 4863 
z
" transform="scale(0.015625)"/>
      </defs>
      <use xlink:href="#DejaVuSans-54"/>
      <use xlink:href="#DejaVuSans-69" transform="translate(57.958984 0)"/>
      <use xlink:href="#DejaVuSans-6d" transform="translate(85.742188 0)"/>
      <use xlink:href="#DejaVuSans-65" transform="translate(183.154297 0)"/>
      <use xlink:href="#DejaVuSans-20" transform="translate(244.677734 0)"/>
      <use xlink:href="#DejaVuSans-5b" transform="translate(276.464844 0)"/>
      <use xlink:href="#DejaVuSans-64" transform="translate(315.478516 0)"/>
      <use xlink:href="#DejaVuSans-61" transform="translate(378.955078 0)"/>
      <use xlink:href="#DejaVuSans-79" transform="translate(440.234375 0)"/>
      <use xlink:href="#DejaVuSans-73" transform="translate(499.414062 0)"/>
      <use xlink:href="#DejaVuSans-5d" transform="translate(551.513672 0)"/>
     </g>
    </g>
   </g>
   <g id="matplotlib.axis_2">
    <g id="ytick_1">
     <g id="text_7">
      <!-- 0.0 -->
      <g style="fill: #262626" transform="translate(28.566562 302.30005) scale(0.11 -0.11)">
       <defs>
        <path id="DejaVuSans-2e" d="M 684 794 
L 1344 794 
L 1344 0 
L 684 0 
L 684 794 
z
" transform="scale(0.015625)"/>
       </defs>
       <use xlink:href="#DejaVuSans-30"/>
       <use xlink:href="#DejaVuSans-2e" transform="translate(63.623047 0)"/>
       <use xlink:href="#DejaVuSans-30" transform="translate(95.410156 0)"/>
      </g>
     </g>
    </g>
    <g id="ytick_2">
     <g id="text_8">
      <!-- 0.1 -->
      <g style="fill: #262626" transform="translate(28.566562 258.729851) scale(0.11 -0.11)">
       <use xlink:href="#DejaVuSans-30"/>
       <use xlink:href="#DejaVuSans-2e" transform="translate(63.623047 0)"/>
       <use xlink:href="#DejaVuSans-31" transform="translate(95.410156 0)"/>
      </g>
     </g>
    </g>
    <g id="ytick_3">
     <g id="text_9">
      <!-- 0.2 -->
      <g style="fill: #262626" transform="translate(28.566562 215.159651) scale(0.11 -0.11)">
       <use xlink:href="#DejaVuSans-30"/>
       <use xlink:href="#DejaVuSans-2e" transform="translate(63.623047 0)"/>
       <use xlink:href="#DejaVuSans-32" transform="translate(95.410156 0)"/>
      </g>
     </g>
    </g>
    <g id="ytick_4">
     <g id="text_10">
      <!-- 0.3 -->
      <g style="fill: #262626" transform="translate(28.566562 171.589452) scale(0.11 -0.11)">
       <defs>
        <path id="DejaVuSans-33" d="M 2597 2516 
Q 3050 2419 3304 2112 
Q 3559 1806 3559 1356 
Q 3559 666 3084 287 
Q 2609 -91 1734 -91 
Q 1441 -91 1130 -33 
Q 819 25 488 141 
L 488 750 
Q 750 597 1062 519 
Q 1375 441 1716 441 
Q 2309 441 2620 675 
Q 2931 909 2931 1356 
Q 2931 1769 2642 2001 
Q 2353 2234 1838 2234 
L 1294 2234 
L 1294 2753 
L 1863 2753 
Q 2328 2753 2575 2939 
Q 2822 3125 2822 3475 
Q 2822 3834 2567 4026 
Q 2313 4219 1838 4219 
Q 1578 4219 1281 4162 
Q 984 4106 628 3988 
L 628 4550 
Q 988 4650 1302 4700 
Q 1616 4750 1894 4750 
Q 2613 4750 3031 4423 
Q 3450 4097 3450 3541 
Q 3450 3153 3228 2886 
Q 3006 2619 2597 2516 
z
" transform="scale(0.015625)"/>
       </defs>
       <use xlink:href="#DejaVuSans-30"/>
       <use xlink:href="#DejaVuSans-2e" transform="translate(63.623047 0)"/>
       <use xlink:href="#DejaVuSans-33" transform="translate(95.410156 0)"/>
      </g>
     </g>
    </g>
    <g id="ytick_5">
     <g id="text_11">
      <!-- 0.4 -->
      <g style="fill: #262626" transform="translate(28.566562 128.019253) scale(0.11 -0.11)">
       <defs>
        <path id="DejaVuSans-34" d="M 2419 4116 
L 825 1625 
L 2419 1625 
L 2419 4116 
z
M 2253 4666 
L 3047 4666 
L 3047 1625 
L 3713 1625 
L 3713 1100 
L 3047 1100 
L 3047 0 
L 2419 0 
L 2419 1100 
L 313 1100 
L 313 1709 
L 2253 4666 
z
" transform="scale(0.015625)"/>
       </defs>
       <use xlink:href="#DejaVuSans-30"/>
       <use xlink:href="#DejaVuSans-2e" transform="translate(63.623047 0)"/>
       <use xlink:href="#DejaVuSans-34" transform="translate(95.410156 0)"/>
      </g>
     </g>
    </g>
    <g id="ytick_6">
     <g id="text_12">
      <!-- 0.5 -->
      <g style="fill: #262626" transform="translate(28.566562 84.449054) scale(0.11 -0.11)">
       <use xlink:href="#DejaVuSans-30"/>
       <use xlink:href="#DejaVuSans-2e" transform="translate(63.623047 0)"/>
       <use xlink:href="#DejaVuSans-35" transform="translate(95.410156 0)"/>
      </g>
     </g>
    </g>
    <g id="ytick_7">
     <g id="text_13">
      <!-- 0.6 -->
      <g style="fill: #262626" transform="translate(28.566562 40.878855) scale(0.11 -0.11)">
       <defs>
        <path id="DejaVuSans-36" d="M 2113 2584 
Q 1688 2584 1439 2293 
Q 1191 2003 1191 1497 
Q 1191 994 1439 701 
Q 1688 409 2113 409 
Q 2538 409 2786 701 
Q 3034 994 3034 1497 
Q 3034 2003 2786 2293 
Q 2538 2584 2113 2584 
z
M 3366 4563 
L 3366 3988 
Q 3128 4100 2886 4159 
Q 2644 4219 2406 4219 
Q 1781 4219 1451 3797 
Q 1122 3375 1075 2522 
Q 1259 2794 1537 2939 
Q 1816 3084 2150 3084 
Q 2853 3084 3261 2657 
Q 3669 2231 3669 1497 
Q 3669 778 3244 343 
Q 2819 -91 2113 -91 
Q 1303 -91 875 529 
Q 447 1150 447 2328 
Q 447 3434 972 4092 
Q 1497 4750 2381 4750 
Q 2619 4750 2861 4703 
Q 3103 4656 3366 4563 
z
" transform="scale(0.015625)"/>
       </defs>
       <use xlink:href="#DejaVuSans-30"/>
       <use xlink:href="#DejaVuSans-2e" transform="translate(63.623047 0)"/>
       <use xlink:href="#DejaVuSans-36" transform="translate(95.410156 0)"/>
      </g>
     </g>
    </g>
    <g id="text_14">
     <!-- nRMSE -->
     <g style="fill: #262626" transform="translate(22.070937 190.27875) rotate(-90) scale(0.12 -0.12)">
      <defs>
       <path id="DejaVuSans-6e" d="M 3513 2113 
L 3513 0 
L 2938 0 
L 2938 2094 
Q 2938 2591 2744 2837 
Q 2550 3084 2163 3084 
Q 1697 3084 1428 2787 
Q 1159 2491 1159 1978 
L 1159 0 
L 581 0 
L 581 3500 
L 1159 3500 
L 1159 2956 
Q 1366 3272 1645 3428 
Q 1925 3584 2291 3584 
Q 2894 3584 3203 3211 
Q 3513 2838 3513 2113 
z
" transform="scale(0.015625)"/>
       <path id="DejaVuSans-52" d="M 2841 2188 
Q 3044 2119 3236 1894 
Q 3428 1669 3622 1275 
L 4263 0 
L 3584 0 
L 2988 1197 
Q 2756 1666 2539 1819 
Q 2322 1972 1947 1972 
L 1259 1972 
L 1259 0 
L 628 0 
L 628 4666 
L 2053 4666 
Q 2853 4666 3247 4331 
Q 3641 3997 3641 3322 
Q 3641 2881 3436 2590 
Q 3231 2300 2841 2188 
z
M 1259 4147 
L 1259 2491 
L 2053 2491 
Q 2509 2491 2742 2702 
Q 2975 2913 2975 3322 
Q 2975 3731 2742 3939 
Q 2509 4147 2053 4147 
L 1259 4147 
z
" transform="scale(0.015625)"/>
       <path id="DejaVuSans-4d" d="M 628 4666 
L 1569 4666 
L 2759 1491 
L 3956 4666 
L 4897 4666 
L 4897 0 
L 4281 0 
L 4281 4097 
L 3078 897 
L 2444 897 
L 1241 4097 
L 1241 0 
L 628 0 
L 628 4666 
z
" transform="scale(0.015625)"/>
       <path id="DejaVuSans-53" d="M 3425 4513 
L 3425 3897 
Q 3066 4069 2747 4153 
Q 2428 4238 2131 4238 
Q 1616 4238 1336 4038 
Q 1056 3838 1056 3469 
Q 1056 3159 1242 3001 
Q 1428 2844 1947 2747 
L 2328 2669 
Q 3034 2534 3370 2195 
Q 3706 1856 3706 1288 
Q 3706 609 3251 259 
Q 2797 -91 1919 -91 
Q 1588 -91 1214 -16 
Q 841 59 441 206 
L 441 856 
Q 825 641 1194 531 
Q 1563 422 1919 422 
Q 2459 422 2753 634 
Q 3047 847 3047 1241 
Q 3047 1584 2836 1778 
Q 2625 1972 2144 2069 
L 1759 2144 
Q 1053 2284 737 2584 
Q 422 2884 422 3419 
Q 422 4038 858 4394 
Q 1294 4750 2059 4750 
Q 2388 4750 2728 4690 
Q 3069 4631 3425 4513 
z
" transform="scale(0.015625)"/>
       <path id="DejaVuSans-45" d="M 628 4666 
L 3578 4666 
L 3578 4134 
L 1259 4134 
L 1259 2753 
L 3481 2753 
L 3481 2222 
L 1259 2222 
L 1259 531 
L 3634 531 
L 3634 0 
L 628 0 
L 628 4666 
z
" transform="scale(0.015625)"/>
      </defs>
      <use xlink:href="#DejaVuSans-6e"/>
      <use xlink:href="#DejaVuSans-52" transform="translate(63.378906 0)"/>
      <use xlink:href="#DejaVuSans-4d" transform="translate(132.861328 0)"/>
      <use xlink:href="#DejaVuSans-53" transform="translate(219.140625 0)"/>
      <use xlink:href="#DejaVuSans-45" transform="translate(282.617188 0)"/>
     </g>
    </g>
   </g>
   <g id="FillBetweenPolyCollection_1">
    <defs>
     <path id="mcff1bb6524" d="M 85.172727 -61.879091 
L 85.172727 -61.879091 
L 87.55126 -63.039201 
L 89.929792 -64.199928 
L 92.308324 -65.361196 
L 94.686857 -66.522946 
L 97.065389 -67.685125 
L 99.443921 -68.847686 
L 101.822453 -70.010593 
L 104.200986 -71.173818 
L 106.579518 -72.337334 
L 108.95805 -73.501118 
L 111.336583 -74.665154 
L 113.715115 -75.82944 
L 116.093647 -76.993978 
L 118.47218 -78.158771 
L 120.850712 -79.323822 
L 123.229244 -80.489142 
L 125.607777 -81.654744 
L 127.986309 -82.820646 
L 130.364841 -83.98687 
L 132.743373 -85.153443 
L 135.121906 -86.320392 
L 137.500438 -87.487742 
L 139.87897 -88.655525 
L 142.257503 -89.823755 
L 144.636035 -90.992448 
L 147.014567 -92.161631 
L 149.3931 -93.331318 
L 151.771632 -94.501541 
L 154.150164 -95.672321 
L 156.528697 -96.843693 
L 158.907229 -98.015677 
L 161.285761 -99.188275 
L 163.664294 -100.361476 
L 166.042826 -101.535284 
L 168.421358 -102.709694 
L 170.79989 -103.884702 
L 173.178423 -105.060288 
L 175.556955 -106.236421 
L 177.935487 -107.413064 
L 180.31402 -108.590179 
L 182.692552 -109.767729 
L 185.071084 -110.945672 
L 187.449617 -112.12396 
L 189.828149 -113.302537 
L 192.206681 -114.48134 
L 194.585214 -115.660294 
L 196.963746 -116.839313 
L 199.342278 -118.018306 
L 201.720811 -119.197181 
L 204.099343 -120.375838 
L 206.477875 -121.554166 
L 208.856407 -122.732043 
L 211.23494 -123.909336 
L 213.613472 -125.085905 
L 215.992004 -126.261599 
L 218.370537 -127.436259 
L 220.749069 -128.609728 
L 223.127601 -129.781849 
L 225.506134 -130.952455 
L 227.884666 -132.121374 
L 230.263198 -133.28843 
L 232.641731 -134.453439 
L 235.020263 -135.616213 
L 237.398795 -136.776562 
L 239.777327 -137.934296 
L 242.15586 -139.089233 
L 244.534392 -140.241192 
L 246.912924 -141.389992 
L 249.291457 -142.535451 
L 251.669989 -143.677389 
L 254.048521 -144.815628 
L 256.427054 -145.949987 
L 258.805586 -147.080286 
L 261.184118 -148.206354 
L 263.562651 -149.328032 
L 265.941183 -150.445166 
L 268.319715 -151.557607 
L 270.698248 -152.665213 
L 273.07678 -153.767843 
L 275.455312 -154.865364 
L 277.833844 -155.957645 
L 280.212377 -157.044563 
L 282.590909 -158.125999 
L 284.969441 -159.201848 
L 287.347974 -160.272014 
L 289.726506 -161.33641 
L 292.105038 -162.394953 
L 294.483571 -163.447568 
L 296.862103 -164.494184 
L 299.240635 -165.534734 
L 301.619168 -166.569155 
L 303.9977 -167.597391 
L 306.376232 -168.619389 
L 308.754765 -169.635108 
L 311.133297 -170.644519 
L 313.511829 -171.647594 
L 315.890361 -172.644312 
L 318.268894 -173.634659 
L 320.647426 -174.618621 
L 323.025958 -175.596186 
L 325.404491 -176.567342 
L 327.783023 -177.532075 
L 330.161555 -178.49037 
L 332.540088 -179.442212 
L 334.91862 -180.38759 
L 337.297152 -181.326493 
L 339.675685 -182.258912 
L 342.054217 -183.184833 
L 344.432749 -184.104241 
L 346.811281 -185.017123 
L 349.189814 -185.923452 
L 351.568346 -186.823209 
L 353.946878 -187.716362 
L 356.325411 -188.602875 
L 358.703943 -189.482715 
L 361.082475 -190.355839 
L 363.461008 -191.222201 
L 365.83954 -192.081751 
L 368.218072 -192.934428 
L 370.596605 -193.780171 
L 372.975137 -194.61891 
L 375.353669 -195.450582 
L 377.732202 -196.275114 
L 380.110734 -197.092432 
L 382.489266 -197.902461 
L 384.867798 -198.705122 
L 387.246331 -199.500333 
L 389.624863 -200.288011 
L 392.003395 -201.068071 
L 394.381928 -201.840427 
L 396.76046 -202.604993 
L 399.138992 -203.361688 
L 401.517525 -204.110428 
L 403.896057 -204.851123 
L 406.274589 -205.583682 
L 408.653122 -206.308015 
L 411.031654 -207.024033 
L 413.410186 -207.731649 
L 415.788719 -208.430781 
L 418.167251 -209.12135 
L 420.545783 -209.803281 
L 422.924315 -210.476502 
L 425.302848 -211.140941 
L 427.68138 -211.796532 
L 430.059912 -212.443213 
L 432.438445 -213.080932 
L 434.816977 -213.709637 
L 437.195509 -214.329287 
L 439.574042 -214.939844 
L 441.952574 -215.541274 
L 444.331106 -216.133554 
L 446.709639 -216.716666 
L 449.088171 -217.290599 
L 451.466703 -217.855351 
L 453.845235 -218.410921 
L 456.223768 -218.95732 
L 458.6023 -219.494563 
L 460.980832 -220.022673 
L 463.359365 -220.54168 
L 465.737897 -221.051622 
L 468.116429 -221.55255 
L 470.494962 -222.044519 
L 472.873494 -222.527592 
L 475.252026 -223.001833 
L 477.630559 -223.467316 
L 480.009091 -223.92412 
L 482.387623 -224.372329 
L 484.766156 -224.812034 
L 487.144688 -225.243332 
L 489.52322 -225.666322 
L 491.901752 -226.08111 
L 494.280285 -226.487807 
L 496.658817 -226.886527 
L 499.037349 -227.277388 
L 501.415882 -227.660509 
L 503.794414 -228.036016 
L 506.172946 -228.40404 
L 508.551479 -228.764714 
L 510.930011 -229.118176 
L 513.308543 -229.46457 
L 515.687076 -229.804038 
L 518.065608 -230.136722 
L 520.44414 -230.462761 
L 522.822673 -230.782296 
L 525.201205 -231.095469 
L 527.579737 -231.402423 
L 529.958269 -231.703298 
L 532.336802 -231.998234 
L 534.715334 -232.287374 
L 537.093866 -232.570863 
L 539.472399 -232.84884 
L 541.850931 -233.121448 
L 544.229463 -233.388817 
L 546.607996 -233.651076 
L 548.986528 -233.908356 
L 551.36506 -234.160781 
L 553.743593 -234.408473 
L 556.122125 -234.65155 
L 558.500657 -234.890121 
L 560.879189 -235.124288 
L 563.257722 -235.354151 
L 565.636254 -235.579805 
L 568.014786 -235.80134 
L 570.393319 -236.018838 
L 572.771851 -236.232378 
L 575.150383 -236.442029 
L 577.528916 -236.647856 
L 579.907448 -236.849919 
L 582.28598 -237.048272 
L 584.664513 -237.242961 
L 587.043045 -237.434027 
L 589.421577 -237.621501 
L 591.80011 -237.805409 
L 594.178642 -237.985776 
L 596.557174 -238.162622 
L 598.935706 -238.335963 
L 601.314239 -238.505813 
L 603.692771 -238.672181 
L 606.071303 -238.835073 
L 608.449836 -238.994489 
L 610.828368 -239.15043 
L 613.2069 -239.302894 
L 615.585433 -239.451876 
L 617.963965 -239.597369 
L 620.342497 -239.739361 
L 622.72103 -239.877835 
L 625.099562 -240.012775 
L 627.478094 -240.144167 
L 629.856627 -240.272 
L 632.235159 -240.39626 
L 634.613691 -240.516933 
L 636.992223 -240.634006 
L 639.370756 -240.74746 
L 641.749288 -240.857278 
L 644.12782 -240.963444 
L 646.506353 -241.065946 
L 648.884885 -241.164771 
L 651.263417 -241.259905 
L 653.64195 -241.351338 
L 656.020482 -241.439053 
L 658.399014 -241.523039 
L 660.777547 -241.603284 
L 663.156079 -241.679777 
L 665.534611 -241.752509 
L 667.913143 -241.821473 
L 670.291676 -241.886665 
L 672.670208 -241.948083 
L 675.04874 -242.005722 
L 677.427273 -242.059581 
L 677.427273 -396.062237 
L 677.427273 -396.062237 
L 675.04874 -395.921046 
L 672.670208 -395.773342 
L 670.291676 -395.619111 
L 667.913143 -395.45835 
L 665.534611 -395.291054 
L 663.156079 -395.117208 
L 660.777547 -394.936788 
L 658.399014 -394.749752 
L 656.020482 -394.55606 
L 653.64195 -394.355696 
L 651.263417 -394.148665 
L 648.884885 -393.934939 
L 646.506353 -393.714477 
L 644.12782 -393.487242 
L 641.749288 -393.253191 
L 639.370756 -393.012285 
L 636.992223 -392.76449 
L 634.613691 -392.509771 
L 632.235159 -392.248079 
L 629.856627 -391.979355 
L 627.478094 -391.703536 
L 625.099562 -391.420556 
L 622.72103 -391.13036 
L 620.342497 -390.832897 
L 617.963965 -390.528104 
L 615.585433 -390.215896 
L 613.2069 -389.896189 
L 610.828368 -389.568896 
L 608.449836 -389.233929 
L 606.071303 -388.891195 
L 603.692771 -388.540589 
L 601.314239 -388.182008 
L 598.935706 -387.815355 
L 596.557174 -387.440526 
L 594.178642 -387.057405 
L 591.80011 -386.665868 
L 589.421577 -386.265796 
L 587.043045 -385.857072 
L 584.664513 -385.439577 
L 582.28598 -385.013184 
L 579.907448 -384.577769 
L 577.528916 -384.133193 
L 575.150383 -383.679326 
L 572.771851 -383.216033 
L 570.393319 -382.74319 
L 568.014786 -382.26067 
L 565.636254 -381.76834 
L 563.257722 -381.26606 
L 560.879189 -380.753699 
L 558.500657 -380.231129 
L 556.122125 -379.698222 
L 553.743593 -379.154853 
L 551.36506 -378.600907 
L 548.986528 -378.036262 
L 546.607996 -377.460803 
L 544.229463 -376.874417 
L 541.850931 -376.276997 
L 539.472399 -375.668432 
L 537.093866 -375.048604 
L 534.715334 -374.417406 
L 532.336802 -373.774747 
L 529.958269 -373.120533 
L 527.579737 -372.454677 
L 525.201205 -371.777099 
L 522.822673 -371.087711 
L 520.44414 -370.386432 
L 518.065608 -369.673189 
L 515.687076 -368.947907 
L 513.308543 -368.210517 
L 510.930011 -367.460961 
L 508.551479 -366.699186 
L 506.172946 -365.92515 
L 503.794414 -365.138816 
L 501.415882 -364.340147 
L 499.037349 -363.529106 
L 496.658817 -362.705653 
L 494.280285 -361.869758 
L 491.901752 -361.02139 
L 489.52322 -360.160517 
L 487.144688 -359.287112 
L 484.766156 -358.401146 
L 482.387623 -357.502598 
L 480.009091 -356.591457 
L 477.630559 -355.667724 
L 475.252026 -354.731401 
L 472.873494 -353.78249 
L 470.494962 -352.820997 
L 468.116429 -351.846925 
L 465.737897 -350.860286 
L 463.359365 -349.861092 
L 460.980832 -348.84936 
L 458.6023 -347.825099 
L 456.223768 -346.788309 
L 453.845235 -345.73898 
L 451.466703 -344.677111 
L 449.088171 -343.602715 
L 446.709639 -342.515815 
L 444.331106 -341.416437 
L 441.952574 -340.304612 
L 439.574042 -339.180363 
L 437.195509 -338.043712 
L 434.816977 -336.894683 
L 432.438445 -335.733304 
L 430.059912 -334.559606 
L 427.68138 -333.373629 
L 425.302848 -332.175418 
L 422.924315 -330.965019 
L 420.545783 -329.742466 
L 418.167251 -328.507794 
L 415.788719 -327.261033 
L 413.410186 -326.002221 
L 411.031654 -324.731398 
L 408.653122 -323.448602 
L 406.274589 -322.153864 
L 403.896057 -320.847212 
L 401.517525 -319.528687 
L 399.138992 -318.198326 
L 396.76046 -316.85616 
L 394.381928 -315.502229 
L 392.003395 -314.1366 
L 389.624863 -312.759329 
L 387.246331 -311.370462 
L 384.867798 -309.970065 
L 382.489266 -308.558196 
L 380.110734 -307.134908 
L 377.732202 -305.700259 
L 375.353669 -304.254313 
L 372.975137 -302.797128 
L 370.596605 -301.328755 
L 368.218072 -299.849263 
L 365.83954 -298.358701 
L 363.461008 -296.857114 
L 361.082475 -295.344558 
L 358.703943 -293.821109 
L 356.325411 -292.286855 
L 353.946878 -290.741883 
L 351.568346 -289.1863 
L 349.189814 -287.620201 
L 346.811281 -286.043669 
L 344.432749 -284.456828 
L 342.054217 -282.859766 
L 339.675685 -281.252595 
L 337.297152 -279.635414 
L 334.91862 -278.008322 
L 332.540088 -276.371407 
L 330.161555 -274.72475 
L 327.783023 -273.068434 
L 325.404491 -271.402533 
L 323.025958 -269.727141 
L 320.647426 -268.042346 
L 318.268894 -266.348246 
L 315.890361 -264.644932 
L 313.511829 -262.932514 
L 311.133297 -261.211095 
L 308.754765 -259.480781 
L 306.376232 -257.741669 
L 303.9977 -255.993846 
L 301.619168 -254.237378 
L 299.240635 -252.472328 
L 296.862103 -250.698748 
L 294.483571 -248.91669 
L 292.105038 -247.126202 
L 289.726506 -245.327326 
L 287.347974 -243.520097 
L 284.969441 -241.704547 
L 282.590909 -239.880709 
L 280.212377 -238.048613 
L 277.833844 -236.208291 
L 275.455312 -234.359758 
L 273.07678 -232.503034 
L 270.698248 -230.638122 
L 268.319715 -228.765026 
L 265.941183 -226.883745 
L 263.562651 -224.994262 
L 261.184118 -223.096548 
L 258.805586 -221.190565 
L 256.427054 -219.276264 
L 254.048521 -217.353596 
L 251.669989 -215.422514 
L 249.291457 -213.48297 
L 246.912924 -211.534921 
L 244.534392 -209.578319 
L 242.15586 -207.613119 
L 239.777327 -205.639273 
L 237.398795 -203.656741 
L 235.020263 -201.665476 
L 232.641731 -199.665426 
L 230.263198 -197.656552 
L 227.884666 -195.638819 
L 225.506134 -193.6122 
L 223.127601 -191.576667 
L 220.749069 -189.532192 
L 218.370537 -187.478748 
L 215.992004 -185.416323 
L 213.613472 -183.344903 
L 211.23494 -181.264487 
L 208.856407 -179.175089 
L 206.477875 -177.07673 
L 204.099343 -174.96945 
L 201.720811 -172.853294 
L 199.342278 -170.728317 
L 196.963746 -168.59459 
L 194.585214 -166.452191 
L 192.206681 -164.301212 
L 189.828149 -162.14176 
L 187.449617 -159.973951 
L 185.071084 -157.797917 
L 182.692552 -155.613798 
L 180.31402 -153.421745 
L 177.935487 -151.221917 
L 175.556955 -149.014479 
L 173.178423 -146.799607 
L 170.79989 -144.577486 
L 168.421358 -142.348291 
L 166.042826 -140.112216 
L 163.664294 -137.869458 
L 161.285761 -135.620219 
L 158.907229 -133.364721 
L 156.528697 -131.103168 
L 154.150164 -128.835818 
L 151.771632 -126.56295 
L 149.3931 -124.28487 
L 147.014567 -122.001851 
L 144.636035 -119.714188 
L 142.257503 -117.422134 
L 139.87897 -115.125974 
L 137.500438 -112.825995 
L 135.121906 -110.52249 
L 132.743373 -108.21578 
L 130.364841 -105.906179 
L 127.986309 -103.594005 
L 125.607777 -101.279565 
L 123.229244 -98.963172 
L 120.850712 -96.645144 
L 118.47218 -94.325796 
L 116.093647 -92.005438 
L 113.715115 -89.684359 
L 111.336583 -87.362857 
L 108.95805 -85.041227 
L 106.579518 -82.719758 
L 104.200986 -80.398734 
L 101.822453 -78.078437 
L 99.443921 -75.759146 
L 97.065389 -73.441138 
L 94.686857 -71.124669 
L 92.308324 -68.809984 
L 89.929792 -66.497332 
L 87.55126 -64.186959 
L 85.172727 -61.879091 
z
" style="stroke: #000000; stroke-opacity: 0.1"/>
    </defs>
    <g clip-path="url(#pc835d8e422)">
     <use xlink:href="#mcff1bb6524" x="0" y="360" style="fill-opacity: 0.1; stroke: #000000; stroke-opacity: 0.1"/>
    </g>
   </g>
   <g id="FillBetweenPolyCollection_2">
    <defs>
     <path id="m86ec9eed27" d="M 85.172727 -61.879091 
L 85.172727 -61.879091 
L 87.55126 -62.657395 
L 89.929792 -63.424605 
L 92.308324 -64.180631 
L 94.686857 -64.925393 
L 97.065389 -65.658821 
L 99.443921 -66.380853 
L 101.822453 -67.091436 
L 104.200986 -67.790534 
L 106.579518 -68.478122 
L 108.95805 -69.154184 
L 111.336583 -69.818721 
L 113.715115 -70.471746 
L 116.093647 -71.113274 
L 118.47218 -71.743331 
L 120.850712 -72.361948 
L 123.229244 -72.969171 
L 125.607777 -73.56506 
L 127.986309 -74.14969 
L 130.364841 -74.723152 
L 132.743373 -75.285539 
L 135.121906 -75.836957 
L 137.500438 -76.377519 
L 139.87897 -76.90735 
L 142.257503 -77.426575 
L 144.636035 -77.935331 
L 147.014567 -78.433772 
L 149.3931 -78.922052 
L 151.771632 -79.400342 
L 154.150164 -79.868818 
L 156.528697 -80.327661 
L 158.907229 -80.777054 
L 161.285761 -81.21718 
L 163.664294 -81.648229 
L 166.042826 -82.070399 
L 168.421358 -82.483891 
L 170.79989 -82.888908 
L 173.178423 -83.285653 
L 175.556955 -83.674327 
L 177.935487 -84.055125 
L 180.31402 -84.428246 
L 182.692552 -84.79389 
L 185.071084 -85.152259 
L 187.449617 -85.503557 
L 189.828149 -85.847984 
L 192.206681 -86.185737 
L 194.585214 -86.517008 
L 196.963746 -86.841984 
L 199.342278 -87.160851 
L 201.720811 -87.473795 
L 204.099343 -87.780996 
L 206.477875 -88.082632 
L 208.856407 -88.378872 
L 211.23494 -88.669884 
L 213.613472 -88.955826 
L 215.992004 -89.236853 
L 218.370537 -89.513107 
L 220.749069 -89.78473 
L 223.127601 -90.051858 
L 225.506134 -90.314619 
L 227.884666 -90.573132 
L 230.263198 -90.827509 
L 232.641731 -91.077856 
L 235.020263 -91.324269 
L 237.398795 -91.566834 
L 239.777327 -91.80563 
L 242.15586 -92.040728 
L 244.534392 -92.272191 
L 246.912924 -92.500074 
L 249.291457 -92.724415 
L 251.669989 -92.945246 
L 254.048521 -93.162585 
L 256.427054 -93.376445 
L 258.805586 -93.586824 
L 261.184118 -93.793715 
L 263.562651 -93.9971 
L 265.941183 -94.196954 
L 268.319715 -94.39324 
L 270.698248 -94.585908 
L 273.07678 -94.774897 
L 275.455312 -94.960136 
L 277.833844 -95.141544 
L 280.212377 -95.319029 
L 282.590909 -95.492489 
L 284.969441 -95.661812 
L 287.347974 -95.826879 
L 289.726506 -95.987562 
L 292.105038 -96.143726 
L 294.483571 -96.295231 
L 296.862103 -96.441928 
L 299.240635 -96.583663 
L 301.619168 -96.720271 
L 303.9977 -96.851579 
L 306.376232 -96.977408 
L 308.754765 -97.097578 
L 311.133297 -97.211905 
L 313.511829 -97.320198 
L 315.890361 -97.422266 
L 318.268894 -97.517913 
L 320.647426 -97.606937 
L 323.025958 -97.689136 
L 325.404491 -97.764304 
L 327.783023 -97.832235 
L 330.161555 -97.892718 
L 332.540088 -97.945542 
L 334.91862 -97.990498 
L 337.297152 -98.027379 
L 339.675685 -98.055977 
L 342.054217 -98.076082 
L 344.432749 -98.087487 
L 346.811281 -98.089985 
L 349.189814 -98.083372 
L 351.568346 -98.067449 
L 353.946878 -98.042021 
L 356.325411 -98.006902 
L 358.703943 -97.961911 
L 361.082475 -97.906874 
L 363.461008 -97.841625 
L 365.83954 -97.766008 
L 368.218072 -97.679878 
L 370.596605 -97.583102 
L 372.975137 -97.475563 
L 375.353669 -97.357163 
L 377.732202 -97.22782 
L 380.110734 -97.087478 
L 382.489266 -96.936106 
L 384.867798 -96.773702 
L 387.246331 -96.600294 
L 389.624863 -96.415946 
L 392.003395 -96.220757 
L 394.381928 -96.014868 
L 396.76046 -95.798463 
L 399.138992 -95.571778 
L 401.517525 -95.3351 
L 403.896057 -95.088763 
L 406.274589 -94.833158 
L 408.653122 -94.56873 
L 411.031654 -94.295986 
L 413.410186 -94.015497 
L 415.788719 -93.727904 
L 418.167251 -93.433916 
L 420.545783 -93.134313 
L 422.924315 -92.829944 
L 425.302848 -92.521725 
L 427.68138 -92.210646 
L 430.059912 -91.897766 
L 432.438445 -91.584214 
L 434.816977 -91.271185 
L 437.195509 -90.959933 
L 439.574042 -90.65177 
L 441.952574 -90.348058 
L 444.331106 -90.050206 
L 446.709639 -89.759663 
L 449.088171 -89.477904 
L 451.466703 -89.206426 
L 453.845235 -88.946732 
L 456.223768 -88.700332 
L 458.6023 -88.468726 
L 460.980832 -88.253406 
L 463.359365 -88.055836 
L 465.737897 -87.877459 
L 468.116429 -87.719689 
L 470.494962 -87.583911 
L 472.873494 -87.471478 
L 475.252026 -87.38372 
L 477.630559 -87.32194 
L 480.009091 -87.287427 
L 482.387623 -87.281456 
L 484.766156 -87.305294 
L 487.144688 -87.360199 
L 489.52322 -87.447417 
L 491.901752 -87.568167 
L 494.280285 -87.72363 
L 496.658817 -87.914926 
L 499.037349 -88.143091 
L 501.415882 -88.409047 
L 503.794414 -88.713574 
L 506.172946 -89.057289 
L 508.551479 -89.440624 
L 510.930011 -89.863814 
L 513.308543 -90.326891 
L 515.687076 -90.829688 
L 518.065608 -91.37185 
L 520.44414 -91.952851 
L 522.822673 -92.572015 
L 525.201205 -93.228539 
L 527.579737 -93.921511 
L 529.958269 -94.649929 
L 532.336802 -95.412716 
L 534.715334 -96.208743 
L 537.093866 -97.036841 
L 539.472399 -97.895815 
L 541.850931 -98.784453 
L 544.229463 -99.701535 
L 546.607996 -100.645846 
L 548.986528 -101.616181 
L 551.36506 -102.611357 
L 553.743593 -103.630215 
L 556.122125 -104.67163 
L 558.500657 -105.734509 
L 560.879189 -106.817804 
L 563.257722 -107.92051 
L 565.636254 -109.04167 
L 568.014786 -110.180378 
L 570.393319 -111.335776 
L 572.771851 -112.50706 
L 575.150383 -113.693475 
L 577.528916 -114.89432 
L 579.907448 -116.108948 
L 582.28598 -117.336765 
L 584.664513 -118.577221 
L 587.043045 -119.829814 
L 589.421577 -121.094085 
L 591.80011 -122.369619 
L 594.178642 -123.656044 
L 596.557174 -124.953024 
L 598.935706 -126.260259 
L 601.314239 -127.577481 
L 603.692771 -128.90445 
L 606.071303 -130.240961 
L 608.449836 -131.586838 
L 610.828368 -132.941935 
L 613.2069 -134.306132 
L 615.585433 -135.679336 
L 617.963965 -137.061474 
L 620.342497 -138.45249 
L 622.72103 -139.85235 
L 625.099562 -141.261035 
L 627.478094 -142.678545 
L 629.856627 -144.104894 
L 632.235159 -145.540102 
L 634.613691 -146.984204 
L 636.992223 -148.437246 
L 639.370756 -149.899284 
L 641.749288 -151.370385 
L 644.12782 -152.85062 
L 646.506353 -154.34007 
L 648.884885 -155.838821 
L 651.263417 -157.346957 
L 653.64195 -158.864571 
L 656.020482 -160.391763 
L 658.399014 -161.928641 
L 660.777547 -163.475312 
L 663.156079 -165.031878 
L 665.534611 -166.598442 
L 667.913143 -168.175111 
L 670.291676 -169.761996 
L 672.670208 -171.359202 
L 675.04874 -172.966834 
L 677.427273 -174.585005 
L 677.427273 -278.575886 
L 677.427273 -278.575886 
L 675.04874 -275.361338 
L 672.670208 -272.158939 
L 670.291676 -268.969102 
L 667.913143 -265.792238 
L 665.534611 -262.628771 
L 663.156079 -259.479137 
L 660.777547 -256.343779 
L 658.399014 -253.223167 
L 656.020482 -250.117789 
L 653.64195 -247.028158 
L 651.263417 -243.954795 
L 648.884885 -240.898224 
L 646.506353 -237.858966 
L 644.12782 -234.837553 
L 641.749288 -231.834533 
L 639.370756 -228.850458 
L 636.992223 -225.885907 
L 634.613691 -222.941485 
L 632.235159 -220.017804 
L 629.856627 -217.115465 
L 627.478094 -214.23507 
L 625.099562 -211.377221 
L 622.72103 -208.542535 
L 620.342497 -205.731649 
L 617.963965 -202.945214 
L 615.585433 -200.183903 
L 613.2069 -197.448385 
L 610.828368 -194.739317 
L 608.449836 -192.057354 
L 606.071303 -189.403169 
L 603.692771 -186.777445 
L 601.314239 -184.180875 
L 598.935706 -181.614164 
L 596.557174 -179.078015 
L 594.178642 -176.573123 
L 591.80011 -174.10019 
L 589.421577 -171.659924 
L 587.043045 -169.253045 
L 584.664513 -166.880289 
L 582.28598 -164.542405 
L 579.907448 -162.240134 
L 577.528916 -159.974218 
L 575.150383 -157.745413 
L 572.771851 -155.554489 
L 570.393319 -153.402236 
L 568.014786 -151.289462 
L 565.636254 -149.216986 
L 563.257722 -147.185635 
L 560.879189 -145.196254 
L 558.500657 -143.249712 
L 556.122125 -141.346901 
L 553.743593 -139.488741 
L 551.36506 -137.676171 
L 548.986528 -135.91015 
L 546.607996 -134.191662 
L 544.229463 -132.521726 
L 541.850931 -130.901388 
L 539.472399 -129.331727 
L 537.093866 -127.813845 
L 534.715334 -126.348853 
L 532.336802 -124.93787 
L 529.958269 -123.58203 
L 527.579737 -122.282466 
L 525.201205 -121.040303 
L 522.822673 -119.856641 
L 520.44414 -118.732535 
L 518.065608 -117.66899 
L 515.687076 -116.666948 
L 513.308543 -115.727272 
L 510.930011 -114.85073 
L 508.551479 -114.03797 
L 506.172946 -113.289507 
L 503.794414 -112.605702 
L 501.415882 -111.986741 
L 499.037349 -111.432607 
L 496.658817 -110.943061 
L 494.280285 -110.517619 
L 491.901752 -110.155537 
L 489.52322 -109.85581 
L 487.144688 -109.617158 
L 484.766156 -109.438041 
L 482.387623 -109.316676 
L 480.009091 -109.251051 
L 477.630559 -109.238961 
L 475.252026 -109.278038 
L 472.873494 -109.365786 
L 470.494962 -109.499619 
L 468.116429 -109.676899 
L 465.737897 -109.89497 
L 463.359365 -110.15119 
L 460.980832 -110.442956 
L 458.6023 -110.767723 
L 456.223768 -111.12303 
L 453.845235 -111.506506 
L 451.466703 -111.915895 
L 449.088171 -112.349065 
L 446.709639 -112.804012 
L 444.331106 -113.278859 
L 441.952574 -113.77185 
L 439.574042 -114.281345 
L 437.195509 -114.805814 
L 434.816977 -115.343838 
L 432.438445 -115.894101 
L 430.059912 -116.455376 
L 427.68138 -117.026527 
L 425.302848 -117.606496 
L 422.924315 -118.194295 
L 420.545783 -118.788995 
L 418.167251 -119.389724 
L 415.788719 -119.995655 
L 413.410186 -120.606002 
L 411.031654 -121.220021 
L 408.653122 -121.836997 
L 406.274589 -122.456238 
L 403.896057 -123.07708 
L 401.517525 -123.698885 
L 399.138992 -124.32103 
L 396.76046 -124.942897 
L 394.381928 -125.563892 
L 392.003395 -126.183451 
L 389.624863 -126.801014 
L 387.246331 -127.41602 
L 384.867798 -128.027938 
L 382.489266 -128.636234 
L 380.110734 -129.240372 
L 377.732202 -129.839825 
L 375.353669 -130.434073 
L 372.975137 -131.022601 
L 370.596605 -131.604893 
L 368.218072 -132.180447 
L 365.83954 -132.748752 
L 363.461008 -133.309298 
L 361.082475 -133.861583 
L 358.703943 -134.405122 
L 356.325411 -134.939443 
L 353.946878 -135.464077 
L 351.568346 -135.978578 
L 349.189814 -136.482493 
L 346.811281 -136.975362 
L 344.432749 -137.456747 
L 342.054217 -137.926192 
L 339.675685 -138.38325 
L 337.297152 -138.827484 
L 334.91862 -139.258459 
L 332.540088 -139.675738 
L 330.161555 -140.078886 
L 327.783023 -140.467476 
L 325.404491 -140.841081 
L 323.025958 -141.199295 
L 320.647426 -141.541719 
L 318.268894 -141.867963 
L 315.890361 -142.177638 
L 313.511829 -142.470368 
L 311.133297 -142.745782 
L 308.754765 -143.003521 
L 306.376232 -143.243234 
L 303.9977 -143.46457 
L 301.619168 -143.667167 
L 299.240635 -143.850676 
L 296.862103 -144.014755 
L 294.483571 -144.159076 
L 292.105038 -144.283324 
L 289.726506 -144.387188 
L 287.347974 -144.470362 
L 284.969441 -144.532544 
L 282.590909 -144.573439 
L 280.212377 -144.592761 
L 277.833844 -144.590248 
L 275.455312 -144.565636 
L 273.07678 -144.518678 
L 270.698248 -144.449127 
L 268.319715 -144.356743 
L 265.941183 -144.241299 
L 263.562651 -144.102568 
L 261.184118 -143.940328 
L 258.805586 -143.754361 
L 256.427054 -143.544457 
L 254.048521 -143.310422 
L 251.669989 -143.05208 
L 249.291457 -142.769264 
L 246.912924 -142.461817 
L 244.534392 -142.129584 
L 242.15586 -141.772422 
L 239.777327 -141.390195 
L 237.398795 -140.982777 
L 235.020263 -140.550048 
L 232.641731 -140.091898 
L 230.263198 -139.608228 
L 227.884666 -139.098946 
L 225.506134 -138.563967 
L 223.127601 -138.003208 
L 220.749069 -137.416588 
L 218.370537 -136.804033 
L 215.992004 -136.165477 
L 213.613472 -135.500863 
L 211.23494 -134.810138 
L 208.856407 -134.093266 
L 206.477875 -133.350216 
L 204.099343 -132.580968 
L 201.720811 -131.785502 
L 199.342278 -130.963801 
L 196.963746 -130.115853 
L 194.585214 -129.241661 
L 192.206681 -128.341233 
L 189.828149 -127.414591 
L 187.449617 -126.461759 
L 185.071084 -125.482771 
L 182.692552 -124.477661 
L 180.31402 -123.446474 
L 177.935487 -122.389256 
L 175.556955 -121.306055 
L 173.178423 -120.196931 
L 170.79989 -119.061952 
L 168.421358 -117.901184 
L 166.042826 -116.714703 
L 163.664294 -115.502583 
L 161.285761 -114.2649 
L 158.907229 -113.001738 
L 156.528697 -111.713181 
L 154.150164 -110.399331 
L 151.771632 -109.060294 
L 149.3931 -107.696188 
L 147.014567 -106.30713 
L 144.636035 -104.893243 
L 142.257503 -103.454643 
L 139.87897 -101.991458 
L 137.500438 -100.50382 
L 135.121906 -98.991867 
L 132.743373 -97.455735 
L 130.364841 -95.895565 
L 127.986309 -94.311495 
L 125.607777 -92.703664 
L 123.229244 -91.072214 
L 120.850712 -89.417289 
L 118.47218 -87.739045 
L 116.093647 -86.037639 
L 113.715115 -84.313219 
L 111.336583 -82.565931 
L 108.95805 -80.795924 
L 106.579518 -79.003345 
L 104.200986 -77.188347 
L 101.822453 -75.351077 
L 99.443921 -73.491679 
L 97.065389 -71.6103 
L 94.686857 -69.707095 
L 92.308324 -67.782226 
L 89.929792 -65.835843 
L 87.55126 -63.868086 
L 85.172727 -61.879091 
z
" style="stroke: #a52a2a; stroke-opacity: 0.1"/>
    </defs>
    <g clip-path="url(#pc835d8e422)">
     <use xlink:href="#m86ec9eed27" x="0" y="360" style="fill: #a52a2a; fill-opacity: 0.1; stroke: #a52a2a; stroke-opacity: 0.1"/>
    </g>
   </g>
   <g id="FillBetweenPolyCollection_3">
    <defs>
     <path id="m88a330f679" d="M 85.172727 -61.879091 
L 85.172727 -61.879091 
L 87.55126 -62.27423 
L 89.929792 -62.641814 
L 92.308324 -62.981519 
L 94.686857 -63.293121 
L 97.065389 -63.576498 
L 99.443921 -63.83163 
L 101.822453 -64.058614 
L 104.200986 -64.257655 
L 106.579518 -64.429073 
L 108.95805 -64.573297 
L 111.336583 -64.690866 
L 113.715115 -64.782429 
L 116.093647 -64.848742 
L 118.47218 -64.890662 
L 120.850712 -64.909154 
L 123.229244 -64.905306 
L 125.607777 -64.880341 
L 127.986309 -64.83565 
L 130.364841 -64.772832 
L 132.743373 -64.693742 
L 135.121906 -64.600558 
L 137.500438 -64.495847 
L 139.87897 -64.382641 
L 142.257503 -64.264505 
L 144.636035 -64.145578 
L 147.014567 -64.030565 
L 149.3931 -63.924628 
L 151.771632 -63.833087 
L 154.150164 -63.760877 
L 156.528697 -63.711722 
L 158.907229 -63.687286 
L 161.285761 -63.686779 
L 163.664294 -63.70736 
L 166.042826 -63.745027 
L 168.421358 -63.795513 
L 170.79989 -63.854851 
L 173.178423 -63.919629 
L 175.556955 -63.987072 
L 177.935487 -64.05503 
L 180.31402 -64.121958 
L 182.692552 -64.186857 
L 185.071084 -64.249224 
L 187.449617 -64.308972 
L 189.828149 -64.366338 
L 192.206681 -64.421781 
L 194.585214 -64.475853 
L 196.963746 -64.52907 
L 199.342278 -64.58178 
L 201.720811 -64.634077 
L 204.099343 -64.685769 
L 206.477875 -64.736475 
L 208.856407 -64.785835 
L 211.23494 -64.833776 
L 213.613472 -64.880742 
L 215.992004 -64.92778 
L 218.370537 -64.976409 
L 220.749069 -65.028343 
L 223.127601 -65.085165 
L 225.506134 -65.148056 
L 227.884666 -65.217634 
L 230.263198 -65.293913 
L 232.641731 -65.376347 
L 235.020263 -65.463925 
L 237.398795 -65.555282 
L 239.777327 -65.648818 
L 242.15586 -65.742801 
L 244.534392 -65.835466 
L 246.912924 -65.925088 
L 249.291457 -66.010044 
L 251.669989 -66.088855 
L 254.048521 -66.160216 
L 256.427054 -66.223014 
L 258.805586 -66.276326 
L 261.184118 -66.319428 
L 263.562651 -66.351792 
L 265.941183 -66.373084 
L 268.319715 -66.383162 
L 270.698248 -66.382062 
L 273.07678 -66.369988 
L 275.455312 -66.347301 
L 277.833844 -66.314497 
L 280.212377 -66.2722 
L 282.590909 -66.221154 
L 284.969441 -66.162201 
L 287.347974 -66.096279 
L 289.726506 -66.024392 
L 292.105038 -65.947601 
L 294.483571 -65.866998 
L 296.862103 -65.78369 
L 299.240635 -65.69878 
L 301.619168 -65.613339 
L 303.9977 -65.528376 
L 306.376232 -65.44481 
L 308.754765 -65.363435 
L 311.133297 -65.284887 
L 313.511829 -65.209613 
L 315.890361 -65.137827 
L 318.268894 -65.069485 
L 320.647426 -65.004256 
L 323.025958 -64.941527 
L 325.404491 -64.880431 
L 327.783023 -64.819928 
L 330.161555 -64.758961 
L 332.540088 -64.696703 
L 334.91862 -64.632863 
L 337.297152 -64.568 
L 339.675685 -64.503718 
L 342.054217 -64.442636 
L 344.432749 -64.388107 
L 346.811281 -64.343746 
L 349.189814 -64.312886 
L 351.568346 -64.298095 
L 353.946878 -64.300842 
L 356.325411 -64.321352 
L 358.703943 -64.358653 
L 361.082475 -64.410792 
L 363.461008 -64.475136 
L 365.83954 -64.548696 
L 368.218072 -64.628401 
L 370.596605 -64.711299 
L 372.975137 -64.794674 
L 375.353669 -64.876113 
L 377.732202 -64.953523 
L 380.110734 -65.025129 
L 382.489266 -65.089458 
L 384.867798 -65.145312 
L 387.246331 -65.191752 
L 389.624863 -65.22807 
L 392.003395 -65.253775 
L 394.381928 -65.268582 
L 396.76046 -65.272403 
L 399.138992 -65.265343 
L 401.517525 -65.247694 
L 403.896057 -65.21992 
L 406.274589 -65.182651 
L 408.653122 -65.136672 
L 411.031654 -65.082919 
L 413.410186 -65.022471 
L 415.788719 -64.956535 
L 418.167251 -64.886427 
L 420.545783 -64.813547 
L 422.924315 -64.739366 
L 425.302848 -64.665399 
L 427.68138 -64.59319 
L 430.059912 -64.524284 
L 432.438445 -64.460174 
L 434.816977 -64.402227 
L 437.195509 -64.3516 
L 439.574042 -64.309138 
L 441.952574 -64.275289 
L 444.331106 -64.250051 
L 446.709639 -64.232975 
L 449.088171 -64.223212 
L 451.466703 -64.219598 
L 453.845235 -64.220758 
L 456.223768 -64.225194 
L 458.6023 -64.231373 
L 460.980832 -64.237815 
L 463.359365 -64.243167 
L 465.737897 -64.246264 
L 468.116429 -64.24616 
L 470.494962 -64.242139 
L 472.873494 -64.233712 
L 475.252026 -64.220607 
L 477.630559 -64.202757 
L 480.009091 -64.180272 
L 482.387623 -64.153419 
L 484.766156 -64.122587 
L 487.144688 -64.088267 
L 489.52322 -64.05107 
L 491.901752 -64.011771 
L 494.280285 -63.971389 
L 496.658817 -63.931269 
L 499.037349 -63.893141 
L 501.415882 -63.859101 
L 503.794414 -63.831504 
L 506.172946 -63.812795 
L 508.551479 -63.805305 
L 510.930011 -63.811038 
L 513.308543 -63.831486 
L 515.687076 -63.867472 
L 518.065608 -63.919086 
L 520.44414 -63.985728 
L 522.822673 -64.066255 
L 525.201205 -64.159163 
L 527.579737 -64.262773 
L 529.958269 -64.37537 
L 532.336802 -64.495296 
L 534.715334 -64.620995 
L 537.093866 -64.751045 
L 539.472399 -64.88418 
L 541.850931 -65.019294 
L 544.229463 -65.155447 
L 546.607996 -65.291871 
L 548.986528 -65.427945 
L 551.36506 -65.563204 
L 553.743593 -65.69732 
L 556.122125 -65.8301 
L 558.500657 -65.961475 
L 560.879189 -66.091461 
L 563.257722 -66.220125 
L 565.636254 -66.347553 
L 568.014786 -66.473809 
L 570.393319 -66.598904 
L 572.771851 -66.722767 
L 575.150383 -66.845213 
L 577.528916 -66.965933 
L 579.907448 -67.084503 
L 582.28598 -67.200423 
L 584.664513 -67.313177 
L 587.043045 -67.422305 
L 589.421577 -67.527485 
L 591.80011 -67.628599 
L 594.178642 -67.725801 
L 596.557174 -67.819572 
L 598.935706 -67.91075 
L 601.314239 -68.00053 
L 603.692771 -68.090442 
L 606.071303 -68.182285 
L 608.449836 -68.278038 
L 610.828368 -68.379759 
L 613.2069 -68.489458 
L 615.585433 -68.608964 
L 617.963965 -68.73982 
L 620.342497 -68.88319 
L 622.72103 -69.039821 
L 625.099562 -69.210053 
L 627.478094 -69.393893 
L 629.856627 -69.591097 
L 632.235159 -69.801264 
L 634.613691 -70.023911 
L 636.992223 -70.258543 
L 639.370756 -70.504687 
L 641.749288 -70.761917 
L 644.12782 -71.029871 
L 646.506353 -71.308261 
L 648.884885 -71.596879 
L 651.263417 -71.895593 
L 653.64195 -72.204336 
L 656.020482 -72.523105 
L 658.399014 -72.851956 
L 660.777547 -73.190981 
L 663.156079 -73.540296 
L 665.534611 -73.900026 
L 667.913143 -74.270294 
L 670.291676 -74.651206 
L 672.670208 -75.042841 
L 675.04874 -75.445238 
L 677.427273 -75.858391 
L 677.427273 -101.08156 
L 677.427273 -101.08156 
L 675.04874 -100.343714 
L 672.670208 -99.608455 
L 670.291676 -98.874005 
L 667.913143 -98.13874 
L 665.534611 -97.401226 
L 663.156079 -96.660242 
L 660.777547 -95.914809 
L 658.399014 -95.164198 
L 656.020482 -94.40796 
L 653.64195 -93.645934 
L 651.263417 -92.878256 
L 648.884885 -92.105364 
L 646.506353 -91.328002 
L 644.12782 -90.547209 
L 641.749288 -89.764313 
L 639.370756 -88.980906 
L 636.992223 -88.198813 
L 634.613691 -87.420078 
L 632.235159 -86.64693 
L 629.856627 -85.881744 
L 627.478094 -85.127001 
L 625.099562 -84.385259 
L 622.72103 -83.659122 
L 620.342497 -82.951213 
L 617.963965 -82.264133 
L 615.585433 -81.600424 
L 613.2069 -80.962528 
L 610.828368 -80.35272 
L 608.449836 -79.773023 
L 606.071303 -79.225113 
L 603.692771 -78.710229 
L 601.314239 -78.22909 
L 598.935706 -77.781827 
L 596.557174 -77.367936 
L 594.178642 -76.986258 
L 591.80011 -76.634995 
L 589.421577 -76.311758 
L 587.043045 -76.013636 
L 584.664513 -75.737306 
L 582.28598 -75.47915 
L 579.907448 -75.235401 
L 577.528916 -75.00227 
L 575.150383 -74.776067 
L 572.771851 -74.553301 
L 570.393319 -74.33076 
L 568.014786 -74.10557 
L 565.636254 -73.875235 
L 563.257722 -73.637662 
L 560.879189 -73.391177 
L 558.500657 -73.134512 
L 556.122125 -72.866799 
L 553.743593 -72.587564 
L 551.36506 -72.296718 
L 548.986528 -71.99454 
L 546.607996 -71.681661 
L 544.229463 -71.359049 
L 541.850931 -71.027986 
L 539.472399 -70.690062 
L 537.093866 -70.347157 
L 534.715334 -70.001429 
L 532.336802 -69.655291 
L 529.958269 -69.311382 
L 527.579737 -68.972533 
L 525.201205 -68.64174 
L 522.822673 -68.322111 
L 520.44414 -68.016813 
L 518.065608 -67.729004 
L 515.687076 -67.461743 
L 513.308543 -67.217899 
L 510.930011 -67.000014 
L 508.551479 -66.81014 
L 506.172946 -66.649662 
L 503.794414 -66.519128 
L 501.415882 -66.41814 
L 499.037349 -66.345318 
L 496.658817 -66.298349 
L 494.280285 -66.274111 
L 491.901752 -66.268871 
L 489.52322 -66.278541 
L 487.144688 -66.298956 
L 484.766156 -66.326128 
L 482.387623 -66.356444 
L 480.009091 -66.386797 
L 477.630559 -66.414658 
L 475.252026 -66.438097 
L 472.873494 -66.455785 
L 470.494962 -66.466981 
L 468.116429 -66.471517 
L 465.737897 -66.469775 
L 463.359365 -66.462665 
L 460.980832 -66.451598 
L 458.6023 -66.438438 
L 456.223768 -66.425455 
L 453.845235 -66.415247 
L 451.466703 -66.41063 
L 449.088171 -66.414507 
L 446.709639 -66.429692 
L 444.331106 -66.458729 
L 441.952574 -66.503703 
L 439.574042 -66.56608 
L 437.195509 -66.646586 
L 434.816977 -66.745144 
L 432.438445 -66.860871 
L 430.059912 -66.99213 
L 427.68138 -67.136633 
L 425.302848 -67.291581 
L 422.924315 -67.453823 
L 420.545783 -67.620028 
L 418.167251 -67.786826 
L 415.788719 -67.950941 
L 413.410186 -68.109278 
L 411.031654 -68.258999 
L 408.653122 -68.397569 
L 406.274589 -68.522782 
L 403.896057 -68.632783 
L 401.517525 -68.726082 
L 399.138992 -68.801556 
L 396.76046 -68.858436 
L 394.381928 -68.896314 
L 392.003395 -68.915119 
L 389.624863 -68.91509 
L 387.246331 -68.896757 
L 384.867798 -68.860935 
L 382.489266 -68.808693 
L 380.110734 -68.741338 
L 377.732202 -68.660405 
L 375.353669 -68.567631 
L 372.975137 -68.464929 
L 370.596605 -68.354373 
L 368.218072 -68.238206 
L 365.83954 -68.11881 
L 363.461008 -67.998732 
L 361.082475 -67.880697 
L 358.703943 -67.767623 
L 356.325411 -67.66263 
L 353.946878 -67.569048 
L 351.568346 -67.4904 
L 349.189814 -67.430358 
L 346.811281 -67.392644 
L 344.432749 -67.380876 
L 342.054217 -67.398303 
L 339.675685 -67.447509 
L 337.297152 -67.530065 
L 334.91862 -67.646269 
L 332.540088 -67.795051 
L 330.161555 -67.97409 
L 327.783023 -68.180107 
L 325.404491 -68.40924 
L 323.025958 -68.657376 
L 320.647426 -68.920425 
L 318.268894 -69.194475 
L 315.890361 -69.475874 
L 313.511829 -69.761239 
L 311.133297 -70.047465 
L 308.754765 -70.33169 
L 306.376232 -70.611272 
L 303.9977 -70.883759 
L 301.619168 -71.146869 
L 299.240635 -71.398458 
L 296.862103 -71.636514 
L 294.483571 -71.859142 
L 292.105038 -72.064556 
L 289.726506 -72.251081 
L 287.347974 -72.417143 
L 284.969441 -72.561282 
L 282.590909 -72.682153 
L 280.212377 -72.77855 
L 277.833844 -72.849411 
L 275.455312 -72.893852 
L 273.07678 -72.911171 
L 270.698248 -72.900886 
L 268.319715 -72.862742 
L 265.941183 -72.796728 
L 263.562651 -72.703105 
L 261.184118 -72.58241 
L 258.805586 -72.435475 
L 256.427054 -72.263427 
L 254.048521 -72.067694 
L 251.669989 -71.85 
L 249.291457 -71.612377 
L 246.912924 -71.357144 
L 244.534392 -71.086897 
L 242.15586 -70.8045 
L 239.777327 -70.513062 
L 237.398795 -70.215922 
L 235.020263 -69.916619 
L 232.641731 -69.618861 
L 230.263198 -69.326471 
L 227.884666 -69.043347 
L 225.506134 -68.773392 
L 223.127601 -68.52043 
L 220.749069 -68.288086 
L 218.370537 -68.079619 
L 215.992004 -67.89768 
L 213.613472 -67.744047 
L 211.23494 -67.619347 
L 208.856407 -67.522884 
L 206.477875 -67.452641 
L 204.099343 -67.405491 
L 201.720811 -67.377581 
L 199.342278 -67.364756 
L 196.963746 -67.362938 
L 194.585214 -67.368404 
L 192.206681 -67.377944 
L 189.828149 -67.388934 
L 187.449617 -67.399354 
L 185.071084 -67.407766 
L 182.692552 -67.413291 
L 180.31402 -67.415559 
L 177.935487 -67.414668 
L 175.556955 -67.411132 
L 173.178423 -67.405818 
L 170.79989 -67.399876 
L 168.421358 -67.394639 
L 166.042826 -67.391511 
L 163.664294 -67.391834 
L 161.285761 -67.396777 
L 158.907229 -67.407264 
L 156.528697 -67.424001 
L 154.150164 -67.447558 
L 151.771632 -67.478393 
L 149.3931 -67.516752 
L 147.014567 -67.562471 
L 144.636035 -67.614838 
L 142.257503 -67.67248 
L 139.87897 -67.733364 
L 137.500438 -67.794809 
L 135.121906 -67.853566 
L 132.743373 -67.905921 
L 130.364841 -67.947803 
L 127.986309 -67.974905 
L 125.607777 -67.982808 
L 123.229244 -67.967098 
L 120.850712 -67.923474 
L 118.47218 -67.847826 
L 116.093647 -67.736299 
L 113.715115 -67.585325 
L 111.336583 -67.391675 
L 108.95805 -67.152474 
L 106.579518 -66.865213 
L 104.200986 -66.527747 
L 101.822453 -66.138301 
L 99.443921 -65.69546 
L 97.065389 -65.198154 
L 94.686857 -64.645639 
L 92.308324 -64.037481 
L 89.929792 -63.373541 
L 87.55126 -62.653953 
L 85.172727 -61.879091 
z
" style="stroke: #000080; stroke-opacity: 0.1"/>
    </defs>
    <g clip-path="url(#pc835d8e422)">
     <use xlink:href="#m88a330f679" x="0" y="360" style="fill: #000080; fill-opacity: 0.1; stroke: #000080; stroke-opacity: 0.1"/>
    </g>
   </g>
   <g id="FillBetweenPolyCollection_4">
    <defs>
     <path id="m4ac2d16c6b" d="M 85.172727 -61.879091 
L 85.172727 -61.879091 
L 87.55126 -62.412881 
L 89.929792 -62.924308 
L 92.308324 -63.41279 
L 94.686857 -63.877808 
L 97.065389 -64.318921 
L 99.443921 -64.735784 
L 101.822453 -65.128174 
L 104.200986 -65.496008 
L 106.579518 -65.839367 
L 108.95805 -66.158528 
L 111.336583 -66.453987 
L 113.715115 -66.726475 
L 116.093647 -66.97697 
L 118.47218 -67.206693 
L 120.850712 -67.417098 
L 123.229244 -67.609841 
L 125.607777 -67.786744 
L 127.986309 -67.949737 
L 130.364841 -68.1008 
L 132.743373 -68.241883 
L 135.121906 -68.374817 
L 137.500438 -68.501233 
L 139.87897 -68.622502 
L 142.257503 -68.739679 
L 144.636035 -68.853468 
L 147.014567 -68.964205 
L 149.3931 -69.071878 
L 151.771632 -69.176144 
L 154.150164 -69.276407 
L 156.528697 -69.371866 
L 158.907229 -69.4616 
L 161.285761 -69.544652 
L 163.664294 -69.620102 
L 166.042826 -69.687118 
L 168.421358 -69.745023 
L 170.79989 -69.793341 
L 173.178423 -69.831839 
L 175.556955 -69.86056 
L 177.935487 -69.879845 
L 180.31402 -69.890351 
L 182.692552 -69.893053 
L 185.071084 -69.889237 
L 187.449617 -69.880488 
L 189.828149 -69.868646 
L 192.206681 -69.85577 
L 194.585214 -69.844075 
L 196.963746 -69.835876 
L 199.342278 -69.833513 
L 201.720811 -69.839297 
L 204.099343 -69.855447 
L 206.477875 -69.884046 
L 208.856407 -69.927014 
L 211.23494 -69.986087 
L 213.613472 -70.062799 
L 215.992004 -70.158477 
L 218.370537 -70.274227 
L 220.749069 -70.410893 
L 223.127601 -70.569018 
L 225.506134 -70.748779 
L 227.884666 -70.949926 
L 230.263198 -71.171727 
L 232.641731 -71.412942 
L 235.020263 -71.671834 
L 237.398795 -71.946208 
L 239.777327 -72.233493 
L 242.15586 -72.530835 
L 244.534392 -72.835199 
L 246.912924 -73.143482 
L 249.291457 -73.452608 
L 251.669989 -73.759604 
L 254.048521 -74.061674 
L 256.427054 -74.356251 
L 258.805586 -74.641039 
L 261.184118 -74.914027 
L 263.562651 -75.173513 
L 265.941183 -75.418117 
L 268.319715 -75.646787 
L 270.698248 -75.858791 
L 273.07678 -76.053711 
L 275.455312 -76.231435 
L 277.833844 -76.392131 
L 280.212377 -76.536238 
L 282.590909 -76.66444 
L 284.969441 -76.777646 
L 287.347974 -76.876961 
L 289.726506 -76.963662 
L 292.105038 -77.039175 
L 294.483571 -77.10504 
L 296.862103 -77.162886 
L 299.240635 -77.214395 
L 301.619168 -77.261278 
L 303.9977 -77.305243 
L 306.376232 -77.347962 
L 308.754765 -77.391042 
L 311.133297 -77.435999 
L 313.511829 -77.484232 
L 315.890361 -77.536991 
L 318.268894 -77.595357 
L 320.647426 -77.660217 
L 323.025958 -77.732245 
L 325.404491 -77.811882 
L 327.783023 -77.899322 
L 330.161555 -77.994507 
L 332.540088 -78.097122 
L 334.91862 -78.206599 
L 337.297152 -78.322132 
L 339.675685 -78.442693 
L 342.054217 -78.567056 
L 344.432749 -78.693821 
L 346.811281 -78.82145 
L 349.189814 -78.948304 
L 351.568346 -79.072673 
L 353.946878 -79.192811 
L 356.325411 -79.306964 
L 358.703943 -79.413396 
L 361.082475 -79.510415 
L 363.461008 -79.596391 
L 365.83954 -79.669782 
L 368.218072 -79.729148 
L 370.596605 -79.773162 
L 372.975137 -79.800611 
L 375.353669 -79.810413 
L 377.732202 -79.801614 
L 380.110734 -79.773402 
L 382.489266 -79.725108 
L 384.867798 -79.656215 
L 387.246331 -79.566354 
L 389.624863 -79.455305 
L 392.003395 -79.322996 
L 394.381928 -79.169505 
L 396.76046 -78.995064 
L 399.138992 -78.800057 
L 401.517525 -78.585022 
L 403.896057 -78.350642 
L 406.274589 -78.097742 
L 408.653122 -77.827285 
L 411.031654 -77.540364 
L 413.410186 -77.2382 
L 415.788719 -76.922132 
L 418.167251 -76.593607 
L 420.545783 -76.254159 
L 422.924315 -75.905405 
L 425.302848 -75.54903 
L 427.68138 -75.18677 
L 430.059912 -74.820403 
L 432.438445 -74.451726 
L 434.816977 -74.082526 
L 437.195509 -73.714562 
L 439.574042 -73.349533 
L 441.952574 -72.989059 
L 444.331106 -72.634649 
L 446.709639 -72.287675 
L 449.088171 -71.949333 
L 451.466703 -71.620637 
L 453.845235 -71.302407 
L 456.223768 -70.995273 
L 458.6023 -70.699697 
L 460.980832 -70.415986 
L 463.359365 -70.144318 
L 465.737897 -69.884772 
L 468.116429 -69.637357 
L 470.494962 -69.402048 
L 472.873494 -69.178813 
L 475.252026 -68.967628 
L 477.630559 -68.768499 
L 480.009091 -68.581481 
L 482.387623 -68.406697 
L 484.766156 -68.244351 
L 487.144688 -68.094744 
L 489.52322 -67.958278 
L 491.901752 -67.835472 
L 494.280285 -67.726968 
L 496.658817 -67.633552 
L 499.037349 -67.556168 
L 501.415882 -67.495931 
L 503.794414 -67.454125 
L 506.172946 -67.432162 
L 508.551479 -67.4315 
L 510.930011 -67.453518 
L 513.308543 -67.499364 
L 515.687076 -67.569815 
L 518.065608 -67.665175 
L 520.44414 -67.785213 
L 522.822673 -67.92915 
L 525.201205 -68.095686 
L 527.579737 -68.283052 
L 529.958269 -68.489103 
L 532.336802 -68.71142 
L 534.715334 -68.947414 
L 537.093866 -69.194435 
L 539.472399 -69.449852 
L 541.850931 -69.711134 
L 544.229463 -69.975897 
L 546.607996 -70.241938 
L 548.986528 -70.507246 
L 551.36506 -70.770021 
L 553.743593 -71.028675 
L 556.122125 -71.281832 
L 558.500657 -71.528332 
L 560.879189 -71.767214 
L 563.257722 -71.99771 
L 565.636254 -72.219243 
L 568.014786 -72.431415 
L 570.393319 -72.634002 
L 572.771851 -72.82695 
L 575.150383 -73.010349 
L 577.528916 -73.184425 
L 579.907448 -73.349523 
L 582.28598 -73.506092 
L 584.664513 -73.654672 
L 587.043045 -73.795869 
L 589.421577 -73.930333 
L 591.80011 -74.058729 
L 594.178642 -74.181721 
L 596.557174 -74.299955 
L 598.935706 -74.414048 
L 601.314239 -74.524585 
L 603.692771 -74.632118 
L 606.071303 -74.737177 
L 608.449836 -74.840294 
L 610.828368 -74.942039 
L 613.2069 -75.043057 
L 615.585433 -75.144114 
L 617.963965 -75.246139 
L 620.342497 -75.350265 
L 622.72103 -75.457849 
L 625.099562 -75.570488 
L 627.478094 -75.690007 
L 629.856627 -75.818411 
L 632.235159 -75.957826 
L 634.613691 -76.110412 
L 636.992223 -76.278275 
L 639.370756 -76.463369 
L 641.749288 -76.667421 
L 644.12782 -76.891867 
L 646.506353 -77.137814 
L 648.884885 -77.406028 
L 651.263417 -77.696942 
L 653.64195 -78.010683 
L 656.020482 -78.347118 
L 658.399014 -78.7059 
L 660.777547 -79.086526 
L 663.156079 -79.488385 
L 665.534611 -79.9108 
L 667.913143 -80.353063 
L 670.291676 -80.814462 
L 672.670208 -81.294302 
L 675.04874 -81.791923 
L 677.427273 -82.306708 
L 677.427273 -103.077353 
L 677.427273 -103.077353 
L 675.04874 -102.076687 
L 672.670208 -101.101568 
L 670.291676 -100.152669 
L 667.913143 -99.230735 
L 665.534611 -98.336589 
L 663.156079 -97.471143 
L 660.777547 -96.63541 
L 658.399014 -95.830501 
L 656.020482 -95.057624 
L 653.64195 -94.318092 
L 651.263417 -93.613314 
L 648.884885 -92.944777 
L 646.506353 -92.314019 
L 644.12782 -91.722589 
L 641.749288 -91.172009 
L 639.370756 -90.66371 
L 636.992223 -90.198955 
L 634.613691 -89.77875 
L 632.235159 -89.40374 
L 629.856627 -89.074123 
L 627.478094 -88.789562 
L 625.099562 -88.54911 
L 622.72103 -88.351161 
L 620.342497 -88.193436 
L 617.963965 -88.072991 
L 615.585433 -87.986262 
L 613.2069 -87.929156 
L 610.828368 -87.897166 
L 608.449836 -87.885479 
L 606.071303 -87.889106 
L 603.692771 -87.902984 
L 601.314239 -87.922094 
L 598.935706 -87.941557 
L 596.557174 -87.956704 
L 594.178642 -87.963148 
L 591.80011 -87.956817 
L 589.421577 -87.933998 
L 587.043045 -87.891351 
L 584.664513 -87.825923 
L 582.28598 -87.735153 
L 579.907448 -87.616869 
L 577.528916 -87.469297 
L 575.150383 -87.291059 
L 572.771851 -87.081161 
L 570.393319 -86.838996 
L 568.014786 -86.564336 
L 565.636254 -86.257334 
L 563.257722 -85.918517 
L 560.879189 -85.54881 
L 558.500657 -85.149512 
L 556.122125 -84.722304 
L 553.743593 -84.269247 
L 551.36506 -83.792779 
L 548.986528 -83.295713 
L 546.607996 -82.781229 
L 544.229463 -82.25287 
L 541.850931 -81.714519 
L 539.472399 -81.170396 
L 537.093866 -80.625031 
L 534.715334 -80.083248 
L 532.336802 -79.550127 
L 529.958269 -79.030964 
L 527.579737 -78.531208 
L 525.201205 -78.056389 
L 522.822673 -77.612006 
L 520.44414 -77.203409 
L 518.065608 -76.835642 
L 515.687076 -76.51326 
L 513.308543 -76.240152 
L 510.930011 -76.01937 
L 508.551479 -75.852971 
L 506.172946 -75.741922 
L 503.794414 -75.686048 
L 501.415882 -75.68407 
L 499.037349 -75.733726 
L 496.658817 -75.831951 
L 494.280285 -75.975122 
L 491.901752 -76.159316 
L 489.52322 -76.380551 
L 487.144688 -76.635002 
L 484.766156 -76.919166 
L 482.387623 -77.229987 
L 480.009091 -77.564923 
L 477.630559 -77.921972 
L 475.252026 -78.299669 
L 472.873494 -78.697054 
L 470.494962 -79.113619 
L 468.116429 -79.549237 
L 465.737897 -80.004082 
L 463.359365 -80.478536 
L 460.980832 -80.973097 
L 458.6023 -81.488282 
L 456.223768 -82.024554 
L 453.845235 -82.582228 
L 451.466703 -83.161401 
L 449.088171 -83.761888 
L 446.709639 -84.383174 
L 444.331106 -85.024374 
L 441.952574 -85.684216 
L 439.574042 -86.361019 
L 437.195509 -87.0527 
L 434.816977 -87.756778 
L 432.438445 -88.470403 
L 430.059912 -89.190392 
L 427.68138 -89.913271 
L 425.302848 -90.635336 
L 422.924315 -91.35271 
L 420.545783 -92.06141 
L 418.167251 -92.757395 
L 415.788719 -93.436639 
L 413.410186 -94.095177 
L 411.031654 -94.729167 
L 408.653122 -95.334936 
L 406.274589 -95.909025 
L 403.896057 -96.44823 
L 401.517525 -96.949629 
L 399.138992 -97.410611 
L 396.76046 -97.82889 
L 394.381928 -98.202534 
L 392.003395 -98.52997 
L 389.624863 -98.80999 
L 387.246331 -99.041761 
L 384.867798 -99.224831 
L 382.489266 -99.359119 
L 380.110734 -99.444917 
L 377.732202 -99.48288 
L 375.353669 -99.474025 
L 372.975137 -99.419722 
L 370.596605 -99.32168 
L 368.218072 -99.181949 
L 365.83954 -99.002895 
L 363.461008 -98.787185 
L 361.082475 -98.537776 
L 358.703943 -98.257886 
L 356.325411 -97.950977 
L 353.946878 -97.620714 
L 351.568346 -97.27094 
L 349.189814 -96.905636 
L 346.811281 -96.528868 
L 344.432749 -96.144752 
L 342.054217 -95.757379 
L 339.675685 -95.370764 
L 337.297152 -94.988773 
L 334.91862 -94.615056 
L 332.540088 -94.252971 
L 330.161555 -93.905519 
L 327.783023 -93.57527 
L 325.404491 -93.264304 
L 323.025958 -92.974157 
L 320.647426 -92.70578 
L 318.268894 -92.459517 
L 315.890361 -92.235095 
L 313.511829 -92.031631 
L 311.133297 -91.847665 
L 308.754765 -91.681211 
L 306.376232 -91.529807 
L 303.9977 -91.390598 
L 301.619168 -91.26041 
L 299.240635 -91.135835 
L 296.862103 -91.013323 
L 294.483571 -90.889269 
L 292.105038 -90.760093 
L 289.726506 -90.622322 
L 287.347974 -90.472653 
L 284.969441 -90.30802 
L 282.590909 -90.125648 
L 280.212377 -89.923103 
L 277.833844 -89.698335 
L 275.455312 -89.449721 
L 273.07678 -89.176096 
L 270.698248 -88.876783 
L 268.319715 -88.55161 
L 265.941183 -88.200934 
L 263.562651 -87.82565 
L 261.184118 -87.427202 
L 258.805586 -87.007579 
L 256.427054 -86.569317 
L 254.048521 -86.115478 
L 251.669989 -85.649634 
L 249.291457 -85.175832 
L 246.912924 -84.698549 
L 244.534392 -84.22263 
L 242.15586 -83.753208 
L 239.777327 -83.295605 
L 237.398795 -82.855215 
L 235.020263 -82.437362 
L 232.641731 -82.047135 
L 230.263198 -81.689205 
L 227.884666 -81.367641 
L 225.506134 -81.085706 
L 223.127601 -80.84567 
L 220.749069 -80.648669 
L 218.370537 -80.494606 
L 215.992004 -80.382123 
L 213.613472 -80.308661 
L 211.23494 -80.270587 
L 208.856407 -80.263382 
L 206.477875 -80.281877 
L 204.099343 -80.320498 
L 201.720811 -80.373504 
L 199.342278 -80.435203 
L 196.963746 -80.500133 
L 194.585214 -80.563194 
L 192.206681 -80.619751 
L 189.828149 -80.665698 
L 187.449617 -80.697476 
L 185.071084 -80.712077 
L 182.692552 -80.707034 
L 180.31402 -80.680381 
L 177.935487 -80.630623 
L 175.556955 -80.55669 
L 173.178423 -80.457897 
L 170.79989 -80.333894 
L 168.421358 -80.184629 
L 166.042826 -80.010296 
L 163.664294 -79.811299 
L 161.285761 -79.588211 
L 158.907229 -79.341743 
L 156.528697 -79.072698 
L 154.150164 -78.781949 
L 151.771632 -78.470405 
L 149.3931 -78.138988 
L 147.014567 -77.788601 
L 144.636035 -77.420109 
L 142.257503 -77.034308 
L 139.87897 -76.631912 
L 137.500438 -76.213527 
L 135.121906 -75.77962 
L 132.743373 -75.330499 
L 130.364841 -74.866284 
L 127.986309 -74.386882 
L 125.607777 -73.891965 
L 123.229244 -73.380966 
L 120.850712 -72.853069 
L 118.47218 -72.307217 
L 116.093647 -71.742123 
L 113.715115 -71.1563 
L 111.336583 -70.548095 
L 108.95805 -69.915731 
L 106.579518 -69.257356 
L 104.200986 -68.571088 
L 101.822453 -67.855073 
L 99.443921 -67.10753 
L 97.065389 -66.326796 
L 94.686857 -65.511354 
L 92.308324 -64.659872 
L 89.929792 -63.771228 
L 87.55126 -62.844525 
L 85.172727 -61.879091 
z
" style="stroke: #000080; stroke-opacity: 0.1"/>
    </defs>
    <g clip-path="url(#pc835d8e422)">
     <use xlink:href="#m4ac2d16c6b" x="0" y="360" style="fill: #000080; fill-opacity: 0.1; stroke: #000080; stroke-opacity: 0.1"/>
    </g>
   </g>
   <g id="line2d_1">
    <path d="M 85.172727 298.120909 
L 173.178423 234.070052 
L 194.585214 218.943757 
L 213.613472 205.784596 
L 230.263198 194.527509 
L 246.912924 183.537544 
L 263.562651 172.838853 
L 277.833844 163.917032 
L 292.105038 155.239422 
L 306.376232 146.819471 
L 320.647426 138.669516 
L 334.91862 130.802044 
L 349.189814 123.228173 
L 361.082475 117.149801 
L 372.975137 111.291981 
L 384.867798 105.662407 
L 396.76046 100.269424 
L 408.653122 95.121692 
L 420.545783 90.227126 
L 432.438445 85.592882 
L 444.331106 81.225004 
L 456.223768 77.127186 
L 468.116429 73.300262 
L 480.009091 69.742212 
L 491.901752 66.44875 
L 503.794414 63.412584 
L 515.687076 60.624028 
L 527.579737 58.07145 
L 539.472399 55.741364 
L 551.36506 53.619156 
L 565.636254 51.325928 
L 579.907448 49.286156 
L 594.178642 47.478409 
L 608.449836 45.885791 
L 622.72103 44.495903 
L 636.992223 43.300752 
L 653.64195 42.146483 
L 670.291676 41.247112 
L 677.427273 40.939091 
L 677.427273 40.939091 
" clip-path="url(#pc835d8e422)" style="fill: none; stroke: #000000; stroke-width: 1.5; stroke-linecap: round"/>
   </g>
   <g id="line2d_2">
    <path d="M 85.172727 298.120909 
L 94.686857 292.683756 
L 104.200986 287.510559 
L 113.715115 282.607518 
L 123.229244 277.979308 
L 132.743373 273.629363 
L 142.257503 269.559391 
L 151.771632 265.769682 
L 161.285761 262.25896 
L 170.79989 259.02457 
L 180.31402 256.06264 
L 189.828149 253.368713 
L 199.342278 250.937674 
L 208.856407 248.763931 
L 218.370537 246.84143 
L 227.884666 245.163961 
L 237.398795 243.725194 
L 246.912924 242.519055 
L 256.427054 241.539549 
L 265.941183 240.780873 
L 275.455312 240.237114 
L 284.969441 239.902822 
L 294.483571 239.772847 
L 303.9977 239.841926 
L 313.511829 240.104717 
L 323.025958 240.555785 
L 332.540088 241.18936 
L 344.432749 242.227883 
L 356.325411 243.526827 
L 368.218072 245.069838 
L 380.110734 246.836075 
L 394.381928 249.21062 
L 411.031654 252.241997 
L 439.574042 257.533443 
L 449.088171 259.086516 
L 456.223768 260.088319 
L 463.359365 260.896487 
L 470.494962 261.458235 
L 477.630559 261.719549 
L 482.387623 261.700934 
L 487.144688 261.511321 
L 491.901752 261.138148 
L 496.658817 260.571006 
L 501.415882 259.802106 
L 506.172946 258.826602 
L 510.930011 257.642728 
L 515.687076 256.251682 
L 520.44414 254.657307 
L 525.201205 252.865579 
L 529.958269 250.884021 
L 534.715334 248.721202 
L 539.472399 246.386229 
L 546.607996 242.581246 
L 553.743593 238.440522 
L 560.879189 233.992971 
L 568.014786 229.26508 
L 575.150383 224.280556 
L 582.28598 219.060415 
L 591.80011 211.765096 
L 601.314239 204.120822 
L 610.828368 196.159374 
L 620.342497 187.907931 
L 629.856627 179.38982 
L 641.749288 168.397541 
L 653.64195 157.053636 
L 665.534611 145.386393 
L 677.427273 133.419554 
L 677.427273 133.419554 
" clip-path="url(#pc835d8e422)" style="fill: none; stroke: #a52a2a; stroke-width: 1.5; stroke-linecap: round"/>
   </g>
   <g id="line2d_3">
    <path d="M 85.172727 298.120909 
L 89.929792 296.992322 
L 94.686857 296.03062 
L 99.443921 295.236455 
L 104.200986 294.607299 
L 108.95805 294.137114 
L 116.093647 293.70748 
L 123.229244 293.563798 
L 130.364841 293.639683 
L 142.257503 294.031507 
L 154.150164 294.395783 
L 163.664294 294.450403 
L 185.071084 294.171505 
L 208.856407 293.845641 
L 218.370537 293.471986 
L 227.884666 292.869509 
L 258.805586 290.6441 
L 265.941183 290.415094 
L 273.07678 290.35942 
L 282.590909 290.548347 
L 292.105038 290.993922 
L 303.9977 291.793932 
L 327.783023 293.499983 
L 337.297152 293.950968 
L 344.432749 294.115508 
L 351.568346 294.105753 
L 361.082475 293.854255 
L 387.246331 292.955746 
L 396.76046 292.93458 
L 406.274589 293.147283 
L 418.167251 293.663373 
L 434.816977 294.426314 
L 444.331106 294.64561 
L 456.223768 294.674676 
L 477.630559 294.691293 
L 501.415882 294.86138 
L 508.551479 294.692278 
L 515.687076 294.335392 
L 525.201205 293.599548 
L 541.850931 291.97636 
L 558.500657 290.452006 
L 577.528916 289.015899 
L 591.80011 287.868203 
L 601.314239 286.88519 
L 610.828368 285.63376 
L 620.342497 284.082798 
L 629.856627 282.26358 
L 641.749288 279.736885 
L 663.156079 274.899731 
L 677.427273 271.530025 
L 677.427273 271.530025 
" clip-path="url(#pc835d8e422)" style="fill: none; stroke: #000080; stroke-width: 1.5; stroke-linecap: round"/>
   </g>
   <g id="line2d_4">
    <path d="M 85.172727 298.120909 
L 92.308324 295.963669 
L 99.443921 294.078343 
L 106.579518 292.451639 
L 113.715115 291.058612 
L 120.850712 289.864917 
L 130.364841 288.516458 
L 142.257503 287.113007 
L 154.150164 285.970822 
L 163.664294 285.2843 
L 173.178423 284.855132 
L 182.692552 284.699957 
L 194.585214 284.796365 
L 208.856407 284.904802 
L 215.992004 284.7297 
L 223.127601 284.292656 
L 230.263198 283.569534 
L 237.398795 282.599289 
L 249.291457 280.68578 
L 261.184118 278.829386 
L 268.319715 277.900801 
L 275.455312 277.159422 
L 282.590909 276.604956 
L 292.105038 276.100366 
L 318.268894 274.972563 
L 327.783023 274.262704 
L 339.675685 273.093271 
L 356.325411 271.37103 
L 363.461008 270.808212 
L 370.596605 270.452579 
L 377.732202 270.357753 
L 384.867798 270.559477 
L 392.003395 271.073517 
L 399.138992 271.894666 
L 406.274589 272.996616 
L 413.410186 274.333311 
L 422.924315 276.370942 
L 446.709639 281.664576 
L 456.223768 283.490087 
L 465.737897 285.055573 
L 475.252026 286.366352 
L 484.766156 287.418241 
L 491.901752 288.002606 
L 499.037349 288.355053 
L 506.172946 288.412958 
L 510.930011 288.263556 
L 515.687076 287.958463 
L 522.822673 287.229422 
L 529.958269 286.239967 
L 541.850931 284.287173 
L 553.743593 282.351039 
L 563.257722 281.041886 
L 570.393319 280.263501 
L 577.528916 279.673139 
L 587.043045 279.15639 
L 598.935706 278.822197 
L 615.585433 278.434812 
L 622.72103 278.095495 
L 629.856627 277.553733 
L 636.992223 276.761385 
L 644.12782 275.692772 
L 651.263417 274.344872 
L 658.399014 272.731799 
L 665.534611 270.876306 
L 672.670208 268.802065 
L 677.427273 267.30797 
L 677.427273 267.30797 
" clip-path="url(#pc835d8e422)" style="fill: none; stroke-dasharray: 5.55,2.4; stroke-dashoffset: 0; stroke: #000080; stroke-width: 1.5"/>
   </g>
   <g id="patch_3">
    <path d="M 55.56 310.98 
L 55.56 28.08 
" style="fill: none; stroke: #ffffff; stroke-width: 1.25; stroke-linejoin: miter; stroke-linecap: square"/>
   </g>
   <g id="patch_4">
    <path d="M 707.04 310.98 
L 707.04 28.08 
" style="fill: none; stroke: #ffffff; stroke-width: 1.25; stroke-linejoin: miter; stroke-linecap: square"/>
   </g>
   <g id="patch_5">
    <path d="M 55.56 310.98 
L 707.04 310.98 
" style="fill: none; stroke: #ffffff; stroke-width: 1.25; stroke-linejoin: miter; stroke-linecap: square"/>
   </g>
   <g id="patch_6">
    <path d="M 55.56 28.08 
L 707.04 28.08 
" style="fill: none; stroke: #ffffff; stroke-width: 1.25; stroke-linejoin: miter; stroke-linecap: square"/>
   </g>
   <g id="text_15">
    <!-- QG3L - [112, 176] x [64, 192] -->
    <g style="fill: #262626" transform="translate(292.44 22.08) scale(0.12 -0.12)">
     <defs>
      <path id="DejaVuSans-51" d="M 2522 4238 
Q 1834 4238 1429 3725 
Q 1025 3213 1025 2328 
Q 1025 1447 1429 934 
Q 1834 422 2522 422 
Q 3209 422 3611 934 
Q 4013 1447 4013 2328 
Q 4013 3213 3611 3725 
Q 3209 4238 2522 4238 
z
M 3406 84 
L 4238 -825 
L 3475 -825 
L 2784 -78 
Q 2681 -84 2626 -87 
Q 2572 -91 2522 -91 
Q 1538 -91 948 567 
Q 359 1225 359 2328 
Q 359 3434 948 4092 
Q 1538 4750 2522 4750 
Q 3503 4750 4090 4092 
Q 4678 3434 4678 2328 
Q 4678 1516 4351 937 
Q 4025 359 3406 84 
z
" transform="scale(0.015625)"/>
      <path id="DejaVuSans-47" d="M 3809 666 
L 3809 1919 
L 2778 1919 
L 2778 2438 
L 4434 2438 
L 4434 434 
Q 4069 175 3628 42 
Q 3188 -91 2688 -91 
Q 1594 -91 976 548 
Q 359 1188 359 2328 
Q 359 3472 976 4111 
Q 1594 4750 2688 4750 
Q 3144 4750 3555 4637 
Q 3966 4525 4313 4306 
L 4313 3634 
Q 3963 3931 3569 4081 
Q 3175 4231 2741 4231 
Q 1884 4231 1454 3753 
Q 1025 3275 1025 2328 
Q 1025 1384 1454 906 
Q 1884 428 2741 428 
Q 3075 428 3337 486 
Q 3600 544 3809 666 
z
" transform="scale(0.015625)"/>
      <path id="DejaVuSans-4c" d="M 628 4666 
L 1259 4666 
L 1259 531 
L 3531 531 
L 3531 0 
L 628 0 
L 628 4666 
z
" transform="scale(0.015625)"/>
      <path id="DejaVuSans-2d" d="M 313 2009 
L 1997 2009 
L 1997 1497 
L 313 1497 
L 313 2009 
z
" transform="scale(0.015625)"/>
      <path id="DejaVuSans-2c" d="M 750 794 
L 1409 794 
L 1409 256 
L 897 -744 
L 494 -744 
L 750 256 
L 750 794 
z
" transform="scale(0.015625)"/>
      <path id="DejaVuSans-37" d="M 525 4666 
L 3525 4666 
L 3525 4397 
L 1831 0 
L 1172 0 
L 2766 4134 
L 525 4134 
L 525 4666 
z
" transform="scale(0.015625)"/>
      <path id="DejaVuSans-78" d="M 3513 3500 
L 2247 1797 
L 3578 0 
L 2900 0 
L 1881 1375 
L 863 0 
L 184 0 
L 1544 1831 
L 300 3500 
L 978 3500 
L 1906 2253 
L 2834 3500 
L 3513 3500 
z
" transform="scale(0.015625)"/>
      <path id="DejaVuSans-39" d="M 703 97 
L 703 672 
Q 941 559 1184 500 
Q 1428 441 1663 441 
Q 2288 441 2617 861 
Q 2947 1281 2994 2138 
Q 2813 1869 2534 1725 
Q 2256 1581 1919 1581 
Q 1219 1581 811 2004 
Q 403 2428 403 3163 
Q 403 3881 828 4315 
Q 1253 4750 1959 4750 
Q 2769 4750 3195 4129 
Q 3622 3509 3622 2328 
Q 3622 1225 3098 567 
Q 2575 -91 1691 -91 
Q 1453 -91 1209 -44 
Q 966 3 703 97 
z
M 1959 2075 
Q 2384 2075 2632 2365 
Q 2881 2656 2881 3163 
Q 2881 3666 2632 3958 
Q 2384 4250 1959 4250 
Q 1534 4250 1286 3958 
Q 1038 3666 1038 3163 
Q 1038 2656 1286 2365 
Q 1534 2075 1959 2075 
z
" transform="scale(0.015625)"/>
     </defs>
     <use xlink:href="#DejaVuSans-51"/>
     <use xlink:href="#DejaVuSans-47" transform="translate(78.710938 0)"/>
     <use xlink:href="#DejaVuSans-33" transform="translate(156.201172 0)"/>
     <use xlink:href="#DejaVuSans-4c" transform="translate(219.824219 0)"/>
     <use xlink:href="#DejaVuSans-20" transform="translate(275.537109 0)"/>
     <use xlink:href="#DejaVuSans-2d" transform="translate(307.324219 0)"/>
     <use xlink:href="#DejaVuSans-20" transform="translate(343.408203 0)"/>
     <use xlink:href="#DejaVuSans-5b" transform="translate(375.195312 0)"/>
     <use xlink:href="#DejaVuSans-31" transform="translate(414.208984 0)"/>
     <use xlink:href="#DejaVuSans-31" transform="translate(477.832031 0)"/>
     <use xlink:href="#DejaVuSans-32" transform="translate(541.455078 0)"/>
     <use xlink:href="#DejaVuSans-2c" transform="translate(605.078125 0)"/>
     <use xlink:href="#DejaVuSans-20" transform="translate(636.865234 0)"/>
     <use xlink:href="#DejaVuSans-31" transform="translate(668.652344 0)"/>
     <use xlink:href="#DejaVuSans-37" transform="translate(732.275391 0)"/>
     <use xlink:href="#DejaVuSans-36" transform="translate(795.898438 0)"/>
     <use xlink:href="#DejaVuSans-5d" transform="translate(859.521484 0)"/>
     <use xlink:href="#DejaVuSans-20" transform="translate(898.535156 0)"/>
     <use xlink:href="#DejaVuSans-78" transform="translate(930.322266 0)"/>
     <use xlink:href="#DejaVuSans-20" transform="translate(989.501953 0)"/>
     <use xlink:href="#DejaVuSans-5b" transform="translate(1021.289062 0)"/>
     <use xlink:href="#DejaVuSans-36" transform="translate(1060.302734 0)"/>
     <use xlink:href="#DejaVuSans-34" transform="translate(1123.925781 0)"/>
     <use xlink:href="#DejaVuSans-2c" transform="translate(1187.548828 0)"/>
     <use xlink:href="#DejaVuSans-20" transform="translate(1219.335938 0)"/>
     <use xlink:href="#DejaVuSans-31" transform="translate(1251.123047 0)"/>
     <use xlink:href="#DejaVuSans-39" transform="translate(1314.746094 0)"/>
     <use xlink:href="#DejaVuSans-32" transform="translate(1378.369141 0)"/>
     <use xlink:href="#DejaVuSans-5d" transform="translate(1441.992188 0)"/>
    </g>
   </g>
   <g id="legend_1">
    <g id="patch_7">
     <path d="M 63.26 101.46375 
L 244.675781 101.46375 
Q 246.875781 101.46375 246.875781 99.26375 
L 246.875781 35.78 
Q 246.875781 33.58 244.675781 33.58 
L 63.26 33.58 
Q 61.06 33.58 61.06 35.78 
L 61.06 99.26375 
Q 61.06 101.46375 63.26 101.46375 
z
" style="fill: #eaeaf2; opacity: 0.8; stroke: #cccccc; stroke-linejoin: miter"/>
    </g>
    <g id="line2d_5">
     <path d="M 65.46 42.488281 
L 76.46 42.488281 
L 87.46 42.488281 
" style="fill: none; stroke: #000000; stroke-width: 1.5; stroke-linecap: round"/>
    </g>
    <g id="text_16">
     <!-- Reduced Gravity -->
     <g style="fill: #262626" transform="translate(96.26 46.338281) scale(0.11 -0.11)">
      <defs>
       <path id="DejaVuSans-75" d="M 544 1381 
L 544 3500 
L 1119 3500 
L 1119 1403 
Q 1119 906 1312 657 
Q 1506 409 1894 409 
Q 2359 409 2629 706 
Q 2900 1003 2900 1516 
L 2900 3500 
L 3475 3500 
L 3475 0 
L 2900 0 
L 2900 538 
Q 2691 219 2414 64 
Q 2138 -91 1772 -91 
Q 1169 -91 856 284 
Q 544 659 544 1381 
z
M 1991 3584 
L 1991 3584 
z
" transform="scale(0.015625)"/>
       <path id="DejaVuSans-63" d="M 3122 3366 
L 3122 2828 
Q 2878 2963 2633 3030 
Q 2388 3097 2138 3097 
Q 1578 3097 1268 2742 
Q 959 2388 959 1747 
Q 959 1106 1268 751 
Q 1578 397 2138 397 
Q 2388 397 2633 464 
Q 2878 531 3122 666 
L 3122 134 
Q 2881 22 2623 -34 
Q 2366 -91 2075 -91 
Q 1284 -91 818 406 
Q 353 903 353 1747 
Q 353 2603 823 3093 
Q 1294 3584 2113 3584 
Q 2378 3584 2631 3529 
Q 2884 3475 3122 3366 
z
" transform="scale(0.015625)"/>
       <path id="DejaVuSans-72" d="M 2631 2963 
Q 2534 3019 2420 3045 
Q 2306 3072 2169 3072 
Q 1681 3072 1420 2755 
Q 1159 2438 1159 1844 
L 1159 0 
L 581 0 
L 581 3500 
L 1159 3500 
L 1159 2956 
Q 1341 3275 1631 3429 
Q 1922 3584 2338 3584 
Q 2397 3584 2469 3576 
Q 2541 3569 2628 3553 
L 2631 2963 
z
" transform="scale(0.015625)"/>
       <path id="DejaVuSans-76" d="M 191 3500 
L 800 3500 
L 1894 563 
L 2988 3500 
L 3597 3500 
L 2284 0 
L 1503 0 
L 191 3500 
z
" transform="scale(0.015625)"/>
       <path id="DejaVuSans-74" d="M 1172 4494 
L 1172 3500 
L 2356 3500 
L 2356 3053 
L 1172 3053 
L 1172 1153 
Q 1172 725 1289 603 
Q 1406 481 1766 481 
L 2356 481 
L 2356 0 
L 1766 0 
Q 1100 0 847 248 
Q 594 497 594 1153 
L 594 3053 
L 172 3053 
L 172 3500 
L 594 3500 
L 594 4494 
L 1172 4494 
z
" transform="scale(0.015625)"/>
      </defs>
      <use xlink:href="#DejaVuSans-52"/>
      <use xlink:href="#DejaVuSans-65" transform="translate(64.982422 0)"/>
      <use xlink:href="#DejaVuSans-64" transform="translate(126.505859 0)"/>
      <use xlink:href="#DejaVuSans-75" transform="translate(189.982422 0)"/>
      <use xlink:href="#DejaVuSans-63" transform="translate(253.361328 0)"/>
      <use xlink:href="#DejaVuSans-65" transform="translate(308.341797 0)"/>
      <use xlink:href="#DejaVuSans-64" transform="translate(369.865234 0)"/>
      <use xlink:href="#DejaVuSans-20" transform="translate(433.341797 0)"/>
      <use xlink:href="#DejaVuSans-47" transform="translate(465.128906 0)"/>
      <use xlink:href="#DejaVuSans-72" transform="translate(542.619141 0)"/>
      <use xlink:href="#DejaVuSans-61" transform="translate(583.732422 0)"/>
      <use xlink:href="#DejaVuSans-76" transform="translate(645.011719 0)"/>
      <use xlink:href="#DejaVuSans-69" transform="translate(704.191406 0)"/>
      <use xlink:href="#DejaVuSans-74" transform="translate(731.974609 0)"/>
      <use xlink:href="#DejaVuSans-79" transform="translate(771.183594 0)"/>
     </g>
    </g>
    <g id="line2d_6">
     <path d="M 65.46 58.634219 
L 76.46 58.634219 
L 87.46 58.634219 
" style="fill: none; stroke: #a52a2a; stroke-width: 1.5; stroke-linecap: round"/>
    </g>
    <g id="text_17">
     <!-- VarDyn -->
     <g style="fill: #262626" transform="translate(96.26 62.484219) scale(0.11 -0.11)">
      <defs>
       <path id="DejaVuSans-56" d="M 1831 0 
L 50 4666 
L 709 4666 
L 2188 738 
L 3669 4666 
L 4325 4666 
L 2547 0 
L 1831 0 
z
" transform="scale(0.015625)"/>
       <path id="DejaVuSans-44" d="M 1259 4147 
L 1259 519 
L 2022 519 
Q 2988 519 3436 956 
Q 3884 1394 3884 2338 
Q 3884 3275 3436 3711 
Q 2988 4147 2022 4147 
L 1259 4147 
z
M 628 4666 
L 1925 4666 
Q 3281 4666 3915 4102 
Q 4550 3538 4550 2338 
Q 4550 1131 3912 565 
Q 3275 0 1925 0 
L 628 0 
L 628 4666 
z
" transform="scale(0.015625)"/>
      </defs>
      <use xlink:href="#DejaVuSans-56"/>
      <use xlink:href="#DejaVuSans-61" transform="translate(60.658203 0)"/>
      <use xlink:href="#DejaVuSans-72" transform="translate(121.9375 0)"/>
      <use xlink:href="#DejaVuSans-44" transform="translate(163.050781 0)"/>
      <use xlink:href="#DejaVuSans-79" transform="translate(240.052734 0)"/>
      <use xlink:href="#DejaVuSans-6e" transform="translate(299.232422 0)"/>
     </g>
    </g>
    <g id="line2d_7">
     <path d="M 65.46 74.780156 
L 76.46 74.780156 
L 87.46 74.780156 
" style="fill: none; stroke: #000080; stroke-width: 1.5; stroke-linecap: round"/>
    </g>
    <g id="text_18">
     <!-- SurfML -->
     <g style="fill: #262626" transform="translate(96.26 78.630156) scale(0.11 -0.11)">
      <defs>
       <path id="DejaVuSans-66" d="M 2375 4863 
L 2375 4384 
L 1825 4384 
Q 1516 4384 1395 4259 
Q 1275 4134 1275 3809 
L 1275 3500 
L 2222 3500 
L 2222 3053 
L 1275 3053 
L 1275 0 
L 697 0 
L 697 3053 
L 147 3053 
L 147 3500 
L 697 3500 
L 697 3744 
Q 697 4328 969 4595 
Q 1241 4863 1831 4863 
L 2375 4863 
z
" transform="scale(0.015625)"/>
      </defs>
      <use xlink:href="#DejaVuSans-53"/>
      <use xlink:href="#DejaVuSans-75" transform="translate(63.476562 0)"/>
      <use xlink:href="#DejaVuSans-72" transform="translate(126.855469 0)"/>
      <use xlink:href="#DejaVuSans-66" transform="translate(167.96875 0)"/>
      <use xlink:href="#DejaVuSans-4d" transform="translate(203.173828 0)"/>
      <use xlink:href="#DejaVuSans-4c" transform="translate(289.453125 0)"/>
     </g>
    </g>
    <g id="line2d_8">
     <path d="M 65.46 90.926094 
L 76.46 90.926094 
L 87.46 90.926094 
" style="fill: none; stroke-dasharray: 5.55,2.4; stroke-dashoffset: 0; stroke: #000080; stroke-width: 1.5"/>
    </g>
    <g id="text_19">
     <!-- SurfML - No Regularization -->
     <g style="fill: #262626" transform="translate(96.26 94.776094) scale(0.11 -0.11)">
      <defs>
       <path id="DejaVuSans-4e" d="M 628 4666 
L 1478 4666 
L 3547 763 
L 3547 4666 
L 4159 4666 
L 4159 0 
L 3309 0 
L 1241 3903 
L 1241 0 
L 628 0 
L 628 4666 
z
" transform="scale(0.015625)"/>
       <path id="DejaVuSans-6f" d="M 1959 3097 
Q 1497 3097 1228 2736 
Q 959 2375 959 1747 
Q 959 1119 1226 758 
Q 1494 397 1959 397 
Q 2419 397 2687 759 
Q 2956 1122 2956 1747 
Q 2956 2369 2687 2733 
Q 2419 3097 1959 3097 
z
M 1959 3584 
Q 2709 3584 3137 3096 
Q 3566 2609 3566 1747 
Q 3566 888 3137 398 
Q 2709 -91 1959 -91 
Q 1206 -91 779 398 
Q 353 888 353 1747 
Q 353 2609 779 3096 
Q 1206 3584 1959 3584 
z
" transform="scale(0.015625)"/>
       <path id="DejaVuSans-67" d="M 2906 1791 
Q 2906 2416 2648 2759 
Q 2391 3103 1925 3103 
Q 1463 3103 1205 2759 
Q 947 2416 947 1791 
Q 947 1169 1205 825 
Q 1463 481 1925 481 
Q 2391 481 2648 825 
Q 2906 1169 2906 1791 
z
M 3481 434 
Q 3481 -459 3084 -895 
Q 2688 -1331 1869 -1331 
Q 1566 -1331 1297 -1286 
Q 1028 -1241 775 -1147 
L 775 -588 
Q 1028 -725 1275 -790 
Q 1522 -856 1778 -856 
Q 2344 -856 2625 -561 
Q 2906 -266 2906 331 
L 2906 616 
Q 2728 306 2450 153 
Q 2172 0 1784 0 
Q 1141 0 747 490 
Q 353 981 353 1791 
Q 353 2603 747 3093 
Q 1141 3584 1784 3584 
Q 2172 3584 2450 3431 
Q 2728 3278 2906 2969 
L 2906 3500 
L 3481 3500 
L 3481 434 
z
" transform="scale(0.015625)"/>
       <path id="DejaVuSans-6c" d="M 603 4863 
L 1178 4863 
L 1178 0 
L 603 0 
L 603 4863 
z
" transform="scale(0.015625)"/>
       <path id="DejaVuSans-7a" d="M 353 3500 
L 3084 3500 
L 3084 2975 
L 922 459 
L 3084 459 
L 3084 0 
L 275 0 
L 275 525 
L 2438 3041 
L 353 3041 
L 353 3500 
z
" transform="scale(0.015625)"/>
      </defs>
      <use xlink:href="#DejaVuSans-53"/>
      <use xlink:href="#DejaVuSans-75" transform="translate(63.476562 0)"/>
      <use xlink:href="#DejaVuSans-72" transform="translate(126.855469 0)"/>
      <use xlink:href="#DejaVuSans-66" transform="translate(167.96875 0)"/>
      <use xlink:href="#DejaVuSans-4d" transform="translate(203.173828 0)"/>
      <use xlink:href="#DejaVuSans-4c" transform="translate(289.453125 0)"/>
      <use xlink:href="#DejaVuSans-20" transform="translate(345.166016 0)"/>
      <use xlink:href="#DejaVuSans-2d" transform="translate(376.953125 0)"/>
      <use xlink:href="#DejaVuSans-20" transform="translate(413.037109 0)"/>
      <use xlink:href="#DejaVuSans-4e" transform="translate(444.824219 0)"/>
      <use xlink:href="#DejaVuSans-6f" transform="translate(519.628906 0)"/>
      <use xlink:href="#DejaVuSans-20" transform="translate(580.810547 0)"/>
      <use xlink:href="#DejaVuSans-52" transform="translate(612.597656 0)"/>
      <use xlink:href="#DejaVuSans-65" transform="translate(677.580078 0)"/>
      <use xlink:href="#DejaVuSans-67" transform="translate(739.103516 0)"/>
      <use xlink:href="#DejaVuSans-75" transform="translate(802.580078 0)"/>
      <use xlink:href="#DejaVuSans-6c" transform="translate(865.958984 0)"/>
      <use xlink:href="#DejaVuSans-61" transform="translate(893.742188 0)"/>
      <use xlink:href="#DejaVuSans-72" transform="translate(955.021484 0)"/>
      <use xlink:href="#DejaVuSans-69" transform="translate(996.134766 0)"/>
      <use xlink:href="#DejaVuSans-7a" transform="translate(1023.917969 0)"/>
      <use xlink:href="#DejaVuSans-61" transform="translate(1076.408203 0)"/>
      <use xlink:href="#DejaVuSans-74" transform="translate(1137.6875 0)"/>
      <use xlink:href="#DejaVuSans-69" transform="translate(1176.896484 0)"/>
      <use xlink:href="#DejaVuSans-6f" transform="translate(1204.679688 0)"/>
      <use xlink:href="#DejaVuSans-6e" transform="translate(1265.861328 0)"/>
     </g>
    </g>
   </g>
  </g>
 </g>
 <defs>
  <clipPath id="pc835d8e422">
   <rect x="55.56" y="28.08" width="651.48" height="282.9"/>
  </clipPath>
 </defs>
</svg>
