<?xml version="1.0" encoding="utf-8" standalone="no"?>
<!DOCTYPE svg PUBLIC "-//W3C//DTD SVG 1.1//EN"
  "http://www.w3.org/Graphics/SVG/1.1/DTD/svg11.dtd">
<svg xmlns:xlink="http://www.w3.org/1999/xlink" width="720pt" height="360pt" viewBox="0 0 720 360" xmlns="http://www.w3.org/2000/svg" version="1.1">
 <metadata>
  <rdf:RDF xmlns:dc="http://purl.org/dc/elements/1.1/" xmlns:cc="http://creativecommons.org/ns#" xmlns:rdf="http://www.w3.org/1999/02/22-rdf-syntax-ns#">
   <cc:Work>
    <dc:type rdf:resource="http://purl.org/dc/dcmitype/StillImage"/>
    <dc:date>2026-03-19T16:13:37.530035</dc:date>
    <dc:format>image/svg+xml</dc:format>
    <dc:creator>
     <cc:Agent>
      <dc:title>Matplotlib v3.10.6, https://matplotlib.org/</dc:title>
     </cc:Agent>
    </dc:creator>
   </cc:Work>
  </rdf:RDF>
 </metadata>
 <defs>
  <style type="text/css">*{stroke-linejoin: round; stroke-linecap: butt}</style>
 </defs>
 <g id="figure_1">
  <g id="patch_1">
   <path d="M 0 360 
L 720 360 
L 720 0 
L 0 0 
z
" style="fill: #ffffff"/>
  </g>
  <g id="axes_1">
   <g id="patch_2">
    <path d="M 55.56 310.98 
L 707.04 310.98 
L 707.04 28.08 
L 55.56 28.08 
z
" style="fill: #eaeaf2"/>
   </g>
   <g id="matplotlib.axis_1">
    <g id="xtick_1">
     <g id="text_1">
      <!-- 0 -->
      <g style="fill: #262626" transform="translate(81.673352 328.838281) scale(0.11 -0.11)">
       <defs>
        <path id="DejaVuSans-30" d="M 2034 4250 
Q 1547 4250 1301 3770 
Q 1056 3291 1056 2328 
Q 1056 1369 1301 889 
Q 1547 409 2034 409 
Q 2525 409 2770 889 
Q 3016 1369 3016 2328 
Q 3016 3291 2770 3770 
Q 2525 4250 2034 4250 
z
M 2034 4750 
Q 2819 4750 3233 4129 
Q 3647 3509 3647 2328 
Q 3647 1150 3233 529 
Q 2819 -91 2034 -91 
Q 1250 -91 836 529 
Q 422 1150 422 2328 
Q 422 3509 836 4129 
Q 1250 4750 2034 4750 
z
" transform="scale(0.015625)"/>
       </defs>
       <use xlink:href="#DejaVuSans-30"/>
      </g>
     </g>
    </g>
    <g id="xtick_2">
     <g id="text_2">
      <!-- 5 -->
      <g style="fill: #262626" transform="translate(224.385291 328.838281) scale(0.11 -0.11)">
       <defs>
        <path id="DejaVuSans-35" d="M 691 4666 
L 3169 4666 
L 3169 4134 
L 1269 4134 
L 1269 2991 
Q 1406 3038 1543 3061 
Q 1681 3084 1819 3084 
Q 2600 3084 3056 2656 
Q 3513 2228 3513 1497 
Q 3513 744 3044 326 
Q 2575 -91 1722 -91 
Q 1428 -91 1123 -41 
Q 819 9 494 109 
L 494 744 
Q 775 591 1075 516 
Q 1375 441 1709 441 
Q 2250 441 2565 725 
Q 2881 1009 2881 1497 
Q 2881 1984 2565 2268 
Q 2250 2553 1709 2553 
Q 1456 2553 1204 2497 
Q 953 2441 691 2322 
L 691 4666 
z
" transform="scale(0.015625)"/>
       </defs>
       <use xlink:href="#DejaVuSans-35"/>
      </g>
     </g>
    </g>
    <g id="xtick_3">
     <g id="text_3">
      <!-- 10 -->
      <g style="fill: #262626" transform="translate(363.597855 328.838281) scale(0.11 -0.11)">
       <defs>
        <path id="DejaVuSans-31" d="M 794 531 
L 1825 531 
L 1825 4091 
L 703 3866 
L 703 4441 
L 1819 4666 
L 2450 4666 
L 2450 531 
L 3481 531 
L 3481 0 
L 794 0 
L 794 531 
z
" transform="scale(0.015625)"/>
       </defs>
       <use xlink:href="#DejaVuSans-31"/>
       <use xlink:href="#DejaVuSans-30" transform="translate(63.623047 0)"/>
      </g>
     </g>
    </g>
    <g id="xtick_4">
     <g id="text_4">
      <!-- 15 -->
      <g style="fill: #262626" transform="translate(506.309793 328.838281) scale(0.11 -0.11)">
       <use xlink:href="#DejaVuSans-31"/>
       <use xlink:href="#DejaVuSans-35" transform="translate(63.623047 0)"/>
      </g>
     </g>
    </g>
    <g id="xtick_5">
     <g id="text_5">
      <!-- 20 -->
      <g style="fill: #262626" transform="translate(649.021732 328.838281) scale(0.11 -0.11)">
       <defs>
        <path id="DejaVuSans-32" d="M 1228 531 
L 3431 531 
L 3431 0 
L 469 0 
L 469 531 
Q 828 903 1448 1529 
Q 2069 2156 2228 2338 
Q 2531 2678 2651 2914 
Q 2772 3150 2772 3378 
Q 2772 3750 2511 3984 
Q 2250 4219 1831 4219 
Q 1534 4219 1204 4116 
Q 875 4013 500 3803 
L 500 4441 
Q 881 4594 1212 4672 
Q 1544 4750 1819 4750 
Q 2544 4750 2975 4387 
Q 3406 4025 3406 3419 
Q 3406 3131 3298 2873 
Q 3191 2616 2906 2266 
Q 2828 2175 2409 1742 
Q 1991 1309 1228 531 
z
" transform="scale(0.015625)"/>
       </defs>
       <use xlink:href="#DejaVuSans-32"/>
       <use xlink:href="#DejaVuSans-30" transform="translate(63.623047 0)"/>
      </g>
     </g>
    </g>
    <g id="text_6">
     <!-- Time [days] -->
     <g style="fill: #262626" transform="translate(345.868125 344.244062) scale(0.12 -0.12)">
      <defs>
       <path id="DejaVuSans-54" d="M -19 4666 
L 3928 4666 
L 3928 4134 
L 2272 4134 
L 2272 0 
L 1638 0 
L 1638 4134 
L -19 4134 
L -19 4666 
z
" transform="scale(0.015625)"/>
       <path id="DejaVuSans-69" d="M 603 3500 
L 1178 3500 
L 1178 0 
L 603 0 
L 603 3500 
z
M 603 4863 
L 1178 4863 
L 1178 4134 
L 603 4134 
L 603 4863 
z
" transform="scale(0.015625)"/>
       <path id="DejaVuSans-6d" d="M 3328 2828 
Q 3544 3216 3844 3400 
Q 4144 3584 4550 3584 
Q 5097 3584 5394 3201 
Q 5691 2819 5691 2113 
L 5691 0 
L 5113 0 
L 5113 2094 
Q 5113 2597 4934 2840 
Q 4756 3084 4391 3084 
Q 3944 3084 3684 2787 
Q 3425 2491 3425 1978 
L 3425 0 
L 2847 0 
L 2847 2094 
Q 2847 2600 2669 2842 
Q 2491 3084 2119 3084 
Q 1678 3084 1418 2786 
Q 1159 2488 1159 1978 
L 1159 0 
L 581 0 
L 581 3500 
L 1159 3500 
L 1159 2956 
Q 1356 3278 1631 3431 
Q 1906 3584 2284 3584 
Q 2666 3584 2933 3390 
Q 3200 3197 3328 2828 
z
" transform="scale(0.015625)"/>
       <path id="DejaVuSans-65" d="M 3597 1894 
L 3597 1613 
L 953 1613 
Q 991 1019 1311 708 
Q 1631 397 2203 397 
Q 2534 397 2845 478 
Q 3156 559 3463 722 
L 3463 178 
Q 3153 47 2828 -22 
Q 2503 -91 2169 -91 
Q 1331 -91 842 396 
Q 353 884 353 1716 
Q 353 2575 817 3079 
Q 1281 3584 2069 3584 
Q 2775 3584 3186 3129 
Q 3597 2675 3597 1894 
z
M 3022 2063 
Q 3016 2534 2758 2815 
Q 2500 3097 2075 3097 
Q 1594 3097 1305 2825 
Q 1016 2553 972 2059 
L 3022 2063 
z
" transform="scale(0.015625)"/>
       <path id="DejaVuSans-20" transform="scale(0.015625)"/>
       <path id="DejaVuSans-5b" d="M 550 4863 
L 1875 4863 
L 1875 4416 
L 1125 4416 
L 1125 -397 
L 1875 -397 
L 1875 -844 
L 550 -844 
L 550 4863 
z
" transform="scale(0.015625)"/>
       <path id="DejaVuSans-64" d="M 2906 2969 
L 2906 4863 
L 3481 4863 
L 3481 0 
L 2906 0 
L 2906 525 
Q 2725 213 2448 61 
Q 2172 -91 1784 -91 
Q 1150 -91 751 415 
Q 353 922 353 1747 
Q 353 2572 751 3078 
Q 1150 3584 1784 3584 
Q 2172 3584 2448 3432 
Q 2725 3281 2906 2969 
z
M 947 1747 
Q 947 1113 1208 752 
Q 1469 391 1925 391 
Q 2381 391 2643 752 
Q 2906 1113 2906 1747 
Q 2906 2381 2643 2742 
Q 2381 3103 1925 3103 
Q 1469 3103 1208 2742 
Q 947 2381 947 1747 
z
" transform="scale(0.015625)"/>
       <path id="DejaVuSans-61" d="M 2194 1759 
Q 1497 1759 1228 1600 
Q 959 1441 959 1056 
Q 959 750 1161 570 
Q 1363 391 1709 391 
Q 2188 391 2477 730 
Q 2766 1069 2766 1631 
L 2766 1759 
L 2194 1759 
z
M 3341 1997 
L 3341 0 
L 2766 0 
L 2766 531 
Q 2569 213 2275 61 
Q 1981 -91 1556 -91 
Q 1019 -91 701 211 
Q 384 513 384 1019 
Q 384 1609 779 1909 
Q 1175 2209 1959 2209 
L 2766 2209 
L 2766 2266 
Q 2766 2663 2505 2880 
Q 2244 3097 1772 3097 
Q 1472 3097 1187 3025 
Q 903 2953 641 2809 
L 641 3341 
Q 956 3463 1253 3523 
Q 1550 3584 1831 3584 
Q 2591 3584 2966 3190 
Q 3341 2797 3341 1997 
z
" transform="scale(0.015625)"/>
       <path id="DejaVuSans-79" d="M 2059 -325 
Q 1816 -950 1584 -1140 
Q 1353 -1331 966 -1331 
L 506 -1331 
L 506 -850 
L 844 -850 
Q 1081 -850 1212 -737 
Q 1344 -625 1503 -206 
L 1606 56 
L 191 3500 
L 800 3500 
L 1894 763 
L 2988 3500 
L 3597 3500 
L 2059 -325 
z
" transform="scale(0.015625)"/>
       <path id="DejaVuSans-73" d="M 2834 3397 
L 2834 2853 
Q 2591 2978 2328 3040 
Q 2066 3103 1784 3103 
Q 1356 3103 1142 2972 
Q 928 2841 928 2578 
Q 928 2378 1081 2264 
Q 1234 2150 1697 2047 
L 1894 2003 
Q 2506 1872 2764 1633 
Q 3022 1394 3022 966 
Q 3022 478 2636 193 
Q 2250 -91 1575 -91 
Q 1294 -91 989 -36 
Q 684 19 347 128 
L 347 722 
Q 666 556 975 473 
Q 1284 391 1588 391 
Q 1994 391 2212 530 
Q 2431 669 2431 922 
Q 2431 1156 2273 1281 
Q 2116 1406 1581 1522 
L 1381 1569 
Q 847 1681 609 1914 
Q 372 2147 372 2553 
Q 372 3047 722 3315 
Q 1072 3584 1716 3584 
Q 2034 3584 2315 3537 
Q 2597 3491 2834 3397 
z
" transform="scale(0.015625)"/>
       <path id="DejaVuSans-5d" d="M 1947 4863 
L 1947 -844 
L 622 -844 
L 622 -397 
L 1369 -397 
L 1369 4416 
L 622 4416 
L 622 4863 
L 1947 4863 
z
" transform="scale(0.015625)"/>
      </defs>
      <use xlink:href="#DejaVuSans-54"/>
      <use xlink:href="#DejaVuSans-69" transform="translate(57.958984 0)"/>
      <use xlink:href="#DejaVuSans-6d" transform="translate(85.742188 0)"/>
      <use xlink:href="#DejaVuSans-65" transform="translate(183.154297 0)"/>
      <use xlink:href="#DejaVuSans-20" transform="translate(244.677734 0)"/>
      <use xlink:href="#DejaVuSans-5b" transform="translate(276.464844 0)"/>
      <use xlink:href="#DejaVuSans-64" transform="translate(315.478516 0)"/>
      <use xlink:href="#DejaVuSans-61" transform="translate(378.955078 0)"/>
      <use xlink:href="#DejaVuSans-79" transform="translate(440.234375 0)"/>
      <use xlink:href="#DejaVuSans-73" transform="translate(499.414062 0)"/>
      <use xlink:href="#DejaVuSans-5d" transform="translate(551.513672 0)"/>
     </g>
    </g>
   </g>
   <g id="matplotlib.axis_2">
    <g id="ytick_1">
     <g id="text_7">
      <!-- 0.0 -->
      <g style="fill: #262626" transform="translate(28.566562 302.30005) scale(0.11 -0.11)">
       <defs>
        <path id="DejaVuSans-2e" d="M 684 794 
L 1344 794 
L 1344 0 
L 684 0 
L 684 794 
z
" transform="scale(0.015625)"/>
       </defs>
       <use xlink:href="#DejaVuSans-30"/>
       <use xlink:href="#DejaVuSans-2e" transform="translate(63.623047 0)"/>
       <use xlink:href="#DejaVuSans-30" transform="translate(95.410156 0)"/>
      </g>
     </g>
    </g>
    <g id="ytick_2">
     <g id="text_8">
      <!-- 0.1 -->
      <g style="fill: #262626" transform="translate(28.566562 267.92614) scale(0.11 -0.11)">
       <use xlink:href="#DejaVuSans-30"/>
       <use xlink:href="#DejaVuSans-2e" transform="translate(63.623047 0)"/>
       <use xlink:href="#DejaVuSans-31" transform="translate(95.410156 0)"/>
      </g>
     </g>
    </g>
    <g id="ytick_3">
     <g id="text_9">
      <!-- 0.2 -->
      <g style="fill: #262626" transform="translate(28.566562 233.552231) scale(0.11 -0.11)">
       <use xlink:href="#DejaVuSans-30"/>
       <use xlink:href="#DejaVuSans-2e" transform="translate(63.623047 0)"/>
       <use xlink:href="#DejaVuSans-32" transform="translate(95.410156 0)"/>
      </g>
     </g>
    </g>
    <g id="ytick_4">
     <g id="text_10">
      <!-- 0.3 -->
      <g style="fill: #262626" transform="translate(28.566562 199.178321) scale(0.11 -0.11)">
       <defs>
        <path id="DejaVuSans-33" d="M 2597 2516 
Q 3050 2419 3304 2112 
Q 3559 1806 3559 1356 
Q 3559 666 3084 287 
Q 2609 -91 1734 -91 
Q 1441 -91 1130 -33 
Q 819 25 488 141 
L 488 750 
Q 750 597 1062 519 
Q 1375 441 1716 441 
Q 2309 441 2620 675 
Q 2931 909 2931 1356 
Q 2931 1769 2642 2001 
Q 2353 2234 1838 2234 
L 1294 2234 
L 1294 2753 
L 1863 2753 
Q 2328 2753 2575 2939 
Q 2822 3125 2822 3475 
Q 2822 3834 2567 4026 
Q 2313 4219 1838 4219 
Q 1578 4219 1281 4162 
Q 984 4106 628 3988 
L 628 4550 
Q 988 4650 1302 4700 
Q 1616 4750 1894 4750 
Q 2613 4750 3031 4423 
Q 3450 4097 3450 3541 
Q 3450 3153 3228 2886 
Q 3006 2619 2597 2516 
z
" transform="scale(0.015625)"/>
       </defs>
       <use xlink:href="#DejaVuSans-30"/>
       <use xlink:href="#DejaVuSans-2e" transform="translate(63.623047 0)"/>
       <use xlink:href="#DejaVuSans-33" transform="translate(95.410156 0)"/>
      </g>
     </g>
    </g>
    <g id="ytick_5">
     <g id="text_11">
      <!-- 0.4 -->
      <g style="fill: #262626" transform="translate(28.566562 164.804412) scale(0.11 -0.11)">
       <defs>
        <path id="DejaVuSans-34" d="M 2419 4116 
L 825 1625 
L 2419 1625 
L 2419 4116 
z
M 2253 4666 
L 3047 4666 
L 3047 1625 
L 3713 1625 
L 3713 1100 
L 3047 1100 
L 3047 0 
L 2419 0 
L 2419 1100 
L 313 1100 
L 313 1709 
L 2253 4666 
z
" transform="scale(0.015625)"/>
       </defs>
       <use xlink:href="#DejaVuSans-30"/>
       <use xlink:href="#DejaVuSans-2e" transform="translate(63.623047 0)"/>
       <use xlink:href="#DejaVuSans-34" transform="translate(95.410156 0)"/>
      </g>
     </g>
    </g>
    <g id="ytick_6">
     <g id="text_12">
      <!-- 0.5 -->
      <g style="fill: #262626" transform="translate(28.566562 130.430502) scale(0.11 -0.11)">
       <use xlink:href="#DejaVuSans-30"/>
       <use xlink:href="#DejaVuSans-2e" transform="translate(63.623047 0)"/>
       <use xlink:href="#DejaVuSans-35" transform="translate(95.410156 0)"/>
      </g>
     </g>
    </g>
    <g id="ytick_7">
     <g id="text_13">
      <!-- 0.6 -->
      <g style="fill: #262626" transform="translate(28.566562 96.056593) scale(0.11 -0.11)">
       <defs>
        <path id="DejaVuSans-36" d="M 2113 2584 
Q 1688 2584 1439 2293 
Q 1191 2003 1191 1497 
Q 1191 994 1439 701 
Q 1688 409 2113 409 
Q 2538 409 2786 701 
Q 3034 994 3034 1497 
Q 3034 2003 2786 2293 
Q 2538 2584 2113 2584 
z
M 3366 4563 
L 3366 3988 
Q 3128 4100 2886 4159 
Q 2644 4219 2406 4219 
Q 1781 4219 1451 3797 
Q 1122 3375 1075 2522 
Q 1259 2794 1537 2939 
Q 1816 3084 2150 3084 
Q 2853 3084 3261 2657 
Q 3669 2231 3669 1497 
Q 3669 778 3244 343 
Q 2819 -91 2113 -91 
Q 1303 -91 875 529 
Q 447 1150 447 2328 
Q 447 3434 972 4092 
Q 1497 4750 2381 4750 
Q 2619 4750 2861 4703 
Q 3103 4656 3366 4563 
z
" transform="scale(0.015625)"/>
       </defs>
       <use xlink:href="#DejaVuSans-30"/>
       <use xlink:href="#DejaVuSans-2e" transform="translate(63.623047 0)"/>
       <use xlink:href="#DejaVuSans-36" transform="translate(95.410156 0)"/>
      </g>
     </g>
    </g>
    <g id="ytick_8">
     <g id="text_14">
      <!-- 0.7 -->
      <g style="fill: #262626" transform="translate(28.566562 61.682683) scale(0.11 -0.11)">
       <defs>
        <path id="DejaVuSans-37" d="M 525 4666 
L 3525 4666 
L 3525 4397 
L 1831 0 
L 1172 0 
L 2766 4134 
L 525 4134 
L 525 4666 
z
" transform="scale(0.015625)"/>
       </defs>
       <use xlink:href="#DejaVuSans-30"/>
       <use xlink:href="#DejaVuSans-2e" transform="translate(63.623047 0)"/>
       <use xlink:href="#DejaVuSans-37" transform="translate(95.410156 0)"/>
      </g>
     </g>
    </g>
    <g id="text_15">
     <!-- nRMSE -->
     <g style="fill: #262626" transform="translate(22.070937 190.27875) rotate(-90) scale(0.12 -0.12)">
      <defs>
       <path id="DejaVuSans-6e" d="M 3513 2113 
L 3513 0 
L 2938 0 
L 2938 2094 
Q 2938 2591 2744 2837 
Q 2550 3084 2163 3084 
Q 1697 3084 1428 2787 
Q 1159 2491 1159 1978 
L 1159 0 
L 581 0 
L 581 3500 
L 1159 3500 
L 1159 2956 
Q 1366 3272 1645 3428 
Q 1925 3584 2291 3584 
Q 2894 3584 3203 3211 
Q 3513 2838 3513 2113 
z
" transform="scale(0.015625)"/>
       <path id="DejaVuSans-52" d="M 2841 2188 
Q 3044 2119 3236 1894 
Q 3428 1669 3622 1275 
L 4263 0 
L 3584 0 
L 2988 1197 
Q 2756 1666 2539 1819 
Q 2322 1972 1947 1972 
L 1259 1972 
L 1259 0 
L 628 0 
L 628 4666 
L 2053 4666 
Q 2853 4666 3247 4331 
Q 3641 3997 3641 3322 
Q 3641 2881 3436 2590 
Q 3231 2300 2841 2188 
z
M 1259 4147 
L 1259 2491 
L 2053 2491 
Q 2509 2491 2742 2702 
Q 2975 2913 2975 3322 
Q 2975 3731 2742 3939 
Q 2509 4147 2053 4147 
L 1259 4147 
z
" transform="scale(0.015625)"/>
       <path id="DejaVuSans-4d" d="M 628 4666 
L 1569 4666 
L 2759 1491 
L 3956 4666 
L 4897 4666 
L 4897 0 
L 4281 0 
L 4281 4097 
L 3078 897 
L 2444 897 
L 1241 4097 
L 1241 0 
L 628 0 
L 628 4666 
z
" transform="scale(0.015625)"/>
       <path id="DejaVuSans-53" d="M 3425 4513 
L 3425 3897 
Q 3066 4069 2747 4153 
Q 2428 4238 2131 4238 
Q 1616 4238 1336 4038 
Q 1056 3838 1056 3469 
Q 1056 3159 1242 3001 
Q 1428 2844 1947 2747 
L 2328 2669 
Q 3034 2534 3370 2195 
Q 3706 1856 3706 1288 
Q 3706 609 3251 259 
Q 2797 -91 1919 -91 
Q 1588 -91 1214 -16 
Q 841 59 441 206 
L 441 856 
Q 825 641 1194 531 
Q 1563 422 1919 422 
Q 2459 422 2753 634 
Q 3047 847 3047 1241 
Q 3047 1584 2836 1778 
Q 2625 1972 2144 2069 
L 1759 2144 
Q 1053 2284 737 2584 
Q 422 2884 422 3419 
Q 422 4038 858 4394 
Q 1294 4750 2059 4750 
Q 2388 4750 2728 4690 
Q 3069 4631 3425 4513 
z
" transform="scale(0.015625)"/>
       <path id="DejaVuSans-45" d="M 628 4666 
L 3578 4666 
L 3578 4134 
L 1259 4134 
L 1259 2753 
L 3481 2753 
L 3481 2222 
L 1259 2222 
L 1259 531 
L 3634 531 
L 3634 0 
L 628 0 
L 628 4666 
z
" transform="scale(0.015625)"/>
      </defs>
      <use xlink:href="#DejaVuSans-6e"/>
      <use xlink:href="#DejaVuSans-52" transform="translate(63.378906 0)"/>
      <use xlink:href="#DejaVuSans-4d" transform="translate(132.861328 0)"/>
      <use xlink:href="#DejaVuSans-53" transform="translate(219.140625 0)"/>
      <use xlink:href="#DejaVuSans-45" transform="translate(282.617188 0)"/>
     </g>
    </g>
   </g>
   <g id="FillBetweenPolyCollection_1">
    <defs>
     <path id="m648c6c3f81" d="M 85.172727 -61.879091 
L 85.172727 -61.879091 
L 87.55126 -63.323313 
L 89.929792 -64.768701 
L 92.308324 -66.215493 
L 94.686857 -67.663891 
L 97.065389 -69.11406 
L 99.443921 -70.566132 
L 101.822453 -72.020187 
L 104.200986 -73.476254 
L 106.579518 -74.934304 
L 108.95805 -76.394259 
L 111.336583 -77.856001 
L 113.715115 -79.319377 
L 116.093647 -80.784209 
L 118.47218 -82.250301 
L 120.850712 -83.717441 
L 123.229244 -85.185397 
L 125.607777 -86.653925 
L 127.986309 -88.122777 
L 130.364841 -89.591711 
L 132.743373 -91.060509 
L 135.121906 -92.528981 
L 137.500438 -93.99698 
L 139.87897 -95.464404 
L 142.257503 -96.931209 
L 144.636035 -98.397402 
L 147.014567 -99.863037 
L 149.3931 -101.328201 
L 151.771632 -102.793002 
L 154.150164 -104.257557 
L 156.528697 -105.721972 
L 158.907229 -107.186324 
L 161.285761 -108.650609 
L 163.664294 -110.11474 
L 166.042826 -111.57854 
L 168.421358 -113.041764 
L 170.79989 -114.504122 
L 173.178423 -115.965304 
L 175.556955 -117.424991 
L 177.935487 -118.882872 
L 180.31402 -120.338639 
L 182.692552 -121.791977 
L 185.071084 -123.242572 
L 187.449617 -124.690108 
L 189.828149 -126.134276 
L 192.206681 -127.574788 
L 194.585214 -129.011383 
L 196.963746 -130.443836 
L 199.342278 -131.871958 
L 201.720811 -133.295599 
L 204.099343 -134.714651 
L 206.477875 -136.129032 
L 208.856407 -137.538685 
L 211.23494 -138.943562 
L 213.613472 -140.343617 
L 215.992004 -141.738786 
L 218.370537 -143.12899 
L 220.749069 -144.514132 
L 223.127601 -145.894084 
L 225.506134 -147.268688 
L 227.884666 -148.637749 
L 230.263198 -150.001036 
L 232.641731 -151.358286 
L 235.020263 -152.709207 
L 237.398795 -154.053486 
L 239.777327 -155.390795 
L 242.15586 -156.720801 
L 244.534392 -158.043168 
L 246.912924 -159.179367 
L 249.291457 -160.114375 
L 251.669989 -161.04912 
L 254.048521 -161.984766 
L 256.427054 -162.922517 
L 258.805586 -163.863577 
L 261.184118 -164.809092 
L 263.562651 -165.760065 
L 265.941183 -166.717362 
L 268.319715 -167.68165 
L 270.698248 -168.65337 
L 273.07678 -169.632712 
L 275.455312 -170.619517 
L 277.833844 -171.613329 
L 280.212377 -172.613352 
L 282.590909 -173.618429 
L 284.969441 -174.627275 
L 287.347974 -175.638575 
L 289.726506 -176.650954 
L 292.105038 -177.663173 
L 294.483571 -178.6743 
L 296.862103 -179.683638 
L 299.240635 -180.690772 
L 301.619168 -181.695581 
L 303.9977 -182.698214 
L 306.376232 -183.698931 
L 308.754765 -184.697984 
L 311.133297 -185.695618 
L 313.511829 -186.691977 
L 315.890361 -187.68713 
L 318.268894 -188.680972 
L 320.647426 -189.67332 
L 323.025958 -190.663919 
L 325.404491 -191.652314 
L 327.783023 -192.637943 
L 330.161555 -193.620262 
L 332.540088 -194.59874 
L 334.91862 -195.572807 
L 337.297152 -196.542009 
L 339.675685 -197.505993 
L 342.054217 -198.464498 
L 344.432749 -199.417459 
L 346.811281 -200.364962 
L 349.189814 -201.307211 
L 351.568346 -202.244544 
L 353.946878 -203.177439 
L 356.325411 -204.106477 
L 358.703943 -205.032385 
L 361.082475 -205.956017 
L 363.461008 -206.878379 
L 365.83954 -207.800624 
L 368.218072 -208.724072 
L 370.596605 -209.650164 
L 372.975137 -210.580456 
L 375.353669 -211.516555 
L 377.732202 -212.460055 
L 380.110734 -213.41254 
L 382.489266 -214.375473 
L 384.867798 -215.350208 
L 387.246331 -216.337932 
L 389.624863 -217.339617 
L 392.003395 -218.356005 
L 394.381928 -219.387614 
L 396.76046 -220.434802 
L 399.138992 -221.497747 
L 401.517525 -222.576554 
L 403.896057 -223.671288 
L 406.274589 -224.781946 
L 408.653122 -225.908563 
L 411.031654 -227.051199 
L 413.410186 -228.209921 
L 415.788719 -229.384827 
L 418.167251 -230.575937 
L 420.545783 -231.783072 
L 422.924315 -233.005603 
L 425.302848 -234.020021 
L 427.68138 -234.740412 
L 430.059912 -235.454383 
L 432.438445 -236.162524 
L 434.816977 -236.865529 
L 437.195509 -237.564145 
L 439.574042 -238.259062 
L 441.952574 -238.950854 
L 444.331106 -239.639931 
L 446.709639 -240.326544 
L 449.088171 -241.010817 
L 451.466703 -241.692779 
L 453.845235 -242.372385 
L 456.223768 -243.04957 
L 458.6023 -243.724259 
L 460.980832 -244.396373 
L 463.359365 -245.065796 
L 465.737897 -245.732387 
L 468.116429 -246.395972 
L 470.494962 -247.05634 
L 472.873494 -247.713237 
L 475.252026 -248.366361 
L 477.630559 -249.015374 
L 480.009091 -249.659912 
L 482.387623 -250.299561 
L 484.766156 -250.933867 
L 487.144688 -251.562337 
L 489.52322 -252.184446 
L 491.901752 -252.799659 
L 494.280285 -253.407472 
L 496.658817 -254.007433 
L 499.037349 -254.599171 
L 501.415882 -255.182403 
L 503.794414 -255.756926 
L 506.172946 -256.3226 
L 508.551479 -256.879318 
L 510.930011 -257.42701 
L 513.308543 -257.965642 
L 515.687076 -258.495199 
L 518.065608 -259.015692 
L 520.44414 -259.527173 
L 522.822673 -260.029694 
L 525.201205 -260.523312 
L 527.579737 -261.008093 
L 529.958269 -261.484112 
L 532.336802 -261.951444 
L 534.715334 -262.410179 
L 537.093866 -262.860412 
L 539.472399 -263.302267 
L 541.850931 -263.735863 
L 544.229463 -264.161329 
L 546.607996 -264.578776 
L 548.986528 -264.988305 
L 551.36506 -265.390008 
L 553.743593 -265.783984 
L 556.122125 -266.170353 
L 558.500657 -266.549248 
L 560.879189 -266.920849 
L 563.257722 -267.285389 
L 565.636254 -267.643154 
L 568.014786 -267.994469 
L 570.393319 -268.33972 
L 572.771851 -268.679353 
L 575.150383 -269.013848 
L 577.528916 -269.343743 
L 579.907448 -269.669591 
L 582.28598 -269.991945 
L 584.664513 -270.311365 
L 587.043045 -270.628374 
L 589.421577 -270.94345 
L 591.80011 -271.257047 
L 594.178642 -271.56962 
L 596.557174 -271.881645 
L 598.935706 -272.193596 
L 601.314239 -272.506025 
L 603.692771 -272.819541 
L 606.071303 -273.134825 
L 608.449836 -273.452659 
L 610.828368 -273.773839 
L 613.2069 -274.099199 
L 615.585433 -274.429596 
L 617.963965 -274.765842 
L 620.342497 -275.108723 
L 622.72103 -275.45898 
L 625.099562 -275.817265 
L 627.478094 -276.184088 
L 629.856627 -276.559899 
L 632.235159 -276.944963 
L 634.613691 -277.339333 
L 636.992223 -277.742927 
L 639.370756 -278.155494 
L 641.749288 -278.576597 
L 644.12782 -279.005773 
L 646.506353 -279.442488 
L 648.884885 -279.886239 
L 651.263417 -280.33675 
L 653.64195 -280.793957 
L 656.020482 -281.258012 
L 658.399014 -281.729329 
L 660.777547 -282.208452 
L 663.156079 -282.6959 
L 665.534611 -283.19212 
L 667.913143 -283.697393 
L 670.291676 -284.211672 
L 672.670208 -284.734589 
L 675.04874 -285.265468 
L 677.427273 -285.803348 
L 677.427273 -352.31847 
L 677.427273 -352.31847 
L 675.04874 -351.47479 
L 672.670208 -350.608688 
L 670.291676 -349.718929 
L 667.913143 -348.804474 
L 665.534611 -347.864567 
L 663.156079 -346.89875 
L 660.777547 -345.906918 
L 658.399014 -344.889369 
L 656.020482 -343.846738 
L 653.64195 -342.779942 
L 651.263417 -341.690101 
L 648.884885 -340.578529 
L 646.506353 -339.446626 
L 644.12782 -338.295819 
L 641.749288 -337.127541 
L 639.370756 -335.943232 
L 636.992223 -334.74426 
L 634.613691 -333.531894 
L 632.235159 -332.307355 
L 629.856627 -331.071803 
L 627.478094 -329.826321 
L 625.099562 -328.571951 
L 622.72103 -327.309737 
L 620.342497 -326.040725 
L 617.963965 -324.766019 
L 615.585433 -323.486791 
L 613.2069 -322.204266 
L 610.828368 -320.919738 
L 608.449836 -319.634562 
L 606.071303 -318.350108 
L 603.692771 -317.067694 
L 601.314239 -315.788444 
L 598.935706 -314.513183 
L 596.557174 -313.242428 
L 594.178642 -311.97637 
L 591.80011 -310.714952 
L 589.421577 -309.458017 
L 587.043045 -308.205471 
L 584.664513 -306.957409 
L 582.28598 -305.714185 
L 579.907448 -304.476407 
L 577.528916 -303.244907 
L 575.150383 -302.020626 
L 572.771851 -300.804519 
L 570.393319 -299.597477 
L 568.014786 -298.400196 
L 565.636254 -297.213167 
L 563.257722 -296.03663 
L 560.879189 -294.870557 
L 558.500657 -293.714685 
L 556.122125 -292.568584 
L 553.743593 -291.431675 
L 551.36506 -290.303371 
L 548.986528 -289.183114 
L 546.607996 -288.070404 
L 544.229463 -286.964918 
L 541.850931 -285.866522 
L 539.472399 -284.775281 
L 537.093866 -283.691427 
L 534.715334 -282.615242 
L 532.336802 -281.547121 
L 529.958269 -280.487364 
L 527.579737 -279.43627 
L 525.201205 -278.394123 
L 522.822673 -277.361167 
L 520.44414 -276.337641 
L 518.065608 -275.323762 
L 515.687076 -274.319789 
L 513.308543 -273.325966 
L 510.930011 -272.342432 
L 508.551479 -271.369236 
L 506.172946 -270.406285 
L 503.794414 -269.453328 
L 501.415882 -268.509937 
L 499.037349 -267.575476 
L 496.658817 -266.648932 
L 494.280285 -265.728821 
L 491.901752 -264.813178 
L 489.52322 -263.899607 
L 487.144688 -262.985442 
L 484.766156 -262.067848 
L 482.387623 -261.144087 
L 480.009091 -260.211639 
L 477.630559 -259.268232 
L 475.252026 -258.311888 
L 472.873494 -257.340922 
L 470.494962 -256.353862 
L 468.116429 -255.34946 
L 465.737897 -254.326733 
L 463.359365 -253.284969 
L 460.980832 -252.223673 
L 458.6023 -251.142535 
L 456.223768 -250.041334 
L 453.845235 -248.91998 
L 451.466703 -247.778456 
L 449.088171 -246.616816 
L 446.709639 -245.435251 
L 444.331106 -244.234362 
L 441.952574 -243.015334 
L 439.574042 -241.780116 
L 437.195509 -240.531623 
L 434.816977 -239.273746 
L 432.438445 -238.01109 
L 430.059912 -236.748598 
L 427.68138 -235.490972 
L 425.302848 -234.242272 
L 422.924315 -233.292773 
L 420.545783 -232.558411 
L 418.167251 -231.816816 
L 415.788719 -231.067969 
L 413.410186 -230.311931 
L 411.031654 -229.548796 
L 408.653122 -228.778674 
L 406.274589 -228.001649 
L 403.896057 -227.217789 
L 401.517525 -226.42715 
L 399.138992 -225.629774 
L 396.76046 -224.825704 
L 394.381928 -224.014958 
L 392.003395 -223.197545 
L 389.624863 -222.37349 
L 387.246331 -221.542833 
L 384.867798 -220.705642 
L 382.489266 -219.861989 
L 380.110734 -219.011958 
L 377.732202 -218.15564 
L 375.353669 -217.293132 
L 372.975137 -216.424534 
L 370.596605 -215.549936 
L 368.218072 -214.66942 
L 365.83954 -213.783047 
L 363.461008 -212.890845 
L 361.082475 -211.992807 
L 358.703943 -211.08888 
L 356.325411 -210.178978 
L 353.946878 -209.262985 
L 351.568346 -208.340754 
L 349.189814 -207.412104 
L 346.811281 -206.476831 
L 344.432749 -205.534704 
L 342.054217 -204.585459 
L 339.675685 -203.628819 
L 337.297152 -202.664482 
L 334.91862 -201.692119 
L 332.540088 -200.711395 
L 330.161555 -199.72198 
L 327.783023 -198.723544 
L 325.404491 -197.715797 
L 323.025958 -196.698489 
L 320.647426 -195.671418 
L 318.268894 -194.634451 
L 315.890361 -193.587557 
L 313.511829 -192.530771 
L 311.133297 -191.464189 
L 308.754765 -190.387989 
L 306.376232 -189.302396 
L 303.9977 -188.207684 
L 301.619168 -187.10414 
L 299.240635 -185.992059 
L 296.862103 -184.871709 
L 294.483571 -183.743291 
L 292.105038 -182.606934 
L 289.726506 -181.462682 
L 287.347974 -180.310505 
L 284.969441 -179.150281 
L 282.590909 -177.981825 
L 280.212377 -176.804926 
L 277.833844 -175.61934 
L 275.455312 -174.424817 
L 273.07678 -173.221139 
L 270.698248 -172.008129 
L 268.319715 -170.785642 
L 265.941183 -169.553587 
L 263.562651 -168.311917 
L 261.184118 -167.060636 
L 258.805586 -165.799797 
L 256.427054 -164.529502 
L 254.048521 -163.249909 
L 251.669989 -161.961223 
L 249.291457 -160.663685 
L 246.912924 -159.357569 
L 244.534392 -158.243016 
L 242.15586 -157.304321 
L 239.777327 -156.36237 
L 237.398795 -155.416354 
L 235.020263 -154.465584 
L 232.641731 -153.509461 
L 230.263198 -152.547472 
L 227.884666 -151.579183 
L 225.506134 -150.604228 
L 223.127601 -149.62228 
L 220.749069 -148.63304 
L 218.370537 -147.636208 
L 215.992004 -146.631469 
L 213.613472 -145.618445 
L 211.23494 -144.596687 
L 208.856407 -143.565667 
L 206.477875 -142.524799 
L 204.099343 -141.473399 
L 201.720811 -140.410667 
L 199.342278 -139.335701 
L 196.963746 -138.247485 
L 194.585214 -137.144916 
L 192.206681 -136.026829 
L 189.828149 -134.892016 
L 187.449617 -133.739226 
L 185.071084 -132.567204 
L 182.692552 -131.374665 
L 180.31402 -130.160351 
L 177.935487 -128.92302 
L 175.556955 -127.661435 
L 173.178423 -126.374395 
L 170.79989 -125.060724 
L 168.421358 -123.719316 
L 166.042826 -122.34921 
L 163.664294 -120.949696 
L 161.285761 -119.520358 
L 158.907229 -118.061153 
L 156.528697 -116.572433 
L 154.150164 -115.054892 
L 151.771632 -113.509551 
L 149.3931 -111.937558 
L 147.014567 -110.340118 
L 144.636035 -108.718433 
L 142.257503 -107.073623 
L 139.87897 -105.406682 
L 137.500438 -103.718455 
L 135.121906 -102.009604 
L 132.743373 -100.280623 
L 130.364841 -98.531843 
L 127.986309 -96.76346 
L 125.607777 -94.975549 
L 123.229244 -93.168093 
L 120.850712 -91.341038 
L 118.47218 -89.494349 
L 116.093647 -87.628037 
L 113.715115 -85.74222 
L 111.336583 -83.837126 
L 108.95805 -81.913137 
L 106.579518 -79.970838 
L 104.200986 -78.011042 
L 101.822453 -76.034815 
L 99.443921 -74.043476 
L 97.065389 -72.038596 
L 94.686857 -70.021984 
L 92.308324 -67.99562 
L 89.929792 -65.961595 
L 87.55126 -63.922042 
L 85.172727 -61.879091 
z
" style="stroke: #000000; stroke-opacity: 0.1"/>
    </defs>
    <g clip-path="url(#pbb90d81c70)">
     <use xlink:href="#m648c6c3f81" x="0" y="360" style="fill-opacity: 0.1; stroke: #000000; stroke-opacity: 0.1"/>
    </g>
   </g>
   <g id="FillBetweenPolyCollection_2">
    <defs>
     <path id="m6a2060f589" d="M 85.172727 -61.879091 
L 85.172727 -61.879091 
L 87.55126 -63.33486 
L 89.929792 -64.791033 
L 92.308324 -66.247941 
L 94.686857 -67.705882 
L 97.065389 -69.165116 
L 99.443921 -70.625851 
L 101.822453 -72.088241 
L 104.200986 -73.552369 
L 106.579518 -75.018257 
L 108.95805 -76.485868 
L 111.336583 -77.955122 
L 113.715115 -79.425896 
L 116.093647 -80.898041 
L 118.47218 -82.37138 
L 120.850712 -83.845716 
L 123.229244 -85.320826 
L 125.607777 -86.796471 
L 127.986309 -88.2724 
L 130.364841 -89.748372 
L 132.743373 -91.224163 
L 135.121906 -92.699585 
L 137.500438 -94.174494 
L 139.87897 -95.648802 
L 142.257503 -97.122479 
L 144.636035 -98.595552 
L 147.014567 -100.068099 
L 149.3931 -101.540228 
L 151.771632 -103.012068 
L 154.150164 -104.48375 
L 156.528697 -105.955387 
L 158.907229 -107.427048 
L 161.285761 -108.898704 
L 163.664294 -110.37023 
L 166.042826 -111.841392 
L 168.421358 -113.311884 
L 170.79989 -114.781354 
L 173.178423 -116.249428 
L 175.556955 -117.715728 
L 177.935487 -119.179888 
L 180.31402 -120.641548 
L 182.692552 -122.100347 
L 185.071084 -123.555924 
L 187.449617 -125.007927 
L 189.828149 -126.456011 
L 192.206681 -127.899868 
L 194.585214 -129.339222 
L 196.963746 -130.773845 
L 199.342278 -132.203551 
L 201.720811 -133.628205 
L 204.099343 -135.047714 
L 206.477875 -136.462018 
L 208.856407 -137.871076 
L 211.23494 -139.274859 
L 213.613472 -140.673329 
L 215.992004 -142.066429 
L 218.370537 -143.454077 
L 220.749069 -144.836166 
L 223.127601 -146.212559 
L 225.506134 -147.58308 
L 227.884666 -148.947521 
L 230.263198 -150.305634 
L 232.641731 -151.657148 
L 235.020263 -153.001759 
L 237.398795 -154.33915 
L 239.777327 -155.668993 
L 242.15586 -156.99096 
L 244.534392 -158.251659 
L 246.912924 -159.154383 
L 249.291457 -160.05663 
L 251.669989 -160.959528 
L 254.048521 -161.864306 
L 256.427054 -162.772228 
L 258.805586 -163.684558 
L 261.184118 -164.602474 
L 263.562651 -165.526979 
L 265.941183 -166.458902 
L 268.319715 -167.398814 
L 270.698248 -168.346996 
L 273.07678 -169.303404 
L 275.455312 -170.267562 
L 277.833844 -171.238619 
L 280.212377 -172.215314 
L 282.590909 -173.195979 
L 284.969441 -174.178799 
L 287.347974 -175.161943 
L 289.726506 -176.143576 
L 292.105038 -177.122091 
L 294.483571 -178.09631 
L 296.862103 -179.065424 
L 299.240635 -180.029045 
L 301.619168 -180.987213 
L 303.9977 -181.940353 
L 306.376232 -182.889096 
L 308.754765 -183.834125 
L 311.133297 -184.776168 
L 313.511829 -185.715863 
L 315.890361 -186.653781 
L 318.268894 -187.590299 
L 320.647426 -188.525696 
L 323.025958 -189.46015 
L 325.404491 -190.393603 
L 327.783023 -191.325856 
L 330.161555 -192.256701 
L 332.540088 -193.185911 
L 334.91862 -194.113184 
L 337.297152 -195.038294 
L 339.675685 -195.961057 
L 342.054217 -196.881318 
L 344.432749 -197.799036 
L 346.811281 -198.714229 
L 349.189814 -199.626928 
L 351.568346 -200.537183 
L 353.946878 -201.445071 
L 356.325411 -202.350666 
L 358.703943 -203.254097 
L 361.082475 -204.155561 
L 363.461008 -205.055359 
L 365.83954 -205.953935 
L 368.218072 -206.851916 
L 370.596605 -207.750092 
L 372.975137 -208.649433 
L 375.353669 -209.551039 
L 377.732202 -210.456086 
L 380.110734 -211.365846 
L 382.489266 -212.281574 
L 384.867798 -213.204531 
L 387.246331 -214.135926 
L 389.624863 -215.076881 
L 392.003395 -216.028419 
L 394.381928 -216.991481 
L 396.76046 -217.966996 
L 399.138992 -218.955867 
L 401.517525 -219.95907 
L 403.896057 -220.977684 
L 406.274589 -222.012838 
L 408.653122 -223.065783 
L 411.031654 -224.13784 
L 413.410186 -225.23032 
L 415.788719 -226.344496 
L 418.167251 -227.481417 
L 420.545783 -228.641717 
L 422.924315 -229.82532 
L 425.302848 -231.031219 
L 427.68138 -232.257242 
L 430.059912 -233.476638 
L 432.438445 -234.148121 
L 434.816977 -234.814258 
L 437.195509 -235.475913 
L 439.574042 -236.133894 
L 441.952574 -236.788887 
L 444.331106 -237.441403 
L 446.709639 -238.091788 
L 449.088171 -238.74025 
L 451.466703 -239.386897 
L 453.845235 -240.031772 
L 456.223768 -240.674894 
L 458.6023 -241.316281 
L 460.980832 -241.955944 
L 463.359365 -242.593858 
L 465.737897 -243.229966 
L 468.116429 -243.864175 
L 470.494962 -244.496349 
L 472.873494 -245.1263 
L 475.252026 -245.75378 
L 477.630559 -246.378498 
L 480.009091 -247.000122 
L 482.387623 -247.61828 
L 484.766156 -248.232562 
L 487.144688 -248.842536 
L 489.52322 -249.447755 
L 491.901752 -250.047766 
L 494.280285 -250.642148 
L 496.658817 -251.230519 
L 499.037349 -251.812558 
L 501.415882 -252.388011 
L 503.794414 -252.956676 
L 506.172946 -253.518388 
L 508.551479 -254.072997 
L 510.930011 -254.620367 
L 513.308543 -255.160389 
L 515.687076 -255.692963 
L 518.065608 -256.218017 
L 520.44414 -256.735516 
L 522.822673 -257.245435 
L 525.201205 -257.747754 
L 527.579737 -258.242477 
L 529.958269 -258.729624 
L 532.336802 -259.209228 
L 534.715334 -259.68134 
L 537.093866 -260.146018 
L 539.472399 -260.60335 
L 541.850931 -261.05341 
L 544.229463 -261.496265 
L 546.607996 -261.931954 
L 548.986528 -262.360476 
L 551.36506 -262.781805 
L 553.743593 -263.195897 
L 556.122125 -263.602704 
L 558.500657 -264.002181 
L 560.879189 -264.394306 
L 563.257722 -264.7791 
L 565.636254 -265.156636 
L 568.014786 -265.527021 
L 570.393319 -265.890438 
L 572.771851 -266.247141 
L 575.150383 -266.597438 
L 577.528916 -266.941719 
L 579.907448 -267.280429 
L 582.28598 -267.614042 
L 584.664513 -267.943083 
L 587.043045 -268.268078 
L 589.421577 -268.589549 
L 591.80011 -268.908028 
L 594.178642 -269.224078 
L 596.557174 -269.538305 
L 598.935706 -269.851335 
L 601.314239 -270.163876 
L 603.692771 -270.476704 
L 606.071303 -270.790674 
L 608.449836 -271.10674 
L 610.828368 -271.425868 
L 613.2069 -271.749051 
L 615.585433 -272.077285 
L 617.963965 -272.411495 
L 620.342497 -272.752544 
L 622.72103 -273.101204 
L 625.099562 -273.458105 
L 627.478094 -273.823685 
L 629.856627 -274.198257 
L 632.235159 -274.581893 
L 634.613691 -274.974401 
L 636.992223 -275.375405 
L 639.370756 -275.784324 
L 641.749288 -276.200372 
L 644.12782 -276.622736 
L 646.506353 -277.050561 
L 648.884885 -277.483072 
L 651.263417 -277.919784 
L 653.64195 -278.360513 
L 656.020482 -278.805384 
L 658.399014 -279.254866 
L 660.777547 -279.709645 
L 663.156079 -280.170444 
L 665.534611 -280.637966 
L 667.913143 -281.112773 
L 670.291676 -281.595106 
L 672.670208 -282.084878 
L 675.04874 -282.58166 
L 677.427273 -283.084685 
L 677.427273 -342.293937 
L 677.427273 -342.293937 
L 675.04874 -341.47435 
L 672.670208 -340.636914 
L 670.291676 -339.781183 
L 667.913143 -338.906786 
L 665.534611 -338.013467 
L 663.156079 -337.101068 
L 660.777547 -336.169553 
L 658.399014 -335.219044 
L 656.020482 -334.249765 
L 653.64195 -333.261999 
L 651.263417 -332.256052 
L 648.884885 -331.23227 
L 646.506353 -330.190987 
L 644.12782 -329.132508 
L 641.749288 -328.057139 
L 639.370756 -326.965256 
L 636.992223 -325.857259 
L 634.613691 -324.733604 
L 632.235159 -323.594873 
L 629.856627 -322.441781 
L 627.478094 -321.275162 
L 625.099562 -320.096009 
L 622.72103 -318.905495 
L 620.342497 -317.704958 
L 617.963965 -316.495917 
L 615.585433 -315.280069 
L 613.2069 -314.059237 
L 610.828368 -312.835358 
L 608.449836 -311.61045 
L 606.071303 -310.386557 
L 603.692771 -309.165661 
L 601.314239 -307.949529 
L 598.935706 -306.739612 
L 596.557174 -305.537024 
L 594.178642 -304.342533 
L 591.80011 -303.156634 
L 589.421577 -301.979668 
L 587.043045 -300.811975 
L 584.664513 -299.653983 
L 582.28598 -298.506255 
L 579.907448 -297.369448 
L 577.528916 -296.244298 
L 575.150383 -295.131496 
L 572.771851 -294.031607 
L 570.393319 -292.94501 
L 568.014786 -291.871787 
L 565.636254 -290.811739 
L 563.257722 -289.764364 
L 560.879189 -288.728867 
L 558.500657 -287.704218 
L 556.122125 -286.689246 
L 553.743593 -285.68268 
L 551.36506 -284.683314 
L 548.986528 -283.690068 
L 546.607996 -282.702027 
L 544.229463 -281.718566 
L 541.850931 -280.739366 
L 539.472399 -279.76441 
L 537.093866 -278.793951 
L 534.715334 -277.828362 
L 532.336802 -276.868177 
L 529.958269 -275.913855 
L 527.579737 -274.965842 
L 525.201205 -274.024529 
L 522.822673 -273.090205 
L 520.44414 -272.163081 
L 518.065608 -271.243253 
L 515.687076 -270.330768 
L 513.308543 -269.42559 
L 510.930011 -268.527513 
L 508.551479 -267.636195 
L 506.172946 -266.751135 
L 503.794414 -265.871681 
L 501.415882 -264.997053 
L 499.037349 -264.126335 
L 496.658817 -263.258321 
L 494.280285 -262.391439 
L 491.901752 -261.523736 
L 489.52322 -260.652915 
L 487.144688 -259.776468 
L 484.766156 -258.891728 
L 482.387623 -257.996089 
L 480.009091 -257.087098 
L 477.630559 -256.162481 
L 475.252026 -255.220239 
L 472.873494 -254.258688 
L 470.494962 -253.276429 
L 468.116429 -252.272389 
L 465.737897 -251.245859 
L 463.359365 -250.196498 
L 460.980832 -249.124266 
L 458.6023 -248.029389 
L 456.223768 -246.912243 
L 453.845235 -245.773381 
L 451.466703 -244.613459 
L 449.088171 -243.433228 
L 446.709639 -242.233584 
L 444.331106 -241.015839 
L 441.952574 -239.781928 
L 439.574042 -238.534597 
L 437.195509 -237.277611 
L 434.816977 -236.015766 
L 432.438445 -234.754592 
L 430.059912 -233.499921 
L 427.68138 -232.799009 
L 425.302848 -232.114562 
L 422.924315 -231.422813 
L 420.545783 -230.723497 
L 418.167251 -230.016535 
L 415.788719 -229.30199 
L 413.410186 -228.580047 
L 411.031654 -227.850949 
L 408.653122 -227.114975 
L 406.274589 -226.372385 
L 403.896057 -225.623422 
L 401.517525 -224.868296 
L 399.138992 -224.107189 
L 396.76046 -223.340258 
L 394.381928 -222.567611 
L 392.003395 -221.789322 
L 389.624863 -221.005453 
L 387.246331 -220.216052 
L 384.867798 -219.42117 
L 382.489266 -218.620843 
L 380.110734 -217.815095 
L 377.732202 -217.003936 
L 375.353669 -216.187365 
L 372.975137 -215.365362 
L 370.596605 -214.537881 
L 368.218072 -213.704852 
L 365.83954 -212.866172 
L 363.461008 -212.021697 
L 361.082475 -211.171236 
L 358.703943 -210.31455 
L 356.325411 -209.451368 
L 353.946878 -208.58139 
L 351.568346 -207.704298 
L 349.189814 -206.81975 
L 346.811281 -205.927401 
L 344.432749 -205.026893 
L 342.054217 -204.11786 
L 339.675685 -203.199932 
L 337.297152 -202.272739 
L 334.91862 -201.33589 
L 332.540088 -200.389006 
L 330.161555 -199.431721 
L 327.783023 -198.463684 
L 325.404491 -197.484595 
L 323.025958 -196.494207 
L 320.647426 -195.492334 
L 318.268894 -194.478882 
L 315.890361 -193.453877 
L 313.511829 -192.417433 
L 311.133297 -191.369753 
L 308.754765 -190.311139 
L 306.376232 -189.241962 
L 303.9977 -188.162658 
L 301.619168 -187.073687 
L 299.240635 -185.975511 
L 296.862103 -184.868564 
L 294.483571 -183.7532 
L 292.105038 -182.629677 
L 289.726506 -181.498149 
L 287.347974 -180.358666 
L 284.969441 -179.211159 
L 282.590909 -178.055469 
L 280.212377 -176.891389 
L 277.833844 -175.718664 
L 275.455312 -174.537016 
L 273.07678 -173.346195 
L 270.698248 -172.145982 
L 268.319715 -170.936189 
L 265.941183 -169.71668 
L 263.562651 -168.487359 
L 261.184118 -167.248182 
L 258.805586 -165.999152 
L 256.427054 -164.740325 
L 254.048521 -163.471811 
L 251.669989 -162.193773 
L 249.291457 -160.906415 
L 246.912924 -159.609976 
L 244.534392 -158.304726 
L 242.15586 -157.347432 
L 239.777327 -156.440797 
L 237.398795 -155.530988 
L 235.020263 -154.617393 
L 232.641731 -153.69952 
L 230.263198 -152.776987 
L 227.884666 -151.849497 
L 225.506134 -150.916825 
L 223.127601 -149.978765 
L 220.749069 -149.03512 
L 218.370537 -148.085658 
L 215.992004 -147.130097 
L 213.613472 -146.16805 
L 211.23494 -145.199026 
L 208.856407 -144.222414 
L 206.477875 -143.237514 
L 204.099343 -142.243487 
L 201.720811 -141.239344 
L 199.342278 -140.223962 
L 196.963746 -139.196071 
L 194.585214 -138.154284 
L 192.206681 -137.097126 
L 189.828149 -136.023058 
L 187.449617 -134.930477 
L 185.071084 -133.817754 
L 182.692552 -132.683205 
L 180.31402 -131.52515 
L 177.935487 -130.341909 
L 175.556955 -129.131787 
L 173.178423 -127.893119 
L 170.79989 -126.624271 
L 168.421358 -125.323692 
L 166.042826 -123.990012 
L 163.664294 -122.622163 
L 161.285761 -121.21942 
L 158.907229 -119.781503 
L 156.528697 -118.308586 
L 154.150164 -116.801259 
L 151.771632 -115.260507 
L 149.3931 -113.687482 
L 147.014567 -112.083436 
L 144.636035 -110.449644 
L 142.257503 -108.787315 
L 139.87897 -107.097546 
L 137.500438 -105.381282 
L 135.121906 -103.639283 
L 132.743373 -101.872132 
L 130.364841 -100.08024 
L 127.986309 -98.263881 
L 125.607777 -96.423203 
L 123.229244 -94.558275 
L 120.850712 -92.669137 
L 118.47218 -90.75587 
L 116.093647 -88.818622 
L 113.715115 -86.857678 
L 111.336583 -84.87347 
L 108.95805 -82.86662 
L 106.579518 -80.837993 
L 104.200986 -78.788722 
L 101.822453 -76.720236 
L 99.443921 -74.634255 
L 97.065389 -72.532797 
L 94.686857 -70.418151 
L 92.308324 -68.292813 
L 89.929792 -66.159412 
L 87.55126 -64.020625 
L 85.172727 -61.879091 
z
" style="stroke: #a52a2a; stroke-opacity: 0.1"/>
    </defs>
    <g clip-path="url(#pbb90d81c70)">
     <use xlink:href="#m6a2060f589" x="0" y="360" style="fill: #a52a2a; fill-opacity: 0.1; stroke: #a52a2a; stroke-opacity: 0.1"/>
    </g>
   </g>
   <g id="FillBetweenPolyCollection_3">
    <defs>
     <path id="m8d465f656b" d="M 85.172727 -61.879091 
L 85.172727 -61.879091 
L 87.55126 -62.169357 
L 89.929792 -62.466024 
L 92.308324 -62.769642 
L 94.686857 -63.080616 
L 97.065389 -63.39918 
L 99.443921 -63.725374 
L 101.822453 -64.059041 
L 104.200986 -64.399829 
L 106.579518 -64.747197 
L 108.95805 -65.100414 
L 111.336583 -65.458563 
L 113.715115 -65.820555 
L 116.093647 -66.185143 
L 118.47218 -66.550945 
L 120.850712 -66.916473 
L 123.229244 -67.280154 
L 125.607777 -67.640367 
L 127.986309 -67.995461 
L 130.364841 -68.343793 
L 132.743373 -68.683751 
L 135.121906 -69.013775 
L 137.500438 -69.332381 
L 139.87897 -69.638177 
L 142.257503 -69.92988 
L 144.636035 -70.206326 
L 147.014567 -70.466487 
L 149.3931 -70.709459 
L 151.771632 -70.934467 
L 154.150164 -71.140863 
L 156.528697 -71.328137 
L 158.907229 -71.495923 
L 161.285761 -71.643961 
L 163.664294 -71.772074 
L 166.042826 -71.880173 
L 168.421358 -71.968262 
L 170.79989 -72.03645 
L 173.178423 -72.084966 
L 175.556955 -72.114158 
L 177.935487 -72.124491 
L 180.31402 -72.116547 
L 182.692552 -72.091013 
L 185.071084 -72.048664 
L 187.449617 -71.990358 
L 189.828149 -71.91702 
L 192.206681 -71.829653 
L 194.585214 -71.729337 
L 196.963746 -71.617212 
L 199.342278 -71.494478 
L 201.720811 -71.362401 
L 204.099343 -71.222298 
L 206.477875 -71.075519 
L 208.856407 -70.923444 
L 211.23494 -70.767451 
L 213.613472 -70.608903 
L 215.992004 -70.449128 
L 218.370537 -70.289419 
L 220.749069 -70.131012 
L 223.127601 -69.975057 
L 225.506134 -69.822613 
L 227.884666 -69.674626 
L 230.263198 -69.531922 
L 232.641731 -69.395217 
L 235.020263 -69.265105 
L 237.398795 -69.142064 
L 239.777327 -69.026443 
L 242.15586 -68.918457 
L 244.534392 -68.818194 
L 246.912924 -68.725596 
L 249.291457 -68.640451 
L 251.669989 -68.562407 
L 254.048521 -68.490977 
L 256.427054 -68.425554 
L 258.805586 -68.365446 
L 261.184118 -68.309893 
L 263.562651 -68.258085 
L 265.941183 -68.209212 
L 268.319715 -68.162485 
L 270.698248 -68.117173 
L 273.07678 -68.072634 
L 275.455312 -68.028349 
L 277.833844 -67.98396 
L 280.212377 -67.939288 
L 282.590909 -67.894338 
L 284.969441 -67.849308 
L 287.347974 -67.80457 
L 289.726506 -67.760649 
L 292.105038 -67.718176 
L 294.483571 -67.677856 
L 296.862103 -67.640436 
L 299.240635 -67.606672 
L 301.619168 -67.577304 
L 303.9977 -67.553041 
L 306.376232 -67.534562 
L 308.754765 -67.522507 
L 311.133297 -67.517456 
L 313.511829 -67.519923 
L 315.890361 -67.530358 
L 318.268894 -67.549134 
L 320.647426 -67.576534 
L 323.025958 -67.612742 
L 325.404491 -67.657834 
L 327.783023 -67.71175 
L 330.161555 -67.77427 
L 332.540088 -67.844981 
L 334.91862 -67.923267 
L 337.297152 -68.008277 
L 339.675685 -68.09892 
L 342.054217 -68.19388 
L 344.432749 -68.291614 
L 346.811281 -68.390403 
L 349.189814 -68.48839 
L 351.568346 -68.583619 
L 353.946878 -68.674088 
L 356.325411 -68.757813 
L 358.703943 -68.832867 
L 361.082475 -68.897442 
L 363.461008 -68.949889 
L 365.83954 -68.988759 
L 368.218072 -69.012823 
L 370.596605 -69.021101 
L 372.975137 -69.012874 
L 375.353669 -68.987685 
L 377.732202 -68.945363 
L 380.110734 -68.885988 
L 382.489266 -68.809879 
L 384.867798 -68.717565 
L 387.246331 -68.609769 
L 389.624863 -68.487344 
L 392.003395 -68.351262 
L 394.381928 -68.202604 
L 396.76046 -68.042523 
L 399.138992 -67.872218 
L 401.517525 -67.692919 
L 403.896057 -67.505873 
L 406.274589 -67.312366 
L 408.653122 -67.113714 
L 411.031654 -66.911256 
L 413.410186 -66.706315 
L 415.788719 -66.500179 
L 418.167251 -66.294124 
L 420.545783 -66.089418 
L 422.924315 -65.887359 
L 425.302848 -65.689316 
L 427.68138 -65.496793 
L 430.059912 -65.311483 
L 432.438445 -65.135229 
L 434.816977 -64.9699 
L 437.195509 -64.817231 
L 439.574042 -64.678613 
L 441.952574 -64.554982 
L 444.331106 -64.446697 
L 446.709639 -64.353553 
L 449.088171 -64.274848 
L 451.466703 -64.209454 
L 453.845235 -64.155918 
L 456.223768 -64.112572 
L 458.6023 -64.07764 
L 460.980832 -64.049339 
L 463.359365 -64.025923 
L 465.737897 -64.005757 
L 468.116429 -63.98736 
L 470.494962 -63.969422 
L 472.873494 -63.950842 
L 475.252026 -63.930715 
L 477.630559 -63.908313 
L 480.009091 -63.883069 
L 482.387623 -63.854575 
L 484.766156 -63.822591 
L 487.144688 -63.78711 
L 489.52322 -63.748429 
L 491.901752 -63.707258 
L 494.280285 -63.664794 
L 496.658817 -63.622717 
L 499.037349 -63.583094 
L 501.415882 -63.548219 
L 503.794414 -63.520415 
L 506.172946 -63.501833 
L 508.551479 -63.494307 
L 510.930011 -63.499312 
L 513.308543 -63.517891 
L 515.687076 -63.550653 
L 518.065608 -63.597805 
L 520.44414 -63.659111 
L 522.822673 -63.733947 
L 525.201205 -63.821352 
L 527.579737 -63.920051 
L 529.958269 -64.028489 
L 532.336802 -64.14487 
L 534.715334 -64.267201 
L 537.093866 -64.393366 
L 539.472399 -64.521213 
L 541.850931 -64.648623 
L 544.229463 -64.773611 
L 546.607996 -64.894387 
L 548.986528 -65.009409 
L 551.36506 -65.117376 
L 553.743593 -65.217224 
L 556.122125 -65.308124 
L 558.500657 -65.389456 
L 560.879189 -65.460822 
L 563.257722 -65.522049 
L 565.636254 -65.573212 
L 568.014786 -65.614692 
L 570.393319 -65.647162 
L 572.771851 -65.671625 
L 575.150383 -65.689462 
L 577.528916 -65.702418 
L 579.907448 -65.712625 
L 582.28598 -65.722596 
L 584.664513 -65.735159 
L 587.043045 -65.753421 
L 589.421577 -65.78067 
L 591.80011 -65.820293 
L 594.178642 -65.875703 
L 596.557174 -65.950232 
L 598.935706 -66.047157 
L 601.314239 -66.169576 
L 603.692771 -66.320307 
L 606.071303 -66.501845 
L 608.449836 -66.716259 
L 610.828368 -66.965094 
L 613.2069 -67.249298 
L 615.585433 -67.569203 
L 617.963965 -67.924476 
L 620.342497 -68.314189 
L 622.72103 -68.736863 
L 625.099562 -69.190523 
L 627.478094 -69.672761 
L 629.856627 -70.180863 
L 632.235159 -70.711887 
L 634.613691 -71.262739 
L 636.992223 -71.830272 
L 639.370756 -72.411348 
L 641.749288 -73.002898 
L 644.12782 -73.601999 
L 646.506353 -74.205937 
L 648.884885 -74.812277 
L 651.263417 -75.418953 
L 653.64195 -76.024323 
L 656.020482 -76.627246 
L 658.399014 -77.227174 
L 660.777547 -77.824129 
L 663.156079 -78.418607 
L 665.534611 -79.011519 
L 667.913143 -79.604031 
L 670.291676 -80.197427 
L 672.670208 -80.793043 
L 675.04874 -81.392208 
L 677.427273 -81.996202 
L 677.427273 -138.726441 
L 677.427273 -138.726441 
L 675.04874 -137.323592 
L 672.670208 -135.921518 
L 670.291676 -134.528849 
L 667.913143 -133.154729 
L 665.534611 -131.808676 
L 663.156079 -130.500357 
L 660.777547 -129.239409 
L 658.399014 -128.035299 
L 656.020482 -126.897095 
L 653.64195 -125.833249 
L 651.263417 -124.851385 
L 648.884885 -123.958116 
L 646.506353 -123.158841 
L 644.12782 -122.457589 
L 641.749288 -121.856894 
L 639.370756 -121.357727 
L 636.992223 -120.959393 
L 634.613691 -120.659566 
L 632.235159 -120.454377 
L 629.856627 -120.338519 
L 627.478094 -120.305389 
L 625.099562 -120.347316 
L 622.72103 -120.455742 
L 620.342497 -120.621394 
L 617.963965 -120.834551 
L 615.585433 -121.085154 
L 613.2069 -121.363073 
L 610.828368 -121.658292 
L 608.449836 -121.961106 
L 606.071303 -122.262333 
L 603.692771 -122.553453 
L 601.314239 -122.826676 
L 598.935706 -123.075007 
L 596.557174 -123.292302 
L 594.178642 -123.473246 
L 591.80011 -123.613407 
L 589.421577 -123.709268 
L 587.043045 -123.758284 
L 584.664513 -123.758827 
L 582.28598 -123.710019 
L 579.907448 -123.611554 
L 577.528916 -123.463362 
L 575.150383 -123.265486 
L 572.771851 -123.017979 
L 570.393319 -122.720827 
L 568.014786 -122.374167 
L 565.636254 -121.978235 
L 563.257722 -121.533446 
L 560.879189 -121.040578 
L 558.500657 -120.500627 
L 556.122125 -119.914885 
L 553.743593 -119.284884 
L 551.36506 -118.61231 
L 548.986528 -117.898936 
L 546.607996 -117.14632 
L 544.229463 -116.355693 
L 541.850931 -115.527771 
L 539.472399 -114.662635 
L 537.093866 -113.759842 
L 534.715334 -112.818589 
L 532.336802 -111.838175 
L 529.958269 -110.818187 
L 527.579737 -109.75885 
L 525.201205 -108.661245 
L 522.822673 -107.527322 
L 520.44414 -106.359957 
L 518.065608 -105.162965 
L 515.687076 -103.941209 
L 513.308543 -102.700738 
L 510.930011 -101.449242 
L 508.551479 -100.195818 
L 506.172946 -98.951148 
L 503.794414 -97.727649 
L 501.415882 -96.539166 
L 499.037349 -95.400726 
L 496.658817 -94.327761 
L 494.280285 -93.335076 
L 491.901752 -92.435697 
L 489.52322 -91.63993 
L 487.144688 -90.954829 
L 484.766156 -90.384115 
L 482.387623 -89.928681 
L 480.009091 -89.587137 
L 477.630559 -89.356314 
L 475.252026 -89.231685 
L 472.873494 -89.207404 
L 470.494962 -89.276367 
L 468.116429 -89.430236 
L 465.737897 -89.659374 
L 463.359365 -89.952946 
L 460.980832 -90.299117 
L 458.6023 -90.685221 
L 456.223768 -91.097978 
L 453.845235 -91.523893 
L 451.466703 -91.949563 
L 449.088171 -92.362248 
L 446.709639 -92.750369 
L 444.331106 -93.104093 
L 441.952574 -93.415796 
L 439.574042 -93.680507 
L 437.195509 -93.896206 
L 434.816977 -94.063806 
L 432.438445 -94.186504 
L 430.059912 -94.268986 
L 427.68138 -94.316331 
L 425.302848 -94.333049 
L 422.924315 -94.322382 
L 420.545783 -94.286266 
L 418.167251 -94.225577 
L 415.788719 -94.140576 
L 413.410186 -94.031372 
L 411.031654 -93.898184 
L 408.653122 -93.741489 
L 406.274589 -93.562064 
L 403.896057 -93.360971 
L 401.517525 -93.13946 
L 399.138992 -92.899078 
L 396.76046 -92.641636 
L 394.381928 -92.369283 
L 392.003395 -92.08455 
L 389.624863 -91.790245 
L 387.246331 -91.489411 
L 384.867798 -91.185248 
L 382.489266 -90.880998 
L 380.110734 -90.57983 
L 377.732202 -90.284601 
L 375.353669 -89.997779 
L 372.975137 -89.721274 
L 370.596605 -89.45636 
L 368.218072 -89.203594 
L 365.83954 -88.962845 
L 363.461008 -88.733342 
L 361.082475 -88.513744 
L 358.703943 -88.30225 
L 356.325411 -88.096771 
L 353.946878 -87.895109 
L 351.568346 -87.695225 
L 349.189814 -87.495495 
L 346.811281 -87.2949 
L 344.432749 -87.093291 
L 342.054217 -86.891588 
L 339.675685 -86.691849 
L 337.297152 -86.497302 
L 334.91862 -86.312372 
L 332.540088 -86.14241 
L 330.161555 -85.993515 
L 327.783023 -85.872184 
L 325.404491 -85.784884 
L 323.025958 -85.737717 
L 320.647426 -85.73604 
L 318.268894 -85.784164 
L 315.890361 -85.885119 
L 313.511829 -86.040583 
L 311.133297 -86.250949 
L 308.754765 -86.51537 
L 306.376232 -86.831935 
L 303.9977 -87.197925 
L 301.619168 -87.610058 
L 299.240635 -88.064686 
L 296.862103 -88.558081 
L 294.483571 -89.086659 
L 292.105038 -89.647168 
L 289.726506 -90.236737 
L 287.347974 -90.852796 
L 284.969441 -91.49304 
L 282.590909 -92.15526 
L 280.212377 -92.837143 
L 277.833844 -93.536114 
L 275.455312 -94.249218 
L 273.07678 -94.973098 
L 270.698248 -95.703969 
L 268.319715 -96.437653 
L 265.941183 -97.169735 
L 263.562651 -97.895645 
L 261.184118 -98.610757 
L 258.805586 -99.310494 
L 256.427054 -99.990385 
L 254.048521 -100.646223 
L 251.669989 -101.274114 
L 249.291457 -101.870474 
L 246.912924 -102.43214 
L 244.534392 -102.956345 
L 242.15586 -103.440706 
L 239.777327 -103.883233 
L 237.398795 -104.282235 
L 235.020263 -104.63619 
L 232.641731 -104.943783 
L 230.263198 -105.203813 
L 227.884666 -105.415207 
L 225.506134 -105.577006 
L 223.127601 -105.688371 
L 220.749069 -105.748649 
L 218.370537 -105.757441 
L 215.992004 -105.714548 
L 213.613472 -105.620014 
L 211.23494 -105.474032 
L 208.856407 -105.276965 
L 206.477875 -105.02937 
L 204.099343 -104.732011 
L 201.720811 -104.385846 
L 199.342278 -103.991973 
L 196.963746 -103.551628 
L 194.585214 -103.066217 
L 192.206681 -102.537293 
L 189.828149 -101.966558 
L 187.449617 -101.355926 
L 185.071084 -100.707464 
L 182.692552 -100.023391 
L 180.31402 -99.306149 
L 177.935487 -98.55837 
L 175.556955 -97.782809 
L 173.178423 -96.982307 
L 170.79989 -96.159749 
L 168.421358 -95.318072 
L 166.042826 -94.460222 
L 163.664294 -93.589165 
L 161.285761 -92.707896 
L 158.907229 -91.819446 
L 156.528697 -90.926914 
L 154.150164 -90.033414 
L 151.771632 -89.141975 
L 149.3931 -88.255254 
L 147.014567 -87.375526 
L 144.636035 -86.504609 
L 142.257503 -85.643778 
L 139.87897 -84.793708 
L 137.500438 -83.95439 
L 135.121906 -83.125098 
L 132.743373 -82.304361 
L 130.364841 -81.489971 
L 127.986309 -80.678998 
L 125.607777 -79.86785 
L 123.229244 -79.052357 
L 120.850712 -78.227888 
L 118.47218 -77.389485 
L 116.093647 -76.532014 
L 113.715115 -75.650317 
L 111.336583 -74.739375 
L 108.95805 -73.794447 
L 106.579518 -72.811219 
L 104.200986 -71.785931 
L 101.822453 -70.715493 
L 99.443921 -69.597594 
L 97.065389 -68.430784 
L 94.686857 -67.214539 
L 92.308324 -65.949304 
L 89.929792 -64.636513 
L 87.55126 -63.278607 
L 85.172727 -61.879091 
z
" style="stroke: #000080; stroke-opacity: 0.1"/>
    </defs>
    <g clip-path="url(#pbb90d81c70)">
     <use xlink:href="#m8d465f656b" x="0" y="360" style="fill: #000080; fill-opacity: 0.1; stroke: #000080; stroke-opacity: 0.1"/>
    </g>
   </g>
   <g id="FillBetweenPolyCollection_4">
    <defs>
     <path id="m6237f7e649" d="M 85.172727 -61.879091 
L 85.172727 -61.879091 
L 87.55126 -62.668376 
L 89.929792 -63.455819 
L 92.308324 -64.241741 
L 94.686857 -65.026235 
L 97.065389 -65.809207 
L 99.443921 -66.590391 
L 101.822453 -67.369363 
L 104.200986 -68.14554 
L 106.579518 -68.918181 
L 108.95805 -69.686405 
L 111.336583 -70.4492 
L 113.715115 -71.205433 
L 116.093647 -71.953858 
L 118.47218 -72.693129 
L 120.850712 -73.421806 
L 123.229244 -74.138366 
L 125.607777 -74.841232 
L 127.986309 -75.528787 
L 130.364841 -76.199412 
L 132.743373 -76.851511 
L 135.121906 -77.483537 
L 137.500438 -78.094013 
L 139.87897 -78.681559 
L 142.257503 -79.244905 
L 144.636035 -79.782898 
L 147.014567 -80.294516 
L 149.3931 -80.778866 
L 151.771632 -81.235188 
L 154.150164 -81.662868 
L 156.528697 -82.061432 
L 158.907229 -82.430558 
L 161.285761 -82.770042 
L 163.664294 -83.079802 
L 166.042826 -83.359899 
L 168.421358 -83.610576 
L 170.79989 -83.832274 
L 173.178423 -84.025635 
L 175.556955 -84.191495 
L 177.935487 -84.330853 
L 180.31402 -84.444855 
L 182.692552 -84.534776 
L 185.071084 -84.602003 
L 187.449617 -84.648022 
L 189.828149 -84.674409 
L 192.206681 -84.682835 
L 194.585214 -84.675057 
L 196.963746 -84.652884 
L 199.342278 -84.618171 
L 201.720811 -84.572785 
L 204.099343 -84.518585 
L 206.477875 -84.457387 
L 208.856407 -84.390957 
L 211.23494 -84.320982 
L 213.613472 -84.249064 
L 215.992004 -84.176716 
L 218.370537 -84.105364 
L 220.749069 -84.036335 
L 223.127601 -83.970843 
L 225.506134 -83.909971 
L 227.884666 -83.854658 
L 230.263198 -83.805677 
L 232.641731 -83.763631 
L 235.020263 -83.728928 
L 237.398795 -83.70178 
L 239.777327 -83.68219 
L 242.15586 -83.669939 
L 244.534392 -83.664592 
L 246.912924 -83.665496 
L 249.291457 -83.671769 
L 251.669989 -83.682333 
L 254.048521 -83.695925 
L 256.427054 -83.71113 
L 258.805586 -83.726421 
L 261.184118 -83.740178 
L 263.562651 -83.750731 
L 265.941183 -83.756409 
L 268.319715 -83.755571 
L 270.698248 -83.746641 
L 273.07678 -83.728153 
L 275.455312 -83.698777 
L 277.833844 -83.657357 
L 280.212377 -83.60293 
L 282.590909 -83.534736 
L 284.969441 -83.452226 
L 287.347974 -83.355054 
L 289.726506 -83.243063 
L 292.105038 -83.11627 
L 294.483571 -82.974864 
L 296.862103 -82.819221 
L 299.240635 -82.649922 
L 301.619168 -82.467776 
L 303.9977 -82.273862 
L 306.376232 -82.069577 
L 308.754765 -81.856675 
L 311.133297 -81.637276 
L 313.511829 -81.41389 
L 315.890361 -81.189408 
L 318.268894 -80.967074 
L 320.647426 -80.750412 
L 323.025958 -80.543147 
L 325.404491 -80.349083 
L 327.783023 -80.171969 
L 330.161555 -80.015332 
L 332.540088 -79.882306 
L 334.91862 -79.775489 
L 337.297152 -79.696798 
L 339.675685 -79.647359 
L 342.054217 -79.627471 
L 344.432749 -79.636578 
L 346.811281 -79.673327 
L 349.189814 -79.735637 
L 351.568346 -79.820793 
L 353.946878 -79.925586 
L 356.325411 -80.04645 
L 358.703943 -80.179601 
L 361.082475 -80.321171 
L 363.461008 -80.467332 
L 365.83954 -80.614393 
L 368.218072 -80.758877 
L 370.596605 -80.897591 
L 372.975137 -81.02767 
L 375.353669 -81.146598 
L 377.732202 -81.252221 
L 380.110734 -81.342742 
L 382.489266 -81.416702 
L 384.867798 -81.472953 
L 387.246331 -81.510625 
L 389.624863 -81.529072 
L 392.003395 -81.527846 
L 394.381928 -81.50669 
L 396.76046 -81.46552 
L 399.138992 -81.404379 
L 401.517525 -81.323422 
L 403.896057 -81.222917 
L 406.274589 -81.103275 
L 408.653122 -80.965044 
L 411.031654 -80.808935 
L 413.410186 -80.635772 
L 415.788719 -80.446487 
L 418.167251 -80.24215 
L 420.545783 -80.024007 
L 422.924315 -79.793528 
L 425.302848 -79.552465 
L 427.68138 -79.302972 
L 430.059912 -79.047686 
L 432.438445 -78.789715 
L 434.816977 -78.532499 
L 437.195509 -78.279652 
L 439.574042 -78.034729 
L 441.952574 -77.801084 
L 444.331106 -77.581756 
L 446.709639 -77.379456 
L 449.088171 -77.196615 
L 451.466703 -77.035464 
L 453.845235 -76.898045 
L 456.223768 -76.786241 
L 458.6023 -76.701757 
L 460.980832 -76.646114 
L 463.359365 -76.620586 
L 465.737897 -76.626151 
L 468.116429 -76.663409 
L 470.494962 -76.732569 
L 472.873494 -76.833465 
L 475.252026 -76.965582 
L 477.630559 -77.128079 
L 480.009091 -77.31983 
L 482.387623 -77.53951 
L 484.766156 -77.785656 
L 487.144688 -78.056756 
L 489.52322 -78.351322 
L 491.901752 -78.668001 
L 494.280285 -79.00567 
L 496.658817 -79.363461 
L 499.037349 -79.740705 
L 501.415882 -80.136829 
L 503.794414 -80.551221 
L 506.172946 -80.983107 
L 508.551479 -81.431474 
L 510.930011 -81.895083 
L 513.308543 -82.372462 
L 515.687076 -82.861935 
L 518.065608 -83.36169 
L 520.44414 -83.869727 
L 522.822673 -84.383921 
L 525.201205 -84.902048 
L 527.579737 -85.421797 
L 529.958269 -85.940784 
L 532.336802 -86.45658 
L 534.715334 -86.966736 
L 537.093866 -87.468814 
L 539.472399 -87.960433 
L 541.850931 -88.439293 
L 544.229463 -88.903242 
L 546.607996 -89.350323 
L 548.986528 -89.778822 
L 551.36506 -90.187269 
L 553.743593 -90.574467 
L 556.122125 -90.939521 
L 558.500657 -91.281852 
L 560.879189 -91.601216 
L 563.257722 -91.89772 
L 565.636254 -92.171843 
L 568.014786 -92.42449 
L 570.393319 -92.656993 
L 572.771851 -92.87116 
L 575.150383 -93.069277 
L 577.528916 -93.254073 
L 579.907448 -93.428742 
L 582.28598 -93.596876 
L 584.664513 -93.762409 
L 587.043045 -93.929587 
L 589.421577 -94.102872 
L 591.80011 -94.286879 
L 594.178642 -94.48632 
L 596.557174 -94.705936 
L 598.935706 -94.950561 
L 601.314239 -95.225014 
L 603.692771 -95.534034 
L 606.071303 -95.882254 
L 608.449836 -96.274099 
L 610.828368 -96.713659 
L 613.2069 -97.204612 
L 615.585433 -97.75012 
L 617.963965 -98.352708 
L 620.342497 -99.014221 
L 622.72103 -99.73575 
L 625.099562 -100.517534 
L 627.478094 -101.358832 
L 629.856627 -102.257928 
L 632.235159 -103.212113 
L 634.613691 -104.217687 
L 636.992223 -105.270041 
L 639.370756 -106.363807 
L 641.749288 -107.493064 
L 644.12782 -108.651645 
L 646.506353 -109.833486 
L 648.884885 -111.032978 
L 651.263417 -112.245288 
L 653.64195 -113.466532 
L 656.020482 -114.69389 
L 658.399014 -115.925648 
L 660.777547 -117.160985 
L 663.156079 -118.399658 
L 665.534611 -119.641868 
L 667.913143 -120.887954 
L 670.291676 -122.138171 
L 672.670208 -123.392679 
L 675.04874 -124.651574 
L 677.427273 -125.914814 
L 677.427273 -141.600431 
L 677.427273 -141.600431 
L 675.04874 -140.312661 
L 672.670208 -139.028676 
L 670.291676 -137.755108 
L 667.913143 -136.498906 
L 665.534611 -135.267264 
L 663.156079 -134.067518 
L 660.777547 -132.907058 
L 658.399014 -131.793254 
L 656.020482 -130.733268 
L 653.64195 -129.733873 
L 651.263417 -128.801231 
L 648.884885 -127.940726 
L 646.506353 -127.156751 
L 644.12782 -126.452574 
L 641.749288 -125.830225 
L 639.370756 -125.290411 
L 636.992223 -124.83245 
L 634.613691 -124.454324 
L 632.235159 -124.15279 
L 629.856627 -123.923488 
L 627.478094 -123.761069 
L 625.099562 -123.659367 
L 622.72103 -123.61153 
L 620.342497 -123.610147 
L 617.963965 -123.647458 
L 615.585433 -123.715409 
L 613.2069 -123.805843 
L 610.828368 -123.910662 
L 608.449836 -124.021992 
L 606.071303 -124.132347 
L 603.692771 -124.23473 
L 601.314239 -124.322648 
L 598.935706 -124.390111 
L 596.557174 -124.431655 
L 594.178642 -124.442296 
L 591.80011 -124.417631 
L 589.421577 -124.353922 
L 587.043045 -124.248215 
L 584.664513 -124.098363 
L 582.28598 -123.902954 
L 579.907448 -123.661247 
L 577.528916 -123.372907 
L 575.150383 -123.037906 
L 572.771851 -122.656369 
L 570.393319 -122.228398 
L 568.014786 -121.75423 
L 565.636254 -121.234104 
L 563.257722 -120.668314 
L 560.879189 -120.057409 
L 558.500657 -119.402086 
L 556.122125 -118.70329 
L 553.743593 -117.962181 
L 551.36506 -117.18009 
L 548.986528 -116.358498 
L 546.607996 -115.498803 
L 544.229463 -114.602288 
L 541.850931 -113.66999 
L 539.472399 -112.702589 
L 537.093866 -111.700487 
L 534.715334 -110.663843 
L 532.336802 -109.592853 
L 529.958269 -108.487782 
L 527.579737 -107.349169 
L 525.201205 -106.178006 
L 522.822673 -104.975839 
L 520.44414 -103.744938 
L 518.065608 -102.488451 
L 515.687076 -101.210623 
L 513.308543 -99.917002 
L 510.930011 -98.61497 
L 508.551479 -97.313537 
L 506.172946 -96.023638 
L 503.794414 -94.758377 
L 501.415882 -93.532768 
L 499.037349 -92.363548 
L 496.658817 -91.268446 
L 494.280285 -90.265131 
L 491.901752 -89.369941 
L 489.52322 -88.596743 
L 487.144688 -87.956127 
L 484.766156 -87.454941 
L 482.387623 -87.096355 
L 480.009091 -86.879978 
L 477.630559 -86.802031 
L 475.252026 -86.855672 
L 472.873494 -87.031177 
L 470.494962 -87.316459 
L 468.116429 -87.697553 
L 465.737897 -88.159149 
L 463.359365 -88.685199 
L 460.980832 -89.259466 
L 458.6023 -89.86593 
L 456.223768 -90.489065 
L 453.845235 -91.114096 
L 451.466703 -91.727128 
L 449.088171 -92.315481 
L 446.709639 -92.867917 
L 444.331106 -93.37502 
L 441.952574 -93.829587 
L 439.574042 -94.227165 
L 437.195509 -94.566417 
L 434.816977 -94.849164 
L 432.438445 -95.079727 
L 430.059912 -95.263993 
L 427.68138 -95.408154 
L 425.302848 -95.517583 
L 422.924315 -95.596055 
L 420.545783 -95.645723 
L 418.167251 -95.667446 
L 415.788719 -95.661289 
L 413.410186 -95.627103 
L 411.031654 -95.564886 
L 408.653122 -95.474978 
L 406.274589 -95.358118 
L 403.896057 -95.215449 
L 401.517525 -95.048419 
L 399.138992 -94.858845 
L 396.76046 -94.648848 
L 394.381928 -94.420834 
L 392.003395 -94.177546 
L 389.624863 -93.921939 
L 387.246331 -93.657133 
L 384.867798 -93.38631 
L 382.489266 -93.112642 
L 380.110734 -92.839129 
L 377.732202 -92.568456 
L 375.353669 -92.302907 
L 372.975137 -92.044273 
L 370.596605 -91.793769 
L 368.218072 -91.552005 
L 365.83954 -91.318992 
L 363.461008 -91.094233 
L 361.082475 -90.876789 
L 358.703943 -90.665414 
L 356.325411 -90.4587 
L 353.946878 -90.255215 
L 351.568346 -90.053723 
L 349.189814 -89.853402 
L 346.811281 -89.653991 
L 344.432749 -89.455971 
L 342.054217 -89.260769 
L 339.675685 -89.070801 
L 337.297152 -88.889483 
L 334.91862 -88.72124 
L 332.540088 -88.571274 
L 330.161555 -88.445384 
L 327.783023 -88.349634 
L 325.404491 -88.289981 
L 323.025958 -88.27199 
L 320.647426 -88.300477 
L 318.268894 -88.379278 
L 315.890361 -88.511059 
L 313.511829 -88.697245 
L 311.133297 -88.938092 
L 308.754765 -89.232702 
L 306.376232 -89.579134 
L 303.9977 -89.974579 
L 301.619168 -90.415648 
L 299.240635 -90.898452 
L 296.862103 -91.418879 
L 294.483571 -91.972821 
L 292.105038 -92.556383 
L 289.726506 -93.165966 
L 287.347974 -93.798284 
L 284.969441 -94.450392 
L 282.590909 -95.119572 
L 280.212377 -95.80315 
L 277.833844 -96.498346 
L 275.455312 -97.20213 
L 273.07678 -97.911166 
L 270.698248 -98.621786 
L 268.319715 -99.329995 
L 265.941183 -100.031594 
L 263.562651 -100.72223 
L 261.184118 -101.397499 
L 258.805586 -102.053043 
L 256.427054 -102.684617 
L 254.048521 -103.288234 
L 251.669989 -103.860255 
L 249.291457 -104.397378 
L 246.912924 -104.896733 
L 244.534392 -105.355871 
L 242.15586 -105.772746 
L 239.777327 -106.145727 
L 237.398795 -106.473514 
L 235.020263 -106.755039 
L 232.641731 -106.989485 
L 230.263198 -107.176192 
L 227.884666 -107.314673 
L 225.506134 -107.404593 
L 223.127601 -107.445759 
L 220.749069 -107.438162 
L 218.370537 -107.382005 
L 215.992004 -107.277652 
L 213.613472 -107.125644 
L 211.23494 -106.926618 
L 208.856407 -106.68131 
L 206.477875 -106.390588 
L 204.099343 -106.055451 
L 201.720811 -105.677044 
L 199.342278 -105.256595 
L 196.963746 -104.795444 
L 194.585214 -104.295072 
L 192.206681 -103.75709 
L 189.828149 -103.183238 
L 187.449617 -102.575455 
L 185.071084 -101.935829 
L 182.692552 -101.266606 
L 180.31402 -100.570249 
L 177.935487 -99.849393 
L 175.556955 -99.106758 
L 173.178423 -98.345095 
L 170.79989 -97.567121 
L 168.421358 -96.775484 
L 166.042826 -95.972695 
L 163.664294 -95.161099 
L 161.285761 -94.342856 
L 158.907229 -93.519938 
L 156.528697 -92.694165 
L 154.150164 -91.867197 
L 151.771632 -91.040485 
L 149.3931 -90.215052 
L 147.014567 -89.391526 
L 144.636035 -88.570114 
L 142.257503 -87.750581 
L 139.87897 -86.932216 
L 137.500438 -86.113806 
L 135.121906 -85.293617 
L 132.743373 -84.469399 
L 130.364841 -83.638418 
L 127.986309 -82.797484 
L 125.607777 -81.942992 
L 123.229244 -81.071009 
L 120.850712 -80.177363 
L 118.47218 -79.257752 
L 116.093647 -78.307846 
L 113.715115 -77.323407 
L 111.336583 -76.30041 
L 108.95805 -75.235156 
L 106.579518 -74.124385 
L 104.200986 -72.965381 
L 101.822453 -71.756064 
L 99.443921 -70.495091 
L 97.065389 -69.181943 
L 94.686857 -67.816985 
L 92.308324 -66.401507 
L 89.929792 -64.937743 
L 87.55126 -63.428881 
L 85.172727 -61.879091 
z
" style="stroke: #add8e6; stroke-opacity: 0.1"/>
    </defs>
    <g clip-path="url(#pbb90d81c70)">
     <use xlink:href="#m6237f7e649" x="0" y="360" style="fill: #add8e6; fill-opacity: 0.1; stroke: #add8e6; stroke-opacity: 0.1"/>
    </g>
   </g>
   <g id="line2d_1">
    <path d="M 85.172727 298.120909 
L 106.579518 282.547429 
L 120.850712 272.47076 
L 132.743373 264.329434 
L 144.636035 256.442082 
L 156.528697 248.852797 
L 166.042826 243.036125 
L 175.556955 237.456787 
L 187.449617 230.785333 
L 199.342278 224.396171 
L 213.613472 217.018969 
L 227.884666 209.891534 
L 242.15586 202.987439 
L 261.184118 194.065136 
L 292.105038 179.864947 
L 308.754765 172.457014 
L 325.404491 165.315945 
L 339.675685 159.432594 
L 353.946878 153.779788 
L 375.353669 145.595157 
L 396.76046 137.369747 
L 413.410186 130.739074 
L 434.816977 121.930362 
L 446.709639 117.119103 
L 458.6023 112.566603 
L 470.494962 108.294899 
L 482.387623 104.278176 
L 501.415882 98.15383 
L 570.393319 76.031402 
L 598.935706 66.64661 
L 625.099562 57.805392 
L 651.263417 48.986575 
L 663.156079 45.202675 
L 675.04874 41.629871 
L 677.427273 40.939091 
L 677.427273 40.939091 
" clip-path="url(#pbb90d81c70)" style="fill: none; stroke: #000000; stroke-width: 1.5; stroke-linecap: round"/>
   </g>
   <g id="line2d_2">
    <path d="M 85.172727 298.120909 
L 106.579518 282.071875 
L 118.47218 273.436375 
L 130.364841 265.085694 
L 142.257503 257.045103 
L 151.771632 250.863713 
L 161.285761 244.940938 
L 170.79989 239.297187 
L 180.31402 233.916651 
L 189.828149 228.760465 
L 201.720811 222.566225 
L 215.992004 215.401737 
L 232.641731 207.321666 
L 249.291457 199.518477 
L 273.07678 188.6752 
L 294.483571 179.075245 
L 308.754765 172.927368 
L 323.025958 167.022822 
L 337.297152 161.344484 
L 353.946878 154.986769 
L 372.975137 147.992602 
L 403.896057 136.699447 
L 418.167251 131.251024 
L 432.438445 125.548644 
L 449.088171 118.913261 
L 460.980832 114.459895 
L 470.494962 111.113611 
L 482.387623 107.192816 
L 496.658817 102.75558 
L 539.472399 89.81612 
L 587.043045 75.459974 
L 606.071303 69.411384 
L 648.884885 55.642329 
L 663.156079 51.364244 
L 677.427273 47.310689 
L 677.427273 47.310689 
" clip-path="url(#pbb90d81c70)" style="fill: none; stroke: #a52a2a; stroke-width: 1.5; stroke-linecap: round"/>
   </g>
   <g id="line2d_3">
    <path d="M 85.172727 298.120909 
L 94.686857 294.852422 
L 101.822453 292.612733 
L 111.336583 289.901031 
L 120.850712 287.42782 
L 139.87897 282.784058 
L 156.528697 278.872475 
L 166.042826 276.829803 
L 173.178423 275.466364 
L 180.31402 274.288652 
L 187.449617 273.326858 
L 194.585214 272.602223 
L 201.720811 272.125876 
L 208.856407 271.899796 
L 215.992004 271.918162 
L 223.127601 272.168286 
L 230.263198 272.632132 
L 237.398795 273.28785 
L 246.912924 274.421132 
L 256.427054 275.792031 
L 275.455312 278.861216 
L 287.347974 280.671317 
L 296.862103 281.900741 
L 303.9977 282.624517 
L 311.133297 283.115798 
L 318.268894 283.333351 
L 325.404491 283.278641 
L 332.540088 283.006304 
L 346.811281 282.157348 
L 370.596605 280.761269 
L 387.246331 279.95041 
L 399.138992 279.614352 
L 408.653122 279.572399 
L 418.167251 279.74015 
L 430.059912 280.209765 
L 439.574042 280.82044 
L 449.088171 281.681452 
L 463.359365 283.010565 
L 470.494962 283.377105 
L 475.252026 283.4188 
L 480.009091 283.264897 
L 484.766156 282.896647 
L 489.52322 282.305821 
L 494.280285 281.500065 
L 499.037349 280.50809 
L 506.172946 278.77351 
L 534.715334 271.457105 
L 544.229463 269.435348 
L 551.36506 268.135157 
L 558.500657 267.054959 
L 565.636254 266.224276 
L 572.771851 265.655198 
L 579.907448 265.33791 
L 587.043045 265.244148 
L 596.557174 265.378733 
L 613.2069 265.693814 
L 620.342497 265.532208 
L 625.099562 265.23108 
L 629.856627 264.740309 
L 634.613691 264.038848 
L 639.370756 263.115462 
L 644.12782 261.970206 
L 648.884885 260.614804 
L 653.64195 259.071214 
L 660.777547 256.468231 
L 667.913143 253.62062 
L 677.427273 249.638678 
L 677.427273 249.638678 
" clip-path="url(#pbb90d81c70)" style="fill: none; stroke: #000080; stroke-width: 1.5; stroke-linecap: round"/>
   </g>
   <g id="line2d_4">
    <path d="M 85.172727 298.120909 
L 92.308324 294.678376 
L 99.443921 291.457259 
L 106.579518 288.478717 
L 113.715115 285.73558 
L 120.850712 283.200416 
L 130.364841 280.081085 
L 139.87897 277.193112 
L 149.3931 274.503041 
L 158.907229 272.024752 
L 168.421358 269.80697 
L 175.556955 268.350874 
L 182.692552 267.099309 
L 189.828149 266.071176 
L 196.963746 265.275836 
L 204.099343 264.712982 
L 211.23494 264.3762 
L 218.370537 264.256316 
L 225.506134 264.342718 
L 232.641731 264.623442 
L 239.777327 265.086042 
L 249.291457 265.965426 
L 258.805586 267.110268 
L 270.698248 268.815787 
L 306.376232 274.175645 
L 313.511829 274.944433 
L 320.647426 275.474555 
L 327.783023 275.739199 
L 334.91862 275.751636 
L 342.054217 275.55588 
L 351.568346 275.062742 
L 365.83954 274.033307 
L 387.246331 272.416121 
L 396.76046 271.942816 
L 403.896057 271.780817 
L 411.031654 271.813089 
L 418.167251 272.045202 
L 425.302848 272.464976 
L 432.438445 273.065279 
L 439.574042 273.869053 
L 446.709639 274.876314 
L 463.359365 277.347108 
L 468.116429 277.819519 
L 472.873494 278.067679 
L 477.630559 278.034945 
L 482.387623 277.682067 
L 487.144688 276.993558 
L 491.901752 275.981029 
L 496.658817 274.684047 
L 501.415882 273.165201 
L 508.551479 270.627495 
L 529.958269 262.785717 
L 537.093866 260.41535 
L 544.229463 258.247235 
L 551.36506 256.31632 
L 558.500657 254.658031 
L 565.636254 253.297026 
L 572.771851 252.236235 
L 579.907448 251.455006 
L 587.043045 250.911099 
L 596.557174 250.431205 
L 608.449836 249.851955 
L 615.585433 249.267236 
L 620.342497 248.687816 
L 625.099562 247.911549 
L 629.856627 246.909292 
L 634.613691 245.663995 
L 639.370756 244.172891 
L 644.12782 242.447891 
L 648.884885 240.513148 
L 656.020482 237.286421 
L 663.156079 233.766412 
L 672.670208 228.789323 
L 677.427273 226.242378 
L 677.427273 226.242378 
" clip-path="url(#pbb90d81c70)" style="fill: none; stroke: #add8e6; stroke-width: 1.5; stroke-linecap: round"/>
   </g>
   <g id="patch_3">
    <path d="M 55.56 310.98 
L 55.56 28.08 
" style="fill: none; stroke: #ffffff; stroke-width: 1.25; stroke-linejoin: miter; stroke-linecap: square"/>
   </g>
   <g id="patch_4">
    <path d="M 707.04 310.98 
L 707.04 28.08 
" style="fill: none; stroke: #ffffff; stroke-width: 1.25; stroke-linejoin: miter; stroke-linecap: square"/>
   </g>
   <g id="patch_5">
    <path d="M 55.56 310.98 
L 707.04 310.98 
" style="fill: none; stroke: #ffffff; stroke-width: 1.25; stroke-linejoin: miter; stroke-linecap: square"/>
   </g>
   <g id="patch_6">
    <path d="M 55.56 28.08 
L 707.04 28.08 
" style="fill: none; stroke: #ffffff; stroke-width: 1.25; stroke-linejoin: miter; stroke-linecap: square"/>
   </g>
   <g id="text_16">
    <!-- QG3L - [32, 96] x [256, 384] -->
    <g style="fill: #262626" transform="translate(296.2575 22.08) scale(0.12 -0.12)">
     <defs>
      <path id="DejaVuSans-51" d="M 2522 4238 
Q 1834 4238 1429 3725 
Q 1025 3213 1025 2328 
Q 1025 1447 1429 934 
Q 1834 422 2522 422 
Q 3209 422 3611 934 
Q 4013 1447 4013 2328 
Q 4013 3213 3611 3725 
Q 3209 4238 2522 4238 
z
M 3406 84 
L 4238 -825 
L 3475 -825 
L 2784 -78 
Q 2681 -84 2626 -87 
Q 2572 -91 2522 -91 
Q 1538 -91 948 567 
Q 359 1225 359 2328 
Q 359 3434 948 4092 
Q 1538 4750 2522 4750 
Q 3503 4750 4090 4092 
Q 4678 3434 4678 2328 
Q 4678 1516 4351 937 
Q 4025 359 3406 84 
z
" transform="scale(0.015625)"/>
      <path id="DejaVuSans-47" d="M 3809 666 
L 3809 1919 
L 2778 1919 
L 2778 2438 
L 4434 2438 
L 4434 434 
Q 4069 175 3628 42 
Q 3188 -91 2688 -91 
Q 1594 -91 976 548 
Q 359 1188 359 2328 
Q 359 3472 976 4111 
Q 1594 4750 2688 4750 
Q 3144 4750 3555 4637 
Q 3966 4525 4313 4306 
L 4313 3634 
Q 3963 3931 3569 4081 
Q 3175 4231 2741 4231 
Q 1884 4231 1454 3753 
Q 1025 3275 1025 2328 
Q 1025 1384 1454 906 
Q 1884 428 2741 428 
Q 3075 428 3337 486 
Q 3600 544 3809 666 
z
" transform="scale(0.015625)"/>
      <path id="DejaVuSans-4c" d="M 628 4666 
L 1259 4666 
L 1259 531 
L 3531 531 
L 3531 0 
L 628 0 
L 628 4666 
z
" transform="scale(0.015625)"/>
      <path id="DejaVuSans-2d" d="M 313 2009 
L 1997 2009 
L 1997 1497 
L 313 1497 
L 313 2009 
z
" transform="scale(0.015625)"/>
      <path id="DejaVuSans-2c" d="M 750 794 
L 1409 794 
L 1409 256 
L 897 -744 
L 494 -744 
L 750 256 
L 750 794 
z
" transform="scale(0.015625)"/>
      <path id="DejaVuSans-39" d="M 703 97 
L 703 672 
Q 941 559 1184 500 
Q 1428 441 1663 441 
Q 2288 441 2617 861 
Q 2947 1281 2994 2138 
Q 2813 1869 2534 1725 
Q 2256 1581 1919 1581 
Q 1219 1581 811 2004 
Q 403 2428 403 3163 
Q 403 3881 828 4315 
Q 1253 4750 1959 4750 
Q 2769 4750 3195 4129 
Q 3622 3509 3622 2328 
Q 3622 1225 3098 567 
Q 2575 -91 1691 -91 
Q 1453 -91 1209 -44 
Q 966 3 703 97 
z
M 1959 2075 
Q 2384 2075 2632 2365 
Q 2881 2656 2881 3163 
Q 2881 3666 2632 3958 
Q 2384 4250 1959 4250 
Q 1534 4250 1286 3958 
Q 1038 3666 1038 3163 
Q 1038 2656 1286 2365 
Q 1534 2075 1959 2075 
z
" transform="scale(0.015625)"/>
      <path id="DejaVuSans-78" d="M 3513 3500 
L 2247 1797 
L 3578 0 
L 2900 0 
L 1881 1375 
L 863 0 
L 184 0 
L 1544 1831 
L 300 3500 
L 978 3500 
L 1906 2253 
L 2834 3500 
L 3513 3500 
z
" transform="scale(0.015625)"/>
      <path id="DejaVuSans-38" d="M 2034 2216 
Q 1584 2216 1326 1975 
Q 1069 1734 1069 1313 
Q 1069 891 1326 650 
Q 1584 409 2034 409 
Q 2484 409 2743 651 
Q 3003 894 3003 1313 
Q 3003 1734 2745 1975 
Q 2488 2216 2034 2216 
z
M 1403 2484 
Q 997 2584 770 2862 
Q 544 3141 544 3541 
Q 544 4100 942 4425 
Q 1341 4750 2034 4750 
Q 2731 4750 3128 4425 
Q 3525 4100 3525 3541 
Q 3525 3141 3298 2862 
Q 3072 2584 2669 2484 
Q 3125 2378 3379 2068 
Q 3634 1759 3634 1313 
Q 3634 634 3220 271 
Q 2806 -91 2034 -91 
Q 1263 -91 848 271 
Q 434 634 434 1313 
Q 434 1759 690 2068 
Q 947 2378 1403 2484 
z
M 1172 3481 
Q 1172 3119 1398 2916 
Q 1625 2713 2034 2713 
Q 2441 2713 2670 2916 
Q 2900 3119 2900 3481 
Q 2900 3844 2670 4047 
Q 2441 4250 2034 4250 
Q 1625 4250 1398 4047 
Q 1172 3844 1172 3481 
z
" transform="scale(0.015625)"/>
     </defs>
     <use xlink:href="#DejaVuSans-51"/>
     <use xlink:href="#DejaVuSans-47" transform="translate(78.710938 0)"/>
     <use xlink:href="#DejaVuSans-33" transform="translate(156.201172 0)"/>
     <use xlink:href="#DejaVuSans-4c" transform="translate(219.824219 0)"/>
     <use xlink:href="#DejaVuSans-20" transform="translate(275.537109 0)"/>
     <use xlink:href="#DejaVuSans-2d" transform="translate(307.324219 0)"/>
     <use xlink:href="#DejaVuSans-20" transform="translate(343.408203 0)"/>
     <use xlink:href="#DejaVuSans-5b" transform="translate(375.195312 0)"/>
     <use xlink:href="#DejaVuSans-33" transform="translate(414.208984 0)"/>
     <use xlink:href="#DejaVuSans-32" transform="translate(477.832031 0)"/>
     <use xlink:href="#DejaVuSans-2c" transform="translate(541.455078 0)"/>
     <use xlink:href="#DejaVuSans-20" transform="translate(573.242188 0)"/>
     <use xlink:href="#DejaVuSans-39" transform="translate(605.029297 0)"/>
     <use xlink:href="#DejaVuSans-36" transform="translate(668.652344 0)"/>
     <use xlink:href="#DejaVuSans-5d" transform="translate(732.275391 0)"/>
     <use xlink:href="#DejaVuSans-20" transform="translate(771.289062 0)"/>
     <use xlink:href="#DejaVuSans-78" transform="translate(803.076172 0)"/>
     <use xlink:href="#DejaVuSans-20" transform="translate(862.255859 0)"/>
     <use xlink:href="#DejaVuSans-5b" transform="translate(894.042969 0)"/>
     <use xlink:href="#DejaVuSans-32" transform="translate(933.056641 0)"/>
     <use xlink:href="#DejaVuSans-35" transform="translate(996.679688 0)"/>
     <use xlink:href="#DejaVuSans-36" transform="translate(1060.302734 0)"/>
     <use xlink:href="#DejaVuSans-2c" transform="translate(1123.925781 0)"/>
     <use xlink:href="#DejaVuSans-20" transform="translate(1155.712891 0)"/>
     <use xlink:href="#DejaVuSans-33" transform="translate(1187.5 0)"/>
     <use xlink:href="#DejaVuSans-38" transform="translate(1251.123047 0)"/>
     <use xlink:href="#DejaVuSans-34" transform="translate(1314.746094 0)"/>
     <use xlink:href="#DejaVuSans-5d" transform="translate(1378.369141 0)"/>
    </g>
   </g>
   <g id="legend_1">
    <g id="patch_7">
     <path d="M 63.26 101.46375 
L 222.600156 101.46375 
Q 224.800156 101.46375 224.800156 99.26375 
L 224.800156 35.78 
Q 224.800156 33.58 222.600156 33.58 
L 63.26 33.58 
Q 61.06 33.58 61.06 35.78 
L 61.06 99.26375 
Q 61.06 101.46375 63.26 101.46375 
z
" style="fill: #eaeaf2; opacity: 0.8; stroke: #cccccc; stroke-linejoin: miter"/>
    </g>
    <g id="line2d_5">
     <path d="M 65.46 42.488281 
L 76.46 42.488281 
L 87.46 42.488281 
" style="fill: none; stroke: #000000; stroke-width: 1.5; stroke-linecap: round"/>
    </g>
    <g id="text_17">
     <!-- Reduced Gravity - Pert -->
     <g style="fill: #262626" transform="translate(96.26 46.338281) scale(0.11 -0.11)">
      <defs>
       <path id="DejaVuSans-75" d="M 544 1381 
L 544 3500 
L 1119 3500 
L 1119 1403 
Q 1119 906 1312 657 
Q 1506 409 1894 409 
Q 2359 409 2629 706 
Q 2900 1003 2900 1516 
L 2900 3500 
L 3475 3500 
L 3475 0 
L 2900 0 
L 2900 538 
Q 2691 219 2414 64 
Q 2138 -91 1772 -91 
Q 1169 -91 856 284 
Q 544 659 544 1381 
z
M 1991 3584 
L 1991 3584 
z
" transform="scale(0.015625)"/>
       <path id="DejaVuSans-63" d="M 3122 3366 
L 3122 2828 
Q 2878 2963 2633 3030 
Q 2388 3097 2138 3097 
Q 1578 3097 1268 2742 
Q 959 2388 959 1747 
Q 959 1106 1268 751 
Q 1578 397 2138 397 
Q 2388 397 2633 464 
Q 2878 531 3122 666 
L 3122 134 
Q 2881 22 2623 -34 
Q 2366 -91 2075 -91 
Q 1284 -91 818 406 
Q 353 903 353 1747 
Q 353 2603 823 3093 
Q 1294 3584 2113 3584 
Q 2378 3584 2631 3529 
Q 2884 3475 3122 3366 
z
" transform="scale(0.015625)"/>
       <path id="DejaVuSans-72" d="M 2631 2963 
Q 2534 3019 2420 3045 
Q 2306 3072 2169 3072 
Q 1681 3072 1420 2755 
Q 1159 2438 1159 1844 
L 1159 0 
L 581 0 
L 581 3500 
L 1159 3500 
L 1159 2956 
Q 1341 3275 1631 3429 
Q 1922 3584 2338 3584 
Q 2397 3584 2469 3576 
Q 2541 3569 2628 3553 
L 2631 2963 
z
" transform="scale(0.015625)"/>
       <path id="DejaVuSans-76" d="M 191 3500 
L 800 3500 
L 1894 563 
L 2988 3500 
L 3597 3500 
L 2284 0 
L 1503 0 
L 191 3500 
z
" transform="scale(0.015625)"/>
       <path id="DejaVuSans-74" d="M 1172 4494 
L 1172 3500 
L 2356 3500 
L 2356 3053 
L 1172 3053 
L 1172 1153 
Q 1172 725 1289 603 
Q 1406 481 1766 481 
L 2356 481 
L 2356 0 
L 1766 0 
Q 1100 0 847 248 
Q 594 497 594 1153 
L 594 3053 
L 172 3053 
L 172 3500 
L 594 3500 
L 594 4494 
L 1172 4494 
z
" transform="scale(0.015625)"/>
       <path id="DejaVuSans-50" d="M 1259 4147 
L 1259 2394 
L 2053 2394 
Q 2494 2394 2734 2622 
Q 2975 2850 2975 3272 
Q 2975 3691 2734 3919 
Q 2494 4147 2053 4147 
L 1259 4147 
z
M 628 4666 
L 2053 4666 
Q 2838 4666 3239 4311 
Q 3641 3956 3641 3272 
Q 3641 2581 3239 2228 
Q 2838 1875 2053 1875 
L 1259 1875 
L 1259 0 
L 628 0 
L 628 4666 
z
" transform="scale(0.015625)"/>
      </defs>
      <use xlink:href="#DejaVuSans-52"/>
      <use xlink:href="#DejaVuSans-65" transform="translate(64.982422 0)"/>
      <use xlink:href="#DejaVuSans-64" transform="translate(126.505859 0)"/>
      <use xlink:href="#DejaVuSans-75" transform="translate(189.982422 0)"/>
      <use xlink:href="#DejaVuSans-63" transform="translate(253.361328 0)"/>
      <use xlink:href="#DejaVuSans-65" transform="translate(308.341797 0)"/>
      <use xlink:href="#DejaVuSans-64" transform="translate(369.865234 0)"/>
      <use xlink:href="#DejaVuSans-20" transform="translate(433.341797 0)"/>
      <use xlink:href="#DejaVuSans-47" transform="translate(465.128906 0)"/>
      <use xlink:href="#DejaVuSans-72" transform="translate(542.619141 0)"/>
      <use xlink:href="#DejaVuSans-61" transform="translate(583.732422 0)"/>
      <use xlink:href="#DejaVuSans-76" transform="translate(645.011719 0)"/>
      <use xlink:href="#DejaVuSans-69" transform="translate(704.191406 0)"/>
      <use xlink:href="#DejaVuSans-74" transform="translate(731.974609 0)"/>
      <use xlink:href="#DejaVuSans-79" transform="translate(771.183594 0)"/>
      <use xlink:href="#DejaVuSans-20" transform="translate(830.363281 0)"/>
      <use xlink:href="#DejaVuSans-2d" transform="translate(862.150391 0)"/>
      <use xlink:href="#DejaVuSans-20" transform="translate(898.234375 0)"/>
      <use xlink:href="#DejaVuSans-50" transform="translate(930.021484 0)"/>
      <use xlink:href="#DejaVuSans-65" transform="translate(986.699219 0)"/>
      <use xlink:href="#DejaVuSans-72" transform="translate(1048.222656 0)"/>
      <use xlink:href="#DejaVuSans-74" transform="translate(1089.335938 0)"/>
     </g>
    </g>
    <g id="line2d_6">
     <path d="M 65.46 58.634219 
L 76.46 58.634219 
L 87.46 58.634219 
" style="fill: none; stroke: #a52a2a; stroke-width: 1.5; stroke-linecap: round"/>
    </g>
    <g id="text_18">
     <!-- VarDyn -->
     <g style="fill: #262626" transform="translate(96.26 62.484219) scale(0.11 -0.11)">
      <defs>
       <path id="DejaVuSans-56" d="M 1831 0 
L 50 4666 
L 709 4666 
L 2188 738 
L 3669 4666 
L 4325 4666 
L 2547 0 
L 1831 0 
z
" transform="scale(0.015625)"/>
       <path id="DejaVuSans-44" d="M 1259 4147 
L 1259 519 
L 2022 519 
Q 2988 519 3436 956 
Q 3884 1394 3884 2338 
Q 3884 3275 3436 3711 
Q 2988 4147 2022 4147 
L 1259 4147 
z
M 628 4666 
L 1925 4666 
Q 3281 4666 3915 4102 
Q 4550 3538 4550 2338 
Q 4550 1131 3912 565 
Q 3275 0 1925 0 
L 628 0 
L 628 4666 
z
" transform="scale(0.015625)"/>
      </defs>
      <use xlink:href="#DejaVuSans-56"/>
      <use xlink:href="#DejaVuSans-61" transform="translate(60.658203 0)"/>
      <use xlink:href="#DejaVuSans-72" transform="translate(121.9375 0)"/>
      <use xlink:href="#DejaVuSans-44" transform="translate(163.050781 0)"/>
      <use xlink:href="#DejaVuSans-79" transform="translate(240.052734 0)"/>
      <use xlink:href="#DejaVuSans-6e" transform="translate(299.232422 0)"/>
     </g>
    </g>
    <g id="line2d_7">
     <path d="M 65.46 74.780156 
L 76.46 74.780156 
L 87.46 74.780156 
" style="fill: none; stroke: #000080; stroke-width: 1.5; stroke-linecap: round"/>
    </g>
    <g id="text_19">
     <!-- SurfML -->
     <g style="fill: #262626" transform="translate(96.26 78.630156) scale(0.11 -0.11)">
      <defs>
       <path id="DejaVuSans-66" d="M 2375 4863 
L 2375 4384 
L 1825 4384 
Q 1516 4384 1395 4259 
Q 1275 4134 1275 3809 
L 1275 3500 
L 2222 3500 
L 2222 3053 
L 1275 3053 
L 1275 0 
L 697 0 
L 697 3053 
L 147 3053 
L 147 3500 
L 697 3500 
L 697 3744 
Q 697 4328 969 4595 
Q 1241 4863 1831 4863 
L 2375 4863 
z
" transform="scale(0.015625)"/>
      </defs>
      <use xlink:href="#DejaVuSans-53"/>
      <use xlink:href="#DejaVuSans-75" transform="translate(63.476562 0)"/>
      <use xlink:href="#DejaVuSans-72" transform="translate(126.855469 0)"/>
      <use xlink:href="#DejaVuSans-66" transform="translate(167.96875 0)"/>
      <use xlink:href="#DejaVuSans-4d" transform="translate(203.173828 0)"/>
      <use xlink:href="#DejaVuSans-4c" transform="translate(289.453125 0)"/>
     </g>
    </g>
    <g id="line2d_8">
     <path d="M 65.46 90.926094 
L 76.46 90.926094 
L 87.46 90.926094 
" style="fill: none; stroke: #add8e6; stroke-width: 1.5; stroke-linecap: round"/>
    </g>
    <g id="text_20">
     <!-- SurfML - No Alpha -->
     <g style="fill: #262626" transform="translate(96.26 94.776094) scale(0.11 -0.11)">
      <defs>
       <path id="DejaVuSans-4e" d="M 628 4666 
L 1478 4666 
L 3547 763 
L 3547 4666 
L 4159 4666 
L 4159 0 
L 3309 0 
L 1241 3903 
L 1241 0 
L 628 0 
L 628 4666 
z
" transform="scale(0.015625)"/>
       <path id="DejaVuSans-6f" d="M 1959 3097 
Q 1497 3097 1228 2736 
Q 959 2375 959 1747 
Q 959 1119 1226 758 
Q 1494 397 1959 397 
Q 2419 397 2687 759 
Q 2956 1122 2956 1747 
Q 2956 2369 2687 2733 
Q 2419 3097 1959 3097 
z
M 1959 3584 
Q 2709 3584 3137 3096 
Q 3566 2609 3566 1747 
Q 3566 888 3137 398 
Q 2709 -91 1959 -91 
Q 1206 -91 779 398 
Q 353 888 353 1747 
Q 353 2609 779 3096 
Q 1206 3584 1959 3584 
z
" transform="scale(0.015625)"/>
       <path id="DejaVuSans-41" d="M 2188 4044 
L 1331 1722 
L 3047 1722 
L 2188 4044 
z
M 1831 4666 
L 2547 4666 
L 4325 0 
L 3669 0 
L 3244 1197 
L 1141 1197 
L 716 0 
L 50 0 
L 1831 4666 
z
" transform="scale(0.015625)"/>
       <path id="DejaVuSans-6c" d="M 603 4863 
L 1178 4863 
L 1178 0 
L 603 0 
L 603 4863 
z
" transform="scale(0.015625)"/>
       <path id="DejaVuSans-70" d="M 1159 525 
L 1159 -1331 
L 581 -1331 
L 581 3500 
L 1159 3500 
L 1159 2969 
Q 1341 3281 1617 3432 
Q 1894 3584 2278 3584 
Q 2916 3584 3314 3078 
Q 3713 2572 3713 1747 
Q 3713 922 3314 415 
Q 2916 -91 2278 -91 
Q 1894 -91 1617 61 
Q 1341 213 1159 525 
z
M 3116 1747 
Q 3116 2381 2855 2742 
Q 2594 3103 2138 3103 
Q 1681 3103 1420 2742 
Q 1159 2381 1159 1747 
Q 1159 1113 1420 752 
Q 1681 391 2138 391 
Q 2594 391 2855 752 
Q 3116 1113 3116 1747 
z
" transform="scale(0.015625)"/>
       <path id="DejaVuSans-68" d="M 3513 2113 
L 3513 0 
L 2938 0 
L 2938 2094 
Q 2938 2591 2744 2837 
Q 2550 3084 2163 3084 
Q 1697 3084 1428 2787 
Q 1159 2491 1159 1978 
L 1159 0 
L 581 0 
L 581 4863 
L 1159 4863 
L 1159 2956 
Q 1366 3272 1645 3428 
Q 1925 3584 2291 3584 
Q 2894 3584 3203 3211 
Q 3513 2838 3513 2113 
z
" transform="scale(0.015625)"/>
      </defs>
      <use xlink:href="#DejaVuSans-53"/>
      <use xlink:href="#DejaVuSans-75" transform="translate(63.476562 0)"/>
      <use xlink:href="#DejaVuSans-72" transform="translate(126.855469 0)"/>
      <use xlink:href="#DejaVuSans-66" transform="translate(167.96875 0)"/>
      <use xlink:href="#DejaVuSans-4d" transform="translate(203.173828 0)"/>
      <use xlink:href="#DejaVuSans-4c" transform="translate(289.453125 0)"/>
      <use xlink:href="#DejaVuSans-20" transform="translate(345.166016 0)"/>
      <use xlink:href="#DejaVuSans-2d" transform="translate(376.953125 0)"/>
      <use xlink:href="#DejaVuSans-20" transform="translate(413.037109 0)"/>
      <use xlink:href="#DejaVuSans-4e" transform="translate(444.824219 0)"/>
      <use xlink:href="#DejaVuSans-6f" transform="translate(519.628906 0)"/>
      <use xlink:href="#DejaVuSans-20" transform="translate(580.810547 0)"/>
      <use xlink:href="#DejaVuSans-41" transform="translate(612.597656 0)"/>
      <use xlink:href="#DejaVuSans-6c" transform="translate(681.005859 0)"/>
      <use xlink:href="#DejaVuSans-70" transform="translate(708.789062 0)"/>
      <use xlink:href="#DejaVuSans-68" transform="translate(772.265625 0)"/>
      <use xlink:href="#DejaVuSans-61" transform="translate(835.644531 0)"/>
     </g>
    </g>
   </g>
  </g>
 </g>
 <defs>
  <clipPath id="pbb90d81c70">
   <rect x="55.56" y="28.08" width="651.48" height="282.9"/>
  </clipPath>
 </defs>
</svg>
